<svg xmlns="http://www.w3.org/2000/svg" viewBox="0 0 347.52 132.54"><defs><style>.cls-1{fill:#53575a;}.cls-2{fill:#ff8300;}</style></defs><g id="Layer_2" data-name="Layer 2"><g id="Layer_1-2" data-name="Layer 1"><path class="cls-1" d="M151.3,101.91a5.42,5.42,0,0,1,.38-2,4.82,4.82,0,0,1,1-1.62,4.75,4.75,0,0,1,1.62-1.06,5.5,5.5,0,0,1,2.05-.38,5.42,5.42,0,0,1,2,.38,5,5,0,0,1,1.62,1.06,4.85,4.85,0,0,1,1.06,1.62,5.69,5.69,0,0,1,0,4.09,4.85,4.85,0,0,1-1.06,1.62,5,5,0,0,1-1.62,1.06,5.42,5.42,0,0,1-2,.38,5.5,5.5,0,0,1-2.05-.38,4.75,4.75,0,0,1-1.62-1.06,4.82,4.82,0,0,1-1-1.62A5.41,5.41,0,0,1,151.3,101.91Zm1.26,0a4.61,4.61,0,0,0,.26,1.54,3.61,3.61,0,0,0,2,2.11,3.89,3.89,0,0,0,1.59.31,3.94,3.94,0,0,0,1.6-.31,3.55,3.55,0,0,0,2-2.11,4.56,4.56,0,0,0,0-3.09,3.55,3.55,0,0,0-2-2.11,3.94,3.94,0,0,0-1.6-.31,3.89,3.89,0,0,0-1.59.31,3.61,3.61,0,0,0-2,2.11A4.63,4.63,0,0,0,152.56,101.91Z"/><path class="cls-1" d="M165,98.19h-2V97.05h2V93.88a3.71,3.71,0,0,1,.29-1.56,3,3,0,0,1,.7-1,2.38,2.38,0,0,1,.94-.53,3.12,3.12,0,0,1,1-.16,3.56,3.56,0,0,1,1.45.25L169.13,92a2.56,2.56,0,0,0-1.13-.21q-1.71,0-1.71,2.58v2.71h2.27v1.14h-2.27v8.57H165Z"/><path class="cls-1" d="M176.71,98.19h-2V97.05h2V93.88a3.72,3.72,0,0,1,.28-1.56,3,3,0,0,1,.71-1,2.42,2.42,0,0,1,.93-.53,3.18,3.18,0,0,1,1-.16,3.56,3.56,0,0,1,1.45.25L180.81,92a2.58,2.58,0,0,0-1.14-.21c-1.13,0-1.7.86-1.7,2.58v2.71h2.27v1.14H178v8.57h-1.26Z"/><path class="cls-1" d="M181.67,101.91a5.42,5.42,0,0,1,.37-2,5.15,5.15,0,0,1,1.05-1.62,4.75,4.75,0,0,1,1.62-1.06,5.75,5.75,0,0,1,4.11,0,4.8,4.8,0,0,1,1.61,1.06,4.7,4.7,0,0,1,1.06,1.62,5.69,5.69,0,0,1,0,4.09,4.7,4.7,0,0,1-1.06,1.62,4.8,4.8,0,0,1-1.61,1.06,5.75,5.75,0,0,1-4.11,0,4.75,4.75,0,0,1-1.62-1.06A5.15,5.15,0,0,1,182,104,5.4,5.4,0,0,1,181.67,101.91Zm1.26,0a4.37,4.37,0,0,0,.26,1.54,3.54,3.54,0,0,0,.77,1.26,3.62,3.62,0,0,0,1.21.85,4.28,4.28,0,0,0,3.2,0,3.62,3.62,0,0,0,1.21-.85,3.69,3.69,0,0,0,.77-1.26,4.72,4.72,0,0,0,0-3.09,3.69,3.69,0,0,0-.77-1.26,3.62,3.62,0,0,0-1.21-.85,4.28,4.28,0,0,0-3.2,0,3.62,3.62,0,0,0-1.21.85,3.54,3.54,0,0,0-.77,1.26A4.39,4.39,0,0,0,182.93,101.91Z"/><path class="cls-1" d="M194.69,99.78c0-.18,0-.4,0-.66s0-.52,0-.79,0-.51,0-.74,0-.41,0-.54h1.26c0,.37,0,.72,0,1a4.47,4.47,0,0,0,0,.65,4.42,4.42,0,0,1,1.24-1.4A3,3,0,0,1,199,96.8a2.22,2.22,0,0,1,.37,0l.37.08-.15,1.24a1.45,1.45,0,0,0-.48-.09,3.6,3.6,0,0,0-1.42.26,2.72,2.72,0,0,0-1,.73,3.12,3.12,0,0,0-.58,1.08,4.75,4.75,0,0,0-.18,1.33v5.3h-1.26Z"/><path class="cls-1" d="M201.68,99.78c0-.18,0-.4,0-.66s0-.52,0-.79,0-.51,0-.74,0-.41,0-.54h1.26c0,.37,0,.72,0,1a2.66,2.66,0,0,0,0,.65H203a3.34,3.34,0,0,1,1.26-1.37,3.63,3.63,0,0,1,2.06-.58,3.36,3.36,0,0,1,1.76.49,2.84,2.84,0,0,1,1.16,1.61,3.09,3.09,0,0,1,1.37-1.59,3.89,3.89,0,0,1,1.92-.51,4.09,4.09,0,0,1,1.85.36,3.08,3.08,0,0,1,1.13.93,3.5,3.5,0,0,1,.56,1.34,7.21,7.21,0,0,1,.16,1.55v5.78H215V101a6.12,6.12,0,0,0-.1-1.14,3.23,3.23,0,0,0-.37-1,1.92,1.92,0,0,0-.74-.7,2.44,2.44,0,0,0-1.23-.26,2.82,2.82,0,0,0-1.44.32,2.58,2.58,0,0,0-.9.83,3.61,3.61,0,0,0-.46,1.09,5.07,5.07,0,0,0-.13,1.12v5.46h-1.26v-5.84a4.17,4.17,0,0,0-.5-2.17,1.66,1.66,0,0,0-1.52-.81,3.58,3.58,0,0,0-1.31.24,2.73,2.73,0,0,0-1.07.73,3.5,3.5,0,0,0-.72,1.24,5.44,5.44,0,0,0-.26,1.76v4.85h-1.26Z"/><path class="cls-1" d="M227.11,102.68c0,.48,0,.9,0,1.28s0,.73,0,1.05,0,.63,0,.91.06.56.1.84h-1.18a9.67,9.67,0,0,1-.12-1.58h0a3.64,3.64,0,0,1-1.36,1.39,4.29,4.29,0,0,1-2,.44,4.74,4.74,0,0,1-1.24-.16,3.19,3.19,0,0,1-1.09-.5,2.76,2.76,0,0,1-.79-.9,2.68,2.68,0,0,1-.3-1.32,2.57,2.57,0,0,1,.57-1.76,3.45,3.45,0,0,1,1.39-1,6.45,6.45,0,0,1,1.77-.42q.93-.09,1.65-.09H226v-.59a2.06,2.06,0,0,0-.78-1.81,3.35,3.35,0,0,0-1.95-.54,4.43,4.43,0,0,0-3,1.09l-.73-.86a4.47,4.47,0,0,1,1.72-1,6.27,6.27,0,0,1,2-.35,4.43,4.43,0,0,1,2.81.83,3.21,3.21,0,0,1,1.05,2.68Zm-2.52-.8a10.94,10.94,0,0,0-1.54.11,5.33,5.33,0,0,0-1.35.36,2.33,2.33,0,0,0-.95.67,1.56,1.56,0,0,0-.36,1,1.62,1.62,0,0,0,.71,1.35,2.45,2.45,0,0,0,.71.34,2.63,2.63,0,0,0,.78.11,4,4,0,0,0,1.66-.29,2.78,2.78,0,0,0,1-.77,2.65,2.65,0,0,0,.54-1.07,4.93,4.93,0,0,0,.15-1.2v-.66Z"/><path class="cls-1" d="M230.68,90.88h1.26v15.88h-1.26Z"/><path class="cls-1" d="M235.4,93.21a.93.93,0,0,1,.28-.67,1,1,0,0,1,1.34,0,.92.92,0,0,1,.27.67.9.9,0,0,1-.27.67.94.94,0,0,1-1.34,0A.91.91,0,0,1,235.4,93.21Zm.32,3.84H237v9.71h-1.26Z"/><path class="cls-1" d="M239.44,106l5.81-7.81h-5.52V97.05H247v.76l-5.8,7.81h6.05v1.14h-7.81Z"/><path class="cls-1" d="M258.06,104.93a4.22,4.22,0,0,1-1.81,1.59,5.68,5.68,0,0,1-2.39.49,5.18,5.18,0,0,1-2-.38A4.48,4.48,0,0,1,249.3,104a5.69,5.69,0,0,1-.35-2.07,5.48,5.48,0,0,1,.36-2,4.76,4.76,0,0,1,1-1.61,4.9,4.9,0,0,1,1.54-1.07,4.78,4.78,0,0,1,2-.39,4.63,4.63,0,0,1,2,.39,4.26,4.26,0,0,1,2.3,2.49,4.77,4.77,0,0,1,.3,1.66v.88h-8.15a4.05,4.05,0,0,0,.16,1,3.6,3.6,0,0,0,.57,1.21,3.68,3.68,0,0,0,1.13,1,3.49,3.49,0,0,0,1.81.42,4,4,0,0,0,1.87-.46,3.34,3.34,0,0,0,1.39-1.26Zm-1-3.84a2.79,2.79,0,0,0-.27-1.22,3.2,3.2,0,0,0-.71-1,3.47,3.47,0,0,0-2.38-.93,3.19,3.19,0,0,0-1.71.42,3.82,3.82,0,0,0-1.09,1,4,4,0,0,0-.56,1.06,3,3,0,0,0-.17.71Z"/><path class="cls-1" d="M269.66,105.05h-.05a3.27,3.27,0,0,1-.73.88,4.59,4.59,0,0,1-1,.61,4.4,4.4,0,0,1-1.08.35,5.38,5.38,0,0,1-1.11.12,5.55,5.55,0,0,1-2.06-.38,4.75,4.75,0,0,1-1.62-1.06A5,5,0,0,1,261,104a5.69,5.69,0,0,1,0-4.09,5,5,0,0,1,1.05-1.62,4.75,4.75,0,0,1,1.62-1.06,5.55,5.55,0,0,1,2.06-.38,5.38,5.38,0,0,1,1.11.12,4.4,4.4,0,0,1,1.08.35,5,5,0,0,1,1,.61,3.38,3.38,0,0,1,.73.87h.05V90.88h1.26v15.88h-1.26Zm.12-3.14a3.83,3.83,0,0,0-.31-1.55,4.09,4.09,0,0,0-.86-1.26,4.19,4.19,0,0,0-1.29-.85,4,4,0,0,0-1.59-.31,3.94,3.94,0,0,0-1.6.31,3.77,3.77,0,0,0-1.22.85,3.66,3.66,0,0,0-.76,1.26,4.56,4.56,0,0,0,0,3.09,3.66,3.66,0,0,0,.76,1.26,3.77,3.77,0,0,0,1.22.85,3.94,3.94,0,0,0,1.6.31,4,4,0,0,0,1.59-.31,4.19,4.19,0,0,0,1.29-.85,4.09,4.09,0,0,0,.86-1.26A3.82,3.82,0,0,0,269.78,101.91Z"/><path class="cls-1" d="M284.21,98.19h-2.77v6.32a1.22,1.22,0,0,0,1.34,1.36,3,3,0,0,0,.72-.09,4.23,4.23,0,0,0,.71-.24l.1,1.13a5.9,5.9,0,0,1-.82.23,3.71,3.71,0,0,1-.82.11,3.07,3.07,0,0,1-1.15-.2,2,2,0,0,1-.78-.54,2.12,2.12,0,0,1-.43-.78,3.46,3.46,0,0,1-.13-1V98.19h-2.1V97.05h2.1V94.26h1.26v2.79h2.77Z"/><path class="cls-1" d="M286.45,99.78c0-.18,0-.4,0-.66l0-.79c0-.26,0-.51,0-.74s0-.41,0-.54h1.26q0,.56,0,1a4.47,4.47,0,0,0,.05.65,4.42,4.42,0,0,1,1.24-1.4,3,3,0,0,1,1.85-.55,2.22,2.22,0,0,1,.37,0l.37.08-.15,1.24a1.45,1.45,0,0,0-.48-.09,3.6,3.6,0,0,0-1.42.26,2.72,2.72,0,0,0-1,.73,3.12,3.12,0,0,0-.58,1.08,4.75,4.75,0,0,0-.19,1.33v5.3h-1.26Z"/><path class="cls-1" d="M301,102.68c0,.48,0,.9,0,1.28s0,.73,0,1.05,0,.63.05.91a8,8,0,0,0,.1.84H300a9.62,9.62,0,0,1-.13-1.58h0a3.55,3.55,0,0,1-1.35,1.39,4.29,4.29,0,0,1-2.05.44,4.74,4.74,0,0,1-1.24-.16,3.11,3.11,0,0,1-1.09-.5,2.65,2.65,0,0,1-.79-.9,2.68,2.68,0,0,1-.3-1.32,2.62,2.62,0,0,1,.56-1.76,3.56,3.56,0,0,1,1.4-1,6.38,6.38,0,0,1,1.76-.42q.94-.09,1.65-.09h1.47v-.59a2.08,2.08,0,0,0-.77-1.81,3.36,3.36,0,0,0-2-.54,4.43,4.43,0,0,0-3,1.09l-.73-.86a4.4,4.4,0,0,1,1.72-1,6.16,6.16,0,0,1,2-.35,4.44,4.44,0,0,1,2.82.83,3.21,3.21,0,0,1,1.05,2.68Zm-2.52-.8a11.09,11.09,0,0,0-1.55.11,5.37,5.37,0,0,0-1.34.36,2.44,2.44,0,0,0-1,.67,1.6,1.6,0,0,0-.35,1,1.52,1.52,0,0,0,.2.79,1.62,1.62,0,0,0,.51.56,2.4,2.4,0,0,0,.7.34,2.69,2.69,0,0,0,.79.11,4,4,0,0,0,1.66-.29,2.86,2.86,0,0,0,1-.77,2.65,2.65,0,0,0,.54-1.07,5.46,5.46,0,0,0,.14-1.2v-.66Z"/><path class="cls-1" d="M304.24,93.21a.92.92,0,0,1,.27-.67.94.94,0,0,1,.68-.27.92.92,0,0,1,.94.94.9.9,0,0,1-.27.67.89.89,0,0,1-.67.28.94.94,0,0,1-.95-1Zm.32,3.84h1.26v9.71h-1.26Z"/><path class="cls-1" d="M309.39,99.78c0-.18,0-.4,0-.66s0-.52,0-.79,0-.51,0-.74,0-.41,0-.54h1.26c0,.37,0,.72,0,1a4.47,4.47,0,0,0,.05.65h.07A3.34,3.34,0,0,1,312,97.38,3.63,3.63,0,0,1,314,96.8a4.07,4.07,0,0,1,1.84.36,3.08,3.08,0,0,1,1.13.93,3.5,3.5,0,0,1,.56,1.34,7.21,7.21,0,0,1,.16,1.55v5.78h-1.26V101a6.12,6.12,0,0,0-.1-1.14,3.23,3.23,0,0,0-.37-1,1.92,1.92,0,0,0-.74-.7,2.43,2.43,0,0,0-1.22-.26,3.64,3.64,0,0,0-1.32.24,2.8,2.8,0,0,0-1.07.73,3.48,3.48,0,0,0-.71,1.24,5.18,5.18,0,0,0-.26,1.76v4.85h-1.26Z"/><path class="cls-1" d="M321,93.21a.92.92,0,0,1,.94-.94.94.94,0,0,1,.68.27.92.92,0,0,1,.27.67.94.94,0,0,1-1,1,.89.89,0,0,1-.67-.28A.9.9,0,0,1,321,93.21Zm.31,3.84h1.26v9.71h-1.26Z"/><path class="cls-1" d="M326.1,99.78c0-.18,0-.4,0-.66l0-.79c0-.26,0-.51,0-.74s0-.41,0-.54h1.26q0,.56,0,1a2.66,2.66,0,0,0,0,.65h.06a3.48,3.48,0,0,1,1.26-1.37,3.65,3.65,0,0,1,2.06-.58,4.12,4.12,0,0,1,1.85.36,3,3,0,0,1,1.12.93,3.36,3.36,0,0,1,.57,1.34,7.21,7.21,0,0,1,.16,1.55v5.78h-1.26V101a6.12,6.12,0,0,0-.11-1.14,3.22,3.22,0,0,0-.36-1,1.92,1.92,0,0,0-.74-.7,2.44,2.44,0,0,0-1.23-.26,3.58,3.58,0,0,0-1.31.24,2.8,2.8,0,0,0-1.07.73,3.65,3.65,0,0,0-.72,1.24,5.44,5.44,0,0,0-.26,1.76v4.85H326.1Z"/><path class="cls-1" d="M347.52,106.13A6.86,6.86,0,0,1,347,109a4.65,4.65,0,0,1-1.31,1.73,4.49,4.49,0,0,1-1.69.82,7.37,7.37,0,0,1-1.64.21,7.64,7.64,0,0,1-1.44-.14,6.5,6.5,0,0,1-1.34-.4,6,6,0,0,1-1.14-.64,4.54,4.54,0,0,1-.89-.86l1-.93a4,4,0,0,0,1.68,1.39,5.4,5.4,0,0,0,2.15.44,4.52,4.52,0,0,0,1.62-.25,3.39,3.39,0,0,0,1.1-.66,3.35,3.35,0,0,0,.67-.9,4.93,4.93,0,0,0,.36-1,5.43,5.43,0,0,0,.13-.94c0-.29,0-.53,0-.71v-1.34h0a3.86,3.86,0,0,1-1.48,1.38,4.49,4.49,0,0,1-2.19.51,5.15,5.15,0,0,1-4.78-3.05,4.75,4.75,0,0,1,0-3.86,5,5,0,0,1,1.11-1.58,5.46,5.46,0,0,1,1.65-1.07,5.24,5.24,0,0,1,2-.4,4.49,4.49,0,0,1,2.19.51,3.78,3.78,0,0,1,1.48,1.38h0V97.05h1.26Zm-1.22-4.35a3.79,3.79,0,0,0-.3-1.5,3.82,3.82,0,0,0-2-2,3.9,3.9,0,0,0-3,0,3.85,3.85,0,0,0-1.22.82,4,4,0,0,0-.82,1.22,3.9,3.9,0,0,0,0,3,3.82,3.82,0,0,0,2,2,3.9,3.9,0,0,0,3,0,4,4,0,0,0,1.22-.82,3.85,3.85,0,0,0,.82-1.22A3.79,3.79,0,0,0,346.3,101.78Z"/><path class="cls-1" d="M159.39,123.68c0,.48,0,.9,0,1.28s0,.73,0,1.05,0,.63,0,.91a8,8,0,0,0,.1.84H158.4a9.62,9.62,0,0,1-.13-1.58h0a3.55,3.55,0,0,1-1.35,1.39,4.29,4.29,0,0,1-2,.44,4.74,4.74,0,0,1-1.24-.16,3.11,3.11,0,0,1-1.09-.5,2.65,2.65,0,0,1-.79-.9,2.68,2.68,0,0,1-.3-1.32,2.57,2.57,0,0,1,.56-1.76,3.56,3.56,0,0,1,1.4-1,6.38,6.38,0,0,1,1.76-.42q.94-.09,1.65-.09h1.47v-.59a2.06,2.06,0,0,0-.78-1.81,3.3,3.3,0,0,0-1.95-.54,4.43,4.43,0,0,0-3,1.09l-.73-.86a4.4,4.4,0,0,1,1.72-1,6.16,6.16,0,0,1,2-.35,4.44,4.44,0,0,1,2.82.83,3.21,3.21,0,0,1,1,2.68Zm-2.52-.8a11.09,11.09,0,0,0-1.55.11,5.37,5.37,0,0,0-1.34.36,2.44,2.44,0,0,0-1,.67,1.6,1.6,0,0,0-.35,1,1.52,1.52,0,0,0,.2.79,1.62,1.62,0,0,0,.51.56,2.4,2.4,0,0,0,.7.34,2.65,2.65,0,0,0,.79.11,4,4,0,0,0,1.66-.29,2.86,2.86,0,0,0,1-.77,2.65,2.65,0,0,0,.54-1.07,5.46,5.46,0,0,0,.14-1.2v-.66Z"/><path class="cls-1" d="M162.75,120.78c0-.18,0-.4,0-.66s0-.52,0-.79,0-.51,0-.74,0-.41,0-.54h1.26q0,.56,0,1a3.05,3.05,0,0,0,.06.65h.06a3.34,3.34,0,0,1,1.26-1.37,3.63,3.63,0,0,1,2.06-.58,4.07,4.07,0,0,1,1.84.36,3.08,3.08,0,0,1,1.13.93,3.67,3.67,0,0,1,.57,1.34,7.91,7.91,0,0,1,.15,1.55v5.78H169.8V122a6.12,6.12,0,0,0-.1-1.14,3.23,3.23,0,0,0-.37-1,1.92,1.92,0,0,0-.74-.7,2.43,2.43,0,0,0-1.22-.26,3.64,3.64,0,0,0-1.32.24,2.8,2.8,0,0,0-1.07.73,3.48,3.48,0,0,0-.71,1.24,5.18,5.18,0,0,0-.26,1.76v4.85h-1.26Z"/><path class="cls-1" d="M182.91,126.05h0a3.27,3.27,0,0,1-.73.88,4.59,4.59,0,0,1-1,.61,4.4,4.4,0,0,1-1.08.35A5.38,5.38,0,0,1,179,128a5.55,5.55,0,0,1-2.06-.38,4.75,4.75,0,0,1-1.62-1.06,5.15,5.15,0,0,1-1.05-1.62,5.84,5.84,0,0,1,0-4.09,5.15,5.15,0,0,1,1.05-1.62,4.75,4.75,0,0,1,1.62-1.06,5.55,5.55,0,0,1,2.06-.38,5.38,5.38,0,0,1,1.11.12,4.4,4.4,0,0,1,1.08.35,5,5,0,0,1,1,.61,3.38,3.38,0,0,1,.73.87h0v-7.87h1.26v15.88h-1.26Zm.12-3.14a3.83,3.83,0,0,0-.31-1.55,4.09,4.09,0,0,0-.86-1.26,4.15,4.15,0,0,0-1.28-.85,4.07,4.07,0,0,0-1.6-.31,3.94,3.94,0,0,0-1.6.31,3.62,3.62,0,0,0-1.21.85,3.54,3.54,0,0,0-.77,1.26,4.72,4.72,0,0,0,0,3.09,3.54,3.54,0,0,0,.77,1.26,3.62,3.62,0,0,0,1.21.85,3.94,3.94,0,0,0,1.6.31,4.07,4.07,0,0,0,1.6-.31,4.15,4.15,0,0,0,1.28-.85,4.09,4.09,0,0,0,.86-1.26A3.82,3.82,0,0,0,183,122.91Z"/><path class="cls-1" d="M201.28,125.93a4.25,4.25,0,0,1-1.82,1.59,5.63,5.63,0,0,1-2.38.49,5.27,5.27,0,0,1-2-.38,4.55,4.55,0,0,1-1.55-1.06,4.7,4.7,0,0,1-1-1.62,5.91,5.91,0,0,1-.34-2.07,5.7,5.7,0,0,1,.35-2,4.94,4.94,0,0,1,1-1.61,4.85,4.85,0,0,1,1.53-1.07,4.8,4.8,0,0,1,2-.39,4.66,4.66,0,0,1,2,.39,4.3,4.3,0,0,1,1.43,1,4.5,4.5,0,0,1,.87,1.46,4.76,4.76,0,0,1,.29,1.66v.88h-8.14a4.47,4.47,0,0,0,.15,1,3.83,3.83,0,0,0,.58,1.21,3.68,3.68,0,0,0,1.13,1,3.46,3.46,0,0,0,1.81.42,4,4,0,0,0,1.87-.46,3.47,3.47,0,0,0,1.39-1.26Zm-1-3.84a2.79,2.79,0,0,0-.26-1.22,3.2,3.2,0,0,0-.71-1,3.37,3.37,0,0,0-1.07-.68,3.44,3.44,0,0,0-1.32-.25,3.23,3.23,0,0,0-1.71.42,3.91,3.91,0,0,0-1.08,1,4.43,4.43,0,0,0-.57,1.06,2.83,2.83,0,0,0-.16.71Z"/><path class="cls-1" d="M206.87,122.51l-3.47-4.46H205l2.69,3.68,2.66-3.68H212l-3.42,4.46,4.15,5.25h-1.63l-3.38-4.39-3.32,4.39h-1.52Z"/><path class="cls-1" d="M214.22,118.05h1.26v1.7h0a3.38,3.38,0,0,1,.73-.87,5.37,5.37,0,0,1,1-.61,4.4,4.4,0,0,1,1.08-.35,5.53,5.53,0,0,1,3.16.26,5,5,0,0,1,1.62,1.06,4.85,4.85,0,0,1,1.06,1.62,5.69,5.69,0,0,1,0,4.09,4.85,4.85,0,0,1-1.06,1.62,5,5,0,0,1-1.62,1.06,5.53,5.53,0,0,1-3.16.26,4.4,4.4,0,0,1-1.08-.35,4.86,4.86,0,0,1-1-.61,3.27,3.27,0,0,1-.73-.88h0v6.49h-1.26Zm1.13,4.86a3.83,3.83,0,0,0,.32,1.54,3.92,3.92,0,0,0,.86,1.26,4,4,0,0,0,1.28.85,4,4,0,0,0,1.59.31,3.94,3.94,0,0,0,1.6-.31,3.55,3.55,0,0,0,2-2.11,4.56,4.56,0,0,0,0-3.09,3.55,3.55,0,0,0-2-2.11,3.94,3.94,0,0,0-1.6-.31,4,4,0,0,0-1.59.31,4,4,0,0,0-1.28.85,3.92,3.92,0,0,0-.86,1.26A3.84,3.84,0,0,0,215.35,122.91Z"/><path class="cls-1" d="M235.89,125.93a4.25,4.25,0,0,1-1.82,1.59,5.63,5.63,0,0,1-2.38.49,5.23,5.23,0,0,1-2-.38,4.56,4.56,0,0,1-2.55-2.68,5.91,5.91,0,0,1-.35-2.07,5.48,5.48,0,0,1,.36-2,4.94,4.94,0,0,1,1-1.61,4.74,4.74,0,0,1,1.53-1.07,4.8,4.8,0,0,1,2-.39,4.66,4.66,0,0,1,2,.39,4.3,4.3,0,0,1,1.43,1,4.5,4.5,0,0,1,.87,1.46,5,5,0,0,1,.29,1.66v.88H228a4.57,4.57,0,0,0,.16,1,3.83,3.83,0,0,0,.58,1.21,3.64,3.64,0,0,0,1.12,1,3.53,3.53,0,0,0,1.82.42,4,4,0,0,0,1.87-.46,3.38,3.38,0,0,0,1.38-1.26Zm-1-3.84a2.93,2.93,0,0,0-.26-1.22,3.2,3.2,0,0,0-.71-1,3.47,3.47,0,0,0-2.39-.93,3.23,3.23,0,0,0-1.71.42,3.91,3.91,0,0,0-1.08,1,3.82,3.82,0,0,0-.57,1.06,3,3,0,0,0-.17.71Z"/><path class="cls-1" d="M239,120.78c0-.18,0-.4,0-.66s0-.52,0-.79,0-.51,0-.74,0-.41,0-.54h1.26q0,.56,0,1a3.05,3.05,0,0,0,.06.65,4.28,4.28,0,0,1,1.23-1.4,3,3,0,0,1,1.85-.55,2.22,2.22,0,0,1,.37,0l.37.08-.15,1.24a1.45,1.45,0,0,0-.48-.09,3.6,3.6,0,0,0-1.42.26,2.72,2.72,0,0,0-1,.73,3,3,0,0,0-.57,1.08,4.41,4.41,0,0,0-.19,1.33v5.3H239Z"/><path class="cls-1" d="M245.88,114.21a.89.89,0,0,1,.28-.67.9.9,0,0,1,.67-.27.92.92,0,0,1,.94.94.9.9,0,0,1-.27.67.89.89,0,0,1-.67.28,1,1,0,0,1-1-1Zm.32,3.84h1.26v9.71H246.2Z"/><path class="cls-1" d="M259.6,125.93a4.25,4.25,0,0,1-1.82,1.59,5.66,5.66,0,0,1-2.38.49,5.19,5.19,0,0,1-2-.38,4.56,4.56,0,0,1-2.55-2.68,5.91,5.91,0,0,1-.35-2.07,5.48,5.48,0,0,1,.36-2,4.71,4.71,0,0,1,4.49-3.07,4.68,4.68,0,0,1,2,.39,4.41,4.41,0,0,1,1.43,1,4.5,4.5,0,0,1,.87,1.46,5,5,0,0,1,.29,1.66v.88h-8.15a4.05,4.05,0,0,0,.16,1,3.62,3.62,0,0,0,1.7,2.21,3.53,3.53,0,0,0,1.82.42,4.07,4.07,0,0,0,1.87-.46,3.38,3.38,0,0,0,1.38-1.26Zm-1-3.84a2.93,2.93,0,0,0-.26-1.22,3.23,3.23,0,0,0-.72-1,3.26,3.26,0,0,0-1.07-.68,3.39,3.39,0,0,0-1.31-.25,3.19,3.19,0,0,0-1.71.42,3.64,3.64,0,0,0-1.08,1,3.82,3.82,0,0,0-.57,1.06,3,3,0,0,0-.17.71Z"/><path class="cls-1" d="M262.7,120.78c0-.18,0-.4,0-.66l0-.79c0-.26,0-.51,0-.74s0-.41,0-.54h1.26q0,.56,0,1a4.47,4.47,0,0,0,.05.65H264a3.34,3.34,0,0,1,1.26-1.37,3.6,3.6,0,0,1,2.05-.58,4.09,4.09,0,0,1,1.85.36,3.08,3.08,0,0,1,1.13.93,3.5,3.5,0,0,1,.56,1.34A7.21,7.21,0,0,1,271,122v5.78h-1.26V122a6.12,6.12,0,0,0-.1-1.14,3.5,3.5,0,0,0-.37-1,1.92,1.92,0,0,0-.74-.7,2.44,2.44,0,0,0-1.23-.26,3.58,3.58,0,0,0-1.31.24,2.8,2.8,0,0,0-1.07.73,3.48,3.48,0,0,0-.71,1.24,5.17,5.17,0,0,0-.27,1.76v4.85H262.7Z"/><path class="cls-1" d="M282.51,126.33a4.61,4.61,0,0,1-1.62,1.27,4.7,4.7,0,0,1-1.95.41,5.55,5.55,0,0,1-2.06-.38,4.75,4.75,0,0,1-1.62-1.06,5,5,0,0,1-1.05-1.62,5.69,5.69,0,0,1,0-4.09,5,5,0,0,1,1.05-1.62,4.75,4.75,0,0,1,1.62-1.06,5.55,5.55,0,0,1,2.06-.38,4.56,4.56,0,0,1,2,.44,5.39,5.39,0,0,1,1.63,1.24l-1,.76a4.16,4.16,0,0,0-1.2-1,2.93,2.93,0,0,0-1.4-.34,3.94,3.94,0,0,0-1.6.31,3.77,3.77,0,0,0-1.22.85,3.66,3.66,0,0,0-.76,1.26,4.56,4.56,0,0,0,0,3.09,3.66,3.66,0,0,0,.76,1.26,3.77,3.77,0,0,0,1.22.85,3.94,3.94,0,0,0,1.6.31,3,3,0,0,0,1.46-.36,3.81,3.81,0,0,0,1.14-1Z"/><path class="cls-1" d="M293.05,125.93a4.25,4.25,0,0,1-1.82,1.59,5.63,5.63,0,0,1-2.38.49,5.27,5.27,0,0,1-2-.38,4.55,4.55,0,0,1-1.55-1.06,4.7,4.7,0,0,1-1-1.62,5.91,5.91,0,0,1-.34-2.07,5.48,5.48,0,0,1,.35-2,4.94,4.94,0,0,1,1-1.61,4.85,4.85,0,0,1,1.53-1.07,4.8,4.8,0,0,1,2-.39,4.66,4.66,0,0,1,2,.39,4.3,4.3,0,0,1,1.43,1,4.5,4.5,0,0,1,.87,1.46,4.76,4.76,0,0,1,.29,1.66v.88H285.2a4.47,4.47,0,0,0,.15,1,3.83,3.83,0,0,0,.58,1.21,3.64,3.64,0,0,0,1.12,1,3.53,3.53,0,0,0,1.82.42,4,4,0,0,0,1.87-.46,3.47,3.47,0,0,0,1.39-1.26Zm-1-3.84a2.79,2.79,0,0,0-.26-1.22,3.2,3.2,0,0,0-.71-1,3.37,3.37,0,0,0-1.07-.68,3.44,3.44,0,0,0-1.32-.25,3.23,3.23,0,0,0-1.71.42,3.91,3.91,0,0,0-1.08,1,4.43,4.43,0,0,0-.57,1.06,2.83,2.83,0,0,0-.16.71Z"/><path class="cls-1" d="M52,64.47a6.29,6.29,0,0,0,3-1.18,4.77,4.77,0,0,0,1.62-2.43,14,14,0,0,0,.49-4.15V17q0-4.47-1.62-6.09C54.4,9.8,52.51,9.18,49.8,9H49V8.45h1.46c.87,0,2-.17,3.33-.37a15.76,15.76,0,0,0,4.1-1.17A13.34,13.34,0,0,0,61.7,4.39,10,10,0,0,0,64.34.08l.09.16V.08h1.38V55.33a5.53,5.53,0,0,0,0,.69c0,.25,0,.5,0,.77a16,16,0,0,0,.36,3.74,5.47,5.47,0,0,0,1.18,2.36,5,5,0,0,0,2.19,1.34,13.45,13.45,0,0,0,3.5.53h2.52v.57H47.36v-.57A31.34,31.34,0,0,0,52,64.47Z"/><path class="cls-1" d="M98.87,64.76a32.47,32.47,0,0,0,4.68-.29,6.33,6.33,0,0,0,3-1.18,4.85,4.85,0,0,0,1.63-2.43,14.38,14.38,0,0,0,.49-4.15V46.56H81.81L116.91,0h.49V46h11.29v.57H117.4V56.79a16,16,0,0,0,.36,3.74,4.78,4.78,0,0,0,3.5,3.7,13.61,13.61,0,0,0,3.45.53h2.52v.57H98.87ZM108.71,46V11.78L82.87,46Z"/><path class="cls-1" d="M38.58,30.18V37L0,58.49V48L25.77,33.61,0,19.22V8.74Z"/><path class="cls-2" d="M155.33,68.37q3.55-3.86,7-8.11t6.89-8.49L171.45,49a4,4,0,0,0,1.17-1.41,1.32,1.32,0,0,1,1.74-.56.78.78,0,0,1-.1,1.08,2.75,2.75,0,0,0-.65.8q-4.61,6.18-9.33,12t-9.7,11.77q-1.5,8.71-3.43,17.11a62.11,62.11,0,0,1-5.48,15.14q-1.21,2.16-2.58,4.17a11.3,11.3,0,0,1-3.51,3.33,13.24,13.24,0,0,1-1.55.47,3.76,3.76,0,0,1-4.59-2.86,11.5,11.5,0,0,1-.57-4.46,25.22,25.22,0,0,1,.8-4.92,38.75,38.75,0,0,1,1.41-4.36,45.78,45.78,0,0,1,2.25-4.78q1.21-2.25,2.25-4.12a88.72,88.72,0,0,1,5.57-8q3-3.75,6-7.31,1.32-6.95,2.53-13.88c.81-4.62,1.47-9.41,2-14.34a2,2,0,0,0-.89.89,9.66,9.66,0,0,1-.89,1.26A37.76,37.76,0,0,0,151,50.27q-1.36,2.25-2.77,4.46c-.94,1.46-1.92,2.89-2.95,4.26a23.15,23.15,0,0,1-3.52,3.75A2.18,2.18,0,0,0,141,63a2,2,0,0,1-.75.28h-1A3.32,3.32,0,0,1,137,61.66a9,9,0,0,1-1.17-3.18,16.06,16.06,0,0,1-.19-3.9,21.41,21.41,0,0,1,.61-3.84,5.65,5.65,0,0,1,.7-1.78,1.45,1.45,0,0,1,1.46-.75.89.89,0,0,1,.89.66,4.71,4.71,0,0,1,.23,1.54,12.44,12.44,0,0,1-.14,1.88A12.89,12.89,0,0,0,139.2,54c0,1.13,0,2.25.05,3.38a5.8,5.8,0,0,0,.7,2.81,12.43,12.43,0,0,0,4.55-4.08c1.15-1.72,2.39-3.39,3.7-5A29.21,29.21,0,0,1,150,48.63a28.43,28.43,0,0,0,1.78-2.48,9.45,9.45,0,0,0,1.88-2.49,4,4,0,0,1,2.25-2c.56-.19,1,.06,1.4.75a5,5,0,0,1,.52,3c-.09,1.35-.17,2.55-.23,3.61-.32,3.25-.66,6.61-1,10.08S155.76,65.68,155.33,68.37ZM140.42,91.62a49.57,49.57,0,0,0-2.81,6.09,27,27,0,0,0-1.69,7.31,17.8,17.8,0,0,0,0,2.53,2.59,2.59,0,0,0,1.22,2.07,7,7,0,0,0,3-2.58,36.59,36.59,0,0,0,2.06-3.61,62.54,62.54,0,0,0,4.69-12.52q1.79-6.8,3.28-13.64a.08.08,0,0,0-.09-.09q-2.54,3.28-5,6.84A75.72,75.72,0,0,0,140.42,91.62Z"/><path class="cls-2" d="M172.29,54.12a18.39,18.39,0,0,0-1.21,3.42,15.72,15.72,0,0,0-.57,4.12,7,7,0,0,0,.85,3.52,3.31,3.31,0,0,0,3,1.59,9.3,9.3,0,0,0,4.64-1,43.31,43.31,0,0,0,3.79-2.16c1.25-.87,2.43-1.73,3.52-2.57s2.08-1.68,2.95-2.49a50.74,50.74,0,0,0,4.64-4q2.21-2.16,4.36-4.41a2.18,2.18,0,0,0,.61-.75,9.84,9.84,0,0,1,.71-1,4.54,4.54,0,0,1,.79-.79.72.72,0,0,1,.89,0c.44.19.53.56.28,1.12a6.37,6.37,0,0,1-.65,1.22,3.55,3.55,0,0,1-.56,1,12.68,12.68,0,0,0-.75,1A70.71,70.71,0,0,1,194.65,57c-1.72,1.63-3.48,3.25-5.29,4.88a38.82,38.82,0,0,1-7.88,5.62,19.8,19.8,0,0,1-2.34,1.08,13.36,13.36,0,0,1-2.72.75,12.4,12.4,0,0,1-2.86.14,5.67,5.67,0,0,1-2.67-.84,4.44,4.44,0,0,1-1-.89c-.28-.35-.57-.71-.89-1.08a9.05,9.05,0,0,1-1.17-4,18.14,18.14,0,0,1,.28-4.45,28.87,28.87,0,0,1,2.67-7.78,40,40,0,0,1,3.75-5.53,11,11,0,0,1,5.72-3.56,4.49,4.49,0,0,1,3.14.84,3.23,3.23,0,0,1,1,3A6.06,6.06,0,0,1,183.26,48a17.86,17.86,0,0,1-2,2.35,21,21,0,0,1-3.7,3A7.75,7.75,0,0,1,172.29,54.12Zm8.72-10a9.75,9.75,0,0,0-5,3.43,34,34,0,0,0-3.18,5.2,5.84,5.84,0,0,0,3.47-.94,25.12,25.12,0,0,0,2.43-2q1-1.12,2.16-2.25a4,4,0,0,0,1-3.18A1,1,0,0,0,181,44.08Z"/><path class="cls-2" d="M210.26,47.37c-1.19,1.56-2.34,3.25-3.47,5.06s-2.25,3.56-3.37,5.25c-.81,1.19-1.66,2.47-2.53,3.84a19.29,19.29,0,0,1-3,3.66,6.47,6.47,0,0,1-1.32,1.17,2.05,2.05,0,0,1-1.78.23,2.54,2.54,0,0,1-1.31-2.06,29.34,29.34,0,0,1,1.73-8.15,37.65,37.65,0,0,1,3.33-6.94A24.33,24.33,0,0,1,200,47.37a5.1,5.1,0,0,1,1.73-1.5,2.67,2.67,0,0,1,3.14.14,3.38,3.38,0,0,1,1,3.42,5.07,5.07,0,0,0,1.07-1.5c.41-.75.85-1.52,1.32-2.3a14.71,14.71,0,0,1,1.5-2.11,2.59,2.59,0,0,1,1.64-1,2.08,2.08,0,0,1,.65.09l.57.19a4.39,4.39,0,0,1,.93,1.78q-.18,5.63-.75,10.64c-.37,3.35-.65,6.89-.84,10.64v1.69c0,.69,0,1.38-.09,2.06a10.74,10.74,0,0,1-.33,1.83c-.16.53-.42.8-.8.8a1,1,0,0,1-1-.61,4.57,4.57,0,0,1-.47-1.5,10.94,10.94,0,0,1-.14-1.83,9.81,9.81,0,0,0-.1-1.5,53.07,53.07,0,0,1,.19-9.94C209.61,53.59,210,50.43,210.26,47.37Zm-6.75.18a.08.08,0,0,0-.09-.09,2.73,2.73,0,0,0-.52.23,2.17,2.17,0,0,1-.51.24A19.68,19.68,0,0,0,200,51.26a38.09,38.09,0,0,0-1.87,3.79c-.5,1.32-1,2.71-1.46,4.18a21.1,21.1,0,0,0-.89,4.73,32.88,32.88,0,0,0,4.74-6.05c1.4-2.28,2.83-4.51,4.26-6.7a3.8,3.8,0,0,1-.46-2A1.61,1.61,0,0,0,203.51,47.55Z"/><path class="cls-2" d="M236.89,46.24a13.87,13.87,0,0,0-4.36,4.5c-1.1,1.81-2.27,3.63-3.52,5.44l-1.5,3a26.26,26.26,0,0,0-1.31,3.09,16.67,16.67,0,0,0-1.41,3,3.35,3.35,0,0,1-2.25,2.2h-.84a2.29,2.29,0,0,1-.8-.51,4.31,4.31,0,0,1-.61-.8,31.45,31.45,0,0,1-.14-3.84c0-1.38.1-2.77.19-4.18s.25-2.78.47-4.12.45-2.58.7-3.7a14.45,14.45,0,0,1,.56-2.07,1.82,1.82,0,0,1,1.5-1.22,1.16,1.16,0,0,1,1.08.85,4.94,4.94,0,0,1,.19,1.73,17.46,17.46,0,0,1-.23,2.07,10,10,0,0,0-.19,1.73c-.13,1.25-.24,2.38-.33,3.37s-.2,1.94-.33,2.82c1.06-1.75,2.35-3.72,3.85-5.91a58.83,58.83,0,0,1,4.59-5.91A23,23,0,0,1,233.84,46a6.32,6.32,0,0,1,1.92-1.36,2.73,2.73,0,0,1,1.74,0,1.42,1.42,0,0,1,1.07,1c.13.75-.06,1.16-.56,1.22A1,1,0,0,1,236.89,46.24Z"/><path class="cls-2" d="M245.79,49.24A7.72,7.72,0,0,0,243,51.49a9.12,9.12,0,0,0-1.17,1.5,3,3,0,0,0-.52,2,3.33,3.33,0,0,0,1,1.83c.57.53,1.07,1,1.5,1.45l1.46,1.45a13,13,0,0,1,1.26,1.46q2.34-1.69,4.46-3.52a41.44,41.44,0,0,1,4.54-3.42,34.68,34.68,0,0,1,3.52-2.34q1.92-1.12,4-2.16l1.31-.66a1.27,1.27,0,0,1,1.41.1,1,1,0,0,1-.09.75,1.19,1.19,0,0,1-.57.42l-.75.28a1.1,1.1,0,0,0-.56.42A26.38,26.38,0,0,0,260,53.13c-1.16.78-2.33,1.55-3.52,2.3q-4.5,3.38-8.72,7a28.73,28.73,0,0,1,2.3,4.41,13.78,13.78,0,0,1,1,5.34,15.51,15.51,0,0,1-.94,6,16.8,16.8,0,0,1-2.81,4.87,20.69,20.69,0,0,1-4,3.57,8.89,8.89,0,0,1-5.44,1.59,6.41,6.41,0,0,1-2.15-.47,7.81,7.81,0,0,1-1.6-.94,9.71,9.71,0,0,1-1.5-2.15,7,7,0,0,1-.65-2.72,10.29,10.29,0,0,1,1.22-6,32.31,32.31,0,0,1,3.09-4.69,39.72,39.72,0,0,1,3.7-4.08q1.92-1.81,3.8-3.42a11.71,11.71,0,0,0-1.5-1.73c-.56-.53-1.13-1.08-1.69-1.64A17.06,17.06,0,0,1,239,58.62a7.3,7.3,0,0,1-1.08-2.07,4.83,4.83,0,0,1,0-3.79,15.5,15.5,0,0,1,1.83-3q.94-1,1.83-1.83a8.6,8.6,0,0,1,2.11-1.36,9.51,9.51,0,0,1,1.41-.28,2.65,2.65,0,0,1,1.4.19,2,2,0,0,0,.52.51,1.49,1.49,0,0,1,.51.71,3,3,0,0,1,.05,1.78c-.16.69-.39,1-.7,1s-.69-.06-.75-.38A2.14,2.14,0,0,0,245.79,49.24Zm-1.22,16.22c-1.06.88-2.12,1.84-3.18,2.91a40.23,40.23,0,0,0-3.1,3.46c-.56.69-1.14,1.46-1.73,2.3a13.42,13.42,0,0,0-1.5,2.77,13.24,13.24,0,0,0-.85,3.14,7.83,7.83,0,0,0,.33,3.42,7,7,0,0,0,1.22,1.27,2.83,2.83,0,0,0,1.78.51,6.55,6.55,0,0,0,3.8-1.45,16.19,16.19,0,0,0,2.95-3,12.69,12.69,0,0,0,1.83-3.56A15.93,15.93,0,0,0,247,73.1a13.31,13.31,0,0,0-.37-4.17,9.77,9.77,0,0,0-1.74-3.66.08.08,0,0,0-.09-.09C244.63,65.3,244.57,65.4,244.57,65.46ZM234.64,88.8c0,.07.06,0,.18-.09Q234.82,88.8,234.64,88.8Z"/></g></g></svg>