<svg xmlns="http://www.w3.org/2000/svg" viewBox="0 0 305.1 148.57"><defs><style>.cls-1{fill:#ff8300;}.cls-2{fill:#53575a;}.cls-3{fill:none;stroke:#ff8300;stroke-width:0.68px;}</style></defs><g id="Layer_2" data-name="Layer 2"><g id="Layer_1-2" data-name="Layer 1"><path class="cls-1" d="M78.49,130.26H72.28l-.06,3.08a2.88,2.88,0,0,1,.77-.16c.31,0,.61,0,.88,0a5.79,5.79,0,0,1,2.08.36,4.38,4.38,0,0,1,1.63,1,4.68,4.68,0,0,1,1,1.61,5.44,5.44,0,0,1,.39,2.11,5.7,5.7,0,0,1-.43,2.24,4.69,4.69,0,0,1-1.18,1.68,5.23,5.23,0,0,1-1.77,1,6.39,6.39,0,0,1-2.2.37,5.5,5.5,0,0,1-3.15-.87,4.74,4.74,0,0,1-1.85-2.66l2.75-.74a2.61,2.61,0,0,0,.89,1.31,2.66,2.66,0,0,0,1.64.48,2.92,2.92,0,0,0,1.08-.2,2.45,2.45,0,0,0,.85-.55,2.5,2.5,0,0,0,.55-.84,2.77,2.77,0,0,0,.2-1.05,3,3,0,0,0-.29-1.37,2.68,2.68,0,0,0-.8-.93,3.35,3.35,0,0,0-1.15-.52,5.67,5.67,0,0,0-1.38-.17,7.5,7.5,0,0,0-1.69.2,6.44,6.44,0,0,0-1.53.55l.15-8.33h8.78Z"/><path class="cls-2" d="M86.65,133.27H88V135h0a3.51,3.51,0,0,1,.76-.91,5.18,5.18,0,0,1,1-.63,4.91,4.91,0,0,1,1.12-.37A5.86,5.86,0,0,1,92,133a5.68,5.68,0,0,1,2.13.39,5,5,0,0,1,1.67,1.1,4.81,4.81,0,0,1,1.1,1.68,5.5,5.5,0,0,1,.4,2.13,5.41,5.41,0,0,1-.4,2.12,4.81,4.81,0,0,1-1.1,1.68,5,5,0,0,1-1.67,1.1,5.68,5.68,0,0,1-2.13.39,5.86,5.86,0,0,1-1.16-.12,4.91,4.91,0,0,1-1.12-.37,4.36,4.36,0,0,1-1-.63,3.46,3.46,0,0,1-.76-.9h0v6.73h-1.3Zm1.17,5a4,4,0,0,0,.33,1.6,4.28,4.28,0,0,0,.89,1.31,4.34,4.34,0,0,0,1.33.88,4.13,4.13,0,0,0,1.66.33,4.07,4.07,0,0,0,1.66-.33,3.75,3.75,0,0,0,2.06-2.19,4.72,4.72,0,0,0,.27-1.6,4.77,4.77,0,0,0-.27-1.61,3.84,3.84,0,0,0-.8-1.3,3.94,3.94,0,0,0-1.26-.89,4.06,4.06,0,0,0-1.66-.32,4.13,4.13,0,0,0-1.66.32,4.37,4.37,0,0,0-1.33.89,4.23,4.23,0,0,0-.89,1.3A4,4,0,0,0,87.82,138.31Z"/><path class="cls-2" d="M99.83,136.1c0-.18,0-.41,0-.68l0-.82c0-.28,0-.53,0-.77s0-.43,0-.56H101c0,.38,0,.74,0,1.09a3,3,0,0,0,.05.68,4.24,4.24,0,0,1,1.29-1.46,3.16,3.16,0,0,1,1.91-.57,2.47,2.47,0,0,1,.39,0l.38.08-.16,1.28a1.8,1.8,0,0,0-.5-.08,3.71,3.71,0,0,0-1.47.27,2.77,2.77,0,0,0-1,.75,3.19,3.19,0,0,0-.6,1.12,4.76,4.76,0,0,0-.2,1.39v5.49H99.83Z"/><path class="cls-2" d="M105.7,138.31a5.68,5.68,0,0,1,.39-2.13,4.93,4.93,0,0,1,1.09-1.68,4.76,4.76,0,0,1,1.68-1.1,6,6,0,0,1,4.26,0,4.92,4.92,0,0,1,2.78,2.78,5.68,5.68,0,0,1,.39,2.13,5.59,5.59,0,0,1-.39,2.12,4.92,4.92,0,0,1-2.78,2.78,6,6,0,0,1-4.26,0,4.76,4.76,0,0,1-1.68-1.1,4.93,4.93,0,0,1-1.09-1.68A5.59,5.59,0,0,1,105.7,138.31Zm1.3,0a4.72,4.72,0,0,0,.28,1.6,3.71,3.71,0,0,0,.79,1.31,3.85,3.85,0,0,0,1.27.88,4,4,0,0,0,1.65.33,4,4,0,0,0,1.66-.33,3.67,3.67,0,0,0,2.06-2.19,4.72,4.72,0,0,0,.27-1.6,4.77,4.77,0,0,0-.27-1.61,3.81,3.81,0,0,0-.79-1.3,3.88,3.88,0,0,0-1.27-.89,4,4,0,0,0-1.66-.32,4,4,0,0,0-1.65.32,3.88,3.88,0,0,0-1.27.89,3.66,3.66,0,0,0-.79,1.3A4.78,4.78,0,0,0,107,138.31Z"/><path class="cls-2" d="M120.32,145.11a7.57,7.57,0,0,1-.12,1.41,2.61,2.61,0,0,1-.44,1.09,2,2,0,0,1-.89.71,3.41,3.41,0,0,1-1.42.25,3,3,0,0,1-1-.19l.2-1.16a2.26,2.26,0,0,0,.82.18,1.68,1.68,0,0,0,.84-.19,1.23,1.23,0,0,0,.48-.48A1.75,1.75,0,0,0,119,146a5.36,5.36,0,0,0,.06-.82V133.27h1.3Zm-1.63-15.83a1,1,0,0,1,.28-.7,1,1,0,0,1,1.4,0,1,1,0,0,1,.28.7,1,1,0,1,1-2,0Z"/><path class="cls-2" d="M132.51,141.45a4.38,4.38,0,0,1-1.89,1.65,5.86,5.86,0,0,1-2.47.5,5.37,5.37,0,0,1-2.09-.39,4.7,4.7,0,0,1-1.62-1.1,4.79,4.79,0,0,1-1-1.68,6.1,6.1,0,0,1-.36-2.15,5.71,5.71,0,0,1,.37-2.09,5.14,5.14,0,0,1,1-1.67,4.86,4.86,0,0,1,3.61-1.51,4.86,4.86,0,0,1,2,.4,4.51,4.51,0,0,1,1.48,1.07,4.43,4.43,0,0,1,.91,1.52,5.11,5.11,0,0,1,.3,1.72v.91h-8.45a4.39,4.39,0,0,0,.16,1.06,3.69,3.69,0,0,0,.6,1.25,3.73,3.73,0,0,0,1.17,1.05,3.61,3.61,0,0,0,1.88.44,4.19,4.19,0,0,0,1.94-.48,3.46,3.46,0,0,0,1.44-1.31Zm-1-4a2.88,2.88,0,0,0-.28-1.27,3.15,3.15,0,0,0-.74-1,3.35,3.35,0,0,0-1.11-.71,3.47,3.47,0,0,0-1.36-.26,3.35,3.35,0,0,0-1.78.43,4.06,4.06,0,0,0-1.12,1,4,4,0,0,0-.59,1.11,2.65,2.65,0,0,0-.17.73Z"/><path class="cls-2" d="M143.74,141.86a4.84,4.84,0,0,1-1.68,1.32,4.92,4.92,0,0,1-2,.42,5.77,5.77,0,0,1-2.14-.39,4.81,4.81,0,0,1-1.67-1.1,5.1,5.1,0,0,1-1.1-1.68,5.59,5.59,0,0,1-.39-2.12,5.68,5.68,0,0,1,.39-2.13,5.1,5.1,0,0,1,1.1-1.68,4.81,4.81,0,0,1,1.67-1.1A5.77,5.77,0,0,1,140,133a4.61,4.61,0,0,1,2.06.46,5.33,5.33,0,0,1,1.69,1.28l-1.05.79a4.58,4.58,0,0,0-1.24-1,3.06,3.06,0,0,0-1.46-.36,4.06,4.06,0,0,0-1.66.32,3.94,3.94,0,0,0-1.26.89,3.69,3.69,0,0,0-.8,1.3,4.77,4.77,0,0,0-.27,1.61,4.72,4.72,0,0,0,.27,1.6,3.73,3.73,0,0,0,.8,1.31,3.91,3.91,0,0,0,1.26.88,4.07,4.07,0,0,0,1.66.33,3,3,0,0,0,1.51-.39,3.84,3.84,0,0,0,1.19-1Z"/><path class="cls-2" d="M150.3,134.45h-2.88V141a1.28,1.28,0,0,0,1.39,1.42,3.38,3.38,0,0,0,.76-.1,6.28,6.28,0,0,0,.73-.25l.11,1.17a6.78,6.78,0,0,1-.85.24,3.54,3.54,0,0,1-.85.11,3.27,3.27,0,0,1-1.2-.2,2.13,2.13,0,0,1-.81-.56,2.25,2.25,0,0,1-.45-.82,3.62,3.62,0,0,1-.14-1v-6.56h-2.18v-1.18h2.18v-2.9h1.31v2.9h2.88Z"/><path class="cls-2" d="M152.11,129.28a1,1,0,0,1,.28-.7,1,1,0,0,1,.7-.28,1,1,0,0,1,.69,1.68.92.92,0,0,1-.69.28,1,1,0,0,1-1-1Zm.32,4h1.31v10.07h-1.31Z"/><path class="cls-2" d="M156.47,138.31a5.68,5.68,0,0,1,.39-2.13A4.93,4.93,0,0,1,158,134.5a4.76,4.76,0,0,1,1.68-1.1,6,6,0,0,1,4.26,0,5.15,5.15,0,0,1,1.68,1.1,5,5,0,0,1,1.1,1.68,5.68,5.68,0,0,1,.39,2.13,5.59,5.59,0,0,1-.39,2.12,5,5,0,0,1-1.1,1.68,5.15,5.15,0,0,1-1.68,1.1,6,6,0,0,1-4.26,0,4.76,4.76,0,0,1-1.68-1.1,4.93,4.93,0,0,1-1.09-1.68A5.59,5.59,0,0,1,156.47,138.31Zm1.3,0a4.49,4.49,0,0,0,.28,1.6,3.71,3.71,0,0,0,.79,1.31,3.85,3.85,0,0,0,1.27.88,4,4,0,0,0,1.65.33,4,4,0,0,0,1.66-.33,3.91,3.91,0,0,0,1.26-.88,3.73,3.73,0,0,0,.8-1.31,4.72,4.72,0,0,0,.27-1.6,4.77,4.77,0,0,0-.27-1.61,3.69,3.69,0,0,0-.8-1.3,3.94,3.94,0,0,0-1.26-.89,4,4,0,0,0-1.66-.32,4,4,0,0,0-1.65.32,3.88,3.88,0,0,0-1.27.89,3.66,3.66,0,0,0-.79,1.3A4.54,4.54,0,0,0,157.77,138.31Z"/><path class="cls-2" d="M169.57,136.1c0-.18,0-.41,0-.68l0-.82c0-.28,0-.53,0-.77s0-.43,0-.56h1.31c0,.38,0,.74,0,1.09a3.85,3.85,0,0,0,0,.68h.07a3.49,3.49,0,0,1,1.31-1.43,3.8,3.8,0,0,1,2.13-.6,4.24,4.24,0,0,1,1.92.37,3.21,3.21,0,0,1,1.17,1,3.73,3.73,0,0,1,.59,1.38,8.64,8.64,0,0,1,.16,1.62v6h-1.31v-5.93a6.75,6.75,0,0,0-.11-1.19,3.09,3.09,0,0,0-.38-1,2,2,0,0,0-.76-.73,2.64,2.64,0,0,0-1.28-.27,3.65,3.65,0,0,0-1.36.25,2.83,2.83,0,0,0-1.11.76,3.67,3.67,0,0,0-.74,1.29,5.24,5.24,0,0,0-.28,1.82v5h-1.3Z"/><path class="cls-2" d="M186.7,126.86H188v16.48H186.7Z"/><path class="cls-2" d="M200.19,141.45a4.35,4.35,0,0,1-1.88,1.65,5.94,5.94,0,0,1-2.48.5,5.4,5.4,0,0,1-2.09-.39,4.76,4.76,0,0,1-1.61-1.1,4.81,4.81,0,0,1-1-1.68,6.1,6.1,0,0,1-.36-2.15,5.92,5.92,0,0,1,.37-2.09,5.14,5.14,0,0,1,1.05-1.67,4.87,4.87,0,0,1,3.62-1.51,4.86,4.86,0,0,1,2,.4,4.51,4.51,0,0,1,1.48,1.07,4.41,4.41,0,0,1,.9,1.52,4.88,4.88,0,0,1,.31,1.72v.91H192a5,5,0,0,0,.16,1.06,3.69,3.69,0,0,0,.6,1.25A3.73,3.73,0,0,0,194,142a3.65,3.65,0,0,0,1.89.44,4.25,4.25,0,0,0,1.94-.48,3.5,3.5,0,0,0,1.43-1.31Zm-1-4a3,3,0,0,0-.27-1.27,3.3,3.3,0,0,0-.74-1,3.57,3.57,0,0,0-1.11-.71,3.52,3.52,0,0,0-1.37-.26,3.32,3.32,0,0,0-1.77.43,3.81,3.81,0,0,0-1.71,2.11,2.79,2.79,0,0,0-.18.73Z"/><path class="cls-2" d="M201.59,133.27h1.48l3.36,8.65,3.27-8.65H211l-4,10.07h-1.35Z"/><path class="cls-2" d="M221.58,141.45a4.38,4.38,0,0,1-1.89,1.65,5.9,5.9,0,0,1-2.47.5,5.37,5.37,0,0,1-2.09-.39,4.7,4.7,0,0,1-1.62-1.1,4.79,4.79,0,0,1-1-1.68,6.1,6.1,0,0,1-.36-2.15,5.71,5.71,0,0,1,.37-2.09,4.88,4.88,0,0,1,4.66-3.18,4.86,4.86,0,0,1,2,.4,4.51,4.51,0,0,1,1.48,1.07,4.6,4.6,0,0,1,.91,1.52,5.11,5.11,0,0,1,.3,1.72v.91h-8.46a4.48,4.48,0,0,0,.17,1.06,3.69,3.69,0,0,0,.6,1.25,3.81,3.81,0,0,0,1.16,1.05,3.67,3.67,0,0,0,1.89.44,4.22,4.22,0,0,0,1.94-.48,3.59,3.59,0,0,0,1.44-1.31Zm-1-4a3,3,0,0,0-.28-1.27,3.3,3.3,0,0,0-.74-1,3.35,3.35,0,0,0-1.11-.71,3.47,3.47,0,0,0-1.36-.26,3.35,3.35,0,0,0-1.78.43,3.92,3.92,0,0,0-1.12,1,4,4,0,0,0-.59,1.11,2.79,2.79,0,0,0-.18.73Z"/><path class="cls-2" d="M224.59,126.86h1.3v16.48h-1.3Z"/><path class="cls-2" d="M229.21,140.77a2.74,2.74,0,0,0,1.22,1.23,3.64,3.64,0,0,0,1.7.43,3,3,0,0,0,.83-.13,2.73,2.73,0,0,0,.74-.38,1.92,1.92,0,0,0,.53-.57,1.47,1.47,0,0,0,.21-.78,1.23,1.23,0,0,0-.45-1,3.16,3.16,0,0,0-1.1-.55,14,14,0,0,0-1.44-.34,6.36,6.36,0,0,1-1.44-.43,3.21,3.21,0,0,1-1.1-.82,2.2,2.2,0,0,1-.44-1.48,2.67,2.67,0,0,1,.3-1.29,2.77,2.77,0,0,1,.8-.9,3.42,3.42,0,0,1,1.1-.54,5,5,0,0,1,3.39.29,3.11,3.11,0,0,1,1.4,1.44l-1.17.69a2.82,2.82,0,0,0-.93-1,2.62,2.62,0,0,0-1.45-.36,2.73,2.73,0,0,0-.73.1,3.09,3.09,0,0,0-.69.31,1.87,1.87,0,0,0-.51.5,1.23,1.23,0,0,0-.21.7,1.15,1.15,0,0,0,.45,1,3.39,3.39,0,0,0,1.1.51,12.85,12.85,0,0,0,1.44.32,5.89,5.89,0,0,1,1.44.43,2.94,2.94,0,0,1,1.1.85,2.44,2.44,0,0,1,.45,1.58,2.93,2.93,0,0,1-.3,1.36,2.78,2.78,0,0,1-.8,1,3.68,3.68,0,0,1-1.17.59,4.77,4.77,0,0,1-1.37.19,5.5,5.5,0,0,1-2.39-.5,3.58,3.58,0,0,1-1.67-1.55Z"/><line class="cls-3" x1="71.87" y1="114.06" x2="251.71" y2="114.06"/><path class="cls-2" d="M23.78,15.18v3.39L0,29.14V24l15.89-7.1L0,9.78V4.61Z"/><path class="cls-2" d="M29.37,27.87,42.3,15.37l1.17-1.2a10.81,10.81,0,0,0,1.11-1.34,7.94,7.94,0,0,0,.82-1.48,4.12,4.12,0,0,0,.33-1.62,4,4,0,0,0-.4-1.83,4.35,4.35,0,0,0-1.06-1.37,4.94,4.94,0,0,0-1.52-.87,5.67,5.67,0,0,0-1.86-.3,5,5,0,0,0-3.48,1.22,5.13,5.13,0,0,0-1.64,3.29L29.84,9.4A10.77,10.77,0,0,1,31,5.33,9.11,9.11,0,0,1,33.32,2.4,10.18,10.18,0,0,1,36.71.61,13.67,13.67,0,0,1,40.89,0,14.62,14.62,0,0,1,45.1.59a10,10,0,0,1,3.4,1.74,8.1,8.1,0,0,1,2.31,2.93,9.79,9.79,0,0,1,.84,4.19,10,10,0,0,1-1.43,5.43,21.62,21.62,0,0,1-3.69,4.34L36.24,28.76H51.65v5.08H29.37Z"/><path class="cls-2" d="M77.22,5.64H63.83l-.15,6.63a6.74,6.74,0,0,1,1.67-.33c.68-.06,1.31-.1,1.91-.1a12.43,12.43,0,0,1,4.48.78,9.9,9.9,0,0,1,3.51,2.23,10.41,10.41,0,0,1,2.28,3.48,12.19,12.19,0,0,1,.82,4.56,12.18,12.18,0,0,1-.92,4.82,10.44,10.44,0,0,1-2.54,3.62,11.29,11.29,0,0,1-3.83,2.27,13.64,13.64,0,0,1-4.74.8,11.87,11.87,0,0,1-6.8-1.88,10.21,10.21,0,0,1-4-5.73l5.93-1.6A5.46,5.46,0,0,0,63.4,28a5.69,5.69,0,0,0,3.53,1,6,6,0,0,0,2.32-.43,5.33,5.33,0,0,0,1.84-1.2,5.68,5.68,0,0,0,1.2-1.8,6,6,0,0,0,.42-2.26,6.25,6.25,0,0,0-.64-3,5.54,5.54,0,0,0-1.71-2,7.27,7.27,0,0,0-2.49-1.13,12.43,12.43,0,0,0-3-.35,16.1,16.1,0,0,0-3.65.42A15,15,0,0,0,58,18.52l.33-18H77.22Z"/><path class="cls-2" d="M82.25,17.2a31.07,31.07,0,0,1,.63-6.74,18.59,18.59,0,0,1,1.67-4.7A11.3,11.3,0,0,1,86.88,2.7,10.24,10.24,0,0,1,89.51,1,10.1,10.1,0,0,1,92.1.19a12.66,12.66,0,0,1,4.37,0A10,10,0,0,1,99.05,1a10.24,10.24,0,0,1,2.63,1.74A11.3,11.3,0,0,1,104,5.76a18.21,18.21,0,0,1,1.67,4.7,31.07,31.07,0,0,1,.63,6.74,31.24,31.24,0,0,1-.63,6.75,18.34,18.34,0,0,1-1.67,4.7,11.24,11.24,0,0,1-2.33,3.05,10,10,0,0,1-2.63,1.74,10.49,10.49,0,0,1-2.58.78,13.35,13.35,0,0,1-4.37,0,10.56,10.56,0,0,1-2.59-.78,10,10,0,0,1-2.63-1.74,11.24,11.24,0,0,1-2.33-3.05A18.73,18.73,0,0,1,82.88,24,31.24,31.24,0,0,1,82.25,17.2Zm5.64,0a35.8,35.8,0,0,0,.21,3.6A16.27,16.27,0,0,0,89,24.67a8.24,8.24,0,0,0,1.93,3.11,5.15,5.15,0,0,0,6.77,0,8.34,8.34,0,0,0,1.92-3.11,16.27,16.27,0,0,0,.87-3.87,35.8,35.8,0,0,0,.21-3.6,35.62,35.62,0,0,0-.21-3.59,16.25,16.25,0,0,0-.87-3.88,8.3,8.3,0,0,0-1.92-3.1,5.15,5.15,0,0,0-6.77,0A8.2,8.2,0,0,0,89,9.73a16.25,16.25,0,0,0-.87,3.88A35.62,35.62,0,0,0,87.89,17.2Z"/><path class="cls-2" d="M12.6,76.06a25.19,25.19,0,0,1,1.64-9.19,22.58,22.58,0,0,1,4.4-7.56,19.49,19.49,0,0,1,6.44-5,18.18,18.18,0,0,1,8-1.87h3.4a18,18,0,0,1,8,1.87,19.48,19.48,0,0,1,6.57,5,25.23,25.23,0,0,1,4.45,7.56,26.69,26.69,0,0,1,1.58,9.19,26.42,26.42,0,0,1-1.58,9.2A25.35,25.35,0,0,1,51,92.82a19.48,19.48,0,0,1-6.57,5,18,18,0,0,1-8,1.87h-3.4a18.18,18.18,0,0,1-8-1.87,19.75,19.75,0,0,1-6.44-5,22.78,22.78,0,0,1-4.4-7.56A25.24,25.24,0,0,1,12.6,76.06Zm6.39,0a36.08,36.08,0,0,0,1.08,9,24.72,24.72,0,0,0,3.26,7.5,13.07,13.07,0,0,0,.9,1.34,11.94,11.94,0,0,0,1,1.17,14.93,14.93,0,0,0,3.54,2.73,28.36,28.36,0,0,0,2.79,1.32l1.11.23a6.11,6.11,0,0,0,1.23.12h1.76a5.26,5.26,0,0,0,1.17-.12c.35-.08.74-.15,1.17-.23.66-.28,1.57-.71,2.72-1.32A15.8,15.8,0,0,0,44.36,95q.47-.53,1-1.17c.33-.43.66-.88,1-1.34A25.25,25.25,0,0,0,49.57,85a36.76,36.76,0,0,0,0-17.93,25.25,25.25,0,0,0-3.28-7.5c-.31-.47-.64-.92-1-1.35s-.65-.82-1-1.17a15.73,15.73,0,0,0-3.61-2.72c-1.15-.61-2.06-1-2.72-1.32l-1.17-.21a8.27,8.27,0,0,0-1.17-.08H33.93a9.37,9.37,0,0,0-2.34.29,26.21,26.21,0,0,0-2.79,1.32,14.87,14.87,0,0,0-3.54,2.72,11.94,11.94,0,0,0-1,1.17,12.18,12.18,0,0,0-.9,1.35,24.72,24.72,0,0,0-3.26,7.5A36,36,0,0,0,19,76.06Z"/><path class="cls-2" d="M59.94,99.91V99.5a22.85,22.85,0,0,0,3.37-.21,4.54,4.54,0,0,0,2.2-.85,3.58,3.58,0,0,0,1.17-1.75,10.45,10.45,0,0,0,.35-3V59.19c0-2.15-.38-3.62-1.14-4.42s-2.12-1.26-4.08-1.38H59.94V53H82.2a23.62,23.62,0,0,1,6.8.88,13.23,13.23,0,0,1,4.68,2.52,9.8,9.8,0,0,1,2.67,3.66,12.07,12.07,0,0,1,.91,4.72,10.5,10.5,0,0,1-3.58,8.37A12.52,12.52,0,0,1,89,75.71a21.51,21.51,0,0,1-6.8.94H73.3V93.76a11.16,11.16,0,0,0,.26,2.69,3.77,3.77,0,0,0,.88,1.7,3.85,3.85,0,0,0,1.64,1,9.89,9.89,0,0,0,2.49.38h1.82l-.06.06v.35H59.94ZM73.3,76.3h8.43a8.46,8.46,0,0,0,5-1.47A8.85,8.85,0,0,0,88,73.63a8,8,0,0,0,1.2-1.73,12.27,12.27,0,0,0,1.17-3.19,17,17,0,0,0,.41-3.89,13.71,13.71,0,0,0-2.16-8.09,8,8,0,0,0-6.92-3.34H78a5.6,5.6,0,0,0-3.66,1.47c-.68.78-1,2.2-1,4.27V76.3Z"/><path class="cls-2" d="M140.2,65.17v-.12q-.47-1.81-1-3.78a13.65,13.65,0,0,0-1.73-3.66,9.58,9.58,0,0,0-3.11-2.87,11.71,11.71,0,0,0-5.12-1.41h-.53a5.2,5.2,0,0,0-3.6,1.44c-.69.8-1,2.22-1,4.25V93.64a11.78,11.78,0,0,0,.26,2.66,3.47,3.47,0,0,0,2.49,2.7,9.64,9.64,0,0,0,2.46.38h1.82v.41H110.67v-.41a22.85,22.85,0,0,0,3.37-.21,4.34,4.34,0,0,0,2.17-.84,3.56,3.56,0,0,0,1.14-1.76,10.06,10.06,0,0,0,.35-3V59.07a11.16,11.16,0,0,0-.26-2.69,3.77,3.77,0,0,0-.88-1.7,3.62,3.62,0,0,0-1.61-.94,12.8,12.8,0,0,0-2.46-.41h-.35a11.5,11.5,0,0,0-5.1,1.41,10,10,0,0,0-3.1,2.87,12.62,12.62,0,0,0-1.76,3.66c-.39,1.31-.72,2.57-1,3.78v.12h-.41V52.86h39.84V65.17Z"/><path class="cls-2" d="M148.84,99.29a4.54,4.54,0,0,0,2.2-.85,3.58,3.58,0,0,0,1.17-1.75,10.45,10.45,0,0,0,.35-3V59.19c0-2.15-.38-3.62-1.14-4.42s-2.12-1.26-4.07-1.38h-1.88V53h20.39v.29h0v.06h-2.34a5.63,5.63,0,0,0-3.67,1.47c-.68.78-1,2.2-1,4.27V93.76a11.69,11.69,0,0,0,.26,2.69,3.77,3.77,0,0,0,.88,1.7,3.85,3.85,0,0,0,1.64,1,9.89,9.89,0,0,0,2.49.38h1.82v.41H145.47V99.5A22.85,22.85,0,0,0,148.84,99.29Z"/><path class="cls-2" d="M169.67,76.06a25,25,0,0,1,1.64-9.19,22.39,22.39,0,0,1,4.39-7.56,19.49,19.49,0,0,1,6.44-5,18.21,18.21,0,0,1,8-1.87h3.4a18.09,18.09,0,0,1,8,1.87,19.44,19.44,0,0,1,6.56,5,25.23,25.23,0,0,1,4.45,7.56,26.69,26.69,0,0,1,1.58,9.19,26.42,26.42,0,0,1-1.58,9.2,25.35,25.35,0,0,1-4.45,7.56,19.44,19.44,0,0,1-6.56,5,18.09,18.09,0,0,1-8,1.87h-3.4a18.21,18.21,0,0,1-8-1.87,19.75,19.75,0,0,1-6.44-5,22.59,22.59,0,0,1-4.39-7.56A25,25,0,0,1,169.67,76.06Zm6.38,0a35.62,35.62,0,0,0,1.09,9,24.46,24.46,0,0,0,3.25,7.5,13.07,13.07,0,0,0,.9,1.34,13.42,13.42,0,0,0,1,1.17,14.93,14.93,0,0,0,3.54,2.73,29.49,29.49,0,0,0,2.79,1.32l1.11.23a6.11,6.11,0,0,0,1.23.12h1.76a5.26,5.26,0,0,0,1.17-.12c.35-.08.74-.15,1.17-.23.67-.28,1.57-.71,2.73-1.32a16,16,0,0,0,3.6-2.73c.31-.35.63-.74,1-1.17s.65-.88,1-1.34a25,25,0,0,0,3.28-7.5,36.44,36.44,0,0,0,0-17.93,25,25,0,0,0-3.28-7.5q-.47-.7-1-1.35c-.34-.43-.66-.82-1-1.17a15.91,15.91,0,0,0-3.6-2.72c-1.16-.61-2.06-1-2.73-1.32l-1.17-.21a8.27,8.27,0,0,0-1.17-.08H191a9.37,9.37,0,0,0-2.34.29,27.16,27.16,0,0,0-2.79,1.32,14.87,14.87,0,0,0-3.54,2.72,13.42,13.42,0,0,0-1,1.17,12.18,12.18,0,0,0-.9,1.35,24.46,24.46,0,0,0-3.25,7.5A35.54,35.54,0,0,0,176.05,76.06Z"/><path class="cls-2" d="M269.84,53v.41H269a16.15,16.15,0,0,0-2.49.26,10.72,10.72,0,0,0-3,1,7.31,7.31,0,0,0-2.55,2.14,6,6,0,0,0-1.08,3.75V99.91h-.47L224.91,56.79v35.5A6.11,6.11,0,0,0,226,96.1a7.49,7.49,0,0,0,2.55,2.14,10.49,10.49,0,0,0,3,1,15.18,15.18,0,0,0,2.49.27h.88v.41H214.42V99.5h.88a15.18,15.18,0,0,0,2.49-.27,10.49,10.49,0,0,0,3-1,7.4,7.4,0,0,0,2.55-2.14,6.11,6.11,0,0,0,1.08-3.81V59q0-1.41-.06-2.43a3.43,3.43,0,0,0-.52-1.73,2.75,2.75,0,0,0-1.56-1,11.79,11.79,0,0,0-3.13-.32h-1.82V53h12.54l29.47,36.62V60.6a6,6,0,0,0-1.09-3.75,7.37,7.37,0,0,0-2.54-2.14,10.94,10.94,0,0,0-3-1,16.39,16.39,0,0,0-2.49-.26h-.88V53h20.5Z"/><path class="cls-2" d="M274.41,85h.47a13.93,13.93,0,0,0,.3,2.72,19.57,19.57,0,0,0,.82,3,18.65,18.65,0,0,0,1.28,2.84,8.41,8.41,0,0,0,1.7,2.17,14.3,14.3,0,0,0,4.22,2.55,14.7,14.7,0,0,0,5,1h.53a16.39,16.39,0,0,0,5-1,9.59,9.59,0,0,0,4-3.34,8.65,8.65,0,0,0,1.55-4.66,9.13,9.13,0,0,0-1.37-5A11.66,11.66,0,0,0,293,81l-7.38-3.8a21.83,21.83,0,0,1-5.86-4.13,14,14,0,0,1-3.07-4.63,10.25,10.25,0,0,1-.68-4.72,11,11,0,0,1,1.41-4.39,13,13,0,0,1,3.13-3.64,16,16,0,0,1,4.49-2.51,10.24,10.24,0,0,1,2.34-.65,15.77,15.77,0,0,1,2.4-.17,14.26,14.26,0,0,1,5.27,1c.63.24,1.29.47,2,.7a7.44,7.44,0,0,0,2.1.41,4.24,4.24,0,0,0,2-.35,3.73,3.73,0,0,0,1.64-1.58h.41V65.28h-.47a9.58,9.58,0,0,0-.38-2.57,14.6,14.6,0,0,0-1-2.61,16.19,16.19,0,0,0-1.46-2.34,14.7,14.7,0,0,0-1.64-1.85,11.79,11.79,0,0,0-3.87-2.31,13.15,13.15,0,0,0-4.57-.79,15.47,15.47,0,0,0-2,.14,13.34,13.34,0,0,0-2,.44,8.46,8.46,0,0,0-4.19,2.81,6,6,0,0,0-1.23,4.46A10.31,10.31,0,0,0,283,66a26.19,26.19,0,0,0,7.32,5.65l6.74,3.46a17.12,17.12,0,0,1,5.09,4A12.26,12.26,0,0,1,304.76,84a10.48,10.48,0,0,1,.06,5,10.86,10.86,0,0,1-2.43,4.66,16,16,0,0,1-4.89,3.69,23.18,23.18,0,0,1-7.33,2.14h.12c-.31,0-.6.07-.85.08a6.78,6.78,0,0,1-.79,0h-.59a13.53,13.53,0,0,1-5.09-1v0a4.46,4.46,0,0,1-.59-.24,10.77,10.77,0,0,0-3.87-.9,5,5,0,0,0-2.25.46A2.45,2.45,0,0,0,275.18,99c-.2.41-.32.67-.36.79v.06h-.41Z"/><path class="cls-1" d="M50.41,37.38a9.79,9.79,0,0,0-3,3.14q-1.14,1.9-2.45,3.79l-1.05,2.1A17.91,17.91,0,0,0,43,48.57a11.13,11.13,0,0,0-1,2.12,2.35,2.35,0,0,1-1.57,1.54h-.58a1.69,1.69,0,0,1-.56-.36,3.29,3.29,0,0,1-.43-.56,23,23,0,0,1-.09-2.68c0-1,.06-1.93.13-2.91s.17-1.94.32-2.88.32-1.8.5-2.58a7.7,7.7,0,0,1,.39-1.44,1.25,1.25,0,0,1,1-.85.82.82,0,0,1,.76.59A3.78,3.78,0,0,1,42,39.77a12.77,12.77,0,0,1-.17,1.44,8.22,8.22,0,0,0-.13,1.21c-.09.87-.16,1.66-.23,2.35s-.14,1.35-.23,2c.75-1.22,1.64-2.59,2.69-4.12a41.74,41.74,0,0,1,3.2-4.12,16.74,16.74,0,0,1,1.14-1.27,4.81,4.81,0,0,1,1.35-.95,1.93,1.93,0,0,1,1.21,0,1,1,0,0,1,.75.72c.08.52-.05.81-.4.85A.73.73,0,0,1,50.41,37.38Z"/><path class="cls-1" d="M57.73,37.51a5.08,5.08,0,0,1,3.5,1.38,6.28,6.28,0,0,1,1.6,3.33c1.4-.26,2.85-.55,4.35-.88s3-.67,4.42-1a5.9,5.9,0,0,0,.65-.23,5.62,5.62,0,0,1,.82-.27,2.52,2.52,0,0,1,.75-.06.54.54,0,0,1,.46.29.41.41,0,0,1-.13.53,3.1,3.1,0,0,1-.66.36,5,5,0,0,1-.85.26c-.3.06-.52.12-.65.16-1.4.44-2.87.82-4.41,1.15L63,43.46a13.87,13.87,0,0,1-.56,4.75,16.8,16.8,0,0,1-1.8,4,20.64,20.64,0,0,1-2.52,3.14,7.19,7.19,0,0,1-3.43,2h-1a2.56,2.56,0,0,1-1.11-.49,8.92,8.92,0,0,1-.85-.75,5.74,5.74,0,0,1-1-2.85,17.46,17.46,0,0,1,0-3.46,31.85,31.85,0,0,1,.58-3.54c.27-1.15.51-2.19.72-3.1a2.59,2.59,0,0,1,0-2.36,5.19,5.19,0,0,1,1.28-1.7,13.23,13.23,0,0,0,.49-1.37,10.72,10.72,0,0,1,.55-1.5A4.59,4.59,0,0,1,55.15,35a1.67,1.67,0,0,1,1.28-.52,1.27,1.27,0,0,1,1.3,1A3.48,3.48,0,0,1,57.73,37.51Zm-3.14,6.8c-.21,1.27-.49,2.63-.81,4.09a16,16,0,0,0-.36,4.48A5.6,5.6,0,0,0,53.65,54a1.51,1.51,0,0,0,.62.85,5,5,0,0,0,3-1.57c.74-.82,1.43-1.67,2.09-2.55a26,26,0,0,0,1.57-3.17,7.89,7.89,0,0,0,.52-3.82,29.56,29.56,0,0,1-3.33.49A26.16,26.16,0,0,1,54.59,44.31Zm2.88-5.42a2,2,0,0,0-.13.75.44.44,0,0,1-.39.49,1.15,1.15,0,0,1-.3,0l-.22-.1a1.14,1.14,0,0,1-.07-.92,2.8,2.8,0,0,0-.49.85,9.34,9.34,0,0,0-.29,1A8.47,8.47,0,0,0,55.25,42c-.09.35-.18.7-.26,1,1.22,0,2.35,0,3.4-.13s2.07-.22,3.07-.4a5.18,5.18,0,0,0-1.21-2.58A3.81,3.81,0,0,0,57.47,38.89Z"/><path class="cls-1" d="M74.41,49.22a1.17,1.17,0,0,0,.55-.49c.16-.24.3-.47.43-.69.48-.61,1-1.26,1.41-2s.92-1.35,1.4-2c.31-.48.61-.94.92-1.37a13.15,13.15,0,0,1,1-1.25,10.33,10.33,0,0,0,1.11-1.17,1.71,1.71,0,0,1,1.57-.59,1.64,1.64,0,0,1,1.14.55,3.71,3.71,0,0,1,.69,1.18A9.75,9.75,0,0,1,85,43c.1.56.2,1.09.29,1.57s.2.9.33,1.4.28,1,.45,1.47.37.89.59,1.34a1.34,1.34,0,0,0,.92.82,1.28,1.28,0,0,0,.95-.1,6.13,6.13,0,0,0,1-.55,8.3,8.3,0,0,0,.85-.72l.58-.59a12.94,12.94,0,0,0,1.31-1.37,19,19,0,0,1,1.31-1.44q.92-1.11,1.86-2.19c.64-.72,1.26-1.47,1.87-2.26a4.86,4.86,0,0,0,.52-.85.78.78,0,0,1,.85-.46.77.77,0,0,1,.23,1,5.65,5.65,0,0,1-.56.88c-.21.31-.43.6-.65.88s-.41.54-.59.75c-.91,1.1-1.87,2.27-2.88,3.54a27.36,27.36,0,0,1-3.2,3.4,16.37,16.37,0,0,1-1.86,1.34,2.76,2.76,0,0,1-2.52,0,4.45,4.45,0,0,1-1.54-1.8,12.7,12.7,0,0,1-.88-2.45C84,45.8,83.79,44.9,83.6,44a9.4,9.4,0,0,0-.89-2.49,3.7,3.7,0,0,0-1.21,1l-1,1.37c-.35.48-.66.95-.95,1.41s-.58.92-.88,1.4q-.91,1.44-1.77,2.88a6.23,6.23,0,0,1-2.35,2.29,1.84,1.84,0,0,1-1.21-.13,2.65,2.65,0,0,1-.82-.65A8.63,8.63,0,0,1,72,48.37a29.46,29.46,0,0,1,.06-3.24c.09-1.11.22-2.2.4-3.27s.35-2.06.52-3c0-.31.09-.65.13-1a6.48,6.48,0,0,1,.23-1.08,4,4,0,0,1,.39-.88.86.86,0,0,1,.62-.42.72.72,0,0,1,.59.09,1.86,1.86,0,0,1,.33.36,3.52,3.52,0,0,1,.06,1.8,7.36,7.36,0,0,0-.13,1.93c-.21,1.48-.4,3-.55,4.58A49.21,49.21,0,0,0,74.41,49.22Z"/><path class="cls-1" d="M98.41,49.15q1.31-2.48,2.62-5.06a23.8,23.8,0,0,1,3.07-4.68c.17-.22.39-.48.65-.79a5.17,5.17,0,0,1,.85-.78,2.94,2.94,0,0,1,1-.46,2.09,2.09,0,0,1,1.21.13,3,3,0,0,1,1.44,2c.3,1.05.56,2.09.78,3.14.09.48.18,1,.29,1.5s.23,1,.36,1.57a10.46,10.46,0,0,0,.53,1.47,1.39,1.39,0,0,0,.78.89,1.08,1.08,0,0,0,1-.23,8.21,8.21,0,0,1,.79-.56c.26-.21.5-.4.72-.55a5.27,5.27,0,0,0,.65-.56,27.45,27.45,0,0,0,2.75-2.75,36,36,0,0,1,2.74-2.81,9.66,9.66,0,0,1,1.15-.75,1.68,1.68,0,0,1,.78-.23c.24,0,.38.16.43.46s-.1.48-.43.65a3.46,3.46,0,0,0-.75.53A16.18,16.18,0,0,0,120,43.17c-.61.72-1.26,1.45-2,2.19-.35.35-.69.68-1,1s-.66.63-1,1c-.57.57-1.18,1.13-1.83,1.67a3.81,3.81,0,0,1-2.55.82l-.29-.13a.86.86,0,0,0-.36-.07,4,4,0,0,1-1.61-2,20.36,20.36,0,0,1-.81-2.77c-.22-1-.43-2-.63-3a9.14,9.14,0,0,0-.94-2.65,3.8,3.8,0,0,0-1.7,1.48A22.44,22.44,0,0,1,104,42.55a30.9,30.9,0,0,0-2.23,4.05c-.65,1.44-1.28,2.93-1.89,4.45a3.81,3.81,0,0,0-.46,1,9.74,9.74,0,0,1-.46,1.21,3.31,3.31,0,0,1-.68,1,1.23,1.23,0,0,1-1.15.29,1.07,1.07,0,0,1-.88-.68,4,4,0,0,1-.36-1.44,14.64,14.64,0,0,1,0-1.77c0-.63,0-1.21.09-1.73q.27-3.14.72-6.12a36.59,36.59,0,0,1,1.25-5.46c.17-.48.32-.91.45-1.3a.91.91,0,0,1,.85-.66.75.75,0,0,1,.82.36,1.91,1.91,0,0,1,.2,1,7,7,0,0,1-.2,1.28c-.11.46-.18.84-.23,1.14-.3,1.66-.56,3.32-.78,5S98.58,47.5,98.41,49.15Z"/><path class="cls-1" d="M132,20.18a.86.86,0,0,1,.66.66,3.43,3.43,0,0,1,0,1.21,11,11,0,0,1-.3,1.4c-.13.48-.21.88-.26,1.18-.35,1.92-.68,3.94-1,6.05s-.58,4.27-.75,6.47-.25,4.43-.23,6.67a44.28,44.28,0,0,0,.55,6.64,12.79,12.79,0,0,0,.4,1.9,5,5,0,0,0,.78,1.63,4.32,4.32,0,0,0,1.77-1.5c.43-.66.89-1.29,1.37-1.9a47.56,47.56,0,0,0,3-5.23,53.71,53.71,0,0,1,2.91-5.23,8.33,8.33,0,0,0,.62-1.05.88.88,0,0,1,1-.52.8.8,0,0,1,.13,1,11.67,11.67,0,0,1-.59,1c-.48,1.05-1,2.11-1.57,3.17s-1.11,2.11-1.64,3.11c-.74,1.4-1.47,2.8-2.19,4.22a16.67,16.67,0,0,1-2.58,3.76,8,8,0,0,0-1,.72,1.86,1.86,0,0,1-1.24.39,2,2,0,0,1-1.25-.56,3.86,3.86,0,0,1-.85-1.14,6.8,6.8,0,0,1-.52-1.44q-.19-.78-.33-1.5a33.23,33.23,0,0,1-.52-4.35c-.09-1.55-.12-3.1-.1-4.64s.1-3.08.23-4.58.28-2.91.46-4.22c-.39.91-.78,1.85-1.15,2.81s-.75,1.92-1.14,2.88a2.19,2.19,0,0,1,.23.46c.06.17.14.37.23.59a9.06,9.06,0,0,1,.19,1,1.54,1.54,0,0,1-.13.92.61.61,0,0,1-.75-.23,2.52,2.52,0,0,0-.55-.62c-.62,1.57-1.21,3.21-1.8,4.94a33.81,33.81,0,0,1-2.06,4.8,14.45,14.45,0,0,1-.92,1.44,1.74,1.74,0,0,1-1.5.72,1,1,0,0,1-.59-.26,3.75,3.75,0,0,0-.46-.39,5.14,5.14,0,0,1-.46-2.78,23.85,23.85,0,0,1,.46-3.18,37,37,0,0,1,1-3.66,11.89,11.89,0,0,1,1.7-3.2,6.08,6.08,0,0,1,1.57-1.64,2.58,2.58,0,0,1,2.42-.26q1.5-3.39,2.87-7.55t2.62-8.14c.17-.48.33-.93.46-1.34A1,1,0,0,1,132,20.18ZM124.31,40a2.34,2.34,0,0,0-1.08.78,8.14,8.14,0,0,0-.82,1.18,17,17,0,0,0-1.57,4,27.65,27.65,0,0,0-.79,4.51A25.87,25.87,0,0,0,122.21,46l1.77-4.7c.09-.22.18-.44.29-.66a1,1,0,0,0,.1-.65Z"/><path class="cls-1" d="M156.81,39.08a1,1,0,0,1,.23.72,7.58,7.58,0,0,0,0,.85c0,.74-.05,1.55,0,2.42s0,1.72,0,2.55,0,1.64,0,2.42a2.81,2.81,0,0,1-.69,1.9h-.52a2.11,2.11,0,0,1-.49-1,9.06,9.06,0,0,1-.23-1.47c0-1,0-2,0-3a28.24,28.24,0,0,1,.23-3.08c0-.26.09-.56.13-.91a3.35,3.35,0,0,1,.23-.92,1.06,1.06,0,0,1,.45-.55A.77.77,0,0,1,156.81,39.08Zm.32-12.68a1.45,1.45,0,0,1-.52,1c-.35.09-.6,0-.75-.13a1.05,1.05,0,0,1-.26-.62.8.8,0,0,1,.19-.62.84.84,0,0,1,.75-.2C156.89,26.05,157.09,26.22,157.13,26.4Z"/><path class="cls-1" d="M173.55,49.48a4.76,4.76,0,0,0,1.08-1.24c.28-.48.57-1,.88-1.44s.6-1,.88-1.44.56-1,.82-1.44.61-.83.92-1.31.63-1,1-1.43l.65-1a4.12,4.12,0,0,1,.75-.85,1.95,1.95,0,0,1,2.13-.3,2.89,2.89,0,0,1,.75,1.61,17.54,17.54,0,0,1,.2,2.12q0,1.11.09,2.22a5,5,0,0,0,.46,1.9,3.65,3.65,0,0,0,1.34-1.14l1.08-1.48c.35-.52.69-1.05,1-1.6a11.16,11.16,0,0,0,.81-1.67A4.33,4.33,0,0,0,189,39.9c.15-.46.51-.64,1.08-.56a1.11,1.11,0,0,1-.07,1.21,3,3,0,0,0-.46,1.21c-.21.4-.41.78-.58,1.15s-.35.75-.53,1.14a14.14,14.14,0,0,0-1.31,2,6.51,6.51,0,0,1-1.5,1.9,2.35,2.35,0,0,1-.82.52,2.08,2.08,0,0,1-1.21.07,2.34,2.34,0,0,1-1.21-1.21,6.76,6.76,0,0,1-.49-1.9,20.64,20.64,0,0,1-.13-2.29,12.33,12.33,0,0,0-.19-2.25,1.19,1.19,0,0,0-.56.49c-.15.24-.32.47-.49.69-.48.65-.95,1.35-1.41,2.09s-.88,1.48-1.27,2.22a20.29,20.29,0,0,0-1.73,2.91,5.49,5.49,0,0,1-2.26,2.39,3,3,0,0,0-.46,0,1.63,1.63,0,0,1-.52,0,5.08,5.08,0,0,1-.66-.33,5.89,5.89,0,0,1-.88-3c-.06-1.2-.1-2.43-.1-3.7s0-2.53-.06-3.79-.11-2.46-.2-3.6a37.83,37.83,0,0,0-2.42,5.63c-.7,2-1.37,4.18-2,6.41-.43,1.56-.83,3.18-1.21,4.83s-.77,3.36-1.21,5.1c-.08.4-.17.79-.26,1.18a4.57,4.57,0,0,1-.36,1.08,2.31,2.31,0,0,1-.62.82,1.84,1.84,0,0,1-1,.39,1.32,1.32,0,0,1-1.18-.95,10.17,10.17,0,0,1-.39-1.73,30.33,30.33,0,0,1,0-5.72q.25-3,.59-5.79c.21-1.83.48-3.67.78-5.53s.65-3.63,1-5.33c.13-.52.27-1.06.42-1.63a1.26,1.26,0,0,1,1.15-1,1,1,0,0,1,.75.13,1.34,1.34,0,0,1,.36.52,3.34,3.34,0,0,1-.07,1.44,3.19,3.19,0,0,0-.06,1.44,4.5,4.5,0,0,0,.26,1.11,1.72,1.72,0,0,1,.06,1,.44.44,0,0,1-.42.26.66.66,0,0,1-.49-.2q-.53,3.34-1,6.61T163,54.32q1.11-3.8,2.36-7.91t2.74-7.85c.14-.3.31-.73.53-1.28a8,8,0,0,1,.82-1.53,3.67,3.67,0,0,1,1.11-1.11,1.35,1.35,0,0,1,1.4,0,1.71,1.71,0,0,1,.89,1,8.67,8.67,0,0,1,.42,1.77,15.08,15.08,0,0,1,.13,2.06c0,.72,0,1.36.07,1.93a35.9,35.9,0,0,1,0,4.15A18.6,18.6,0,0,0,173.55,49.48Z"/><path class="cls-1" d="M190.09,53.6c1.14-2.7,2.36-5.3,3.66-7.78a20.56,20.56,0,0,1,5.11-6.34l.62-.27.68-.26a2.2,2.2,0,0,1,2,.59,3.61,3.61,0,0,1,.86,1.8,6.16,6.16,0,0,1,0,2.26,8.77,8.77,0,0,1-.62,2A19.38,19.38,0,0,0,204.81,44c.78-.61,1.61-1.2,2.48-1.77l1.87-1.31c.63-.43,1.27-.87,1.92-1.3a6,6,0,0,0,.72-.36.64.64,0,0,1,.79.09.6.6,0,0,1-.2.85l-.78.59c-1.83,1.27-3.6,2.54-5.3,3.83s-3.44,2.56-5.23,3.82a21,21,0,0,1-1.57,2.46,20.4,20.4,0,0,1-1.9,2.19c-.26.22-.58.51-1,.88s-.75.72-1.14,1a9.55,9.55,0,0,1-1.27.88,3.55,3.55,0,0,1-1.35.46c-1,.13-1.48-.2-1.57-1a1.61,1.61,0,0,1,.36-1.38,13,13,0,0,1,.95-.91c.35-.35.67-.66,1-.92s.58-.52.88-.78a21.81,21.81,0,0,0,2.1-1.54,22.11,22.11,0,0,1,2.09-1.54c.3-.48.62-1,1-1.66s.62-1.28.88-1.93c.09-.31.19-.66.29-1.05a6.84,6.84,0,0,0,.23-1.18,3.42,3.42,0,0,0,0-1.11,1.67,1.67,0,0,0-.49-.91,3.46,3.46,0,0,0-2.29,1.08,24.1,24.1,0,0,0-1.63,1.86,28.28,28.28,0,0,0-3.27,5.26,56.21,56.21,0,0,0-2.49,6.05c-.17.44-.34.86-.49,1.28a9.21,9.21,0,0,0-.36,1.27,13.87,13.87,0,0,0-.19,2.39c0,.85,0,1.69-.07,2.52-.09,1.65-.17,3.31-.26,5s-.2,3.33-.33,5c0,.4-.07.8-.1,1.21a7.76,7.76,0,0,1-.13,1.15,2.34,2.34,0,0,1-.39,1,1.72,1.72,0,0,1-.82.62h-.19a1.11,1.11,0,0,1-1-1.08c-.06-.63-.1-1.26-.1-1.87a30.92,30.92,0,0,1,.1-3.76c.11-1.2.25-2.41.43-3.63.09-.56.19-1.13.32-1.7a16.45,16.45,0,0,0,.33-1.7,28.34,28.34,0,0,0,.2-3.36c0-1.16,0-2.26.13-3.31.17-2.79.34-5.53.49-8.24s.32-5.47.49-8.3V38.07a8.26,8.26,0,0,1,.07-1.15,2.38,2.38,0,0,1,.29-.91.8.8,0,0,1,.75-.39.77.77,0,0,1,.75.49,3.52,3.52,0,0,1,.3,1.17,8.65,8.65,0,0,1,0,1.44c0,.5-.07.93-.07,1.28-.17,2.27-.34,4.54-.49,6.83S190.18,51.38,190.09,53.6Z"/><path class="cls-1" d="M214.75,12.92l.06-.06a1.06,1.06,0,0,1,1.18.85,7.11,7.11,0,0,1,.2,1.57,29.3,29.3,0,0,1-.23,5.33q-.36,2.58-.63,5.07-.32,3.39-.65,6.9c-.22,2.33-.41,4.67-.59,7q-.39,6.21-.85,12.39a116.55,116.55,0,0,0-.19,13,8.13,8.13,0,0,0,.06.92,9,9,0,0,1,.07,1,3,3,0,0,1-.13.89.52.52,0,0,1-.53.39.92.92,0,0,1-1.14-.79,11.74,11.74,0,0,1-.3-1.7c-.08-.69-.14-1.37-.16-2s0-1.24-.1-1.77c.05-1.31.05-2.6,0-3.89s0-2.52,0-3.69q.08-9.49.79-18t1.83-17.1l.39-3.34a11.88,11.88,0,0,0,.16-1.6,2.26,2.26,0,0,1,.56-1.41Z"/><path class="cls-1" d="M228,38.17a42.7,42.7,0,0,0-2.42,3.53c-.79,1.26-1.57,2.48-2.36,3.66-.56.83-1.15,1.72-1.76,2.68a13.1,13.1,0,0,1-2.1,2.55,4.48,4.48,0,0,1-.91.82,1.43,1.43,0,0,1-1.24.16,1.75,1.75,0,0,1-.92-1.44,20,20,0,0,1,1.21-5.68,26.26,26.26,0,0,1,2.32-4.84c.31-.48.64-1,1-1.44A3.57,3.57,0,0,1,222,37.12a1.88,1.88,0,0,1,2.19.1,2.34,2.34,0,0,1,.68,2.39,3.64,3.64,0,0,0,.75-1c.29-.52.59-1.06.92-1.6a10.64,10.64,0,0,1,1-1.47,1.78,1.78,0,0,1,1.14-.72,1.6,1.6,0,0,1,.46.06l.39.13a3.08,3.08,0,0,1,.66,1.25c-.09,2.61-.27,5.09-.53,7.42s-.46,4.8-.59,7.42v1.18q0,.72-.06,1.44a7.05,7.05,0,0,1-.23,1.27c-.11.37-.3.56-.56.56a.72.72,0,0,1-.68-.43,3,3,0,0,1-.33-1,7.71,7.71,0,0,1-.1-1.28,7.43,7.43,0,0,0-.06-1,36.36,36.36,0,0,1,.13-6.93C227.5,42.51,227.74,40.3,228,38.17Zm-4.71.13a.06.06,0,0,0-.07-.07,2,2,0,0,0-.36.17,2,2,0,0,1-.36.16,14,14,0,0,0-1.63,2.32,26.1,26.1,0,0,0-1.31,2.65c-.35.92-.69,1.89-1,2.91a13.79,13.79,0,0,0-.62,3.3,22.68,22.68,0,0,0,3.3-4.22c1-1.59,2-3.14,3-4.67a2.63,2.63,0,0,1-.32-1.41A1.11,1.11,0,0,0,223.25,38.3Z"/><path class="cls-1" d="M236.85,49.15q1.31-2.48,2.62-5.06a23.8,23.8,0,0,1,3.07-4.68c.17-.22.39-.48.65-.79a5.61,5.61,0,0,1,.85-.78,2.94,2.94,0,0,1,1-.46,2.09,2.09,0,0,1,1.21.13,3,3,0,0,1,1.44,2c.3,1.05.56,2.09.78,3.14q.13.72.3,1.5c.1.53.22,1,.35,1.57a11.89,11.89,0,0,0,.53,1.47,1.41,1.41,0,0,0,.78.89,1.08,1.08,0,0,0,1-.23,8.21,8.21,0,0,1,.79-.56c.26-.21.5-.4.72-.55a4.63,4.63,0,0,0,.65-.56,27.45,27.45,0,0,0,2.75-2.75,36,36,0,0,1,2.74-2.81,10.55,10.55,0,0,1,1.15-.75,1.68,1.68,0,0,1,.78-.23c.24,0,.39.16.43.46s-.1.48-.43.65a3.46,3.46,0,0,0-.75.53,16.18,16.18,0,0,0-1.83,1.86c-.61.72-1.26,1.45-2,2.19-.35.35-.69.68-1,1s-.67.63-1,1c-.57.57-1.18,1.13-1.83,1.67a3.81,3.81,0,0,1-2.55.82l-.29-.13a.86.86,0,0,0-.36-.07,4,4,0,0,1-1.61-2,20.36,20.36,0,0,1-.81-2.77c-.22-1-.43-2-.62-3a9.46,9.46,0,0,0-1-2.65,3.86,3.86,0,0,0-1.7,1.48,22.44,22.44,0,0,1-1.31,1.86,29.72,29.72,0,0,0-2.22,4.05c-.66,1.44-1.29,2.93-1.9,4.45a3.81,3.81,0,0,0-.46,1,9.74,9.74,0,0,1-.46,1.21,3.31,3.31,0,0,1-.68,1,1.23,1.23,0,0,1-1.15.29,1.08,1.08,0,0,1-.88-.68,4,4,0,0,1-.36-1.44,17,17,0,0,1,0-1.77c0-.63,0-1.21.1-1.73q.25-3.14.71-6.12a36.59,36.59,0,0,1,1.25-5.46c.17-.48.32-.91.45-1.3a.92.92,0,0,1,.85-.66.75.75,0,0,1,.82.36,1.91,1.91,0,0,1,.2,1,7,7,0,0,1-.2,1.28c-.11.46-.18.84-.23,1.14-.3,1.66-.56,3.32-.78,5S237,47.5,236.85,49.15Z"/><path class="cls-1" d="M263.92,31q5.63-.2,11.71-.58a85.7,85.7,0,0,1,12.1.06l.72,0a.57.57,0,0,1,.52.36c0,.35-.21.53-.49.53a4.16,4.16,0,0,1-.75-.07,119,119,0,0,0-12.1.1l-11.84.69q-.92,5.35-1.66,10.92a79.54,79.54,0,0,0-.69,11.64c0,.56,0,1.2.06,1.89a13,13,0,0,0,.27,2,16.47,16.47,0,0,0,.42,1.76c.2.7.49,1.07.88,1.11a.86.86,0,0,0,.69-.19,7.94,7.94,0,0,0,.72-.62,5.81,5.81,0,0,0,.65-.76c.2-.26.34-.45.43-.59a62.66,62.66,0,0,0,4.67-7q2.07-3.57,4.35-7.42c.4-.7.81-1.42,1.25-2.16s.91-1.48,1.43-2.22a6.18,6.18,0,0,1,.59-.76.57.57,0,0,1,.66-.22c.35.17.41.44.19.81s-.39.65-.52.82c-1.09,1.83-2.12,3.68-3.07,5.56s-2,3.73-3.08,5.56c-.61,1-1.21,2-1.8,3s-1.21,2-1.86,3-1.33,2-2,2.94a7,7,0,0,1-2.68,2.23,3.94,3.94,0,0,1-1.37,0A4.08,4.08,0,0,1,260,61a17.77,17.77,0,0,1-.88-3.69,28,28,0,0,1-.33-4.35c0-1.5.05-3,.13-4.41.22-2.92.52-5.75.89-8.47s.81-5.33,1.34-7.82q-3,.13-6.12.46t-6.31.46l-.88,0c-.33,0-.51-.14-.56-.49a.46.46,0,0,1,.53-.52,4.88,4.88,0,0,0,.91-.07q3.08-.19,6.28-.52t6.34-.46c.26-.92.56-2,.89-3.24a25.07,25.07,0,0,1,1.14-3.43,5.34,5.34,0,0,1,.49-1.08,1,1,0,0,1,.88-.62.7.7,0,0,1,.63.26,1.05,1.05,0,0,1,.13.62,7.39,7.39,0,0,1-.13.75c-.07.27-.13.51-.17.72-.22,1-.43,2-.65,3S264.14,30.1,263.92,31Z"/></g></g></svg>