<svg xmlns="http://www.w3.org/2000/svg" viewBox="0 0 136.17 136.17"><defs><style>.cls-1{fill:#a4a6a8;}.cls-2{fill:#d9dadb;}</style></defs><g id="Layer_2" data-name="Layer 2"><g id="Layer_1-2" data-name="Layer 1"><path class="cls-1" d="M123.33,28.28A68.53,68.53,0,0,0,108,12.92,67.88,67.88,0,0,0,68.08,0V2.73a65.35,65.35,0,1,1-53,103.55A64.62,64.62,0,0,1,8.46,94.86a7.33,7.33,0,0,1-2.55,1A68.09,68.09,0,1,0,123.33,28.28"/><path class="cls-2" d="M2.73,68.08A65.28,65.28,0,0,1,68.08,2.73V0A68,68,0,0,0,0,68.08,68.75,68.75,0,0,0,1.46,82.14a7.32,7.32,0,0,1,2.64-.7A66.19,66.19,0,0,1,2.73,68.08"/><path class="cls-1" d="M9.17,88.69a4.55,4.55,0,1,0-4.55,4.55,4.55,4.55,0,0,0,4.55-4.55"/></g></g></svg>