<svg xmlns="http://www.w3.org/2000/svg" viewBox="0 0 139.01 135.83"><defs><style>.cls-1{fill:#53575a;}.cls-2{fill:#d9dadb;}</style></defs><g id="Layer_2" data-name="Layer 2"><g id="Layer_1-2" data-name="Layer 1"><path class="cls-1" d="M91.25,5.9a65.19,65.19,0,0,1,18.16,114.76,64.52,64.52,0,0,1-18.17,9.28,65.12,65.12,0,0,1-85-55,7.15,7.15,0,0,1-1.74.22,6.37,6.37,0,0,1-1-.08A68.45,68.45,0,0,0,6.48,88.91,68,68,0,1,0,71.09,0V2.72A65.09,65.09,0,0,1,91.25,5.9"/><path class="cls-2" d="M6.28,60.88A65.14,65.14,0,0,1,71.09,2.72V0A68,68,0,0,0,6.48,46.92,68.45,68.45,0,0,0,3.56,60.73a7.93,7.93,0,0,1,1-.07,7.15,7.15,0,0,1,1.74.22"/><path class="cls-1" d="M4.54,72.46A4.54,4.54,0,1,0,0,67.92a4.55,4.55,0,0,0,4.54,4.54"/></g></g></svg>