<svg xmlns="http://www.w3.org/2000/svg" viewBox="0 0 134.36 134.36"><defs><style>.cls-1{fill:#a4a6a8;}.cls-2{fill:#c7c8c9;}</style></defs><g id="Layer_2" data-name="Layer 2"><g id="Layer_1-2" data-name="Layer 1"><path class="cls-1" d="M87.12,5.83a64.51,64.51,0,0,1-39.87,122.7,64,64,0,0,1-18-9.17A64.35,64.35,0,0,1,2.69,67.18,65.41,65.41,0,0,1,4.05,54a7.36,7.36,0,0,1-2.6-.69A67.25,67.25,0,1,0,67.18,0V2.69A64.6,64.6,0,0,1,87.12,5.83"/><path class="cls-2" d="M15,29.27A64.37,64.37,0,0,1,67.18,2.69V0A67.24,67.24,0,0,0,5.84,39.76a7.23,7.23,0,0,1,2.51,1A65.34,65.34,0,0,1,15,29.27"/><path class="cls-1" d="M4.55,51.31A4.49,4.49,0,1,0,.07,46.82a4.49,4.49,0,0,0,4.48,4.49"/></g></g></svg>