<svg xmlns="http://www.w3.org/2000/svg" viewBox="0 0 136.5 136.5"><defs><style>.cls-1{fill:#ff8300;}.cls-2{fill:#eae3de;}</style></defs><g id="Layer_2" data-name="Layer 2"><g id="Layer_1-2" data-name="Layer 1"><path class="cls-1" d="M88.5,5.93a65,65,0,0,1,18.15,9.24A65.6,65.6,0,0,1,130.57,88.5a64.87,64.87,0,0,1-9.32,18.26,65.78,65.78,0,0,1-14.49,14.5,65.49,65.49,0,0,1-77,0A65.59,65.59,0,0,1,4.12,54.84a7.37,7.37,0,0,1-2.65-.7,68.25,68.25,0,0,0,26.66,69.33,68.25,68.25,0,0,0,95.5-95.12A68.07,68.07,0,0,0,68.25,0V2.74A65.36,65.36,0,0,1,88.5,5.93"/><path class="cls-2" d="M15.24,29.74a66,66,0,0,1,14.5-14.5A65.29,65.29,0,0,1,68.25,2.74V0A68.24,68.24,0,0,0,13,28.13,67.66,67.66,0,0,0,5.94,40.4a7.14,7.14,0,0,1,2.55,1,65.5,65.5,0,0,1,6.75-11.65"/><path class="cls-1" d="M4.63,52.13A4.56,4.56,0,1,0,.07,47.57a4.57,4.57,0,0,0,4.56,4.56"/></g></g></svg>