<svg xmlns="http://www.w3.org/2000/svg" viewBox="0 0 315.56 153.7"><defs><style>.cls-1{fill:#ff8300;}.cls-2{fill:#fff;}.cls-3{fill:none;stroke:#ff8300;stroke-width:0.7px;}</style></defs><g id="Layer_2" data-name="Layer 2"><g id="Layer_1-2" data-name="Layer 1"><path class="cls-1" d="M72,145.42l6.2-6,.56-.57a5.38,5.38,0,0,0,.53-.65,3.81,3.81,0,0,0,.4-.71,2,2,0,0,0,.15-.77,1.9,1.9,0,0,0-.19-.88,2.1,2.1,0,0,0-1.24-1.07,2.6,2.6,0,0,0-.89-.15,2.37,2.37,0,0,0-1.67.59,2.5,2.5,0,0,0-.79,1.57l-2.84-.22a5.1,5.1,0,0,1,.53-1.95,4.17,4.17,0,0,1,1.14-1.41,5,5,0,0,1,1.62-.86,6.83,6.83,0,0,1,2-.29,6.9,6.9,0,0,1,2,.28,5,5,0,0,1,1.63.83,3.87,3.87,0,0,1,1.11,1.41,4.68,4.68,0,0,1,.4,2,4.79,4.79,0,0,1-.68,2.61,10.53,10.53,0,0,1-1.77,2.08l-4.94,4.58h7.39v2.43H72Z"/><path class="cls-2" d="M91.28,137.87h1.35v1.82h.05a3.37,3.37,0,0,1,.79-.93,4.57,4.57,0,0,1,1-.66,5.25,5.25,0,0,1,1.16-.38,6.26,6.26,0,0,1,1.2-.12,5.82,5.82,0,0,1,2.2.4,5.12,5.12,0,0,1,2.87,2.88,6.08,6.08,0,0,1,0,4.39,5.12,5.12,0,0,1-2.87,2.88,5.82,5.82,0,0,1-2.2.4,6.26,6.26,0,0,1-1.2-.12,5.25,5.25,0,0,1-1.16-.38,4.24,4.24,0,0,1-1-.66,3.37,3.37,0,0,1-.79-.93h-.05v7H91.28Zm1.22,5.21a4.19,4.19,0,0,0,.33,1.65,4.44,4.44,0,0,0,.93,1.36,4.62,4.62,0,0,0,1.37.91,4.43,4.43,0,0,0,1.72.34,4.28,4.28,0,0,0,1.71-.34,4.1,4.1,0,0,0,1.31-.91,4,4,0,0,0,.82-1.36,4.87,4.87,0,0,0,0-3.31,4,4,0,0,0-.82-1.36,4.1,4.1,0,0,0-1.31-.91,4.28,4.28,0,0,0-1.71-.34,4.43,4.43,0,0,0-1.72.34,4.62,4.62,0,0,0-1.37.91,4.44,4.44,0,0,0-.93,1.36A4.2,4.2,0,0,0,92.5,143.08Z"/><path class="cls-2" d="M104.9,140.8c0-.2,0-.43,0-.71s0-.56,0-.85,0-.55,0-.8,0-.44,0-.57h1.35c0,.39,0,.76,0,1.12a3.62,3.62,0,0,0,.06.7,4.62,4.62,0,0,1,1.33-1.51,3.29,3.29,0,0,1,2-.58,2.6,2.6,0,0,1,.4,0l.39.08-.15,1.33a1.72,1.72,0,0,0-.52-.09,3.77,3.77,0,0,0-1.53.28,3,3,0,0,0-1.06.78,3.49,3.49,0,0,0-.62,1.16,5,5,0,0,0-.2,1.43v5.68H104.9Z"/><path class="cls-2" d="M111,143.08a5.82,5.82,0,0,1,.4-2.2,5.28,5.28,0,0,1,1.13-1.74,5,5,0,0,1,1.74-1.14,6.28,6.28,0,0,1,4.41,0,5.21,5.21,0,0,1,1.73,1.14,5.16,5.16,0,0,1,1.14,1.74,6.08,6.08,0,0,1,0,4.39A5.16,5.16,0,0,1,120.4,147a5.21,5.21,0,0,1-1.73,1.14,6.28,6.28,0,0,1-4.41,0,5,5,0,0,1-1.74-1.14,5.28,5.28,0,0,1-1.13-1.74A5.8,5.8,0,0,1,111,143.08Zm1.35,0a4.77,4.77,0,0,0,.28,1.65,4,4,0,0,0,.82,1.36,4.21,4.21,0,0,0,1.31.91,4.33,4.33,0,0,0,1.72.34,4.28,4.28,0,0,0,1.71-.34,4.1,4.1,0,0,0,1.31-.91,4,4,0,0,0,.82-1.36,5,5,0,0,0,0-3.31,4,4,0,0,0-.82-1.36,4.1,4.1,0,0,0-1.31-.91,4.28,4.28,0,0,0-1.71-.34,4.33,4.33,0,0,0-1.72.34,4.21,4.21,0,0,0-1.31.91,4,4,0,0,0-.82,1.36A4.78,4.78,0,0,0,112.34,143.08Z"/><path class="cls-2" d="M126.1,150.11a8.2,8.2,0,0,1-.13,1.47,2.82,2.82,0,0,1-.46,1.12,2.29,2.29,0,0,1-.91.74,3.7,3.7,0,0,1-1.48.26,3,3,0,0,1-1.08-.21l.2-1.19a2.41,2.41,0,0,0,.86.18,1.74,1.74,0,0,0,.86-.19,1.33,1.33,0,0,0,.5-.5,2.12,2.12,0,0,0,.23-.71,7.81,7.81,0,0,0,0-.86V137.87h1.36Zm-1.7-16.37a1,1,0,0,1,1-1,1,1,0,0,1,.72.3,1,1,0,0,1,0,1.44,1,1,0,0,1-.72.29,1,1,0,0,1-1-1Z"/><path class="cls-2" d="M138.7,146.32a4.63,4.63,0,0,1-1.95,1.72,6.29,6.29,0,0,1-2.56.51,5.51,5.51,0,0,1-2.16-.4,4.77,4.77,0,0,1-1.67-1.14,4.85,4.85,0,0,1-1.07-1.74,6.31,6.31,0,0,1-.38-2.22,5.84,5.84,0,0,1,.39-2.16,5,5,0,0,1,4.82-3.29,5,5,0,0,1,2.11.41,4.66,4.66,0,0,1,2.47,2.67,5.33,5.33,0,0,1,.32,1.79v.94h-8.75a4.34,4.34,0,0,0,.17,1.1,3.82,3.82,0,0,0,.62,1.29,4,4,0,0,0,1.2,1.09,3.8,3.8,0,0,0,2,.45,4.4,4.4,0,0,0,2-.5,3.62,3.62,0,0,0,1.49-1.35Zm-1-4.12a3,3,0,0,0-.28-1.31,3.29,3.29,0,0,0-.77-1.07,3.5,3.5,0,0,0-1.15-.74,3.67,3.67,0,0,0-1.4-.27,3.46,3.46,0,0,0-1.84.45,3.94,3.94,0,0,0-1.16,1,4,4,0,0,0-.61,1.14,3,3,0,0,0-.18.76Z"/><path class="cls-2" d="M150.31,146.75a5,5,0,0,1-1.73,1.37,5.09,5.09,0,0,1-2.1.43,5.91,5.91,0,0,1-2.21-.4,5.06,5.06,0,0,1-1.74-1.14,5.26,5.26,0,0,1-1.12-1.74,6.08,6.08,0,0,1,0-4.39,5.26,5.26,0,0,1,1.12-1.74,5.06,5.06,0,0,1,1.74-1.14,5.91,5.91,0,0,1,2.21-.4,4.75,4.75,0,0,1,2.13.47,5.46,5.46,0,0,1,1.75,1.33l-1.08.81a4.57,4.57,0,0,0-1.29-1,3.16,3.16,0,0,0-1.51-.38,4.28,4.28,0,0,0-1.71.34,4.1,4.1,0,0,0-1.31.91,3.84,3.84,0,0,0-.82,1.36,4.87,4.87,0,0,0,0,3.31,3.84,3.84,0,0,0,.82,1.36,4.1,4.1,0,0,0,1.31.91,4.28,4.28,0,0,0,1.71.34,3.14,3.14,0,0,0,1.57-.4,4.1,4.1,0,0,0,1.23-1.05Z"/><path class="cls-2" d="M157.1,139.08h-3v6.79a1.43,1.43,0,0,0,.39,1.08,1.41,1.41,0,0,0,1.06.39,3.63,3.63,0,0,0,.78-.1,6,6,0,0,0,.75-.26l.11,1.21a6.77,6.77,0,0,1-.88.25,3.7,3.7,0,0,1-.88.11,3.32,3.32,0,0,1-1.24-.21,2.19,2.19,0,0,1-.83-.57,2.33,2.33,0,0,1-.46-.85,3.51,3.51,0,0,1-.15-1v-6.79h-2.25v-1.21h2.25v-3h1.35v3h3Z"/><path class="cls-2" d="M159,133.74a1,1,0,1,1,.29.72A.94.94,0,0,1,159,133.74Zm.33,4.13h1.36v10.41h-1.36Z"/><path class="cls-2" d="M163.51,143.08a5.82,5.82,0,0,1,.4-2.2,5.28,5.28,0,0,1,1.13-1.74,5,5,0,0,1,1.73-1.14,6,6,0,0,1,2.21-.4,5.82,5.82,0,0,1,2.2.4,5.1,5.1,0,0,1,2.88,2.88,6.22,6.22,0,0,1,0,4.39,5.1,5.1,0,0,1-2.88,2.88,5.82,5.82,0,0,1-2.2.4,6,6,0,0,1-2.21-.4A5,5,0,0,1,165,147a5.28,5.28,0,0,1-1.13-1.74A5.8,5.8,0,0,1,163.51,143.08Zm1.35,0a4.77,4.77,0,0,0,.28,1.65,4,4,0,0,0,.82,1.36,4.1,4.1,0,0,0,1.31.91,4.5,4.5,0,0,0,3.43,0,4.1,4.1,0,0,0,1.31-.91,4,4,0,0,0,.82-1.36,5,5,0,0,0,0-3.31,4,4,0,0,0-.82-1.36,4.1,4.1,0,0,0-1.31-.91,4.5,4.5,0,0,0-3.43,0,4.1,4.1,0,0,0-1.31.91,4,4,0,0,0-.82,1.36A4.78,4.78,0,0,0,164.86,143.08Z"/><path class="cls-2" d="M177,140.8c0-.2,0-.43,0-.71l0-.85c0-.28,0-.55,0-.8s0-.44,0-.57h1.36c0,.39,0,.76,0,1.12a3.62,3.62,0,0,0,.06.7h.06a3.65,3.65,0,0,1,1.36-1.47,3.87,3.87,0,0,1,2.21-.62,4.37,4.37,0,0,1,2,.38,3.16,3.16,0,0,1,1.21,1,4,4,0,0,1,.61,1.43,8.45,8.45,0,0,1,.17,1.67v6.2h-1.36v-6.13a6.25,6.25,0,0,0-.11-1.23,3.58,3.58,0,0,0-.39-1.07,2.14,2.14,0,0,0-.79-.76,2.81,2.81,0,0,0-1.32-.28,3.88,3.88,0,0,0-1.41.26,3.08,3.08,0,0,0-1.15.79,3.76,3.76,0,0,0-.77,1.33,5.66,5.66,0,0,0-.28,1.89v5.2H177Z"/><path class="cls-2" d="M194.78,131.24h1.36v17h-1.36Z"/><path class="cls-2" d="M208.74,146.32a4.57,4.57,0,0,1-2,1.72,6.29,6.29,0,0,1-2.56.51,5.51,5.51,0,0,1-2.16-.4A4.77,4.77,0,0,1,200.4,147a4.85,4.85,0,0,1-1.07-1.74,6.31,6.31,0,0,1-.38-2.22,5.84,5.84,0,0,1,.39-2.16,5.06,5.06,0,0,1,1.08-1.73,5.16,5.16,0,0,1,1.65-1.15,5.1,5.1,0,0,1,2.09-.41,5,5,0,0,1,2.11.41,4.58,4.58,0,0,1,2.47,2.67,5.33,5.33,0,0,1,.32,1.79v.94h-8.75a4.34,4.34,0,0,0,.17,1.1,3.82,3.82,0,0,0,.62,1.29,4,4,0,0,0,1.2,1.09,3.8,3.8,0,0,0,1.95.45,4.4,4.4,0,0,0,2-.5,3.62,3.62,0,0,0,1.49-1.35Zm-1-4.12a3,3,0,0,0-.28-1.31,3.42,3.42,0,0,0-.76-1.07,3.72,3.72,0,0,0-1.15-.74,3.76,3.76,0,0,0-1.41-.27,3.46,3.46,0,0,0-1.84.45,3.94,3.94,0,0,0-1.16,1,4,4,0,0,0-.61,1.14,3,3,0,0,0-.18.76Z"/><path class="cls-2" d="M210.18,137.87h1.54l3.47,8.95,3.38-8.95H220l-4.11,10.41h-1.39Z"/><path class="cls-2" d="M230.84,146.32a4.63,4.63,0,0,1-2,1.72,6.33,6.33,0,0,1-2.56.51,5.51,5.51,0,0,1-2.16-.4A4.77,4.77,0,0,1,222.5,147a4.85,4.85,0,0,1-1.07-1.74,6.31,6.31,0,0,1-.38-2.22,5.84,5.84,0,0,1,.39-2.16,5.06,5.06,0,0,1,1.08-1.73,5,5,0,0,1,1.65-1.15,5.1,5.1,0,0,1,2.09-.41,5,5,0,0,1,2.11.41,4.66,4.66,0,0,1,2.47,2.67,5.33,5.33,0,0,1,.32,1.79v.94h-8.75a4.34,4.34,0,0,0,.17,1.1,3.82,3.82,0,0,0,.62,1.29,4,4,0,0,0,1.2,1.09,3.8,3.8,0,0,0,1.95.45,4.4,4.4,0,0,0,2-.5,3.62,3.62,0,0,0,1.49-1.35Zm-1-4.12a3,3,0,0,0-.28-1.31,3.29,3.29,0,0,0-.77-1.07,3.5,3.5,0,0,0-1.15-.74,3.69,3.69,0,0,0-1.41-.27,3.45,3.45,0,0,0-1.83.45,3.94,3.94,0,0,0-1.16,1,4,4,0,0,0-.61,1.14,3,3,0,0,0-.18.76Z"/><path class="cls-2" d="M234,131.24h1.36v17H234Z"/><path class="cls-2" d="M238.73,145.62A3,3,0,0,0,240,146.9a3.72,3.72,0,0,0,1.75.44,2.82,2.82,0,0,0,.86-.14,2.77,2.77,0,0,0,.77-.38,2.24,2.24,0,0,0,.55-.6,1.52,1.52,0,0,0,.21-.8,1.28,1.28,0,0,0-.46-1.08,3.58,3.58,0,0,0-1.14-.57c-.45-.13-.94-.25-1.48-.35a5.64,5.64,0,0,1-1.49-.45,3.19,3.19,0,0,1-1.14-.84,2.28,2.28,0,0,1-.46-1.54,2.7,2.7,0,0,1,.31-1.33,3.06,3.06,0,0,1,.82-.93,3.55,3.55,0,0,1,1.14-.55,4.67,4.67,0,0,1,1.29-.18,4.79,4.79,0,0,1,2.22.47,3.23,3.23,0,0,1,1.45,1.49l-1.21.72a2.87,2.87,0,0,0-1-1.09,3,3,0,0,0-3,.05,2,2,0,0,0-.53.52,1.27,1.27,0,0,0-.21.72,1.2,1.2,0,0,0,.46,1,3.76,3.76,0,0,0,1.14.53,13.26,13.26,0,0,0,1.49.33,5.75,5.75,0,0,1,1.49.44,3,3,0,0,1,1.14.88,2.57,2.57,0,0,1,.46,1.63,3,3,0,0,1-.31,1.41,2.87,2.87,0,0,1-.83,1,3.63,3.63,0,0,1-1.21.61,4.73,4.73,0,0,1-1.42.2,5.9,5.9,0,0,1-2.47-.51,3.72,3.72,0,0,1-1.72-1.61Z"/><line class="cls-3" x1="65.46" y1="117.99" x2="251.5" y2="117.99"/><path class="cls-2" d="M24.6,15.71v3.5L0,30.15V24.8l16.44-7.34L0,10.12V4.77Z"/><path class="cls-2" d="M35.06,35l8.26-12.74-.09-.1a4.55,4.55,0,0,1-1.44.44,10.75,10.75,0,0,1-1.77.15,9.87,9.87,0,0,1-4.18-.88,10.29,10.29,0,0,1-3.29-2.38A11,11,0,0,1,30.41,16a11.92,11.92,0,0,1-.75-4.23,12.45,12.45,0,0,1,.92-4.86,10.79,10.79,0,0,1,2.56-3.72A11,11,0,0,1,37,.83,14.08,14.08,0,0,1,41.91,0a14.79,14.79,0,0,1,4.94.8,11.29,11.29,0,0,1,3.89,2.31,10.42,10.42,0,0,1,2.53,3.7,12.79,12.79,0,0,1,.9,4.91,13,13,0,0,1-.9,4.93A30,30,0,0,1,51,21.15L42.16,35ZM48,11.82a6.11,6.11,0,0,0-.49-2.46,6.25,6.25,0,0,0-5.78-3.82A6.28,6.28,0,0,0,39.31,6a6.18,6.18,0,0,0-2,1.34,6.07,6.07,0,0,0-1.34,2,6.52,6.52,0,0,0,0,4.91,6.07,6.07,0,0,0,1.34,2,6.18,6.18,0,0,0,2,1.34,6.4,6.4,0,0,0,4.91,0,6.17,6.17,0,0,0,3.33-3.33A6.09,6.09,0,0,0,48,11.82Z"/><path class="cls-2" d="M57.28,17.8a31.81,31.81,0,0,1,.66-7A18.81,18.81,0,0,1,59.66,6,11.38,11.38,0,0,1,62.07,2.8,10.17,10.17,0,0,1,64.79,1,10.46,10.46,0,0,1,67.47.19,16.61,16.61,0,0,1,69.73,0,16.87,16.87,0,0,1,72,.19,10.39,10.39,0,0,1,74.66,1a10,10,0,0,1,2.72,1.8A11.19,11.19,0,0,1,79.79,6a19.18,19.18,0,0,1,1.73,4.86,31.86,31.86,0,0,1,.65,7,31.77,31.77,0,0,1-.65,7,19.4,19.4,0,0,1-1.73,4.87,11.49,11.49,0,0,1-2.41,3.16,10.51,10.51,0,0,1-2.72,1.8,10.76,10.76,0,0,1-2.67.8,15.36,15.36,0,0,1-2.26.19,15.15,15.15,0,0,1-2.26-.19,10.83,10.83,0,0,1-2.68-.8,10.68,10.68,0,0,1-2.72-1.8,11.69,11.69,0,0,1-2.41-3.16,19,19,0,0,1-1.72-4.87A31.71,31.71,0,0,1,57.28,17.8Zm5.83,0c0,1.07.08,2.31.22,3.72a17.47,17.47,0,0,0,.9,4,8.65,8.65,0,0,0,2,3.21,5.33,5.33,0,0,0,7,0,8.63,8.63,0,0,0,2-3.21,17.47,17.47,0,0,0,.9-4,35.55,35.55,0,0,0,.22-3.72,35.55,35.55,0,0,0-.22-3.72,17.35,17.35,0,0,0-.9-4,8.48,8.48,0,0,0-2-3.21,5.3,5.3,0,0,0-7,0,8.5,8.5,0,0,0-2,3.21,17.35,17.35,0,0,0-.9,4C63.19,15.49,63.11,16.73,63.11,17.8Z"/><path class="cls-2" d="M13,78.69a25.86,25.86,0,0,1,1.7-9.52,23.25,23.25,0,0,1,4.54-7.82A20.24,20.24,0,0,1,26,56.14a18.82,18.82,0,0,1,8.3-1.94h3.51A18.77,18.77,0,0,1,46,56.14a20.16,20.16,0,0,1,6.78,5.21,26.13,26.13,0,0,1,4.61,7.82A27.57,27.57,0,0,1,59,78.69,27.23,27.23,0,0,1,57.4,88.2,26.13,26.13,0,0,1,52.79,96,20.16,20.16,0,0,1,46,101.23a18.77,18.77,0,0,1-8.25,1.94H34.25a18.82,18.82,0,0,1-8.3-1.94A20.24,20.24,0,0,1,19.28,96a23.16,23.16,0,0,1-4.54-7.82A25.84,25.84,0,0,1,13,78.69Zm6.6,0A37,37,0,0,0,20.77,88a25.21,25.21,0,0,0,3.36,7.76,11.69,11.69,0,0,0,.94,1.39,12.74,12.74,0,0,0,1.06,1.21,15.5,15.5,0,0,0,3.67,2.82,28.71,28.71,0,0,0,2.87,1.36l1.16.25a6.44,6.44,0,0,0,1.27.12h1.82a5.7,5.7,0,0,0,1.21-.12c.36-.08.77-.17,1.21-.25.69-.28,1.63-.73,2.82-1.36a17,17,0,0,0,3.73-2.82c.32-.36.65-.77,1-1.21s.67-.91,1-1.39A26.25,26.25,0,0,0,51.28,88a38,38,0,0,0,0-18.55,26.08,26.08,0,0,0-3.39-7.75c-.33-.49-.66-.95-1-1.4s-.68-.85-1-1.21a17,17,0,0,0-3.73-2.82C41,55.61,40,55.15,39.34,54.87l-1.21-.21a7.55,7.55,0,0,0-1.21-.09H35.1a10.1,10.1,0,0,0-2.43.3,31.17,31.17,0,0,0-2.87,1.36,15.5,15.5,0,0,0-3.67,2.82,12.74,12.74,0,0,0-1.06,1.21,11.8,11.8,0,0,0-.94,1.4,25,25,0,0,0-3.36,7.75A37,37,0,0,0,19.64,78.69Z"/><path class="cls-2" d="M62,103.35v-.42a22.86,22.86,0,0,0,3.48-.22,4.74,4.74,0,0,0,2.27-.87A3.68,3.68,0,0,0,69,100a10.71,10.71,0,0,0,.36-3.09V61.23c0-2.22-.39-3.75-1.18-4.57S66,55.35,64,55.23H62v-.36H85a24.42,24.42,0,0,1,7,.91,13.78,13.78,0,0,1,4.84,2.6,10.14,10.14,0,0,1,2.76,3.79,12.31,12.31,0,0,1,.94,4.88,10.88,10.88,0,0,1-3.7,8.67,13,13,0,0,1-4.84,2.6,22.31,22.31,0,0,1-7,1H75.82V97a11.88,11.88,0,0,0,.28,2.79,3.75,3.75,0,0,0,.91,1.75,3.83,3.83,0,0,0,1.69,1,9.71,9.71,0,0,0,2.58.4h1.88l-.06.06v.36H62ZM75.82,78.93h8.73a8.79,8.79,0,0,0,5.15-1.52,8.92,8.92,0,0,0,1.37-1.24,8.7,8.7,0,0,0,1.24-1.79,13.12,13.12,0,0,0,1.21-3.3,18.2,18.2,0,0,0,.42-4,14.1,14.1,0,0,0-2.24-8.36,8.25,8.25,0,0,0-7.15-3.46H80.67a5.69,5.69,0,0,0-3.78,1.52c-.71.81-1.07,2.28-1.07,4.42V78.93Z"/><path class="cls-2" d="M145,67.41v-.12c-.32-1.25-.68-2.55-1.09-3.91a13.66,13.66,0,0,0-1.79-3.78,9.59,9.59,0,0,0-3.21-3,12,12,0,0,0-5.3-1.46h-.54a5.35,5.35,0,0,0-3.73,1.49c-.71.82-1.06,2.29-1.06,4.39V96.87a11.87,11.87,0,0,0,.27,2.75,3.75,3.75,0,0,0,.91,1.79,3.81,3.81,0,0,0,1.67,1,9.59,9.59,0,0,0,2.54.4h1.88v.42H114.49v-.42a22.86,22.86,0,0,0,3.48-.22,4.53,4.53,0,0,0,2.25-.88,3.68,3.68,0,0,0,1.18-1.81,10.71,10.71,0,0,0,.36-3.09V61.11a12,12,0,0,0-.27-2.79,3.84,3.84,0,0,0-.91-1.75,3.59,3.59,0,0,0-1.67-1,12,12,0,0,0-2.54-.43H116a11.75,11.75,0,0,0-5.27,1.46,10.2,10.2,0,0,0-3.21,3,13.19,13.19,0,0,0-1.82,3.78c-.4,1.36-.75,2.66-1,3.91v.12h-.42V54.69h41.21V67.41Z"/><path class="cls-2" d="M154,102.71a4.74,4.74,0,0,0,2.27-.87,3.68,3.68,0,0,0,1.22-1.82,10.71,10.71,0,0,0,.36-3.09V61.23c0-2.22-.39-3.75-1.18-4.57s-2.19-1.31-4.21-1.43h-1.94v-.36h21.09v.3h0v.06h-2.43a5.71,5.71,0,0,0-3.78,1.52c-.71.81-1.06,2.28-1.06,4.42V97a12,12,0,0,0,.27,2.79,3.75,3.75,0,0,0,.91,1.75,3.83,3.83,0,0,0,1.69,1,9.71,9.71,0,0,0,2.58.4h1.88v.42H150.49v-.42A22.86,22.86,0,0,0,154,102.71Z"/><path class="cls-2" d="M175.52,78.69a26.07,26.07,0,0,1,1.69-9.52,23.45,23.45,0,0,1,4.55-7.82,20.31,20.31,0,0,1,6.66-5.21,18.89,18.89,0,0,1,8.31-1.94h3.51a18.69,18.69,0,0,1,8.24,1.94,20.1,20.1,0,0,1,6.79,5.21,26.13,26.13,0,0,1,4.61,7.82,27.56,27.56,0,0,1,1.63,9.52,27.22,27.22,0,0,1-1.63,9.51A26.13,26.13,0,0,1,215.27,96a20.1,20.1,0,0,1-6.79,5.21,18.69,18.69,0,0,1-8.24,1.94h-3.51a18.89,18.89,0,0,1-8.31-1.94A20.31,20.31,0,0,1,181.76,96a23.35,23.35,0,0,1-4.55-7.82A26,26,0,0,1,175.52,78.69Zm6.6,0A37,37,0,0,0,183.24,88a25.46,25.46,0,0,0,3.37,7.76,11.69,11.69,0,0,0,.94,1.39,11.47,11.47,0,0,0,1.06,1.21,15.67,15.67,0,0,0,3.66,2.82,27.69,27.69,0,0,0,2.88,1.36l1.15.25a6.62,6.62,0,0,0,1.28.12h1.81a5.73,5.73,0,0,0,1.22-.12c.36-.08.76-.17,1.21-.25.68-.28,1.62-.73,2.82-1.36a16.74,16.74,0,0,0,3.72-2.82c.33-.36.66-.77,1-1.21s.68-.91,1-1.39a26,26,0,0,0,3.4-7.76,38,38,0,0,0,0-18.55,25.84,25.84,0,0,0-3.4-7.75c-.32-.49-.65-.95-1-1.4s-.67-.85-1-1.21a16.74,16.74,0,0,0-3.72-2.82c-1.2-.62-2.14-1.08-2.82-1.36l-1.21-.21a7.59,7.59,0,0,0-1.22-.09h-1.81a10.1,10.1,0,0,0-2.43.3,30,30,0,0,0-2.88,1.36,15.67,15.67,0,0,0-3.66,2.82,11.47,11.47,0,0,0-1.06,1.21,11.8,11.8,0,0,0-.94,1.4,25.3,25.3,0,0,0-3.37,7.75A37,37,0,0,0,182.12,78.69Z"/><path class="cls-2" d="M279.09,54.87v.42h-.91a15.41,15.41,0,0,0-2.58.28,10.89,10.89,0,0,0-3.12,1,7.47,7.47,0,0,0-2.63,2.21,6.17,6.17,0,0,0-1.12,3.88v40.66h-.49L232.6,58.75V95.47a6.28,6.28,0,0,0,1.13,3.94,7.47,7.47,0,0,0,2.63,2.21,10.89,10.89,0,0,0,3.12,1,15.41,15.41,0,0,0,2.58.28H243v.42H221.76v-.42h.91a15.42,15.42,0,0,0,2.57-.28,10.89,10.89,0,0,0,3.12-1A7.59,7.59,0,0,0,231,99.41a6.27,6.27,0,0,0,1.12-3.94V61q0-1.45-.06-2.52a3.44,3.44,0,0,0-.55-1.78,2.72,2.72,0,0,0-1.6-1.06,11.69,11.69,0,0,0-3.24-.34h-1.88v-.42h13l30.48,37.88V62.69a6.17,6.17,0,0,0-1.12-3.88,7.59,7.59,0,0,0-2.64-2.21,10.89,10.89,0,0,0-3.12-1,15.42,15.42,0,0,0-2.57-.28h-.91v-.42h21.21Z"/><path class="cls-2" d="M283.81,88h.49a14.9,14.9,0,0,0,.3,2.82,22.22,22.22,0,0,0,.85,3.09,18.6,18.6,0,0,0,1.33,2.94,8.79,8.79,0,0,0,1.76,2.24,14.4,14.4,0,0,0,4.37,2.63,14.7,14.7,0,0,0,5.15,1h.54a16.49,16.49,0,0,0,5.15-1,9.76,9.76,0,0,0,4.12-3.45,9,9,0,0,0,1.61-4.82,9.42,9.42,0,0,0-1.42-5.15,12,12,0,0,0-5-4.39l-7.64-3.94a22.25,22.25,0,0,1-6.06-4.28,14.4,14.4,0,0,1-3.18-4.78,10.54,10.54,0,0,1-.7-4.88A11.32,11.32,0,0,1,287,61.41a13,13,0,0,1,3.24-3.75,16.63,16.63,0,0,1,4.63-2.61,11,11,0,0,1,2.43-.67,16.83,16.83,0,0,1,2.48-.18,14.67,14.67,0,0,1,5.46,1c.64.24,1.33.49,2.06.73a8.4,8.4,0,0,0,2.18.42,4.49,4.49,0,0,0,2.06-.36,3.85,3.85,0,0,0,1.7-1.64h.42V67.53h-.48a9.55,9.55,0,0,0-.4-2.66,14.15,14.15,0,0,0-1.06-2.7,16.43,16.43,0,0,0-1.51-2.42,14.24,14.24,0,0,0-1.7-1.91,12.23,12.23,0,0,0-4-2.4,13.79,13.79,0,0,0-4.73-.81,15,15,0,0,0-2.09.15,13.31,13.31,0,0,0-2,.45,8.74,8.74,0,0,0-4.33,2.91A6.21,6.21,0,0,0,290,62.75a10.78,10.78,0,0,0,2.69,5.54,27,27,0,0,0,7.58,5.85l7,3.58a17.49,17.49,0,0,1,5.27,4.15,12.79,12.79,0,0,1,2.67,5,10.93,10.93,0,0,1,.06,5.21,11.22,11.22,0,0,1-2.52,4.82,16.47,16.47,0,0,1-5.06,3.82,23.86,23.86,0,0,1-7.57,2.21h.12l-.88.09c-.26,0-.54,0-.82,0h-.6a13.91,13.91,0,0,1-5.28-1v0a4.66,4.66,0,0,1-.6-.24,11,11,0,0,0-4-.94,5.18,5.18,0,0,0-2.34.48,2.57,2.57,0,0,0-1.12,1.09c-.2.43-.32.7-.36.82v.06h-.43Z"/><path class="cls-1" d="M38.1,40.84a5.47,5.47,0,0,0-2,1.62,7.14,7.14,0,0,0-.85,1.08A2.24,2.24,0,0,0,34.85,45a2.38,2.38,0,0,0,.74,1.32l1.09,1,1,1.05a11,11,0,0,1,.91,1c1.13-.81,2.2-1.66,3.21-2.54a31.58,31.58,0,0,1,3.28-2.47,26.66,26.66,0,0,1,2.54-1.69q1.38-.81,2.88-1.56l.94-.47a.92.92,0,0,1,1,.07.72.72,0,0,1-.07.54.75.75,0,0,1-.41.3l-.54.21a.78.78,0,0,0-.4.3,18.34,18.34,0,0,0-2.74,1.52c-.84.57-1.68,1.12-2.54,1.66-2.16,1.62-4.26,3.32-6.29,5.08a22.13,22.13,0,0,1,1.66,3.17,10,10,0,0,1,.71,3.86,11.23,11.23,0,0,1-.68,4.33,12.4,12.4,0,0,1-2,3.52,15.15,15.15,0,0,1-2.91,2.57A6.41,6.41,0,0,1,32.35,69a4.88,4.88,0,0,1-1.56-.34A6.1,6.1,0,0,1,29.64,68a6.78,6.78,0,0,1-1.08-1.55,5,5,0,0,1-.47-2A7.42,7.42,0,0,1,29,60.12a23.72,23.72,0,0,1,2.24-3.39,28.25,28.25,0,0,1,2.67-2.94c.92-.88,1.84-1.7,2.74-2.47a8.58,8.58,0,0,0-1.08-1.25c-.41-.38-.81-.78-1.22-1.18a12.32,12.32,0,0,1-1.12-1.29,5.15,5.15,0,0,1-.77-1.49,3.47,3.47,0,0,1,0-2.74,11,11,0,0,1,1.32-2.2,18,18,0,0,1,1.32-1.31,5.87,5.87,0,0,1,1.52-1,7.22,7.22,0,0,1,1-.2,2,2,0,0,1,1,.14,1.44,1.44,0,0,0,.37.37,1.06,1.06,0,0,1,.37.51,2.19,2.19,0,0,1,0,1.28q-.18.75-.51.75t-.54-.27A1.61,1.61,0,0,0,38.1,40.84Zm-.88,11.7a29.37,29.37,0,0,0-2.3,2.1,28.68,28.68,0,0,0-2.23,2.5c-.41.5-.83,1-1.26,1.66a10.85,10.85,0,0,0-1.08,2,10.28,10.28,0,0,0-.61,2.27A5.59,5.59,0,0,0,30,65.53a4.77,4.77,0,0,0,.88.91,2,2,0,0,0,1.28.37,4.66,4.66,0,0,0,2.74-1A12,12,0,0,0,37,63.63a8.87,8.87,0,0,0,1.31-2.57,11.27,11.27,0,0,0,.61-3,9.58,9.58,0,0,0-.27-3,7.16,7.16,0,0,0-1.25-2.64s0-.06-.07-.06S37.22,52.5,37.22,52.54ZM30.05,69.38c0,.05,0,0,.13-.06S30.14,69.38,30.05,69.38Z"/><path class="cls-1" d="M52.78,54.37c.81-2.48,1.66-4.9,2.53-7.24a60.78,60.78,0,0,1,3-6.77,16.83,16.83,0,0,0,1.21-2.09,2.41,2.41,0,0,1,1.76-1.43,1.44,1.44,0,0,1,1.52.44,4.24,4.24,0,0,1,.75,1.7,11.25,11.25,0,0,1,.27,2.23c0,.79.06,1.48.1,2.06,0,1.31.11,2.63.2,4a5.73,5.73,0,0,0,1,3.08A6.76,6.76,0,0,0,67.53,48a28.08,28.08,0,0,1,2-2.78c.49-.63,1-1.29,1.49-2s1-1.37,1.55-2l.68-.51a.56.56,0,0,1,.81.11.58.58,0,0,1-.17.84,1.52,1.52,0,0,0-.57.64,4.26,4.26,0,0,0-.58.72c-.16.24-.33.48-.51.71-.76,1-1.52,2.07-2.26,3.24a34.33,34.33,0,0,1-2.4,3.32,11.21,11.21,0,0,1-1.15,1.11,2,2,0,0,1-1.63.44,1.71,1.71,0,0,1-.81-.4,2.88,2.88,0,0,1-.61-.68,6.78,6.78,0,0,1-.81-2.54c-.13-1-.23-2.08-.27-3.21s-.09-2.24-.14-3.35a11.17,11.17,0,0,0-.47-2.94A6.92,6.92,0,0,0,59.92,41c-.43.9-.85,1.85-1.26,2.84Q57.18,47.47,56,51.29t-2.2,8c-.13.5-.29,1-.47,1.53a1.82,1.82,0,0,1-1,1.11,1.31,1.31,0,0,1-.85-.1,4.38,4.38,0,0,1-.58-.37,4.79,4.79,0,0,1-.54-2.4c0-1,0-1.88-.06-2.74a64.63,64.63,0,0,1,.2-7.82c.22-2.68.52-5.37.88-8.08a65,65,0,0,1,1.45-7.2q.91-3.49,1.93-6.94c.09-.31.19-.69.3-1.12s.25-.85.41-1.28A3.93,3.93,0,0,1,56,22.81a1.17,1.17,0,0,1,.81-.51.81.81,0,0,1,.74.2A2.14,2.14,0,0,1,58,23a1.51,1.51,0,0,1,0,1.12,11.56,11.56,0,0,0-.37,1.25c-.22.63-.39,1.2-.51,1.69a8.27,8.27,0,0,0-.17,1.76.38.38,0,0,1-.23.27.46.46,0,0,0-.24.27,91.4,91.4,0,0,0-2.57,11.67A99.89,99.89,0,0,0,52.78,54.37Z"/><path class="cls-1" d="M80.58,39.48q-1.29,1.7-2.5,3.66c-.81,1.31-1.63,2.57-2.44,3.78-.58.86-1.19,1.79-1.82,2.78a14.41,14.41,0,0,1-2.17,2.64,4.54,4.54,0,0,1-1,.84,1.44,1.44,0,0,1-1.28.17,1.83,1.83,0,0,1-1-1.49A21,21,0,0,1,69.72,46a26.83,26.83,0,0,1,2.41-5c.31-.49.66-1,1-1.49a3.81,3.81,0,0,1,1.26-1.08,1.92,1.92,0,0,1,2.26.1A2.42,2.42,0,0,1,77.4,41a3.56,3.56,0,0,0,.78-1.08c.29-.54.61-1.09.95-1.66a12,12,0,0,1,1.08-1.52A1.92,1.92,0,0,1,81.39,36a1.73,1.73,0,0,1,.48.07l.4.14A3.11,3.11,0,0,1,83,37.45q-.14,4.06-.54,7.68t-.61,7.68V54c0,.49,0,1-.07,1.49a6.22,6.22,0,0,1-.24,1.32q-.17.57-.57.57a.76.76,0,0,1-.71-.44,3.35,3.35,0,0,1-.34-1.08,8.2,8.2,0,0,1-.1-1.32,6.26,6.26,0,0,0-.07-1.08,38,38,0,0,1,.14-7.17C80.11,44,80.35,41.69,80.58,39.48Zm-4.87.14s0-.07-.07-.07a2.09,2.09,0,0,0-.37.17,2.09,2.09,0,0,1-.37.17,13.94,13.94,0,0,0-1.69,2.4A27.93,27.93,0,0,0,71.85,45c-.36.95-.71,1.95-1,3a14.71,14.71,0,0,0-.65,3.42,23.55,23.55,0,0,0,3.42-4.37q1.52-2.46,3.08-4.83a2.7,2.7,0,0,1-.34-1.46A1.14,1.14,0,0,0,75.71,39.62Z"/><path class="cls-1" d="M90.05,55.45q1.77-4.2,3.79-8.05a21.28,21.28,0,0,1,5.28-6.56l.64-.27c.2-.09.44-.18.71-.28a2.33,2.33,0,0,1,2,.61,3.75,3.75,0,0,1,.88,1.86,6.36,6.36,0,0,1,0,2.34,9.47,9.47,0,0,1-.65,2.1,18.44,18.44,0,0,0,2.57-1.7c.82-.63,1.67-1.24,2.58-1.82l1.92-1.36,2-1.35a5.65,5.65,0,0,0,.74-.37.66.66,0,0,1,.81.1.62.62,0,0,1-.2.88l-.81.61q-2.84,2-5.48,4t-5.41,4a21.62,21.62,0,0,1-1.63,2.54,19.79,19.79,0,0,1-2,2.27c-.27.22-.6.53-1,.91s-.78.75-1.18,1.08a9.42,9.42,0,0,1-1.32.92,3.43,3.43,0,0,1-1.39.47c-1,.14-1.53-.2-1.62-1a1.63,1.63,0,0,1,.37-1.43c.34-.36.67-.67,1-.94s.69-.68,1-.95.6-.54.92-.81a25.06,25.06,0,0,0,2.16-1.59A23.76,23.76,0,0,1,98.92,50c.31-.5.64-1.07,1-1.73s.64-1.32.91-2l.3-1.08a6.74,6.74,0,0,0,.24-1.22,4,4,0,0,0,0-1.15,1.81,1.81,0,0,0-.51-.95A3.63,3.63,0,0,0,98.44,43a24,24,0,0,0-1.69,1.93,29,29,0,0,0-3.38,5.44A56.42,56.42,0,0,0,90.8,56.6q-.27.67-.51,1.32a8.62,8.62,0,0,0-.37,1.32,13.7,13.7,0,0,0-.21,2.47c0,.88,0,1.74-.06,2.6l-.27,5.14c-.09,1.72-.21,3.45-.34,5.21-.05.41-.08.82-.1,1.25a10,10,0,0,1-.14,1.19,2.64,2.64,0,0,1-.4,1,1.77,1.77,0,0,1-.85.64h-.2a1.13,1.13,0,0,1-1-1.12,17.9,17.9,0,0,1-.1-1.92,31,31,0,0,1,.1-3.89c.11-1.24.26-2.5.44-3.76.09-.58.2-1.17.34-1.76s.24-1.17.33-1.76A28.16,28.16,0,0,0,87.62,61c0-1.19,0-2.33.13-3.42q.27-4.32.51-8.52t.51-8.59V39.38a8.61,8.61,0,0,1,.07-1.18,2.36,2.36,0,0,1,.3-1,.84.84,0,0,1,.78-.41.81.81,0,0,1,.78.51,4.11,4.11,0,0,1,.3,1.22,9.26,9.26,0,0,1,0,1.49c0,.52-.07,1-.07,1.32q-.27,3.51-.5,7.07C90.27,50.81,90.14,53.15,90.05,55.45Z"/><path class="cls-1" d="M112.92,44.35a13.29,13.29,0,0,0-.88,2.47,11.61,11.61,0,0,0-.41,3,5.16,5.16,0,0,0,.61,2.54,2.42,2.42,0,0,0,2.17,1.15,6.77,6.77,0,0,0,3.35-.75c1-.54,2-1.06,2.74-1.55s1.74-1.25,2.53-1.86,1.5-1.21,2.13-1.8a35.63,35.63,0,0,0,3.35-2.91q1.59-1.54,3.15-3.17a1.82,1.82,0,0,0,.44-.55,6.83,6.83,0,0,1,.5-.74,3.53,3.53,0,0,1,.58-.58.54.54,0,0,1,.64,0q.48.21.21.81a4.36,4.36,0,0,1-.48.88,2.47,2.47,0,0,1-.4.75c-.18.22-.37.47-.55.74a48.07,48.07,0,0,1-3.55,3.72c-1.24,1.17-2.51,2.35-3.82,3.52A27.8,27.8,0,0,1,119.55,54a15.88,15.88,0,0,1-1.69.78,10.16,10.16,0,0,1-2,.54,9.52,9.52,0,0,1-2.07.1,4.22,4.22,0,0,1-1.93-.61,3.32,3.32,0,0,1-.71-.64c-.2-.25-.41-.51-.64-.78a6.49,6.49,0,0,1-.84-2.88,12.93,12.93,0,0,1,.2-3.21,19.47,19.47,0,0,1,.84-3.11,20.77,20.77,0,0,1,1.09-2.5,28,28,0,0,1,2.7-4,8,8,0,0,1,4.13-2.57,3.31,3.31,0,0,1,2.27.61,2.34,2.34,0,0,1,.71,2.17,4.42,4.42,0,0,1-.82,2,13.34,13.34,0,0,1-1.42,1.69,15.23,15.23,0,0,1-2.67,2.13A5.53,5.53,0,0,1,112.92,44.35Zm6.29-7.23a7,7,0,0,0-3.59,2.46,26,26,0,0,0-2.3,3.76,4.24,4.24,0,0,0,2.51-.68,17.88,17.88,0,0,0,1.76-1.42c.49-.54,1-1.08,1.55-1.62a2.94,2.94,0,0,0,.75-2.3A.73.73,0,0,0,119.21,37.12Z"/><path class="cls-1" d="M142.55,20.88a.88.88,0,0,1,.68.68,3.22,3.22,0,0,1,0,1.25,13.37,13.37,0,0,1-.3,1.45,8.75,8.75,0,0,0-.27,1.22q-.56,3-1.05,6.26c-.34,2.18-.6,4.42-.78,6.69s-.26,4.58-.24,6.9a44.64,44.64,0,0,0,.58,6.87,13.6,13.6,0,0,0,.4,2,5.19,5.19,0,0,0,.81,1.69,4.33,4.33,0,0,0,1.83-1.55c.45-.68.92-1.33,1.42-2a49.34,49.34,0,0,0,3.08-5.42,57.47,57.47,0,0,1,3-5.41,6.84,6.84,0,0,0,.64-1.08.9.9,0,0,1,1-.54.81.81,0,0,1,.14,1.08,11.27,11.27,0,0,1-.61,1.08c-.5,1.09-1,2.18-1.62,3.28s-1.15,2.18-1.69,3.22c-.77,1.44-1.53,2.9-2.27,4.36a17.6,17.6,0,0,1-2.67,3.89,8.65,8.65,0,0,0-1,.75,1.89,1.89,0,0,1-1.28.4,2.12,2.12,0,0,1-1.29-.57,4.33,4.33,0,0,1-.88-1.19,7.67,7.67,0,0,1-.54-1.49c-.13-.54-.25-1.05-.34-1.55a33.81,33.81,0,0,1-.54-4.5c-.09-1.6-.12-3.2-.1-4.8s.1-3.18.24-4.74.29-3,.47-4.36c-.41.94-.8,1.92-1.18,2.91s-.78,2-1.19,3a2.69,2.69,0,0,1,.24.48c.07.18.14.38.24.61a10.23,10.23,0,0,1,.2,1.08,1.65,1.65,0,0,1-.14,1,.63.63,0,0,1-.77-.24,2.53,2.53,0,0,0-.58-.64q-.94,2.43-1.86,5.1a34.69,34.69,0,0,1-2.13,5,13.62,13.62,0,0,1-.95,1.48,1.8,1.8,0,0,1-1.55.75,1.15,1.15,0,0,1-.61-.27,5.11,5.11,0,0,0-.48-.41,5.23,5.23,0,0,1-.47-2.87,25.13,25.13,0,0,1,.47-3.28,37.29,37.29,0,0,1,1.09-3.79,12.31,12.31,0,0,1,1.75-3.32,6.5,6.5,0,0,1,1.63-1.69,2.63,2.63,0,0,1,2.5-.27c1-2.34,2-5,3-7.81s1.85-5.68,2.7-8.43q.27-.73.48-1.38A1,1,0,0,1,142.55,20.88Zm-8,20.5a2.42,2.42,0,0,0-1.12.81,7.69,7.69,0,0,0-.85,1.22A18.24,18.24,0,0,0,131,47.53a27.49,27.49,0,0,0-.81,4.67,26.87,26.87,0,0,0,2.23-4.6l1.83-4.87c.09-.23.19-.45.3-.68a.94.94,0,0,0,.1-.67Z"/><path class="cls-1" d="M168.19,40.43a1,1,0,0,1,.24.74,8.26,8.26,0,0,0,0,.88c0,.77-.06,1.61,0,2.51s0,1.78,0,2.64,0,1.69,0,2.5a3,3,0,0,1-.71,2h-.54a2.11,2.11,0,0,1-.51-1,11.25,11.25,0,0,1-.24-1.52c0-1-.05-2,0-3.11a30.11,30.11,0,0,1,.23-3.18c.05-.27.1-.59.14-.95a3.57,3.57,0,0,1,.24-1,1.09,1.09,0,0,1,.47-.57A.79.79,0,0,1,168.19,40.43Zm.34-13.12a1.51,1.51,0,0,1-.55,1.08.72.72,0,0,1-.77-.14,1.06,1.06,0,0,1-.27-.64.78.78,0,0,1,.2-.64.86.86,0,0,1,.78-.21C168.28,27,168.48,27.13,168.53,27.31Z"/><path class="cls-1" d="M185.51,51.19a4.58,4.58,0,0,0,1.11-1.29c.3-.49.6-1,.92-1.49s.61-1,.91-1.49.57-1,.84-1.48a15.35,15.35,0,0,0,1-1.36c.32-.49.66-1,1-1.49.22-.31.45-.64.67-1a4.72,4.72,0,0,1,.78-.88,2,2,0,0,1,2.2-.3,3,3,0,0,1,.78,1.66,17,17,0,0,1,.2,2.2c0,.76.06,1.53.1,2.3a5,5,0,0,0,.48,2,3.82,3.82,0,0,0,1.38-1.19c.38-.51.76-1,1.12-1.52s.71-1.09,1.05-1.66a10.12,10.12,0,0,0,.84-1.72,4.48,4.48,0,0,0,.58-1.18.88.88,0,0,1,1.11-.58,1.14,1.14,0,0,1-.06,1.25A3.1,3.1,0,0,0,202,43.2c-.22.41-.43.8-.61,1.19s-.36.78-.54,1.18a13.22,13.22,0,0,0-1.35,2,6.82,6.82,0,0,1-1.56,2,2.26,2.26,0,0,1-.84.54,2.23,2.23,0,0,1-1.25.07,2.41,2.41,0,0,1-1.26-1.25,7.2,7.2,0,0,1-.5-2,19.75,19.75,0,0,1-.14-2.37,12.26,12.26,0,0,0-.2-2.33,1.19,1.19,0,0,0-.57.5,7.55,7.55,0,0,1-.51.71c-.5.68-1,1.4-1.46,2.17s-.91,1.53-1.32,2.3a22.11,22.11,0,0,0-1.79,3,5.67,5.67,0,0,1-2.33,2.47,3.43,3.43,0,0,0-.48,0,1.5,1.5,0,0,1-.54,0,4.23,4.23,0,0,1-.67-.34,6,6,0,0,1-.92-3.08c-.07-1.24-.1-2.51-.1-3.82s0-2.61-.07-3.92-.11-2.55-.2-3.72a37.33,37.33,0,0,0-2.5,5.81c-.73,2.12-1.42,4.33-2.1,6.63q-.67,2.45-1.25,5c-.39,1.71-.8,3.47-1.25,5.28l-.27,1.21a5.26,5.26,0,0,1-.38,1.12,2.36,2.36,0,0,1-.64.85,2,2,0,0,1-1.08.4,1.38,1.38,0,0,1-1.22-1,10.89,10.89,0,0,1-.4-1.79,32.49,32.49,0,0,1,0-5.92c.18-2.1.38-4.09.6-6s.5-3.8.82-5.71.67-3.76,1.08-5.52c.13-.54.28-1.1.44-1.69a1.31,1.31,0,0,1,1.18-1,1,1,0,0,1,.78.13,1.41,1.41,0,0,1,.37.54,3.26,3.26,0,0,1-.07,1.49,3.41,3.41,0,0,0-.06,1.49,4.39,4.39,0,0,0,.27,1.15,1.9,1.9,0,0,1,.07,1.08.47.47,0,0,1-.44.27.69.69,0,0,1-.51-.2q-.54,3.45-1,6.83c-.31,2.26-.54,4.65-.67,7.17Q175.69,52.28,177,48t2.84-8.12q.21-.48.54-1.32a8.67,8.67,0,0,1,.85-1.59,3.93,3.93,0,0,1,1.15-1.15,1.4,1.4,0,0,1,1.45,0,1.8,1.8,0,0,1,.92,1.08,8.46,8.46,0,0,1,.44,1.83,16.25,16.25,0,0,1,.13,2.13c0,.74,0,1.41.07,2a34.1,34.1,0,0,1,0,4.29A20,20,0,0,0,185.51,51.19Z"/><path class="cls-1" d="M202.62,55.45c1.17-2.8,2.44-5.48,3.79-8.05a21.28,21.28,0,0,1,5.28-6.56l.64-.27c.2-.09.44-.18.71-.28a2.33,2.33,0,0,1,2,.61,3.75,3.75,0,0,1,.88,1.86,6.37,6.37,0,0,1,0,2.34,9,9,0,0,1-.64,2.1,19,19,0,0,0,2.57-1.7c.81-.63,1.67-1.24,2.57-1.82l1.93-1.36c.65-.45,1.32-.9,2-1.35a5.65,5.65,0,0,0,.74-.37.66.66,0,0,1,.81.1.62.62,0,0,1-.2.88c-.32.23-.59.43-.81.61-1.9,1.31-3.72,2.63-5.48,4s-3.56,2.65-5.41,4a21.62,21.62,0,0,1-1.63,2.54,19.79,19.79,0,0,1-2,2.27c-.27.22-.6.53-1,.91s-.78.75-1.18,1.08a9.42,9.42,0,0,1-1.32.92,3.48,3.48,0,0,1-1.39.47c-1,.14-1.53-.2-1.62-1a1.63,1.63,0,0,1,.37-1.43,12,12,0,0,1,1-.94c.36-.36.69-.68,1-.95s.6-.54.91-.81a23.76,23.76,0,0,0,2.17-1.59A25.06,25.06,0,0,1,211.48,50a18.74,18.74,0,0,0,1-1.73c.34-.65.65-1.32.92-2l.3-1.08a9.06,9.06,0,0,0,.24-1.22,4.37,4.37,0,0,0,0-1.15,1.81,1.81,0,0,0-.51-.95A3.63,3.63,0,0,0,211,43a22.22,22.22,0,0,0-1.69,1.93,29,29,0,0,0-3.38,5.44,56.42,56.42,0,0,0-2.57,6.26q-.27.67-.51,1.32a8.62,8.62,0,0,0-.37,1.32,13.7,13.7,0,0,0-.21,2.47c0,.88,0,1.74-.06,2.6-.1,1.71-.19,3.43-.28,5.14s-.2,3.45-.33,5.21c-.05.41-.08.82-.1,1.25a10,10,0,0,1-.14,1.19,2.5,2.5,0,0,1-.41,1,1.7,1.7,0,0,1-.84.64h-.2a1.12,1.12,0,0,1-1-1.12,17.9,17.9,0,0,1-.1-1.92,29.19,29.19,0,0,1,.1-3.89c.11-1.24.26-2.5.44-3.76.09-.58.2-1.17.34-1.76s.24-1.17.33-1.76a28.16,28.16,0,0,0,.21-3.48c0-1.19,0-2.33.13-3.42q.27-4.32.51-8.52t.51-8.59V39.38a10.68,10.68,0,0,1,.06-1.18,2.53,2.53,0,0,1,.31-1,.83.83,0,0,1,.78-.41.79.79,0,0,1,.77.51,3.82,3.82,0,0,1,.31,1.22,9.26,9.26,0,0,1,0,1.49c0,.52-.07,1-.07,1.32q-.27,3.51-.51,7.07C202.83,50.81,202.71,53.15,202.62,55.45Z"/><path class="cls-1" d="M228.13,13.37l.06-.07a1.1,1.1,0,0,1,1.22.88,7,7,0,0,1,.2,1.62,30.45,30.45,0,0,1-.23,5.52c-.25,1.78-.47,3.53-.65,5.24-.22,2.35-.45,4.73-.67,7.14s-.43,4.84-.61,7.27q-.4,6.44-.88,12.82a119.85,119.85,0,0,0-.2,13.5,8.61,8.61,0,0,0,.06.94,7.82,7.82,0,0,1,.07,1,2.92,2.92,0,0,1-.13.92.53.53,0,0,1-.54.4,1,1,0,0,1-1.19-.81,10.3,10.3,0,0,1-.3-1.76c-.09-.72-.15-1.42-.17-2.1s-.06-1.28-.1-1.82c0-1.36,0-2.7,0-4s0-2.6,0-3.82q.06-9.81.81-18.64t1.89-17.69l.41-3.45a14.8,14.8,0,0,0,.17-1.66,2.25,2.25,0,0,1,.57-1.45Z"/><path class="cls-1" d="M241.79,39.48q-1.29,1.7-2.5,3.66c-.81,1.31-1.63,2.57-2.44,3.78-.58.86-1.19,1.79-1.82,2.78a14.41,14.41,0,0,1-2.17,2.64,4.54,4.54,0,0,1-1,.84,1.44,1.44,0,0,1-1.28.17,1.83,1.83,0,0,1-.95-1.49A21,21,0,0,1,230.93,46a26.83,26.83,0,0,1,2.41-5c.31-.49.66-1,1-1.49a3.81,3.81,0,0,1,1.26-1.08,1.92,1.92,0,0,1,2.26.1,2.42,2.42,0,0,1,.71,2.47,3.56,3.56,0,0,0,.78-1.08c.29-.54.61-1.09,1-1.66a12,12,0,0,1,1.08-1.52A1.92,1.92,0,0,1,242.6,36a1.73,1.73,0,0,1,.48.07l.4.14a3.11,3.11,0,0,1,.68,1.28q-.14,4.06-.54,7.68T243,52.81V54c0,.49,0,1-.07,1.49a6.22,6.22,0,0,1-.24,1.32q-.16.57-.57.57a.76.76,0,0,1-.71-.44,3.35,3.35,0,0,1-.34-1.08,8.2,8.2,0,0,1-.1-1.32,6.26,6.26,0,0,0-.07-1.08,38,38,0,0,1,.14-7.17C241.32,44,241.56,41.69,241.79,39.48Zm-4.87.14s0-.07-.07-.07a2.09,2.09,0,0,0-.37.17,2.09,2.09,0,0,1-.37.17,13.94,13.94,0,0,0-1.69,2.4A27.93,27.93,0,0,0,233.06,45c-.36.95-.71,1.95-1,3a14.71,14.71,0,0,0-.65,3.42,23.55,23.55,0,0,0,3.42-4.37q1.52-2.46,3.08-4.83a2.7,2.7,0,0,1-.34-1.46A1.14,1.14,0,0,0,236.92,39.62Z"/><path class="cls-1" d="M251,50.85c.9-1.72,1.8-3.46,2.71-5.24a24.4,24.4,0,0,1,3.18-4.84c.18-.23.4-.5.67-.81a5.19,5.19,0,0,1,.88-.82,3.11,3.11,0,0,1,1.05-.47,2.07,2.07,0,0,1,1.25.14,3,3,0,0,1,1.49,2.09c.32,1.09.59,2.17.81,3.25.09.5.2,1,.31,1.56s.23,1.08.37,1.62a11.11,11.11,0,0,0,.54,1.52c.23.52.5.83.81.92a1.14,1.14,0,0,0,1-.24,7.65,7.65,0,0,1,.81-.58c.27-.22.52-.41.74-.57a5,5,0,0,0,.68-.58A27.19,27.19,0,0,0,271.15,45,35.18,35.18,0,0,1,274,42.05a9.69,9.69,0,0,1,1.19-.77A1.69,1.69,0,0,1,276,41c.25,0,.39.16.44.47s-.1.5-.44.68a3.28,3.28,0,0,0-.78.54,16.55,16.55,0,0,0-1.89,1.93c-.64.74-1.31,1.5-2,2.26-.36.37-.71.7-1.05,1s-.69.65-1.05,1c-.59.59-1.22,1.17-1.89,1.73a4,4,0,0,1-2.64.85l-.31-.14a1.06,1.06,0,0,0-.37-.07,4.11,4.11,0,0,1-1.66-2.1,20.43,20.43,0,0,1-.84-2.87c-.23-1-.44-2-.65-3a9.27,9.27,0,0,0-1-2.74,4,4,0,0,0-1.75,1.52A23.43,23.43,0,0,1,256.74,44a30.6,30.6,0,0,0-2.3,4.19c-.67,1.49-1.33,3-2,4.6a4,4,0,0,0-.47,1c-.14.43-.3.84-.48,1.25a3.41,3.41,0,0,1-.71,1,1.25,1.25,0,0,1-1.18.3,1.1,1.1,0,0,1-.91-.71,4.13,4.13,0,0,1-.38-1.49,18,18,0,0,1,0-1.82c0-.65.06-1.25.1-1.79q.27-3.26.74-6.33a38.89,38.89,0,0,1,1.29-5.65c.18-.49.34-1,.47-1.35a1,1,0,0,1,.88-.68.78.78,0,0,1,.85.37,2,2,0,0,1,.2,1.05,7.43,7.43,0,0,1-.2,1.32c-.11.48-.19.87-.24,1.19-.31,1.71-.58,3.42-.81,5.14S251.17,49.13,251,50.85Z"/><path class="cls-1" d="M279,32q5.82-.2,12.11-.61a90,90,0,0,1,12.51.07l.75,0a.59.59,0,0,1,.54.38q-.07.54-.51.54a4.52,4.52,0,0,1-.78-.07,121.32,121.32,0,0,0-12.51.1q-6.23.38-12.25.71-.94,5.55-1.72,11.3a82.23,82.23,0,0,0-.71,12c0,.59,0,1.24.06,2a13.81,13.81,0,0,0,.28,2,17.94,17.94,0,0,0,.44,1.83c.2.72.5,1.1.91,1.15a.92.92,0,0,0,.71-.2,7.95,7.95,0,0,0,1.42-1.42l.44-.61a66.77,66.77,0,0,0,4.84-7.21q2.13-3.69,4.49-7.68c.41-.72.84-1.46,1.29-2.23s.95-1.53,1.49-2.3a6.33,6.33,0,0,1,.61-.78.59.59,0,0,1,.67-.23q.54.27.21.84c-.23.39-.41.67-.54.85q-1.69,2.84-3.18,5.75c-1,1.94-2.06,3.85-3.18,5.75-.64,1-1.25,2.08-1.86,3.14s-1.26,2.11-1.93,3.15-1.38,2-2.1,3a7.2,7.2,0,0,1-2.77,2.3,3.77,3.77,0,0,1-1.42,0A4.19,4.19,0,0,1,275,63.13a18.48,18.48,0,0,1-.91-3.83,28.48,28.48,0,0,1-.34-4.49c0-1.56,0-3.08.14-4.57.22-3,.53-5.94.91-8.76s.85-5.52,1.39-8.09c-2.08.1-4.19.25-6.33.48s-4.32.38-6.53.47c-.27,0-.57,0-.91,0a.51.51,0,0,1-.58-.51.48.48,0,0,1,.55-.54,6.34,6.34,0,0,0,.94-.07q3.18-.21,6.5-.54c2.21-.23,4.39-.39,6.56-.48.27-.94.58-2.06.91-3.34a28,28,0,0,1,1.19-3.56,5.6,5.6,0,0,1,.5-1.11,1.09,1.09,0,0,1,.92-.65.7.7,0,0,1,.64.28,1,1,0,0,1,.14.64,5.84,5.84,0,0,1-.14.78c-.07.27-.12.51-.17.74-.22,1-.45,2-.68,3.08S279.22,31.14,279,32Z"/></g></g></svg>