<svg xmlns="http://www.w3.org/2000/svg" viewBox="0 0 134.36 134.36"><defs><style>.cls-1{fill:#ff8300;}.cls-2{fill:#c7c8c9;}</style></defs><g id="Layer_2" data-name="Layer 2"><g id="Layer_1-2" data-name="Layer 1"><path class="cls-1" d="M12.67,106.45a67.41,67.41,0,0,0,15,15.09,67.13,67.13,0,0,0,79,0A67.16,67.16,0,0,0,67.18,0V2.69A64.71,64.71,0,1,1,23.87,19.42a7.2,7.2,0,0,1-1.71-2.09,67.54,67.54,0,0,0-9.33,10.36,67.08,67.08,0,0,0-.16,78.76"/><path class="cls-2" d="M47.25,5.83A64.49,64.49,0,0,1,67.18,2.69V0A66.67,66.67,0,0,0,33.66,9a7.11,7.11,0,0,1,1.47,2.26A63.51,63.51,0,0,1,47.25,5.83"/><path class="cls-1" d="M28.48,18.41A4.49,4.49,0,1,0,24,13.92a4.5,4.5,0,0,0,4.49,4.49"/></g></g></svg>