<svg xmlns="http://www.w3.org/2000/svg" viewBox="0 0 828.25 229.22"><defs><style>.cls-1{fill:#fff;}</style></defs><g id="Layer_2" data-name="Layer 2"><g id="Layer_1-2" data-name="Layer 1"><path class="cls-1" d="M100.79,47.79A3.76,3.76,0,0,1,99.07,47a8,8,0,0,1-1.74-2,26.38,26.38,0,0,1-2-4L79.29.76,79.23.6h-.82L62.21,41.08a11.63,11.63,0,0,1-2.52,4.05,12.4,12.4,0,0,1-2.79,2.09,7,7,0,0,1-2.26.78l-1,.12h-.25V49H69.89v-.92h-.25l-.77,0a11,11,0,0,1-1.67-.23,11.24,11.24,0,0,1-2-.65A4.65,4.65,0,0,1,63.53,46a3.71,3.71,0,0,1-.87-1.91,5.49,5.49,0,0,1,.49-2.9L67.65,30h16.4l4.38,11a16.78,16.78,0,0,1,1.18,4.16A2.17,2.17,0,0,1,89,47.1a3.94,3.94,0,0,1-2.17.75c-1,.1-2.26.19-3.68.27H83V49h20.18v-.89l-.21,0ZM68,29.1,75.88,9.56,83.67,29.1Z"/><path class="cls-1" d="M148.54,7.76a21.45,21.45,0,0,0-7.22-5.22A22.47,22.47,0,0,0,132,.66H106v.86h2.09c1.93.12,3.29.56,4,1.33s1.13,2.24,1.13,4.36V42.55a10.28,10.28,0,0,1-.35,3,3.35,3.35,0,0,1-1.11,1.68,4.5,4.5,0,0,1-2.11.82,22.71,22.71,0,0,1-3.38.21h-.25v.92h26a23.57,23.57,0,0,0,9.28-1.88A21.22,21.22,0,0,0,148.55,42a23.36,23.36,0,0,0,4.63-7.73,27.12,27.12,0,0,0,1.61-9.36,27.37,27.37,0,0,0-1.61-9.39A23.15,23.15,0,0,0,148.54,7.76Zm-25.72,40.1a3.35,3.35,0,0,1-1.52-.92,3.68,3.68,0,0,1-.81-1.63,11.78,11.78,0,0,1-.26-2.7,5.74,5.74,0,0,0,0-.6,4.12,4.12,0,0,1,0-.48V7.15a12.62,12.62,0,0,1,.23-2.59,3.74,3.74,0,0,1,.76-1.63,3.62,3.62,0,0,1,1.37-1,7.93,7.93,0,0,1,2.13-.46h6.65a13.83,13.83,0,0,1,6.3,1.82,17,17,0,0,1,2.81,2.13,18.34,18.34,0,0,1,2.45,2.84,25.26,25.26,0,0,1,3.51,7.49,32.5,32.5,0,0,1,1.25,9.11A31.87,31.87,0,0,1,146.38,34a26.24,26.24,0,0,1-3.51,7.49,18.34,18.34,0,0,1-2.45,2.84,16.45,16.45,0,0,1-2.81,2.12,13.92,13.92,0,0,1-6.83,1.83h-5.45A9.63,9.63,0,0,1,122.82,47.86Z"/><path class="cls-1" d="M201,4.51a12.4,12.4,0,0,1,2.79-2.09,7,7,0,0,1,2.23-.78l1-.12h.25V.6H190.77v.92H191l.77,0a11.15,11.15,0,0,1,1.67.23,12.07,12.07,0,0,1,2,.65,4.6,4.6,0,0,1,1.71,1.2A3.53,3.53,0,0,1,198,5.54a5.88,5.88,0,0,1-.52,2.9l-12.67,31.7L172.23,8.62a14.59,14.59,0,0,1-1.15-4.1,2.35,2.35,0,0,1,.58-2,3.65,3.65,0,0,1,2.16-.77c1-.1,2.29-.19,3.71-.27h.24V.6H157.59v.88l2.31.37a3.64,3.64,0,0,1,1.71.79,8.14,8.14,0,0,1,1.72,2,26.11,26.11,0,0,1,2,4.07L181.43,49h.82L198.51,8.56A11.4,11.4,0,0,1,201,4.51Z"/><path class="cls-1" d="M243.23,47.79a3.76,3.76,0,0,1-1.72-.79,8,8,0,0,1-1.74-2,26.38,26.38,0,0,1-2-4L221.73.76,221.67.6h-.82l-16.2,40.48a11.63,11.63,0,0,1-2.52,4.05,12.21,12.21,0,0,1-2.8,2.09,6.87,6.87,0,0,1-2.25.78l-1,.12h-.24V49h16.52v-.92h-.25l-.77,0a11,11,0,0,1-1.67-.23,11.24,11.24,0,0,1-2-.65A4.57,4.57,0,0,1,206,46a3.71,3.71,0,0,1-.87-1.91,5.49,5.49,0,0,1,.49-2.9L210.09,30h16.4l4.38,11a16.78,16.78,0,0,1,1.18,4.16,2.17,2.17,0,0,1-.57,1.92,4,4,0,0,1-2.18.75c-1,.1-2.25.19-3.68.27h-.23V49h20.18v-.89l-.21,0ZM210.47,29.1l7.85-19.54,7.79,19.54Z"/><path class="cls-1" d="M283.89,1.58H285a15.61,15.61,0,0,1,2.51.27,10.91,10.91,0,0,1,3,1A7.47,7.47,0,0,1,293.09,5a5.93,5.93,0,0,1,1.06,3.69V37.7L264.41.75l-.07-.09H251.13v.92h2.11a11.92,11.92,0,0,1,3.14.32,2.49,2.49,0,0,1,1.45,1,3.31,3.31,0,0,1,.5,1.64c0,.7.06,1.54.06,2.48V41.11a6,6,0,0,1-1.06,3.75A7.35,7.35,0,0,1,254.81,47a10.81,10.81,0,0,1-3,1,15.72,15.72,0,0,1-2.51.27h-1.15v.92h21.5v-.92h-1.15A15.61,15.61,0,0,1,266,48a10.81,10.81,0,0,1-3-1,7.35,7.35,0,0,1-2.52-2.12,6,6,0,0,1-1.06-3.75V5.46L294.2,49.07l.08.09h.85V8.65A5.86,5.86,0,0,1,296.19,5a7.47,7.47,0,0,1,2.52-2.12,10.81,10.81,0,0,1,3-1,15.5,15.5,0,0,1,2.51-.27h1.15V.66h-21.5Z"/><path class="cls-1" d="M343.65,1.46a2.76,2.76,0,0,1-1.27,1.94,4.72,4.72,0,0,1-2.56.56A12.23,12.23,0,0,1,335,2.49l-.83-.43-.77-.34-.1-.1h-.1s0,0-.06-.05L333,1.5h0A15.25,15.25,0,0,0,327,.36a18.44,18.44,0,0,0-8.33,1.94,18.73,18.73,0,0,0-3.62,2.25,27.26,27.26,0,0,0-3.12,3,25.08,25.08,0,0,0-4.61,7.76A27.87,27.87,0,0,0,306.09,20a27.35,27.35,0,0,0-.42,4.65V25h0a27.35,27.35,0,0,0,.42,4.65,27.87,27.87,0,0,0,1.27,4.67A24.91,24.91,0,0,0,312,42.11a21,21,0,0,0,6.74,5.22,18.32,18.32,0,0,0,8.33,2A14.8,14.8,0,0,0,333,48.12a17.22,17.22,0,0,0,5.24-3.41,19.92,19.92,0,0,0,3.95-5.77,28,28,0,0,0,2.37-8.11l0-.25-.91-.13,0,.24a42.36,42.36,0,0,1-.89,4.17,22,22,0,0,1-1.37,3.68,24.61,24.61,0,0,1-1.69,3,12.75,12.75,0,0,1-2.1,2.45,14,14,0,0,1-7.22,4c-.77.15-1.58.27-2.38.35a11.72,11.72,0,0,1-1.44-.09,5.88,5.88,0,0,1-1.36-.32,16.51,16.51,0,0,1-2.36-1.09,15.81,15.81,0,0,1-2.89-2.09,23.08,23.08,0,0,1-5.19-8.37,32.41,32.41,0,0,1-2-11.55,33.8,33.8,0,0,1,1.22-9.2,27.68,27.68,0,0,1,3.3-7.52,16.82,16.82,0,0,1,4.85-5,10.47,10.47,0,0,1,5.84-1.82,14.78,14.78,0,0,1,9.68,4.37,17.9,17.9,0,0,1,2.1,2.51,21.49,21.49,0,0,1,1.75,3,29.65,29.65,0,0,1,1.34,3.69,30.27,30.27,0,0,1,.86,4.16l0,.22h.89v-18h-.88Z"/><path class="cls-1" d="M389.91,34.58a20.57,20.57,0,0,1-2.66,6.88,17.41,17.41,0,0,1-2,2.51,12.64,12.64,0,0,1-2.62,2.15,14.18,14.18,0,0,1-3.45,1.53h0a15,15,0,0,1-4.36.59h-6.65a9.56,9.56,0,0,1-2.46-.38,3.3,3.3,0,0,1-2.38-2.55,11.78,11.78,0,0,1-.26-2.7,6,6,0,0,0-.06-1.08V25.34h8a7.05,7.05,0,0,1,4.08,1,7.37,7.37,0,0,1,2.24,2.41,7.83,7.83,0,0,1,.93,2.64,16.21,16.21,0,0,1,.18,1.71v.43h.92V16.32h-.92v.43a14.65,14.65,0,0,1-.18,1.65,7.91,7.91,0,0,1-.9,2.55,7.69,7.69,0,0,1-2.15,2.41,6.64,6.64,0,0,1-3.9,1.12h-8.33v-23h11A13,13,0,0,1,380,2.66a10.13,10.13,0,0,1,3.52,2.87,12.07,12.07,0,0,1,1.91,3.85c.41,1.42.78,2.81,1.1,4.13v.25h.92V.66H348.87v.86H351c1.93.12,3.27.56,4,1.33s1.1,2.24,1.1,4.36a2.69,2.69,0,0,0,0,.4,1.73,1.73,0,0,1,0,.32V42.55a10.28,10.28,0,0,1-.35,3,3.3,3.3,0,0,1-1.12,1.68,4.45,4.45,0,0,1-2.13.82,23.34,23.34,0,0,1-3.41.21h-.25v.92h40.13l1.8-14.78H390Z"/><path class="cls-1" d="M437.32,7.76a21.45,21.45,0,0,0-7.22-5.22A22.5,22.5,0,0,0,420.82.66H394.77v.86h2.09c1.93.12,3.29.56,4,1.33S402,5.09,402,7.21V42.55a10.28,10.28,0,0,1-.35,3,3.3,3.3,0,0,1-1.12,1.68,4.41,4.41,0,0,1-2.1.82,22.71,22.71,0,0,1-3.38.21h-.25v.92h26a23.57,23.57,0,0,0,9.28-1.88A21.09,21.09,0,0,0,437.32,42,23.28,23.28,0,0,0,442,34.27a27.12,27.12,0,0,0,1.61-9.36A27.37,27.37,0,0,0,442,15.52,23.38,23.38,0,0,0,437.32,7.76Zm-25.73,40.1a3.36,3.36,0,0,1-1.51-.92,3.68,3.68,0,0,1-.81-1.63,11.78,11.78,0,0,1-.26-2.7,5.74,5.74,0,0,0,0-.6,4.12,4.12,0,0,1,0-.48V7.15a12.62,12.62,0,0,1,.23-2.59,3.63,3.63,0,0,1,.76-1.63,3.62,3.62,0,0,1,1.37-1,7.85,7.85,0,0,1,2.13-.46h6.64a13.87,13.87,0,0,1,6.31,1.82,17,17,0,0,1,2.81,2.13,18.9,18.9,0,0,1,2.45,2.84,25.26,25.26,0,0,1,3.51,7.49,32.5,32.5,0,0,1,1.25,9.11A31.87,31.87,0,0,1,435.16,34a26.24,26.24,0,0,1-3.51,7.49,18.34,18.34,0,0,1-2.45,2.84,17,17,0,0,1-2.81,2.12,13.92,13.92,0,0,1-6.83,1.83h-5.45A9.78,9.78,0,0,1,411.59,47.86Z"/><path class="cls-1" d="M498.41,27.48a17.81,17.81,0,0,0-5.3-4.17l-6.89-3.54A26.34,26.34,0,0,1,478.79,14a10.39,10.39,0,0,1-2.61-5.36,5.87,5.87,0,0,1,1.21-4.38,8.39,8.39,0,0,1,4.16-2.79,12.54,12.54,0,0,1,2-.44,13.57,13.57,0,0,1,6.63.64A12,12,0,0,1,494,4a15.61,15.61,0,0,1,1.65,1.86,16.46,16.46,0,0,1,1.47,2.36,14.83,14.83,0,0,1,1,2.63,9.58,9.58,0,0,1,.38,2.57v.25h1V.18h-.81l-.08.12a3.59,3.59,0,0,1-1.56,1.52,4.22,4.22,0,0,1-1.93.34,7.74,7.74,0,0,1-2.09-.41c-.72-.24-1.4-.47-2-.71a14.84,14.84,0,0,0-5.49-1,17.11,17.11,0,0,0-2.5.18,11.22,11.22,0,0,0-2.45.68A16.2,16.2,0,0,0,476,3.48a13.2,13.2,0,0,0-3.27,3.79,11.51,11.51,0,0,0-1.47,4.6,10.66,10.66,0,0,0,.7,4.94,14.45,14.45,0,0,0,3.21,4.82,22.19,22.19,0,0,0,6.06,4.28l7.56,3.9a11.72,11.72,0,0,1,4.82,4.26,9.1,9.1,0,0,1,1.38,5,8.78,8.78,0,0,1-1.55,4.64,9.64,9.64,0,0,1-4,3.33,16.65,16.65,0,0,1-5,1h-.54a14.88,14.88,0,0,1-5-1,14.17,14.17,0,0,1-4.25-2.57,8.24,8.24,0,0,1-1.68-2.15,18.67,18.67,0,0,1-1.31-2.87,23.19,23.19,0,0,1-.83-3,14.87,14.87,0,0,1-.29-2.74l-.06-.25h-.92V49.1h.67l.25-.06v-.21c0-.09.12-.3.33-.74a2.32,2.32,0,0,1,1-1,4.81,4.81,0,0,1,2.19-.45,10.9,10.9,0,0,1,3.84.9,3.58,3.58,0,0,0,.63.25,14.07,14.07,0,0,0,5.31,1h.6c.28,0,.56,0,.83,0l.88-.09v0a23.47,23.47,0,0,0,7.46-2.2,16.62,16.62,0,0,0,5.09-3.84,11.38,11.38,0,0,0,2.54-4.87,11,11,0,0,0-.06-5.28A12.89,12.89,0,0,0,498.41,27.48Z"/><path class="cls-1" d="M543.51,1.46a2.8,2.8,0,0,1-1.27,1.94,4.72,4.72,0,0,1-2.56.56,12.23,12.23,0,0,1-4.8-1.47l-.83-.43-.77-.34-.1-.1h-.1s0,0-.07-.05l-.13-.07h0A15.28,15.28,0,0,0,526.9.36a18.44,18.44,0,0,0-8.33,1.94A18.73,18.73,0,0,0,515,4.55a27.26,27.26,0,0,0-3.12,3,25.08,25.08,0,0,0-4.61,7.76A27.87,27.87,0,0,0,506,20a27.35,27.35,0,0,0-.42,4.65V25h0a27.35,27.35,0,0,0,.42,4.65,27.87,27.87,0,0,0,1.27,4.67,24.91,24.91,0,0,0,4.61,7.75,21.12,21.12,0,0,0,6.73,5.22,18.39,18.39,0,0,0,8.34,2,14.8,14.8,0,0,0,5.91-1.16,17.22,17.22,0,0,0,5.24-3.41,20.18,20.18,0,0,0,4-5.77,27.64,27.64,0,0,0,2.36-8.11l0-.25-.91-.13,0,.24a39.61,39.61,0,0,1-.9,4.17,21.15,21.15,0,0,1-1.36,3.68,27.59,27.59,0,0,1-1.69,3A12.75,12.75,0,0,1,537.4,44a14.75,14.75,0,0,1-4.9,3.31,14.28,14.28,0,0,1-2.32.71c-.77.15-1.58.27-2.38.35a12,12,0,0,1-1.45-.09A5.79,5.79,0,0,1,525,48a16.57,16.57,0,0,1-2.37-1.09,16.12,16.12,0,0,1-2.88-2.09,23.08,23.08,0,0,1-5.19-8.37,32.41,32.41,0,0,1-2-11.55,33.8,33.8,0,0,1,1.22-9.2,27.08,27.08,0,0,1,3.3-7.52,16.91,16.91,0,0,1,4.84-5,10.5,10.5,0,0,1,5.85-1.82,14.78,14.78,0,0,1,9.68,4.37,19.25,19.25,0,0,1,2.1,2.51,22.08,22.08,0,0,1,1.75,3,29.65,29.65,0,0,1,1.34,3.69,30.27,30.27,0,0,1,.86,4.16l0,.22h.89v-18h-.88Z"/><path class="cls-1" d="M565.7,47.86a3.47,3.47,0,0,1-1.57-.92,3.61,3.61,0,0,1-.84-1.63,11.13,11.13,0,0,1-.27-2.7V7.15c0-2.05.34-3.47,1-4.22a5.52,5.52,0,0,1,3.56-1.41H570l.25-.06V.66H548.85v.86H551c1.92.12,3.27.56,4,1.33s1.1,2.24,1.1,4.36V42.55a10.33,10.33,0,0,1-.34,3,3.36,3.36,0,0,1-1.12,1.68,4.45,4.45,0,0,1-2.13.82,23.34,23.34,0,0,1-3.41.21h-.25v.92h21.43v-.92h-2.09A9.89,9.89,0,0,1,565.7,47.86Z"/><path class="cls-1" d="M615,34.58a20.37,20.37,0,0,1-2.67,6.88,17.32,17.32,0,0,1-2,2.51,12.64,12.64,0,0,1-2.62,2.15,14.53,14.53,0,0,1-3.45,1.53,15.13,15.13,0,0,1-4.36.59h-6.66a9.48,9.48,0,0,1-2.45-.38,3.3,3.3,0,0,1-2.38-2.55,11.25,11.25,0,0,1-.26-2.7,5.81,5.81,0,0,0-.07-1.08V25.34h8a7.08,7.08,0,0,1,4.09,1,7.48,7.48,0,0,1,2.24,2.41,7.83,7.83,0,0,1,.93,2.64c.11.87.17,1.44.17,1.71v.43h.92V16.32h-.92v.43a16.47,16.47,0,0,1-.17,1.65,7.91,7.91,0,0,1-.9,2.55,7.73,7.73,0,0,1-2.16,2.41,6.59,6.59,0,0,1-3.9,1.12h-8.33v-23h11a13,13,0,0,1,5.89,1.14,10,10,0,0,1,3.51,2.87,11.87,11.87,0,0,1,1.91,3.85c.42,1.41.79,2.8,1.1,4.13v.25h.92V.66H574v.86h2.16c1.92.12,3.27.56,4,1.33s1.1,2.24,1.1,4.36a2.71,2.71,0,0,0,0,.4,1.73,1.73,0,0,1,0,.32V42.55a10.28,10.28,0,0,1-.35,3,3.36,3.36,0,0,1-1.12,1.68,4.45,4.45,0,0,1-2.13.82,23.39,23.39,0,0,1-3.42.21H574v.92h40.14L616,34.38h-.91Z"/><path class="cls-1" d="M654.38,1.58h1.15a15.5,15.5,0,0,1,2.51.27,10.81,10.81,0,0,1,3,1A7.6,7.6,0,0,1,663.59,5a5.92,5.92,0,0,1,1,3.69V37.7L634.91.75l-.08-.09H621.62v.92h2.11a11.82,11.82,0,0,1,3.14.32,2.55,2.55,0,0,1,1.46,1,3.21,3.21,0,0,1,.49,1.64c0,.71.06,1.54.06,2.48V41.11a6,6,0,0,1-1,3.75A7.48,7.48,0,0,1,625.3,47a10.7,10.7,0,0,1-3,1,15.5,15.5,0,0,1-2.51.27h-1.15v.92h21.5v-.92H639a15.5,15.5,0,0,1-2.5-.27,10.7,10.7,0,0,1-3-1,7.39,7.39,0,0,1-2.53-2.12,6,6,0,0,1-1.06-3.75V5.46L664.7,49.07l.07.09h.85V8.65A5.93,5.93,0,0,1,666.68,5a7.5,7.5,0,0,1,2.53-2.12,10.81,10.81,0,0,1,3-1,15.5,15.5,0,0,1,2.5-.27h1.15V.66h-21.5Z"/><path class="cls-1" d="M714.15,1.46a2.77,2.77,0,0,1-1.28,1.94,4.67,4.67,0,0,1-2.56.56,12.24,12.24,0,0,1-4.79-1.47l-.83-.43-.77-.34-.1-.1h-.11s0,0-.06-.05l-.13-.07h-.06A15.21,15.21,0,0,0,697.53.36a18.4,18.4,0,0,0-8.32,1.94,18.73,18.73,0,0,0-3.62,2.25,25.7,25.7,0,0,0-3.12,3,24.7,24.7,0,0,0-4.61,7.76A27.87,27.87,0,0,0,676.59,20a27.35,27.35,0,0,0-.43,4.65V25h0a27.35,27.35,0,0,0,.43,4.65,27.87,27.87,0,0,0,1.27,4.67,24.7,24.7,0,0,0,4.6,7.75,21.16,21.16,0,0,0,6.74,5.22,18.35,18.35,0,0,0,8.33,2,14.82,14.82,0,0,0,5.92-1.16,17.22,17.22,0,0,0,5.24-3.41,20.18,20.18,0,0,0,3.95-5.77A28,28,0,0,0,715,30.83l0-.25-.91-.13,0,.24a39.61,39.61,0,0,1-.9,4.17,21.15,21.15,0,0,1-1.36,3.68,26.05,26.05,0,0,1-1.7,3A12.36,12.36,0,0,1,708,44a14.75,14.75,0,0,1-4.9,3.31,14.39,14.39,0,0,1-2.33.71c-.76.15-1.57.27-2.38.35a11.84,11.84,0,0,1-1.44-.09,5.79,5.79,0,0,1-1.35-.32,16.57,16.57,0,0,1-2.37-1.09,15.77,15.77,0,0,1-2.88-2.09,23,23,0,0,1-5.19-8.37,32.19,32.19,0,0,1-2-11.55,33.8,33.8,0,0,1,1.22-9.2,27.68,27.68,0,0,1,3.3-7.52,17.06,17.06,0,0,1,4.85-5,10.47,10.47,0,0,1,5.85-1.82,14.78,14.78,0,0,1,9.68,4.37,19.25,19.25,0,0,1,2.1,2.51,21,21,0,0,1,1.74,3,26.76,26.76,0,0,1,1.34,3.69,28.84,28.84,0,0,1,.87,4.16l0,.22h.89v-18h-.87Z"/><path class="cls-1" d="M760.41,34.58a20.37,20.37,0,0,1-2.67,6.88,18.05,18.05,0,0,1-2,2.51,12.91,12.91,0,0,1-2.62,2.15,14.53,14.53,0,0,1-3.45,1.53,15.15,15.15,0,0,1-4.37.59H738.7a9.48,9.48,0,0,1-2.45-.38,3.56,3.56,0,0,1-1.55-.92,3.61,3.61,0,0,1-.84-1.63,11.78,11.78,0,0,1-.26-2.7,6.12,6.12,0,0,0-.06-1.08V25.34h8a7.08,7.08,0,0,1,4.09,1,7.51,7.51,0,0,1,3.16,5.05,16.21,16.21,0,0,1,.18,1.71v.43h.92V16.32H749v.43a16.47,16.47,0,0,1-.17,1.65,7.71,7.71,0,0,1-.91,2.55,7.57,7.57,0,0,1-2.15,2.41,6.62,6.62,0,0,1-3.9,1.12h-8.33v-23h11a13,13,0,0,1,5.89,1.14A10,10,0,0,1,754,5.53a12.07,12.07,0,0,1,1.91,3.85c.41,1.41.79,2.8,1.1,4.13v.25h.92V.66H719.36v.86h2.16c1.92.12,3.27.56,4,1.33s1.1,2.24,1.1,4.36a1.81,1.81,0,0,0,0,.4c0,.11,0,.21,0,.32V42.55a9.94,9.94,0,0,1-.35,3,3.28,3.28,0,0,1-1.11,1.68,4.49,4.49,0,0,1-2.13.82,23.39,23.39,0,0,1-3.42.21h-.25v.92h40.13l1.8-14.78h-.9Z"/><path class="cls-1" d="M773.1,42.4a4,4,0,0,0-5.57,0,3.74,3.74,0,0,0-1.13,2.73,3.91,3.91,0,1,0,7.82,0A3.77,3.77,0,0,0,773.1,42.4Z"/><path class="cls-1" d="M41,124.58a20.36,20.36,0,0,1-2.66,6.88,18.05,18.05,0,0,1-2,2.51,13.19,13.19,0,0,1-2.62,2.15,14.53,14.53,0,0,1-3.45,1.53h0a15.15,15.15,0,0,1-4.37.59H19.34a9.41,9.41,0,0,1-2.45-.38,3.56,3.56,0,0,1-1.55-.92,3.61,3.61,0,0,1-.84-1.63,11.78,11.78,0,0,1-.26-2.7,6,6,0,0,0-.06-1.08V115.34h8a7.11,7.11,0,0,1,4.09,1,7.44,7.44,0,0,1,2.23,2.41,7.62,7.62,0,0,1,.93,2.64,16.21,16.21,0,0,1,.18,1.71v.43h.92V106.32h-.92v.43a14.65,14.65,0,0,1-.18,1.65,7.68,7.68,0,0,1-.9,2.55,7.57,7.57,0,0,1-2.15,2.41,6.62,6.62,0,0,1-3.9,1.12H14.18v-23h11a13,13,0,0,1,5.89,1.14,10.09,10.09,0,0,1,3.51,2.87,12.07,12.07,0,0,1,1.91,3.85c.42,1.42.79,2.81,1.1,4.13v.25h.92V90.66H0v.86H2.15c1.93.12,3.28.56,4,1.33s1.1,2.24,1.1,4.36a2.69,2.69,0,0,0,0,.4,1.73,1.73,0,0,1,0,.32v34.62a10.28,10.28,0,0,1-.35,3,3.35,3.35,0,0,1-1.11,1.68,4.53,4.53,0,0,1-2.14.82,23.25,23.25,0,0,1-3.41.21H.06v.92H40.19L42,124.38h-.91Z"/><path class="cls-1" d="M79.38,91.52h.25a9.91,9.91,0,0,1,1.63.21,2.77,2.77,0,0,1,1.74,1,3.63,3.63,0,0,1,.55,2.61,12.67,12.67,0,0,1-2.21,5l-8,12.16L61.84,95c-.77-1.14-1-2-.52-2.56A3.2,3.2,0,0,1,64,91.52h1.81v-.86H46.26v.86H47a9.65,9.65,0,0,1,1.49.15,8,8,0,0,1,1.92.58,9.49,9.49,0,0,1,4.17,3.51,1.3,1.3,0,0,0,.25.39l13.41,20.32-8,12.16A27.16,27.16,0,0,1,56,133.74a20.71,20.71,0,0,1-3.91,2.88,12.49,12.49,0,0,1-3.14,1.27c-.91.19-1.57.31-1.93.35H46.2v.92H62.84v-.92h-.25a8.42,8.42,0,0,1-1-.09,4.52,4.52,0,0,1-1.31-.37,3.1,3.1,0,0,1-1.14-.86,2.71,2.71,0,0,1-.57-1.57,6.45,6.45,0,0,1,.47-2.6,18.28,18.28,0,0,1,2.1-3.9l7.65-11.51L80.38,135c.73,1.18.9,2,.5,2.5h0a3.48,3.48,0,0,1-2.69.78H76.26v.92H95.9v-.92h-.85a11.31,11.31,0,0,1-1.47-.12,7,7,0,0,1-1.88-.55,10.82,10.82,0,0,1-2.14-1.26,8.34,8.34,0,0,1-2-2.28L73.93,113.35l8.25-12.52a26.23,26.23,0,0,1,4.15-4.93,20.88,20.88,0,0,1,3.86-2.79,12.74,12.74,0,0,1,3.08-1.24c.89-.19,1.53-.31,1.9-.35H96v-.86H79.38Z"/><path class="cls-1" d="M137.4,91.46a2.76,2.76,0,0,1-1.27,1.94,4.72,4.72,0,0,1-2.56.56,12.23,12.23,0,0,1-4.8-1.47c-.28-.16-.56-.3-.83-.43l-.77-.34-.1-.1H127s0,0-.06-.05l-.14-.07h0a15.25,15.25,0,0,0-5.93-1.14,18.44,18.44,0,0,0-8.33,1.94,19,19,0,0,0-3.62,2.25,27.26,27.26,0,0,0-3.12,3,25.08,25.08,0,0,0-4.61,7.76A27.87,27.87,0,0,0,99.84,110a27.35,27.35,0,0,0-.42,4.65V115h0a27.35,27.35,0,0,0,.42,4.65,27.87,27.87,0,0,0,1.27,4.67,24.91,24.91,0,0,0,4.61,7.75,21,21,0,0,0,6.74,5.22,18.32,18.32,0,0,0,8.33,1.95,14.89,14.89,0,0,0,5.92-1.16,17.46,17.46,0,0,0,5.24-3.41,20.09,20.09,0,0,0,3.94-5.77,28,28,0,0,0,2.37-8.11l0-.25-.91-.13,0,.24a42.36,42.36,0,0,1-.89,4.17,22,22,0,0,1-1.37,3.68,24.61,24.61,0,0,1-1.69,3,12.75,12.75,0,0,1-2.1,2.45,14,14,0,0,1-7.22,4c-.77.15-1.57.27-2.38.35a11.72,11.72,0,0,1-1.44-.09,5.88,5.88,0,0,1-1.36-.32,16.51,16.51,0,0,1-2.36-1.09,15.81,15.81,0,0,1-2.89-2.09,23.08,23.08,0,0,1-5.19-8.37,32.41,32.41,0,0,1-2-11.55,33.8,33.8,0,0,1,1.22-9.2,27.68,27.68,0,0,1,3.3-7.52,16.82,16.82,0,0,1,4.85-5,10.47,10.47,0,0,1,5.84-1.82,14.78,14.78,0,0,1,9.68,4.37,17.9,17.9,0,0,1,2.1,2.51,21.49,21.49,0,0,1,1.75,3,29.65,29.65,0,0,1,1.34,3.69,30.27,30.27,0,0,1,.86,4.16l0,.22h.89v-18h-.87Z"/><path class="cls-1" d="M183.66,124.58a20.57,20.57,0,0,1-2.66,6.88,17.41,17.41,0,0,1-2,2.51,12.85,12.85,0,0,1-2.61,2.15,14.53,14.53,0,0,1-3.45,1.53h0a15.15,15.15,0,0,1-4.37.59H162a9.56,9.56,0,0,1-2.46-.38,3.3,3.3,0,0,1-2.38-2.55,11.78,11.78,0,0,1-.26-2.7,6,6,0,0,0-.06-1.08V115.34h8a7.05,7.05,0,0,1,4.08,1,7.37,7.37,0,0,1,2.24,2.41,7.62,7.62,0,0,1,.93,2.64,16.21,16.21,0,0,1,.18,1.71v.43h.92V106.32h-.92v.43a14.65,14.65,0,0,1-.18,1.65,7.67,7.67,0,0,1-3.05,5,6.64,6.64,0,0,1-3.9,1.12H156.8v-23h11a12.92,12.92,0,0,1,5.88,1.14,10.13,10.13,0,0,1,3.52,2.87,12.07,12.07,0,0,1,1.91,3.85c.41,1.42.79,2.81,1.1,4.13v.25h.92V90.66H142.62v.86h2.15c1.93.12,3.28.56,4,1.33s1.1,2.24,1.1,4.36a2.69,2.69,0,0,0,0,.4,1.73,1.73,0,0,1,0,.32v34.62a10.28,10.28,0,0,1-.35,3,3.3,3.3,0,0,1-1.12,1.68,4.45,4.45,0,0,1-2.13.82,23.34,23.34,0,0,1-3.41.21h-.25v.92h40.13l1.8-14.78h-.91Z"/><path class="cls-1" d="M222.89,94.2A14.07,14.07,0,0,0,218,91.57a24.78,24.78,0,0,0-7-.91H187.92v.86h2.15c1.93.12,3.27.56,4,1.33s1.1,2.24,1.1,4.36v35.34a10.28,10.28,0,0,1-.35,3,3.3,3.3,0,0,1-1.12,1.68,4.45,4.45,0,0,1-2.13.82,23.34,23.34,0,0,1-3.41.21h-.25v.92H209.3v-.51l.35-.41h-2.39a9.89,9.89,0,0,1-2.49-.38,3.28,3.28,0,0,1-2.41-2.55,11.78,11.78,0,0,1-.26-2.7V115.34H211a22.6,22.6,0,0,0,7-1,13.26,13.26,0,0,0,4.89-2.63,11.06,11.06,0,0,0,3.75-8.77,12.59,12.59,0,0,0-.95-4.93A10.56,10.56,0,0,0,222.89,94.2Zm-20.79,3c0-2.05.33-3.47,1-4.22a5.49,5.49,0,0,1,3.56-1.41h3.84a8,8,0,0,1,6.87,3.31,13.79,13.79,0,0,1,2.18,8.14,17.29,17.29,0,0,1-.42,3.93,12.94,12.94,0,0,1-1.17,3.21,8,8,0,0,1-1.2,1.72,8.17,8.17,0,0,1-1.3,1.19,8.49,8.49,0,0,1-5,1.46H202.1Z"/><path class="cls-1" d="M229.74,103.58h.92v-.31c.28-1.23.62-2.53,1-3.86a13,13,0,0,1,1.76-3.68,10.13,10.13,0,0,1,3.11-2.87,11.63,11.63,0,0,1,5.09-1.4H242a12.91,12.91,0,0,1,2.47.41,3.54,3.54,0,0,1,1.54.89,3.6,3.6,0,0,1,.83,1.63,11.19,11.19,0,0,1,.27,2.7v35.34a10.4,10.4,0,0,1-.35,3,3.47,3.47,0,0,1-1.09,1.68,4.25,4.25,0,0,1-2.1.81,23.34,23.34,0,0,1-3.41.21h-.25V139h21.38v-.92h-2.1a9.56,9.56,0,0,1-2.46-.38,3.28,3.28,0,0,1-2.38-2.58,11.81,11.81,0,0,1-.26-2.67V97c0-2,.33-3.42,1-4.19a5.11,5.11,0,0,1,3.5-1.38h.52a11.87,11.87,0,0,1,5.14,1.4,9.65,9.65,0,0,1,3.1,2.87,13.5,13.5,0,0,1,1.74,3.68c.39,1.32.75,2.61,1.07,3.83v.34H271V90.48h-41.3Z"/><path class="cls-1" d="M292.37,137.86a3.28,3.28,0,0,1-2.41-2.55,11.78,11.78,0,0,1-.26-2.7V97.15c0-2.05.33-3.47,1-4.22a5.55,5.55,0,0,1,3.57-1.41h2.4l.25-.06v-.8H275.52v.86h2.15c1.93.12,3.27.56,4,1.33s1.1,2.24,1.1,4.36v35.34a10.28,10.28,0,0,1-.35,3,3.3,3.3,0,0,1-1.12,1.68,4.45,4.45,0,0,1-2.13.82h0a23.34,23.34,0,0,1-3.41.21h-.25v.92H297v-.92h-2.1A9.89,9.89,0,0,1,292.37,137.86Z"/><path class="cls-1" d="M344.7,105a26.26,26.26,0,0,0-4.6-7.81,20.33,20.33,0,0,0-6.81-5.23A18.81,18.81,0,0,0,325,90h-3.48a18.94,18.94,0,0,0-8.33,1.94,20.34,20.34,0,0,0-6.68,5.23A23.57,23.57,0,0,0,302,105a27.57,27.57,0,0,0,0,19,23.52,23.52,0,0,0,4.55,7.82,20.34,20.34,0,0,0,6.68,5.23,18.94,18.94,0,0,0,8.33,1.94H325a18.81,18.81,0,0,0,8.26-1.94,20.33,20.33,0,0,0,6.81-5.23,26.48,26.48,0,0,0,4.6-7.81,27.27,27.27,0,0,0,1.64-9.51A27.59,27.59,0,0,0,344.7,105ZM317.25,136.5a15.37,15.37,0,0,1-3.57-2.75,13.23,13.23,0,0,1-1-1.17,14.87,14.87,0,0,1-.92-1.37,25.25,25.25,0,0,1-3.29-7.6,38.36,38.36,0,0,1,0-18.24,25.18,25.18,0,0,1,3.3-7.61,13.42,13.42,0,0,1,.91-1.36,11.94,11.94,0,0,1,1-1.17,15.37,15.37,0,0,1,3.57-2.75c1.17-.61,2.12-1.06,2.8-1.33a9.8,9.8,0,0,1,2.34-.29h1.8a6.92,6.92,0,0,1,1.16.09l1.14.19c.67.28,1.6.73,2.77,1.34a16.2,16.2,0,0,1,3.62,2.74c.31.35.64.75,1,1.18s.67.9,1,1.37a25.41,25.41,0,0,1,3.32,7.6,37.05,37.05,0,0,1,0,18.24,25.29,25.29,0,0,1-3.32,7.6c-.32.48-.65.94-1,1.37s-.66.83-1,1.17a16.45,16.45,0,0,1-3.63,2.75c-1.16.61-2.1,1.06-2.72,1.32l-1.21.25a5.65,5.65,0,0,1-1.14.11h-1.8a5.94,5.94,0,0,1-1.22-.12l-1.09-.22A29.25,29.25,0,0,1,317.25,136.5Z"/><path class="cls-1" d="M403.34,91.58v-.92h-21.5v.92H383a15.5,15.5,0,0,1,2.5.27,10.81,10.81,0,0,1,3,1A7.4,7.4,0,0,1,391,95a5.93,5.93,0,0,1,1.06,3.69V127.7L362.36,90.75l-.07-.09H349.08v.92h2.11a11.79,11.79,0,0,1,3.13.32,2.55,2.55,0,0,1,1.46.95,3.31,3.31,0,0,1,.5,1.64c0,.7.06,1.54.06,2.48v34.14a6,6,0,0,1-1.06,3.75,7.48,7.48,0,0,1-2.53,2.12,10.7,10.7,0,0,1-3,1,15.5,15.5,0,0,1-2.5.27h-1.15v.92h21.5v-.92h-1.15a15.5,15.5,0,0,1-2.51-.27,10.7,10.7,0,0,1-3-1,7.48,7.48,0,0,1-2.53-2.12,6,6,0,0,1-1.05-3.75V95.46l34.83,43.61.08.09h.85V98.65A5.92,5.92,0,0,1,394.13,95a7.6,7.6,0,0,1,2.53-2.12,10.81,10.81,0,0,1,3-1,15.5,15.5,0,0,1,2.51-.27Z"/><path class="cls-1" d="M447.55,137.79a3.72,3.72,0,0,1-1.71-.79,7.77,7.77,0,0,1-1.74-2,26.86,26.86,0,0,1-2-4l-16.08-40.2L426,90.6h-.81L409,131.08a11.49,11.49,0,0,1-2.52,4,12.4,12.4,0,0,1-2.79,2.09,7,7,0,0,1-2.25.78l-1,.12h-.24V139h16.52v-.92h-.25l-.77,0a11,11,0,0,1-1.67-.23,11.33,11.33,0,0,1-2-.65,4.74,4.74,0,0,1-1.68-1.2,3.79,3.79,0,0,1-.87-1.91,5.62,5.62,0,0,1,.5-2.9L414.41,120h16.41l4.37,11a16.47,16.47,0,0,1,1.19,4.16,2.14,2.14,0,0,1-.58,1.92,3.88,3.88,0,0,1-2.17.75c-1,.1-2.26.19-3.68.27h-.23V139H449.9v-.89l-.22,0ZM414.8,119.1l7.84-19.54,7.8,19.54Z"/><path class="cls-1" d="M493.2,124.58a21.31,21.31,0,0,1-2.73,6.88,17.32,17.32,0,0,1-2,2.51,12.64,12.64,0,0,1-2.62,2.15,14.53,14.53,0,0,1-3.45,1.53,15.13,15.13,0,0,1-4.36.59h-6a9.71,9.71,0,0,1-2.52-.38,3.3,3.3,0,0,1-2.38-2.55,11.25,11.25,0,0,1-.26-2.7V97.15a12,12,0,0,1,.23-2.59A3.32,3.32,0,0,1,469.3,92a7.85,7.85,0,0,1,2.13-.46h2.46l.25-.06v-.8H452.76v.86h2.09c1.93.12,3.28.56,4,1.33S460,95.09,460,97.21v35.34a10.28,10.28,0,0,1-.35,3,3.36,3.36,0,0,1-1.12,1.68,4.41,4.41,0,0,1-2.1.82,22.71,22.71,0,0,1-3.38.21h-.25v.92h39.53l1.8-14.78h-.91Z"/><path class="cls-1" d="M548.42,117.48a17.81,17.81,0,0,0-5.3-4.17l-6.89-3.54A26.34,26.34,0,0,1,528.8,104a10.49,10.49,0,0,1-2.62-5.36,6,6,0,0,1,1.21-4.38,8.46,8.46,0,0,1,4.17-2.79,12.29,12.29,0,0,1,2-.44,13.57,13.57,0,0,1,6.63.64A11.89,11.89,0,0,1,544,94a14.81,14.81,0,0,1,1.66,1.86,16.46,16.46,0,0,1,1.47,2.36,14.07,14.07,0,0,1,1,2.63,9.2,9.2,0,0,1,.38,2.57v.25h1V90.18h-.82l-.07.12a3.6,3.6,0,0,1-1.57,1.52,4.18,4.18,0,0,1-1.92.34,7.89,7.89,0,0,1-2.1-.41c-.71-.24-1.39-.47-2-.71a14.89,14.89,0,0,0-5.5-1,17.07,17.07,0,0,0-2.49.18,11.06,11.06,0,0,0-2.45.68A16.2,16.2,0,0,0,526,93.48a13.2,13.2,0,0,0-3.27,3.79,11.35,11.35,0,0,0-1.47,4.6,10.66,10.66,0,0,0,.7,4.94,14.56,14.56,0,0,0,3.2,4.82,22.41,22.41,0,0,0,6.07,4.28l7.56,3.9a11.72,11.72,0,0,1,4.82,4.26,9.08,9.08,0,0,1,1.37,5,8.68,8.68,0,0,1-1.54,4.64,9.64,9.64,0,0,1-4,3.33,16.65,16.65,0,0,1-5,1h-.54a15,15,0,0,1-5-1,14.24,14.24,0,0,1-4.24-2.57,8.26,8.26,0,0,1-1.69-2.15,18.63,18.63,0,0,1-1.3-2.87,23.19,23.19,0,0,1-.83-3,14.06,14.06,0,0,1-.29-2.74l-.07-.25h-.92V139.1h.67l.25-.06v-.21c0-.09.13-.3.34-.74a2.26,2.26,0,0,1,1-1,4.78,4.78,0,0,1,2.19-.45,10.9,10.9,0,0,1,3.84.9,3.58,3.58,0,0,0,.63.25,14,14,0,0,0,5.31,1h.59c.29,0,.57,0,.83,0l.89-.09v0a23.46,23.46,0,0,0,7.47-2.2,16.45,16.45,0,0,0,5.08-3.84,11.41,11.41,0,0,0,2.55-4.87,11.09,11.09,0,0,0-.06-5.28A13,13,0,0,0,548.42,117.48Z"/><path class="cls-1" d="M596.46,124.58a20.37,20.37,0,0,1-2.67,6.88,17.32,17.32,0,0,1-1.95,2.51,12.64,12.64,0,0,1-2.62,2.15,14.53,14.53,0,0,1-3.45,1.53,15.15,15.15,0,0,1-4.37.59h-6.65a9.48,9.48,0,0,1-2.45-.38,3.3,3.3,0,0,1-2.38-2.55,11.19,11.19,0,0,1-.27-2.7,6.12,6.12,0,0,0-.06-1.08V115.34h8a7.08,7.08,0,0,1,4.09,1,7.48,7.48,0,0,1,2.24,2.41,7.83,7.83,0,0,1,.93,2.64c.11.87.17,1.44.17,1.71v.43H586V106.32h-.92v.43a16.47,16.47,0,0,1-.17,1.65A7.91,7.91,0,0,1,584,111a7.73,7.73,0,0,1-2.16,2.41,6.59,6.59,0,0,1-3.9,1.12h-8.33v-23h11a13,13,0,0,1,5.89,1.14A10,10,0,0,1,590,95.53a12.07,12.07,0,0,1,1.91,3.85c.42,1.41.79,2.8,1.1,4.13v.25H594V90.66H555.41v.86h2.16c1.92.12,3.27.56,4,1.33s1.1,2.24,1.1,4.36a2.71,2.71,0,0,0,0,.4,1.72,1.72,0,0,1,0,.32v34.62a10.33,10.33,0,0,1-.34,3,3.36,3.36,0,0,1-1.12,1.68,4.45,4.45,0,0,1-2.13.82,23.39,23.39,0,0,1-3.42.21h-.25v.92h40.14l1.8-14.78h-.91Z"/><path class="cls-1" d="M649.26,138.24l-1-.06a9.41,9.41,0,0,1-1.89-.38,11.93,11.93,0,0,1-2.24-.94,5.75,5.75,0,0,1-1.92-1.7L630.92,119.5a13.79,13.79,0,0,0-3.27-3.36,12.27,12.27,0,0,0-1.62-.9L628,115a12.81,12.81,0,0,0,2.84-.67,14.89,14.89,0,0,0,4.89-2.63,11.09,11.09,0,0,0,3.74-8.77,12.59,12.59,0,0,0-.95-4.93,10.45,10.45,0,0,0-2.8-3.85,15.85,15.85,0,0,0-4.89-2.62,25.13,25.13,0,0,0-7-.91H600.65v.86h2.16c1.92.12,3.27.56,4,1.33s1.1,2.24,1.1,4.36v35.34a10.28,10.28,0,0,1-.34,3,3.53,3.53,0,0,1-1.09,1.69,4.29,4.29,0,0,1-2.1.81,23.71,23.71,0,0,1-3.48.21h-.25v.92h21.44v-.92H620a9.48,9.48,0,0,1-2.45-.38,3.56,3.56,0,0,1-1.55-.92,3.7,3.7,0,0,1-.83-1.63,11.19,11.19,0,0,1-.27-2.7V115.34h2a7.26,7.26,0,0,1,1.34.12,4.68,4.68,0,0,1,1.28.45,6.68,6.68,0,0,1,1.38,1,13.53,13.53,0,0,1,1.62,1.86l14.64,20.28.08.1h12.37v-.67l-.06-.25ZM614.89,97.15a11.89,11.89,0,0,1,.24-2.59,3.74,3.74,0,0,1,.75-1.63,3.66,3.66,0,0,1,1.38-1,7.77,7.77,0,0,1,2.12-.46h3.9a8,8,0,0,1,6.82,3.31,13.86,13.86,0,0,1,2.17,8.14,17.31,17.31,0,0,1-.41,3.93,14.12,14.12,0,0,1-1.11,3.2,10.29,10.29,0,0,1-1.26,1.73,8.65,8.65,0,0,1-1.31,1.19,8.39,8.39,0,0,1-4.9,1.46h-8.39Z"/><path class="cls-1" d="M685,91.52h.25l.77,0a11,11,0,0,1,1.67.23,11.88,11.88,0,0,1,2,.65,4.68,4.68,0,0,1,1.71,1.2,3.68,3.68,0,0,1,.84,1.91,5.89,5.89,0,0,1-.53,2.9L679,130.14l-12.6-31.52a14.6,14.6,0,0,1-1.16-4.1,2.38,2.38,0,0,1,.58-2,3.68,3.68,0,0,1,2.17-.77c1-.1,2.28-.19,3.71-.27H672V90.6H651.77v.88l2.31.37a3.68,3.68,0,0,1,1.72.79,8.35,8.35,0,0,1,1.71,2,26.11,26.11,0,0,1,2,4.07l16.08,40.14.06.16h.82L692.7,98.56a11.4,11.4,0,0,1,2.52-4A12,12,0,0,1,698,92.42a7.06,7.06,0,0,1,2.22-.78l1-.12h.25V90.6H685Z"/><path class="cls-1" d="M721.79,137.86a3.56,3.56,0,0,1-1.58-.92,3.7,3.7,0,0,1-.83-1.63,11.13,11.13,0,0,1-.27-2.7V97.15c0-2.05.34-3.47,1-4.22a5.49,5.49,0,0,1,3.56-1.41h2.4l.25-.06v-.8H704.93v.86h2.16c1.92.12,3.27.56,4,1.33s1.1,2.24,1.1,4.36v35.34a10.33,10.33,0,0,1-.34,3,3.36,3.36,0,0,1-1.12,1.68,4.45,4.45,0,0,1-2.13.82,23.39,23.39,0,0,1-3.42.21h-.25v.92h21.44v-.92h-2.1A9.88,9.88,0,0,1,721.79,137.86Z"/><path class="cls-1" d="M768.18,91.46a2.77,2.77,0,0,1-1.28,1.94,4.67,4.67,0,0,1-2.56.56,12.24,12.24,0,0,1-4.79-1.47l-.83-.43-.77-.34-.1-.1h-.11s0,0-.06-.05l-.13-.07h-.06a15.21,15.21,0,0,0-5.93-1.14,18.4,18.4,0,0,0-8.32,1.94,18.73,18.73,0,0,0-3.62,2.25,25.7,25.7,0,0,0-3.12,3,24.7,24.7,0,0,0-4.61,7.76,26.94,26.94,0,0,0-1.27,4.67,27.35,27.35,0,0,0-.43,4.65V115h0a27.35,27.35,0,0,0,.43,4.65,26.94,26.94,0,0,0,1.27,4.67,24.7,24.7,0,0,0,4.6,7.75,21.16,21.16,0,0,0,6.74,5.22,18.35,18.35,0,0,0,8.33,1.95,14.82,14.82,0,0,0,5.92-1.16,17.22,17.22,0,0,0,5.24-3.41,20.18,20.18,0,0,0,3.95-5.77,28,28,0,0,0,2.36-8.11l0-.25-.91-.13,0,.24a39.61,39.61,0,0,1-.9,4.17,21.15,21.15,0,0,1-1.36,3.68,26.05,26.05,0,0,1-1.7,3,12.36,12.36,0,0,1-2.09,2.45,14.75,14.75,0,0,1-4.9,3.31,14.39,14.39,0,0,1-2.33.71c-.76.15-1.57.27-2.38.35a11.84,11.84,0,0,1-1.44-.09,5.79,5.79,0,0,1-1.35-.32,16.08,16.08,0,0,1-2.37-1.09,15.77,15.77,0,0,1-2.88-2.09,23,23,0,0,1-5.19-8.37,32.19,32.19,0,0,1-2-11.55,33.8,33.8,0,0,1,1.22-9.2,27.68,27.68,0,0,1,3.3-7.52,17.06,17.06,0,0,1,4.85-5,10.47,10.47,0,0,1,5.84-1.82,14.77,14.77,0,0,1,9.69,4.37,20.07,20.07,0,0,1,2.1,2.51,21,21,0,0,1,1.74,3,26.76,26.76,0,0,1,1.34,3.69,27.56,27.56,0,0,1,.86,4.16l0,.22h.89v-18h-.87Z"/><path class="cls-1" d="M814.44,124.58a20.37,20.37,0,0,1-2.67,6.88,18.05,18.05,0,0,1-1.95,2.51,12.91,12.91,0,0,1-2.62,2.15,14.53,14.53,0,0,1-3.45,1.53,15.15,15.15,0,0,1-4.37.59h-6.65a9.48,9.48,0,0,1-2.45-.38,3.56,3.56,0,0,1-1.55-.92,3.61,3.61,0,0,1-.84-1.63,11.78,11.78,0,0,1-.26-2.7,6.12,6.12,0,0,0-.06-1.08V115.34h8a7.08,7.08,0,0,1,4.09,1,7.51,7.51,0,0,1,3.16,5,16.21,16.21,0,0,1,.18,1.71v.43H804V106.32H803v.43a14.65,14.65,0,0,1-.18,1.65A7.46,7.46,0,0,1,802,111a7.57,7.57,0,0,1-2.15,2.41,6.62,6.62,0,0,1-3.9,1.12h-8.33v-23h11a13,13,0,0,1,5.89,1.14A10,10,0,0,1,808,95.53a12.07,12.07,0,0,1,1.91,3.85c.41,1.41.79,2.8,1.1,4.13v.25h.92V90.66H773.39v.86h2.16c1.92.12,3.27.56,4,1.33s1.1,2.24,1.1,4.36a1.81,1.81,0,0,0,0,.4c0,.11,0,.21,0,.32v34.62a9.94,9.94,0,0,1-.35,3,3.28,3.28,0,0,1-1.11,1.68,4.49,4.49,0,0,1-2.14.82,23.15,23.15,0,0,1-3.41.21h-.25v.92h40.13l1.8-14.78h-.9Z"/><path class="cls-1" d="M827.13,132.4a3.84,3.84,0,0,0-2.79-1.12,3.8,3.8,0,0,0-2.78,1.12,3.74,3.74,0,0,0-1.13,2.73,3.91,3.91,0,1,0,7.82,0A3.77,3.77,0,0,0,827.13,132.4Z"/><path class="cls-1" d="M81.42,181.46h1.13c.59,0,1.41.14,2.44.3a10.38,10.38,0,0,1,3,.94,7.6,7.6,0,0,1,2.56,2,5.69,5.69,0,0,1,1.14,3.56v26.28a11.69,11.69,0,0,1-1.35,5.59,12.21,12.21,0,0,1-3.53,4.29,18.18,18.18,0,0,1-6.51,3.2,14.12,14.12,0,0,1-6.9.15A11.54,11.54,0,0,1,68.31,225a12.63,12.63,0,0,1-3.14-5,19.51,19.51,0,0,1-1.07-6.52v-28.4a4,4,0,0,1,1.28-2.66,5.82,5.82,0,0,1,3.09-1h2.71v-.12h.41l-.41-.41v-.45H49.74v1H51.9a6.75,6.75,0,0,1,3.76,1,4.14,4.14,0,0,1,1.28,3.07v28.38a14.25,14.25,0,0,0,1.38,6.47,14.58,14.58,0,0,0,3.93,4.83,18,18,0,0,0,5.54,3,21,21,0,0,0,6.62,1h.36a22.59,22.59,0,0,0,6.86-1,18.45,18.45,0,0,0,5.72-3,14.2,14.2,0,0,0,3.9-4.79,13,13,0,0,0,1.35-5.84v-26a5.93,5.93,0,0,1,1.06-3.69,7.58,7.58,0,0,1,2.55-2.15,10.09,10.09,0,0,1,3-1c1-.16,1.87-.26,2.48-.3h1.15v-.92H81.42Z"/><path class="cls-1" d="M141.42,181.58h1.15a15.61,15.61,0,0,1,2.51.27,10.91,10.91,0,0,1,3,1,7.47,7.47,0,0,1,2.52,2.12,5.93,5.93,0,0,1,1.06,3.69v29l-29.74-36.95-.07-.09H108.66v.92h2.11a11.92,11.92,0,0,1,3.14.32,2.49,2.49,0,0,1,1.45.95,3.31,3.31,0,0,1,.5,1.64c0,.7.06,1.54.06,2.48v34.14a6,6,0,0,1-1.06,3.75,7.35,7.35,0,0,1-2.52,2.12,10.81,10.81,0,0,1-3,1,15.72,15.72,0,0,1-2.51.27h-1.15v.92h21.5v-.92H126a15.61,15.61,0,0,1-2.51-.27,10.81,10.81,0,0,1-3-1,7.35,7.35,0,0,1-2.52-2.12,6,6,0,0,1-1.06-3.75V185.46l34.83,43.61.08.09h.85V188.65a5.93,5.93,0,0,1,1.06-3.69,7.47,7.47,0,0,1,2.52-2.12,10.81,10.81,0,0,1,3-1,15.5,15.5,0,0,1,2.51-.27h1.15v-.92h-21.5Z"/><path class="cls-1" d="M214.21,228.24l-1-.06a9.49,9.49,0,0,1-1.9-.38,11.58,11.58,0,0,1-2.23-.94,5.68,5.68,0,0,1-1.93-1.7L195.87,209.5a14,14,0,0,0-3.27-3.36,11.74,11.74,0,0,0-1.63-.9l1.94-.2a12.94,12.94,0,0,0,2.84-.67,14.74,14.74,0,0,0,4.88-2.63,11.06,11.06,0,0,0,3.75-8.77,12.59,12.59,0,0,0-.95-4.93,10.48,10.48,0,0,0-2.81-3.85,15.69,15.69,0,0,0-4.88-2.62,25.18,25.18,0,0,0-7-.91H165.6v.86h2.15c1.93.12,3.28.56,4,1.33s1.1,2.24,1.1,4.36v35.34a10.28,10.28,0,0,1-.35,3,3.46,3.46,0,0,1-1.09,1.69,4.25,4.25,0,0,1-2.1.81,23.66,23.66,0,0,1-3.47.21h-.25v.92H187v-.92h-2.1a9.56,9.56,0,0,1-2.46-.38,3.3,3.3,0,0,1-2.38-2.55,11.78,11.78,0,0,1-.26-2.7V205.34h2a7.15,7.15,0,0,1,1.33.12,4.46,4.46,0,0,1,1.28.45,6.72,6.72,0,0,1,1.39,1,15,15,0,0,1,1.62,1.86l14.71,20.38h12.38v-.67l-.06-.25Zm-34.37-41.09a12.62,12.62,0,0,1,.23-2.59,3.74,3.74,0,0,1,.76-1.63,3.62,3.62,0,0,1,1.37-1,7.85,7.85,0,0,1,2.13-.46h3.9a7.93,7.93,0,0,1,6.81,3.31,13.79,13.79,0,0,1,2.18,8.14,17.29,17.29,0,0,1-.42,3.93,14.12,14.12,0,0,1-1.11,3.2,9.76,9.76,0,0,1-1.26,1.73,8.17,8.17,0,0,1-1.3,1.19,8.39,8.39,0,0,1-4.9,1.46h-8.39Z"/><path class="cls-1" d="M234.53,227.86a3.28,3.28,0,0,1-2.41-2.55,11.78,11.78,0,0,1-.26-2.7V187.15c0-2.05.33-3.47,1-4.22a5.49,5.49,0,0,1,3.56-1.41h2.4l.25-.06v-.8H217.68v.86h2.15c1.93.12,3.28.56,4,1.33s1.1,2.24,1.1,4.36v35.34a10.28,10.28,0,0,1-.35,3,3.3,3.3,0,0,1-1.12,1.68,4.45,4.45,0,0,1-2.13.82h0a23.34,23.34,0,0,1-3.41.21h-.25v.92h21.44v-.92H237A10,10,0,0,1,234.53,227.86Z"/><path class="cls-1" d="M285.42,184.51a12.18,12.18,0,0,1,2.79-2.09,7,7,0,0,1,2.23-.78l1-.12h.25v-.92H275.16v.92h.25l.77,0a11.33,11.33,0,0,1,1.67.23,12.07,12.07,0,0,1,2,.65,4.6,4.6,0,0,1,1.71,1.2,3.53,3.53,0,0,1,.84,1.91,5.88,5.88,0,0,1-.52,2.9l-12.67,31.7-12.61-31.52a14.59,14.59,0,0,1-1.15-4.1,2.35,2.35,0,0,1,.58-2,3.62,3.62,0,0,1,2.16-.77c1-.1,2.29-.19,3.71-.27h.24v-.91H242v.88l2.31.37a3.64,3.64,0,0,1,1.71.79,8.36,8.36,0,0,1,1.72,2,27,27,0,0,1,2,4.07L265.82,229h.82l16.26-40.48A11.4,11.4,0,0,1,285.42,184.51Z"/><path class="cls-1" d="M327.68,227.79A3.71,3.71,0,0,1,326,227a8,8,0,0,1-1.74-2,26.38,26.38,0,0,1-2-4l-16.08-40.2-.06-.16h-.82l-16.2,40.48a11.64,11.64,0,0,1-2.53,4,12.4,12.4,0,0,1-2.79,2.09,6.94,6.94,0,0,1-2.25.78l-1,.12h-.24V229h16.52v-.92h-.25l-.77,0a11,11,0,0,1-1.67-.23,11.24,11.24,0,0,1-2-.65,4.69,4.69,0,0,1-1.69-1.2,3.79,3.79,0,0,1-.87-1.91,5.62,5.62,0,0,1,.5-2.9l4.5-11.18h16.4l4.37,11a16.47,16.47,0,0,1,1.19,4.16,2.17,2.17,0,0,1-.57,1.92,4,4,0,0,1-2.18.75c-1,.1-2.25.19-3.68.27h-.23V229H330v-.89l-.22,0ZM294.92,209.1l7.85-19.54,7.79,19.54Z"/><path class="cls-1" d="M373.32,214.58a21.53,21.53,0,0,1-2.72,6.88,17.41,17.41,0,0,1-2,2.51,12.64,12.64,0,0,1-2.62,2.15,14.18,14.18,0,0,1-3.45,1.53,15,15,0,0,1-4.36.59h-6a9.78,9.78,0,0,1-2.52-.38,3.3,3.3,0,0,1-2.38-2.55,11.78,11.78,0,0,1-.26-2.7V187.15a12.62,12.62,0,0,1,.23-2.59,3.74,3.74,0,0,1,.76-1.63,3.62,3.62,0,0,1,1.37-1,7.85,7.85,0,0,1,2.13-.46H354l.25-.06v-.8H332.88v.86H335c1.93.12,3.29.56,4,1.33s1.13,2.24,1.13,4.36v35.34a10.28,10.28,0,0,1-.35,3,3.3,3.3,0,0,1-1.12,1.68,4.41,4.41,0,0,1-2.1.82,22.71,22.71,0,0,1-3.38.21h-.25v.92h39.53l1.8-14.78h-.9Z"/><path class="cls-1" d="M418.38,214.58a20.57,20.57,0,0,1-2.66,6.88,17.41,17.41,0,0,1-2,2.51,12.64,12.64,0,0,1-2.62,2.15,14.18,14.18,0,0,1-3.45,1.53,15.08,15.08,0,0,1-4.36.59h-6.65a9.56,9.56,0,0,1-2.46-.38,3.3,3.3,0,0,1-2.38-2.55,11.78,11.78,0,0,1-.26-2.7,6,6,0,0,0-.06-1.08V205.34h8a7.05,7.05,0,0,1,4.08,1,7.37,7.37,0,0,1,2.24,2.41,7.83,7.83,0,0,1,.93,2.64,16.21,16.21,0,0,1,.18,1.71v.43h.92V196.32H407v.43a14.65,14.65,0,0,1-.18,1.65,7.67,7.67,0,0,1-3.05,5,6.64,6.64,0,0,1-3.9,1.12h-8.33v-23h11a12.92,12.92,0,0,1,5.88,1.14,10.13,10.13,0,0,1,3.52,2.87,12.07,12.07,0,0,1,1.91,3.85c.41,1.41.78,2.8,1.1,4.13v.25h.92v-13.1H377.34v.86h2.15c1.93.12,3.27.56,4,1.33s1.1,2.24,1.1,4.36a2.69,2.69,0,0,0,0,.4,1.73,1.73,0,0,1,0,.32v34.62a10.28,10.28,0,0,1-.35,3,3.3,3.3,0,0,1-1.12,1.68,4.45,4.45,0,0,1-2.13.82,23.34,23.34,0,0,1-3.41.21h-.25v.92h40.13l1.8-14.78h-.91Z"/><path class="cls-1" d="M465.79,187.76a21.45,21.45,0,0,0-7.22-5.22,22.5,22.5,0,0,0-9.28-1.88H423.24v.86h2.09c1.93.12,3.29.56,4,1.33s1.13,2.24,1.13,4.36v35.34a10.28,10.28,0,0,1-.35,3,3.3,3.3,0,0,1-1.12,1.68,4.41,4.41,0,0,1-2.1.82,22.71,22.71,0,0,1-3.38.21h-.25v.92h26a23.57,23.57,0,0,0,9.28-1.88,21.09,21.09,0,0,0,7.22-5.28,23.35,23.35,0,0,0,4.64-7.73,28.1,28.1,0,0,0,0-18.75A23.38,23.38,0,0,0,465.79,187.76Zm-25.73,40.1a3.36,3.36,0,0,1-1.51-.92,3.68,3.68,0,0,1-.81-1.63,11.25,11.25,0,0,1-.26-2.7,3.86,3.86,0,0,0,0-.6c0-.17,0-.33,0-.48V187.15a12.62,12.62,0,0,1,.23-2.59,3.32,3.32,0,0,1,2.13-2.58,7.85,7.85,0,0,1,2.13-.46h6.64a13.87,13.87,0,0,1,6.31,1.82,17,17,0,0,1,2.81,2.13,18.9,18.9,0,0,1,2.45,2.84,25.26,25.26,0,0,1,3.51,7.49,32.5,32.5,0,0,1,1.25,9.11,31.87,31.87,0,0,1-1.25,9.05,26.24,26.24,0,0,1-3.51,7.49,18.34,18.34,0,0,1-2.45,2.84,17,17,0,0,1-2.81,2.12,13.92,13.92,0,0,1-6.83,1.83h-5.45A9.71,9.71,0,0,1,440.06,227.86Z"/><path class="cls-1" d="M526.88,207.48a17.81,17.81,0,0,0-5.3-4.17l-6.89-3.54a26.34,26.34,0,0,1-7.43-5.73,10.39,10.39,0,0,1-2.61-5.36,5.91,5.91,0,0,1,1.2-4.38,8.46,8.46,0,0,1,4.17-2.79,12.54,12.54,0,0,1,2-.44,13.57,13.57,0,0,1,6.63.64A12,12,0,0,1,522.5,184a15.61,15.61,0,0,1,1.65,1.86,16.46,16.46,0,0,1,1.47,2.36,14.83,14.83,0,0,1,1,2.63,9.58,9.58,0,0,1,.38,2.57v.25h1V180.18h-.81l-.08.12a3.59,3.59,0,0,1-1.56,1.52,4.22,4.22,0,0,1-1.93.34,7.74,7.74,0,0,1-2.09-.41c-.72-.24-1.4-.47-2-.71a14.84,14.84,0,0,0-5.49-1,17.11,17.11,0,0,0-2.5.18,11.22,11.22,0,0,0-2.45.68,16.2,16.2,0,0,0-4.66,2.62,13.2,13.2,0,0,0-3.27,3.79,11.51,11.51,0,0,0-1.47,4.6,10.66,10.66,0,0,0,.7,4.94,14.45,14.45,0,0,0,3.21,4.82,22.19,22.19,0,0,0,6.06,4.28l7.56,3.9a11.72,11.72,0,0,1,4.82,4.26,9.1,9.1,0,0,1,1.38,5,8.78,8.78,0,0,1-1.55,4.64,9.64,9.64,0,0,1-4,3.33,16.65,16.65,0,0,1-5,1h-.54a14.88,14.88,0,0,1-5-1,14.17,14.17,0,0,1-4.25-2.57,8.48,8.48,0,0,1-1.69-2.15,19.63,19.63,0,0,1-1.3-2.87,23.19,23.19,0,0,1-.83-3,14.87,14.87,0,0,1-.29-2.74l-.06-.25H498V229.1h.67l.25-.06v-.21c0-.09.12-.3.33-.74a2.32,2.32,0,0,1,1-1,4.81,4.81,0,0,1,2.19-.45,10.9,10.9,0,0,1,3.84.9,3.58,3.58,0,0,0,.63.25,14,14,0,0,0,5.31,1h.6c.28,0,.56,0,.83,0l.88-.09v0a23.47,23.47,0,0,0,7.46-2.2,16.62,16.62,0,0,0,5.09-3.84,11.38,11.38,0,0,0,2.54-4.87,11,11,0,0,0-.06-5.28A12.89,12.89,0,0,0,526.88,207.48Z"/><path class="cls-1" d="M578.53,227.79a3.72,3.72,0,0,1-1.71-.79,7.77,7.77,0,0,1-1.74-2,26.86,26.86,0,0,1-2-4L557,180.76l-.06-.16h-.82L540,221.08a11.49,11.49,0,0,1-2.52,4,12.4,12.4,0,0,1-2.79,2.09,7,7,0,0,1-2.25.78l-1,.12h-.24V229h16.52v-.92h-.25l-.77,0a11,11,0,0,1-1.67-.23,11.6,11.6,0,0,1-2-.65,4.74,4.74,0,0,1-1.68-1.2,3.79,3.79,0,0,1-.87-1.91,5.62,5.62,0,0,1,.5-2.9L545.4,210h16.4l4.37,11a16.47,16.47,0,0,1,1.19,4.16,2.14,2.14,0,0,1-.58,1.92,3.88,3.88,0,0,1-2.17.75c-1,.1-2.26.19-3.68.27h-.23V229h20.18v-.89l-.22,0ZM545.78,209.1l7.84-19.54,7.8,19.54Z"/><path class="cls-1" d="M583.2,181.46h2.09a13.56,13.56,0,0,1,2.5.41,3.45,3.45,0,0,1,1.56.89,3.52,3.52,0,0,1,.84,1.63,11.19,11.19,0,0,1,.27,2.7v35.34a10.4,10.4,0,0,1-.35,3,3.38,3.38,0,0,1-1.12,1.67,4.41,4.41,0,0,1-2.1.82h0a22.71,22.71,0,0,1-3.38.21h-.25V229h21.38v-.92h-2.1a9.89,9.89,0,0,1-2.49-.38,3.58,3.58,0,0,1-1.57-.92,3.62,3.62,0,0,1-.84-1.66,11.32,11.32,0,0,1-.26-2.67V205.22h8a7.05,7.05,0,0,1,4.08,1,7.16,7.16,0,0,1,2.21,2.38,8.44,8.44,0,0,1,.93,2.62,13.9,13.9,0,0,1,.21,1.7v.43h.86V196.14h-.86v.43a12.49,12.49,0,0,1-.21,1.7,8.59,8.59,0,0,1-.91,2.56,7,7,0,0,1-2.11,2.38,6.79,6.79,0,0,1-3.9,1.09h-8.33V181.46h11a13,13,0,0,1,5.88,1.14,10.13,10.13,0,0,1,3.52,2.87,12.34,12.34,0,0,1,1.91,3.82c.41,1.41.79,2.79,1.1,4v.37h.92V180.48H583.2Z"/><path class="cls-1" d="M665.4,214.58a20.37,20.37,0,0,1-2.67,6.88,17.32,17.32,0,0,1-2,2.51,12.64,12.64,0,0,1-2.62,2.15,14.53,14.53,0,0,1-3.45,1.53,15.13,15.13,0,0,1-4.36.59h-6.66a9.48,9.48,0,0,1-2.45-.38,3.3,3.3,0,0,1-2.38-2.55,11.25,11.25,0,0,1-.26-2.7,5.81,5.81,0,0,0-.07-1.08V205.34h8a7.08,7.08,0,0,1,4.09,1,7.48,7.48,0,0,1,2.24,2.41,7.83,7.83,0,0,1,.93,2.64,15.25,15.25,0,0,1,.17,1.71v.43h.92V196.32H654v.43a13.83,13.83,0,0,1-.17,1.65,7.91,7.91,0,0,1-.9,2.55,7.73,7.73,0,0,1-2.16,2.41,6.59,6.59,0,0,1-3.9,1.12h-8.33v-23h11a13,13,0,0,1,5.89,1.14,10,10,0,0,1,3.51,2.87,11.87,11.87,0,0,1,1.91,3.85c.42,1.41.79,2.8,1.11,4.13v.25h.92v-13.1H624.35v.86h2.16c1.92.12,3.27.56,4,1.33s1.1,2.24,1.1,4.36a2.71,2.71,0,0,0,0,.4,1.73,1.73,0,0,1,0,.32v34.62a10.28,10.28,0,0,1-.35,3,3.36,3.36,0,0,1-1.12,1.68,4.45,4.45,0,0,1-2.13.82,23.39,23.39,0,0,1-3.42.21h-.25v.92h40.14l1.8-14.78h-.91Z"/><path class="cls-1" d="M670.07,193.58H671v-.31c.28-1.23.62-2.53,1-3.86a13.15,13.15,0,0,1,1.77-3.68,10.09,10.09,0,0,1,3.1-2.87,11.63,11.63,0,0,1,5.09-1.4h.34a12.91,12.91,0,0,1,2.47.41,3.43,3.43,0,0,1,1.54.89,3.61,3.61,0,0,1,.84,1.63,11.19,11.19,0,0,1,.26,2.7v35.34a10.45,10.45,0,0,1-.34,3A3.55,3.55,0,0,1,686,227.1a4.25,4.25,0,0,1-2.1.81,23.39,23.39,0,0,1-3.42.21h-.25V229h21.38v-.92h-2.1a9.48,9.48,0,0,1-2.45-.38,3.53,3.53,0,0,1-1.54-.92,3.62,3.62,0,0,1-.84-1.66,11.26,11.26,0,0,1-.27-2.67V187c0-2,.34-3.42,1-4.19a5.08,5.08,0,0,1,3.49-1.38h.53a11.87,11.87,0,0,1,5.14,1.4,9.76,9.76,0,0,1,3.1,2.87,13.8,13.8,0,0,1,1.74,3.68c.39,1.33.75,2.62,1.06,3.83v.34h.92v-13.1h-41.3Z"/><path class="cls-1" d="M749.4,181.52h.25c.22,0,.55,0,1,.06a4,4,0,0,1,1.19.31,2.48,2.48,0,0,1,1.53,2.28,7.94,7.94,0,0,1-.41,2.67,24.87,24.87,0,0,1-1.81,4.09l-9,16.46-12.33-22.65a2.23,2.23,0,0,1-.43-1.63,1.72,1.72,0,0,1,.71-.94,3.55,3.55,0,0,1,1.35-.5c.55-.1,1.05-.17,1.45-.21h1.27v-.86H715v.86h.25c.27,0,.74,0,1.42.12a11.42,11.42,0,0,1,2.23.53,9.46,9.46,0,0,1,2.45,1.28,7.18,7.18,0,0,1,2,2.32l0,.06a.79.79,0,0,1,.1.17l.45.88q.36.69,1.11,2.07l2.13,3.9,3.45,6.33,5,9.27v14a10.51,10.51,0,0,1-.34,3,3.25,3.25,0,0,1-1.12,1.67,4.62,4.62,0,0,1-2.1.79,22.76,22.76,0,0,1-3.39.21h-.25v1H749.9v-1h-2.12c-1.95,0-3.33-.4-4.07-1.18s-1.14-2.27-1.14-4.39v-14.1l9.4-17.22a18.2,18.2,0,0,1,3.84-5.09,20.42,20.42,0,0,1,4.09-2.91,14.66,14.66,0,0,1,3.48-1.33,13,13,0,0,1,2.1-.32h.5v-.92H749.4Z"/><path class="cls-1" d="M776.91,222.4a4,4,0,0,0-5.57,0,3.74,3.74,0,0,0-1.13,2.73,3.91,3.91,0,1,0,7.82,0A3.73,3.73,0,0,0,776.91,222.4Z"/></g></g></svg>