<svg xmlns="http://www.w3.org/2000/svg" viewBox="0 0 422.24 129.45"><defs><style>.cls-1{fill:#53575a;}.cls-2{fill:#ff8300;}</style></defs><g id="Layer_2" data-name="Layer 2"><g id="Layer_1-2" data-name="Layer 1"><path class="cls-1" d="M0,51.74l1.14-.13a7.89,7.89,0,0,0,2.53-.88,13.3,13.3,0,0,0,3.09-2.31,12.66,12.66,0,0,0,2.79-4.48L27,.26h.52L45,43.81a28.66,28.66,0,0,0,2.14,4.39,8.62,8.62,0,0,0,2,2.27,4.33,4.33,0,0,0,2,.91l2.31.36v.45H32v-.45c1.56-.09,2.9-.18,4-.29a4.45,4.45,0,0,0,2.5-.88,2.56,2.56,0,0,0,.72-2.31A18,18,0,0,0,38,43.68L33.15,31.59H15L10.08,43.88a6.16,6.16,0,0,0-.56,3.28,4.35,4.35,0,0,0,1,2.21,5.32,5.32,0,0,0,1.92,1.36,12,12,0,0,0,4.06,1l.84,0v.45H0ZM24.12,9,15.21,31.13H33Z"/><path class="cls-1" d="M102.63,44.65a22.41,22.41,0,0,1-7.73,5.66,25.23,25.23,0,0,1-9.94,2H57.07v-.45a25.33,25.33,0,0,0,3.7-.23,5,5,0,0,0,2.41-.94,3.9,3.9,0,0,0,1.3-2,11.37,11.37,0,0,0,.39-3.32V7.15q0-3.57-1.3-4.91C62.7,1.35,61.19.84,59,.71H57V.32H85a24.06,24.06,0,0,1,9.94,2,22.73,22.73,0,0,1,7.73,5.59,24.8,24.8,0,0,1,5,8.32,29.47,29.47,0,0,1,1.72,10.07,29.23,29.23,0,0,1-1.72,10A24.82,24.82,0,0,1,102.63,44.65Zm-11.5,5.2a18.76,18.76,0,0,0,3.09-2.34,20.61,20.61,0,0,0,2.7-3.12,28.61,28.61,0,0,0,3.83-8.19,34.64,34.64,0,0,0,1.37-9.88,35.32,35.32,0,0,0-1.37-9.94,27.63,27.63,0,0,0-3.83-8.19,20.61,20.61,0,0,0-2.7-3.12,18.76,18.76,0,0,0-3.09-2.34,15.17,15.17,0,0,0-7-2H77a8.91,8.91,0,0,0-2.41.52A4.07,4.07,0,0,0,73,2.34a4.33,4.33,0,0,0-.88,1.88,13.75,13.75,0,0,0-.25,2.86V44.33a3.51,3.51,0,0,0,0,.55,6.13,6.13,0,0,1,0,.62,13,13,0,0,0,.29,3,4.42,4.42,0,0,0,.94,1.89,4.07,4.07,0,0,0,1.76,1.07,10.39,10.39,0,0,0,2.79.42h5.92A15.32,15.32,0,0,0,91.13,49.85Z"/><path class="cls-1" d="M142.15,43.55l14-35a6.52,6.52,0,0,0,.58-3.28,4.12,4.12,0,0,0-1-2.21,5.29,5.29,0,0,0-2-1.37A13.07,13.07,0,0,0,151.55,1a11.57,11.57,0,0,0-1.86-.26l-.84,0V.26h17.36V.71L165.1.84a7.92,7.92,0,0,0-2.5.88A13.3,13.3,0,0,0,159.51,4a12.67,12.67,0,0,0-2.8,4.48L139.17,52.19h-.53L121.22,8.71a28,28,0,0,0-2.14-4.45A9.23,9.23,0,0,0,117.16,2a4.24,4.24,0,0,0-2-.91L112.9.71V.26h21.32V.71c-1.55.09-2.9.19-4,.3a4.23,4.23,0,0,0-2.5.91A2.78,2.78,0,0,0,127,4.26a15.73,15.73,0,0,0,1.26,4.51Z"/><path class="cls-1" d="M154.37,51.74l1.14-.13a7.94,7.94,0,0,0,2.54-.88,13.48,13.48,0,0,0,3.08-2.31,12.53,12.53,0,0,0,2.8-4.48L181.41.26h.52l17.42,43.55a28.55,28.55,0,0,0,2.15,4.39,8.79,8.79,0,0,0,1.95,2.27,4.42,4.42,0,0,0,2,.91l2.31.36v.45H186.42v-.45c1.56-.09,2.89-.18,4-.29a4.48,4.48,0,0,0,2.5-.88,2.58,2.58,0,0,0,.71-2.31,17.57,17.57,0,0,0-1.3-4.58l-4.81-12.09H169.39l-4.94,12.29a6.14,6.14,0,0,0-.55,3.28,4.34,4.34,0,0,0,1,2.21,5.32,5.32,0,0,0,1.92,1.36,11.59,11.59,0,0,0,2.21.72,11.46,11.46,0,0,0,1.85.26l.85,0v.45H154.37ZM178.49,9l-8.91,22.16h17.75Z"/><path class="cls-1" d="M272.54.32V.78h-1a17.83,17.83,0,0,0-2.76.29,12.11,12.11,0,0,0-3.35,1.11,8.17,8.17,0,0,0-2.83,2.37,6.65,6.65,0,0,0-1.2,4.16V52.32h-.52L222.69,4.48v39.4a6.76,6.76,0,0,0,1.2,4.22,8.08,8.08,0,0,0,2.83,2.37,12.11,12.11,0,0,0,3.35,1.11,17.71,17.71,0,0,0,2.76.29h1v.45H211.05v-.45h1a18,18,0,0,0,2.76-.29,12.22,12.22,0,0,0,3.35-1.11A8.26,8.26,0,0,0,221,48.1a6.76,6.76,0,0,0,1.2-4.22v-37c0-1,0-1.94-.07-2.7a3.72,3.72,0,0,0-.58-1.92,3,3,0,0,0-1.72-1.13,12.92,12.92,0,0,0-3.48-.36h-2V.32h13.91L260.91,41V8.71a6.65,6.65,0,0,0-1.2-4.16,8.26,8.26,0,0,0-2.83-2.37,12.22,12.22,0,0,0-3.35-1.11,18,18,0,0,0-2.76-.29h-1V.32h22.75Z"/><path class="cls-1" d="M273.65,26.26v-.07h-.26A28.76,28.76,0,0,1,275.21,16a26.39,26.39,0,0,1,4.94-8.32,27.23,27.23,0,0,1,3.35-3.19A21.07,21.07,0,0,1,296.27,0a16.29,16.29,0,0,1,6.37,1.23h.06a.38.38,0,0,0,.26.13l.07.07.88.39q.42.19.87.45a13.37,13.37,0,0,0,5.33,1.63A5.37,5.37,0,0,0,313,3.25,3.3,3.3,0,0,0,314.53,1H315V19.89h-.46a31.28,31.28,0,0,0-.94-4.55,30.81,30.81,0,0,0-1.46-4A23.5,23.5,0,0,0,310.21,8a20.31,20.31,0,0,0-2.31-2.77A16.31,16.31,0,0,0,297.24.45a11.66,11.66,0,0,0-6.5,2A18.67,18.67,0,0,0,285.41,8a30.08,30.08,0,0,0-3.6,8.23,36.68,36.68,0,0,0-1.34,10,35.22,35.22,0,0,0,2.18,12.61A25.09,25.09,0,0,0,288.34,48a17.38,17.38,0,0,0,3.18,2.31,19.23,19.23,0,0,0,2.6,1.2,6.33,6.33,0,0,0,1.53.36,12.34,12.34,0,0,0,1.59.1q1.36-.14,2.64-.39a14.38,14.38,0,0,0,2.56-.78,16.06,16.06,0,0,0,5.4-3.64,14.43,14.43,0,0,0,2.31-2.7A29.42,29.42,0,0,0,312,41.21a24.09,24.09,0,0,0,1.49-4,44.34,44.34,0,0,0,1-4.55l.45.06a29.57,29.57,0,0,1-2.53,8.71,21.39,21.39,0,0,1-4.23,6.18,18.28,18.28,0,0,1-5.59,3.64,15.77,15.77,0,0,1-6.3,1.23,19.74,19.74,0,0,1-8.91-2.07,22.84,22.84,0,0,1-7.21-5.6,26.39,26.39,0,0,1-4.94-8.32,28.76,28.76,0,0,1-1.82-10.2Z"/><path class="cls-1" d="M352.88,51.22a15.56,15.56,0,0,0,3.8-1.69,14.14,14.14,0,0,0,2.9-2.37,19.58,19.58,0,0,0,2.14-2.77,22.31,22.31,0,0,0,2.93-7.54h.45l-1.88,15.47h-43v-.45a26.22,26.22,0,0,0,3.74-.23,5.06,5.06,0,0,0,2.44-.94,4,4,0,0,0,1.3-2,11.37,11.37,0,0,0,.39-3.32V7.93a1.72,1.72,0,0,0,0-.39,2.56,2.56,0,0,1,0-.39q0-3.57-1.27-4.91c-.84-.89-2.35-1.4-4.51-1.53h-2.08V.32H361.4V14h-.46v-.06c-.35-1.43-.75-2.93-1.2-4.49a13.43,13.43,0,0,0-2.11-4.25A11.21,11.21,0,0,0,353.73,2a14.37,14.37,0,0,0-6.5-1.27H335V26.13h9.29a7.43,7.43,0,0,0,4.39-1.27,8.64,8.64,0,0,0,3.41-5.56,16.46,16.46,0,0,0,.2-1.82v-.19h.45V35.42h-.45v-.19a18.73,18.73,0,0,0-.2-1.89,8.58,8.58,0,0,0-1-3,8.16,8.16,0,0,0-2.5-2.7A7.84,7.84,0,0,0,344,26.52h-9V44.33a7.62,7.62,0,0,1,.06,1.17,13,13,0,0,0,.29,3,4.15,4.15,0,0,0,1,1.89,4.24,4.24,0,0,0,1.79,1.07,10,10,0,0,0,2.73.42h7.21A16.66,16.66,0,0,0,352.88,51.22Z"/><path class="cls-1" d="M415.54,44.65a22.5,22.5,0,0,1-7.73,5.66,25.28,25.28,0,0,1-9.95,2H370v-.45a25.42,25.42,0,0,0,3.7-.23,5,5,0,0,0,2.41-.94,4,4,0,0,0,1.3-2,11.37,11.37,0,0,0,.39-3.32V7.15c0-2.38-.44-4-1.3-4.91S374.09.84,371.93.71h-2V.32h27.95a24.07,24.07,0,0,1,9.95,2,22.83,22.83,0,0,1,7.73,5.59,24.62,24.62,0,0,1,5,8.32,29.23,29.23,0,0,1,1.73,10.07,29,29,0,0,1-1.73,10A24.63,24.63,0,0,1,415.54,44.65ZM404,49.85a18.28,18.28,0,0,0,3.08-2.34,19.54,19.54,0,0,0,2.7-3.12,28.36,28.36,0,0,0,3.84-8.19A34.64,34.64,0,0,0,415,26.32a35.32,35.32,0,0,0-1.36-9.94,27.4,27.4,0,0,0-3.84-8.19,19.54,19.54,0,0,0-2.7-3.12A18.28,18.28,0,0,0,404,2.73a15.17,15.17,0,0,0-7-2h-7.21a8.74,8.74,0,0,0-2.41.52,4,4,0,0,0-1.59,1.11A4.33,4.33,0,0,0,385,4.22a13.68,13.68,0,0,0-.26,2.86V44.33a5.36,5.36,0,0,0,0,.55,4.12,4.12,0,0,1,0,.62,12.42,12.42,0,0,0,.29,3,4.31,4.31,0,0,0,.94,1.89,4,4,0,0,0,1.76,1.07,10.33,10.33,0,0,0,2.79.42h5.92A15.32,15.32,0,0,0,404,49.85Z"/><path class="cls-1" d="M53.76,112.81h.52a15.64,15.64,0,0,0,.32,3,24,24,0,0,0,.91,3.31,19.55,19.55,0,0,0,1.43,3.15,9,9,0,0,0,1.89,2.41,15.5,15.5,0,0,0,4.68,2.83A16.08,16.08,0,0,0,69,128.61h.59a18,18,0,0,0,5.52-1.11,10.57,10.57,0,0,0,4.42-3.7,9.68,9.68,0,0,0,1.72-5.17,10,10,0,0,0-1.52-5.52,13,13,0,0,0-5.33-4.72l-8.19-4.22a24,24,0,0,1-6.5-4.58,15.37,15.37,0,0,1-3.42-5.14,11.24,11.24,0,0,1-.74-5.23,12.11,12.11,0,0,1,1.56-4.88,14.21,14.21,0,0,1,3.47-4,17.52,17.52,0,0,1,5-2.79,11.34,11.34,0,0,1,2.6-.72,17.82,17.82,0,0,1,2.66-.19,15.87,15.87,0,0,1,5.85,1.1c.69.26,1.43.52,2.21.78a8.82,8.82,0,0,0,2.34.46,4.86,4.86,0,0,0,2.21-.39,4.12,4.12,0,0,0,1.82-1.76h.46V90.91h-.52a10.62,10.62,0,0,0-.43-2.86,15.89,15.89,0,0,0-1.13-2.89A17.55,17.55,0,0,0,82,82.56a15.71,15.71,0,0,0-1.82-2,13.19,13.19,0,0,0-4.29-2.57,14.77,14.77,0,0,0-5.07-.88,15.57,15.57,0,0,0-2.24.17,14.75,14.75,0,0,0-2.18.48,9.38,9.38,0,0,0-4.65,3.12,6.66,6.66,0,0,0-1.36,4.94,11.48,11.48,0,0,0,2.89,6A28.84,28.84,0,0,0,71.44,98l7.47,3.84a19,19,0,0,1,5.66,4.45,13.69,13.69,0,0,1,2.86,5.36,11.75,11.75,0,0,1,.06,5.59,11.9,11.9,0,0,1-2.7,5.17,17.62,17.62,0,0,1-5.42,4.1,25.44,25.44,0,0,1-8.13,2.37h.13l-.94.1c-.28,0-.58,0-.88,0H68.9a14.85,14.85,0,0,1-5.65-1.11v0a3.81,3.81,0,0,1-.65-.26,12,12,0,0,0-4.29-1,5.4,5.4,0,0,0-2.51.52,2.72,2.72,0,0,0-1.2,1.17,8.34,8.34,0,0,0-.39.87v.07h-.45Z"/><path class="cls-1" d="M93,103.26v-.07h-.27a29.75,29.75,0,0,1,.46-5.2,29,29,0,0,1,1.37-5,26.39,26.39,0,0,1,4.94-8.32,27.15,27.15,0,0,1,3.34-3.19,19.25,19.25,0,0,1,3.87-2.4,19.58,19.58,0,0,1,8.9-2.08A16.25,16.25,0,0,1,122,78.23h.07a.36.36,0,0,0,.26.13l.07.07.87.39c.28.13.58.28.88.45a13.33,13.33,0,0,0,5.33,1.63,5.39,5.39,0,0,0,2.93-.65A3.33,3.33,0,0,0,133.9,78h.46V96.89h-.46a32.66,32.66,0,0,0-.94-4.55,32.33,32.33,0,0,0-1.46-4A24.52,24.52,0,0,0,129.58,85a21.88,21.88,0,0,0-2.31-2.77,16.31,16.31,0,0,0-10.66-4.81,11.63,11.63,0,0,0-6.5,2A18.54,18.54,0,0,0,104.78,85a30.09,30.09,0,0,0-3.61,8.23,36.68,36.68,0,0,0-1.33,10A35.22,35.22,0,0,0,102,115.87a25.09,25.09,0,0,0,5.69,9.16,17,17,0,0,0,3.18,2.31,18.68,18.68,0,0,0,2.6,1.2,6.33,6.33,0,0,0,1.53.36,12.34,12.34,0,0,0,1.59.1,26.37,26.37,0,0,0,2.63-.39,14.47,14.47,0,0,0,2.57-.78,16.06,16.06,0,0,0,5.4-3.64,14,14,0,0,0,2.3-2.7,29.46,29.46,0,0,0,1.86-3.28,24.09,24.09,0,0,0,1.49-4,41.87,41.87,0,0,0,1-4.55l.46.06a29.57,29.57,0,0,1-2.54,8.71,21.17,21.17,0,0,1-4.22,6.18,18.4,18.4,0,0,1-5.59,3.64,15.82,15.82,0,0,1-6.31,1.23,19.58,19.58,0,0,1-8.9-2.08,22.56,22.56,0,0,1-7.21-5.59,26.39,26.39,0,0,1-4.94-8.32,28.75,28.75,0,0,1-1.37-5,29.67,29.67,0,0,1-.46-5.2Z"/><path class="cls-1" d="M143.42,128.64a5.06,5.06,0,0,0,2.44-.94,4,4,0,0,0,1.3-2,11.37,11.37,0,0,0,.39-3.32V84.15q0-3.57-1.27-4.91t-4.52-1.53h-2.08v-.39H162.3v.33h0v.06h-2.6a6.17,6.17,0,0,0-4.06,1.63q-1.14,1.3-1.14,4.74V122.5a12.36,12.36,0,0,0,.3,3,4.06,4.06,0,0,0,1,1.88,4.21,4.21,0,0,0,1.82,1.08,10.55,10.55,0,0,0,2.76.42h2v.45H139.68v-.45A26.12,26.12,0,0,0,143.42,128.64Z"/><path class="cls-1" d="M199.61,128.22a15.81,15.81,0,0,0,3.81-1.69,14.35,14.35,0,0,0,2.89-2.37,18.87,18.87,0,0,0,2.14-2.77,22.31,22.31,0,0,0,2.93-7.54h.45L210,129.32H167v-.45a26.12,26.12,0,0,0,3.74-.23,5.06,5.06,0,0,0,2.44-.94,4,4,0,0,0,1.3-2,11.37,11.37,0,0,0,.39-3.32V84.93a2.56,2.56,0,0,0,0-.39,1.72,1.72,0,0,1,0-.39q0-3.57-1.26-4.91T169,77.71h-2.08v-.39h41.21V91h-.46v-.06c-.34-1.43-.74-2.93-1.2-4.49a13.22,13.22,0,0,0-2.11-4.25,11.21,11.21,0,0,0-3.9-3.19,14.37,14.37,0,0,0-6.5-1.27H181.74v25.42H191a7.41,7.41,0,0,0,4.39-1.27,8.53,8.53,0,0,0,3.41-5.56,16.46,16.46,0,0,0,.2-1.82v-.19h.45v18.13H199v-.19a18.73,18.73,0,0,0-.2-1.89,8.38,8.38,0,0,0-1-3,8.06,8.06,0,0,0-2.5-2.7,7.82,7.82,0,0,0-4.58-1.17h-9v17.81a7.62,7.62,0,0,1,.06,1.17,12.36,12.36,0,0,0,.3,3,4.06,4.06,0,0,0,1,1.88,4.22,4.22,0,0,0,1.79,1.08,10,10,0,0,0,2.73.42h7.21A16.66,16.66,0,0,0,199.61,128.22Z"/><path class="cls-1" d="M276.77,77.32v.46h-1a18,18,0,0,0-2.76.29,12.11,12.11,0,0,0-3.35,1.11,8.26,8.26,0,0,0-2.83,2.37,6.65,6.65,0,0,0-1.2,4.16v43.61h-.52L226.91,81.48v39.39a6.71,6.71,0,0,0,1.21,4.23,8.14,8.14,0,0,0,2.82,2.37,12.22,12.22,0,0,0,3.35,1.11,18,18,0,0,0,2.76.29h1v.45H215.28v-.45h1a17.71,17.71,0,0,0,2.76-.29,12.11,12.11,0,0,0,3.35-1.11,8.08,8.08,0,0,0,2.83-2.37,6.77,6.77,0,0,0,1.2-4.23v-37q0-1.56-.06-2.7a3.82,3.82,0,0,0-.59-1.92A3,3,0,0,0,224,78.14a12.82,12.82,0,0,0-3.48-.36h-2v-.46h13.91L265.13,118V85.71a6.65,6.65,0,0,0-1.2-4.16,8.08,8.08,0,0,0-2.83-2.37,12.11,12.11,0,0,0-3.35-1.11,17.71,17.71,0,0,0-2.76-.29h-1v-.46h22.75Z"/><path class="cls-1" d="M277.87,103.26v-.07h-.26a28.82,28.82,0,0,1,.46-5.2,29.89,29.89,0,0,1,1.36-5,26.57,26.57,0,0,1,4.94-8.32,28,28,0,0,1,3.35-3.19,19.25,19.25,0,0,1,3.87-2.4,19.58,19.58,0,0,1,8.9-2.08,16.25,16.25,0,0,1,6.37,1.23h.07a.35.35,0,0,0,.26.13l.06.07.88.39c.28.13.57.28.88.45a13.33,13.33,0,0,0,5.33,1.63,5.33,5.33,0,0,0,2.92-.65,3.34,3.34,0,0,0,1.5-2.28h.45V96.89h-.45a32.66,32.66,0,0,0-.94-4.55,30.82,30.82,0,0,0-1.47-4A23.45,23.45,0,0,0,314.44,85a21.88,21.88,0,0,0-2.31-2.77,16.31,16.31,0,0,0-10.66-4.81,11.61,11.61,0,0,0-6.5,2A18.42,18.42,0,0,0,289.64,85,30.09,30.09,0,0,0,286,93.22a36.68,36.68,0,0,0-1.33,10,35,35,0,0,0,2.18,12.61,25.08,25.08,0,0,0,5.68,9.16,17.42,17.42,0,0,0,3.19,2.31,18.17,18.17,0,0,0,2.6,1.2,6.12,6.12,0,0,0,1.53.36,12.34,12.34,0,0,0,1.59.1c.91-.09,1.78-.22,2.63-.39a14.47,14.47,0,0,0,2.57-.78,15.92,15.92,0,0,0,5.39-3.64,13.72,13.72,0,0,0,2.31-2.7,27.91,27.91,0,0,0,1.85-3.28,23.26,23.26,0,0,0,1.5-4,44.38,44.38,0,0,0,1-4.55l.46.06a29.57,29.57,0,0,1-2.54,8.71,21.17,21.17,0,0,1-4.22,6.18,18.4,18.4,0,0,1-5.59,3.64,15.82,15.82,0,0,1-6.31,1.23,19.58,19.58,0,0,1-8.9-2.08,22.7,22.7,0,0,1-7.22-5.59,26.57,26.57,0,0,1-4.94-8.32,29.63,29.63,0,0,1-1.36-5,28.74,28.74,0,0,1-.46-5.2Z"/><path class="cls-1" d="M357.11,128.22a15.74,15.74,0,0,0,3.8-1.69,14.07,14.07,0,0,0,2.89-2.37,19.66,19.66,0,0,0,2.15-2.77,22.3,22.3,0,0,0,2.92-7.54h.46l-1.89,15.47h-43v-.45a26,26,0,0,0,3.73-.23,5.06,5.06,0,0,0,2.44-.94,3.9,3.9,0,0,0,1.3-2,11.37,11.37,0,0,0,.39-3.32V84.93a2.56,2.56,0,0,0,0-.39,2.56,2.56,0,0,1,0-.39c0-2.38-.43-4-1.27-4.91s-2.35-1.4-4.52-1.53h-2.08v-.39h41.21V91h-.45v-.06c-.35-1.43-.75-2.93-1.21-4.49a13.22,13.22,0,0,0-2.11-4.25A11,11,0,0,0,358,79a14.34,14.34,0,0,0-6.5-1.27H339.23v25.42h9.3a7.4,7.4,0,0,0,4.38-1.27,8.34,8.34,0,0,0,2.41-2.7,8.56,8.56,0,0,0,1-2.86,15.63,15.63,0,0,0,.19-1.82v-.19H357v18.13h-.46v-.19a17.68,17.68,0,0,0-.19-1.89,8.58,8.58,0,0,0-1-3,8.2,8.2,0,0,0-2.51-2.7,7.82,7.82,0,0,0-4.58-1.17h-9v17.81a7.26,7.26,0,0,1,.07,1.17,12.42,12.42,0,0,0,.29,3,4.06,4.06,0,0,0,1,1.88,4.22,4.22,0,0,0,1.79,1.08,10.18,10.18,0,0,0,2.73.42h7.22A16.71,16.71,0,0,0,357.11,128.22Z"/><path class="cls-2" d="M117.31,58a1.56,1.56,0,0,1,.36,1.12c0,.41,0,.85,0,1.32-.07,1.16-.09,2.42-.05,3.78s.05,2.69.05,4,0,2.55-.05,3.77a4.52,4.52,0,0,1-1.07,3h-.82a3.29,3.29,0,0,1-.77-1.58,15.85,15.85,0,0,1-.35-2.3c-.07-1.49-.09-3.06,0-4.69a44.05,44.05,0,0,1,.35-4.79c.07-.41.14-.89.21-1.43a5.55,5.55,0,0,1,.35-1.43,1.67,1.67,0,0,1,.72-.87A1.18,1.18,0,0,1,117.31,58Zm.51-19.79a2.34,2.34,0,0,1-.82,1.63,1.1,1.1,0,0,1-1.17-.2,1.7,1.7,0,0,1-.41-1,1.24,1.24,0,0,1,.31-1,1.29,1.29,0,0,1,1.17-.31C117.45,37.65,117.75,37.92,117.82,38.19Z"/><path class="cls-2" d="M143.42,74.19a7.1,7.1,0,0,0,1.69-1.93c.44-.75.9-1.5,1.37-2.25s.94-1.49,1.38-2.24.87-1.5,1.27-2.25a23.36,23.36,0,0,0,1.43-2c.48-.74,1-1.49,1.53-2.24.34-.47.68-1,1-1.48a6,6,0,0,1,1.18-1.32,3.08,3.08,0,0,1,1.47-.72,3.35,3.35,0,0,1,1.84.26,4.41,4.41,0,0,1,1.17,2.5,26.39,26.39,0,0,1,.31,3.31c0,1.16.08,2.31.15,3.47a7.58,7.58,0,0,0,.72,3A5.94,5.94,0,0,0,162,68.43c.57-.78,1.14-1.54,1.68-2.29s1.07-1.65,1.58-2.5a16.92,16.92,0,0,0,1.28-2.6,6.49,6.49,0,0,0,.86-1.79,1.34,1.34,0,0,1,1.69-.87,1.74,1.74,0,0,1-.11,1.89,4.65,4.65,0,0,0-.71,1.89c-.34.61-.65,1.21-.92,1.78s-.54,1.18-.81,1.79a19.3,19.3,0,0,0-2,3.06,10.67,10.67,0,0,1-2.35,3,3.65,3.65,0,0,1-1.27.81,3.34,3.34,0,0,1-1.89.1,3.58,3.58,0,0,1-1.89-1.88,10.42,10.42,0,0,1-.76-3,28.81,28.81,0,0,1-.21-3.57,19.49,19.49,0,0,0-.3-3.52,1.87,1.87,0,0,0-.87.77,11.6,11.6,0,0,1-.77,1.07c-.74,1-1.47,2.1-2.19,3.26s-1.37,2.31-2,3.47a31.78,31.78,0,0,0-2.7,4.54,8.44,8.44,0,0,1-3.52,3.72,4.83,4.83,0,0,0-.71,0,2.19,2.19,0,0,1-.82,0,8.09,8.09,0,0,1-1-.51,9.15,9.15,0,0,1-1.38-4.64q-.15-2.8-.15-5.76t-.1-5.92c-.07-2-.17-3.84-.31-5.61a58.87,58.87,0,0,0-3.77,8.77q-1.63,4.8-3.16,10c-.68,2.45-1.31,5-1.89,7.55s-1.21,5.23-1.89,8c-.13.61-.27,1.23-.41,1.84a7.71,7.71,0,0,1-.56,1.68,3.65,3.65,0,0,1-1,1.28,2.93,2.93,0,0,1-1.63.61,2.07,2.07,0,0,1-1.83-1.48,17.18,17.18,0,0,1-.62-2.7,49.28,49.28,0,0,1,0-8.93c.28-3.16.58-6.17.92-9s.75-5.72,1.23-8.61,1-5.67,1.63-8.32q.3-1.21.66-2.55a2,2,0,0,1,1.79-1.53,1.5,1.5,0,0,1,1.17.21,2,2,0,0,1,.56.81,5,5,0,0,1-.1,2.25,4.86,4.86,0,0,0-.1,2.24,6.93,6.93,0,0,0,.4,1.73,2.72,2.72,0,0,1,.11,1.64.7.7,0,0,1-.67.4,1,1,0,0,1-.76-.3q-.82,5.2-1.53,10.3c-.48,3.4-.82,7-1,10.81q1.72-5.91,3.67-12.34t4.28-12.24c.21-.47.48-1.14.82-2a12.55,12.55,0,0,1,1.28-2.4A6.06,6.06,0,0,1,138.68,51a2.1,2.1,0,0,1,2.19,0,2.73,2.73,0,0,1,1.38,1.63,12.14,12.14,0,0,1,.66,2.76,23.61,23.61,0,0,1,.21,3.21c0,1.12,0,2.13.1,3a53.86,53.86,0,0,1,0,6.48A29.74,29.74,0,0,0,143.42,74.19Z"/><path class="cls-2" d="M169.23,80.62q2.66-6.33,5.71-12.14a32.31,32.31,0,0,1,8-9.89l1-.41a11.08,11.08,0,0,1,1.07-.41,3.46,3.46,0,0,1,3.06.92,5.58,5.58,0,0,1,1.32,2.81,9.24,9.24,0,0,1,0,3.51,14,14,0,0,1-1,3.17,30.17,30.17,0,0,0,3.88-2.55c1.22-1,2.51-1.87,3.87-2.76q1.42-1,2.91-2c1-.68,2-1.36,3-2a7.77,7.77,0,0,0,1.12-.56,1,1,0,0,1,1.23.15,1,1,0,0,1-.31,1.33c-.48.34-.89.65-1.22.92q-4.29,3-8.27,6t-8.16,6a34.24,34.24,0,0,1-2.44,3.83,31.56,31.56,0,0,1-3,3.41c-.41.35-.9.8-1.48,1.38s-1.17,1.12-1.79,1.63a14,14,0,0,1-2,1.38,5.19,5.19,0,0,1-2.1.71c-1.49.21-2.31-.3-2.44-1.53a2.42,2.42,0,0,1,.56-2.14,19.42,19.42,0,0,1,1.48-1.43c.54-.54,1-1,1.47-1.42s.9-.82,1.38-1.23a33.5,33.5,0,0,0,3.27-2.39,33.43,33.43,0,0,1,3.26-2.4c.47-.75,1-1.62,1.48-2.6s1-2,1.38-3c.13-.48.28-1,.46-1.63a13.53,13.53,0,0,0,.35-1.84,5.83,5.83,0,0,0,0-1.73,2.71,2.71,0,0,0-.76-1.43,5.56,5.56,0,0,0-3.57,1.68,35.86,35.86,0,0,0-2.55,2.91,43.79,43.79,0,0,0-5.1,8.21,86.76,86.76,0,0,0-3.88,9.43c-.27.68-.53,1.35-.77,2a15.05,15.05,0,0,0-.56,2,21.93,21.93,0,0,0-.3,3.73c0,1.32,0,2.63-.1,3.92q-.21,3.88-.41,7.75t-.51,7.86c-.07.61-.12,1.24-.16,1.89a13.24,13.24,0,0,1-.2,1.78,3.72,3.72,0,0,1-.61,1.48,2.68,2.68,0,0,1-1.28,1h-.3a1.71,1.71,0,0,1-1.58-1.68,26.32,26.32,0,0,1-.16-2.91,49,49,0,0,1,.16-5.87c.17-1.87.39-3.75.66-5.66.14-.88.31-1.77.51-2.65s.37-1.77.51-2.65a44.89,44.89,0,0,0,.31-5.25c0-1.81.06-3.52.2-5.16q.41-6.52.76-12.85t.77-13V56.4a16.35,16.35,0,0,1,.1-1.79,3.76,3.76,0,0,1,.46-1.43,1.25,1.25,0,0,1,1.17-.61,1.22,1.22,0,0,1,1.18.77,5.84,5.84,0,0,1,.46,1.83,14.08,14.08,0,0,1,0,2.25c-.07.78-.11,1.44-.11,2q-.41,5.31-.76,10.66T169.23,80.62Z"/><path class="cls-2" d="M207.68,17.18l.1-.11a1.66,1.66,0,0,1,1.84,1.33,11.12,11.12,0,0,1,.3,2.45,44.72,44.72,0,0,1-.35,8.31c-.38,2.69-.7,5.32-1,7.91q-.51,5.3-1,10.76t-.92,11q-.61,9.69-1.33,19.33a184,184,0,0,0-.3,20.35,11.35,11.35,0,0,0,.1,1.43,12.3,12.3,0,0,1,.1,1.58,4.55,4.55,0,0,1-.2,1.38.81.81,0,0,1-.82.61,1.44,1.44,0,0,1-1.78-1.23,16.6,16.6,0,0,1-.46-2.65c-.14-1.09-.22-2.14-.26-3.16s-.08-1.94-.15-2.75c.07-2,.07-4.07,0-6.07s-.07-3.93,0-5.77q.1-14.78,1.23-28.1t2.85-26.67l.61-5.2a20.55,20.55,0,0,0,.26-2.5,3.34,3.34,0,0,1,.87-2.19Z"/><path class="cls-2" d="M228.29,56.55a66.35,66.35,0,0,0-3.78,5.51c-1.22,2-2.45,3.87-3.67,5.71-.89,1.29-1.8,2.69-2.76,4.18a20.87,20.87,0,0,1-3.26,4,7.3,7.3,0,0,1-1.43,1.27,2.21,2.21,0,0,1-1.93.26A2.76,2.76,0,0,1,210,75.21a31.55,31.55,0,0,1,1.88-8.87,40.79,40.79,0,0,1,3.63-7.55c.47-.75,1-1.49,1.58-2.24A5.46,5.46,0,0,1,219,54.92a2.92,2.92,0,0,1,3.42.15c1,.78,1.34,2,1.07,3.72a5.45,5.45,0,0,0,1.17-1.63c.45-.82.92-1.65,1.43-2.5a17.87,17.87,0,0,1,1.63-2.29,2.88,2.88,0,0,1,1.79-1.13,2.16,2.16,0,0,1,.71.11l.61.2a4.67,4.67,0,0,1,1,1.94q-.19,6.12-.81,11.58t-.92,11.57v1.84c0,.75,0,1.49-.1,2.24a10.59,10.59,0,0,1-.36,2q-.25.87-.87.87a1.16,1.16,0,0,1-1.07-.66,5.37,5.37,0,0,1-.51-1.64,12.94,12.94,0,0,1-.15-2,10.24,10.24,0,0,0-.1-1.63,57.23,57.23,0,0,1,.2-10.81C227.57,63.32,227.94,59.88,228.29,56.55Zm-7.35.2a.09.09,0,0,0-.1-.1,2.4,2.4,0,0,0-.56.26,3.17,3.17,0,0,1-.56.25,21,21,0,0,0-2.55,3.62,41.68,41.68,0,0,0-2,4.13c-.55,1.43-1.07,2.94-1.58,4.54a22.07,22.07,0,0,0-1,5.15A35.64,35.64,0,0,0,217.73,68c1.53-2.48,3.07-4.91,4.64-7.29a4.08,4.08,0,0,1-.51-2.19A1.75,1.75,0,0,0,220.94,56.75Z"/><path class="cls-2" d="M242.16,73.68q2-3.87,4.08-7.9A37.05,37.05,0,0,1,251,58.49q.41-.51,1-1.23A7.61,7.61,0,0,1,253.38,56a4.46,4.46,0,0,1,1.58-.72,3.16,3.16,0,0,1,1.88.21,4.66,4.66,0,0,1,2.25,3.16q.71,2.45,1.22,4.9c.14.75.29,1.53.46,2.34s.36,1.63.56,2.45a18.24,18.24,0,0,0,.82,2.3c.34.78.75,1.24,1.22,1.37a1.69,1.69,0,0,0,1.53-.35,11.32,11.32,0,0,1,1.23-.87c.41-.34.78-.63,1.12-.87a7.16,7.16,0,0,0,1-.87,42.17,42.17,0,0,0,4.28-4.28,51.88,51.88,0,0,1,4.29-4.39,17.24,17.24,0,0,1,1.78-1.17,2.59,2.59,0,0,1,1.23-.36q.56,0,.66.72t-.66,1a5,5,0,0,0-1.18.81,26.34,26.34,0,0,0-2.85,2.91q-1.44,1.68-3.06,3.42c-.55.54-1.07,1-1.58,1.53s-1,1-1.59,1.53c-.88.88-1.83,1.75-2.85,2.6a6,6,0,0,1-4,1.27l-.46-.2a1.47,1.47,0,0,0-.56-.1,6.26,6.26,0,0,1-2.5-3.16A32.35,32.35,0,0,1,258,66.9c-.34-1.53-.67-3.06-1-4.59a14.24,14.24,0,0,0-1.48-4.13,6,6,0,0,0-2.65,2.3c-.62,1-1.3,2-2,2.9a46.35,46.35,0,0,0-3.47,6.33q-1.53,3.36-3,6.93a6.32,6.32,0,0,0-.71,1.58,19.41,19.41,0,0,1-.72,1.89,5.18,5.18,0,0,1-1.07,1.58,1.88,1.88,0,0,1-1.78.46,1.69,1.69,0,0,1-1.38-1.07,6.36,6.36,0,0,1-.56-2.24,22.56,22.56,0,0,1-.05-2.76c0-1,.08-1.89.15-2.7.27-3.27.65-6.44,1.12-9.54a57.53,57.53,0,0,1,1.94-8.52c.27-.74.51-1.42.71-2a1.44,1.44,0,0,1,1.33-1,1.17,1.17,0,0,1,1.28.57,2.93,2.93,0,0,1,.3,1.58,12,12,0,0,1-.3,2c-.17.71-.29,1.31-.36,1.78q-.72,3.89-1.22,7.75C242.73,68.52,242.43,71.1,242.16,73.68Z"/><path class="cls-2" d="M284.38,45.33q8.78-.31,18.26-.92a135,135,0,0,1,18.87.1c.34,0,.72,0,1.12.05a.9.9,0,0,1,.82.56c-.07.55-.32.82-.76.82a5.9,5.9,0,0,1-1.18-.1,185.46,185.46,0,0,0-18.87.15q-9.39.57-18.46,1.07-1.43,8.37-2.6,17a125.29,125.29,0,0,0-1.07,18.15c0,.89,0,1.87.1,3a20.2,20.2,0,0,0,.41,3.06c.13.75.36,1.67.66,2.75s.77,1.67,1.38,1.74a1.36,1.36,0,0,0,1.07-.31,8.8,8.8,0,0,0,1.12-1,11.24,11.24,0,0,0,1-1.17c.31-.41.53-.71.66-.92a99.63,99.63,0,0,0,7.3-10.86Q297.44,73,301,67c.61-1.08,1.26-2.21,1.94-3.36s1.43-2.31,2.24-3.47a9.27,9.27,0,0,1,.92-1.17q.51-.57,1-.36c.54.27.65.7.31,1.27a15.19,15.19,0,0,1-.82,1.28c-1.7,2.85-3.3,5.75-4.79,8.67s-3.1,5.81-4.8,8.67q-1.42,2.34-2.8,4.74T291.32,88q-1.53,2.36-3.16,4.59A10.93,10.93,0,0,1,284,96a5.55,5.55,0,0,1-2.15,0,6.3,6.3,0,0,1-3.51-3.82,27.65,27.65,0,0,1-1.38-5.77,43.76,43.76,0,0,1-.51-6.78c0-2.34.07-4.64.2-6.88q.51-6.84,1.38-13.21t2.09-12.19c-3.13.14-6.31.37-9.54.71s-6.51.58-9.84.72c-.41,0-.87,0-1.38.05a.74.74,0,0,1-.86-.77.72.72,0,0,1,.81-.81,8.49,8.49,0,0,0,1.43-.11q4.8-.3,9.79-.81t9.9-.72c.4-1.42.86-3.11,1.37-5a41,41,0,0,1,1.79-5.36,7.57,7.57,0,0,1,.76-1.68,1.62,1.62,0,0,1,1.38-1,1.06,1.06,0,0,1,1,.41,1.47,1.47,0,0,1,.2,1,7.55,7.55,0,0,1-.2,1.17c-.1.41-.19.78-.26,1.12-.34,1.5-.68,3-1,4.64S284.72,44,284.38,45.33Z"/></g></g></svg>