<svg xmlns="http://www.w3.org/2000/svg" viewBox="0 0 364.45 97.95"><defs><style>.cls-1{fill:#53575a;}.cls-2{fill:#ff8300;}</style></defs><g id="Layer_2" data-name="Layer 2"><g id="Layer_1-2" data-name="Layer 1"><path class="cls-1" d="M0,71.75a28.76,28.76,0,0,1,1.82-10.2,27.87,27.87,0,0,1,4.94-8.32A22.45,22.45,0,0,1,14,47.57a20.14,20.14,0,0,1,8.84-2.08,17.59,17.59,0,0,1,6.37,1.24l.13.06.26.13c.3.13.59.27.88.43s.57.29.87.42a13.5,13.5,0,0,0,5.37,1.62,5.31,5.31,0,0,0,3-.65,3.3,3.3,0,0,0,1.5-2.27h.39V65.38h-.39a29.89,29.89,0,0,0-2.47-8.58,21.19,21.19,0,0,0-4.23-6,17.48,17.48,0,0,0-5.39-3.58A15.85,15.85,0,0,0,23.92,46V46a11.76,11.76,0,0,0-6.57,2A18.67,18.67,0,0,0,12,53.55a29.74,29.74,0,0,0-3.57,8.19,37.14,37.14,0,0,0-1.3,10A36,36,0,0,0,9.29,84.4,23.77,23.77,0,0,0,15,93.53a16.61,16.61,0,0,0,3.12,2.31,19.23,19.23,0,0,0,2.6,1.2,10.64,10.64,0,0,0,3.19.45,14.37,14.37,0,0,0,5.13-1.1,20.86,20.86,0,0,0,4.16-2.47c.18-.17.44-.45.78-.81a7.91,7.91,0,0,0,1-1.43,10,10,0,0,0,.91-2.12,9.22,9.22,0,0,0,.39-2.79v-6a3.35,3.35,0,0,0-.68-2.24,4,4,0,0,0-1.82-1.2,9.85,9.85,0,0,0-2.7-.46c-1,0-2.14-.06-3.31-.06v-.52h20.8v.52c-1,0-1.83,0-2.5.06a5.06,5.06,0,0,0-1.66.36,1.83,1.83,0,0,0-.94.94,4.29,4.29,0,0,0-.3,1.76V94.31h-.45a3.79,3.79,0,0,0-3-1.07,12.83,12.83,0,0,0-3.7.81c-1.32.48-2.71,1-4.16,1.72a27.75,27.75,0,0,1-4.33,1.59,18.88,18.88,0,0,1-4.74.59,19.68,19.68,0,0,1-8.84-2,24.87,24.87,0,0,1-3.9-2.4,19.86,19.86,0,0,1-3.38-3.25A27.87,27.87,0,0,1,1.82,82,30.4,30.4,0,0,1,.45,77,29.63,29.63,0,0,1,0,71.75Z"/><path class="cls-1" d="M52.19,97.3l1.14-.13a7.94,7.94,0,0,0,2.54-.88A13.48,13.48,0,0,0,59,94a12.53,12.53,0,0,0,2.8-4.48L79.23,45.82h.52L97.17,89.37a28.55,28.55,0,0,0,2.15,4.39,9,9,0,0,0,2,2.27,4.42,4.42,0,0,0,2,.91l2.31.36v.45H84.24V97.3c1.56-.09,2.89-.18,4-.29a4.48,4.48,0,0,0,2.5-.88,2.58,2.58,0,0,0,.71-2.31,17.57,17.57,0,0,0-1.3-4.58L85.34,77.15H67.21L62.27,89.43a6.18,6.18,0,0,0-.55,3.29,4.38,4.38,0,0,0,1,2.21,5.32,5.32,0,0,0,1.92,1.36,12.34,12.34,0,0,0,2.21.72,12.71,12.71,0,0,0,1.85.26l.85,0v.45H52.19ZM76.31,54.53,67.4,76.69H85.15Z"/><path class="cls-1" d="M151.19,97.88H109.26v-.45A25.47,25.47,0,0,0,113,97.2a5,5,0,0,0,2.4-.94,3.9,3.9,0,0,0,1.3-2,11.37,11.37,0,0,0,.39-3.32V52.71q0-3.57-1.3-4.91t-4.55-1.53h-2v-.39h22.62v.33h0v.06h-2.67a8.74,8.74,0,0,0-2.4.52,4,4,0,0,0-1.59,1.11,4.11,4.11,0,0,0-.88,1.88,13.68,13.68,0,0,0-.26,2.86V91.06a13,13,0,0,0,.29,3,4.07,4.07,0,0,0,1,1.88A4.18,4.18,0,0,0,127.07,97a10.82,10.82,0,0,0,2.8.42h6.5a16.66,16.66,0,0,0,4.81-.65,15.56,15.56,0,0,0,3.8-1.69,14.13,14.13,0,0,0,2.89-2.37A19,19,0,0,0,150,90a23.25,23.25,0,0,0,3-7.54h.45l-1.88,15.47Z"/><path class="cls-1" d="M199.09,97.88H157.17v-.45a25.33,25.33,0,0,0,3.7-.23,5,5,0,0,0,2.41-.94,4,4,0,0,0,1.3-2A11.37,11.37,0,0,0,165,91V52.71q0-3.57-1.3-4.91c-.87-.89-2.38-1.4-4.55-1.53h-2v-.39h22.62v.33h0v.06h-2.66a8.74,8.74,0,0,0-2.41.52,4,4,0,0,0-1.59,1.11,4.33,4.33,0,0,0-.88,1.88,13.68,13.68,0,0,0-.26,2.86V91.06a12.36,12.36,0,0,0,.3,3,4.06,4.06,0,0,0,1,1.88A4.22,4.22,0,0,0,175,97a10.74,10.74,0,0,0,2.79.42h6.5a16.66,16.66,0,0,0,4.81-.65,15.81,15.81,0,0,0,3.81-1.69,14.41,14.41,0,0,0,2.89-2.37A18.87,18.87,0,0,0,197.92,90a23,23,0,0,0,3-7.54h.46l-1.89,15.47Z"/><path class="cls-1" d="M238,96.78a15.81,15.81,0,0,0,3.81-1.69,14.69,14.69,0,0,0,2.89-2.37A18.87,18.87,0,0,0,246.8,90a22.1,22.1,0,0,0,2.93-7.54h.45L248.3,97.88h-43v-.45a26.12,26.12,0,0,0,3.74-.23,5.06,5.06,0,0,0,2.44-.94,3.9,3.9,0,0,0,1.3-2A11.37,11.37,0,0,0,213.2,91V53.49a2.56,2.56,0,0,0,0-.39,1.72,1.72,0,0,1,0-.39q0-3.57-1.26-4.91t-4.52-1.53h-2.08v-.39h41.21V59.53H246v-.06c-.34-1.43-.74-2.93-1.2-4.49a13.12,13.12,0,0,0-2.11-4.25,11.12,11.12,0,0,0-3.9-3.19,14.34,14.34,0,0,0-6.5-1.27H220.09V71.69h9.29a7.41,7.41,0,0,0,4.39-1.27,8.53,8.53,0,0,0,3.41-5.56,16.46,16.46,0,0,0,.2-1.82v-.19h.45V81h-.45v-.19a18.73,18.73,0,0,0-.2-1.89,8.31,8.31,0,0,0-1-3,8.06,8.06,0,0,0-2.5-2.7,7.82,7.82,0,0,0-4.58-1.17h-9V89.89a7.62,7.62,0,0,1,.06,1.17,12.36,12.36,0,0,0,.3,3,4.06,4.06,0,0,0,1,1.88A4.22,4.22,0,0,0,223.21,97a10.59,10.59,0,0,0,2.73.42h7.21A16.66,16.66,0,0,0,238,96.78Z"/><path class="cls-1" d="M254.28,97.88v-.45h.06a26.12,26.12,0,0,0,3.74-.23,4.87,4.87,0,0,0,2.41-.94,4,4,0,0,0,1.26-2,11.37,11.37,0,0,0,.39-3.32V52.71q0-3.57-1.26-4.91t-4.52-1.53h-2.08v-.39H279a26.71,26.71,0,0,1,7.54,1,16.68,16.68,0,0,1,5.2,2.79,11,11,0,0,1,3,4.07,13.25,13.25,0,0,1,1,5.23,11.65,11.65,0,0,1-4,9.29,15.51,15.51,0,0,1-5.2,2.8,13.45,13.45,0,0,1-3,.71c-1.06.13-2.18.24-3.35.33a10,10,0,0,1,2.9,1.36A14.86,14.86,0,0,1,286.58,77L298.8,94A6.51,6.51,0,0,0,301,95.9a13.07,13.07,0,0,0,2.47,1,9.78,9.78,0,0,0,2.11.42c.61,0,1,.07,1.11.07h.06v.45h-13l-15.86-22a15.77,15.77,0,0,0-1.78-2,7.84,7.84,0,0,0-1.56-1.14,5.3,5.3,0,0,0-1.47-.52,8,8,0,0,0-1.49-.13h-2.41v19a12.36,12.36,0,0,0,.3,3,4.06,4.06,0,0,0,1,1.88A4.22,4.22,0,0,0,272.22,97a10.45,10.45,0,0,0,2.73.42h2v.45H254.28Zm14.88-26.19h9.36A9.29,9.29,0,0,0,284,70.06a9.71,9.71,0,0,0,1.47-1.33,11.3,11.3,0,0,0,1.39-1.92,16.16,16.16,0,0,0,1.24-3.54,19.49,19.49,0,0,0,.45-4.32,15.17,15.17,0,0,0-2.4-9,8.81,8.81,0,0,0-7.61-3.71H274.3a8.74,8.74,0,0,0-2.41.52,4,4,0,0,0-1.59,1.11,4.33,4.33,0,0,0-.88,1.88,13.68,13.68,0,0,0-.26,2.86v19Z"/><path class="cls-1" d="M339.1,75.59V90.93c0,2.38.44,4,1.3,4.94s2.41,1.36,4.62,1.36h2v.52H324.35v-.52a25.5,25.5,0,0,0,3.7-.22,5.45,5.45,0,0,0,2.41-.91,3.8,3.8,0,0,0,1.3-1.95,11.47,11.47,0,0,0,.39-3.29V75.59l-5.49-10.11c-1.5-2.75-2.74-5-3.74-6.86s-1.77-3.22-2.31-4.22l-1.2-2.24-.49-.95a1.21,1.21,0,0,0-.16-.26,7.92,7.92,0,0,0-2.28-2.6,10.55,10.55,0,0,0-2.73-1.43,12.94,12.94,0,0,0-2.47-.58,14.29,14.29,0,0,0-1.56-.13v-.39h20.22v.39h-1.11c-.47,0-1,.12-1.62.23a4,4,0,0,0-1.56.58,2,2,0,0,0-.88,1.17,2.62,2.62,0,0,0,.49,2l13.58,25,10-18.26a25.45,25.45,0,0,0,2-4.49,8.38,8.38,0,0,0,.45-3,3,3,0,0,0-.62-1.78,3,3,0,0,0-1.2-.91,4.29,4.29,0,0,0-1.36-.36c-.46,0-.82-.07-1.08-.07v-.45h17.42v.45h-.26a13.55,13.55,0,0,0-2.34.36A16.07,16.07,0,0,0,358,48.09a22.23,22.23,0,0,0-4.49,3.19,20,20,0,0,0-4.22,5.59Z"/><path class="cls-2" d="M23.42,36a48.56,48.56,0,0,1,6.27-4.49,76.72,76.72,0,0,1,7.19-3.87c.27-.14.64-.31,1.12-.51s.78,0,.92.51a1,1,0,0,1-.77,1.12c-.57.2-1,.34-1.27.41-.41.27-.8.51-1.17.71s-.74.41-1.07.61A57.78,57.78,0,0,0,28,34.7a64.37,64.37,0,0,0-5.91,4.89c-.48,1.16-1,2.31-1.58,3.47s-1.21,2.28-1.89,3.37-1.36,2.15-2,3.21a12.84,12.84,0,0,1-2.45,2.8,7.41,7.41,0,0,1-1.17.77,2.62,2.62,0,0,1-1.58.25.6.6,0,0,0-.36-.2.53.53,0,0,1-.35-.21,2.61,2.61,0,0,1-.26-2.39,11.06,11.06,0,0,1,1.07-2.09,11.32,11.32,0,0,1,1.23-1.94c.47-.61.88-1.19,1.22-1.73l2.8-3.42q1.38-1.68,2.91-3.32c.34-1.08.7-2.17,1.07-3.26A12.09,12.09,0,0,0,21.27,31a8,8,0,0,0-3.11,2.5l-2.5,3.32a74.07,74.07,0,0,0-5.2,9.74A39.77,39.77,0,0,0,7.3,58.77a4.48,4.48,0,0,1-.82,2.34c-.4.48-1.05.48-1.94,0a5.29,5.29,0,0,1-.86-2.85c0-1.09-.05-2.18-.05-3.27s-.09-2.33,0-3.52.08-2.36.15-3.51q.4-10.3,1.63-19.69a73.73,73.73,0,0,1,4.18-17c.21-.41.41-.87.62-1.38a9.07,9.07,0,0,1,.71-1.43,2.56,2.56,0,0,1,1-1,1.78,1.78,0,0,1,1.53.1c-.14.62-.31,1.33-.51,2.15s-.37,1.46-.51,1.93v-.4a22.52,22.52,0,0,0-1.12,3.87c-.28,1.36-.58,2.76-.92,4.18A110.07,110.07,0,0,0,8.47,32.76Q7.91,39.8,7.4,47q1.23-3,2.5-5.77a31.51,31.51,0,0,1,3-5.25,30,30,0,0,1,3.57-4.79c.68-.68,1.39-1.36,2.14-2a5.16,5.16,0,0,1,3-1.23,2.15,2.15,0,0,1,1.84,1A5.51,5.51,0,0,1,24,31.13a9.73,9.73,0,0,1-.16,2.55Zm-9,11.32a9.24,9.24,0,0,0-1.73,3.27,33.47,33.47,0,0,0,4.08-6.22Z"/><path class="cls-2" d="M39,32.45a19.77,19.77,0,0,0-1.33,3.72,17.75,17.75,0,0,0-.61,4.49A7.7,7.7,0,0,0,38,44.49a3.61,3.61,0,0,0,3.26,1.73,10,10,0,0,0,5.05-1.12,46.36,46.36,0,0,0,4.13-2.35q2-1.43,3.83-2.8t3.21-2.7a56.91,56.91,0,0,0,5.05-4.39q2.4-2.34,4.74-4.79a2.5,2.5,0,0,0,.67-.82,8.44,8.44,0,0,1,.76-1.12,5.11,5.11,0,0,1,.87-.87.8.8,0,0,1,1-.05c.47.2.58.61.3,1.22a7.16,7.16,0,0,1-.71,1.33,3.7,3.7,0,0,1-.61,1.12c-.27.34-.55.72-.82,1.12a72.93,72.93,0,0,1-5.35,5.61q-2.81,2.66-5.77,5.31A42.15,42.15,0,0,1,49,47a21.89,21.89,0,0,1-2.55,1.17,15.1,15.1,0,0,1-3,.82,13.44,13.44,0,0,1-3.11.15,6.16,6.16,0,0,1-2.91-.92,4.7,4.7,0,0,1-1.07-1l-1-1.17a9.86,9.86,0,0,1-1.28-4.34,19.36,19.36,0,0,1,.31-4.84,29.4,29.4,0,0,1,1.28-4.69,28.21,28.21,0,0,1,1.63-3.78,41.69,41.69,0,0,1,4.08-6,11.91,11.91,0,0,1,6.22-3.88,4.92,4.92,0,0,1,3.42.92,3.51,3.51,0,0,1,1.07,3.26A6.66,6.66,0,0,1,51,25.82a20.3,20.3,0,0,1-2.14,2.55,22.21,22.21,0,0,1-4,3.21A8.37,8.37,0,0,1,39,32.45Zm9.49-10.91a10.58,10.58,0,0,0-5.41,3.72,37.53,37.53,0,0,0-3.47,5.66,6.38,6.38,0,0,0,3.78-1,28.43,28.43,0,0,0,2.65-2.14c.75-.82,1.53-1.63,2.34-2.45a4.4,4.4,0,0,0,1.13-3.47A1.11,1.11,0,0,0,48.51,21.54Z"/><path class="cls-2" d="M84.51,4.1c-.34.2-.58.15-.71-.16a2.62,2.62,0,0,0-.41-.66,6.32,6.32,0,0,0-1.17-.87,2.45,2.45,0,0,0-1.79-.25,3,3,0,0,0-1.94,1.78c-.54,1.06-1,2-1.32,2.71a53.35,53.35,0,0,0-2.91,8.77c-.78,3.19-1.45,6.32-2,9.38q4.08-1.53,8.67-3.36a61.38,61.38,0,0,1,9.69-3,42.59,42.59,0,0,1,5.05-.77,11.9,11.9,0,0,1,5,.56c.34.14.71.31,1.12.51a1,1,0,0,1,.51,1.13,1.68,1.68,0,0,1-1.84.3,7.69,7.69,0,0,0-2.14-.51,12.05,12.05,0,0,0-4,.26c-1.29.3-2.55.63-3.77,1s-2.4.69-3.52,1.07S85,22.76,84,23.17a68.73,68.73,0,0,0-6.43,2.5c-2,.92-4,1.88-6,2.91-.34,2.1-.65,4.28-.92,6.52s-.55,4.56-.82,6.94c-.07.75-.15,1.51-.25,2.29a10.46,10.46,0,0,0,0,2.3,7.71,7.71,0,0,0,.4,1.68A15.3,15.3,0,0,1,70.43,50a65,65,0,0,1,1.64,19.27c0,.75,0,1.52-.11,2.3a9.8,9.8,0,0,1-.4,2.14,3.84,3.84,0,0,1-.92,1.58A2.19,2.19,0,0,1,69,75.9a2,2,0,0,1-1.48-.56A3.66,3.66,0,0,1,66.66,74a9.66,9.66,0,0,1-.46-1.74C66.1,71.62,66,71,66,70.5a59.29,59.29,0,0,1-.87-9.74q0-5.05.25-10.25c.07-.68.16-1.36.26-2a7.49,7.49,0,0,0,0-1.94,4.34,4.34,0,0,0-.56-1.63c-.31-.55-.59-1.09-.87-1.64a15.06,15.06,0,0,0-1.78-3c-.65-.81-1.34-1.69-2.09-2.65-.34-.4-.7-.86-1.07-1.37a2.75,2.75,0,0,1-.56-1.69,3.07,3.07,0,0,1,.4-1.53,6.32,6.32,0,0,1,1-1.32,7.52,7.52,0,0,1,1.33-1.07c.48-.31.88-.6,1.22-.87,1-.61,1.86-1.14,2.71-1.58l2.8-1.48q.91-5,2.4-10.25A83.35,83.35,0,0,1,73.9,6.85a27.33,27.33,0,0,1,2.2-4A7,7,0,0,1,79.41.12c0,.07.07,0,.2-.1A3.7,3.7,0,0,1,82,.47c.54.38,1.09.77,1.63,1.18a7.31,7.31,0,0,0,.87,1.12A1,1,0,0,1,84.51,4.1ZM62.38,34.49a27.21,27.21,0,0,1,2.09,2.35,21.12,21.12,0,0,1,1.78,2.65c.21-1.43.39-2.87.56-4.34s.4-2.87.67-4.23l-.1-.1c-.89.61-1.77,1.19-2.66,1.73A11,11,0,0,0,62.38,34.49Z"/><path class="cls-2" d="M98.69,24.09a7.93,7.93,0,0,1,5.46,2.14,9.85,9.85,0,0,1,2.49,5.2q3.27-.62,6.79-1.38c2.34-.51,4.64-1,6.88-1.58a6.54,6.54,0,0,0,1-.35,7.65,7.65,0,0,1,1.28-.41,3.52,3.52,0,0,1,1.17-.1.8.8,0,0,1,.71.46.62.62,0,0,1-.2.81,4.41,4.41,0,0,1-1,.56,7.39,7.39,0,0,1-1.33.41,10.16,10.16,0,0,0-1,.26c-2.17.68-4.47,1.27-6.88,1.78s-4.81,1-7.19,1.48a21.32,21.32,0,0,1-.87,7.39,25.94,25.94,0,0,1-2.8,6.28,32.13,32.13,0,0,1-3.93,4.89A11.2,11.2,0,0,1,93.89,55H92.36a4.07,4.07,0,0,1-1.73-.76,15.12,15.12,0,0,1-1.33-1.18,8.92,8.92,0,0,1-1.58-4.43,26.52,26.52,0,0,1,0-5.41,50.25,50.25,0,0,1,.92-5.51c.41-1.8.78-3.41,1.12-4.84a4,4,0,0,1,0-3.67,8,8,0,0,1,2-2.66,17.31,17.31,0,0,0,.77-2.14,16.74,16.74,0,0,1,.86-2.34,7,7,0,0,1,1.28-1.94,2.62,2.62,0,0,1,2-.82,2,2,0,0,1,2,1.48A5.52,5.52,0,0,1,98.69,24.09ZM93.79,34.7q-.51,3-1.27,6.37a25.11,25.11,0,0,0-.56,7,8.55,8.55,0,0,0,.35,1.73,2.54,2.54,0,0,0,1,1.33A7.86,7.86,0,0,0,98,48.67q1.74-1.94,3.27-4a39.35,39.35,0,0,0,2.45-4.95,12.34,12.34,0,0,0,.81-6,46.36,46.36,0,0,1-5.2.76A44.1,44.1,0,0,1,93.79,34.7Zm4.49-8.47a3.06,3.06,0,0,0-.2,1.17.69.69,0,0,1-.62.77,1.64,1.64,0,0,1-.45-.05,2.68,2.68,0,0,1-.36-.16,1.81,1.81,0,0,1-.1-1.43,4.48,4.48,0,0,0-.77,1.33c-.17.48-.32,1-.46,1.53S95,30.48,94.81,31s-.27,1.09-.41,1.64q2.86,0,5.31-.21c1.63-.13,3.23-.34,4.79-.61a8.19,8.19,0,0,0-1.88-4A6,6,0,0,0,98.28,26.23Z"/><path class="cls-2" d="M139,23.88a15.21,15.21,0,0,0-4.75,4.9q-1.78,3-3.82,5.92c-.55,1.08-1.09,2.17-1.63,3.26a28.63,28.63,0,0,0-1.43,3.37,17.57,17.57,0,0,0-1.53,3.31,3.68,3.68,0,0,1-2.45,2.4h-.92a2.56,2.56,0,0,1-.86-.56,4.75,4.75,0,0,1-.67-.87,34.89,34.89,0,0,1-.15-4.18c0-1.5.1-3,.2-4.54s.28-3,.51-4.49.5-2.8.77-4a14.34,14.34,0,0,1,.61-2.24,2,2,0,0,1,1.63-1.33,1.27,1.27,0,0,1,1.18.92,5.81,5.81,0,0,1,.2,1.89,20.73,20.73,0,0,1-.25,2.24,11.22,11.22,0,0,0-.21,1.89c-.14,1.36-.25,2.58-.36,3.67s-.22,2.11-.35,3.06c1.15-1.9,2.55-4,4.18-6.43a63,63,0,0,1,5-6.42,25.15,25.15,0,0,1,1.78-2,7.09,7.09,0,0,1,2.09-1.48,3.05,3.05,0,0,1,1.89,0,1.55,1.55,0,0,1,1.17,1.12c.14.82-.06,1.26-.61,1.33A1.12,1.12,0,0,1,139,23.88Z"/><path class="cls-2" d="M144.38,32.45a19.83,19.83,0,0,0-1.32,3.72,17.34,17.34,0,0,0-.62,4.49,7.7,7.7,0,0,0,.92,3.83,3.61,3.61,0,0,0,3.26,1.73,10,10,0,0,0,5-1.12q2.4-1.23,4.14-2.35,2-1.43,3.82-2.8t3.21-2.7a56.91,56.91,0,0,0,5-4.39q2.4-2.34,4.75-4.79a2.63,2.63,0,0,0,.66-.82,9.53,9.53,0,0,1,.76-1.12,5.11,5.11,0,0,1,.87-.87.8.8,0,0,1,1-.05c.47.2.58.61.31,1.22a7.07,7.07,0,0,1-.72,1.33,3.7,3.7,0,0,1-.61,1.12c-.27.34-.55.72-.82,1.12a72.93,72.93,0,0,1-5.35,5.61q-2.81,2.66-5.76,5.31A42.51,42.51,0,0,1,154.38,47a21.89,21.89,0,0,1-2.55,1.17,15.1,15.1,0,0,1-3,.82,13.44,13.44,0,0,1-3.11.15,6.16,6.16,0,0,1-2.91-.92,4.7,4.7,0,0,1-1.07-1l-1-1.17a9.72,9.72,0,0,1-1.27-4.34,19.35,19.35,0,0,1,.3-4.84,31.93,31.93,0,0,1,2.91-8.47,41.69,41.69,0,0,1,4.08-6,11.91,11.91,0,0,1,6.22-3.88,4.92,4.92,0,0,1,3.42.92,3.51,3.51,0,0,1,1.07,3.26,6.75,6.75,0,0,1-1.22,3.06,21.23,21.23,0,0,1-2.15,2.55,21.87,21.87,0,0,1-4,3.21A8.37,8.37,0,0,1,144.38,32.45Zm9.49-10.91a10.58,10.58,0,0,0-5.41,3.72A37.53,37.53,0,0,0,145,30.92a6.38,6.38,0,0,0,3.78-1,28.43,28.43,0,0,0,2.65-2.14c.75-.82,1.53-1.63,2.35-2.45a4.43,4.43,0,0,0,1.12-3.47A1.1,1.1,0,0,0,153.87,21.54Z"/><path class="cls-1" d="M191.44,34.5c0,.45,0,.86,0,1.22s0,.69,0,1,0,.59.05.86.05.53.09.8H190.5a8.6,8.6,0,0,1-.12-1.5h0a3.28,3.28,0,0,1-1.29,1.32,4,4,0,0,1-2,.42,4.71,4.71,0,0,1-1.18-.15,3.19,3.19,0,0,1-1-.48,2.69,2.69,0,0,1-.75-.85,2.61,2.61,0,0,1-.29-1.26,2.46,2.46,0,0,1,.54-1.68,3.48,3.48,0,0,1,1.33-.93,6.25,6.25,0,0,1,1.68-.4c.6-.06,1.12-.09,1.57-.09h1.4v-.56a1.94,1.94,0,0,0-.74-1.72,3.12,3.12,0,0,0-1.86-.52,4.24,4.24,0,0,0-2.82,1l-.7-.82a4.26,4.26,0,0,1,1.64-1,5.92,5.92,0,0,1,1.88-.33,4.17,4.17,0,0,1,2.68.79,3.05,3.05,0,0,1,1,2.55Zm-2.4-.76a10.08,10.08,0,0,0-1.47.1,5.32,5.32,0,0,0-1.28.34,2.37,2.37,0,0,0-.91.64,1.61,1.61,0,0,0-.15,1.75,1.7,1.7,0,0,0,.49.54,2.3,2.3,0,0,0,.67.32,2.78,2.78,0,0,0,.75.11,3.79,3.79,0,0,0,1.58-.28,2.78,2.78,0,0,0,1-.73,2.46,2.46,0,0,0,.51-1,4.47,4.47,0,0,0,.14-1.15v-.62Z"/><path class="cls-1" d="M194.24,31.74c0-.17,0-.38,0-.63l0-.75c0-.25,0-.49,0-.71s0-.39,0-.51h1.2c0,.35,0,.68,0,1a3.11,3.11,0,0,0,0,.62h.06a3.24,3.24,0,0,1,1.2-1.31,3.46,3.46,0,0,1,2-.55,3.89,3.89,0,0,1,1.76.34,2.86,2.86,0,0,1,1.07.89A3.37,3.37,0,0,1,202,31.4a7.21,7.21,0,0,1,.15,1.48v5.5H201V32.94a5.6,5.6,0,0,0-.1-1.09,2.92,2.92,0,0,0-.35-1,1.88,1.88,0,0,0-.7-.67,2.36,2.36,0,0,0-1.17-.25,3.51,3.51,0,0,0-1.25.23,2.74,2.74,0,0,0-1,.7,3.39,3.39,0,0,0-.68,1.18,4.93,4.93,0,0,0-.25,1.67v4.62h-1.2Z"/><path class="cls-1" d="M213.06,36.76h0a3.12,3.12,0,0,1-.7.83,4.13,4.13,0,0,1-.91.58,4.61,4.61,0,0,1-1,.34,5.53,5.53,0,0,1-1.06.11,5.25,5.25,0,0,1-2-.36,4.53,4.53,0,0,1-1.54-1,4.61,4.61,0,0,1-1-1.54,5.46,5.46,0,0,1,0-3.9,4.61,4.61,0,0,1,1-1.54,4.53,4.53,0,0,1,1.54-1,5.25,5.25,0,0,1,2-.36,5.53,5.53,0,0,1,1.06.11,4.61,4.61,0,0,1,1,.34,4.13,4.13,0,0,1,.91.58,3.12,3.12,0,0,1,.7.83h0v-7.5h1.2V38.38h-1.2Zm.12-3a3.65,3.65,0,0,0-.3-1.47,3.71,3.71,0,0,0-.82-1.2,3.94,3.94,0,0,0-1.22-.81,3.78,3.78,0,0,0-1.52-.3,3.72,3.72,0,0,0-1.52.3,3.56,3.56,0,0,0-1.16.81,3.49,3.49,0,0,0-.73,1.2,4.45,4.45,0,0,0,0,2.94,3.49,3.49,0,0,0,.73,1.2,3.56,3.56,0,0,0,1.16.81,3.72,3.72,0,0,0,1.52.3,3.78,3.78,0,0,0,1.52-.3,3.94,3.94,0,0,0,1.22-.81,3.71,3.71,0,0,0,.82-1.2A3.65,3.65,0,0,0,213.18,33.76Z"/><path class="cls-2" d="M242.21,25.11c-1.29,1.7-2.55,3.53-3.77,5.51s-2.45,3.87-3.68,5.71q-1.32,1.94-2.75,4.18a20.87,20.87,0,0,1-3.26,4,7.6,7.6,0,0,1-1.43,1.27,2.23,2.23,0,0,1-1.94.26A2.78,2.78,0,0,1,224,43.77a31.92,31.92,0,0,1,1.89-8.87,40.78,40.78,0,0,1,3.62-7.55c.47-.75,1-1.49,1.58-2.24a5.58,5.58,0,0,1,1.89-1.63,2.91,2.91,0,0,1,3.41.15q1.49,1.17,1.08,3.72a5.79,5.79,0,0,0,1.17-1.63c.44-.82.92-1.65,1.43-2.5a16.94,16.94,0,0,1,1.63-2.29,2.86,2.86,0,0,1,1.78-1.13,2.27,2.27,0,0,1,.72.11l.61.2a4.61,4.61,0,0,1,1,1.94q-.21,6.12-.82,11.57t-.91,11.58V47c0,.75,0,1.49-.11,2.24a9.87,9.87,0,0,1-.35,2q-.26.87-.87.87a1.14,1.14,0,0,1-1.07-.67,5,5,0,0,1-.51-1.63,12.94,12.94,0,0,1-.15-2,10,10,0,0,0-.11-1.63,57.23,57.23,0,0,1,.21-10.81Q241.71,30.1,242.21,25.11Zm-7.34.2c0-.07,0-.1-.11-.1a3.17,3.17,0,0,0-.56.25,2.4,2.4,0,0,1-.56.26,21.71,21.71,0,0,0-2.55,3.62,41.68,41.68,0,0,0-2,4.13q-.81,2.14-1.58,4.54a22.6,22.6,0,0,0-1,5.15,35.22,35.22,0,0,0,5.15-6.58q2.29-3.72,4.64-7.29a4.1,4.1,0,0,1-.51-2.19A1.74,1.74,0,0,0,234.87,25.31Z"/><path class="cls-2" d="M271.89,4.1c-.34.2-.58.15-.71-.16a2.36,2.36,0,0,0-.41-.66,6.32,6.32,0,0,0-1.17-.87,2.45,2.45,0,0,0-1.79-.25,3,3,0,0,0-1.94,1.78c-.54,1.06-1,2-1.32,2.71a53.35,53.35,0,0,0-2.91,8.77q-1.17,4.78-2,9.38,4.08-1.53,8.67-3.36a61.38,61.38,0,0,1,9.69-3,42.91,42.91,0,0,1,5.05-.77,11.9,11.9,0,0,1,5.05.56c.34.14.71.31,1.12.51a1,1,0,0,1,.51,1.13,1.67,1.67,0,0,1-1.83.3,7.85,7.85,0,0,0-2.15-.51,12,12,0,0,0-4,.26c-1.3.3-2.55.63-3.78,1s-2.4.69-3.52,1.07-2.16.76-3.11,1.17a68.53,68.53,0,0,0-6.42,2.5c-2,.92-4,1.88-6,2.91-.34,2.1-.65,4.28-.92,6.52s-.55,4.56-.82,6.94c-.07.75-.15,1.51-.25,2.29a10.46,10.46,0,0,0-.05,2.3,7.21,7.21,0,0,0,.41,1.68c.2.58.37,1.14.51,1.69a65.39,65.39,0,0,1,1.63,19.27c0,.75,0,1.52-.1,2.3a10.42,10.42,0,0,1-.41,2.14,3.84,3.84,0,0,1-.92,1.58,2.19,2.19,0,0,1-1.63.61,2,2,0,0,1-1.48-.56A3.92,3.92,0,0,1,254,74a9.66,9.66,0,0,1-.46-1.74c-.1-.61-.18-1.19-.25-1.73a60.41,60.41,0,0,1-.87-9.74c0-3.37,0-6.79.26-10.25.06-.68.15-1.36.25-2a7.49,7.49,0,0,0,.05-1.94,4.34,4.34,0,0,0-.56-1.63c-.31-.55-.59-1.09-.87-1.64a15.06,15.06,0,0,0-1.78-3c-.65-.81-1.34-1.69-2.09-2.65-.34-.4-.7-.86-1.07-1.37a2.75,2.75,0,0,1-.56-1.69,3.07,3.07,0,0,1,.4-1.53,7.07,7.07,0,0,1,1-1.32,7.52,7.52,0,0,1,1.33-1.07c.48-.31.88-.6,1.22-.87,1-.61,1.86-1.14,2.71-1.58l2.8-1.48q.92-5,2.4-10.25a83.35,83.35,0,0,1,3.31-9.64,28.31,28.31,0,0,1,2.2-4A7,7,0,0,1,266.79.12c0,.07.07,0,.21-.1a3.67,3.67,0,0,1,2.34.45c.54.38,1.09.77,1.63,1.18a8,8,0,0,0,.87,1.12A1,1,0,0,1,271.89,4.1ZM249.76,34.49a27.21,27.21,0,0,1,2.09,2.35,20.08,20.08,0,0,1,1.78,2.65c.21-1.43.4-2.87.56-4.34s.4-2.87.67-4.23l-.1-.1c-.89.61-1.77,1.19-2.66,1.73A11,11,0,0,0,249.76,34.49Z"/><path class="cls-2" d="M285.05,13.89q8.77-.32,18.26-.92a135,135,0,0,1,18.87.1c.34,0,.71,0,1.12,0a.9.9,0,0,1,.82.56c-.07.55-.33.82-.77.82a5.87,5.87,0,0,1-1.17-.1,185.41,185.41,0,0,0-18.87.15q-9.39.55-18.46,1.07-1.44,8.37-2.61,17a125.29,125.29,0,0,0-1.07,18.15c0,.89,0,1.87.11,3a20.24,20.24,0,0,0,.4,3.06c.14.75.36,1.67.67,2.75s.76,1.67,1.37,1.74a1.39,1.39,0,0,0,1.07-.31,8.86,8.86,0,0,0,1.13-1,11.24,11.24,0,0,0,1-1.17c.3-.41.52-.71.66-.92a98.1,98.1,0,0,0,7.29-10.86q3.21-5.56,6.79-11.58c.61-1.09,1.25-2.21,1.93-3.36s1.43-2.32,2.25-3.47a9.17,9.17,0,0,1,.92-1.18c.34-.37.67-.49,1-.35.55.27.65.7.31,1.27s-.61,1-.81,1.28c-1.71,2.85-3.3,5.74-4.8,8.67S299.4,44.18,297.7,47c-1,1.56-1.89,3.14-2.81,4.74S293,55,292,56.52s-2.08,3.1-3.17,4.59a10.86,10.86,0,0,1-4.18,3.47,5.5,5.5,0,0,1-2.14,0A6.34,6.34,0,0,1,279,60.76,28.29,28.29,0,0,1,277.6,55a43.76,43.76,0,0,1-.51-6.78q0-3.52.21-6.88.51-6.84,1.37-13.21t2.1-12.19q-4.69.2-9.54.71t-9.84.72c-.41,0-.87,0-1.38.05a.76.76,0,0,1-.87-.77.72.72,0,0,1,.82-.81,8.57,8.57,0,0,0,1.43-.11c3.19-.2,6.46-.47,9.79-.81s6.63-.58,9.89-.72c.41-1.42.87-3.11,1.38-5a41.4,41.4,0,0,1,1.78-5.35A7.47,7.47,0,0,1,285,2.11a1.6,1.6,0,0,1,1.38-1,1,1,0,0,1,1,.41,1.52,1.52,0,0,1,.21,1,7.53,7.53,0,0,1-.21,1.18c-.1.41-.18.78-.25,1.12-.34,1.5-.68,3-1,4.64S285.39,12.53,285.05,13.89Z"/><path class="cls-2" d="M307.9,32.45a19.77,19.77,0,0,0-1.33,3.72,17.31,17.31,0,0,0-.61,4.49,7.59,7.59,0,0,0,.92,3.83,3.61,3.61,0,0,0,3.26,1.73,10,10,0,0,0,5.05-1.12c1.6-.82,3-1.6,4.13-2.35q2-1.43,3.83-2.8c1.18-.92,2.26-1.82,3.21-2.7a56.91,56.91,0,0,0,5.05-4.39c1.59-1.56,3.18-3.16,4.74-4.79a2.37,2.37,0,0,0,.66-.82,9.57,9.57,0,0,1,.77-1.12,5.11,5.11,0,0,1,.87-.87.79.79,0,0,1,1-.05c.47.2.57.61.3,1.22a7.16,7.16,0,0,1-.71,1.33,3.7,3.7,0,0,1-.61,1.12c-.28.34-.55.72-.82,1.12a73.05,73.05,0,0,1-5.36,5.61q-2.81,2.66-5.76,5.31A42.22,42.22,0,0,1,317.89,47a21.89,21.89,0,0,1-2.55,1.17,14.73,14.73,0,0,1-3,.82,13.39,13.39,0,0,1-3.11.15,6.16,6.16,0,0,1-2.9-.92,4.5,4.5,0,0,1-1.07-1l-1-1.17a9.73,9.73,0,0,1-1.28-4.34,19.36,19.36,0,0,1,.31-4.84,29.38,29.38,0,0,1,1.27-4.69,31.06,31.06,0,0,1,1.63-3.78,43.38,43.38,0,0,1,4.08-6,12,12,0,0,1,6.23-3.88,4.89,4.89,0,0,1,3.41.92,3.48,3.48,0,0,1,1.07,3.26,6.53,6.53,0,0,1-1.22,3.06,20.3,20.3,0,0,1-2.14,2.55,22.55,22.55,0,0,1-4,3.21A8.37,8.37,0,0,1,307.9,32.45Zm9.48-10.91a10.59,10.59,0,0,0-5.4,3.72,36.73,36.73,0,0,0-3.47,5.66,6.35,6.35,0,0,0,3.77-1,27.18,27.18,0,0,0,2.65-2.14c.75-.82,1.53-1.63,2.35-2.45a4.36,4.36,0,0,0,1.12-3.47A1.1,1.1,0,0,0,317.38,21.54Z"/><path class="cls-2" d="M352.67,23.88a15.29,15.29,0,0,0-4.74,4.9c-1.19,2-2.47,3.94-3.82,5.92-.55,1.08-1.09,2.17-1.64,3.26a28.57,28.57,0,0,0-1.42,3.37,16.4,16.4,0,0,0-1.53,3.31,3.7,3.7,0,0,1-2.45,2.4h-.92a2.61,2.61,0,0,1-.87-.56,4.32,4.32,0,0,1-.66-.87,31.17,31.17,0,0,1-.15-4.18c0-1.5.1-3,.2-4.54s.27-3,.51-4.49.49-2.8.77-4a13.32,13.32,0,0,1,.61-2.24,2,2,0,0,1,1.63-1.33,1.27,1.27,0,0,1,1.17.92,5.53,5.53,0,0,1,.21,1.89,18.58,18.58,0,0,1-.26,2.24,11,11,0,0,0-.2,1.89c-.14,1.36-.26,2.58-.36,3.67s-.22,2.11-.36,3.06c1.16-1.9,2.55-4,4.19-6.43a63,63,0,0,1,5-6.42,25.31,25.31,0,0,1,1.79-2,7,7,0,0,1,2.09-1.48,3.05,3.05,0,0,1,1.89,0,1.59,1.59,0,0,1,1.17,1.12c.14.82-.07,1.26-.61,1.33A1.13,1.13,0,0,1,352.67,23.88Z"/></g></g></svg>