<svg xmlns="http://www.w3.org/2000/svg" viewBox="0 0 692.69 226.26"><defs><style>.cls-1{fill:#54575a;}.cls-2{fill:none;stroke:#f5831f;}.cls-3{fill:#153a49;}.cls-4{fill:#f5831f;}</style></defs><g id="Layer_2" data-name="Layer 2"><g id="Layer_1-2" data-name="Layer 1"><path class="cls-1" d="M224.42,205.91h-3.07v-1.73h3.07v-4.83a5.69,5.69,0,0,1,.43-2.38,4.64,4.64,0,0,1,1.07-1.52,3.68,3.68,0,0,1,1.43-.82,5,5,0,0,1,1.48-.24,5.37,5.37,0,0,1,2.21.39l-.38,1.66a4,4,0,0,0-1.73-.32q-2.6,0-2.59,3.94v4.12h3.45v1.73h-3.45V219h-1.92Z"/><path class="cls-1" d="M232.61,211.58a8.14,8.14,0,0,1,.58-3.12,7.36,7.36,0,0,1,1.6-2.47,7.06,7.06,0,0,1,2.46-1.61,8.28,8.28,0,0,1,3.14-.58,8.14,8.14,0,0,1,3.12.58A7.25,7.25,0,0,1,246,206a7.57,7.57,0,0,1,1.62,2.47,8.82,8.82,0,0,1,0,6.24,7.3,7.3,0,0,1-4.08,4.08,8.33,8.33,0,0,1-3.12.57,8.47,8.47,0,0,1-3.14-.57,7.19,7.19,0,0,1-4.06-4.08A8.14,8.14,0,0,1,232.61,211.58Zm1.92,0a6.79,6.79,0,0,0,.4,2.35,5.47,5.47,0,0,0,3,3.21,6.42,6.42,0,0,0,4.87,0,5.55,5.55,0,0,0,1.85-1.29,5.45,5.45,0,0,0,1.17-1.92,7.13,7.13,0,0,0,0-4.71,5.54,5.54,0,0,0-1.17-1.92,5.7,5.7,0,0,0-1.85-1.29,6.42,6.42,0,0,0-4.87,0,5.47,5.47,0,0,0-3,3.21A6.84,6.84,0,0,0,234.53,211.58Z"/><path class="cls-1" d="M253.09,208.34c0-.27,0-.61,0-1s0-.8-.05-1.2,0-.79,0-1.14,0-.62,0-.82h1.92c0,.56,0,1.09.05,1.61a4.45,4.45,0,0,0,.08,1,6.56,6.56,0,0,1,1.89-2.15,4.68,4.68,0,0,1,2.81-.83,3.43,3.43,0,0,1,.56,0l.56.11-.22,1.89a2.22,2.22,0,0,0-.74-.13,5.3,5.3,0,0,0-2.16.4,4.12,4.12,0,0,0-1.5,1.1,4.52,4.52,0,0,0-.88,1.65,7,7,0,0,0-.29,2V219h-1.92Z"/><path class="cls-1" d="M273.35,208.34c0-.27,0-.61,0-1s0-.8,0-1.2,0-.79,0-1.14,0-.62,0-.82h1.92c0,.56,0,1.09,0,1.61a5.19,5.19,0,0,0,.08,1h.1a5.16,5.16,0,0,1,1.92-2.1,5.58,5.58,0,0,1,3.14-.88,5,5,0,0,1,2.68.75,4.26,4.26,0,0,1,1.76,2.45,4.78,4.78,0,0,1,2.1-2.43,6,6,0,0,1,2.93-.77,6.31,6.31,0,0,1,2.81.54,4.6,4.6,0,0,1,1.72,1.43,5.45,5.45,0,0,1,.86,2,11.62,11.62,0,0,1,.24,2.37V219h-1.92v-8.71a9.16,9.16,0,0,0-.16-1.74,4.68,4.68,0,0,0-.56-1.52,3,3,0,0,0-1.12-1.07,3.79,3.79,0,0,0-1.87-.4,4.41,4.41,0,0,0-2.21.49,4,4,0,0,0-1.36,1.27,5.06,5.06,0,0,0-.7,1.66,7.52,7.52,0,0,0-.21,1.7V219h-1.92v-8.9a6.33,6.33,0,0,0-.75-3.29,2.52,2.52,0,0,0-2.32-1.25,5.31,5.31,0,0,0-2,.37,4.29,4.29,0,0,0-1.64,1.12,5.31,5.31,0,0,0-1.08,1.88,8,8,0,0,0-.4,2.68V219h-1.92Z"/><path class="cls-1" d="M300.42,211.58a8.33,8.33,0,0,1,.57-3.12,7.68,7.68,0,0,1,1.6-2.47,7.19,7.19,0,0,1,2.47-1.61,8.22,8.22,0,0,1,3.13-.58,8.14,8.14,0,0,1,3.12.58,7.15,7.15,0,0,1,4.08,4.08,8.68,8.68,0,0,1,0,6.24,7.25,7.25,0,0,1-1.61,2.46,7.57,7.57,0,0,1-2.47,1.62,8.33,8.33,0,0,1-3.12.57,8.42,8.42,0,0,1-3.13-.57,7.36,7.36,0,0,1-2.47-1.62,7.53,7.53,0,0,1-1.6-2.46A8.33,8.33,0,0,1,300.42,211.58Zm1.92,0a6.79,6.79,0,0,0,.4,2.35,5.31,5.31,0,0,0,1.17,1.92,5.55,5.55,0,0,0,1.85,1.29,6.42,6.42,0,0,0,4.87,0,5.47,5.47,0,0,0,3-3.21,7.13,7.13,0,0,0,0-4.71,5.47,5.47,0,0,0-3-3.21,6.42,6.42,0,0,0-4.87,0,5.7,5.7,0,0,0-1.85,1.29,5.4,5.4,0,0,0-1.17,1.92A6.84,6.84,0,0,0,302.34,211.58Z"/><path class="cls-1" d="M320.9,208.34c0-.27,0-.61,0-1s0-.8,0-1.2,0-.79-.05-1.14,0-.62,0-.82h1.92c0,.56,0,1.09,0,1.61a6.24,6.24,0,0,0,.08,1,6.67,6.67,0,0,1,1.89-2.15,4.73,4.73,0,0,1,2.82-.83,3.43,3.43,0,0,1,.56,0l.56.11-.23,1.89a2.17,2.17,0,0,0-.73-.13,5.3,5.3,0,0,0-2.16.4,4.25,4.25,0,0,0-1.51,1.1,4.84,4.84,0,0,0-.88,1.65,7,7,0,0,0-.28,2V219H320.9Z"/><path class="cls-1" d="M344.68,216.18a6.44,6.44,0,0,1-2.77,2.44,8.82,8.82,0,0,1-3.63.73,8,8,0,0,1-3.08-.57,7.1,7.1,0,0,1-2.36-1.62,6.89,6.89,0,0,1-1.52-2.46,8.84,8.84,0,0,1-.53-3.16,8.54,8.54,0,0,1,.54-3.07,7.17,7.17,0,0,1,6.85-4.67,7.19,7.19,0,0,1,3,.59,6.63,6.63,0,0,1,2.18,1.57,6.77,6.77,0,0,1,1.33,2.22,7.7,7.7,0,0,1,.44,2.53v1.35H332.71a6.6,6.6,0,0,0,.24,1.55,5.45,5.45,0,0,0,.88,1.84,5.16,5.16,0,0,0,4.48,2.17,6.19,6.19,0,0,0,2.85-.7,5.18,5.18,0,0,0,2.11-1.92Zm-1.48-5.85a4.35,4.35,0,0,0-.4-1.86,5.08,5.08,0,0,0-1.08-1.52,5.3,5.3,0,0,0-3.64-1.42,4.84,4.84,0,0,0-2.6.64,5.67,5.67,0,0,0-1.65,1.47,5.73,5.73,0,0,0-.87,1.62,4.2,4.2,0,0,0-.25,1.07Z"/><path class="cls-1" d="M358.59,204.18h1.93v2.6h.06a4.81,4.81,0,0,1,1.12-1.33,7,7,0,0,1,1.46-.93,7.17,7.17,0,0,1,1.64-.54,8.33,8.33,0,0,1,1.7-.18,8.14,8.14,0,0,1,3.12.58,7.22,7.22,0,0,1,4.08,4.08,8.68,8.68,0,0,1,0,6.24,7.13,7.13,0,0,1-1.62,2.46,7.42,7.42,0,0,1-2.46,1.62,8.33,8.33,0,0,1-3.12.57,9.07,9.07,0,0,1-1.7-.17,7.19,7.19,0,0,1-1.64-.55,6.53,6.53,0,0,1-1.46-.92,5.11,5.11,0,0,1-1.12-1.33h-.06v9.88h-1.93Zm1.73,7.4a5.85,5.85,0,0,0,.48,2.35,6.12,6.12,0,0,0,1.31,1.92,6.24,6.24,0,0,0,2,1.29,6.06,6.06,0,0,0,2.43.48,5.92,5.92,0,0,0,2.43-.48,5.49,5.49,0,0,0,1.86-1.29,5.43,5.43,0,0,0,1.16-1.92,7,7,0,0,0,0-4.71,5.52,5.52,0,0,0-1.16-1.92,5.63,5.63,0,0,0-1.86-1.29,5.92,5.92,0,0,0-2.43-.48,6.06,6.06,0,0,0-2.43.48,6.42,6.42,0,0,0-2,1.29,6.23,6.23,0,0,0-1.31,1.92A5.89,5.89,0,0,0,360.32,211.58Z"/><path class="cls-1" d="M392.26,216.18a6.44,6.44,0,0,1-2.77,2.44,8.82,8.82,0,0,1-3.63.73,7.92,7.92,0,0,1-3.07-.57,6.95,6.95,0,0,1-3.89-4.08,9.07,9.07,0,0,1-.53-3.16,8.33,8.33,0,0,1,.55-3.07,7.17,7.17,0,0,1,6.84-4.67,7.27,7.27,0,0,1,3,.59,6.69,6.69,0,0,1,2.17,1.57,6.61,6.61,0,0,1,1.33,2.22,7.46,7.46,0,0,1,.45,2.53v1.35H380.29a6.6,6.6,0,0,0,.24,1.55,5.45,5.45,0,0,0,.88,1.84,5.53,5.53,0,0,0,1.71,1.53,5.33,5.33,0,0,0,2.77.64,6.19,6.19,0,0,0,2.85-.7,5.11,5.11,0,0,0,2.11-1.92Zm-1.47-5.85a4.5,4.5,0,0,0-.4-1.86A5.11,5.11,0,0,0,389.3,207a5.25,5.25,0,0,0-3.63-1.42,4.85,4.85,0,0,0-2.61.64,5.73,5.73,0,0,0-2.51,3.09,4.37,4.37,0,0,0-.26,1.07Z"/><path class="cls-1" d="M409.12,212.76c0,.73,0,1.38,0,2s0,1.11.05,1.6.05.95.08,1.38.08.85.14,1.28h-1.79a13.74,13.74,0,0,1-.19-2.4h-.07a5.37,5.37,0,0,1-2.06,2.11,6.44,6.44,0,0,1-3.12.67,7.53,7.53,0,0,1-1.89-.24,4.77,4.77,0,0,1-1.66-.77A4,4,0,0,1,397,215a3.94,3.94,0,0,1,.87-2.69,5.34,5.34,0,0,1,2.12-1.49,10.37,10.37,0,0,1,2.69-.64c.95-.09,1.79-.14,2.52-.14h2.24v-.9a3.13,3.13,0,0,0-1.19-2.75,5.08,5.08,0,0,0-3-.83,6.75,6.75,0,0,0-4.52,1.66l-1.12-1.31a6.88,6.88,0,0,1,2.63-1.55,9.46,9.46,0,0,1,3-.53,6.71,6.71,0,0,1,4.28,1.26,4.9,4.9,0,0,1,1.6,4.08Zm-3.84-1.22a16.35,16.35,0,0,0-2.35.17,7.79,7.79,0,0,0-2.05.54,3.83,3.83,0,0,0-1.45,1,2.36,2.36,0,0,0-.55,1.6,2.28,2.28,0,0,0,.31,1.2,2.72,2.72,0,0,0,.78.87,3.91,3.91,0,0,0,1.07.51,4.14,4.14,0,0,0,1.2.17,6.14,6.14,0,0,0,2.53-.44,4.39,4.39,0,0,0,1.59-1.17,4.17,4.17,0,0,0,.81-1.63,7.66,7.66,0,0,0,.23-1.84v-1Z"/><path class="cls-1" d="M427.27,216.79a7,7,0,0,1-2.47,1.94,7.18,7.18,0,0,1-3,.62,8.47,8.47,0,0,1-3.14-.57,7.19,7.19,0,0,1-4.06-4.08,8.68,8.68,0,0,1,0-6.24,7.36,7.36,0,0,1,1.6-2.47,7.06,7.06,0,0,1,2.46-1.61,8.28,8.28,0,0,1,3.14-.58,6.85,6.85,0,0,1,3,.67,7.91,7.91,0,0,1,2.48,1.89l-1.54,1.15a6.5,6.5,0,0,0-1.82-1.45,4.49,4.49,0,0,0-2.14-.53,5.92,5.92,0,0,0-2.43.48,5.63,5.63,0,0,0-1.86,1.29,5.7,5.7,0,0,0-1.17,1.92,7.13,7.13,0,0,0,0,4.71,5.6,5.6,0,0,0,1.17,1.92,5.49,5.49,0,0,0,1.86,1.29,5.92,5.92,0,0,0,2.43.48,4.41,4.41,0,0,0,2.22-.56,5.72,5.72,0,0,0,1.74-1.48Z"/><path class="cls-1" d="M444,216.18a6.44,6.44,0,0,1-2.77,2.44,8.82,8.82,0,0,1-3.63.73,7.92,7.92,0,0,1-3.07-.57,6.95,6.95,0,0,1-3.89-4.08,9.07,9.07,0,0,1-.53-3.16,8.33,8.33,0,0,1,.55-3.07,7.17,7.17,0,0,1,6.84-4.67,7.23,7.23,0,0,1,3,.59,6.55,6.55,0,0,1,3.5,3.79,7.46,7.46,0,0,1,.45,2.53v1.35H432a6.6,6.6,0,0,0,.24,1.55,5.64,5.64,0,0,0,.88,1.84,5.53,5.53,0,0,0,1.71,1.53,5.33,5.33,0,0,0,2.77.64,6.19,6.19,0,0,0,2.85-.7,5.11,5.11,0,0,0,2.11-1.92Zm-1.47-5.85a4.5,4.5,0,0,0-.4-1.86A5.11,5.11,0,0,0,441,207a5.25,5.25,0,0,0-3.63-1.42,4.85,4.85,0,0,0-2.61.64,5.73,5.73,0,0,0-2.51,3.09,4.37,4.37,0,0,0-.26,1.07Z"/><path class="cls-1" d="M448.16,210.52h7.91v1.73h-7.91Z"/><path class="cls-1" d="M459.81,211.58a8.14,8.14,0,0,1,.58-3.12A7.36,7.36,0,0,1,462,206a7.06,7.06,0,0,1,2.46-1.61,8.24,8.24,0,0,1,3.14-.58,8.14,8.14,0,0,1,3.12.58,7.25,7.25,0,0,1,2.46,1.61,7.57,7.57,0,0,1,1.62,2.47,8.82,8.82,0,0,1,0,6.24,7.3,7.3,0,0,1-4.08,4.08,8.33,8.33,0,0,1-3.12.57,8.43,8.43,0,0,1-3.14-.57,7.19,7.19,0,0,1-4.06-4.08A8.14,8.14,0,0,1,459.81,211.58Zm1.92,0a6.79,6.79,0,0,0,.4,2.35,5.47,5.47,0,0,0,3,3.21,6.42,6.42,0,0,0,4.87,0,5.55,5.55,0,0,0,1.85-1.29,5.31,5.31,0,0,0,1.17-1.92,7.13,7.13,0,0,0,0-4.71,5.4,5.4,0,0,0-1.17-1.92A5.7,5.7,0,0,0,470,206a6.42,6.42,0,0,0-4.87,0,5.47,5.47,0,0,0-3,3.21A6.84,6.84,0,0,0,461.73,211.58Z"/><path class="cls-1" d="M481.38,205.91h-3.07v-1.73h3.07v-4.83a5.69,5.69,0,0,1,.43-2.38,4.5,4.5,0,0,1,1.07-1.52,3.68,3.68,0,0,1,1.43-.82,5,5,0,0,1,1.48-.24,5.37,5.37,0,0,1,2.21.39l-.38,1.66a4,4,0,0,0-1.73-.32q-2.59,0-2.59,3.94v4.12h3.45v1.73H483.3V219h-1.92Z"/><path class="cls-1" d="M489.22,210.52h7.9v1.73h-7.9Z"/><path class="cls-1" d="M501.7,208.34c0-.27,0-.61,0-1s0-.8-.05-1.2,0-.79-.05-1.14,0-.62,0-.82h1.92c0,.56,0,1.09.05,1.61a4.45,4.45,0,0,0,.08,1h.09a5.3,5.3,0,0,1,1.92-2.1,5.58,5.58,0,0,1,3.14-.88,5.05,5.05,0,0,1,2.69.75,4.3,4.3,0,0,1,1.76,2.45,4.72,4.72,0,0,1,2.09-2.43,6,6,0,0,1,2.93-.77,6.38,6.38,0,0,1,2.82.54,4.65,4.65,0,0,1,1.71,1.43,5.45,5.45,0,0,1,.86,2,11.62,11.62,0,0,1,.24,2.37V219h-1.92v-8.71a9.16,9.16,0,0,0-.16-1.74,4.68,4.68,0,0,0-.56-1.52,3,3,0,0,0-1.12-1.07,3.79,3.79,0,0,0-1.87-.4A4.41,4.41,0,0,0,516,206a4.06,4.06,0,0,0-1.36,1.27,5.29,5.29,0,0,0-.7,1.66,7.52,7.52,0,0,0-.21,1.7V219h-1.92v-8.9a6.33,6.33,0,0,0-.75-3.29,2.51,2.51,0,0,0-2.32-1.25,5.34,5.34,0,0,0-2,.37,4.18,4.18,0,0,0-1.63,1.12A5.32,5.32,0,0,0,504,208.9a8,8,0,0,0-.4,2.68V219H501.7Z"/><path class="cls-1" d="M529.44,198.33a1.42,1.42,0,0,1,1.44-1.44,1.4,1.4,0,0,1,1.44,1.44,1.42,1.42,0,0,1-1.44,1.44,1.43,1.43,0,0,1-1.44-1.44Zm.48,5.85h1.92V219h-1.92Z"/><path class="cls-1" d="M537.92,208.34c0-.27,0-.61,0-1s0-.8,0-1.2,0-.79-.05-1.14,0-.62,0-.82h1.92c0,.56,0,1.09.05,1.61a5.19,5.19,0,0,0,.08,1h.1a5.2,5.2,0,0,1,1.91-2.1,5.6,5.6,0,0,1,3.14-.88,6.38,6.38,0,0,1,2.82.54,4.65,4.65,0,0,1,1.71,1.43,5.29,5.29,0,0,1,.86,2,11.62,11.62,0,0,1,.24,2.37V219h-1.92v-8.71a9.16,9.16,0,0,0-.16-1.74A4.46,4.46,0,0,0,548,207a2.89,2.89,0,0,0-1.12-1.07,3.79,3.79,0,0,0-1.87-.4,5.38,5.38,0,0,0-2,.37,4.26,4.26,0,0,0-1.63,1.12,5.48,5.48,0,0,0-1.09,1.88,8,8,0,0,0-.4,2.68V219h-1.92Z"/><path class="cls-1" d="M569.28,216.38h-.06a5.32,5.32,0,0,1-1.12,1.33,6.77,6.77,0,0,1-1.46.92,7.11,7.11,0,0,1-1.65.55,9,9,0,0,1-1.69.17,8.47,8.47,0,0,1-3.14-.57,7.19,7.19,0,0,1-4.06-4.08,8.68,8.68,0,0,1,0-6.24,7.36,7.36,0,0,1,1.6-2.47,7.06,7.06,0,0,1,2.46-1.61A8.51,8.51,0,0,1,565,204a7.09,7.09,0,0,1,1.65.54,7.22,7.22,0,0,1,1.46.93,5,5,0,0,1,1.12,1.33h.06v-12h1.92V219h-1.92Zm.19-4.8a5.89,5.89,0,0,0-.48-2.36,6.06,6.06,0,0,0-1.31-1.92,6.26,6.26,0,0,0-1.95-1.29,6.13,6.13,0,0,0-2.43-.48,6,6,0,0,0-2.44.48,5.47,5.47,0,0,0-3,3.21,7.13,7.13,0,0,0,0,4.71,5.47,5.47,0,0,0,3,3.21,6,6,0,0,0,2.44.48,6.22,6.22,0,0,0,4.38-1.77,6,6,0,0,0,1.31-1.92A5.85,5.85,0,0,0,569.47,211.58Z"/><line class="cls-2" x1="263.34" y1="175.98" x2="527.34" y2="175.98"/><path class="cls-3" d="M185.64,86.92h-.43a14.14,14.14,0,0,0-2.37.3,12.28,12.28,0,0,0-3.48,1.33,13.67,13.67,0,0,0-3.66,3.06,14.59,14.59,0,0,0-2.79,5.54l-17,57.88h-.6l-17-57.19L121.57,155h-.69l-17.2-58L103.33,96a19.89,19.89,0,0,0-2.19-5.2,7.75,7.75,0,0,0-2.49-2.54,6.54,6.54,0,0,0-2.8-.9c-1-.09-2-.22-3.09-.39h-.09v-.6h28.21v.6h-.26c-1.49,0-2.9,0-4.21.13a5.84,5.84,0,0,0-3.19,1A4.11,4.11,0,0,0,111.76,91a14.77,14.77,0,0,0,.95,5.81l12.64,43,12.64-43a.9.9,0,0,1-.17-.47.8.8,0,0,0-.09-.39,19.89,19.89,0,0,0-2.19-5.2,7.75,7.75,0,0,0-2.49-2.54,6.62,6.62,0,0,0-2.84-.9c-1-.09-2-.22-3.05-.39h-.09v-.6h28.21v.6H155q-2.24,0-4.17.09a5.69,5.69,0,0,0-3.18,1,4.06,4.06,0,0,0-1.51,2.93,15.07,15.07,0,0,0,1,5.89l12.64,43,13.07-44.72q.78-2.84-.3-4.43a7.09,7.09,0,0,0-2.88-2.45,11.87,11.87,0,0,0-3.74-1.08c-1.29-.14-2.22-.21-2.8-.21h-.51v-.6h23Z"/><path class="cls-3" d="M172,154.43l1.5-.17a10.5,10.5,0,0,0,3.36-1.16A17.6,17.6,0,0,0,180.9,150a16.54,16.54,0,0,0,3.7-5.93l23.14-57.79h.68l23.05,57.62a37.37,37.37,0,0,0,2.84,5.8,11.64,11.64,0,0,0,2.58,3,5.91,5.91,0,0,0,2.62,1.21l3.06.47v.6H214.36v-.6c2.06-.11,3.82-.24,5.29-.39a6,6,0,0,0,3.31-1.16,3.4,3.4,0,0,0,.94-3,23,23,0,0,0-1.72-6.06l-6.36-16h-24L185.29,144a8.27,8.27,0,0,0-.73,4.35,5.72,5.72,0,0,0,1.33,2.92,7.09,7.09,0,0,0,2.54,1.81,15.66,15.66,0,0,0,2.92.94,15.44,15.44,0,0,0,2.45.35l1.12,0v.6H172Zm31.9-56.59-11.78,29.33h23.48Z"/><path class="cls-3" d="M246.43,155.2v-.6h.09a34.52,34.52,0,0,0,4.95-.3,6.51,6.51,0,0,0,3.18-1.25,5.26,5.26,0,0,0,1.67-2.58,14.79,14.79,0,0,0,.52-4.38V95.43q0-4.73-1.68-6.49c-1.11-1.17-3.11-1.85-6-2h-2.76V86.4H279.2a35.42,35.42,0,0,1,10,1.29,22.24,22.24,0,0,1,6.88,3.7A14.51,14.51,0,0,1,300,96.77a17.5,17.5,0,0,1,1.33,6.92q0,7.74-5.24,12.3a20.77,20.77,0,0,1-6.88,3.7,18.67,18.67,0,0,1-4,.94c-1.41.17-2.88.32-4.43.43a13.15,13.15,0,0,1,3.83,1.81,19.78,19.78,0,0,1,4.6,4.73L305.34,150a8.72,8.72,0,0,0,2.89,2.54,17.55,17.55,0,0,0,3.26,1.38,14,14,0,0,0,2.8.56l1.46.08h.09v.6h-17.2l-21-29.07a21,21,0,0,0-2.36-2.7,10.17,10.17,0,0,0-2.07-1.51,7.13,7.13,0,0,0-1.93-.69,11.49,11.49,0,0,0-2-.17h-3.18v25.11a16.6,16.6,0,0,0,.39,4,5.29,5.29,0,0,0,1.29,2.49,5.52,5.52,0,0,0,2.36,1.42,13.55,13.55,0,0,0,3.61.56h2.67v.6h-30Zm19.7-34.66h12.38a12.4,12.4,0,0,0,7.23-2.14,13.33,13.33,0,0,0,1.93-1.77,14.23,14.23,0,0,0,1.85-2.54,20.57,20.57,0,0,0,1.63-4.68,25.66,25.66,0,0,0,.61-5.72q0-7.39-3.19-11.87a11.64,11.64,0,0,0-10.06-4.9h-5.59a11,11,0,0,0-3.18.69,5.36,5.36,0,0,0-2.11,1.46,5.65,5.65,0,0,0-1.16,2.49,17.85,17.85,0,0,0-.34,3.79v25.19Z"/><path class="cls-3" d="M319.62,155.2v-.6h.09a34.37,34.37,0,0,0,4.94-.3,6.43,6.43,0,0,0,3.18-1.25,5.21,5.21,0,0,0,1.68-2.58,15.13,15.13,0,0,0,.52-4.38V95.43q0-4.73-1.68-6.49c-1.12-1.17-3.11-1.85-6-2h-2.75V86.4h32.77a35.34,35.34,0,0,1,10,1.29,22.13,22.13,0,0,1,6.88,3.7,14.53,14.53,0,0,1,3.92,5.38,17.67,17.67,0,0,1,1.33,6.92q0,7.74-5.25,12.3a20.67,20.67,0,0,1-6.88,3.7,18.39,18.39,0,0,1-4,.94c-1.4.17-2.88.32-4.43.43a12.91,12.91,0,0,1,3.83,1.81,19.41,19.41,0,0,1,4.6,4.73L378.53,150a8.59,8.59,0,0,0,2.88,2.54,17.92,17.92,0,0,0,3.27,1.38,13.81,13.81,0,0,0,2.8.56l1.46.08H389v.6h-17.2l-21-29.07a20.21,20.21,0,0,0-2.37-2.7,9.86,9.86,0,0,0-2.06-1.51,7.19,7.19,0,0,0-1.94-.69,11.46,11.46,0,0,0-2-.17h-3.19v25.11a16.6,16.6,0,0,0,.39,4,5.1,5.1,0,0,0,3.66,3.91,13.48,13.48,0,0,0,3.61.56h2.67v.6h-30Zm19.69-34.66H351.7a12.35,12.35,0,0,0,7.22-2.14,13.37,13.37,0,0,0,1.94-1.77,14.74,14.74,0,0,0,1.85-2.54,20.57,20.57,0,0,0,1.63-4.68,25.68,25.68,0,0,0,.6-5.72q0-7.39-3.18-11.87a11.64,11.64,0,0,0-10.06-4.9h-5.59a11,11,0,0,0-3.18.69,5.29,5.29,0,0,0-2.11,1.46,5.55,5.55,0,0,0-1.16,2.49,17.78,17.78,0,0,0-.35,3.79v25.19Z"/><path class="cls-3" d="M393,154.43l1.5-.17a10.5,10.5,0,0,0,3.36-1.16,17.6,17.6,0,0,0,4.08-3.06,16.54,16.54,0,0,0,3.7-5.93l23.13-57.79h.69l23.05,57.62a37.37,37.37,0,0,0,2.84,5.8,11.64,11.64,0,0,0,2.58,3,5.91,5.91,0,0,0,2.62,1.21l3.05.47v.6h-28.2v-.6c2.06-.11,3.82-.24,5.29-.39a6,6,0,0,0,3.31-1.16,3.4,3.4,0,0,0,.94-3,23,23,0,0,0-1.72-6.06l-6.36-16h-24L406.31,144a8.27,8.27,0,0,0-.73,4.35,5.72,5.72,0,0,0,1.33,2.92,7.09,7.09,0,0,0,2.54,1.81,15.66,15.66,0,0,0,2.92.94,15.44,15.44,0,0,0,2.45.35l1.12,0v.6H393Zm31.9-56.59L413.1,127.17h23.48Z"/><path class="cls-3" d="M549.33,86.4V87H548a22.62,22.62,0,0,0-3.66.38A16,16,0,0,0,540,88.85,10.94,10.94,0,0,0,536.21,92a8.8,8.8,0,0,0-1.59,5.51v57.7h-.69L483.36,91.91V144a8.91,8.91,0,0,0,1.59,5.59,10.75,10.75,0,0,0,3.75,3.14,15.41,15.41,0,0,0,4.42,1.46,22.83,22.83,0,0,0,3.66.39h1.29v.6H468v-.6h1.29a22.61,22.61,0,0,0,3.65-.39,15.37,15.37,0,0,0,4.43-1.46,10.63,10.63,0,0,0,3.74-3.14,8.85,8.85,0,0,0,1.6-5.59V95.09q0-2.07-.09-3.57a5.14,5.14,0,0,0-.77-2.54,4,4,0,0,0-2.28-1.5,16.93,16.93,0,0,0-4.6-.47h-2.67V86.4h18.4l43.26,53.75V97.5A8.8,8.8,0,0,0,532.34,92a10.94,10.94,0,0,0-3.74-3.14,16,16,0,0,0-4.43-1.46,22.62,22.62,0,0,0-3.65-.38h-1.29V86.4h30.1Z"/><path class="cls-3" d="M613.82,104.21V104q-.69-2.66-1.54-5.54a19.8,19.8,0,0,0-2.54-5.38,14,14,0,0,0-4.56-4.21,17,17,0,0,0-7.52-2.07h-.78c-2.52.23-4.28.94-5.29,2.11s-1.5,3.25-1.5,6.24V146a16.67,16.67,0,0,0,.39,3.91,5.28,5.28,0,0,0,1.29,2.54,5.52,5.52,0,0,0,2.36,1.42,13.62,13.62,0,0,0,3.61.56h2.67v.6H570.48v-.6a34.52,34.52,0,0,0,4.95-.3,6.51,6.51,0,0,0,3.18-1.25,5.26,5.26,0,0,0,1.67-2.58,14.79,14.79,0,0,0,.52-4.38V95.26a16.57,16.57,0,0,0-.39-4,5.27,5.27,0,0,0-1.29-2.5,5.17,5.17,0,0,0-2.36-1.37,18.33,18.33,0,0,0-3.61-.61h-.52a16.7,16.7,0,0,0-7.48,2.07,14.68,14.68,0,0,0-4.56,4.21A18.8,18.8,0,0,0,558,98.49q-.85,2.88-1.46,5.54v.18H556V86.15h58.48v18.06Z"/><path class="cls-3" d="M659.15,125.71V146c0,3.16.57,5.33,1.72,6.54s3.18,1.8,6.1,1.8h2.67V155h-30v-.69a33.63,33.63,0,0,0,4.91-.3,7,7,0,0,0,3.18-1.2,5,5,0,0,0,1.72-2.58,15.26,15.26,0,0,0,.52-4.34V125.71l-7.27-13.38q-3-5.46-4.95-9.07l-3.05-5.59q-1.08-2-1.59-3l-.65-1.24a1.48,1.48,0,0,0-.21-.35,10.42,10.42,0,0,0-3-3.44,13.79,13.79,0,0,0-3.61-1.89,16.52,16.52,0,0,0-3.27-.77,19.63,19.63,0,0,0-2.07-.18v-.51H647v.51h-1.46c-.63.06-1.35.16-2.15.3a5.8,5.8,0,0,0-2.07.78,2.75,2.75,0,0,0-1.16,1.55,3.5,3.5,0,0,0,.65,2.62l18,33,13.25-24.16A34.24,34.24,0,0,0,674.67,95a10.84,10.84,0,0,0,.6-4,4.12,4.12,0,0,0-.82-2.37,4.27,4.27,0,0,0-1.59-1.2,5.71,5.71,0,0,0-1.8-.47c-.6-.06-1.08-.09-1.42-.09v-.6h23.05v.6h-.35a18.38,18.38,0,0,0-3.09.47,20.59,20.59,0,0,0-5.08,1.94,29.23,29.23,0,0,0-5.93,4.21,26.49,26.49,0,0,0-5.59,7.4Z"/><path class="cls-4" d="M24.33,61.75A59.75,59.75,0,0,1,32,56.25a96.18,96.18,0,0,1,8.81-4.75c.33-.17.79-.38,1.38-.62s.95-.05,1.12.62a1.22,1.22,0,0,1-.93,1.38c-.71.24-1.24.41-1.57.5-.5.33-1,.62-1.43.87s-.9.5-1.32.75A70.59,70.59,0,0,0,30,60.12a83.24,83.24,0,0,0-7.25,6c-.59,1.42-1.23,2.84-1.94,4.26s-1.48,2.79-2.31,4.12-1.67,2.65-2.5,3.94a16.16,16.16,0,0,1-3,3.44,9.93,9.93,0,0,1-1.44.93,3.15,3.15,0,0,1-1.94.31.7.7,0,0,0-.43-.24.67.67,0,0,1-.44-.26,3.19,3.19,0,0,1-.31-2.93,13.45,13.45,0,0,1,1.31-2.57,13.49,13.49,0,0,1,1.5-2.37q.87-1.12,1.5-2.13l3.44-4.18q1.68-2.07,3.56-4.06c.41-1.34.85-2.67,1.31-4a14.67,14.67,0,0,0,.69-4.76,9.64,9.64,0,0,0-3.81,3.07c-1,1.37-2.07,2.73-3.07,4.06A90.76,90.76,0,0,0,8.46,74.69,48.74,48.74,0,0,0,4.58,89.62a5.51,5.51,0,0,1-1,2.88q-.75.87-2.37,0A6.51,6.51,0,0,1,.15,89c0-1.33-.07-2.67-.07-4S0,82.15,0,80.69s.11-2.9.19-4.31q.5-12.63,2-24.13A89.7,89.7,0,0,1,7.33,31.38c.25-.5.5-1.07.75-1.69A10.6,10.6,0,0,1,9,27.94a3.09,3.09,0,0,1,1.25-1.19,2.13,2.13,0,0,1,1.87.13c-.17.74-.37,1.62-.62,2.62s-.46,1.79-.63,2.38v-.5a28.56,28.56,0,0,0-1.37,4.74c-.34,1.67-.71,3.38-1.13,5.13A135.49,135.49,0,0,0,6,57.75q-.69,8.63-1.31,17.5,1.5-3.63,3.06-7.06a38.84,38.84,0,0,1,3.69-6.44,36.81,36.81,0,0,1,4.37-5.87c.83-.84,1.71-1.67,2.63-2.5a6.14,6.14,0,0,1,3.62-1.5,2.61,2.61,0,0,1,2.25,1.24,6.41,6.41,0,0,1,.75,2.63,12,12,0,0,1-.18,3.13C24.69,60,24.5,60.92,24.33,61.75Zm-11,13.87a11.65,11.65,0,0,0-2.12,4,40,40,0,0,0,5-7.62Q14.83,73.76,13.33,75.62Z"/><path class="cls-4" d="M43.46,57.38a23.72,23.72,0,0,0-1.63,4.56,21.28,21.28,0,0,0-.75,5.5,9.37,9.37,0,0,0,1.13,4.68,4.41,4.41,0,0,0,4,2.13,12.37,12.37,0,0,0,6.18-1.37A57.27,57.27,0,0,0,57.46,70c1.66-1.17,3.22-2.31,4.68-3.44s2.77-2.23,3.94-3.31a70.25,70.25,0,0,0,6.19-5.37C74.23,56,76.16,54,78.08,52a3.08,3.08,0,0,0,.81-1,11.91,11.91,0,0,1,.94-1.38,7.08,7.08,0,0,1,1.06-1.06,1,1,0,0,1,1.19-.06c.58.25.71.75.38,1.5a9.09,9.09,0,0,1-.88,1.62A4.63,4.63,0,0,1,80.83,53c-.33.42-.67.88-1,1.38a94.75,94.75,0,0,1-6.56,6.87q-3.43,3.25-7.06,6.5a51.47,51.47,0,0,1-10.5,7.5,28.06,28.06,0,0,1-3.13,1.44,18,18,0,0,1-3.62,1,16.77,16.77,0,0,1-3.82.19,7.66,7.66,0,0,1-3.56-1.13,5.72,5.72,0,0,1-1.31-1.19l-1.19-1.44a12,12,0,0,1-1.56-5.31,23.82,23.82,0,0,1,.37-5.93,37,37,0,0,1,1.57-5.76,35.09,35.09,0,0,1,2-4.62,51.88,51.88,0,0,1,5-7.38,14.61,14.61,0,0,1,7.62-4.74,6,6,0,0,1,4.19,1.12,4.28,4.28,0,0,1,1.31,4,8.21,8.21,0,0,1-1.5,3.75,25.06,25.06,0,0,1-2.62,3.13,27.88,27.88,0,0,1-4.94,3.93C48.73,57.44,46.37,57.79,43.46,57.38ZM55.08,44a13,13,0,0,0-6.62,4.56,45.77,45.77,0,0,0-4.25,6.94,7.82,7.82,0,0,0,4.62-1.25,33,33,0,0,0,3.25-2.63q1.38-1.5,2.88-3a5.37,5.37,0,0,0,1.37-4.24A1.34,1.34,0,0,0,55.08,44Z"/><path class="cls-4" d="M84.83,50.88a10.27,10.27,0,0,0-3.75,3,12,12,0,0,0-1.56,2,4,4,0,0,0-.69,2.62,4.4,4.4,0,0,0,1.37,2.44c.75.71,1.42,1.35,2,1.94l1.94,1.93a17.77,17.77,0,0,1,1.69,1.94q3.12-2.25,5.94-4.69a56.41,56.41,0,0,1,6.06-4.56,46.56,46.56,0,0,1,4.69-3.12c1.7-1,3.48-2,5.31-2.88l1.75-.88a1.69,1.69,0,0,1,1.87.13,1.26,1.26,0,0,1-.12,1,1.5,1.5,0,0,1-.75.56l-1,.38a1.5,1.5,0,0,0-.75.56,34.47,34.47,0,0,0-5.06,2.81c-1.55,1-3.11,2.06-4.69,3.06q-6,4.5-11.63,9.38a38.93,38.93,0,0,1,3.07,5.88,18.3,18.3,0,0,1,1.31,7.12,20.7,20.7,0,0,1-1.25,8A23,23,0,0,1,86.83,96a27.58,27.58,0,0,1-5.38,4.75,11.78,11.78,0,0,1-7.25,2.13,8.92,8.92,0,0,1-2.87-.63A10.9,10.9,0,0,1,69.2,101a13,13,0,0,1-2-2.88,9.18,9.18,0,0,1-.87-3.62,13.78,13.78,0,0,1,1.62-8,42.86,42.86,0,0,1,4.13-6.25A52.22,52.22,0,0,1,77,74.81q2.55-2.43,5.06-4.56a15.07,15.07,0,0,0-2-2.31Q79,66.88,77.83,65.75a21.85,21.85,0,0,1-2.06-2.37,9.57,9.57,0,0,1-1.44-2.76,6.42,6.42,0,0,1,.06-5.06,20.23,20.23,0,0,1,2.44-4.06,33,33,0,0,1,2.44-2.44,11.5,11.5,0,0,1,2.81-1.81A11.68,11.68,0,0,1,84,46.88a3.6,3.6,0,0,1,1.88.24,2.38,2.38,0,0,0,.69.69,2,2,0,0,1,.68.94,4.17,4.17,0,0,1,.07,2.37c-.21.92-.52,1.38-.94,1.38-.58.08-.92-.08-1-.5A2.65,2.65,0,0,0,84.83,50.88ZM83.2,72.5Q81.09,74.26,79,76.38A54.91,54.91,0,0,0,74.83,81q-1.12,1.38-2.31,3.06a18.69,18.69,0,0,0-2,3.69,17.88,17.88,0,0,0-1.13,4.19,10.2,10.2,0,0,0,.44,4.56,9,9,0,0,0,1.62,1.69,3.83,3.83,0,0,0,2.38.69,8.8,8.8,0,0,0,5.06-1.94A21.92,21.92,0,0,0,82.83,93a17.13,17.13,0,0,0,2.44-4.75,21.62,21.62,0,0,0,1.12-5.56,17.74,17.74,0,0,0-.5-5.57,13.3,13.3,0,0,0-2.31-4.87.12.12,0,0,0-.13-.13C83.29,72.29,83.2,72.42,83.2,72.5ZM70,103.62c0,.09.09,0,.25-.12C70.2,103.58,70.12,103.62,70,103.62Z"/><path class="cls-4" d="M117,34.62q10.76-.36,22.38-1.12a165.12,165.12,0,0,1,23.12.12c.42,0,.88,0,1.38.07a1.08,1.08,0,0,1,1,.69c-.08.66-.4,1-.94,1a7.69,7.69,0,0,1-1.44-.13,225.52,225.52,0,0,0-23.12.19q-11.51.69-22.63,1.31Q115,47,113.52,57.62a153.92,153.92,0,0,0-1.32,22.26c0,1.08,0,2.29.13,3.62a25.17,25.17,0,0,0,.5,3.75c.17.92.44,2,.81,3.37s.94,2,1.69,2.13a1.67,1.67,0,0,0,1.31-.37A13.29,13.29,0,0,0,118,91.19a15.34,15.34,0,0,0,1.25-1.44c.37-.5.64-.87.81-1.13A121.89,121.89,0,0,0,129,75.31q3.93-6.81,8.31-14.19,1.13-2,2.37-4.12c.84-1.42,1.75-2.83,2.75-4.25a12.76,12.76,0,0,1,1.13-1.44,1.09,1.09,0,0,1,1.25-.43c.67.33.79.85.37,1.56a15.84,15.84,0,0,1-1,1.56q-3.12,5.25-5.87,10.62t-5.88,10.63c-1.16,1.92-2.31,3.86-3.43,5.81s-2.32,3.9-3.57,5.82-2.54,3.79-3.87,5.62a13.37,13.37,0,0,1-5.13,4.25,6.79,6.79,0,0,1-2.62,0,7.76,7.76,0,0,1-4.31-4.69A34,34,0,0,1,107.83,85a53.42,53.42,0,0,1-.63-8.31c0-2.88.09-5.69.25-8.44q.63-8.37,1.69-16.19t2.56-14.94Q106,37.38,100,38T88,38.88q-.75,0-1.68.06c-.63,0-1-.27-1.07-.94a.89.89,0,0,1,1-1A11.18,11.18,0,0,0,88,36.88q5.88-.39,12-1T112.08,35q.75-2.62,1.69-6.19A50.42,50.42,0,0,1,116,22.25a9.61,9.61,0,0,1,.94-2.06A2,2,0,0,1,118.58,19a1.31,1.31,0,0,1,1.19.5,1.93,1.93,0,0,1,.25,1.19,11.32,11.32,0,0,1-.25,1.43c-.13.5-.23,1-.32,1.38q-.61,2.74-1.25,5.69T117,34.62Z"/><path class="cls-4" d="M172.83,50.12a1.93,1.93,0,0,1,.44,1.38c-.05.5-.07,1-.07,1.62-.08,1.42-.1,3-.06,4.63s.06,3.29.06,4.87,0,3.13-.06,4.63a5.44,5.44,0,0,1-1.31,3.63h-1a4,4,0,0,1-.94-1.94,19.82,19.82,0,0,1-.44-2.82c-.08-1.83-.1-3.74-.06-5.74a53.84,53.84,0,0,1,.44-5.88c.08-.5.17-1.08.25-1.75a6.49,6.49,0,0,1,.44-1.75,2,2,0,0,1,.87-1.06A1.45,1.45,0,0,1,172.83,50.12Zm.62-24.24a2.84,2.84,0,0,1-1,2,1.34,1.34,0,0,1-1.43-.26,1.94,1.94,0,0,1-.5-1.18,1.49,1.49,0,0,1,.37-1.19,1.54,1.54,0,0,1,1.44-.37C173,25.21,173.37,25.54,173.45,25.88Z"/><path class="cls-4" d="M204.83,70a8.7,8.7,0,0,0,2.06-2.38c.54-.91,1.1-1.83,1.69-2.74s1.14-1.84,1.69-2.76,1.06-1.83,1.56-2.74,1.16-1.59,1.75-2.5,1.2-1.84,1.87-2.76c.42-.58.83-1.18,1.25-1.81a8,8,0,0,1,1.44-1.62,3.88,3.88,0,0,1,1.81-.88,4.11,4.11,0,0,1,2.25.31,5.49,5.49,0,0,1,1.44,3.07,32.35,32.35,0,0,1,.38,4.06c0,1.42.1,2.83.18,4.25a9.18,9.18,0,0,0,.88,3.62,7.1,7.1,0,0,0,2.56-2.18c.71-1,1.39-1.9,2.06-2.82s1.32-2,1.94-3.06a20.32,20.32,0,0,0,1.56-3.18,8.59,8.59,0,0,0,1.07-2.19c.29-.88,1-1.23,2.06-1.07a2.15,2.15,0,0,1-.13,2.32,5.41,5.41,0,0,0-.87,2.31c-.42.75-.8,1.48-1.13,2.19s-.67,1.44-1,2.18a24.48,24.48,0,0,0-2.5,3.76A12.86,12.86,0,0,1,227.83,67a4.6,4.6,0,0,1-1.56,1,4.19,4.19,0,0,1-2.32.12,4.45,4.45,0,0,1-2.31-2.31,12.86,12.86,0,0,1-.94-3.62,35.77,35.77,0,0,1-.25-4.38,23.38,23.38,0,0,0-.37-4.31,2.26,2.26,0,0,0-1.06.94c-.3.46-.61.89-.94,1.31-.92,1.25-1.81,2.58-2.69,4S213.7,62.58,213,64a39.77,39.77,0,0,0-3.31,5.56,10.38,10.38,0,0,1-4.31,4.56,5.5,5.5,0,0,0-.88.07,2.82,2.82,0,0,1-1-.07,8.06,8.06,0,0,1-1.25-.62,11.12,11.12,0,0,1-1.68-5.69q-.2-3.44-.19-7.06c0-2.42-.05-4.83-.13-7.25s-.21-4.71-.37-6.88a70.79,70.79,0,0,0-4.63,10.76c-1.33,3.91-2.62,8-3.87,12.24q-1.26,4.5-2.31,9.26t-2.32,9.74l-.5,2.26a10.59,10.59,0,0,1-.68,2.06,4.63,4.63,0,0,1-1.19,1.56,3.57,3.57,0,0,1-2,.75,2.53,2.53,0,0,1-2.25-1.81,21.19,21.19,0,0,1-.75-3.32,60.4,60.4,0,0,1,0-10.93q.49-5.82,1.12-11.07c.42-3.5.92-7,1.5-10.56s1.25-6.94,2-10.18c.25-1,.52-2.05.82-3.13A2.4,2.4,0,0,1,187,42.38a1.86,1.86,0,0,1,1.44.24,2.71,2.71,0,0,1,.69,1,6.29,6.29,0,0,1-.13,2.76,6.05,6.05,0,0,0-.12,2.74,8.61,8.61,0,0,0,.5,2.13,3.27,3.27,0,0,1,.12,2,.85.85,0,0,1-.81.5,1.32,1.32,0,0,1-.94-.37q-1,6.36-1.87,12.62t-1.25,13.25q2.11-7.25,4.5-15.13t5.25-15c.25-.58.58-1.39,1-2.43a15.32,15.32,0,0,1,1.56-2.94A7.31,7.31,0,0,1,199,41.62a2.57,2.57,0,0,1,2.68,0,3.31,3.31,0,0,1,1.69,2A15.36,15.36,0,0,1,204.2,47a29.22,29.22,0,0,1,.25,3.94c0,1.37,0,2.6.13,3.68a65.7,65.7,0,0,1,0,7.94A36,36,0,0,0,204.83,70Z"/><path class="cls-4" d="M236.45,77.88q3.26-7.75,7-14.88a39.56,39.56,0,0,1,9.75-12.12l1.19-.5a11.73,11.73,0,0,1,1.31-.5A4.18,4.18,0,0,1,259.45,51a6.83,6.83,0,0,1,1.63,3.44,11.4,11.4,0,0,1-.07,4.31,16.87,16.87,0,0,1-1.18,3.87,35.34,35.34,0,0,0,4.75-3.12c1.5-1.17,3.08-2.29,4.75-3.38q1.74-1.24,3.56-2.5t3.69-2.5a10.17,10.17,0,0,0,1.37-.68,1.22,1.22,0,0,1,1.5.18,1.16,1.16,0,0,1-.37,1.63c-.59.42-1.09.79-1.5,1.13q-5.25,3.61-10.13,7.31t-10,7.31a41.71,41.71,0,0,1-3,4.69,38.23,38.23,0,0,1-3.62,4.19c-.5.41-1.11,1-1.82,1.68a29.16,29.16,0,0,1-2.18,2,16.79,16.79,0,0,1-2.44,1.69,6.44,6.44,0,0,1-2.56.87c-1.84.26-2.84-.37-3-1.87a3,3,0,0,1,.68-2.63,24,24,0,0,1,1.82-1.74c.66-.67,1.27-1.26,1.81-1.76s1.1-1,1.69-1.5a41.13,41.13,0,0,0,4-2.93,41.65,41.65,0,0,1,4-2.94c.58-.92,1.18-2,1.81-3.19s1.19-2.44,1.69-3.68c.16-.59.35-1.26.56-2a15,15,0,0,0,.44-2.26,7.1,7.1,0,0,0-.07-2.12,3.23,3.23,0,0,0-.93-1.75A6.84,6.84,0,0,0,252,54.81a44.21,44.21,0,0,0-3.12,3.57,54.57,54.57,0,0,0-6.25,10.06A106.46,106.46,0,0,0,237.83,80c-.34.83-.65,1.65-.94,2.44a16.63,16.63,0,0,0-.69,2.44,26.16,26.16,0,0,0-.37,4.56c0,1.62-.05,3.23-.13,4.81-.17,3.17-.33,6.33-.5,9.5s-.37,6.37-.62,9.63c-.09.74-.15,1.51-.19,2.31a17.39,17.39,0,0,1-.25,2.19,4.9,4.9,0,0,1-.75,1.81,3.34,3.34,0,0,1-1.56,1.19h-.38a2.11,2.11,0,0,1-1.94-2.07c-.12-1.21-.18-2.39-.18-3.56a58.45,58.45,0,0,1,.18-7.19q.31-3.44.82-6.94c.16-1.08.37-2.16.62-3.24s.46-2.17.63-3.26a54,54,0,0,0,.37-6.43c0-2.21.09-4.31.25-6.31q.51-8,.94-15.76t.94-15.87V48.19A18.54,18.54,0,0,1,234.2,46a4.68,4.68,0,0,1,.56-1.75,1.54,1.54,0,0,1,1.44-.75,1.48,1.48,0,0,1,1.44.94,6.74,6.74,0,0,1,.56,2.25,15.78,15.78,0,0,1,0,2.75c-.08,1-.12,1.77-.12,2.44q-.51,6.49-.94,13.06T236.45,77.88Z"/><path class="cls-4" d="M283.58.12,283.7,0A2,2,0,0,1,286,1.62a13.53,13.53,0,0,1,.38,3,55.28,55.28,0,0,1-.44,10.19c-.46,3.3-.86,6.52-1.19,9.69q-.63,6.49-1.25,13.19t-1.12,13.43Q281.58,63,280.7,74.81a222.35,222.35,0,0,0-.37,24.94,15,15,0,0,0,.12,1.75,16.34,16.34,0,0,1,.13,1.94,5.49,5.49,0,0,1-.25,1.68,1,1,0,0,1-1,.76,1.78,1.78,0,0,1-2.19-1.5,20.46,20.46,0,0,1-.56-3.26c-.17-1.33-.27-2.62-.32-3.87s-.1-2.37-.18-3.37q.12-3.75,0-7.44c-.09-2.46-.09-4.82,0-7.06q.12-18.13,1.5-34.44t3.5-32.69l.75-6.37a25.53,25.53,0,0,0,.31-3.07A4.17,4.17,0,0,1,283.2.12Z"/><path class="cls-4" d="M308.83,48.38q-2.38,3.12-4.63,6.74c-1.5,2.42-3,4.76-4.5,7-1.08,1.59-2.21,3.3-3.37,5.13a25.48,25.48,0,0,1-4,4.87,9.09,9.09,0,0,1-1.75,1.57,2.74,2.74,0,0,1-2.38.31,3.39,3.39,0,0,1-1.75-2.75,38.7,38.7,0,0,1,2.31-10.87,50.8,50.8,0,0,1,4.44-9.26c.58-.91,1.23-1.83,1.94-2.74a6.77,6.77,0,0,1,2.31-2,3.58,3.58,0,0,1,4.19.18c1.21,1,1.64,2.48,1.31,4.56a6.7,6.7,0,0,0,1.44-2c.54-1,1.12-2,1.75-3.06a20.35,20.35,0,0,1,2-2.81,3.47,3.47,0,0,1,2.19-1.37,2.86,2.86,0,0,1,.87.12l.75.25a5.68,5.68,0,0,1,1.25,2.37c-.17,5-.5,9.74-1,14.19S311.33,68,311.08,73v2.25c0,.92-.05,1.83-.13,2.75a12.4,12.4,0,0,1-.44,2.44c-.21.71-.56,1.06-1.06,1.06a1.41,1.41,0,0,1-1.31-.81,6.45,6.45,0,0,1-.63-2,16.29,16.29,0,0,1-.18-2.44,13.05,13.05,0,0,0-.13-2A70.42,70.42,0,0,1,307.45,61Q308.2,54.51,308.83,48.38Zm-9,.24c0-.08-.05-.12-.13-.12a3.62,3.62,0,0,0-.69.31,3,3,0,0,1-.68.31,27,27,0,0,0-3.13,4.44,52.83,52.83,0,0,0-2.5,5.06c-.67,1.76-1.31,3.61-1.94,5.57a27.26,27.26,0,0,0-1.18,6.31,44.23,44.23,0,0,0,6.31-8.06q2.81-4.56,5.69-8.94a5,5,0,0,1-.63-2.69A2.14,2.14,0,0,0,299.83,48.62Z"/><path class="cls-4" d="M325.83,69.38q2.49-4.75,5-9.69a45.89,45.89,0,0,1,5.87-8.94c.33-.42.75-.92,1.25-1.5a9.19,9.19,0,0,1,1.63-1.5,5.2,5.2,0,0,1,1.93-.87,3.83,3.83,0,0,1,2.32.24c1.25.59,2.16,1.88,2.75,3.88s1.08,4,1.5,6c.16.92.35,1.88.56,2.88s.44,2,.69,3a20.69,20.69,0,0,0,1,2.81,2.65,2.65,0,0,0,1.5,1.69,2.09,2.09,0,0,0,1.87-.44,12.75,12.75,0,0,1,1.5-1.06c.5-.42,1-.77,1.38-1.07a9.66,9.66,0,0,0,1.25-1.06,54.19,54.19,0,0,0,5.25-5.25,64.49,64.49,0,0,1,5.25-5.38,20.85,20.85,0,0,1,2.18-1.43,3.21,3.21,0,0,1,1.5-.44c.46,0,.73.29.82.87s-.19.92-.82,1.26a5.8,5.8,0,0,0-1.43,1,30.38,30.38,0,0,0-3.5,3.56c-1.17,1.37-2.42,2.77-3.75,4.18-.67.67-1.32,1.3-1.94,1.88s-1.27,1.21-1.94,1.88q-1.62,1.62-3.5,3.18a7.3,7.3,0,0,1-4.87,1.56l-.57-.24a1.68,1.68,0,0,0-.68-.13,7.74,7.74,0,0,1-3.07-3.87,40.85,40.85,0,0,1-1.56-5.32c-.42-1.87-.81-3.75-1.19-5.62a17.25,17.25,0,0,0-1.81-5.06A7.36,7.36,0,0,0,339,53.19a38.94,38.94,0,0,1-2.5,3.56,58.2,58.2,0,0,0-4.25,7.75q-1.87,4.13-3.62,8.5a7.49,7.49,0,0,0-.88,1.94,22.85,22.85,0,0,1-.87,2.31,6.52,6.52,0,0,1-1.32,1.94,2.3,2.3,0,0,1-2.18.56,2.06,2.06,0,0,1-1.69-1.31,7.67,7.67,0,0,1-.69-2.75,31,31,0,0,1-.06-3.38c0-1.2.1-2.31.19-3.31q.5-6,1.37-11.69a69.42,69.42,0,0,1,2.38-10.43c.33-.92.62-1.76.87-2.5a1.75,1.75,0,0,1,1.63-1.26,1.42,1.42,0,0,1,1.56.69,3.65,3.65,0,0,1,.37,1.94,13.66,13.66,0,0,1-.37,2.44c-.21.87-.36,1.6-.44,2.19q-.87,4.74-1.5,9.5T325.83,69.38Z"/><path class="cls-4" d="M377.57,34.62q10.76-.36,22.38-1.12a165.12,165.12,0,0,1,23.12.12c.42,0,.88,0,1.38.07a1.08,1.08,0,0,1,1,.69c-.08.66-.4,1-.94,1a7.69,7.69,0,0,1-1.44-.13,225.52,225.52,0,0,0-23.12.19q-11.51.69-22.63,1.31Q375.58,47,374.14,57.62a153.92,153.92,0,0,0-1.32,22.26c0,1.08.05,2.29.13,3.62a25.17,25.17,0,0,0,.5,3.75c.17.92.44,2,.81,3.37s.94,2,1.69,2.13a1.67,1.67,0,0,0,1.31-.37,13.29,13.29,0,0,0,1.38-1.19,15.34,15.34,0,0,0,1.25-1.44c.37-.5.64-.87.81-1.13a121.89,121.89,0,0,0,8.94-13.31q3.93-6.81,8.31-14.19,1.13-2,2.37-4.12c.84-1.42,1.75-2.83,2.75-4.25a12.76,12.76,0,0,1,1.13-1.44,1.09,1.09,0,0,1,1.25-.43c.67.33.79.85.37,1.56a15.84,15.84,0,0,1-1,1.56Q401.7,59.25,399,64.62t-5.88,10.63c-1.16,1.92-2.31,3.86-3.43,5.81s-2.32,3.9-3.57,5.82-2.54,3.79-3.87,5.62a13.37,13.37,0,0,1-5.13,4.25,6.79,6.79,0,0,1-2.62,0,7.76,7.76,0,0,1-4.31-4.69A34,34,0,0,1,368.45,85a53.42,53.42,0,0,1-.63-8.31c0-2.88.09-5.69.25-8.44q.63-8.37,1.69-16.19t2.56-14.94q-5.74.26-11.68.88t-12.07.88q-.75,0-1.68.06c-.63,0-1-.27-1.07-.94a.89.89,0,0,1,1-1,11.18,11.18,0,0,0,1.75-.12q5.88-.39,12-1T372.7,35q.75-2.62,1.69-6.19a50.42,50.42,0,0,1,2.18-6.56,9.61,9.61,0,0,1,.94-2.06A2,2,0,0,1,379.2,19a1.31,1.31,0,0,1,1.19.5,1.93,1.93,0,0,1,.25,1.19,11.32,11.32,0,0,1-.25,1.43c-.13.5-.23,1-.32,1.38q-.61,2.74-1.25,5.69T377.57,34.62Z"/></g></g></svg>