<svg xmlns="http://www.w3.org/2000/svg" viewBox="0 0 200.81 39.16"><defs><style>.cls-1{fill:#392673;}.cls-2{fill:#636466;}</style></defs><g id="Layer_2" data-name="Layer 2"><g id="Layer_1-2" data-name="Layer 1"><path class="cls-1" d="M58.16,35.93l-.7-1.74H53.71L53,35.93h-.7l2.9-7.09H56l2.9,7.09Zm-2.57-6.44-1.68,4.15h3.35Z"/><path class="cls-1" d="M59.8,35.93V28.84h2.26a3.55,3.55,0,1,1,0,7.09ZM65,32.39a2.82,2.82,0,0,0-3-3H60.41v6h1.65a2.82,2.82,0,0,0,3-3"/><polygon class="cls-1" points="68.8 35.93 65.9 28.84 66.6 28.84 69.18 35.25 71.75 28.84 72.45 28.84 69.55 35.93 68.8 35.93"/><path class="cls-1" d="M77.49,35.93l-.7-1.74H73l-.7,1.74h-.7l2.9-7.09h.75l2.9,7.09Zm-2.57-6.44-1.68,4.15h3.35Z"/><polygon class="cls-1" points="84.19 35.93 79.73 29.84 79.73 35.93 79.13 35.93 79.13 28.84 79.74 28.84 84.18 34.85 84.18 28.84 84.79 28.84 84.79 35.93 84.19 35.93"/><path class="cls-1" d="M86.18,32.39a3.52,3.52,0,0,1,3.59-3.66A3.21,3.21,0,0,1,92.36,30l-.51.33a2.59,2.59,0,0,0-2.08-1,2.94,2.94,0,0,0-3,3.11,3,3,0,0,0,3,3.11,2.59,2.59,0,0,0,2.08-1l.52.32a3.22,3.22,0,0,1-2.6,1.27,3.53,3.53,0,0,1-3.59-3.67"/><polygon class="cls-1" points="93.47 35.93 93.47 28.84 97.97 28.84 97.97 29.4 94.08 29.4 94.08 32.02 97.89 32.02 97.89 32.57 94.08 32.57 94.08 35.38 97.97 35.38 97.97 35.93 93.47 35.93"/><path class="cls-1" d="M99.36,35.93V28.84h2.26a3.55,3.55,0,1,1,0,7.09Zm5.2-3.54a2.81,2.81,0,0,0-2.94-3H100v6h1.66a2.81,2.81,0,0,0,2.94-3"/><path class="cls-1" d="M108.86,34.93l.39-.46a2.93,2.93,0,0,0,2.22,1c1.45,0,1.86-.8,1.86-1.41,0-2.08-4.25-1-4.25-3.47,0-1.16,1-1.89,2.33-1.89a3,3,0,0,1,2.4,1l-.41.44a2.52,2.52,0,0,0-2-.89c-.94,0-1.65.54-1.65,1.31,0,1.81,4.25.81,4.25,3.46,0,.91-.61,2-2.52,2a3.28,3.28,0,0,1-2.59-1.13"/><path class="cls-1" d="M115.05,32.39a3.51,3.51,0,0,1,3.59-3.66A3.18,3.18,0,0,1,121.22,30l-.51.33a2.55,2.55,0,0,0-2.07-1,2.94,2.94,0,0,0-3,3.11,3,3,0,0,0,3,3.11,2.55,2.55,0,0,0,2.07-1l.53.32a3.22,3.22,0,0,1-2.6,1.27,3.52,3.52,0,0,1-3.59-3.67"/><path class="cls-1" d="M127.66,35.93l-.7-1.74h-3.75l-.7,1.74h-.7l2.9-7.09h.75l2.9,7.09Zm-2.57-6.44-1.68,4.15h3.35Z"/><path class="cls-1" d="M133.67,35.93l-2-2.93h-1.56v2.93h-.61V28.84h2.65a2,2,0,0,1,2.16,2.07,2,2,0,0,1-2,2l2.05,3Zm0-5a1.47,1.47,0,0,0-1.57-1.52h-2v3.06h2a1.48,1.48,0,0,0,1.57-1.54"/><polygon class="cls-1" points="140.17 35.93 140.17 29.4 137.85 29.4 137.85 28.84 143.1 28.84 143.1 29.4 140.79 29.4 140.79 35.93 140.17 35.93"/><path class="cls-1" d="M148.62,35.93l-2-2.93h-1.56v2.93h-.61V28.84h2.65a2,2,0,0,1,2.16,2.07,2,2,0,0,1-2,2l2,3Zm0-5a1.48,1.48,0,0,0-1.58-1.52h-2v3.06h2a1.49,1.49,0,0,0,1.58-1.54"/><polygon class="cls-1" points="150.67 35.93 150.67 28.84 155.16 28.84 155.16 29.4 151.27 29.4 151.27 32.02 155.09 32.02 155.09 32.57 151.27 32.57 151.27 35.38 155.16 35.38 155.16 35.93 150.67 35.93"/><path class="cls-1" d="M161.69,35.93l-.7-1.74h-3.75l-.71,1.74h-.7l2.9-7.09h.76l2.9,7.09Zm-2.57-6.44-1.68,4.15h3.34Z"/><polygon class="cls-1" points="164.4 35.93 164.4 29.4 162.08 29.4 162.08 28.84 167.33 28.84 167.33 29.4 165.01 29.4 165.01 35.93 164.4 35.93"/><polygon class="cls-1" points="174.49 35.93 174.49 29.61 171.91 35.93 171.67 35.93 169.08 29.61 169.08 35.93 168.48 35.93 168.48 28.84 169.38 28.84 171.79 34.74 174.19 28.84 175.11 28.84 175.11 35.93 174.49 35.93"/><polygon class="cls-1" points="176.76 35.93 176.76 28.84 181.26 28.84 181.26 29.4 177.37 29.4 177.37 32.02 181.18 32.02 181.18 32.57 177.37 32.57 177.37 35.38 181.26 35.38 181.26 35.93 176.76 35.93"/><polygon class="cls-1" points="187.72 35.93 183.26 29.84 183.26 35.93 182.65 35.93 182.65 28.84 183.27 28.84 187.71 34.85 187.71 28.84 188.31 28.84 188.31 35.93 187.72 35.93"/><polygon class="cls-1" points="191.78 35.93 191.78 29.4 189.46 29.4 189.46 28.84 194.71 28.84 194.71 29.4 192.39 29.4 192.39 35.93 191.78 35.93"/><path class="cls-2" d="M52.13,4.48h4.6c2.89,0,4.92,1.33,4.92,4.23v.1a3.6,3.6,0,0,1-3.1,3.71c2.6.4,4,1.79,4,4.16v.09c0,3-2,4.61-5.06,4.61H52.13Zm4.65,7.75c2.62,0,4-1.25,4-3.45V8.69c0-2.36-1.52-3.5-4.09-3.5H53v7Zm.64,8.44c2.79,0,4.25-1.4,4.25-3.9v-.09c0-2.49-1.68-3.76-4.79-3.76H53v7.75Z"/><rect class="cls-2" x="65.29" y="4.48" width="0.85" height="16.89"/><path class="cls-2" d="M68.73,13v-.19a8.2,8.2,0,1,1,16.38-.07V13A8.2,8.2,0,1,1,68.73,13M84.23,13v-.19c0-4.33-3-7.75-7.3-7.75s-7.32,3.38-7.32,7.82V13A7.43,7.43,0,0,0,77,20.81c4.21,0,7.25-3.38,7.25-7.84"/><path class="cls-2" d="M87.05,13v-.19c0-5,3.49-8.53,7.82-8.53,3.44,0,6.19,1.79,6.78,5.1h-.85C100.21,6.63,98.13,5,94.87,5c-4,0-7,3.21-7,7.79V13c0,4.71,2.72,7.8,7,7.8,3.21,0,5.57-1.77,6.19-4.75h.78c-.64,3.47-3.43,5.48-7,5.48-4.75,0-7.82-3.47-7.82-8.5"/><path class="cls-2" d="M103.18,13v-.19a8.2,8.2,0,1,1,16.38-.07V13a8.2,8.2,0,1,1-16.38.07m15.5-.07v-.19c0-4.33-3-7.75-7.3-7.75s-7.32,3.38-7.32,7.82V13a7.43,7.43,0,0,0,7.37,7.77c4.2,0,7.25-3.38,7.25-7.84"/><path class="cls-2" d="M122,4.48h4.32c3.31,0,5.65,1.23,5.65,4.42V9c0,2.81-1.82,4.11-4.49,4.39l5.48,8h-1l-5.43-7.92h-3.74v7.92H122Zm4.34,8.27c2.93,0,4.78-1,4.78-3.75V8.9c0-2.76-1.94-3.71-4.78-3.71h-3.52v7.56Z"/><polygon class="cls-2" points="135.1 4.48 136.31 4.48 146.54 20.24 146.54 4.48 147.36 4.48 147.36 21.38 146.32 21.38 135.93 5.36 135.93 21.38 135.1 21.38 135.1 4.48"/><polygon class="cls-2" points="150.39 4.48 159.98 4.48 159.98 5.19 151.24 5.19 151.24 12.3 158.35 12.3 158.35 13.04 151.24 13.04 151.24 20.64 160.41 20.64 160.41 21.38 150.39 21.38 150.39 4.48"/><path class="cls-2" d="M162.48,15.4V4.48h.85V15.33c0,3.64,1.87,5.43,5.2,5.43,3.59,0,5.22-1.84,5.22-5.74V4.48h.86V15.14c0,4-1.94,6.36-6.08,6.36-3.73,0-6.05-2.11-6.05-6.1"/><polygon class="cls-2" points="177.32 4.48 178.57 4.48 185 19.82 191.54 4.48 192.8 4.48 192.8 21.38 191.95 21.38 191.95 5.5 185.14 21.38 184.81 21.38 178.13 5.5 178.13 21.38 177.32 21.38 177.32 4.48"/><path class="cls-2" d="M194.7,6.16a3.06,3.06,0,1,1,3.05,3,3,3,0,0,1-3.05-3m5.77,0a2.72,2.72,0,1,0-5.43,0,2.72,2.72,0,1,0,5.43,0m-3.72-1.69h1c.69,0,1.16.3,1.16.91h0a.84.84,0,0,1-.83.87l1,1.47h-.43l-1-1.43h-.55V7.71h-.37Zm1,1.53c.52,0,.76-.18.76-.59v0c0-.44-.25-.6-.76-.6h-.65V6Z"/><path class="cls-1" d="M24.22,2.56A8.76,8.76,0,1,0,30.41,0a8.75,8.75,0,0,0-6.19,2.56"/><path class="cls-1" d="M2.56,24.22a8.76,8.76,0,1,0,6.19-2.56,8.76,8.76,0,0,0-6.19,2.56"/><path class="cls-1" d="M2.56,2.56A8.75,8.75,0,0,0,8.77,17.5,12.91,12.91,0,0,1,21.66,30.39a8.75,8.75,0,1,0,8.73-8.73A12.91,12.91,0,0,1,17.5,8.77,8.75,8.75,0,0,0,2.56,2.56"/></g></g></svg>