<svg xmlns="http://www.w3.org/2000/svg" viewBox="0 0 818.83 125.22"><defs><style>.cls-1{fill:#ff8300;}.cls-2{fill:#53575a;}</style></defs><g id="Layer_2" data-name="Layer 2"><g id="Layer_1-2" data-name="Layer 1"><path class="cls-1" d="M400.56,124.26a7.45,7.45,0,0,0,3.22-1.26,5,5,0,0,0,1.74-2.61,16,16,0,0,0,.52-4.48V70.32c0-2.78,0-5.18,0-7.18s0-3.32,0-4l-26.7,51.16h-.7l-25.32-48v51.5a9,9,0,0,0,1.61,5.65,11.71,11.71,0,0,0,3.83,3.27,14.2,14.2,0,0,0,4.52,1.52,26.16,26.16,0,0,0,3.62.35h1.39v.52H338v-.52h1.31a26.44,26.44,0,0,0,3.7-.35,13.75,13.75,0,0,0,4.48-1.52,11.86,11.86,0,0,0,3.78-3.27,9,9,0,0,0,1.61-5.65V66.14c0-1.39,0-2.69-.09-3.91a7.19,7.19,0,0,0-.82-3.18,5.16,5.16,0,0,0-2.35-2.13,10.77,10.77,0,0,0-4.57-.78h-2.78v-.61h18.18l23.49,44.8,23.4-44.8h18.45v.61h-3.48c-2.61,0-4.43.64-5.44,1.91s-1.52,3.45-1.52,6.53V116c0,3.25.63,5.5,1.91,6.75s3.25,1.87,5.92,1.87h2.69v.52H395.6v-.52A29.9,29.9,0,0,0,400.56,124.26Z"/><path class="cls-1" d="M430.22,124.43c.06,0,.57-.05,1.53-.17a10.66,10.66,0,0,0,3.39-1.18,17.83,17.83,0,0,0,4.13-3.08,17,17,0,0,0,3.74-6l23.41-58.46h.69l23.32,58.29a37.87,37.87,0,0,0,2.87,5.87,11.77,11.77,0,0,0,2.61,3,6,6,0,0,0,2.65,1.22l3.09.47V125H473.11v-.61c2.09-.11,3.88-.24,5.35-.39a6,6,0,0,0,3.35-1.17,3.42,3.42,0,0,0,1-3.09,23.75,23.75,0,0,0-1.74-6.13l-6.44-16.19H450.32l-6.61,16.45a8.34,8.34,0,0,0-.74,4.39,5.75,5.75,0,0,0,1.35,3,7.07,7.07,0,0,0,2.56,1.82,15.41,15.41,0,0,0,3,1,14.79,14.79,0,0,0,2.48.35l1.13,0V125H430.22ZM462.5,67.19,450.58,96.85h23.75Z"/><path class="cls-1" d="M555.33,73.63v-.18q-.71-2.7-1.57-5.61a20.06,20.06,0,0,0-2.56-5.44,14.26,14.26,0,0,0-4.61-4.26A17.28,17.28,0,0,0,539,56.05h-.78c-2.55.23-4.34.94-5.35,2.13s-1.52,3.3-1.52,6.31v51.42a17.19,17.19,0,0,0,.39,4,5.5,5.5,0,0,0,1.3,2.56,5.63,5.63,0,0,0,2.4,1.44,13.41,13.41,0,0,0,3.65.56h2.7V125H511.48v-.61a35.17,35.17,0,0,0,5-.3,6.45,6.45,0,0,0,3.22-1.26,5.33,5.33,0,0,0,1.7-2.61,15.14,15.14,0,0,0,.52-4.44V64.58a16.91,16.91,0,0,0-.39-4,5.5,5.5,0,0,0-1.31-2.53,5.28,5.28,0,0,0-2.39-1.39,18.52,18.52,0,0,0-3.65-.61h-.52a16.9,16.9,0,0,0-7.57,2.09,14.79,14.79,0,0,0-4.61,4.26,19.35,19.35,0,0,0-2.61,5.44c-.58,1.94-1.08,3.81-1.48,5.61v.18h-.61V55.36h59.16V73.63Z"/><path class="cls-1" d="M622.32,73.63v-.18q-.71-2.7-1.57-5.61a20.06,20.06,0,0,0-2.56-5.44,14.36,14.36,0,0,0-4.61-4.26A17.32,17.32,0,0,0,606,56.05h-.78c-2.55.23-4.34.94-5.35,2.13s-1.52,3.3-1.52,6.31v51.42a17.19,17.19,0,0,0,.39,4,5.5,5.5,0,0,0,1.3,2.56,5.63,5.63,0,0,0,2.4,1.44,13.41,13.41,0,0,0,3.65.56h2.7V125H578.47v-.61a35.17,35.17,0,0,0,5-.3,6.49,6.49,0,0,0,3.22-1.26,5.4,5.4,0,0,0,1.7-2.61,15.14,15.14,0,0,0,.52-4.44V64.58a16.91,16.91,0,0,0-.39-4,5.5,5.5,0,0,0-1.31-2.53,5.28,5.28,0,0,0-2.39-1.39,18.65,18.65,0,0,0-3.65-.61h-.52a16.9,16.9,0,0,0-7.57,2.09,14.68,14.68,0,0,0-4.61,4.26,18.82,18.82,0,0,0-2.61,5.44c-.58,1.94-1.08,3.81-1.48,5.61v.18h-.61V55.36h59.16V73.63Z"/><path class="cls-1" d="M675.21,123.74a21.19,21.19,0,0,0,5.09-2.26,19,19,0,0,0,3.87-3.18,25.06,25.06,0,0,0,2.87-3.7A29.64,29.64,0,0,0,691,104.51h.61l-2.52,20.71H631.54v-.61a33.6,33.6,0,0,0,5-.31A6.77,6.77,0,0,0,639.8,123a5.13,5.13,0,0,0,1.74-2.61,15.1,15.1,0,0,0,.53-4.44V65.8a3.17,3.17,0,0,0-.05-.53,3,3,0,0,1,0-.52q0-4.78-1.7-6.57t-6-2h-2.79v-.52h55.16V73.89H686V73.8c-.46-1.91-1-3.92-1.61-6a17.7,17.7,0,0,0-2.83-5.7,14.8,14.8,0,0,0-5.22-4.27,19.1,19.1,0,0,0-8.7-1.69H651.29v34h12.44a10,10,0,0,0,5.87-1.7A11.5,11.5,0,0,0,674.17,81a22.61,22.61,0,0,0,.26-2.44v-.26H675V102.6h-.61v-.26a25.09,25.09,0,0,0-.26-2.53,11.49,11.49,0,0,0-1.39-4,11.07,11.07,0,0,0-3.35-3.61,10.54,10.54,0,0,0-6.14-1.56h-12v23.84a9.29,9.29,0,0,1,.08,1.56,16.85,16.85,0,0,0,.4,4,5.49,5.49,0,0,0,1.3,2.53,5.64,5.64,0,0,0,2.39,1.43,13.92,13.92,0,0,0,3.66.57h9.66A22.13,22.13,0,0,0,675.21,123.74Z"/><path class="cls-1" d="M697.05,125.22v-.61h.09a33.6,33.6,0,0,0,5-.31,6.49,6.49,0,0,0,3.22-1.26,5.4,5.4,0,0,0,1.7-2.61,15.49,15.49,0,0,0,.52-4.44V64.75q0-4.78-1.7-6.57t-6-2h-2.78v-.52H730.2a35.79,35.79,0,0,1,10.09,1.3,22.42,22.42,0,0,1,7,3.74,14.73,14.73,0,0,1,4,5.44,17.72,17.72,0,0,1,1.35,7q0,7.83-5.31,12.44a21,21,0,0,1-7,3.75,18.41,18.41,0,0,1-4,.95c-1.42.18-2.91.32-4.48.44a13.25,13.25,0,0,1,3.87,1.82,19.72,19.72,0,0,1,4.66,4.79L756.65,120a8.75,8.75,0,0,0,2.91,2.56,17.41,17.41,0,0,0,3.31,1.4,14.11,14.11,0,0,0,2.82.56c.81.06,1.31.09,1.48.09h.09v.61h-17.4L728.63,95.81a20.92,20.92,0,0,0-2.39-2.74,10,10,0,0,0-2.09-1.52,7,7,0,0,0-2-.7,11.73,11.73,0,0,0-2-.17H717v25.4a16.34,16.34,0,0,0,.4,4,5.49,5.49,0,0,0,1.3,2.53,5.64,5.64,0,0,0,2.39,1.43,13.92,13.92,0,0,0,3.66.57h2.69v.61H697.05ZM717,90.16H729.5A12.49,12.49,0,0,0,736.81,88a13.55,13.55,0,0,0,2-1.78,15.49,15.49,0,0,0,1.87-2.57,21.6,21.6,0,0,0,1.65-4.74,25.66,25.66,0,0,0,.61-5.79c0-5-1.07-9-3.22-12a11.78,11.78,0,0,0-10.18-5h-5.65a12,12,0,0,0-3.22.69,5.51,5.51,0,0,0-2.13,1.48,5.57,5.57,0,0,0-1.18,2.53,18,18,0,0,0-.35,3.82v25.5Z"/><path class="cls-1" d="M773.26,103.12h.7a21,21,0,0,0,.43,4,31.9,31.9,0,0,0,1.22,4.44,26.4,26.4,0,0,0,1.91,4.22,12.17,12.17,0,0,0,2.53,3.22,20.7,20.7,0,0,0,6.26,3.78,21.69,21.69,0,0,0,7.4,1.44h.78a24,24,0,0,0,7.39-1.48,14.14,14.14,0,0,0,5.92-5,13,13,0,0,0,2.31-6.92,13.58,13.58,0,0,0-2.05-7.39,17.36,17.36,0,0,0-7.13-6.31l-11-5.65a31.9,31.9,0,0,1-8.7-6.14,20.65,20.65,0,0,1-4.57-6.87,15,15,0,0,1-1-7A16.11,16.11,0,0,1,777.79,65a19,19,0,0,1,4.65-5.39,23.52,23.52,0,0,1,6.66-3.74,14.8,14.8,0,0,1,3.48-1,24.45,24.45,0,0,1,3.56-.26A21,21,0,0,1,804,56.14c.93.35,1.92.69,3,1a12,12,0,0,0,3.13.61,6.31,6.31,0,0,0,3-.52,5.57,5.57,0,0,0,2.44-2.35h.61V73.8h-.7A14,14,0,0,0,814.8,70a20.59,20.59,0,0,0-1.52-3.87,23.45,23.45,0,0,0-2.17-3.48,21.83,21.83,0,0,0-2.44-2.74,17.64,17.64,0,0,0-5.74-3.44,19.74,19.74,0,0,0-6.79-1.17,20.59,20.59,0,0,0-3,.22,17.88,17.88,0,0,0-2.91.65A12.51,12.51,0,0,0,784,60.31a8.93,8.93,0,0,0-1.83,6.62q.39,3.73,3.87,8t10.88,8.39l10,5.14a25.1,25.1,0,0,1,7.57,6,18.34,18.34,0,0,1,3.83,7.17,15.64,15.64,0,0,1,.08,7.48A16,16,0,0,1,814.8,116a23.39,23.39,0,0,1-7.26,5.48,34,34,0,0,1-10.88,3.18h.18c-.47.06-.89.1-1.26.13s-.77,0-1.18,0h-.87A19.94,19.94,0,0,1,786,123.3v0a6.27,6.27,0,0,1-.87-.35,16,16,0,0,0-5.74-1.34,7.42,7.42,0,0,0-3.35.69,3.7,3.7,0,0,0-1.61,1.57c-.29.61-.46,1-.52,1.17v.09h-.61Z"/><path class="cls-2" d="M23.34,45.79a57.41,57.41,0,0,1,7.37-5.27A90.82,90.82,0,0,1,39.16,36q.48-.24,1.32-.6c.56-.24.92,0,1.08.6a1.16,1.16,0,0,1-.9,1.32q-1,.36-1.5.48-.72.48-1.38.84t-1.26.72a68,68,0,0,0-7.79,4.92A74.86,74.86,0,0,0,21.78,50q-.84,2-1.86,4.08c-.68,1.36-1.42,2.67-2.22,4s-1.6,2.54-2.4,3.78a14.8,14.8,0,0,1-2.87,3.29,8.43,8.43,0,0,1-1.38.9,3.12,3.12,0,0,1-1.86.3.66.66,0,0,0-.42-.24.62.62,0,0,1-.42-.24A3.09,3.09,0,0,1,8.05,63a12.88,12.88,0,0,1,1.26-2.46,13.65,13.65,0,0,1,1.44-2.28,24.53,24.53,0,0,0,1.44-2q1.68-2,3.29-4t3.42-3.9c.4-1.28.82-2.56,1.26-3.83a14.07,14.07,0,0,0,.66-4.56,9.27,9.27,0,0,0-3.66,2.94l-2.93,3.89A87.69,87.69,0,0,0,8.11,58.2,46.85,46.85,0,0,0,4.39,72.53a5.27,5.27,0,0,1-.95,2.75q-.72.84-2.28,0a6.22,6.22,0,0,1-1-3.35Q.08,70,.08,68.09C0,66.73,0,65.35,0,64s.1-2.78.18-4.14q.48-12.1,1.92-23.14A86.43,86.43,0,0,1,7,16.66q.36-.72.72-1.62a11.34,11.34,0,0,1,.84-1.67,3,3,0,0,1,1.2-1.14,2.08,2.08,0,0,1,1.8.12q-.24,1.08-.6,2.52c-.24,1-.44,1.71-.6,2.27v-.48a27.36,27.36,0,0,0-1.32,4.56c-.32,1.6-.68,3.24-1.08,4.91A129,129,0,0,0,5.77,42q-.66,8.26-1.25,16.78c1-2.32,1.93-4.57,2.93-6.77A37.53,37.53,0,0,1,11,45.79a35.92,35.92,0,0,1,4.19-5.63q1.2-1.2,2.52-2.4a6,6,0,0,1,3.48-1.44,2.49,2.49,0,0,1,2.16,1.2A6.35,6.35,0,0,1,24.06,40a11.86,11.86,0,0,1-.18,3C23.68,44.08,23.5,45,23.34,45.79ZM12.79,59.1a11.17,11.17,0,0,0-2,3.84,38.13,38.13,0,0,0,4.79-7.32C14.66,56.74,13.75,57.9,12.79,59.1Z"/><path class="cls-2" d="M48.75,31.77a9.32,9.32,0,0,1,6.41,2.52A11.52,11.52,0,0,1,58.1,40.4c2.56-.48,5.21-1,8-1.62s5.46-1.22,8.09-1.86a8.82,8.82,0,0,0,1.2-.42,9.37,9.37,0,0,1,1.5-.48,4.3,4.3,0,0,1,1.38-.12,1,1,0,0,1,.84.54.74.74,0,0,1-.24,1,5.57,5.57,0,0,1-1.2.66,8.89,8.89,0,0,1-1.56.48q-.84.18-1.2.3c-2.56.8-5.25,1.5-8.09,2.1s-5.65,1.18-8.45,1.74a25.06,25.06,0,0,1-1,8.69A30.3,30.3,0,0,1,54,58.74a37.81,37.81,0,0,1-4.61,5.76,13.32,13.32,0,0,1-6.3,3.59H41.32a4.75,4.75,0,0,1-2-.9,17.44,17.44,0,0,1-1.56-1.38,10.41,10.41,0,0,1-1.86-5.21,30.72,30.72,0,0,1,.06-6.35A57.61,57.61,0,0,1,37,47.77q.72-3.17,1.32-5.69a4.71,4.71,0,0,1-.06-4.32,9.22,9.22,0,0,1,2.34-3.11,20.11,20.11,0,0,0,.9-2.52,19.31,19.31,0,0,1,1-2.76A8.11,8.11,0,0,1,44,27.09a3.06,3.06,0,0,1,2.34-1,2.34,2.34,0,0,1,2.4,1.74A6.47,6.47,0,0,1,48.75,31.77ZM43,44.24c-.41,2.31-.9,4.81-1.5,7.49a29.62,29.62,0,0,0-.66,8.21,10.84,10.84,0,0,0,.42,2,3,3,0,0,0,1.14,1.56,9.25,9.25,0,0,0,5.51-2.88q2-2.28,3.84-4.68a46.93,46.93,0,0,0,2.87-5.81,14.48,14.48,0,0,0,1-7,54.61,54.61,0,0,1-6.11.9A50,50,0,0,1,43,44.24Zm5.27-10A3.68,3.68,0,0,0,48,35.66a.8.8,0,0,1-.72.9,1.82,1.82,0,0,1-.54-.06,3.29,3.29,0,0,1-.42-.18,2.16,2.16,0,0,1-.12-1.67,5.06,5.06,0,0,0-.9,1.55Q45,37,44.79,38a17.68,17.68,0,0,0-.6,1.92l-.48,1.92q3.36,0,6.24-.24c1.92-.16,3.79-.4,5.63-.72a9.54,9.54,0,0,0-2.22-4.74Q51.76,34.42,48.27,34.29Z"/><path class="cls-2" d="M92,33c-1.51,2-3,4.15-4.43,6.47S84.71,44,83.27,46.15Q81.71,48.43,80,51.07a24.1,24.1,0,0,1-3.84,4.67,8.66,8.66,0,0,1-1.68,1.5,2.63,2.63,0,0,1-2.28.3,3.27,3.27,0,0,1-1.67-2.64,37.33,37.33,0,0,1,2.21-10.42A48.25,48.25,0,0,1,77,35.6c.56-.87,1.18-1.75,1.86-2.63a6.57,6.57,0,0,1,2.22-1.92,3.42,3.42,0,0,1,4,.18q1.74,1.38,1.26,4.37a6.35,6.35,0,0,0,1.38-1.91q.78-1.44,1.68-2.94a21.13,21.13,0,0,1,1.91-2.7,3.34,3.34,0,0,1,2.1-1.32,2.66,2.66,0,0,1,.84.12l.72.24a5.49,5.49,0,0,1,1.2,2.28q-.24,7.2-1,13.61t-1.08,13.6v2.16q0,1.32-.12,2.64a12.27,12.27,0,0,1-.42,2.34c-.2.68-.54,1-1,1A1.34,1.34,0,0,1,91.36,64,6,6,0,0,1,90.77,62a15,15,0,0,1-.18-2.34,13.54,13.54,0,0,0-.12-1.92,67.25,67.25,0,0,1,.24-12.71Q91.43,38.85,92,33Zm-8.63.24a.11.11,0,0,0-.12-.12,3.32,3.32,0,0,0-.66.3,3.32,3.32,0,0,1-.66.3,25.25,25.25,0,0,0-3,4.25,49.85,49.85,0,0,0-2.4,4.86c-.64,1.68-1.26,3.45-1.86,5.33a26.25,26.25,0,0,0-1.14,6.06,42.2,42.2,0,0,0,6.06-7.74q2.68-4.37,5.45-8.57a4.83,4.83,0,0,1-.6-2.58A2,2,0,0,0,83.39,33.21Z"/><path class="cls-2" d="M126.07,31.53a17.77,17.77,0,0,0-5.57,5.75q-2.1,3.48-4.5,7l-1.92,3.83a34.58,34.58,0,0,0-1.68,4,20,20,0,0,0-1.79,3.89,4.32,4.32,0,0,1-2.88,2.82h-1.08a3,3,0,0,1-1-.66,5.26,5.26,0,0,1-.78-1,38.48,38.48,0,0,1-.18-4.91q.06-2.64.24-5.34c.12-1.8.32-3.55.6-5.27s.58-3.3.9-4.74a16.09,16.09,0,0,1,.72-2.63,2.3,2.3,0,0,1,1.92-1.56,1.49,1.49,0,0,1,1.38,1.08,6.88,6.88,0,0,1,.24,2.21,26.05,26.05,0,0,1-.3,2.64,12.57,12.57,0,0,0-.24,2.22c-.17,1.6-.3,3-.42,4.31s-.26,2.48-.42,3.6q2-3.36,4.91-7.55a73.85,73.85,0,0,1,5.88-7.55,26.56,26.56,0,0,1,2.09-2.34,8.39,8.39,0,0,1,2.46-1.74,3.51,3.51,0,0,1,2.22,0,1.85,1.85,0,0,1,1.38,1.32q.24,1.44-.72,1.56A1.33,1.33,0,0,1,126.07,31.53Z"/><path class="cls-2" d="M150.28,0a1.54,1.54,0,0,1,1.2,1.2,5.79,5.79,0,0,1,.06,2.22A20.68,20.68,0,0,1,151,6a18.56,18.56,0,0,0-.48,2.16q-1,5.28-1.85,11.09t-1.38,11.87q-.48,6.06-.42,12.23a81.76,81.76,0,0,0,1,12.16,24.38,24.38,0,0,0,.72,3.48A9.25,9.25,0,0,0,150,62a7.8,7.8,0,0,0,3.24-2.76q1.2-1.8,2.52-3.48a85.28,85.28,0,0,0,5.45-9.59,101.63,101.63,0,0,1,5.34-9.59,14.83,14.83,0,0,0,1.14-1.91,1.61,1.61,0,0,1,1.74-1,1.45,1.45,0,0,1,.24,1.91q-.61,1.2-1.08,1.92-1.32,2.88-2.88,5.82c-1,2-2,3.85-3,5.69q-2,3.84-4,7.73a30.54,30.54,0,0,1-4.74,6.9A14.87,14.87,0,0,0,152.2,65a3.44,3.44,0,0,1-2.28.71,3.7,3.7,0,0,1-2.27-1,7.37,7.37,0,0,1-1.56-2.1,12.86,12.86,0,0,1-1-2.64q-.36-1.44-.6-2.76a59.36,59.36,0,0,1-1-8c-.16-2.84-.22-5.67-.18-8.51s.18-5.64.42-8.39.52-5.34.84-7.73q-1.08,2.51-2.1,5.15T140.45,35a4.39,4.39,0,0,1,.42.84q.18.48.42,1.08a16.19,16.19,0,0,1,.36,1.92,2.89,2.89,0,0,1-.24,1.68A1.14,1.14,0,0,1,140,40.1,4.81,4.81,0,0,0,139,39q-1.68,4.32-3.3,9a60.34,60.34,0,0,1-3.78,8.81,22.77,22.77,0,0,1-1.68,2.64,3.17,3.17,0,0,1-2.75,1.32,1.94,1.94,0,0,1-1.08-.48,7.83,7.83,0,0,0-.84-.72,9.21,9.21,0,0,1-.84-5.09,43.34,43.34,0,0,1,.84-5.82A67.13,67.13,0,0,1,127.51,42a22.17,22.17,0,0,1,3.11-5.88,11.45,11.45,0,0,1,2.88-3,4.72,4.72,0,0,1,4.44-.48q2.75-6.24,5.27-13.85T148,3.84q.48-1.32.84-2.46A1.88,1.88,0,0,1,150.28,0ZM136.14,36.32a4.43,4.43,0,0,0-2,1.44,14,14,0,0,0-1.5,2.16,31.38,31.38,0,0,0-2.87,7.31,48.53,48.53,0,0,0-1.44,8.27,47.75,47.75,0,0,0,4-8.15q1.68-4.43,3.24-8.63.24-.6.54-1.2a1.82,1.82,0,0,0,.18-1.2Z"/><path class="cls-2" d="M172.1,37.76a1.8,1.8,0,0,1,.66-1.56,4.14,4.14,0,0,1,1.68-.66,20.08,20.08,0,0,1,2.16-.24c.76,0,1.5-.06,2.21-.06s1.46-.13,2.22-.18,1.46-.06,2.1-.06c.88-.07,1.74-.12,2.58-.12a18.28,18.28,0,0,0,2.22-.11,25.31,25.31,0,0,1,3-.06c1.08,0,1.7.46,1.86,1.25a1.65,1.65,0,0,1-1.8,1.38c-1,0-2,.06-2.87.06l-5.7.48q-2.7.24-5.57.6-1.32.24-2.76.42A1.8,1.8,0,0,1,172.1,37.76Z"/><path class="cls-2" d="M209.86,38.72a1.58,1.58,0,0,1-1.37-.12,3.21,3.21,0,0,1-.9-.9,5.61,5.61,0,0,1-.6-1.2,4.38,4.38,0,0,0-.6-1.14,9.32,9.32,0,0,0-4.08,3.9,29.07,29.07,0,0,0-2.52,5.7,27.47,27.47,0,0,0-.84,3.29,23.52,23.52,0,0,0-.41,3.72,12.51,12.51,0,0,0,.35,3.47,4,4,0,0,0,1.74,2.46,10,10,0,0,0,5.4-2q2-1.66,4.19-3.11,4.2-3.12,8.16-6.42t8-6.65q1-.72,2-1.56a24.13,24.13,0,0,1,2.09-1.56,4.48,4.48,0,0,1,1-.72q.66-.36,1.26-.72a10,10,0,0,0,1.26-.59.8.8,0,0,1,1.14.35c.24.65.14,1.08-.3,1.32a5,5,0,0,0-1.14.84q-1.68,1.2-3.18,2.46l-3,2.58q-4.44,3.72-8.82,8a95.82,95.82,0,0,1-9.29,8A35.66,35.66,0,0,1,204.83,61a7.54,7.54,0,0,1-5.88.42,6.16,6.16,0,0,1-3-3.42,16.15,16.15,0,0,1-1-5.15,23.69,23.69,0,0,1,.48-5.76,31.3,31.3,0,0,1,1.56-5.33,22.5,22.5,0,0,1,6.59-9.47q.6-.24,1-.42a3.9,3.9,0,0,1,1-.3q.12,0,.12-.06s0-.06.12-.06h1.08a4,4,0,0,1,1,.12A4.54,4.54,0,0,1,210.34,35a9.2,9.2,0,0,0,0,2.1A1.71,1.71,0,0,1,209.86,38.72Z"/><path class="cls-2" d="M234.56,41.6A23.71,23.71,0,0,0,233,46a20.44,20.44,0,0,0-.72,5.28,9,9,0,0,0,1.08,4.49,4.25,4.25,0,0,0,3.84,2,11.84,11.84,0,0,0,5.93-1.32A55.54,55.54,0,0,0,248,53.71q2.38-1.68,4.49-3.3t3.78-3.18a67.3,67.3,0,0,0,5.93-5.15q2.82-2.76,5.58-5.64a2.94,2.94,0,0,0,.77-1,10.77,10.77,0,0,1,.9-1.31,6.15,6.15,0,0,1,1-1,.93.93,0,0,1,1.14-.06q.84.36.36,1.44a8.4,8.4,0,0,1-.84,1.55,4.25,4.25,0,0,1-.72,1.32q-.48.6-1,1.32a85.31,85.31,0,0,1-6.29,6.59q-3.3,3.12-6.77,6.24a49.4,49.4,0,0,1-10.07,7.19,26.57,26.57,0,0,1-3,1.38,17.24,17.24,0,0,1-3.48,1,15.89,15.89,0,0,1-3.65.18,7.33,7.33,0,0,1-3.42-1.08A5.71,5.71,0,0,1,231.5,59l-1.14-1.38a11.41,11.41,0,0,1-1.5-5.09,22.91,22.91,0,0,1,.36-5.7,37.08,37.08,0,0,1,3.42-9.95,50.39,50.39,0,0,1,4.8-7.07,14,14,0,0,1,7.31-4.56,5.86,5.86,0,0,1,4,1.08A4.11,4.11,0,0,1,250,30.21a7.79,7.79,0,0,1-1.44,3.6,23.59,23.59,0,0,1-2.51,3,27,27,0,0,1-4.74,3.78A9.85,9.85,0,0,1,234.56,41.6Zm11.15-12.83a12.45,12.45,0,0,0-6.36,4.38,43.55,43.55,0,0,0-4.07,6.65,7.45,7.45,0,0,0,4.43-1.2,33,33,0,0,0,3.12-2.52c.88-1,1.8-1.91,2.76-2.87a5.2,5.2,0,0,0,1.32-4.08A1.3,1.3,0,0,0,245.71,28.77Z"/><path class="cls-2" d="M287.18,31.53a18,18,0,0,0-5.57,5.75q-2.1,3.48-4.5,7l-1.91,3.83a34.58,34.58,0,0,0-1.68,4,20.63,20.63,0,0,0-1.8,3.89,4.32,4.32,0,0,1-2.88,2.82h-1.08a3.05,3.05,0,0,1-1-.66,5.26,5.26,0,0,1-.78-1,38.48,38.48,0,0,1-.18-4.91q.06-2.64.24-5.34c.12-1.8.32-3.55.6-5.27s.58-3.3.89-4.74a18.38,18.38,0,0,1,.72-2.63,2.3,2.3,0,0,1,1.92-1.56,1.49,1.49,0,0,1,1.38,1.08,6.36,6.36,0,0,1,.24,2.21,21.36,21.36,0,0,1-.3,2.64,13.61,13.61,0,0,0-.24,2.22c-.16,1.6-.3,3-.42,4.31s-.26,2.48-.42,3.6q2-3.36,4.92-7.55a72.44,72.44,0,0,1,5.87-7.55,28.42,28.42,0,0,1,2.1-2.34,8.39,8.39,0,0,1,2.46-1.74,3.48,3.48,0,0,1,2.21,0,1.85,1.85,0,0,1,1.38,1.32q.24,1.44-.72,1.56A1.33,1.33,0,0,1,287.18,31.53Z"/><path class="cls-2" d="M299.41,19.78q10.3-.36,21.46-1.08a157.82,157.82,0,0,1,22.18.12q.6,0,1.32.06a1,1,0,0,1,.95.66c-.08.64-.38,1-.89,1a7,7,0,0,1-1.38-.12,215.72,215.72,0,0,0-22.18.18q-11,.66-21.7,1.26-1.68,9.83-3.06,20a145.72,145.72,0,0,0-1.25,21.34c0,1,0,2.2.12,3.47a23.23,23.23,0,0,0,.47,3.6q.24,1.32.78,3.24c.36,1.27.9,2,1.62,2a1.59,1.59,0,0,0,1.26-.36A12,12,0,0,0,300.43,74a12.89,12.89,0,0,0,1.2-1.38q.54-.72.78-1.08A118.17,118.17,0,0,0,311,58.8q3.78-6.52,8-13.61,1.08-1.9,2.28-3.95t2.64-4.08A9.92,9.92,0,0,1,325,35.78a1.06,1.06,0,0,1,1.19-.42c.64.32.76.83.36,1.5a17.36,17.36,0,0,1-1,1.5q-3,5-5.63,10.19t-5.63,10.19q-1.68,2.76-3.3,5.58t-3.42,5.57q-1.8,2.76-3.71,5.39a12.86,12.86,0,0,1-4.92,4.08,6.67,6.67,0,0,1-2.52,0,7.43,7.43,0,0,1-4.13-4.5,32.69,32.69,0,0,1-1.62-6.77,51.42,51.42,0,0,1-.6-8c0-2.76.08-5.45.24-8.09q.6-8,1.62-15.53t2.46-14.32q-5.52.24-11.21.84t-11.57.84q-.72,0-1.62.06a.88.88,0,0,1-1-.9.85.85,0,0,1,1-1,10.34,10.34,0,0,0,1.68-.12q5.64-.36,11.51-1t11.63-.84q.7-2.52,1.61-5.93a48.43,48.43,0,0,1,2.1-6.3,9.1,9.1,0,0,1,.9-2A1.92,1.92,0,0,1,301,4.79a1.26,1.26,0,0,1,1.14.48,1.8,1.8,0,0,1,.24,1.14,9.09,9.09,0,0,1-.24,1.38q-.18.72-.3,1.32-.6,2.64-1.2,5.46T299.41,19.78Z"/><path class="cls-2" d="M326.74,34.65a1.79,1.79,0,0,1,.42,1.31q-.06.72-.06,1.56-.12,2-.06,4.44c0,1.6.06,3.16.06,4.67s0,3-.06,4.44a5.2,5.2,0,0,1-1.26,3.48h-1a3.94,3.94,0,0,1-.89-1.86,18.18,18.18,0,0,1-.42-2.7c-.08-1.76-.1-3.6-.06-5.51a52,52,0,0,1,.42-5.64q.12-.72.24-1.68a6.89,6.89,0,0,1,.41-1.68,2,2,0,0,1,.84-1A1.39,1.39,0,0,1,326.74,34.65Zm.6-23.26a2.73,2.73,0,0,1-1,1.92,1.31,1.31,0,0,1-1.38-.24,2.09,2.09,0,0,1-.48-1.14,1.54,1.54,0,0,1,.36-1.14,1.5,1.5,0,0,1,1.38-.36Q327.22,10.91,327.34,11.39Z"/><path class="cls-2" d="M357.19,8.27q-.6.36-.84-.18a2.64,2.64,0,0,0-.48-.78,7.25,7.25,0,0,0-1.38-1A2.84,2.84,0,0,0,352.4,6a3.47,3.47,0,0,0-2.28,2.1q-1,1.86-1.56,3.18a63.58,63.58,0,0,0-3.42,10.31q-1.38,5.64-2.33,11,4.79-1.8,10.19-4a73.53,73.53,0,0,1,11.38-3.48,52.41,52.41,0,0,1,5.94-.89,13.86,13.86,0,0,1,5.93.66c.4.16.84.35,1.32.59a1.16,1.16,0,0,1,.6,1.32,2,2,0,0,1-2.16.36,8.94,8.94,0,0,0-2.51-.6,14.09,14.09,0,0,0-4.68.3q-2.28.54-4.44,1.14c-1.43.4-2.81.82-4.13,1.26s-2.54.9-3.66,1.38Q352.65,32,349,33.63c-2.4,1.08-4.76,2.21-7.07,3.41q-.6,3.72-1.08,7.68t-1,8.15c-.08.88-.18,1.78-.3,2.69a12.25,12.25,0,0,0-.06,2.7,9.49,9.49,0,0,0,.48,2q.36,1,.6,2a76.52,76.52,0,0,1,1.92,22.66c0,.87,0,1.77-.12,2.69a11.74,11.74,0,0,1-.48,2.52A4.49,4.49,0,0,1,340.89,92a2.59,2.59,0,0,1-1.92.72,2.35,2.35,0,0,1-1.74-.66,4.48,4.48,0,0,1-1-1.62,10.9,10.9,0,0,1-.54-2q-.18-1.08-.3-2a71.91,71.91,0,0,1-1-11.45c0-4,.06-8,.3-12q.12-1.2.3-2.4a8.8,8.8,0,0,0,.06-2.28,5.06,5.06,0,0,0-.66-1.92c-.35-.64-.69-1.27-1-1.91a17.81,17.81,0,0,0-2.1-3.48l-2.46-3.12q-.6-.72-1.26-1.62a3.27,3.27,0,0,1-.66-2,3.57,3.57,0,0,1,.48-1.8,7.38,7.38,0,0,1,1.2-1.56,9.36,9.36,0,0,1,1.56-1.26,17.28,17.28,0,0,0,1.44-1c1.12-.72,2.18-1.34,3.17-1.86s2.1-1.09,3.3-1.74q1.08-5.87,2.82-12a100.42,100.42,0,0,1,3.89-11.33,33.59,33.59,0,0,1,2.58-4.68,8.32,8.32,0,0,1,3.9-3.23q0,.12.24-.12a4.29,4.29,0,0,1,2.75.54c.64.44,1.28.9,1.92,1.37a8,8,0,0,0,1,1.32A1.12,1.12,0,0,1,357.19,8.27ZM331.18,44a31.81,31.81,0,0,1,2.46,2.75,24.94,24.94,0,0,1,2.09,3.12q.36-2.52.66-5.1c.2-1.71.46-3.37.78-5l-.12-.12c-1,.72-2.08,1.4-3.11,2A12.71,12.71,0,0,0,331.18,44Z"/><path class="cls-2" d="M367.26,34.65a1.79,1.79,0,0,1,.42,1.31q-.06.72-.06,1.56-.12,2-.06,4.44c0,1.6.06,3.16.06,4.67s0,3-.06,4.44a5.2,5.2,0,0,1-1.26,3.48h-1a3.85,3.85,0,0,1-.9-1.86A21.23,21.23,0,0,1,364,50c-.07-1.76-.09-3.6,0-5.51a52,52,0,0,1,.41-5.64q.14-.72.24-1.68a7.36,7.36,0,0,1,.42-1.68,2,2,0,0,1,.84-1A1.39,1.39,0,0,1,367.26,34.65Zm.6-23.26a2.73,2.73,0,0,1-1,1.92,1.3,1.3,0,0,1-1.38-.24,2,2,0,0,1-.48-1.14,1.46,1.46,0,0,1,.36-1.14,1.49,1.49,0,0,1,1.38-.36Q367.74,10.91,367.86,11.39Z"/><path class="cls-2" d="M388,38.72a1.61,1.61,0,0,1-1.38-.12,3.21,3.21,0,0,1-.9-.9,5.61,5.61,0,0,1-.6-1.2,4.38,4.38,0,0,0-.6-1.14,9.36,9.36,0,0,0-4.07,3.9,29.07,29.07,0,0,0-2.52,5.7,25.69,25.69,0,0,0-.84,3.29,23.54,23.54,0,0,0-.42,3.72,12.13,12.13,0,0,0,.36,3.47,4,4,0,0,0,1.74,2.46,9.93,9.93,0,0,0,5.39-2q2-1.66,4.2-3.11,4.2-3.12,8.15-6.42l8-6.65q1-.72,2-1.56a25.92,25.92,0,0,1,2.1-1.56,4.48,4.48,0,0,1,1-.72q.66-.36,1.26-.72a10,10,0,0,0,1.26-.59.8.8,0,0,1,1.14.35c.24.65.13,1.08-.3,1.32a5,5,0,0,0-1.14.84q-1.68,1.2-3.18,2.46l-3.06,2.58q-4.44,3.72-8.81,8a97,97,0,0,1-9.29,8A36.38,36.38,0,0,1,383,61a7.54,7.54,0,0,1-5.88.42A6.14,6.14,0,0,1,374,58a16.42,16.42,0,0,1-1-5.15,23.69,23.69,0,0,1,.48-5.76,31.31,31.31,0,0,1,1.55-5.33,22.52,22.52,0,0,1,6.6-9.47q.6-.24,1-.42a3.81,3.81,0,0,1,.95-.3c.08,0,.13,0,.13-.06s0-.06.11-.06h1.08a4,4,0,0,1,1,.12A4.53,4.53,0,0,1,388.48,35a9.2,9.2,0,0,0,0,2.1A1.71,1.71,0,0,1,388,38.72Z"/><path class="cls-2" d="M426.6,33c-1.52,2-3,4.15-4.43,6.47s-2.88,4.56-4.32,6.71q-1.56,2.28-3.24,4.92a24.05,24.05,0,0,1-3.83,4.67,8.66,8.66,0,0,1-1.68,1.5,2.63,2.63,0,0,1-2.28.3,3.26,3.26,0,0,1-1.68-2.64,37,37,0,0,1,2.22-10.42,48.25,48.25,0,0,1,4.26-8.88c.56-.87,1.17-1.75,1.86-2.63a6.45,6.45,0,0,1,2.21-1.92,3.43,3.43,0,0,1,4,.18q1.74,1.38,1.26,4.37a6.35,6.35,0,0,0,1.38-1.91c.51-1,1.07-1.94,1.67-2.94a20.22,20.22,0,0,1,1.92-2.7,3.34,3.34,0,0,1,2.1-1.32,2.66,2.66,0,0,1,.84.12l.72.24a5.49,5.49,0,0,1,1.2,2.28q-.24,7.2-1,13.61t-1.08,13.6v2.16q0,1.32-.12,2.64a12.27,12.27,0,0,1-.42,2.34c-.2.68-.54,1-1,1a1.34,1.34,0,0,1-1.26-.77,6,6,0,0,1-.6-1.92,15,15,0,0,1-.18-2.34,12.19,12.19,0,0,0-.12-1.92,67.25,67.25,0,0,1,.24-12.71Q426,38.85,426.6,33Zm-8.63.24a.11.11,0,0,0-.12-.12,3.32,3.32,0,0,0-.66.3,3.32,3.32,0,0,1-.66.3,24.69,24.69,0,0,0-3,4.25,47.68,47.68,0,0,0-2.4,4.86c-.64,1.68-1.26,3.45-1.86,5.33a26.25,26.25,0,0,0-1.14,6.06,41.73,41.73,0,0,0,6.05-7.74q2.7-4.37,5.46-8.57a4.83,4.83,0,0,1-.6-2.58A2,2,0,0,0,418,33.21Z"/><path class="cls-2" d="M448.54,19.78q10.31-.36,21.46-1.08a157.82,157.82,0,0,1,22.18.12q.6,0,1.32.06a1,1,0,0,1,.95.66q-.12,1-.9,1a7,7,0,0,1-1.37-.12,215.72,215.72,0,0,0-22.18.18q-11,.66-21.7,1.26-1.68,9.83-3.06,20A147.08,147.08,0,0,0,444,63.18c0,1,0,2.2.12,3.47a24.48,24.48,0,0,0,.48,3.6q.24,1.32.78,3.24c.36,1.27.9,2,1.62,2a1.59,1.59,0,0,0,1.26-.36A12,12,0,0,0,449.56,74a12.89,12.89,0,0,0,1.2-1.38q.54-.72.78-1.08a118.17,118.17,0,0,0,8.57-12.77q3.78-6.52,8-13.61,1.08-1.9,2.28-3.95T473,37.16a10.65,10.65,0,0,1,1.07-1.38,1.08,1.08,0,0,1,1.2-.42c.64.32.76.83.36,1.5a17.36,17.36,0,0,1-1,1.5q-3,5-5.63,10.19t-5.63,10.19q-1.68,2.76-3.3,5.58t-3.42,5.57q-1.8,2.76-3.71,5.39a12.86,12.86,0,0,1-4.92,4.08,6.67,6.67,0,0,1-2.52,0,7.43,7.43,0,0,1-4.13-4.5,32.69,32.69,0,0,1-1.62-6.77,51.42,51.42,0,0,1-.6-8c0-2.76.08-5.45.24-8.09q.6-8,1.62-15.53t2.45-14.32q-5.5.24-11.2.84t-11.57.84q-.72,0-1.62.06a.88.88,0,0,1-1-.9.85.85,0,0,1,1-1,10.34,10.34,0,0,0,1.68-.12q5.64-.36,11.51-1t11.63-.84q.7-2.52,1.61-5.93a48.43,48.43,0,0,1,2.1-6.3,9.1,9.1,0,0,1,.9-2,1.92,1.92,0,0,1,1.62-1.14,1.26,1.26,0,0,1,1.14.48,1.8,1.8,0,0,1,.24,1.14,9.09,9.09,0,0,1-.24,1.38q-.18.72-.3,1.32-.6,2.64-1.2,5.46T448.54,19.78Z"/><path class="cls-2" d="M475.87,34.65a1.79,1.79,0,0,1,.42,1.31q-.06.72-.06,1.56-.12,2-.06,4.44c0,1.6.06,3.16.06,4.67s0,3-.06,4.44a5.2,5.2,0,0,1-1.26,3.48h-1a3.94,3.94,0,0,1-.9-1.86,19.62,19.62,0,0,1-.41-2.7c-.08-1.76-.1-3.6-.06-5.51a49.54,49.54,0,0,1,.42-5.64c.08-.48.16-1,.23-1.68a7.36,7.36,0,0,1,.42-1.68,2,2,0,0,1,.84-1A1.39,1.39,0,0,1,475.87,34.65Zm.6-23.26a2.73,2.73,0,0,1-1,1.92,1.3,1.3,0,0,1-1.38-.24,2,2,0,0,1-.48-1.14,1.54,1.54,0,0,1,.36-1.14,1.49,1.49,0,0,1,1.38-.36Q476.35,10.91,476.47,11.39Z"/><path class="cls-2" d="M494.57,31.77A9.34,9.34,0,0,1,501,34.29a11.58,11.58,0,0,1,2.93,6.11q3.84-.72,8-1.62T520,36.92a8.82,8.82,0,0,0,1.2-.42,9.26,9.26,0,0,1,1.49-.48,4.3,4.3,0,0,1,1.38-.12,1,1,0,0,1,.84.54.74.74,0,0,1-.24,1,5.57,5.57,0,0,1-1.2.66,9.05,9.05,0,0,1-1.55.48q-.84.18-1.2.3-3.84,1.2-8.09,2.1t-8.46,1.74a25.06,25.06,0,0,1-1,8.69,29.91,29.91,0,0,1-3.29,7.37,37.87,37.87,0,0,1-4.62,5.76,13.34,13.34,0,0,1-6.29,3.59h-1.8a4.75,4.75,0,0,1-2-.9,17.44,17.44,0,0,1-1.56-1.38,10.5,10.5,0,0,1-1.85-5.21,30.72,30.72,0,0,1,.06-6.35,57.61,57.61,0,0,1,1.08-6.48q.71-3.17,1.31-5.69a4.74,4.74,0,0,1-.06-4.32,9.22,9.22,0,0,1,2.34-3.11,20.11,20.11,0,0,0,.9-2.52,20.6,20.6,0,0,1,1-2.76,8.35,8.35,0,0,1,1.5-2.28,3.06,3.06,0,0,1,2.34-1,2.34,2.34,0,0,1,2.39,1.74A6.47,6.47,0,0,1,494.57,31.77Zm-5.75,12.47q-.6,3.46-1.5,7.49a29.62,29.62,0,0,0-.66,8.21,10.84,10.84,0,0,0,.42,2,3,3,0,0,0,1.14,1.56,9.22,9.22,0,0,0,5.51-2.88q2-2.28,3.84-4.68a45.57,45.57,0,0,0,2.88-5.81,14.48,14.48,0,0,0,1-7,54.8,54.8,0,0,1-6.12.9A49.94,49.94,0,0,1,488.82,44.24Zm5.27-10a3.68,3.68,0,0,0-.24,1.37.8.8,0,0,1-.72.9,1.82,1.82,0,0,1-.54-.06,2.71,2.71,0,0,1-.41-.18,2.12,2.12,0,0,1-.12-1.67,4.69,4.69,0,0,0-.9,1.55q-.3.84-.54,1.8a17.68,17.68,0,0,0-.6,1.92l-.48,1.92q3.34,0,6.23-.24t5.64-.72a9.62,9.62,0,0,0-2.22-4.74Q497.57,34.42,494.09,34.29Z"/><path class="cls-2" d="M524.18,53.11q2.4-4.56,4.8-9.29a43.71,43.71,0,0,1,5.63-8.58c.32-.39.72-.87,1.2-1.43a8.77,8.77,0,0,1,1.56-1.44,5.23,5.23,0,0,1,1.86-.84,3.63,3.63,0,0,1,2.21.24q1.8.84,2.64,3.71t1.44,5.76q.24,1.32.54,2.76c.2,1,.42,1.91.66,2.87a19.94,19.94,0,0,0,1,2.7,2.57,2.57,0,0,0,1.44,1.62,2,2,0,0,0,1.79-.42,14.53,14.53,0,0,1,1.44-1q.72-.6,1.32-1a9,9,0,0,0,1.2-1,49.87,49.87,0,0,0,5-5,59.28,59.28,0,0,1,5-5.16,20,20,0,0,1,2.1-1.38,3.07,3.07,0,0,1,1.44-.42c.43,0,.7.28.78.84s-.18.88-.78,1.2a5.86,5.86,0,0,0-1.38,1,30.37,30.37,0,0,0-3.36,3.42q-1.68,2-3.59,4c-.65.64-1.26,1.24-1.86,1.8s-1.22,1.16-1.86,1.8q-1.56,1.56-3.36,3.06a7,7,0,0,1-4.67,1.5l-.54-.24a1.76,1.76,0,0,0-.66-.12,7.38,7.38,0,0,1-2.94-3.72,38,38,0,0,1-1.5-5.1q-.6-2.68-1.14-5.39a17,17,0,0,0-1.73-4.86,7.2,7.2,0,0,0-3.12,2.7,37.82,37.82,0,0,1-2.4,3.42,55.19,55.19,0,0,0-4.08,7.43q-1.78,4-3.47,8.15a7.37,7.37,0,0,0-.84,1.86,21.12,21.12,0,0,1-.84,2.22,6.11,6.11,0,0,1-1.26,1.86,2.23,2.23,0,0,1-2.1.54,2,2,0,0,1-1.62-1.26,7.75,7.75,0,0,1-.65-2.64,28.46,28.46,0,0,1-.06-3.24c0-1.15.1-2.21.18-3.17q.48-5.76,1.31-11.21a67.15,67.15,0,0,1,2.28-10q.48-1.32.84-2.4a1.68,1.68,0,0,1,1.56-1.2,1.36,1.36,0,0,1,1.5.66,3.45,3.45,0,0,1,.36,1.86,13.35,13.35,0,0,1-.36,2.34c-.2.84-.34,1.54-.42,2.09q-.84,4.56-1.44,9.12T524.18,53.11Z"/></g></g></svg>