<svg xmlns="http://www.w3.org/2000/svg" viewBox="0 0 867.02 194.92"><defs><style>.cls-1{fill:#53575a;}.cls-2{fill:#ff8300;}</style></defs><g id="Layer_2" data-name="Layer 2"><g id="Layer_1-2" data-name="Layer 1"><path class="cls-1" d="M123.82,119.62h-2.3V99.08h-7.58V97h17.47v2.11h-7.59Z"/><path class="cls-1" d="M134.16,95.43h2.11v11.62h.07a4.72,4.72,0,0,1,.89-1.12,5.66,5.66,0,0,1,1.22-.88,6.52,6.52,0,0,1,1.42-.58,6.35,6.35,0,0,1,5.75,1.31,6.29,6.29,0,0,1,1.37,4.34v9.5h-2.11v-8.28a7.1,7.1,0,0,0-.86-3.83,3.56,3.56,0,0,0-3.2-1.33c-.11,0-.41,0-.9.13a3.87,3.87,0,0,0-1.55.71,5.07,5.07,0,0,0-1.46,1.72,6.62,6.62,0,0,0-.64,3.2v7.68h-2.11Z"/><path class="cls-1" d="M153.42,112.71a6.51,6.51,0,0,0,.55,2.11,5.54,5.54,0,0,0,1.18,1.72,5.43,5.43,0,0,0,1.7,1.13,5.12,5.12,0,0,0,2.08.42,5.31,5.31,0,0,0,2.93-.79,5.88,5.88,0,0,0,1.87-1.8l1.63,1.34a8.12,8.12,0,0,1-3,2.43,8.31,8.31,0,0,1-3.47.74,8.06,8.06,0,0,1-3.09-.59,7.35,7.35,0,0,1-2.45-1.65,7.84,7.84,0,0,1-1.61-2.5,8,8,0,0,1-.6-3.13,8.47,8.47,0,0,1,.58-3.14,7.65,7.65,0,0,1,1.6-2.5,7.27,7.27,0,0,1,2.4-1.64,7.79,7.79,0,0,1,6,0,6.68,6.68,0,0,1,3.64,4,8.59,8.59,0,0,1,.48,2.89v1ZM163.6,111a4.81,4.81,0,0,0-1.28-3.47,4.76,4.76,0,0,0-3.58-1.33,5.24,5.24,0,0,0-2,.4,5.63,5.63,0,0,0-1.68,1.08,5.35,5.35,0,0,0-1.15,1.53,4,4,0,0,0-.43,1.79Z"/><path class="cls-1" d="M193.78,112.14a8,8,0,0,1-.6,3.13,7.59,7.59,0,0,1-1.64,2.5,7.76,7.76,0,0,1-2.52,1.65,9,9,0,0,1-6.4,0,7.44,7.44,0,0,1-4.16-4.15,8.62,8.62,0,0,1,0-6.27,7.78,7.78,0,0,1,1.65-2.5,7.53,7.53,0,0,1,2.51-1.64,8.83,8.83,0,0,1,6.4,0,7.31,7.31,0,0,1,4.16,4.14A8.1,8.1,0,0,1,193.78,112.14Zm-2.31,0a6.65,6.65,0,0,0-.4-2.34,5.8,5.8,0,0,0-1.13-1.89,5.53,5.53,0,0,0-1.78-1.26,6.11,6.11,0,0,0-4.7,0,5.14,5.14,0,0,0-1.76,1.26,5.78,5.78,0,0,0-1.12,1.89,7,7,0,0,0,0,4.67,5.58,5.58,0,0,0,1.12,1.89,5,5,0,0,0,1.76,1.26,6.11,6.11,0,0,0,4.7,0,5.38,5.38,0,0,0,1.78-1.26,5.6,5.6,0,0,0,1.13-1.89A6.59,6.59,0,0,0,191.47,112.14Z"/><path class="cls-1" d="M199.63,104.65c0,.4.07.8.08,1.2s0,.79,0,1.2h.06a4.77,4.77,0,0,1,.9-1.12,5.86,5.86,0,0,1,1.21-.88,6.6,6.6,0,0,1,1.43-.58,6.33,6.33,0,0,1,5.74,1.31,6.25,6.25,0,0,1,1.38,4.34v9.5h-2.12v-8.28a7,7,0,0,0-.86-3.83,3.53,3.53,0,0,0-3.2-1.33c-.11,0-.4,0-.89.13a3.91,3.91,0,0,0-1.56.71,5,5,0,0,0-1.45,1.72,6.62,6.62,0,0,0-.64,3.2v7.68h-2.11V107.94c0-.4,0-.91-.05-1.53s-.07-1.21-.11-1.76Z"/><path class="cls-1" d="M218,119.62h-2.11V95.43H218Z"/><path class="cls-1" d="M228.65,117l4.58-12.38h2.56l-7.49,18.88a7.79,7.79,0,0,1-1.71,2.75,4.09,4.09,0,0,1-3,1l-1,0a3.63,3.63,0,0,1-1-.19l.22-2a3.34,3.34,0,0,0,1.6.35,2.25,2.25,0,0,0,1.76-.7,6.1,6.1,0,0,0,1.12-2l1.09-2.88-6.15-15.17H224Z"/><path class="cls-1" d="M255.34,108.2a3.82,3.82,0,0,0-1.28-1.47,3.39,3.39,0,0,0-1.95-.55,5.24,5.24,0,0,0-1.1.13,3.5,3.5,0,0,0-1,.4,2.16,2.16,0,0,0-.72.69,1.85,1.85,0,0,0-.27,1,1.7,1.7,0,0,0,.73,1.54,7.16,7.16,0,0,0,2.21.83l2.14.51a5.08,5.08,0,0,1,2.61,1.43,3.64,3.64,0,0,1,1,2.67,4.23,4.23,0,0,1-.49,2.1,4.33,4.33,0,0,1-1.32,1.44,5.56,5.56,0,0,1-1.87.81,9.08,9.08,0,0,1-2.14.26,7.86,7.86,0,0,1-3.22-.66,5.89,5.89,0,0,1-2.54-2.25l1.82-1.25a5,5,0,0,0,1.62,1.63,4.25,4.25,0,0,0,2.32.61,5.59,5.59,0,0,0,1.28-.15,3.65,3.65,0,0,0,1.13-.44,2.42,2.42,0,0,0,.8-.79,2,2,0,0,0,.31-1.12,1.74,1.74,0,0,0-.83-1.61,7.34,7.34,0,0,0-2-.79l-2.05-.48c-.25-.06-.6-.17-1-.32a4.92,4.92,0,0,1-1.28-.67,4.17,4.17,0,0,1-1.07-1.17,3.28,3.28,0,0,1-.45-1.77,4.21,4.21,0,0,1,.47-2,3.94,3.94,0,0,1,1.24-1.41,5.9,5.9,0,0,1,1.78-.81,7.74,7.74,0,0,1,2.05-.28,7.09,7.09,0,0,1,2.91.61,4.29,4.29,0,0,1,2.08,2.08Z"/><path class="cls-1" d="M264.11,98.89a1.41,1.41,0,0,1-.48,1.1,1.51,1.51,0,0,1-2.11,0,1.41,1.41,0,0,1-.48-1.1,1.43,1.43,0,0,1,.48-1.11,1.51,1.51,0,0,1,2.11,0A1.43,1.43,0,0,1,264.11,98.89Zm-.48,20.73h-2.11v-15h2.11Z"/><path class="cls-1" d="M271.31,119.62H269.2V95.43h2.11Z"/><path class="cls-1" d="M279.47,98.89A1.41,1.41,0,0,1,279,100a1.51,1.51,0,0,1-2.11,0,1.41,1.41,0,0,1-.48-1.1,1.43,1.43,0,0,1,.48-1.11,1.51,1.51,0,0,1,2.11,0A1.43,1.43,0,0,1,279.47,98.89ZM279,119.62h-2.11v-15H279Z"/><path class="cls-1" d="M295,108.17a4.41,4.41,0,0,0-1.52-1.41,4.32,4.32,0,0,0-2.22-.58,5.58,5.58,0,0,0-2.36.42,5.22,5.22,0,0,0-1.77,1.25,5.32,5.32,0,0,0-1.12,1.9,7.49,7.49,0,0,0,0,4.77,5.23,5.23,0,0,0,1.12,1.9,5.08,5.08,0,0,0,1.77,1.25,5.58,5.58,0,0,0,2.36.42,4.23,4.23,0,0,0,2.22-.58A4.41,4.41,0,0,0,295,116.1l1.73,1.32a7.1,7.1,0,0,1-2.53,1.93,7.5,7.5,0,0,1-2.94.66,8.48,8.48,0,0,1-3.3-.56,7.41,7.41,0,0,1-2.51-1.65,7,7,0,0,1-1.59-2.51,9,9,0,0,1-.54-3.15,9.08,9.08,0,0,1,.54-3.16,7.12,7.12,0,0,1,1.59-2.51,7.41,7.41,0,0,1,2.51-1.65,8.48,8.48,0,0,1,3.3-.56,7.68,7.68,0,0,1,2.94.66,7.13,7.13,0,0,1,2.53,1.94Z"/><path class="cls-1" d="M314.64,112.14a8.23,8.23,0,0,1-.59,3.13,7.44,7.44,0,0,1-4.16,4.15,8.62,8.62,0,0,1-3.22.59,8.45,8.45,0,0,1-3.18-.59,7.36,7.36,0,0,1-4.16-4.15,8.49,8.49,0,0,1,0-6.27,7.59,7.59,0,0,1,1.64-2.5,7.48,7.48,0,0,1,2.52-1.64,8.26,8.26,0,0,1,3.18-.6,8.43,8.43,0,0,1,3.22.6,7.53,7.53,0,0,1,2.51,1.64,7.78,7.78,0,0,1,1.65,2.5A8.28,8.28,0,0,1,314.64,112.14Zm-2.31,0a6.65,6.65,0,0,0-.4-2.34,5.63,5.63,0,0,0-1.13-1.89,5.43,5.43,0,0,0-1.78-1.26,6.11,6.11,0,0,0-4.7,0,5.14,5.14,0,0,0-1.76,1.26,5.78,5.78,0,0,0-1.12,1.89,7,7,0,0,0,0,4.67,5.58,5.58,0,0,0,1.12,1.89,5,5,0,0,0,1.76,1.26,6.11,6.11,0,0,0,4.7,0,5.28,5.28,0,0,0,1.78-1.26,5.44,5.44,0,0,0,1.13-1.89A6.59,6.59,0,0,0,312.33,112.14Z"/><path class="cls-1" d="M320.49,104.65c.05.4.07.8.08,1.2s0,.79,0,1.2h.06a5,5,0,0,1,.9-1.12,5.86,5.86,0,0,1,1.21-.88,6.6,6.6,0,0,1,1.43-.58,5.52,5.52,0,0,1,1.49-.21,5.45,5.45,0,0,1,4.25,1.52,6.25,6.25,0,0,1,1.38,4.34v9.5H329.2v-8.28a7,7,0,0,0-.87-3.83,3.53,3.53,0,0,0-3.2-1.33c-.1,0-.4,0-.89.13a3.87,3.87,0,0,0-1.55.71,5.07,5.07,0,0,0-1.46,1.72,6.62,6.62,0,0,0-.64,3.2v7.68h-2.11V107.94c0-.4,0-.91-.05-1.53s-.07-1.21-.11-1.76Z"/><path class="cls-1" d="M337.74,112.71a6.5,6.5,0,0,0,.54,2.11,5.56,5.56,0,0,0,1.19,1.72,5.32,5.32,0,0,0,1.7,1.13,5.07,5.07,0,0,0,2.07.42,5.26,5.26,0,0,0,2.93-.79,5.78,5.78,0,0,0,1.87-1.8l1.64,1.34a8.2,8.2,0,0,1-3,2.43,8.33,8.33,0,0,1-3.48.74,8,8,0,0,1-3.08-.59,7.35,7.35,0,0,1-2.45-1.65,8,8,0,0,1-1.62-2.5,8.69,8.69,0,0,1,0-6.27,7.49,7.49,0,0,1,1.6-2.5,7.47,7.47,0,0,1,5.37-2.24,7.37,7.37,0,0,1,3,.61,6.65,6.65,0,0,1,3.65,4,8.59,8.59,0,0,1,.48,2.89v1ZM347.92,111a4.5,4.5,0,0,0-4.87-4.8,5.23,5.23,0,0,0-2,.4,5.63,5.63,0,0,0-1.68,1.08,5.18,5.18,0,0,0-1.15,1.53,4,4,0,0,0-.44,1.79Z"/><path class="cls-1" d="M364.11,122.63a6.76,6.76,0,0,0,2.41,2,7.3,7.3,0,0,0,3.32.75,7.13,7.13,0,0,0,2.72-.46,4.7,4.7,0,0,0,1.8-1.26,5,5,0,0,0,1-1.88,8.38,8.38,0,0,0,.3-2.28v-2.69h-.06a5.79,5.79,0,0,1-2.5,2.17,7.65,7.65,0,0,1-3.1.64,8.16,8.16,0,0,1-3.06-.57,7.81,7.81,0,0,1-2.48-1.59,7.21,7.21,0,0,1-1.66-2.41,7.51,7.51,0,0,1-.61-3,7.85,7.85,0,0,1,2.16-5.51,7.07,7.07,0,0,1,2.4-1.64,7.65,7.65,0,0,1,3.05-.6,9.15,9.15,0,0,1,1.43.13,7.13,7.13,0,0,1,1.5.45,7,7,0,0,1,1.49.88,7.19,7.19,0,0,1,1.38,1.42h.06v-2.49h2.11V119.5a12.2,12.2,0,0,1-.3,2.59,6.39,6.39,0,0,1-1.19,2.53,6.86,6.86,0,0,1-2.44,1.92,9.41,9.41,0,0,1-4.1.76,10.3,10.3,0,0,1-4-.73,9.36,9.36,0,0,1-3.2-2.27Zm.38-10.69a5.76,5.76,0,0,0,1.62,4,5.81,5.81,0,0,0,1.76,1.25,5.15,5.15,0,0,0,2.19.46,5.82,5.82,0,0,0,4-1.58,4.85,4.85,0,0,0,1.23-1.81,5.63,5.63,0,0,0,.4-2.37,6.28,6.28,0,0,0-.38-2.22,5.39,5.39,0,0,0-1.12-1.82,5.34,5.34,0,0,0-1.79-1.25,5.83,5.83,0,0,0-2.37-.47,5.15,5.15,0,0,0-2.19.47,5.64,5.64,0,0,0-1.76,1.25,5.76,5.76,0,0,0-1.62,4Z"/><path class="cls-1" d="M384,112.71a6.5,6.5,0,0,0,.54,2.11,5.56,5.56,0,0,0,1.19,1.72,5.39,5.39,0,0,0,1.69,1.13,5.15,5.15,0,0,0,2.08.42,5.26,5.26,0,0,0,2.93-.79,5.78,5.78,0,0,0,1.87-1.8l1.64,1.34a8.2,8.2,0,0,1-3,2.43,8.33,8.33,0,0,1-3.48.74,8,8,0,0,1-3.08-.59,7.35,7.35,0,0,1-2.45-1.65,8,8,0,0,1-1.62-2.5,8.69,8.69,0,0,1,0-6.27,7.49,7.49,0,0,1,1.6-2.5,7.47,7.47,0,0,1,5.37-2.24,7.37,7.37,0,0,1,3,.61,6.65,6.65,0,0,1,3.65,4,8.59,8.59,0,0,1,.48,2.89v1ZM394.16,111a4.5,4.5,0,0,0-4.87-4.8,5.23,5.23,0,0,0-2,.4,5.63,5.63,0,0,0-1.68,1.08,5.18,5.18,0,0,0-1.15,1.53A4,4,0,0,0,384,111Z"/><path class="cls-1" d="M402.89,119.62h-2.11V95.43h2.11Z"/><path class="cls-1" d="M416.88,95.43H419v11.71h.06a5.64,5.64,0,0,1,1.22-1.31,7.48,7.48,0,0,1,1.47-.89,7,7,0,0,1,1.58-.52,8.79,8.79,0,0,1,1.56-.16,8.34,8.34,0,0,1,3.21.6,7.38,7.38,0,0,1,4.16,4.14,8.62,8.62,0,0,1,0,6.27,7.46,7.46,0,0,1-1.65,2.5,7.61,7.61,0,0,1-2.51,1.65,8.53,8.53,0,0,1-3.21.59,8.79,8.79,0,0,1-1.56-.16,7.47,7.47,0,0,1-1.58-.51,8.06,8.06,0,0,1-1.47-.9,5.45,5.45,0,0,1-1.22-1.31H419v2.49h-2.11Zm13.66,16.71a6.65,6.65,0,0,0-.4-2.34,5.82,5.82,0,0,0-1.14-1.89,5.38,5.38,0,0,0-1.77-1.26,5.73,5.73,0,0,0-2.35-.47,6,6,0,0,0-2.4.47,5.9,5.9,0,0,0-1.89,1.26,5.77,5.77,0,0,0-1.25,1.89,6.28,6.28,0,0,0,0,4.67,5.57,5.57,0,0,0,1.25,1.89,5.74,5.74,0,0,0,1.89,1.26,6,6,0,0,0,2.4.47,5.73,5.73,0,0,0,2.35-.47,5.24,5.24,0,0,0,1.77-1.26,5.62,5.62,0,0,0,1.14-1.89A6.59,6.59,0,0,0,430.54,112.14Z"/><path class="cls-1" d="M436.65,109.32c0-.66,0-1.33,0-2s-.06-1.56-.08-2.65h2.08v2.78h.07a4.81,4.81,0,0,1,.64-1.17,4.57,4.57,0,0,1,1-1,4.82,4.82,0,0,1,1.37-.72,5.45,5.45,0,0,1,1.78-.28,5.65,5.65,0,0,1,1.57.2l-.42,2.08a3.48,3.48,0,0,0-1.22-.16,4.35,4.35,0,0,0-2.08.46,4.75,4.75,0,0,0-1.44,1.18,4.93,4.93,0,0,0-.84,1.56,4.86,4.86,0,0,0-.28,1.6v8.44h-2.11Z"/><path class="cls-1" d="M448,112.71a6.25,6.25,0,0,0,.54,2.11,5.51,5.51,0,0,0,2.88,2.85,5.15,5.15,0,0,0,2.08.42,5.28,5.28,0,0,0,2.93-.79,5.78,5.78,0,0,0,1.87-1.8l1.63,1.34a8,8,0,0,1-3,2.43,8.25,8.25,0,0,1-3.47.74,8.06,8.06,0,0,1-3.09-.59,7.31,7.31,0,0,1-2.44-1.65,7.7,7.7,0,0,1-1.62-2.5,8.23,8.23,0,0,1-.59-3.13,8.47,8.47,0,0,1,.57-3.14,7.82,7.82,0,0,1,1.6-2.5,7.48,7.48,0,0,1,2.4-1.64,7.79,7.79,0,0,1,6,0,6.85,6.85,0,0,1,2.26,1.62,7,7,0,0,1,1.39,2.37,8.59,8.59,0,0,1,.48,2.89v1ZM458.12,111a4.5,4.5,0,0,0-4.86-4.8,5.23,5.23,0,0,0-2,.4,5.63,5.63,0,0,0-1.68,1.08,5.39,5.39,0,0,0-1.16,1.53A4.1,4.1,0,0,0,448,111Z"/><path class="cls-1" d="M473.87,110.44v-.38q0-3.89-3.84-3.88a6.64,6.64,0,0,0-4.58,1.76l-1.28-1.5q2.11-2.18,6.34-2.18a7,7,0,0,1,2.09.32,4.76,4.76,0,0,1,1.75,1,4.9,4.9,0,0,1,1.18,1.65,5.69,5.69,0,0,1,.45,2.37v6.68c0,.58,0,1.18.08,1.81s.11,1.15.18,1.55h-2.05c-.07-.36-.11-.75-.15-1.18s0-.84,0-1.25h-.07a5.64,5.64,0,0,1-2.19,2.16,6.6,6.6,0,0,1-3.09.66,6.85,6.85,0,0,1-1.92-.27,5,5,0,0,1-1.65-.84,4.23,4.23,0,0,1-1.15-1.37,4,4,0,0,1-.43-1.91,4.09,4.09,0,0,1,.94-2.86,5.8,5.8,0,0,1,2.37-1.55,11.49,11.49,0,0,1,3-.64c1.08-.09,2.07-.13,3-.13Zm-1.09,1.73c-.53,0-1.2,0-2,.08a11.39,11.39,0,0,0-2.3.38,5,5,0,0,0-1.89,1,2.12,2.12,0,0,0-.79,1.76,2.5,2.5,0,0,0,.31,1.26,2.47,2.47,0,0,0,.81.86,3.22,3.22,0,0,0,1.14.48,5.42,5.42,0,0,0,1.26.15,4.73,4.73,0,0,0,2-.39,4.06,4.06,0,0,0,1.43-1,4.32,4.32,0,0,0,.85-1.53,6.36,6.36,0,0,0,.27-1.87v-1.09Z"/><path class="cls-1" d="M488.81,108.2a3.91,3.91,0,0,0-1.28-1.47,3.39,3.39,0,0,0-1.95-.55,5.24,5.24,0,0,0-1.1.13,3.5,3.5,0,0,0-1,.4,2.16,2.16,0,0,0-.72.69,1.85,1.85,0,0,0-.27,1,1.7,1.7,0,0,0,.73,1.54,7.16,7.16,0,0,0,2.21.83l2.14.51a5.08,5.08,0,0,1,2.61,1.43,3.68,3.68,0,0,1,1,2.67,4.13,4.13,0,0,1-.5,2.1,4.3,4.3,0,0,1-1.31,1.44,5.56,5.56,0,0,1-1.87.81,9.08,9.08,0,0,1-2.14.26,7.86,7.86,0,0,1-3.22-.66,5.89,5.89,0,0,1-2.54-2.25l1.82-1.25a5,5,0,0,0,1.62,1.63,4.25,4.25,0,0,0,2.32.61,5.66,5.66,0,0,0,1.28-.15,3.65,3.65,0,0,0,1.13-.44,2.52,2.52,0,0,0,.8-.79,2,2,0,0,0,.31-1.12,1.74,1.74,0,0,0-.83-1.61,7.34,7.34,0,0,0-2-.79l-2.05-.48c-.26-.06-.6-.17-1-.32a4.92,4.92,0,0,1-1.28-.67,4.17,4.17,0,0,1-1.07-1.17,3.28,3.28,0,0,1-.45-1.77,4.21,4.21,0,0,1,.47-2,3.84,3.84,0,0,1,1.24-1.41,5.9,5.9,0,0,1,1.78-.81,7.74,7.74,0,0,1,2-.28,7.09,7.09,0,0,1,2.91.61A4.29,4.29,0,0,1,490.7,107Z"/><path class="cls-1" d="M502.25,106.57h-4.32v8.83a4.64,4.64,0,0,0,.16,1.36,2.07,2.07,0,0,0,.45.82,1.59,1.59,0,0,0,.69.4,3.42,3.42,0,0,0,.88.11,4.09,4.09,0,0,0,1.12-.16,5.48,5.48,0,0,0,1-.42l.1,1.95a6.68,6.68,0,0,1-2.85.55,5.65,5.65,0,0,1-1.26-.16,3,3,0,0,1-1.2-.61,3.29,3.29,0,0,1-.9-1.22,4.93,4.93,0,0,1-.35-2v-9.44h-3.17v-1.92h3.17v-4.23h2.11v4.23h4.32Z"/><path class="cls-1" d="M517.1,98.89a1.41,1.41,0,0,1-.48,1.1,1.51,1.51,0,0,1-2.11,0,1.41,1.41,0,0,1-.48-1.1,1.43,1.43,0,0,1,.48-1.11,1.51,1.51,0,0,1,2.11,0A1.43,1.43,0,0,1,517.1,98.89Zm-.48,20.73h-2.11v-15h2.11Z"/><path class="cls-1" d="M521.71,108c0-.56,0-1.11-.05-1.67s-.07-1.11-.11-1.66h2.27v2.27h.06a4.91,4.91,0,0,1,2.13-2,6.06,6.06,0,0,1,2.7-.68,7.63,7.63,0,0,1,1.3.13,4.7,4.7,0,0,1,1.33.47,4.52,4.52,0,0,1,1.2.94,5.07,5.07,0,0,1,.94,1.57,5,5,0,0,1,2-2.27,5.55,5.55,0,0,1,2.9-.84,5.49,5.49,0,0,1,4.26,1.52,6.29,6.29,0,0,1,1.37,4.34v9.5h-2.11v-8.73a6.37,6.37,0,0,0-.8-3.49,3.31,3.31,0,0,0-3-1.22,3.69,3.69,0,0,0-3.28,1.7,5.41,5.41,0,0,0-.72,1.74,9.11,9.11,0,0,0-.22,2v8h-2.11v-8.73a6.37,6.37,0,0,0-.8-3.49,3.32,3.32,0,0,0-3-1.22,7.85,7.85,0,0,0-.88.13,3.33,3.33,0,0,0-1.42.71,5.08,5.08,0,0,0-1.33,1.72,7.19,7.19,0,0,0-.59,3.2v7.68h-2.11Z"/><path class="cls-1" d="M549,104.65h2.11v2.49h.07a5.6,5.6,0,0,1,1.21-1.31,7.48,7.48,0,0,1,1.47-.89,7,7,0,0,1,1.59-.52,8.59,8.59,0,0,1,1.55-.16,8.43,8.43,0,0,1,3.22.6,7.53,7.53,0,0,1,2.51,1.64,7.78,7.78,0,0,1,1.65,2.5,8.62,8.62,0,0,1,0,6.27,7.44,7.44,0,0,1-4.16,4.15,8.54,8.54,0,0,1-4.77.43,7.55,7.55,0,0,1-1.59-.51,8.06,8.06,0,0,1-1.47-.9,5.41,5.41,0,0,1-1.21-1.31h-.07v11.71H549Zm13.66,7.49a6.65,6.65,0,0,0-.4-2.34,5.63,5.63,0,0,0-1.13-1.89,5.43,5.43,0,0,0-1.78-1.26,5.7,5.7,0,0,0-2.35-.47,6,6,0,0,0-2.4.47,5.73,5.73,0,0,0-3.14,3.15,6.42,6.42,0,0,0,0,4.67,5.73,5.73,0,0,0,3.14,3.15,6,6,0,0,0,2.4.47,5.7,5.7,0,0,0,2.35-.47,5.28,5.28,0,0,0,1.78-1.26,5.44,5.44,0,0,0,1.13-1.89A6.59,6.59,0,0,0,562.63,112.14Z"/><path class="cls-1" d="M571.11,119.62H569V95.43h2.11Z"/><path class="cls-1" d="M585.8,110.44v-.38q0-3.89-3.84-3.88a6.61,6.61,0,0,0-4.57,1.76l-1.28-1.5q2.1-2.18,6.33-2.18a7,7,0,0,1,2.1.32,4.8,4.8,0,0,1,1.74,1,4.93,4.93,0,0,1,1.19,1.65,5.86,5.86,0,0,1,.44,2.37v6.68c0,.58,0,1.18.08,1.81s.12,1.15.18,1.55h-2c-.06-.36-.11-.75-.14-1.18s-.05-.84-.05-1.25h-.06a5.6,5.6,0,0,1-2.2,2.16,6.58,6.58,0,0,1-3.08.66,6.75,6.75,0,0,1-1.92-.27,5,5,0,0,1-1.65-.84,4.11,4.11,0,0,1-1.15-1.37,4,4,0,0,1-.44-1.91,4.1,4.1,0,0,1,1-2.86,5.8,5.8,0,0,1,2.37-1.55,11.41,11.41,0,0,1,3-.64c1.07-.09,2.06-.13,3-.13Zm-1.09,1.73c-.53,0-1.2,0-2,.08a11.51,11.51,0,0,0-2.3.38,5,5,0,0,0-1.89,1,2.14,2.14,0,0,0-.78,1.76,2.38,2.38,0,0,0,1.12,2.12,3.25,3.25,0,0,0,1.13.48,5.44,5.44,0,0,0,1.27.15,4.76,4.76,0,0,0,2-.39,4.1,4.1,0,0,0,2.27-2.57,6.36,6.36,0,0,0,.27-1.87v-1.09Z"/><path class="cls-1" d="M594.83,104.65c0,.4.06.8.08,1.2s0,.79,0,1.2H595a4.72,4.72,0,0,1,.89-1.12,5.66,5.66,0,0,1,1.22-.88,6.52,6.52,0,0,1,1.42-.58,6.35,6.35,0,0,1,5.75,1.31,6.29,6.29,0,0,1,1.37,4.34v9.5h-2.11v-8.28a7.1,7.1,0,0,0-.86-3.83,3.56,3.56,0,0,0-3.2-1.33c-.11,0-.41,0-.9.13A3.87,3.87,0,0,0,597,107a5.07,5.07,0,0,0-1.46,1.72,6.62,6.62,0,0,0-.64,3.2v7.68h-2.11V107.94c0-.4,0-.91,0-1.53s-.07-1.21-.11-1.76Z"/><path class="cls-1" d="M618.35,106.57H614v8.83a4.64,4.64,0,0,0,.16,1.36,1.94,1.94,0,0,0,.44.82,1.65,1.65,0,0,0,.69.4,3.48,3.48,0,0,0,.88.11,4,4,0,0,0,1.12-.16,5.32,5.32,0,0,0,1.06-.42l.09,1.95a6.66,6.66,0,0,1-2.84.55,5.74,5.74,0,0,1-1.27-.16,3,3,0,0,1-1.2-.61,3.28,3.28,0,0,1-.89-1.22,4.76,4.76,0,0,1-.36-2v-9.44h-3.16v-1.92h3.16v-4.23H614v4.23h4.32Z"/><path class="cls-1" d="M639.72,110.44v-.38q0-3.89-3.84-3.88a6.61,6.61,0,0,0-4.57,1.76l-1.28-1.5q2.1-2.18,6.33-2.18a7,7,0,0,1,2.1.32,4.8,4.8,0,0,1,1.74,1,4.93,4.93,0,0,1,1.19,1.65,5.86,5.86,0,0,1,.44,2.37v6.68c0,.58,0,1.18.08,1.81s.12,1.15.18,1.55H640c-.06-.36-.11-.75-.14-1.18s0-.84,0-1.25h-.06a5.6,5.6,0,0,1-2.2,2.16,6.58,6.58,0,0,1-3.08.66,6.87,6.87,0,0,1-1.93-.27,5,5,0,0,1-1.64-.84,4.11,4.11,0,0,1-1.15-1.37,4,4,0,0,1-.44-1.91,4.1,4.1,0,0,1,.95-2.86,5.8,5.8,0,0,1,2.37-1.55,11.41,11.41,0,0,1,3-.64c1.07-.09,2.06-.13,3-.13Zm-1.09,1.73c-.53,0-1.2,0-2,.08a11.51,11.51,0,0,0-2.3.38,5,5,0,0,0-1.89,1,2.14,2.14,0,0,0-.78,1.76,2.38,2.38,0,0,0,1.12,2.12,3.25,3.25,0,0,0,1.13.48,5.44,5.44,0,0,0,1.27.15,4.76,4.76,0,0,0,2-.39,4.1,4.1,0,0,0,2.27-2.57,6.36,6.36,0,0,0,.27-1.87v-1.09Z"/><path class="cls-1" d="M653.32,119.62H651l-6.08-15h2.5l4.8,12.61h.06L657,104.65h2.4Z"/><path class="cls-1" d="M671.75,110.44v-.38q0-3.89-3.84-3.88a6.61,6.61,0,0,0-4.57,1.76l-1.28-1.5c1.4-1.45,3.52-2.18,6.33-2.18a7,7,0,0,1,2.1.32,4.8,4.8,0,0,1,1.74,1,4.93,4.93,0,0,1,1.19,1.65,5.86,5.86,0,0,1,.44,2.37v6.68c0,.58,0,1.18.08,1.81s.12,1.15.18,1.55h-2c-.06-.36-.11-.75-.14-1.18s0-.84,0-1.25h-.06a5.6,5.6,0,0,1-2.2,2.16,6.58,6.58,0,0,1-3.08.66,6.85,6.85,0,0,1-1.92-.27,5,5,0,0,1-1.65-.84,4.11,4.11,0,0,1-1.15-1.37,4,4,0,0,1-.44-1.91,4.1,4.1,0,0,1,1-2.86,5.8,5.8,0,0,1,2.37-1.55,11.49,11.49,0,0,1,3-.64c1.07-.09,2.06-.13,3-.13Zm-1.08,1.73c-.54,0-1.21,0-2,.08a11.49,11.49,0,0,0-2.31.38,5,5,0,0,0-1.89,1,2.14,2.14,0,0,0-.78,1.76,2.5,2.5,0,0,0,.3,1.26,2.6,2.6,0,0,0,.82.86,3.25,3.25,0,0,0,1.13.48,5.44,5.44,0,0,0,1.27.15,4.76,4.76,0,0,0,2-.39,4.1,4.1,0,0,0,2.27-2.57,6.36,6.36,0,0,0,.27-1.87v-1.09Z"/><path class="cls-1" d="M681.83,98.89a1.41,1.41,0,0,1-.48,1.1,1.51,1.51,0,0,1-2.11,0,1.41,1.41,0,0,1-.48-1.1,1.43,1.43,0,0,1,.48-1.11,1.51,1.51,0,0,1,2.11,0A1.43,1.43,0,0,1,681.83,98.89Zm-.48,20.73h-2.11v-15h2.11Z"/><path class="cls-1" d="M689,119.62h-2.11V95.43H689Z"/><path class="cls-1" d="M703.72,110.44v-.38q0-3.89-3.84-3.88a6.65,6.65,0,0,0-4.58,1.76l-1.28-1.5q2.12-2.18,6.34-2.18a7.08,7.08,0,0,1,2.1.32,4.8,4.8,0,0,1,1.74,1,4.9,4.9,0,0,1,1.18,1.65,5.69,5.69,0,0,1,.45,2.37v6.68c0,.58,0,1.18.08,1.81s.11,1.15.18,1.55H704c-.06-.36-.11-.75-.14-1.18s0-.84,0-1.25h-.07a5.58,5.58,0,0,1-2.19,2.16,6.6,6.6,0,0,1-3.09.66,6.85,6.85,0,0,1-1.92-.27,5,5,0,0,1-1.64-.84,4.26,4.26,0,0,1-1.16-1.37,4.65,4.65,0,0,1,.52-4.77,5.76,5.76,0,0,1,2.36-1.55,11.57,11.57,0,0,1,3-.64c1.08-.09,2.07-.13,3-.13Zm-1.09,1.73c-.53,0-1.2,0-2,.08a11.39,11.39,0,0,0-2.3.38,5,5,0,0,0-1.89,1,2.14,2.14,0,0,0-.78,1.76,2.5,2.5,0,0,0,.3,1.26,2.41,2.41,0,0,0,.82.86,3.25,3.25,0,0,0,1.13.48,5.44,5.44,0,0,0,1.27.15,4.79,4.79,0,0,0,2-.39,4,4,0,0,0,1.42-1,4.17,4.17,0,0,0,.85-1.53,6.36,6.36,0,0,0,.27-1.87v-1.09Z"/><path class="cls-1" d="M710.73,95.43h2.11v11.71h.06a5.86,5.86,0,0,1,1.22-1.31,7.48,7.48,0,0,1,1.47-.89,6.88,6.88,0,0,1,1.59-.52,8.59,8.59,0,0,1,1.55-.16,8.34,8.34,0,0,1,3.21.6A7.31,7.31,0,0,1,726.1,109a8.49,8.49,0,0,1,0,6.27,7.59,7.59,0,0,1-1.64,2.5,7.76,7.76,0,0,1-2.52,1.65,8.51,8.51,0,0,1-4.76.43,7.37,7.37,0,0,1-1.59-.51,8.06,8.06,0,0,1-1.47-.9,5.66,5.66,0,0,1-1.22-1.31h-.06v2.49h-2.11Zm13.66,16.71a6.65,6.65,0,0,0-.4-2.34,5.8,5.8,0,0,0-1.13-1.89,5.43,5.43,0,0,0-1.78-1.26,5.7,5.7,0,0,0-2.35-.47,6,6,0,0,0-2.4.47,5.73,5.73,0,0,0-3.14,3.15,6.28,6.28,0,0,0,0,4.67,5.73,5.73,0,0,0,3.14,3.15,6,6,0,0,0,2.4.47,5.7,5.7,0,0,0,2.35-.47,5.28,5.28,0,0,0,1.78-1.26,5.6,5.6,0,0,0,1.13-1.89A6.59,6.59,0,0,0,724.39,112.14Z"/><path class="cls-1" d="M732.87,119.62h-2.11V95.43h2.11Z"/><path class="cls-1" d="M739.43,112.71a6.51,6.51,0,0,0,.55,2.11,5.42,5.42,0,0,0,2.88,2.85,5.12,5.12,0,0,0,2.08.42,5.25,5.25,0,0,0,2.92-.79,5.92,5.92,0,0,0,1.88-1.8l1.63,1.34a8.2,8.2,0,0,1-3,2.43,8.31,8.31,0,0,1-3.47.74,8.06,8.06,0,0,1-3.09-.59,7.35,7.35,0,0,1-2.45-1.65,8,8,0,0,1-1.62-2.5,8.69,8.69,0,0,1,0-6.27,7.49,7.49,0,0,1,1.6-2.5,7.47,7.47,0,0,1,5.37-2.24,7.37,7.37,0,0,1,3,.61,6.65,6.65,0,0,1,3.65,4,8.59,8.59,0,0,1,.48,2.89v1ZM749.61,111a4.5,4.5,0,0,0-4.87-4.8,5.23,5.23,0,0,0-2,.4,5.63,5.63,0,0,0-1.68,1.08,5.18,5.18,0,0,0-1.15,1.53,4,4,0,0,0-.43,1.79Z"/><path class="cls-2" d="M87.82,147.82a14.87,14.87,0,0,0-1,2.74,12.84,12.84,0,0,0-.45,3.3,5.59,5.59,0,0,0,.68,2.81,2.66,2.66,0,0,0,2.4,1.28,7.42,7.42,0,0,0,3.71-.83c1.17-.6,2.19-1.17,3-1.72,1-.7,1.93-1.39,2.81-2.06s1.66-1.34,2.36-2a40.67,40.67,0,0,0,3.71-3.23q1.77-1.73,3.49-3.52a1.9,1.9,0,0,0,.49-.6,6.33,6.33,0,0,1,.56-.83,3.46,3.46,0,0,1,.64-.63.57.57,0,0,1,.71,0c.35.15.43.45.23.9a5.23,5.23,0,0,1-.53,1,2.68,2.68,0,0,1-.45.83c-.2.25-.4.52-.6.82a55,55,0,0,1-3.94,4.13q-2.06,1.95-4.23,3.9a30.77,30.77,0,0,1-6.3,4.5,15.87,15.87,0,0,1-1.88.86,10.12,10.12,0,0,1-2.17.6,9.73,9.73,0,0,1-2.29.11,4.45,4.45,0,0,1-2.14-.67,3.82,3.82,0,0,1-.79-.71c-.22-.28-.46-.57-.71-.87a7.24,7.24,0,0,1-.94-3.18,14.37,14.37,0,0,1,.23-3.57,21.35,21.35,0,0,1,.94-3.45,22.37,22.37,0,0,1,1.2-2.77,31.26,31.26,0,0,1,3-4.43,8.76,8.76,0,0,1,4.57-2.85,3.66,3.66,0,0,1,2.51.68,2.56,2.56,0,0,1,.79,2.4,4.87,4.87,0,0,1-.9,2.25A14.76,14.76,0,0,1,95,144.82a17,17,0,0,1-3,2.37A6.12,6.12,0,0,1,87.82,147.82Zm7-8a7.74,7.74,0,0,0-4,2.74,27.35,27.35,0,0,0-2.55,4.16A4.66,4.66,0,0,0,91,146,20.64,20.64,0,0,0,93,144.37c.55-.6,1.13-1.2,1.73-1.8a3.23,3.23,0,0,0,.82-2.55A.84.84,0,0,0,94.79,139.8Z"/><path class="cls-2" d="M124,141a.53.53,0,0,1-.6-.6q-2.93,3.15-5.51,6.56t-5.06,7c.3.8.61,1.57.93,2.29a18.25,18.25,0,0,0,1.09,2.06l.64,1a12.16,12.16,0,0,0,.71,1,3.2,3.2,0,0,0,.86.79,2.05,2.05,0,0,0,1.09.3,1.17,1.17,0,0,0,1-.56,1.15,1.15,0,0,1,1.05-.57,1.22,1.22,0,0,1,.83.6,2.61,2.61,0,0,1-.9,1.84,7,7,0,0,1-1.8.94,5.53,5.53,0,0,1-2.82-.68,7.31,7.31,0,0,1-2-1.68,14.11,14.11,0,0,1-1.47-2.18c-.42-.77-.84-1.51-1.23-2.21q-2.92,4.5-6.19,9.34a53.68,53.68,0,0,0-5.44,10.31,5.11,5.11,0,0,0-.3.79c-.1.32-.21.65-.34,1a4,4,0,0,1-.41.83.63.63,0,0,1-.52.33q-.6-.08-.6-.6a3.81,3.81,0,0,1,.15-1.05,52.92,52.92,0,0,1,2.58-6.37q1.47-3,3.12-5.78c1.1-1.84,2.23-3.66,3.41-5.43s2.33-3.59,3.49-5.44c-.3-.75-.6-1.64-.9-2.66s-.57-2.1-.79-3.23-.4-2.25-.53-3.37a13.2,13.2,0,0,1,0-3.27,3.17,3.17,0,0,1,.6-1.5l.38-.15c.1,0,.22-.1.37-.15a1.15,1.15,0,0,1,1.24.42,2.61,2.61,0,0,1,.49,1.16.86.86,0,0,1,0,.45,1,1,0,0,0-.08.37,10.66,10.66,0,0,0,.11,2.29c.13.83.24,1.59.34,2.29s.24,1.49.41,2.21.34,1.36.49,1.91c1.3-1.75,2.76-3.73,4.39-6s3.23-4.24,4.84-6c.54-.6,1.2-1.24,2-1.95a5.5,5.5,0,0,1,2.17-1.35,1.08,1.08,0,0,1,.83,0,.84.84,0,0,1,.45.56,1.47,1.47,0,0,1-.34,1.28l-.79,1c-.25.4-.49.75-.71,1A5.15,5.15,0,0,1,124,141Z"/><path class="cls-2" d="M133.11,146a1,1,0,0,1-.86-.07,2.13,2.13,0,0,1-.56-.56,3.77,3.77,0,0,1-.38-.75,2.71,2.71,0,0,0-.37-.72,5.86,5.86,0,0,0-2.55,2.44,17.6,17.6,0,0,0-2.1,5.63,14.09,14.09,0,0,0-.26,2.32,7.69,7.69,0,0,0,.22,2.18,2.51,2.51,0,0,0,1.09,1.53,6.21,6.21,0,0,0,3.37-1.27,32.47,32.47,0,0,1,2.63-1.95q2.63-2,5.1-4t5-4.17c.4-.3.82-.62,1.24-1s.86-.68,1.31-1a2.94,2.94,0,0,1,.64-.45l.79-.45a7.78,7.78,0,0,0,.79-.37.49.49,0,0,1,.71.22c.15.4.09.68-.19.83a3.17,3.17,0,0,0-.71.52c-.7.5-1.36,1-2,1.54l-1.91,1.61c-1.85,1.55-3.69,3.22-5.51,5a61.7,61.7,0,0,1-5.82,5,22.94,22.94,0,0,1-2.85,1.84,4.72,4.72,0,0,1-3.67.26,3.8,3.8,0,0,1-1.91-2.14,10,10,0,0,1-.64-3.22,14.77,14.77,0,0,1,.3-3.6,19.38,19.38,0,0,1,1-3.34,14.12,14.12,0,0,1,4.13-5.93c.25-.1.45-.18.6-.26a2.66,2.66,0,0,1,.6-.19s.07,0,.07,0,0,0,.08,0h.67a2.46,2.46,0,0,1,.6.07,2.84,2.84,0,0,1,1.65,2.18,5.73,5.73,0,0,0,0,1.31A1.05,1.05,0,0,1,133.11,146Z"/><path class="cls-2" d="M150.59,122.68l.07-.06q1.13,0,1.35.81a5.58,5.58,0,0,1,.23,1.49A23,23,0,0,1,152,130q-.42,2.46-.72,4.83-.37,3.24-.75,6.57t-.67,6.69q-.45,5.91-1,11.79a92.33,92.33,0,0,0-.22,12.42,5.83,5.83,0,0,0,.07.87,6.67,6.67,0,0,1,.08,1,2.24,2.24,0,0,1-.15.84.58.58,0,0,1-.6.37,1,1,0,0,1-1.31-.74,8.4,8.4,0,0,1-.34-1.62,19.36,19.36,0,0,1-.19-1.93c0-.63-.06-1.18-.11-1.68,0-1.25,0-2.48,0-3.71s-.05-2.39,0-3.51q.07-9,.9-17.15t2.1-16.28l.45-3.18a10.89,10.89,0,0,0,.19-1.52,1.87,1.87,0,0,1,.63-1.34Z"/><path class="cls-2" d="M157,155.1a1.41,1.41,0,0,0,.64-.56l.48-.79q.83-1,1.62-2.25c.52-.8,1.06-1.55,1.61-2.25.35-.55.7-1.08,1.05-1.58a15.54,15.54,0,0,1,1.12-1.42,11,11,0,0,0,1.28-1.35,2,2,0,0,1,1.8-.68,1.89,1.89,0,0,1,1.31.64,4.49,4.49,0,0,1,.79,1.35,11.48,11.48,0,0,1,.49,1.76l.33,1.8c.1.5.23,1,.38,1.62s.32,1.13.52,1.68.43,1,.68,1.54a1.54,1.54,0,0,0,1.05.94,1.55,1.55,0,0,0,1.09-.11,7.47,7.47,0,0,0,1.08-.64,7.81,7.81,0,0,0,1-.83l.67-.67a14.81,14.81,0,0,0,1.5-1.58q.68-.83,1.5-1.65c.7-.85,1.42-1.68,2.14-2.51s1.44-1.69,2.14-2.59a5.47,5.47,0,0,0,.6-1,.72.72,0,1,1,1.24.64,7.2,7.2,0,0,1-.64,1c-.25.35-.5.69-.75,1s-.48.61-.68.86q-1.58,1.88-3.3,4a30.42,30.42,0,0,1-3.67,3.9A16.47,16.47,0,0,1,174,157a3.13,3.13,0,0,1-2.89,0A5.15,5.15,0,0,1,169.3,155a15,15,0,0,1-1-2.82c-.25-1-.49-2-.71-3.07a11.17,11.17,0,0,0-1-2.85,4.19,4.19,0,0,0-1.38,1.2c-.38.5-.77,1-1.17,1.57s-.76,1.09-1.08,1.62l-1,1.61c-.7,1.1-1.37,2.2-2,3.3a7.16,7.16,0,0,1-2.7,2.62,2.11,2.11,0,0,1-1.39-.15,3.15,3.15,0,0,1-.94-.75,10.08,10.08,0,0,1-.6-3.15,33.22,33.22,0,0,1,.08-3.71q.15-1.91.45-3.75c.2-1.22.4-2.36.6-3.41.05-.35.1-.74.15-1.16a7.18,7.18,0,0,1,.26-1.24,4.55,4.55,0,0,1,.45-1,1,1,0,0,1,.71-.49.85.85,0,0,1,.68.11,2,2,0,0,1,.37.41,4.12,4.12,0,0,1,.08,2.07,8.15,8.15,0,0,0-.15,2.21c-.25,1.7-.46,3.45-.64,5.25S157,153.1,157,155.1Z"/><path class="cls-2" d="M186.81,143.92a6.17,6.17,0,0,0-2.25,1.8,7.17,7.17,0,0,0-.93,1.2,2.41,2.41,0,0,0-.42,1.58A2.62,2.62,0,0,0,184,150c.45.43.85.81,1.2,1.16l1.16,1.17a9.87,9.87,0,0,1,1,1.16q1.88-1.35,3.57-2.81a32.53,32.53,0,0,1,3.63-2.74,27.08,27.08,0,0,1,2.82-1.88c1-.6,2.08-1.17,3.18-1.72l1-.53a1,1,0,0,1,1.13.08.78.78,0,0,1-.08.6.93.93,0,0,1-.45.34l-.6.22a.93.93,0,0,0-.45.34,20,20,0,0,0-3,1.69q-1.4.93-2.82,1.83-3.6,2.7-7,5.63a23.93,23.93,0,0,1,1.84,3.52,11.07,11.07,0,0,1,.78,4.28,12.42,12.42,0,0,1-.75,4.8A13.7,13.7,0,0,1,188,171a16.55,16.55,0,0,1-3.22,2.85,7.06,7.06,0,0,1-4.35,1.27,5.24,5.24,0,0,1-1.73-.37,6.52,6.52,0,0,1-1.27-.75,7.69,7.69,0,0,1-1.2-1.73,5.54,5.54,0,0,1-.53-2.17,8.26,8.26,0,0,1,1-4.8,25.66,25.66,0,0,1,2.47-3.75,30.32,30.32,0,0,1,3-3.26c1-1,2-1.89,3-2.74a9.28,9.28,0,0,0-1.2-1.39c-.45-.42-.9-.86-1.35-1.31a12.73,12.73,0,0,1-1.23-1.43,5.67,5.67,0,0,1-.87-1.65,3.87,3.87,0,0,1,0-3A12.22,12.22,0,0,1,182,144.3a18.3,18.3,0,0,1,1.47-1.46,6.49,6.49,0,0,1,1.68-1.09,7.52,7.52,0,0,1,1.13-.23,2.12,2.12,0,0,1,1.12.15,1.67,1.67,0,0,0,.42.42,1.22,1.22,0,0,1,.41.56,2.49,2.49,0,0,1,0,1.42c-.13.55-.32.83-.57.83s-.55-.05-.6-.3A1.67,1.67,0,0,0,186.81,143.92Zm-1,13c-.85.7-1.7,1.47-2.55,2.32a35.47,35.47,0,0,0-2.48,2.78c-.45.55-.91,1.16-1.38,1.84a10.44,10.44,0,0,0-1.2,2.21,10.71,10.71,0,0,0-.68,2.51,6.21,6.21,0,0,0,.26,2.74,5.24,5.24,0,0,0,1,1,2.2,2.2,0,0,0,1.42.41,5.17,5.17,0,0,0,3-1.16,12.85,12.85,0,0,0,2.36-2.36,10.34,10.34,0,0,0,1.47-2.85,13,13,0,0,0,.67-3.34,10.47,10.47,0,0,0-.3-3.34,7.89,7.89,0,0,0-1.39-2.92c0-.05,0-.08-.07-.08S185.84,156.85,185.84,156.9Zm-8,18.67c0,.05.05,0,.15-.07C178,175.55,178,175.57,177.89,175.57Z"/><path class="cls-2" d="M202,143.47a1.17,1.17,0,0,1,.27.83c0,.3,0,.62,0,1-.05.85-.06,1.78,0,2.78s0,2,0,2.92,0,1.88,0,2.78a3.21,3.21,0,0,1-.79,2.17h-.6a2.42,2.42,0,0,1-.56-1.16,12,12,0,0,1-.26-1.69c-.05-1.1-.06-2.25,0-3.45a33.68,33.68,0,0,1,.26-3.52c.05-.3.11-.65.15-1a3.84,3.84,0,0,1,.27-1.05,1.26,1.26,0,0,1,.52-.64A.87.87,0,0,1,202,143.47Zm.38-14.55a1.71,1.71,0,0,1-.6,1.2.81.81,0,0,1-.86-.15,1.14,1.14,0,0,1-.3-.71.91.91,0,0,1,.22-.71.93.93,0,0,1,.86-.23C202.06,128.52,202.29,128.72,202.34,128.92Z"/><path class="cls-2" d="M209,141.67a1.56,1.56,0,0,1,.57,1.39c0,.63,0,1.21,0,1.76v5.55a42.49,42.49,0,0,0,.3,5.25c.35-.85.71-1.72,1.09-2.62s.76-1.83,1.16-2.78.8-1.78,1.2-2.66a7.55,7.55,0,0,1,1.5-2.21,6.84,6.84,0,0,1,1.2-.68,2.51,2.51,0,0,1,1.5-.15,5.35,5.35,0,0,1,1.35.45l1.27.64a7.35,7.35,0,0,0,1.39.53,5.3,5.3,0,0,0,1.69.11,4.75,4.75,0,0,0,1.46-.45l1.31-.68a2.26,2.26,0,0,0,.9-.75,1.34,1.34,0,0,1,1-.52.77.77,0,0,1,.15.79,2.18,2.18,0,0,1-.48.75,5.48,5.48,0,0,1-.75.6,3.41,3.41,0,0,0-.64.48,6.07,6.07,0,0,1-3.11,1.17,8.29,8.29,0,0,1-3.57-.42,5.24,5.24,0,0,1-1.27-.52,2.1,2.1,0,0,0-1.28-.3,1.73,1.73,0,0,0-1.35,1.09c-.35.67-.65,1.26-.9,1.76s-.56,1.19-.78,1.76-.47,1.16-.72,1.76-.47,1.2-.67,1.8-.43,1.25-.68,2-.45,1.17-.75,1.84a1.75,1.75,0,0,1-1.27,1.16,1.4,1.4,0,0,1-1.73-.86,9.18,9.18,0,0,1-.6-2.21,29,29,0,0,1-.33-5c0-1.72.08-3.46.18-5.21q.07-.52.12-1.2a10.32,10.32,0,0,1,.15-1.35,9.93,9.93,0,0,1,.26-1.2,1.37,1.37,0,0,1,.45-.75c0-.1.15-.14.3-.11Z"/><path class="cls-2" d="M226.56,147.82a14.93,14.93,0,0,0-1,2.74,12.84,12.84,0,0,0-.45,3.3,5.59,5.59,0,0,0,.67,2.81,2.66,2.66,0,0,0,2.4,1.28,7.45,7.45,0,0,0,3.72-.83c1.17-.6,2.18-1.17,3-1.72,1-.7,1.94-1.39,2.82-2.06s1.66-1.34,2.36-2a40.67,40.67,0,0,0,3.71-3.23q1.77-1.73,3.49-3.52a1.9,1.9,0,0,0,.49-.6,6.33,6.33,0,0,1,.56-.83,3.46,3.46,0,0,1,.64-.63.57.57,0,0,1,.71,0c.35.15.42.45.22.9a5.32,5.32,0,0,1-.52,1,2.68,2.68,0,0,1-.45.83c-.2.25-.4.52-.6.82a55,55,0,0,1-3.94,4.13c-1.37,1.3-2.79,2.6-4.24,3.9a30.77,30.77,0,0,1-6.3,4.5,15.69,15.69,0,0,1-1.87.86,10.2,10.2,0,0,1-2.18.6,9.64,9.64,0,0,1-2.28.11,4.45,4.45,0,0,1-2.14-.67,3.82,3.82,0,0,1-.79-.71c-.22-.28-.46-.57-.71-.87a7.24,7.24,0,0,1-.94-3.18,14.37,14.37,0,0,1,.23-3.57,21.33,21.33,0,0,1,.93-3.45,22.37,22.37,0,0,1,1.2-2.77,31.26,31.26,0,0,1,3-4.43,8.79,8.79,0,0,1,4.58-2.85,3.66,3.66,0,0,1,2.51.68,2.56,2.56,0,0,1,.79,2.4,4.87,4.87,0,0,1-.9,2.25,14.81,14.81,0,0,1-1.58,1.87,16.92,16.92,0,0,1-3,2.37A6.15,6.15,0,0,1,226.56,147.82Zm7-8a7.77,7.77,0,0,0-4,2.74A27.35,27.35,0,0,0,227,146.7a4.69,4.69,0,0,0,2.78-.75,20.64,20.64,0,0,0,2-1.58c.55-.6,1.12-1.2,1.72-1.8a3.23,3.23,0,0,0,.83-2.55A.84.84,0,0,0,233.54,139.8Z"/><path class="cls-2" d="M250.34,122.68l.07-.06q1.13,0,1.35.81a5.58,5.58,0,0,1,.23,1.49,23,23,0,0,1-.26,5.07q-.42,2.46-.72,4.83-.37,3.24-.75,6.57t-.67,6.69q-.45,5.91-1,11.79a92.33,92.33,0,0,0-.22,12.42,5.83,5.83,0,0,0,.07.87,6.67,6.67,0,0,1,.08,1,2.24,2.24,0,0,1-.15.84.58.58,0,0,1-.6.37,1,1,0,0,1-1.31-.74,8.4,8.4,0,0,1-.34-1.62,19.36,19.36,0,0,1-.19-1.93c0-.63-.06-1.18-.11-1.68,0-1.25,0-2.48,0-3.71s-.05-2.39,0-3.51q.07-9,.9-17.15t2.1-16.28l.45-3.18a10.89,10.89,0,0,0,.19-1.52,1.87,1.87,0,0,1,.63-1.34Z"/><path class="cls-2" d="M269.84,159.22q2.85-3.08,5.59-6.48t5.51-6.79l1.8-2.25a3.39,3.39,0,0,0,.94-1.13,1,1,0,0,1,1.38-.45.64.64,0,0,1-.07.87,2.21,2.21,0,0,0-.53.63q-3.68,4.95-7.46,9.64t-7.76,9.41q-1.2,7-2.74,13.69a49.23,49.23,0,0,1-4.39,12.11c-.65,1.15-1.34,2.27-2.06,3.34a8.84,8.84,0,0,1-2.81,2.66,10.46,10.46,0,0,1-1.24.38,3.57,3.57,0,0,1-1.46,0,3.69,3.69,0,0,1-2.21-2.29,8.93,8.93,0,0,1-.45-3.56,19.58,19.58,0,0,1,.63-3.94,30.61,30.61,0,0,1,1.13-3.49,38.52,38.52,0,0,1,1.8-3.82l1.8-3.3a71.53,71.53,0,0,1,4.46-6.38c1.58-2,3.19-3.95,4.84-5.85.7-3.7,1.37-7.39,2-11.1s1.18-7.52,1.58-11.47a1.6,1.6,0,0,0-.71.71,8.18,8.18,0,0,1-.72,1,29.47,29.47,0,0,0-2.36,3.38c-.73,1.2-1.46,2.39-2.21,3.56s-1.54,2.31-2.36,3.41a19.06,19.06,0,0,1-2.82,3,1.67,1.67,0,0,0-.6.23,1.67,1.67,0,0,1-.6.22h-.82a2.68,2.68,0,0,1-1.8-1.31,7.22,7.22,0,0,1-.94-2.55,13.17,13.17,0,0,1-.15-3.11,17,17,0,0,1,.49-3.08,4.43,4.43,0,0,1,.56-1.42,1.14,1.14,0,0,1,1.16-.6.71.71,0,0,1,.72.52,3.86,3.86,0,0,1,.18,1.24,9.82,9.82,0,0,1-.11,1.5,10.84,10.84,0,0,0-.11,1.39c0,.9,0,1.8,0,2.7a4.62,4.62,0,0,0,.56,2.25,10,10,0,0,0,3.64-3.26q1.38-2.07,3-4a22.69,22.69,0,0,1,1.42-2c.5-.63,1-1.29,1.43-2a7.46,7.46,0,0,0,1.5-2,3.22,3.22,0,0,1,1.8-1.61c.45-.15.82.05,1.12.6a4.08,4.08,0,0,1,.42,2.44c-.08,1.07-.14,2-.19,2.88q-.37,3.9-.83,8.07C270.51,154.61,270.19,157.08,269.84,159.22Zm-11.93,18.6a40.54,40.54,0,0,0-2.25,4.88,21.76,21.76,0,0,0-1.35,5.85,13.62,13.62,0,0,0,0,2,2.08,2.08,0,0,0,1,1.65,5.45,5.45,0,0,0,2.4-2.06,29.2,29.2,0,0,0,1.65-2.89,49.88,49.88,0,0,0,3.75-10q1.43-5.43,2.62-10.91s0-.08-.07-.08q-2,2.63-4,5.48A59.51,59.51,0,0,0,257.91,177.82Z"/><path class="cls-1" d="M301,147.57h-4.32v8.83a4.69,4.69,0,0,0,.16,1.36,1.94,1.94,0,0,0,.44.82,1.72,1.72,0,0,0,.69.4,3.48,3.48,0,0,0,.88.11,4.45,4.45,0,0,0,1.12-.16,5.32,5.32,0,0,0,1.06-.42l.09,2a6.63,6.63,0,0,1-2.84.55,5.74,5.74,0,0,1-1.27-.16,3,3,0,0,1-1.2-.61,3.28,3.28,0,0,1-.89-1.22,4.76,4.76,0,0,1-.36-2v-9.44h-3.16v-1.92h3.16v-4.23h2.12v4.23H301Zm18,5.57a8.23,8.23,0,0,1-.59,3.13,7.46,7.46,0,0,1-1.65,2.5,7.61,7.61,0,0,1-2.51,1.65,8.55,8.55,0,0,1-3.22.59,8.45,8.45,0,0,1-3.18-.59,7.61,7.61,0,0,1-2.51-1.65,7.46,7.46,0,0,1-1.65-2.5,8.62,8.62,0,0,1,0-6.27,7.38,7.38,0,0,1,4.16-4.14,8.26,8.26,0,0,1,3.18-.6,8.36,8.36,0,0,1,3.22.6,7.38,7.38,0,0,1,4.16,4.14A8.28,8.28,0,0,1,319,153.14Zm-2.3,0a6.88,6.88,0,0,0-.4-2.34,5.72,5.72,0,0,0-1.14-1.89,5.38,5.38,0,0,0-1.77-1.26,6.14,6.14,0,0,0-4.71,0,5.24,5.24,0,0,0-1.76,1.26,5.85,5.85,0,0,0-1.12,1.89,7,7,0,0,0,0,4.67,5.74,5.74,0,0,0,1.12,1.89,5.24,5.24,0,0,0,1.76,1.26,6.14,6.14,0,0,0,4.71,0,5.38,5.38,0,0,0,1.77-1.26,5.62,5.62,0,0,0,1.14-1.89A6.83,6.83,0,0,0,316.72,153.14Zm15-16.71h2.11v11.71h.06a5.66,5.66,0,0,1,1.22-1.31,7.48,7.48,0,0,1,1.47-.89,6.88,6.88,0,0,1,1.59-.52,8.59,8.59,0,0,1,1.55-.16,8.34,8.34,0,0,1,3.21.6,7.48,7.48,0,0,1,2.52,1.64,7.59,7.59,0,0,1,1.64,2.5,8.49,8.49,0,0,1,0,6.27,7.36,7.36,0,0,1-4.16,4.15,8.51,8.51,0,0,1-4.76.43,7.37,7.37,0,0,1-1.59-.51,8.06,8.06,0,0,1-1.47-.9,5.66,5.66,0,0,1-1.22-1.31h-.06v2.49h-2.11Zm13.66,16.71a6.65,6.65,0,0,0-.4-2.34,5.53,5.53,0,0,0-1.13-1.89,5.43,5.43,0,0,0-1.78-1.26,5.7,5.7,0,0,0-2.35-.47,6,6,0,0,0-2.4.47,5.9,5.9,0,0,0-1.89,1.26,5.82,5.82,0,0,0-1.25,1.89,6.28,6.28,0,0,0,0,4.67,5.72,5.72,0,0,0,1.25,1.89,5.9,5.9,0,0,0,1.89,1.26,6,6,0,0,0,2.4.47,5.7,5.7,0,0,0,2.35-.47,5.31,5.31,0,0,0,2.91-3.15A6.59,6.59,0,0,0,345.42,153.14Zm21,0a8,8,0,0,1-.6,3.13,7.59,7.59,0,0,1-1.64,2.5,7.76,7.76,0,0,1-2.52,1.65,9,9,0,0,1-6.4,0,7.44,7.44,0,0,1-4.16-4.15,8.62,8.62,0,0,1,0-6.27,7.78,7.78,0,0,1,1.65-2.5,7.53,7.53,0,0,1,2.51-1.64,8.83,8.83,0,0,1,6.4,0,7.31,7.31,0,0,1,4.16,4.14A8.1,8.1,0,0,1,366.45,153.14Zm-2.31,0a6.65,6.65,0,0,0-.4-2.34,5.53,5.53,0,0,0-1.13-1.89,5.43,5.43,0,0,0-1.78-1.26,6.11,6.11,0,0,0-4.7,0,5.14,5.14,0,0,0-1.76,1.26,5.67,5.67,0,0,0-1.12,1.89,7,7,0,0,0,0,4.67,5.58,5.58,0,0,0,1.12,1.89,5.14,5.14,0,0,0,1.76,1.26,6.11,6.11,0,0,0,4.7,0,5.31,5.31,0,0,0,2.91-3.15A6.59,6.59,0,0,0,364.14,153.14Zm15.75-1.7v-.38q0-3.88-3.84-3.88a6.64,6.64,0,0,0-4.58,1.76l-1.28-1.5q2.12-2.17,6.34-2.18a7,7,0,0,1,2.09.32,4.84,4.84,0,0,1,1.75,1,4.9,4.9,0,0,1,1.18,1.65,5.69,5.69,0,0,1,.45,2.37v6.68c0,.58,0,1.18.08,1.81s.11,1.15.17,1.55h-2a9.72,9.72,0,0,1-.15-1.18c0-.43-.05-.84-.05-1.25H380a5.79,5.79,0,0,1-2.19,2.16,6.6,6.6,0,0,1-3.09.66,6.85,6.85,0,0,1-1.92-.27,5,5,0,0,1-1.65-.84,4.23,4.23,0,0,1-1.15-1.37,4,4,0,0,1-.43-1.91,4.09,4.09,0,0,1,.94-2.86,5.8,5.8,0,0,1,2.37-1.55,11.49,11.49,0,0,1,3-.64c1.08-.09,2.06-.13,3-.13Zm-1.09,1.73c-.54,0-1.2,0-2,.08a11.61,11.61,0,0,0-2.31.38,5,5,0,0,0-1.88,1,2.12,2.12,0,0,0-.79,1.76,2.4,2.4,0,0,0,.31,1.26,2.47,2.47,0,0,0,.81.86,3.22,3.22,0,0,0,1.14.48,5.36,5.36,0,0,0,1.26.15,4.73,4.73,0,0,0,2-.39,4.06,4.06,0,0,0,1.43-1,4.15,4.15,0,0,0,.84-1.53,6,6,0,0,0,.28-1.87v-1.09Zm8.32-2.85c0-.66,0-1.33-.05-2s-.06-1.56-.08-2.65h2.08v2.78h.06a5.18,5.18,0,0,1,.64-1.17,5,5,0,0,1,2.39-1.72,5.14,5.14,0,0,1,1.77-.28,5.65,5.65,0,0,1,1.57.2l-.41,2.08a3.52,3.52,0,0,0-1.22-.16,4.35,4.35,0,0,0-2.08.46,4.52,4.52,0,0,0-1.44,1.18,5,5,0,0,0-.85,1.56,5.12,5.12,0,0,0-.27,1.6v8.44h-2.11Zm24.76,10.3h-2.11v-2.49h-.06a5.45,5.45,0,0,1-1.22,1.31,8.06,8.06,0,0,1-1.47.9,7.47,7.47,0,0,1-1.58.51,8.79,8.79,0,0,1-1.56.16,8.53,8.53,0,0,1-3.21-.59,7.61,7.61,0,0,1-2.51-1.65,7.46,7.46,0,0,1-1.65-2.5,8.62,8.62,0,0,1,0-6.27,7.38,7.38,0,0,1,4.16-4.14,8.34,8.34,0,0,1,3.21-.6,8.79,8.79,0,0,1,1.56.16,7,7,0,0,1,1.58.52,7.48,7.48,0,0,1,1.47.89,5.45,5.45,0,0,1,1.22,1.31h.06V136.43h2.11Zm-13.66-7.48a6.59,6.59,0,0,0,.4,2.33,5.46,5.46,0,0,0,1.14,1.89,5.38,5.38,0,0,0,1.77,1.26,5.7,5.7,0,0,0,2.35.47,6.1,6.1,0,0,0,2.39-.47,6,6,0,0,0,1.9-1.26,5.72,5.72,0,0,0,1.25-1.89,6.28,6.28,0,0,0,0-4.67,5.82,5.82,0,0,0-1.25-1.89,6,6,0,0,0-1.9-1.26,6.1,6.1,0,0,0-2.39-.47,5.7,5.7,0,0,0-2.35.47,5.38,5.38,0,0,0-1.77,1.26,5.56,5.56,0,0,0-1.14,1.89A6.65,6.65,0,0,0,398.22,153.14Zm25.41.86H415.4v-2.11h8.23Zm14.43-4.83a4.41,4.41,0,0,0-1.52-1.41,4.33,4.33,0,0,0-2.23-.58,5.57,5.57,0,0,0-2.35.42,5.08,5.08,0,0,0-1.77,1.25,5.32,5.32,0,0,0-1.12,1.9,7.49,7.49,0,0,0,0,4.77,5.23,5.23,0,0,0,1.12,1.9,5.08,5.08,0,0,0,1.77,1.25,5.57,5.57,0,0,0,2.35.42,4.24,4.24,0,0,0,2.23-.58,4.41,4.41,0,0,0,1.52-1.41l1.73,1.32a7.1,7.1,0,0,1-2.53,1.93,7.51,7.51,0,0,1-2.95.66,8.46,8.46,0,0,1-3.29-.56,7.41,7.41,0,0,1-2.51-1.65,7,7,0,0,1-1.59-2.51,9.49,9.49,0,0,1,0-6.31,7.12,7.12,0,0,1,1.59-2.51,7.41,7.41,0,0,1,2.51-1.65,8.46,8.46,0,0,1,3.29-.56,7.69,7.69,0,0,1,2.95.66,7.13,7.13,0,0,1,2.53,1.94Zm6,4.54a6.51,6.51,0,0,0,.55,2.11,5.54,5.54,0,0,0,1.18,1.72,5.61,5.61,0,0,0,1.7,1.13,5.12,5.12,0,0,0,2.08.42,5.25,5.25,0,0,0,2.92-.79,5.82,5.82,0,0,0,1.88-1.8l1.63,1.34a8.12,8.12,0,0,1-3,2.43,8.31,8.31,0,0,1-3.47.74,8.06,8.06,0,0,1-3.09-.59,7.35,7.35,0,0,1-2.45-1.65,8,8,0,0,1-1.62-2.5,8.69,8.69,0,0,1,0-6.27,7.65,7.65,0,0,1,1.6-2.5,7.27,7.27,0,0,1,2.4-1.64,7.77,7.77,0,0,1,6,0,6.65,6.65,0,0,1,3.65,4,8.59,8.59,0,0,1,.48,2.89v1ZM454.22,152a4.5,4.5,0,0,0-4.87-4.8,5.23,5.23,0,0,0-2,.4,5.63,5.63,0,0,0-1.68,1.08,5.35,5.35,0,0,0-1.15,1.53,4,4,0,0,0-.43,1.79Zm6.37-1.66c0-.66,0-1.33,0-2s-.06-1.56-.08-2.65h2.08v2.78h.06a5.18,5.18,0,0,1,.64-1.17,5,5,0,0,1,1-1,4.88,4.88,0,0,1,1.38-.72,5.14,5.14,0,0,1,1.77-.28,5.65,5.65,0,0,1,1.57.2l-.42,2.08a3.42,3.42,0,0,0-1.21-.16,4.32,4.32,0,0,0-2.08.46,4.52,4.52,0,0,0-1.44,1.18,4.77,4.77,0,0,0-.85,1.56,5.12,5.12,0,0,0-.27,1.6v8.44h-2.11Zm18.14-2.75h-4.32v8.83a4.69,4.69,0,0,0,.16,1.36,2.07,2.07,0,0,0,.45.82,1.59,1.59,0,0,0,.69.4,3.42,3.42,0,0,0,.88.11,4.52,4.52,0,0,0,1.12-.16,5.48,5.48,0,0,0,1.05-.42l.1,2A6.68,6.68,0,0,1,476,161a5.65,5.65,0,0,1-1.26-.16,3,3,0,0,1-1.2-.61,3.29,3.29,0,0,1-.9-1.22,4.93,4.93,0,0,1-.35-2v-9.44h-3.17v-1.92h3.17v-4.23h2.11v4.23h4.32Zm5.95-7.68a1.41,1.41,0,0,1-.48,1.1,1.51,1.51,0,0,1-2.11,0,1.41,1.41,0,0,1-.48-1.1,1.43,1.43,0,0,1,.48-1.11,1.51,1.51,0,0,1,2.11,0A1.43,1.43,0,0,1,484.68,139.89Zm-.48,20.73h-2.11v-15h2.11Zm12.07-13.05h-3.56v13.05H490.6V147.57h-3.17v-1.92h3.17v-4.1c0-2,.46-3.4,1.38-4.24a5.19,5.19,0,0,1,3.65-1.26,7.07,7.07,0,0,1,.91.06c.31,0,.61.1.91.16l-.38,1.92c-.26-.06-.53-.12-.8-.16a5.93,5.93,0,0,0-.84-.06,2.88,2.88,0,0,0-1.4.29,2,2,0,0,0-.84.81,3.48,3.48,0,0,0-.38,1.23,11.84,11.84,0,0,0-.1,1.51v3.84h3.56Zm5.6-7.68a1.41,1.41,0,0,1-.48,1.1,1.52,1.52,0,0,1-2.12,0,1.41,1.41,0,0,1-.48-1.1,1.43,1.43,0,0,1,.48-1.11,1.52,1.52,0,0,1,2.12,0A1.43,1.43,0,0,1,501.87,139.89Zm-.48,20.73h-2.12v-15h2.12Zm6.56-6.91a6.25,6.25,0,0,0,.54,2.11,5.54,5.54,0,0,0,1.18,1.72,5.74,5.74,0,0,0,1.7,1.13,5.12,5.12,0,0,0,2.08.42,5.28,5.28,0,0,0,2.93-.79,5.88,5.88,0,0,0,1.87-1.8l1.63,1.34a8,8,0,0,1-3,2.43,8.25,8.25,0,0,1-3.47.74,8.06,8.06,0,0,1-3.09-.59,7.45,7.45,0,0,1-2.45-1.65,7.84,7.84,0,0,1-1.61-2.5,8,8,0,0,1-.59-3.13,8.47,8.47,0,0,1,.57-3.14,7.82,7.82,0,0,1,1.6-2.5,7.48,7.48,0,0,1,2.4-1.64,7.79,7.79,0,0,1,6,0,6.73,6.73,0,0,1,3.65,4,8.59,8.59,0,0,1,.48,2.89v1ZM518.12,152a4.5,4.5,0,0,0-4.86-4.8,5.28,5.28,0,0,0-2,.4,5.63,5.63,0,0,0-1.68,1.08,5.35,5.35,0,0,0-1.15,1.53A4,4,0,0,0,508,152Zm21.09,8.64H537.1v-2.49H537a5.41,5.41,0,0,1-1.21,1.31,8.06,8.06,0,0,1-1.47.9,7.55,7.55,0,0,1-1.59.51,8.54,8.54,0,0,1-4.77-.43,7.44,7.44,0,0,1-4.16-4.15,8.62,8.62,0,0,1,0-6.27,7.78,7.78,0,0,1,1.65-2.5,7.53,7.53,0,0,1,2.51-1.64,8.43,8.43,0,0,1,3.22-.6,8.59,8.59,0,0,1,1.55.16,7,7,0,0,1,1.59.52,7.48,7.48,0,0,1,1.47.89,5.41,5.41,0,0,1,1.21,1.31h.07V136.43h2.11Zm-13.66-7.48a6.59,6.59,0,0,0,.4,2.33,5.31,5.31,0,0,0,2.91,3.15,5.7,5.7,0,0,0,2.35.47,6.05,6.05,0,0,0,2.38-.47,5.89,5.89,0,0,0,1.91-1.26,5.72,5.72,0,0,0,1.25-1.89,6.42,6.42,0,0,0,0-4.67,5.82,5.82,0,0,0-1.25-1.89,5.89,5.89,0,0,0-1.91-1.26,6.05,6.05,0,0,0-2.38-.47,5.7,5.7,0,0,0-2.35.47,5.43,5.43,0,0,0-1.78,1.26A5.53,5.53,0,0,0,526,150.8,6.65,6.65,0,0,0,525.55,153.14Zm27.16-7.49h2.12v2.49h.06a5.45,5.45,0,0,1,1.22-1.31,7.48,7.48,0,0,1,1.47-.89,7,7,0,0,1,1.58-.52,8.68,8.68,0,0,1,1.55-.16,8.36,8.36,0,0,1,3.22.6,7.38,7.38,0,0,1,4.16,4.14,8.62,8.62,0,0,1,0,6.27,7.46,7.46,0,0,1-1.65,2.5,7.61,7.61,0,0,1-2.51,1.65,8.55,8.55,0,0,1-3.22.59,8.68,8.68,0,0,1-1.55-.16,7.47,7.47,0,0,1-1.58-.51,8.06,8.06,0,0,1-1.47-.9,5.45,5.45,0,0,1-1.22-1.31h-.06v11.71h-2.12Zm13.67,7.49a6.65,6.65,0,0,0-.4-2.34,5.72,5.72,0,0,0-1.14-1.89,5.38,5.38,0,0,0-1.77-1.26,5.75,5.75,0,0,0-2.36-.47,6.08,6.08,0,0,0-2.4.47,6,6,0,0,0-1.88,1.26,5.67,5.67,0,0,0-1.25,1.89,6.28,6.28,0,0,0,0,4.67,5.57,5.57,0,0,0,1.25,1.89,6,6,0,0,0,1.88,1.26,6.08,6.08,0,0,0,2.4.47,5.75,5.75,0,0,0,2.36-.47,5.38,5.38,0,0,0,1.77-1.26,5.62,5.62,0,0,0,1.14-1.89A6.59,6.59,0,0,0,566.38,153.14Zm8.48,7.48h-2.11V136.43h2.11Zm14.69-9.18v-.38q0-3.88-3.84-3.88a6.64,6.64,0,0,0-4.58,1.76l-1.28-1.5q2.11-2.17,6.34-2.18a7,7,0,0,1,2.09.32,4.84,4.84,0,0,1,1.75,1,4.9,4.9,0,0,1,1.18,1.65,5.69,5.69,0,0,1,.45,2.37v6.68c0,.58,0,1.18.08,1.81s.11,1.15.17,1.55h-2a9.72,9.72,0,0,1-.15-1.18c0-.43-.05-.84-.05-1.25h-.06a5.79,5.79,0,0,1-2.19,2.16,6.6,6.6,0,0,1-3.09.66,6.85,6.85,0,0,1-1.92-.27,5,5,0,0,1-1.65-.84,4.23,4.23,0,0,1-1.15-1.37,4,4,0,0,1-.43-1.91,4.09,4.09,0,0,1,.94-2.86,5.8,5.8,0,0,1,2.37-1.55,11.49,11.49,0,0,1,3-.64c1.08-.09,2.06-.13,3-.13Zm-1.09,1.73c-.53,0-1.2,0-2,.08a11.61,11.61,0,0,0-2.31.38,5,5,0,0,0-1.88,1,2.12,2.12,0,0,0-.79,1.76,2.4,2.4,0,0,0,.31,1.26,2.47,2.47,0,0,0,.81.86,3.22,3.22,0,0,0,1.14.48,5.36,5.36,0,0,0,1.26.15,4.73,4.73,0,0,0,2-.39,4.06,4.06,0,0,0,1.43-1,4.15,4.15,0,0,0,.84-1.53,6,6,0,0,0,.28-1.87v-1.09Zm16-4a3.91,3.91,0,0,0-1.28-1.47,3.39,3.39,0,0,0-2-.55,5.41,5.41,0,0,0-1.11.13,3.55,3.55,0,0,0-1,.4,2.16,2.16,0,0,0-.72.69,1.77,1.77,0,0,0-.28,1,1.7,1.7,0,0,0,.74,1.54,7.16,7.16,0,0,0,2.21.83l2.14.51a5.08,5.08,0,0,1,2.61,1.43,3.68,3.68,0,0,1,1,2.67,4.24,4.24,0,0,1-.5,2.1,4.3,4.3,0,0,1-1.31,1.44,5.64,5.64,0,0,1-1.87.81,9.08,9.08,0,0,1-2.14.26,7.83,7.83,0,0,1-3.22-.66,6,6,0,0,1-2.54-2.25l1.82-1.25a5.15,5.15,0,0,0,1.62,1.63,4.25,4.25,0,0,0,2.32.61,5.66,5.66,0,0,0,1.28-.15,3.65,3.65,0,0,0,1.13-.44,2.52,2.52,0,0,0,.8-.79,2.07,2.07,0,0,0,.31-1.12,1.73,1.73,0,0,0-.84-1.61,7.14,7.14,0,0,0-2-.79l-2-.48c-.26-.06-.6-.17-1-.32a4.92,4.92,0,0,1-1.28-.67,4,4,0,0,1-1.07-1.17,3.28,3.28,0,0,1-.45-1.77,4.33,4.33,0,0,1,.46-2,4,4,0,0,1,1.25-1.41,5.79,5.79,0,0,1,1.78-.81,7.35,7.35,0,0,1,2-.28,7.09,7.09,0,0,1,2.91.61,4.33,4.33,0,0,1,2.08,2.08Zm13.44-1.63h-4.32v8.83a4.69,4.69,0,0,0,.16,1.36,2.07,2.07,0,0,0,.45.82,1.59,1.59,0,0,0,.69.4,3.42,3.42,0,0,0,.88.11,4.52,4.52,0,0,0,1.12-.16,5.48,5.48,0,0,0,1.05-.42l.1,2a6.68,6.68,0,0,1-2.85.55,5.58,5.58,0,0,1-1.26-.16,3,3,0,0,1-1.2-.61,3.19,3.19,0,0,1-.9-1.22,4.93,4.93,0,0,1-.35-2v-9.44h-3.17v-1.92h3.17v-4.23h2.11v4.23h4.32Zm6-7.68a1.41,1.41,0,0,1-.48,1.1,1.51,1.51,0,0,1-2.11,0,1.41,1.41,0,0,1-.48-1.1,1.43,1.43,0,0,1,.48-1.11,1.51,1.51,0,0,1,2.11,0A1.43,1.43,0,0,1,623.88,139.89Zm-.48,20.73h-2.11v-15h2.11Zm16-11.45a4.41,4.41,0,0,0-1.52-1.41,4.32,4.32,0,0,0-2.22-.58,5.51,5.51,0,0,0-2.35.42,5,5,0,0,0-1.78,1.25,5.46,5.46,0,0,0-1.12,1.9,7.67,7.67,0,0,0,0,4.77,5.37,5.37,0,0,0,1.12,1.9,5,5,0,0,0,1.78,1.25,5.51,5.51,0,0,0,2.35.42,4.23,4.23,0,0,0,2.22-.58,4.41,4.41,0,0,0,1.52-1.41l1.73,1.32a7.1,7.1,0,0,1-2.53,1.93,7.5,7.5,0,0,1-2.94.66,8.48,8.48,0,0,1-3.3-.56,7.41,7.41,0,0,1-2.51-1.65,7,7,0,0,1-1.58-2.51,9.32,9.32,0,0,1,0-6.31,7.1,7.1,0,0,1,1.58-2.51,7.41,7.41,0,0,1,2.51-1.65,8.48,8.48,0,0,1,3.3-.56,7.68,7.68,0,0,1,2.94.66,7.13,7.13,0,0,1,2.53,1.94Zm21.35,0a3.91,3.91,0,0,0-1.28-1.47,3.45,3.45,0,0,0-2-.55,5.24,5.24,0,0,0-1.1.13,3.61,3.61,0,0,0-1,.4,2.16,2.16,0,0,0-.72.69,1.85,1.85,0,0,0-.27,1,1.7,1.7,0,0,0,.74,1.54,7.08,7.08,0,0,0,2.2.83l2.15.51a5.16,5.16,0,0,1,2.61,1.43,3.68,3.68,0,0,1,1,2.67,4.24,4.24,0,0,1-.5,2.1,4.41,4.41,0,0,1-1.31,1.44,5.74,5.74,0,0,1-1.87.81,9.17,9.17,0,0,1-2.15.26,7.81,7.81,0,0,1-3.21-.66,6,6,0,0,1-2.55-2.25l1.83-1.25a5,5,0,0,0,1.61,1.63,4.27,4.27,0,0,0,2.32.61,5.53,5.53,0,0,0,1.28-.15,3.61,3.61,0,0,0,1.14-.44,2.52,2.52,0,0,0,.8-.79,2.06,2.06,0,0,0,.3-1.12A1.74,1.74,0,0,0,660,155a7.22,7.22,0,0,0-2-.79l-2-.48a10.78,10.78,0,0,1-1-.32,4.76,4.76,0,0,1-1.28-.67,4.06,4.06,0,0,1-1.08-1.17,3.37,3.37,0,0,1-.44-1.77,4.21,4.21,0,0,1,.46-2,4,4,0,0,1,1.25-1.41,5.73,5.73,0,0,1,1.77-.81,7.46,7.46,0,0,1,2-.28,7,7,0,0,1,2.91.61,4.29,4.29,0,0,1,2.08,2.08Zm16.51,11.42c0-.4-.07-.8-.08-1.2s0-.79,0-1.2h-.06a5,5,0,0,1-.9,1.12,5.51,5.51,0,0,1-1.21.88,6.6,6.6,0,0,1-1.43.58,5.52,5.52,0,0,1-1.49.21,5.47,5.47,0,0,1-4.25-1.52,6.25,6.25,0,0,1-1.38-4.34v-9.5h2.11v8.29a11.08,11.08,0,0,0,.2,2.2,4.09,4.09,0,0,0,.65,1.62,2.85,2.85,0,0,0,1.25,1,4.9,4.9,0,0,0,2,.34,7.34,7.34,0,0,0,.89-.13,4.08,4.08,0,0,0,1.56-.7,5.09,5.09,0,0,0,1.45-1.73,6.62,6.62,0,0,0,.64-3.2v-7.68h2.11v11.68c0,.4,0,.92.05,1.53s.07,1.21.11,1.76Zm7.2-10.3c0-.66,0-1.33-.05-2s-.06-1.56-.08-2.65h2.08v2.78h.06a5.18,5.18,0,0,1,.64-1.17,5,5,0,0,1,2.39-1.72,5.14,5.14,0,0,1,1.77-.28,5.65,5.65,0,0,1,1.57.2l-.41,2.08a3.52,3.52,0,0,0-1.22-.16,4.35,4.35,0,0,0-2.08.46,4.52,4.52,0,0,0-1.44,1.18,5,5,0,0,0-.85,1.56,5.12,5.12,0,0,0-.27,1.6v8.44h-2.11Zm11,13.31a6.79,6.79,0,0,0,2.42,2,7.23,7.23,0,0,0,3.31.75,7.1,7.1,0,0,0,2.72-.46,4.74,4.74,0,0,0,1.81-1.26,4.85,4.85,0,0,0,1-1.88,8.38,8.38,0,0,0,.3-2.28v-2.69h-.06a5.74,5.74,0,0,1-2.5,2.17,7.62,7.62,0,0,1-3.1.64,8.16,8.16,0,0,1-3.06-.57,7.81,7.81,0,0,1-2.48-1.59,7.21,7.21,0,0,1-1.66-2.41,7.51,7.51,0,0,1-.61-3,8,8,0,0,1,2.16-5.51,7.07,7.07,0,0,1,2.4-1.64,7.66,7.66,0,0,1,3.06-.6,9,9,0,0,1,1.42.13,7.4,7.4,0,0,1,1.51.45,7,7,0,0,1,1.48.88,7.19,7.19,0,0,1,1.38,1.42H707v-2.49h2.12V160.5a12.24,12.24,0,0,1-.31,2.59,6.51,6.51,0,0,1-1.18,2.53,7,7,0,0,1-2.45,1.92,9.41,9.41,0,0,1-4.1.76,10.33,10.33,0,0,1-4-.73,9.36,9.36,0,0,1-3.2-2.27Zm.39-10.69a5.75,5.75,0,0,0,.43,2.23,5.89,5.89,0,0,0,1.18,1.82,5.81,5.81,0,0,0,1.76,1.25,5.15,5.15,0,0,0,2.19.46,5.85,5.85,0,0,0,2.2-.41,6,6,0,0,0,1.84-1.17,5.1,5.1,0,0,0,1.23-1.81,5.79,5.79,0,0,0,.4-2.37,6.24,6.24,0,0,0-.39-2.22,5.31,5.31,0,0,0-2.91-3.07,5.79,5.79,0,0,0-2.37-.47,5.15,5.15,0,0,0-2.19.47,5.64,5.64,0,0,0-1.76,1.25,5.89,5.89,0,0,0-1.18,1.82A5.67,5.67,0,0,0,695.82,152.94Zm19.48.77a6.51,6.51,0,0,0,.55,2.11,5.54,5.54,0,0,0,1.18,1.72,5.61,5.61,0,0,0,1.7,1.13,5.12,5.12,0,0,0,2.08.42,5.25,5.25,0,0,0,2.92-.79,5.82,5.82,0,0,0,1.88-1.8l1.63,1.34a8.12,8.12,0,0,1-3,2.43,8.31,8.31,0,0,1-3.47.74,8.06,8.06,0,0,1-3.09-.59,7.35,7.35,0,0,1-2.45-1.65,8,8,0,0,1-1.62-2.5,8.69,8.69,0,0,1,0-6.27,7.65,7.65,0,0,1,1.6-2.5,7.27,7.27,0,0,1,2.4-1.64,7.77,7.77,0,0,1,6,0,6.65,6.65,0,0,1,3.65,4,8.59,8.59,0,0,1,.48,2.89v1ZM725.48,152a4.5,4.5,0,0,0-4.87-4.8,5.23,5.23,0,0,0-2,.4,5.63,5.63,0,0,0-1.68,1.08,5.35,5.35,0,0,0-1.15,1.53,4,4,0,0,0-.43,1.79Zm21.28,1.16a8.23,8.23,0,0,1-.59,3.13,7.44,7.44,0,0,1-4.16,4.15,8.58,8.58,0,0,1-3.22.59,8.45,8.45,0,0,1-3.18-.59,7.76,7.76,0,0,1-2.52-1.65,7.59,7.59,0,0,1-1.64-2.5,8.49,8.49,0,0,1,0-6.27,7.31,7.31,0,0,1,4.16-4.14,8.26,8.26,0,0,1,3.18-.6,8.39,8.39,0,0,1,3.22.6,7.53,7.53,0,0,1,2.51,1.64,7.78,7.78,0,0,1,1.65,2.5A8.28,8.28,0,0,1,746.76,153.14Zm-2.31,0a6.65,6.65,0,0,0-.4-2.34,5.53,5.53,0,0,0-1.13-1.89,5.32,5.32,0,0,0-1.78-1.26,6.11,6.11,0,0,0-4.7,0,5.24,5.24,0,0,0-1.76,1.26,5.85,5.85,0,0,0-1.12,1.89,7,7,0,0,0,0,4.67,5.74,5.74,0,0,0,1.12,1.89,5.24,5.24,0,0,0,1.76,1.26,6.11,6.11,0,0,0,4.7,0,5.32,5.32,0,0,0,1.78-1.26,5.44,5.44,0,0,0,1.13-1.89A6.59,6.59,0,0,0,744.45,153.14Zm8.16-7.49c0,.4.07.8.08,1.2s0,.79,0,1.2h.06a5,5,0,0,1,.9-1.12,5.66,5.66,0,0,1,1.22-.88,6.32,6.32,0,0,1,1.42-.58,5.52,5.52,0,0,1,1.49-.21,5.45,5.45,0,0,1,4.25,1.52,6.25,6.25,0,0,1,1.38,4.34v9.5h-2.11v-8.28a7,7,0,0,0-.87-3.83,3.53,3.53,0,0,0-3.2-1.33c-.1,0-.4,0-.89.13a3.87,3.87,0,0,0-1.55.71,5.07,5.07,0,0,0-1.46,1.72,6.62,6.62,0,0,0-.64,3.2v7.68H750.6V148.94c0-.4,0-.91-.05-1.53s-.07-1.21-.11-1.76Zm23.72,3.55a3.91,3.91,0,0,0-1.28-1.47,3.45,3.45,0,0,0-2-.55,5.24,5.24,0,0,0-1.1.13,3.61,3.61,0,0,0-1,.4,2.16,2.16,0,0,0-.72.69,1.85,1.85,0,0,0-.27,1,1.7,1.7,0,0,0,.74,1.54,7.08,7.08,0,0,0,2.2.83l2.15.51a5.16,5.16,0,0,1,2.61,1.43,3.68,3.68,0,0,1,1,2.67,4.24,4.24,0,0,1-.5,2.1,4.41,4.41,0,0,1-1.31,1.44,5.74,5.74,0,0,1-1.87.81,9.17,9.17,0,0,1-2.15.26,7.81,7.81,0,0,1-3.21-.66,6,6,0,0,1-2.55-2.25l1.83-1.25a5,5,0,0,0,1.61,1.63,4.27,4.27,0,0,0,2.32.61,5.53,5.53,0,0,0,1.28-.15,3.61,3.61,0,0,0,1.14-.44,2.52,2.52,0,0,0,.8-.79,2.06,2.06,0,0,0,.3-1.12,1.72,1.72,0,0,0-.83-1.61,7.22,7.22,0,0,0-2-.79l-2-.48a10.78,10.78,0,0,1-1-.32,4.76,4.76,0,0,1-1.28-.67,4.06,4.06,0,0,1-1.08-1.17,3.37,3.37,0,0,1-.44-1.77,4.21,4.21,0,0,1,.46-2,4,4,0,0,1,1.25-1.41,5.73,5.73,0,0,1,1.77-.81,7.46,7.46,0,0,1,2.05-.28,7,7,0,0,1,2.91.61,4.29,4.29,0,0,1,2.08,2.08Z"/><path class="cls-1" d="M53.7,57.19a6.88,6.88,0,0,1-1.13,1.54c-.43.43-.87.83-1.3,1.21a4.38,4.38,0,0,1-.89.81,19,19,0,0,1-7.29,3.48,38,38,0,0,1-10.61,1.3H0V65a32.24,32.24,0,0,0,4.66-.28,6.33,6.33,0,0,0,3-1.18,4.82,4.82,0,0,0,1.61-2.43,13.89,13.89,0,0,0,.49-4.13V10.29a5.19,5.19,0,0,1-.08-1.06,15.89,15.89,0,0,0-.36-3.72A5.43,5.43,0,0,0,8.18,3.16,4.69,4.69,0,0,0,6,1.86a17.16,17.16,0,0,0-3.4-.56H0V.65H30.78a36.9,36.9,0,0,1,5,.32,29.34,29.34,0,0,1,4.42,1,17.37,17.37,0,0,1,6.48,3.57Q51.6,9.8,51.6,17.09a14.47,14.47,0,0,1-4.94,11.5,20.94,20.94,0,0,1-3,2,17,17,0,0,1-3.52,1.46,13.9,13.9,0,0,1-1.87.52l-1.94.45a27.19,27.19,0,0,1,3.52.36c1.11.19,2.18.42,3.2.69a20,20,0,0,1,7.29,3.48A14,14,0,0,1,56,49.17,14.65,14.65,0,0,1,53.7,57.19ZM18.47,32.81H30.13a11.87,11.87,0,0,0,6.89-2,12.38,12.38,0,0,0,1.78-1.62,14.11,14.11,0,0,0,1.7-2.35,20.74,20.74,0,0,0,2.11-9.8q0-7-3-11.26Q36.45,1.3,30.13,1.3H25q-3.64.31-5.06,2T18.47,9.15V32.81ZM42.52,60.35q3.4-4.14,3.41-11.18,0-6.89-3.41-11.18-3.63-4.62-10.69-4.62H18.47V57a16.09,16.09,0,0,0,.36,3.69,5.16,5.16,0,0,0,1.22,2.39,5.24,5.24,0,0,0,2.27,1.34,13.48,13.48,0,0,0,3.44.52h6.07Q39,65,42.52,60.35Z"/><path class="cls-1" d="M61.15,32.72A34.8,34.8,0,0,1,63.42,20,31.25,31.25,0,0,1,69.5,9.56a27,27,0,0,1,8.91-7A25.22,25.22,0,0,1,89.5,0h4.7a25.12,25.12,0,0,1,11,2.59,27,27,0,0,1,9.07,7A35,35,0,0,1,120.45,20a36.94,36.94,0,0,1,2.18,12.71,36.55,36.55,0,0,1-2.18,12.72,34.9,34.9,0,0,1-6.16,10.45,26.87,26.87,0,0,1-9.07,7,25.12,25.12,0,0,1-11,2.59H89.5a25.22,25.22,0,0,1-11.09-2.59,27,27,0,0,1-8.91-7,31.25,31.25,0,0,1-6.08-10.45A34.86,34.86,0,0,1,61.15,32.72Zm8.83,0a49.62,49.62,0,0,0,1.5,12.4A34.14,34.14,0,0,0,76,55.49a17.27,17.27,0,0,0,1.25,1.86A17.49,17.49,0,0,0,78.65,59a20.6,20.6,0,0,0,4.9,3.76,39.88,39.88,0,0,0,3.85,1.83c.48.11,1,.21,1.54.32a8.46,8.46,0,0,0,1.7.16h2.43a7.41,7.41,0,0,0,1.62-.16c.48-.11,1-.21,1.62-.32.92-.38,2.17-1,3.76-1.83a22,22,0,0,0,5-3.76c.43-.49.87-1,1.33-1.62s.91-1.22,1.34-1.86a35,35,0,0,0,4.54-10.37,48.7,48.7,0,0,0,1.53-12.4,48.68,48.68,0,0,0-1.53-12.39A34.84,34.84,0,0,0,107.73,10c-.43-.64-.88-1.26-1.34-1.86s-.9-1.13-1.33-1.62a22.32,22.32,0,0,0-5-3.77c-1.59-.83-2.84-1.44-3.76-1.82L94.69.61A10.09,10.09,0,0,0,93.07.49H90.64a13.31,13.31,0,0,0-3.24.4,41.89,41.89,0,0,0-3.85,1.82,20.94,20.94,0,0,0-4.9,3.77A17.49,17.49,0,0,0,77.23,8.1,17.27,17.27,0,0,0,76,10a34,34,0,0,0-4.5,10.37A49.6,49.6,0,0,0,70,32.72Z"/><path class="cls-1" d="M126.68,65l1.42-.16a9.9,9.9,0,0,0,3.16-1.09,16.71,16.71,0,0,0,3.85-2.88,15.68,15.68,0,0,0,3.48-5.59L160.38.81H161l21.7,54.27a36.26,36.26,0,0,0,2.68,5.47,10.93,10.93,0,0,0,2.43,2.83,5.57,5.57,0,0,0,2.47,1.14l2.87.44v.57H166.62V65q2.91-.17,5-.36a5.65,5.65,0,0,0,3.12-1.1,3.22,3.22,0,0,0,.89-2.87A22.42,22.42,0,0,0,174,54.92l-6-15.07h-22.6l-6.15,15.31a7.77,7.77,0,0,0-.69,4.09A5.5,5.5,0,0,0,139.8,62a6.89,6.89,0,0,0,2.39,1.7,15.47,15.47,0,0,0,2.76.89,13.31,13.31,0,0,0,2.31.32l1.05,0v.57H126.68Zm30-53.3L145.64,39.29h22.11Z"/><path class="cls-1" d="M196.83,65.69v-.57h.08a32.33,32.33,0,0,0,4.66-.28,6.14,6.14,0,0,0,3-1.17,5,5,0,0,0,1.58-2.43,14,14,0,0,0,.49-4.13V9.4q0-4.46-1.58-6.12t-5.63-1.9h-2.59V.89h30.86a33.37,33.37,0,0,1,9.4,1.22,21,21,0,0,1,6.48,3.48,13.69,13.69,0,0,1,3.68,5.06,16.48,16.48,0,0,1,1.26,6.52q0,7.29-4.94,11.58a19.42,19.42,0,0,1-6.48,3.49,17.14,17.14,0,0,1-3.77.89c-1.32.16-2.71.3-4.17.4a12.3,12.3,0,0,1,3.6,1.71,18.39,18.39,0,0,1,4.34,4.45l15.22,21.14A8.14,8.14,0,0,0,255,63.22a16.19,16.19,0,0,0,3.07,1.3,12.72,12.72,0,0,0,2.64.52c.75.06,1.21.08,1.37.08h.09v.57H246L226.23,38.31A18.53,18.53,0,0,0,224,35.76a9.42,9.42,0,0,0-1.94-1.42,6.62,6.62,0,0,0-1.82-.64,10.32,10.32,0,0,0-1.87-.17h-3V57.19a15.89,15.89,0,0,0,.36,3.72A5.07,5.07,0,0,0,217,63.26a5.19,5.19,0,0,0,2.22,1.34,12.68,12.68,0,0,0,3.41.52h2.51v.57H196.83Zm18.55-32.64H227a11.67,11.67,0,0,0,6.81-2,12.29,12.29,0,0,0,1.82-1.66A13.77,13.77,0,0,0,237.41,27,19.51,19.51,0,0,0,239,22.56a24,24,0,0,0,.57-5.39q0-7-3-11.18A11,11,0,0,0,227,1.38h-5.26a10.62,10.62,0,0,0-3,.65,5.1,5.1,0,0,0-2,1.37,5.4,5.4,0,0,0-1.09,2.35,16.49,16.49,0,0,0-.32,3.57V33.05Z"/><path class="cls-1" d="M323.51,56.13a27.94,27.94,0,0,1-9.64,7,31.43,31.43,0,0,1-12.39,2.51H266.73v-.57a31.36,31.36,0,0,0,4.62-.28,6.39,6.39,0,0,0,3-1.17A5,5,0,0,0,276,61.24a14.37,14.37,0,0,0,.48-4.13V9.4q0-4.46-1.62-6.12t-5.67-1.9h-2.51V.89h34.83A29.92,29.92,0,0,1,313.87,3.4a28.36,28.36,0,0,1,9.64,7,30.84,30.84,0,0,1,6.2,10.37,36.48,36.48,0,0,1,2.14,12.55,36.23,36.23,0,0,1-2.14,12.52A31,31,0,0,1,323.51,56.13Zm-14.33,6.48A23.26,23.26,0,0,0,313,59.7a24.49,24.49,0,0,0,3.36-3.89,35.18,35.18,0,0,0,4.78-10.21,42.94,42.94,0,0,0,1.7-12.31,43.85,43.85,0,0,0-1.7-12.39,34,34,0,0,0-4.78-10.21A24.49,24.49,0,0,0,313,6.8a23.26,23.26,0,0,0-3.84-2.91,18.89,18.89,0,0,0-8.67-2.51h-9a10.62,10.62,0,0,0-3,.65,5,5,0,0,0-2,1.37,5.3,5.3,0,0,0-1.1,2.35,17.15,17.15,0,0,0-.32,3.57V55.73a5.76,5.76,0,0,0,0,.69,6.29,6.29,0,0,1,0,.77,15.89,15.89,0,0,0,.36,3.72,5.43,5.43,0,0,0,1.18,2.35,4.91,4.91,0,0,0,2.19,1.34,12.79,12.79,0,0,0,3.48.52h7.37A19.12,19.12,0,0,0,309.18,62.61Z"/><path class="cls-1" d="M338.74,31.35h24.7v3.72h-24.7Z"/><path class="cls-1" d="M371.14,33.21v-.08h-.33a36.41,36.41,0,0,1,.57-6.48,37.47,37.47,0,0,1,1.7-6.24A32.5,32.5,0,0,1,383.41,6.08a24,24,0,0,1,4.82-3A24.45,24.45,0,0,1,399.33.49,20.1,20.1,0,0,1,407.26,2h.09a.47.47,0,0,0,.32.16l.08.08,1.09.48c.35.17.72.36,1.1.57a16.76,16.76,0,0,0,6.64,2,6.59,6.59,0,0,0,3.64-.81,4.12,4.12,0,0,0,1.87-2.84h.56V25.27h-.56a38.92,38.92,0,0,0-1.18-5.67,38,38,0,0,0-1.82-5,28.83,28.83,0,0,0-2.39-4.09,25.77,25.77,0,0,0-2.87-3.44A20.9,20.9,0,0,0,407,2.51a21.29,21.29,0,0,0-6.48-1.46,14.5,14.5,0,0,0-8.1,2.51,23.2,23.2,0,0,0-6.64,6.89,37.57,37.57,0,0,0-4.5,10.25,46,46,0,0,0-1.66,12.51,43.8,43.8,0,0,0,2.72,15.71,31.48,31.48,0,0,0,7.08,11.43,22,22,0,0,0,4,2.87,22.43,22.43,0,0,0,3.24,1.5,8.88,8.88,0,0,0,1.91.45,16.69,16.69,0,0,0,2,.12,30,30,0,0,0,3.28-.49,19.13,19.13,0,0,0,3.2-1,20,20,0,0,0,6.72-4.54,17.36,17.36,0,0,0,2.88-3.36,34.19,34.19,0,0,0,2.31-4.09,29.35,29.35,0,0,0,1.86-5A55.32,55.32,0,0,0,422,41.15l.56.08a37,37,0,0,1-3.15,10.85,26.63,26.63,0,0,1-5.27,7.7,22.76,22.76,0,0,1-7,4.53,19.5,19.5,0,0,1-7.85,1.54,24.45,24.45,0,0,1-11.1-2.59,28.12,28.12,0,0,1-9-7,33,33,0,0,1-6.16-10.36,37.47,37.47,0,0,1-1.7-6.24,36.49,36.49,0,0,1-.57-6.48Z"/><path class="cls-1" d="M469.88,64.31a19.38,19.38,0,0,0,4.74-2.1,18.11,18.11,0,0,0,3.6-3,22.92,22.92,0,0,0,2.67-3.44,27.86,27.86,0,0,0,3.65-9.4h.56l-2.34,19.28H429.21v-.57a32.24,32.24,0,0,0,4.66-.28,6.42,6.42,0,0,0,3-1.17,4.85,4.85,0,0,0,1.62-2.43,14.33,14.33,0,0,0,.49-4.13V10.37a4,4,0,0,0,0-.49,2.61,2.61,0,0,1-.05-.48q0-4.46-1.57-6.12c-1.06-1.11-2.93-1.74-5.63-1.9h-2.6V.89h51.36v17h-.57v-.08q-.65-2.67-1.5-5.59a16.34,16.34,0,0,0-2.63-5.3,13.7,13.7,0,0,0-4.86-4,17.69,17.69,0,0,0-8.1-1.58H447.6V33.05h11.58a9.21,9.21,0,0,0,5.47-1.58,10.64,10.64,0,0,0,4.25-6.93,18.88,18.88,0,0,0,.25-2.26V22h.56v22.6h-.56v-.24A20.83,20.83,0,0,0,468.9,42a10.6,10.6,0,0,0-1.29-3.69A10.19,10.19,0,0,0,464.49,35a9.78,9.78,0,0,0-5.71-1.46H447.6v22.2a8.15,8.15,0,0,1,.08,1.46,15.31,15.31,0,0,0,.37,3.72,5.15,5.15,0,0,0,1.21,2.35,5.23,5.23,0,0,0,2.23,1.34,12.6,12.6,0,0,0,3.4.52h9A20.69,20.69,0,0,0,469.88,64.31Z"/><path class="cls-1" d="M490.21,65.69v-.57h.08a32.33,32.33,0,0,0,4.66-.28,6.14,6.14,0,0,0,3-1.17,5,5,0,0,0,1.58-2.43,14,14,0,0,0,.49-4.13V9.4q0-4.46-1.58-6.12t-5.63-1.9h-2.59V.89h30.86a33.25,33.25,0,0,1,9.39,1.22A21,21,0,0,1,537,5.59a13.8,13.8,0,0,1,3.68,5.06,16.48,16.48,0,0,1,1.26,6.52q0,7.29-4.94,11.58a19.38,19.38,0,0,1-6.49,3.49,16.92,16.92,0,0,1-3.76.89c-1.33.16-2.72.3-4.17.4a12.3,12.3,0,0,1,3.6,1.71,18.2,18.2,0,0,1,4.33,4.45l15.23,21.14a8.14,8.14,0,0,0,2.72,2.39,16.19,16.19,0,0,0,3.07,1.3,12.72,12.72,0,0,0,2.64.52c.75.06,1.21.08,1.37.08h.09v.57h-16.2L519.61,38.31a18.53,18.53,0,0,0-2.23-2.55,9.42,9.42,0,0,0-1.94-1.42,6.62,6.62,0,0,0-1.82-.64,10.32,10.32,0,0,0-1.87-.17h-3V57.19a15.89,15.89,0,0,0,.36,3.72,5.07,5.07,0,0,0,1.22,2.35,5.13,5.13,0,0,0,2.22,1.34,12.68,12.68,0,0,0,3.41.52h2.51v.57H490.21Zm18.55-32.64h11.66a11.62,11.62,0,0,0,6.8-2,11.84,11.84,0,0,0,1.83-1.66A13.77,13.77,0,0,0,530.79,27a19.51,19.51,0,0,0,1.54-4.41,24,24,0,0,0,.56-5.39q0-7-3-11.18a11,11,0,0,0-9.48-4.61h-5.26a10.62,10.62,0,0,0-3,.65,5.1,5.1,0,0,0-2,1.37,5.4,5.4,0,0,0-1.09,2.35,16.49,16.49,0,0,0-.32,3.57V33.05Z"/><path class="cls-1" d="M610,17.66V17.5c-.44-1.68-.92-3.42-1.46-5.23a18.63,18.63,0,0,0-2.39-5.06,13.26,13.26,0,0,0-4.29-4,16,16,0,0,0-7.09-1.94h-.73q-3.57.31-5,2t-1.42,5.87V57a16.09,16.09,0,0,0,.36,3.69,5.16,5.16,0,0,0,1.22,2.39,5.33,5.33,0,0,0,2.23,1.34,13,13,0,0,0,3.4.52h2.51v.57H569.18V65a32.24,32.24,0,0,0,4.66-.28,6.05,6.05,0,0,0,3-1.18,5,5,0,0,0,1.58-2.43,14.28,14.28,0,0,0,.48-4.13V9.23a15.89,15.89,0,0,0-.36-3.72,5.16,5.16,0,0,0-1.22-2.35,5,5,0,0,0-2.22-1.3,17.4,17.4,0,0,0-3.41-.56h-.48a15.71,15.71,0,0,0-7.05,1.94,13.79,13.79,0,0,0-4.29,4,17.89,17.89,0,0,0-2.43,5.06q-.81,2.72-1.38,5.23v.16h-.57V.65h55.08v17Z"/><path class="cls-1" d="M622,64.84a6.42,6.42,0,0,0,3-1.17,4.85,4.85,0,0,0,1.62-2.43,14.33,14.33,0,0,0,.49-4.13V9.4q0-4.46-1.58-6.12c-1.06-1.11-2.93-1.74-5.63-1.9H617.3V.89h28.18V1.3h0v.08h-3.24q-3.65.41-5.06,2c-.94,1.08-1.42,3.05-1.42,5.92V57.19a15.83,15.83,0,0,0,.37,3.72,5.15,5.15,0,0,0,1.21,2.35,5.26,5.26,0,0,0,2.27,1.34,13.12,13.12,0,0,0,3.44.52h2.51v.57H617.3v-.57A32.18,32.18,0,0,0,622,64.84Z"/><path class="cls-1" d="M654.88,64.68a6.29,6.29,0,0,0,3-1.18,4.9,4.9,0,0,0,1.62-2.43,14.28,14.28,0,0,0,.48-4.13V9.23a15.89,15.89,0,0,0-.36-3.72,5.16,5.16,0,0,0-1.22-2.35,5,5,0,0,0-2.27-1.3,18,18,0,0,0-3.44-.56h-2.51V.65h51.35V17.82H701v-.16c-.44-1.78-.93-3.63-1.5-5.55a16.92,16.92,0,0,0-2.63-5.27,13.78,13.78,0,0,0-4.86-4,17.74,17.74,0,0,0-8.1-1.58H668.65V32.81h11.58a9.52,9.52,0,0,0,5.47-1.54,9.91,9.91,0,0,0,3-3.32,12.32,12.32,0,0,0,1.25-3.57,16.75,16.75,0,0,0,.28-2.35v-.24h.49v22.6h-.49v-.24a18.55,18.55,0,0,0-.28-2.35,11.52,11.52,0,0,0-1.29-3.65,10,10,0,0,0-3.08-3.32,9.78,9.78,0,0,0-5.71-1.46H668.65V57a16.09,16.09,0,0,0,.36,3.69,5.16,5.16,0,0,0,1.22,2.39,5.24,5.24,0,0,0,2.27,1.34,13.48,13.48,0,0,0,3.44.52h2.51v.57H650.26V65A31.36,31.36,0,0,0,654.88,64.68Z"/><path class="cls-1" d="M710.56,64.84a6.38,6.38,0,0,0,3-1.17,4.85,4.85,0,0,0,1.62-2.43,14,14,0,0,0,.49-4.13V9.4q0-4.46-1.58-6.12t-5.63-1.9h-2.59V.89h28.18V1.3h0v.08h-3.23c-2.44.27-4.12.94-5.07,2s-1.41,3.05-1.41,5.92V57.19a15.89,15.89,0,0,0,.36,3.72A5.07,5.07,0,0,0,726,63.26a5.17,5.17,0,0,0,2.26,1.34,13.14,13.14,0,0,0,3.45.52h2.51v.57H705.91v-.57A32.18,32.18,0,0,0,710.56,64.84Z"/><path class="cls-1" d="M780.59,64.31a19.38,19.38,0,0,0,4.74-2.1,17.83,17.83,0,0,0,3.6-3,22.92,22.92,0,0,0,2.67-3.44,27.65,27.65,0,0,0,3.65-9.4h.57l-2.35,19.28H739.93v-.57a32.18,32.18,0,0,0,4.65-.28,6.38,6.38,0,0,0,3-1.17,4.85,4.85,0,0,0,1.62-2.43,14,14,0,0,0,.49-4.13V10.37a4,4,0,0,0,0-.49,2.59,2.59,0,0,1,0-.48q0-4.46-1.58-6.12c-1.06-1.11-2.93-1.74-5.63-1.9h-2.59V.89H791.2v17h-.57v-.08q-.64-2.67-1.5-5.59a16.34,16.34,0,0,0-2.63-5.3,13.7,13.7,0,0,0-4.86-4,17.69,17.69,0,0,0-8.1-1.58H758.31V33.05H769.9a9.2,9.2,0,0,0,5.46-1.58,10.71,10.71,0,0,0,4.26-6.93,20.43,20.43,0,0,0,.24-2.26V22h.57v22.6h-.57v-.24a22.56,22.56,0,0,0-.24-2.35,10.63,10.63,0,0,0-1.3-3.69A10.19,10.19,0,0,0,775.2,35a9.76,9.76,0,0,0-5.71-1.46H758.31v22.2a8.15,8.15,0,0,1,.08,1.46,15.83,15.83,0,0,0,.37,3.72A5.15,5.15,0,0,0,760,63.26a5.23,5.23,0,0,0,2.23,1.34,12.6,12.6,0,0,0,3.4.52h9A20.64,20.64,0,0,0,780.59,64.31Z"/><path class="cls-1" d="M858.67,56.13a27.85,27.85,0,0,1-9.64,7,31.43,31.43,0,0,1-12.39,2.51H801.89v-.57a31.36,31.36,0,0,0,4.62-.28,6.39,6.39,0,0,0,3-1.17,5,5,0,0,0,1.62-2.43,14.37,14.37,0,0,0,.48-4.13V9.4q0-4.46-1.62-6.12t-5.67-1.9h-2.51V.89h34.83A29.92,29.92,0,0,1,849,3.4a28.27,28.27,0,0,1,9.64,7,30.84,30.84,0,0,1,6.2,10.37A36.49,36.49,0,0,1,867,33.29a36.24,36.24,0,0,1-2.15,12.52A31,31,0,0,1,858.67,56.13Zm-14.33,6.48a23.26,23.26,0,0,0,3.84-2.91,24.49,24.49,0,0,0,3.36-3.89,35.18,35.18,0,0,0,4.78-10.21A42.94,42.94,0,0,0,858,33.29a43.85,43.85,0,0,0-1.7-12.39,34,34,0,0,0-4.78-10.21,24.49,24.49,0,0,0-3.36-3.89,23.26,23.26,0,0,0-3.84-2.91,18.89,18.89,0,0,0-8.67-2.51h-9a10.62,10.62,0,0,0-3,.65,5,5,0,0,0-2,1.37,5.3,5.3,0,0,0-1.1,2.35,17.15,17.15,0,0,0-.32,3.57V55.73a5.76,5.76,0,0,0,0,.69,6.29,6.29,0,0,1,0,.77,15.89,15.89,0,0,0,.36,3.72,5.43,5.43,0,0,0,1.18,2.35,4.91,4.91,0,0,0,2.19,1.34,12.79,12.79,0,0,0,3.48.52h7.37A19.12,19.12,0,0,0,844.34,62.61Z"/></g></g></svg>