<svg xmlns="http://www.w3.org/2000/svg" xmlns:xlink="http://www.w3.org/1999/xlink" viewBox="0 0 685.08 112.17"><defs><style>.cls-1{fill:none;}.cls-2{fill:#55585a;}.cls-3{clip-path:url(#clip-path);}.cls-4{fill:#ea8215;}</style><clipPath id="clip-path" transform="translate(-471.66 -2779.24)"><rect class="cls-1" width="1220" height="3900"/></clipPath></defs><g id="Layer_2" data-name="Layer 2"><g id="Layer_1-2" data-name="Layer 1"><path class="cls-2" d="M471.66,2853.71h1.56v2.11h0a3.79,3.79,0,0,1,.91-1.08,5.28,5.28,0,0,1,1.18-.76,6.19,6.19,0,0,1,1.34-.44,7.34,7.34,0,0,1,1.38-.14,6.51,6.51,0,0,1,2.53.47,6.08,6.08,0,0,1,2,1.31,5.94,5.94,0,0,1,1.31,2,7.07,7.07,0,0,1,0,5.07,5.94,5.94,0,0,1-1.31,2,6.11,6.11,0,0,1-2,1.32,6.7,6.7,0,0,1-2.53.46,6.6,6.6,0,0,1-1.38-.14,5.69,5.69,0,0,1-1.34-.44,5.61,5.61,0,0,1-1.18-.75,4.09,4.09,0,0,1-.91-1.08h0v8h-1.56Zm1.4,6a4.84,4.84,0,0,0,1.46,3.47,5.19,5.19,0,0,0,1.58,1,5,5,0,0,0,2,.39,4.81,4.81,0,0,0,2-.39,4.55,4.55,0,0,0,1.51-1,4.42,4.42,0,0,0,.95-1.56,5.52,5.52,0,0,0,.33-1.91,5.44,5.44,0,0,0-.33-1.91,4.49,4.49,0,0,0-2.46-2.62,4.81,4.81,0,0,0-2-.39,5,5,0,0,0-3.56,1.45,4.84,4.84,0,0,0-1.46,3.47Z" transform="translate(-471.66 -2779.24)"/><path class="cls-2" d="M488.63,2846.07h1.56v19.65h-1.56Z" transform="translate(-471.66 -2779.24)"/><path class="cls-2" d="M504.47,2860.68c0,.59,0,1.12,0,1.58s0,.91,0,1.3,0,.78.06,1.12.07.7.12,1h-1.45a10.69,10.69,0,0,1-.16-1.95h0a4.42,4.42,0,0,1-1.68,1.72,5.3,5.3,0,0,1-2.53.54,6.13,6.13,0,0,1-1.54-.19,4.16,4.16,0,0,1-1.35-.62,3.51,3.51,0,0,1-1-1.11,3.34,3.34,0,0,1-.37-1.64,3.19,3.19,0,0,1,.7-2.18,4.34,4.34,0,0,1,1.73-1.21,8.18,8.18,0,0,1,2.18-.52,20,20,0,0,1,2-.12h1.82v-.73a2.53,2.53,0,0,0-1-2.23,4.12,4.12,0,0,0-2.42-.68,5.47,5.47,0,0,0-3.66,1.35l-.91-1.06a5.39,5.39,0,0,1,2.13-1.26,7.52,7.52,0,0,1,2.44-.43,5.45,5.45,0,0,1,3.49,1,4,4,0,0,1,1.3,3.31Zm-3.12-1a13.12,13.12,0,0,0-1.91.13,6.8,6.8,0,0,0-1.67.44,3.17,3.17,0,0,0-1.18.83,1.93,1.93,0,0,0-.44,1.3,2,2,0,0,0,.24,1,2.16,2.16,0,0,0,.64.7,3.19,3.19,0,0,0,.87.42,3.63,3.63,0,0,0,1,.14,5.06,5.06,0,0,0,2.05-.36,3.56,3.56,0,0,0,1.29-.95,3.26,3.26,0,0,0,.66-1.33,6.26,6.26,0,0,0,.18-1.49v-.81Z" transform="translate(-471.66 -2779.24)"/><path class="cls-2" d="M509.15,2862.65a3.27,3.27,0,0,0,1.45,1.47,4.28,4.28,0,0,0,2,.51,3.11,3.11,0,0,0,1-.16,2.91,2.91,0,0,0,.88-.44,2.34,2.34,0,0,0,.64-.69,1.65,1.65,0,0,0,.25-.92,1.49,1.49,0,0,0-.54-1.25,4.12,4.12,0,0,0-1.31-.65,16.64,16.64,0,0,0-1.71-.4,7.36,7.36,0,0,1-1.72-.52,3.56,3.56,0,0,1-1.31-1,2.59,2.59,0,0,1-.54-1.76,3.05,3.05,0,0,1,.37-1.54,3.4,3.4,0,0,1,.95-1.08,4.19,4.19,0,0,1,1.31-.63,5.29,5.29,0,0,1,1.48-.21,5.65,5.65,0,0,1,2.56.54,3.83,3.83,0,0,1,1.68,1.72l-1.4.83a3.44,3.44,0,0,0-1.11-1.26,3.19,3.19,0,0,0-1.73-.43,3.4,3.4,0,0,0-.87.13,3.06,3.06,0,0,0-.82.37,2,2,0,0,0-.61.59,1.53,1.53,0,0,0-.25.84,1.37,1.37,0,0,0,.54,1.19,3.88,3.88,0,0,0,1.31.61,14.24,14.24,0,0,0,1.72.38,6.55,6.55,0,0,1,1.71.51,3.43,3.43,0,0,1,1.31,1,2.92,2.92,0,0,1,.54,1.89,3.58,3.58,0,0,1-.35,1.62,3.41,3.41,0,0,1-1,1.16,4.33,4.33,0,0,1-1.39.7,5.49,5.49,0,0,1-1.63.23,6.82,6.82,0,0,1-2.85-.59,4.35,4.35,0,0,1-2-1.85Z" transform="translate(-471.66 -2779.24)"/><path class="cls-2" d="M526.59,2855.11h-3.43v7.83a1.72,1.72,0,0,0,.44,1.25,1.7,1.7,0,0,0,1.23.44,3.46,3.46,0,0,0,.89-.12,4.06,4.06,0,0,0,.87-.3l.13,1.41a8.43,8.43,0,0,1-1,.28,4.43,4.43,0,0,1-1,.13,3.78,3.78,0,0,1-1.43-.24,2.66,2.66,0,0,1-1-.67,2.54,2.54,0,0,1-.53-1,4.26,4.26,0,0,1-.17-1.21v-7.83H519v-1.4h2.6v-3.46h1.56v3.46h3.43Z" transform="translate(-471.66 -2779.24)"/><path class="cls-2" d="M529.77,2849a1.15,1.15,0,0,1,.33-.83,1.2,1.2,0,0,1,1.67,0,1.16,1.16,0,0,1,.34.83,1.17,1.17,0,1,1-2.34,0Zm.39,4.76h1.56v12h-1.56Z" transform="translate(-471.66 -2779.24)"/><path class="cls-2" d="M546.72,2864a5.68,5.68,0,0,1-2,1.57,5.8,5.8,0,0,1-2.42.5,6.84,6.84,0,0,1-2.55-.46,5.77,5.77,0,0,1-2-1.32,5.91,5.91,0,0,1-1.3-2,7.07,7.07,0,0,1,0-5.07,5.91,5.91,0,0,1,1.3-2,5.75,5.75,0,0,1,2-1.31,6.65,6.65,0,0,1,2.55-.47,5.6,5.6,0,0,1,2.45.54,6.51,6.51,0,0,1,2,1.54l-1.25.94a5.32,5.32,0,0,0-1.48-1.19,3.73,3.73,0,0,0-1.74-.43,4.86,4.86,0,0,0-2,.39,4.53,4.53,0,0,0-1.51,1.06,4.57,4.57,0,0,0-.95,1.56,5.67,5.67,0,0,0-.32,1.91,5.76,5.76,0,0,0,.32,1.91,4.57,4.57,0,0,0,.95,1.56,4.65,4.65,0,0,0,1.51,1,4.86,4.86,0,0,0,2,.39,3.64,3.64,0,0,0,1.8-.45,4.84,4.84,0,0,0,1.42-1.21Z" transform="translate(-471.66 -2779.24)"/><path class="cls-2" d="M557,2862.65a3.25,3.25,0,0,0,1.46,1.47,4.24,4.24,0,0,0,2,.51,3.11,3.11,0,0,0,1-.16,3,3,0,0,0,.89-.44,2.3,2.3,0,0,0,.63-.69,1.65,1.65,0,0,0,.25-.92,1.51,1.51,0,0,0-.53-1.25,4.28,4.28,0,0,0-1.32-.65,16.64,16.64,0,0,0-1.71-.4,7.36,7.36,0,0,1-1.72-.52,3.56,3.56,0,0,1-1.31-1,2.59,2.59,0,0,1-.53-1.76,3.16,3.16,0,0,1,.36-1.54,3.4,3.4,0,0,1,.95-1.08,4.29,4.29,0,0,1,1.31-.63,5.35,5.35,0,0,1,1.48-.21,5.7,5.7,0,0,1,2.57.54,3.86,3.86,0,0,1,1.67,1.72l-1.4.83a3.35,3.35,0,0,0-1.11-1.26,3.16,3.16,0,0,0-1.73-.43,3.53,3.53,0,0,0-.87.13,3.21,3.21,0,0,0-.82.37,2.14,2.14,0,0,0-.61.59,1.53,1.53,0,0,0-.24.84,1.37,1.37,0,0,0,.53,1.19,3.88,3.88,0,0,0,1.31.61,14.24,14.24,0,0,0,1.72.38,6.55,6.55,0,0,1,1.71.51,3.54,3.54,0,0,1,1.32,1,3,3,0,0,1,.53,1.89,3.58,3.58,0,0,1-.35,1.62,3.38,3.38,0,0,1-1,1.16,4.43,4.43,0,0,1-1.39.7,5.56,5.56,0,0,1-1.64.23,6.82,6.82,0,0,1-2.85-.59,4.35,4.35,0,0,1-2-1.85Z" transform="translate(-471.66 -2779.24)"/><path class="cls-2" d="M578.67,2862.34c0,.23,0,.5,0,.82s0,.65,0,1,0,.63,0,.92,0,.51,0,.66h-1.56c0-.45,0-.88,0-1.3a4.79,4.79,0,0,0-.06-.8h-.08a4.19,4.19,0,0,1-1.56,1.7,4.53,4.53,0,0,1-2.55.71,5.13,5.13,0,0,1-2.3-.44,3.58,3.58,0,0,1-1.4-1.15,4.18,4.18,0,0,1-.69-1.66,10.08,10.08,0,0,1-.19-1.92v-7.15h1.56v7.07a8.24,8.24,0,0,0,.13,1.42,3.69,3.69,0,0,0,.46,1.23,2.41,2.41,0,0,0,.91.88,3.2,3.2,0,0,0,1.52.32,4.49,4.49,0,0,0,1.63-.3,3.44,3.44,0,0,0,1.32-.91,4.57,4.57,0,0,0,.89-1.53,6.75,6.75,0,0,0,.32-2.17v-6h1.56Z" transform="translate(-471.66 -2779.24)"/><path class="cls-2" d="M583.48,2857.09c0-.22,0-.5,0-.82s0-.64,0-1,0-.64,0-.93,0-.5,0-.66h1.56c0,.45,0,.88,0,1.3a4.84,4.84,0,0,0,.06.81,5.42,5.42,0,0,1,1.54-1.75,3.81,3.81,0,0,1,2.29-.67,2.28,2.28,0,0,1,.45,0l.46.09-.19,1.53a1.78,1.78,0,0,0-.59-.1,4.5,4.5,0,0,0-1.76.32,3.38,3.38,0,0,0-1.22.9,3.85,3.85,0,0,0-.72,1.34,5.82,5.82,0,0,0-.23,1.65v6.55h-1.56Z" transform="translate(-471.66 -2779.24)"/><path class="cls-2" d="M604.25,2864.94a8.47,8.47,0,0,1-.65,3.62,5.62,5.62,0,0,1-1.62,2.13,5.4,5.4,0,0,1-2.09,1,8.63,8.63,0,0,1-3.81.09,8.08,8.08,0,0,1-1.65-.49,6.94,6.94,0,0,1-1.42-.79,5.94,5.94,0,0,1-1.11-1.07l1.23-1.14a4.85,4.85,0,0,0,2.08,1.71,6.42,6.42,0,0,0,2.65.55,5.59,5.59,0,0,0,2-.31,3.84,3.84,0,0,0,2.19-1.94,6,6,0,0,0,.44-1.22,7.39,7.39,0,0,0,.17-1.16c0-.36,0-.66,0-.88v-1.67h-.05a4.81,4.81,0,0,1-1.83,1.72,5.72,5.72,0,0,1-2.72.62,6.5,6.5,0,0,1-2.49-.48,6.4,6.4,0,0,1-2-1.32,6.32,6.32,0,0,1-1.38-2,5.86,5.86,0,0,1,0-4.78,6,6,0,0,1,1.38-2,6.6,6.6,0,0,1,2-1.33,6.32,6.32,0,0,1,2.49-.49,5.72,5.72,0,0,1,2.72.62,4.81,4.81,0,0,1,1.83,1.72h.05v-2h1.56Zm-1.5-5.38a4.65,4.65,0,0,0-.38-1.86,4.67,4.67,0,0,0-2.52-2.52,4.74,4.74,0,0,0-3.72,0,4.67,4.67,0,0,0-2.52,2.52,4.74,4.74,0,0,0,0,3.72,4.67,4.67,0,0,0,2.52,2.52,4.74,4.74,0,0,0,3.72,0,4.67,4.67,0,0,0,2.52-2.52A4.65,4.65,0,0,0,602.75,2859.56Z" transform="translate(-471.66 -2779.24)"/><path class="cls-2" d="M619.18,2863.46a5.31,5.31,0,0,1-2.25,2,7.3,7.3,0,0,1-2.95.59,6.47,6.47,0,0,1-2.5-.46,5.63,5.63,0,0,1-1.92-1.32,5.77,5.77,0,0,1-1.24-2,7.43,7.43,0,0,1-.43-2.56,6.81,6.81,0,0,1,.45-2.5,5.93,5.93,0,0,1,1.24-2,5.77,5.77,0,0,1,1.9-1.33,6,6,0,0,1,2.42-.48,5.79,5.79,0,0,1,2.43.48,5.35,5.35,0,0,1,1.77,1.27,5.29,5.29,0,0,1,1.08,1.81,6.11,6.11,0,0,1,.36,2.05v1.1H609.45a5.36,5.36,0,0,0,.2,1.26,4.5,4.5,0,0,0,2.1,2.74,4.33,4.33,0,0,0,2.25.52,5.06,5.06,0,0,0,2.32-.57,4.18,4.18,0,0,0,1.71-1.56Zm-1.2-4.76a3.69,3.69,0,0,0-.32-1.51,4.3,4.3,0,0,0-.89-1.23,4.11,4.11,0,0,0-1.32-.85,4.46,4.46,0,0,0-1.63-.31,4.06,4.06,0,0,0-2.12.52,4.72,4.72,0,0,0-2,2.51,3.56,3.56,0,0,0-.21.87Z" transform="translate(-471.66 -2779.24)"/><path class="cls-2" d="M622.87,2859.72a6.75,6.75,0,0,1,.47-2.54,5.91,5.91,0,0,1,1.3-2,5.75,5.75,0,0,1,2-1.31,6.65,6.65,0,0,1,2.55-.47,6.51,6.51,0,0,1,2.53.47,5.94,5.94,0,0,1,2,1.31,5.82,5.82,0,0,1,1.32,2,7.07,7.07,0,0,1,0,5.07,5.82,5.82,0,0,1-1.32,2,6,6,0,0,1-2,1.32,6.7,6.7,0,0,1-2.53.46,6.84,6.84,0,0,1-2.55-.46,5.77,5.77,0,0,1-2-1.32,5.91,5.91,0,0,1-1.3-2A6.7,6.7,0,0,1,622.87,2859.72Zm1.56,0a5.76,5.76,0,0,0,.32,1.91,4.57,4.57,0,0,0,1,1.56,4.65,4.65,0,0,0,1.51,1,5.2,5.2,0,0,0,3.95,0,4.55,4.55,0,0,0,1.51-1,4.42,4.42,0,0,0,1-1.56,5.52,5.52,0,0,0,.33-1.91,5.44,5.44,0,0,0-.33-1.91,4.49,4.49,0,0,0-2.46-2.62,5.2,5.2,0,0,0-3.95,0,4.53,4.53,0,0,0-1.51,1.06,4.57,4.57,0,0,0-1,1.56A5.67,5.67,0,0,0,624.43,2859.72Z" transform="translate(-471.66 -2779.24)"/><path class="cls-2" d="M639.51,2857.09c0-.22,0-.5,0-.82s0-.64,0-1,0-.64,0-.93,0-.5,0-.66h1.56c0,.45,0,.88,0,1.3a4.84,4.84,0,0,0,.06.81h.08a4.21,4.21,0,0,1,1.56-1.71,4.61,4.61,0,0,1,2.55-.71,5.19,5.19,0,0,1,2.29.44,3.71,3.71,0,0,1,1.39,1.16,4.23,4.23,0,0,1,.7,1.65,9.33,9.33,0,0,1,.2,1.92v7.15h-1.56v-7.07a8.33,8.33,0,0,0-.13-1.42,3.69,3.69,0,0,0-.46-1.23,2.31,2.31,0,0,0-.91-.87,3.08,3.08,0,0,0-1.52-.33,4.49,4.49,0,0,0-1.63.3,3.44,3.44,0,0,0-1.32.91,4.52,4.52,0,0,0-.89,1.54,6.66,6.66,0,0,0-.32,2.17v6h-1.56Z" transform="translate(-471.66 -2779.24)"/><g class="cls-3"><path class="cls-4" d="M662.51,2858.08a11.83,11.83,0,0,0,1.35-1.08c.36-.4.76-.81,1.17-1.22a2.35,2.35,0,0,0,.6-1.83v0l0,0a.66.66,0,0,0-.62-.19h0a5.47,5.47,0,0,0-2.77,1.91,18.88,18.88,0,0,0-1.75,2.85l-.09.18h.21A3.24,3.24,0,0,0,662.51,2858.08Zm-.12-2.34a5.2,5.2,0,0,1,2.63-1.82.44.44,0,0,1,.36.09,2.06,2.06,0,0,1-.53,1.59c-.41.42-.81.83-1.17,1.22a13.76,13.76,0,0,1-1.31,1.06,3,3,0,0,1-1.61.49A18.19,18.19,0,0,1,662.39,2855.74Z" transform="translate(-471.66 -2779.24)"/><path class="cls-4" d="M684.4,2854.48a.48.48,0,0,0,.48.26h0l0,0a3.41,3.41,0,0,0,.56-.58c.15-.21.32-.45.48-.71l.53-.66a1.08,1.08,0,0,0,.26-1,.65.65,0,0,0-.37-.47.86.86,0,0,0-.65,0,3.91,3.91,0,0,0-1.53.95c-.52.48-1,.93-1.34,1.34-1.08,1.21-2.19,2.6-3.29,4.11l-2.83,3.85c-.09-.32-.17-.67-.27-1.05a15,15,0,0,1-.28-1.49c-.06-.48-.14-1-.23-1.56,0-.18,0-.35,0-.51a4.67,4.67,0,0,0,.33-.62.7.7,0,0,0,.05-.52.49.49,0,0,0-.26-.25l-.07,0a.39.39,0,0,0,0-.19,1.86,1.86,0,0,0-.36-.85.9.9,0,0,0-1-.33,1.86,1.86,0,0,0-.27.11,1.45,1.45,0,0,1-.24.1h0l0,0a2.34,2.34,0,0,0-.43,1.08,8.88,8.88,0,0,0,0,2.19c-.56.57-1.12,1.15-1.69,1.71a27.65,27.65,0,0,1-2.52,2.19c-.48.44-1,.89-1.6,1.35s-1.24.92-1.91,1.39a23.33,23.33,0,0,1-2,1.17,4.93,4.93,0,0,1-2.46.55,1.66,1.66,0,0,1-1.53-.81,3.75,3.75,0,0,1-.44-1.85,8.63,8.63,0,0,1,.3-2.21,10.43,10.43,0,0,1,.61-1.76,4.26,4.26,0,0,0,2.88-.46,11.74,11.74,0,0,0,2-1.62,10.74,10.74,0,0,0,1.09-1.29,3.45,3.45,0,0,0,.63-1.6,1.88,1.88,0,0,0-.58-1.74,2.64,2.64,0,0,0-1.82-.48,6.15,6.15,0,0,0-3.17,2,22.07,22.07,0,0,0-2.06,3,16.52,16.52,0,0,0-.82,1.9,15.3,15.3,0,0,0-.64,2.37,9.69,9.69,0,0,0-.16,2.45,4.89,4.89,0,0,0,.67,2.24l.34.41.14.18a2.54,2.54,0,0,0,.57.51,3.28,3.28,0,0,0,1.51.48h.46a6.86,6.86,0,0,0,1.12-.09,7.2,7.2,0,0,0,1.51-.42,11.08,11.08,0,0,0,1.29-.59,21.4,21.4,0,0,0,4.31-3.08c1-.87,1.94-1.76,2.88-2.65.47-.45.94-.92,1.4-1.39,0,.16,0,.32.07.48.16.78.34,1.52.54,2.21s.4,1.26.59,1.76c-.78,1.26-1.56,2.48-2.33,3.64s-1.57,2.44-2.33,3.7-1.46,2.59-2.12,3.94a37.25,37.25,0,0,0-1.77,4.35,2.82,2.82,0,0,0-.1.75c0,.18.07.48.53.54a.55.55,0,0,0,.46-.29,2.62,2.62,0,0,0,.29-.58c.09-.23.17-.45.24-.68a3.17,3.17,0,0,1,.2-.52,37,37,0,0,1,3.68-7c1.44-2.13,2.82-4.21,4.1-6.18.24.42.49.86.74,1.32a9.6,9.6,0,0,0,1,1.5,4.91,4.91,0,0,0,1.38,1.18,4,4,0,0,0,2,.47h0a5.35,5.35,0,0,0,1.26-.66,1.89,1.89,0,0,0,.66-1.33v0l0,0a.9.9,0,0,0-.64-.48h0a.93.93,0,0,0-.82.45.64.64,0,0,1-.6.31,1.27,1.27,0,0,1-.67-.18,2,2,0,0,1-.55-.51,7.39,7.39,0,0,1-.48-.68c-.16-.23-.3-.46-.43-.66a10.16,10.16,0,0,1-.73-1.39c-.21-.46-.42-1-.62-1.48,1.1-1.6,2.25-3.18,3.41-4.71S683.14,2855.84,684.4,2854.48Zm-8.71,2.38h0a1.83,1.83,0,0,1-.29.53,5.52,5.52,0,0,0-.4.55c-.31.35-.62.69-.94,1-.06-.41-.14-.81-.19-1.22l.58-.59a1.52,1.52,0,0,0,.37-.45,4.4,4.4,0,0,1,.37-.55,2.65,2.65,0,0,1,.41-.41.3.3,0,0,1,.11,0,1.1,1.1,0,0,0,0,.16A8.07,8.07,0,0,0,675.69,2856.86Zm.41-1a.47.47,0,0,1-.05.33l-.13.26c0-.2,0-.39,0-.57,0,0,0-.07,0-.14h0A.24.24,0,0,1,676.1,2855.87Zm-2.21-.37a2,2,0,0,1,.36-.93l.23-.1.22-.09a.67.67,0,0,1,.72.24,1.56,1.56,0,0,1,.32.75s0,.05,0,.08a.55.55,0,0,0-.29.11,2.86,2.86,0,0,0-.46.46,5.16,5.16,0,0,0-.39.57,1.19,1.19,0,0,1-.31.39c-.14.15-.3.29-.44.44A8.76,8.76,0,0,1,673.89,2855.5Zm-1.56,5.25c-.94.88-1.91,1.78-2.88,2.65a21.28,21.28,0,0,1-4.26,3,10.57,10.57,0,0,1-1.26.58,6.72,6.72,0,0,1-1.46.4,6.38,6.38,0,0,1-1.52.08,3,3,0,0,1-1.4-.44,2.19,2.19,0,0,1-.5-.46l-.15-.18-.33-.39a4.85,4.85,0,0,1-.62-2.11,9.64,9.64,0,0,1,.15-2.39,14.52,14.52,0,0,1,.64-2.33,16.09,16.09,0,0,1,.8-1.87,21.48,21.48,0,0,1,2-3,5.88,5.88,0,0,1,3-1.89h.18a2.23,2.23,0,0,1,1.44.44,1.61,1.61,0,0,1,.5,1.52,3.33,3.33,0,0,1-.59,1.47,10.36,10.36,0,0,1-1.06,1.26,11,11,0,0,1-2,1.59,4.05,4.05,0,0,1-2.79.41h-.09l0,.08a9.89,9.89,0,0,0-.67,1.89,8.61,8.61,0,0,0-.31,2.27,4,4,0,0,0,.47,2,2,2,0,0,0,1.74.93,5.09,5.09,0,0,0,2.58-.58,20.56,20.56,0,0,0,2.08-1.18c.68-.47,1.33-1,1.92-1.4s1.14-.92,1.61-1.36a27.88,27.88,0,0,0,2.53-2.2c.53-.52,1-1,1.57-1.57.05.42.12.83.19,1.24C673.35,2859.74,672.85,2860.26,672.33,2860.75Zm4.85,2.62,0,.05,0,.06c.2.56.42,1.08.64,1.57a11.26,11.26,0,0,0,.75,1.42l.43.66c.16.25.32.48.49.7a2.34,2.34,0,0,0,.62.56,1.49,1.49,0,0,0,.81.22h0a.89.89,0,0,0,.81-.45.58.58,0,0,1,1,0,1.56,1.56,0,0,1-.55,1.12,4.31,4.31,0,0,1-1.17.61,3.59,3.59,0,0,1-1.83-.44,4.6,4.6,0,0,1-1.32-1.12,9.08,9.08,0,0,1-1-1.46c-.29-.52-.57-1-.84-1.5l-.11-.18-.11.17c-1.31,2-2.73,4.16-4.2,6.35a36.28,36.28,0,0,0-3.71,7,3.2,3.2,0,0,0-.21.55c-.07.22-.15.44-.23.66a2.38,2.38,0,0,1-.27.53.31.31,0,0,1-.23.18c-.27,0-.3-.17-.3-.29a2.57,2.57,0,0,1,.09-.67,35.1,35.1,0,0,1,1.76-4.32c.65-1.34,1.36-2.66,2.11-3.92s1.53-2.51,2.32-3.69,1.58-2.43,2.37-3.7l0-.06,0-.05c-.2-.51-.41-1.12-.61-1.8s-.38-1.42-.53-2.19c-.05-.22-.07-.45-.11-.67q.55-.59,1.08-1.2c.14-.2.27-.38.41-.55a2.15,2.15,0,0,0,.14-.26c0,.06,0,.12,0,.18.08.56.16,1.08.23,1.55a13.1,13.1,0,0,0,.28,1.52c.12.49.23.93.33,1.3l.07.25.15-.21c.89-1.19,1.88-2.54,3-4.05s2.2-2.89,3.28-4.1c.36-.39.81-.84,1.32-1.32a3.72,3.72,0,0,1,1.43-.89.56.56,0,0,1,.46,0,.38.38,0,0,1,.24.3.84.84,0,0,1-.2.76c-.22.27-.4.49-.54.68s-.33.5-.48.7a2.9,2.9,0,0,1-.48.51c-.17,0-.24-.09-.24-.28v-.32l-.22.23c-1.32,1.43-2.59,2.94-3.75,4.48S678.29,2861.75,677.18,2863.37Z" transform="translate(-471.66 -2779.24)"/><path class="cls-4" d="M704.18,2836.48a1,1,0,0,0-1-.76h0l0,0-.17,0,0,0a1.77,1.77,0,0,0-.46,1.17,9.81,9.81,0,0,1-.13,1.24l-.31,2.6c-.57,4.45-1.05,8.94-1.42,13.34-.07.81-.13,1.63-.18,2.45l-.14.08a2.44,2.44,0,0,0-.45.31c-.3.21-.6.43-.9.67s-.56.46-.84.67l-3.42,2.83c-1.11.92-2.27,1.84-3.45,2.72-.62.41-1.22.86-1.8,1.33a4.17,4.17,0,0,1-2.18.84,1.58,1.58,0,0,1-.65-1,4.86,4.86,0,0,1-.15-1.45,10.38,10.38,0,0,1,.53-3,11.6,11.6,0,0,1,1.06-2.39,3.82,3.82,0,0,1,1.58-1.56,1.51,1.51,0,0,1,.18.36,2.27,2.27,0,0,0,.27.54,1.4,1.4,0,0,0,.42.42.8.8,0,0,0,.69.06l0,0a.85.85,0,0,0,.25-.8,4.11,4.11,0,0,1,0-.86v0a2.06,2.06,0,0,0-1.22-1.58,2.1,2.1,0,0,0-.43,0h-.46a.16.16,0,0,0-.14.06,1.7,1.7,0,0,0-.43.13,3.42,3.42,0,0,1-.4.17l0,0a9.75,9.75,0,0,0-2.84,4.08,14,14,0,0,0-.67,2.29,10.57,10.57,0,0,0-.21,2.48,7.13,7.13,0,0,0,.45,2.23,2.7,2.7,0,0,0,1.38,1.53,4,4,0,0,0,1.14.18,2.87,2.87,0,0,0,1.45-.37,14.83,14.83,0,0,0,1.95-1.25,43.2,43.2,0,0,0,4-3.41c1.24-1.2,2.5-2.34,3.74-3.38l1.3-1.1.3-.24c-.19,3.22-.3,6.57-.33,10,0,.92,0,1.89,0,2.89s0,2,0,3c0,.41.06.87.08,1.37s.06,1,.13,1.59a7.85,7.85,0,0,0,.23,1.34.83.83,0,0,0,.84.73l.17,0a.52.52,0,0,0,.53-.39,2.38,2.38,0,0,0,.11-.73,7.63,7.63,0,0,0,0-.8,4.72,4.72,0,0,1-.05-.71,89.38,89.38,0,0,1,.15-10.16c.24-3.17.46-6.42.66-9.66.14-1.81.29-3.65.46-5.48s.34-3.61.51-5.38c.13-1.27.3-2.6.49-4a23,23,0,0,0,.17-4.17A5.9,5.9,0,0,0,704.18,2836.48Zm-3.6,20.29.26-.15c.17-.07.36-.16.55-.26s.2-.07.31.09,0,.37-.07.4a2.24,2.24,0,0,0-.5.37c-.21.15-.42.3-.62.46C700.53,2857.37,700.56,2857.08,700.58,2856.77Zm-.81,1.5-1.3,1.1c-1.25,1-2.51,2.18-3.76,3.39a42.61,42.61,0,0,1-3.94,3.39,15.48,15.48,0,0,1-1.92,1.24,3.06,3.06,0,0,1-2.38.17,2.5,2.5,0,0,1-1.24-1.39,6.9,6.9,0,0,1-.43-2.15,10.6,10.6,0,0,1,.2-2.42,13.15,13.15,0,0,1,.66-2.24,9.55,9.55,0,0,1,2.75-4l.4-.18a1.94,1.94,0,0,1,.36-.11.16.16,0,0,0,.13,0h.43a1.42,1.42,0,0,1,.36,0,1.79,1.79,0,0,1,1,1.37,4.51,4.51,0,0,0,0,.9.62.62,0,0,1-.14.56.52.52,0,0,1-.45,0,1.17,1.17,0,0,1-.35-.35,1.8,1.8,0,0,1-.24-.48,2.33,2.33,0,0,0-.28-.52l-.06-.08-.09,0a4.09,4.09,0,0,0-1.79,1.71,12.76,12.76,0,0,0-1.08,2.45,10.46,10.46,0,0,0-.36,1.42,10.59,10.59,0,0,0-.18,1.6,5.31,5.31,0,0,0,.15,1.51,1.82,1.82,0,0,0,.8,1.12l0,0h0a4.44,4.44,0,0,0,2.36-.9c.57-.47,1.17-.91,1.78-1.32,1.19-.88,2.36-1.8,3.47-2.73l3.42-2.83c.27-.21.56-.43.84-.66s.59-.46.9-.67a2,2,0,0,1,.4-.29l-.06,1Zm4.14-16.39c-.19,1.35-.35,2.68-.49,3.95-.17,1.77-.34,3.57-.51,5.38s-.32,3.68-.46,5.49c-.2,3.24-.42,6.49-.66,9.66a89.91,89.91,0,0,0-.15,10.19,7.06,7.06,0,0,0,.05.73,7.09,7.09,0,0,1,0,.77,1.89,1.89,0,0,1-.1.65.28.28,0,0,1-.3.22.61.61,0,0,1-.76-.52,8.33,8.33,0,0,1-.22-1.31c-.07-.54-.11-1.07-.13-1.57s0-1-.08-1.37c0-1,0-2,0-3s0-2,0-2.87c0-3.53.14-6.95.34-10.23l.8-.6a2,2,0,0,1,.46-.34c.14-.07.35-.27.17-.74a.45.45,0,0,0-.65-.19c-.18.1-.36.18-.54.26l-.13.07c0-.76.1-1.53.17-2.27.36-4.41.85-8.89,1.42-13.34l.31-2.59a10.3,10.3,0,0,0,.13-1.27,1.5,1.5,0,0,1,.36-1h.15l.05-.05a.69.69,0,0,1,.75.56,5.27,5.27,0,0,1,.14,1.2A22.62,22.62,0,0,1,703.91,2841.88Z" transform="translate(-471.66 -2779.24)"/><path class="cls-4" d="M727.33,2865.28a.16.16,0,0,0-.17-.13h0l0,0a.53.53,0,0,0-.12.17,22.34,22.34,0,0,0-1.71,1.56,24.34,24.34,0,0,0-1.7,1.9c-.3.38-.62.8-.94,1.26a7.51,7.51,0,0,0-1.3,3.26,4.27,4.27,0,0,0,.18,1.92l0,0a4.23,4.23,0,0,0,.69.71,1.68,1.68,0,0,0,1,.31h0a3.72,3.72,0,0,0,2.14-.82,9.66,9.66,0,0,0,1.63-1.63,7.45,7.45,0,0,0,1-2,8.85,8.85,0,0,0,.46-2.31,7.13,7.13,0,0,0-.2-2.3A5.57,5.57,0,0,0,727.33,2865.28Zm.45,6.54a6.93,6.93,0,0,1-1,1.9,9.15,9.15,0,0,1-1.59,1.58,3.43,3.43,0,0,1-2,.77,1.43,1.43,0,0,1-.89-.26,3.91,3.91,0,0,1-.63-.65,4.06,4.06,0,0,1-.16-1.78,6.83,6.83,0,0,1,.45-1.68,7,7,0,0,1,.8-1.48c.32-.45.63-.87.94-1.24a22.09,22.09,0,0,1,1.67-1.88,22.53,22.53,0,0,1,1.73-1.57l0,0h0a5.31,5.31,0,0,1,.85,1.85,7,7,0,0,1,.2,2.23A8.82,8.82,0,0,1,727.78,2871.82Z" transform="translate(-471.66 -2779.24)"/><path class="cls-4" d="M721.65,2878h-.12v.23l.07,0h0a.17.17,0,0,0,.1,0,.18.18,0,0,0,.12-.16v-.3l-.21.21Zm0,.08v0Z" transform="translate(-471.66 -2779.24)"/><path class="cls-4" d="M738.7,2856.48l0,0a.79.79,0,0,0-.5-.15s0-.05,0-.08l0,0a.67.67,0,0,0-.7-.07.94.94,0,0,0-.42.49l-.07.22c-.7.35-1.37.72-2,1.1a15.62,15.62,0,0,0-1.92,1.28,22.78,22.78,0,0,0-2.49,1.87c-.73.63-1.51,1.25-2.31,1.83a8.22,8.22,0,0,0-.63-.71l-.79-.79-.82-.79a1.7,1.7,0,0,1-.52-.91,1.53,1.53,0,0,1,.26-1,4.75,4.75,0,0,1,.63-.8,4.18,4.18,0,0,1,1.39-1.15.93.93,0,0,1,.12.33c0,.14.14.37.53.3s.47-.49.51-.65a1.84,1.84,0,0,0,0-1,.92.92,0,0,0-.33-.43,1.18,1.18,0,0,1-.25-.25l0,0,0,0a1.66,1.66,0,0,0-.83-.11,6.29,6.29,0,0,0-.8.16,5,5,0,0,0-1.18.76,13.73,13.73,0,0,0-1,1,8.13,8.13,0,0,0-1,1.69,2.43,2.43,0,0,0-.21,1.28l-.81.95a15.26,15.26,0,0,0-1,1.13,10,10,0,0,1-1,1.06l-.46.46a5,5,0,0,1-.65.55,3.75,3.75,0,0,1-.72.42.9.9,0,0,1-.66.07.93.93,0,0,1-.62-.57c-.17-.35-.33-.7-.46-1s-.25-.76-.35-1.14-.19-.75-.26-1.09-.14-.78-.23-1.22a6.54,6.54,0,0,0-.33-1.22,3.24,3.24,0,0,0-.56-1,1.37,1.37,0,0,0-1-.47,1.47,1.47,0,0,0-1.33.5,6.79,6.79,0,0,1-.86.91c-.27.31-.53.64-.78,1l-.71,1.07c-.37.48-.74,1-1.1,1.54s-.71,1-1.1,1.53l-.33.54a1.14,1.14,0,0,1-.2.23c0-1.28.07-2.51.18-3.65s.26-2.41.43-3.59a5.57,5.57,0,0,1,.1-1.47,2.87,2.87,0,0,0,0-1.46l0,0a1.32,1.32,0,0,0-.28-.3.67.67,0,0,0-.56-.11.81.81,0,0,0-.57.39,3.23,3.23,0,0,0-.32.72,6.25,6.25,0,0,0-.18.86c0,.29-.07.55-.1.78-.13.7-.27,1.48-.41,2.33s-.24,1.7-.31,2.56a24.24,24.24,0,0,0,0,2.54,7,7,0,0,0,.42,2.18l0,0a2.22,2.22,0,0,0,.67.54,1.28,1.28,0,0,0,.65.16,2.58,2.58,0,0,0,.38,0h0a5.08,5.08,0,0,0,1.88-1.83q.68-1.14,1.38-2.25l.68-1.09c.22-.36.47-.72.74-1.09s.53-.73.79-1.07a2.86,2.86,0,0,1,.79-.72,7.56,7.56,0,0,1,.62,1.79c.15.73.32,1.43.48,2.1a10.05,10.05,0,0,0,.7,1.93,3.57,3.57,0,0,0,1.27,1.47,2.23,2.23,0,0,0,2.07,0,11.49,11.49,0,0,0,1.47-1.06,21.33,21.33,0,0,0,2.52-2.66l.54-.68a4.15,4.15,0,0,0,.35.57,8,8,0,0,0,.86,1c.3.31.61.61.92.9a5.78,5.78,0,0,1,.73.83c-.65.56-1.32,1.16-2,1.79a23.12,23.12,0,0,0-2,2.23,17.34,17.34,0,0,0-1.69,2.57,5.74,5.74,0,0,0-.68,3.33,3.87,3.87,0,0,0,.37,1.53,5.74,5.74,0,0,0,.85,1.22,4.7,4.7,0,0,0,.89.52,3.87,3.87,0,0,0,1.22.27h.18a5,5,0,0,0,2.86-.89,11.59,11.59,0,0,0,2.21-2,9.47,9.47,0,0,0,1.56-2.69,8.66,8.66,0,0,0,.51-3.31,7.61,7.61,0,0,0-.54-2.95,16.5,16.5,0,0,0-1.2-2.33c1.5-1.29,3.06-2.55,4.64-3.74l1.92-1.25a13,13,0,0,1,1.15-.69,20,20,0,0,0-.17,2.34c0,.81,0,1.6,0,2.36a10.24,10.24,0,0,0,.18,1.17,1.74,1.74,0,0,0,.42.85l0,0h.51l0,0a2.34,2.34,0,0,0,.57-1.56c0-.62,0-1.26,0-1.89s0-1.3,0-2,0-1.3,0-1.89c0-.08,0-.15,0-.23a.71.71,0,0,0,.33-.26.68.68,0,0,0,.07-.5Zm-1.58.51,0,0,.72-.35a.42.42,0,0,1,.15,0,.62.62,0,0,1,.05.27,2.44,2.44,0,0,0,0,.27l-.29.11a.7.7,0,0,0-.35.25l-.45.22c0-.1,0-.19,0-.31A2.35,2.35,0,0,1,737.12,2857Zm.38-.66a.4.4,0,0,1,.35,0l-.09,0-.54.28A.69.69,0,0,1,737.5,2856.33Zm-14,4.21a3.8,3.8,0,0,1-.16-.71c.2-.22.38-.45.57-.67.49-.55,1-1.15,1.46-1.76a3.58,3.58,0,0,0,.42-.69.48.48,0,0,1,.5-.29.46.46,0,0,1,.12.61,5.18,5.18,0,0,1-.42.68l-.51.68-.45.58-1.45,1.76C723.61,2860.67,723.58,2860.61,723.55,2860.54Zm0-2a7.64,7.64,0,0,1,1-1.62q.51-.55,1-1a4.55,4.55,0,0,1,1.09-.71,4.15,4.15,0,0,1,.75-.15h.18a1.33,1.33,0,0,1,.49.09,1.3,1.3,0,0,0,.29.28.72.72,0,0,1,.23.32,1.51,1.51,0,0,1,0,.9c-.06.3-.16.46-.27.47s-.26-.06-.27-.11a1.31,1.31,0,0,0-.23-.51l-.06-.08-.09,0a4,4,0,0,0-1,.65.71.71,0,0,0-.21-.93l0,0h0a.73.73,0,0,0-.79.42,3.58,3.58,0,0,1-.39.64c-.48.61-1,1.2-1.45,1.76l-.41.48A2.37,2.37,0,0,1,723.58,2858.57Zm-.75,3.16a20.88,20.88,0,0,1-2.48,2.64,13.22,13.22,0,0,1-1.44,1,2,2,0,0,1-1.83,0,3.27,3.27,0,0,1-1.15-1.36,8.74,8.74,0,0,1-.68-1.88c-.17-.67-.33-1.37-.49-2.09a7.4,7.4,0,0,0-.7-2L714,2858l-.11.06a3,3,0,0,0-1,.85c-.26.34-.52.7-.79,1.07s-.53.75-.75,1.11l-.69,1.09c-.46.73-.93,1.49-1.37,2.25a4.85,4.85,0,0,1-1.78,1.73,1.28,1.28,0,0,1-.84-.1,1.77,1.77,0,0,1-.58-.46,6.69,6.69,0,0,1-.4-2.08,23.67,23.67,0,0,1,0-2.51c.07-.85.17-1.71.31-2.54s.27-1.63.41-2.32c0-.24.06-.51.1-.8a4.59,4.59,0,0,1,.17-.82,2.9,2.9,0,0,1,.29-.66.59.59,0,0,1,.4-.27.43.43,0,0,1,.36.05,1,1,0,0,1,.22.24,2.66,2.66,0,0,1,.05,1.32,5.53,5.53,0,0,0-.11,1.51c-.17,1.16-.31,2.36-.43,3.58s-.18,2.52-.18,3.89v.18l.17-.07a1,1,0,0,0,.49-.43l.33-.52c.38-.49.75-1,1.1-1.54s.72-1,1.1-1.54.46-.71.71-1.06a9,9,0,0,1,.75-.95,8.73,8.73,0,0,0,.88-.93,1.24,1.24,0,0,1,1.11-.42,1.17,1.17,0,0,1,.81.4,2.79,2.79,0,0,1,.51.88,6.21,6.21,0,0,1,.33,1.17c.08.45.16.85.23,1.23s.16.72.26,1.1.22.78.36,1.17.29.69.46,1a1.17,1.17,0,0,0,.79.7,1.15,1.15,0,0,0,.83-.08,4.59,4.59,0,0,0,.76-.45,5.27,5.27,0,0,0,.68-.57l.45-.46a8.7,8.7,0,0,0,1-1.08,15,15,0,0,1,1-1.12l.66-.78a3.51,3.51,0,0,0,.15.53,3.27,3.27,0,0,0,.14.33Zm12.55-3.11c-.63.42-1.27.84-1.92,1.25-1.62,1.22-3.22,2.51-4.75,3.83l-.08.07.06.1a16.14,16.14,0,0,1,1.24,2.37,7.38,7.38,0,0,1,.52,2.87,8.14,8.14,0,0,1-.5,3.21,9.19,9.19,0,0,1-1.51,2.62,11.13,11.13,0,0,1-2.17,1.91,4.6,4.6,0,0,1-2.87.85,3.71,3.71,0,0,1-1.14-.25,4.19,4.19,0,0,1-.82-.48,5.25,5.25,0,0,1-.8-1.14,3.72,3.72,0,0,1-.34-1.44,5.51,5.51,0,0,1,.65-3.19,17.34,17.34,0,0,1,1.67-2.53,20.42,20.42,0,0,1,2-2.21c.69-.65,1.38-1.28,2.06-1.85l.09-.08-.07-.09a5.84,5.84,0,0,0-.83-1l-.92-.89a11,11,0,0,1-.83-1,3.68,3.68,0,0,1-.37-.64c.48-.6,1-1.2,1.44-1.76a1.73,1.73,0,0,0,0,.51,1.85,1.85,0,0,0,.6,1.06c.3.29.58.55.81.79l.79.79a7,7,0,0,1,.68.78l.07.1.1-.07c.85-.62,1.67-1.26,2.43-1.92a22.45,22.45,0,0,1,2.47-1.86,19.61,19.61,0,0,1,1.9-1.27c.58-.34,1.19-.67,1.81-1l0,.21c0,.18,0,.33-.07.48A14.1,14.1,0,0,0,735.38,2858.62Zm2.65.8c0,.68,0,1.35,0,2s0,1.26,0,1.88a2.16,2.16,0,0,1-.47,1.36h-.3a1.64,1.64,0,0,1-.31-.69,6.51,6.51,0,0,1-.18-1.13c0-.74,0-1.53,0-2.33a20.5,20.5,0,0,1,.17-2.38s0-.07,0-.1c.2-.11.41-.22.63-.32l0,0,0,0a.45.45,0,0,1,.24-.18l.2-.07a.53.53,0,0,0,0,.13C738,2858.1,738,2858.74,738,2859.42Zm.4-2.53a.23.23,0,0,1-.11.08.34.34,0,0,1,0-.1,1,1,0,0,0,0-.3.64.64,0,0,1,.18.06A.35.35,0,0,1,738.43,2856.89Z" transform="translate(-471.66 -2779.24)"/><path class="cls-4" d="M737.62,2847.38a1,1,0,0,0,.28,0h0a1.27,1.27,0,0,0,.46-.9v0c0-.18-.22-.34-.52-.49h0a.69.69,0,0,0-.87.77.85.85,0,0,0,.23.55A.54.54,0,0,0,737.62,2847.38Zm-.29-1.15a.43.43,0,0,1,.34-.12h.11a.75.75,0,0,1,.37.3,1.07,1.07,0,0,1-.33.69c-.32.07-.41,0-.44-.07a.8.8,0,0,1-.18-.42A.5.5,0,0,1,737.33,2846.23Z" transform="translate(-471.66 -2779.24)"/><path class="cls-4" d="M755.67,2856.42h-.06a1.48,1.48,0,0,0-.39.11.9.9,0,0,0-.17-.32l0,0a.69.69,0,0,0-.71-.07.88.88,0,0,0-.41.49,2.93,2.93,0,0,0-.19.75c0,.09,0,.15,0,.24l-.34.17a3,3,0,0,1-.94.29,3.24,3.24,0,0,1-1.11-.07,4.69,4.69,0,0,1-.92-.35l-.87-.43a3.79,3.79,0,0,0-1-.32,1.9,1.9,0,0,0-1.09.11,5.18,5.18,0,0,0-.86.49,5.41,5.41,0,0,0-1,1.54l-.82,1.81c-.27.65-.53,1.28-.79,1.89-.19.45-.37.9-.55,1.34a29.56,29.56,0,0,1-.15-3.08v-3.77c0-.39,0-.79,0-1.19a1.15,1.15,0,0,0-.43-1.05l0,0h0l-.24,0a.3.3,0,0,0-.32.11,1.06,1.06,0,0,0-.33.56,7.44,7.44,0,0,0-.18.83,7.7,7.7,0,0,0-.1.94c0,.3-.05.57-.08.81-.07,1.18-.11,2.37-.13,3.55a20.92,20.92,0,0,0,.23,3.41,6.08,6.08,0,0,0,.42,1.54,1,1,0,0,0,1,.69,1.53,1.53,0,0,0,.3,0,1.33,1.33,0,0,0,1-.87c.2-.45.37-.88.51-1.25s.33-.92.46-1.33.29-.81.46-1.22.33-.81.48-1.2.33-.78.53-1.19.38-.74.62-1.19a1,1,0,0,1,.82-.68,1.35,1.35,0,0,1,.79.19,3.59,3.59,0,0,0,.89.37,5.59,5.59,0,0,0,2.47.28,4.76,4.76,0,0,0,1.17-.26c0,.49-.07,1-.08,1.49,0,.81,0,1.6,0,2.36a8.41,8.41,0,0,0,.19,1.17,1.74,1.74,0,0,0,.41.85l0,0h.51l0,0a2.34,2.34,0,0,0,.57-1.56c0-.62,0-1.26,0-1.89s0-1.3,0-2c0-.53,0-1,0-1.51a2.65,2.65,0,0,0,.26-.21,1.68,1.68,0,0,0,.36-.56.65.65,0,0,0-.12-.65Zm-1.77,1.34.45-.23a1.54,1.54,0,0,0,.65-.54c0,.17,0,.34,0,.53a2.09,2.09,0,0,1,0,.25,1,1,0,0,1-.16.13,2.84,2.84,0,0,0-.44.34,3.48,3.48,0,0,1-.56.34c0-.15,0-.32,0-.47S753.89,2857.87,753.9,2857.76Zm.06-.37a2.5,2.5,0,0,1,.17-.68.73.73,0,0,1,.3-.38.44.44,0,0,1,.44.07.63.63,0,0,1,.12.28.74.74,0,0,0-.19.16,1.32,1.32,0,0,1-.56.47l-.29.15A.15.15,0,0,1,754,2857.39Zm-1.64,1.62a5.48,5.48,0,0,1-2.38-.28,3.21,3.21,0,0,1-.84-.35,1.47,1.47,0,0,0-.94-.21,1.27,1.27,0,0,0-1,.8l-.61,1.2c-.2.41-.39.82-.54,1.21s-.31.79-.48,1.2a12.28,12.28,0,0,0-.46,1.23c-.14.41-.29.85-.46,1.32s-.31.79-.51,1.24a1.07,1.07,0,0,1-.77.72.82.82,0,0,1-1-.51,5.9,5.9,0,0,1-.4-1.48,20.43,20.43,0,0,1-.23-3.37c0-1.17.06-2.36.13-3.52,0-.24.06-.52.08-.83a7.23,7.23,0,0,1,.1-.91,7.44,7.44,0,0,1,.17-.8.81.81,0,0,1,.26-.44l0-.05h.07l.23,0a.92.92,0,0,1,.3.82c0,.4,0,.81,0,1.2V2861a30.31,30.31,0,0,0,.2,3.59l.06.47.18-.44.74-1.78.79-1.89c.27-.61.55-1.21.82-1.81a4.86,4.86,0,0,1,1-1.45,4,4,0,0,1,.79-.45,1.64,1.64,0,0,1,.94-.09,3.32,3.32,0,0,1,.89.29l.87.44a4.93,4.93,0,0,0,1,.36,3.47,3.47,0,0,0,1.2.08,3.58,3.58,0,0,0,1-.32l.17-.09s0,.12,0,.17c0,.21-.05.42-.07.63A4.29,4.29,0,0,1,752.32,2859Zm2.64.41c0,.68,0,1.35,0,2s0,1.26,0,1.88a2.11,2.11,0,0,1-.47,1.36h-.3a1.64,1.64,0,0,1-.31-.69,9.22,9.22,0,0,1-.18-1.13c0-.74,0-1.53,0-2.33,0-.55.05-1.09.1-1.62a3.51,3.51,0,0,0,.75-.44,3,3,0,0,1,.42-.32h0Q754.95,2858.73,755,2859.42Zm.64-2.37a1.22,1.22,0,0,1-.3.46l-.07.06v-.05c0-.23,0-.44,0-.65,0,0,0-.06,0-.09a1.26,1.26,0,0,1,.31-.09A.39.39,0,0,1,755.6,2857.05Z" transform="translate(-471.66 -2779.24)"/><path class="cls-4" d="M754.56,2847.38a.93.93,0,0,0,.27,0h0a1.24,1.24,0,0,0,.46-.9v0c0-.18-.21-.34-.52-.49h0a.72.72,0,0,0-.7.19.75.75,0,0,0-.18.58,1,1,0,0,0,.23.55A.56.56,0,0,0,754.56,2847.38Zm-.3-1.15a.43.43,0,0,1,.34-.12h.12c.25.13.34.24.36.3a1.07,1.07,0,0,1-.33.69c-.31.07-.41,0-.44-.07a.71.71,0,0,1-.17-.42A.46.46,0,0,1,754.26,2846.23Z" transform="translate(-471.66 -2779.24)"/><path class="cls-4" d="M792.65,2855.32l0,0,0,0a.84.84,0,0,0-1.09.37,2.21,2.21,0,0,1-.6.72l-1.25,1.55c-1.27,1.55-2.53,3.1-3.75,4.62s-2.33,2.81-3.51,4.1c.21-1.37.41-2.92.6-4.62.2-1.85.38-3.69.56-5.49,0-.58.07-1.23.13-2a2.9,2.9,0,0,0-.3-1.73c-.29-.53-.66-.55-.92-.46a2.35,2.35,0,0,0-1.29,1.15,5.06,5.06,0,0,1-1,1.32l0,0a15.6,15.6,0,0,1-1,1.34c-.34.43-.67.89-1,1.35-.71.88-1.39,1.8-2,2.74a6.54,6.54,0,0,1-2.32,2.11,3,3,0,0,1-.3-1.36q0-.91,0-1.83a6.87,6.87,0,0,1,.08-.93,7.57,7.57,0,0,0,.07-1,2.63,2.63,0,0,0-.13-.88.59.59,0,0,0-.59-.44h0a.89.89,0,0,0-.91.47,3.27,3.27,0,0,0-.4,1c-.08.33-.15.67-.21,1l-.38.62c-.35.58-.67,1.14-1,1.69-1.16,1.94-2.3,3.89-3.4,5.78a48.09,48.09,0,0,1-3.64,5.43c-.06.1-.17.25-.32.45a5.37,5.37,0,0,1-.5.57,4.59,4.59,0,0,1-.55.48.58.58,0,0,1-.45.13c-.25,0-.44-.29-.58-.78s-.26-1-.33-1.37a10,10,0,0,1-.2-1.51c0-.53,0-1,0-1.47a61.75,61.75,0,0,1,.53-9.06c.39-2.84.82-5.67,1.29-8.42,3-.17,6-.34,9.13-.53s6.28-.21,9.4-.08a2.8,2.8,0,0,0,.61.06c.17,0,.45-.07.51-.52v-.06a.56.56,0,0,0-.51-.36l-.57,0a69.28,69.28,0,0,0-9.45-.05c-3.09.2-6.11.36-9,.46.16-.62.31-1.3.47-2.07s.34-1.57.51-2.32c0-.17.08-.35.13-.55a3.37,3.37,0,0,0,.1-.61.88.88,0,0,0-.12-.56.62.62,0,0,0-.59-.26.92.92,0,0,0-.79.54,3.58,3.58,0,0,0-.39.86,20.68,20.68,0,0,0-.9,2.69c-.24.93-.47,1.75-.66,2.44-1.6.07-3.23.19-4.87.35s-3.29.31-4.9.41a4.65,4.65,0,0,1-.69.05.49.49,0,0,0-.54.55.51.51,0,0,0,.57.49c.26,0,.48,0,.68,0,1.68-.07,3.34-.19,4.93-.36s3.09-.28,4.6-.35c-.39,1.9-.73,3.9-1,5.94s-.52,4.35-.69,6.62c-.07,1.12-.1,2.28-.1,3.45a22.34,22.34,0,0,0,.25,3.41,14.64,14.64,0,0,0,.7,2.9,2.36,2.36,0,0,0,2.4,2.05,3.66,3.66,0,0,0,.57-.05h0a5.61,5.61,0,0,0,2.14-1.78c.55-.75,1.08-1.52,1.58-2.3s1-1.58,1.46-2.37.94-1.61,1.4-2.37c.85-1.44,1.66-2.9,2.4-4.35l.65-1.21c0,.2,0,.4.06.59a4.84,4.84,0,0,0,.66,1.78,2,2,0,0,0,1.33,1H774a1.3,1.3,0,0,0,.46-.17.87.87,0,0,1,.36-.14h0l0,0a13.39,13.39,0,0,0,1.93-2.05c.56-.76,1.1-1.54,1.61-2.33s1-1.56,1.5-2.43a21.06,21.06,0,0,1,1.6-2.28,7.86,7.86,0,0,0,.5-.7,1.23,1.23,0,0,1,.22-.3c-.27,2.58-.62,5.11-1,7.53s-.9,5-1.37,7.51c-1.11,1.28-2.21,2.62-3.27,4a47.27,47.27,0,0,0-3,4.35l-1.22,2.25a25.08,25.08,0,0,0-1.23,2.61,19.3,19.3,0,0,0-.77,2.39,13.45,13.45,0,0,0-.44,2.7,6.36,6.36,0,0,0,.31,2.47,2.7,2.7,0,0,0,1.6,1.64,3.74,3.74,0,0,0,.55,0,2.65,2.65,0,0,0,.5,0,7.39,7.39,0,0,0,.88-.27,6.39,6.39,0,0,0,1.95-1.85c.49-.74,1-1.5,1.41-2.28a34.23,34.23,0,0,0,3-8.27c.69-3,1.32-6.15,1.86-9.28,1.79-2.12,3.56-4.27,5.26-6.38s3.4-4.3,5.09-6.57a1.51,1.51,0,0,1,.32-.4A.54.54,0,0,0,792.65,2855.32Zm-21,3.18c.22-.35.46-.7.71-1.06a4.68,4.68,0,0,1,.45-.57c.17-.19.29-.18.36-.15a.31.31,0,0,1,.17.17.39.39,0,0,1-.07.29,6.19,6.19,0,0,1-.41.64c-.46.77-.9,1.55-1.33,2.33,0-.21,0-.41,0-.63S771.64,2858.84,771.69,2858.5Zm.22-1.05a2.85,2.85,0,0,1,.36-.93.69.69,0,0,1,.69-.35.35.35,0,0,1,.36.27s0,0,0,.07l0,0a.57.57,0,0,0-.65.21,6.51,6.51,0,0,0-.47.6c-.13.18-.24.36-.37.55C771.85,2857.71,771.87,2857.58,771.91,2857.45Zm-1.41,4.71c-.74,1.44-1.54,2.9-2.39,4.33-.47.76-.94,1.56-1.41,2.37s-.94,1.59-1.45,2.37-1,1.54-1.57,2.29a5.35,5.35,0,0,1-2,1.68,2.7,2.7,0,0,1-1,0,3.06,3.06,0,0,1-1.7-1.84,14.94,14.94,0,0,1-.68-2.86,21.82,21.82,0,0,1-.25-3.37c0-1.17,0-2.32.1-3.43.17-2.27.4-4.49.69-6.6s.63-4.15,1-6.09l0-.15h-.16c-1.57.07-3.17.19-4.77.36s-3.24.29-4.91.36c-.2,0-.43,0-.7,0s-.27-.06-.3-.26.08-.28.29-.28a4.87,4.87,0,0,0,.72-.05c1.6-.1,3.25-.24,4.9-.41s3.32-.29,4.94-.36H760l0-.09c.2-.7.44-1.55.69-2.52a21,21,0,0,1,.89-2.68,4.18,4.18,0,0,1,.37-.81.69.69,0,0,1,.58-.42c.2,0,.32,0,.38.14a.69.69,0,0,1,.09.41,4.28,4.28,0,0,1-.1.57c0,.2-.1.39-.13.56-.17.75-.34,1.52-.51,2.32s-.34,1.56-.51,2.22l0,.16h.17c2.9-.1,6-.25,9.13-.46a69,69,0,0,1,9.43.05l.55,0a.34.34,0,0,1,.29.17c0,.23-.15.27-.26.27a3.48,3.48,0,0,1-.58,0,93.07,93.07,0,0,0-9.45.07l-9.23.54h-.1v.1c-.48,2.79-.92,5.65-1.3,8.52a61,61,0,0,0-.54,9.1c0,.45,0,.95,0,1.49a10.43,10.43,0,0,0,.2,1.54c.07.38.19.85.34,1.39s.43.92.78.95a.76.76,0,0,0,.64-.17,5.1,5.1,0,0,0,.57-.5,4.86,4.86,0,0,0,.52-.6,4.5,4.5,0,0,0,.33-.46,48.41,48.41,0,0,0,3.66-5.44c1.1-1.9,2.24-3.85,3.39-5.79l1-1.68.1-.17c0,.17,0,.33,0,.5a8.41,8.41,0,0,0,0,1.12C771,2861.14,770.76,2861.65,770.5,2862.16Zm21.91-6.28a1.77,1.77,0,0,0-.38.45c-1.67,2.25-3.37,4.45-5.07,6.55s-3.48,4.26-5.28,6.4l0,0v0c-.54,3.14-1.17,6.27-1.86,9.31a33.51,33.51,0,0,1-3,8.2c-.44.77-.91,1.53-1.4,2.26a6,6,0,0,1-1.85,1.76,6.71,6.71,0,0,1-.83.25,2.18,2.18,0,0,1-.92,0,2.41,2.41,0,0,1-1.43-1.48,6.09,6.09,0,0,1-.3-2.38,13.06,13.06,0,0,1,.43-2.65,19.18,19.18,0,0,1,.76-2.35,25.8,25.8,0,0,1,1.22-2.59c.44-.82.85-1.57,1.22-2.24a47.94,47.94,0,0,1,3-4.32q1.61-2,3.29-4l0,0v0c.47-2.5.93-5,1.37-7.55s.81-5.14,1.08-7.81l0-.21-.19.08a1.22,1.22,0,0,0-.55.54,6.05,6.05,0,0,1-.47.67,21.19,21.19,0,0,0-1.62,2.31c-.53.87-1,1.66-1.5,2.42s-1,1.57-1.6,2.32a12.6,12.6,0,0,1-1.87,2,1.27,1.27,0,0,0-.42.17,1.15,1.15,0,0,1-.34.13h-.54a1.69,1.69,0,0,1-1.14-.83,4.66,4.66,0,0,1-.62-1.69,7.11,7.11,0,0,1-.11-.94c.5-.91,1-1.82,1.54-2.71.08-.11.19-.29.32-.49a7.39,7.39,0,0,1-.06.78,7.27,7.27,0,0,0-.08,1c0,.61,0,1.23,0,1.84a3.22,3.22,0,0,0,.4,1.59l.06.1.1-.06a6.78,6.78,0,0,0,2.52-2.26c.63-.92,1.3-1.84,2-2.73.3-.46.62-.91,1-1.34s.66-.88,1-1.35a5.27,5.27,0,0,0,1-1.37,2.1,2.1,0,0,1,1.15-1c.16-.05.39-.07.62.36a2.65,2.65,0,0,1,.27,1.58c-.06.73-.1,1.39-.13,2-.17,1.79-.36,3.64-.56,5.48s-.43,3.56-.66,5l-.07.41.28-.3c1.28-1.38,2.56-2.87,3.81-4.42s2.48-3.08,3.74-4.62l1.22-1.51a2.57,2.57,0,0,0,.66-.8.57.57,0,0,1,.75-.26A.29.29,0,0,1,792.41,2855.88Z" transform="translate(-471.66 -2779.24)"/><path class="cls-4" d="M779.33,2871.68h-.06l0,.05c-.91,1.18-1.83,2.43-2.73,3.73a41.1,41.1,0,0,0-2.53,4.14,28.89,28.89,0,0,0-1.54,3.33,15.06,15.06,0,0,0-.92,4,8.18,8.18,0,0,0,0,1.4,1.51,1.51,0,0,0,.72,1.21l0,0,.07,0a3.91,3.91,0,0,0,1.68-1.44,19.15,19.15,0,0,0,1.13-2,34.75,34.75,0,0,0,2.56-6.83c.64-2.45,1.24-4.95,1.79-7.45A.17.17,0,0,0,779.33,2871.68Zm-1.85,7.57a34.48,34.48,0,0,1-2.54,6.78,20.59,20.59,0,0,1-1.12,1.95,3.66,3.66,0,0,1-1.51,1.33,1.28,1.28,0,0,1-.55-1,7.72,7.72,0,0,1,0-1.36,14.64,14.64,0,0,1,.91-3.94,26.15,26.15,0,0,1,1.52-3.3h0a39,39,0,0,1,2.52-4.12c.81-1.17,1.64-2.31,2.47-3.39C778.66,2874.56,778.08,2876.93,777.48,2879.25Z" transform="translate(-471.66 -2779.24)"/></g><path class="cls-4" d="M660.25,2859.26a9.82,9.82,0,0,0-.66,1.86,8.39,8.39,0,0,0-.31,2.24,3.82,3.82,0,0,0,.46,1.92,1.81,1.81,0,0,0,1.63.86,5,5,0,0,0,2.53-.56c.79-.41,1.48-.8,2.06-1.17s1.32-.94,1.91-1.4,1.13-.91,1.61-1.35a26.29,26.29,0,0,0,2.52-2.2c.8-.78,1.59-1.58,2.38-2.39a1.38,1.38,0,0,0,.33-.41,3.92,3.92,0,0,1,.38-.56,3,3,0,0,1,.43-.44.41.41,0,0,1,.49,0c.24.1.29.3.15.61a2.68,2.68,0,0,1-.36.66,1.68,1.68,0,0,1-.3.56c-.14.17-.27.36-.41.56a35.66,35.66,0,0,1-2.68,2.81c-.93.88-1.89,1.77-2.88,2.65a21.21,21.21,0,0,1-4.28,3.06,11,11,0,0,1-1.28.59,7.36,7.36,0,0,1-1.48.41,6.69,6.69,0,0,1-1.55.07,3,3,0,0,1-1.46-.46,2.2,2.2,0,0,1-.53-.48l-.49-.59a4.9,4.9,0,0,1-.63-2.17,9.94,9.94,0,0,1,.15-2.42,16.26,16.26,0,0,1,1.45-4.23,22.67,22.67,0,0,1,2-3,6,6,0,0,1,3.11-1.94,2.47,2.47,0,0,1,1.71.46,1.74,1.74,0,0,1,.54,1.63,3.28,3.28,0,0,1-.61,1.53,10.65,10.65,0,0,1-1.07,1.28,12,12,0,0,1-2,1.61A4.24,4.24,0,0,1,660.25,2859.26Zm4.74-5.46a5.4,5.4,0,0,0-2.7,1.86,18.59,18.59,0,0,0-1.73,2.83,3.15,3.15,0,0,0,1.88-.51,13,13,0,0,0,1.33-1.07c.37-.41.76-.81,1.17-1.22a2.17,2.17,0,0,0,.56-1.73A.55.55,0,0,0,665,2853.8Z" transform="translate(-471.66 -2779.24)"/><path class="cls-4" d="M684.88,2854.62a.37.37,0,0,1-.41-.41c-1.32,1.43-2.57,2.91-3.74,4.46s-2.32,3.14-3.45,4.77c.21.55.42,1.06.64,1.56a12.38,12.38,0,0,0,.74,1.4c.14.2.28.42.43.66s.32.47.49.69a2.16,2.16,0,0,0,.59.54,1.4,1.4,0,0,0,.73.2.78.78,0,0,0,.72-.38.8.8,0,0,1,.71-.39.82.82,0,0,1,.56.41,1.72,1.72,0,0,1-.61,1.25,4.54,4.54,0,0,1-1.22.64,3.74,3.74,0,0,1-1.92-.46,5.15,5.15,0,0,1-1.35-1.15,10,10,0,0,1-1-1.48l-.84-1.5q-2,3.06-4.21,6.35a36.93,36.93,0,0,0-3.7,7,4,4,0,0,0-.2.54c-.07.22-.15.44-.23.66a3.24,3.24,0,0,1-.28.56.44.44,0,0,1-.36.23c-.27,0-.41-.17-.41-.41a2.9,2.9,0,0,1,.1-.71,37.78,37.78,0,0,1,1.76-4.34c.67-1.36,1.37-2.66,2.12-3.92s1.52-2.49,2.32-3.7,1.59-2.44,2.37-3.7c-.2-.51-.41-1.11-.61-1.81s-.38-1.43-.53-2.19a22.87,22.87,0,0,1-.36-2.3,8.67,8.67,0,0,1,0-2.22,2.24,2.24,0,0,1,.41-1,1.28,1.28,0,0,0,.26-.1,2.16,2.16,0,0,1,.25-.1.78.78,0,0,1,.84.28,1.76,1.76,0,0,1,.34.79.55.55,0,0,1,0,.31.74.74,0,0,0-.06.25,7,7,0,0,0,.08,1.56c.08.56.16,1.08.23,1.55a14.9,14.9,0,0,0,.28,1.51c.12.49.23.92.33,1.3.89-1.19,1.88-2.54,3-4.06s2.2-2.88,3.29-4.1c.37-.41.81-.85,1.32-1.33a3.85,3.85,0,0,1,1.48-.92.77.77,0,0,1,.56,0,.56.56,0,0,1,.31.38,1,1,0,0,1-.23.87l-.54.66c-.17.28-.33.51-.48.72A3.56,3.56,0,0,1,684.88,2854.62Z" transform="translate(-471.66 -2779.24)"/><path class="cls-4" d="M691.05,2858a.63.63,0,0,1-.58-.05,1.41,1.41,0,0,1-.39-.38,2.42,2.42,0,0,1-.25-.51,1.57,1.57,0,0,0-.26-.48,4,4,0,0,0-1.73,1.65,12.55,12.55,0,0,0-1.07,2.43,9.77,9.77,0,0,0-.36,1.4,10.62,10.62,0,0,0-.18,1.58,5.42,5.42,0,0,0,.16,1.48,1.64,1.64,0,0,0,.74,1,4.26,4.26,0,0,0,2.29-.86,20.72,20.72,0,0,1,1.79-1.33q1.78-1.32,3.46-2.73l3.42-2.83q.4-.3.84-.66a10.75,10.75,0,0,1,.89-.66,1.78,1.78,0,0,1,.44-.31c.18-.1.36-.2.53-.31a4.23,4.23,0,0,0,.54-.25.33.33,0,0,1,.48.15c.11.27.06.46-.12.56a2.7,2.7,0,0,0-.49.36q-.72.51-1.35,1c-.43.35-.86.72-1.3,1.09q-1.89,1.59-3.75,3.39a42.84,42.84,0,0,1-3.95,3.4,17.07,17.07,0,0,1-1.94,1.25,3.18,3.18,0,0,1-2.5.17,2.62,2.62,0,0,1-1.3-1.45,6.88,6.88,0,0,1-.43-2.19,9.77,9.77,0,0,1,.2-2.45,13.52,13.52,0,0,1,.66-2.27,9.61,9.61,0,0,1,2.81-4l.41-.18a2,2,0,0,1,.41-.13s.05,0,.05,0,0,0,0,0h.46a1.83,1.83,0,0,1,.4,0,2,2,0,0,1,1.13,1.48,3.38,3.38,0,0,0,0,.9A.72.72,0,0,1,691.05,2858Z" transform="translate(-471.66 -2779.24)"/><path class="cls-4" d="M703.09,2835.9l0-.05a.83.83,0,0,1,.92.66,5.64,5.64,0,0,1,.15,1.23,21.86,21.86,0,0,1-.18,4.15c-.19,1.35-.35,2.66-.48,4-.17,1.76-.34,3.56-.51,5.38s-.33,3.64-.46,5.48q-.32,4.85-.66,9.66a92,92,0,0,0-.16,10.18,6.72,6.72,0,0,0,0,.71,5.41,5.41,0,0,1,.05.79,2.09,2.09,0,0,1-.1.69.41.41,0,0,1-.41.31.73.73,0,0,1-.89-.62,8.73,8.73,0,0,1-.23-1.32c-.06-.55-.11-1.07-.13-1.58s0-1-.07-1.38q0-1.53,0-3c0-1,0-2,0-2.89q0-7.38.61-14.05t1.43-13.33l.3-2.6a10.38,10.38,0,0,0,.13-1.25,1.69,1.69,0,0,1,.44-1.1Z" transform="translate(-471.66 -2779.24)"/><path class="cls-4" d="M707.47,2864.21a1,1,0,0,0,.44-.39c.12-.18.23-.36.33-.53.37-.48.74-1,1.1-1.53a18.76,18.76,0,0,1,1.09-1.53c.24-.38.48-.73.72-1.07a9,9,0,0,1,.76-1,6.94,6.94,0,0,0,.87-.92,1.36,1.36,0,0,1,1.22-.46,1.31,1.31,0,0,1,.9.43,3.17,3.17,0,0,1,.53.92,6.54,6.54,0,0,1,.33,1.2c.09.44.16.85.23,1.22s.15.71.26,1.1.22.78.35,1.15.29.69.46,1a1.05,1.05,0,0,0,.72.64,1.08,1.08,0,0,0,.74-.07,5.15,5.15,0,0,0,.74-.44,7,7,0,0,0,.66-.56l.46-.46a10.27,10.27,0,0,0,1-1.07,12.93,12.93,0,0,1,1-1.12c.47-.58,1-1.15,1.45-1.71s1-1.15,1.45-1.76a3.28,3.28,0,0,0,.41-.66.62.62,0,0,1,.67-.36.59.59,0,0,1,.17.79,4,4,0,0,1-.43.69q-.25.36-.51.69l-.46.58c-.71.86-1.46,1.77-2.24,2.76a21.1,21.1,0,0,1-2.5,2.65,13.48,13.48,0,0,1-1.45,1.05,2.15,2.15,0,0,1-2,0,3.5,3.5,0,0,1-1.2-1.4,9.61,9.61,0,0,1-.69-1.91c-.17-.68-.33-1.38-.48-2.09a7.18,7.18,0,0,0-.69-1.94,2.82,2.82,0,0,0-.94.81c-.26.34-.52.7-.79,1.07s-.52.74-.74,1.1l-.69,1.1c-.48.75-.94,1.49-1.38,2.24a4.84,4.84,0,0,1-1.83,1.79,1.41,1.41,0,0,1-1-.11,2,2,0,0,1-.63-.51,6.46,6.46,0,0,1-.41-2.14,19.45,19.45,0,0,1,0-2.52q.11-1.3.3-2.55c.14-.83.28-1.61.41-2.32,0-.24.07-.5.11-.79a4.63,4.63,0,0,1,.17-.84,2.79,2.79,0,0,1,.31-.69.67.67,0,0,1,.48-.33.55.55,0,0,1,.46.07,1.69,1.69,0,0,1,.26.28,2.87,2.87,0,0,1,.05,1.4,5.47,5.47,0,0,0-.1,1.51c-.17,1.16-.32,2.35-.44,3.57S707.47,2862.85,707.47,2864.21Z" transform="translate(-471.66 -2779.24)"/><path class="cls-4" d="M727.72,2856.61a4.14,4.14,0,0,0-1.53,1.22,5.73,5.73,0,0,0-.64.82,1.67,1.67,0,0,0-.28,1.07,1.84,1.84,0,0,0,.56,1l.82.79c.27.28.54.54.79.79a7.09,7.09,0,0,1,.69.79c.85-.61,1.66-1.25,2.42-1.91a23.58,23.58,0,0,1,2.48-1.86,18.11,18.11,0,0,1,1.91-1.28c.69-.4,1.42-.79,2.17-1.17l.71-.36a.7.7,0,0,1,.76.06.48.48,0,0,1-.05.4.54.54,0,0,1-.3.23l-.41.16a.57.57,0,0,0-.31.23,15,15,0,0,0-2.06,1.14c-.63.43-1.27.84-1.91,1.25-1.64,1.23-3.22,2.5-4.75,3.83a15,15,0,0,1,1.25,2.39,7.4,7.4,0,0,1,.54,2.91,8.64,8.64,0,0,1-.51,3.27,9.66,9.66,0,0,1-1.53,2.65,11.49,11.49,0,0,1-2.2,1.94,4.74,4.74,0,0,1-3,.86,3.64,3.64,0,0,1-1.18-.25,5,5,0,0,1-.86-.51,5.58,5.58,0,0,1-.82-1.18,3.92,3.92,0,0,1-.36-1.47,5.6,5.6,0,0,1,.67-3.27,17.61,17.61,0,0,1,1.68-2.55,24.2,24.2,0,0,1,2-2.22q1.05-1,2.07-1.86a6.07,6.07,0,0,0-.82-.94l-.91-.89a9.67,9.67,0,0,1-.85-1,3.9,3.9,0,0,1-.58-1.13,2.62,2.62,0,0,1,0-2.06,8.12,8.12,0,0,1,1-1.66q.51-.56,1-1a4.63,4.63,0,0,1,1.15-.74,5.5,5.5,0,0,1,.77-.16,1.4,1.4,0,0,1,.76.11,1.24,1.24,0,0,0,.28.28.81.81,0,0,1,.28.38,1.74,1.74,0,0,1,0,1c-.09.37-.22.56-.39.56s-.37,0-.4-.2A1.21,1.21,0,0,0,727.72,2856.61Zm-.66,8.82a22.71,22.71,0,0,0-1.73,1.58,24.08,24.08,0,0,0-1.69,1.89c-.3.37-.62.79-.94,1.25a7.75,7.75,0,0,0-.82,1.5,7.57,7.57,0,0,0-.46,1.71,4.28,4.28,0,0,0,.18,1.86,4.36,4.36,0,0,0,.66.69,1.53,1.53,0,0,0,1,.28,3.55,3.55,0,0,0,2.07-.79,9.08,9.08,0,0,0,1.61-1.61,7,7,0,0,0,1-1.93,8.64,8.64,0,0,0,.46-2.27,7.51,7.51,0,0,0-.2-2.27,5.48,5.48,0,0,0-.95-2s0,0-.05,0A.25.25,0,0,0,727.06,2865.43Zm-5.41,12.7s0,0,.1-.05S721.72,2878.13,721.65,2878.13Z" transform="translate(-471.66 -2779.24)"/><path class="cls-4" d="M738,2856.3a.74.74,0,0,1,.18.56c0,.21,0,.43,0,.66q-.06.87,0,1.89c0,.68,0,1.34,0,2s0,1.28,0,1.89a2.24,2.24,0,0,1-.53,1.48h-.41a1.72,1.72,0,0,1-.39-.79,7.94,7.94,0,0,1-.17-1.15c0-.75,0-1.53,0-2.35a23.36,23.36,0,0,1,.18-2.39c0-.21.07-.45.1-.72a3.19,3.19,0,0,1,.18-.71.85.85,0,0,1,.36-.44A.61.61,0,0,1,738,2856.3Zm.26-9.89a1.18,1.18,0,0,1-.41.81.55.55,0,0,1-.59-.1.9.9,0,0,1-.2-.48.62.62,0,0,1,.15-.49.64.64,0,0,1,.59-.15C738.09,2846.13,738.24,2846.27,738.28,2846.41Z" transform="translate(-471.66 -2779.24)"/><path class="cls-4" d="M742.77,2855.08a1,1,0,0,1,.38.94c0,.43,0,.82,0,1.2V2861a28,28,0,0,0,.21,3.57c.24-.57.48-1.17.74-1.78s.51-1.24.79-1.89l.81-1.81a5.35,5.35,0,0,1,1-1.5,4.27,4.27,0,0,1,.82-.46,1.75,1.75,0,0,1,1-.11,4.14,4.14,0,0,1,.92.31l.86.43a4.22,4.22,0,0,0,1,.36,3.44,3.44,0,0,0,1.15.08,3.21,3.21,0,0,0,1-.31l.89-.46a1.42,1.42,0,0,0,.61-.51.93.93,0,0,1,.72-.35.52.52,0,0,1,.1.53,1.4,1.4,0,0,1-.33.51,3,3,0,0,1-.51.41,2.49,2.49,0,0,0-.43.33,4.09,4.09,0,0,1-2.12.79,5.51,5.51,0,0,1-2.42-.28,3.66,3.66,0,0,1-.87-.36,1.46,1.46,0,0,0-.87-.2,1.18,1.18,0,0,0-.92.74l-.61,1.2c-.2.41-.38.81-.53,1.2s-.32.79-.49,1.19-.32.82-.46,1.23-.29.85-.45,1.32-.31.79-.52,1.25a1.18,1.18,0,0,1-.86.79,1,1,0,0,1-1.18-.58,6.24,6.24,0,0,1-.4-1.51,19.63,19.63,0,0,1-.23-3.39q0-1.76.12-3.54c0-.24.06-.51.08-.82s0-.61.1-.92a7,7,0,0,1,.18-.81.91.91,0,0,1,.31-.51.16.16,0,0,1,.2-.08Z" transform="translate(-471.66 -2779.24)"/><path class="cls-4" d="M755,2856.3a.78.78,0,0,1,.17.56c0,.21,0,.43,0,.66,0,.58,0,1.21,0,1.89s0,1.34,0,2,0,1.28,0,1.89a2.19,2.19,0,0,1-.53,1.48h-.41a1.62,1.62,0,0,1-.38-.79,6.75,6.75,0,0,1-.18-1.15c0-.75,0-1.53,0-2.35a23.36,23.36,0,0,1,.18-2.39c0-.21.07-.45.1-.72a3.19,3.19,0,0,1,.18-.71.9.9,0,0,1,.36-.44A.63.63,0,0,1,755,2856.3Zm.25-9.89a1.14,1.14,0,0,1-.41.81c-.27.07-.46,0-.58-.1a.84.84,0,0,1-.21-.48.66.66,0,0,1,.16-.49.62.62,0,0,1,.58-.15C755,2846.13,755.18,2846.27,755.21,2846.41Z" transform="translate(-471.66 -2779.24)"/><path class="cls-4" d="M761.89,2850c2.93-.1,6-.26,9.13-.46a66.07,66.07,0,0,1,9.44.05l.56,0a.44.44,0,0,1,.4.29c0,.27-.16.4-.38.4a2.51,2.51,0,0,1-.58-.05,92.8,92.8,0,0,0-9.44.08c-3.13.19-6.2.36-9.23.53q-.72,4.18-1.3,8.52a63.41,63.41,0,0,0-.54,9.08c0,.44,0,.93,0,1.48a11.77,11.77,0,0,0,.21,1.53c.07.37.18.83.33,1.37s.38.84.69.87a.66.66,0,0,0,.53-.15,5,5,0,0,0,.57-.49,5.47,5.47,0,0,0,.5-.58l.34-.46a50,50,0,0,0,3.64-5.43q1.61-2.79,3.39-5.79c.31-.54.63-1.11,1-1.68s.72-1.16,1.12-1.74a5.09,5.09,0,0,1,.46-.58q.25-.28.51-.18c.28.13.33.35.16.63a6.84,6.84,0,0,1-.41.64c-.85,1.43-1.65,2.87-2.4,4.34s-1.55,2.9-2.39,4.33q-.72,1.17-1.41,2.37c-.46.8-.94,1.59-1.45,2.37s-1,1.55-1.58,2.3a5.41,5.41,0,0,1-2.09,1.73,2.75,2.75,0,0,1-1.07,0,3.14,3.14,0,0,1-1.76-1.91,13.18,13.18,0,0,1-.69-2.88,22,22,0,0,1-.26-3.39c0-1.18,0-2.32.11-3.44q.26-3.42.68-6.61c.29-2.12.64-4.16,1-6.09-1.56.07-3.15.18-4.77.35s-3.25.29-4.92.36l-.69,0a.38.38,0,0,1-.43-.39c0-.27.13-.4.41-.4a3.69,3.69,0,0,0,.71-.06c1.6-.1,3.23-.23,4.9-.4s3.31-.29,4.94-.36c.21-.71.44-1.56.69-2.52a21,21,0,0,1,.89-2.68,3.78,3.78,0,0,1,.39-.84.78.78,0,0,1,.68-.49.53.53,0,0,1,.49.21.75.75,0,0,1,.1.48,4.55,4.55,0,0,1-.1.59c0,.2-.09.39-.13.56-.17.75-.34,1.52-.51,2.32S762.06,2849.3,761.89,2850Z" transform="translate(-471.66 -2779.24)"/><path class="cls-4" d="M782.19,2867q1.93-2.09,3.8-4.41t3.75-4.62l1.22-1.53a2.24,2.24,0,0,0,.64-.76.72.72,0,0,1,.94-.31.43.43,0,0,1,0,.59,1.64,1.64,0,0,0-.36.43c-1.66,2.25-3.35,4.43-5.07,6.56s-3.48,4.25-5.28,6.4q-.81,4.74-1.86,9.3a33.83,33.83,0,0,1-3,8.24c-.45.78-.91,1.54-1.41,2.27a6.13,6.13,0,0,1-1.91,1.81,7.46,7.46,0,0,1-.84.26,2.79,2.79,0,0,1-1,0,2.57,2.57,0,0,1-1.5-1.56,6.32,6.32,0,0,1-.31-2.42,14,14,0,0,1,.44-2.68,21.51,21.51,0,0,1,.76-2.37,27.24,27.24,0,0,1,1.23-2.6l1.22-2.25a45.75,45.75,0,0,1,3-4.33q1.61-2,3.28-4,.72-3.77,1.38-7.55t1.07-7.8a1.1,1.1,0,0,0-.48.48,5.57,5.57,0,0,1-.49.69,20,20,0,0,0-1.6,2.3c-.5.81-1,1.62-1.51,2.42s-1,1.57-1.6,2.32a12.79,12.79,0,0,1-1.92,2,1.4,1.4,0,0,0-.4.15,1.3,1.3,0,0,1-.41.16h-.56a1.87,1.87,0,0,1-1.23-.9,5,5,0,0,1-.64-1.73,9.17,9.17,0,0,1-.1-2.12,12.18,12.18,0,0,1,.33-2.09,3,3,0,0,1,.39-1,.77.77,0,0,1,.79-.4.47.47,0,0,1,.48.35,2.39,2.39,0,0,1,.13.84,7.23,7.23,0,0,1-.08,1,7,7,0,0,0-.07.95c0,.61,0,1.22,0,1.83a3.25,3.25,0,0,0,.38,1.53,6.78,6.78,0,0,0,2.48-2.21q.94-1.41,2-2.73a15.52,15.52,0,0,1,1-1.35c.34-.43.66-.88,1-1.36a5.3,5.3,0,0,0,1-1.35,2.18,2.18,0,0,1,1.22-1.09c.31-.11.57,0,.77.4a2.76,2.76,0,0,1,.28,1.66c0,.73-.09,1.39-.13,2-.17,1.77-.35,3.6-.56,5.49S782.43,2865.55,782.19,2867Zm-8.11,12.65a28.55,28.55,0,0,0-1.53,3.31,14.84,14.84,0,0,0-.92,4,10.59,10.59,0,0,0,0,1.38,1.45,1.45,0,0,0,.66,1.12,3.78,3.78,0,0,0,1.64-1.4,22.28,22.28,0,0,0,1.12-2,34.45,34.45,0,0,0,2.55-6.8c.64-2.47,1.24-4.94,1.78-7.42,0,0,0-.06,0-.06-.92,1.19-1.83,2.44-2.73,3.73A40.88,40.88,0,0,0,774.08,2879.66Z" transform="translate(-471.66 -2779.24)"/><path class="cls-2" d="M797.58,2858.86h13v1.4h-13Z" transform="translate(-471.66 -2779.24)"/><path class="cls-2" d="M829.76,2860.68c0,.59,0,1.12,0,1.58s0,.91,0,1.3,0,.78.06,1.12.07.7.12,1h-1.46a11.71,11.71,0,0,1-.15-1.95h-.06a4.46,4.46,0,0,1-1.67,1.72,5.31,5.31,0,0,1-2.54.54,6.05,6.05,0,0,1-1.53-.19,4.07,4.07,0,0,1-1.35-.62,3.39,3.39,0,0,1-1-1.11,3.34,3.34,0,0,1-.38-1.64,3.19,3.19,0,0,1,.71-2.18,4.27,4.27,0,0,1,1.73-1.21,8.18,8.18,0,0,1,2.18-.52,20,20,0,0,1,2-.12h1.82v-.73a2.53,2.53,0,0,0-1-2.23,4.12,4.12,0,0,0-2.42-.68,5.5,5.5,0,0,0-3.67,1.35l-.91-1.06a5.5,5.5,0,0,1,2.14-1.26,7.52,7.52,0,0,1,2.44-.43,5.4,5.4,0,0,1,3.48,1,4,4,0,0,1,1.3,3.31Zm-3.12-1a13.32,13.32,0,0,0-1.91.13,6.72,6.72,0,0,0-1.66.44,3.17,3.17,0,0,0-1.18.83,1.94,1.94,0,0,0-.45,1.3,2,2,0,0,0,.25,1,2.16,2.16,0,0,0,.64.7,3.19,3.19,0,0,0,.87.42,3.55,3.55,0,0,0,1,.14,5.07,5.07,0,0,0,2.06-.36,3.64,3.64,0,0,0,1.29-.95,3.26,3.26,0,0,0,.66-1.33,6.26,6.26,0,0,0,.18-1.49v-.81Z" transform="translate(-471.66 -2779.24)"/><path class="cls-2" d="M851.73,2864a5.51,5.51,0,0,1-2,1.57,5.73,5.73,0,0,1-2.42.5,6.83,6.83,0,0,1-2.54-.46,5.91,5.91,0,0,1-2-1.32,6.23,6.23,0,0,1-1.3-2,7.22,7.22,0,0,1,0-5.07,6.23,6.23,0,0,1,1.3-2,5.88,5.88,0,0,1,2-1.31,6.64,6.64,0,0,1,2.54-.47,5.61,5.61,0,0,1,2.46.54,6.51,6.51,0,0,1,2,1.54l-1.25.94a5.46,5.46,0,0,0-1.48-1.19,3.74,3.74,0,0,0-1.75-.43,4.84,4.84,0,0,0-2,.39,4.53,4.53,0,0,0-1.51,1.06,4.57,4.57,0,0,0-1,1.56,5.67,5.67,0,0,0-.32,1.91,5.76,5.76,0,0,0,.32,1.91,4.57,4.57,0,0,0,1,1.56,4.65,4.65,0,0,0,1.51,1,4.84,4.84,0,0,0,2,.39,3.68,3.68,0,0,0,1.81-.45,4.84,4.84,0,0,0,1.42-1.21Z" transform="translate(-471.66 -2779.24)"/><path class="cls-2" d="M854,2859.72a6.75,6.75,0,0,1,.47-2.54,6.07,6.07,0,0,1,1.3-2,5.75,5.75,0,0,1,2-1.31,7.13,7.13,0,0,1,5.09,0,6,6,0,0,1,2,1.31,5.94,5.94,0,0,1,1.31,2,7.07,7.07,0,0,1,0,5.07,5.94,5.94,0,0,1-1.31,2,6.06,6.06,0,0,1-2,1.32,7.27,7.27,0,0,1-5.09,0,5.77,5.77,0,0,1-2-1.32,6.07,6.07,0,0,1-1.3-2A6.7,6.7,0,0,1,854,2859.72Zm1.56,0a5.52,5.52,0,0,0,.33,1.91,4.28,4.28,0,0,0,1,1.56,4.5,4.5,0,0,0,1.5,1,5.22,5.22,0,0,0,4,0,4.5,4.5,0,0,0,1.5-1,4.28,4.28,0,0,0,.95-1.56,5.52,5.52,0,0,0,.33-1.91,5.44,5.44,0,0,0-.33-1.91,4.28,4.28,0,0,0-.95-1.56,4.39,4.39,0,0,0-1.5-1.06,5.22,5.22,0,0,0-4,0,4.39,4.39,0,0,0-1.5,1.06,4.28,4.28,0,0,0-1,1.56A5.44,5.44,0,0,0,855.58,2859.72Z" transform="translate(-471.66 -2779.24)"/><path class="cls-2" d="M870.66,2857.09c0-.22,0-.5,0-.82s0-.64,0-1,0-.64,0-.93,0-.5,0-.66h1.56c0,.45,0,.88,0,1.3a3.67,3.67,0,0,0,.07.81h.07a4.35,4.35,0,0,1,1.56-1.71,4.61,4.61,0,0,1,2.55-.71,4.06,4.06,0,0,1,2.19.61,3.54,3.54,0,0,1,1.43,2,3.93,3.93,0,0,1,1.7-2,4.91,4.91,0,0,1,2.38-.62,5.22,5.22,0,0,1,2.29.44,3.71,3.71,0,0,1,1.39,1.16,4.38,4.38,0,0,1,.7,1.65,9.33,9.33,0,0,1,.19,1.92v7.15h-1.56v-7.07a7.43,7.43,0,0,0-.13-1.42,3.48,3.48,0,0,0-.45-1.23,2.31,2.31,0,0,0-.91-.87,3.08,3.08,0,0,0-1.52-.33,3.58,3.58,0,0,0-1.8.41,3.18,3.18,0,0,0-1.1,1,4.22,4.22,0,0,0-.57,1.35,5.78,5.78,0,0,0-.17,1.38v6.76h-1.56v-7.22a5.21,5.21,0,0,0-.61-2.68,2.05,2.05,0,0,0-1.89-1,4.4,4.4,0,0,0-1.62.3,3.48,3.48,0,0,0-1.33.91,4.35,4.35,0,0,0-.88,1.54,6.39,6.39,0,0,0-.33,2.17v6h-1.56Z" transform="translate(-471.66 -2779.24)"/><path class="cls-2" d="M893.33,2857.09c0-.22,0-.5,0-.82s0-.64,0-1,0-.64,0-.93,0-.5,0-.66h1.56c0,.45,0,.88,0,1.3a3.67,3.67,0,0,0,.07.81H895a4.21,4.21,0,0,1,1.56-1.71,4.55,4.55,0,0,1,2.54-.71,4.06,4.06,0,0,1,2.19.61,3.49,3.49,0,0,1,1.43,2,3.93,3.93,0,0,1,1.7-2,4.91,4.91,0,0,1,2.38-.62,5.19,5.19,0,0,1,2.29.44,3.71,3.71,0,0,1,1.39,1.16,4.23,4.23,0,0,1,.7,1.65,9.33,9.33,0,0,1,.2,1.92v7.15h-1.56v-7.07a8.33,8.33,0,0,0-.13-1.42,3.69,3.69,0,0,0-.46-1.23,2.31,2.31,0,0,0-.91-.87,3.08,3.08,0,0,0-1.52-.33,3.51,3.51,0,0,0-1.79.41,3.13,3.13,0,0,0-1.11,1,4.22,4.22,0,0,0-.57,1.35,6.34,6.34,0,0,0-.17,1.38v6.76h-1.56v-7.22a5.11,5.11,0,0,0-.61-2.68,2.05,2.05,0,0,0-1.89-1,4.4,4.4,0,0,0-1.62.3,3.55,3.55,0,0,0-1.33.91,4.51,4.51,0,0,0-.88,1.54,6.39,6.39,0,0,0-.33,2.17v6h-1.56Z" transform="translate(-471.66 -2779.24)"/><path class="cls-2" d="M915.88,2849a1.15,1.15,0,0,1,.33-.83,1.18,1.18,0,0,1,.84-.34,1.16,1.16,0,0,1,1.17,1.17,1.14,1.14,0,0,1-.34.83,1.12,1.12,0,0,1-.83.34,1.14,1.14,0,0,1-1.17-1.17Zm.39,4.76h1.56v12h-1.56Z" transform="translate(-471.66 -2779.24)"/><path class="cls-2" d="M928.64,2855.11h-3.43v7.83a1.72,1.72,0,0,0,.44,1.25,1.67,1.67,0,0,0,1.22.44,3.48,3.48,0,0,0,.9-.12,4.48,4.48,0,0,0,.87-.3l.13,1.41a8.43,8.43,0,0,1-1,.28,4.45,4.45,0,0,1-1,.13,3.86,3.86,0,0,1-1.43-.24,2.62,2.62,0,0,1-1-.67,2.54,2.54,0,0,1-.53-1,4.26,4.26,0,0,1-.17-1.21v-7.83h-2.6v-1.4h2.6v-3.46h1.56v3.46h3.43Z" transform="translate(-471.66 -2779.24)"/><path class="cls-2" d="M931.94,2857.09c0-.22,0-.5,0-.82s0-.64,0-1,0-.64,0-.93,0-.5,0-.66h1.56c0,.45,0,.88,0,1.3a3.67,3.67,0,0,0,.07.81h.08a4.21,4.21,0,0,1,1.56-1.71,4.55,4.55,0,0,1,2.54-.71,4.06,4.06,0,0,1,2.19.61,3.49,3.49,0,0,1,1.43,2,3.93,3.93,0,0,1,1.7-2,4.91,4.91,0,0,1,2.38-.62,5.22,5.22,0,0,1,2.29.44A3.71,3.71,0,0,1,949,2855a4.23,4.23,0,0,1,.7,1.65,9.33,9.33,0,0,1,.2,1.92v7.15h-1.56v-7.07a8.33,8.33,0,0,0-.13-1.42,3.69,3.69,0,0,0-.46-1.23,2.31,2.31,0,0,0-.91-.87,3.08,3.08,0,0,0-1.52-.33,3.51,3.51,0,0,0-1.79.41,3.13,3.13,0,0,0-1.11,1,4.22,4.22,0,0,0-.57,1.35,6.34,6.34,0,0,0-.17,1.38v6.76h-1.56v-7.22a5.11,5.11,0,0,0-.61-2.68,2.05,2.05,0,0,0-1.89-1,4.4,4.4,0,0,0-1.62.3,3.48,3.48,0,0,0-1.33.91,4.35,4.35,0,0,0-.88,1.54,6.39,6.39,0,0,0-.33,2.17v6h-1.56Z" transform="translate(-471.66 -2779.24)"/><path class="cls-2" d="M965.22,2863.46a5.19,5.19,0,0,1-2.25,2,7.26,7.26,0,0,1-3,.59,6.39,6.39,0,0,1-2.49-.46,5.67,5.67,0,0,1-1.93-1.32,5.75,5.75,0,0,1-1.23-2,7.2,7.2,0,0,1-.43-2.56,7,7,0,0,1,.44-2.5,6,6,0,0,1,1.25-2,5.77,5.77,0,0,1,1.9-1.33,6.37,6.37,0,0,1,4.85,0,5.2,5.2,0,0,1,1.76,1.27,5.29,5.29,0,0,1,1.08,1.81,5.88,5.88,0,0,1,.37,2.05v1.1H955.5a5.27,5.27,0,0,0,.19,1.26,4.36,4.36,0,0,0,.72,1.49,4.56,4.56,0,0,0,1.39,1.25,4.31,4.31,0,0,0,2.25.52,5,5,0,0,0,2.31-.57,4.14,4.14,0,0,0,1.72-1.56ZM964,2858.7a3.54,3.54,0,0,0-.33-1.51,4.08,4.08,0,0,0-.88-1.23,4.15,4.15,0,0,0-1.33-.85,4.4,4.4,0,0,0-1.62-.31,4,4,0,0,0-2.12.52,4.63,4.63,0,0,0-1.34,1.2,4.81,4.81,0,0,0-.7,1.31,3.56,3.56,0,0,0-.21.87Z" transform="translate(-471.66 -2779.24)"/><path class="cls-2" d="M969.57,2857.09c0-.22,0-.5,0-.82s0-.64,0-1,0-.64,0-.93,0-.5,0-.66H971c0,.45,0,.88,0,1.3a3.67,3.67,0,0,0,.07.81h.08a4.21,4.21,0,0,1,1.56-1.71,4.59,4.59,0,0,1,2.55-.71,5.17,5.17,0,0,1,2.28.44A3.64,3.64,0,0,1,979,2855a4.24,4.24,0,0,1,.71,1.65,9.33,9.33,0,0,1,.19,1.92v7.15H978.3v-7.07a7.43,7.43,0,0,0-.13-1.42,3.91,3.91,0,0,0-.45-1.23,2.31,2.31,0,0,0-.91-.87,3.08,3.08,0,0,0-1.52-.33,4.41,4.41,0,0,0-1.63.3,3.55,3.55,0,0,0-1.33.91,4.51,4.51,0,0,0-.88,1.54,6.39,6.39,0,0,0-.33,2.17v6h-1.55Z" transform="translate(-471.66 -2779.24)"/><path class="cls-2" d="M990.42,2855.11H987v7.83a1.67,1.67,0,0,0,.44,1.25,1.66,1.66,0,0,0,1.22.44,3.6,3.6,0,0,0,.9-.12,4.48,4.48,0,0,0,.87-.3l.13,1.41a9.2,9.2,0,0,1-1,.28,4.43,4.43,0,0,1-1,.13,3.82,3.82,0,0,1-1.43-.24,2.54,2.54,0,0,1-1.5-1.64,4.26,4.26,0,0,1-.17-1.21v-7.83h-2.59v-1.4h2.59v-3.46H987v3.46h3.43Z" transform="translate(-471.66 -2779.24)"/><path class="cls-2" d="M1006.85,2855.11h-3.43v7.83a1.67,1.67,0,0,0,.44,1.25,1.66,1.66,0,0,0,1.22.44,3.54,3.54,0,0,0,.9-.12,4.48,4.48,0,0,0,.87-.3l.13,1.41a8.63,8.63,0,0,1-1,.28,4.37,4.37,0,0,1-1,.13,3.86,3.86,0,0,1-1.43-.24,2.49,2.49,0,0,1-1.49-1.64,3.93,3.93,0,0,1-.17-1.21v-7.83h-2.6v-1.4h2.6v-3.46h1.56v3.46h3.43Z" transform="translate(-471.66 -2779.24)"/><path class="cls-2" d="M1009.45,2859.72a6.56,6.56,0,0,1,.47-2.54,5.91,5.91,0,0,1,1.3-2,5.75,5.75,0,0,1,2-1.31,6.65,6.65,0,0,1,2.55-.47,6.51,6.51,0,0,1,2.53.47,5.91,5.91,0,0,1,3.32,3.31,7.22,7.22,0,0,1,0,5.07,6,6,0,0,1-3.32,3.32,6.7,6.7,0,0,1-2.53.46,6.84,6.84,0,0,1-2.55-.46,5.77,5.77,0,0,1-2-1.32,5.91,5.91,0,0,1-1.3-2A6.51,6.51,0,0,1,1009.45,2859.72Zm1.56,0a5.76,5.76,0,0,0,.32,1.91,4.57,4.57,0,0,0,.95,1.56,4.65,4.65,0,0,0,1.51,1,5.2,5.2,0,0,0,4,0,4.65,4.65,0,0,0,1.51-1,4.42,4.42,0,0,0,1-1.56,5.52,5.52,0,0,0,.33-1.91,5.44,5.44,0,0,0-.33-1.91,4.42,4.42,0,0,0-1-1.56,4.53,4.53,0,0,0-1.51-1.06,5.2,5.2,0,0,0-4,0,4.53,4.53,0,0,0-1.51,1.06,4.57,4.57,0,0,0-.95,1.56A5.67,5.67,0,0,0,1011,2859.72Z" transform="translate(-471.66 -2779.24)"/><path class="cls-2" d="M1044,2863.46a5.31,5.31,0,0,1-2.25,2,7.26,7.26,0,0,1-3,.59,6.47,6.47,0,0,1-2.5-.46,5.73,5.73,0,0,1-1.92-1.32,5.6,5.6,0,0,1-1.23-2,7.2,7.2,0,0,1-.43-2.56,6.81,6.81,0,0,1,.44-2.5,5.8,5.8,0,0,1,1.25-2,5.73,5.73,0,0,1,1.89-1.33,6,6,0,0,1,2.42-.48,5.79,5.79,0,0,1,2.43.48A5.26,5.26,0,0,1,1044,2857a6.11,6.11,0,0,1,.36,2.05v1.1h-10.08a5.27,5.27,0,0,0,.19,1.26,4.36,4.36,0,0,0,.72,1.49,4.45,4.45,0,0,0,1.39,1.25,4.31,4.31,0,0,0,2.25.52,5,5,0,0,0,2.31-.57,4.14,4.14,0,0,0,1.72-1.56Zm-1.2-4.76a3.53,3.53,0,0,0-.32-1.51,4.08,4.08,0,0,0-2.21-2.08,4.42,4.42,0,0,0-1.63-.31,4,4,0,0,0-2.11.52,4.63,4.63,0,0,0-1.34,1.2,4.86,4.86,0,0,0-.71,1.31,3.9,3.9,0,0,0-.2.87Z" transform="translate(-471.66 -2779.24)"/><path class="cls-2" d="M1051.36,2859.22l-4.29-5.51h2l3.33,4.55,3.3-4.55h2l-4.24,5.51,5.15,6.5h-2l-4.18-5.43-4.11,5.43h-1.87Z" transform="translate(-471.66 -2779.24)"/><path class="cls-2" d="M1071.38,2864a5.68,5.68,0,0,1-2,1.57,5.76,5.76,0,0,1-2.42.5,6.84,6.84,0,0,1-2.55-.46,5.77,5.77,0,0,1-2-1.32,6.07,6.07,0,0,1-1.3-2,7.07,7.07,0,0,1,0-5.07,6.07,6.07,0,0,1,1.3-2,5.75,5.75,0,0,1,2-1.31,6.65,6.65,0,0,1,2.55-.47,5.67,5.67,0,0,1,2.46.54,6.59,6.59,0,0,1,2,1.54l-1.25.94a5.32,5.32,0,0,0-1.48-1.19,3.7,3.7,0,0,0-1.74-.43,4.86,4.86,0,0,0-2,.39,4.39,4.39,0,0,0-1.5,1.06,4.28,4.28,0,0,0-1,1.56,5.44,5.44,0,0,0-.33,1.91,5.52,5.52,0,0,0,.33,1.91,4.28,4.28,0,0,0,1,1.56,4.5,4.5,0,0,0,1.5,1,4.86,4.86,0,0,0,2,.39,3.71,3.71,0,0,0,1.81-.45,4.8,4.8,0,0,0,1.41-1.21Z" transform="translate(-471.66 -2779.24)"/><path class="cls-2" d="M1085,2863.46a5.31,5.31,0,0,1-2.25,2,7.26,7.26,0,0,1-3,.59,6.39,6.39,0,0,1-2.49-.46,5.67,5.67,0,0,1-1.93-1.32,5.6,5.6,0,0,1-1.23-2,7.2,7.2,0,0,1-.43-2.56,6.81,6.81,0,0,1,.44-2.5,5.8,5.8,0,0,1,1.25-2,5.67,5.67,0,0,1,1.9-1.33,5.89,5.89,0,0,1,2.41-.48,5.79,5.79,0,0,1,2.43.48,5.15,5.15,0,0,1,1.77,1.27A5.29,5.29,0,0,1,1085,2857a6.12,6.12,0,0,1,.37,2.05v1.1h-10.09a5.27,5.27,0,0,0,.19,1.26,4.36,4.36,0,0,0,.72,1.49,4.45,4.45,0,0,0,1.39,1.25,4.31,4.31,0,0,0,2.25.52,5,5,0,0,0,2.31-.57,4.14,4.14,0,0,0,1.72-1.56Zm-1.19-4.76a3.54,3.54,0,0,0-.33-1.51,4.08,4.08,0,0,0-2.21-2.08,4.4,4.4,0,0,0-1.62-.31,4,4,0,0,0-2.12.52,4.63,4.63,0,0,0-1.34,1.2,4.55,4.55,0,0,0-.7,1.31,3.56,3.56,0,0,0-.21.87Z" transform="translate(-471.66 -2779.24)"/><path class="cls-2" d="M1089.55,2846.07h1.56v19.65h-1.56Z" transform="translate(-471.66 -2779.24)"/><path class="cls-2" d="M1096.31,2846.07h1.56v19.65h-1.56Z" transform="translate(-471.66 -2779.24)"/><path class="cls-2" d="M1113.42,2863.46a5.31,5.31,0,0,1-2.25,2,7.26,7.26,0,0,1-3,.59,6.39,6.39,0,0,1-2.49-.46,5.67,5.67,0,0,1-1.93-1.32,5.6,5.6,0,0,1-1.23-2,7.2,7.2,0,0,1-.43-2.56,6.81,6.81,0,0,1,.44-2.5,5.8,5.8,0,0,1,1.25-2,5.67,5.67,0,0,1,1.9-1.33,5.89,5.89,0,0,1,2.41-.48,5.79,5.79,0,0,1,2.43.48,5.15,5.15,0,0,1,1.77,1.27,5.29,5.29,0,0,1,1.08,1.81,6.12,6.12,0,0,1,.37,2.05v1.1H1103.7a5.27,5.27,0,0,0,.19,1.26,4.36,4.36,0,0,0,.72,1.49,4.45,4.45,0,0,0,1.39,1.25,4.31,4.31,0,0,0,2.25.52,5,5,0,0,0,2.31-.57,4.14,4.14,0,0,0,1.72-1.56Zm-1.19-4.76a3.54,3.54,0,0,0-.33-1.51,4.08,4.08,0,0,0-2.21-2.08,4.4,4.4,0,0,0-1.62-.31,4,4,0,0,0-2.12.52,4.63,4.63,0,0,0-1.34,1.2,4.55,4.55,0,0,0-.7,1.31,3.56,3.56,0,0,0-.21.87Z" transform="translate(-471.66 -2779.24)"/><path class="cls-2" d="M1117.76,2857.09c0-.22,0-.5,0-.82s0-.64,0-1,0-.64,0-.93,0-.5,0-.66h1.56c0,.45,0,.88,0,1.3a3.67,3.67,0,0,0,.07.81h.08a4.25,4.25,0,0,1,1.55-1.71,4.61,4.61,0,0,1,2.55-.71,5.19,5.19,0,0,1,2.29.44,3.71,3.71,0,0,1,1.39,1.16,4.23,4.23,0,0,1,.7,1.65,9.33,9.33,0,0,1,.2,1.92v7.15h-1.56v-7.07a7.43,7.43,0,0,0-.13-1.42,3.69,3.69,0,0,0-.46-1.23,2.25,2.25,0,0,0-.91-.87,3.06,3.06,0,0,0-1.52-.33,4.4,4.4,0,0,0-1.62.3,3.48,3.48,0,0,0-1.33.91,4.35,4.35,0,0,0-.88,1.54,6.39,6.39,0,0,0-.33,2.17v6h-1.56Z" transform="translate(-471.66 -2779.24)"/><path class="cls-2" d="M1142.8,2864a5.68,5.68,0,0,1-2,1.57,5.76,5.76,0,0,1-2.42.5,6.84,6.84,0,0,1-2.55-.46,5.86,5.86,0,0,1-2-1.32,6.07,6.07,0,0,1-1.3-2,7.07,7.07,0,0,1,0-5.07,6.07,6.07,0,0,1,1.3-2,5.84,5.84,0,0,1,2-1.31,6.65,6.65,0,0,1,2.55-.47,5.64,5.64,0,0,1,2.46.54,6.59,6.59,0,0,1,2,1.54l-1.24.94a5.5,5.5,0,0,0-1.49-1.19,3.7,3.7,0,0,0-1.74-.43,4.78,4.78,0,0,0-2,.39,4.49,4.49,0,0,0-2.46,2.62,5.44,5.44,0,0,0-.33,1.91,5.52,5.52,0,0,0,.33,1.91,4.42,4.42,0,0,0,1,1.56,4.55,4.55,0,0,0,1.51,1,4.78,4.78,0,0,0,2,.39,3.71,3.71,0,0,0,1.81-.45,5,5,0,0,0,1.42-1.21Z" transform="translate(-471.66 -2779.24)"/><path class="cls-2" d="M1156.37,2863.46a5.19,5.19,0,0,1-2.25,2,7.26,7.26,0,0,1-2.95.59,6.39,6.39,0,0,1-2.49-.46,5.67,5.67,0,0,1-1.93-1.32,5.6,5.6,0,0,1-1.23-2,7.2,7.2,0,0,1-.43-2.56,7,7,0,0,1,.44-2.5,6,6,0,0,1,1.25-2,5.77,5.77,0,0,1,1.9-1.33,6.37,6.37,0,0,1,4.85,0,5.2,5.2,0,0,1,1.76,1.27,5.29,5.29,0,0,1,1.08,1.81,5.88,5.88,0,0,1,.37,2.05v1.1h-10.09a5.27,5.27,0,0,0,.19,1.26,4.36,4.36,0,0,0,.72,1.49,4.56,4.56,0,0,0,1.39,1.25,4.31,4.31,0,0,0,2.25.52,5,5,0,0,0,2.31-.57,4.14,4.14,0,0,0,1.72-1.56Zm-1.19-4.76a3.54,3.54,0,0,0-.33-1.51,4.08,4.08,0,0,0-2.21-2.08,4.4,4.4,0,0,0-1.62-.31,4,4,0,0,0-2.12.52,4.63,4.63,0,0,0-1.34,1.2,4.81,4.81,0,0,0-.7,1.31,3.56,3.56,0,0,0-.21.87Z" transform="translate(-471.66 -2779.24)"/><path class="cls-2" d="M533.2,2821.6a5,5,0,0,1-.84,1.14q-.48.48-1,.9a3.43,3.43,0,0,1-.66.6,14.11,14.11,0,0,1-5.4,2.58,28.35,28.35,0,0,1-7.86,1H493.42v-.42a23.94,23.94,0,0,0,3.45-.21,4.71,4.71,0,0,0,2.25-.87,3.6,3.6,0,0,0,1.2-1.8,10.49,10.49,0,0,0,.36-3.06v-34.56a3.57,3.57,0,0,1-.06-.78,11.67,11.67,0,0,0-.27-2.76,4,4,0,0,0-.87-1.74,3.44,3.44,0,0,0-1.62-1,12.66,12.66,0,0,0-2.52-.42h-1.92v-.48h22.8a26.6,26.6,0,0,1,3.69.24,21.05,21.05,0,0,1,3.27.72,12.77,12.77,0,0,1,4.8,2.64,11.82,11.82,0,0,1,0,17.1,15.13,15.13,0,0,1-2.19,1.5,12.31,12.31,0,0,1-2.61,1.08,10,10,0,0,1-1.38.39q-.72.15-1.44.33a20.92,20.92,0,0,1,2.61.27q1.23.21,2.37.51a14.76,14.76,0,0,1,5.4,2.58,10.36,10.36,0,0,1,4.14,8.58A10.83,10.83,0,0,1,533.2,2821.6Zm-26.1-18.06h8.64a8.8,8.8,0,0,0,5.1-1.44,9,9,0,0,0,1.32-1.2,10.28,10.28,0,0,0,1.26-1.74,15.35,15.35,0,0,0,1.56-7.26,14.11,14.11,0,0,0-2.22-8.34,8,8,0,0,0-7-3.36H511.9a5.41,5.41,0,0,0-3.75,1.47q-1,1.23-1,4.35v17.52Zm17.82,20.4q2.52-3.06,2.52-8.28a12.93,12.93,0,0,0-2.52-8.28q-2.7-3.42-7.92-3.42h-9.9v17.52a11.75,11.75,0,0,0,.27,2.73,3.81,3.81,0,0,0,.9,1.77,3.87,3.87,0,0,0,1.68,1,9.92,9.92,0,0,0,2.55.39H517Q522.28,2827.36,524.92,2823.94Z" transform="translate(-471.66 -2779.24)"/><path class="cls-2" d="M538.72,2803.48a25.77,25.77,0,0,1,1.68-9.42,23.13,23.13,0,0,1,4.5-7.74,20.07,20.07,0,0,1,6.6-5.16,18.63,18.63,0,0,1,8.22-1.92h3.48a18.5,18.5,0,0,1,8.16,1.92,19.92,19.92,0,0,1,6.72,5.16,25.8,25.8,0,0,1,4.56,7.74,27.27,27.27,0,0,1,1.62,9.42,26.94,26.94,0,0,1-1.62,9.42,25.8,25.8,0,0,1-4.56,7.74,19.92,19.92,0,0,1-6.72,5.16,18.5,18.5,0,0,1-8.16,1.92h-3.48a18.63,18.63,0,0,1-8.22-1.92,20.07,20.07,0,0,1-6.6-5.16,23.13,23.13,0,0,1-4.5-7.74A25.77,25.77,0,0,1,538.72,2803.48Zm6.54,0a36.77,36.77,0,0,0,1.11,9.18,25.18,25.18,0,0,0,3.33,7.68,12.81,12.81,0,0,0,.93,1.38,12.52,12.52,0,0,0,1,1.2,15.37,15.37,0,0,0,3.63,2.79,29.53,29.53,0,0,0,2.85,1.35l1.14.24a6.41,6.41,0,0,0,1.26.12h1.8a5.54,5.54,0,0,0,1.2-.12l1.2-.24q1-.42,2.79-1.35a16.42,16.42,0,0,0,3.69-2.79q.48-.54,1-1.2t1-1.38a25.72,25.72,0,0,0,3.36-7.68,37.53,37.53,0,0,0,0-18.36,25.72,25.72,0,0,0-3.36-7.68q-.48-.72-1-1.38t-1-1.2a16.42,16.42,0,0,0-3.69-2.79q-1.77-.93-2.79-1.35l-1.2-.21a7.33,7.33,0,0,0-1.2-.09h-1.8a9.86,9.86,0,0,0-2.4.3,29.53,29.53,0,0,0-2.85,1.35,15.37,15.37,0,0,0-3.63,2.79,12.52,12.52,0,0,0-1,1.2,12.81,12.81,0,0,0-.93,1.38,25.18,25.18,0,0,0-3.33,7.68A36.77,36.77,0,0,0,545.26,2803.48Z" transform="translate(-471.66 -2779.24)"/><path class="cls-2" d="M587.26,2827.36l1-.12a7.26,7.26,0,0,0,2.34-.81,12.37,12.37,0,0,0,2.85-2.13,11.67,11.67,0,0,0,2.58-4.14l16.14-40.32h.48l16.08,40.2a26.43,26.43,0,0,0,2,4.05,8.14,8.14,0,0,0,1.8,2.1,4.08,4.08,0,0,0,1.83.84l2.13.33v.42H616.84v-.42q2.16-.12,3.69-.27a4.15,4.15,0,0,0,2.31-.81,2.37,2.37,0,0,0,.66-2.13,16.5,16.5,0,0,0-1.2-4.23l-4.44-11.16H601.12l-4.56,11.34a5.77,5.77,0,0,0-.51,3,4,4,0,0,0,.93,2,4.93,4.93,0,0,0,1.77,1.26,11,11,0,0,0,2,.66,10.54,10.54,0,0,0,1.71.24l.78,0v.42h-16Zm22.26-39.48-8.22,20.46h16.38Z" transform="translate(-471.66 -2779.24)"/><path class="cls-2" d="M639.22,2827.9v-.42h.06a23.94,23.94,0,0,0,3.45-.21,4.51,4.51,0,0,0,2.22-.87,3.68,3.68,0,0,0,1.17-1.8,10.49,10.49,0,0,0,.36-3.06V2786.2q0-3.3-1.17-4.53t-4.17-1.41h-1.92v-.36h22.86a24.68,24.68,0,0,1,7,.9,15.41,15.41,0,0,1,4.8,2.58,10.15,10.15,0,0,1,2.73,3.75,12.23,12.23,0,0,1,.93,4.83,10.79,10.79,0,0,1-3.66,8.58,14.43,14.43,0,0,1-4.8,2.58,12.63,12.63,0,0,1-2.79.66q-1.47.18-3.09.3a9,9,0,0,1,2.67,1.26,13.66,13.66,0,0,1,3.21,3.3l11.28,15.66a6,6,0,0,0,2,1.77,12.1,12.1,0,0,0,2.28,1,9.3,9.3,0,0,0,1.95.39l1,.06h.06v.42h-12L661,2807.62a14,14,0,0,0-1.65-1.89,6.86,6.86,0,0,0-1.44-1.05,4.77,4.77,0,0,0-1.35-.48,7.7,7.7,0,0,0-1.38-.12H653v17.52a11.67,11.67,0,0,0,.27,2.76,3.8,3.8,0,0,0,.9,1.74,3.88,3.88,0,0,0,1.65,1,9.53,9.53,0,0,0,2.52.39h1.86v.42H639.22ZM653,2803.72h8.64a8.62,8.62,0,0,0,5-1.5A9.29,9.29,0,0,0,668,2801a10.36,10.36,0,0,0,1.29-1.77,14.6,14.6,0,0,0,1.14-3.27,17.83,17.83,0,0,0,.42-4,14,14,0,0,0-2.22-8.28,8.13,8.13,0,0,0-7-3.42h-3.9a8,8,0,0,0-2.22.48,3.73,3.73,0,0,0-1.47,1,3.91,3.91,0,0,0-.81,1.74,12.38,12.38,0,0,0-.24,2.64v17.58Z" transform="translate(-471.66 -2779.24)"/><path class="cls-2" d="M733.06,2820.82a20.72,20.72,0,0,1-7.14,5.22,23.25,23.25,0,0,1-9.18,1.86H691v-.42a23.3,23.3,0,0,0,3.42-.21,4.67,4.67,0,0,0,2.22-.87,3.6,3.6,0,0,0,1.2-1.8,10.49,10.49,0,0,0,.36-3.06V2786.2q0-3.3-1.2-4.53t-4.2-1.41h-1.86v-.36h25.8a22.15,22.15,0,0,1,9.18,1.86,21.07,21.07,0,0,1,7.14,5.16,22.9,22.9,0,0,1,4.59,7.68,27.91,27.91,0,0,1,0,18.57A23,23,0,0,1,733.06,2820.82Zm-10.62,4.8a17,17,0,0,0,2.85-2.16,18.42,18.42,0,0,0,2.49-2.88,26.33,26.33,0,0,0,3.54-7.56,32,32,0,0,0,1.26-9.12,32.63,32.63,0,0,0-1.26-9.18,25.36,25.36,0,0,0-3.54-7.56,18.42,18.42,0,0,0-2.49-2.88,17,17,0,0,0-2.85-2.16,14,14,0,0,0-6.42-1.86h-6.66a8,8,0,0,0-2.22.48,3.73,3.73,0,0,0-1.47,1,3.91,3.91,0,0,0-.81,1.74,12.38,12.38,0,0,0-.24,2.64v34.38a4.63,4.63,0,0,0,0,.51,5.17,5.17,0,0,1,0,.57,11.67,11.67,0,0,0,.27,2.76,4,4,0,0,0,.87,1.74,3.65,3.65,0,0,0,1.62,1,9.75,9.75,0,0,0,2.58.39h5.46A14.19,14.19,0,0,0,722.44,2825.62Z" transform="translate(-471.66 -2779.24)"/><path class="cls-2" d="M744.34,2802.46h18.3v2.76h-18.3Z" transform="translate(-471.66 -2779.24)"/><path class="cls-2" d="M768.33,2803.84v-.06h-.23a27.12,27.12,0,0,1,.42-4.8,25.54,25.54,0,0,1,1.26-4.62,24.43,24.43,0,0,1,4.55-7.68,26,26,0,0,1,3.1-2.94,17.49,17.49,0,0,1,3.57-2.22,18.07,18.07,0,0,1,8.22-1.92,15,15,0,0,1,5.88,1.14h.06a.33.33,0,0,0,.24.12l.06.06.81.36c.26.12.52.26.81.42a12.39,12.39,0,0,0,4.92,1.5,4.91,4.91,0,0,0,2.7-.6,3.05,3.05,0,0,0,1.38-2.1h.42V2798h-.42a30.85,30.85,0,0,0-.87-4.2,28.06,28.06,0,0,0-1.35-3.72,21.52,21.52,0,0,0-1.78-3,19.13,19.13,0,0,0-2.12-2.55,15.06,15.06,0,0,0-9.84-4.44,10.71,10.71,0,0,0-6,1.86,16.93,16.93,0,0,0-4.92,5.1,27.16,27.16,0,0,0-3.33,7.59,33.55,33.55,0,0,0-1.23,9.27,32.26,32.26,0,0,0,2,11.64,23.22,23.22,0,0,0,5.25,8.46,16,16,0,0,0,5.34,3.24,6.06,6.06,0,0,0,1.41.33,12.33,12.33,0,0,0,1.47.09,22.89,22.89,0,0,0,2.43-.36,13.91,13.91,0,0,0,2.37-.72,14.82,14.82,0,0,0,5-3.36,12.84,12.84,0,0,0,2.13-2.49,27.43,27.43,0,0,0,1.71-3,22.48,22.48,0,0,0,1.38-3.72,40.77,40.77,0,0,0,.9-4.2l.42.06a27.78,27.78,0,0,1-2.34,8,19.89,19.89,0,0,1-3.9,5.7,17,17,0,0,1-5.16,3.36,14.6,14.6,0,0,1-5.82,1.14,18.07,18.07,0,0,1-8.22-1.92,20.88,20.88,0,0,1-6.67-5.16,24.43,24.43,0,0,1-4.55-7.68,25.54,25.54,0,0,1-1.26-4.62,27.12,27.12,0,0,1-.42-4.8Z" transform="translate(-471.66 -2779.24)"/><path class="cls-2" d="M841.47,2826.88a14.46,14.46,0,0,0,3.51-1.56,13.13,13.13,0,0,0,2.67-2.19,17.87,17.87,0,0,0,2-2.55,20.55,20.55,0,0,0,2.7-7h.42L851,2827.9H811.35v-.42a23.94,23.94,0,0,0,3.45-.21,4.71,4.71,0,0,0,2.25-.87,3.6,3.6,0,0,0,1.2-1.8,10.11,10.11,0,0,0,.37-3.06v-34.62a2.2,2.2,0,0,0,0-.36,2.19,2.19,0,0,1,0-.36c0-2.2-.38-3.71-1.17-4.53s-2.17-1.29-4.17-1.41h-1.92v-.36h38v12.6h-.41v-.06c-.33-1.32-.7-2.7-1.12-4.14a12.26,12.26,0,0,0-1.95-3.93,10.2,10.2,0,0,0-3.6-2.94,13.18,13.18,0,0,0-6-1.17H825v23.46h8.58a6.86,6.86,0,0,0,4.05-1.17,8,8,0,0,0,2.23-2.49,8.1,8.1,0,0,0,.92-2.64,12.81,12.81,0,0,0,.18-1.68v-.18h.42v16.74h-.42v-.18a14.08,14.08,0,0,0-.18-1.74,7.86,7.86,0,0,0-1-2.73,7.54,7.54,0,0,0-2.31-2.49,7.23,7.23,0,0,0-4.23-1.08H825v16.44a6.14,6.14,0,0,1,.07,1.08,11.74,11.74,0,0,0,.26,2.76,3.6,3.6,0,0,0,2.55,2.73,9.54,9.54,0,0,0,2.53.39H837A15.26,15.26,0,0,0,841.47,2826.88Z" transform="translate(-471.66 -2779.24)"/><path class="cls-2" d="M856.53,2827.9v-.42h.06a23.94,23.94,0,0,0,3.45-.21,4.51,4.51,0,0,0,2.22-.87,3.68,3.68,0,0,0,1.17-1.8,10.49,10.49,0,0,0,.36-3.06V2786.2q0-3.3-1.17-4.53t-4.17-1.41h-1.92v-.36h22.86a24.68,24.68,0,0,1,7,.9,15.41,15.41,0,0,1,4.8,2.58,10.15,10.15,0,0,1,2.73,3.75,12.23,12.23,0,0,1,.93,4.83,10.79,10.79,0,0,1-3.66,8.58,14.43,14.43,0,0,1-4.8,2.58,12.63,12.63,0,0,1-2.79.66q-1.47.18-3.09.3a9,9,0,0,1,2.67,1.26,13.66,13.66,0,0,1,3.21,3.3l11.28,15.66a6,6,0,0,0,2,1.77,12.1,12.1,0,0,0,2.28,1,9.3,9.3,0,0,0,2,.39l1,.06H905v.42H893l-14.64-20.28a14,14,0,0,0-1.65-1.89,6.86,6.86,0,0,0-1.44-1.05,4.77,4.77,0,0,0-1.35-.48,7.7,7.7,0,0,0-1.38-.12h-2.22v17.52a11.67,11.67,0,0,0,.27,2.76,3.8,3.8,0,0,0,.9,1.74,3.88,3.88,0,0,0,1.65,1,9.53,9.53,0,0,0,2.52.39h1.86v.42H856.53Zm13.74-24.18h8.64a8.62,8.62,0,0,0,5-1.5,9.29,9.29,0,0,0,1.35-1.23,10.36,10.36,0,0,0,1.29-1.77,14.6,14.6,0,0,0,1.14-3.27,17.83,17.83,0,0,0,.42-4,14,14,0,0,0-2.22-8.28,8.13,8.13,0,0,0-7-3.42H875a8,8,0,0,0-2.22.48,3.73,3.73,0,0,0-1.47,1,3.91,3.91,0,0,0-.81,1.74,12.38,12.38,0,0,0-.24,2.64v17.58Z" transform="translate(-471.66 -2779.24)"/><path class="cls-2" d="M945.27,2792.32v-.12q-.48-1.86-1.08-3.87a13.71,13.71,0,0,0-1.77-3.75,9.81,9.81,0,0,0-3.18-2.94,11.92,11.92,0,0,0-5.25-1.44h-.54a5.32,5.32,0,0,0-3.69,1.47q-1.05,1.23-1,4.35v35.46a11.75,11.75,0,0,0,.27,2.73,3.81,3.81,0,0,0,.9,1.77,3.88,3.88,0,0,0,1.65,1,9.53,9.53,0,0,0,2.52.39h1.86v.42H915v-.42a23.94,23.94,0,0,0,3.45-.21,4.51,4.51,0,0,0,2.22-.87,3.68,3.68,0,0,0,1.17-1.8,10.49,10.49,0,0,0,.36-3.06v-35.34a11.67,11.67,0,0,0-.27-2.76,3.8,3.8,0,0,0-.9-1.74,3.65,3.65,0,0,0-1.65-1,12.66,12.66,0,0,0-2.52-.42h-.36a11.7,11.7,0,0,0-5.22,1.44,10.24,10.24,0,0,0-3.18,2.94,13.23,13.23,0,0,0-1.8,3.75q-.6,2-1,3.87v.12h-.42v-12.6h40.8v12.6Z" transform="translate(-471.66 -2779.24)"/><path class="cls-2" d="M954.12,2827.27a4.71,4.71,0,0,0,2.25-.87,3.6,3.6,0,0,0,1.2-1.8,10.49,10.49,0,0,0,.36-3.06V2786.2q0-3.3-1.17-4.53t-4.17-1.41h-1.92v-.36h20.88v.3h0v.06h-2.4a5.7,5.7,0,0,0-3.75,1.5q-1,1.2-1,4.38v35.46a11.67,11.67,0,0,0,.27,2.76,3.8,3.8,0,0,0,.9,1.74,3.87,3.87,0,0,0,1.68,1,9.92,9.92,0,0,0,2.55.39h1.86v.42H950.67v-.42A23.94,23.94,0,0,0,954.12,2827.27Z" transform="translate(-471.66 -2779.24)"/><path class="cls-2" d="M978.51,2827.15a4.67,4.67,0,0,0,2.22-.87,3.6,3.6,0,0,0,1.2-1.8,10.49,10.49,0,0,0,.36-3.06v-35.34a11.67,11.67,0,0,0-.27-2.76,3.8,3.8,0,0,0-.9-1.74,3.65,3.65,0,0,0-1.68-1,13.26,13.26,0,0,0-2.55-.42H975v-.48h38v12.72h-.42v-.12q-.48-2-1.11-4.11a12.31,12.31,0,0,0-1.95-3.9,10.2,10.2,0,0,0-3.6-2.94,13.18,13.18,0,0,0-6-1.17H988.71v23.34h8.58a7,7,0,0,0,4.05-1.14,7.22,7.22,0,0,0,2.19-2.46,8.91,8.91,0,0,0,.93-2.64,12.67,12.67,0,0,0,.21-1.74v-.18h.36v16.74h-.36v-.18a14.23,14.23,0,0,0-.21-1.74,8.45,8.45,0,0,0-1-2.7,7.33,7.33,0,0,0-2.28-2.46A7.23,7.23,0,0,0,997,2804h-8.28v17.52a11.75,11.75,0,0,0,.27,2.73,3.81,3.81,0,0,0,.9,1.77,3.87,3.87,0,0,0,1.68,1,9.92,9.92,0,0,0,2.55.39H996v.42H975.09v-.42A23.3,23.3,0,0,0,978.51,2827.15Z" transform="translate(-471.66 -2779.24)"/><path class="cls-2" d="M1019.76,2827.27a4.71,4.71,0,0,0,2.25-.87,3.6,3.6,0,0,0,1.2-1.8,10.49,10.49,0,0,0,.36-3.06V2786.2q0-3.3-1.17-4.53t-4.17-1.41h-1.92v-.36h20.88v.3h0v.06h-2.4a5.7,5.7,0,0,0-3.75,1.5q-1.05,1.2-1,4.38v35.46a11.67,11.67,0,0,0,.27,2.76,3.8,3.8,0,0,0,.9,1.74,3.87,3.87,0,0,0,1.68,1,9.92,9.92,0,0,0,2.55.39h1.86v.42h-20.94v-.42A23.94,23.94,0,0,0,1019.76,2827.27Z" transform="translate(-471.66 -2779.24)"/><path class="cls-2" d="M1071.63,2826.88a14.46,14.46,0,0,0,3.51-1.56,13.13,13.13,0,0,0,2.67-2.19,17.87,17.87,0,0,0,2-2.55,20.55,20.55,0,0,0,2.7-7h.42l-1.74,14.28h-39.66v-.42a23.94,23.94,0,0,0,3.45-.21,4.71,4.71,0,0,0,2.25-.87,3.6,3.6,0,0,0,1.2-1.8,10.49,10.49,0,0,0,.36-3.06v-34.62a2.19,2.19,0,0,0,0-.36,2.19,2.19,0,0,1,0-.36q0-3.3-1.17-4.53t-4.17-1.41h-1.92v-.36h38v12.6h-.42v-.06q-.48-2-1.11-4.14a12.26,12.26,0,0,0-2-3.93,10.2,10.2,0,0,0-3.6-2.94,13.18,13.18,0,0,0-6-1.17h-11.28v23.46h8.58a6.86,6.86,0,0,0,4-1.17,7.93,7.93,0,0,0,3.15-5.13,14.94,14.94,0,0,0,.18-1.68v-.18h.42v16.74h-.42v-.18a16.51,16.51,0,0,0-.18-1.74,7.86,7.86,0,0,0-1-2.73,7.54,7.54,0,0,0-2.31-2.49,7.23,7.23,0,0,0-4.23-1.08h-8.28v16.44a6.45,6.45,0,0,1,.06,1.08,11.67,11.67,0,0,0,.27,2.76,3.8,3.8,0,0,0,.9,1.74,3.88,3.88,0,0,0,1.65,1,9.53,9.53,0,0,0,2.52.39h6.66A15.29,15.29,0,0,0,1071.63,2826.88Z" transform="translate(-471.66 -2779.24)"/><path class="cls-2" d="M1129.47,2820.82a20.72,20.72,0,0,1-7.14,5.22,23.25,23.25,0,0,1-9.18,1.86h-25.74v-.42a23.3,23.3,0,0,0,3.42-.21,4.67,4.67,0,0,0,2.22-.87,3.6,3.6,0,0,0,1.2-1.8,10.49,10.49,0,0,0,.36-3.06V2786.2q0-3.3-1.2-4.53t-4.2-1.41h-1.86v-.36h25.8a22.15,22.15,0,0,1,9.18,1.86,21.07,21.07,0,0,1,7.14,5.16,22.9,22.9,0,0,1,4.59,7.68,27.91,27.91,0,0,1,0,18.57A23,23,0,0,1,1129.47,2820.82Zm-10.62,4.8a17,17,0,0,0,2.85-2.16,18.42,18.42,0,0,0,2.49-2.88,26.33,26.33,0,0,0,3.54-7.56,32,32,0,0,0,1.26-9.12,32.63,32.63,0,0,0-1.26-9.18,25.36,25.36,0,0,0-3.54-7.56,18.42,18.42,0,0,0-2.49-2.88,17,17,0,0,0-2.85-2.16,14,14,0,0,0-6.42-1.86h-6.66a8,8,0,0,0-2.22.48,3.73,3.73,0,0,0-1.47,1,3.91,3.91,0,0,0-.81,1.74,12.38,12.38,0,0,0-.24,2.64v34.38a4.63,4.63,0,0,0,0,.51,5.17,5.17,0,0,1,0,.57,11.67,11.67,0,0,0,.27,2.76,4,4,0,0,0,.87,1.74,3.65,3.65,0,0,0,1.62,1,9.75,9.75,0,0,0,2.58.39h5.46A14.19,14.19,0,0,0,1118.85,2825.62Z" transform="translate(-471.66 -2779.24)"/></g></g></svg>