<svg xmlns="http://www.w3.org/2000/svg" viewBox="0 0 356.15 89.28"><defs><style>.cls-1{fill:#ff831e;}.cls-2{fill:#545759;}</style></defs><g id="Layer_2" data-name="Layer 2"><g id="Layer_1-2" data-name="Layer 1"><path class="cls-1" d="M57.72,88.63a4.94,4.94,0,0,0,2.17-.85A3.32,3.32,0,0,0,61.07,86a10.4,10.4,0,0,0,.35-3V52.15c0-1.88,0-3.5,0-4.85s0-2.24,0-2.68L43.42,79.22H43L25.83,46.74V81.57a6.1,6.1,0,0,0,1.09,3.83,7.79,7.79,0,0,0,2.59,2.2,9.31,9.31,0,0,0,3.06,1,16.94,16.94,0,0,0,2.44.24H36v.35H15.41v-.35h.89a17.38,17.38,0,0,0,2.5-.24,9.07,9.07,0,0,0,3-1,8.1,8.1,0,0,0,2.56-2.2,6.16,6.16,0,0,0,1.09-3.83V49.33c0-.94,0-1.82-.06-2.65a4.9,4.9,0,0,0-.56-2.14,3.58,3.58,0,0,0-1.59-1.45,7.31,7.31,0,0,0-3.09-.53H18.3v-.41H30.59l15.89,30.3,15.83-30.3H74.78v.41H72.43c-1.77,0-3,.44-3.68,1.3s-1,2.33-1,4.41V83q0,3.3,1.29,4.56a5.52,5.52,0,0,0,4,1.27h1.83v.35H54.36v-.35A19.75,19.75,0,0,0,57.72,88.63Z"/><path class="cls-1" d="M77.78,88.75l1-.12a7.09,7.09,0,0,0,2.29-.79,12,12,0,0,0,2.8-2.09,11.46,11.46,0,0,0,2.53-4.06l15.82-39.54h.48l15.76,39.42a25.74,25.74,0,0,0,2,4,7.65,7.65,0,0,0,1.76,2.06,4.08,4.08,0,0,0,1.79.83l2.09.32v.41H106.79v-.41c1.41-.08,2.61-.17,3.61-.26a4.11,4.11,0,0,0,2.27-.8,2.35,2.35,0,0,0,.65-2.09,16,16,0,0,0-1.18-4.14l-4.35-10.95H91.37L86.9,81.63a5.64,5.64,0,0,0-.5,3,3.94,3.94,0,0,0,.91,2,4.89,4.89,0,0,0,1.74,1.24,10.69,10.69,0,0,0,3.67.88l.77,0v.41H77.78ZM99.61,50,91.55,70.1h16.06Z"/><path class="cls-1" d="M162.38,54.39v-.12c-.31-1.21-.66-2.48-1-3.79a13.8,13.8,0,0,0-1.74-3.68,9.54,9.54,0,0,0-3.12-2.88,11.51,11.51,0,0,0-5.15-1.41h-.53A5.14,5.14,0,0,0,147.18,44c-.69.8-1,2.22-1,4.26V83a11.35,11.35,0,0,0,.26,2.68,3.77,3.77,0,0,0,.88,1.74,3.9,3.9,0,0,0,1.62,1,9.65,9.65,0,0,0,2.47.38h1.83v.41H132.73v-.41a23,23,0,0,0,3.38-.21,4.35,4.35,0,0,0,2.18-.85,3.65,3.65,0,0,0,1.15-1.76,10.53,10.53,0,0,0,.35-3V48.27a11.72,11.72,0,0,0-.26-2.7,3.67,3.67,0,0,0-.89-1.71,3.53,3.53,0,0,0-1.61-.94,11.62,11.62,0,0,0-2.47-.41h-.36a11.33,11.33,0,0,0-5.12,1.41A9.92,9.92,0,0,0,126,46.8a12.76,12.76,0,0,0-1.77,3.68c-.39,1.31-.73,2.58-1,3.79v.12h-.41V42h40V54.39Z"/><path class="cls-1" d="M207.69,54.39v-.12c-.32-1.21-.67-2.48-1.06-3.79a13.21,13.21,0,0,0-1.74-3.68,9.44,9.44,0,0,0-3.12-2.88,11.5,11.5,0,0,0-5.14-1.41h-.53A5.15,5.15,0,0,0,192.48,44c-.69.8-1,2.22-1,4.26V83a11.9,11.9,0,0,0,.26,2.68,3.69,3.69,0,0,0,.89,1.74,3.86,3.86,0,0,0,1.61,1,9.65,9.65,0,0,0,2.47.38h1.83v.41H178v-.41a23,23,0,0,0,3.39-.21,4.35,4.35,0,0,0,2.17-.85,3.58,3.58,0,0,0,1.15-1.76,10.18,10.18,0,0,0,.35-3V48.27a11.19,11.19,0,0,0-.26-2.7,3.76,3.76,0,0,0-.88-1.71,3.52,3.52,0,0,0-1.62-.94,11.62,11.62,0,0,0-2.47-.41h-.36a11.29,11.29,0,0,0-5.11,1.41,9.85,9.85,0,0,0-3.12,2.88,12.76,12.76,0,0,0-1.77,3.68c-.39,1.31-.72,2.58-1,3.79v.12h-.41V42h40V54.39Z"/><path class="cls-1" d="M243.46,88.28a14.06,14.06,0,0,0,3.44-1.53,12.91,12.91,0,0,0,2.62-2.15,17.33,17.33,0,0,0,1.94-2.5,20.23,20.23,0,0,0,2.65-6.82h.41l-1.71,14H213.92v-.41a23.14,23.14,0,0,0,3.39-.21,4.54,4.54,0,0,0,2.2-.85A3.54,3.54,0,0,0,220.69,86a10.43,10.43,0,0,0,.35-3V49.1a2.19,2.19,0,0,0,0-.36,2.07,2.07,0,0,1,0-.35q0-3.24-1.14-4.44c-.77-.81-2.13-1.27-4.09-1.39h-1.89v-.35h37.31V54.57h-.42v-.06c-.31-1.3-.67-2.65-1.08-4.06a12.14,12.14,0,0,0-1.92-3.86,10.1,10.1,0,0,0-3.53-2.88,13,13,0,0,0-5.88-1.15H227.28v23h8.41a6.69,6.69,0,0,0,4-1.15A7.66,7.66,0,0,0,241.84,62a7.75,7.75,0,0,0,.91-2.59,14.2,14.2,0,0,0,.18-1.65v-.17h.41V74h-.41v-.17a15.71,15.71,0,0,0-.18-1.71,7.84,7.84,0,0,0-.94-2.68A7.42,7.42,0,0,0,239.55,67a7.16,7.16,0,0,0-4.15-1.06h-8.12V82a6.24,6.24,0,0,1,.06,1.06,11.88,11.88,0,0,0,.26,2.71,3.86,3.86,0,0,0,.88,1.71,4,4,0,0,0,1.62,1,9.65,9.65,0,0,0,2.47.38h6.53A15.13,15.13,0,0,0,243.46,88.28Z"/><path class="cls-1" d="M258.23,89.28v-.41h0a23,23,0,0,0,3.39-.21,4.31,4.31,0,0,0,2.17-.85A3.56,3.56,0,0,0,265,86a10.09,10.09,0,0,0,.35-3V48.39q0-3.24-1.14-4.44c-.77-.81-2.13-1.27-4.09-1.39h-1.88v-.35h22.41a24.55,24.55,0,0,1,6.83.88,15.31,15.31,0,0,1,4.7,2.53,10,10,0,0,1,2.68,3.68,12,12,0,0,1,.91,4.74,10.55,10.55,0,0,1-3.59,8.41,14.12,14.12,0,0,1-4.7,2.53,12.31,12.31,0,0,1-2.74.65c-1,.12-2,.21-3,.29a8.86,8.86,0,0,1,2.62,1.24,13.46,13.46,0,0,1,3.15,3.23l11.06,15.36a5.93,5.93,0,0,0,2,1.74,12.25,12.25,0,0,0,2.23.94,9.65,9.65,0,0,0,1.92.38l1,.06h.06v.41H293.94L279.58,69.39A12.74,12.74,0,0,0,278,67.54a7,7,0,0,0-1.41-1,4.88,4.88,0,0,0-1.32-.47,7.37,7.37,0,0,0-1.35-.12H271.7V83.1a11.88,11.88,0,0,0,.26,2.71,3.78,3.78,0,0,0,.89,1.71,3.86,3.86,0,0,0,1.61,1,9.66,9.66,0,0,0,2.48.38h1.82v.41H258.23ZM271.7,65.57h8.47a7.86,7.86,0,0,0,6.27-2.68,10.29,10.29,0,0,0,1.26-1.73A14.07,14.07,0,0,0,288.82,58a17.77,17.77,0,0,0,.41-3.91,13.65,13.65,0,0,0-2.18-8.12,8,8,0,0,0-6.88-3.36h-3.82a7.66,7.66,0,0,0-2.18.48,3.49,3.49,0,0,0-1.44,1,3.9,3.9,0,0,0-.8,1.7,12.69,12.69,0,0,0-.23,2.59V65.57Z"/><path class="cls-1" d="M309.77,74.34h.47a14,14,0,0,0,.29,2.73,22.31,22.31,0,0,0,.82,3,19,19,0,0,0,1.3,2.86,8.22,8.22,0,0,0,1.71,2.17,14,14,0,0,0,4.23,2.56,14.62,14.62,0,0,0,5,1h.53a16.17,16.17,0,0,0,5-1,9.54,9.54,0,0,0,4-3.35,8.78,8.78,0,0,0,1.56-4.68,9.14,9.14,0,0,0-1.38-5,11.73,11.73,0,0,0-4.82-4.27l-7.42-3.82a21.61,21.61,0,0,1-5.88-4.15,14.07,14.07,0,0,1-3.09-4.65,10.28,10.28,0,0,1-.68-4.73,11,11,0,0,1,1.42-4.41A12.77,12.77,0,0,1,316,44.92a16.22,16.22,0,0,1,4.5-2.53,10.39,10.39,0,0,1,2.36-.65,15.9,15.9,0,0,1,2.41-.18,14.46,14.46,0,0,1,5.3,1c.62.24,1.29.48,2,.71a7.88,7.88,0,0,0,2.11.41,4.34,4.34,0,0,0,2-.35,3.67,3.67,0,0,0,1.65-1.59h.41V54.51h-.47a9.67,9.67,0,0,0-.38-2.59,15,15,0,0,0-1-2.62A15.52,15.52,0,0,0,335.36,47a14.11,14.11,0,0,0-1.65-1.86,12,12,0,0,0-3.88-2.32,13.26,13.26,0,0,0-4.59-.79,15.63,15.63,0,0,0-2,.14,13.47,13.47,0,0,0-2,.44A8.42,8.42,0,0,0,317,45.39a6,6,0,0,0-1.23,4.47,10.35,10.35,0,0,0,2.62,5.38,25.75,25.75,0,0,0,7.35,5.68l6.77,3.47a17.14,17.14,0,0,1,5.11,4,12.27,12.27,0,0,1,2.59,4.86,10.56,10.56,0,0,1,.06,5.06A10.8,10.8,0,0,1,337.86,83,15.87,15.87,0,0,1,333,86.72a23,23,0,0,1-7.36,2.15h.12l-.85.09c-.26,0-.52,0-.8,0h-.59a13.6,13.6,0,0,1-5.11-1v0a4,4,0,0,1-.59-.24,10.74,10.74,0,0,0-3.89-.91,4.85,4.85,0,0,0-2.26.47,2.48,2.48,0,0,0-1.09,1.06,7.93,7.93,0,0,0-.35.79v.06h-.41Z"/><path class="cls-2" d="M14.6,28.65a36.13,36.13,0,0,1,4.61-3.3A57.55,57.55,0,0,1,24.5,22.5l.82-.38c.35-.14.58,0,.68.38a.73.73,0,0,1-.56.83,8.33,8.33,0,0,1-.94.29,9.62,9.62,0,0,1-.86.53l-.79.45A42.68,42.68,0,0,0,18,27.68a48.83,48.83,0,0,0-4.35,3.6c-.35.85-.73,1.7-1.16,2.55s-.89,1.67-1.39,2.47-1,1.59-1.5,2.36a9.61,9.61,0,0,1-1.8,2.07,5.81,5.81,0,0,1-.86.56,2,2,0,0,1-1.16.19.42.42,0,0,0-.26-.15.41.41,0,0,1-.27-.15A1.94,1.94,0,0,1,5,39.41a7.83,7.83,0,0,1,.78-1.53,8.57,8.57,0,0,1,.9-1.43,15.31,15.31,0,0,0,.9-1.27l2.07-2.52q1-1.23,2.13-2.43c.25-.8.52-1.6.79-2.4A8.66,8.66,0,0,0,13,25a5.76,5.76,0,0,0-2.28,1.83L8.9,29.25a54.78,54.78,0,0,0-3.83,7.16,29.41,29.41,0,0,0-2.32,9,3.31,3.31,0,0,1-.6,1.72c-.3.35-.77.35-1.43,0A3.88,3.88,0,0,1,.09,45c0-.8,0-1.6,0-2.4S0,40.89,0,40s.07-1.73.11-2.58Q.42,29.86,1.32,23A54,54,0,0,1,4.4,10.43c.15-.31.3-.64.45-1a7.33,7.33,0,0,1,.52-1.05,1.88,1.88,0,0,1,.75-.71,1.31,1.31,0,0,1,1.13.08c-.1.45-.23,1-.38,1.57s-.27,1.08-.37,1.43v-.3a17.11,17.11,0,0,0-.83,2.85c-.2,1-.42,2-.67,3.07a81.68,81.68,0,0,0-1.39,9.9c-.27,3.45-.54,7-.79,10.5.6-1.45,1.22-2.86,1.84-4.24a24,24,0,0,1,2.21-3.86A22.79,22.79,0,0,1,9.5,25.12c.5-.49,1-1,1.57-1.5a3.83,3.83,0,0,1,2.18-.89,1.56,1.56,0,0,1,1.35.75,3.84,3.84,0,0,1,.45,1.57,7.12,7.12,0,0,1-.11,1.88ZM8,37a7,7,0,0,0-1.28,2.4,24.19,24.19,0,0,0,3-4.58C9.17,35.5,8.6,36.23,8,37Z"/><path class="cls-2" d="M30.5,19.88a5.82,5.82,0,0,1,4,1.57,7.22,7.22,0,0,1,1.84,3.83q2.4-.45,5-1T46.4,23.1a6.22,6.22,0,0,0,.75-.26,4.91,4.91,0,0,1,.94-.3,2.68,2.68,0,0,1,.86-.08.61.61,0,0,1,.52.34.46.46,0,0,1-.15.6,3.28,3.28,0,0,1-.75.41,4.78,4.78,0,0,1-1,.3c-.35.08-.6.14-.75.19q-2.4.75-5.06,1.31T36.5,26.7a15.61,15.61,0,0,1-.64,5.44,18.86,18.86,0,0,1-2.06,4.61,23.38,23.38,0,0,1-2.89,3.6A8.27,8.27,0,0,1,27,42.6H25.85A3.05,3.05,0,0,1,24.57,42a11.64,11.64,0,0,1-1-.86,6.51,6.51,0,0,1-1.16-3.27,18.86,18.86,0,0,1,0-4,35.64,35.64,0,0,1,.68-4c.3-1.33.57-2.51.82-3.56a3,3,0,0,1,0-2.71,5.74,5.74,0,0,1,1.46-1.94A11.92,11.92,0,0,0,26,20.1a13.53,13.53,0,0,1,.64-1.72A5.14,5.14,0,0,1,27.54,17a1.9,1.9,0,0,1,1.46-.6,1.46,1.46,0,0,1,1.5,1.09A4.05,4.05,0,0,1,30.5,19.88Zm-3.6,7.8c-.25,1.45-.56,3-.94,4.68a18.78,18.78,0,0,0-.41,5.14,7.25,7.25,0,0,0,.26,1.28,1.86,1.86,0,0,0,.71,1A5.78,5.78,0,0,0,30,38c.85-1,1.65-1.92,2.4-2.92a29.38,29.38,0,0,0,1.8-3.64,9.09,9.09,0,0,0,.6-4.39,33,33,0,0,1-3.82.56A30.45,30.45,0,0,1,26.9,27.68Zm3.3-6.23a2.31,2.31,0,0,0-.15.86.51.51,0,0,1-.45.57,1.37,1.37,0,0,1-.34,0L29,22.73a1.36,1.36,0,0,1-.08-1.05,3.27,3.27,0,0,0-.56,1c-.12.35-.24.73-.34,1.13a11,11,0,0,0-.37,1.2l-.3,1.2q2.1,0,3.9-.15c1.2-.1,2.37-.25,3.52-.45a6,6,0,0,0-1.38-3A4.42,4.42,0,0,0,30.2,21.45Z"/><path class="cls-2" d="M57.57,20.62q-1.43,1.89-2.77,4.06t-2.7,4.2c-.65.95-1.33,2-2,3.07a15.33,15.33,0,0,1-2.4,2.93,5.22,5.22,0,0,1-1.05.93A1.61,1.61,0,0,1,45.2,36a2,2,0,0,1-1.05-1.65,23,23,0,0,1,1.39-6.52,29.84,29.84,0,0,1,2.66-5.55c.35-.55.73-1.1,1.16-1.66a4.14,4.14,0,0,1,1.39-1.19,2.13,2.13,0,0,1,2.51.11,2.71,2.71,0,0,1,.79,2.74,4.2,4.2,0,0,0,.86-1.2c.32-.6.68-1.22,1.05-1.84a12.35,12.35,0,0,1,1.2-1.69,2.06,2.06,0,0,1,1.31-.82,1.7,1.7,0,0,1,.53.07l.45.15a3.46,3.46,0,0,1,.75,1.43c-.1,3-.3,5.83-.6,8.51s-.53,5.51-.68,8.51v1.35c0,.55,0,1.1-.07,1.65a8,8,0,0,1-.26,1.46c-.13.43-.34.64-.64.64a.84.84,0,0,1-.79-.49,3.46,3.46,0,0,1-.37-1.2,8.72,8.72,0,0,1-.12-1.46,7.72,7.72,0,0,0-.07-1.2,42.09,42.09,0,0,1,.15-7.95C57.05,25.6,57.32,23.08,57.57,20.62Zm-5.4.16c0-.05,0-.08-.07-.08a1.72,1.72,0,0,0-.41.19,2.68,2.68,0,0,1-.42.19,15.62,15.62,0,0,0-1.87,2.66,30.65,30.65,0,0,0-1.5,3q-.6,1.57-1.17,3.33A16.75,16.75,0,0,0,46,33.9a26,26,0,0,0,3.79-4.84c1.13-1.82,2.26-3.61,3.41-5.36a3,3,0,0,1-.37-1.61A1.27,1.27,0,0,0,52.17,20.78Z"/><path class="cls-2" d="M78.87,19.73a11.21,11.21,0,0,0-3.49,3.6q-1.3,2.18-2.81,4.35l-1.2,2.4a21.54,21.54,0,0,0-1.05,2.47A12.64,12.64,0,0,0,69.2,35a2.71,2.71,0,0,1-1.8,1.76h-.68a1.86,1.86,0,0,1-.63-.41,3.27,3.27,0,0,1-.49-.64,25.09,25.09,0,0,1-.12-3.08c0-1.09.08-2.21.15-3.33s.21-2.23.38-3.3.36-2.06.56-3A10.12,10.12,0,0,1,67,21.38a1.44,1.44,0,0,1,1.2-1,1,1,0,0,1,.87.68,4,4,0,0,1,.14,1.38,12.22,12.22,0,0,1-.18,1.65,8.59,8.59,0,0,0-.15,1.39l-.27,2.7c-.07.8-.16,1.55-.26,2.25q1.27-2.1,3.08-4.72A47,47,0,0,1,75.12,21a16.26,16.26,0,0,1,1.32-1.46A5.07,5.07,0,0,1,78,18.45a2.2,2.2,0,0,1,1.39,0,1.17,1.17,0,0,1,.86.83c.1.6,0,.92-.45,1A.83.83,0,0,1,78.87,19.73Z"/><path class="cls-2" d="M94,0a1,1,0,0,1,.75.75,3.73,3.73,0,0,1,0,1.39,14.5,14.5,0,0,1-.34,1.61,11.6,11.6,0,0,0-.3,1.35Q93.57,8.4,93,12c-.38,2.42-.66,4.9-.86,7.42s-.29,5.08-.27,7.65a52,52,0,0,0,.64,7.62A15.17,15.17,0,0,0,93,36.9a6,6,0,0,0,.9,1.88,4.9,4.9,0,0,0,2-1.73c.5-.75,1-1.47,1.57-2.17a53.19,53.19,0,0,0,3.41-6,64,64,0,0,1,3.34-6,9,9,0,0,0,.71-1.2,1,1,0,0,1,1.09-.6.9.9,0,0,1,.15,1.2,11.57,11.57,0,0,1-.67,1.2q-.82,1.8-1.8,3.63c-.65,1.23-1.28,2.42-1.88,3.57q-1.27,2.4-2.51,4.83a19.18,19.18,0,0,1-3,4.32,9.32,9.32,0,0,0-1.13.82,2.1,2.1,0,0,1-1.42.45,2.33,2.33,0,0,1-1.43-.64,4.51,4.51,0,0,1-1-1.31,8,8,0,0,1-.6-1.65c-.15-.6-.28-1.17-.38-1.72a37.46,37.46,0,0,1-.6-5c-.1-1.78-.14-3.55-.11-5.33s.11-3.52.26-5.25.33-3.33.53-4.83c-.45,1-.89,2.12-1.32,3.22s-.86,2.2-1.31,3.3a2.38,2.38,0,0,1,.26.53l.27.67a10.1,10.1,0,0,1,.22,1.2,1.8,1.8,0,0,1-.15,1.05.71.71,0,0,1-.86-.26,2.9,2.9,0,0,0-.64-.71c-.7,1.8-1.39,3.68-2.06,5.66a38.86,38.86,0,0,1-2.36,5.51,15.12,15.12,0,0,1-1,1.65,2,2,0,0,1-1.73.83,1.2,1.2,0,0,1-.67-.3,5,5,0,0,0-.53-.45,5.79,5.79,0,0,1-.52-3.19,27,27,0,0,1,.52-3.64,42.09,42.09,0,0,1,1.2-4.2,13.67,13.67,0,0,1,2-3.67,7.1,7.1,0,0,1,1.8-1.88,3,3,0,0,1,2.78-.3q1.73-3.9,3.3-8.66t3-9.34c.2-.55.37-1.06.52-1.54A1.18,1.18,0,0,1,94,0ZM85.17,22.73a2.85,2.85,0,0,0-1.24.89A9.69,9.69,0,0,0,83,25a19.79,19.79,0,0,0-1.8,4.57,30.35,30.35,0,0,0-.9,5.18,29.88,29.88,0,0,0,2.47-5.11q1-2.76,2-5.39.15-.37.33-.75a1.11,1.11,0,0,0,.12-.75Z"/><path class="cls-2" d="M107.67,23.62a1.14,1.14,0,0,1,.41-1,2.49,2.49,0,0,1,1-.41,9.61,9.61,0,0,1,1.35-.15c.48,0,.94,0,1.39,0s.91-.09,1.39-.11.91,0,1.31,0c.55,0,1.09-.07,1.61-.07a11.22,11.22,0,0,0,1.39-.08,17,17,0,0,1,1.91,0c.68,0,1.07.29,1.17.79a1,1,0,0,1-1.13.86c-.65,0-1.25,0-1.8,0l-3.56.3c-1.13.1-2.29.23-3.49.38-.55.1-1.12.18-1.72.26A1.13,1.13,0,0,1,107.67,23.62Z"/><path class="cls-2" d="M131.3,24.23a1,1,0,0,1-.87-.08,2.13,2.13,0,0,1-.56-.56,3.74,3.74,0,0,1-.37-.75,2.88,2.88,0,0,0-.38-.72,5.92,5.92,0,0,0-2.55,2.44A18.53,18.53,0,0,0,125,28.12a16.77,16.77,0,0,0-.53,2.07,14.09,14.09,0,0,0-.26,2.32,7.69,7.69,0,0,0,.22,2.18,2.53,2.53,0,0,0,1.09,1.54A6.25,6.25,0,0,0,128.9,35a32.32,32.32,0,0,1,2.62-2q2.63-2,5.1-4c1.65-1.38,3.33-2.76,5-4.16.4-.3.81-.63,1.23-1s.87-.67,1.32-1a2.85,2.85,0,0,1,.63-.45l.79-.45a8,8,0,0,0,.79-.38c.27-.15.51-.07.71.23s.09.67-.19.82a3.21,3.21,0,0,0-.71.53c-.7.5-1.36,1-2,1.53l-1.91,1.62q-2.77,2.33-5.51,5a61.58,61.58,0,0,1-5.81,5,22.94,22.94,0,0,1-2.85,1.84,4.74,4.74,0,0,1-3.68.26,3.8,3.8,0,0,1-1.91-2.14,10,10,0,0,1-.64-3.22,14.77,14.77,0,0,1,.3-3.6,19.36,19.36,0,0,1,1-3.34,14.07,14.07,0,0,1,4.12-5.92,6.25,6.25,0,0,0,.6-.27,2.71,2.71,0,0,1,.6-.18s.08,0,.08,0,0,0,.07,0h.68a2.47,2.47,0,0,1,.6.08,2.82,2.82,0,0,1,1.65,2.17,5.73,5.73,0,0,0,0,1.31A1.08,1.08,0,0,1,131.3,24.23Z"/><path class="cls-2" d="M146.75,26a14.74,14.74,0,0,0-1,2.73,12.84,12.84,0,0,0-.45,3.3,5.66,5.66,0,0,0,.68,2.82,2.66,2.66,0,0,0,2.4,1.27,7.41,7.41,0,0,0,3.71-.82c1.17-.6,2.19-1.18,3-1.73,1-.7,1.93-1.39,2.81-2.06s1.66-1.34,2.36-2A40.56,40.56,0,0,0,164,26.33q1.77-1.72,3.49-3.53a1.9,1.9,0,0,0,.49-.6,6.21,6.21,0,0,1,.56-.82,3.52,3.52,0,0,1,.64-.64.57.57,0,0,1,.71,0c.35.15.43.45.23.9a5.39,5.39,0,0,1-.53,1,2.63,2.63,0,0,1-.45.82c-.2.25-.4.53-.6.83a54.85,54.85,0,0,1-3.94,4.12q-2.06,1.95-4.23,3.9a30.77,30.77,0,0,1-6.3,4.5,15.87,15.87,0,0,1-1.88.86,10.12,10.12,0,0,1-2.17.6,9.73,9.73,0,0,1-2.29.12,4.58,4.58,0,0,1-2.14-.68,3.82,3.82,0,0,1-.79-.71c-.22-.28-.46-.56-.71-.86a7.28,7.28,0,0,1-.94-3.19,14.29,14.29,0,0,1,.23-3.56,21.07,21.07,0,0,1,.94-3.45,21.92,21.92,0,0,1,1.2-2.78,31.15,31.15,0,0,1,3-4.42,8.76,8.76,0,0,1,4.57-2.85,3.6,3.6,0,0,1,2.51.67,2.56,2.56,0,0,1,.79,2.4,4.87,4.87,0,0,1-.9,2.25A14.88,14.88,0,0,1,154,23a16.93,16.93,0,0,1-3,2.36A6.17,6.17,0,0,1,146.75,26Zm7-8a7.74,7.74,0,0,0-4,2.74,27.35,27.35,0,0,0-2.55,4.16,4.66,4.66,0,0,0,2.77-.75,20.57,20.57,0,0,0,1.95-1.57c.55-.6,1.13-1.2,1.73-1.8a3.23,3.23,0,0,0,.82-2.55A.81.81,0,0,0,153.72,18Z"/><path class="cls-2" d="M179.67,19.73a11.21,11.21,0,0,0-3.49,3.6q-1.31,2.18-2.81,4.35l-1.2,2.4a21.54,21.54,0,0,0-1,2.47A13.3,13.3,0,0,0,170,35a2.71,2.71,0,0,1-1.8,1.76h-.67a2,2,0,0,1-.64-.41,3.68,3.68,0,0,1-.48-.64,25.09,25.09,0,0,1-.12-3.08c0-1.09.08-2.21.15-3.33s.2-2.23.38-3.3.36-2.06.56-3a10.12,10.12,0,0,1,.45-1.65,1.44,1.44,0,0,1,1.2-1,.93.93,0,0,1,.86.68,3.75,3.75,0,0,1,.15,1.38,12.29,12.29,0,0,1-.19,1.65,8.59,8.59,0,0,0-.15,1.39c-.1,1-.18,1.9-.26,2.7s-.16,1.55-.26,2.25c.85-1.4,1.88-3,3.07-4.72A47.07,47.07,0,0,1,175.92,21a17.79,17.79,0,0,1,1.31-1.46,5.24,5.24,0,0,1,1.54-1.09,2.2,2.2,0,0,1,1.39,0,1.17,1.17,0,0,1,.86.83c.1.6-.05.92-.45,1A.83.83,0,0,1,179.67,19.73Z"/><path class="cls-2" d="M187.32,12.38q6.45-.22,13.42-.68a98.88,98.88,0,0,1,13.88.08l.82,0a.66.66,0,0,1,.6.42c0,.4-.23.6-.56.6a4.42,4.42,0,0,1-.86-.08,136.62,136.62,0,0,0-13.88.11q-6.9.42-13.57.79-1,6.15-1.91,12.53a91.45,91.45,0,0,0-.79,13.35c0,.65,0,1.37.07,2.17a15.3,15.3,0,0,0,.3,2.25c.1.55.27,1.23.49,2s.56,1.22,1,1.27a1,1,0,0,0,.79-.22,7.61,7.61,0,0,0,.83-.72,8.71,8.71,0,0,0,.75-.86c.22-.3.38-.52.48-.67a74.42,74.42,0,0,0,5.37-8q2.35-4.09,5-8.51c.45-.8.93-1.63,1.43-2.48s1.05-1.7,1.65-2.55a6.86,6.86,0,0,1,.67-.86.67.67,0,0,1,.75-.27.59.59,0,0,1,.23.94,10.22,10.22,0,0,1-.6.94q-1.87,3.15-3.53,6.38t-3.52,6.37c-.7,1.15-1.39,2.31-2.06,3.49s-1.39,2.34-2.14,3.49-1.53,2.27-2.33,3.37A8,8,0,0,1,187,49.65a4.2,4.2,0,0,1-1.58,0,4.63,4.63,0,0,1-2.58-2.81,20.37,20.37,0,0,1-1-4.24,32.27,32.27,0,0,1-.37-5c0-1.72.05-3.41.15-5.06q.38-5,1-9.71c.43-3.13.94-6.11,1.54-9q-3.45.15-7,.52t-7.24.53l-1,0c-.38,0-.59-.16-.64-.56a.53.53,0,0,1,.6-.6,6.51,6.51,0,0,0,1-.07q3.53-.23,7.2-.61c2.45-.24,4.87-.42,7.27-.52.3-1,.64-2.29,1-3.71A29.34,29.34,0,0,1,186.72,5a6,6,0,0,1,.56-1.24,1.19,1.19,0,0,1,1-.71.79.79,0,0,1,.72.3,1.19,1.19,0,0,1,.15.71,7.22,7.22,0,0,1-.15.87c-.08.3-.14.57-.19.82-.25,1.1-.5,2.24-.75,3.41S187.57,11.38,187.32,12.38Z"/><path class="cls-2" d="M204.42,21.68a1.1,1.1,0,0,1,.26.82c0,.3,0,.63,0,1,0,.85-.06,1.77,0,2.77s0,2,0,2.93,0,1.87,0,2.77a3.24,3.24,0,0,1-.79,2.17h-.6a2.29,2.29,0,0,1-.56-1.16,10.53,10.53,0,0,1-.27-1.68q-.07-1.65,0-3.45a31.17,31.17,0,0,1,.26-3.53q.07-.45.15-1.05A4.24,4.24,0,0,1,203,22.2a1.27,1.27,0,0,1,.53-.64A.88.88,0,0,1,204.42,21.68Zm.37-14.56a1.71,1.71,0,0,1-.6,1.21.81.81,0,0,1-.86-.15,1.3,1.3,0,0,1-.3-.72.85.85,0,0,1,1.09-.93C204.52,6.73,204.74,6.93,204.79,7.12Z"/><path class="cls-2" d="M223.47,5.18c-.25.15-.43.11-.53-.12a1.66,1.66,0,0,0-.3-.48,4.16,4.16,0,0,0-.86-.64,1.75,1.75,0,0,0-1.31-.19A2.18,2.18,0,0,0,219,5.06c-.4.78-.72,1.44-1,2a40.3,40.3,0,0,0-2.14,6.45q-.85,3.52-1.46,6.9,3-1.12,6.37-2.47A45.51,45.51,0,0,1,228,15.75a30.49,30.49,0,0,1,3.71-.56,8.59,8.59,0,0,1,3.71.41c.25.1.53.23.83.38a.71.71,0,0,1,.37.82,1.22,1.22,0,0,1-1.35.23,5.55,5.55,0,0,0-1.57-.38,8.7,8.7,0,0,0-2.93.19c-1,.22-1.87.46-2.77.71s-1.76.51-2.59.79-1.59.56-2.29.86A48.74,48.74,0,0,0,218.37,21c-1.5.67-3,1.39-4.43,2.14-.25,1.55-.47,3.15-.67,4.8s-.4,3.35-.6,5.1c0,.55-.11,1.11-.19,1.68a8,8,0,0,0,0,1.69,6,6,0,0,0,.3,1.24c.15.42.28.84.38,1.24a47.9,47.9,0,0,1,1.2,14.17c0,.55,0,1.11-.08,1.69a7.29,7.29,0,0,1-.3,1.57,2.79,2.79,0,0,1-.67,1.17,1.62,1.62,0,0,1-1.2.45,1.47,1.47,0,0,1-1.09-.42,2.82,2.82,0,0,1-.64-1,6.39,6.39,0,0,1-.33-1.27c-.08-.45-.14-.88-.19-1.28a45,45,0,0,1-.64-7.16q0-3.72.19-7.54c0-.5.11-1,.19-1.5a5.67,5.67,0,0,0,0-1.42,3,3,0,0,0-.41-1.2c-.22-.4-.44-.8-.64-1.2a10.93,10.93,0,0,0-1.31-2.18l-1.54-1.95c-.25-.3-.51-.64-.78-1a2,2,0,0,1-.42-1.24,2.21,2.21,0,0,1,.3-1.12,4.64,4.64,0,0,1,.75-1,6.17,6.17,0,0,1,1-.79,9.79,9.79,0,0,0,.9-.63c.7-.46,1.36-.84,2-1.17l2.06-1.08c.45-2.45,1-5,1.76-7.54a62.31,62.31,0,0,1,2.44-7.09,21.45,21.45,0,0,1,1.61-2.92,5.21,5.21,0,0,1,2.44-2s.05,0,.15-.07a2.72,2.72,0,0,1,1.72.33q.6.42,1.2.87a5.62,5.62,0,0,0,.64.82A.7.7,0,0,1,223.47,5.18ZM207.19,27.53a19.13,19.13,0,0,1,1.54,1.72A15.08,15.08,0,0,1,210,31.2c.15-1.05.29-2.11.42-3.19s.28-2.11.48-3.11l-.07-.07c-.65.45-1.3.87-2,1.27A8,8,0,0,0,207.19,27.53Z"/><path class="cls-2" d="M229.77,21.68a1.1,1.1,0,0,1,.26.82c0,.3,0,.63,0,1-.05.85-.06,1.77,0,2.77s0,2,0,2.93,0,1.87,0,2.77a3.24,3.24,0,0,1-.79,2.17h-.6A2.29,2.29,0,0,1,228,33a10.53,10.53,0,0,1-.27-1.68q-.08-1.65,0-3.45A31.17,31.17,0,0,1,228,24.3q.08-.45.15-1.05a4.24,4.24,0,0,1,.26-1.05,1.27,1.27,0,0,1,.53-.64A.88.88,0,0,1,229.77,21.68Zm.37-14.56a1.71,1.71,0,0,1-.6,1.21.81.81,0,0,1-.86-.15,1.3,1.3,0,0,1-.3-.72.85.85,0,0,1,1.09-.93C229.87,6.73,230.09,6.93,230.14,7.12Z"/><path class="cls-2" d="M242.74,24.23a1,1,0,0,1-.86-.08,2.13,2.13,0,0,1-.56-.56,3.77,3.77,0,0,1-.38-.75,2.87,2.87,0,0,0-.37-.72A5.92,5.92,0,0,0,238,24.56a18.57,18.57,0,0,0-1.58,3.56,16.86,16.86,0,0,0-.52,2.07,14.09,14.09,0,0,0-.26,2.32,7.69,7.69,0,0,0,.22,2.18A2.53,2.53,0,0,0,237,36.23,6.21,6.21,0,0,0,240.34,35,32.47,32.47,0,0,1,243,33q2.63-2,5.1-4c1.65-1.38,3.32-2.76,5-4.16.4-.3.82-.63,1.24-1a15.27,15.27,0,0,1,1.31-1,2.94,2.94,0,0,1,.64-.45l.79-.45a8,8,0,0,0,.79-.38c.27-.15.51-.07.71.23s.09.67-.19.82a3.21,3.21,0,0,0-.71.53c-.7.5-1.36,1-2,1.53l-1.91,1.62q-2.78,2.33-5.51,5a61.7,61.7,0,0,1-5.82,5,22.94,22.94,0,0,1-2.85,1.84,4.72,4.72,0,0,1-3.67.26A3.8,3.8,0,0,1,234,36.26a10,10,0,0,1-.64-3.22,14.77,14.77,0,0,1,.3-3.6,19.38,19.38,0,0,1,1-3.34,14.09,14.09,0,0,1,4.13-5.92,6.25,6.25,0,0,0,.6-.27,2.71,2.71,0,0,1,.6-.18c.05,0,.07,0,.07,0s0,0,.08,0h.67a2.47,2.47,0,0,1,.6.08A2.82,2.82,0,0,1,243,21.9a5.73,5.73,0,0,0,0,1.31A1.08,1.08,0,0,1,242.74,24.23Z"/><path class="cls-2" d="M266.89,20.62q-1.42,1.89-2.77,4.06t-2.7,4.2c-.65.95-1.33,2-2,3.07a15.33,15.33,0,0,1-2.4,2.93,5.22,5.22,0,0,1-1.05.93,1.61,1.61,0,0,1-1.42.19,2,2,0,0,1-1.05-1.65,23,23,0,0,1,1.39-6.52,29.84,29.84,0,0,1,2.66-5.55c.35-.55.73-1.1,1.16-1.66a4.14,4.14,0,0,1,1.39-1.19,2.13,2.13,0,0,1,2.51.11,2.71,2.71,0,0,1,.79,2.74,4.2,4.2,0,0,0,.86-1.2c.32-.6.68-1.22,1-1.84a12.35,12.35,0,0,1,1.2-1.69,2.06,2.06,0,0,1,1.31-.82,1.7,1.7,0,0,1,.53.07l.45.15a3.46,3.46,0,0,1,.75,1.43c-.1,3-.3,5.83-.6,8.51s-.53,5.51-.68,8.51v1.35c0,.55,0,1.1-.07,1.65a8,8,0,0,1-.26,1.46c-.13.43-.34.64-.64.64a.85.85,0,0,1-.79-.49,3.46,3.46,0,0,1-.37-1.2,8.72,8.72,0,0,1-.12-1.46,7.72,7.72,0,0,0-.07-1.2,42.09,42.09,0,0,1,.15-7.95C266.37,25.6,266.64,23.08,266.89,20.62Zm-5.4.16c0-.05,0-.08-.07-.08a2,2,0,0,0-.42.19,2.22,2.22,0,0,1-.41.19,15.62,15.62,0,0,0-1.87,2.66,30.65,30.65,0,0,0-1.5,3c-.4,1-.79,2.16-1.16,3.33a16.22,16.22,0,0,0-.72,3.79,26.45,26.45,0,0,0,3.79-4.84q1.68-2.73,3.41-5.36a3,3,0,0,1-.37-1.61A1.27,1.27,0,0,0,261.49,20.78Z"/><path class="cls-2" d="M280.62,12.38q6.45-.22,13.42-.68a98.88,98.88,0,0,1,13.88.08l.82,0a.66.66,0,0,1,.6.42c0,.4-.24.6-.56.6a4.34,4.34,0,0,1-.86-.08,136.62,136.62,0,0,0-13.88.11q-6.9.42-13.57.79-1.05,6.15-1.91,12.53a91.45,91.45,0,0,0-.79,13.35c0,.65,0,1.37.07,2.17a15.3,15.3,0,0,0,.3,2.25c.1.55.27,1.23.49,2s.56,1.22,1,1.27a1,1,0,0,0,.79-.22,7.55,7.55,0,0,0,.82-.72,6.7,6.7,0,0,0,.75-.86c.23-.3.39-.52.49-.67a74.42,74.42,0,0,0,5.37-8q2.36-4.09,5-8.51c.45-.8.93-1.63,1.43-2.48s1.05-1.7,1.65-2.55a6.86,6.86,0,0,1,.67-.86.67.67,0,0,1,.75-.27.59.59,0,0,1,.23.94,10.22,10.22,0,0,1-.6.94q-1.87,3.15-3.53,6.38t-3.52,6.37c-.7,1.15-1.39,2.31-2.06,3.49s-1.39,2.34-2.14,3.49-1.53,2.27-2.33,3.37a8,8,0,0,1-3.07,2.55,4.2,4.2,0,0,1-1.58,0,4.63,4.63,0,0,1-2.58-2.81,20.37,20.37,0,0,1-1-4.24,32.27,32.27,0,0,1-.37-5c0-1.72.05-3.41.15-5.06q.38-5,1-9.71c.42-3.13.94-6.11,1.54-9q-3.45.15-7,.52t-7.24.53l-1,0c-.38,0-.59-.16-.64-.56a.53.53,0,0,1,.6-.6,6.51,6.51,0,0,0,1.05-.07q3.52-.23,7.2-.61c2.45-.24,4.87-.42,7.27-.52.3-1,.64-2.29,1-3.71A29.34,29.34,0,0,1,280,5a5.54,5.54,0,0,1,.56-1.24,1.18,1.18,0,0,1,1-.71.79.79,0,0,1,.72.3,1.19,1.19,0,0,1,.15.71,7.22,7.22,0,0,1-.15.87c-.08.3-.14.57-.19.82-.25,1.1-.5,2.24-.75,3.41S280.87,11.38,280.62,12.38Z"/><path class="cls-2" d="M297.72,21.68a1.14,1.14,0,0,1,.26.82c0,.3,0,.63,0,1-.05.85-.06,1.77,0,2.77s0,2,0,2.93,0,1.87,0,2.77a3.24,3.24,0,0,1-.79,2.17h-.6A2.29,2.29,0,0,1,296,33a10.53,10.53,0,0,1-.27-1.68q-.07-1.65,0-3.45a31.17,31.17,0,0,1,.26-3.53q.07-.45.15-1.05a4.24,4.24,0,0,1,.26-1.05,1.31,1.31,0,0,1,.52-.64A.9.9,0,0,1,297.72,21.68Zm.37-14.56a1.71,1.71,0,0,1-.6,1.21.81.81,0,0,1-.86-.15,1.3,1.3,0,0,1-.3-.72,1,1,0,0,1,.22-.71,1,1,0,0,1,.87-.22C297.82,6.73,298,6.93,298.09,7.12Z"/><path class="cls-2" d="M309.42,19.88a5.84,5.84,0,0,1,4,1.57,7.3,7.3,0,0,1,1.84,3.83q2.4-.45,5-1t5.07-1.16a6.22,6.22,0,0,0,.75-.26,5,5,0,0,1,.93-.3,2.76,2.76,0,0,1,.87-.08.61.61,0,0,1,.52.34.46.46,0,0,1-.15.6,3.28,3.28,0,0,1-.75.41,4.78,4.78,0,0,1-1,.3c-.35.08-.6.14-.75.19q-2.4.75-5.06,1.31t-5.29,1.09a15.85,15.85,0,0,1-.64,5.44,19.24,19.24,0,0,1-2.06,4.61,24,24,0,0,1-2.89,3.6,8.32,8.32,0,0,1-3.94,2.25h-1.12a3.05,3.05,0,0,1-1.28-.56,11.64,11.64,0,0,1-1-.86,6.51,6.51,0,0,1-1.16-3.27,18.86,18.86,0,0,1,0-4,35.64,35.64,0,0,1,.68-4c.3-1.33.57-2.51.82-3.56a3,3,0,0,1,0-2.71,5.74,5.74,0,0,1,1.46-1.94,13.55,13.55,0,0,0,.56-1.58,12.16,12.16,0,0,1,.64-1.72,5.14,5.14,0,0,1,.94-1.43,1.9,1.9,0,0,1,1.46-.6,1.46,1.46,0,0,1,1.5,1.09A4.05,4.05,0,0,1,309.42,19.88Zm-3.6,7.8c-.25,1.45-.57,3-.94,4.68a18.4,18.4,0,0,0-.41,5.14,6.45,6.45,0,0,0,.26,1.28,1.81,1.81,0,0,0,.71,1,5.78,5.78,0,0,0,3.45-1.8c.85-1,1.65-1.92,2.4-2.92a29.38,29.38,0,0,0,1.8-3.64,9.09,9.09,0,0,0,.6-4.39,33,33,0,0,1-3.82.56A30.45,30.45,0,0,1,305.82,27.68Zm3.3-6.23a2.31,2.31,0,0,0-.15.86.51.51,0,0,1-.45.57,1.31,1.31,0,0,1-.34,0l-.26-.11a1.36,1.36,0,0,1-.08-1.05,3.06,3.06,0,0,0-.56,1,10.76,10.76,0,0,0-.34,1.13,11,11,0,0,0-.37,1.2l-.3,1.2q2.1,0,3.9-.15c1.2-.1,2.37-.25,3.52-.45a6,6,0,0,0-1.39-3A4.38,4.38,0,0,0,309.12,21.45Z"/><path class="cls-2" d="M327.94,33.23q1.5-2.85,3-5.82a27.78,27.78,0,0,1,3.53-5.36q.3-.37.75-.9a5.46,5.46,0,0,1,1-.9,3.29,3.29,0,0,1,1.16-.52,2.29,2.29,0,0,1,1.39.15,3.41,3.41,0,0,1,1.65,2.32q.53,1.8.9,3.6c.1.55.21,1.13.34,1.73s.26,1.2.41,1.8a12.14,12.14,0,0,0,.6,1.68q.38.87.9,1a1.25,1.25,0,0,0,1.13-.27c.35-.27.65-.48.9-.64s.57-.46.82-.63a6.09,6.09,0,0,0,.75-.64,31.22,31.22,0,0,0,3.15-3.15,38,38,0,0,1,3.15-3.22,14.4,14.4,0,0,1,1.31-.87,2,2,0,0,1,.9-.26c.28,0,.44.18.49.53s-.11.55-.49.74a4.08,4.08,0,0,0-.86.61,19.31,19.31,0,0,0-2.1,2.13q-1.05,1.25-2.25,2.52c-.4.4-.79.77-1.16,1.12s-.76.73-1.16,1.12c-.65.66-1.35,1.29-2.1,1.92a4.46,4.46,0,0,1-2.93.94l-.34-.15a1.07,1.07,0,0,0-.41-.08,4.63,4.63,0,0,1-1.84-2.32,24.75,24.75,0,0,1-.93-3.19c-.25-1.13-.49-2.25-.72-3.38a10.27,10.27,0,0,0-1.08-3,4.48,4.48,0,0,0-1.95,1.68,23,23,0,0,1-1.5,2.14,34.57,34.57,0,0,0-2.55,4.65q-1.12,2.47-2.18,5.1a4.67,4.67,0,0,0-.52,1.16,12.86,12.86,0,0,1-.53,1.39,3.67,3.67,0,0,1-.79,1.16,1.37,1.37,0,0,1-1.31.34,1.23,1.23,0,0,1-1-.79A4.55,4.55,0,0,1,325,37a16.59,16.59,0,0,1,0-2c0-.73.06-1.39.11-2q.3-3.6.83-7a41.9,41.9,0,0,1,1.42-6.26c.2-.55.38-1.05.53-1.5a1,1,0,0,1,1-.75.85.85,0,0,1,.94.41,2.14,2.14,0,0,1,.22,1.16,8.22,8.22,0,0,1-.22,1.46c-.13.53-.21,1-.26,1.32q-.52,2.85-.9,5.7T327.94,33.23Z"/></g></g></svg>