<svg xmlns="http://www.w3.org/2000/svg" viewBox="0 0 293.93 129.84"><defs><style>.cls-1{fill:#53575a;}.cls-2{fill:#ff8300;}</style></defs><g id="Layer_2" data-name="Layer 2"><g id="Layer_1-2" data-name="Layer 1"><path class="cls-1" d="M43.1,45.89a5.61,5.61,0,0,1-.91,1.23c-.35.35-.7.68-1,1a3.79,3.79,0,0,1-.72.65,15.28,15.28,0,0,1-5.85,2.79,30.45,30.45,0,0,1-8.52,1H0v-.45a26.22,26.22,0,0,0,3.74-.23A5,5,0,0,0,6.17,51a4,4,0,0,0,1.31-2,11.72,11.72,0,0,0,.39-3.32V8.25a3.36,3.36,0,0,1-.07-.84,13,13,0,0,0-.29-3,4.32,4.32,0,0,0-1-1.89,3.67,3.67,0,0,0-1.75-1A13.77,13.77,0,0,0,2.08,1H0V.52H24.7a29.43,29.43,0,0,1,4,.26,22.23,22.23,0,0,1,3.54.78,13.88,13.88,0,0,1,5.2,2.86,11.69,11.69,0,0,1,4,9.29,11.61,11.61,0,0,1-4,9.23,16.87,16.87,0,0,1-2.37,1.63,13.12,13.12,0,0,1-2.83,1.17,11.66,11.66,0,0,1-1.49.42q-.78.16-1.56.36a22.4,22.4,0,0,1,2.82.29c.89.15,1.75.34,2.57.55a16.27,16.27,0,0,1,5.85,2.8,11.23,11.23,0,0,1,4.49,9.3A11.76,11.76,0,0,1,43.1,45.89ZM14.82,26.32h9.36a9.62,9.62,0,0,0,5.53-1.55,10.57,10.57,0,0,0,1.43-1.31,11.13,11.13,0,0,0,1.36-1.88,16.6,16.6,0,0,0,1.69-7.87q0-5.66-2.4-9Q29.26,1,24.18,1H20c-1.95.17-3.3.7-4.06,1.59s-1.14,2.46-1.14,4.71v19Zm19.3,22.1c1.82-2.21,2.73-5.19,2.73-9a14,14,0,0,0-2.73-9q-2.92-3.69-8.58-3.7H14.82v19a13,13,0,0,0,.29,3,4.08,4.08,0,0,0,1,1.91,4.15,4.15,0,0,0,1.82,1.08,10.55,10.55,0,0,0,2.76.42h4.87Q31.27,52.13,34.12,48.42Z"/><path class="cls-1" d="M46.93,52.71v-.45H47A26.12,26.12,0,0,0,50.73,52a4.87,4.87,0,0,0,2.41-.94,4,4,0,0,0,1.26-2,11.37,11.37,0,0,0,.39-3.32V7.54q0-3.57-1.26-4.91c-.85-.89-2.35-1.4-4.52-1.53H46.93V.71H71.69a26.71,26.71,0,0,1,7.54,1,16.68,16.68,0,0,1,5.2,2.79,11,11,0,0,1,3,4.07,13.25,13.25,0,0,1,1,5.23,11.65,11.65,0,0,1-4,9.29,15.34,15.34,0,0,1-5.2,2.8,12.93,12.93,0,0,1-3,.71c-1.06.13-2.18.24-3.35.33a10,10,0,0,1,2.9,1.36,14.86,14.86,0,0,1,3.47,3.58l12.22,17a6.51,6.51,0,0,0,2.18,1.92,13.07,13.07,0,0,0,2.47,1,9.78,9.78,0,0,0,2.11.42c.61.05,1,.07,1.11.07h.06v.45h-13l-15.86-22a15.29,15.29,0,0,0-1.78-2.05,7.84,7.84,0,0,0-1.56-1.14A5.3,5.3,0,0,0,65.71,27a8,8,0,0,0-1.49-.13H61.81v19a12.36,12.36,0,0,0,.3,3,4.14,4.14,0,0,0,1,1.89,4.31,4.31,0,0,0,1.79,1.07,10.18,10.18,0,0,0,2.73.42h2v.45H46.93ZM61.81,26.52h9.36a9.35,9.35,0,0,0,5.46-1.62,10.38,10.38,0,0,0,1.47-1.34,11.62,11.62,0,0,0,1.39-1.91,15.92,15.92,0,0,0,1.24-3.55,19.49,19.49,0,0,0,.45-4.32,15.17,15.17,0,0,0-2.4-9A8.81,8.81,0,0,0,71.17,1.1H67a8.82,8.82,0,0,0-2.41.52A4,4,0,0,0,63,2.73a4.33,4.33,0,0,0-.88,1.88,13.78,13.78,0,0,0-.26,2.87v19Z"/><path class="cls-1" d="M135.91,51.61a15.81,15.81,0,0,0,3.81-1.69,14.07,14.07,0,0,0,2.89-2.37,18.87,18.87,0,0,0,2.14-2.77,22.13,22.13,0,0,0,2.93-7.53h.45l-1.88,15.46h-43v-.45A26.12,26.12,0,0,0,107,52a5.06,5.06,0,0,0,2.44-.94,3.9,3.9,0,0,0,1.3-2,11.37,11.37,0,0,0,.39-3.32V8.32a2.56,2.56,0,0,0,0-.39,1.72,1.72,0,0,1,0-.39q0-3.57-1.26-4.91c-.85-.89-2.35-1.4-4.52-1.53h-2.08V.71h41.21V14.36H144V14.3c-.34-1.43-.74-2.92-1.2-4.49a13.22,13.22,0,0,0-2.11-4.25,11,11,0,0,0-3.9-3.19,14.34,14.34,0,0,0-6.5-1.27H118V26.52h9.29a7.41,7.41,0,0,0,4.39-1.27,8.53,8.53,0,0,0,3.41-5.56,16.62,16.62,0,0,0,.2-1.81v-.2h.45V35.81h-.45v-.19a18.73,18.73,0,0,0-.2-1.89,8.38,8.38,0,0,0-1-2.95,8.06,8.06,0,0,0-2.5-2.7A7.82,7.82,0,0,0,127,26.91h-9V44.72a7.62,7.62,0,0,1,.06,1.17,12.36,12.36,0,0,0,.3,3,4.14,4.14,0,0,0,1,1.89,4.31,4.31,0,0,0,1.79,1.07,10.18,10.18,0,0,0,2.73.42h7.21A16.66,16.66,0,0,0,135.91,51.61Z"/><path class="cls-1" d="M152.36,52.13,153.5,52a7.89,7.89,0,0,0,2.53-.88,13.3,13.3,0,0,0,3.09-2.31,12.66,12.66,0,0,0,2.79-4.48L179.4.65h.52L197.34,44.2a28.66,28.66,0,0,0,2.14,4.39,8.79,8.79,0,0,0,2,2.27,4.41,4.41,0,0,0,2,.91l2.3.36v.45H184.4v-.45c1.56-.09,2.9-.18,4-.29a4.45,4.45,0,0,0,2.5-.88,2.56,2.56,0,0,0,.72-2.31,18,18,0,0,0-1.3-4.58L185.51,32H167.37l-4.94,12.29a6.23,6.23,0,0,0-.55,3.28,4.35,4.35,0,0,0,1,2.21,5.32,5.32,0,0,0,1.92,1.36,11.15,11.15,0,0,0,2.21.72,11.31,11.31,0,0,0,1.85.26l.84,0v.45H152.36ZM176.47,9.36l-8.9,22.16h17.74Z"/><path class="cls-1" d="M210.27,36.21h.52a15.69,15.69,0,0,0,.33,3,22.66,22.66,0,0,0,.91,3.31,19.55,19.55,0,0,0,1.43,3.15,9.13,9.13,0,0,0,1.88,2.41A15.75,15.75,0,0,0,220,50.93,16.18,16.18,0,0,0,225.55,52h.58a18.36,18.36,0,0,0,5.53-1.1,10.66,10.66,0,0,0,4.42-3.71A9.68,9.68,0,0,0,237.8,42a10,10,0,0,0-1.53-5.52,12.93,12.93,0,0,0-5.33-4.72l-8.19-4.22a24.16,24.16,0,0,1-6.5-4.58,15.49,15.49,0,0,1-3.41-5.14,11.38,11.38,0,0,1-.75-5.23,12.43,12.43,0,0,1,1.56-4.88,14.38,14.38,0,0,1,3.48-4,17.38,17.38,0,0,1,5-2.8,11.62,11.62,0,0,1,2.6-.72A18,18,0,0,1,227.37,0a16,16,0,0,1,5.85,1.1c.69.26,1.43.52,2.21.78a8.44,8.44,0,0,0,2.34.46A4.86,4.86,0,0,0,240,2,4.12,4.12,0,0,0,241.8.19h.45V14.3h-.52a10.59,10.59,0,0,0-.42-2.86,15.23,15.23,0,0,0-1.14-2.89A17.5,17.5,0,0,0,238.55,6a16.48,16.48,0,0,0-1.82-2.05,13.19,13.19,0,0,0-4.29-2.57,14.8,14.8,0,0,0-5.07-.87,15.44,15.44,0,0,0-2.24.16A14.75,14.75,0,0,0,223,1.1a9.33,9.33,0,0,0-4.65,3.13,6.63,6.63,0,0,0-1.36,4.94,11.49,11.49,0,0,0,2.89,5.94A28.92,28.92,0,0,0,228,21.38l7.48,3.84a18.94,18.94,0,0,1,5.65,4.45A13.56,13.56,0,0,1,243.94,35a11.62,11.62,0,0,1,.07,5.59,11.9,11.9,0,0,1-2.7,5.17,17.55,17.55,0,0,1-5.43,4.1,25.3,25.3,0,0,1-8.12,2.37h.13l-.94.1c-.29,0-.58,0-.88,0h-.65a14.9,14.9,0,0,1-5.66-1.11v0a4.17,4.17,0,0,1-.65-.26,11.91,11.91,0,0,0-4.29-1,5.39,5.39,0,0,0-2.5.52,2.66,2.66,0,0,0-1.2,1.17,9.46,9.46,0,0,0-.39.87v.07h-.46Z"/><path class="cls-1" d="M293.47,14.17V14c-.34-1.34-.73-2.74-1.17-4.19a15,15,0,0,0-1.91-4.07,10.82,10.82,0,0,0-3.45-3.18A12.82,12.82,0,0,0,281.25,1h-.58a5.75,5.75,0,0,0-4,1.59Q275.53,4,275.53,7.34V45.76a12.44,12.44,0,0,0,.3,3,4.07,4.07,0,0,0,1,1.91,4.22,4.22,0,0,0,1.79,1.08,10,10,0,0,0,2.73.42h2v.45H260.71v-.45a26.12,26.12,0,0,0,3.74-.23,4.87,4.87,0,0,0,2.41-.94,4,4,0,0,0,1.26-2,11.37,11.37,0,0,0,.39-3.32V7.41a12.42,12.42,0,0,0-.29-3,4.14,4.14,0,0,0-1-1.89,4,4,0,0,0-1.79-1A13.77,13.77,0,0,0,262.73,1h-.39a12.61,12.61,0,0,0-5.66,1.56,11.1,11.1,0,0,0-3.44,3.18,14.27,14.27,0,0,0-2,4.07c-.44,1.45-.8,2.85-1.11,4.19v.13h-.45V.52h44.2V14.17Z"/><path class="cls-1" d="M64.12,122.89a5,5,0,0,1-.91,1.23c-.34.35-.69.68-1,1a4,4,0,0,1-.71.65,15.28,15.28,0,0,1-5.85,2.79,30.5,30.5,0,0,1-8.52,1H21v-.45a26.22,26.22,0,0,0,3.74-.23A5,5,0,0,0,27.2,128,3.9,3.9,0,0,0,28.5,126a11.37,11.37,0,0,0,.39-3.32V85.25a4.11,4.11,0,0,1-.06-.84,13,13,0,0,0-.29-3,4.32,4.32,0,0,0-.95-1.89,3.72,3.72,0,0,0-1.75-1A13.77,13.77,0,0,0,23.11,78H21v-.52h24.7a29.43,29.43,0,0,1,4,.26,22.23,22.23,0,0,1,3.54.78,14,14,0,0,1,5.2,2.86,11.69,11.69,0,0,1,4,9.29,11.6,11.6,0,0,1-4,9.23,16.87,16.87,0,0,1-2.37,1.63,13.12,13.12,0,0,1-2.83,1.17,11.81,11.81,0,0,1-1.5.42q-.78.16-1.56.36a22.37,22.37,0,0,1,2.83.29c.89.15,1.74.34,2.57.55a16.27,16.27,0,0,1,5.85,2.8,11.22,11.22,0,0,1,4.48,9.3A11.68,11.68,0,0,1,64.12,122.89ZM35.85,103.32h9.36a8.33,8.33,0,0,0,6.95-2.86,11.14,11.14,0,0,0,1.37-1.88,16.72,16.72,0,0,0,1.69-7.87q0-5.65-2.41-9Q50.27,78,45.21,78H41.05c-1.95.17-3.31.7-4.06,1.59s-1.14,2.46-1.14,4.71v19Zm19.3,22.1c1.82-2.21,2.73-5.19,2.73-9a14,14,0,0,0-2.73-9q-2.92-3.69-8.58-3.7H35.85v19a13,13,0,0,0,.29,3,4.08,4.08,0,0,0,1,1.91,4.15,4.15,0,0,0,1.82,1.08,10.42,10.42,0,0,0,2.76.42h4.87Q52.3,129.13,55.15,125.42Z"/><path class="cls-1" d="M67.57,129.13,68.7,129a7.94,7.94,0,0,0,2.54-.88,13.73,13.73,0,0,0,3.09-2.31,12.66,12.66,0,0,0,2.79-4.48L94.61,77.65h.52l17.42,43.55a28.66,28.66,0,0,0,2.14,4.39,8.79,8.79,0,0,0,2,2.27,4.42,4.42,0,0,0,2,.91l2.31.36v.45H99.61v-.45c1.56-.09,2.89-.18,4-.29a4.48,4.48,0,0,0,2.5-.88,2.61,2.61,0,0,0,.72-2.31,18,18,0,0,0-1.3-4.58L100.72,109H82.58l-4.94,12.29a6.23,6.23,0,0,0-.55,3.28,4.35,4.35,0,0,0,1,2.21A5.37,5.37,0,0,0,80,128.12a12,12,0,0,0,4.07,1l.84,0v.45H67.57ZM91.68,86.36l-8.9,22.16h17.74Z"/><path class="cls-1" d="M125.48,113.21H126a15.69,15.69,0,0,0,.33,3,22.66,22.66,0,0,0,.91,3.31,18.72,18.72,0,0,0,1.43,3.15,9.13,9.13,0,0,0,1.88,2.41,15.75,15.75,0,0,0,4.68,2.83,16.14,16.14,0,0,0,5.53,1.07h.58a18.36,18.36,0,0,0,5.53-1.1,10.72,10.72,0,0,0,4.42-3.71A9.76,9.76,0,0,0,153,119a10.15,10.15,0,0,0-1.53-5.52,12.93,12.93,0,0,0-5.33-4.72L138,104.56a24,24,0,0,1-6.5-4.58,15.49,15.49,0,0,1-3.41-5.14,11.38,11.38,0,0,1-.75-5.23,12.11,12.11,0,0,1,1.56-4.88,14.38,14.38,0,0,1,3.48-4,17.38,17.38,0,0,1,5-2.8,11.48,11.48,0,0,1,2.6-.72,18,18,0,0,1,2.67-.19,16,16,0,0,1,5.85,1.1c.69.26,1.43.52,2.21.78a8.44,8.44,0,0,0,2.34.46,4.88,4.88,0,0,0,2.21-.39A4.12,4.12,0,0,0,157,77.19h.45V91.3h-.52a10.59,10.59,0,0,0-.42-2.86,15.23,15.23,0,0,0-1.14-2.89,18.37,18.37,0,0,0-1.62-2.6,16.48,16.48,0,0,0-1.82-2,13.19,13.19,0,0,0-4.29-2.57,14.84,14.84,0,0,0-5.07-.87,15.68,15.68,0,0,0-2.25.16,14.91,14.91,0,0,0-2.17.48,9.25,9.25,0,0,0-4.65,3.13,6.64,6.64,0,0,0-1.37,4.94,11.52,11.52,0,0,0,2.9,5.94,28.92,28.92,0,0,0,8.12,6.27l7.48,3.84a18.94,18.94,0,0,1,5.65,4.45,13.69,13.69,0,0,1,2.86,5.36,11.62,11.62,0,0,1,.07,5.59,12.11,12.11,0,0,1-2.7,5.17,17.79,17.79,0,0,1-5.43,4.1,25.3,25.3,0,0,1-8.12,2.37h.13c-.35,0-.66.08-.95.1s-.57,0-.87,0h-.65a14.9,14.9,0,0,1-5.66-1.11v0a3.81,3.81,0,0,1-.65-.26,12,12,0,0,0-4.29-1,5.36,5.36,0,0,0-2.5.52,2.62,2.62,0,0,0-1.2,1.17,9.46,9.46,0,0,0-.39.87v.07h-.46Z"/><path class="cls-1" d="M168.22,129a5.06,5.06,0,0,0,2.44-.94,4,4,0,0,0,1.3-2,11.37,11.37,0,0,0,.39-3.32V84.54c0-2.38-.43-4-1.27-4.91s-2.35-1.4-4.52-1.53h-2.08v-.39H187.1V78h0v.06h-2.6a6.17,6.17,0,0,0-4.06,1.63c-.76.87-1.14,2.45-1.14,4.75v38.41a13,13,0,0,0,.29,3,4.15,4.15,0,0,0,1,1.89,4.24,4.24,0,0,0,1.82,1.07,10.55,10.55,0,0,0,2.76.42h2v.45H164.48v-.45A26.22,26.22,0,0,0,168.22,129Z"/><path class="cls-1" d="M192.11,103.65v-.07h-.26a29.75,29.75,0,0,1,.45-5.2,29,29,0,0,1,1.37-5,26.39,26.39,0,0,1,4.94-8.32A27,27,0,0,1,202,81.88a18.85,18.85,0,0,1,3.87-2.41,19.59,19.59,0,0,1,8.91-2.08,16.29,16.29,0,0,1,6.37,1.23h.06a.36.36,0,0,0,.26.13l.07.07.87.39a9.38,9.38,0,0,1,.88.46,13.44,13.44,0,0,0,5.33,1.62,5.37,5.37,0,0,0,2.93-.65A3.33,3.33,0,0,0,233,78.36h.46V97.28H233a32.66,32.66,0,0,0-.94-4.55,30.81,30.81,0,0,0-1.46-4,24.52,24.52,0,0,0-1.92-3.28,21.88,21.88,0,0,0-2.31-2.77A16.62,16.62,0,0,0,220.9,79a16.88,16.88,0,0,0-5.2-1.18,11.63,11.63,0,0,0-6.5,2,18.54,18.54,0,0,0-5.33,5.52,30.23,30.23,0,0,0-3.61,8.23,36.68,36.68,0,0,0-1.33,10,35.22,35.22,0,0,0,2.18,12.61,25.09,25.09,0,0,0,5.69,9.16,17,17,0,0,0,3.18,2.31,20.15,20.15,0,0,0,2.6,1.21,6.83,6.83,0,0,0,1.53.35,12.34,12.34,0,0,0,1.59.1,26.37,26.37,0,0,0,2.63-.39,14.47,14.47,0,0,0,2.57-.78,16.06,16.06,0,0,0,5.4-3.64,14,14,0,0,0,2.3-2.7,29.46,29.46,0,0,0,1.86-3.28,24.09,24.09,0,0,0,1.49-4,44.34,44.34,0,0,0,1-4.55l.45.06a29.87,29.87,0,0,1-2.53,8.71,21.39,21.39,0,0,1-4.23,6.18,18.4,18.4,0,0,1-5.59,3.64,15.8,15.8,0,0,1-6.3,1.23,19.71,19.71,0,0,1-8.91-2.07,22.73,22.73,0,0,1-7.21-5.6,26.39,26.39,0,0,1-4.94-8.32,28.75,28.75,0,0,1-1.37-5,29.67,29.67,0,0,1-.45-5.2Z"/><path class="cls-1" d="M239.29,113.21h.52a15.69,15.69,0,0,0,.33,3,24,24,0,0,0,.91,3.31,19.55,19.55,0,0,0,1.43,3.15,9.13,9.13,0,0,0,1.88,2.41,15.75,15.75,0,0,0,4.68,2.83,16.18,16.18,0,0,0,5.53,1.07h.58a18.3,18.3,0,0,0,5.53-1.1,10.66,10.66,0,0,0,4.42-3.71,9.68,9.68,0,0,0,1.72-5.17,10,10,0,0,0-1.53-5.52,12.93,12.93,0,0,0-5.33-4.72l-8.19-4.22a24.16,24.16,0,0,1-6.5-4.58,15.49,15.49,0,0,1-3.41-5.14,11.38,11.38,0,0,1-.75-5.23,12.43,12.43,0,0,1,1.56-4.88,14.38,14.38,0,0,1,3.48-4,17.38,17.38,0,0,1,5-2.8,11.62,11.62,0,0,1,2.6-.72,18,18,0,0,1,2.67-.19,15.87,15.87,0,0,1,5.85,1.1c.69.26,1.43.52,2.21.78a8.44,8.44,0,0,0,2.34.46A4.86,4.86,0,0,0,269,79a4.12,4.12,0,0,0,1.82-1.76h.45V91.3h-.52a10.59,10.59,0,0,0-.42-2.86,15.23,15.23,0,0,0-1.14-2.89,16.71,16.71,0,0,0-1.62-2.6,15.71,15.71,0,0,0-1.82-2,13.19,13.19,0,0,0-4.29-2.57,14.76,14.76,0,0,0-5.07-.87,15.44,15.44,0,0,0-2.24.16,14.75,14.75,0,0,0-2.18.48,9.33,9.33,0,0,0-4.65,3.13A6.63,6.63,0,0,0,246,86.17a11.49,11.49,0,0,0,2.89,5.94A28.92,28.92,0,0,0,257,98.38l7.48,3.84a18.94,18.94,0,0,1,5.65,4.45A13.56,13.56,0,0,1,273,112a11.62,11.62,0,0,1,.07,5.59,11.9,11.9,0,0,1-2.7,5.17,17.55,17.55,0,0,1-5.43,4.1,25.3,25.3,0,0,1-8.12,2.37h.13l-.94.1c-.29,0-.58,0-.88,0h-.65a14.9,14.9,0,0,1-5.66-1.11v0a4.17,4.17,0,0,1-.65-.26,11.91,11.91,0,0,0-4.29-1,5.39,5.39,0,0,0-2.5.52,2.72,2.72,0,0,0-1.2,1.17,9.46,9.46,0,0,0-.39.87v.07h-.46Z"/><path class="cls-2" d="M53.22,58.37a1.56,1.56,0,0,1,.36,1.12c0,.41,0,.85,0,1.32-.07,1.16-.09,2.42-.05,3.78s.05,2.69.05,4,0,2.55-.05,3.77a4.52,4.52,0,0,1-1.07,3h-.82a3.38,3.38,0,0,1-.77-1.58,17.35,17.35,0,0,1-.35-2.3c-.07-1.49-.09-3.06,0-4.69a44.05,44.05,0,0,1,.35-4.79c.07-.41.14-.89.21-1.43a6,6,0,0,1,.35-1.43,1.67,1.67,0,0,1,.72-.87A1.18,1.18,0,0,1,53.22,58.37Zm.51-19.79a2.37,2.37,0,0,1-.81,1.63,1.11,1.11,0,0,1-1.18-.2,1.7,1.7,0,0,1-.41-1,1.24,1.24,0,0,1,.31-1,1.29,1.29,0,0,1,1.17-.31C53.36,38,53.66,38.31,53.73,38.58Z"/><path class="cls-2" d="M79.33,74.58A7.1,7.1,0,0,0,81,72.65c.44-.75.9-1.5,1.37-2.25s.94-1.49,1.38-2.24.87-1.5,1.28-2.25,1-1.29,1.42-2,1-1.49,1.53-2.24c.34-.47.68-1,1-1.48a6,6,0,0,1,1.18-1.32,3.07,3.07,0,0,1,1.48-.72,3.33,3.33,0,0,1,1.83.26,4.41,4.41,0,0,1,1.17,2.5A24.63,24.63,0,0,1,95,64.18c0,1.16.08,2.31.15,3.47a7.58,7.58,0,0,0,.72,3A5.94,5.94,0,0,0,98,68.82c.58-.78,1.14-1.54,1.68-2.29s1.07-1.65,1.58-2.5a16.92,16.92,0,0,0,1.28-2.6,6.49,6.49,0,0,0,.86-1.79,1.34,1.34,0,0,1,1.69-.87,1.76,1.76,0,0,1-.1,1.89,4.53,4.53,0,0,0-.72,1.89c-.34.61-.65,1.21-.92,1.78s-.54,1.18-.81,1.79a19.3,19.3,0,0,0-2,3.06,10.67,10.67,0,0,1-2.35,3,3.65,3.65,0,0,1-1.27.81,3.34,3.34,0,0,1-1.89.1,3.62,3.62,0,0,1-1.89-1.88,10.42,10.42,0,0,1-.76-3,28.81,28.81,0,0,1-.21-3.57,19.49,19.49,0,0,0-.3-3.52,1.87,1.87,0,0,0-.87.77c-.24.37-.49.73-.76,1.07-.75,1-1.48,2.1-2.2,3.26s-1.37,2.31-2,3.47a31.78,31.78,0,0,0-2.7,4.54A8.44,8.44,0,0,1,79.74,78,4.83,4.83,0,0,0,79,78a2.19,2.19,0,0,1-.82,0,8.09,8.09,0,0,1-1-.51,9.25,9.25,0,0,1-1.38-4.64Q75.66,70,75.66,67t-.1-5.92c-.07-2-.17-3.84-.31-5.61a58.87,58.87,0,0,0-3.77,8.77q-1.64,4.8-3.16,10c-.68,2.45-1.31,5-1.89,7.55s-1.21,5.23-1.89,8c-.13.61-.27,1.23-.4,1.84a8.29,8.29,0,0,1-.57,1.68,3.63,3.63,0,0,1-1,1.28,3,3,0,0,1-1.64.61,2.07,2.07,0,0,1-1.83-1.48,16.13,16.13,0,0,1-.61-2.7,47.53,47.53,0,0,1,0-8.93q.4-4.74.91-9t1.23-8.61c.47-2.89,1-5.67,1.63-8.32q.3-1.21.66-2.55A2,2,0,0,1,64.75,52a1.5,1.5,0,0,1,1.17.21,2,2,0,0,1,.56.81,5,5,0,0,1-.1,2.25,5,5,0,0,0-.1,2.24,6.53,6.53,0,0,0,.41,1.73,2.79,2.79,0,0,1,.1,1.64.7.7,0,0,1-.67.4,1,1,0,0,1-.76-.3q-.83,5.2-1.53,10.3c-.48,3.4-.82,7-1,10.81q1.72-5.91,3.67-12.34t4.29-12.24c.2-.47.47-1.14.81-2a12.55,12.55,0,0,1,1.28-2.4,6.06,6.06,0,0,1,1.73-1.73,2.1,2.1,0,0,1,2.19,0,2.69,2.69,0,0,1,1.38,1.63,12.14,12.14,0,0,1,.66,2.76A23.61,23.61,0,0,1,79,59c0,1.12,0,2.13.1,3a53.86,53.86,0,0,1,0,6.48A29.74,29.74,0,0,0,79.33,74.58Z"/><path class="cls-2" d="M105.14,81q2.65-6.33,5.71-12.14a32.31,32.31,0,0,1,8-9.89l1-.41c.3-.13.66-.27,1.07-.41a3.45,3.45,0,0,1,3.06.92,5.5,5.5,0,0,1,1.32,2.81,9.24,9.24,0,0,1,0,3.51,14,14,0,0,1-1,3.17A30.17,30.17,0,0,0,128.09,66c1.22-1,2.51-1.87,3.87-2.76,1-.68,1.92-1.36,2.91-2s2-1.36,3-2a7.77,7.77,0,0,0,1.12-.56,1,1,0,0,1,1.23.15.94.94,0,0,1-.31,1.33c-.48.34-.88.65-1.22.92q-4.29,3-8.27,6t-8.16,6a32.86,32.86,0,0,1-2.44,3.83,30.5,30.5,0,0,1-3,3.41c-.41.35-.9.8-1.48,1.38s-1.17,1.12-1.79,1.63a14,14,0,0,1-2,1.38,5.19,5.19,0,0,1-2.1.71c-1.49.21-2.31-.3-2.44-1.53a2.42,2.42,0,0,1,.56-2.14,19.42,19.42,0,0,1,1.48-1.43c.54-.54,1-1,1.48-1.42s.9-.82,1.37-1.23a33.5,33.5,0,0,0,3.27-2.39,33.43,33.43,0,0,1,3.26-2.4c.48-.75,1-1.62,1.48-2.6s1-2,1.38-3c.13-.48.29-1,.46-1.63a13.53,13.53,0,0,0,.35-1.84,5.83,5.83,0,0,0,0-1.73,2.71,2.71,0,0,0-.76-1.43,5.56,5.56,0,0,0-3.57,1.68,35.86,35.86,0,0,0-2.55,2.91,43.79,43.79,0,0,0-5.1,8.21,88.81,88.81,0,0,0-3.88,9.43c-.27.68-.53,1.35-.76,2a13.7,13.7,0,0,0-.57,2,21.93,21.93,0,0,0-.3,3.73c0,1.32,0,2.63-.1,3.92q-.21,3.88-.41,7.75t-.51,7.86q-.1.92-.15,1.89a15,15,0,0,1-.21,1.78,3.72,3.72,0,0,1-.61,1.48,2.68,2.68,0,0,1-1.28,1h-.3a1.71,1.71,0,0,1-1.58-1.68,29,29,0,0,1-.16-2.91,49,49,0,0,1,.16-5.87c.17-1.87.39-3.75.66-5.66.14-.88.31-1.77.51-2.65s.37-1.77.51-2.65a44.89,44.89,0,0,0,.31-5.25c0-1.81.07-3.52.2-5.16q.4-6.52.77-12.85t.76-13V56.79a16.35,16.35,0,0,1,.1-1.79,3.76,3.76,0,0,1,.46-1.43,1.25,1.25,0,0,1,1.17-.61,1.22,1.22,0,0,1,1.18.77,5.84,5.84,0,0,1,.46,1.83,14.08,14.08,0,0,1,0,2.25c-.07.78-.11,1.44-.11,2q-.4,5.31-.76,10.66T105.14,81Z"/><path class="cls-2" d="M143.59,17.57l.1-.11a1.66,1.66,0,0,1,1.84,1.33,11.17,11.17,0,0,1,.31,2.45,45.58,45.58,0,0,1-.36,8.31c-.38,2.69-.7,5.32-1,7.91q-.51,5.3-1,10.76t-.92,11q-.62,9.69-1.32,19.33a181.52,181.52,0,0,0-.31,20.35,11.35,11.35,0,0,0,.1,1.43,12.3,12.3,0,0,1,.1,1.58,4.26,4.26,0,0,1-.2,1.38.81.81,0,0,1-.82.61,1.44,1.44,0,0,1-1.78-1.23,16.6,16.6,0,0,1-.46-2.65c-.14-1.09-.22-2.14-.26-3.16s-.08-1.94-.15-2.75c.07-2,.07-4.07,0-6.07s-.07-3.93,0-5.77q.1-14.78,1.23-28.1t2.85-26.67l.61-5.2a20.55,20.55,0,0,0,.26-2.5,3.34,3.34,0,0,1,.87-2.19Z"/><path class="cls-2" d="M164.2,56.94c-1.3,1.7-2.55,3.54-3.78,5.51s-2.45,3.87-3.67,5.71c-.88,1.29-1.8,2.69-2.75,4.18a20.91,20.91,0,0,1-3.27,4,7.3,7.3,0,0,1-1.43,1.27,2.21,2.21,0,0,1-1.93.26,2.76,2.76,0,0,1-1.43-2.25,31.55,31.55,0,0,1,1.88-8.87,41.43,41.43,0,0,1,3.63-7.55c.47-.74,1-1.49,1.58-2.24a5.46,5.46,0,0,1,1.88-1.63,2.92,2.92,0,0,1,3.42.15c1,.78,1.34,2,1.07,3.72a5.45,5.45,0,0,0,1.17-1.63c.45-.82.92-1.65,1.43-2.5a17.87,17.87,0,0,1,1.63-2.29,2.88,2.88,0,0,1,1.79-1.13,2.16,2.16,0,0,1,.71.11l.62.2a4.92,4.92,0,0,1,1,1.94Q167.56,60,167,65.46T166,77v1.84c0,.75,0,1.49-.1,2.24a10.59,10.59,0,0,1-.36,2c-.17.58-.46.87-.86.87a1.16,1.16,0,0,1-1.08-.66,5.66,5.66,0,0,1-.51-1.64,12.94,12.94,0,0,1-.15-2,10.24,10.24,0,0,0-.1-1.63,58.08,58.08,0,0,1,.2-10.81C163.48,63.71,163.85,60.27,164.2,56.94Zm-7.35.2a.09.09,0,0,0-.1-.1,2.61,2.61,0,0,0-.56.26,3.17,3.17,0,0,1-.56.25,21.54,21.54,0,0,0-2.55,3.62,41.68,41.68,0,0,0-2,4.13c-.55,1.43-1.07,2.94-1.58,4.54a22.07,22.07,0,0,0-1,5.15,35.64,35.64,0,0,0,5.15-6.58c1.53-2.48,3.07-4.91,4.64-7.29a4.08,4.08,0,0,1-.51-2.19A1.76,1.76,0,0,0,156.85,57.14Z"/><path class="cls-2" d="M178.07,74.07q2-3.87,4.08-7.9a37.51,37.51,0,0,1,4.79-7.29q.41-.51,1-1.23a7.61,7.61,0,0,1,1.33-1.22,4.46,4.46,0,0,1,1.58-.72,3.18,3.18,0,0,1,1.89.21A4.67,4.67,0,0,1,195,59.08q.7,2.45,1.22,4.9c.14.75.29,1.53.46,2.34s.36,1.63.56,2.45a18.24,18.24,0,0,0,.82,2.3c.34.78.75,1.24,1.22,1.37a1.69,1.69,0,0,0,1.53-.35,11.32,11.32,0,0,1,1.23-.87c.41-.34.78-.63,1.12-.87a7.16,7.16,0,0,0,1-.87,42.17,42.17,0,0,0,4.28-4.28,51.88,51.88,0,0,1,4.29-4.39,18.4,18.4,0,0,1,1.78-1.17,2.59,2.59,0,0,1,1.23-.36q.56,0,.66.72t-.66,1a5,5,0,0,0-1.18.81,26.34,26.34,0,0,0-2.85,2.91q-1.44,1.68-3.06,3.42c-.55.54-1.07,1-1.58,1.53s-1,1-1.58,1.53c-.89.88-1.84,1.75-2.86,2.6a6,6,0,0,1-4,1.27l-.46-.2a1.43,1.43,0,0,0-.56-.1,6.26,6.26,0,0,1-2.5-3.16,32.35,32.35,0,0,1-1.27-4.34c-.34-1.53-.67-3.06-1-4.59a14.24,14.24,0,0,0-1.48-4.13,6,6,0,0,0-2.65,2.3,31.82,31.82,0,0,1-2,2.9,47.45,47.45,0,0,0-3.47,6.33q-1.53,3.36-3,6.93a6.32,6.32,0,0,0-.71,1.58,19.41,19.41,0,0,1-.72,1.89,5.18,5.18,0,0,1-1.07,1.58,1.88,1.88,0,0,1-1.78.46,1.7,1.7,0,0,1-1.38-1.07,6.36,6.36,0,0,1-.56-2.24,24.76,24.76,0,0,1-.05-2.76c0-1,.08-1.89.15-2.7.27-3.27.65-6.44,1.12-9.54a58.82,58.82,0,0,1,1.94-8.52q.41-1.11.72-2a1.42,1.42,0,0,1,1.32-1,1.17,1.17,0,0,1,1.28.57,2.93,2.93,0,0,1,.3,1.58,11.06,11.06,0,0,1-.3,2c-.17.71-.29,1.31-.36,1.78-.48,2.59-.88,5.17-1.22,7.75S178.34,71.49,178.07,74.07Z"/><path class="cls-2" d="M220.29,45.72q8.78-.31,18.26-.92a135,135,0,0,1,18.87.1c.34,0,.72,0,1.12.05a.9.9,0,0,1,.82.56c-.07.55-.32.82-.76.82a5.9,5.9,0,0,1-1.18-.1,185.46,185.46,0,0,0-18.87.15q-9.37.57-18.46,1.07-1.43,8.37-2.6,17a125.29,125.29,0,0,0-1.07,18.15c0,.89,0,1.87.1,3a20.2,20.2,0,0,0,.41,3.06c.13.75.36,1.67.66,2.75s.77,1.67,1.38,1.74a1.35,1.35,0,0,0,1.07-.31,8.8,8.8,0,0,0,1.12-1,10.17,10.17,0,0,0,1-1.17c.31-.41.53-.71.66-.92a98.21,98.21,0,0,0,7.3-10.86q3.21-5.57,6.78-11.58c.61-1.08,1.26-2.21,1.94-3.36s1.43-2.31,2.24-3.47a9.27,9.27,0,0,1,.92-1.17q.51-.57,1-.36c.54.27.65.7.31,1.27a15.19,15.19,0,0,1-.82,1.28c-1.7,2.85-3.3,5.75-4.79,8.67s-3.1,5.81-4.8,8.67q-1.42,2.34-2.8,4.74t-2.91,4.74q-1.53,2.36-3.16,4.59a10.86,10.86,0,0,1-4.18,3.47,5.55,5.55,0,0,1-2.15,0,6.3,6.3,0,0,1-3.51-3.82,27.65,27.65,0,0,1-1.38-5.77,43.76,43.76,0,0,1-.51-6.78c0-2.34.07-4.64.2-6.88q.51-6.84,1.38-13.21T216,47.76c-3.13.14-6.31.37-9.54.71s-6.51.58-9.84.72c-.41,0-.87,0-1.38.05s-.79-.22-.86-.77a.72.72,0,0,1,.81-.81,8.49,8.49,0,0,0,1.43-.11q4.8-.3,9.79-.81t9.9-.72c.4-1.42.86-3.11,1.37-5a41,41,0,0,1,1.79-5.36,7.57,7.57,0,0,1,.76-1.68,1.62,1.62,0,0,1,1.38-1,1.06,1.06,0,0,1,1,.41,1.47,1.47,0,0,1,.2,1,7.55,7.55,0,0,1-.2,1.17c-.1.41-.19.78-.26,1.12-.34,1.5-.68,3-1,4.64S220.63,44.36,220.29,45.72Z"/></g></g></svg>