<svg xmlns="http://www.w3.org/2000/svg" viewBox="0 0 394.47 104.75"><defs><style>.cls-1{fill:#53575a;}.cls-2{fill:#ff8300;}</style></defs><g id="Layer_2" data-name="Layer 2"><g id="Layer_1-2" data-name="Layer 1"><path class="cls-1" d="M3.74,104.06a5,5,0,0,0,2.43-.94,3.89,3.89,0,0,0,1.31-2,11.34,11.34,0,0,0,.39-3.31V59.57c0-2.38-.43-4-1.27-4.91s-2.35-1.39-4.52-1.52H0v-.39H22.62v.32h0v.07H20A6.17,6.17,0,0,0,16,54.76c-.76.87-1.14,2.45-1.14,4.75V97.92a12.89,12.89,0,0,0,.29,3,4.15,4.15,0,0,0,1,1.89,4.24,4.24,0,0,0,1.82,1.07,10.55,10.55,0,0,0,2.76.42h2v.46H0v-.46A24.83,24.83,0,0,0,3.74,104.06Z"/><path class="cls-1" d="M73.25,104a5.59,5.59,0,0,0,2.41-.94,3.74,3.74,0,0,0,1.3-2,11.73,11.73,0,0,0,.39-3.35V63.73c0-2.08,0-3.87,0-5.36s0-2.48,0-3L57.46,93.63h-.52L38,57.75V96.23a6.71,6.71,0,0,0,1.21,4.23,8.62,8.62,0,0,0,2.86,2.43A10.32,10.32,0,0,0,45.47,104a18.1,18.1,0,0,0,2.69.26h1v.39H26.52v-.39h1a18.54,18.54,0,0,0,2.77-.26,10,10,0,0,0,3.34-1.14,8.72,8.72,0,0,0,2.83-2.43,6.77,6.77,0,0,0,1.2-4.23V60.61c0-1,0-2-.06-2.92A5.4,5.4,0,0,0,37,55.31a3.84,3.84,0,0,0-1.75-1.59,8,8,0,0,0-3.42-.58H29.7v-.46H43.29L60.84,86.16,78.32,52.68H92.1v.46H89.5c-2,0-3.3.47-4.06,1.43s-1.14,2.58-1.14,4.87V97.86q0,3.63,1.43,5a6.09,6.09,0,0,0,4.42,1.4h2v.39H69.55v-.39A21.36,21.36,0,0,0,73.25,104Z"/><path class="cls-1" d="M95.35,104.75v-.46a24.74,24.74,0,0,0,3.74-.23,5.06,5.06,0,0,0,2.44-.94,3.82,3.82,0,0,0,1.3-2,11.34,11.34,0,0,0,.39-3.31V59.57q0-3.57-1.27-4.91t-4.52-1.52H95.35v-.39h24.7a26.24,26.24,0,0,1,7.54,1,14.74,14.74,0,0,1,5.2,2.8,10.93,10.93,0,0,1,3,4.06,13.29,13.29,0,0,1,1,5.23,11.68,11.68,0,0,1-4,9.3,13.93,13.93,0,0,1-5.2,2.79,23.79,23.79,0,0,1-7.54,1h-9.88v19a12.3,12.3,0,0,0,.3,3,4.14,4.14,0,0,0,1,1.89,4.3,4.3,0,0,0,1.82,1.07,10.55,10.55,0,0,0,2.76.42h2l-.07.07v.39H95.35Zm14.82-26.2h9.37a9.46,9.46,0,0,0,5.52-1.62,9.78,9.78,0,0,0,1.46-1.34,9.11,9.11,0,0,0,1.33-1.91,13.91,13.91,0,0,0,1.31-3.55,19.49,19.49,0,0,0,.45-4.32,15.21,15.21,0,0,0-2.4-9,8.88,8.88,0,0,0-7.67-3.7h-4.16a6.17,6.17,0,0,0-4.07,1.62c-.76.87-1.14,2.45-1.14,4.75v19Z"/><path class="cls-1" d="M181.8,104.75H139.88v-.46a24,24,0,0,0,3.7-.23,5,5,0,0,0,2.41-.94,3.82,3.82,0,0,0,1.3-2,11.34,11.34,0,0,0,.39-3.31V59.57q0-3.57-1.3-4.91c-.87-.88-2.38-1.39-4.55-1.52h-2v-.39h22.62v.32h0v.07h-2.66a8.46,8.46,0,0,0-2.41.52,4.08,4.08,0,0,0-1.59,1.1,4.37,4.37,0,0,0-.88,1.89,13.61,13.61,0,0,0-.26,2.86V97.92a12.3,12.3,0,0,0,.3,3,4.14,4.14,0,0,0,1,1.89,4.31,4.31,0,0,0,1.79,1.07,10.39,10.39,0,0,0,2.79.42H167a16.32,16.32,0,0,0,4.81-.65A15.43,15.43,0,0,0,175.6,102a14.07,14.07,0,0,0,2.89-2.37,19.34,19.34,0,0,0,2.14-2.76,23.12,23.12,0,0,0,3-7.54h.46l-1.89,15.47Z"/><path class="cls-1" d="M187.13,104.16l1.14-.13a7.7,7.7,0,0,0,2.54-.88,13.12,13.12,0,0,0,3.08-2.3,12.58,12.58,0,0,0,2.8-4.49l17.48-43.68h.52l17.42,43.55a28.55,28.55,0,0,0,2.15,4.39,8.62,8.62,0,0,0,2,2.27,4.32,4.32,0,0,0,2,.91l2.31.36v.46H219.18v-.46c1.56-.08,2.89-.18,4-.29a4.48,4.48,0,0,0,2.5-.88,2.56,2.56,0,0,0,.71-2.31,17.67,17.67,0,0,0-1.3-4.58L220.28,84H202.15L197.21,96.3a6.15,6.15,0,0,0-.55,3.28,4.34,4.34,0,0,0,1,2.21,5.32,5.32,0,0,0,1.92,1.36,11.59,11.59,0,0,0,2.21.72,11.46,11.46,0,0,0,1.85.26l.85,0v.46H187.13Zm24.12-42.77-8.91,22.17h17.75Z"/><path class="cls-1" d="M305.3,52.75v.45h-1a17.71,17.71,0,0,0-2.76.29,12.11,12.11,0,0,0-3.35,1.11A8.08,8.08,0,0,0,295.39,57a6.65,6.65,0,0,0-1.2,4.16v43.62h-.52L255.45,56.91V96.3a6.76,6.76,0,0,0,1.2,4.22,8.08,8.08,0,0,0,2.83,2.37,11.78,11.78,0,0,0,3.35,1.11,17.71,17.71,0,0,0,2.76.29h1v.46H243.81v-.46h1a18,18,0,0,0,2.76-.29,11.89,11.89,0,0,0,3.35-1.11,8.26,8.26,0,0,0,2.83-2.37,6.76,6.76,0,0,0,1.2-4.22v-37c0-1,0-1.94-.07-2.7a3.81,3.81,0,0,0-.58-1.91,3,3,0,0,0-1.72-1.14,12.92,12.92,0,0,0-3.48-.36h-2v-.45H261l32.7,40.62V61.13a6.65,6.65,0,0,0-1.2-4.16,8.26,8.26,0,0,0-2.83-2.37,12.22,12.22,0,0,0-3.35-1.11,18,18,0,0,0-2.76-.29h-1v-.45H305.3Z"/><path class="cls-1" d="M354.05,66.2v-.13c-.34-1.34-.73-2.74-1.17-4.19A14.54,14.54,0,0,0,351,57.82a10.59,10.59,0,0,0-3.44-3.19,13.09,13.09,0,0,0-5.69-1.56h-.58a5.84,5.84,0,0,0-4,1.59c-.76.89-1.14,2.46-1.14,4.72V97.79a12.44,12.44,0,0,0,.3,3,4.16,4.16,0,0,0,1,1.92,4.24,4.24,0,0,0,1.79,1.07,10,10,0,0,0,2.73.42h2v.46H321.29v-.46a24.74,24.74,0,0,0,3.74-.23,4.87,4.87,0,0,0,2.41-.94A4,4,0,0,0,328.7,101a11.34,11.34,0,0,0,.39-3.31V59.44a12.42,12.42,0,0,0-.29-3,4.06,4.06,0,0,0-1-1.88,3.93,3.93,0,0,0-1.79-1,13.77,13.77,0,0,0-2.73-.46h-.39a12.87,12.87,0,0,0-5.66,1.56,11,11,0,0,0-3.44,3.19,14.08,14.08,0,0,0-1.95,4.06c-.44,1.45-.8,2.85-1.11,4.19v.13h-.45V52.55h44.2V66.2Z"/><path class="cls-1" d="M360.42,88.24h.52a15.61,15.61,0,0,0,.33,3,22.66,22.66,0,0,0,.91,3.31,19.19,19.19,0,0,0,1.43,3.16,9.07,9.07,0,0,0,1.88,2.4,15.54,15.54,0,0,0,4.68,2.83A16.18,16.18,0,0,0,375.7,104h.58a17.77,17.77,0,0,0,5.53-1.1,10.65,10.65,0,0,0,4.42-3.71A9.73,9.73,0,0,0,388,94.05a10.15,10.15,0,0,0-1.53-5.52,12.91,12.91,0,0,0-5.33-4.71l-8.19-4.23A23.78,23.78,0,0,1,366.4,75,15.49,15.49,0,0,1,363,69.87a11.36,11.36,0,0,1-.75-5.23,12.33,12.33,0,0,1,1.56-4.87,14.27,14.27,0,0,1,3.48-4,17.87,17.87,0,0,1,5-2.8,12.14,12.14,0,0,1,2.6-.71,18,18,0,0,1,2.67-.2,15.76,15.76,0,0,1,5.85,1.11c.69.26,1.43.52,2.21.78a8.8,8.8,0,0,0,2.34.45,4.63,4.63,0,0,0,2.21-.39A4.15,4.15,0,0,0,392,52.23h.45v14.1h-.52a10.59,10.59,0,0,0-.42-2.86,15.5,15.5,0,0,0-1.14-2.89A17.5,17.5,0,0,0,388.7,58a17.24,17.24,0,0,0-1.82-2,13.36,13.36,0,0,0-4.29-2.57,14.84,14.84,0,0,0-5.07-.87,15.44,15.44,0,0,0-2.24.16,13.59,13.59,0,0,0-2.18.49,9.3,9.3,0,0,0-4.65,3.12,6.65,6.65,0,0,0-1.37,4.94,11.52,11.52,0,0,0,2.9,5.94,28.74,28.74,0,0,0,8.12,6.28l7.48,3.83a18.94,18.94,0,0,1,5.65,4.45,13.6,13.6,0,0,1,2.86,5.37,11.62,11.62,0,0,1,.07,5.59,12,12,0,0,1-2.7,5.16,17.51,17.51,0,0,1-5.43,4.1,25.3,25.3,0,0,1-8.12,2.37H378c-.35,0-.66.08-1,.1s-.57,0-.87,0h-.65a15.09,15.09,0,0,1-5.66-1.1v0c-.26-.09-.47-.18-.65-.26a11.75,11.75,0,0,0-4.29-1,5.36,5.36,0,0,0-2.5.52,2.62,2.62,0,0,0-1.2,1.17,8.14,8.14,0,0,0-.39.88v.06h-.46Z"/><path class="cls-2" d="M84,34.88a47.58,47.58,0,0,1,6.27-4.48,76.82,76.82,0,0,1,7.19-3.88c.27-.14.64-.31,1.12-.51s.78,0,.92.51a1,1,0,0,1-.77,1.12c-.57.21-1,.34-1.27.41-.41.27-.8.51-1.17.71s-.74.41-1.07.62a56.4,56.4,0,0,0-6.64,4.18,66,66,0,0,0-5.91,4.89c-.48,1.16-1,2.32-1.58,3.47s-1.21,2.28-1.89,3.37-1.36,2.16-2,3.21a12.63,12.63,0,0,1-2.45,2.81,8.15,8.15,0,0,1-1.17.76,2.69,2.69,0,0,1-1.58.26.57.57,0,0,0-.36-.21.51.51,0,0,1-.35-.2,2.63,2.63,0,0,1-.26-2.4,11.06,11.06,0,0,1,1.07-2.09,11.32,11.32,0,0,1,1.23-1.94c.47-.61.88-1.19,1.22-1.73l2.8-3.42c.92-1.12,1.89-2.23,2.91-3.31.34-1.09.7-2.18,1.07-3.27a11.75,11.75,0,0,0,.56-3.87,7.8,7.8,0,0,0-3.11,2.5l-2.5,3.31A74.71,74.71,0,0,0,71,45.44a39.77,39.77,0,0,0-3.16,12.19A4.52,4.52,0,0,1,67.06,60c-.4.47-1,.47-1.94,0a5.35,5.35,0,0,1-.86-2.86c0-1.09-.05-2.18-.05-3.26s-.09-2.33,0-3.52.08-2.36.15-3.52q.41-10.3,1.63-19.69a73.85,73.85,0,0,1,4.18-17c.21-.41.41-.87.62-1.38a9.52,9.52,0,0,1,.71-1.43,2.56,2.56,0,0,1,1-1A1.79,1.79,0,0,1,74,6.43c-.14.61-.31,1.32-.51,2.14S73.12,10,73,10.51V10.1A22.52,22.52,0,0,0,71.86,14c-.28,1.37-.58,2.76-.92,4.19a109.63,109.63,0,0,0-1.89,13.46q-.55,7-1.07,14.28,1.23-3,2.5-5.76a32,32,0,0,1,3-5.26,30.88,30.88,0,0,1,3.57-4.79c.68-.68,1.39-1.36,2.14-2a5.08,5.08,0,0,1,3-1.22,2.11,2.11,0,0,1,1.84,1A5.41,5.41,0,0,1,84.61,30a9.7,9.7,0,0,1-.16,2.55ZM75,46.21a9.2,9.2,0,0,0-1.73,3.26,33.47,33.47,0,0,0,4.08-6.22Z"/><path class="cls-2" d="M114.9,22.75a15.15,15.15,0,0,0-4.74,4.89q-1.78,3-3.83,5.92c-.54,1.09-1.09,2.18-1.63,3.26a30.41,30.41,0,0,0-1.43,3.37,17.57,17.57,0,0,0-1.53,3.31,3.68,3.68,0,0,1-2.45,2.4h-.91a2.61,2.61,0,0,1-.87-.56,4.32,4.32,0,0,1-.66-.87,32.77,32.77,0,0,1-.16-4.18c0-1.49.1-3,.21-4.54s.27-3,.51-4.49.49-2.8.76-4A14.65,14.65,0,0,1,98.78,25a2,2,0,0,1,1.64-1.33,1.27,1.27,0,0,1,1.17.92,5.36,5.36,0,0,1,.2,1.89,18.49,18.49,0,0,1-.25,2.24,11.43,11.43,0,0,0-.21,1.89c-.13,1.36-.25,2.59-.35,3.67s-.22,2.11-.36,3.06q1.74-2.85,4.18-6.42a63.21,63.21,0,0,1,5-6.43,25.15,25.15,0,0,1,1.78-2,7.32,7.32,0,0,1,2.1-1.48,3,3,0,0,1,1.88,0,1.6,1.6,0,0,1,1.18,1.12c.13.82-.07,1.26-.62,1.33A1.12,1.12,0,0,1,114.9,22.75Z"/><path class="cls-2" d="M120.31,31.31A20.17,20.17,0,0,0,119,35a17.26,17.26,0,0,0-.61,4.49,7.58,7.58,0,0,0,.92,3.82,3.58,3.58,0,0,0,3.26,1.73,10,10,0,0,0,5-1.12,45.44,45.44,0,0,0,4.13-2.34c1.36-1,2.63-1.89,3.82-2.81s2.26-1.82,3.22-2.7a55.32,55.32,0,0,0,5-4.39q2.38-2.34,4.74-4.79a2.63,2.63,0,0,0,.66-.82A8.49,8.49,0,0,1,150,25a5.46,5.46,0,0,1,.86-.87.81.81,0,0,1,1-.05c.48.21.58.61.31,1.23a7.34,7.34,0,0,1-.71,1.32,3.73,3.73,0,0,1-.62,1.12c-.27.35-.54.72-.81,1.13a76.91,76.91,0,0,1-5.36,5.61c-1.87,1.77-3.79,3.53-5.76,5.3a42.22,42.22,0,0,1-8.57,6.12,21.89,21.89,0,0,1-2.55,1.17,14.27,14.27,0,0,1-3,.82,13.42,13.42,0,0,1-3.11.15,6,6,0,0,1-2.9-.92,5,5,0,0,1-1.08-1c-.3-.38-.62-.77-1-1.18a9.69,9.69,0,0,1-1.28-4.33,19.41,19.41,0,0,1,.31-4.85A29.67,29.67,0,0,1,117,31.11a31.54,31.54,0,0,1,1.63-3.77,42.9,42.9,0,0,1,4.08-6A11.94,11.94,0,0,1,129,17.44a5,5,0,0,1,3.41.92,3.48,3.48,0,0,1,1.07,3.26,6.53,6.53,0,0,1-1.22,3.06,19.73,19.73,0,0,1-2.14,2.55,23.07,23.07,0,0,1-4,3.22A8.33,8.33,0,0,1,120.31,31.31Zm9.48-10.91a10.59,10.59,0,0,0-5.4,3.72,37.22,37.22,0,0,0-3.47,5.66,6.35,6.35,0,0,0,3.77-1,25.77,25.77,0,0,0,2.65-2.14c.75-.81,1.53-1.63,2.35-2.45a4.39,4.39,0,0,0,1.12-3.46A1.1,1.1,0,0,0,129.79,20.4Z"/><path class="cls-2" d="M161.61,24q-1.94,2.55-3.77,5.51c-1.22,2-2.45,3.87-3.67,5.71-.89,1.29-1.8,2.69-2.76,4.18a20.87,20.87,0,0,1-3.26,4,7,7,0,0,1-1.43,1.27,2.23,2.23,0,0,1-1.94.26,2.77,2.77,0,0,1-1.42-2.24,31.62,31.62,0,0,1,1.88-8.88,41.75,41.75,0,0,1,3.62-7.55c.48-.74,1-1.49,1.58-2.24a5.58,5.58,0,0,1,1.89-1.63,2.92,2.92,0,0,1,3.42.15c1,.78,1.34,2,1.07,3.72A5.45,5.45,0,0,0,158,24.58c.44-.81.92-1.65,1.43-2.5a16.94,16.94,0,0,1,1.63-2.29,2.82,2.82,0,0,1,1.79-1.12,2.17,2.17,0,0,1,.71.1l.61.2a4.67,4.67,0,0,1,1,1.94Q165,27,164.37,32.49t-.92,11.57V45.9c0,.75,0,1.5-.1,2.24a10.44,10.44,0,0,1-.36,2q-.26.87-.87.87a1.16,1.16,0,0,1-1.07-.66,5,5,0,0,1-.51-1.63,13,13,0,0,1-.15-2,11.63,11.63,0,0,0-.1-1.64,57.23,57.23,0,0,1,.2-10.81C160.9,30.74,161.27,27.3,161.61,24Zm-7.34.2a.09.09,0,0,0-.1-.1,2.89,2.89,0,0,0-.56.26,2.58,2.58,0,0,1-.56.25,21,21,0,0,0-2.55,3.62,42.8,42.8,0,0,0-2,4.13c-.55,1.43-1.08,3-1.58,4.54a22.07,22.07,0,0,0-1,5.15,35.9,35.9,0,0,0,5.15-6.57c1.53-2.49,3.07-4.92,4.64-7.3a4.08,4.08,0,0,1-.51-2.19A1.76,1.76,0,0,0,154.27,24.17Z"/><path class="cls-2" d="M179.57,26a8.37,8.37,0,0,0-3.06,2.45,10,10,0,0,0-1.28,1.63,3.29,3.29,0,0,0-.56,2.14,3.62,3.62,0,0,0,1.12,2c.61.58,1.16,1.11,1.63,1.58s1.08,1.07,1.58,1.58A15.45,15.45,0,0,1,180.38,39q2.55-1.83,4.85-3.82a44.29,44.29,0,0,1,4.94-3.72A35.37,35.37,0,0,1,194,28.87c1.39-.82,2.84-1.6,4.33-2.35l1.43-.71a1.39,1.39,0,0,1,1.53.1,1,1,0,0,1-.1.81,1.2,1.2,0,0,1-.61.46l-.82.31a1.2,1.2,0,0,0-.61.46A28.08,28.08,0,0,0,195,30.24c-1.26.85-2.54,1.69-3.83,2.5q-4.89,3.67-9.48,7.65a33,33,0,0,1,2.5,4.8A14.94,14.94,0,0,1,185.28,51a17.2,17.2,0,0,1-1,6.53,18.68,18.68,0,0,1-3.06,5.3,22.86,22.86,0,0,1-4.39,3.88,9.61,9.61,0,0,1-5.91,1.73,7.14,7.14,0,0,1-2.35-.51,8.64,8.64,0,0,1-1.73-1,10.69,10.69,0,0,1-1.64-2.34,7.81,7.81,0,0,1-.71-3,11.25,11.25,0,0,1,1.33-6.53,35,35,0,0,1,3.36-5.1,43.51,43.51,0,0,1,4-4.44q2.09-2,4.13-3.72a12.15,12.15,0,0,0-1.63-1.89c-.61-.57-1.22-1.17-1.84-1.78a18.1,18.1,0,0,1-1.68-1.94A7.85,7.85,0,0,1,171,34a5.25,5.25,0,0,1,.05-4.14,16.6,16.6,0,0,1,2-3.31,26.65,26.65,0,0,1,2-2,9.12,9.12,0,0,1,2.29-1.48,10.11,10.11,0,0,1,1.53-.3,2.9,2.9,0,0,1,1.53.2,2.29,2.29,0,0,0,.56.56,1.63,1.63,0,0,1,.56.77,3.28,3.28,0,0,1,.05,1.93c-.17.75-.42,1.13-.76,1.13s-.75-.07-.82-.41A2.18,2.18,0,0,0,179.57,26Zm-1.33,17.65c-1.16,1-2.31,2-3.47,3.16a45.89,45.89,0,0,0-3.36,3.77c-.62.75-1.24,1.58-1.89,2.5A14.95,14.95,0,0,0,167,59.52a8.3,8.3,0,0,0,.36,3.72,7.57,7.57,0,0,0,1.32,1.38,3.09,3.09,0,0,0,1.94.56,7.14,7.14,0,0,0,4.13-1.58,17.77,17.77,0,0,0,3.21-3.22,13.7,13.7,0,0,0,2-3.87,17.62,17.62,0,0,0,.92-4.54,14.5,14.5,0,0,0-.41-4.54,10.84,10.84,0,0,0-1.88-4,.1.1,0,0,0-.11-.1C178.31,43.49,178.24,43.59,178.24,43.66ZM167.43,69.05c0,.07.07,0,.2-.1C167.63,69,167.56,69.05,167.43,69.05Z"/><path class="cls-2" d="M205.78,12.75q8.78-.3,18.26-.92a135,135,0,0,1,18.87.1c.34,0,.71,0,1.12.06a.88.88,0,0,1,.82.56c-.07.54-.33.81-.77.81a5.87,5.87,0,0,1-1.17-.1,185.41,185.41,0,0,0-18.87.15q-9.39.57-18.46,1.07-1.44,8.37-2.61,17a125.29,125.29,0,0,0-1.07,18.15c0,.89,0,1.88.11,3a20.24,20.24,0,0,0,.4,3.06c.14.75.36,1.67.67,2.76s.76,1.66,1.37,1.73a1.32,1.32,0,0,0,1.07-.31,9.62,9.62,0,0,0,1.13-1,12.49,12.49,0,0,0,1-1.18c.3-.41.52-.71.66-.92A98.1,98.1,0,0,0,215.62,46q3.21-5.55,6.79-11.58c.61-1.08,1.25-2.2,1.93-3.36s1.43-2.31,2.25-3.47a9.27,9.27,0,0,1,.92-1.17c.34-.38.67-.5,1-.36.54.27.64.7.3,1.28s-.61,1-.81,1.27q-2.55,4.29-4.8,8.67t-4.79,8.67c-1,1.57-1.89,3.15-2.81,4.74s-1.88,3.18-2.9,4.75-2.08,3.09-3.17,4.59a10.92,10.92,0,0,1-4.18,3.46,5.5,5.5,0,0,1-2.14,0,6.31,6.31,0,0,1-3.52-3.82,28.87,28.87,0,0,1-1.38-5.76,44,44,0,0,1-.51-6.79c0-2.34.07-4.64.21-6.88q.51-6.84,1.38-13.21t2.09-12.19c-3.13.14-6.31.37-9.54.71s-6.51.58-9.84.72c-.41,0-.87,0-1.38.05a.76.76,0,0,1-.87-.77.72.72,0,0,1,.82-.81,9.91,9.91,0,0,0,1.43-.1c3.19-.21,6.46-.48,9.79-.82s6.63-.58,9.89-.71q.62-2.14,1.38-5.05A41.05,41.05,0,0,1,205,2.65,7.89,7.89,0,0,1,205.73,1a1.6,1.6,0,0,1,1.38-1,1.08,1.08,0,0,1,1,.41,1.6,1.6,0,0,1,.2,1,9,9,0,0,1-.2,1.17c-.11.41-.19.78-.26,1.12-.34,1.5-.68,3.05-1,4.64S206.12,11.39,205.78,12.75Z"/></g></g></svg>