<svg xmlns="http://www.w3.org/2000/svg" viewBox="0 0 427.17 144.86"><defs><style>.cls-1{fill:none;stroke:#ff8300;}.cls-2{fill:#153a49;}.cls-3{fill:#ff8300;}</style></defs><g id="Layer_2" data-name="Layer 2"><g id="Layer_1-2" data-name="Layer 1"><line class="cls-1" x1="81.3" y1="144.36" x2="345.3" y2="144.36"/><path class="cls-2" d="M46.62,90.62a40.31,40.31,0,0,1,2.52-14.13A38.55,38.55,0,0,1,56,65a31,31,0,0,1,10.08-7.83A27.75,27.75,0,0,1,78.3,54.26,24.24,24.24,0,0,1,87.12,56l.18.09.36.18c.42.18.83.38,1.22.59s.79.4,1.21.58q4.68,2.25,7.43,2.25a7.45,7.45,0,0,0,4.09-.9,4.58,4.58,0,0,0,2.07-3.15h.54V81.8h-.54a41.39,41.39,0,0,0-3.42-11.88,29.56,29.56,0,0,0-5.85-8.37,24.17,24.17,0,0,0-7.47-4.95,21.83,21.83,0,0,0-7.2-1.71V55a16.2,16.2,0,0,0-9.09,2.79,25.76,25.76,0,0,0-7.38,7.65,40.78,40.78,0,0,0-5,11.34,51.59,51.59,0,0,0-1.8,13.86,49.71,49.71,0,0,0,3,17.5,32.8,32.8,0,0,0,7.92,12.65A21.66,21.66,0,0,0,71.73,124a24.66,24.66,0,0,0,3.6,1.67,14.5,14.5,0,0,0,4.41.63,19.92,19.92,0,0,0,7.11-1.53,29.06,29.06,0,0,0,5.76-3.42c.24-.24.6-.61,1.08-1.12a11.29,11.29,0,0,0,1.44-2,14.09,14.09,0,0,0,1.26-2.93,12.83,12.83,0,0,0,.54-3.87V103a4.67,4.67,0,0,0-.94-3.1,5.57,5.57,0,0,0-2.52-1.67,13.31,13.31,0,0,0-3.74-.63q-2.16-.09-4.59-.09v-.72h28.8v.72c-1.38,0-2.53,0-3.46.09a6.72,6.72,0,0,0-2.3.49,2.52,2.52,0,0,0-1.3,1.31,6,6,0,0,0-.41,2.43v20h-.63a5.27,5.27,0,0,0-4.09-1.49,18.62,18.62,0,0,0-5.13,1.13q-2.75,1-5.76,2.39a38.21,38.21,0,0,1-6,2.2,26.28,26.28,0,0,1-6.57.81,27.35,27.35,0,0,1-12.24-2.79,35.25,35.25,0,0,1-5.4-3.33,27.51,27.51,0,0,1-4.68-4.5,38.55,38.55,0,0,1-6.84-11.52,41,41,0,0,1-1.89-6.89A40.31,40.31,0,0,1,46.62,90.62Z"/><path class="cls-2" d="M164.52,54.62h31.41v.63h-1.35q-1.44.09-3.78.45a15.27,15.27,0,0,0-4.63,1.53,11.65,11.65,0,0,0-4,3.33,9.19,9.19,0,0,0-1.67,5.76v39a19.08,19.08,0,0,1-2,8.59A21,21,0,0,1,172.8,121a27,27,0,0,1-8.46,4.41,33.1,33.1,0,0,1-10.17,1.53h-.54a30.83,30.83,0,0,1-9.81-1.53,26.3,26.3,0,0,1-8.19-4.41,21.44,21.44,0,0,1-5.8-7.11,21.09,21.09,0,0,1-2-9.54V61.73q-.27-3.51-2.07-4.9t-5.85-1.58H117v-.72h31.41V55l.09.09h-.09v.18h-3.69a9.12,9.12,0,0,0-4.86,1.53A6.31,6.31,0,0,0,137.79,61v42.66a29.54,29.54,0,0,0,1.62,9.9,19.29,19.29,0,0,0,4.82,7.65A17.5,17.5,0,0,0,152,125.5a21.37,21.37,0,0,0,10.53-.23,27.27,27.27,0,0,0,9.9-4.86,18.6,18.6,0,0,0,5.4-6.57,17.84,17.84,0,0,0,2.07-8.55V65.87a8.87,8.87,0,0,0-1.8-5.58,11.66,11.66,0,0,0-4-3.15,16.29,16.29,0,0,0-4.59-1.44q-2.34-.36-3.69-.45h-1.35Z"/><path class="cls-2" d="M207.05,125.85a6.94,6.94,0,0,0,3.37-1.3,5.39,5.39,0,0,0,1.8-2.7,15.73,15.73,0,0,0,.54-4.59v-53q0-4.95-1.75-6.79t-6.26-2.12h-2.88V54.8h31.32v.45h0v.09h-3.6q-4.05.45-5.62,2.25t-1.58,6.57v53.19a17.48,17.48,0,0,0,.41,4.14,5.28,5.28,0,0,0,3.87,4.09,14.4,14.4,0,0,0,3.82.59h2.79v.63H201.87v-.63A34.52,34.52,0,0,0,207.05,125.85Z"/><path class="cls-2" d="M302.4,116.18A31.08,31.08,0,0,1,291.69,124a34.87,34.87,0,0,1-13.77,2.79H239.31v-.63a33.54,33.54,0,0,0,5.13-.32,6.9,6.9,0,0,0,3.33-1.3,5.39,5.39,0,0,0,1.8-2.7,15.73,15.73,0,0,0,.54-4.59v-53q0-4.95-1.8-6.79T242,55.34h-2.79V54.8h38.7a33.22,33.22,0,0,1,13.77,2.79,31.61,31.61,0,0,1,10.71,7.74,34.37,34.37,0,0,1,6.89,11.52,42,42,0,0,1,0,27.86A34.44,34.44,0,0,1,302.4,116.18Zm-15.93,7.2a25.51,25.51,0,0,0,4.28-3.24,27.61,27.61,0,0,0,3.73-4.32,39.49,39.49,0,0,0,5.31-11.34,48,48,0,0,0,1.89-13.68A49,49,0,0,0,299.79,77a38,38,0,0,0-5.31-11.34,27.61,27.61,0,0,0-3.73-4.32,25.51,25.51,0,0,0-4.28-3.24,20.93,20.93,0,0,0-9.63-2.79h-10a12,12,0,0,0-3.33.72,5.58,5.58,0,0,0-2.2,1.53,5.76,5.76,0,0,0-1.22,2.61,18.57,18.57,0,0,0-.36,4v51.57a5.23,5.23,0,0,0,.05.77,7.69,7.69,0,0,1,0,.85,17.48,17.48,0,0,0,.41,4.14,5.94,5.94,0,0,0,1.3,2.61,5.39,5.39,0,0,0,2.43,1.48,14.2,14.2,0,0,0,3.87.59H276A21.28,21.28,0,0,0,286.47,123.38Z"/><path class="cls-2" d="M363.15,125.27a21.73,21.73,0,0,0,5.27-2.34,19.64,19.64,0,0,0,4-3.28,26.84,26.84,0,0,0,3-3.83,30.82,30.82,0,0,0,4.05-10.44h.63l-2.61,21.42H318v-.63a34.52,34.52,0,0,0,5.18-.32,7,7,0,0,0,3.37-1.3,5.39,5.39,0,0,0,1.8-2.7,15.73,15.73,0,0,0,.54-4.59V65.33a4.9,4.9,0,0,0,0-.54,2.47,2.47,0,0,1-.05-.54q0-4.95-1.75-6.79t-6.26-2.12h-2.88V54.8h57.06V73.7h-.63v-.09q-.72-3-1.66-6.21a18.53,18.53,0,0,0-2.93-5.9,15.51,15.51,0,0,0-5.4-4.41,19.77,19.77,0,0,0-9-1.75H338.4V90.53h12.87a10.26,10.26,0,0,0,6.08-1.76A11.75,11.75,0,0,0,360.68,85a12.07,12.07,0,0,0,1.39-4,22.42,22.42,0,0,0,.27-2.52v-.27H363V103.4h-.63v-.27a24.76,24.76,0,0,0-.27-2.61,11.88,11.88,0,0,0-1.44-4.1,11.37,11.37,0,0,0-3.46-3.73,10.87,10.87,0,0,0-6.35-1.62H338.4v24.66a9.67,9.67,0,0,1,.09,1.62,17.48,17.48,0,0,0,.41,4.14,5.6,5.6,0,0,0,1.35,2.61,5.7,5.7,0,0,0,2.47,1.48,13.88,13.88,0,0,0,3.78.59h10A22.93,22.93,0,0,0,363.15,125.27Z"/><path class="cls-3" d="M21.41,37.62a52.27,52.27,0,0,1,6.77-4.84,84.12,84.12,0,0,1,7.75-4.18c.29-.15.7-.33,1.21-.55s.85,0,1,.55a1.06,1.06,0,0,1-.82,1.21c-.63.22-1.09.37-1.38.44-.44.29-.86.55-1.26.77s-.79.44-1.16.66a63,63,0,0,0-7.15,4.51A70,70,0,0,0,20,41.47c-.51,1.25-1.08,2.49-1.7,3.74s-1.31,2.46-2,3.63-1.46,2.33-2.2,3.47a13.81,13.81,0,0,1-2.64,3,9.48,9.48,0,0,1-1.26.83,3,3,0,0,1-1.71.27.59.59,0,0,0-.38-.22A.6.6,0,0,1,7.66,56a2.85,2.85,0,0,1-.27-2.58,11.66,11.66,0,0,1,1.15-2.26,13.11,13.11,0,0,1,1.32-2.09,19.3,19.3,0,0,0,1.32-1.87l3-3.69q1.48-1.81,3.13-3.57c.37-1.17.75-2.35,1.16-3.52a13,13,0,0,0,.6-4.18,8.39,8.39,0,0,0-3.35,2.7l-2.7,3.57A80.07,80.07,0,0,0,7.44,49,43.28,43.28,0,0,0,4,62.15a4.78,4.78,0,0,1-.88,2.53c-.44.51-1.13.51-2.09,0A5.85,5.85,0,0,1,.13,61.6c0-1.17-.06-2.35-.06-3.52S0,55.57,0,54.29s.09-2.55.16-3.8Q.63,39.38,1.94,29.26A79.06,79.06,0,0,1,6.45,10.89c.22-.44.44-.93.66-1.48a9.62,9.62,0,0,1,.77-1.54,2.76,2.76,0,0,1,1.1-1,1.91,1.91,0,0,1,1.65.11c-.14.66-.33,1.43-.55,2.31s-.4,1.58-.55,2.09v-.44a25,25,0,0,0-1.21,4.18c-.29,1.47-.62,3-1,4.51a118.38,118.38,0,0,0-2,14.52q-.62,7.59-1.16,15.4,1.32-3.2,2.7-6.21a34.29,34.29,0,0,1,3.24-5.67,33,33,0,0,1,3.85-5.17c.74-.73,1.5-1.47,2.31-2.2a5.56,5.56,0,0,1,3.19-1.32,2.26,2.26,0,0,1,2,1.1,5.57,5.57,0,0,1,.66,2.31,9.94,9.94,0,0,1-.16,2.75C21.72,36,21.56,36.89,21.41,37.62ZM11.73,49.83a10.26,10.26,0,0,0-1.87,3.52,35.57,35.57,0,0,0,4.4-6.71Z"/><path class="cls-3" d="M54.74,24.53a16.2,16.2,0,0,0-5.11,5.28c-1.29,2.13-2.66,4.25-4.13,6.38-.59,1.17-1.17,2.35-1.76,3.52a30.64,30.64,0,0,0-1.54,3.63,18.59,18.59,0,0,0-1.65,3.58,4,4,0,0,1-2.64,2.58h-1a2.87,2.87,0,0,1-.93-.6,4.75,4.75,0,0,1-.72-.94,36.16,36.16,0,0,1-.16-4.51c0-1.61.11-3.24.22-4.89s.29-3.27.55-4.85.53-3,.82-4.34A15.55,15.55,0,0,1,37.36,27a2.1,2.1,0,0,1,1.76-1.43,1.37,1.37,0,0,1,1.27,1,6.11,6.11,0,0,1,.22,2A19.55,19.55,0,0,1,40.33,31a12.27,12.27,0,0,0-.22,2c-.15,1.47-.27,2.79-.38,4s-.24,2.27-.39,3.3q1.88-3.07,4.51-6.93a68.61,68.61,0,0,1,5.39-6.93,27.32,27.32,0,0,1,1.93-2.15,7.71,7.71,0,0,1,2.25-1.59,3.23,3.23,0,0,1,2,0,1.7,1.7,0,0,1,1.26,1.21c.15.88-.07,1.36-.66,1.43A1.21,1.21,0,0,1,54.74,24.53Z"/><path class="cls-3" d="M60.57,33.77a22,22,0,0,0-1.43,4,18.7,18.7,0,0,0-.66,4.83,8.28,8.28,0,0,0,1,4.13A3.9,3.9,0,0,0,63,48.62a10.93,10.93,0,0,0,5.45-1.21,50.76,50.76,0,0,0,4.45-2.53c1.47-1,2.84-2,4.13-3s2.43-2,3.46-2.91a61.15,61.15,0,0,0,5.45-4.73Q88.51,31.68,91,29a2.78,2.78,0,0,0,.72-.88A9.85,9.85,0,0,1,92.58,27a5.15,5.15,0,0,1,.94-.93.84.84,0,0,1,1-.06q.76.33.33,1.32a7.54,7.54,0,0,1-.77,1.43,4.08,4.08,0,0,1-.66,1.21c-.29.37-.59.77-.88,1.21a82.64,82.64,0,0,1-5.77,6.05c-2,1.91-4.09,3.81-6.22,5.72a45.31,45.31,0,0,1-9.24,6.6,25.57,25.57,0,0,1-2.75,1.27,16.55,16.55,0,0,1-3.19.88,15,15,0,0,1-3.35.16,6.64,6.64,0,0,1-3.14-1,4.8,4.8,0,0,1-1.15-1l-1.05-1.26a10.61,10.61,0,0,1-1.38-4.68,21,21,0,0,1,.34-5.22,31.62,31.62,0,0,1,1.37-5.06,32.21,32.21,0,0,1,1.76-4.07A45.85,45.85,0,0,1,63.21,23a12.88,12.88,0,0,1,6.71-4.18,5.36,5.36,0,0,1,3.69,1,3.78,3.78,0,0,1,1.15,3.52,7.24,7.24,0,0,1-1.32,3.3,21.23,21.23,0,0,1-2.31,2.75,24.43,24.43,0,0,1-4.34,3.46A9,9,0,0,1,60.57,33.77ZM70.8,22A11.44,11.44,0,0,0,65,26a40.73,40.73,0,0,0-3.74,6.1A6.88,6.88,0,0,0,65.3,31a28.81,28.81,0,0,0,2.86-2.31c.81-.88,1.65-1.76,2.53-2.64a4.75,4.75,0,0,0,1.21-3.74A1.21,1.21,0,0,0,70.8,22Z"/><path class="cls-3" d="M105.12,25.85c-1.4,1.83-2.75,3.81-4.07,5.94S98.41,36,97.09,38c-1,1.39-2,2.9-3,4.51a22.76,22.76,0,0,1-3.52,4.29,7.82,7.82,0,0,1-1.54,1.37A2.39,2.39,0,0,1,87,48.4,3,3,0,0,1,85.43,46a34.26,34.26,0,0,1,2-9.57,44.34,44.34,0,0,1,3.91-8.14c.51-.81,1.08-1.61,1.7-2.42a6,6,0,0,1,2-1.76,3.15,3.15,0,0,1,3.68.16c1.07.85,1.45,2.19,1.16,4a6,6,0,0,0,1.26-1.76c.48-.88,1-1.78,1.54-2.7a19,19,0,0,1,1.76-2.47,3.08,3.08,0,0,1,1.93-1.21,2.55,2.55,0,0,1,.77.11l.66.22a5,5,0,0,1,1.1,2.09q-.23,6.6-.88,12.49t-1,12.48v2c0,.81,0,1.61-.11,2.42a11.08,11.08,0,0,1-.39,2.14c-.18.63-.49.94-.93.94a1.26,1.26,0,0,1-1.16-.71,5.77,5.77,0,0,1-.55-1.77,13.64,13.64,0,0,1-.16-2.14,11.63,11.63,0,0,0-.11-1.76A61.18,61.18,0,0,1,103.91,37Q104.57,31.24,105.12,25.85Zm-7.92.22a.1.1,0,0,0-.11-.11,3.05,3.05,0,0,0-.61.27,2.36,2.36,0,0,1-.6.28,22.24,22.24,0,0,0-2.75,3.91,44.87,44.87,0,0,0-2.2,4.45q-.89,2.31-1.71,4.9a24.17,24.17,0,0,0-1,5.55,38.88,38.88,0,0,0,5.55-7.09q2.47-4,5-7.87A4.41,4.41,0,0,1,98.19,28,1.87,1.87,0,0,0,97.2,26.07Z"/><path class="cls-3" d="M124.48,28.05a8.88,8.88,0,0,0-3.3,2.64,11.25,11.25,0,0,0-1.38,1.76,3.54,3.54,0,0,0-.6,2.31,3.85,3.85,0,0,0,1.21,2.15c.66.62,1.25,1.19,1.76,1.7s1.15,1.16,1.7,1.7A16.72,16.72,0,0,1,125.36,42q2.74-2,5.22-4.12a48.38,48.38,0,0,1,5.34-4A40.39,40.39,0,0,1,140,31.13c1.51-.88,3.06-1.72,4.68-2.53l1.54-.77a1.5,1.5,0,0,1,1.65.11,1.14,1.14,0,0,1-.11.88,1.28,1.28,0,0,1-.66.49l-.88.34a1.25,1.25,0,0,0-.66.49,29.73,29.73,0,0,0-4.46,2.48c-1.35.91-2.73,1.81-4.12,2.69q-5.28,4-10.23,8.25a35.07,35.07,0,0,1,2.69,5.17A16,16,0,0,1,130.64,55a18.4,18.4,0,0,1-1.1,7,20.26,20.26,0,0,1-3.3,5.72,24.52,24.52,0,0,1-4.73,4.18,10.38,10.38,0,0,1-6.38,1.87,7.6,7.6,0,0,1-2.53-.55,9.55,9.55,0,0,1-1.87-1.1A11.43,11.43,0,0,1,109,69.63a8.09,8.09,0,0,1-.77-3.19,12.13,12.13,0,0,1,1.43-7,36.93,36.93,0,0,1,3.63-5.5,44.86,44.86,0,0,1,4.34-4.78c1.51-1.43,3-2.77,4.46-4a14.16,14.16,0,0,0-1.76-2q-1-.93-2-1.92a19.88,19.88,0,0,1-1.82-2.09,8.33,8.33,0,0,1-1.26-2.42,5.66,5.66,0,0,1,.05-4.45,18,18,0,0,1,2.15-3.58,28.76,28.76,0,0,1,2.14-2.14,9.71,9.71,0,0,1,2.48-1.6,10,10,0,0,1,1.65-.33,3.18,3.18,0,0,1,1.65.22,2.28,2.28,0,0,0,.6.6,1.84,1.84,0,0,1,.61.83,3.57,3.57,0,0,1,.05,2.09c-.18.81-.46,1.21-.82,1.21-.52.07-.81-.07-.88-.44A2.47,2.47,0,0,0,124.48,28.05Zm-1.43,19a50.44,50.44,0,0,0-3.74,3.41,48.12,48.12,0,0,0-3.63,4.07c-.66.81-1.34,1.71-2,2.69a17.19,17.19,0,0,0-1.76,3.25,16.19,16.19,0,0,0-1,3.69,9,9,0,0,0,.39,4,8.14,8.14,0,0,0,1.43,1.49,3.31,3.31,0,0,0,2.09.6,7.57,7.57,0,0,0,4.45-1.71,19.26,19.26,0,0,0,3.47-3.46,14.94,14.94,0,0,0,2.14-4.18,19,19,0,0,0,1-4.9,15.53,15.53,0,0,0-.44-4.89,11.65,11.65,0,0,0-2-4.29.1.1,0,0,0-.11-.11C123.12,46.9,123.05,47,123.05,47.08ZM111.39,74.47c0,.07.07,0,.22-.11C111.61,74.43,111.54,74.47,111.39,74.47Z"/><path class="cls-3" d="M152.75,13.75q9.45-.33,19.69-1a145.43,145.43,0,0,1,20.35.11c.37,0,.77,0,1.21.06a.93.93,0,0,1,.88.6c-.08.59-.35.88-.83.88a6.79,6.79,0,0,1-1.26-.11,200,200,0,0,0-20.35.16q-10.12.61-19.91,1.16-1.54,9-2.81,18.37a134.68,134.68,0,0,0-1.15,19.58c0,1,0,2,.11,3.19a22.11,22.11,0,0,0,.44,3.3,30.48,30.48,0,0,0,.71,3c.33,1.17.83,1.8,1.49,1.87a1.48,1.48,0,0,0,1.15-.33,8.81,8.81,0,0,0,1.21-1,10.79,10.79,0,0,0,1.1-1.26q.5-.66.72-1a107.89,107.89,0,0,0,7.86-11.71q3.46-6,7.32-12.49c.66-1.17,1.35-2.38,2.09-3.63s1.54-2.49,2.42-3.74a9.78,9.78,0,0,1,1-1.26,1,1,0,0,1,1.1-.39q.87.43.33,1.38c-.37.62-.66,1.08-.88,1.37q-2.76,4.62-5.17,9.35t-5.17,9.35c-1,1.69-2,3.39-3,5.12s-2,3.42-3.13,5.11-2.24,3.34-3.41,5a11.9,11.9,0,0,1-4.51,3.74,6,6,0,0,1-2.31,0,6.82,6.82,0,0,1-3.8-4.13,30.3,30.3,0,0,1-1.48-6.21,47,47,0,0,1-.55-7.31c0-2.54.07-5,.22-7.43q.56-7.37,1.48-14.24T148.13,16c-3.37.15-6.8.4-10.29.77s-7,.62-10.61.77c-.44,0-.94,0-1.49.05s-.86-.23-.93-.82a.78.78,0,0,1,.88-.88,9.84,9.84,0,0,0,1.54-.11q5.17-.33,10.56-.88c3.59-.37,7.15-.62,10.67-.77q.66-2.31,1.48-5.44a44.46,44.46,0,0,1,1.93-5.78A8.29,8.29,0,0,1,152.69,1a1.76,1.76,0,0,1,1.49-1,1.13,1.13,0,0,1,1,.44,1.56,1.56,0,0,1,.22,1,7.52,7.52,0,0,1-.22,1.27c-.11.44-.2.84-.27,1.21-.37,1.61-.73,3.28-1.1,5S153.11,12.28,152.75,13.75Z"/><path class="cls-3" d="M206.1,28.05a8.88,8.88,0,0,0-3.3,2.64,11.25,11.25,0,0,0-1.38,1.76,3.48,3.48,0,0,0-.6,2.31A3.85,3.85,0,0,0,202,36.91c.66.62,1.24,1.19,1.76,1.7s1.15,1.16,1.7,1.7A16.72,16.72,0,0,1,207,42q2.75-2,5.22-4.12a48.38,48.38,0,0,1,5.34-4,40.39,40.39,0,0,1,4.12-2.75q2.25-1.32,4.68-2.53l1.54-.77a1.5,1.5,0,0,1,1.65.11,1.19,1.19,0,0,1-.11.88,1.28,1.28,0,0,1-.66.49l-.88.34a1.21,1.21,0,0,0-.66.49,29.73,29.73,0,0,0-4.46,2.48c-1.35.91-2.73,1.81-4.12,2.69q-5.28,4-10.23,8.25a35.07,35.07,0,0,1,2.69,5.17A16,16,0,0,1,212.26,55a18.4,18.4,0,0,1-1.1,7,20.26,20.26,0,0,1-3.3,5.72,24.52,24.52,0,0,1-4.73,4.18,10.38,10.38,0,0,1-6.38,1.87,7.6,7.6,0,0,1-2.53-.55,9.55,9.55,0,0,1-1.87-1.1,11.11,11.11,0,0,1-1.76-2.53,8.09,8.09,0,0,1-.77-3.19,12.13,12.13,0,0,1,1.43-7,36.93,36.93,0,0,1,3.63-5.5,44.86,44.86,0,0,1,4.34-4.78q2.25-2.15,4.46-4a14.16,14.16,0,0,0-1.76-2q-1-.93-2-1.92a19.88,19.88,0,0,1-1.82-2.09,8.33,8.33,0,0,1-1.26-2.42,5.66,5.66,0,0,1,0-4.45,18,18,0,0,1,2.15-3.58,28.76,28.76,0,0,1,2.14-2.14,9.71,9.71,0,0,1,2.48-1.6,10,10,0,0,1,1.65-.33,3.18,3.18,0,0,1,1.65.22,2.14,2.14,0,0,0,.6.6,1.84,1.84,0,0,1,.61.83,3.65,3.65,0,0,1,.05,2.09c-.18.81-.46,1.21-.82,1.21-.52.07-.81-.07-.88-.44A2.47,2.47,0,0,0,206.1,28.05Zm-1.43,19a50.44,50.44,0,0,0-3.74,3.41,48.12,48.12,0,0,0-3.63,4.07c-.66.81-1.34,1.71-2,2.69a17.19,17.19,0,0,0-1.76,3.25,16.19,16.19,0,0,0-1,3.69,9,9,0,0,0,.39,4,8.14,8.14,0,0,0,1.43,1.49,3.31,3.31,0,0,0,2.09.6,7.57,7.57,0,0,0,4.45-1.71,19.26,19.26,0,0,0,3.47-3.46,14.94,14.94,0,0,0,2.14-4.18,19,19,0,0,0,1-4.9,15.83,15.83,0,0,0-.44-4.89,11.65,11.65,0,0,0-2-4.29.1.1,0,0,0-.11-.11C204.74,46.9,204.67,47,204.67,47.08ZM193,74.47c0,.07.07,0,.22-.11C193.23,74.43,193.16,74.47,193,74.47Z"/><path class="cls-3" d="M230.08,44.44a2.06,2.06,0,0,0,.93-.82c.26-.41.5-.79.72-1.16.8-1,1.59-2.13,2.36-3.3s1.56-2.27,2.37-3.3c.51-.81,1-1.58,1.54-2.31a22.28,22.28,0,0,1,1.65-2.09,16.84,16.84,0,0,0,1.87-2,2.93,2.93,0,0,1,2.64-1,2.77,2.77,0,0,1,1.92.94,6.63,6.63,0,0,1,1.16,2A15.52,15.52,0,0,1,248,34c.18.95.35,1.83.5,2.64s.33,1.52.55,2.37.47,1.66.77,2.47.62,1.49,1,2.26a2.28,2.28,0,0,0,3.13,1.21,10.45,10.45,0,0,0,1.6-.94,11.87,11.87,0,0,0,1.43-1.21l1-1a21.69,21.69,0,0,0,2.2-2.31,32.13,32.13,0,0,1,2.2-2.42c1-1.25,2.07-2.47,3.13-3.68s2.11-2.48,3.14-3.8a8.76,8.76,0,0,0,.88-1.43,1.3,1.3,0,0,1,1.43-.77,1.29,1.29,0,0,1,.38,1.71,10.19,10.19,0,0,1-.93,1.48c-.37.51-.74,1-1.1,1.48l-1,1.27c-1.54,1.83-3.16,3.81-4.84,5.94A45.37,45.37,0,0,1,258,45a25.69,25.69,0,0,1-3.14,2.26,4.62,4.62,0,0,1-4.23,0,7.4,7.4,0,0,1-2.59-3,20.73,20.73,0,0,1-1.48-4.12c-.37-1.47-.72-3-1.05-4.51a16.13,16.13,0,0,0-1.48-4.18,6.29,6.29,0,0,0-2,1.76c-.55.73-1.12,1.5-1.7,2.31s-1.12,1.59-1.6,2.37l-1.48,2.36c-1,1.61-2,3.23-3,4.84a10.61,10.61,0,0,1-4,3.85,3.09,3.09,0,0,1-2-.22,4.52,4.52,0,0,1-1.37-1.1A14.12,14.12,0,0,1,226,43a45.56,45.56,0,0,1,.11-5.45q.23-2.81.66-5.5c.29-1.79.58-3.46.88-5,.07-.51.15-1.08.22-1.71a10,10,0,0,1,.38-1.81,6.19,6.19,0,0,1,.66-1.48,1.48,1.48,0,0,1,1.05-.72,1.22,1.22,0,0,1,1,.16,3.13,3.13,0,0,1,.55.61,6.05,6.05,0,0,1,.11,3,11.7,11.7,0,0,0-.22,3.24q-.56,3.74-.94,7.7C230.2,38.72,230.08,41.51,230.08,44.44Z"/><path class="cls-3" d="M286.73,24.53a16.23,16.23,0,0,0-5.12,5.28c-1.28,2.13-2.66,4.25-4.12,6.38-.59,1.17-1.18,2.35-1.76,3.52a30.64,30.64,0,0,0-1.54,3.63,18.59,18.59,0,0,0-1.65,3.58,4,4,0,0,1-2.64,2.58h-1a2.91,2.91,0,0,1-.94-.6,5.13,5.13,0,0,1-.71-.94,36.07,36.07,0,0,1-.17-4.51c0-1.61.11-3.24.22-4.89s.3-3.27.55-4.85.54-3,.83-4.34a15.55,15.55,0,0,1,.66-2.42,2.1,2.1,0,0,1,1.76-1.43,1.34,1.34,0,0,1,1.26,1,5.86,5.86,0,0,1,.22,2,21.58,21.58,0,0,1-.27,2.42,12.27,12.27,0,0,0-.22,2q-.23,2.2-.39,4c-.11,1.17-.24,2.27-.38,3.3,1.24-2,2.75-4.36,4.51-6.93a67.2,67.2,0,0,1,5.39-6.93,25.31,25.31,0,0,1,1.92-2.15,7.89,7.89,0,0,1,2.26-1.59,3.2,3.2,0,0,1,2,0,1.7,1.7,0,0,1,1.27,1.21c.14.88-.08,1.36-.66,1.43A1.21,1.21,0,0,1,286.73,24.53Z"/><path class="cls-3" d="M311.15,47.52q3.18-3.85,6.32-8a86.41,86.41,0,0,1,6.88-8c.8-.81,1.65-1.63,2.53-2.47a5.37,5.37,0,0,1,3.19-1.49,1.54,1.54,0,0,1,.82.77,1.3,1.3,0,0,1-.05,1.21,1,1,0,0,1-.72.22.94.94,0,0,1-.71-.22A92.76,92.76,0,0,0,319.34,40.7q-4.56,5.94-9,12.21-1.77,11.66-4.51,22.82a137.69,137.69,0,0,1-6.93,21,27.59,27.59,0,0,1-1.38,3c-.55,1-1.12,2-1.7,3.08-.37.66-.76,1.32-1.16,2a10.5,10.5,0,0,1-1.32,1.76,5.76,5.76,0,0,1-1.76,1.27,5.7,5.7,0,0,1-2.47.49c0,.07-.08,0-.22-.11a1.78,1.78,0,0,1-.72-.33,4,4,0,0,0-.71-.44,1.8,1.8,0,0,0-.55-.66,10.75,10.75,0,0,1-.88-3.85,21.73,21.73,0,0,1,.16-4.12,38.53,38.53,0,0,1,.77-4c.33-1.32.64-2.53.94-3.63q1.1-3.63,2.42-7T293,77.66a171.22,171.22,0,0,1,13.42-23.43c.36-2.35.71-4.8,1-7.37s.57-5.17.72-7.81.34-5.28.38-8.14a25.21,25.21,0,0,0-.93-7.59,2.33,2.33,0,0,0-1.32,1.05c-.37.55-.74,1-1.1,1.48a19.3,19.3,0,0,1,1.1,3,6.39,6.39,0,0,0,.66,1.54,1.28,1.28,0,0,1,0,1.43c-.59.22-1,.13-1.27-.27a3.52,3.52,0,0,0-.82-.94c-.22-.37-.46-.73-.72-1.1a5,5,0,0,1-.6-1.1,35.33,35.33,0,0,0-3,4.4c-.88,1.54-1.84,3-2.86,4.51-.44.59-1,1.38-1.6,2.37A17.79,17.79,0,0,1,294,42.41a7.5,7.5,0,0,1-2.59,1.81,3.17,3.17,0,0,1-3-.55,4.66,4.66,0,0,1-1-2.69,13.72,13.72,0,0,1,.16-3.25,20.66,20.66,0,0,1,.83-3.25,29.87,29.87,0,0,1,1.1-2.8,28.61,28.61,0,0,1,2-3.91,16.32,16.32,0,0,1,2.42-3.13,10.81,10.81,0,0,1,1.65-1.32,7.45,7.45,0,0,1,2.2-1,7.06,7.06,0,0,1,2.47-.22,5.48,5.48,0,0,1,2.37.77,5.48,5.48,0,0,0,1.26-1.21,9.6,9.6,0,0,1,1.32-1.38,4.51,4.51,0,0,1,1.65-.87,3.4,3.4,0,0,1,2.15.16,4.52,4.52,0,0,1,.88.61,3.8,3.8,0,0,1,.66.71,6.86,6.86,0,0,1,1.15,2.48,17.33,17.33,0,0,1,.5,3.18c.07,1.14.11,2.33.11,3.58s0,2.46-.11,3.63c-.15,2.57-.3,5-.44,7.37S311.37,45.61,311.15,47.52ZM291.24,91.74c-.59,1.91-1.1,3.92-1.54,6.05a15.34,15.34,0,0,0,.11,6.6,10.11,10.11,0,0,0,3.19-4l2.31-5A104.35,104.35,0,0,0,301.14,79q2.31-8.64,4.18-18c0-.07,0-.07-.11,0q-4.08,7-7.81,14.52A89.57,89.57,0,0,0,291.24,91.74Zm5.17-64.35a22.51,22.51,0,0,0-3.47,5.44,25.09,25.09,0,0,0-1.92,7.1,30.39,30.39,0,0,0,5-6.71c1.43-2.57,3-5,4.57-7.37a2.89,2.89,0,0,0-2.42.33C297.58,26.62,297,27,296.41,27.39Z"/><path class="cls-3" d="M330.28,33.77a21.34,21.34,0,0,0-1.42,4,18.28,18.28,0,0,0-.66,4.83,8.28,8.28,0,0,0,1,4.13,3.89,3.89,0,0,0,3.51,1.87,10.91,10.91,0,0,0,5.45-1.21,51.06,51.06,0,0,0,4.46-2.53c1.46-1,2.84-2,4.12-3s2.44-2,3.47-2.91a61,61,0,0,0,5.44-4.73c1.72-1.69,3.43-3.41,5.11-5.17a2.65,2.65,0,0,0,.72-.88,11.12,11.12,0,0,1,.82-1.21,5.49,5.49,0,0,1,.94-.93.86.86,0,0,1,1-.06q.77.33.33,1.32a7.46,7.46,0,0,1-.78,1.43,3.67,3.67,0,0,1-.66,1.21c-.29.37-.58.77-.88,1.21a80.58,80.58,0,0,1-5.77,6.05c-2,1.91-4.09,3.81-6.21,5.72a45.31,45.31,0,0,1-9.24,6.6,26.5,26.5,0,0,1-2.75,1.27,16.45,16.45,0,0,1-3.2.88,14.92,14.92,0,0,1-3.35.16,6.6,6.6,0,0,1-3.13-1,5,5,0,0,1-1.16-1l-1-1.26a10.48,10.48,0,0,1-1.38-4.68,21,21,0,0,1,.33-5.22,31.64,31.64,0,0,1,1.38-5.06,30.82,30.82,0,0,1,1.76-4.07A45.8,45.8,0,0,1,332.92,23a13,13,0,0,1,6.72-4.18,5.35,5.35,0,0,1,3.68,1,3.78,3.78,0,0,1,1.16,3.52,7.24,7.24,0,0,1-1.32,3.3,23,23,0,0,1-2.31,2.75,24.14,24.14,0,0,1-4.35,3.46A9,9,0,0,1,330.28,33.77ZM340.52,22a11.39,11.39,0,0,0-5.83,4,39.15,39.15,0,0,0-3.74,6.1A6.9,6.9,0,0,0,335,31a29.87,29.87,0,0,0,2.85-2.31c.81-.88,1.66-1.76,2.54-2.64a4.75,4.75,0,0,0,1.2-3.74A1.19,1.19,0,0,0,340.52,22Z"/><path class="cls-3" d="M378.57,24.53a16.3,16.3,0,0,0-5.11,5.28c-1.29,2.13-2.66,4.25-4.13,6.38-.59,1.17-1.17,2.35-1.76,3.52A32.4,32.4,0,0,0,366,43.34a18.59,18.59,0,0,0-1.65,3.58,4,4,0,0,1-2.64,2.58h-1a3,3,0,0,1-.93-.6,4.75,4.75,0,0,1-.72-.94,36.16,36.16,0,0,1-.16-4.51c0-1.61.11-3.24.22-4.89s.29-3.27.55-4.85.53-3,.82-4.34a15.55,15.55,0,0,1,.66-2.42A2.12,2.12,0,0,1,363,25.52a1.37,1.37,0,0,1,1.27,1,6.11,6.11,0,0,1,.22,2,19.55,19.55,0,0,1-.28,2.42,13.45,13.45,0,0,0-.22,2c-.14,1.47-.27,2.79-.38,4s-.24,2.27-.39,3.3q1.88-3.07,4.51-6.93a68.61,68.61,0,0,1,5.39-6.93A27.32,27.32,0,0,1,375,24.25a7.85,7.85,0,0,1,2.25-1.59,3.23,3.23,0,0,1,2,0,1.69,1.69,0,0,1,1.26,1.21c.15.88-.07,1.36-.66,1.43A1.22,1.22,0,0,1,378.57,24.53Z"/><path class="cls-3" d="M404.64,50.49q4.19-4.52,8.2-9.51t8.08-10l2.64-3.3a5,5,0,0,0,1.38-1.65,1.54,1.54,0,0,1,2-.66.93.93,0,0,1-.11,1.27,3.23,3.23,0,0,0-.77.93q-5.38,7.26-10.94,14.14t-11.39,13.8q-1.75,10.23-4,20.07a72.72,72.72,0,0,1-6.44,17.77q-1.43,2.53-3,4.9a13.3,13.3,0,0,1-4.13,3.9,15.77,15.77,0,0,1-1.81.55,5.17,5.17,0,0,1-2.15,0A5.45,5.45,0,0,1,379,99.39a13.42,13.42,0,0,1-.66-5.23,29.25,29.25,0,0,1,.93-5.77,47.07,47.07,0,0,1,1.65-5.12,58.18,58.18,0,0,1,2.64-5.61q1.43-2.64,2.64-4.84a102.23,102.23,0,0,1,6.55-9.35q3.46-4.39,7.09-8.58,1.54-8.14,3-16.28t2.31-16.83a2.32,2.32,0,0,0-1,1A11.41,11.41,0,0,1,403,24.31a43.2,43.2,0,0,0-3.46,5q-1.61,2.64-3.25,5.22t-3.46,5a27.73,27.73,0,0,1-4.13,4.4,2.31,2.31,0,0,0-.88.33,2.31,2.31,0,0,1-.88.33h-1.21a3.94,3.94,0,0,1-2.64-1.93,10.42,10.42,0,0,1-1.37-3.73,18.51,18.51,0,0,1-.22-4.57,24.74,24.74,0,0,1,.71-4.51,6.35,6.35,0,0,1,.83-2.09,1.68,1.68,0,0,1,1.7-.88,1.05,1.05,0,0,1,1,.77,5.49,5.49,0,0,1,.27,1.82,15.48,15.48,0,0,1-.16,2.19,14.82,14.82,0,0,0-.17,2q0,2,.06,4a6.82,6.82,0,0,0,.82,3.3,14.66,14.66,0,0,0,5.34-4.78q2-3,4.34-5.89a35.56,35.56,0,0,1,2.09-2.92,33.75,33.75,0,0,0,2.09-2.91,10.94,10.94,0,0,0,2.2-2.92,4.71,4.71,0,0,1,2.64-2.36c.66-.22,1.21.07,1.65.88a6,6,0,0,1,.61,3.58c-.11,1.57-.21,3-.28,4.23q-.55,5.72-1.21,11.83T404.64,50.49ZM387.15,77.77a60.62,60.62,0,0,0-3.3,7.15,32.42,32.42,0,0,0-2,8.58,21,21,0,0,0,0,3,3.06,3.06,0,0,0,1.43,2.42,8.07,8.07,0,0,0,3.52-3,43,43,0,0,0,2.42-4.24,73.26,73.26,0,0,0,5.5-14.69q2.08-8,3.85-16a.1.1,0,0,0-.11-.11q-3,3.86-5.88,8A88.83,88.83,0,0,0,387.15,77.77Z"/></g></g></svg>