<svg xmlns="http://www.w3.org/2000/svg" viewBox="0 0 461.55 137.38"><defs><style>.cls-1{fill:#53575a;}.cls-2{fill:#ff8300;}</style></defs><g id="Layer_2" data-name="Layer 2"><g id="Layer_1-2" data-name="Layer 1"><path class="cls-1" d="M32.7,136.27a15.53,15.53,0,0,0,3.8-1.69,14.07,14.07,0,0,0,2.89-2.37,20.18,20.18,0,0,0,2.15-2.76,22.38,22.38,0,0,0,2.92-7.54h.46L43,137.38H.06v-.46a24.74,24.74,0,0,0,3.74-.23,5.06,5.06,0,0,0,2.44-.94,3.82,3.82,0,0,0,1.3-1.95,11.29,11.29,0,0,0,.39-3.31V93a2.56,2.56,0,0,0,0-.39,2.56,2.56,0,0,1,0-.39c0-2.38-.43-4-1.27-4.91S4.25,85.9,2.08,85.77H0v-.39H41.21V99h-.45V99c-.35-1.43-.75-2.92-1.21-4.48a13.27,13.27,0,0,0-2.11-4.26A10.91,10.91,0,0,0,33.54,87,14.21,14.21,0,0,0,27,85.77H14.82v25.41h9.3a7.4,7.4,0,0,0,4.38-1.26,8.6,8.6,0,0,0,3.42-5.56c.12-.91.19-1.52.19-1.82v-.2h.45v18.14h-.45v-.2c0-.3-.07-.93-.19-1.88a8.56,8.56,0,0,0-1-3,8.2,8.2,0,0,0-2.51-2.7,7.82,7.82,0,0,0-4.58-1.17h-9v17.81a7.26,7.26,0,0,1,.07,1.17,12.36,12.36,0,0,0,.29,3,4.14,4.14,0,0,0,1,1.89,4.31,4.31,0,0,0,1.79,1.07,10.18,10.18,0,0,0,2.73.42h7.22A16.37,16.37,0,0,0,32.7,136.27Z"/><path class="cls-1" d="M87.56,136c.52-.63.34-1.64-.52-3L74.23,113.52l-8.52,12.81a20.54,20.54,0,0,0-2.3,4.29,7.23,7.23,0,0,0-.52,2.92,3.18,3.18,0,0,0,.68,1.86,3.62,3.62,0,0,0,1.33,1,5.65,5.65,0,0,0,1.5.43,10.21,10.21,0,0,0,1.14.09v.46H50.05v-.46h.59a20.2,20.2,0,0,0,2.14-.39,13.2,13.2,0,0,0,3.48-1.4A22.52,22.52,0,0,0,60.55,132a29.37,29.37,0,0,0,4.64-5.59L74,113.07,59.35,90.9a1.31,1.31,0,0,1-.27-.39A10.42,10.42,0,0,0,56.78,88a10.87,10.87,0,0,0-2.34-1.4,9.12,9.12,0,0,0-2.15-.65,10.49,10.49,0,0,0-1.65-.16h-.52v-.39h20.6v.39H69c-1.52,0-2.55.35-3.09,1.07s-.36,1.74.56,3.09l12.73,19.43,8.85-13.52q2.27-3.57,2.43-5.59a4.18,4.18,0,0,0-.65-3,3.31,3.31,0,0,0-2-1.23A10.28,10.28,0,0,0,86,85.77v-.39h17.42v.39h-.59a18.72,18.72,0,0,0-2.11.39,13.9,13.9,0,0,0-3.41,1.36,22.45,22.45,0,0,0-4.23,3.06A28.21,28.21,0,0,0,88.53,96l-9,13.72,14.81,22.55a9.52,9.52,0,0,0,2.28,2.54A11.92,11.92,0,0,0,99,136.17a7.69,7.69,0,0,0,2.12.62,12.09,12.09,0,0,0,1.62.13h.65v.46H82.62v-.46h1.82C86,136.92,87,136.61,87.56,136Z"/><path class="cls-1" d="M106.66,137.38v-.46a24.74,24.74,0,0,0,3.74-.23,5.06,5.06,0,0,0,2.44-.94,3.82,3.82,0,0,0,1.3-1.95,11.29,11.29,0,0,0,.39-3.31V92.2q0-3.57-1.27-4.91t-4.52-1.52h-2.08v-.39h24.7a26.29,26.29,0,0,1,7.54,1,15,15,0,0,1,5.2,2.8,10.93,10.93,0,0,1,3,4.06,13.29,13.29,0,0,1,1,5.23,11.68,11.68,0,0,1-4,9.3,14,14,0,0,1-5.2,2.79,23.79,23.79,0,0,1-7.54,1h-9.88v19a12.3,12.3,0,0,0,.3,3,4.14,4.14,0,0,0,1,1.89,4.3,4.3,0,0,0,1.82,1.07,10.55,10.55,0,0,0,2.76.42h2l-.07.07v.39H106.66Zm14.82-26.2h9.36a9.46,9.46,0,0,0,5.53-1.62,10.23,10.23,0,0,0,1.46-1.33,9.45,9.45,0,0,0,1.33-1.92,13.6,13.6,0,0,0,1.3-3.54,19,19,0,0,0,.46-4.33,15.14,15.14,0,0,0-2.41-9,8.85,8.85,0,0,0-7.67-3.7h-4.16a6.17,6.17,0,0,0-4.06,1.62c-.76.87-1.14,2.45-1.14,4.75v19Z"/><path class="cls-1" d="M142.41,136.79l1.14-.13a7.88,7.88,0,0,0,2.54-.87,13.48,13.48,0,0,0,3.08-2.31A12.58,12.58,0,0,0,152,129l17.48-43.68H170l17.42,43.55a28.55,28.55,0,0,0,2.15,4.39,8.62,8.62,0,0,0,2,2.27,4.45,4.45,0,0,0,2,.92l2.31.35v.46H174.46v-.46c1.56-.08,2.89-.18,4-.29a4.48,4.48,0,0,0,2.5-.88,2.56,2.56,0,0,0,.71-2.31,17.67,17.67,0,0,0-1.3-4.58l-4.81-12.09H157.43l-4.94,12.29a6.15,6.15,0,0,0-.55,3.28,4.34,4.34,0,0,0,1,2.21,5.47,5.47,0,0,0,1.92,1.37,12.27,12.27,0,0,0,2.21.71,11.46,11.46,0,0,0,1.85.26l.85,0v.46H142.41ZM166.53,94l-8.91,22.17h17.75Z"/><path class="cls-1" d="M260.58,85.38v.45h-1a17.71,17.71,0,0,0-2.76.29,12.11,12.11,0,0,0-3.35,1.11,8.08,8.08,0,0,0-2.83,2.37,6.65,6.65,0,0,0-1.2,4.16v43.62H249L210.73,89.54v39.39a6.74,6.74,0,0,0,1.2,4.22,8.08,8.08,0,0,0,2.83,2.37,11.48,11.48,0,0,0,3.35,1.11,16.56,16.56,0,0,0,2.76.29h1v.46H199.09v-.46h1a16.76,16.76,0,0,0,2.76-.29,11.58,11.58,0,0,0,3.35-1.11,8.26,8.26,0,0,0,2.83-2.37,6.74,6.74,0,0,0,1.2-4.22v-37c0-1,0-1.94-.07-2.69a3.82,3.82,0,0,0-.58-1.92,3,3,0,0,0-1.72-1.14,12.92,12.92,0,0,0-3.48-.36h-2v-.45h13.91L249,126V93.76a6.65,6.65,0,0,0-1.2-4.16,8.26,8.26,0,0,0-2.83-2.37,12.22,12.22,0,0,0-3.35-1.11,18,18,0,0,0-2.76-.29h-1v-.45h22.75Z"/><path class="cls-1" d="M310.37,129.71a22.48,22.48,0,0,1-7.73,5.65,25.11,25.11,0,0,1-9.95,2H264.81v-.46a24,24,0,0,0,3.7-.23,5,5,0,0,0,2.41-.94,3.88,3.88,0,0,0,1.3-1.95,11.29,11.29,0,0,0,.39-3.31V92.2c0-2.38-.44-4-1.3-4.91s-2.39-1.39-4.55-1.52h-2v-.39h27.95a24.07,24.07,0,0,1,9.95,2A23,23,0,0,1,310.37,93a24.9,24.9,0,0,1,5,8.32,29.52,29.52,0,0,1,1.72,10.08,29.21,29.21,0,0,1-1.72,10A25,25,0,0,1,310.37,129.71Zm-11.5,5.2a18.76,18.76,0,0,0,3.09-2.34,20,20,0,0,0,2.69-3.12,28.61,28.61,0,0,0,3.84-8.19,34.69,34.69,0,0,0,1.36-9.88,35.39,35.39,0,0,0-1.36-9.95,27.4,27.4,0,0,0-3.84-8.19A20,20,0,0,0,302,90.12a18.76,18.76,0,0,0-3.09-2.34,15.16,15.16,0,0,0-7-2H284.7a8.39,8.39,0,0,0-2.41.52,4.08,4.08,0,0,0-1.59,1.1,4.37,4.37,0,0,0-.88,1.89,13.61,13.61,0,0,0-.26,2.86v37.24a3.69,3.69,0,0,0,0,.56,5.93,5.93,0,0,1,0,.61,12.89,12.89,0,0,0,.29,3,4.42,4.42,0,0,0,.94,1.89,4.07,4.07,0,0,0,1.76,1.07,10.33,10.33,0,0,0,2.79.42h5.92A15.41,15.41,0,0,0,298.87,134.91Z"/><path class="cls-1" d="M354.25,136.27a15.36,15.36,0,0,0,3.8-1.69,14.07,14.07,0,0,0,2.89-2.37,19.42,19.42,0,0,0,2.15-2.76,22.38,22.38,0,0,0,2.92-7.54h.46l-1.89,15.47h-43v-.46a24.6,24.6,0,0,0,3.73-.23,5,5,0,0,0,2.44-.94,3.82,3.82,0,0,0,1.3-1.95,11.29,11.29,0,0,0,.39-3.31V93a2.56,2.56,0,0,0,0-.39,2.56,2.56,0,0,1,0-.39q0-3.57-1.27-4.91c-.85-.88-2.35-1.39-4.52-1.52h-2.08v-.39h41.21V99h-.45V99c-.35-1.43-.75-2.92-1.21-4.48A13.27,13.27,0,0,0,359,90.22a10.91,10.91,0,0,0-3.9-3.18,14.21,14.21,0,0,0-6.5-1.27H336.37v25.41h9.3a7.4,7.4,0,0,0,4.38-1.26,8.55,8.55,0,0,0,2.41-2.7,8.64,8.64,0,0,0,1-2.86,15.84,15.84,0,0,0,.19-1.82v-.2h.46v18.14h-.46v-.2a17.34,17.34,0,0,0-.19-1.88,8.56,8.56,0,0,0-1-3,8.2,8.2,0,0,0-2.51-2.7,7.82,7.82,0,0,0-4.58-1.17h-9v17.81a6.23,6.23,0,0,1,.07,1.17,12.36,12.36,0,0,0,.29,3,4.06,4.06,0,0,0,1,1.89,4.21,4.21,0,0,0,1.78,1.07,10.18,10.18,0,0,0,2.73.42h7.22A16.37,16.37,0,0,0,354.25,136.27Z"/><path class="cls-1" d="M370.56,137.38v-.46h.07a24.6,24.6,0,0,0,3.73-.23,4.87,4.87,0,0,0,2.41-.94A4,4,0,0,0,378,133.8a11.29,11.29,0,0,0,.39-3.31V92.2c0-2.38-.43-4-1.27-4.91s-2.35-1.39-4.52-1.52h-2.08v-.39h24.77a26.78,26.78,0,0,1,7.54,1,16.81,16.81,0,0,1,5.2,2.8A10.91,10.91,0,0,1,411,93.21a13.11,13.11,0,0,1,1,5.23,11.71,11.71,0,0,1-4,9.3,15.6,15.6,0,0,1-5.2,2.79,13.54,13.54,0,0,1-3,.72c-1.06.13-2.17.24-3.34.32a9.78,9.78,0,0,1,2.89,1.37,14.79,14.79,0,0,1,3.48,3.57l12.22,17a6.61,6.61,0,0,0,2.17,1.92,13.76,13.76,0,0,0,2.47,1,11.26,11.26,0,0,0,2.12.42l1.1.06H423v.46H410l-15.86-22a15.27,15.27,0,0,0-1.79-2,7.31,7.31,0,0,0-1.56-1.14,5.35,5.35,0,0,0-1.46-.52,9.1,9.1,0,0,0-1.5-.13h-2.4v19a12.36,12.36,0,0,0,.29,3,4.14,4.14,0,0,0,1,1.89,4.37,4.37,0,0,0,1.79,1.07,10.18,10.18,0,0,0,2.73.42h2v.46H370.56Zm14.89-26.2h9.36a9.35,9.35,0,0,0,5.46-1.62,10.8,10.8,0,0,0,1.46-1.33,12.19,12.19,0,0,0,1.4-1.92,15.65,15.65,0,0,0,1.23-3.54,19,19,0,0,0,.46-4.33,15.14,15.14,0,0,0-2.41-9,8.8,8.8,0,0,0-7.6-3.7h-4.23a8.39,8.39,0,0,0-2.4.52,4.2,4.2,0,0,0-1.6,1.1,4.25,4.25,0,0,0-.87,1.89,13,13,0,0,0-.26,2.86v19Z"/><path class="cls-1" d="M427.5,120.87H428a15.53,15.53,0,0,0,.33,3,22.78,22.78,0,0,0,.91,3.32,19.47,19.47,0,0,0,1.43,3.15,9.07,9.07,0,0,0,1.88,2.4,15.54,15.54,0,0,0,4.68,2.83,16.14,16.14,0,0,0,5.53,1.07h.58a17.77,17.77,0,0,0,5.53-1.1,10.65,10.65,0,0,0,4.42-3.71,9.73,9.73,0,0,0,1.72-5.16,10.16,10.16,0,0,0-1.53-5.53,12.91,12.91,0,0,0-5.33-4.71L440,112.22a23.78,23.78,0,0,1-6.5-4.58,15.49,15.49,0,0,1-3.41-5.14,11.36,11.36,0,0,1-.75-5.23,12.07,12.07,0,0,1,1.56-4.87,14.27,14.27,0,0,1,3.48-4,17.87,17.87,0,0,1,5-2.8,12,12,0,0,1,2.6-.71,18,18,0,0,1,2.67-.2,15.76,15.76,0,0,1,5.85,1.11c.69.26,1.43.52,2.21.78A8.8,8.8,0,0,0,455,87a4.63,4.63,0,0,0,2.21-.39A4.15,4.15,0,0,0,459,84.86h.45V99H459a10.59,10.59,0,0,0-.42-2.86,15.5,15.5,0,0,0-1.14-2.89,18.37,18.37,0,0,0-1.62-2.6,17.24,17.24,0,0,0-1.82-2A13.16,13.16,0,0,0,449.67,86a14.61,14.61,0,0,0-5.07-.88,15.68,15.68,0,0,0-2.25.16,13.71,13.71,0,0,0-2.17.49,9.3,9.3,0,0,0-4.65,3.12,6.65,6.65,0,0,0-1.37,4.94,11.52,11.52,0,0,0,2.9,5.94,28.74,28.74,0,0,0,8.12,6.28l7.48,3.83a18.94,18.94,0,0,1,5.65,4.45,13.72,13.72,0,0,1,2.86,5.37,11.62,11.62,0,0,1,.07,5.59,12.23,12.23,0,0,1-2.7,5.17,17.77,17.77,0,0,1-5.43,4.09,25.3,25.3,0,0,1-8.12,2.37h.13c-.35.05-.66.08-.95.1s-.57,0-.87,0h-.65A14.89,14.89,0,0,1,437,136v0a6.71,6.71,0,0,1-.65-.26,11.84,11.84,0,0,0-4.29-1,5.48,5.48,0,0,0-2.5.52,2.66,2.66,0,0,0-1.2,1.17,9.16,9.16,0,0,0-.39.88v.06h-.46Z"/><path class="cls-1" d="M126.65,45.89a5,5,0,0,1-.91,1.23c-.34.35-.69.68-1,1a4,4,0,0,1-.71.65,15.28,15.28,0,0,1-5.85,2.79,30.5,30.5,0,0,1-8.52,1H83.56v-.45a26,26,0,0,0,3.73-.23A5.06,5.06,0,0,0,89.73,51,3.9,3.9,0,0,0,91,49a11.37,11.37,0,0,0,.39-3.32V8.25a4.11,4.11,0,0,1-.06-.84,12.36,12.36,0,0,0-.3-3,4.31,4.31,0,0,0-.94-1.89,3.72,3.72,0,0,0-1.75-1A13.77,13.77,0,0,0,85.64,1H83.56V.52h24.7a29.18,29.18,0,0,1,4,.26,22.12,22.12,0,0,1,3.55.78A14,14,0,0,1,121,4.42a11.69,11.69,0,0,1,4,9.29,11.6,11.6,0,0,1-4,9.23,16.4,16.4,0,0,1-2.38,1.63,12.83,12.83,0,0,1-2.82,1.17,11.81,11.81,0,0,1-1.5.42l-1.56.36a22.37,22.37,0,0,1,2.83.29c.89.15,1.74.34,2.57.55a16.27,16.27,0,0,1,5.85,2.8,11.22,11.22,0,0,1,4.48,9.3A11.76,11.76,0,0,1,126.65,45.89ZM98.38,26.32h9.36a9.61,9.61,0,0,0,5.52-1.55,10,10,0,0,0,1.43-1.31,11.14,11.14,0,0,0,1.37-1.88,16.72,16.72,0,0,0,1.69-7.87c0-3.77-.81-6.78-2.41-9Q112.81,1,107.74,1h-4.16c-2,.17-3.31.7-4.07,1.59s-1.13,2.46-1.13,4.71v19Zm19.3,22.1c1.82-2.21,2.73-5.19,2.73-9a14,14,0,0,0-2.73-9q-2.93-3.69-8.58-3.7H98.38v19a12.49,12.49,0,0,0,.29,3,4.07,4.07,0,0,0,1,1.91,4.27,4.27,0,0,0,1.82,1.08,10.56,10.56,0,0,0,2.77.42h4.87C112.92,52.13,115.77,50.9,117.68,48.42Z"/><path class="cls-1" d="M130.49,52.71v-.45h.06a26.22,26.22,0,0,0,3.74-.23,4.79,4.79,0,0,0,2.4-.94,4,4,0,0,0,1.27-2,11.37,11.37,0,0,0,.39-3.32V7.54q0-3.57-1.27-4.91c-.84-.89-2.35-1.4-4.51-1.53h-2.08V.71h24.76a26.71,26.71,0,0,1,7.54,1A16.79,16.79,0,0,1,168,4.48a11,11,0,0,1,3,4.07,13.25,13.25,0,0,1,1,5.23,11.68,11.68,0,0,1-4,9.29,15.44,15.44,0,0,1-5.2,2.8,12.93,12.93,0,0,1-3,.71c-1.06.13-2.18.24-3.35.33a9.87,9.87,0,0,1,2.89,1.36,14.87,14.87,0,0,1,3.48,3.58l12.22,17a6.42,6.42,0,0,0,2.18,1.92,12.81,12.81,0,0,0,2.47,1,9.67,9.67,0,0,0,2.11.42c.61.05,1,.07,1.11.07h.06v.45h-13l-15.86-22a14.59,14.59,0,0,0-1.79-2.05,7.31,7.31,0,0,0-1.56-1.14,5.13,5.13,0,0,0-1.46-.52,8,8,0,0,0-1.49-.13h-2.41v19a13,13,0,0,0,.29,3,4.15,4.15,0,0,0,1,1.89,4.24,4.24,0,0,0,1.79,1.07,10,10,0,0,0,2.73.42h2v.45H130.49Zm14.88-26.19h9.36a9.35,9.35,0,0,0,5.46-1.62,9.83,9.83,0,0,0,1.46-1.34,11.09,11.09,0,0,0,1.4-1.91,16.44,16.44,0,0,0,1.24-3.55,19.49,19.49,0,0,0,.45-4.32,15.17,15.17,0,0,0-2.4-9,8.83,8.83,0,0,0-7.61-3.71h-4.22a8.74,8.74,0,0,0-2.41.52,4,4,0,0,0-1.59,1.11,4.22,4.22,0,0,0-.88,1.88,13.78,13.78,0,0,0-.26,2.87v19Z"/><path class="cls-1" d="M219.47,51.61a15.56,15.56,0,0,0,3.8-1.69,14.14,14.14,0,0,0,2.9-2.37,19.58,19.58,0,0,0,2.14-2.77,22.34,22.34,0,0,0,2.93-7.53h.45l-1.88,15.46h-43v-.45a26.22,26.22,0,0,0,3.74-.23,5.06,5.06,0,0,0,2.44-.94,4,4,0,0,0,1.3-2,11.37,11.37,0,0,0,.39-3.32V8.32a2.58,2.58,0,0,0,0-.39,2.56,2.56,0,0,1,0-.39q0-3.57-1.27-4.91c-.84-.89-2.35-1.4-4.51-1.53h-2.08V.71H228V14.36h-.46V14.3c-.35-1.43-.75-2.92-1.2-4.49a13.43,13.43,0,0,0-2.11-4.25,11.21,11.21,0,0,0-3.9-3.19,14.37,14.37,0,0,0-6.5-1.27H201.6V26.52h9.29a7.43,7.43,0,0,0,4.39-1.27,8.64,8.64,0,0,0,3.41-5.56,16.62,16.62,0,0,0,.2-1.81v-.2h.45V35.81h-.45v-.19a18.73,18.73,0,0,0-.2-1.89,8.58,8.58,0,0,0-1-2.95,8.16,8.16,0,0,0-2.5-2.7,7.84,7.84,0,0,0-4.58-1.17h-9V44.72a7.62,7.62,0,0,1,.06,1.17,13,13,0,0,0,.29,3,4.15,4.15,0,0,0,1,1.89,4.24,4.24,0,0,0,1.79,1.07,10,10,0,0,0,2.73.42h7.21A16.66,16.66,0,0,0,219.47,51.61Z"/><path class="cls-1" d="M235.92,52.13l1.13-.13a7.94,7.94,0,0,0,2.54-.88,13.73,13.73,0,0,0,3.09-2.31,12.66,12.66,0,0,0,2.79-4.48L263,.65h.52L280.9,44.2A28.66,28.66,0,0,0,283,48.59,8.79,8.79,0,0,0,285,50.86a4.42,4.42,0,0,0,2,.91l2.31.36v.45H268v-.45c1.56-.09,2.89-.18,4-.29a4.48,4.48,0,0,0,2.5-.88,2.61,2.61,0,0,0,.72-2.31,18,18,0,0,0-1.3-4.58L269.07,32H250.93L246,44.27a6.23,6.23,0,0,0-.55,3.28,4.35,4.35,0,0,0,1,2.21,5.29,5.29,0,0,0,1.91,1.36,12,12,0,0,0,4.07,1l.84,0v.45H235.92ZM260,9.36l-8.9,22.16h17.74Z"/><path class="cls-1" d="M293.83,36.21h.52a15.69,15.69,0,0,0,.33,3,22.66,22.66,0,0,0,.91,3.31A18.72,18.72,0,0,0,297,45.69a9.13,9.13,0,0,0,1.88,2.41,15.75,15.75,0,0,0,4.68,2.83A16.14,16.14,0,0,0,309.11,52h.58a18.36,18.36,0,0,0,5.53-1.1,10.72,10.72,0,0,0,4.42-3.71A9.76,9.76,0,0,0,321.36,42a10.15,10.15,0,0,0-1.53-5.52,12.93,12.93,0,0,0-5.33-4.72l-8.19-4.22a24,24,0,0,1-6.5-4.58,15.49,15.49,0,0,1-3.41-5.14,11.38,11.38,0,0,1-.75-5.23,12.11,12.11,0,0,1,1.56-4.88,14.38,14.38,0,0,1,3.48-4,17.38,17.38,0,0,1,5-2.8,11.48,11.48,0,0,1,2.6-.72A18,18,0,0,1,310.93,0a16,16,0,0,1,5.85,1.1c.69.26,1.43.52,2.21.78a8.44,8.44,0,0,0,2.34.46A4.88,4.88,0,0,0,323.54,2,4.12,4.12,0,0,0,325.36.19h.45V14.3h-.52a10.59,10.59,0,0,0-.42-2.86,15.23,15.23,0,0,0-1.14-2.89A18.37,18.37,0,0,0,322.11,6a16.48,16.48,0,0,0-1.82-2.05A13.19,13.19,0,0,0,316,1.33a14.84,14.84,0,0,0-5.07-.87,15.68,15.68,0,0,0-2.25.16,14.62,14.62,0,0,0-2.17.48,9.25,9.25,0,0,0-4.65,3.13,6.64,6.64,0,0,0-1.37,4.94,11.52,11.52,0,0,0,2.9,5.94,28.92,28.92,0,0,0,8.12,6.27L319,25.22a18.94,18.94,0,0,1,5.65,4.45A13.69,13.69,0,0,1,327.5,35a11.62,11.62,0,0,1,.07,5.59,12.11,12.11,0,0,1-2.7,5.17,17.79,17.79,0,0,1-5.43,4.1,25.3,25.3,0,0,1-8.12,2.37h.13l-.95.1q-.42,0-.87,0H309a14.9,14.9,0,0,1-5.66-1.11v0a3.81,3.81,0,0,1-.65-.26,12,12,0,0,0-4.29-1,5.36,5.36,0,0,0-2.5.52,2.62,2.62,0,0,0-1.2,1.17,9.46,9.46,0,0,0-.39.87v.07h-.46Z"/><path class="cls-1" d="M377,14.17V14c-.35-1.34-.74-2.74-1.17-4.19a14.73,14.73,0,0,0-1.92-4.07A10.67,10.67,0,0,0,370.5,2.6,12.86,12.86,0,0,0,364.81,1h-.58a5.73,5.73,0,0,0-4,1.59Q359.09,4,359.09,7.34V45.76a13,13,0,0,0,.29,3,4.08,4.08,0,0,0,1,1.91,4.16,4.16,0,0,0,1.79,1.08,10,10,0,0,0,2.73.42h2v.45H344.27v-.45A26.22,26.22,0,0,0,348,51.9a4.83,4.83,0,0,0,2.4-.94,4,4,0,0,0,1.27-2,11.37,11.37,0,0,0,.39-3.32V7.41a13,13,0,0,0-.29-3,4.15,4.15,0,0,0-1-1.89,3.9,3.9,0,0,0-1.79-1A13.51,13.51,0,0,0,346.28,1h-.38a12.57,12.57,0,0,0-5.66,1.56,11.25,11.25,0,0,0-3.45,3.18,14.82,14.82,0,0,0-2,4.07c-.43,1.45-.8,2.85-1.1,4.19v.13h-.46V.52h44.2V14.17Z"/><path class="cls-2" d="M158.22,44q8.78-.3,18.26-.92a136.55,136.55,0,0,1,18.87.1c.34,0,.71,0,1.12.06a.88.88,0,0,1,.82.56c-.07.54-.32.81-.77.81a5.87,5.87,0,0,1-1.17-.1,185.46,185.46,0,0,0-18.87.15q-9.39.57-18.46,1.08-1.43,8.35-2.6,17A125.34,125.34,0,0,0,154.35,81c0,.88,0,1.87.1,3a20.2,20.2,0,0,0,.41,3.06,27.71,27.71,0,0,0,.66,2.76c.31,1.08.76,1.66,1.38,1.73a1.32,1.32,0,0,0,1.07-.31,9.56,9.56,0,0,0,1.12-1,12.49,12.49,0,0,0,1-1.18c.31-.41.53-.71.66-.92a99.63,99.63,0,0,0,7.3-10.86q3.21-5.55,6.78-11.58c.61-1.08,1.26-2.2,1.94-3.36S178.21,60,179,58.82a9.27,9.27,0,0,1,.92-1.17.89.89,0,0,1,1-.36c.54.27.64.7.3,1.28s-.61,1-.81,1.27q-2.55,4.29-4.8,8.67c-1.49,2.93-3.09,5.81-4.79,8.67-1,1.57-1.89,3.15-2.8,4.74s-1.89,3.18-2.91,4.75-2.08,3.09-3.16,4.59a11.07,11.07,0,0,1-4.19,3.47,5.92,5.92,0,0,1-2.14,0,6.36,6.36,0,0,1-3.52-3.83,28.19,28.19,0,0,1-1.37-5.76,44,44,0,0,1-.51-6.79c0-2.34.07-4.64.2-6.88q.51-6.84,1.38-13.21t2.09-12.19q-4.69.21-9.54.72c-3.23.34-6.51.57-9.84.71-.41,0-.87,0-1.38,0a.75.75,0,0,1-.87-.76.73.73,0,0,1,.82-.82,8.58,8.58,0,0,0,1.43-.1q4.8-.32,9.79-.82t9.89-.71q.62-2.15,1.38-5.05a41,41,0,0,1,1.79-5.36,7.78,7.78,0,0,1,.76-1.68,1.6,1.6,0,0,1,1.38-1,1.07,1.07,0,0,1,1,.41,1.49,1.49,0,0,1,.2,1,7.55,7.55,0,0,1-.2,1.17c-.1.41-.19.78-.26,1.12-.34,1.5-.68,3-1,4.64S158.56,42.67,158.22,44Z"/><path class="cls-2" d="M181.48,56.68a1.56,1.56,0,0,1,.36,1.12c0,.41-.06.85-.06,1.33-.06,1.15-.08,2.41-.05,3.77s.05,2.69.05,4,0,2.55-.05,3.77a4.4,4.4,0,0,1-1.07,3h-.81a3.29,3.29,0,0,1-.77-1.58,15.61,15.61,0,0,1-.36-2.3c-.06-1.49-.08-3.06-.05-4.69a46.7,46.7,0,0,1,.36-4.79c.07-.41.14-.88.2-1.43a5.64,5.64,0,0,1,.36-1.43,1.65,1.65,0,0,1,.72-.86A1.18,1.18,0,0,1,181.48,56.68ZM182,36.89a2.32,2.32,0,0,1-.82,1.63,1.1,1.1,0,0,1-1.17-.2,1.7,1.7,0,0,1-.41-1,1.26,1.26,0,0,1,.31-1,1.29,1.29,0,0,1,1.17-.31C181.61,36.35,181.92,36.62,182,36.89Z"/><path class="cls-2" d="M195.66,57.29a8.37,8.37,0,0,0-3.06,2.45,10,10,0,0,0-1.28,1.63,3.3,3.3,0,0,0-.56,2.14,3.62,3.62,0,0,0,1.12,2c.61.58,1.16,1.11,1.63,1.58l1.59,1.58a15.59,15.59,0,0,1,1.37,1.59c1.7-1.23,3.32-2.5,4.85-3.83a45.23,45.23,0,0,1,4.94-3.72,35.37,35.37,0,0,1,3.83-2.55c1.39-.82,2.84-1.6,4.33-2.35l1.43-.71a1.39,1.39,0,0,1,1.53.1,1,1,0,0,1-.1.81,1.2,1.2,0,0,1-.61.46l-.82.31a1.2,1.2,0,0,0-.61.46,28.08,28.08,0,0,0-4.13,2.29c-1.26.86-2.53,1.69-3.83,2.5q-4.89,3.67-9.48,7.65a33,33,0,0,1,2.5,4.8,15,15,0,0,1,1.07,5.81,16.82,16.82,0,0,1-1,6.53,18.68,18.68,0,0,1-3.06,5.3A22.53,22.53,0,0,1,192.9,98,9.61,9.61,0,0,1,187,99.72a7.14,7.14,0,0,1-2.35-.51,8.64,8.64,0,0,1-1.73-1,10.69,10.69,0,0,1-1.64-2.34,7.81,7.81,0,0,1-.71-3,11.25,11.25,0,0,1,1.33-6.53,35,35,0,0,1,3.36-5.1,43.51,43.51,0,0,1,4-4.44q2.08-2,4.13-3.72a12.15,12.15,0,0,0-1.63-1.89c-.61-.57-1.22-1.17-1.84-1.78a18.1,18.1,0,0,1-1.68-1.94,7.85,7.85,0,0,1-1.17-2.24,5.22,5.22,0,0,1,0-4.13,16.4,16.4,0,0,1,2-3.32,26.65,26.65,0,0,1,2-2,9.12,9.12,0,0,1,2.29-1.48,11.51,11.51,0,0,1,1.53-.3,2.9,2.9,0,0,1,1.53.2,2.13,2.13,0,0,0,.56.56,1.63,1.63,0,0,1,.56.77,3.39,3.39,0,0,1,.06,1.94c-.18.74-.43,1.12-.77,1.12s-.75-.07-.82-.41A2.18,2.18,0,0,0,195.66,57.29Zm-1.33,17.65c-1.16,1-2.31,2-3.47,3.16a45.89,45.89,0,0,0-3.36,3.77c-.62.75-1.24,1.58-1.89,2.5a14.95,14.95,0,0,0-2.55,6.43,8.3,8.3,0,0,0,.36,3.72,7.57,7.57,0,0,0,1.32,1.38,3.09,3.09,0,0,0,1.94.56,7.14,7.14,0,0,0,4.13-1.58A18.05,18.05,0,0,0,194,91.67a13.76,13.76,0,0,0,2-3.88,17.62,17.62,0,0,0,.92-4.54,14.5,14.5,0,0,0-.41-4.54,10.84,10.84,0,0,0-1.88-4,.1.1,0,0,0-.11-.1C194.4,74.77,194.33,74.87,194.33,74.94Zm-10.81,25.39c0,.07.07,0,.2-.1C183.72,100.3,183.66,100.33,183.52,100.33Z"/><path class="cls-2" d="M221.16,57.29a8.37,8.37,0,0,0-3.06,2.45,10,10,0,0,0-1.28,1.63,3.3,3.3,0,0,0-.56,2.14,3.62,3.62,0,0,0,1.12,2c.61.58,1.16,1.11,1.63,1.58l1.59,1.58A15.59,15.59,0,0,1,222,70.25c1.7-1.23,3.32-2.5,4.85-3.83a45.23,45.23,0,0,1,4.94-3.72,35.37,35.37,0,0,1,3.83-2.55c1.39-.82,2.84-1.6,4.33-2.35l1.43-.71a1.39,1.39,0,0,1,1.53.1,1,1,0,0,1-.1.81,1.2,1.2,0,0,1-.61.46l-.82.31a1.2,1.2,0,0,0-.61.46,28.08,28.08,0,0,0-4.13,2.29c-1.26.86-2.53,1.69-3.83,2.5q-4.89,3.67-9.48,7.65a33,33,0,0,1,2.5,4.8,15,15,0,0,1,1.07,5.81,16.82,16.82,0,0,1-1,6.53,18.68,18.68,0,0,1-3.06,5.3A22.53,22.53,0,0,1,218.4,98a9.61,9.61,0,0,1-5.91,1.73,7.14,7.14,0,0,1-2.35-.51,8.64,8.64,0,0,1-1.73-1,10.69,10.69,0,0,1-1.64-2.34,7.81,7.81,0,0,1-.71-3,11.25,11.25,0,0,1,1.33-6.53,35,35,0,0,1,3.36-5.1,43.51,43.51,0,0,1,4-4.44q2.08-2,4.13-3.72a12.15,12.15,0,0,0-1.63-1.89c-.61-.57-1.22-1.17-1.84-1.78a18.1,18.1,0,0,1-1.68-1.94,7.85,7.85,0,0,1-1.17-2.24,5.22,5.22,0,0,1,0-4.13,16.4,16.4,0,0,1,2-3.32,26.65,26.65,0,0,1,2-2,9.12,9.12,0,0,1,2.29-1.48,11.51,11.51,0,0,1,1.53-.3,2.9,2.9,0,0,1,1.53.2,2.13,2.13,0,0,0,.56.56,1.63,1.63,0,0,1,.56.77,3.39,3.39,0,0,1,.06,1.94c-.18.74-.43,1.12-.77,1.12s-.75-.07-.82-.41A2.18,2.18,0,0,0,221.16,57.29Zm-1.33,17.65c-1.16,1-2.31,2-3.47,3.16A45.89,45.89,0,0,0,213,81.87c-.62.75-1.24,1.58-1.89,2.5a14.95,14.95,0,0,0-2.55,6.43,8.3,8.3,0,0,0,.36,3.72,7.57,7.57,0,0,0,1.32,1.38,3.09,3.09,0,0,0,1.94.56,7.14,7.14,0,0,0,4.13-1.58,18.05,18.05,0,0,0,3.21-3.21,13.76,13.76,0,0,0,2-3.88,17.62,17.62,0,0,0,.92-4.54,14.5,14.5,0,0,0-.41-4.54,10.84,10.84,0,0,0-1.88-4,.1.1,0,0,0-.11-.1C219.9,74.77,219.83,74.87,219.83,74.94ZM209,100.33c0,.07.07,0,.2-.1C209.22,100.3,209.16,100.33,209,100.33Z"/><path class="cls-2" d="M243.39,72.49a1.87,1.87,0,0,0,.87-.77c.24-.37.46-.73.66-1.07.75-1,1.48-2,2.2-3.06s1.44-2.1,2.19-3.06c.47-.74.95-1.46,1.43-2.14a19.19,19.19,0,0,1,1.53-1.94A14.4,14.4,0,0,0,254,58.62a2.71,2.71,0,0,1,2.45-.92,2.56,2.56,0,0,1,1.78.87,6.09,6.09,0,0,1,1.07,1.83,13.9,13.9,0,0,1,.67,2.4c.17.88.32,1.7.46,2.45s.3,1.41.51,2.19.44,1.55.71,2.29.58,1.38.92,2.1A2.08,2.08,0,0,0,264,73.1a2,2,0,0,0,1.48-.15,9.16,9.16,0,0,0,1.47-.87A10.24,10.24,0,0,0,268.28,71l.92-.92a19.5,19.5,0,0,0,2-2.14,29.65,29.65,0,0,1,2-2.25q1.43-1.73,2.91-3.41c1-1.12,1.95-2.3,2.9-3.52a7.35,7.35,0,0,0,.82-1.33,1.2,1.2,0,0,1,1.32-.71,1.18,1.18,0,0,1,.36,1.58,7.93,7.93,0,0,1-.87,1.38c-.34.47-.68.93-1,1.37s-.64.84-.91,1.18q-2.15,2.55-4.49,5.5a41,41,0,0,1-5,5.31,23,23,0,0,1-2.91,2.09,4.25,4.25,0,0,1-3.92,0,6.93,6.93,0,0,1-2.4-2.8,19.54,19.54,0,0,1-1.38-3.83c-.34-1.36-.66-2.75-1-4.18a14.83,14.83,0,0,0-1.37-3.88,5.94,5.94,0,0,0-1.89,1.63c-.51.69-1,1.4-1.58,2.15s-1,1.48-1.48,2.19-.9,1.45-1.38,2.19q-1.43,2.25-2.75,4.49a9.76,9.76,0,0,1-3.67,3.57,2.85,2.85,0,0,1-1.89-.2,4.47,4.47,0,0,1-1.28-1,13.64,13.64,0,0,1-.81-4.29,41,41,0,0,1,.1-5c.14-1.73.34-3.43.61-5.1s.55-3.21.82-4.64c.07-.47.14-1,.2-1.58a9.29,9.29,0,0,1,.36-1.68,5.9,5.9,0,0,1,.61-1.38,1.4,1.4,0,0,1,1-.66,1.11,1.11,0,0,1,.92.15,3,3,0,0,1,.51.56,5.65,5.65,0,0,1,.1,2.81,11.2,11.2,0,0,0-.2,3c-.35,2.31-.63,4.69-.87,7.14S243.39,69.77,243.39,72.49Z"/><path class="cls-2" d="M280.62,62.59a20.23,20.23,0,0,0-1.32,3.73,17.28,17.28,0,0,0-.62,4.49,7.69,7.69,0,0,0,.92,3.82,3.59,3.59,0,0,0,3.27,1.73,10,10,0,0,0,5.05-1.12,46.85,46.85,0,0,0,4.13-2.34q2-1.43,3.82-2.81t3.21-2.7A55.32,55.32,0,0,0,304.13,63q2.4-2.34,4.75-4.79a2.63,2.63,0,0,0,.66-.82,9.53,9.53,0,0,1,.76-1.12,6,6,0,0,1,.87-.87.81.81,0,0,1,1,0c.48.21.58.61.31,1.23a7.25,7.25,0,0,1-.72,1.32,3.39,3.39,0,0,1-.61,1.12c-.27.35-.54.72-.82,1.13A76.78,76.78,0,0,1,305,65.76c-1.87,1.77-3.79,3.53-5.76,5.3a41.84,41.84,0,0,1-8.57,6.12,21.89,21.89,0,0,1-2.55,1.17,14.27,14.27,0,0,1-3,.82,13.44,13.44,0,0,1-3.11.15,6.09,6.09,0,0,1-2.91-.92,4.9,4.9,0,0,1-1.07-1c-.3-.38-.63-.77-1-1.18a9.68,9.68,0,0,1-1.27-4.33,19.88,19.88,0,0,1,.3-4.85,29.69,29.69,0,0,1,1.28-4.69A30,30,0,0,1,279,58.62a41.79,41.79,0,0,1,4.08-6,11.91,11.91,0,0,1,6.22-3.88,5,5,0,0,1,3.42.92,3.48,3.48,0,0,1,1.07,3.26A6.75,6.75,0,0,1,292.56,56a19.77,19.77,0,0,1-2.15,2.56,23,23,0,0,1-4,3.21A8.36,8.36,0,0,1,280.62,62.59Zm9.49-10.91a10.62,10.62,0,0,0-5.41,3.72,38,38,0,0,0-3.47,5.66A6.29,6.29,0,0,0,285,60a26.9,26.9,0,0,0,2.65-2.14c.75-.81,1.53-1.63,2.35-2.44A4.42,4.42,0,0,0,291.13,52,1.1,1.1,0,0,0,290.11,51.68Z"/></g></g></svg>