<svg xmlns="http://www.w3.org/2000/svg" viewBox="0 0 474.89 127.62"><defs><style>.cls-1{fill:none;stroke:#53575a;}.cls-2{fill:#53575a;}.cls-3{fill:#ff8300;}</style></defs><g id="Layer_2" data-name="Layer 2"><g id="Layer_1-2" data-name="Layer 1"><line class="cls-1" x1="104.8" y1="122.19" x2="368.8" y2="122.19"/><path class="cls-2" d="M.34,34.74v-.08H0a39,39,0,0,1,.6-6.88,38,38,0,0,1,1.81-6.62,34.83,34.83,0,0,1,6.53-11,37.44,37.44,0,0,1,4.43-4.22,25.48,25.48,0,0,1,5.12-3.18A26.05,26.05,0,0,1,30.27,0,21.44,21.44,0,0,1,38.7,1.63h.09a.46.46,0,0,0,.34.18l.09.08,1.16.52c.37.17.76.37,1.16.6Q46,5.16,48.59,5.16a7.07,7.07,0,0,0,3.87-.86,4.38,4.38,0,0,0,2-3H55v25h-.6a41.86,41.86,0,0,0-1.25-6A40.4,40.4,0,0,0,51.26,15a31.43,31.43,0,0,0-2.54-4.34,28.34,28.34,0,0,0-3-3.65A21.61,21.61,0,0,0,31.56.6,15.34,15.34,0,0,0,23,3.27a24.57,24.57,0,0,0-7,7.31,39.4,39.4,0,0,0-4.77,10.88A48.37,48.37,0,0,0,9.37,34.74a46.6,46.6,0,0,0,2.88,16.69,33.31,33.31,0,0,0,7.53,12.12A23.38,23.38,0,0,0,24,66.61a26.41,26.41,0,0,0,3.44,1.59,9.26,9.26,0,0,0,2,.47,16.67,16.67,0,0,0,2.1.13A30.94,30.94,0,0,0,35,68.28a19.93,19.93,0,0,0,3.4-1,21.19,21.19,0,0,0,7.14-4.81,18.79,18.79,0,0,0,3.05-3.57,36.34,36.34,0,0,0,2.45-4.35,29.89,29.89,0,0,0,2-5.33,56.37,56.37,0,0,0,1.29-6l.6.09A39.42,39.42,0,0,1,51.6,54.78,28.06,28.06,0,0,1,46,63a24.11,24.11,0,0,1-7.4,4.82,20.79,20.79,0,0,1-8.34,1.63,25.92,25.92,0,0,1-11.78-2.75,30,30,0,0,1-9.55-7.4,34.89,34.89,0,0,1-6.53-11A38.35,38.35,0,0,1,.6,41.62,39,39,0,0,1,0,34.74Z"/><path class="cls-2" d="M117.13,69.23H61.66v-.6a33.48,33.48,0,0,0,4.9-.3,6.67,6.67,0,0,0,3.18-1.25,5.08,5.08,0,0,0,1.72-2.58A14.82,14.82,0,0,0,72,60.11V9.46c0-3.15-.57-5.32-1.72-6.49s-3.15-1.85-6-2H61.57V.43H91.5V.86h0V1H88a11.41,11.41,0,0,0-3.19.68,5.38,5.38,0,0,0-2.1,1.47,5.55,5.55,0,0,0-1.16,2.49,17.62,17.62,0,0,0-.35,3.78V60.2a16.66,16.66,0,0,0,.39,4,5.47,5.47,0,0,0,1.29,2.49,5.62,5.62,0,0,0,2.36,1.42,14.36,14.36,0,0,0,3.7.56h8.6a22.11,22.11,0,0,0,6.37-.86,20.5,20.5,0,0,0,5-2.24,18.45,18.45,0,0,0,3.82-3.14,25.14,25.14,0,0,0,2.84-3.65,30.67,30.67,0,0,0,4-10h.6l-2.49,20.47Z"/><path class="cls-2" d="M130.42,68.33a6.74,6.74,0,0,0,3.22-1.25,5.14,5.14,0,0,0,1.72-2.58,14.82,14.82,0,0,0,.52-4.39V9.46c0-3.15-.56-5.32-1.68-6.49s-3.11-1.85-6-2h-2.75V.43H155.4V.86h0V1H152q-3.87.42-5.37,2.15t-1.51,6.27V60.2a16.66,16.66,0,0,0,.39,4,5.47,5.47,0,0,0,1.29,2.49,5.56,5.56,0,0,0,2.41,1.42,14.52,14.52,0,0,0,3.65.56h2.67v.6h-30v-.6A34.52,34.52,0,0,0,130.42,68.33Z"/><path class="cls-2" d="M242.09.43V1H240.8a22.83,22.83,0,0,0-3.66.39,15.78,15.78,0,0,0-4.43,1.46A10.83,10.83,0,0,0,229,6a8.79,8.79,0,0,0-1.59,5.5V69.23h-.69L176.13,5.93V58.05a9,9,0,0,0,1.59,5.59,10.74,10.74,0,0,0,3.74,3.14,15.68,15.68,0,0,0,4.43,1.46,22.72,22.72,0,0,0,3.65.39h1.29v.6h-30.1v-.6H162a22.83,22.83,0,0,0,3.66-.39,15.78,15.78,0,0,0,4.43-1.46,10.83,10.83,0,0,0,3.74-3.14,9,9,0,0,0,1.59-5.59V9.12q0-2.07-.09-3.57A5,5,0,0,0,174.58,3,4,4,0,0,0,172.3,1.5,17.34,17.34,0,0,0,167.7,1H165V.43h18.41l43.25,53.75V11.52A8.79,8.79,0,0,0,225.1,6a10.83,10.83,0,0,0-3.74-3.14,15.68,15.68,0,0,0-4.43-1.46A22.83,22.83,0,0,0,213.28,1H212V.43h30.1Z"/><path class="cls-2" d="M253.05,68.33a6.78,6.78,0,0,0,3.23-1.25A5.2,5.2,0,0,0,258,64.5a15.21,15.21,0,0,0,.51-4.39V9.46c0-3.15-.56-5.32-1.67-6.49s-3.11-1.85-6-2h-2.75V.43H278V.86h0V1h-3.44q-3.87.42-5.37,2.15c-1,1.14-1.51,3.23-1.51,6.27V60.2a16.66,16.66,0,0,0,.39,4,5.47,5.47,0,0,0,1.29,2.49,5.62,5.62,0,0,0,2.41,1.42,14.53,14.53,0,0,0,3.66.56h2.66v.6h-30v-.6A34.37,34.37,0,0,0,253.05,68.33Z"/><path class="cls-2" d="M284.66,34.74v-.08h-.35a38.32,38.32,0,0,1,2.41-13.5,34.66,34.66,0,0,1,6.54-11,36,36,0,0,1,4.43-4.22,25.4,25.4,0,0,1,5.11-3.18A26.05,26.05,0,0,1,314.58,0,21.44,21.44,0,0,1,323,1.63h.09a.48.48,0,0,0,.34.18l.09.08,1.16.52c.37.17.76.37,1.16.6q4.47,2.15,7,2.15a7.07,7.07,0,0,0,3.87-.86,4.38,4.38,0,0,0,2-3h.6v25h-.6a41.86,41.86,0,0,0-1.25-6A40.4,40.4,0,0,0,335.57,15,31.43,31.43,0,0,0,333,10.62,27.55,27.55,0,0,0,330,7,21.61,21.61,0,0,0,315.87.6a15.34,15.34,0,0,0-8.6,2.67,24.57,24.57,0,0,0-7,7.31,39.4,39.4,0,0,0-4.77,10.88,48.37,48.37,0,0,0-1.76,13.28,46.6,46.6,0,0,0,2.88,16.69,33.3,33.3,0,0,0,7.52,12.12,23.42,23.42,0,0,0,4.22,3.06,25.25,25.25,0,0,0,3.44,1.59,9.17,9.17,0,0,0,2,.47,16.79,16.79,0,0,0,2.1.13,31.47,31.47,0,0,0,3.49-.52,19.56,19.56,0,0,0,3.39-1,21.19,21.19,0,0,0,7.14-4.81,18.44,18.44,0,0,0,3.05-3.57,37.82,37.82,0,0,0,2.46-4.35,30.66,30.66,0,0,0,2-5.33,56.37,56.37,0,0,0,1.29-6l.61.09a39.42,39.42,0,0,1-3.36,11.52A28.06,28.06,0,0,1,330.32,63a24.19,24.19,0,0,1-7.39,4.82,20.87,20.87,0,0,1-8.35,1.63,25.92,25.92,0,0,1-11.78-2.75,30,30,0,0,1-9.54-7.4,34.73,34.73,0,0,1-6.54-11,38.43,38.43,0,0,1-2.41-13.51Z"/><path class="cls-2" d="M340.9,68.46l1.5-.18a10.26,10.26,0,0,0,3.36-1.16,17.53,17.53,0,0,0,4.08-3.05,16.63,16.63,0,0,0,3.7-5.93L376.67.34h.69L400.41,58a37.55,37.55,0,0,0,2.84,5.81,11.64,11.64,0,0,0,2.58,3,5.78,5.78,0,0,0,2.62,1.2l3.05.48v.6H383.3v-.6c2.06-.12,3.82-.25,5.29-.39a6,6,0,0,0,3.31-1.16,3.41,3.41,0,0,0,.94-3.06,23.6,23.6,0,0,0-1.72-6.06l-6.36-16h-24l-6.54,16.25a8.25,8.25,0,0,0-.73,4.34,5.75,5.75,0,0,0,1.33,2.93,7.07,7.07,0,0,0,2.54,1.8,15.73,15.73,0,0,0,2.92.95,15.29,15.29,0,0,0,2.45.34l1.12,0v.6h-23Zm31.9-56.59L361,41.19H384.5Z"/><path class="cls-2" d="M471.88,69.23H416.41v-.6a33.58,33.58,0,0,0,4.9-.3,6.67,6.67,0,0,0,3.18-1.25,5.14,5.14,0,0,0,1.72-2.58,15.16,15.16,0,0,0,.52-4.39V9.46c0-3.15-.58-5.32-1.72-6.49s-3.16-1.85-6-2h-2.67V.43h29.93V.86h0V1h-3.53a11.41,11.41,0,0,0-3.18.68,5.49,5.49,0,0,0-2.11,1.47,5.65,5.65,0,0,0-1.16,2.49,17.68,17.68,0,0,0-.34,3.78V60.2a16.66,16.66,0,0,0,.39,4,5.29,5.29,0,0,0,1.29,2.49A5.62,5.62,0,0,0,440,68.07a14.29,14.29,0,0,0,3.7.56h8.6a22,22,0,0,0,6.36-.86,20.5,20.5,0,0,0,5-2.24,18.52,18.52,0,0,0,3.83-3.14,25.85,25.85,0,0,0,2.84-3.65,30.88,30.88,0,0,0,3.95-10h.61l-2.5,20.47Z"/><path class="cls-3" d="M90,71.08a9.74,9.74,0,0,1,6.69,2.63,12.08,12.08,0,0,1,3.06,6.37q4-.75,8.31-1.69c2.88-.62,5.69-1.27,8.44-1.93a10.19,10.19,0,0,0,1.25-.44,9.15,9.15,0,0,1,1.56-.5,4.4,4.4,0,0,1,1.44-.13,1,1,0,0,1,.87.57.76.76,0,0,1-.25,1,5.39,5.39,0,0,1-1.25.68,8.76,8.76,0,0,1-1.62.5,12.42,12.42,0,0,0-1.25.32q-4,1.25-8.44,2.18c-3,.63-5.89,1.23-8.81,1.82a26.23,26.23,0,0,1-1.06,9.06,31.82,31.82,0,0,1-3.44,7.69,40.42,40.42,0,0,1-4.81,6A13.9,13.9,0,0,1,84.11,109H82.24a5.05,5.05,0,0,1-2.13-.94,18.87,18.87,0,0,1-1.62-1.44,11,11,0,0,1-1.94-5.44,32.65,32.65,0,0,1,.06-6.62,60.15,60.15,0,0,1,1.13-6.75q.75-3.31,1.37-5.94a4.93,4.93,0,0,1-.06-4.5,9.81,9.81,0,0,1,2.44-3.25,22.86,22.86,0,0,0,.94-2.62,21,21,0,0,1,1.06-2.88,8.86,8.86,0,0,1,1.56-2.37,3.19,3.19,0,0,1,2.44-1A2.44,2.44,0,0,1,90,67,6.68,6.68,0,0,1,90,71.08Zm-6,13q-.63,3.63-1.56,7.81a30.68,30.68,0,0,0-.69,8.57,10.76,10.76,0,0,0,.44,2.12,3.06,3.06,0,0,0,1.18,1.63,9.64,9.64,0,0,0,5.75-3c1.42-1.59,2.75-3.21,4-4.88a46.22,46.22,0,0,0,3-6.06,15.09,15.09,0,0,0,1-7.31,56.64,56.64,0,0,1-6.37.93A50.74,50.74,0,0,1,84,84.08Zm5.5-10.37a3.73,3.73,0,0,0-.25,1.43.83.83,0,0,1-.75.94,1.93,1.93,0,0,1-.56-.06,2.53,2.53,0,0,1-.44-.19,2.29,2.29,0,0,1-.13-1.75,5.21,5.21,0,0,0-.93,1.63c-.21.58-.4,1.21-.57,1.87a19.91,19.91,0,0,0-.62,2c-.17.67-.33,1.34-.5,2q3.49,0,6.5-.25t5.87-.75a9.86,9.86,0,0,0-2.31-4.94C93.68,74.44,91.91,73.79,89.49,73.71Z"/><path class="cls-3" d="M121.86,93.46a2.33,2.33,0,0,0,1.07-.94l.81-1.31q1.37-1.75,2.69-3.75t2.68-3.75c.58-.92,1.17-1.79,1.75-2.63a25.39,25.39,0,0,1,1.88-2.37,19,19,0,0,0,2.12-2.25,3.32,3.32,0,0,1,3-1.13,3.19,3.19,0,0,1,2.19,1.06,7.53,7.53,0,0,1,1.31,2.25,18.34,18.34,0,0,1,.82,2.94c.2,1.09.39,2.09.56,3s.37,1.73.62,2.69a28.68,28.68,0,0,0,.88,2.81c.33.84.7,1.69,1.12,2.56A2.58,2.58,0,0,0,148.93,94,12.37,12.37,0,0,0,150.74,93a13.41,13.41,0,0,0,1.62-1.38l1.13-1.12a25.68,25.68,0,0,0,2.5-2.63c.75-.91,1.58-1.83,2.5-2.75q1.74-2.11,3.56-4.19c1.21-1.37,2.39-2.81,3.56-4.31a9.16,9.16,0,0,0,1-1.62,1.49,1.49,0,0,1,1.63-.88,1.47,1.47,0,0,1,.44,1.94,11.71,11.71,0,0,1-1.07,1.69c-.42.58-.83,1.14-1.25,1.68s-.79,1-1.12,1.44q-2.62,3.14-5.5,6.75a50.12,50.12,0,0,1-6.13,6.5,28.13,28.13,0,0,1-3.56,2.56,5.2,5.2,0,0,1-4.81.07,8.54,8.54,0,0,1-2.94-3.44,24.14,24.14,0,0,1-1.69-4.69q-.63-2.49-1.18-5.12a18.39,18.39,0,0,0-1.69-4.75,7,7,0,0,0-2.31,2c-.63.83-1.28,1.71-1.94,2.62s-1.27,1.81-1.81,2.69L130,88.71q-1.76,2.75-3.38,5.5a11.89,11.89,0,0,1-4.5,4.37,3.43,3.43,0,0,1-2.31-.25,5.21,5.21,0,0,1-1.56-1.25,16.34,16.34,0,0,1-1-5.25,53.84,53.84,0,0,1,.12-6.19q.26-3.18.75-6.25t1-5.68c.09-.59.17-1.23.25-1.94a11.6,11.6,0,0,1,.44-2.06,7.2,7.2,0,0,1,.75-1.69,1.68,1.68,0,0,1,1.19-.81,1.36,1.36,0,0,1,1.12.18,3.4,3.4,0,0,1,.63.69,6.87,6.87,0,0,1,.12,3.44,13.8,13.8,0,0,0-.25,3.69q-.63,4.25-1.06,8.75C122,87,121.86,90.12,121.86,93.46Z"/><path class="cls-3" d="M173.61,58.58q10.75-.37,22.38-1.12a165.12,165.12,0,0,1,23.12.12q.63,0,1.38.06a1.11,1.11,0,0,1,1,.69c-.09.67-.4,1-.94,1a7.75,7.75,0,0,1-1.44-.12,225.51,225.51,0,0,0-23.12.18q-11.51.69-22.63,1.32Q171.61,71,170.18,81.58a153.86,153.86,0,0,0-1.32,22.25c0,1.09,0,2.29.13,3.63a25.17,25.17,0,0,0,.5,3.75c.16.91.44,2,.81,3.37s.94,2,1.69,2.13a1.69,1.69,0,0,0,1.31-.38,11.25,11.25,0,0,0,1.38-1.19,15.23,15.23,0,0,0,1.25-1.43c.37-.5.64-.88.81-1.13a122.86,122.86,0,0,0,8.94-13.31q3.93-6.81,8.31-14.19c.75-1.33,1.54-2.71,2.37-4.12s1.75-2.84,2.75-4.25a11.71,11.71,0,0,1,1.13-1.44,1.1,1.1,0,0,1,1.25-.44c.66.34.79.86.37,1.56s-.75,1.23-1,1.57q-3.12,5.25-5.87,10.62t-5.88,10.63q-1.76,2.87-3.43,5.81t-3.57,5.81c-1.25,1.92-2.54,3.79-3.87,5.63a13.52,13.52,0,0,1-5.13,4.25,7.21,7.21,0,0,1-2.62,0,7.73,7.73,0,0,1-4.31-4.69,33.57,33.57,0,0,1-1.69-7.06,53.46,53.46,0,0,1-.63-8.32c0-2.87.09-5.68.25-8.43q.63-8.38,1.69-16.19t2.56-14.94q-5.75.26-11.68.88c-4,.41-8,.71-12.07.87q-.75,0-1.68.06c-.63,0-1-.27-1.07-.93a.89.89,0,0,1,1-1,10,10,0,0,0,1.75-.13q5.88-.37,12-1c4.09-.41,8.13-.71,12.13-.87.5-1.75,1.06-3.82,1.69-6.19a49.92,49.92,0,0,1,2.18-6.56,9.65,9.65,0,0,1,.94-2.07A2,2,0,0,1,175.24,43a1.29,1.29,0,0,1,1.19.5,1.91,1.91,0,0,1,.25,1.18,11.46,11.46,0,0,1-.25,1.44c-.13.5-.24,1-.32,1.38-.42,1.83-.83,3.73-1.25,5.68S174,56.92,173.61,58.58Z"/><path class="cls-3" d="M211.11,78.33a1.67,1.67,0,0,1-1.44-.12,3.47,3.47,0,0,1-.93-.94,6.1,6.1,0,0,1-.63-1.25,4.76,4.76,0,0,0-.62-1.19,9.75,9.75,0,0,0-4.25,4.06,30.34,30.34,0,0,0-2.63,5.94,28.17,28.17,0,0,0-.87,3.44,24.27,24.27,0,0,0-.44,3.87,12.9,12.9,0,0,0,.37,3.63,4.17,4.17,0,0,0,1.82,2.56,10.43,10.43,0,0,0,5.62-2.12A53.87,53.87,0,0,1,211.49,93q4.37-3.25,8.5-6.69l8.37-6.94c.67-.5,1.36-1,2.06-1.62a25.87,25.87,0,0,1,2.19-1.63,4.84,4.84,0,0,1,1.06-.75q.69-.37,1.32-.75A11.67,11.67,0,0,0,236.3,74a.83.83,0,0,1,1.19.37c.25.67.14,1.13-.32,1.38a5.31,5.31,0,0,0-1.18.87c-1.17.84-2.27,1.69-3.32,2.56l-3.18,2.69q-4.63,3.89-9.19,8.31a103,103,0,0,1-9.69,8.32,38.08,38.08,0,0,1-4.75,3.06,7.86,7.86,0,0,1-6.12.44,6.38,6.38,0,0,1-3.19-3.57A16.59,16.59,0,0,1,195.49,93a24.66,24.66,0,0,1,.5-6,33.21,33.21,0,0,1,1.62-5.56,23.42,23.42,0,0,1,6.88-9.88,10.64,10.64,0,0,0,1-.44,4.58,4.58,0,0,1,1-.31q.12,0,.12-.06s0-.06.13-.06h1.12a4.27,4.27,0,0,1,1,.12,4.73,4.73,0,0,1,2.75,3.63,9.91,9.91,0,0,0,0,2.18A1.78,1.78,0,0,1,211.11,78.33Z"/><path class="cls-3" d="M244.24,71.08a9.71,9.71,0,0,1,6.68,2.63A12,12,0,0,1,254,80.08q4-.75,8.31-1.69c2.87-.62,5.69-1.27,8.44-1.93A10.19,10.19,0,0,0,272,76a9.15,9.15,0,0,1,1.56-.5,4.4,4.4,0,0,1,1.44-.13,1,1,0,0,1,.87.57.77.77,0,0,1-.25,1,5.39,5.39,0,0,1-1.25.68,8.76,8.76,0,0,1-1.62.5,11.71,11.71,0,0,0-1.25.32q-4,1.25-8.44,2.18c-3,.63-5.9,1.23-8.81,1.82a26.23,26.23,0,0,1-1.07,9.06,31.8,31.8,0,0,1-3.43,7.69,39.85,39.85,0,0,1-4.82,6,13.86,13.86,0,0,1-6.56,3.75h-1.87a5,5,0,0,1-2.13-.94,18.87,18.87,0,0,1-1.62-1.44,10.87,10.87,0,0,1-1.94-5.44,31.94,31.94,0,0,1,.06-6.62A60.15,60.15,0,0,1,232,87.77q.75-3.31,1.37-5.94a4.9,4.9,0,0,1-.06-4.5,9.81,9.81,0,0,1,2.44-3.25,21.18,21.18,0,0,0,.93-2.62,22.44,22.44,0,0,1,1.07-2.88,8.41,8.41,0,0,1,1.56-2.37,3.17,3.17,0,0,1,2.44-1,2.44,2.44,0,0,1,2.5,1.81A6.84,6.84,0,0,1,244.24,71.08Zm-6,13q-.63,3.63-1.57,7.81a31.06,31.06,0,0,0-.68,8.57,11.53,11.53,0,0,0,.43,2.12,3.13,3.13,0,0,0,1.19,1.63,9.67,9.67,0,0,0,5.75-3c1.42-1.59,2.75-3.21,4-4.88a48.87,48.87,0,0,0,3-6.06,15.09,15.09,0,0,0,1-7.31,56.64,56.64,0,0,1-6.37.93A50.74,50.74,0,0,1,238.24,84.08Zm5.5-10.37a3.73,3.73,0,0,0-.25,1.43.83.83,0,0,1-.75.94,2.05,2.05,0,0,1-.57-.06,2.48,2.48,0,0,1-.43-.19,2.25,2.25,0,0,1-.13-1.75,5.24,5.24,0,0,0-.94,1.63c-.2.58-.39,1.21-.56,1.87a17.62,17.62,0,0,0-.62,2c-.17.67-.34,1.34-.5,2q3.49,0,6.5-.25c2-.16,3.95-.41,5.87-.75a10,10,0,0,0-2.31-4.94C247.92,74.44,246.15,73.79,243.74,73.71Z"/><path class="cls-3" d="M294.74,94a8.87,8.87,0,0,0,2.06-2.38c.54-.91,1.1-1.83,1.69-2.75s1.14-1.83,1.68-2.75,1.07-1.83,1.57-2.75c.58-.75,1.16-1.58,1.75-2.5s1.2-1.83,1.87-2.75c.42-.58.83-1.19,1.25-1.81a7.55,7.55,0,0,1,1.44-1.63,3.87,3.87,0,0,1,1.81-.87,4,4,0,0,1,2.25.31,5.42,5.42,0,0,1,1.44,3.06,32.73,32.73,0,0,1,.37,4.07c0,1.41.11,2.83.19,4.25a9.22,9.22,0,0,0,.88,3.62,7.13,7.13,0,0,0,2.56-2.19l2.06-2.81c.67-1,1.31-2,1.94-3.06a20.88,20.88,0,0,0,1.56-3.19,8,8,0,0,0,1.06-2.19c.29-.87,1-1.22,2.07-1.06a2.14,2.14,0,0,1-.13,2.31,5.5,5.5,0,0,0-.87,2.32c-.42.75-.8,1.48-1.13,2.18s-.67,1.44-1,2.19a24.35,24.35,0,0,0-2.5,3.75A12.92,12.92,0,0,1,317.74,91a4.7,4.7,0,0,1-1.57,1,4.15,4.15,0,0,1-2.31.12,4.45,4.45,0,0,1-2.31-2.31,12.84,12.84,0,0,1-.94-3.63,35.6,35.6,0,0,1-.25-4.37,23.38,23.38,0,0,0-.37-4.31,2.25,2.25,0,0,0-1.07.93,15.6,15.6,0,0,1-.93,1.32q-1.38,1.88-2.69,4T302.86,88a38.28,38.28,0,0,0-3.31,5.56,10.38,10.38,0,0,1-4.31,4.56,5.61,5.61,0,0,0-.88.06,2.56,2.56,0,0,1-1-.06,8.06,8.06,0,0,1-1.25-.62,11.24,11.24,0,0,1-1.69-5.69c-.12-2.29-.18-4.65-.18-7.06s-.05-4.84-.13-7.25-.21-4.71-.37-6.88a70.67,70.67,0,0,0-4.63,10.75q-2,5.88-3.87,12.25c-.84,3-1.61,6.09-2.32,9.25s-1.48,6.42-2.31,9.75c-.17.75-.33,1.5-.5,2.25a10.17,10.17,0,0,1-.69,2.06,4.43,4.43,0,0,1-1.18,1.57,3.72,3.72,0,0,1-2,.75,2.54,2.54,0,0,1-2.25-1.82,18.83,18.83,0,0,1-.75-3.31,58.74,58.74,0,0,1,0-10.94q.5-5.81,1.12-11.06t1.5-10.56q.87-5.31,2-10.19.38-1.5.81-3.12a2.42,2.42,0,0,1,2.19-1.88,1.86,1.86,0,0,1,1.44.25,2.63,2.63,0,0,1,.69,1,6.24,6.24,0,0,1-.13,2.75,6.1,6.1,0,0,0-.12,2.75,8.72,8.72,0,0,0,.5,2.13,3.27,3.27,0,0,1,.12,2,.86.86,0,0,1-.81.5,1.27,1.27,0,0,1-.94-.38q-1,6.38-1.87,12.63t-1.25,13.25Q276.6,96,279,88.08t5.25-15c.25-.58.58-1.39,1-2.44a14.43,14.43,0,0,1,1.56-2.93,7.29,7.29,0,0,1,2.12-2.13,2.59,2.59,0,0,1,2.69,0,3.34,3.34,0,0,1,1.69,2,16,16,0,0,1,.81,3.38,29.18,29.18,0,0,1,.25,3.93c0,1.38,0,2.61.13,3.69a65.7,65.7,0,0,1,0,7.94A36,36,0,0,0,294.74,94Z"/><path class="cls-3" d="M325.61,81.33A24.23,24.23,0,0,0,324,85.89a21.33,21.33,0,0,0-.75,5.5,9.38,9.38,0,0,0,1.13,4.69,4.43,4.43,0,0,0,4,2.13,12.42,12.42,0,0,0,6.19-1.38q2.93-1.5,5.06-2.87c1.66-1.17,3.23-2.32,4.69-3.44s2.77-2.23,3.93-3.31a68.74,68.74,0,0,0,6.19-5.38Q357.36,79,360.23,76a3.21,3.21,0,0,0,.82-1,11.86,11.86,0,0,1,.93-1.38,6.68,6.68,0,0,1,1.07-1.06,1,1,0,0,1,1.18-.06c.59.25.71.75.38,1.5a9.09,9.09,0,0,1-.88,1.62A4.22,4.22,0,0,1,363,77c-.33.41-.66.87-1,1.37a92.89,92.89,0,0,1-6.56,6.88q-3.44,3.24-7.06,6.5a51.47,51.47,0,0,1-10.5,7.5,26.4,26.4,0,0,1-3.13,1.43,17.17,17.17,0,0,1-3.62,1,16.14,16.14,0,0,1-3.81.19,7.69,7.69,0,0,1-3.57-1.12,6.19,6.19,0,0,1-1.31-1.19c-.37-.46-.77-.94-1.19-1.44a12.09,12.09,0,0,1-1.56-5.31,23.88,23.88,0,0,1,.38-5.94,35.76,35.76,0,0,1,1.56-5.75,36.48,36.48,0,0,1,2-4.62,51.32,51.32,0,0,1,5-7.38,14.63,14.63,0,0,1,7.62-4.75,6,6,0,0,1,4.19,1.13c1,.83,1.48,2.16,1.31,4a8,8,0,0,1-1.5,3.75,24.94,24.94,0,0,1-2.62,3.12,28.4,28.4,0,0,1-4.94,3.94A10.29,10.29,0,0,1,325.61,81.33ZM337.23,68a12.88,12.88,0,0,0-6.62,4.56,45.28,45.28,0,0,0-4.25,6.94A7.8,7.8,0,0,0,331,78.21a34.47,34.47,0,0,0,3.25-2.63q1.38-1.5,2.88-3a5.35,5.35,0,0,0,1.37-4.25A1.34,1.34,0,0,0,337.23,68Z"/><path class="cls-3" d="M367,74.83a10.49,10.49,0,0,0-3.75,3,12.45,12.45,0,0,0-1.56,2,4.09,4.09,0,0,0-.69,2.63,4.39,4.39,0,0,0,1.38,2.43c.75.71,1.41,1.36,2,1.94l1.93,1.94A16.88,16.88,0,0,1,368,90.71c2.08-1.5,4.06-3.07,5.94-4.69A53.89,53.89,0,0,1,380,81.46a45,45,0,0,1,4.69-3.13q2.56-1.5,5.31-2.87l1.75-.88a1.71,1.71,0,0,1,1.88.13,1.3,1.3,0,0,1-.13,1,1.55,1.55,0,0,1-.75.56l-1,.37a1.57,1.57,0,0,0-.75.57A34.47,34.47,0,0,0,385.92,80c-1.54,1-3.11,2.06-4.69,3.06q-6,4.5-11.62,9.38a40.21,40.21,0,0,1,3.06,5.87,18.39,18.39,0,0,1,1.31,7.13,20.73,20.73,0,0,1-1.25,8A23.14,23.14,0,0,1,369,120a28.13,28.13,0,0,1-5.37,4.75,11.79,11.79,0,0,1-7.25,2.12,8.68,8.68,0,0,1-2.88-.62,11.35,11.35,0,0,1-2.12-1.25,13,13,0,0,1-2-2.88,9.4,9.4,0,0,1-.88-3.62,13.77,13.77,0,0,1,1.63-8,42.85,42.85,0,0,1,4.12-6.25,52.32,52.32,0,0,1,4.94-5.44c1.71-1.63,3.39-3.15,5.06-4.56a14.68,14.68,0,0,0-2-2.32c-.75-.7-1.5-1.43-2.25-2.18a21,21,0,0,1-2.06-2.38,9.63,9.63,0,0,1-1.44-2.75,6.51,6.51,0,0,1,.06-5.06A20.41,20.41,0,0,1,359,75.46c.84-.92,1.65-1.73,2.44-2.44a11.22,11.22,0,0,1,2.81-1.81,12.75,12.75,0,0,1,1.88-.38,3.58,3.58,0,0,1,1.87.25,2.82,2.82,0,0,0,.69.69,2.08,2.08,0,0,1,.69.94,4.08,4.08,0,0,1,.06,2.37c-.21.92-.52,1.38-.94,1.38-.58.08-.92-.09-1-.5A2.74,2.74,0,0,0,367,74.83Zm-1.62,21.63c-1.42,1.16-2.84,2.46-4.25,3.87A56.77,56.77,0,0,0,357,105q-1.12,1.37-2.31,3.06a18.15,18.15,0,0,0-2,3.69,17.8,17.8,0,0,0-1.13,4.18,10.39,10.39,0,0,0,.44,4.57,9.32,9.32,0,0,0,1.63,1.68,3.71,3.71,0,0,0,2.37.69,8.64,8.64,0,0,0,5.06-1.94A21.87,21.87,0,0,0,365,117a17.27,17.27,0,0,0,2.44-4.75,21.69,21.69,0,0,0,1.12-5.57,17.71,17.71,0,0,0-.5-5.56,13.06,13.06,0,0,0-2.31-4.87c0-.09,0-.13-.12-.13C365.44,96.25,365.36,96.37,365.36,96.46Zm-13.25,31.12c0,.08.08,0,.25-.12C352.36,127.54,352.28,127.58,352.11,127.58Z"/></g></g></svg>