<svg xmlns="http://www.w3.org/2000/svg" xmlns:xlink="http://www.w3.org/1999/xlink" viewBox="0 0 853.77 75.89"><defs><style>.cls-1,.cls-3,.cls-5,.cls-6,.cls-9{fill:none;}.cls-2{fill:#53575a;}.cls-3,.cls-5,.cls-6,.cls-9{stroke:#53575a;}.cls-3{stroke-width:1.88px;}.cls-4{clip-path:url(#clip-path);}.cls-5{stroke-width:2.1px;}.cls-6{stroke-width:1.81px;}.cls-7{opacity:0.2;}.cls-8{clip-path:url(#clip-path-2);}.cls-9{stroke-miterlimit:10.48;stroke-width:0.25px;}.cls-10{fill:#ff8300;}.cls-11{clip-path:url(#clip-path-4);}</style><clipPath id="clip-path" transform="translate(-182.75 -2382.03)"><rect class="cls-1" width="1220" height="5200"/></clipPath><clipPath id="clip-path-2" transform="translate(-182.75 -2382.03)"><rect class="cls-1" x="547.11" y="2437.44" width="126.86" height="22.13"/></clipPath><clipPath id="clip-path-4" transform="translate(-182.75 -2382.03)"><rect class="cls-1" x="655.59" y="2435.2" width="9.85" height="23.72"/></clipPath></defs><g id="Layer_2" data-name="Layer 2"><g id="Layer_1-2" data-name="Layer 1"><path class="cls-2" d="M189.66,2417a2,2,0,0,0-.94-.74,3.21,3.21,0,0,0-1.23-.24,3,3,0,0,0-.74.09,2,2,0,0,0-.65.28,1.44,1.44,0,0,0-.64,1.22,1.17,1.17,0,0,0,.44,1,4.21,4.21,0,0,0,1.08.57c.43.17.91.33,1.42.48a5.69,5.69,0,0,1,1.42.63,3.41,3.41,0,0,1,1.08,1.06,3.22,3.22,0,0,1,.44,1.77,3.78,3.78,0,0,1-.37,1.74,3.45,3.45,0,0,1-1,1.24,4.25,4.25,0,0,1-1.44.73,6.18,6.18,0,0,1-1.73.25,6.41,6.41,0,0,1-2.22-.39,4.29,4.29,0,0,1-1.84-1.29l1.66-1.61a2.78,2.78,0,0,0,1.06.95,3,3,0,0,0,1.39.34,2.91,2.91,0,0,0,.77-.1,2.35,2.35,0,0,0,.7-.32,1.72,1.72,0,0,0,.51-.53,1.44,1.44,0,0,0,.19-.75,1.32,1.32,0,0,0-.44-1,4,4,0,0,0-1.08-.62c-.43-.17-.91-.33-1.42-.48a6,6,0,0,1-1.42-.62,3.38,3.38,0,0,1-1.08-1,3.14,3.14,0,0,1-.44-1.76,3.37,3.37,0,0,1,.39-1.66,3.52,3.52,0,0,1,1-1.16,4.6,4.6,0,0,1,1.46-.7,6.35,6.35,0,0,1,1.68-.22,6.44,6.44,0,0,1,1.9.29,4.5,4.5,0,0,1,1.65,1Z" transform="translate(-182.75 -2382.03)"/><path class="cls-2" d="M193,2420.59a7.09,7.09,0,0,1,.49-2.7,5.82,5.82,0,0,1,3.42-3.4,7.23,7.23,0,0,1,2.63-.46,7.32,7.32,0,0,1,2.66.43,5.77,5.77,0,0,1,2.09,1.3,6.12,6.12,0,0,1,1.36,2.06,7.09,7.09,0,0,1,.49,2.7,6.79,6.79,0,0,1-.49,2.64,6.07,6.07,0,0,1-1.36,2.05,6.3,6.3,0,0,1-2.09,1.34,7.54,7.54,0,0,1-2.66.5,7.23,7.23,0,0,1-2.63-.47,6,6,0,0,1-2.07-1.31,6.11,6.11,0,0,1-1.35-2A6.79,6.79,0,0,1,193,2420.59Zm2.31-.14a5.46,5.46,0,0,0,.3,1.84,4.48,4.48,0,0,0,.87,1.45,3.92,3.92,0,0,0,1.34,1,4.1,4.1,0,0,0,1.74.35,4.15,4.15,0,0,0,1.75-.35,4,4,0,0,0,1.35-1,4.29,4.29,0,0,0,.86-1.45,5.23,5.23,0,0,0,.31-1.84,4.67,4.67,0,0,0-.31-1.73,4.21,4.21,0,0,0-.86-1.41,4.07,4.07,0,0,0-1.35-.95,4.48,4.48,0,0,0-1.75-.34,4.43,4.43,0,0,0-1.74.34,4,4,0,0,0-1.34.95,4.4,4.4,0,0,0-.87,1.41A4.87,4.87,0,0,0,195.28,2420.45Z" transform="translate(-182.75 -2382.03)"/><path class="cls-2" d="M208.21,2414.34h8v2h-5.79v3.25h5.46v2h-5.46v5.14h-2.21Z" transform="translate(-182.75 -2382.03)"/><path class="cls-2" d="M220.79,2416.34H217v-2h9.79v2H223v10.39h-2.21Z" transform="translate(-182.75 -2382.03)"/><path class="cls-2" d="M997.2,2414.34h8v2h-5.8v3.25h5.46v2H999.4v5.14h-2.2Z" transform="translate(-182.75 -2382.03)"/><path class="cls-2" d="M1007.19,2414.34h2.21v12.39h-2.21Z" transform="translate(-182.75 -2382.03)"/><path class="cls-2" d="M1012.11,2414.34h4.3a8.9,8.9,0,0,1,1.73.17,4.47,4.47,0,0,1,1.48.57,3,3,0,0,1,1,1.08,3.94,3.94,0,0,1-.36,4,3.14,3.14,0,0,1-2.13,1.1l3.29,5.48h-2.66l-2.87-5.25h-1.61v5.25h-2.2Zm3.92,5.25c.31,0,.63,0,.94,0a2.92,2.92,0,0,0,.87-.21,1.46,1.46,0,0,0,.64-.51,1.63,1.63,0,0,0,.24-.95,1.55,1.55,0,0,0-.22-.88,1.46,1.46,0,0,0-.6-.5,2.83,2.83,0,0,0-.81-.22c-.3,0-.59-.05-.87-.05h-1.91v3.36Z" transform="translate(-182.75 -2382.03)"/><path class="cls-2" d="M1023.19,2414.34h3.36l3.3,8.68,3.35-8.68h3.32v12.39h-2.1v-10.29h0l-3.77,10.29h-1.54l-3.76-10.29h0v10.29h-2.1Z" transform="translate(-182.75 -2382.03)"/><line class="cls-3" x1="769.73" y1="37.95" x2="84.91" y2="37.95"/><g class="cls-4"><path class="cls-5" d="M956.58,2420a6.07,6.07,0,1,1,6.06,6.06A6.06,6.06,0,0,1,956.58,2420Z" transform="translate(-182.75 -2382.03)"/><path class="cls-6" d="M953.38,2420a9.27,9.27,0,1,1,9.26,9.26A9.27,9.27,0,0,1,953.38,2420Z" transform="translate(-182.75 -2382.03)"/><path class="cls-5" d="M251.43,2420a6.07,6.07,0,1,1,6.06,6.06A6.06,6.06,0,0,1,251.43,2420Z" transform="translate(-182.75 -2382.03)"/><path class="cls-6" d="M248.23,2420a9.26,9.26,0,1,1,9.26,9.26A9.27,9.27,0,0,1,248.23,2420Z" transform="translate(-182.75 -2382.03)"/><g class="cls-7"><g class="cls-8"><path class="cls-9" d="M562.77,2453.37a6.17,6.17,0,0,1-2.49.44,4.41,4.41,0,0,1-4.67-4.77,4.7,4.7,0,0,1,4.93-5,5,5,0,0,1,2.24.42l-.29,1a4.5,4.5,0,0,0-1.91-.39c-2.21,0-3.68,1.42-3.68,3.9,0,2.31,1.33,3.79,3.63,3.79a4.86,4.86,0,0,0,2-.39Z" transform="translate(-182.75 -2382.03)"/><path class="cls-9" d="M573.06,2448.86c0,3.24-2,5-4.39,5s-4.24-1.93-4.24-4.79,1.86-5,4.38-5S573.06,2446.05,573.06,2448.86Zm-7.33.15c0,2,1.1,3.82,3,3.82s3-1.78,3-3.92c0-1.88-1-3.84-3-3.84S565.73,2446.94,565.73,2449Z" transform="translate(-182.75 -2382.03)"/><path class="cls-9" d="M575.86,2444.23v3.95h4.56v-3.95h1.23v9.44h-1.23v-4.42h-4.56v4.42h-1.22v-9.44Z" transform="translate(-182.75 -2382.03)"/><path class="cls-9" d="M588.65,2449.25H585v3.4h4.09v1h-5.31v-9.44h5.1v1H585v3h3.67Z" transform="translate(-182.75 -2382.03)"/><path class="cls-9" d="M590.48,2452.19a4.31,4.31,0,0,0,2.19.62c1.25,0,2-.66,2-1.62s-.5-1.38-1.77-1.87c-1.55-.55-2.5-1.35-2.5-2.68s1.22-2.56,3.06-2.56a4.26,4.26,0,0,1,2.08.46l-.33,1a3.75,3.75,0,0,0-1.8-.45c-1.28,0-1.78.77-1.78,1.41,0,.88.58,1.32,1.88,1.82,1.6.62,2.41,1.39,2.41,2.78s-1.08,2.71-3.3,2.71a4.8,4.8,0,0,1-2.41-.6Z" transform="translate(-182.75 -2382.03)"/><path class="cls-9" d="M598.77,2444.23v9.44h-1.22v-9.44Z" transform="translate(-182.75 -2382.03)"/><path class="cls-9" d="M603,2453.67l-3.08-9.44h1.32l1.47,4.65c.41,1.28.76,2.43,1,3.53h0c.26-1.09.65-2.28,1.07-3.51l1.6-4.67h1.3l-3.37,9.44Z" transform="translate(-182.75 -2382.03)"/><path class="cls-9" d="M609.93,2444.23v9.44h-1.22v-9.44Z" transform="translate(-182.75 -2382.03)"/><path class="cls-9" d="M613.85,2445.27H611v-1h7v1h-2.89v8.4h-1.23Z" transform="translate(-182.75 -2382.03)"/><path class="cls-9" d="M621.12,2453.67v-4l-3-5.44h1.39l1.33,2.61c.37.71.65,1.29.94,1.95h0c.26-.62.59-1.24.95-1.95l1.36-2.61h1.39l-3.17,5.42v4Z" transform="translate(-182.75 -2382.03)"/><path class="cls-2" d="M562.77,2453.37a6.17,6.17,0,0,1-2.49.44,4.41,4.41,0,0,1-4.67-4.77,4.7,4.7,0,0,1,4.93-5,5,5,0,0,1,2.24.42l-.29,1a4.5,4.5,0,0,0-1.91-.39c-2.21,0-3.68,1.42-3.68,3.9,0,2.31,1.33,3.79,3.63,3.79a4.86,4.86,0,0,0,2-.39Z" transform="translate(-182.75 -2382.03)"/><path class="cls-2" d="M573.06,2448.86c0,3.24-2,5-4.39,5s-4.24-1.93-4.24-4.79,1.86-5,4.38-5S573.06,2446.05,573.06,2448.86Zm-7.33.15c0,2,1.1,3.82,3,3.82s3-1.78,3-3.92c0-1.88-1-3.84-3-3.84S565.73,2446.94,565.73,2449Z" transform="translate(-182.75 -2382.03)"/><path class="cls-2" d="M575.86,2444.23v3.95h4.56v-3.95h1.23v9.44h-1.23v-4.42h-4.56v4.42h-1.22v-9.44Z" transform="translate(-182.75 -2382.03)"/><path class="cls-2" d="M588.65,2449.25H585v3.4h4.09v1h-5.31v-9.44h5.1v1H585v3h3.67Z" transform="translate(-182.75 -2382.03)"/><path class="cls-2" d="M590.48,2452.19a4.31,4.31,0,0,0,2.19.62c1.25,0,2-.66,2-1.62s-.5-1.38-1.77-1.87c-1.55-.55-2.5-1.35-2.5-2.68s1.22-2.56,3.06-2.56a4.26,4.26,0,0,1,2.08.46l-.33,1a3.75,3.75,0,0,0-1.8-.45c-1.28,0-1.78.77-1.78,1.41,0,.88.58,1.32,1.88,1.82,1.6.62,2.41,1.39,2.41,2.78s-1.08,2.71-3.3,2.71a4.8,4.8,0,0,1-2.41-.6Z" transform="translate(-182.75 -2382.03)"/><path class="cls-2" d="M598.77,2444.23v9.44h-1.22v-9.44Z" transform="translate(-182.75 -2382.03)"/><path class="cls-2" d="M603,2453.67l-3.08-9.44h1.32l1.47,4.65c.41,1.28.76,2.43,1,3.53h0c.26-1.09.65-2.28,1.07-3.51l1.6-4.67h1.3l-3.37,9.44Z" transform="translate(-182.75 -2382.03)"/><path class="cls-2" d="M609.93,2444.23v9.44h-1.22v-9.44Z" transform="translate(-182.75 -2382.03)"/><path class="cls-2" d="M613.85,2445.27H611v-1h7v1h-2.89v8.4h-1.23Z" transform="translate(-182.75 -2382.03)"/><path class="cls-2" d="M621.12,2453.67v-4l-3-5.44h1.39l1.33,2.61c.37.71.65,1.29.94,1.95h0c.26-.62.59-1.24.95-1.95l1.36-2.61h1.39l-3.17,5.42v4Z" transform="translate(-182.75 -2382.03)"/></g></g><path class="cls-10" d="M543.19,2424.48a4.5,4.5,0,1,0-4.5-4.5,4.49,4.49,0,0,0,4.5,4.5" transform="translate(-182.75 -2382.03)"/><path class="cls-10" d="M676.14,2424.48a4.5,4.5,0,1,0-4.5-4.5,4.49,4.49,0,0,0,4.5,4.5" transform="translate(-182.75 -2382.03)"/></g><path class="cls-10" d="M498.11,2383.35h2.64v8.08h10.1v-8.08h2.64v19.47h-2.64v-8.91h-10.1v8.91h-2.64Z" transform="translate(-182.75 -2382.03)"/><path class="cls-10" d="M518.46,2398.75a4.41,4.41,0,0,0,1.83,1.58,5.49,5.49,0,0,0,2.3.51,4.62,4.62,0,0,0,1.35-.21,4.18,4.18,0,0,0,1.25-.62,3.42,3.42,0,0,0,.92-1,2.74,2.74,0,0,0,.36-1.41,2.11,2.11,0,0,0-.72-1.72,6.49,6.49,0,0,0-1.77-1c-.71-.26-1.48-.52-2.31-.77a8.94,8.94,0,0,1-2.31-1,5.67,5.67,0,0,1-1.78-1.77,5.59,5.59,0,0,1-.71-3,5,5,0,0,1,.37-1.82,5.12,5.12,0,0,1,1.17-1.76,6.44,6.44,0,0,1,2.05-1.33,7.57,7.57,0,0,1,3-.54,10.61,10.61,0,0,1,3,.44,5.28,5.28,0,0,1,2.56,1.79l-2.15,2a3.61,3.61,0,0,0-1.4-1.24,4.43,4.43,0,0,0-2.06-.46,4.88,4.88,0,0,0-1.83.29,3.22,3.22,0,0,0-1.17.74,2.71,2.71,0,0,0-.62,1,3,3,0,0,0-.18,1,2.43,2.43,0,0,0,.72,1.89,5.74,5.74,0,0,0,1.77,1.08,23.28,23.28,0,0,0,2.31.74,9.86,9.86,0,0,1,2.31.92,5.45,5.45,0,0,1,1.78,1.6,4.74,4.74,0,0,1,.71,2.76,5.76,5.76,0,0,1-.54,2.53,5.54,5.54,0,0,1-1.44,1.9,6.52,6.52,0,0,1-2.14,1.18,8.48,8.48,0,0,1-2.64.41,9.61,9.61,0,0,1-3.55-.66,5.87,5.87,0,0,1-2.67-2Z" transform="translate(-182.75 -2382.03)"/><path class="cls-10" d="M546.16,2387.55a5.57,5.57,0,0,0-2.09-1.65,6.35,6.35,0,0,0-2.62-.57,6.88,6.88,0,0,0-3,.62,6.72,6.72,0,0,0-2.28,1.69,7.56,7.56,0,0,0-1.47,2.51,9.05,9.05,0,0,0-.53,3.1,8.51,8.51,0,0,0,.5,2.91,7.25,7.25,0,0,0,1.43,2.42,6.56,6.56,0,0,0,2.28,1.65,7.29,7.29,0,0,0,3.05.61,6.09,6.09,0,0,0,2.95-.69,6.42,6.42,0,0,0,2.14-1.92l2.23,1.67a9.58,9.58,0,0,1-.77.87,8.15,8.15,0,0,1-1.46,1.13,10.69,10.69,0,0,1-2.19,1,9.42,9.42,0,0,1-3,.42,9.58,9.58,0,0,1-4.17-.88,10,10,0,0,1-5.15-5.54,10.08,10.08,0,0,1-.69-3.64,11.53,11.53,0,0,1,.74-4.17,10,10,0,0,1,2.08-3.3,9.42,9.42,0,0,1,3.2-2.16,10.81,10.81,0,0,1,4.13-.77,10.21,10.21,0,0,1,3.78.74,7.09,7.09,0,0,1,3,2.29Z" transform="translate(-182.75 -2382.03)"/><path class="cls-10" d="M570.85,2402.71a7,7,0,0,1-.51,2.71,6.19,6.19,0,0,1-1.44,2.11,6.57,6.57,0,0,1-2.26,1.39,8.23,8.23,0,0,1-2.91.5,11,11,0,0,1-3.43-.52,8.31,8.31,0,0,1-2.95-1.82L559,2405a6.72,6.72,0,0,0,2.09,1.58,6.5,6.5,0,0,0,4.84.14,4,4,0,0,0,1.44-1,3.74,3.74,0,0,0,.76-1.45,6.46,6.46,0,0,0,.22-1.63v-1.93h-.09a4.32,4.32,0,0,1-1.94,1.75,6.13,6.13,0,0,1-2.57.56,6.84,6.84,0,0,1-2.65-.51,6.14,6.14,0,0,1-2.1-1.4,6.27,6.27,0,0,1-1.38-2.12,7,7,0,0,1-.49-2.65,7.62,7.62,0,0,1,.46-2.68,6.69,6.69,0,0,1,1.34-2.19,5.86,5.86,0,0,1,2.09-1.45,6.82,6.82,0,0,1,2.73-.53,6.13,6.13,0,0,1,2.57.58,4.79,4.79,0,0,1,2,1.62h.06v-1.87h2.47Zm-6.76-10.95a4.47,4.47,0,0,0-1.79.35,3.86,3.86,0,0,0-2.2,2.36,5.4,5.4,0,0,0-.3,1.83,4.39,4.39,0,0,0,1.15,3.18,4.72,4.72,0,0,0,6.27,0,4.4,4.4,0,0,0,1.16-3.18,5.41,5.41,0,0,0-.31-1.83,3.86,3.86,0,0,0-2.2-2.36A4.42,4.42,0,0,0,564.09,2391.76Z" transform="translate(-182.75 -2382.03)"/><path class="cls-10" d="M575.88,2397.21a3.34,3.34,0,0,0,.37,1.55,4,4,0,0,0,1,1.2,4.62,4.62,0,0,0,1.4.77,5.14,5.14,0,0,0,1.65.27,3.77,3.77,0,0,0,2-.53,6.51,6.51,0,0,0,1.57-1.42l1.87,1.43a6.89,6.89,0,0,1-5.78,2.67,7.19,7.19,0,0,1-2.79-.53,6,6,0,0,1-2.12-1.44,6.48,6.48,0,0,1-1.33-2.17,7.75,7.75,0,0,1-.47-2.71,7.14,7.14,0,0,1,.51-2.71,6.81,6.81,0,0,1,1.4-2.17,6.22,6.22,0,0,1,2.14-1.44,6.8,6.8,0,0,1,2.69-.53,6.35,6.35,0,0,1,2.93.61,5.81,5.81,0,0,1,2,1.58,6.26,6.26,0,0,1,1.11,2.2,9.07,9.07,0,0,1,.34,2.49v.88Zm7.81-2a4.89,4.89,0,0,0-.26-1.52,3.32,3.32,0,0,0-.7-1.19,3.17,3.17,0,0,0-1.17-.8,4.31,4.31,0,0,0-1.63-.29,4,4,0,0,0-1.67.35,4.08,4.08,0,0,0-1.28.89,4.26,4.26,0,0,0-.81,1.22,3.44,3.44,0,0,0-.29,1.34Z" transform="translate(-182.75 -2382.03)"/><path class="cls-10" d="M588.89,2382h2.48v20.79h-2.48Z" transform="translate(-182.75 -2382.03)"/><path class="cls-10" d="M629.42,2383.35h2.64v8.08h10.09v-8.08h2.64v19.47h-2.64v-8.91H632.06v8.91h-2.64Z" transform="translate(-182.75 -2382.03)"/><path class="cls-10" d="M649.77,2398.75a4.41,4.41,0,0,0,1.83,1.58,5.46,5.46,0,0,0,2.3.51,4.51,4.51,0,0,0,1.34-.21,4.11,4.11,0,0,0,1.26-.62,3.42,3.42,0,0,0,.92-1,2.83,2.83,0,0,0,.35-1.41,2.1,2.1,0,0,0-.71-1.72,6.49,6.49,0,0,0-1.77-1c-.71-.26-1.48-.52-2.31-.77a8.94,8.94,0,0,1-2.31-1,5.67,5.67,0,0,1-1.78-1.77,5.5,5.5,0,0,1-.71-3,5,5,0,0,1,.37-1.82,4.85,4.85,0,0,1,1.17-1.76,6.44,6.44,0,0,1,2-1.33,7.53,7.53,0,0,1,3-.54,10.61,10.61,0,0,1,3.05.44,5.33,5.33,0,0,1,2.56,1.79l-2.15,2a3.69,3.69,0,0,0-1.4-1.24,4.46,4.46,0,0,0-2.06-.46,4.81,4.81,0,0,0-1.83.29,3.22,3.22,0,0,0-1.17.74,2.71,2.71,0,0,0-.62,1,3,3,0,0,0-.18,1,2.43,2.43,0,0,0,.72,1.89,5.52,5.52,0,0,0,1.77,1.08,23.28,23.28,0,0,0,2.31.74,10.22,10.22,0,0,1,2.31.92,5.32,5.32,0,0,1,1.77,1.6,4.66,4.66,0,0,1,.72,2.76,5.76,5.76,0,0,1-.54,2.53,5.67,5.67,0,0,1-1.44,1.9,6.57,6.57,0,0,1-2.15,1.18,8.39,8.39,0,0,1-2.64.41,9.56,9.56,0,0,1-3.54-.66,5.87,5.87,0,0,1-2.67-2Z" transform="translate(-182.75 -2382.03)"/><path class="cls-10" d="M677.46,2387.55a5.49,5.49,0,0,0-2.09-1.65,6.27,6.27,0,0,0-2.61-.57,6.88,6.88,0,0,0-3,.62,6.72,6.72,0,0,0-2.28,1.69,7.58,7.58,0,0,0-1.48,2.51,9.29,9.29,0,0,0-.52,3.1,8.51,8.51,0,0,0,.5,2.91,7.09,7.09,0,0,0,1.43,2.42,6.56,6.56,0,0,0,2.28,1.65,7.26,7.26,0,0,0,3,.61,6,6,0,0,0,2.94-.69,6.35,6.35,0,0,0,2.15-1.92l2.23,1.67a11.49,11.49,0,0,1-.77.87,8.53,8.53,0,0,1-1.46,1.13,10.94,10.94,0,0,1-2.19,1,9.42,9.42,0,0,1-2.95.42,9.58,9.58,0,0,1-4.17-.88,9.82,9.82,0,0,1-3.16-2.31,10.11,10.11,0,0,1-2-3.23,10.29,10.29,0,0,1-.68-3.64,11.32,11.32,0,0,1,.74-4.17,9.86,9.86,0,0,1,2.08-3.3,9.32,9.32,0,0,1,3.2-2.16,10.8,10.8,0,0,1,4.12-.77,10.22,10.22,0,0,1,3.79.74,7.06,7.06,0,0,1,3,2.29Z" transform="translate(-182.75 -2382.03)"/><path class="cls-10" d="M682,2391.5h6.27v-6.27h2.14v6.27h6.27v2.14h-6.27v6.27h-2.14v-6.27H682Z" transform="translate(-182.75 -2382.03)"/><path class="cls-10" d="M719.81,2402.71a7,7,0,0,1-.51,2.71,6.19,6.19,0,0,1-1.44,2.11,6.43,6.43,0,0,1-2.25,1.39,8.28,8.28,0,0,1-2.92.5,10.86,10.86,0,0,1-3.42-.52,8.35,8.35,0,0,1-3-1.82L708,2405a6.83,6.83,0,0,0,2.09,1.58,6.5,6.5,0,0,0,4.84.14,4,4,0,0,0,1.44-1,3.74,3.74,0,0,0,.76-1.45,6.46,6.46,0,0,0,.22-1.63v-1.93h-.08a4.43,4.43,0,0,1-1.94,1.75,6.2,6.2,0,0,1-2.57.56,6.85,6.85,0,0,1-2.66-.51,6.34,6.34,0,0,1-2.1-1.4,6.27,6.27,0,0,1-1.38-2.12,7,7,0,0,1-.49-2.65,7.41,7.41,0,0,1,.47-2.68,6.5,6.5,0,0,1,1.33-2.19A6,6,0,0,1,710,2390a6.9,6.9,0,0,1,2.74-.53,6.17,6.17,0,0,1,2.57.58,4.76,4.76,0,0,1,2,1.62h.06v-1.87h2.47Zm-6.76-10.95a4.47,4.47,0,0,0-1.79.35,4.07,4.07,0,0,0-1.35.93,4.25,4.25,0,0,0-.85,1.43,5.4,5.4,0,0,0-.3,1.83,4.39,4.39,0,0,0,1.15,3.18,4.72,4.72,0,0,0,6.27,0,4.4,4.4,0,0,0,1.16-3.18,5.4,5.4,0,0,0-.3-1.83,4.27,4.27,0,0,0-.86-1.43,3.92,3.92,0,0,0-1.34-.93A4.5,4.5,0,0,0,713.05,2391.76Z" transform="translate(-182.75 -2382.03)"/><path class="cls-10" d="M724.85,2397.21a3.23,3.23,0,0,0,.37,1.55,3.78,3.78,0,0,0,1,1.2,4.68,4.68,0,0,0,1.41.77,5.1,5.1,0,0,0,1.65.27,3.73,3.73,0,0,0,2-.53,6.51,6.51,0,0,0,1.57-1.42l1.87,1.43a6.87,6.87,0,0,1-5.77,2.67,7.2,7.2,0,0,1-2.8-.53,5.83,5.83,0,0,1-2.11-1.44,6.34,6.34,0,0,1-1.34-2.17,7.75,7.75,0,0,1-.46-2.71,7.33,7.33,0,0,1,.5-2.71,6.67,6.67,0,0,1,1.41-2.17,6.08,6.08,0,0,1,2.13-1.44,6.8,6.8,0,0,1,2.69-.53,6.35,6.35,0,0,1,2.93.61,5.81,5.81,0,0,1,2,1.58,6.26,6.26,0,0,1,1.11,2.2,9.08,9.08,0,0,1,.35,2.49v.88Zm7.81-2a5.2,5.2,0,0,0-.27-1.52,3.32,3.32,0,0,0-.7-1.19,3.17,3.17,0,0,0-1.17-.8,4.27,4.27,0,0,0-1.63-.29,4,4,0,0,0-1.67.35,3.92,3.92,0,0,0-1.27.89,4.29,4.29,0,0,0-.82,1.22,3.43,3.43,0,0,0-.28,1.34Z" transform="translate(-182.75 -2382.03)"/><path class="cls-10" d="M737.88,2382h2.48v20.79h-2.48Z" transform="translate(-182.75 -2382.03)"/><g class="cls-4"><g class="cls-7"><g class="cls-11"><polygon class="cls-2" points="475.63 54.17 473.84 54.17 479.9 65.03 473.84 75.89 475.63 75.89 481.69 65.03 475.63 54.17"/></g></g></g></g></g></svg>