<svg xmlns="http://www.w3.org/2000/svg" viewBox="0 0 461.91 140.58"><defs><style>.cls-1{fill:#53575a;}.cls-2{fill:#ff8300;}.cls-3{fill:none;stroke:#53575a;stroke-width:0.81px;}</style></defs><g id="Layer_2" data-name="Layer 2"><g id="Layer_1-2" data-name="Layer 1"><path class="cls-1" d="M.22,71.28v-.06H0a30.29,30.29,0,0,1,.38-4.8A29.93,29.93,0,0,1,1.51,61.8a25.15,25.15,0,0,1,4.11-7.68A23.58,23.58,0,0,1,8.4,51.18,15.86,15.86,0,0,1,11.61,49,15,15,0,0,1,19,47a12.29,12.29,0,0,1,5.29,1.14h.05a.33.33,0,0,0,.22.12l.05.06.73.36a8,8,0,0,1,.73.42,10.34,10.34,0,0,0,4.43,1.5,4.07,4.07,0,0,0,2.43-.6,3.08,3.08,0,0,0,1.24-2.1h.38V65.4h-.38a32.63,32.63,0,0,0-.78-4.2,29.48,29.48,0,0,0-1.22-3.72,20.68,20.68,0,0,0-1.59-3,18.08,18.08,0,0,0-1.92-2.55,13.81,13.81,0,0,0-4.53-3.36,12.83,12.83,0,0,0-4.32-1.08,9,9,0,0,0-5.4,1.86A16.53,16.53,0,0,0,10,54.42,29.46,29.46,0,0,0,7,62a37.38,37.38,0,0,0-1.1,9.27A35.62,35.62,0,0,0,7.7,82.92a23.7,23.7,0,0,0,4.72,8.46,14.87,14.87,0,0,0,2.65,2.13,14,14,0,0,0,2.16,1.11A5,5,0,0,0,18.5,95a9.87,9.87,0,0,0,1.32.09A19.23,19.23,0,0,0,22,94.68,11.63,11.63,0,0,0,24.14,94a13.36,13.36,0,0,0,4.48-3.36,12.67,12.67,0,0,0,1.92-2.49,28.59,28.59,0,0,0,1.54-3,24.22,24.22,0,0,0,1.24-3.72q.48-2,.81-4.2l.38.06a29.88,29.88,0,0,1-2.11,8A20.07,20.07,0,0,1,28.89,91a15.25,15.25,0,0,1-4.64,3.36A12,12,0,0,1,19,95.46a15,15,0,0,1-7.4-1.92,19.22,19.22,0,0,1-6-5.16A25.15,25.15,0,0,1,1.51,80.7,29.93,29.93,0,0,1,.38,76.08,30.29,30.29,0,0,1,0,71.28Z"/><path class="cls-1" d="M41.26,70.92a28.28,28.28,0,0,1,1.51-9.42,23.85,23.85,0,0,1,4-7.74,18.38,18.38,0,0,1,5.94-5.16,15.38,15.38,0,0,1,7.4-1.92h3.13a15.27,15.27,0,0,1,7.34,1.92,18.36,18.36,0,0,1,6.05,5.16,26.42,26.42,0,0,1,4.1,7.74,29.78,29.78,0,0,1,1.46,9.42,29.42,29.42,0,0,1-1.46,9.42,26.42,26.42,0,0,1-4.1,7.74,18.36,18.36,0,0,1-6.05,5.16,15.27,15.27,0,0,1-7.34,1.92H60.16a15.38,15.38,0,0,1-7.4-1.92,18.38,18.38,0,0,1-5.94-5.16,23.85,23.85,0,0,1-4-7.74A28.28,28.28,0,0,1,41.26,70.92Zm5.88,0a40.43,40.43,0,0,0,1,9.18,26.87,26.87,0,0,0,3,7.68,12.26,12.26,0,0,0,1.78,2.58,13.82,13.82,0,0,0,3.27,2.79,25.05,25.05,0,0,0,2.56,1.35l1,.24a5.15,5.15,0,0,0,1.13.12h1.62a4.46,4.46,0,0,0,1.08-.12l1.08-.24c.61-.28,1.45-.73,2.51-1.35a15,15,0,0,0,3.32-2.79c.29-.36.59-.76.89-1.2s.61-.9.9-1.38a27.18,27.18,0,0,0,3-7.68,41.42,41.42,0,0,0,0-18.36,27.18,27.18,0,0,0-3-7.68q-.44-.72-.9-1.38c-.3-.44-.6-.84-.89-1.2a15,15,0,0,0-3.32-2.79c-1.06-.62-1.9-1.07-2.51-1.35l-1.08-.21A5.89,5.89,0,0,0,62.53,47H60.91a8,8,0,0,0-2.16.3,25.05,25.05,0,0,0-2.56,1.35,13.82,13.82,0,0,0-3.27,2.79,12.26,12.26,0,0,0-1.78,2.58,26.87,26.87,0,0,0-3,7.68A40.43,40.43,0,0,0,47.14,70.92Z"/><path class="cls-1" d="M112.75,47.22h18.79v.3l.06.06h-.06v.06h-2.16a4.87,4.87,0,0,0-3.37,1.5c-.63.8-1,2.26-1,4.38v35.4a12.79,12.79,0,0,0,.25,2.79,3.93,3.93,0,0,0,.81,1.77,3.38,3.38,0,0,0,1.51,1,8.07,8.07,0,0,0,2.29.39h1.68v.42H112.75v-.42a19.56,19.56,0,0,0,3.11-.21,4,4,0,0,0,2-.87A3.62,3.62,0,0,0,119,92a11.39,11.39,0,0,0,.33-3.06V71.46H97.47V88.92a13.52,13.52,0,0,0,.24,2.79,3.93,3.93,0,0,0,.81,1.77,3.44,3.44,0,0,0,1.51,1,8.14,8.14,0,0,0,2.3.39H104v.42H85.16v-.42a19.34,19.34,0,0,0,3.1-.21,4,4,0,0,0,2-.87A3.7,3.7,0,0,0,91.37,92a11.88,11.88,0,0,0,.32-3.06V53.58a13.08,13.08,0,0,0-.24-2.76,4.14,4.14,0,0,0-.81-1.77,3.13,3.13,0,0,0-1.51-1,10.91,10.91,0,0,0-2.3-.42H85.1v-.42H104v.3l0,.06h0v.06h-2.21a6.52,6.52,0,0,0-2,.48,3.46,3.46,0,0,0-1.33,1,4.08,4.08,0,0,0-.72,1.74,13.22,13.22,0,0,0-.22,2.64V71h21.82V53.58c0-2.2-.36-3.71-1.06-4.53a5.23,5.23,0,0,0-3.75-1.41h-1.73Z"/><path class="cls-1" d="M161.89,94.32a12.42,12.42,0,0,0,3.16-1.56,12,12,0,0,0,2.4-2.19A17.83,17.83,0,0,0,169.24,88a22.05,22.05,0,0,0,2.43-7H172l-1.56,14.28h-35.7v-.42a19.47,19.47,0,0,0,3.11-.21,4,4,0,0,0,2-.87A3.55,3.55,0,0,0,141,92a11.39,11.39,0,0,0,.33-3.06V54.36a2.19,2.19,0,0,0,0-.36,2.19,2.19,0,0,1,0-.36q0-3.3-1-4.53a5.23,5.23,0,0,0-3.75-1.41h-1.73v-.36H169v12.6h-.38v-.06c-.29-1.32-.62-2.7-1-4.14a13,13,0,0,0-1.76-3.93,9.42,9.42,0,0,0-3.24-2.94,10.86,10.86,0,0,0-5.4-1.17H147V71.16h7.72A5.75,5.75,0,0,0,158.41,70a7.67,7.67,0,0,0,2-2.49,8.28,8.28,0,0,0,.83-2.64,16.78,16.78,0,0,0,.17-1.68V63h.37V79.74h-.37v-.18c0-.28-.06-.86-.17-1.74a8.2,8.2,0,0,0-.86-2.73,7.3,7.3,0,0,0-2.08-2.49,6,6,0,0,0-3.81-1.08H147V88A6.45,6.45,0,0,1,147.1,89a13.08,13.08,0,0,0,.24,2.76,3.91,3.91,0,0,0,.81,1.74,3.46,3.46,0,0,0,1.48,1,7.86,7.86,0,0,0,2.27.39h6A12.47,12.47,0,0,0,161.89,94.32Z"/><path class="cls-1" d="M176.79,80.1h.44a16.17,16.17,0,0,0,.27,2.79,24.36,24.36,0,0,0,.75,3.06,19.71,19.71,0,0,0,1.19,2.91A8.3,8.3,0,0,0,181,91.08a12.75,12.75,0,0,0,3.88,2.61,12.26,12.26,0,0,0,4.59,1H190a13.58,13.58,0,0,0,4.59-1,9.09,9.09,0,0,0,3.67-3.42,9.59,9.59,0,0,0,1.43-4.77,10,10,0,0,0-1.27-5.1A11.21,11.21,0,0,0,194,76l-6.81-3.9a20.06,20.06,0,0,1-5.4-4.23,14.57,14.57,0,0,1-2.83-4.74,11.39,11.39,0,0,1-.62-4.83,12,12,0,0,1,1.29-4.5,13,13,0,0,1,2.89-3.72,14.39,14.39,0,0,1,4.13-2.58,8.92,8.92,0,0,1,2.16-.66,13.48,13.48,0,0,1,2.22-.18,12,12,0,0,1,4.86,1q.85.36,1.83.72a6.82,6.82,0,0,0,1.95.42,3.31,3.31,0,0,0,3.34-2h.38v13h-.43a10.9,10.9,0,0,0-.35-2.64,14.88,14.88,0,0,0-1-2.67,15.49,15.49,0,0,0-1.35-2.4,13.43,13.43,0,0,0-1.51-1.89,10.68,10.68,0,0,0-3.56-2.37A11.11,11.11,0,0,0,191,47.1a11.88,11.88,0,0,0-1.87.15,10.65,10.65,0,0,0-1.81.45,7.81,7.81,0,0,0-3.86,2.88,6.69,6.69,0,0,0-1.13,4.56,11.15,11.15,0,0,0,2.4,5.49,24.59,24.59,0,0,0,6.75,5.79L197.69,70a16,16,0,0,1,4.7,4.11,13.15,13.15,0,0,1,2.38,5,12,12,0,0,1,0,5.16A11.61,11.61,0,0,1,202.58,89a14.89,14.89,0,0,1-4.51,3.78,19.57,19.57,0,0,1-6.75,2.19h.11l-.78.09c-.24,0-.48,0-.73,0h-.54a11.34,11.34,0,0,1-4.7-1v0a3.56,3.56,0,0,1-.54-.24,9.11,9.11,0,0,0-3.57-.93,4.1,4.1,0,0,0-2.07.48,2.39,2.39,0,0,0-1,1.08q-.27.63-.33.81v.06h-.38Z"/><path class="cls-1" d="M212.3,94.71a4,4,0,0,0,2-.87A3.55,3.55,0,0,0,215.4,92a11.39,11.39,0,0,0,.33-3.06V53.64q0-3.3-1-4.53a5.27,5.27,0,0,0-3.76-1.41h-1.73v-.36H228v.3h0v.06h-2.16a4.9,4.9,0,0,0-3.38,1.5c-.63.8-.94,2.26-.94,4.38V89a13.08,13.08,0,0,0,.24,2.76,3.91,3.91,0,0,0,.81,1.74,3.44,3.44,0,0,0,1.51,1,8.14,8.14,0,0,0,2.3.39H228v.42H209.19v-.42A19.47,19.47,0,0,0,212.3,94.71Z"/><path class="cls-1" d="M255.36,87.24,267,55a6.52,6.52,0,0,0,.49-3,4.07,4.07,0,0,0-.81-2A4.39,4.39,0,0,0,265,48.63a9.94,9.94,0,0,0-1.86-.66,8.71,8.71,0,0,0-1.54-.24l-.7,0v-.42h14.41v.42l-.91.12a6.1,6.1,0,0,0-2.08.81,11.31,11.31,0,0,0-2.57,2.13,12,12,0,0,0-2.32,4.14L252.88,95.22h-.43L238,55.08A27.13,27.13,0,0,0,236.19,51a8.39,8.39,0,0,0-1.59-2.1A3.34,3.34,0,0,0,233,48l-1.89-.33v-.42h17.72v.42c-1.3.08-2.42.17-3.35.27a3.3,3.3,0,0,0-2.08.84,2.78,2.78,0,0,0-.6,2.16,16.31,16.31,0,0,0,1.06,4.17Z"/><path class="cls-1" d="M305.53,94.32a12.42,12.42,0,0,0,3.16-1.56,12,12,0,0,0,2.4-2.19A17.75,17.75,0,0,0,312.87,88a22.05,22.05,0,0,0,2.43-7h.38l-1.56,14.28h-35.7v-.42a19.47,19.47,0,0,0,3.11-.21,4,4,0,0,0,2-.87,3.55,3.55,0,0,0,1.08-1.8A11.39,11.39,0,0,0,285,89V54.36a2.19,2.19,0,0,0,0-.36,2.19,2.19,0,0,1,0-.36q0-3.3-1-4.53a5.23,5.23,0,0,0-3.75-1.41h-1.73v-.36H312.6v12.6h-.37v-.06c-.29-1.32-.63-2.7-1-4.14a13,13,0,0,0-1.76-3.93,9.42,9.42,0,0,0-3.24-2.94,10.86,10.86,0,0,0-5.4-1.17H290.68V71.16h7.72A5.77,5.77,0,0,0,302.05,70a7.63,7.63,0,0,0,2-2.49,8.57,8.57,0,0,0,.84-2.64,15.77,15.77,0,0,0,.16-1.68V63h.38V79.74H305v-.18a17.38,17.38,0,0,0-.16-1.74,8.69,8.69,0,0,0-.86-2.73,7.3,7.3,0,0,0-2.08-2.49,6,6,0,0,0-3.81-1.08h-7.45V88a8.29,8.29,0,0,1,.05,1.08A12.37,12.37,0,0,0,291,91.8a3.91,3.91,0,0,0,.81,1.74,3.4,3.4,0,0,0,1.48,1,7.8,7.8,0,0,0,2.27.39h6A12.49,12.49,0,0,0,305.53,94.32Z"/><path class="cls-1" d="M339.77,71.22a30.29,30.29,0,0,1,.37-4.8,28.86,28.86,0,0,1,1.14-4.62,26.48,26.48,0,0,1,4.1-7.68,18.94,18.94,0,0,1,6.05-5.22A15.3,15.3,0,0,1,358.77,47a13.24,13.24,0,0,1,5.29,1.14l.11.06.22.12c.25.12.49.25.73.39a7.19,7.19,0,0,0,.73.39,10.32,10.32,0,0,0,4.45,1.5,4.13,4.13,0,0,0,2.46-.6,3.08,3.08,0,0,0,1.24-2.1h.33V65.34H374A29.88,29.88,0,0,0,372,57.42a19.87,19.87,0,0,0-3.51-5.58,14.47,14.47,0,0,0-4.48-3.3,12.12,12.12,0,0,0-4.32-1.14v.06a9.07,9.07,0,0,0-5.46,1.86,16.53,16.53,0,0,0-4.43,5.1,28.46,28.46,0,0,0-3,7.56,37.51,37.51,0,0,0-1.08,9.24,36.44,36.44,0,0,0,1.78,11.67,22.37,22.37,0,0,0,4.75,8.43,13.37,13.37,0,0,0,2.59,2.13A14.92,14.92,0,0,0,357,94.56a7.92,7.92,0,0,0,2.65.42,10.9,10.9,0,0,0,4.26-1,17.17,17.17,0,0,0,3.46-2.28l.65-.75a8.17,8.17,0,0,0,.86-1.32,10,10,0,0,0,.76-2,9.69,9.69,0,0,0,.32-2.58V79.5a3.35,3.35,0,0,0-.57-2.07,3.29,3.29,0,0,0-1.51-1.11,7.2,7.2,0,0,0-2.24-.42c-.86,0-1.78-.06-2.75-.06v-.48h17.28v.48c-.83,0-1.52,0-2.08.06a3.68,3.68,0,0,0-1.38.33,1.59,1.59,0,0,0-.78.87,4.46,4.46,0,0,0-.24,1.62V92h-.38a3,3,0,0,0-2.46-1,10.07,10.07,0,0,0-3.08.75q-1.65.66-3.45,1.59a21.65,21.65,0,0,1-3.6,1.47,14.25,14.25,0,0,1-3.94.54,15.08,15.08,0,0,1-7.34-1.86,21.11,21.11,0,0,1-3.24-2.22,17.6,17.6,0,0,1-2.81-3,26.48,26.48,0,0,1-4.1-7.68,29,29,0,0,1-1.14-4.59A30.13,30.13,0,0,1,339.77,71.22Z"/><path class="cls-1" d="M411,94.32a12.42,12.42,0,0,0,3.16-1.56,12,12,0,0,0,2.4-2.19A17,17,0,0,0,418.33,88a21.57,21.57,0,0,0,2.43-7h.38l-1.56,14.28h-35.7v-.42a19.47,19.47,0,0,0,3.11-.21,4,4,0,0,0,2-.87,3.55,3.55,0,0,0,1.08-1.8,11.39,11.39,0,0,0,.33-3.06V54.36a2.19,2.19,0,0,0,0-.36,2.19,2.19,0,0,1,0-.36q0-3.3-1.05-4.53a5.23,5.23,0,0,0-3.75-1.41h-1.73v-.36h34.23v12.6h-.37v-.06c-.29-1.32-.62-2.7-1-4.14a13,13,0,0,0-1.76-3.93,9.42,9.42,0,0,0-3.24-2.94,10.86,10.86,0,0,0-5.4-1.17H396.14V71.16h7.72A5.77,5.77,0,0,0,407.51,70a7.67,7.67,0,0,0,2-2.49,8.54,8.54,0,0,0,.83-2.64,15.77,15.77,0,0,0,.16-1.68V63h.38V79.74h-.38v-.18a17.38,17.38,0,0,0-.16-1.74,8.44,8.44,0,0,0-.86-2.73,7.3,7.3,0,0,0-2.08-2.49,6,6,0,0,0-3.81-1.08h-7.45V88a6.78,6.78,0,0,1,.05,1.08,13,13,0,0,0,.25,2.76,3.91,3.91,0,0,0,.81,1.74,3.46,3.46,0,0,0,1.48,1,7.8,7.8,0,0,0,2.27.39h6A12.49,12.49,0,0,0,411,94.32Z"/><path class="cls-1" d="M460,95.34H425.19v-.42a18.9,18.9,0,0,0,3.08-.21,4,4,0,0,0,2-.87,3.7,3.7,0,0,0,1.08-1.8,11.88,11.88,0,0,0,.32-3.06V53.64q0-3.3-1.08-4.53a5.35,5.35,0,0,0-3.78-1.41h-1.67v-.36h18.79v.3h0v.06h-2.21a6.52,6.52,0,0,0-2,.48,3.36,3.36,0,0,0-1.32,1,4,4,0,0,0-.73,1.74,13.22,13.22,0,0,0-.22,2.64V89a13.08,13.08,0,0,0,.24,2.76,4.14,4.14,0,0,0,.81,1.74,3.49,3.49,0,0,0,1.49,1,7.92,7.92,0,0,0,2.32.39h5.4a12.16,12.16,0,0,0,9.56-4.35A17.75,17.75,0,0,0,459.05,88a22.87,22.87,0,0,0,2.48-7h.38l-1.56,14.28Z"/><path class="cls-2" d="M109.59,35.56c.81-2.74,1.65-5.42,2.53-8a73.25,73.25,0,0,1,3-7.5,19.83,19.83,0,0,0,1.22-2.33,2.45,2.45,0,0,1,1.75-1.57,1.34,1.34,0,0,1,1.52.49,4.72,4.72,0,0,1,.74,1.87,13.85,13.85,0,0,1,.27,2.48c0,.87.06,1.64.11,2.28,0,1.46.11,2.92.2,4.39a6.79,6.79,0,0,0,.94,3.41,6.83,6.83,0,0,0,2.43-2.55,32.43,32.43,0,0,1,2-3.07c.5-.7,1-1.44,1.49-2.21s1-1.51,1.55-2.22l.67-.56a.53.53,0,0,1,.81.11.69.69,0,0,1-.17.94,1.66,1.66,0,0,0-.57.71,5.06,5.06,0,0,0-.57.79,8.92,8.92,0,0,1-.51.79c-.76,1.1-1.52,2.3-2.26,3.6a34.12,34.12,0,0,1-2.4,3.67,10.63,10.63,0,0,1-1.14,1.24,1.81,1.81,0,0,1-1.62.49,1.66,1.66,0,0,1-.81-.45,2.88,2.88,0,0,1-.61-.75,7.7,7.7,0,0,1-.81-2.81q-.21-1.7-.27-3.57C119,24,119,22.73,118.9,21.5a13.6,13.6,0,0,0-.47-3.26,7.8,7.8,0,0,0-1.72,2.55c-.43,1-.84,2.05-1.25,3.15q-1.48,4-2.67,8.21T110.6,41c-.13.55-.29,1.11-.47,1.69a2,2,0,0,1-1,1.23,1.2,1.2,0,0,1-.85-.11,4.57,4.57,0,0,1-.57-.41,5.8,5.8,0,0,1-.54-2.66c0-1.08,0-2.09-.07-3a81.78,81.78,0,0,1,.2-8.66q.34-4.47.88-9a79.38,79.38,0,0,1,1.45-8q.91-3.87,1.93-7.69c.09-.35.19-.76.3-1.24s.25-1,.4-1.42a4.47,4.47,0,0,1,.58-1.2,1.19,1.19,0,0,1,.81-.57.8.8,0,0,1,.74.23,2.38,2.38,0,0,1,.41.6,1.84,1.84,0,0,1,0,1.24,10.91,10.91,0,0,0-.37,1.38c-.22.71-.39,1.33-.51,1.88a10.1,10.1,0,0,0-.16,2,.47.47,0,0,1-.24.3.47.47,0,0,0-.24.3,110.55,110.55,0,0,0-2.56,12.94A122.18,122.18,0,0,0,109.59,35.56Z"/><path class="cls-2" d="M129.77,20.11a1.26,1.26,0,0,1,.24.83c0,.3,0,.63,0,1,0,.86-.05,1.78,0,2.78s0,2,0,2.92,0,1.88,0,2.78a3.42,3.42,0,0,1-.71,2.17h-.54a2.62,2.62,0,0,1-.51-1.16,12.1,12.1,0,0,1-.23-1.69c0-1.09-.06-2.25,0-3.45s.11-2.37.24-3.52c0-.3.09-.65.14-1a4.29,4.29,0,0,1,.23-1.05A1.24,1.24,0,0,1,129,20,.75.75,0,0,1,129.77,20.11Zm.34-14.55a1.75,1.75,0,0,1-.54,1.2.67.67,0,0,1-.78-.15,1.21,1.21,0,0,1-.27-.71,1,1,0,0,1,.2-.71A.81.81,0,0,1,129.5,5C129.86,5.17,130.06,5.37,130.11,5.56Z"/><path class="cls-2" d="M147.72,33.84c1.31-1.75,2.6-3.56,3.89-5.44A59.56,59.56,0,0,1,155.82,23c.5-.54,1-1.11,1.56-1.68a3.21,3.21,0,0,1,2-1,1,1,0,0,1,.51.53,1,1,0,0,1,0,.82.72.72,0,0,1-.88,0,62.69,62.69,0,0,0-6.18,7.58q-2.79,4.05-5.5,8.32-1.08,8-2.77,15.57a99.77,99.77,0,0,1-4.25,14.28,17.53,17.53,0,0,1-.84,2q-.51,1-1,2.1c-.22.45-.46.9-.71,1.35a6.63,6.63,0,0,1-.81,1.2,3.4,3.4,0,0,1-1.08.86,3.13,3.13,0,0,1-1.52.34c0,.05,0,0-.13-.08a1.07,1.07,0,0,1-.44-.22,2.39,2.39,0,0,0-.44-.3,1.15,1.15,0,0,0-.33-.45,8.21,8.21,0,0,1-.55-2.63,16.44,16.44,0,0,1,.11-2.81c.11-.92.27-1.84.47-2.74s.39-1.72.57-2.47q.68-2.48,1.49-4.76t1.62-4.39a121.53,121.53,0,0,1,8.23-16c.23-1.6.44-3.27.64-5s.35-3.53.44-5.33.22-3.6.24-5.55a18.92,18.92,0,0,0-.58-5.17,1.55,1.55,0,0,0-.81.71,11.06,11.06,0,0,1-.67,1,13.72,13.72,0,0,1,.67,2,5.07,5.07,0,0,0,.41,1.05.94.94,0,0,1,0,1q-.54.23-.78-.18a2.13,2.13,0,0,0-.5-.64c-.14-.25-.28-.5-.44-.75a3.72,3.72,0,0,1-.37-.75,24,24,0,0,0-1.83,3c-.53,1.05-1.12,2.08-1.75,3.07-.27.41-.6.94-1,1.62a11.25,11.25,0,0,1-1.32,1.87,4.48,4.48,0,0,1-1.58,1.24,1.81,1.81,0,0,1-1.86-.38,3.35,3.35,0,0,1-.6-1.83,9.78,9.78,0,0,1,.1-2.22,15.34,15.34,0,0,1,.5-2.21c.23-.72.45-1.36.68-1.91a21,21,0,0,1,1.21-2.66,11.06,11.06,0,0,1,1.49-2.14,6.55,6.55,0,0,1,1-.9,4.29,4.29,0,0,1,1.35-.68,4.09,4.09,0,0,1,1.52-.15,3.12,3.12,0,0,1,1.45.53,3.69,3.69,0,0,0,.78-.83,5.57,5.57,0,0,1,.81-.93,2.54,2.54,0,0,1,1-.6,1.88,1.88,0,0,1,1.32.11,3.5,3.5,0,0,1,.54.41,3.09,3.09,0,0,1,.4.49,5,5,0,0,1,.71,1.69,12.08,12.08,0,0,1,.3,2.17c0,.78.07,1.59.07,2.44s0,1.68-.07,2.47c-.09,1.76-.18,3.43-.27,5S147.86,32.54,147.72,33.84ZM135.51,64c-.36,1.3-.68,2.67-.95,4.12a11.78,11.78,0,0,0,.07,4.5,6.87,6.87,0,0,0,2-2.73L138,66.46a75.46,75.46,0,0,0,3.58-11.13q1.42-5.89,2.57-12.27s0,0-.07,0q-2.51,4.8-4.79,9.9A65.85,65.85,0,0,0,135.51,64Zm3.17-43.88a15.74,15.74,0,0,0-2.13,3.72,19.09,19.09,0,0,0-1.18,4.83,20.06,20.06,0,0,0,3.07-4.57c.88-1.75,1.81-3.42,2.8-5a1.62,1.62,0,0,0-1.48.23A12.83,12.83,0,0,1,138.68,20.11Z"/><path class="cls-2" d="M160.08,35.56c.81-2.74,1.65-5.42,2.53-8a71,71,0,0,1,3-7.5,19.83,19.83,0,0,0,1.22-2.33,2.45,2.45,0,0,1,1.75-1.57,1.34,1.34,0,0,1,1.52.49,4.88,4.88,0,0,1,.74,1.87,13.85,13.85,0,0,1,.27,2.48c0,.87.06,1.64.1,2.28,0,1.46.12,2.92.21,4.39a6.79,6.79,0,0,0,.94,3.41,6.83,6.83,0,0,0,2.43-2.55,32.43,32.43,0,0,1,2-3.07c.49-.7,1-1.44,1.48-2.21s1-1.51,1.56-2.22l.67-.56a.53.53,0,0,1,.81.11.7.7,0,0,1-.17.94,1.66,1.66,0,0,0-.57.71A4.48,4.48,0,0,0,180,23a8.92,8.92,0,0,1-.51.79c-.77,1.1-1.52,2.3-2.26,3.6a35.71,35.71,0,0,1-2.4,3.67,9.94,9.94,0,0,1-1.15,1.24,1.81,1.81,0,0,1-1.62.49,1.66,1.66,0,0,1-.81-.45,2.82,2.82,0,0,1-.6-.75,7.7,7.7,0,0,1-.81-2.81q-.21-1.7-.27-3.57c-.05-1.24-.09-2.48-.14-3.71a13.6,13.6,0,0,0-.47-3.26,7.65,7.65,0,0,0-1.72,2.55c-.43,1-.85,2.05-1.25,3.15q-1.48,4-2.67,8.21T161.09,41c-.14.55-.29,1.11-.47,1.69a2,2,0,0,1-1,1.23,1.17,1.17,0,0,1-.84-.11,4.57,4.57,0,0,1-.57-.41,5.8,5.8,0,0,1-.54-2.66c0-1.08,0-2.09-.07-3a81.78,81.78,0,0,1,.2-8.66q.34-4.47.88-9a79.38,79.38,0,0,1,1.45-8Q161,8.26,162,4.44c.09-.35.19-.76.31-1.24s.24-1,.4-1.42a4.47,4.47,0,0,1,.58-1.2,1.19,1.19,0,0,1,.81-.57.8.8,0,0,1,.74.23,2.32,2.32,0,0,1,.4.6,1.77,1.77,0,0,1,0,1.24,10.91,10.91,0,0,0-.37,1.38,17,17,0,0,0-.51,1.88,10,10,0,0,0-.17,2,.43.43,0,0,1-.23.3.44.44,0,0,0-.24.3,110.55,110.55,0,0,0-2.56,12.94A122.18,122.18,0,0,0,160.08,35.56Z"/><path class="cls-2" d="M181.74,22.06a1.19,1.19,0,0,1,.37-1,2.12,2.12,0,0,1,.95-.41,7.7,7.7,0,0,1,1.21-.15c.43,0,.85,0,1.25,0s.82-.09,1.25-.11.82,0,1.18,0,1-.08,1.45-.08a9.19,9.19,0,0,0,1.25-.07,13.83,13.83,0,0,1,1.72,0c.61,0,1,.29,1,.79a1,1,0,0,1-1,.86c-.59,0-1.13,0-1.62,0l-3.21.3c-1,.1-2.06.22-3.14.37-.49.11-1,.19-1.55.27A1,1,0,0,1,181.74,22.06Z"/><path class="cls-2" d="M200.71,20.56a5.8,5.8,0,0,0-2,1.8,7.67,7.67,0,0,0-.85,1.2,2.38,2.38,0,0,0,.37,3c.41.43.77.82,1.08,1.16l1.05,1.17a9.86,9.86,0,0,1,.91,1.16q1.68-1.35,3.21-2.81a30,30,0,0,1,3.27-2.74,25.57,25.57,0,0,1,2.53-1.88c.92-.6,1.88-1.17,2.87-1.72l1-.53a.86.86,0,0,1,1,.08.88.88,0,0,1-.07.6.89.89,0,0,1-.4.34l-.54.22a.87.87,0,0,0-.41.34,17.68,17.68,0,0,0-2.73,1.69c-.84.62-1.68,1.23-2.53,1.83-2.16,1.8-4.26,3.68-6.28,5.63a24.69,24.69,0,0,1,1.65,3.52,12.16,12.16,0,0,1,.71,4.28,13.91,13.91,0,0,1-.67,4.8,14.43,14.43,0,0,1-2,3.9,15.71,15.71,0,0,1-2.9,2.85A5.92,5.92,0,0,1,195,51.76a4.3,4.3,0,0,1-1.55-.37,6,6,0,0,1-1.15-.75,7.77,7.77,0,0,1-1.08-1.73,6.16,6.16,0,0,1-.47-2.17,9.08,9.08,0,0,1,.88-4.8,25.61,25.61,0,0,1,2.23-3.75,29.58,29.58,0,0,1,2.66-3.26c.92-1,1.83-1.89,2.74-2.74a9.75,9.75,0,0,0-1.08-1.39c-.41-.42-.81-.86-1.22-1.31a12.72,12.72,0,0,1-1.11-1.43,5.83,5.83,0,0,1-.78-1.65,4.26,4.26,0,0,1,0-3,13,13,0,0,1,1.32-2.44,17.83,17.83,0,0,1,1.32-1.46,5.73,5.73,0,0,1,1.52-1.09,6,6,0,0,1,1-.23,1.82,1.82,0,0,1,1,.15,1.6,1.6,0,0,0,.37.42,1.17,1.17,0,0,1,.37.56,2.68,2.68,0,0,1,0,1.42c-.12.56-.28.83-.51.83s-.5-.05-.54-.3A1.68,1.68,0,0,0,200.71,20.56Zm-.88,13c-.76.7-1.53,1.48-2.29,2.32a33.46,33.46,0,0,0-2.23,2.78c-.4.55-.82,1.16-1.25,1.84A11.06,11.06,0,0,0,193,42.69a12.27,12.27,0,0,0-.61,2.51,6.84,6.84,0,0,0,.24,2.74,4.88,4.88,0,0,0,.88,1,1.84,1.84,0,0,0,1.28.41,4.39,4.39,0,0,0,2.73-1.16,12.4,12.4,0,0,0,2.13-2.36A10.73,10.73,0,0,0,201,43a14.21,14.21,0,0,0,.6-3.34,11.76,11.76,0,0,0-.27-3.34A8.32,8.32,0,0,0,200,33.39a.07.07,0,0,0-.07-.08C199.88,33.42,199.83,33.49,199.83,33.54Zm-7.15,18.67s0,0,.13-.07S192.77,52.21,192.68,52.21Z"/><path class="cls-2" d="M218.06,10.81q5.81-.22,12.08-.67a81.34,81.34,0,0,1,12.49.07c.22,0,.47,0,.74,0a.61.61,0,0,1,.54.41c0,.41-.21.6-.51.6a3.55,3.55,0,0,1-.77-.07,110.64,110.64,0,0,0-12.49.11q-6.21.42-12.22.79-.94,6.15-1.72,12.52A102.8,102.8,0,0,0,215.49,38c0,.66,0,1.38.07,2.18a16.91,16.91,0,0,0,.27,2.25c.09.55.24,1.23.44,2s.51,1.23.91,1.28a.84.84,0,0,0,.71-.23,6.07,6.07,0,0,0,.74-.71,8,8,0,0,0,.68-.86l.44-.68a75.53,75.53,0,0,0,4.82-8c1.42-2.73,2.91-5.56,4.49-8.52.41-.79.83-1.62,1.28-2.47s.95-1.7,1.49-2.55a6.38,6.38,0,0,1,.61-.86c.22-.28.44-.37.67-.27s.43.52.2.94a8.44,8.44,0,0,1-.54.94c-1.12,2.1-2.18,4.23-3.17,6.37s-2,4.28-3.17,6.38c-.63,1.15-1.25,2.31-1.86,3.49s-1.25,2.34-1.92,3.48-1.38,2.28-2.09,3.38a7.59,7.59,0,0,1-2.77,2.55,3.4,3.4,0,0,1-1.42,0A4.53,4.53,0,0,1,214,45.28a22.42,22.42,0,0,1-.91-4.24,36.55,36.55,0,0,1-.34-5c0-1.72.05-3.41.14-5.06.22-3.35.53-6.59.91-9.71s.84-6.12,1.38-9c-2.07.11-4.17.28-6.31.53s-4.31.43-6.51.52c-.27,0-.58,0-.91,0s-.53-.16-.58-.56.18-.6.54-.6a5.27,5.27,0,0,0,1-.08c2.11-.15,4.27-.34,6.48-.6s4.39-.42,6.55-.52c.27-1,.57-2.29.91-3.71a31.16,31.16,0,0,1,1.18-3.94,6.54,6.54,0,0,1,.5-1.24c.25-.47.55-.71.92-.71a.68.68,0,0,1,.64.3,1.26,1.26,0,0,1,.13.71,6.9,6.9,0,0,1-.13.86c-.07.3-.13.58-.17.83-.23,1.1-.45,2.24-.68,3.41S218.28,9.81,218.06,10.81Z"/><path class="cls-2" d="M243.3,18.16a10.9,10.9,0,0,0-3.14,3.6c-.78,1.46-1.63,2.91-2.53,4.35q-.54,1.22-1.08,2.4a23,23,0,0,0-.94,2.48,13,13,0,0,0-1,2.44A2.58,2.58,0,0,1,233,35.19h-.61a1.74,1.74,0,0,1-.58-.41,4.2,4.2,0,0,1-.44-.64,30.08,30.08,0,0,1-.1-3.08c0-1.09.07-2.21.14-3.33s.18-2.23.34-3.3.32-2.07.5-3a11.69,11.69,0,0,1,.41-1.65,1.34,1.34,0,0,1,1.08-1,.86.86,0,0,1,.77.67,4.34,4.34,0,0,1,.14,1.39,14,14,0,0,1-.17,1.65,9.39,9.39,0,0,0-.13,1.39c-.1,1-.17,1.9-.24,2.7s-.15,1.55-.24,2.25c.77-1.4,1.69-3,2.77-4.73a46.91,46.91,0,0,1,3.31-4.72A16,16,0,0,1,241.11,18a4.77,4.77,0,0,1,1.38-1.09,1.79,1.79,0,0,1,1.25,0,1.1,1.1,0,0,1,.78.82c.09.6-.05.93-.41,1A.73.73,0,0,1,243.3,18.16Z"/><path class="cls-2" d="M246.88,24.46A15.84,15.84,0,0,0,246,27.2a14.17,14.17,0,0,0-.4,3.3,6.16,6.16,0,0,0,.6,2.81,2.34,2.34,0,0,0,2.16,1.28,6.16,6.16,0,0,0,3.35-.83c1-.6,2-1.17,2.73-1.72S256.18,30.65,257,30s1.5-1.34,2.13-2a37.62,37.62,0,0,0,3.34-3.23c1.06-1.14,2.1-2.32,3.14-3.52a1.92,1.92,0,0,0,.44-.6,6.76,6.76,0,0,1,.5-.83,3.22,3.22,0,0,1,.58-.63.48.48,0,0,1,.64,0c.31.15.38.45.2.9a5.5,5.5,0,0,1-.47,1,2.8,2.8,0,0,1-.41.83c-.18.25-.36.52-.54.82A50.55,50.55,0,0,1,263,26.79q-1.86,2-3.82,3.9a27.69,27.69,0,0,1-5.67,4.5,13.11,13.11,0,0,1-1.68.86,8.53,8.53,0,0,1-2,.6,7.88,7.88,0,0,1-2.06.11,3.7,3.7,0,0,1-1.92-.67,3.41,3.41,0,0,1-.71-.71l-.64-.87a7.69,7.69,0,0,1-.85-3.18,15.93,15.93,0,0,1,.21-3.57,24.56,24.56,0,0,1,1.92-6.22,31.66,31.66,0,0,1,2.7-4.43,7.89,7.89,0,0,1,4.12-2.85,3.08,3.08,0,0,1,2.26.68,2.75,2.75,0,0,1,.71,2.4,5.19,5.19,0,0,1-.81,2.25,14.3,14.3,0,0,1-1.42,1.87,15.74,15.74,0,0,1-2.67,2.37A5,5,0,0,1,246.88,24.46Zm6.28-8a7,7,0,0,0-3.58,2.74,28.06,28.06,0,0,0-2.3,4.16,3.9,3.9,0,0,0,2.5-.75A17.82,17.82,0,0,0,251.54,21c.49-.6,1-1.2,1.55-1.8a3.42,3.42,0,0,0,.74-2.55A.7.7,0,0,0,253.16,16.44Z"/><path class="cls-2" d="M266.52,31.66q1.35-2.84,2.7-5.81a28.47,28.47,0,0,1,3.17-5.36c.18-.25.41-.55.68-.9a5,5,0,0,1,.88-.9,2.93,2.93,0,0,1,1-.53,1.94,1.94,0,0,1,1.25.15,3.45,3.45,0,0,1,1.49,2.33q.47,1.8.81,3.6c.09.55.19,1.12.3,1.72s.24,1.2.37,1.8a12.7,12.7,0,0,0,.54,1.69c.23.58.5.92.81,1a1,1,0,0,0,1-.26c.32-.27.59-.49.81-.64a9,9,0,0,1,.75-.63,5.65,5.65,0,0,0,.67-.64,29.92,29.92,0,0,0,2.84-3.15,36.54,36.54,0,0,1,2.83-3.23c.5-.39.89-.68,1.18-.86a1.63,1.63,0,0,1,.81-.26c.25,0,.4.18.44.52a.73.73,0,0,1-.44.75,3.82,3.82,0,0,0-.77.6,18.65,18.65,0,0,0-1.89,2.14c-.63.83-1.31,1.66-2,2.51-.36.41-.71.78-1,1.13l-1,1.12q-.89,1-1.89,1.92a3.74,3.74,0,0,1-2.63.93l-.31-.15a1.06,1.06,0,0,0-.37-.07,4.46,4.46,0,0,1-1.65-2.33,25.84,25.84,0,0,1-.85-3.18c-.22-1.13-.44-2.25-.64-3.38a11.18,11.18,0,0,0-1-3A4.26,4.26,0,0,0,273.61,22c-.41.73-.86,1.44-1.35,2.14a35.92,35.92,0,0,0-2.3,4.65q-1,2.48-1.95,5.1a5.13,5.13,0,0,0-.48,1.16,12.61,12.61,0,0,1-.47,1.39,3.84,3.84,0,0,1-.71,1.16,1.27,1.27,0,0,1-2.09-.45,5,5,0,0,1-.37-1.65,18.9,18.9,0,0,1,0-2c0-.73.06-1.39.11-2,.18-2.4.42-4.74.74-7A45.59,45.59,0,0,1,266,18.16c.18-.54.34-1.05.47-1.5a1,1,0,0,1,.88-.75.74.74,0,0,1,.84.42,2.34,2.34,0,0,1,.21,1.16,9.17,9.17,0,0,1-.21,1.46c-.11.53-.19,1-.23,1.31-.32,1.91-.59,3.8-.81,5.7S266.7,29.77,266.52,31.66Z"/><path class="cls-2" d="M302.56,33.84c1.31-1.75,2.6-3.56,3.89-5.44A58,58,0,0,1,310.67,23c.49-.54,1-1.11,1.55-1.68a3.21,3.21,0,0,1,2-1,1,1,0,0,1,.5.53,1,1,0,0,1,0,.82.72.72,0,0,1-.88,0,62.69,62.69,0,0,0-6.18,7.58q-2.79,4.05-5.5,8.32-1.08,8-2.76,15.57a101.07,101.07,0,0,1-4.26,14.28,17.53,17.53,0,0,1-.84,2q-.51,1-1.05,2.1c-.22.45-.46.9-.71,1.35a6.63,6.63,0,0,1-.81,1.2,3.4,3.4,0,0,1-1.08.86,3.13,3.13,0,0,1-1.52.34c0,.05,0,0-.13-.08a1.07,1.07,0,0,1-.44-.22,2.39,2.39,0,0,0-.44-.3,1.15,1.15,0,0,0-.33-.45,7.94,7.94,0,0,1-.54-2.63,15.48,15.48,0,0,1,.1-2.81c.11-.92.27-1.84.47-2.74s.39-1.72.57-2.47q.68-2.48,1.49-4.76t1.62-4.39a121.53,121.53,0,0,1,8.23-16c.23-1.6.44-3.27.64-5s.35-3.53.44-5.33.22-3.6.24-5.55a19.34,19.34,0,0,0-.57-5.17,1.48,1.48,0,0,0-.81.71,11.05,11.05,0,0,1-.68,1,13.58,13.58,0,0,1,.68,2,5,5,0,0,0,.4,1.05.94.94,0,0,1,0,1q-.54.23-.78-.18a2.13,2.13,0,0,0-.5-.64c-.14-.25-.28-.5-.44-.75a3.72,3.72,0,0,1-.37-.75,24,24,0,0,0-1.83,3c-.53,1.05-1.12,2.08-1.75,3.07-.27.41-.6.94-1,1.62A11.81,11.81,0,0,1,292,30.35a4.6,4.6,0,0,1-1.59,1.24,1.81,1.81,0,0,1-1.86-.38,3.35,3.35,0,0,1-.6-1.83,9.78,9.78,0,0,1,.1-2.22,15.34,15.34,0,0,1,.5-2.21c.23-.72.45-1.36.68-1.91a21,21,0,0,1,1.21-2.66A11.06,11.06,0,0,1,292,18.24a7,7,0,0,1,1-.9,4.4,4.4,0,0,1,1.35-.68,4.09,4.09,0,0,1,1.52-.15,3.12,3.12,0,0,1,1.45.53,3.69,3.69,0,0,0,.78-.83,5.57,5.57,0,0,1,.81-.93,2.54,2.54,0,0,1,1-.6,1.88,1.88,0,0,1,1.32.11,3.5,3.5,0,0,1,.54.41,3.09,3.09,0,0,1,.4.49,5,5,0,0,1,.71,1.69,12.08,12.08,0,0,1,.3,2.17c.05.78.07,1.59.07,2.44s0,1.68-.07,2.47c-.09,1.76-.18,3.43-.27,5S302.7,32.54,302.56,33.84ZM290.35,64c-.36,1.3-.68,2.67-1,4.12a11.78,11.78,0,0,0,.07,4.5,6.87,6.87,0,0,0,2-2.73c.49-1.18,1-2.32,1.42-3.42a76.65,76.65,0,0,0,3.57-11.13q1.43-5.89,2.57-12.27s0,0-.07,0q-2.51,4.8-4.79,9.9A65.85,65.85,0,0,0,290.35,64Zm3.17-43.88a16.1,16.1,0,0,0-2.13,3.72,19.09,19.09,0,0,0-1.18,4.83,20.06,20.06,0,0,0,3.07-4.57c.88-1.75,1.81-3.42,2.8-5a1.62,1.62,0,0,0-1.48.23A12.83,12.83,0,0,1,293.52,20.11Z"/><path class="cls-2" d="M317.62,10.81q5.81-.22,12.08-.67a81.35,81.35,0,0,1,12.49.07c.22,0,.47,0,.74,0a.61.61,0,0,1,.54.41c-.05.41-.22.6-.51.6a3.55,3.55,0,0,1-.77-.07,110.64,110.64,0,0,0-12.49.11q-6.21.42-12.22.79-.94,6.15-1.72,12.52A102.8,102.8,0,0,0,315.05,38c0,.66,0,1.38.07,2.18a15.4,15.4,0,0,0,.27,2.25c.09.55.24,1.23.44,2s.5,1.23.91,1.28a.85.85,0,0,0,.71-.23,6.9,6.9,0,0,0,.74-.71,8,8,0,0,0,.68-.86c.2-.3.34-.53.43-.68a74,74,0,0,0,4.83-8c1.42-2.73,2.91-5.56,4.49-8.52.4-.79.83-1.62,1.28-2.47s1-1.7,1.49-2.55a7.34,7.34,0,0,1,.6-.86c.23-.28.45-.37.68-.27s.43.52.2.94a8.44,8.44,0,0,1-.54.94c-1.12,2.1-2.18,4.23-3.17,6.37s-2.05,4.28-3.17,6.38c-.63,1.15-1.25,2.31-1.86,3.49s-1.25,2.34-1.92,3.48-1.38,2.28-2.1,3.38a7.49,7.49,0,0,1-2.76,2.55,3.4,3.4,0,0,1-1.42,0,4.5,4.5,0,0,1-2.33-2.81,22.42,22.42,0,0,1-.91-4.24,35,35,0,0,1-.34-5c0-1.72,0-3.41.14-5.06.22-3.35.53-6.59.91-9.71s.84-6.12,1.38-9c-2.07.11-4.17.28-6.31.53s-4.31.43-6.51.52c-.27,0-.58,0-.91,0s-.53-.16-.58-.56.18-.6.54-.6a5.27,5.27,0,0,0,.95-.08c2.11-.15,4.27-.34,6.48-.6s4.38-.42,6.54-.52c.27-1,.58-2.29.92-3.71a31.16,31.16,0,0,1,1.18-3.94,5.93,5.93,0,0,1,.5-1.24c.25-.47.55-.71.91-.71a.69.69,0,0,1,.65.3,1.26,1.26,0,0,1,.13.71,6.9,6.9,0,0,1-.13.86c-.07.3-.13.58-.17.83-.23,1.1-.45,2.24-.68,3.41S317.84,9.81,317.62,10.81Z"/><path class="cls-2" d="M333.34,35.56c.81-2.74,1.66-5.42,2.54-8a69,69,0,0,1,3-7.5,19.88,19.88,0,0,0,1.21-2.33,2.46,2.46,0,0,1,1.76-1.57,1.34,1.34,0,0,1,1.52.49,4.88,4.88,0,0,1,.74,1.87,13.85,13.85,0,0,1,.27,2.48c0,.87.06,1.64.1,2.28,0,1.46.11,2.92.2,4.39a6.78,6.78,0,0,0,.95,3.41,7,7,0,0,0,2.43-2.55,30.54,30.54,0,0,1,2-3.07c.49-.7,1-1.44,1.48-2.21s1-1.51,1.55-2.22l.68-.56a.53.53,0,0,1,.81.11.7.7,0,0,1-.17.94,1.66,1.66,0,0,0-.57.71,5.14,5.14,0,0,0-.58.79,8.85,8.85,0,0,1-.5.79c-.77,1.1-1.52,2.3-2.26,3.6a37.45,37.45,0,0,1-2.4,3.67,10.77,10.77,0,0,1-1.15,1.24,1.81,1.81,0,0,1-1.62.49,1.66,1.66,0,0,1-.81-.45,3.1,3.1,0,0,1-.61-.75,8.12,8.12,0,0,1-.81-2.81q-.19-1.7-.27-3.57c0-1.24-.09-2.48-.13-3.71a14.12,14.12,0,0,0-.47-3.26,7.82,7.82,0,0,0-1.73,2.55c-.42,1-.84,2.05-1.24,3.15q-1.49,4-2.67,8.21T334.36,41c-.14.55-.3,1.11-.48,1.69a2,2,0,0,1-1,1.23,1.17,1.17,0,0,1-.84-.11,4.67,4.67,0,0,1-.58-.41,5.8,5.8,0,0,1-.54-2.66c0-1.08,0-2.09-.06-3a79.19,79.19,0,0,1,.2-8.66c.22-3,.52-6,.88-9a79.38,79.38,0,0,1,1.45-8c.6-2.58,1.25-5.14,1.92-7.69.09-.35.19-.76.3-1.24s.25-1,.41-1.42a4.79,4.79,0,0,1,.57-1.2,1.23,1.23,0,0,1,.81-.57.81.81,0,0,1,.75.23,2.32,2.32,0,0,1,.4.6,1.83,1.83,0,0,1,0,1.24,10.91,10.91,0,0,0-.37,1.38,17,17,0,0,0-.51,1.88,10,10,0,0,0-.17,2,.43.43,0,0,1-.23.3.42.42,0,0,0-.24.3,110.54,110.54,0,0,0-2.57,12.94A122.18,122.18,0,0,0,333.34,35.56Z"/><path class="cls-2" d="M206.36,140.58a19.85,19.85,0,0,1-2.48-5.39,20.76,20.76,0,0,1-.84-5.8,20.34,20.34,0,0,1,.88-6,19.82,19.82,0,0,1,2.44-5.22l1.22,1A17.23,17.23,0,0,0,205.4,124a19.92,19.92,0,0,0-.72,5.36,20.94,20.94,0,0,0,.18,2.83,17.48,17.48,0,0,0,.54,2.53,20,20,0,0,0,.91,2.4c.36.79.79,1.62,1.27,2.47Z"/><path class="cls-2" d="M210.1,118.81H212v7.56h8.58v-7.56h1.9v17.84h-1.9v-8.32H212v8.32h-1.9Z"/><path class="cls-2" d="M234.09,122a2.89,2.89,0,0,0-1.27-1.25,3.7,3.7,0,0,0-1.65-.39,4.39,4.39,0,0,0-1.25.18,3.3,3.3,0,0,0-1.1.53,2.46,2.46,0,0,0-.78.93,2.93,2.93,0,0,0-.3,1.36,3.2,3.2,0,0,0,.17,1.07,2.3,2.3,0,0,0,.56.84,3.93,3.93,0,0,0,1,.71,13.94,13.94,0,0,0,1.61.66c.62.21,1.22.45,1.81.7a5.89,5.89,0,0,1,1.54,1,4.22,4.22,0,0,1,1.06,1.45,5.15,5.15,0,0,1,.4,2.18,5.25,5.25,0,0,1-.48,2.32,4.7,4.7,0,0,1-1.25,1.62,5.34,5.34,0,0,1-1.81,1,7.09,7.09,0,0,1-2.11.31,7.37,7.37,0,0,1-1.4-.13,6.85,6.85,0,0,1-1.35-.43,5.77,5.77,0,0,1-1.22-.76,4.39,4.39,0,0,1-1-1.15l1.63-1.48a3.51,3.51,0,0,0,1.45,1.48,4.06,4.06,0,0,0,2,.51,4.11,4.11,0,0,0,1.23-.2,3.61,3.61,0,0,0,1.13-.6,3.07,3.07,0,0,0,.81-1,2.73,2.73,0,0,0,.32-1.33,3.07,3.07,0,0,0-.25-1.35,2.4,2.4,0,0,0-.77-.89,5.41,5.41,0,0,0-1.32-.68l-1.86-.71a10.9,10.9,0,0,1-1.58-.69,4.67,4.67,0,0,1-1.26-1,4,4,0,0,1-.84-1.36,5.84,5.84,0,0,1,.15-4.15,4.64,4.64,0,0,1,1.22-1.6,5.35,5.35,0,0,1,1.75-1,6.32,6.32,0,0,1,2-.33,6.44,6.44,0,0,1,2.48.47,4.87,4.87,0,0,1,2,1.63Z"/><path class="cls-2" d="M250.33,122.49a4.72,4.72,0,0,0-1.79-1.63,4.85,4.85,0,0,0-2.22-.54,5,5,0,0,0-2.46.61,6.16,6.16,0,0,0-1.94,1.62,7.49,7.49,0,0,0-1.27,2.37,8.85,8.85,0,0,0-.46,2.81,9.15,9.15,0,0,0,.46,2.91,7.3,7.3,0,0,0,1.26,2.34,6,6,0,0,0,1.92,1.58,5.31,5.31,0,0,0,2.49.58,5.42,5.42,0,0,0,2.63-.64,6.23,6.23,0,0,0,2-1.86L252.4,134a6.93,6.93,0,0,1-2.62,2.37,7.78,7.78,0,0,1-3.46.75,7.46,7.46,0,0,1-3.22-.7,7.91,7.91,0,0,1-2.6-2,9.16,9.16,0,0,1-1.72-3,10.77,10.77,0,0,1-.63-3.75,11.05,11.05,0,0,1,.6-3.68,9.2,9.2,0,0,1,1.69-3,8,8,0,0,1,2.59-2,7.36,7.36,0,0,1,3.29-.74,7.76,7.76,0,0,1,3.14.66,6,6,0,0,1,2.53,2.14Z"/><path class="cls-2" d="M254.8,118.2a20,20,0,0,1,2.47,5.4,20.69,20.69,0,0,1,.84,5.79,20.17,20.17,0,0,1-3.31,11.19l-1.22-1a17.15,17.15,0,0,0,2.17-4.81,19.61,19.61,0,0,0,.73-5.37,20.68,20.68,0,0,0-.18-2.82,17.21,17.21,0,0,0-.55-2.53,18,18,0,0,0-.9-2.41c-.37-.79-.79-1.61-1.27-2.47Z"/><line class="cls-3" x1="123.66" y1="105.86" x2="337.5" y2="105.86"/></g></g></svg>