<?xml version="1.0" encoding="utf-8"?>
<!-- Generator: Adobe Illustrator 24.2.1, SVG Export Plug-In . SVG Version: 6.00 Build 0)  -->
<svg version="1.1" id="Layer_1" xmlns="http://www.w3.org/2000/svg" xmlns:xlink="http://www.w3.org/1999/xlink" x="0px" y="0px"
	 viewBox="0 0 853.8 75.9" style="enable-background:new 0 0 853.8 75.9;" xml:space="preserve">
<style type="text/css">
	.st0{fill:#53575A;}
	.st1{fill:none;stroke:#53575A;stroke-width:1.88;}
	.st2{fill:none;}
	.st3{fill:none;stroke:#53575A;stroke-width:2.1;}
	.st4{fill:none;stroke:#53575A;stroke-width:1.81;}
	.st5{opacity:0.2;}
	.st6{fill:none;stroke:#53575A;stroke-width:0.25;stroke-miterlimit:10.48;}
	.st7{fill:#FF8300;}
</style>
<path class="st0" d="M6.9,35c-0.2-0.3-0.6-0.6-0.9-0.7C5.6,34.1,5.2,34,4.7,34c-0.2,0-0.5,0-0.7,0.1c-0.2,0.1-0.5,0.1-0.6,0.3
	c-0.4,0.3-0.6,0.7-0.6,1.2c0,0.4,0.1,0.8,0.4,1c0.3,0.2,0.7,0.4,1.1,0.6c0.4,0.2,0.9,0.3,1.4,0.5c0.5,0.1,1,0.4,1.4,0.6
	c0.4,0.3,0.8,0.6,1.1,1.1c0.3,0.5,0.5,1.1,0.4,1.8c0,0.6-0.1,1.2-0.4,1.7c-0.2,0.5-0.6,0.9-1,1.2c-0.4,0.3-0.9,0.6-1.4,0.7
	C5.2,45,4.6,45,4.1,45.1c-0.8,0-1.5-0.1-2.2-0.4C1.1,44.4,0.5,44,0,43.4l1.7-1.6c0.3,0.4,0.6,0.7,1.1,0.9c0.4,0.2,0.9,0.3,1.4,0.3
	c0.3,0,0.5,0,0.8-0.1c0.2-0.1,0.5-0.2,0.7-0.3c0.2-0.1,0.4-0.3,0.5-0.5c0.1-0.2,0.2-0.5,0.2-0.8c0-0.4-0.2-0.7-0.4-1
	c-0.3-0.3-0.7-0.5-1.1-0.6c-0.4-0.2-0.9-0.3-1.4-0.5c-0.5-0.1-1-0.4-1.4-0.6c-0.4-0.2-0.8-0.6-1.1-1c-0.3-0.5-0.5-1.1-0.4-1.8
	c0-0.6,0.1-1.1,0.4-1.7c0.2-0.5,0.6-0.9,1-1.2c0.4-0.3,0.9-0.6,1.5-0.7c0.5-0.1,1.1-0.2,1.7-0.2c0.6,0,1.3,0.1,1.9,0.3
	c0.6,0.2,1.2,0.6,1.6,1L6.9,35z"/>
<path class="st0" d="M10.2,38.6c0-0.9,0.2-1.8,0.5-2.7c0.6-1.6,1.8-2.8,3.4-3.4c0.8-0.3,1.7-0.5,2.6-0.5c0.9,0,1.8,0.1,2.7,0.4
	c0.8,0.3,1.5,0.7,2.1,1.3c0.6,0.6,1.1,1.3,1.4,2.1c0.3,0.9,0.5,1.8,0.5,2.7c0,0.9-0.2,1.8-0.5,2.6c-0.3,0.8-0.8,1.5-1.4,2.1
	c-0.6,0.6-1.3,1-2.1,1.3c-0.8,0.3-1.8,0.5-2.7,0.5c-0.9,0-1.8-0.2-2.6-0.5c-0.8-0.3-1.5-0.7-2.1-1.3c-0.6-0.6-1-1.3-1.4-2
	C10.4,40.4,10.2,39.5,10.2,38.6z M12.6,38.4c0,0.6,0.1,1.2,0.3,1.8c0.2,0.5,0.5,1,0.9,1.4c0.4,0.4,0.8,0.8,1.3,1
	c0.5,0.2,1.1,0.4,1.7,0.4c0.6,0,1.2-0.1,1.8-0.4c0.5-0.2,1-0.6,1.4-1c0.4-0.4,0.7-0.9,0.9-1.4c0.2-0.6,0.3-1.2,0.3-1.8
	c0-0.6-0.1-1.2-0.3-1.7c-0.2-0.5-0.5-1-0.9-1.4c-0.4-0.4-0.8-0.7-1.4-0.9C18,34.1,17.4,34,16.8,34c-0.6,0-1.2,0.1-1.7,0.3
	c-0.5,0.2-1,0.5-1.3,0.9c-0.4,0.4-0.7,0.9-0.9,1.4C12.6,37.2,12.5,37.8,12.6,38.4L12.6,38.4z"/>
<path class="st0" d="M25.5,32.3h8v2h-5.8v3.2h5.5v2h-5.5v5.1h-2.2V32.3z"/>
<path class="st0" d="M38,34.3h-3.8v-2H44v2h-3.8v10.4H38V34.3z"/>
<path class="st0" d="M814.5,32.3h8v2h-5.8v3.2h5.5v2h-5.5v5.1h-2.2V32.3z"/>
<path class="st0" d="M824.4,32.3h2.2v12.4h-2.2V32.3z"/>
<path class="st0" d="M829.4,32.3h4.3c0.6,0,1.2,0.1,1.7,0.2c0.5,0.1,1,0.3,1.5,0.6c0.4,0.3,0.8,0.6,1,1.1c0.6,1.3,0.5,2.8-0.4,4
	c-0.5,0.6-1.3,1-2.1,1.1l3.3,5.5H836l-2.9-5.2h-1.6v5.2h-2.2L829.4,32.3z M833.3,37.6c0.3,0,0.6,0,0.9,0c0.3,0,0.6-0.1,0.9-0.2
	c0.3-0.1,0.5-0.3,0.6-0.5c0.2-0.3,0.3-0.6,0.2-0.9c0-0.3-0.1-0.6-0.2-0.9c-0.2-0.2-0.4-0.4-0.6-0.5c-0.3-0.1-0.5-0.2-0.8-0.2
	c-0.3,0-0.6-0.1-0.9-0.1h-1.9v3.4L833.3,37.6z"/>
<path class="st0" d="M840.4,32.3h3.4l3.3,8.7l3.3-8.7h3.3v12.4h-2.1V34.4l0,0l-3.8,10.3h-1.5l-3.8-10.3l0,0v10.3h-2.1L840.4,32.3z"
	/>
<line class="st1" x1="769.7" y1="38" x2="84.9" y2="38"/>
<rect x="-182.8" y="-2382" class="st2" width="1220" height="5200"/>
<path class="st3" d="M773.8,38c0-3.4,2.7-6.1,6.1-6.1c3.4,0,6.1,2.7,6.1,6.1c0,3.4-2.7,6.1-6.1,6.1c0,0,0,0,0,0
	C776.5,44,773.8,41.3,773.8,38L773.8,38z"/>
<path class="st4" d="M770.6,38c0-5.1,4.1-9.3,9.3-9.3c5.1,0,9.3,4.1,9.3,9.3c0,5.1-4.1,9.3-9.3,9.3c0,0,0,0,0,0
	C774.8,47.2,770.6,43.1,770.6,38z"/>
<path class="st3" d="M68.7,38c0-3.4,2.7-6.1,6.1-6.1c3.4,0,6.1,2.7,6.1,6.1c0,3.4-2.7,6.1-6.1,6.1c0,0,0,0,0,0
	C71.4,44,68.7,41.3,68.7,38L68.7,38z"/>
<path class="st4" d="M65.5,38c0-5.1,4.1-9.3,9.3-9.3c5.1,0,9.3,4.1,9.3,9.3s-4.1,9.3-9.3,9.3C69.6,47.2,65.5,43.1,65.5,38z"/>
<g class="st5">
	<g>
		<path class="st6" d="M399,71.3c-0.8,0.3-1.6,0.5-2.5,0.4c-2.4,0.2-4.5-1.7-4.7-4.1c0-0.2,0-0.4,0-0.6c-0.2-2.6,1.8-4.8,4.4-5
			c0.2,0,0.4,0,0.5,0c0.8,0,1.5,0.1,2.2,0.4l-0.3,1c-0.6-0.3-1.3-0.4-1.9-0.4c-2.2,0-3.7,1.4-3.7,3.9c0,2.3,1.3,3.8,3.6,3.8
			c0.7,0,1.4-0.1,2-0.4L399,71.3z"/>
		<path class="st6" d="M409.3,66.8c0,3.2-2,5-4.4,5s-4.2-1.9-4.2-4.8s1.9-5,4.4-5S409.3,64,409.3,66.8z M402,67c0,2,1.1,3.8,3,3.8
			s3-1.8,3-3.9c0-1.9-1-3.8-3-3.8S402,64.9,402,67L402,67z"/>
		<path class="st6" d="M412.1,62.2v3.9h4.6v-3.9h1.2v9.4h-1.2v-4.4h-4.6v4.4h-1.2v-9.4H412.1z"/>
		<path class="st6" d="M424.9,67.2h-3.7v3.4h4.1v1H420v-9.4h5.1v1h-3.9v3h3.7L424.9,67.2z"/>
		<path class="st6" d="M426.7,70.2c0.7,0.4,1.4,0.6,2.2,0.6c1.2,0,2-0.7,2-1.6s-0.5-1.4-1.8-1.9c-1.5-0.6-2.5-1.4-2.5-2.7
			s1.2-2.6,3.1-2.6c0.7,0,1.4,0.1,2.1,0.5l-0.3,1c-0.6-0.3-1.2-0.5-1.8-0.4c-1.3,0-1.8,0.8-1.8,1.4c0,0.9,0.6,1.3,1.9,1.8
			c1.6,0.6,2.4,1.4,2.4,2.8s-1.1,2.7-3.3,2.7c-0.8,0-1.7-0.2-2.4-0.6L426.7,70.2z"/>
		<path class="st6" d="M435,62.2v9.4h-1.2v-9.4H435z"/>
		<path class="st6" d="M439.2,71.6l-3.1-9.4h1.3l1.5,4.6c0.4,1.3,0.8,2.4,1,3.5l0,0c0.3-1.1,0.7-2.3,1.1-3.5l1.6-4.7h1.3l-3.4,9.4
			H439.2z"/>
		<path class="st6" d="M446.2,62.2v9.4H445v-9.4H446.2z"/>
		<path class="st6" d="M450.1,63.2h-2.8v-1h7v1h-2.9v8.4h-1.2L450.1,63.2z"/>
		<path class="st6" d="M457.4,71.6v-4l-3-5.4h1.4l1.3,2.6c0.4,0.7,0.7,1.3,0.9,1.9l0,0c0.3-0.6,0.6-1.2,1-1.9l1.4-2.6h1.4l-3.2,5.4
			v4L457.4,71.6z"/>
		<path class="st0" d="M399,71.3c-0.8,0.3-1.6,0.5-2.5,0.4c-2.4,0.2-4.5-1.7-4.7-4.1c0-0.2,0-0.4,0-0.6c-0.2-2.6,1.8-4.8,4.4-5
			c0.2,0,0.4,0,0.5,0c0.8,0,1.5,0.1,2.2,0.4l-0.3,1c-0.6-0.3-1.3-0.4-1.9-0.4c-2.2,0-3.7,1.4-3.7,3.9c0,2.3,1.3,3.8,3.6,3.8
			c0.7,0,1.4-0.1,2-0.4L399,71.3z"/>
		<path class="st0" d="M409.3,66.8c0,3.2-2,5-4.4,5s-4.2-1.9-4.2-4.8s1.9-5,4.4-5S409.3,64,409.3,66.8z M402,67c0,2,1.1,3.8,3,3.8
			s3-1.8,3-3.9c0-1.9-1-3.8-3-3.8S402,64.9,402,67L402,67z"/>
		<path class="st0" d="M412.1,62.2v3.9h4.6v-3.9h1.2v9.4h-1.2v-4.4h-4.6v4.4h-1.2v-9.4H412.1z"/>
		<path class="st0" d="M424.9,67.2h-3.7v3.4h4.1v1H420v-9.4h5.1v1h-3.9v3h3.7L424.9,67.2z"/>
		<path class="st0" d="M426.7,70.2c0.7,0.4,1.4,0.6,2.2,0.6c1.2,0,2-0.7,2-1.6s-0.5-1.4-1.8-1.9c-1.5-0.6-2.5-1.4-2.5-2.7
			s1.2-2.6,3.1-2.6c0.7,0,1.4,0.1,2.1,0.5l-0.3,1c-0.6-0.3-1.2-0.5-1.8-0.4c-1.3,0-1.8,0.8-1.8,1.4c0,0.9,0.6,1.3,1.9,1.8
			c1.6,0.6,2.4,1.4,2.4,2.8s-1.1,2.7-3.3,2.7c-0.8,0-1.7-0.2-2.4-0.6L426.7,70.2z"/>
		<path class="st0" d="M435,62.2v9.4h-1.2v-9.4H435z"/>
		<path class="st0" d="M439.2,71.6l-3.1-9.4h1.3l1.5,4.6c0.4,1.3,0.8,2.4,1,3.5l0,0c0.3-1.1,0.7-2.3,1.1-3.5l1.6-4.7h1.3l-3.4,9.4
			H439.2z"/>
		<path class="st0" d="M446.2,62.2v9.4H445v-9.4H446.2z"/>
		<path class="st0" d="M450.1,63.2h-2.8v-1h7v1h-2.9v8.4h-1.2L450.1,63.2z"/>
		<path class="st0" d="M457.4,71.6v-4l-3-5.4h1.4l1.3,2.6c0.4,0.7,0.7,1.3,0.9,1.9l0,0c0.3-0.6,0.6-1.2,1-1.9l1.4-2.6h1.4l-3.2,5.4
			v4L457.4,71.6z"/>
	</g>
</g>
<path class="st7" d="M360.4,42.4c2.5,0,4.5-2,4.5-4.5s-2-4.5-4.5-4.5s-4.5,2-4.5,4.5l0,0C355.9,40.4,357.9,42.4,360.4,42.4
	C360.4,42.4,360.4,42.4,360.4,42.4"/>
<path class="st7" d="M493.4,42.4c2.5,0,4.5-2,4.5-4.5s-2-4.5-4.5-4.5s-4.5,2-4.5,4.5l0,0C488.9,40.4,490.9,42.4,493.4,42.4
	C493.4,42.4,493.4,42.4,493.4,42.4"/>
<path class="st7" d="M315.4,1.3h2.6v8.1h10.1V1.3h2.6v19.5h-2.6v-8.9H318v8.9h-2.6L315.4,1.3z"/>
<path class="st7" d="M335.7,16.7c0.5,0.7,1.1,1.2,1.8,1.6c0.7,0.3,1.5,0.5,2.3,0.5c0.5,0,0.9-0.1,1.3-0.2c0.4-0.1,0.9-0.3,1.2-0.6
	c0.4-0.3,0.7-0.6,0.9-1c0.2-0.4,0.4-0.9,0.4-1.4c0-0.7-0.2-1.3-0.7-1.7c-0.5-0.4-1.1-0.8-1.8-1c-0.7-0.3-1.5-0.5-2.3-0.8
	c-0.8-0.2-1.6-0.6-2.3-1c-0.7-0.4-1.3-1.1-1.8-1.8c-0.5-0.9-0.8-2-0.7-3c0-0.6,0.1-1.2,0.4-1.8c0.3-0.7,0.7-1.3,1.2-1.8
	c0.6-0.6,1.3-1,2-1.3c1-0.4,2-0.6,3-0.5c1,0,2,0.2,3,0.4c1,0.3,1.9,0.9,2.6,1.8l-2.2,2c-0.3-0.5-0.8-1-1.4-1.2
	c-0.6-0.3-1.3-0.5-2.1-0.5c-0.6,0-1.2,0.1-1.8,0.3c-0.4,0.2-0.8,0.4-1.2,0.7c-0.3,0.3-0.5,0.6-0.6,1c-0.1,0.3-0.2,0.7-0.2,1
	c0,0.7,0.2,1.4,0.7,1.9c0.5,0.5,1.1,0.8,1.8,1.1c0.8,0.3,1.5,0.5,2.3,0.7c0.8,0.2,1.6,0.5,2.3,0.9c0.7,0.4,1.3,0.9,1.8,1.6
	c0.5,0.8,0.8,1.8,0.7,2.8c0,0.9-0.2,1.7-0.5,2.5c-0.3,0.7-0.8,1.4-1.4,1.9c-0.6,0.5-1.4,0.9-2.1,1.2c-0.9,0.3-1.7,0.4-2.6,0.4
	c-1.2,0-2.4-0.2-3.5-0.7c-1.1-0.4-2-1.1-2.7-2L335.7,16.7z"/>
<path class="st7" d="M363.4,5.5c-0.6-0.7-1.3-1.3-2.1-1.6c-0.8-0.4-1.7-0.6-2.6-0.6c-1,0-2.1,0.2-3,0.6c-0.9,0.4-1.6,1-2.3,1.7
	c-0.6,0.7-1.1,1.6-1.5,2.5c-0.4,1-0.5,2-0.5,3.1c0,1,0.2,2,0.5,2.9c0.3,0.9,0.8,1.7,1.4,2.4c0.6,0.7,1.4,1.3,2.3,1.6
	c1,0.4,2,0.6,3,0.6c1,0,2-0.2,3-0.7c0.8-0.5,1.6-1.1,2.1-1.9l2.2,1.7c-0.2,0.3-0.5,0.6-0.8,0.9c-0.4,0.4-0.9,0.8-1.5,1.1
	c-0.7,0.4-1.4,0.8-2.2,1c-1,0.3-2,0.4-3,0.4c-1.4,0-2.9-0.3-4.2-0.9c-2.4-1.1-4.2-3.1-5.2-5.5c-0.5-1.2-0.7-2.4-0.7-3.6
	c0-1.4,0.2-2.8,0.7-4.2c0.5-1.2,1.2-2.3,2.1-3.3c0.9-0.9,2-1.7,3.2-2.2c1.3-0.5,2.7-0.8,4.1-0.8c1.3,0,2.6,0.3,3.8,0.7
	c1.2,0.5,2.2,1.3,3,2.3L363.4,5.5z"/>
<path class="st7" d="M388.1,20.7c0,0.9-0.2,1.8-0.5,2.7c-0.3,0.8-0.8,1.5-1.4,2.1c-0.7,0.6-1.4,1.1-2.3,1.4
	c-0.9,0.3-1.9,0.5-2.9,0.5c-1.2,0-2.3-0.2-3.4-0.5c-1.1-0.4-2.1-1-3-1.8l1.7-2.1c0.6,0.7,1.3,1.2,2.1,1.6c1.5,0.7,3.3,0.7,4.8,0.1
	c0.5-0.2,1-0.6,1.4-1c0.4-0.4,0.6-0.9,0.8-1.4c0.1-0.5,0.2-1.1,0.2-1.6v-1.9h-0.1c-0.5,0.8-1.1,1.4-1.9,1.8
	c-0.8,0.4-1.7,0.6-2.6,0.6c-0.9,0-1.8-0.2-2.7-0.5c-0.8-0.3-1.5-0.8-2.1-1.4c-0.6-0.6-1.1-1.3-1.4-2.1c-0.3-0.8-0.5-1.7-0.5-2.6
	c0-0.9,0.1-1.8,0.5-2.7c0.3-0.8,0.8-1.6,1.3-2.2c0.6-0.6,1.3-1.1,2.1-1.4c0.9-0.4,1.8-0.5,2.7-0.5c0.9,0,1.8,0.2,2.6,0.6
	c0.8,0.3,1.5,0.9,2,1.6h0.1V7.8h2.5L388.1,20.7z M381.3,9.7c-0.6,0-1.2,0.1-1.8,0.4c-1,0.4-1.8,1.3-2.2,2.4
	c-0.2,0.6-0.3,1.2-0.3,1.8c-0.1,1.2,0.4,2.3,1.2,3.2c1.8,1.6,4.5,1.6,6.3,0c0.8-0.9,1.2-2,1.2-3.2c0-0.6-0.1-1.2-0.3-1.8
	c-0.4-1.1-1.2-1.9-2.2-2.4C382.6,9.8,382,9.7,381.3,9.7L381.3,9.7z"/>
<path class="st7" d="M393.1,15.2c0,0.5,0.1,1.1,0.4,1.6c0.3,0.5,0.6,0.9,1,1.2c0.4,0.3,0.9,0.6,1.4,0.8c0.5,0.2,1.1,0.3,1.7,0.3
	c0.7,0,1.4-0.2,2-0.5c0.6-0.4,1.1-0.9,1.6-1.4l1.9,1.4c-1.4,1.8-3.5,2.8-5.8,2.7c-1,0-1.9-0.2-2.8-0.5c-0.8-0.3-1.5-0.8-2.1-1.4
	c-0.6-0.6-1-1.4-1.3-2.2c-0.3-0.9-0.5-1.8-0.5-2.7c0-0.9,0.2-1.8,0.5-2.7c0.3-0.8,0.8-1.5,1.4-2.2c0.6-0.6,1.3-1.1,2.1-1.4
	c0.9-0.4,1.8-0.5,2.7-0.5c1,0,2,0.2,2.9,0.6c0.8,0.4,1.5,0.9,2,1.6c0.5,0.7,0.9,1.4,1.1,2.2c0.2,0.8,0.3,1.6,0.3,2.5v0.9L393.1,15.2
	z M400.9,13.2c0-0.5-0.1-1-0.3-1.5c-0.1-0.4-0.4-0.8-0.7-1.2c-0.3-0.4-0.7-0.6-1.2-0.8c-0.5-0.2-1.1-0.3-1.6-0.3
	c-0.6,0-1.1,0.1-1.7,0.4c-0.5,0.2-0.9,0.5-1.3,0.9c-0.3,0.4-0.6,0.8-0.8,1.2c-0.2,0.4-0.3,0.9-0.3,1.3H400.9z"/>
<path class="st7" d="M406.1,0h2.5v20.8h-2.5V0z"/>
<path class="st7" d="M446.7,1.3h2.6v8.1h10.1V1.3h2.6v19.5h-2.6v-8.9h-10.1v8.9h-2.6V1.3z"/>
<path class="st7" d="M467,16.7c0.5,0.7,1.1,1.2,1.8,1.6c0.7,0.3,1.5,0.5,2.3,0.5c0.5,0,0.9-0.1,1.3-0.2c0.5-0.1,0.9-0.3,1.3-0.6
	c0.4-0.3,0.7-0.6,0.9-1c0.2-0.4,0.4-0.9,0.3-1.4c0-0.7-0.2-1.3-0.7-1.7c-0.5-0.4-1.1-0.8-1.8-1c-0.7-0.3-1.5-0.5-2.3-0.8
	c-0.8-0.2-1.6-0.6-2.3-1c-0.7-0.4-1.3-1.1-1.8-1.8c-0.5-0.9-0.8-2-0.7-3c0-0.6,0.1-1.2,0.4-1.8c0.3-0.7,0.7-1.3,1.2-1.8
	c0.6-0.6,1.3-1,2-1.3c1-0.4,2-0.6,3-0.5c1,0,2.1,0.1,3,0.4c1,0.3,1.9,1,2.6,1.8l-2.2,2c-0.4-0.5-0.8-1-1.4-1.2
	c-0.6-0.3-1.3-0.5-2.1-0.5c-0.6,0-1.2,0.1-1.8,0.3c-0.4,0.2-0.8,0.4-1.2,0.7c-0.3,0.3-0.5,0.6-0.6,1c-0.1,0.3-0.2,0.7-0.2,1
	c0,0.7,0.2,1.4,0.7,1.9c0.5,0.5,1.1,0.8,1.8,1.1c0.8,0.3,1.5,0.5,2.3,0.7c0.8,0.2,1.6,0.5,2.3,0.9c0.7,0.4,1.3,0.9,1.8,1.6
	c0.5,0.8,0.8,1.8,0.7,2.8c0,0.9-0.2,1.7-0.5,2.5c-0.3,0.7-0.8,1.4-1.4,1.9c-0.6,0.5-1.4,0.9-2.2,1.2c-0.9,0.3-1.7,0.4-2.6,0.4
	c-1.2,0-2.4-0.2-3.5-0.7c-1.1-0.4-2-1.1-2.7-2L467,16.7z"/>
<path class="st7" d="M494.7,5.5c-0.6-0.7-1.3-1.3-2.1-1.6c-0.8-0.4-1.7-0.6-2.6-0.6c-1,0-2.1,0.2-3,0.6c-0.9,0.4-1.6,1-2.3,1.7
	c-0.7,0.7-1.2,1.6-1.5,2.5c-0.3,1-0.5,2-0.5,3.1c0,1,0.2,2,0.5,2.9c0.3,0.9,0.8,1.7,1.4,2.4c0.6,0.7,1.4,1.3,2.3,1.6
	c0.9,0.4,2,0.6,3,0.6c1,0,2-0.2,2.9-0.7c0.9-0.5,1.6-1.1,2.2-1.9l2.2,1.7c-0.2,0.3-0.5,0.6-0.8,0.9c-0.4,0.4-0.9,0.8-1.5,1.1
	c-0.7,0.4-1.4,0.7-2.2,1c-1,0.3-2,0.4-3,0.4c-1.4,0-2.9-0.3-4.2-0.9c-1.2-0.6-2.3-1.3-3.2-2.3c-0.9-0.9-1.5-2-2-3.2
	c-0.4-1.2-0.7-2.4-0.7-3.6c0-1.4,0.2-2.8,0.7-4.2c0.5-1.2,1.2-2.3,2.1-3.3c0.9-0.9,2-1.7,3.2-2.2c1.3-0.5,2.7-0.8,4.1-0.8
	c1.3,0,2.6,0.3,3.8,0.7c1.2,0.5,2.2,1.3,3,2.3L494.7,5.5z"/>
<path class="st7" d="M499.2,9.5h6.3V3.2h2.1v6.3h6.3v2.1h-6.3v6.3h-2.1v-6.3h-6.3V9.5z"/>
<path class="st7" d="M537.1,20.7c0,0.9-0.2,1.8-0.5,2.7c-0.3,0.8-0.8,1.5-1.4,2.1c-0.6,0.6-1.4,1.1-2.2,1.4
	c-0.9,0.3-1.9,0.5-2.9,0.5c-1.2,0-2.3-0.2-3.4-0.5c-1.1-0.4-2.1-1-3-1.8l1.7-2.1c0.6,0.7,1.3,1.2,2.1,1.6c1.5,0.7,3.3,0.7,4.8,0.1
	c0.5-0.2,1-0.6,1.4-1c0.4-0.4,0.6-0.9,0.8-1.4c0.1-0.5,0.2-1.1,0.2-1.6v-1.9h-0.1c-0.5,0.8-1.1,1.4-1.9,1.8
	c-0.8,0.4-1.7,0.6-2.6,0.6c-0.9,0-1.8-0.2-2.7-0.5c-0.8-0.3-1.5-0.8-2.1-1.4c-0.6-0.6-1.1-1.3-1.4-2.1c-0.3-0.8-0.5-1.7-0.5-2.6
	c0-0.9,0.1-1.8,0.5-2.7c0.3-0.8,0.7-1.6,1.3-2.2c0.6-0.6,1.3-1.1,2.1-1.5c0.9-0.4,1.8-0.5,2.7-0.5c0.9,0,1.8,0.2,2.6,0.6
	c0.8,0.3,1.5,0.9,2,1.6h0.1V7.8h2.5L537.1,20.7z M530.3,9.7c-0.6,0-1.2,0.1-1.8,0.4c-0.5,0.2-1,0.5-1.3,0.9
	c-0.4,0.4-0.7,0.9-0.8,1.4c-0.2,0.6-0.3,1.2-0.3,1.8c-0.1,1.2,0.4,2.3,1.2,3.2c1.8,1.6,4.5,1.6,6.3,0c0.8-0.9,1.2-2,1.2-3.2
	c0-0.6-0.1-1.2-0.3-1.8c-0.2-0.5-0.5-1-0.9-1.4c-0.4-0.4-0.8-0.7-1.3-0.9C531.5,9.8,530.9,9.7,530.3,9.7z"/>
<path class="st7" d="M542.1,15.2c0,0.5,0.1,1.1,0.4,1.6c0.2,0.5,0.6,0.9,1,1.2c0.4,0.3,0.9,0.6,1.4,0.8c0.5,0.2,1.1,0.3,1.7,0.3
	c0.7,0,1.4-0.2,2-0.5c0.6-0.4,1.1-0.9,1.6-1.4l1.9,1.4c-1.4,1.8-3.5,2.8-5.8,2.7c-1,0-1.9-0.2-2.8-0.5c-0.8-0.3-1.5-0.8-2.1-1.4
	c-0.6-0.6-1-1.4-1.3-2.2c-0.3-0.9-0.5-1.8-0.5-2.7c0-0.9,0.2-1.8,0.5-2.7c0.3-0.8,0.8-1.5,1.4-2.2c0.6-0.6,1.3-1.1,2.1-1.4
	c0.9-0.4,1.8-0.5,2.7-0.5c1,0,2,0.2,2.9,0.6c0.8,0.4,1.5,0.9,2,1.6c0.5,0.7,0.9,1.4,1.1,2.2c0.2,0.8,0.3,1.6,0.3,2.5v0.9L542.1,15.2
	z M549.9,13.2c0-0.5-0.1-1-0.3-1.5c-0.1-0.4-0.4-0.8-0.7-1.2c-0.3-0.4-0.7-0.6-1.2-0.8c-0.5-0.2-1.1-0.3-1.6-0.3
	c-0.6,0-1.1,0.1-1.7,0.4c-0.5,0.2-0.9,0.5-1.3,0.9c-0.3,0.4-0.6,0.8-0.8,1.2c-0.2,0.4-0.3,0.9-0.3,1.3H549.9z"/>
<path class="st7" d="M555.1,0h2.5v20.8h-2.5V0z"/>
<rect x="-182.8" y="-2382" class="st2" width="1220" height="5200"/>
<g>
	<g class="st5">
		<g>
			<polygon class="st0" points="494.6,54.2 492.8,54.2 498.9,65 492.8,75.9 494.6,75.9 500.7,65 			"/>
		</g>
	</g>
</g>
</svg>
