<svg xmlns="http://www.w3.org/2000/svg" viewBox="0 0 458.77 167.4"><defs><style>.cls-1{fill:#54575a;}.cls-2{fill:#f58320;}.cls-3{fill:none;stroke:#f58320;}</style></defs><g id="Layer_2" data-name="Layer 2"><g id="Layer_1-2" data-name="Layer 1"><path class="cls-1" d="M91.12,97.72v-.09h-.34a38.61,38.61,0,0,1,2.4-13.5,35.26,35.26,0,0,1,6.54-11,35.84,35.84,0,0,1,4.43-4.21,25.24,25.24,0,0,1,5.12-3.19A26,26,0,0,1,121.05,63a21.44,21.44,0,0,1,8.43,1.64h.08a.52.52,0,0,0,.35.17l.08.08,1.16.52c.37.17.76.37,1.16.6,3,1.44,5.34,2.15,7.06,2.15a7,7,0,0,0,3.87-.86,4.34,4.34,0,0,0,2-3h.61v25h-.61a41.87,41.87,0,0,0-1.24-6A40.26,40.26,0,0,0,142,77.94a30,30,0,0,0-2.54-4.35,27.43,27.43,0,0,0-3.05-3.65,22.09,22.09,0,0,0-7.22-4.82,22.59,22.59,0,0,0-6.88-1.55,15.32,15.32,0,0,0-8.6,2.67,24.45,24.45,0,0,0-7,7.31,39.84,39.84,0,0,0-4.78,10.88,48.88,48.88,0,0,0-1.76,13.29A46.54,46.54,0,0,0,103,114.4a33.22,33.22,0,0,0,7.53,12.13,23.21,23.21,0,0,0,7.65,4.64,8.64,8.64,0,0,0,2,.47,16.94,16.94,0,0,0,2.11.13,31.66,31.66,0,0,0,3.48-.51,20,20,0,0,0,3.4-1,21.19,21.19,0,0,0,7.14-4.81,18.54,18.54,0,0,0,3-3.57,38.48,38.48,0,0,0,2.45-4.34,31.62,31.62,0,0,0,2-5.34,61.12,61.12,0,0,0,1.29-6l.6.09a39.42,39.42,0,0,1-3.35,11.52,28.32,28.32,0,0,1-5.59,8.17,24.23,24.23,0,0,1-7.4,4.82,20.79,20.79,0,0,1-8.34,1.63,25.86,25.86,0,0,1-11.78-2.75,30,30,0,0,1-9.55-7.39,35.26,35.26,0,0,1-6.54-11,38.61,38.61,0,0,1-2.4-13.5Z"/><path class="cls-1" d="M195.87,63.23h29.92v.43l.09.09h-.09v.08h-3.44q-3.87.44-5.37,2.15c-1,1.15-1.51,3.24-1.51,6.28V123a17.14,17.14,0,0,0,.39,4,5,5,0,0,0,3.7,3.95,13.67,13.67,0,0,0,3.65.56h2.67v.61h-30v-.61a34.46,34.46,0,0,0,4.94-.3A6.78,6.78,0,0,0,204,130a5.2,5.2,0,0,0,1.72-2.58,15.21,15.21,0,0,0,.51-4.39V98H171.53v25a17.14,17.14,0,0,0,.39,4,5.33,5.33,0,0,0,1.29,2.54,5.47,5.47,0,0,0,2.4,1.41,13.75,13.75,0,0,0,3.66.56h2.66v.61h-30v-.61a34.52,34.52,0,0,0,5-.3,6.74,6.74,0,0,0,3.22-1.24,5.14,5.14,0,0,0,1.72-2.58,15.16,15.16,0,0,0,.52-4.39V72.35a16.6,16.6,0,0,0-.39-4,5.82,5.82,0,0,0-1.29-2.54,5.09,5.09,0,0,0-2.41-1.42,20,20,0,0,0-3.65-.6h-2.76v-.6h30v.43l.08.09h-.08v.08h-3.53a11.76,11.76,0,0,0-3.18.69A5.36,5.36,0,0,0,173,66a5.64,5.64,0,0,0-1.16,2.5,17.68,17.68,0,0,0-.34,3.78V97.37h34.74v-25c0-3.16-.56-5.32-1.67-6.5s-3.12-1.85-6-2h-2.75Z"/><path class="cls-1" d="M230.35,97.2a36.85,36.85,0,0,1,2.41-13.5,33.07,33.07,0,0,1,6.45-11.1,28.79,28.79,0,0,1,9.46-7.39,26.6,26.6,0,0,1,11.78-2.75h5a26.49,26.49,0,0,1,11.7,2.75,28.61,28.61,0,0,1,9.63,7.39,37.25,37.25,0,0,1,6.53,11.1,39,39,0,0,1,2.33,13.5,38.52,38.52,0,0,1-2.33,13.5,37.13,37.13,0,0,1-6.53,11.1,28.61,28.61,0,0,1-9.63,7.39,26.49,26.49,0,0,1-11.7,2.75h-5a26.6,26.6,0,0,1-11.78-2.75,28.79,28.79,0,0,1-9.46-7.39,33.07,33.07,0,0,1-6.45-11.1A36.85,36.85,0,0,1,230.35,97.2Zm9.38,0a52.78,52.78,0,0,0,1.59,13.16,36.08,36.08,0,0,0,4.77,11,20,20,0,0,0,1.33,2,16.13,16.13,0,0,0,1.51,1.72,21.87,21.87,0,0,0,5.2,4,40.92,40.92,0,0,0,4.09,1.94l1.63.34a8.76,8.76,0,0,0,1.81.17h2.58a7.66,7.66,0,0,0,1.72-.17c.51-.11,1.08-.23,1.72-.34,1-.4,2.3-1.05,4-1.94a23.4,23.4,0,0,0,5.28-4c.46-.51.94-1.08,1.42-1.72s1-1.29,1.42-2a36.91,36.91,0,0,0,4.82-11,53.94,53.94,0,0,0,0-26.32,37,37,0,0,0-4.82-11c-.46-.68-.93-1.34-1.42-2s-1-1.21-1.42-1.72a23.4,23.4,0,0,0-5.28-4c-1.7-.89-3-1.54-4-1.94L266,63.1a10.11,10.11,0,0,0-1.72-.13h-2.58a14.41,14.41,0,0,0-3.44.43,40.92,40.92,0,0,0-4.09,1.94,21.87,21.87,0,0,0-5.2,4,17.18,17.18,0,0,0-1.51,1.72,20,20,0,0,0-1.33,2,36.19,36.19,0,0,0-4.77,11A52.78,52.78,0,0,0,239.73,97.2Z"/><path class="cls-1" d="M306.16,131.3a6.78,6.78,0,0,0,3.23-1.25,5.2,5.2,0,0,0,1.72-2.58,15.18,15.18,0,0,0,.51-4.38V72.43c0-3.15-.56-5.32-1.68-6.49s-3.11-1.85-6-2h-2.76V63.4h29.93v.43h0v.09H327.7c-2.58.29-4.37,1-5.37,2.15s-1.51,3.24-1.51,6.28v50.82a16.6,16.6,0,0,0,.39,4,5.06,5.06,0,0,0,3.7,3.91,14.08,14.08,0,0,0,3.65.56h2.67v.6h-30v-.6A34.52,34.52,0,0,0,306.16,131.3Z"/><path class="cls-1" d="M337.77,97.72v-.09h-.35a38.32,38.32,0,0,1,2.41-13.5,34.89,34.89,0,0,1,6.54-11,35.76,35.76,0,0,1,4.42-4.21A27.81,27.81,0,0,1,367.69,63a21.44,21.44,0,0,1,8.43,1.64h.09a.5.5,0,0,0,.34.17l.09.08,1.16.52c.37.17.76.37,1.16.6,3,1.44,5.33,2.15,7.05,2.15a7,7,0,0,0,3.87-.86,4.38,4.38,0,0,0,2-3h.6v25h-.6a41.86,41.86,0,0,0-1.25-6,40.25,40.25,0,0,0-1.93-5.33,31,31,0,0,0-2.54-4.35,28.21,28.21,0,0,0-3.05-3.65,22.13,22.13,0,0,0-7.23-4.82A22.52,22.52,0,0,0,369,63.57a15.34,15.34,0,0,0-8.6,2.67,24.69,24.69,0,0,0-7.05,7.31,39.53,39.53,0,0,0-4.77,10.88,48.5,48.5,0,0,0-1.77,13.29,46.33,46.33,0,0,0,2.89,16.68,33.34,33.34,0,0,0,7.52,12.13,23.1,23.1,0,0,0,7.66,4.64,8.64,8.64,0,0,0,2,.47,16.67,16.67,0,0,0,2.1.13,31.49,31.49,0,0,0,3.49-.51,19.89,19.89,0,0,0,3.39-1,21.19,21.19,0,0,0,7.14-4.81,18.2,18.2,0,0,0,3.05-3.57,37,37,0,0,0,2.45-4.34,30,30,0,0,0,2-5.34,55.84,55.84,0,0,0,1.29-6l.6.09A39.11,39.11,0,0,1,389,117.75a27.93,27.93,0,0,1-5.59,8.17,24.11,24.11,0,0,1-7.4,4.82,20.79,20.79,0,0,1-8.34,1.63,25.92,25.92,0,0,1-11.78-2.75,29.94,29.94,0,0,1-9.54-7.39,34.89,34.89,0,0,1-6.54-11,38.32,38.32,0,0,1-2.41-13.5Z"/><path class="cls-1" d="M442.6,130.74a20.5,20.5,0,0,0,5-2.24,18.2,18.2,0,0,0,3.82-3.14,25.14,25.14,0,0,0,2.84-3.65,29.2,29.2,0,0,0,3.87-10h.61l-2.5,20.47H399.42v-.6a34.52,34.52,0,0,0,4.95-.3,6.7,6.7,0,0,0,3.22-1.25,5.15,5.15,0,0,0,1.73-2.58,15.18,15.18,0,0,0,.51-4.38V73.46a2.92,2.92,0,0,0,0-.51,3.05,3.05,0,0,1-.05-.52c0-3.15-.55-5.32-1.67-6.49s-3.11-1.85-6-2h-2.75V63.4h54.52V81.46h-.6v-.08c-.46-1.9-1-3.87-1.59-5.94a17.38,17.38,0,0,0-2.8-5.63,14.64,14.64,0,0,0-5.16-4.22,19,19,0,0,0-8.59-1.67H419V97.54h12.29a9.8,9.8,0,0,0,5.81-1.67,11.3,11.3,0,0,0,3.18-3.57,11.46,11.46,0,0,0,1.34-3.79,21.09,21.09,0,0,0,.25-2.4v-.26h.6v24h-.6v-.26a23.38,23.38,0,0,0-.25-2.49,11.5,11.5,0,0,0-1.38-3.91,10.83,10.83,0,0,0-3.31-3.57,10.37,10.37,0,0,0-6.06-1.55H419v23.56a10.48,10.48,0,0,1,.08,1.55,16.6,16.6,0,0,0,.39,4,5.1,5.1,0,0,0,3.66,3.91,13.48,13.48,0,0,0,3.61.56h9.54A22.11,22.11,0,0,0,442.6,130.74Z"/><path class="cls-2" d="M15.65,40.38a1.69,1.69,0,0,1-1.44-.13,3.24,3.24,0,0,1-.94-.94,5.4,5.4,0,0,1-.62-1.25A4.71,4.71,0,0,0,12,36.88a9.64,9.64,0,0,0-4.25,4.06,29.79,29.79,0,0,0-2.62,5.94,26.2,26.2,0,0,0-.88,3.43,25.76,25.76,0,0,0-.44,3.88,12.82,12.82,0,0,0,.38,3.62A4.14,4.14,0,0,0,6,60.38a10.47,10.47,0,0,0,5.63-2.13A52,52,0,0,1,16,55c2.92-2.17,5.75-4.39,8.5-6.69s5.54-4.6,8.38-6.93c.66-.5,1.35-1.05,2.06-1.63a26.44,26.44,0,0,1,2.19-1.63,4.61,4.61,0,0,1,1.06-.74c.45-.26.89-.5,1.31-.76A10.9,10.9,0,0,0,40.83,36a.83.83,0,0,1,1.19.38c.25.66.14,1.12-.31,1.37a5.15,5.15,0,0,0-1.19.87c-1.17.84-2.27,1.69-3.31,2.57S35.1,43,34,43.88q-4.62,3.87-9.19,8.31a102.59,102.59,0,0,1-9.68,8.31,37,37,0,0,1-4.75,3.06A7.84,7.84,0,0,1,4.27,64a6.43,6.43,0,0,1-3.19-3.56A17,17,0,0,1,0,55.06a24.75,24.75,0,0,1,.5-6A32.55,32.55,0,0,1,2.15,43.5,23.62,23.62,0,0,1,9,33.62c.42-.16.75-.31,1-.43a3.7,3.7,0,0,1,1-.31c.08,0,.13,0,.13-.07s0-.06.12-.06H12.4a3.87,3.87,0,0,1,1,.13,4.73,4.73,0,0,1,2.75,3.62,8.9,8.9,0,0,0,0,2.19A1.82,1.82,0,0,1,15.65,40.38Z"/><path class="cls-2" d="M48.77,33.12a9.78,9.78,0,0,1,6.69,2.63,12.08,12.08,0,0,1,3.06,6.37q4-.75,8.31-1.68c2.88-.63,5.69-1.27,8.44-1.94a8.74,8.74,0,0,0,1.25-.44,11.36,11.36,0,0,1,1.56-.5,4.66,4.66,0,0,1,1.44-.12,1,1,0,0,1,.87.56.76.76,0,0,1-.25,1,5.79,5.79,0,0,1-1.25.69,9.59,9.59,0,0,1-1.62.5c-.58.12-1,.23-1.25.31q-4,1.24-8.44,2.19c-3,.62-5.89,1.23-8.81,1.81a26.17,26.17,0,0,1-1.06,9.06,31.64,31.64,0,0,1-3.44,7.69,39.41,39.41,0,0,1-4.81,6A13.9,13.9,0,0,1,42.89,71H41a5.05,5.05,0,0,1-2.13-.94,17.32,17.32,0,0,1-1.62-1.44,11,11,0,0,1-1.94-5.43,32.75,32.75,0,0,1,.06-6.63,60.15,60.15,0,0,1,1.13-6.75c.5-2.2,1-4.19,1.37-5.93a4.93,4.93,0,0,1-.06-4.5,9.86,9.86,0,0,1,2.44-3.26,22.19,22.19,0,0,0,.94-2.62,21,21,0,0,1,1.06-2.88,9,9,0,0,1,1.56-2.37,3.19,3.19,0,0,1,2.44-1,2.45,2.45,0,0,1,2.5,1.81A6.68,6.68,0,0,1,48.77,33.12Zm-6,13q-.63,3.63-1.56,7.82a30.58,30.58,0,0,0-.69,8.56A10.76,10.76,0,0,0,41,64.62a3.06,3.06,0,0,0,1.18,1.63,9.64,9.64,0,0,0,5.75-3c1.42-1.58,2.75-3.21,4-4.87a47,47,0,0,0,3-6.07,15.05,15.05,0,0,0,1-7.31,56.59,56.59,0,0,1-6.37.94A50.74,50.74,0,0,1,42.77,46.12Zm5.5-10.37A3.81,3.81,0,0,0,48,37.19a.83.83,0,0,1-.75.93,1.63,1.63,0,0,1-.56-.06,3.42,3.42,0,0,1-.44-.18,2.33,2.33,0,0,1-.13-1.76,5.33,5.33,0,0,0-.93,1.63c-.21.58-.4,1.21-.57,1.87a19.91,19.91,0,0,0-.62,2c-.17.67-.33,1.34-.5,2q3.49,0,6.5-.24t5.87-.76a9.83,9.83,0,0,0-2.31-4.93Q51.9,35.88,48.27,35.75Z"/><path class="cls-2" d="M79.64,55.38q2.51-4.76,5-9.69a46.39,46.39,0,0,1,5.88-8.94c.33-.42.75-.92,1.25-1.5a9.49,9.49,0,0,1,1.62-1.5,5.32,5.32,0,0,1,1.94-.87,3.79,3.79,0,0,1,2.31.24q1.88.89,2.75,3.88t1.5,6q.26,1.38.57,2.88c.2,1,.43,2,.68,3a22.14,22.14,0,0,0,1,2.81,2.7,2.7,0,0,0,1.5,1.69,2.11,2.11,0,0,0,1.88-.44,12.75,12.75,0,0,1,1.5-1.06c.5-.42,1-.77,1.37-1.07a8.49,8.49,0,0,0,1.25-1.06,52,52,0,0,0,5.25-5.25,67.81,67.81,0,0,1,5.25-5.38,21.87,21.87,0,0,1,2.19-1.43,3.21,3.21,0,0,1,1.5-.44q.69,0,.81.87t-.81,1.26a6.08,6.08,0,0,0-1.44,1,32,32,0,0,0-3.5,3.56c-1.16,1.37-2.41,2.77-3.75,4.18-.66.67-1.31,1.3-1.93,1.88s-1.28,1.21-1.94,1.88C112.18,53,111,54,109.77,55.06a7.33,7.33,0,0,1-4.88,1.56c-.16-.08-.35-.16-.56-.24a1.73,1.73,0,0,0-.69-.13,7.78,7.78,0,0,1-3.06-3.87A39.35,39.35,0,0,1,99,47.06c-.42-1.87-.81-3.75-1.19-5.62A17.25,17.25,0,0,0,96,36.38a7.36,7.36,0,0,0-3.25,2.81,41,41,0,0,1-2.5,3.56A57.09,57.09,0,0,0,86,50.5q-1.87,4.13-3.63,8.5a7.85,7.85,0,0,0-.87,1.94,20.73,20.73,0,0,1-.88,2.31,6.32,6.32,0,0,1-1.31,1.94,2.32,2.32,0,0,1-2.19.56,2.05,2.05,0,0,1-1.68-1.31,7.67,7.67,0,0,1-.69-2.75,28.63,28.63,0,0,1-.06-3.38c0-1.2.1-2.31.18-3.31q.51-6,1.38-11.69a69.45,69.45,0,0,1,2.37-10.43c.34-.92.63-1.76.88-2.5a1.75,1.75,0,0,1,1.62-1.26,1.44,1.44,0,0,1,1.57.69,3.65,3.65,0,0,1,.37,1.94,14.63,14.63,0,0,1-.37,2.44c-.21.87-.36,1.6-.44,2.19q-.88,4.74-1.5,9.5C80.35,49,80,52.21,79.64,55.38Z"/><path class="cls-2" d="M144.89,8.62c-.42.26-.71.19-.87-.18a3,3,0,0,0-.5-.82,8.4,8.4,0,0,0-1.44-1.06,3,3,0,0,0-2.19-.31,3.61,3.61,0,0,0-2.37,2.19c-.67,1.29-1.21,2.39-1.63,3.31a66.09,66.09,0,0,0-3.56,10.75q-1.44,5.88-2.44,11.5,5-1.87,10.63-4.12a75.92,75.92,0,0,1,11.87-3.63,52,52,0,0,1,6.19-.94,14.58,14.58,0,0,1,6.19.69c.41.17.87.38,1.37.62a1.23,1.23,0,0,1,.63,1.38,2.05,2.05,0,0,1-2.25.38,9,9,0,0,0-2.63-.63,14.68,14.68,0,0,0-4.87.31c-1.59.38-3.13.77-4.63,1.19s-2.94.86-4.31,1.31-2.65.94-3.81,1.44q-4.12,1.38-7.88,3.06T129,38.62q-.63,3.89-1.13,8c-.33,2.76-.67,5.59-1,8.5-.08.92-.19,1.86-.31,2.82a12.06,12.06,0,0,0-.06,2.81,9.5,9.5,0,0,0,.5,2.06c.25.71.45,1.4.62,2.07a79.71,79.71,0,0,1,2,23.62c0,.92,0,1.85-.12,2.81a12.79,12.79,0,0,1-.5,2.63,4.7,4.7,0,0,1-1.13,1.94,2.7,2.7,0,0,1-2,.74,2.48,2.48,0,0,1-1.81-.68A4.63,4.63,0,0,1,123,94.25a11.67,11.67,0,0,1-.57-2.13c-.12-.74-.22-1.45-.31-2.12a74.46,74.46,0,0,1-1.06-11.94q-.06-6.18.31-12.56c.09-.83.19-1.67.31-2.5a9.13,9.13,0,0,0,.07-2.38,5.75,5.75,0,0,0-.69-2c-.38-.66-.73-1.33-1.06-2A19,19,0,0,0,117.83,53c-.79-1-1.65-2.08-2.56-3.25-.42-.5-.86-1.06-1.32-1.69a3.44,3.44,0,0,1-.68-2.06,3.68,3.68,0,0,1,.5-1.88A7.64,7.64,0,0,1,115,42.5a9.59,9.59,0,0,1,1.62-1.31,15.66,15.66,0,0,0,1.5-1.07c1.17-.74,2.27-1.39,3.31-1.93s2.19-1.15,3.44-1.81c.75-4.09,1.73-8.27,2.94-12.57A102.9,102.9,0,0,1,131.89,12a35.43,35.43,0,0,1,2.69-4.88,8.62,8.62,0,0,1,4.06-3.37c0,.08.08,0,.25-.13a4.53,4.53,0,0,1,2.88.57c.66.46,1.33.93,2,1.43A8.53,8.53,0,0,0,144.83,7,1.16,1.16,0,0,1,144.89,8.62ZM117.77,45.88a33,33,0,0,1,2.56,2.87A26.35,26.35,0,0,1,122.52,52c.25-1.75.48-3.52.68-5.31s.48-3.52.82-5.19l-.13-.12c-1.08.74-2.16,1.45-3.25,2.12A13.23,13.23,0,0,0,117.77,45.88Z"/><path class="cls-2" d="M155.39,36.12a1.93,1.93,0,0,1,.44,1.38q-.06.75-.06,1.62c-.09,1.42-.11,3-.07,4.63s.07,3.29.07,4.87,0,3.13-.07,4.63a5.44,5.44,0,0,1-1.31,3.63h-1a4.14,4.14,0,0,1-.94-1.94,19.85,19.85,0,0,1-.43-2.82c-.09-1.83-.11-3.74-.07-5.74a56.45,56.45,0,0,1,.44-5.88c.09-.5.17-1.08.25-1.75a6.88,6.88,0,0,1,.44-1.75,2.09,2.09,0,0,1,.87-1.06A1.45,1.45,0,0,1,155.39,36.12ZM156,11.88a2.88,2.88,0,0,1-1,2,1.36,1.36,0,0,1-1.44-.26,2,2,0,0,1-.5-1.18,1.53,1.53,0,0,1,.37-1.19,1.55,1.55,0,0,1,1.44-.37C155.56,11.21,155.93,11.54,156,11.88Z"/><path class="cls-2" d="M186.14,0a1.61,1.61,0,0,1,1.25,1.25,5.87,5.87,0,0,1,.06,2.31,21.14,21.14,0,0,1-.56,2.69,19,19,0,0,0-.5,2.25q-1,5.5-1.94,11.56T183,32.44q-.51,6.31-.44,12.75a84.87,84.87,0,0,0,1.06,12.69,26.69,26.69,0,0,0,.75,3.62,9.61,9.61,0,0,0,1.5,3.12,8.1,8.1,0,0,0,3.38-2.87q1.24-1.87,2.62-3.63a90.19,90.19,0,0,0,5.69-10,105.52,105.52,0,0,1,5.56-10,14.28,14.28,0,0,0,1.19-2,1.69,1.69,0,0,1,1.81-1,1.5,1.5,0,0,1,.25,2,19.76,19.76,0,0,1-1.12,2c-.92,2-1.92,4-3,6.07s-2.13,4-3.13,5.93q-2.13,4-4.19,8.07A32,32,0,0,1,190,66.38a14.37,14.37,0,0,0-1.88,1.37,3.51,3.51,0,0,1-2.37.75,3.91,3.91,0,0,1-2.38-1.06,7.6,7.6,0,0,1-1.62-2.19,13.13,13.13,0,0,1-1-2.75q-.37-1.5-.63-2.88a62.61,62.61,0,0,1-1-8.31q-.25-4.43-.19-8.87t.44-8.75q.38-4.32.88-8.07-1.12,2.64-2.19,5.38c-.71,1.83-1.44,3.67-2.19,5.5a4.25,4.25,0,0,1,.44.88c.12.33.27.7.44,1.12a17.54,17.54,0,0,1,.37,2,3,3,0,0,1-.25,1.75,1.19,1.19,0,0,1-1.44-.44,5,5,0,0,0-1.06-1.19q-1.75,4.5-3.44,9.44A62.41,62.41,0,0,1,167,59.25,26.25,26.25,0,0,1,165.27,62a3.35,3.35,0,0,1-2.88,1.38,2.12,2.12,0,0,1-1.12-.5,7.66,7.66,0,0,0-.88-.76,9.56,9.56,0,0,1-.87-5.31,45.32,45.32,0,0,1,.87-6.06,72.24,72.24,0,0,1,2-7,23,23,0,0,1,3.25-6.13,11.94,11.94,0,0,1,3-3.12,4.92,4.92,0,0,1,4.63-.5q2.86-6.49,5.5-14.44t5-15.56c.33-.92.62-1.77.87-2.56A2,2,0,0,1,186.14,0ZM171.39,37.88a4.43,4.43,0,0,0-2.06,1.5,13.78,13.78,0,0,0-1.56,2.24,33.34,33.34,0,0,0-3,7.63,50.44,50.44,0,0,0-1.5,8.63,50.36,50.36,0,0,0,4.12-8.5q1.76-4.64,3.38-9c.16-.42.35-.84.56-1.26a1.88,1.88,0,0,0,.19-1.24Z"/><path class="cls-2" d="M205.64,43.38A24.48,24.48,0,0,0,204,47.94a21.28,21.28,0,0,0-.75,5.5,9.37,9.37,0,0,0,1.12,4.68,4.41,4.41,0,0,0,4,2.13,12.39,12.39,0,0,0,6.19-1.37q2.92-1.5,5.06-2.88c1.67-1.17,3.23-2.31,4.69-3.44s2.77-2.23,3.94-3.31a71.59,71.59,0,0,0,6.18-5.37Q237.39,41,240.27,38a3.21,3.21,0,0,0,.81-1,10.77,10.77,0,0,1,.94-1.38,6.64,6.64,0,0,1,1.06-1.06,1,1,0,0,1,1.19-.06c.58.25.7.75.37,1.5a8.57,8.57,0,0,1-.87,1.62A4.63,4.63,0,0,1,243,39c-.34.42-.67.88-1,1.38q-3.14,3.61-6.57,6.87t-7.06,6.5a51.47,51.47,0,0,1-10.5,7.5,28.72,28.72,0,0,1-3.12,1.44,18.07,18.07,0,0,1-3.63,1,16.69,16.69,0,0,1-3.81.19,7.62,7.62,0,0,1-3.56-1.13,6,6,0,0,1-1.32-1.19l-1.18-1.44a12,12,0,0,1-1.57-5.31,23.83,23.83,0,0,1,.38-5.93,35.88,35.88,0,0,1,1.56-5.76,36.48,36.48,0,0,1,2-4.62,52.73,52.73,0,0,1,5-7.38,14.64,14.64,0,0,1,7.63-4.74,6,6,0,0,1,4.18,1.12,4.31,4.31,0,0,1,1.32,4,8.21,8.21,0,0,1-1.5,3.75,25.11,25.11,0,0,1-2.63,3.13,27.88,27.88,0,0,1-4.94,3.93C210.91,43.44,208.56,43.79,205.64,43.38ZM217.27,30a13,13,0,0,0-6.63,4.56,46.59,46.59,0,0,0-4.25,6.94A7.83,7.83,0,0,0,211,40.25a34.18,34.18,0,0,0,3.25-2.63c.91-1,1.87-2,2.87-3a5.38,5.38,0,0,0,1.38-4.24A1.35,1.35,0,0,0,217.27,30Z"/><path class="cls-2" d="M242,55.38q2.51-4.76,5-9.69a46.39,46.39,0,0,1,5.88-8.94c.33-.42.75-.92,1.25-1.5a9.49,9.49,0,0,1,1.62-1.5,5.32,5.32,0,0,1,1.94-.87,3.79,3.79,0,0,1,2.31.24q1.88.89,2.75,3.88t1.5,6q.25,1.38.57,2.88c.2,1,.43,2,.68,3a22.14,22.14,0,0,0,1,2.81,2.7,2.7,0,0,0,1.5,1.69,2.11,2.11,0,0,0,1.88-.44,12.75,12.75,0,0,1,1.5-1.06c.5-.42,1-.77,1.37-1.07A8.49,8.49,0,0,0,274,49.75a52,52,0,0,0,5.25-5.25,67.81,67.81,0,0,1,5.25-5.38,21.87,21.87,0,0,1,2.19-1.43,3.21,3.21,0,0,1,1.5-.44q.69,0,.81.87t-.81,1.26a6.08,6.08,0,0,0-1.44,1,32,32,0,0,0-3.5,3.56c-1.16,1.37-2.41,2.77-3.75,4.18-.66.67-1.31,1.3-1.93,1.88s-1.28,1.21-1.94,1.88c-1.09,1.08-2.25,2.14-3.5,3.18a7.33,7.33,0,0,1-4.88,1.56c-.16-.08-.35-.16-.56-.24a1.73,1.73,0,0,0-.69-.13A7.78,7.78,0,0,1,263,52.38a39.35,39.35,0,0,1-1.56-5.32c-.42-1.87-.81-3.75-1.19-5.62a17.25,17.25,0,0,0-1.81-5.06,7.36,7.36,0,0,0-3.25,2.81,38.94,38.94,0,0,1-2.5,3.56,58.2,58.2,0,0,0-4.25,7.75q-1.87,4.13-3.63,8.5a7.85,7.85,0,0,0-.87,1.94,20.73,20.73,0,0,1-.88,2.31,6.32,6.32,0,0,1-1.31,1.94,2.32,2.32,0,0,1-2.19.56,2.05,2.05,0,0,1-1.68-1.31,7.67,7.67,0,0,1-.69-2.75,31,31,0,0,1-.06-3.38c0-1.2.1-2.31.18-3.31q.51-6,1.38-11.69A69.45,69.45,0,0,1,241,32.88c.34-.92.63-1.76.88-2.5a1.75,1.75,0,0,1,1.62-1.26,1.44,1.44,0,0,1,1.57.69,3.65,3.65,0,0,1,.37,1.94,14.63,14.63,0,0,1-.37,2.44c-.21.87-.36,1.6-.44,2.19q-.87,4.74-1.5,9.5C242.72,49,242.35,52.21,242,55.38Z"/><path class="cls-2" d="M297.14,40.38a1.7,1.7,0,0,1-1.44-.13,3.37,3.37,0,0,1-.94-.94,5.4,5.4,0,0,1-.62-1.25,4.71,4.71,0,0,0-.63-1.18,9.64,9.64,0,0,0-4.25,4.06,29.79,29.79,0,0,0-2.62,5.94,27.89,27.89,0,0,0-.88,3.43,24.5,24.5,0,0,0-.43,3.88,12.47,12.47,0,0,0,.37,3.62,4.18,4.18,0,0,0,1.81,2.57,10.47,10.47,0,0,0,5.63-2.13A52,52,0,0,1,297.51,55c2.92-2.17,5.75-4.39,8.5-6.69s5.54-4.6,8.38-6.93c.66-.5,1.35-1.05,2.06-1.63s1.44-1.13,2.19-1.63a4.61,4.61,0,0,1,1.06-.74c.46-.26.89-.5,1.31-.76a11,11,0,0,0,1.32-.62c.45-.25.85-.12,1.18.38.25.66.15,1.12-.31,1.37a5.15,5.15,0,0,0-1.19.87c-1.17.84-2.27,1.69-3.31,2.57l-3.19,2.69q-4.62,3.87-9.18,8.31a104,104,0,0,1-9.69,8.31,37,37,0,0,1-4.75,3.06,7.84,7.84,0,0,1-6.13.44,6.38,6.38,0,0,1-3.18-3.56,17,17,0,0,1-1.07-5.38,25.26,25.26,0,0,1,.5-6,32.55,32.55,0,0,1,1.63-5.56,23.62,23.62,0,0,1,6.87-9.88c.42-.16.75-.31,1-.43a3.7,3.7,0,0,1,1-.31c.08,0,.13,0,.13-.07s0-.06.12-.06h1.13a3.87,3.87,0,0,1,1,.13,4.73,4.73,0,0,1,2.75,3.62,8.9,8.9,0,0,0,0,2.19A1.82,1.82,0,0,1,297.14,40.38Z"/><path class="cls-2" d="M322.89,43.38a23.72,23.72,0,0,0-1.63,4.56,21.28,21.28,0,0,0-.75,5.5,9.37,9.37,0,0,0,1.13,4.68,4.41,4.41,0,0,0,4,2.13,12.41,12.41,0,0,0,6.19-1.37q2.93-1.5,5.06-2.88c1.66-1.17,3.23-2.31,4.69-3.44s2.76-2.23,3.93-3.31a70.25,70.25,0,0,0,6.19-5.37c2-1.92,3.89-3.88,5.81-5.88a3.21,3.21,0,0,0,.82-1,11.86,11.86,0,0,1,.93-1.38,6.69,6.69,0,0,1,1.07-1.06,1,1,0,0,1,1.18-.06c.58.25.71.75.38,1.5a9.09,9.09,0,0,1-.88,1.62,4.63,4.63,0,0,1-.75,1.38c-.33.42-.67.88-1,1.38a94.75,94.75,0,0,1-6.56,6.87q-3.43,3.26-7.06,6.5a51.47,51.47,0,0,1-10.5,7.5A28.06,28.06,0,0,1,332,62.69a18,18,0,0,1-3.62,1,16.69,16.69,0,0,1-3.81.19A7.66,7.66,0,0,1,321,62.75a5.93,5.93,0,0,1-1.31-1.19l-1.19-1.44A12.09,12.09,0,0,1,317,54.81a23.83,23.83,0,0,1,.38-5.93,35.88,35.88,0,0,1,1.56-5.76,36.48,36.48,0,0,1,2-4.62,51.88,51.88,0,0,1,5-7.38,14.61,14.61,0,0,1,7.62-4.74,6,6,0,0,1,4.19,1.12,4.28,4.28,0,0,1,1.31,4,8.21,8.21,0,0,1-1.5,3.75,25.06,25.06,0,0,1-2.62,3.13A27.88,27.88,0,0,1,330,42.31C328.16,43.44,325.8,43.79,322.89,43.38ZM334.51,30a13,13,0,0,0-6.62,4.56,45.77,45.77,0,0,0-4.25,6.94,7.82,7.82,0,0,0,4.62-1.25,33,33,0,0,0,3.25-2.63q1.38-1.5,2.88-3a5.37,5.37,0,0,0,1.37-4.24A1.34,1.34,0,0,0,334.51,30Z"/><line class="cls-3" x1="133.4" y1="166.9" x2="397.4" y2="166.9"/><path class="cls-1" d="M371.94,36.86a1.23,1.23,0,0,1-.42,1,1.32,1.32,0,0,1-1.85,0,1.32,1.32,0,0,1,0-1.93,1.32,1.32,0,0,1,1.85,0A1.24,1.24,0,0,1,371.94,36.86ZM371.52,55h-1.85V41.9h1.85Z"/><path class="cls-1" d="M378.29,41.9c0,.35.06.7.07,1.05s0,.69,0,1h.06a4.54,4.54,0,0,1,.78-1,5.11,5.11,0,0,1,1.07-.77,5.58,5.58,0,0,1,1.24-.51,5,5,0,0,1,1.31-.18,4.76,4.76,0,0,1,3.72,1.33,5.48,5.48,0,0,1,1.2,3.8V55h-1.84V47.75a6.2,6.2,0,0,0-.76-3.35,3.1,3.1,0,0,0-2.8-1.16c-.09,0-.35,0-.78.11a3.41,3.41,0,0,0-1.36.62,4.54,4.54,0,0,0-1.28,1.51,5.86,5.86,0,0,0-.56,2.8V55h-1.84V44.78c0-.35,0-.8,0-1.34s-.06-1.06-.09-1.54Z"/><path class="cls-1" d="M404.75,52.73l4-10.83H411l-6.55,16.52a6.8,6.8,0,0,1-1.5,2.41,3.59,3.59,0,0,1-2.61.89l-.86,0a3.13,3.13,0,0,1-.85-.17l.19-1.79a3,3,0,0,0,1.4.31,1.93,1.93,0,0,0,1.54-.62,5.18,5.18,0,0,0,1-1.73l1-2.52L398.31,41.9h2.32Z"/><path class="cls-1" d="M426.62,48.45a7,7,0,0,1-.52,2.74,6.45,6.45,0,0,1-3.64,3.63,7.8,7.8,0,0,1-5.6,0,6.45,6.45,0,0,1-3.64-3.63,7.48,7.48,0,0,1,0-5.48,6.73,6.73,0,0,1,1.44-2.19,6.46,6.46,0,0,1,2.2-1.44,7.8,7.8,0,0,1,5.6,0,6.46,6.46,0,0,1,2.2,1.44,6.73,6.73,0,0,1,1.44,2.19A7,7,0,0,1,426.62,48.45Zm-2,0a5.77,5.77,0,0,0-.35-2.05,4.91,4.91,0,0,0-1-1.65,4.74,4.74,0,0,0-1.56-1.1,5.36,5.36,0,0,0-4.11,0,4.55,4.55,0,0,0-1.54,1.1,5.05,5.05,0,0,0-1,1.65,5.77,5.77,0,0,0-.35,2.05,5.68,5.68,0,0,0,.35,2,5,5,0,0,0,1,1.66,4.55,4.55,0,0,0,1.54,1.1,5.36,5.36,0,0,0,4.11,0,4.74,4.74,0,0,0,1.56-1.1,4.86,4.86,0,0,0,1-1.66A5.68,5.68,0,0,0,424.6,48.45Z"/><path class="cls-1" d="M439.44,55c0-.35-.06-.7-.07-1s0-.69,0-1.05h-.06a4.26,4.26,0,0,1-.78,1,4.86,4.86,0,0,1-1.07.77,5.37,5.37,0,0,1-1.24.5,4.6,4.6,0,0,1-1.3.19A4.82,4.82,0,0,1,431.18,54a5.48,5.48,0,0,1-1.2-3.8V41.9h1.85v7.25a10.09,10.09,0,0,0,.16,1.93,3.89,3.89,0,0,0,.58,1.42,2.46,2.46,0,0,0,1.09.86,4.31,4.31,0,0,0,1.72.3,6.49,6.49,0,0,0,.79-.12,3.27,3.27,0,0,0,1.35-.61,4.54,4.54,0,0,0,1.28-1.51,5.86,5.86,0,0,0,.56-2.8V41.9h1.85V52.12c0,.35,0,.8,0,1.34s.06,1.06.1,1.54Z"/><path class="cls-1" d="M445.74,46c0-.57,0-1.16,0-1.76s-.05-1.37-.07-2.32h1.82v2.43h.06a4,4,0,0,1,.56-1,4.08,4.08,0,0,1,.88-.88,4.27,4.27,0,0,1,1.2-.63,4.73,4.73,0,0,1,1.56-.24,5.08,5.08,0,0,1,1.37.17l-.37,1.82a3.14,3.14,0,0,0-1.06-.14,3.79,3.79,0,0,0-1.82.4,4.28,4.28,0,0,0-1.26,1,4.21,4.21,0,0,0-.74,1.36,4.43,4.43,0,0,0-.24,1.4V55h-1.85Z"/></g></g></svg>