<svg xmlns="http://www.w3.org/2000/svg" viewBox="0 0 355.5 51.22"><defs><style>.cls-1{fill:#ff8300;}.cls-2{fill:#53575a;}</style></defs><g id="Layer_2" data-name="Layer 2"><g id="Layer_1-2" data-name="Layer 1"><path class="cls-1" d="M.19,19.78v-.05H0a21.32,21.32,0,0,1,.34-3.86,21.59,21.59,0,0,1,1-3.72A19.66,19.66,0,0,1,5,6,20.41,20.41,0,0,1,7.5,3.62a14.38,14.38,0,0,1,2.87-1.79A14.56,14.56,0,0,1,17,.29a12,12,0,0,1,4.72.92h.05a.3.3,0,0,0,.2.09l0,.05.66.29L23.3,2a10,10,0,0,0,3.95,1.2,3.94,3.94,0,0,0,2.17-.48A2.45,2.45,0,0,0,30.53,1h.34v14h-.34a23,23,0,0,0-.7-3.38,23.38,23.38,0,0,0-1.08-3,17,17,0,0,0-1.43-2.43,15.11,15.11,0,0,0-1.71-2,12.39,12.39,0,0,0-4.05-2.7A12.16,12.16,0,0,0,17.7.63a8.65,8.65,0,0,0-4.82,1.49,14,14,0,0,0-4,4.1,22.24,22.24,0,0,0-2.67,6.1,27.33,27.33,0,0,0-1,7.46,26.26,26.26,0,0,0,1.61,9.35,18.75,18.75,0,0,0,4.22,6.8,13.69,13.69,0,0,0,2.37,1.72,14.65,14.65,0,0,0,1.93.89,5,5,0,0,0,1.13.26,9.61,9.61,0,0,0,1.18.08c.68-.07,1.33-.17,1.95-.29a11.48,11.48,0,0,0,5.91-3.28,10.14,10.14,0,0,0,1.72-2,21.65,21.65,0,0,0,1.37-2.43,17.4,17.4,0,0,0,1.11-3,31.88,31.88,0,0,0,.72-3.38l.34.05A22,22,0,0,1,28.94,31,15.93,15.93,0,0,1,25.8,35.6a13.83,13.83,0,0,1-4.14,2.7,11.73,11.73,0,0,1-4.68.91,14.56,14.56,0,0,1-6.61-1.54A16.76,16.76,0,0,1,5,33.52a19.44,19.44,0,0,1-3.67-6.17A21.83,21.83,0,0,1,0,19.78Z"/><path class="cls-1" d="M35.64,19.49A20.76,20.76,0,0,1,37,11.91a18.68,18.68,0,0,1,3.62-6.22,16.25,16.25,0,0,1,5.31-4.15A14.92,14.92,0,0,1,52.52,0h2.8a14.85,14.85,0,0,1,6.56,1.54,16,16,0,0,1,5.4,4.15A20.83,20.83,0,0,1,71,11.91a21.92,21.92,0,0,1,1.3,7.58A21.62,21.62,0,0,1,71,27.06a20.83,20.83,0,0,1-3.67,6.22,16,16,0,0,1-5.4,4.15A14.85,14.85,0,0,1,55.32,39h-2.8a14.92,14.92,0,0,1-6.6-1.54,16.11,16.11,0,0,1-5.31-4.15A18.68,18.68,0,0,1,37,27.06,20.74,20.74,0,0,1,35.64,19.49Zm5.26,0a29.85,29.85,0,0,0,.89,7.38A20.39,20.39,0,0,0,44.47,33a9.83,9.83,0,0,0,.75,1.11,10,10,0,0,0,.84,1A12.4,12.4,0,0,0,49,37.36a22,22,0,0,0,2.29,1.08c.29.07.59.13.92.19a4.74,4.74,0,0,0,1,.1h1.45a4.1,4.1,0,0,0,1-.1l1-.19c.54-.22,1.29-.58,2.24-1.08a13,13,0,0,0,3-2.25c.26-.29.53-.61.8-1s.54-.73.8-1.11a20.67,20.67,0,0,0,2.7-6.17A28.92,28.92,0,0,0,67,19.49a28.81,28.81,0,0,0-.91-7.38,20.62,20.62,0,0,0-2.7-6.18c-.26-.38-.53-.75-.8-1.11s-.54-.67-.8-1a12.6,12.6,0,0,0-3-2.24c-1-.5-1.7-.86-2.24-1.09l-1-.17a5.69,5.69,0,0,0-1-.07H53.2a8,8,0,0,0-1.93.24A24.86,24.86,0,0,0,49,1.62a12.07,12.07,0,0,0-2.92,2.24,10,10,0,0,0-.84,1,9.83,9.83,0,0,0-.75,1.11,20.34,20.34,0,0,0-2.68,6.18A29.73,29.73,0,0,0,40.9,19.49Z"/><path class="cls-1" d="M116.87.53V.87h-.73a13.33,13.33,0,0,0-2,.21,8.74,8.74,0,0,0-2.48.83,6,6,0,0,0-2.1,1.76,4.94,4.94,0,0,0-.89,3.08V39.12h-.39L79.87,3.62V32.85A5,5,0,0,0,80.76,36a6.15,6.15,0,0,0,2.1,1.76,8.77,8.77,0,0,0,2.49.82,12.26,12.26,0,0,0,2.05.22h.72v.34H71.24v-.34H72A12.26,12.26,0,0,0,74,38.56a8.88,8.88,0,0,0,2.49-.82A6,6,0,0,0,78.59,36a5,5,0,0,0,.9-3.13V5.4c0-.77,0-1.44,0-2A2.74,2.74,0,0,0,79,2a2.2,2.2,0,0,0-1.27-.85A10,10,0,0,0,75.15.87h-1.5V.53H84l24.26,30.15V6.75a4.88,4.88,0,0,0-.89-3.08,5.86,5.86,0,0,0-2.1-1.76,8.74,8.74,0,0,0-2.48-.83,13.33,13.33,0,0,0-2.05-.21H100V.53h16.89Z"/><path class="cls-1" d="M164.18.53V.87h-.72a13.21,13.21,0,0,0-2.05.21,8.9,8.9,0,0,0-2.49.83,5.92,5.92,0,0,0-2.09,1.76,4.88,4.88,0,0,0-.9,3.08V39.12h-.38L127.19,3.62V32.85a5,5,0,0,0,.89,3.13,6,6,0,0,0,2.1,1.76,8.71,8.71,0,0,0,2.48.82,12.37,12.37,0,0,0,2.05.22h.73v.34H118.55v-.34h.73a12.47,12.47,0,0,0,2-.22,8.71,8.71,0,0,0,2.48-.82,6.15,6.15,0,0,0,2.1-1.76,5,5,0,0,0,.89-3.13V5.4c0-.77,0-1.44,0-2A2.74,2.74,0,0,0,126.32,2,2.22,2.22,0,0,0,125,1.13a9.85,9.85,0,0,0-2.58-.26H121V.53h10.32l24.26,30.15V6.75a4.94,4.94,0,0,0-.89-3.08,6,6,0,0,0-2.1-1.76,8.8,8.8,0,0,0-2.49-.83,13.21,13.21,0,0,0-2-.21h-.72V.53h16.88Z"/><path class="cls-1" d="M190.56,38.3A11.45,11.45,0,0,0,193.39,37a10.31,10.31,0,0,0,2.14-1.76,14.31,14.31,0,0,0,1.59-2.05,16.31,16.31,0,0,0,2.17-5.59h.34l-1.4,11.48H166.35v-.34a19.52,19.52,0,0,0,2.77-.17,3.78,3.78,0,0,0,1.81-.7,2.84,2.84,0,0,0,1-1.45,8.52,8.52,0,0,0,.29-2.46V6.17a1.5,1.5,0,0,0,0-.29,2.64,2.64,0,0,1,0-.29c0-1.76-.31-3-.94-3.64A5,5,0,0,0,167.85.82H166.3V.53h30.58V10.66h-.34v-.05c-.25-1.06-.55-2.17-.89-3.33a10.14,10.14,0,0,0-1.56-3.16,8.38,8.38,0,0,0-2.9-2.36,10.55,10.55,0,0,0-4.82-.94H177.3V19.68h6.9a5.52,5.52,0,0,0,3.25-.94,6.31,6.31,0,0,0,1.79-2,6.49,6.49,0,0,0,.75-2.13,13.07,13.07,0,0,0,.14-1.35v-.14h.34V26.58h-.34v-.15c0-.22,0-.69-.14-1.4a6.37,6.37,0,0,0-.78-2.19,6,6,0,0,0-1.85-2A5.82,5.82,0,0,0,184,20H177.3V33.18a5.46,5.46,0,0,1,0,.87,9.11,9.11,0,0,0,.22,2.22,3,3,0,0,0,.72,1.4,3.2,3.2,0,0,0,1.33.8,7.8,7.8,0,0,0,2,.31H187A12.34,12.34,0,0,0,190.56,38.3Z"/><path class="cls-1" d="M202.53,19.78v-.05h-.2a22.26,22.26,0,0,1,.34-3.86,22.54,22.54,0,0,1,1-3.72A19.85,19.85,0,0,1,207.35,6a20.41,20.41,0,0,1,2.48-2.36,14.67,14.67,0,0,1,2.87-1.79A14.56,14.56,0,0,1,219.31.29a12.09,12.09,0,0,1,4.73.92h.05a.26.26,0,0,0,.19.09l.05.05.65.29.65.34a10,10,0,0,0,4,1.2,3.94,3.94,0,0,0,2.17-.48A2.45,2.45,0,0,0,232.86,1h.34v14h-.34a24.33,24.33,0,0,0-.69-3.38,23.39,23.39,0,0,0-1.09-3,17,17,0,0,0-1.42-2.43,15.16,15.16,0,0,0-1.72-2A12.11,12.11,0,0,0,220,.63a8.65,8.65,0,0,0-4.82,1.49,13.85,13.85,0,0,0-4,4.1,22.26,22.26,0,0,0-2.68,6.1,27.33,27.33,0,0,0-1,7.46,26,26,0,0,0,1.62,9.35,18.48,18.48,0,0,0,4.22,6.8,13.28,13.28,0,0,0,2.36,1.72,14.65,14.65,0,0,0,1.93.89,5,5,0,0,0,1.13.26,9.61,9.61,0,0,0,1.18.08c.68-.07,1.33-.17,2-.29a11.57,11.57,0,0,0,5.91-3.28,10.44,10.44,0,0,0,1.71-2A20.19,20.19,0,0,0,231,30.87a17.4,17.4,0,0,0,1.11-3,34.54,34.54,0,0,0,.73-3.38l.33.05A22,22,0,0,1,231.27,31a15.91,15.91,0,0,1-3.13,4.59A13.88,13.88,0,0,1,224,38.3a11.73,11.73,0,0,1-4.68.91,14.56,14.56,0,0,1-6.61-1.54,16.76,16.76,0,0,1-5.35-4.15,19.62,19.62,0,0,1-3.67-6.17,21.83,21.83,0,0,1-1.35-7.57Z"/><path class="cls-1" d="M269.57,10.51v-.09c-.26-1-.55-2-.87-3.11a11.28,11.28,0,0,0-1.42-3,7.89,7.89,0,0,0-2.56-2.36A9.63,9.63,0,0,0,260.5.77h-.43a4.28,4.28,0,0,0-3,1.18,5.52,5.52,0,0,0-.84,3.5V34a9.73,9.73,0,0,0,.21,2.19,2.89,2.89,0,0,0,2,2.22,7.54,7.54,0,0,0,2,.31H262V39H245.26v-.34a18.14,18.14,0,0,0,2.77-.17,3.57,3.57,0,0,0,1.79-.7,3,3,0,0,0,.94-1.44,8.52,8.52,0,0,0,.29-2.46V5.5a9.64,9.64,0,0,0-.22-2.22,3.11,3.11,0,0,0-.72-1.4,3,3,0,0,0-1.33-.77,10.66,10.66,0,0,0-2-.34h-.29a9.45,9.45,0,0,0-4.19,1.16,8.32,8.32,0,0,0-2.56,2.36,10.75,10.75,0,0,0-1.44,3c-.33,1.07-.6,2.11-.82,3.11v.09h-.34V.39h32.8V10.51Z"/><path class="cls-2" d="M266.31,24.19a5.87,5.87,0,0,1,0,1.4,3.91,3.91,0,0,0,.12,1.39c0,.16-.05.25-.16.26a.25.25,0,0,0-.22.22q-.24,3-.46,6a56.9,56.9,0,0,0-.07,6.29c.35-1.09.71-2.19,1.06-3.29s.7-2.2,1-3.29c.2-.54.37-1.09.53-1.63a9.39,9.39,0,0,1,.63-1.59,6.12,6.12,0,0,0,.28-.69c.1-.27.2-.55.32-.82a2.43,2.43,0,0,1,.45-.72.92.92,0,0,1,.72-.31.91.91,0,0,1,1,.55,8.76,8.76,0,0,1,.48,1.27c.16.64.31,1.32.46,2s.29,1.39.43,2.06a14.91,14.91,0,0,0,.53,1.92,6.21,6.21,0,0,0,.79,1.59,6.52,6.52,0,0,0,1-2.14q.33-1.22.72-2.52c.09-.35.2-.74.31-1.17s.23-.86.36-1.28a5.94,5.94,0,0,1,.14-.62c.07-.22.14-.44.22-.65a2.59,2.59,0,0,1,.29-.55.49.49,0,0,1,.41-.24.64.64,0,0,1,.72.29c.16.25.3.49.43.72a5.46,5.46,0,0,0,1.56,1.73,3.75,3.75,0,0,0,2.52.62,4,4,0,0,0,1.58-.41c.48-.24.93-.49,1.35-.74l.4-.22c.15-.08.3,0,.46.27a1.19,1.19,0,0,1-.65.86,7.52,7.52,0,0,0-.93.53,3.26,3.26,0,0,1-1.49.62,6.27,6.27,0,0,1-1.73,0,7,7,0,0,1-1.66-.38,4.23,4.23,0,0,1-1.27-.72,5.66,5.66,0,0,1-1.1-1.49,20.28,20.28,0,0,0-.94,3.41,21.6,21.6,0,0,1-1,3.5,6.32,6.32,0,0,1-.65,1.3,1.33,1.33,0,0,1-1.37.52,3.09,3.09,0,0,1-1.46-1.6,14.85,14.85,0,0,1-.75-2.28c-.22-.8-.42-1.63-.6-2.48s-.36-1.67-.55-2.47a35.7,35.7,0,0,0-1.85,5.19q-.74,2.73-1.56,5.61c-.06.29-.13.59-.21.91a7.39,7.39,0,0,1-.31.94,5.27,5.27,0,0,1-.44.82,1.35,1.35,0,0,1-.57.5,1.07,1.07,0,0,1-.7.07,1.43,1.43,0,0,1-.65-.26,1.6,1.6,0,0,1-.45-.75,5.8,5.8,0,0,1-.24-1.12c-.05-.42-.08-.86-.1-1.32s0-.89,0-1.28c0-1.82,0-3.55.17-5.18s.26-3.25.45-4.85c.1-.8.21-1.57.34-2.33a10.73,10.73,0,0,1,.57-2.08.92.92,0,0,1,.68-.24A.7.7,0,0,1,266.31,24.19Z"/><path class="cls-2" d="M286.85,39.27a2.78,2.78,0,0,0,1.42-.77c.37-.39.71-.79,1-1.2s.68-.83,1-1.25.59-.85.88-1.3.62-.88.89-1.32l.84-1.32.46-.72a5.79,5.79,0,0,1,.45-.62,2.49,2.49,0,0,0,.41-.7c.11-.27.34-.37.7-.31a.52.52,0,0,1-.12.65,2.53,2.53,0,0,0-.46.6A22,22,0,0,1,293.19,33q-.63.94-1.2,1.95c-.55.83-1.08,1.66-1.61,2.49a13.21,13.21,0,0,1-1.85,2.31,7.72,7.72,0,0,1-.86.65,1.8,1.8,0,0,1-1.3.16,4.71,4.71,0,0,0-.48-.28,2.73,2.73,0,0,1-.81-1.52,9.89,9.89,0,0,1-.24-2.25A18.73,18.73,0,0,1,285,34c.12-.84.24-1.54.37-2.12.06-.28.14-.63.23-1a5.27,5.27,0,0,1,.39-1.08,1.47,1.47,0,0,1,.6-.67.87.87,0,0,1,.89.14,1.93,1.93,0,0,1,.19.82c0,.16-.05.25-.14.26a.25.25,0,0,0-.2.17,13.89,13.89,0,0,0-.53,2c-.12.7-.23,1.47-.33,2.3s-.11,1.53-.12,2.38A3.65,3.65,0,0,0,286.85,39.27ZM288.29,24a1.66,1.66,0,0,1-.76.2.79.79,0,0,1-.29-.53.42.42,0,0,1,.24-.41.74.74,0,0,1,.48-.07.57.57,0,0,1,.38.26A.49.49,0,0,1,288.29,24Z"/><path class="cls-2" d="M296.84,19c3.29-.32,6.67-.69,10.12-1.13a93,93,0,0,1,10.71-.69,21.79,21.79,0,0,1,5.13.43c.2.06.44.13.72.19a.44.44,0,0,1,.39.53.5.5,0,0,1-.65.24c-.27-.1-.52-.18-.74-.24a18.33,18.33,0,0,0-3-.34c-1,0-2.09,0-3.16,0s-2.14.12-3.19.21l-3,.29c-2.31.19-4.58.43-6.82.7s-4.45.55-6.62.84c-.1,1.28-.17,2.57-.22,3.89s-.1,2.64-.16,4-.06,2.68-.08,4-.05,2.68-.12,4.05q-.13,3.55-.14,7c0,2.31,0,4.62-.1,7a3.86,3.86,0,0,1-.09.84.63.63,0,0,1-.63.46.55.55,0,0,1-.62-.43,8.79,8.79,0,0,1-.15-.87c-.06-1-.1-1.94-.11-3s0-2-.08-2.9l-.09-4c0-1.34-.05-2.67-.05-4q0-4,.19-8c.13-2.65.26-5.23.38-7.72q-2.73.33-5.61.86c-1.92.35-3.84.66-5.76.91l-.94.1-1,.09a3.35,3.35,0,0,1-1.1-.07c-.36-.08-.53-.25-.53-.5a.41.41,0,0,1,.41-.41,2.35,2.35,0,0,1,.74.07q3.6-.43,6.94-1.08t6.93-1c.07-.67.12-1.38.17-2.11s.1-1.47.17-2.21.13-1.4.19-2.09a2.52,2.52,0,0,1,.72-1.65.88.88,0,0,1,.6,0,.54.54,0,0,1,.36.33c.06,1.19.07,2.42,0,3.7S296.9,17.75,296.84,19Z"/><path class="cls-2" d="M301,36.24c.64-1.41,1.32-2.76,2-4.05a32.64,32.64,0,0,1,2.31-3.68l.91-1.12a2.37,2.37,0,0,1,1.25-.8,1.33,1.33,0,0,0,.43.1,2.17,2.17,0,0,1,.67.89,4.62,4.62,0,0,1,.33,1.2c.07.43.12.88.15,1.34s.08.94.14,1.42.14.88.22,1.29.17.85.26,1.3.21.8.34,1.25a2.8,2.8,0,0,0,.48,1,.84.84,0,0,0,.5.19c.18,0,.3.13.36.38a.65.65,0,0,1-.43.46.87.87,0,0,1-.57-.05,2,2,0,0,1-.56-.34,1.66,1.66,0,0,1-.4-.45,7.27,7.27,0,0,1-.77-1.92,23,23,0,0,1-.48-2.31q-.19-1.2-.36-2.4c-.12-.8-.24-1.53-.36-2.2a4.59,4.59,0,0,0-1.4,1.44c-.38.6-.76,1.2-1.15,1.77a37.57,37.57,0,0,0-2.25,4.2A31.53,31.53,0,0,0,300.82,40a12,12,0,0,0-.33,1.88,4,4,0,0,1-.37,1.29c-.17.35-.53.39-1.08.1a1.48,1.48,0,0,1-.21-.89c0-.34,0-.68,0-1,.07-1.12.11-2.23.12-3.31s.06-2.16.12-3.22q.39-5.72,1-11.28a60.64,60.64,0,0,1,2.07-10.42A8.6,8.6,0,0,1,302.6,12c.16-.35.46-.41.91-.19a.62.62,0,0,1,.14.43,1,1,0,0,0,.1.48,8.43,8.43,0,0,0-.36,1.35c-.08.44-.15.91-.22,1.39q-.85,4.84-1.34,10.1T301,36.24Z"/><path class="cls-2" d="M333.7,43.2a.67.67,0,0,1-.65-.53c-.08-.32-.15-.6-.22-.86a15.23,15.23,0,0,1-.21-3c0-1.07,0-2.12.07-3.15,0-1.44.1-2.89.19-4.36s.21-2.93.34-4.37q-1.25,2-2.3,3.89a20.27,20.27,0,0,1-2.55,3.6l-1.15,1.12a2.47,2.47,0,0,1-1.49.7,1.67,1.67,0,0,1-.81-.12,2.5,2.5,0,0,1-.68-.36,4.29,4.29,0,0,1-1.1-3v-1.2a9.14,9.14,0,0,1,.1-1.4,4.41,4.41,0,0,1,.33-1.2,1,1,0,0,1,.67-.62,1.39,1.39,0,0,1,1.28.38,1.42,1.42,0,0,1,.21,1.3.21.21,0,0,1-.26.17l-.31,0c0,.26-.07.58-.1,1s-.06.74-.1,1.06a10.74,10.74,0,0,0,.12,1.51c.08.56.27.87.56.94s.38,0,.67-.22a5.65,5.65,0,0,0,.67-.55,10.93,10.93,0,0,0,1.56-1.82c.46-.68.92-1.33,1.37-2A23.85,23.85,0,0,0,331.18,28c.37-.69.78-1.4,1.22-2.14a2.09,2.09,0,0,0,.29-.48,2.06,2.06,0,0,1,.36-.5,1,1,0,0,1,.48-.26.64.64,0,0,1,.55.19,1.07,1.07,0,0,1,.32.69,7.07,7.07,0,0,1,0,1.16c0,.43,0,.85-.09,1.27a8.54,8.54,0,0,0-.07,1c-.07.92-.13,1.73-.2,2.42s-.11,1.4-.14,2.14q-.09,2.25-.15,4.41c0,1.44,0,2.83.1,4.18.07.22.13.45.19.67S334,43.14,333.7,43.2Z"/><path class="cls-2" d="M343.78,26.45a5.79,5.79,0,0,0-1.66,1.08c-.49.46-1,.94-1.41,1.42-.45.64-.87,1.29-1.25,2A4.93,4.93,0,0,0,339,33.6a5.78,5.78,0,0,0,.43,2,16.77,16.77,0,0,0,.87,1.75c.32.56.64,1.11,1,1.63a7.73,7.73,0,0,1,.79,1.61,6.58,6.58,0,0,0,.77-.67l.77-.77c.25-.25.53-.49.81-.72a8,8,0,0,0,.82-.72c.54-.51,1.08-1,1.61-1.49s1.08-.94,1.65-1.39q1.39-1.24,2.88-2.49A29.21,29.21,0,0,1,354.53,30a3,3,0,0,0,.46-.29.34.34,0,0,1,.5.1.47.47,0,0,1-.21.5l-.51.32c-.16.12-.31.24-.45.33l-.46.29c-.9.67-1.76,1.37-2.59,2.09s-1.67,1.43-2.5,2.13c-1,1-2.13,2-3.21,3a31.3,31.3,0,0,0-3.08,3.12,13.53,13.53,0,0,1,.84,2.78,4.48,4.48,0,0,1-.31,2.88,5.23,5.23,0,0,1-1.53,1.92,4,4,0,0,1-2.5,1,2.49,2.49,0,0,1-1.25-.33,3.7,3.7,0,0,1-.43-.39,2.27,2.27,0,0,1-.17-.31,1.83,1.83,0,0,1-.12-.41,4.54,4.54,0,0,1,.48-2.35,14.19,14.19,0,0,1,1.15-1.77q.54-.72,1.08-1.35c.37-.41.73-.83,1.08-1.25a16.54,16.54,0,0,0-1.1-2c-.42-.64-.82-1.32-1.2-2a19.2,19.2,0,0,1-1.06-2.18,6.76,6.76,0,0,1-.48-2.57,6.41,6.41,0,0,1,.65-2.95,14,14,0,0,1,1.47-2.33A11.51,11.51,0,0,1,341,26.16a7.32,7.32,0,0,1,.79-.5,5.34,5.34,0,0,1,.91-.43,2.52,2.52,0,0,1,.94-.17,1.29,1.29,0,0,1,.86.33.64.64,0,0,1,.19.46,3.05,3.05,0,0,1,0,.74,3.87,3.87,0,0,1-.14.68c-.07.19-.15.28-.24.28a.29.29,0,0,1-.27-.12.81.81,0,0,1-.09-.31c0-.13,0-.25-.05-.38A.52.52,0,0,0,343.78,26.45Zm-4.56,19.1a2.24,2.24,0,0,0-.41.58l-.41.82a4,4,0,0,0-.24.67,2.59,2.59,0,0,0-.07.72.65.65,0,0,0,.27.5,1.11,1.11,0,0,0,.81.07,4.73,4.73,0,0,0,1.78-1,2.84,2.84,0,0,0,.91-2,4.13,4.13,0,0,0-.12-1.59c-.14-.48-.3-.94-.46-1.39,0,0,0,0,0,0l-1.06,1.25A10.83,10.83,0,0,0,339.22,45.55Z"/></g></g></svg>