<svg xmlns="http://www.w3.org/2000/svg" viewBox="0 0 631.37 173.03"><defs><style>.cls-1{fill:#53575a;}.cls-2{fill:#ff8300;}.cls-3{fill:none;stroke:#ff8300;}</style></defs><g id="Layer_2" data-name="Layer 2"><g id="Layer_1-2" data-name="Layer 1"><path class="cls-1" d="M0,151H2.11L5.7,163.34h.06L9.89,151h1.82l4.39,12.39h.06L19.65,151h1.92l-4.35,14.79h-2l-4.41-12.1h-.07l-4.13,12.1h-2Z"/><path class="cls-1" d="M25.06,145.1a1.42,1.42,0,1,1,.41,1A1.39,1.39,0,0,1,25.06,145.1Zm.48,5.85h1.92v14.79H25.54Z"/><path class="cls-1" d="M40.77,152.68H36.54v9.63a2.06,2.06,0,0,0,.55,1.54,2,2,0,0,0,1.5.54,4.82,4.82,0,0,0,1.11-.14,7.5,7.5,0,0,0,1.07-.37l.16,1.73a12.13,12.13,0,0,1-1.25.35,5.55,5.55,0,0,1-1.25.16,4.66,4.66,0,0,1-1.76-.3,3.23,3.23,0,0,1-1.18-.82,3.19,3.19,0,0,1-.66-1.2,5.06,5.06,0,0,1-.21-1.49v-9.63h-3.2V151h3.2V146.7h1.92V151h4.23Z"/><path class="cls-1" d="M44.83,141.54h1.92v12h.07a5.08,5.08,0,0,1,1.92-2.09,5.55,5.55,0,0,1,3.13-.88,6.38,6.38,0,0,1,2.82.54,4.56,4.56,0,0,1,1.71,1.43,5.22,5.22,0,0,1,.86,2,11.62,11.62,0,0,1,.24,2.37v8.8H55.58V157a9.08,9.08,0,0,0-.16-1.74,4.39,4.39,0,0,0-.56-1.52,2.82,2.82,0,0,0-1.12-1.07,3.79,3.79,0,0,0-1.87-.4,5.58,5.58,0,0,0-2,.36,4.37,4.37,0,0,0-1.63,1.12,5.62,5.62,0,0,0-1.09,1.89,8,8,0,0,0-.4,2.67v7.4H44.83Z"/><path class="cls-1" d="M71.36,158.34a8.14,8.14,0,0,1,.58-3.12A7.19,7.19,0,0,1,76,151.14a8.43,8.43,0,0,1,3.14-.57,8.33,8.33,0,0,1,3.12.57,7.52,7.52,0,0,1,2.46,1.62,7.42,7.42,0,0,1,1.62,2.46,8.82,8.82,0,0,1,0,6.24,7.57,7.57,0,0,1-1.62,2.47,7.34,7.34,0,0,1-2.46,1.61,8.14,8.14,0,0,1-3.12.58,8.24,8.24,0,0,1-3.14-.58,7.06,7.06,0,0,1-2.46-1.61,7.36,7.36,0,0,1-1.6-2.47A8.14,8.14,0,0,1,71.36,158.34Zm1.92,0a6.8,6.8,0,0,0,.4,2.36,5.47,5.47,0,0,0,3,3.21,6.42,6.42,0,0,0,4.87,0,5.7,5.7,0,0,0,1.85-1.29,5.54,5.54,0,0,0,1.17-1.92,7.13,7.13,0,0,0,0-4.71,5.54,5.54,0,0,0-1.17-1.92,5.7,5.7,0,0,0-1.85-1.29,6.42,6.42,0,0,0-4.87,0,5.47,5.47,0,0,0-3,3.21A6.79,6.79,0,0,0,73.28,158.34Z"/><path class="cls-1" d="M104.35,161.58c0,.27,0,.61,0,1s0,.8.05,1.2,0,.79,0,1.14,0,.62,0,.82h-1.92c0-.56,0-1.09,0-1.6a4.49,4.49,0,0,0-.08-1h-.09a5.24,5.24,0,0,1-1.92,2.1,5.58,5.58,0,0,1-3.14.88,6.43,6.43,0,0,1-2.83-.54,4.56,4.56,0,0,1-1.73-1.43,5.06,5.06,0,0,1-.85-2,12.37,12.37,0,0,1-.22-2.37V151H93.6v8.71a9.16,9.16,0,0,0,.16,1.74,4.6,4.6,0,0,0,.56,1.52A2.88,2.88,0,0,0,95.44,164a3.79,3.79,0,0,0,1.87.4,5.38,5.38,0,0,0,2-.37,4.15,4.15,0,0,0,1.63-1.12A5.48,5.48,0,0,0,102,161a8,8,0,0,0,.4-2.68V151h1.92Z"/><path class="cls-1" d="M110.24,155.11c0-.28,0-.61,0-1s0-.79,0-1.2,0-.78,0-1.13,0-.63,0-.82H112c0,.56,0,1.09,0,1.6a4.38,4.38,0,0,0,.08,1A6.71,6.71,0,0,1,114,151.4a4.73,4.73,0,0,1,2.82-.83,2.59,2.59,0,0,1,.56.05l.56.11-.22,1.89a2.22,2.22,0,0,0-.74-.13,5.3,5.3,0,0,0-2.16.4,3.91,3.91,0,0,0-1.5,1.1,4.52,4.52,0,0,0-.88,1.65,6.69,6.69,0,0,0-.29,2v8.07h-1.92Z"/><path class="cls-1" d="M142,159.53c0,.72,0,1.37,0,1.95s0,1.11.05,1.6,0,.95.08,1.38.08.85.14,1.28h-1.79a13.74,13.74,0,0,1-.19-2.4h-.07a5.37,5.37,0,0,1-2.06,2.11,6.44,6.44,0,0,1-3.12.67,7.53,7.53,0,0,1-1.89-.24,5,5,0,0,1-1.66-.77,4,4,0,0,1-1.67-3.37,3.94,3.94,0,0,1,.87-2.69,5.34,5.34,0,0,1,2.12-1.49,10.37,10.37,0,0,1,2.69-.64,24.1,24.1,0,0,1,2.51-.14h2.24v-.9a3.11,3.11,0,0,0-1.18-2.75,5,5,0,0,0-3-.83,6.75,6.75,0,0,0-4.51,1.66l-1.12-1.31a6.88,6.88,0,0,1,2.63-1.55,9.14,9.14,0,0,1,3-.53,6.72,6.72,0,0,1,4.29,1.26,4.87,4.87,0,0,1,1.6,4.08Zm-3.84-1.22a17.94,17.94,0,0,0-2.35.16,8.2,8.2,0,0,0-2,.55,3.65,3.65,0,0,0-1.45,1,2.36,2.36,0,0,0-.55,1.6,2.28,2.28,0,0,0,.31,1.2,2.58,2.58,0,0,0,.78.86,3.67,3.67,0,0,0,1.07.52,4.52,4.52,0,0,0,1.2.17,6.13,6.13,0,0,0,2.53-.45,4.14,4.14,0,0,0,1.58-1.16,4,4,0,0,0,.82-1.64,7.59,7.59,0,0,0,.22-1.84v-1Z"/><path class="cls-1" d="M160.64,163.14h-.07a4.64,4.64,0,0,1-1.12,1.33,6.51,6.51,0,0,1-1.45.93,6.65,6.65,0,0,1-1.65.54,8.33,8.33,0,0,1-1.7.18,8.22,8.22,0,0,1-3.13-.58,7.19,7.19,0,0,1-2.47-1.61,7.68,7.68,0,0,1-1.6-2.47,8.82,8.82,0,0,1,0-6.24,7.53,7.53,0,0,1,1.6-2.46,7.36,7.36,0,0,1,2.47-1.62,8.42,8.42,0,0,1,3.13-.57,9.07,9.07,0,0,1,1.7.17,7.11,7.11,0,0,1,1.65.55,6.17,6.17,0,0,1,1.45.93,4.74,4.74,0,0,1,1.12,1.32h.07v-12h1.92v24.2h-1.92Zm.19-4.8a5.85,5.85,0,0,0-.48-2.35,6.23,6.23,0,0,0-1.31-1.92,6.5,6.5,0,0,0-1.95-1.29,6.14,6.14,0,0,0-2.44-.48,6,6,0,0,0-2.43.48,5.7,5.7,0,0,0-1.85,1.29A5.4,5.4,0,0,0,149.2,156a7.13,7.13,0,0,0,0,4.71,5.4,5.4,0,0,0,1.17,1.92,5.7,5.7,0,0,0,1.85,1.29,6,6,0,0,0,2.43.48,6.14,6.14,0,0,0,2.44-.48,6.5,6.5,0,0,0,1.95-1.29,6.23,6.23,0,0,0,1.31-1.92A5.86,5.86,0,0,0,160.83,158.34Z"/><path class="cls-1" d="M165.79,151H168l4.92,12.71,4.8-12.71h2l-5.83,14.79h-2Z"/><path class="cls-1" d="M194.81,159.53c0,.72,0,1.37,0,1.95s0,1.11,0,1.6.05.95.08,1.38.08.85.14,1.28h-1.79a13.74,13.74,0,0,1-.19-2.4h-.07a5.37,5.37,0,0,1-2.06,2.11,6.44,6.44,0,0,1-3.12.67,7.53,7.53,0,0,1-1.89-.24,5,5,0,0,1-1.66-.77,4,4,0,0,1-1.67-3.37,3.94,3.94,0,0,1,.87-2.69,5.31,5.31,0,0,1,2.13-1.49,10.2,10.2,0,0,1,2.68-.64,24.14,24.14,0,0,1,2.52-.14h2.24v-.9a3.12,3.12,0,0,0-1.19-2.75,5,5,0,0,0-3-.83,6.77,6.77,0,0,0-4.52,1.66l-1.12-1.31a6.88,6.88,0,0,1,2.63-1.55,9.19,9.19,0,0,1,3-.53,6.71,6.71,0,0,1,4.28,1.26,4.87,4.87,0,0,1,1.6,4.08ZM191,158.31a17.94,17.94,0,0,0-2.35.16,8.2,8.2,0,0,0-2.05.55,3.72,3.72,0,0,0-1.45,1,2.55,2.55,0,0,0-.24,2.8,2.58,2.58,0,0,0,.78.86,3.67,3.67,0,0,0,1.07.52,4.52,4.52,0,0,0,1.2.17,6.13,6.13,0,0,0,2.53-.45,4.26,4.26,0,0,0,1.59-1.16,4.14,4.14,0,0,0,.81-1.64,7.6,7.6,0,0,0,.23-1.84v-1Z"/><path class="cls-1" d="M200.57,155.11c0-.28,0-.61,0-1s0-.79,0-1.2,0-.78,0-1.13,0-.63,0-.82h1.92c0,.56,0,1.09,0,1.6a5.1,5.1,0,0,0,.08,1h.1a5.08,5.08,0,0,1,1.92-2.09,5.55,5.55,0,0,1,3.13-.88,6.35,6.35,0,0,1,2.82.54,4.41,4.41,0,0,1,1.71,1.43,5.24,5.24,0,0,1,.87,2,11.62,11.62,0,0,1,.24,2.37v8.8h-1.92V157a10,10,0,0,0-.16-1.74,4.83,4.83,0,0,0-.56-1.52,2.88,2.88,0,0,0-1.12-1.07,3.83,3.83,0,0,0-1.88-.4,5.58,5.58,0,0,0-2,.36,4.37,4.37,0,0,0-1.63,1.12,5.62,5.62,0,0,0-1.09,1.89,8.24,8.24,0,0,0-.4,2.67v7.4h-1.92Z"/><path class="cls-1" d="M231.39,163.56a7,7,0,0,1-2.46,1.94,7.23,7.23,0,0,1-3,.62,8.28,8.28,0,0,1-3.14-.58,7.06,7.06,0,0,1-2.46-1.61,7.52,7.52,0,0,1-1.6-2.47,8.68,8.68,0,0,1,0-6.24,7.37,7.37,0,0,1,1.6-2.46,7.22,7.22,0,0,1,2.46-1.62,8.47,8.47,0,0,1,3.14-.57,6.79,6.79,0,0,1,3,.67,7.91,7.91,0,0,1,2.48,1.89l-1.53,1.15a6.92,6.92,0,0,0-1.83-1.46,4.48,4.48,0,0,0-2.14-.52,5.92,5.92,0,0,0-2.43.48,5.63,5.63,0,0,0-1.86,1.29,5.7,5.7,0,0,0-1.17,1.92,7.13,7.13,0,0,0,0,4.71,5.7,5.7,0,0,0,1.17,1.92,5.63,5.63,0,0,0,1.86,1.29,5.92,5.92,0,0,0,2.43.48,4.41,4.41,0,0,0,2.22-.56,5.67,5.67,0,0,0,1.75-1.49Z"/><path class="cls-1" d="M248.09,163a6.46,6.46,0,0,1-2.76,2.43,8.84,8.84,0,0,1-3.64.74,7.78,7.78,0,0,1-3.07-.58,6.87,6.87,0,0,1-2.37-1.61,7.32,7.32,0,0,1-1.52-2.47,9.05,9.05,0,0,1-.52-3.15,8.5,8.5,0,0,1,.54-3.07,7.23,7.23,0,0,1,3.87-4.08,7.41,7.41,0,0,1,3-.59,7.19,7.19,0,0,1,3,.59,6.59,6.59,0,0,1,2.18,1.57,6.75,6.75,0,0,1,1.32,2.22,7.42,7.42,0,0,1,.45,2.53v1.34H236.13a6.6,6.6,0,0,0,.24,1.56,5.53,5.53,0,0,0,2.59,3.37,5.28,5.28,0,0,0,2.77.64,6.12,6.12,0,0,0,2.84-.7,5.2,5.2,0,0,0,2.12-1.92Zm-1.47-5.85a4.35,4.35,0,0,0-.4-1.86,5,5,0,0,0-1.09-1.52,5.25,5.25,0,0,0-3.63-1.42,4.9,4.9,0,0,0-2.61.64,5.48,5.48,0,0,0-1.64,1.47,5.69,5.69,0,0,0-.87,1.61,4.24,4.24,0,0,0-.25,1.08Z"/><path class="cls-1" d="M266.4,163.14h-.07a4.81,4.81,0,0,1-1.12,1.33,6.51,6.51,0,0,1-1.45.93,6.79,6.79,0,0,1-1.65.54,8.33,8.33,0,0,1-1.7.18,8.22,8.22,0,0,1-3.13-.58,7.19,7.19,0,0,1-2.47-1.61,7.68,7.68,0,0,1-1.6-2.47,8.82,8.82,0,0,1,0-6.24,7.53,7.53,0,0,1,1.6-2.46,7.36,7.36,0,0,1,2.47-1.62,8.42,8.42,0,0,1,3.13-.57,9.07,9.07,0,0,1,1.7.17,7.27,7.27,0,0,1,1.65.55,6.17,6.17,0,0,1,1.45.93,4.91,4.91,0,0,1,1.12,1.32h.07v-12h1.92v24.2H266.4Zm.19-4.8a5.85,5.85,0,0,0-.48-2.35,6.23,6.23,0,0,0-1.31-1.92,6.5,6.5,0,0,0-1.95-1.29,6.14,6.14,0,0,0-2.44-.48,6,6,0,0,0-2.43.48,5.7,5.7,0,0,0-1.85,1.29A5.4,5.4,0,0,0,255,156a7.13,7.13,0,0,0,0,4.71,5.4,5.4,0,0,0,1.17,1.92,5.7,5.7,0,0,0,1.85,1.29,6,6,0,0,0,2.43.48,6.14,6.14,0,0,0,2.44-.48,6.5,6.5,0,0,0,1.95-1.29,6.23,6.23,0,0,0,1.31-1.92A5.86,5.86,0,0,0,266.59,158.34Z"/><path class="cls-2" d="M294.3,154.38a5.57,5.57,0,0,0-1.76-2.9,4.8,4.8,0,0,0-3.17-1,4.86,4.86,0,0,0-4.25,2.22,7.46,7.46,0,0,0-1,2.28,10.46,10.46,0,0,0-.32,2.54,10.94,10.94,0,0,0,.31,2.56,7,7,0,0,0,1,2.24,5,5,0,0,0,1.73,1.58,5.13,5.13,0,0,0,2.56.6,4.89,4.89,0,0,0,3.44-1.19,5.43,5.43,0,0,0,1.65-3.26h2.05a9.36,9.36,0,0,1-.82,2.51,6.42,6.42,0,0,1-1.44,1.95,6,6,0,0,1-2.09,1.27,8.25,8.25,0,0,1-2.79.44,8,8,0,0,1-3.42-.67,6.48,6.48,0,0,1-2.37-1.84,7.58,7.58,0,0,1-1.37-2.77,12.51,12.51,0,0,1-.45-3.42,11,11,0,0,1,.49-3.31,8.58,8.58,0,0,1,1.46-2.8,7,7,0,0,1,2.38-1.94,7.2,7.2,0,0,1,3.28-.72,7.4,7.4,0,0,1,4.66,1.38,6.42,6.42,0,0,1,2.22,4.29Z"/><path class="cls-2" d="M307.58,166.18a8.64,8.64,0,0,1-3-.57,6.68,6.68,0,0,1-2.43-1.63,7.78,7.78,0,0,1-1.65-2.72,10.8,10.8,0,0,1-.61-3.81,11.71,11.71,0,0,1,.48-3.41,8,8,0,0,1,1.44-2.77,6.84,6.84,0,0,1,2.4-1.87,8.6,8.6,0,0,1,6.75,0,6.93,6.93,0,0,1,2.4,1.86A7.63,7.63,0,0,1,314.8,154a12.26,12.26,0,0,1,.46,3.43,11.12,11.12,0,0,1-.54,3.58,8.1,8.1,0,0,1-1.55,2.75,7,7,0,0,1-2.44,1.78A7.7,7.7,0,0,1,307.58,166.18Zm5.63-8.73a11,11,0,0,0-.32-2.75,6.4,6.4,0,0,0-1-2.23,4.81,4.81,0,0,0-1.73-1.49,5.64,5.64,0,0,0-2.59-.54A5.34,5.34,0,0,0,305,151a5.16,5.16,0,0,0-1.74,1.57,6.8,6.8,0,0,0-1,2.24,10.72,10.72,0,0,0-.32,2.61,10.15,10.15,0,0,0,.37,2.83,6.46,6.46,0,0,0,1.07,2.22,4.74,4.74,0,0,0,1.76,1.44,5.36,5.36,0,0,0,2.43.52,5.23,5.23,0,0,0,2.58-.6,5,5,0,0,0,1.74-1.58,7,7,0,0,0,1-2.24A10.1,10.1,0,0,0,313.21,157.45Z"/><path class="cls-2" d="M319.42,165.74v-23h1.92v8.76a12,12,0,0,1,2.39-2,5.48,5.48,0,0,1,3-.77,7.55,7.55,0,0,1,2.84.53,4.87,4.87,0,0,1,2.21,1.84,4,4,0,0,1,.72,1.84,15.71,15.71,0,0,1,.11,2v10.85h-1.92V154.92a5,5,0,0,0-1-3.36,4.19,4.19,0,0,0-3.29-1.12,4.74,4.74,0,0,0-1.64.27,5,5,0,0,0-1.32.72,4.48,4.48,0,0,0-1,1,4.7,4.7,0,0,0-.64,1.21,6.17,6.17,0,0,0-.35,1.54,15.85,15.85,0,0,0-.07,1.6v8.93Z"/><path class="cls-2" d="M339,157.9a8.81,8.81,0,0,0,.36,2.54,6.07,6.07,0,0,0,1,2.08,5,5,0,0,0,1.74,1.41,5.4,5.4,0,0,0,2.43.53,5.22,5.22,0,0,0,3.23-1,4.78,4.78,0,0,0,1.8-2.81h2.14a9.75,9.75,0,0,1-.93,2.19,6.62,6.62,0,0,1-1.44,1.76,6.24,6.24,0,0,1-2.05,1.17,8.42,8.42,0,0,1-2.75.41,8,8,0,0,1-3.42-.67,6.48,6.48,0,0,1-2.37-1.84,7.74,7.74,0,0,1-1.38-2.75,12.84,12.84,0,0,1-.44-3.41,10.89,10.89,0,0,1,.52-3.42,8.87,8.87,0,0,1,1.51-2.8,7,7,0,0,1,2.38-1.89,7.2,7.2,0,0,1,3.2-.69,6.63,6.63,0,0,1,5.38,2.35q1.95,2.35,1.92,6.84Zm10.82-1.6a7.42,7.42,0,0,0-.34-2.29,5.19,5.19,0,0,0-1-1.86,4.72,4.72,0,0,0-1.65-1.25,5.26,5.26,0,0,0-2.27-.46,5,5,0,0,0-2.25.48,5.28,5.28,0,0,0-1.67,1.28,6.36,6.36,0,0,0-1.1,1.86,8.65,8.65,0,0,0-.55,2.24Z"/><path class="cls-2" d="M357.37,160.55a4.9,4.9,0,0,0,1.62,3,5.51,5.51,0,0,0,3.34.88,5.81,5.81,0,0,0,1.83-.26,3.61,3.61,0,0,0,1.26-.69,3,3,0,0,0,.75-1,2.73,2.73,0,0,0,.26-1.16,2.1,2.1,0,0,0-.78-1.8,5.81,5.81,0,0,0-2-.93,24.23,24.23,0,0,0-2.56-.58,12.49,12.49,0,0,1-2.56-.72,5.18,5.18,0,0,1-2-1.37,3.74,3.74,0,0,1-.78-2.53,4.31,4.31,0,0,1,1.52-3.41,6.29,6.29,0,0,1,4.3-1.33,7.36,7.36,0,0,1,4.37,1.2,5.51,5.51,0,0,1,2,4h-1.95a3.62,3.62,0,0,0-1.46-2.71,5.44,5.44,0,0,0-3-.78,4.33,4.33,0,0,0-2.79.78,2.56,2.56,0,0,0-1,2.07,2,2,0,0,0,.79,1.71,6.35,6.35,0,0,0,2,1c.78.25,1.64.46,2.56.66a12.76,12.76,0,0,1,2.56.81,5.59,5.59,0,0,1,2,1.43,3.61,3.61,0,0,1,.79,2.49,4.14,4.14,0,0,1-.52,2.1,4.52,4.52,0,0,1-1.4,1.52,6.66,6.66,0,0,1-2.13.91,11.39,11.39,0,0,1-2.7.3,7.21,7.21,0,0,1-2.61-.43,5.68,5.68,0,0,1-1.94-1.2,5.61,5.61,0,0,1-1.25-1.79,6.22,6.22,0,0,1-.51-2.21Z"/><path class="cls-2" d="M373.08,145.54V142.7h2.12v2.84Zm.1,20.2V149.16h1.92v16.58Z"/><path class="cls-2" d="M378.88,149.16H381l5.37,14.21,5.38-14.21h2.08l-6.43,16.58h-2.15Z"/><path class="cls-2" d="M398.46,157.9a9.17,9.17,0,0,0,.35,2.54,6.25,6.25,0,0,0,1,2.08,5,5,0,0,0,1.75,1.41,5.37,5.37,0,0,0,2.43.53,5.24,5.24,0,0,0,3.23-1,4.76,4.76,0,0,0,1.79-2.81h2.15a10.77,10.77,0,0,1-.93,2.19,7,7,0,0,1-1.44,1.76,6.34,6.34,0,0,1-2.05,1.17,8.51,8.51,0,0,1-2.75.41,8,8,0,0,1-3.43-.67,6.45,6.45,0,0,1-2.36-1.84,7.74,7.74,0,0,1-1.38-2.75,12.44,12.44,0,0,1-.45-3.41,10.89,10.89,0,0,1,.53-3.42,8.65,8.65,0,0,1,1.5-2.8,7,7,0,0,1,2.39-1.89,7.17,7.17,0,0,1,3.2-.69,6.62,6.62,0,0,1,5.37,2.35q2,2.35,1.92,6.84Zm10.82-1.6a7.42,7.42,0,0,0-.34-2.29,5.19,5.19,0,0,0-1-1.86,4.81,4.81,0,0,0-1.65-1.25,5.29,5.29,0,0,0-2.27-.46,5,5,0,0,0-2.26.48,5.24,5.24,0,0,0-1.66,1.28,6.38,6.38,0,0,0-1.11,1.86,9.06,9.06,0,0,0-.54,2.24Z"/><path class="cls-2" d="M438,149.16H440v15a14.91,14.91,0,0,1-.33,3.18,7.07,7.07,0,0,1-1.2,2.67,6.06,6.06,0,0,1-2.37,1.84,9.31,9.31,0,0,1-3.87.69,9.72,9.72,0,0,1-3.14-.46,6.78,6.78,0,0,1-2.14-1.17,5.08,5.08,0,0,1-1.27-1.55,4,4,0,0,1-.46-1.59h2.05a3.76,3.76,0,0,0,.7,1.52,3.39,3.39,0,0,0,1.14.93,4.83,4.83,0,0,0,1.45.46,10.09,10.09,0,0,0,1.67.13,6.27,6.27,0,0,0,3.13-.67,4.69,4.69,0,0,0,1.8-1.76,7,7,0,0,0,.78-2.46,17.53,17.53,0,0,0,.14-2.82,5.88,5.88,0,0,1-2.54,2.32,7.68,7.68,0,0,1-3.38.78,7.08,7.08,0,0,1-3.28-.72,6.82,6.82,0,0,1-2.3-1.92,8.21,8.21,0,0,1-1.36-2.8,12.15,12.15,0,0,1-.45-3.32,13.49,13.49,0,0,1,.42-3.43,7.59,7.59,0,0,1,1.33-2.77,6.41,6.41,0,0,1,2.32-1.84,8,8,0,0,1,3.42-.67,6.22,6.22,0,0,1,1.63.23,7.48,7.48,0,0,1,1.62.64,6.32,6.32,0,0,1,1.44,1,5.74,5.74,0,0,1,1.07,1.44H438Zm0,8.35a10.47,10.47,0,0,0-.36-2.8,7,7,0,0,0-1.08-2.24,5.08,5.08,0,0,0-1.76-1.49,5.17,5.17,0,0,0-2.4-.54,5.7,5.7,0,0,0-2.24.43,5.1,5.1,0,0,0-1.79,1.27,5.91,5.91,0,0,0-1.2,2,8.1,8.1,0,0,0-.43,2.77,10.6,10.6,0,0,0,.26,2.92,6.89,6.89,0,0,0,1,2.39,5.12,5.12,0,0,0,1.79,1.61,5.3,5.3,0,0,0,2.59.6,5,5,0,0,0,2.36-.56,5.55,5.55,0,0,0,1.76-1.51,6.94,6.94,0,0,0,1.1-2.21A9,9,0,0,0,438,157.51Z"/><path class="cls-2" d="M446.62,157.9a9.17,9.17,0,0,0,.35,2.54,6.25,6.25,0,0,0,1,2.08,5,5,0,0,0,1.75,1.41,5.37,5.37,0,0,0,2.43.53,5.24,5.24,0,0,0,3.23-1,4.76,4.76,0,0,0,1.79-2.81h2.15a10.77,10.77,0,0,1-.93,2.19A7,7,0,0,1,457,164.6a6.34,6.34,0,0,1-2.05,1.17,8.51,8.51,0,0,1-2.75.41,8,8,0,0,1-3.43-.67,6.37,6.37,0,0,1-2.36-1.84,7.74,7.74,0,0,1-1.38-2.75,12.44,12.44,0,0,1-.45-3.41,10.89,10.89,0,0,1,.53-3.42,8.65,8.65,0,0,1,1.5-2.8A7,7,0,0,1,449,149.4a7.17,7.17,0,0,1,3.2-.69,6.62,6.62,0,0,1,5.37,2.35c1.31,1.57,1.94,3.85,1.92,6.84Zm10.82-1.6a7.73,7.73,0,0,0-.34-2.29,5.35,5.35,0,0,0-1-1.86,4.81,4.81,0,0,0-1.65-1.25,5.29,5.29,0,0,0-2.27-.46,5,5,0,0,0-2.26.48,5.24,5.24,0,0,0-1.66,1.28,6.38,6.38,0,0,0-1.11,1.86,9.06,9.06,0,0,0-.54,2.24Z"/><path class="cls-2" d="M464.12,165.74v-23H466v23Z"/><path class="cls-1" d="M480.7,145.1a1.4,1.4,0,0,1,.42-1,1.35,1.35,0,0,1,1-.41,1.36,1.36,0,0,1,1,.41,1.46,1.46,0,0,1,0,2.05,1.37,1.37,0,0,1-1,.42,1.36,1.36,0,0,1-1-.42A1.39,1.39,0,0,1,480.7,145.1Zm.48,5.85h1.92v14.79h-1.92Z"/><path class="cls-1" d="M489.18,155.11c0-.28,0-.61,0-1s0-.79,0-1.2,0-.78-.05-1.13,0-.63,0-.82h1.92c0,.56,0,1.09.05,1.6a4.38,4.38,0,0,0,.08,1h.09a5.21,5.21,0,0,1,1.92-2.09,5.58,5.58,0,0,1,3.14-.88,5,5,0,0,1,2.69.75,4.3,4.3,0,0,1,1.76,2.45,4.76,4.76,0,0,1,2.09-2.43,5.92,5.92,0,0,1,2.93-.77,6.38,6.38,0,0,1,2.82.54,4.56,4.56,0,0,1,1.71,1.43,5.38,5.38,0,0,1,.86,2,11.62,11.62,0,0,1,.24,2.37v8.8H509.4V157a9.08,9.08,0,0,0-.16-1.74,4.39,4.39,0,0,0-.56-1.52,2.82,2.82,0,0,0-1.12-1.07,3.79,3.79,0,0,0-1.87-.4,4.41,4.41,0,0,0-2.21.49,3.87,3.87,0,0,0-1.36,1.27,5.19,5.19,0,0,0-.7,1.66,7.45,7.45,0,0,0-.21,1.7v8.32h-1.92v-8.9a6.37,6.37,0,0,0-.75-3.3,2.52,2.52,0,0,0-2.32-1.24,5.58,5.58,0,0,0-2,.36,4.37,4.37,0,0,0-1.63,1.12,5.62,5.62,0,0,0-1.09,1.89,8,8,0,0,0-.4,2.67v7.4h-1.92Z"/><path class="cls-1" d="M516.67,151h1.92v2.59h.06a4.91,4.91,0,0,1,1.12-1.32,6.23,6.23,0,0,1,1.46-.93,7.11,7.11,0,0,1,1.65-.55,9,9,0,0,1,1.69-.17,8.33,8.33,0,0,1,3.12.57,7.57,7.57,0,0,1,2.47,1.62,7.25,7.25,0,0,1,1.61,2.46,8.68,8.68,0,0,1,0,6.24,7.15,7.15,0,0,1-4.08,4.08,8.14,8.14,0,0,1-3.12.58,8.24,8.24,0,0,1-1.69-.18,6.65,6.65,0,0,1-1.65-.54,6.57,6.57,0,0,1-1.46-.93,4.81,4.81,0,0,1-1.12-1.33h-.06V173h-1.92Zm1.73,7.39a5.86,5.86,0,0,0,.48,2.36,6.06,6.06,0,0,0,1.31,1.92,6.26,6.26,0,0,0,1.95,1.29,6.13,6.13,0,0,0,2.43.48,5.92,5.92,0,0,0,2.43-.48,5.63,5.63,0,0,0,1.86-1.29A5.7,5.7,0,0,0,530,160.7a7.13,7.13,0,0,0,0-4.71,5.7,5.7,0,0,0-1.17-1.92,5.63,5.63,0,0,0-1.86-1.29,5.92,5.92,0,0,0-2.43-.48,6.13,6.13,0,0,0-2.43.48,6.26,6.26,0,0,0-1.95,1.29,6.06,6.06,0,0,0-1.31,1.92A5.85,5.85,0,0,0,518.4,158.34Z"/><path class="cls-1" d="M537.59,141.54h1.92v24.2h-1.92Z"/><path class="cls-1" d="M557.08,159.53c0,.72,0,1.37,0,1.95s0,1.11,0,1.6,0,.95.08,1.38.08.85.14,1.28h-1.79a13.74,13.74,0,0,1-.19-2.4h-.07a5.37,5.37,0,0,1-2.06,2.11,6.44,6.44,0,0,1-3.12.67,7.53,7.53,0,0,1-1.89-.24,5,5,0,0,1-1.66-.77,4,4,0,0,1-1.2-1.36,4,4,0,0,1-.47-2,3.94,3.94,0,0,1,.87-2.69,5.34,5.34,0,0,1,2.12-1.49,10.37,10.37,0,0,1,2.69-.64,24.1,24.1,0,0,1,2.51-.14h2.24v-.9a3.11,3.11,0,0,0-1.18-2.75,5,5,0,0,0-3-.83,6.75,6.75,0,0,0-4.51,1.66l-1.12-1.31a6.88,6.88,0,0,1,2.63-1.55,9.14,9.14,0,0,1,3-.53,6.72,6.72,0,0,1,4.29,1.26,4.87,4.87,0,0,1,1.6,4.08Zm-3.84-1.22a17.94,17.94,0,0,0-2.35.16,8.2,8.2,0,0,0-2,.55,3.65,3.65,0,0,0-1.45,1,2.36,2.36,0,0,0-.55,1.6,2.28,2.28,0,0,0,.31,1.2,2.58,2.58,0,0,0,.78.86,3.67,3.67,0,0,0,1.07.52,4.52,4.52,0,0,0,1.2.17,6.13,6.13,0,0,0,2.53-.45,4.14,4.14,0,0,0,1.58-1.16,4,4,0,0,0,.82-1.64,7.59,7.59,0,0,0,.22-1.84v-1Z"/><path class="cls-1" d="M562.84,155.11c0-.28,0-.61,0-1s0-.79,0-1.2,0-.78,0-1.13,0-.63,0-.82h1.92c0,.56,0,1.09,0,1.6a5.1,5.1,0,0,0,.08,1h.1a5.08,5.08,0,0,1,1.92-2.09,5.55,5.55,0,0,1,3.13-.88,6.38,6.38,0,0,1,2.82.54,4.56,4.56,0,0,1,1.71,1.43,5.22,5.22,0,0,1,.86,2,11.62,11.62,0,0,1,.24,2.37v8.8h-1.92V157a9.08,9.08,0,0,0-.16-1.74,4.39,4.39,0,0,0-.56-1.52,2.82,2.82,0,0,0-1.12-1.07,3.79,3.79,0,0,0-1.87-.4,5.58,5.58,0,0,0-2,.36,4.37,4.37,0,0,0-1.63,1.12,5.62,5.62,0,0,0-1.09,1.89,8.24,8.24,0,0,0-.4,2.67v7.4h-1.92Z"/><path class="cls-1" d="M588.47,152.68h-4.22v9.63a2.09,2.09,0,0,0,.54,1.54,2.07,2.07,0,0,0,1.51.54,4.67,4.67,0,0,0,1.1-.14,7.09,7.09,0,0,0,1.07-.37l.16,1.73a11.23,11.23,0,0,1-1.24.35,5.55,5.55,0,0,1-1.25.16,4.66,4.66,0,0,1-1.76-.3,3.27,3.27,0,0,1-1.19-.82,3.32,3.32,0,0,1-.65-1.2,5.06,5.06,0,0,1-.21-1.49v-9.63h-3.2V151h3.2V146.7h1.92V151h4.22Z"/><path class="cls-1" d="M592.57,162a4.17,4.17,0,0,0,1.79,1.81,5.35,5.35,0,0,0,2.5.62,3.92,3.92,0,0,0,1.21-.19,3.83,3.83,0,0,0,1.09-.54,3.19,3.19,0,0,0,.79-.85,2.16,2.16,0,0,0,.3-1.14,1.81,1.81,0,0,0-.66-1.53,4.58,4.58,0,0,0-1.61-.8,18.21,18.21,0,0,0-2.11-.5,9.05,9.05,0,0,1-2.12-.64,4.6,4.6,0,0,1-1.61-1.2,3.25,3.25,0,0,1-.66-2.18,3.76,3.76,0,0,1,.45-1.88,4.06,4.06,0,0,1,1.17-1.33,5.14,5.14,0,0,1,1.61-.79,6.68,6.68,0,0,1,1.83-.25,6.9,6.9,0,0,1,3.15.67,4.63,4.63,0,0,1,2.06,2.11l-1.72,1a4.19,4.19,0,0,0-1.36-1.56,3.91,3.91,0,0,0-2.13-.52,3.75,3.75,0,0,0-1.07.16,3.55,3.55,0,0,0-1,.44,2.64,2.64,0,0,0-.75.74,1.73,1.73,0,0,0-.31,1,1.7,1.7,0,0,0,.66,1.48,5,5,0,0,0,1.61.75,20.51,20.51,0,0,0,2.12.46,8.64,8.64,0,0,1,2.11.63,4.18,4.18,0,0,1,1.61,1.24,3.62,3.62,0,0,1,.66,2.32,4.31,4.31,0,0,1-.43,2,4.11,4.11,0,0,1-1.19,1.43,5.29,5.29,0,0,1-1.71.86,7,7,0,0,1-2,.29,8.27,8.27,0,0,1-3.51-.74,5.26,5.26,0,0,1-2.44-2.27Z"/><line class="cls-3" x1="168.39" y1="122.74" x2="432.39" y2="122.74"/><path class="cls-1" d="M137.71,91.83a29.6,29.6,0,0,1-10.23,7.48A33.29,33.29,0,0,1,114.32,102H77.43v-.61a33.48,33.48,0,0,0,4.9-.3,6.66,6.66,0,0,0,3.18-1.24,5.23,5.23,0,0,0,1.72-2.58,14.86,14.86,0,0,0,.52-4.39V42.21c0-3.16-.58-5.32-1.72-6.5s-3.16-1.85-6-2H77.34v-.51h37a31.71,31.71,0,0,1,13.16,2.66,30.16,30.16,0,0,1,10.23,7.4,32.72,32.72,0,0,1,6.58,11,40,40,0,0,1,0,26.61A32.93,32.93,0,0,1,137.71,91.83Zm-15.22,6.88a24.76,24.76,0,0,0,4.09-3.1,26.19,26.19,0,0,0,3.57-4.13,37.79,37.79,0,0,0,5.07-10.83A46,46,0,0,0,137,67.58a46.86,46.86,0,0,0-1.81-13.16,36.51,36.51,0,0,0-5.07-10.84,26.65,26.65,0,0,0-3.57-4.13,24.69,24.69,0,0,0-4.09-3.09,19.91,19.91,0,0,0-9.2-2.67h-9.55a11.76,11.76,0,0,0-3.18.69,5.26,5.26,0,0,0-2.1,1.46,5.55,5.55,0,0,0-1.17,2.49A17.85,17.85,0,0,0,97,42.12V91.4a6.29,6.29,0,0,0,0,.73A7.08,7.08,0,0,1,97,93a17.17,17.17,0,0,0,.38,4,5.78,5.78,0,0,0,1.25,2.5,5.18,5.18,0,0,0,2.32,1.41,13.55,13.55,0,0,0,3.7.56h7.83A20.38,20.38,0,0,0,122.49,98.71Z"/><path class="cls-1" d="M195.76,100.51a20.7,20.7,0,0,0,5-2.23,18.9,18.9,0,0,0,3.83-3.14,25.21,25.21,0,0,0,2.84-3.66,29.64,29.64,0,0,0,3.87-10h.6L209.44,102H152.59v-.61a34.52,34.52,0,0,0,4.95-.3,6.74,6.74,0,0,0,3.22-1.24,5.23,5.23,0,0,0,1.72-2.58,14.86,14.86,0,0,0,.52-4.39V43.24a4.38,4.38,0,0,0,0-.52,2.94,2.94,0,0,1-.05-.51c0-3.16-.56-5.32-1.67-6.5s-3.12-1.85-6-2h-2.75v-.51H207V51.24h-.6v-.09q-.69-2.84-1.59-5.93a17.53,17.53,0,0,0-2.8-5.64,14.62,14.62,0,0,0-5.16-4.21,18.85,18.85,0,0,0-8.6-1.68H172.11V67.32h12.3a9.87,9.87,0,0,0,5.81-1.68,11.36,11.36,0,0,0,4.51-7.35,22.31,22.31,0,0,0,.26-2.41v-.26h.6v24H195v-.26a24.52,24.52,0,0,0-.26-2.5A11.33,11.33,0,0,0,193.36,73,10.76,10.76,0,0,0,190,69.38,10.37,10.37,0,0,0,184,67.83H172.11V91.4A8.77,8.77,0,0,1,172.2,93a16.57,16.57,0,0,0,.39,4,5.07,5.07,0,0,0,3.65,3.91,13.22,13.22,0,0,0,3.61.56h9.55A21.65,21.65,0,0,0,195.76,100.51Z"/><path class="cls-1" d="M219.5,80.13h.69a20.69,20.69,0,0,0,.43,4,31.53,31.53,0,0,0,1.2,4.39,27.11,27.11,0,0,0,1.89,4.17,12,12,0,0,0,2.5,3.18,20.57,20.57,0,0,0,6.19,3.74,21.4,21.4,0,0,0,7.31,1.42h.77a23.52,23.52,0,0,0,7.31-1.46,14,14,0,0,0,5.85-4.9,12.91,12.91,0,0,0,2.28-6.84,13.34,13.34,0,0,0-2-7.31,17,17,0,0,0-7.05-6.24L236,68.69a31.63,31.63,0,0,1-8.6-6.06,20.39,20.39,0,0,1-4.51-6.79,15,15,0,0,1-1-6.93A16.07,16.07,0,0,1,224,42.46a19,19,0,0,1,4.6-5.33,23.49,23.49,0,0,1,6.58-3.7,15.74,15.74,0,0,1,3.44-.94,22.74,22.74,0,0,1,3.53-.26,21,21,0,0,1,7.74,1.46c.91.35,1.89.69,2.92,1a11.75,11.75,0,0,0,3.1.61,6.43,6.43,0,0,0,2.92-.52,5.48,5.48,0,0,0,2.41-2.32h.6V51.15h-.69a13.58,13.58,0,0,0-.56-3.78,20.57,20.57,0,0,0-1.5-3.83,23.46,23.46,0,0,0-2.15-3.44,20.61,20.61,0,0,0-2.41-2.71,17.39,17.39,0,0,0-5.67-3.4,19.56,19.56,0,0,0-6.71-1.16,20,20,0,0,0-3,.22,17.74,17.74,0,0,0-2.88.64,12.36,12.36,0,0,0-6.15,4.13,8.84,8.84,0,0,0-1.81,6.53q.39,3.7,3.83,7.87t10.75,8.3l9.89,5.08a24.79,24.79,0,0,1,7.48,5.89,17.94,17.94,0,0,1,3.79,7.09,15.31,15.31,0,0,1,.08,7.4,15.9,15.9,0,0,1-3.57,6.84,23.13,23.13,0,0,1-7.18,5.41,33.53,33.53,0,0,1-10.75,3.14h.18c-.46.06-.88.1-1.25.13s-.76,0-1.16,0h-.86a19.62,19.62,0,0,1-7.48-1.46v0a5.92,5.92,0,0,1-.86-.34,15.72,15.72,0,0,0-5.68-1.33,7.24,7.24,0,0,0-3.31.68,3.56,3.56,0,0,0-1.59,1.55c-.29.6-.46,1-.52,1.16v.09h-.6Z"/><path class="cls-1" d="M276,101.07a6.78,6.78,0,0,0,3.23-1.24A5.29,5.29,0,0,0,281,97.25a15.25,15.25,0,0,0,.51-4.39V42.21c0-3.16-.55-5.32-1.67-6.5s-3.11-1.85-6-2H271.1v-.51H301v.42h0v.09h-3.44c-2.58.29-4.38,1-5.38,2.15s-1.5,3.24-1.5,6.28V93a17.17,17.17,0,0,0,.38,4,5.51,5.51,0,0,0,1.29,2.5,5.57,5.57,0,0,0,2.41,1.41,13.68,13.68,0,0,0,3.66.56h2.66V102h-30v-.61A34.27,34.27,0,0,0,276,101.07Z"/><path class="cls-1" d="M305.84,102v-.61h.09a34.27,34.27,0,0,0,4.94-.3,6.42,6.42,0,0,0,3.18-1.24,5.3,5.3,0,0,0,1.68-2.58,14.86,14.86,0,0,0,.52-4.39V42.21c0-3.16-.56-5.32-1.68-6.5s-3.11-1.85-6-2h-2.75v-.51h32.77a35,35,0,0,1,10,1.29,22.1,22.1,0,0,1,6.88,3.69,14.61,14.61,0,0,1,3.92,5.38,17.5,17.5,0,0,1,1.33,6.92q0,7.74-5.25,12.3a20.57,20.57,0,0,1-6.88,3.7,17.83,17.83,0,0,1-4,.94c-1.4.18-2.88.32-4.42.43A13,13,0,0,1,344,69.64a19.41,19.41,0,0,1,4.6,4.73l16.17,22.44a8.59,8.59,0,0,0,2.88,2.54,17.92,17.92,0,0,0,3.27,1.38,13.81,13.81,0,0,0,2.8.56l1.46.08h.08V102H358l-21-29.07a20.47,20.47,0,0,0-2.36-2.71,10.17,10.17,0,0,0-2.07-1.51A6.77,6.77,0,0,0,330.7,68a10.64,10.64,0,0,0-2-.18h-3.18V93a17.17,17.17,0,0,0,.38,4,5.06,5.06,0,0,0,3.66,3.91,13.16,13.16,0,0,0,3.61.56h2.67V102h-30Zm19.7-34.66h12.38a12.36,12.36,0,0,0,7.22-2.15,13.37,13.37,0,0,0,1.94-1.77,15,15,0,0,0,1.85-2.53,20.83,20.83,0,0,0,1.63-4.69,25.62,25.62,0,0,0,.6-5.72q0-7.4-3.18-11.87a11.66,11.66,0,0,0-10.06-4.9h-5.59a11.76,11.76,0,0,0-3.18.69A5.29,5.29,0,0,0,327,35.84a5.65,5.65,0,0,0-1.16,2.49,17.85,17.85,0,0,0-.34,3.79v25.2Z"/><path class="cls-1" d="M423.58,100.51a21,21,0,0,0,5-2.23,19.11,19.11,0,0,0,3.82-3.14,25.21,25.21,0,0,0,2.84-3.66,29.22,29.22,0,0,0,3.87-10h.6L437.25,102H380.4v-.61a34.52,34.52,0,0,0,5-.3,6.7,6.7,0,0,0,3.22-1.24,5.16,5.16,0,0,0,1.72-2.58,14.86,14.86,0,0,0,.52-4.39V43.24a4.38,4.38,0,0,0,0-.52,2.94,2.94,0,0,1,0-.51c0-3.16-.55-5.32-1.67-6.5s-3.11-1.85-6-2h-2.75v-.51h54.52V51.24h-.6v-.09q-.69-2.84-1.59-5.93a17.53,17.53,0,0,0-2.8-5.64,14.62,14.62,0,0,0-5.16-4.21,18.85,18.85,0,0,0-8.6-1.68H399.93V67.32h12.29A9.87,9.87,0,0,0,418,65.64a11.36,11.36,0,0,0,4.51-7.35,19.91,19.91,0,0,0,.26-2.41v-.26h.6v24h-.6v-.26a21.81,21.81,0,0,0-.26-2.5A11.33,11.33,0,0,0,421.17,73a10.83,10.83,0,0,0-3.31-3.57,10.42,10.42,0,0,0-6.07-1.55H399.93V91.4A10.29,10.29,0,0,1,400,93a16.57,16.57,0,0,0,.39,4,5.07,5.07,0,0,0,3.65,3.91,13.24,13.24,0,0,0,3.62.56h9.54A21.77,21.77,0,0,0,423.58,100.51Z"/><path class="cls-1" d="M506.48,91.83a29.69,29.69,0,0,1-10.23,7.48A33.33,33.33,0,0,1,483.09,102h-36.9v-.61a33.63,33.63,0,0,0,4.91-.3,6.75,6.75,0,0,0,3.18-1.24A5.29,5.29,0,0,0,456,97.25a15.25,15.25,0,0,0,.51-4.39V42.21c0-3.16-.57-5.32-1.72-6.5s-3.15-1.85-6-2h-2.66v-.51h37a31.74,31.74,0,0,1,13.16,2.66,30.26,30.26,0,0,1,10.23,7.4,32.72,32.72,0,0,1,6.58,11,40,40,0,0,1,0,26.61A32.93,32.93,0,0,1,506.48,91.83Zm-15.22,6.88a24.69,24.69,0,0,0,4.08-3.1,26.19,26.19,0,0,0,3.57-4.13A37.8,37.8,0,0,0,504,80.65a46,46,0,0,0,1.8-13.07A46.86,46.86,0,0,0,504,54.42a36.52,36.52,0,0,0-5.08-10.84,26.65,26.65,0,0,0-3.57-4.13,24.62,24.62,0,0,0-4.08-3.09,19.91,19.91,0,0,0-9.2-2.67h-9.55a11.76,11.76,0,0,0-3.18.69,5.29,5.29,0,0,0-2.11,1.46,5.55,5.55,0,0,0-1.16,2.49,17.85,17.85,0,0,0-.34,3.79V91.4a6.29,6.29,0,0,0,0,.73,7.15,7.15,0,0,1,0,.82,16.57,16.57,0,0,0,.39,4,5.67,5.67,0,0,0,1.25,2.5,5.13,5.13,0,0,0,2.32,1.41,13.42,13.42,0,0,0,3.7.56h7.82A20.42,20.42,0,0,0,491.26,98.71Z"/><path class="cls-2" d="M495.13,33.32l.12-.13a2,2,0,0,1,2.25,1.63,13.39,13.39,0,0,1,.38,3A55.17,55.17,0,0,1,497.44,48c-.46,3.3-.86,6.52-1.19,9.69q-.63,6.5-1.25,13.19t-1.12,13.44q-.75,11.87-1.63,23.68a222.35,222.35,0,0,0-.37,24.94,15,15,0,0,0,.12,1.75,16.34,16.34,0,0,1,.13,1.94,5.56,5.56,0,0,1-.25,1.69,1,1,0,0,1-1,.75,1.78,1.78,0,0,1-2.19-1.5,20.35,20.35,0,0,1-.56-3.25c-.17-1.34-.27-2.63-.32-3.88s-.1-2.37-.18-3.37q.12-3.75,0-7.44t0-7.06q.12-18.13,1.5-34.44t3.5-32.69l.75-6.37a25.53,25.53,0,0,0,.31-3.07,4.13,4.13,0,0,1,1.06-2.68Z"/><path class="cls-2" d="M513.25,80.32a9.71,9.71,0,0,1,6.69,2.62A12.07,12.07,0,0,1,523,89.32c2.67-.5,5.44-1.07,8.31-1.69s5.69-1.27,8.44-1.94a8.74,8.74,0,0,0,1.25-.44,11.36,11.36,0,0,1,1.56-.5,4.68,4.68,0,0,1,1.44-.12,1,1,0,0,1,.88.56.78.78,0,0,1-.25,1,6,6,0,0,1-1.25.69,9.71,9.71,0,0,1-1.63.5c-.58.12-1,.23-1.25.31q-4,1.25-8.44,2.19c-2.95.62-5.89,1.23-8.81,1.81a26.17,26.17,0,0,1-1.06,9.06,31.64,31.64,0,0,1-3.44,7.69,39.41,39.41,0,0,1-4.81,6,13.86,13.86,0,0,1-6.56,3.75H505.5a5,5,0,0,1-2.12-.94,16.18,16.18,0,0,1-1.63-1.43,11,11,0,0,1-1.94-5.44,32.77,32.77,0,0,1,.07-6.63A60.13,60.13,0,0,1,501,97q.75-3.3,1.38-5.93a4.93,4.93,0,0,1-.07-4.5,9.84,9.84,0,0,1,2.44-3.25,21.29,21.29,0,0,0,.94-2.63,20.4,20.4,0,0,1,1.06-2.87,8.92,8.92,0,0,1,1.56-2.38,3.19,3.19,0,0,1,2.44-1,2.45,2.45,0,0,1,2.5,1.81A6.71,6.71,0,0,1,513.25,80.32Zm-6,13c-.42,2.41-.94,5-1.56,7.81a31,31,0,0,0-.69,8.56,11,11,0,0,0,.44,2.13,3.09,3.09,0,0,0,1.19,1.62,9.7,9.7,0,0,0,5.75-3c1.41-1.58,2.75-3.21,4-4.87a49.73,49.73,0,0,0,3-6.07,15.17,15.17,0,0,0,1-7.31,56.78,56.78,0,0,1-6.38.94A52.49,52.49,0,0,1,507.25,93.32Zm5.5-10.38a3.81,3.81,0,0,0-.25,1.44.84.84,0,0,1-.75.94,1.58,1.58,0,0,1-.56-.07,3.42,3.42,0,0,1-.44-.18,2.27,2.27,0,0,1-.12-1.75,5.31,5.31,0,0,0-.94,1.62,17.43,17.43,0,0,0-.56,1.88,18.49,18.49,0,0,0-.63,2c-.17.66-.33,1.33-.5,2,2.33,0,4.5-.09,6.5-.25s4-.42,5.88-.75a9.91,9.91,0,0,0-2.32-4.94Q516.38,83.07,512.75,82.94Z"/><path class="cls-2" d="M551.25,80.32a9.73,9.73,0,0,1,6.69,2.62A12.07,12.07,0,0,1,561,89.32c2.67-.5,5.44-1.07,8.31-1.69s5.69-1.27,8.44-1.94a8.74,8.74,0,0,0,1.25-.44,11.36,11.36,0,0,1,1.56-.5,4.66,4.66,0,0,1,1.44-.12,1,1,0,0,1,.88.56.77.77,0,0,1-.26,1,5.7,5.7,0,0,1-1.24.69,9.71,9.71,0,0,1-1.63.5c-.58.12-1,.23-1.25.31q-4,1.25-8.44,2.19c-3,.62-5.89,1.23-8.81,1.81a26.17,26.17,0,0,1-1.06,9.06,31.64,31.64,0,0,1-3.44,7.69,39.41,39.41,0,0,1-4.81,6,13.91,13.91,0,0,1-6.56,3.75H543.5a5,5,0,0,1-2.12-.94,16.18,16.18,0,0,1-1.63-1.43,11,11,0,0,1-1.94-5.44,32.06,32.06,0,0,1,.07-6.63A57.94,57.94,0,0,1,539,97q.75-3.3,1.38-5.93a4.9,4.9,0,0,1-.07-4.5,9.71,9.71,0,0,1,2.44-3.25,23.07,23.07,0,0,0,.94-2.63,20.4,20.4,0,0,1,1.06-2.87,8.92,8.92,0,0,1,1.56-2.38,3.19,3.19,0,0,1,2.44-1,2.45,2.45,0,0,1,2.5,1.81A6.71,6.71,0,0,1,551.25,80.32Zm-6,13c-.42,2.41-.94,5-1.56,7.81a30.58,30.58,0,0,0-.69,8.56,11,11,0,0,0,.44,2.13,3.07,3.07,0,0,0,1.18,1.62,9.7,9.7,0,0,0,5.76-3c1.41-1.58,2.74-3.21,4-4.87a49.73,49.73,0,0,0,3-6.07,15.29,15.29,0,0,0,1-7.31,56.78,56.78,0,0,1-6.38.94A52.49,52.49,0,0,1,545.25,93.32Zm5.5-10.38a3.81,3.81,0,0,0-.25,1.44.84.84,0,0,1-.75.94,1.58,1.58,0,0,1-.56-.07,3.42,3.42,0,0,1-.44-.18,2.31,2.31,0,0,1-.13-1.75,5.28,5.28,0,0,0-.93,1.62c-.21.58-.4,1.21-.57,1.88s-.45,1.33-.62,2-.33,1.33-.5,2c2.33,0,4.5-.09,6.5-.25s4-.42,5.88-.75a9.91,9.91,0,0,0-2.32-4.94Q554.38,83.07,550.75,82.94Z"/><path class="cls-2" d="M583.75,92.32c1.5-1.34,3-2.77,4.44-4.32a58,58,0,0,1,4.68-4.43c.59-.5,1.19-1,1.82-1.44a3,3,0,0,1,2.18-.56,2.44,2.44,0,0,1,1.38,1.12A4,4,0,0,1,597,85.38c-.75.71-1.46,1.39-2.13,2.06q-2.86,2.88-5.93,5.88a70.87,70.87,0,0,0-5.69,6.25,14.31,14.31,0,0,0-.25,2.62c0,.83,0,1.71-.13,2.63a22.16,22.16,0,0,0,5.94.18,32.12,32.12,0,0,0,5.44-1.06,37.46,37.46,0,0,0,5-1.81q2.37-1.06,4.5-2.06a79,79,0,0,0,8.62-4.5q4.13-2.5,8.13-5,1.88-1.38,3.81-2.69l3.94-2.69a2.57,2.57,0,0,0,1.5-.75q.62-.63,1.5,0a1.13,1.13,0,0,1-.38,1.5,5.47,5.47,0,0,0-1.25,1.13q-1.87,1.62-3.87,3.06c-1.34,1-2.71,1.89-4.13,2.81q-2.75,2-5.56,3.69t-5.81,3.44a59.25,59.25,0,0,0-6.06,3.06,62.76,62.76,0,0,1-6.25,3.12,38.16,38.16,0,0,1-7,2.25,27.89,27.89,0,0,1-8.32.44c-.16,2.17-.27,4.36-.31,6.56s0,4.4.06,6.57a1.39,1.39,0,0,0,.82.31.71.71,0,0,1,.68.44,5.45,5.45,0,0,1,.19,3.37,2.45,2.45,0,0,1-2.19,2,3.06,3.06,0,0,1-1.68-1.25,7,7,0,0,1-.88-2.12,13.33,13.33,0,0,1-.37-2.69c-.05-1-.11-1.9-.19-2.81-.17-1.84-.25-3.75-.25-5.75v-5.88c-.58-.67-1.13-1.33-1.63-2a3.63,3.63,0,0,1-.5-2.75,6.79,6.79,0,0,1,1.13-2.87q.87-1.26,1.5-2.25,1.13-14.76,3.12-28.63t5-27c.25-1.17.57-2.5.94-4s1.06-2.33,2.06-2.5a1.52,1.52,0,0,1,1.38.31,8.25,8.25,0,0,1,.75,1.07,30.64,30.64,0,0,1-1,6.75q-.88,3.24-1.5,6.5-2,10.13-3.5,20.62T583.75,92.32Z"/><path class="cls-1" d="M36.41,18c0,.73,0,1.38,0,2s0,1.11,0,1.6.05.95.08,1.37.08.86.15,1.28H34.91a13.53,13.53,0,0,1-.2-2.4h-.06a5.3,5.3,0,0,1-2.06,2.11,6.43,6.43,0,0,1-3.12.68,7.53,7.53,0,0,1-1.89-.24,5.1,5.1,0,0,1-1.67-.77,4.15,4.15,0,0,1-1.2-1.36,4.22,4.22,0,0,1-.46-2,4,4,0,0,1,.86-2.69A5.43,5.43,0,0,1,27.24,16a10,10,0,0,1,2.69-.64,24.37,24.37,0,0,1,2.51-.15h2.24v-.89a3.14,3.14,0,0,0-1.18-2.76,5.09,5.09,0,0,0-3-.83A6.76,6.76,0,0,0,26,12.42L24.89,11.1a6.84,6.84,0,0,1,2.62-1.55,9.51,9.51,0,0,1,3-.53,6.76,6.76,0,0,1,4.29,1.27,4.87,4.87,0,0,1,1.6,4.08Zm-3.84-1.21a16.36,16.36,0,0,0-2.35.16,8.2,8.2,0,0,0-2,.54,3.88,3.88,0,0,0-1.46,1,2.38,2.38,0,0,0-.54,1.6,2.43,2.43,0,0,0,.3,1.2,2.72,2.72,0,0,0,.79.86,3.91,3.91,0,0,0,1.07.51,4.16,4.16,0,0,0,1.2.18,6.16,6.16,0,0,0,2.53-.45,4.27,4.27,0,0,0,1.58-1.17,4,4,0,0,0,.82-1.63,7.65,7.65,0,0,0,.22-1.84v-1Z"/><path class="cls-1" d="M54.52,22A6.8,6.8,0,0,1,52.06,24a7.08,7.08,0,0,1-3,.63A8.42,8.42,0,0,1,46,24a7.07,7.07,0,0,1-2.47-1.62,7.53,7.53,0,0,1-1.6-2.46,8.33,8.33,0,0,1-.57-3.12,8.33,8.33,0,0,1,.57-3.12,7.53,7.53,0,0,1,1.6-2.46A7.07,7.07,0,0,1,46,9.6,8.42,8.42,0,0,1,49.08,9a6.87,6.87,0,0,1,3,.68,8,8,0,0,1,2.48,1.88l-1.54,1.16a6.54,6.54,0,0,0-1.82-1.46,4.56,4.56,0,0,0-2.15-.53,6,6,0,0,0-2.43.48,5.72,5.72,0,0,0-1.86,1.3,5.34,5.34,0,0,0-1.16,1.92,7.1,7.1,0,0,0,0,4.7,5.34,5.34,0,0,0,1.16,1.92,5.72,5.72,0,0,0,1.86,1.3,6,6,0,0,0,2.43.48,4.58,4.58,0,0,0,2.23-.56,5.76,5.76,0,0,0,1.74-1.49Z"/><path class="cls-1" d="M58.17,0h1.92V12h.06a5.3,5.3,0,0,1,1.92-2.1A5.68,5.68,0,0,1,65.21,9,6.38,6.38,0,0,1,68,9.57,4.63,4.63,0,0,1,69.74,11a5.52,5.52,0,0,1,.86,2,11.62,11.62,0,0,1,.24,2.37v8.8H68.92v-8.7a9.19,9.19,0,0,0-.16-1.75,4.46,4.46,0,0,0-.56-1.52,3,3,0,0,0-1.12-1.07,3.9,3.9,0,0,0-1.87-.4,5.59,5.59,0,0,0-2,.37,4.37,4.37,0,0,0-1.63,1.12,5.43,5.43,0,0,0-1.09,1.89,8,8,0,0,0-.4,2.67v7.39H58.17Z"/><path class="cls-1" d="M76.44,3.55a1.45,1.45,0,0,1,2.47-1,1.42,1.42,0,0,1,.41,1,1.45,1.45,0,0,1-2.46,1A1.4,1.4,0,0,1,76.44,3.55Zm.48,5.86h1.92V24.19H76.92Z"/><path class="cls-1" d="M98,21.41a6.48,6.48,0,0,1-2.77,2.43,8.82,8.82,0,0,1-3.63.74A7.92,7.92,0,0,1,88.51,24a6.76,6.76,0,0,1-2.37-1.62,7,7,0,0,1-1.52-2.46,9.05,9.05,0,0,1-.53-3.15,8.46,8.46,0,0,1,.54-3.07,7.44,7.44,0,0,1,1.54-2.45,7,7,0,0,1,2.34-1.63,7.16,7.16,0,0,1,3-.6,7,7,0,0,1,3,.6,6.47,6.47,0,0,1,2.18,1.56A6.65,6.65,0,0,1,98,13.41a7.38,7.38,0,0,1,.45,2.53v1.34H86a6.52,6.52,0,0,0,.24,1.55,5.45,5.45,0,0,0,.88,1.84,5.68,5.68,0,0,0,1.71,1.54,5.43,5.43,0,0,0,2.77.64,6.2,6.2,0,0,0,2.85-.71,5.11,5.11,0,0,0,2.11-1.92Zm-1.47-5.86a4.42,4.42,0,0,0-.4-1.85A4.87,4.87,0,0,0,95,12.18a5.11,5.11,0,0,0-1.63-1,5.2,5.2,0,0,0-2-.39,5,5,0,0,0-2.61.64,5.67,5.67,0,0,0-1.65,1.47,5.82,5.82,0,0,0-.86,1.62A3.93,3.93,0,0,0,86,15.55Z"/><path class="cls-1" d="M101.24,9.41h2.18l4.93,12.7,4.8-12.7h1.95l-5.83,14.78h-2Z"/><path class="cls-1" d="M131.83,21.41a6.46,6.46,0,0,1-2.76,2.43,8.84,8.84,0,0,1-3.64.74,8,8,0,0,1-3.07-.58A6.76,6.76,0,0,1,120,22.38a7.18,7.18,0,0,1-1.52-2.46,9.05,9.05,0,0,1-.52-3.15,8.46,8.46,0,0,1,.54-3.07A7.13,7.13,0,0,1,120,11.25a7.06,7.06,0,0,1,2.33-1.63,7.24,7.24,0,0,1,3-.6,7,7,0,0,1,3,.6,6.57,6.57,0,0,1,2.18,1.56,6.79,6.79,0,0,1,1.32,2.23,7.38,7.38,0,0,1,.45,2.53v1.34H119.87a6.52,6.52,0,0,0,.24,1.55,5.58,5.58,0,0,0,2.59,3.38,5.38,5.38,0,0,0,2.77.64,6.13,6.13,0,0,0,2.84-.71,5.2,5.2,0,0,0,2.12-1.92Zm-1.47-5.86a4.27,4.27,0,0,0-.4-1.85,4.87,4.87,0,0,0-1.09-1.52,5,5,0,0,0-1.63-1,5.17,5.17,0,0,0-2-.39,5,5,0,0,0-2.61.64A5.76,5.76,0,0,0,121,12.86a5.87,5.87,0,0,0-.87,1.62,4.2,4.2,0,0,0-.25,1.07Z"/><path class="cls-1" d="M150.3,28.77A5.62,5.62,0,0,1,148.79,31a3.79,3.79,0,0,1-2.56.83,6.22,6.22,0,0,1-1-.08,6.51,6.51,0,0,1-.92-.21l.19-1.79c.27.09.56.17.85.24a3.22,3.22,0,0,0,.88.11,1.83,1.83,0,0,0,.91-.22,2.54,2.54,0,0,0,.69-.58,3.82,3.82,0,0,0,.49-.78c.14-.29.26-.58.37-.88l1.34-3.42-6-14.85h2.14l4.9,12.45,4.77-12.45h2Z"/><path class="cls-1" d="M160.73,16.8a8.14,8.14,0,0,1,.58-3.12,7.22,7.22,0,0,1,1.6-2.46,6.94,6.94,0,0,1,2.46-1.62A8.43,8.43,0,0,1,168.51,9a8.33,8.33,0,0,1,3.12.58,7.22,7.22,0,0,1,2.46,1.62,7.42,7.42,0,0,1,1.62,2.46,8.33,8.33,0,0,1,.57,3.12,8.33,8.33,0,0,1-.57,3.12,7.42,7.42,0,0,1-1.62,2.46A7.22,7.22,0,0,1,171.63,24a8.33,8.33,0,0,1-3.12.58,8.43,8.43,0,0,1-3.14-.58,6.94,6.94,0,0,1-2.46-1.62,7.22,7.22,0,0,1-1.6-2.46A8.14,8.14,0,0,1,160.73,16.8Zm1.92,0a6.75,6.75,0,0,0,.4,2.35,5.51,5.51,0,0,0,1.17,1.92,5.57,5.57,0,0,0,1.85,1.3,6.42,6.42,0,0,0,4.87,0,5.57,5.57,0,0,0,1.85-1.3A5.36,5.36,0,0,0,174,19.15a7.1,7.1,0,0,0,0-4.7,5.36,5.36,0,0,0-1.17-1.92,5.57,5.57,0,0,0-1.85-1.3,6.42,6.42,0,0,0-4.87,0,5.57,5.57,0,0,0-1.85,1.3,5.51,5.51,0,0,0-1.17,1.92A6.75,6.75,0,0,0,162.65,16.8Z"/><path class="cls-1" d="M193.72,20c0,.28,0,.62,0,1s0,.79.05,1.2,0,.78,0,1.14,0,.62,0,.81H192c0-.55,0-1.09-.05-1.6a4.45,4.45,0,0,0-.08-1h-.09a5.3,5.3,0,0,1-1.92,2.1,5.66,5.66,0,0,1-3.14.88,6.45,6.45,0,0,1-2.83-.55,4.54,4.54,0,0,1-1.73-1.42,5.34,5.34,0,0,1-.85-2,12.37,12.37,0,0,1-.22-2.37V9.41H183v8.7a9.19,9.19,0,0,0,.16,1.75,4.68,4.68,0,0,0,.56,1.52,3,3,0,0,0,1.12,1.07,3.9,3.9,0,0,0,1.87.4,5.34,5.34,0,0,0,2-.37,4.37,4.37,0,0,0,1.63-1.12,5.43,5.43,0,0,0,1.09-1.89,8,8,0,0,0,.4-2.67V9.41h1.92Z"/><path class="cls-1" d="M199.64,13.57c0-.28,0-.61,0-1s0-.79-.05-1.2,0-.78-.05-1.14,0-.62,0-.81h1.92c0,.55,0,1.09,0,1.6a5.19,5.19,0,0,0,.08,1,6.52,6.52,0,0,1,1.89-2.14A4.63,4.63,0,0,1,206.23,9a3.33,3.33,0,0,1,.56.05l.56.11-.22,1.89a2.51,2.51,0,0,0-.74-.13,5.48,5.48,0,0,0-2.16.4,4.11,4.11,0,0,0-1.5,1.11,4.52,4.52,0,0,0-.88,1.65,7,7,0,0,0-.29,2v8.06h-1.92Z"/></g></g></svg>