<svg xmlns="http://www.w3.org/2000/svg" viewBox="0 0 558.04 223.55"><defs><style>.cls-1{fill:#53575a;}.cls-2{fill:none;stroke:#ff8300;}.cls-3{fill:#ff8300;}</style></defs><g id="Layer_2" data-name="Layer 2"><g id="Layer_1-2" data-name="Layer 1"><path class="cls-1" d="M13.76,213.28H13.7a5.32,5.32,0,0,1-1.12,1.33,7.22,7.22,0,0,1-1.46.93,7.59,7.59,0,0,1-1.65.54,8.24,8.24,0,0,1-1.69.18,8.47,8.47,0,0,1-3.14-.58,6.94,6.94,0,0,1-2.46-1.62,7.22,7.22,0,0,1-1.6-2.46,8.68,8.68,0,0,1,0-6.24,7.22,7.22,0,0,1,1.6-2.46,6.94,6.94,0,0,1,2.46-1.62,8.47,8.47,0,0,1,3.14-.58,8.24,8.24,0,0,1,1.69.18,7.59,7.59,0,0,1,1.65.54,7.22,7.22,0,0,1,1.46.93,5.32,5.32,0,0,1,1.12,1.33h.06v-12h1.92v24.19H13.76Zm.19-4.8a5.81,5.81,0,0,0-.48-2.35,6,6,0,0,0-1.31-1.92,6.34,6.34,0,0,0-1.95-1.3,6.13,6.13,0,0,0-2.43-.48,6,6,0,0,0-2.44.48,5.57,5.57,0,0,0-1.85,1.3,5.51,5.51,0,0,0-1.17,1.92,7.1,7.1,0,0,0,0,4.7,5.51,5.51,0,0,0,1.17,1.92,5.57,5.57,0,0,0,1.85,1.3,6,6,0,0,0,2.44.48,6.13,6.13,0,0,0,2.43-.48,6.34,6.34,0,0,0,1.95-1.3,6,6,0,0,0,1.31-1.92A5.81,5.81,0,0,0,14,208.48Z"/><path class="cls-1" d="M34.05,213.09a6.48,6.48,0,0,1-2.77,2.43,8.82,8.82,0,0,1-3.63.74,7.92,7.92,0,0,1-3.07-.58,6.76,6.76,0,0,1-2.37-1.62,7,7,0,0,1-1.52-2.46,9.05,9.05,0,0,1-.53-3.15,8.46,8.46,0,0,1,.54-3.07,7.44,7.44,0,0,1,1.54-2.45,7,7,0,0,1,2.34-1.63,7.16,7.16,0,0,1,3-.6,7,7,0,0,1,3,.6,6.47,6.47,0,0,1,2.18,1.56,6.65,6.65,0,0,1,1.33,2.23,7.38,7.38,0,0,1,.45,2.53V209H22.08a6.52,6.52,0,0,0,.24,1.55,5.45,5.45,0,0,0,.88,1.84,5.68,5.68,0,0,0,1.71,1.54,5.43,5.43,0,0,0,2.77.64,6.2,6.2,0,0,0,2.85-.71,5.18,5.18,0,0,0,2.11-1.92Zm-1.47-5.86a4.42,4.42,0,0,0-.4-1.85,4.87,4.87,0,0,0-1.09-1.52,5.11,5.11,0,0,0-1.63-1,5.2,5.2,0,0,0-2-.39,5,5,0,0,0-2.61.64,5.67,5.67,0,0,0-1.65,1.47,5.82,5.82,0,0,0-.86,1.62,3.93,3.93,0,0,0-.26,1.07Z"/><path class="cls-1" d="M39.46,212.1a4,4,0,0,0,1.79,1.8,5.23,5.23,0,0,0,2.49.63,4.31,4.31,0,0,0,1.22-.19,3.73,3.73,0,0,0,1.09-.55,2.87,2.87,0,0,0,.78-.85,2.15,2.15,0,0,0,.31-1.13,1.82,1.82,0,0,0-.66-1.54,4.91,4.91,0,0,0-1.62-.8,17.79,17.79,0,0,0-2.11-.49,9.46,9.46,0,0,1-2.11-.64,4.63,4.63,0,0,1-1.62-1.2,3.32,3.32,0,0,1-.65-2.18,3.78,3.78,0,0,1,.45-1.89A4.12,4.12,0,0,1,40,201.74,5.07,5.07,0,0,1,41.6,201a6.62,6.62,0,0,1,1.82-.26,6.91,6.91,0,0,1,3.16.68,4.63,4.63,0,0,1,2.06,2.11l-1.73,1A4,4,0,0,0,45.55,203a3.86,3.86,0,0,0-2.13-.53,3.75,3.75,0,0,0-1.07.16,4,4,0,0,0-1,.45,2.52,2.52,0,0,0-.75.74,1.77,1.77,0,0,0-.3,1,1.72,1.72,0,0,0,.65,1.47,5.06,5.06,0,0,0,1.62.75,17.93,17.93,0,0,0,2.11.47,8.51,8.51,0,0,1,2.11.62,4.42,4.42,0,0,1,1.62,1.25,3.6,3.6,0,0,1,.66,2.32,4.34,4.34,0,0,1-.44,2,4,4,0,0,1-1.18,1.42,5.12,5.12,0,0,1-1.71.87,7,7,0,0,1-2,.29,8.19,8.19,0,0,1-3.5-.74,5.33,5.33,0,0,1-2.45-2.27Z"/><path class="cls-1" d="M53.54,195.23a1.36,1.36,0,0,1,.41-1,1.46,1.46,0,0,1,2,0,1.37,1.37,0,0,1,.42,1,1.4,1.4,0,0,1-.42,1,1.49,1.49,0,0,1-2,0A1.39,1.39,0,0,1,53.54,195.23Zm.48,5.86h1.92v14.78H54Z"/><path class="cls-1" d="M76.86,214.91a10.39,10.39,0,0,1-.8,4.45,7,7,0,0,1-2,2.62,6.61,6.61,0,0,1-2.57,1.25,10.61,10.61,0,0,1-4.69.11,10.87,10.87,0,0,1-2-.6,9,9,0,0,1-1.75-1,7,7,0,0,1-1.36-1.31L63.17,219a6.07,6.07,0,0,0,2.56,2.11,8,8,0,0,0,3.26.67,6.92,6.92,0,0,0,2.48-.38,5,5,0,0,0,1.67-1,4.94,4.94,0,0,0,1-1.37,7.22,7.22,0,0,0,.54-1.51,7.51,7.51,0,0,0,.21-1.42c0-.45,0-.81,0-1.09v-2h-.06a5.88,5.88,0,0,1-2.26,2.11,6.84,6.84,0,0,1-3.34.77,8.07,8.07,0,0,1-3.07-.59,7.77,7.77,0,0,1-2.51-1.63,7.91,7.91,0,0,1-1.7-2.42,7.3,7.3,0,0,1,0-5.89,7.82,7.82,0,0,1,1.7-2.4,8.3,8.3,0,0,1,2.51-1.63,7.9,7.9,0,0,1,3.07-.61,7,7,0,0,1,3.34.77,6,6,0,0,1,2.26,2.11h.06v-2.49h1.92ZM75,208.29a5.69,5.69,0,0,0-.47-2.29,5.79,5.79,0,0,0-3.1-3.1,5.81,5.81,0,0,0-4.58,0,5.79,5.79,0,0,0-3.1,3.1,5.81,5.81,0,0,0,0,4.58A5.81,5.81,0,0,0,65,212.43a6,6,0,0,0,1.85,1.25,5.93,5.93,0,0,0,4.58,0,6,6,0,0,0,1.85-1.25,5.81,5.81,0,0,0,1.25-1.85A5.72,5.72,0,0,0,75,208.29Z"/><path class="cls-1" d="M82.18,205.25c0-.28,0-.62,0-1s0-.79,0-1.2,0-.78,0-1.14,0-.62,0-.81h1.92c0,.55,0,1.09,0,1.6a5.19,5.19,0,0,0,.08,1h.1a5.16,5.16,0,0,1,1.92-2.1,5.66,5.66,0,0,1,3.14-.88,6.3,6.3,0,0,1,2.81.55,4.38,4.38,0,0,1,1.71,1.42,5.37,5.37,0,0,1,.87,2,11.62,11.62,0,0,1,.24,2.37v8.8H92.93v-8.7a10.08,10.08,0,0,0-.16-1.75,4.92,4.92,0,0,0-.56-1.52,3,3,0,0,0-1.12-1.07,3.81,3.81,0,0,0-1.87-.4,5.31,5.31,0,0,0-2,.37,4.29,4.29,0,0,0-1.64,1.12,5.27,5.27,0,0,0-1.08,1.89,7.94,7.94,0,0,0-.4,2.67v7.39H82.18Z"/><path class="cls-1" d="M113.66,213.09a6.46,6.46,0,0,1-2.76,2.43,8.84,8.84,0,0,1-3.64.74,8,8,0,0,1-3.07-.58,6.76,6.76,0,0,1-2.37-1.62,7,7,0,0,1-1.52-2.46,9.05,9.05,0,0,1-.53-3.15,8.46,8.46,0,0,1,.55-3.07,7.26,7.26,0,0,1,1.53-2.45,7.1,7.1,0,0,1,2.34-1.63,7.24,7.24,0,0,1,3-.6,7.06,7.06,0,0,1,3,.6,6.42,6.42,0,0,1,2.17,1.56,6.65,6.65,0,0,1,1.33,2.23,7.38,7.38,0,0,1,.45,2.53V209H101.69a6.13,6.13,0,0,0,.25,1.55,5.42,5.42,0,0,0,.87,1.84,5.6,5.6,0,0,0,1.72,1.54,5.37,5.37,0,0,0,2.76.64,6.14,6.14,0,0,0,2.85-.71,5.11,5.11,0,0,0,2.11-1.92Zm-1.47-5.86a4.27,4.27,0,0,0-.4-1.85,4.87,4.87,0,0,0-1.09-1.52,5,5,0,0,0-1.63-1,5.2,5.2,0,0,0-2-.39,5,5,0,0,0-2.61.64,5.94,5.94,0,0,0-1.65,1.47,6.1,6.1,0,0,0-.86,1.62,4.37,4.37,0,0,0-.26,1.07Z"/><path class="cls-1" d="M132,213.28h-.07a5.11,5.11,0,0,1-1.12,1.33,7.15,7.15,0,0,1-1.45.93,8,8,0,0,1-1.65.54,8.33,8.33,0,0,1-1.7.18,8.42,8.42,0,0,1-3.13-.58,7.07,7.07,0,0,1-2.47-1.62,7.53,7.53,0,0,1-1.6-2.46,8.82,8.82,0,0,1,0-6.24,7.53,7.53,0,0,1,1.6-2.46,7.07,7.07,0,0,1,2.47-1.62,8.42,8.42,0,0,1,3.13-.58,8.33,8.33,0,0,1,1.7.18,8,8,0,0,1,1.65.54,7.15,7.15,0,0,1,1.45.93,5.11,5.11,0,0,1,1.12,1.33H132v-12h1.92v24.19H132Zm.19-4.8a5.81,5.81,0,0,0-.48-2.35,6,6,0,0,0-1.31-1.92,6.34,6.34,0,0,0-2-1.3,6.14,6.14,0,0,0-2.44-.48,6,6,0,0,0-2.43.48,5.72,5.72,0,0,0-1.86,1.3,5.34,5.34,0,0,0-1.16,1.92,7.1,7.1,0,0,0,0,4.7,5.34,5.34,0,0,0,1.16,1.92,5.72,5.72,0,0,0,1.86,1.3,6,6,0,0,0,2.43.48,6.14,6.14,0,0,0,2.44-.48,6.34,6.34,0,0,0,2-1.3,6,6,0,0,0,1.31-1.92A5.81,5.81,0,0,0,132.16,208.48Z"/><path class="cls-1" d="M149.21,202.82h-3.07v-1.73h3.07v-4.83a5.73,5.73,0,0,1,.44-2.39,4.46,4.46,0,0,1,1.07-1.52,3.82,3.82,0,0,1,1.42-.81,5.13,5.13,0,0,1,1.49-.24,5.41,5.41,0,0,1,2.21.38l-.39,1.66a3.91,3.91,0,0,0-1.72-.32c-1.73,0-2.6,1.32-2.6,3.94v4.13h3.46v1.73h-3.46v13.05h-1.92Z"/><path class="cls-1" d="M157.41,208.48a8.33,8.33,0,0,1,.57-3.12,7.53,7.53,0,0,1,1.6-2.46,7,7,0,0,1,2.47-1.62,8.42,8.42,0,0,1,3.13-.58,8.33,8.33,0,0,1,3.12.58,7.22,7.22,0,0,1,4.08,4.08,8.68,8.68,0,0,1,0,6.24,7.22,7.22,0,0,1-4.08,4.08,8.33,8.33,0,0,1-3.12.58,8.42,8.42,0,0,1-3.13-.58,7,7,0,0,1-2.47-1.62,7.53,7.53,0,0,1-1.6-2.46A8.33,8.33,0,0,1,157.41,208.48Zm1.92,0a6.75,6.75,0,0,0,.4,2.35,5.34,5.34,0,0,0,1.16,1.92,5.62,5.62,0,0,0,1.86,1.3,6,6,0,0,0,2.43.48,5.92,5.92,0,0,0,2.43-.48,5.5,5.5,0,0,0,3-3.22,7.1,7.1,0,0,0,0-4.7,5.5,5.5,0,0,0-3-3.22,5.92,5.92,0,0,0-2.43-.48,6,6,0,0,0-2.43.48,5.62,5.62,0,0,0-1.86,1.3,5.34,5.34,0,0,0-1.16,1.92A6.75,6.75,0,0,0,159.33,208.48Z"/><path class="cls-1" d="M177.89,205.25c0-.28,0-.62,0-1s0-.79,0-1.2,0-.78-.05-1.14,0-.62,0-.81h1.92c0,.55,0,1.09,0,1.6a5.19,5.19,0,0,0,.08,1,6.52,6.52,0,0,1,1.89-2.14,4.66,4.66,0,0,1,2.82-.84,3.43,3.43,0,0,1,.56.05l.56.11-.23,1.89a2.45,2.45,0,0,0-.73-.13,5.48,5.48,0,0,0-2.16.4,4.15,4.15,0,0,0-1.51,1.11,4.84,4.84,0,0,0-.88,1.65,7,7,0,0,0-.28,2v8.06h-1.92Z"/><path class="cls-1" d="M210.49,213.7a6.8,6.8,0,0,1-2.46,1.93,7.08,7.08,0,0,1-3,.63,8.42,8.42,0,0,1-3.13-.58,7.07,7.07,0,0,1-2.47-1.62,7.53,7.53,0,0,1-1.6-2.46,8.82,8.82,0,0,1,0-6.24,7.53,7.53,0,0,1,1.6-2.46,7.07,7.07,0,0,1,2.47-1.62,8.42,8.42,0,0,1,3.13-.58,6.87,6.87,0,0,1,3,.68,7.84,7.84,0,0,1,2.48,1.88L209,204.42A6.54,6.54,0,0,0,207.2,203a4.53,4.53,0,0,0-2.15-.53,6,6,0,0,0-2.43.48,5.57,5.57,0,0,0-1.85,1.3,5.23,5.23,0,0,0-1.17,1.92,7.1,7.1,0,0,0,0,4.7,5.23,5.23,0,0,0,1.17,1.92,5.57,5.57,0,0,0,1.85,1.3,6,6,0,0,0,2.43.48,4.56,4.56,0,0,0,2.23-.56,5.9,5.9,0,0,0,1.74-1.49Z"/><path class="cls-1" d="M213.31,208.48a8.14,8.14,0,0,1,.58-3.12,7.35,7.35,0,0,1,1.59-2.46,7.07,7.07,0,0,1,2.47-1.62,8.74,8.74,0,0,1,6.26,0,7.22,7.22,0,0,1,2.46,1.62,7.42,7.42,0,0,1,1.62,2.46,8.82,8.82,0,0,1,0,6.24,7.42,7.42,0,0,1-1.62,2.46,7.22,7.22,0,0,1-2.46,1.62,8.74,8.74,0,0,1-6.26,0,7.07,7.07,0,0,1-2.47-1.62,7.35,7.35,0,0,1-1.59-2.46A8.14,8.14,0,0,1,213.31,208.48Zm1.92,0a6.75,6.75,0,0,0,.4,2.35,5.51,5.51,0,0,0,1.17,1.92,5.57,5.57,0,0,0,1.85,1.3,6.42,6.42,0,0,0,4.87,0,5.57,5.57,0,0,0,1.85-1.3,5.36,5.36,0,0,0,1.17-1.92,7.1,7.1,0,0,0,0-4.7,5.36,5.36,0,0,0-1.17-1.92,5.57,5.57,0,0,0-1.85-1.3,6.42,6.42,0,0,0-4.87,0,5.57,5.57,0,0,0-1.85,1.3,5.51,5.51,0,0,0-1.17,1.92A6.75,6.75,0,0,0,215.23,208.48Z"/><path class="cls-1" d="M233.79,205.25c0-.28,0-.62,0-1s0-.79,0-1.2,0-.78-.05-1.14,0-.62,0-.81h1.92c0,.55,0,1.09,0,1.6a4.45,4.45,0,0,0,.08,1h.09a5.3,5.3,0,0,1,1.92-2.1,5.66,5.66,0,0,1,3.14-.88,5,5,0,0,1,2.69.76,4.28,4.28,0,0,1,1.76,2.44,4.76,4.76,0,0,1,2.09-2.43,6,6,0,0,1,2.93-.77,6.38,6.38,0,0,1,2.82.55,4.53,4.53,0,0,1,1.71,1.42,5.36,5.36,0,0,1,.86,2,11.62,11.62,0,0,1,.24,2.37v8.8H254v-8.7a9.19,9.19,0,0,0-.16-1.75,4.46,4.46,0,0,0-.56-1.52,3,3,0,0,0-1.12-1.07,3.79,3.79,0,0,0-1.87-.4,4.41,4.41,0,0,0-2.21.5,3.94,3.94,0,0,0-1.36,1.26,5.24,5.24,0,0,0-.7,1.67,7.37,7.37,0,0,0-.21,1.69v8.32H243.9V207a6.35,6.35,0,0,0-.75-3.3,2.53,2.53,0,0,0-2.32-1.25,5.34,5.34,0,0,0-2,.37,4.26,4.26,0,0,0-1.63,1.12,5.43,5.43,0,0,0-1.09,1.89,7.94,7.94,0,0,0-.4,2.67v7.39h-1.92Z"/><path class="cls-1" d="M262.78,202.82h-3.07v-1.73h3.07v-4.83a5.74,5.74,0,0,1,.43-2.39,4.75,4.75,0,0,1,1.07-1.52,3.86,3.86,0,0,1,1.43-.81,5.08,5.08,0,0,1,1.49-.24,5.36,5.36,0,0,1,2.2.38l-.38,1.66a4,4,0,0,0-1.73-.32c-1.73,0-2.59,1.32-2.59,3.94v4.13h3.46v1.73H264.7v13.05h-1.92Z"/><path class="cls-1" d="M271,208.48a8.14,8.14,0,0,1,.58-3.12,7.37,7.37,0,0,1,1.6-2.46,6.94,6.94,0,0,1,2.46-1.62,8.47,8.47,0,0,1,3.14-.58,8.33,8.33,0,0,1,3.12.58,7.13,7.13,0,0,1,2.46,1.62,7.27,7.27,0,0,1,1.62,2.46,8.82,8.82,0,0,1,0,6.24,7.27,7.27,0,0,1-1.62,2.46,7.13,7.13,0,0,1-2.46,1.62,8.33,8.33,0,0,1-3.12.58,8.47,8.47,0,0,1-3.14-.58,6.94,6.94,0,0,1-2.46-1.62,7.37,7.37,0,0,1-1.6-2.46A8.14,8.14,0,0,1,271,208.48Zm1.92,0a7,7,0,0,0,.4,2.35,5.5,5.5,0,0,0,3,3.22,6.39,6.39,0,0,0,4.86,0,5.62,5.62,0,0,0,1.86-1.3,5.34,5.34,0,0,0,1.16-1.92,7.1,7.1,0,0,0,0-4.7,5.34,5.34,0,0,0-1.16-1.92,5.62,5.62,0,0,0-1.86-1.3,6.39,6.39,0,0,0-4.86,0,5.5,5.5,0,0,0-3,3.22A7,7,0,0,0,272.89,208.48Z"/><path class="cls-1" d="M291.45,205.25c0-.28,0-.62,0-1s0-.79-.05-1.2,0-.78-.05-1.14,0-.62,0-.81h1.92c0,.55,0,1.09.05,1.6a5.19,5.19,0,0,0,.08,1,6.52,6.52,0,0,1,1.89-2.14,4.66,4.66,0,0,1,2.81-.84,3.33,3.33,0,0,1,.56.05l.56.11-.22,1.89a2.51,2.51,0,0,0-.74-.13,5.48,5.48,0,0,0-2.16.4,4.2,4.2,0,0,0-1.5,1.11,4.68,4.68,0,0,0-.88,1.65,7,7,0,0,0-.29,2v8.06h-1.92Z"/><path class="cls-1" d="M310,202.82h-4.22v9.63a2.07,2.07,0,0,0,.54,1.53,2,2,0,0,0,1.5.55,4.3,4.3,0,0,0,1.11-.15A6.41,6.41,0,0,0,310,214l.16,1.72a11.33,11.33,0,0,1-1.25.36,6.11,6.11,0,0,1-1.25.16,4.65,4.65,0,0,1-1.76-.31,3.1,3.1,0,0,1-1.18-.81,3.35,3.35,0,0,1-.66-1.2,5.11,5.11,0,0,1-.2-1.49v-9.63h-3.2v-1.73h3.2v-4.26h1.92v4.26H310Z"/><path class="cls-1" d="M334.49,209.66c0,.73,0,1.38,0,2s0,1.11.05,1.6,0,.95.08,1.37.08.86.14,1.28H333a13.58,13.58,0,0,1-.19-2.4h-.07a5.3,5.3,0,0,1-2.06,2.11,6.43,6.43,0,0,1-3.12.68,7.53,7.53,0,0,1-1.89-.24,5,5,0,0,1-1.66-.77,3.94,3.94,0,0,1-1.2-1.36,4.1,4.1,0,0,1-.47-2,4,4,0,0,1,.87-2.69,5.32,5.32,0,0,1,2.12-1.48,10,10,0,0,1,2.69-.64,24.37,24.37,0,0,1,2.51-.15h2.24V206a3.14,3.14,0,0,0-1.18-2.76,5.09,5.09,0,0,0-3-.83,6.76,6.76,0,0,0-4.51,1.67L323,202.78a6.88,6.88,0,0,1,2.63-1.55,9.4,9.4,0,0,1,3-.53,6.68,6.68,0,0,1,4.29,1.27,4.87,4.87,0,0,1,1.6,4.08Zm-3.84-1.21a16.36,16.36,0,0,0-2.35.16,8.2,8.2,0,0,0-2.05.54,3.77,3.77,0,0,0-1.45,1,2.55,2.55,0,0,0-.24,2.8,2.58,2.58,0,0,0,.78.86,3.91,3.91,0,0,0,1.07.51,4.16,4.16,0,0,0,1.2.18,6.13,6.13,0,0,0,2.53-.45,4.27,4.27,0,0,0,1.58-1.17,4,4,0,0,0,.82-1.63,7.65,7.65,0,0,0,.22-1.84v-1Z"/><path class="cls-1" d="M340.25,205.25c0-.28,0-.62,0-1s0-.79-.05-1.2,0-.78-.05-1.14,0-.62,0-.81H342c0,.55,0,1.09.05,1.6a5.19,5.19,0,0,0,.08,1h.1a5.16,5.16,0,0,1,1.92-2.1,5.62,5.62,0,0,1,3.13-.88,6.38,6.38,0,0,1,2.82.55,4.53,4.53,0,0,1,1.71,1.42,5.36,5.36,0,0,1,.86,2,11.62,11.62,0,0,1,.24,2.37v8.8H351v-8.7a9.19,9.19,0,0,0-.16-1.75,4.46,4.46,0,0,0-.56-1.52,3,3,0,0,0-1.12-1.07,3.79,3.79,0,0,0-1.87-.4,5.38,5.38,0,0,0-2,.37,4.26,4.26,0,0,0-1.63,1.12,5.43,5.43,0,0,0-1.09,1.89,8.2,8.2,0,0,0-.4,2.67v7.39h-1.92Z"/><path class="cls-1" d="M371.61,213.28h-.06a5.11,5.11,0,0,1-1.12,1.33,7.22,7.22,0,0,1-1.46.93,7.59,7.59,0,0,1-1.65.54,8.24,8.24,0,0,1-1.69.18,8.47,8.47,0,0,1-3.14-.58,6.94,6.94,0,0,1-2.46-1.62,7.22,7.22,0,0,1-1.6-2.46,8.68,8.68,0,0,1,0-6.24,7.22,7.22,0,0,1,1.6-2.46,6.94,6.94,0,0,1,2.46-1.62,8.47,8.47,0,0,1,3.14-.58,8.24,8.24,0,0,1,1.69.18,7.59,7.59,0,0,1,1.65.54,7.22,7.22,0,0,1,1.46.93,5.11,5.11,0,0,1,1.12,1.33h.06v-12h1.92v24.19h-1.92Zm.19-4.8a6,6,0,0,0-1.79-4.27,6.17,6.17,0,0,0-4.38-1.78,5.92,5.92,0,0,0-2.43.48,5.5,5.5,0,0,0-3,3.22,7.1,7.1,0,0,0,0,4.7,5.5,5.5,0,0,0,3,3.22,5.92,5.92,0,0,0,2.43.48,6.17,6.17,0,0,0,4.38-1.78,6,6,0,0,0,1.79-4.27Z"/><path class="cls-1" d="M400.22,213.7a7,7,0,0,1-2.46,1.93,7.08,7.08,0,0,1-3,.63,8.47,8.47,0,0,1-3.14-.58,6.94,6.94,0,0,1-2.46-1.62,7.37,7.37,0,0,1-1.6-2.46,8.68,8.68,0,0,1,0-6.24,7.37,7.37,0,0,1,1.6-2.46,6.94,6.94,0,0,1,2.46-1.62,8.47,8.47,0,0,1,3.14-.58,6.82,6.82,0,0,1,3,.68,7.73,7.73,0,0,1,2.48,1.88l-1.53,1.16a6.73,6.73,0,0,0-1.83-1.46,4.49,4.49,0,0,0-2.14-.53,5.92,5.92,0,0,0-2.43.48,5.5,5.5,0,0,0-3,3.22,7.1,7.1,0,0,0,0,4.7,5.5,5.5,0,0,0,3,3.22,5.92,5.92,0,0,0,2.43.48A4.52,4.52,0,0,0,397,214a5.81,5.81,0,0,0,1.75-1.49Z"/><path class="cls-1" d="M403,208.48a8.33,8.33,0,0,1,.58-3.12,7.37,7.37,0,0,1,1.6-2.46,6.94,6.94,0,0,1,2.46-1.62,8.47,8.47,0,0,1,3.14-.58,8.33,8.33,0,0,1,3.12.58,7.3,7.3,0,0,1,4.08,4.08,8.68,8.68,0,0,1,0,6.24,7.3,7.3,0,0,1-4.08,4.08,8.33,8.33,0,0,1-3.12.58,8.47,8.47,0,0,1-3.14-.58,6.94,6.94,0,0,1-2.46-1.62,7.37,7.37,0,0,1-1.6-2.46A8.33,8.33,0,0,1,403,208.48Zm1.92,0a7,7,0,0,0,.4,2.35,5.5,5.5,0,0,0,3,3.22,6.39,6.39,0,0,0,4.86,0,5.5,5.5,0,0,0,3-3.22,7.1,7.1,0,0,0,0-4.7,5.5,5.5,0,0,0-3-3.22,6.39,6.39,0,0,0-4.86,0,5.5,5.5,0,0,0-3,3.22A7,7,0,0,0,405,208.48Z"/><path class="cls-1" d="M423.51,205.25c0-.28,0-.62,0-1s0-.79,0-1.2,0-.78-.05-1.14,0-.62,0-.81h1.92c0,.55,0,1.09.05,1.6a5.19,5.19,0,0,0,.08,1h.1a5.16,5.16,0,0,1,1.92-2.1,5.62,5.62,0,0,1,3.13-.88,4.93,4.93,0,0,1,2.69.76A4.24,4.24,0,0,1,435,203.9a4.78,4.78,0,0,1,2.1-2.43,6,6,0,0,1,2.93-.77,6.3,6.3,0,0,1,2.81.55,4.38,4.38,0,0,1,1.71,1.42,5.37,5.37,0,0,1,.87,2,11.62,11.62,0,0,1,.24,2.37v8.8h-1.92v-8.7a9.19,9.19,0,0,0-.16-1.75,4.92,4.92,0,0,0-.56-1.52,3,3,0,0,0-1.12-1.07,3.81,3.81,0,0,0-1.87-.4,4.41,4.41,0,0,0-2.21.5,3.85,3.85,0,0,0-1.36,1.26,5.26,5.26,0,0,0-.71,1.67,7.92,7.92,0,0,0-.2,1.69v8.32h-1.92V207a6.25,6.25,0,0,0-.76-3.3,2.52,2.52,0,0,0-2.32-1.25,5.38,5.38,0,0,0-2,.37,4.33,4.33,0,0,0-1.63,1.12,5.43,5.43,0,0,0-1.09,1.89,8.21,8.21,0,0,0-.39,2.67v7.39h-1.93Z"/><path class="cls-1" d="M451,201.09h1.92v2.59H453a4.93,4.93,0,0,1,1.12-1.33,6.89,6.89,0,0,1,1.45-.93,7.59,7.59,0,0,1,1.65-.54,8.48,8.48,0,0,1,4.82.4,7.13,7.13,0,0,1,2.46,1.62,7.42,7.42,0,0,1,1.62,2.46,8.82,8.82,0,0,1,0,6.24,7.42,7.42,0,0,1-1.62,2.46,7.13,7.13,0,0,1-2.46,1.62,8.48,8.48,0,0,1-4.82.4,7.59,7.59,0,0,1-1.65-.54,6.89,6.89,0,0,1-1.45-.93,4.93,4.93,0,0,1-1.12-1.33h-.07v9.89H451Zm1.73,7.39a5.81,5.81,0,0,0,.48,2.35,6,6,0,0,0,1.31,1.92,6.34,6.34,0,0,0,2,1.3,6.14,6.14,0,0,0,2.44.48,6,6,0,0,0,2.43-.48,5.57,5.57,0,0,0,1.85-1.3,5.23,5.23,0,0,0,1.17-1.92,7.1,7.1,0,0,0,0-4.7,5.23,5.23,0,0,0-1.17-1.92,5.57,5.57,0,0,0-1.85-1.3,6,6,0,0,0-2.43-.48,6.14,6.14,0,0,0-2.44.48,6.34,6.34,0,0,0-2,1.3,6,6,0,0,0-1.31,1.92A5.81,5.81,0,0,0,452.73,208.48Z"/><path class="cls-1" d="M483.1,209.66c0,.73,0,1.38,0,2s0,1.11.05,1.6,0,.95.08,1.37.08.86.15,1.28h-1.8a14.6,14.6,0,0,1-.19-2.4h-.06a5.32,5.32,0,0,1-2.07,2.11,6.43,6.43,0,0,1-3.12.68,7.46,7.46,0,0,1-1.88-.24,5,5,0,0,1-1.67-.77,4.15,4.15,0,0,1-1.2-1.36,4.1,4.1,0,0,1-.46-2,4,4,0,0,1,.86-2.69,5.43,5.43,0,0,1,2.13-1.48,9.89,9.89,0,0,1,2.69-.64,24.22,24.22,0,0,1,2.51-.15h2.24V206a3.14,3.14,0,0,0-1.18-2.76,5.11,5.11,0,0,0-3-.83,6.74,6.74,0,0,0-4.51,1.67l-1.12-1.32a6.84,6.84,0,0,1,2.62-1.55,9.51,9.51,0,0,1,3-.53A6.7,6.7,0,0,1,481.5,202a4.9,4.9,0,0,1,1.6,4.08Zm-3.84-1.21a16.26,16.26,0,0,0-2.35.16,8.2,8.2,0,0,0-2.05.54,3.88,3.88,0,0,0-1.46,1,2.38,2.38,0,0,0-.54,1.6,2.43,2.43,0,0,0,.3,1.2,2.61,2.61,0,0,0,.79.86,3.78,3.78,0,0,0,1.07.51,4.06,4.06,0,0,0,1.2.18,6.19,6.19,0,0,0,2.53-.45,4.27,4.27,0,0,0,1.58-1.17,4,4,0,0,0,.82-1.63,7.65,7.65,0,0,0,.22-1.84v-1Z"/><path class="cls-1" d="M488.89,212.1a4,4,0,0,0,1.79,1.8,5.24,5.24,0,0,0,2.5.63,4.24,4.24,0,0,0,1.21-.19,3.61,3.61,0,0,0,1.09-.55,3,3,0,0,0,.79-.85,2.15,2.15,0,0,0,.3-1.13,1.82,1.82,0,0,0-.66-1.54,4.76,4.76,0,0,0-1.61-.8,18.27,18.27,0,0,0-2.11-.49,9.55,9.55,0,0,1-2.12-.64,4.51,4.51,0,0,1-1.61-1.2,3.26,3.26,0,0,1-.66-2.18,3.78,3.78,0,0,1,.45-1.89,4.27,4.27,0,0,1,1.17-1.33A5.12,5.12,0,0,1,491,201a6.69,6.69,0,0,1,1.83-.26,6.9,6.9,0,0,1,3.15.68,4.63,4.63,0,0,1,2.06,2.11l-1.72,1A4.16,4.16,0,0,0,495,203a3.91,3.91,0,0,0-2.13-.53,3.75,3.75,0,0,0-1.07.16,3.87,3.87,0,0,0-1,.45,2.68,2.68,0,0,0-.76.74,1.77,1.77,0,0,0-.3,1,1.7,1.7,0,0,0,.66,1.47A4.9,4.9,0,0,0,492,207a18.39,18.39,0,0,0,2.11.47,8.59,8.59,0,0,1,2.12.62,4.31,4.31,0,0,1,1.61,1.25,3.6,3.6,0,0,1,.66,2.32,4.34,4.34,0,0,1-.43,2,4.1,4.1,0,0,1-1.19,1.42,5.12,5.12,0,0,1-1.71.87,7,7,0,0,1-2,.29,8.27,8.27,0,0,1-3.51-.74,5.38,5.38,0,0,1-2.45-2.27Z"/><path class="cls-1" d="M503.16,212.1a4.1,4.1,0,0,0,1.79,1.8,5.24,5.24,0,0,0,2.5.63,4.36,4.36,0,0,0,1.22-.19,3.67,3.67,0,0,0,1.08-.55,3,3,0,0,0,.79-.85,2.15,2.15,0,0,0,.3-1.13,1.84,1.84,0,0,0-.65-1.54,4.91,4.91,0,0,0-1.62-.8,17.79,17.79,0,0,0-2.11-.49,9.46,9.46,0,0,1-2.11-.64,4.63,4.63,0,0,1-1.62-1.2,3.26,3.26,0,0,1-.66-2.18,3.78,3.78,0,0,1,.45-1.89,4.27,4.27,0,0,1,1.17-1.33,5.07,5.07,0,0,1,1.62-.78,6.56,6.56,0,0,1,1.82-.26,6.84,6.84,0,0,1,3.15.68,4.65,4.65,0,0,1,2.07,2.11l-1.73,1a4.16,4.16,0,0,0-1.36-1.55,3.91,3.91,0,0,0-2.13-.53,3.75,3.75,0,0,0-1.07.16,3.87,3.87,0,0,0-1,.45,2.52,2.52,0,0,0-.75.74,1.78,1.78,0,0,0-.31,1,1.7,1.7,0,0,0,.66,1.47,5.06,5.06,0,0,0,1.62.75,17.93,17.93,0,0,0,2.11.47,8.51,8.51,0,0,1,2.11.62,4.42,4.42,0,0,1,1.62,1.25,3.66,3.66,0,0,1,.65,2.32,4.34,4.34,0,0,1-.43,2,4.07,4.07,0,0,1-1.18,1.42,5.27,5.27,0,0,1-1.72.87,7,7,0,0,1-2,.29,8.27,8.27,0,0,1-3.51-.74,5.31,5.31,0,0,1-2.44-2.27Z"/><path class="cls-1" d="M517.24,195.23a1.43,1.43,0,0,1,1.44-1.44,1.42,1.42,0,0,1,1.44,1.44,1.4,1.4,0,0,1-1.44,1.44,1.42,1.42,0,0,1-1.44-1.44Zm.48,5.86h1.92v14.78h-1.92Z"/><path class="cls-1" d="M524.89,208.48a8.14,8.14,0,0,1,.58-3.12,7.22,7.22,0,0,1,1.6-2.46,6.94,6.94,0,0,1,2.46-1.62,8.43,8.43,0,0,1,3.14-.58,8.33,8.33,0,0,1,3.12.58,7.22,7.22,0,0,1,2.46,1.62,7.42,7.42,0,0,1,1.62,2.46,8.82,8.82,0,0,1,0,6.24,7.42,7.42,0,0,1-1.62,2.46,7.22,7.22,0,0,1-2.46,1.62,8.33,8.33,0,0,1-3.12.58,8.43,8.43,0,0,1-3.14-.58,6.94,6.94,0,0,1-2.46-1.62,7.22,7.22,0,0,1-1.6-2.46A8.14,8.14,0,0,1,524.89,208.48Zm1.92,0a6.75,6.75,0,0,0,.4,2.35,5.51,5.51,0,0,0,1.17,1.92,5.57,5.57,0,0,0,1.85,1.3,6.42,6.42,0,0,0,4.87,0,5.57,5.57,0,0,0,1.85-1.3,5.36,5.36,0,0,0,1.17-1.92,7.1,7.1,0,0,0,0-4.7,5.36,5.36,0,0,0-1.17-1.92,5.57,5.57,0,0,0-1.85-1.3,6.42,6.42,0,0,0-4.87,0,5.57,5.57,0,0,0-1.85,1.3,5.51,5.51,0,0,0-1.17,1.92A6.75,6.75,0,0,0,526.81,208.48Z"/><path class="cls-1" d="M545.37,205.25c0-.28,0-.62,0-1s0-.79-.05-1.2,0-.78,0-1.14,0-.62,0-.81h1.92c0,.55,0,1.09,0,1.6a4.45,4.45,0,0,0,.08,1h.09a5.3,5.3,0,0,1,1.92-2.1,5.66,5.66,0,0,1,3.14-.88,6.38,6.38,0,0,1,2.82.55,4.53,4.53,0,0,1,1.71,1.42,5.52,5.52,0,0,1,.86,2,11.62,11.62,0,0,1,.24,2.37v8.8h-1.92v-8.7a9.19,9.19,0,0,0-.16-1.75,4.68,4.68,0,0,0-.56-1.52,3,3,0,0,0-1.12-1.07,3.79,3.79,0,0,0-1.87-.4,5.38,5.38,0,0,0-2,.37,4.26,4.26,0,0,0-1.63,1.12,5.43,5.43,0,0,0-1.09,1.89,7.94,7.94,0,0,0-.4,2.67v7.39h-1.92Z"/><line class="cls-2" x1="147.52" y1="172.88" x2="411.52" y2="172.88"/><path class="cls-1" d="M64.52,117.11a36.81,36.81,0,0,1,2.41-13.5,33.07,33.07,0,0,1,6.45-11.1,28.79,28.79,0,0,1,9.46-7.39,26.61,26.61,0,0,1,11.78-2.76h5a26.43,26.43,0,0,1,11.69,2.76,28.52,28.52,0,0,1,9.63,7.39,37,37,0,0,1,6.54,11.1,39,39,0,0,1,2.32,13.5,38.56,38.56,0,0,1-2.32,13.5,37.07,37.07,0,0,1-6.54,11.1,28.52,28.52,0,0,1-9.63,7.39,26.41,26.41,0,0,1-11.69,2.75h-5a26.6,26.6,0,0,1-11.78-2.75,28.79,28.79,0,0,1-9.46-7.39,33.07,33.07,0,0,1-6.45-11.1A36.85,36.85,0,0,1,64.52,117.11Zm9.37,0a52.78,52.78,0,0,0,1.59,13.16,35.8,35.8,0,0,0,4.78,11,17.55,17.55,0,0,0,1.33,2,18.49,18.49,0,0,0,1.5,1.72,22.1,22.1,0,0,0,5.21,4,42,42,0,0,0,4.08,1.94c.52.11,1.06.23,1.64.34a8.73,8.73,0,0,0,1.8.17H98.4a7.6,7.6,0,0,0,1.72-.17c.52-.11,1.09-.23,1.72-.34,1-.4,2.31-1,4-1.94a23.66,23.66,0,0,0,5.29-4c.46-.51.93-1.09,1.42-1.72s1-1.29,1.42-2a36.83,36.83,0,0,0,4.81-11,53.62,53.62,0,0,0,0-26.32,36.89,36.89,0,0,0-4.81-11c-.46-.69-.93-1.34-1.42-2s-1-1.2-1.42-1.71a23.66,23.66,0,0,0-5.29-4c-1.69-.89-3-1.54-4-1.94l-1.72-.3a10,10,0,0,0-1.72-.13H95.82a14,14,0,0,0-3.44.43,42,42,0,0,0-4.08,1.94,22.1,22.1,0,0,0-5.21,4,18.13,18.13,0,0,0-2.83,3.69,35.86,35.86,0,0,0-4.78,11A52.73,52.73,0,0,0,73.89,117.11Z"/><path class="cls-1" d="M134,152.11v-.6a34.46,34.46,0,0,0,4.94-.3,6.78,6.78,0,0,0,3.23-1.25,5.2,5.2,0,0,0,1.72-2.58,15.18,15.18,0,0,0,.51-4.38V92.34c0-3.15-.56-5.32-1.68-6.49s-3.11-1.85-6-2H134v-.52h32.68a34.8,34.8,0,0,1,10,1.29,19.65,19.65,0,0,1,6.88,3.7,14.44,14.44,0,0,1,3.91,5.37,17.55,17.55,0,0,1,1.34,6.93q0,7.74-5.25,12.3a18.61,18.61,0,0,1-6.88,3.69,31.66,31.66,0,0,1-10,1.38H153.61v25.11a16.66,16.66,0,0,0,.39,4,5.06,5.06,0,0,0,3.7,3.91,14.08,14.08,0,0,0,3.65.56H164l-.09.08v.52H134Zm19.6-34.66H166a12.46,12.46,0,0,0,7.31-2.15,13.22,13.22,0,0,0,1.93-1.76A12.16,12.16,0,0,0,177,111a18.86,18.86,0,0,0,1.72-4.68,25.68,25.68,0,0,0,.6-5.72q0-7.39-3.18-11.87-3.54-4.91-10.15-4.9h-5.51q-3.87.42-5.37,2.15c-1,1.14-1.51,3.24-1.51,6.27v25.2Z"/><path class="cls-1" d="M251.83,101.11v-.17c-.46-1.78-1-3.62-1.55-5.55A19.74,19.74,0,0,0,247.74,90a14.18,14.18,0,0,0-4.56-4.22,17.18,17.18,0,0,0-7.52-2.06h-.78q-3.78.35-5.29,2.11t-1.5,6.23v50.83a16.67,16.67,0,0,0,.39,3.91,5.33,5.33,0,0,0,1.29,2.54,5.62,5.62,0,0,0,2.36,1.42,14,14,0,0,0,3.61.56h2.67v.6H208.48v-.6a34.52,34.52,0,0,0,5-.3,6.51,6.51,0,0,0,3.18-1.25,5.35,5.35,0,0,0,1.68-2.58,15.21,15.21,0,0,0,.51-4.39V92.17a16.66,16.66,0,0,0-.39-4,5,5,0,0,0-3.65-3.87,19.18,19.18,0,0,0-3.61-.6h-.52a16.87,16.87,0,0,0-7.48,2.06A14.83,14.83,0,0,0,198.59,90,18.74,18.74,0,0,0,196,95.39c-.57,1.93-1.06,3.77-1.46,5.55v.17H194V83.05h58.48v18.06Z"/><path class="cls-1" d="M264.51,151.21a6.7,6.7,0,0,0,3.22-1.25,5.15,5.15,0,0,0,1.73-2.58A15.18,15.18,0,0,0,270,143V92.34c0-3.15-.56-5.32-1.68-6.49s-3.11-1.85-6-2h-2.76v-.52h29.93v.43h0v.09h-3.44q-3.87.42-5.37,2.15c-1,1.14-1.51,3.24-1.51,6.27v50.83a16.66,16.66,0,0,0,.39,4,5.06,5.06,0,0,0,3.7,3.91,14.08,14.08,0,0,0,3.65.56h2.67v.6h-30v-.6A34.52,34.52,0,0,0,264.51,151.21Z"/><path class="cls-1" d="M295.08,117.11a36.81,36.81,0,0,1,2.41-13.5,33.07,33.07,0,0,1,6.45-11.1,28.79,28.79,0,0,1,9.46-7.39,26.61,26.61,0,0,1,11.78-2.76h5a26.5,26.5,0,0,1,11.7,2.76,28.61,28.61,0,0,1,9.63,7.39,37.13,37.13,0,0,1,6.53,11.1,39,39,0,0,1,2.32,13.5,38.56,38.56,0,0,1-2.32,13.5,37.25,37.25,0,0,1-6.53,11.1,28.61,28.61,0,0,1-9.63,7.39,26.49,26.49,0,0,1-11.7,2.75h-5a26.6,26.6,0,0,1-11.78-2.75,28.79,28.79,0,0,1-9.46-7.39,33.07,33.07,0,0,1-6.45-11.1A36.85,36.85,0,0,1,295.08,117.11Zm9.38,0a52.32,52.32,0,0,0,1.59,13.16,36,36,0,0,0,4.77,11,17.55,17.55,0,0,0,1.33,2,17.18,17.18,0,0,0,1.51,1.72,21.87,21.87,0,0,0,5.2,4,40.92,40.92,0,0,0,4.09,1.94l1.63.34a8.76,8.76,0,0,0,1.81.17H329a7.66,7.66,0,0,0,1.72-.17c.51-.11,1.08-.23,1.72-.34,1-.4,2.3-1,4-1.94a23.21,23.21,0,0,0,5.29-4c.46-.51.93-1.09,1.42-1.72s1-1.29,1.42-2a36.85,36.85,0,0,0,4.82-11,53.94,53.94,0,0,0,0-26.32,36.91,36.91,0,0,0-4.82-11c-.46-.69-.93-1.34-1.42-2s-1-1.2-1.42-1.71a23.21,23.21,0,0,0-5.29-4c-1.69-.89-3-1.54-4-1.94l-1.72-.3a10.11,10.11,0,0,0-1.72-.13h-2.58a13.92,13.92,0,0,0-3.44.43,40.92,40.92,0,0,0-4.09,1.94,21.87,21.87,0,0,0-5.2,4A17,17,0,0,0,312.15,91a18.5,18.5,0,0,0-1.33,2,36.08,36.08,0,0,0-4.77,11A52.27,52.27,0,0,0,304.46,117.11Z"/><path class="cls-1" d="M442.06,83.31v.6h-1.29a22.83,22.83,0,0,0-3.66.39,16,16,0,0,0-4.43,1.46,10.83,10.83,0,0,0-3.74,3.14,8.79,8.79,0,0,0-1.59,5.5v57.71h-.69l-50.57-63.3v52.12a8.93,8.93,0,0,0,1.59,5.59,10.77,10.77,0,0,0,3.75,3.14,15.62,15.62,0,0,0,4.42,1.46,22.83,22.83,0,0,0,3.66.39h1.29v.6H360.7v-.6H362a22.72,22.72,0,0,0,3.65-.39,15.68,15.68,0,0,0,4.43-1.46,10.74,10.74,0,0,0,3.74-3.14,8.93,8.93,0,0,0,1.6-5.59V92q0-2.07-.09-3.57a5.14,5.14,0,0,0-.77-2.54,3.93,3.93,0,0,0-2.28-1.5,16.91,16.91,0,0,0-4.6-.48H365v-.6h18.4l43.26,53.75V94.4a8.79,8.79,0,0,0-1.59-5.5,10.83,10.83,0,0,0-3.74-3.14,16,16,0,0,0-4.43-1.46,22.83,22.83,0,0,0-3.65-.39H412v-.6h30.1Z"/><path class="cls-1" d="M448.76,130.27h.69a20.78,20.78,0,0,0,.43,4,32.44,32.44,0,0,0,1.2,4.38,26.23,26.23,0,0,0,1.9,4.17,11.81,11.81,0,0,0,2.49,3.18,20.6,20.6,0,0,0,6.19,3.75,21.4,21.4,0,0,0,7.31,1.42h.78a23.88,23.88,0,0,0,7.31-1.47,14,14,0,0,0,5.84-4.9,12.71,12.71,0,0,0,2.28-6.84,13.36,13.36,0,0,0-2-7.31,17.1,17.1,0,0,0-7.05-6.23l-10.84-5.59a32.06,32.06,0,0,1-8.6-6.06,20.58,20.58,0,0,1-4.51-6.8,15,15,0,0,1-1-6.92,16.23,16.23,0,0,1,2.06-6.45,18.61,18.61,0,0,1,4.61-5.33,23.43,23.43,0,0,1,6.57-3.7,15.38,15.38,0,0,1,3.44-.95,24.14,24.14,0,0,1,3.53-.26,20.8,20.8,0,0,1,7.74,1.47c.92.34,1.89.69,2.92,1a12.22,12.22,0,0,0,3.1.6,6.15,6.15,0,0,0,2.92-.52,5.43,5.43,0,0,0,2.41-2.32h.6v18.66h-.68a14,14,0,0,0-.56-3.78,21.62,21.62,0,0,0-1.51-3.83,24,24,0,0,0-2.15-3.44,20.53,20.53,0,0,0-2.41-2.71,17.19,17.19,0,0,0-5.67-3.39A19.28,19.28,0,0,0,471.38,83a21.51,21.51,0,0,0-3,.21,18.87,18.87,0,0,0-2.88.65A12.34,12.34,0,0,0,459.38,88a8.79,8.79,0,0,0-1.8,6.53q.39,3.7,3.82,7.87t10.75,8.3l9.89,5.07a25.28,25.28,0,0,1,7.49,5.89,18.08,18.08,0,0,1,3.78,7.1,15.4,15.4,0,0,1,.09,7.39,16,16,0,0,1-3.57,6.84,23.26,23.26,0,0,1-7.18,5.42,33.69,33.69,0,0,1-10.75,3.14h.17c-.46.06-.88.1-1.25.13s-.76,0-1.16,0h-.86a19.85,19.85,0,0,1-7.48-1.46v0a8.12,8.12,0,0,1-.86-.34,15.73,15.73,0,0,0-5.68-1.34,7.26,7.26,0,0,0-3.31.69,3.66,3.66,0,0,0-1.59,1.55c-.29.6-.46,1-.52,1.16V152h-.6Z"/><path class="cls-3" d="M136.52,50.05a24.88,24.88,0,0,0-1.62,4.57,21.28,21.28,0,0,0-.75,5.5,9.37,9.37,0,0,0,1.12,4.68,4.41,4.41,0,0,0,4,2.13,12.4,12.4,0,0,0,6.19-1.38,57.1,57.1,0,0,0,5.06-2.87c1.67-1.17,3.23-2.31,4.69-3.44S158,57,159.15,55.93a70,70,0,0,0,6.18-5.38q2.94-2.86,5.82-5.87a3.08,3.08,0,0,0,.81-1,10.77,10.77,0,0,1,.94-1.38A6.25,6.25,0,0,1,174,41.24a1,1,0,0,1,1.19-.06c.58.25.7.75.37,1.5a8.57,8.57,0,0,1-.87,1.62,4.63,4.63,0,0,1-.75,1.38c-.34.42-.67.87-1,1.37a95.13,95.13,0,0,1-6.57,6.88q-3.44,3.26-7.06,6.5a51.47,51.47,0,0,1-10.5,7.5,28.72,28.72,0,0,1-3.12,1.44,18.07,18.07,0,0,1-3.63,1,16.14,16.14,0,0,1-3.81.18,7.54,7.54,0,0,1-3.56-1.12,6,6,0,0,1-1.32-1.19l-1.18-1.44a12,12,0,0,1-1.57-5.31,23.88,23.88,0,0,1,.38-5.94,35.76,35.76,0,0,1,1.56-5.75,36.48,36.48,0,0,1,2-4.62,52.15,52.15,0,0,1,5-7.38,14.65,14.65,0,0,1,7.63-4.75,6,6,0,0,1,4.18,1.13,4.31,4.31,0,0,1,1.32,4,8.21,8.21,0,0,1-1.5,3.75,24.29,24.29,0,0,1-2.63,3.12A27.94,27.94,0,0,1,143.58,49Q140.89,50.68,136.52,50.05Zm11.63-13.37a13,13,0,0,0-6.63,4.56,46.59,46.59,0,0,0-4.25,6.94,7.83,7.83,0,0,0,4.63-1.25,34.18,34.18,0,0,0,3.25-2.63c.91-1,1.87-2,2.87-3a5.39,5.39,0,0,0,1.38-4.25A1.37,1.37,0,0,0,148.15,36.68Z"/><path class="cls-3" d="M198,38.68a.88.88,0,0,1-1-1q-4.87,5.25-9.19,10.94T179.39,60.3c.5,1.34,1,2.61,1.57,3.82a28.57,28.57,0,0,0,1.81,3.43c.33.5.69,1,1.06,1.63s.77,1.15,1.19,1.69a5.25,5.25,0,0,0,1.44,1.31,3.4,3.4,0,0,0,1.81.5,1.93,1.93,0,0,0,1.75-.94,1.73,1.73,0,0,1,3.12.06,4.21,4.21,0,0,1-1.5,3.07,11.44,11.44,0,0,1-3,1.56A9.16,9.16,0,0,1,184,75.3a11.87,11.87,0,0,1-3.32-2.81,23.6,23.6,0,0,1-2.43-3.62q-1.07-1.94-2.07-3.69-4.87,7.5-10.31,15.56a90.94,90.94,0,0,0-9.06,17.19,8.67,8.67,0,0,0-.5,1.31c-.17.54-.35,1.08-.56,1.63a7,7,0,0,1-.69,1.37,1,1,0,0,1-.88.56c-.66-.08-1-.41-1-1a6.66,6.66,0,0,1,.25-1.75,85.94,85.94,0,0,1,4.32-10.62q2.43-5,5.18-9.63t5.69-9.06q2.94-4.44,5.81-9.06-.75-1.87-1.5-4.44c-.5-1.71-.93-3.5-1.31-5.37s-.66-3.75-.87-5.63a21.47,21.47,0,0,1,.06-5.44,5.32,5.32,0,0,1,1-2.5,3.45,3.45,0,0,0,.62-.25c.17-.08.38-.16.63-.25a1.94,1.94,0,0,1,2.06.69,4.09,4.09,0,0,1,.81,1.94,1.08,1.08,0,0,1,0,.75,2.14,2.14,0,0,0-.12.62,17.48,17.48,0,0,0,.19,3.82c.2,1.37.39,2.64.56,3.81a34.79,34.79,0,0,0,.69,3.69q.43,1.82.81,3.18,3.25-4.36,7.31-9.93t8.06-10.07q1.38-1.5,3.25-3.25a9.34,9.34,0,0,1,3.63-2.25,1.74,1.74,0,0,1,1.37.07,1.29,1.29,0,0,1,.75.93,2.42,2.42,0,0,1-.56,2.13l-1.31,1.62c-.42.67-.81,1.25-1.19,1.75A8.11,8.11,0,0,1,198,38.68Z"/><path class="cls-3" d="M205.52,70.55q3.24-7.74,7-14.87a39.72,39.72,0,0,1,9.75-12.13c.41-.16.81-.33,1.19-.5s.81-.33,1.31-.5a4.23,4.23,0,0,1,3.75,1.13,6.81,6.81,0,0,1,1.62,3.44,11.6,11.6,0,0,1-.06,4.31,16.85,16.85,0,0,1-1.19,3.87,34.71,34.71,0,0,0,4.75-3.12c1.5-1.17,3.09-2.29,4.75-3.38q1.76-1.24,3.57-2.5t3.68-2.5a9.69,9.69,0,0,0,1.38-.68,1.22,1.22,0,0,1,1.5.18,1.16,1.16,0,0,1-.38,1.63c-.58.42-1.08.79-1.5,1.12q-5.25,3.63-10.12,7.32t-10,7.31a41.71,41.71,0,0,1-3,4.69,37.34,37.34,0,0,1-3.63,4.18c-.5.42-1.1,1-1.81,1.69s-1.44,1.38-2.19,2a16.7,16.7,0,0,1-2.43,1.69,6.43,6.43,0,0,1-2.57.87c-1.83.25-2.83-.37-3-1.87a3,3,0,0,1,.69-2.63c.63-.66,1.23-1.25,1.81-1.75.67-.66,1.27-1.25,1.82-1.75s1.1-1,1.68-1.5a40,40,0,0,0,4-2.93,42.94,42.94,0,0,1,4-2.94c.59-.92,1.19-2,1.82-3.19s1.18-2.44,1.68-3.69c.17-.58.36-1.25.57-2a14.86,14.86,0,0,0,.43-2.25,6.79,6.79,0,0,0-.06-2.12,3.25,3.25,0,0,0-.94-1.75A6.75,6.75,0,0,0,221,47.49q-1.76,1.82-3.13,3.56a55.53,55.53,0,0,0-6.25,10.07,108.51,108.51,0,0,0-4.75,11.56c-.33.83-.64,1.65-.93,2.44a14.64,14.64,0,0,0-.69,2.43,26.32,26.32,0,0,0-.38,4.57c0,1.62,0,3.23-.12,4.81-.17,3.17-.34,6.33-.5,9.5s-.38,6.37-.63,9.62c-.08.75-.14,1.52-.18,2.32a19,19,0,0,1-.25,2.18,4.88,4.88,0,0,1-.75,1.82,3.24,3.24,0,0,1-1.57,1.18h-.37a2.08,2.08,0,0,1-1.94-2.06c-.12-1.21-.19-2.39-.19-3.56a58.4,58.4,0,0,1,.19-7.19q.31-3.43.81-6.94c.17-1.08.38-2.16.63-3.25s.46-2.16.62-3.25a53.93,53.93,0,0,0,.38-6.43q0-3.32.25-6.32.49-8,.94-15.75t.93-15.87V40.87a18.43,18.43,0,0,1,.13-2.19,4.51,4.51,0,0,1,.56-1.75,1.53,1.53,0,0,1,1.44-.75,1.5,1.5,0,0,1,1.44.94,7,7,0,0,1,.56,2.25,15.78,15.78,0,0,1,0,2.75c-.09,1-.13,1.77-.13,2.43q-.49,6.51-.93,13.07T205.52,70.55Z"/><path class="cls-3" d="M262.27,41.05q-2.38,3.14-4.63,6.75t-4.5,7c-1.08,1.59-2.21,3.3-3.37,5.13a25.48,25.48,0,0,1-4,4.87A8.8,8.8,0,0,1,244,66.37a2.74,2.74,0,0,1-2.38.31,3.41,3.41,0,0,1-1.75-2.75,38.77,38.77,0,0,1,2.31-10.88,51.36,51.36,0,0,1,4.44-9.25c.58-.91,1.23-1.83,1.94-2.75a7,7,0,0,1,2.31-2,3.58,3.58,0,0,1,4.19.19c1.21,1,1.64,2.48,1.31,4.56a6.7,6.7,0,0,0,1.44-2c.54-1,1.12-2,1.75-3.06a20.35,20.35,0,0,1,2-2.81,3.54,3.54,0,0,1,2.19-1.38,2.84,2.84,0,0,1,.87.13l.75.25a5.68,5.68,0,0,1,1.25,2.37q-.25,7.5-1,14.19t-1.12,14.19v2.25c0,.92,0,1.83-.13,2.75a12.4,12.4,0,0,1-.44,2.44c-.2.71-.56,1.06-1.06,1.06a1.41,1.41,0,0,1-1.31-.81,6.45,6.45,0,0,1-.63-2,16.29,16.29,0,0,1-.18-2.44,13.05,13.05,0,0,0-.13-2,70.42,70.42,0,0,1,.25-13.25Q261.64,47.19,262.27,41.05Zm-9,.25c0-.08-.05-.12-.13-.12a3.62,3.62,0,0,0-.69.31,2.82,2.82,0,0,1-.68.31,27,27,0,0,0-3.13,4.44,51.69,51.69,0,0,0-2.5,5.06q-1,2.63-1.94,5.57A27.79,27.79,0,0,0,243,63.18a44.23,44.23,0,0,0,6.31-8.06q2.8-4.56,5.69-8.94a5,5,0,0,1-.63-2.69A2.14,2.14,0,0,0,253.27,41.3Z"/><path class="cls-3" d="M279.27,62.05q2.49-4.74,5-9.68a45.89,45.89,0,0,1,5.87-8.94c.33-.42.75-.92,1.25-1.5a9.19,9.19,0,0,1,1.63-1.5,5.46,5.46,0,0,1,1.93-.88,3.91,3.91,0,0,1,2.32.25c1.25.59,2.16,1.88,2.75,3.88s1.08,4,1.5,6c.16.92.35,1.87.56,2.87s.44,2,.69,3a20.34,20.34,0,0,0,1,2.82q.62,1.44,1.5,1.68a2.06,2.06,0,0,0,1.87-.43,14.36,14.36,0,0,1,1.5-1.07c.5-.41,1-.77,1.38-1.06a9.66,9.66,0,0,0,1.25-1.06,54.19,54.19,0,0,0,5.25-5.25,63,63,0,0,1,5.25-5.38A20.85,20.85,0,0,1,324,44.37a3.28,3.28,0,0,1,1.5-.44c.46,0,.73.29.82.87s-.19.92-.82,1.25a6.38,6.38,0,0,0-1.43,1,30.5,30.5,0,0,0-3.5,3.57c-1.17,1.37-2.42,2.77-3.75,4.18-.67.67-1.32,1.3-1.94,1.88s-1.27,1.21-1.94,1.87q-1.62,1.64-3.5,3.19a7.36,7.36,0,0,1-4.87,1.56l-.57-.25a1.83,1.83,0,0,0-.68-.12,7.72,7.72,0,0,1-3.07-3.88,40.24,40.24,0,0,1-1.56-5.31c-.42-1.87-.81-3.75-1.19-5.62a17.31,17.31,0,0,0-1.81-5.07,7.44,7.44,0,0,0-3.25,2.82,38.94,38.94,0,0,1-2.5,3.56,58.2,58.2,0,0,0-4.25,7.75q-1.87,4.13-3.62,8.5a7.49,7.49,0,0,0-.88,1.94,22.85,22.85,0,0,1-.87,2.31A6.34,6.34,0,0,1,279,71.87a2.3,2.3,0,0,1-2.18.56,2.06,2.06,0,0,1-1.69-1.31,7.88,7.88,0,0,1-.69-2.75,31,31,0,0,1-.06-3.38c0-1.21.11-2.31.19-3.31q.5-6,1.37-11.69a71.11,71.11,0,0,1,2.38-10.44c.33-.91.62-1.75.87-2.5a1.76,1.76,0,0,1,1.63-1.25,1.42,1.42,0,0,1,1.56.69,3.54,3.54,0,0,1,.37,1.94,13.66,13.66,0,0,1-.37,2.44c-.21.87-.36,1.6-.44,2.18q-.87,4.76-1.5,9.5T279.27,62.05Z"/><path class="cls-3" d="M343.52,6.68a1.62,1.62,0,0,1,1.25,1.25,6.27,6.27,0,0,1,.06,2.31,23,23,0,0,1-.56,2.69,19,19,0,0,0-.5,2.25q-1,5.51-1.94,11.56t-1.44,12.38q-.5,6.32-.44,12.75A84.63,84.63,0,0,0,341,64.55a23.83,23.83,0,0,0,.75,3.63,9.61,9.61,0,0,0,1.5,3.12,8.07,8.07,0,0,0,3.37-2.87q1.25-1.87,2.63-3.63a90.13,90.13,0,0,0,5.68-10,105.58,105.58,0,0,1,5.57-10,14.87,14.87,0,0,0,1.18-2,1.69,1.69,0,0,1,1.82-1,1.51,1.51,0,0,1,.25,2,19.56,19.56,0,0,1-1.13,2c-.92,2-1.92,4-3,6.07s-2.12,4-3.12,5.93q-2.13,4-4.19,8.07a31.71,31.71,0,0,1-4.94,7.18,15.3,15.3,0,0,0-1.87,1.38,3.55,3.55,0,0,1-2.38.75,3.86,3.86,0,0,1-2.37-1.06,7.82,7.82,0,0,1-1.63-2.19,13.13,13.13,0,0,1-1-2.75c-.25-1-.46-2-.62-2.88a61,61,0,0,1-1-8.31c-.17-3-.23-5.91-.19-8.87s.19-5.88.44-8.75.54-5.57.87-8.07c-.75,1.75-1.48,3.55-2.19,5.38s-1.43,3.67-2.18,5.5a4.41,4.41,0,0,1,.43.87c.13.34.27.71.44,1.13a17.59,17.59,0,0,1,.38,2,3,3,0,0,1-.25,1.75,1.19,1.19,0,0,1-1.44-.44,5,5,0,0,0-1.06-1.19q-1.75,4.5-3.44,9.44a64,64,0,0,1-3.94,9.19,24.71,24.71,0,0,1-1.75,2.75,3.31,3.31,0,0,1-2.87,1.37,2,2,0,0,1-1.13-.5,8.42,8.42,0,0,0-.87-.75,9.64,9.64,0,0,1-.88-5.31,45.3,45.3,0,0,1,.88-6.06,69.52,69.52,0,0,1,2-7A22.76,22.76,0,0,1,323,44.3a11.94,11.94,0,0,1,3-3.12,4.91,4.91,0,0,1,4.62-.5q2.88-6.49,5.5-14.44t5-15.56c.33-.92.63-1.77.88-2.56A2,2,0,0,1,343.52,6.68ZM328.77,44.55a4.66,4.66,0,0,0-2.07,1.5,15.22,15.22,0,0,0-1.56,2.25,33.16,33.16,0,0,0-3,7.63,50.49,50.49,0,0,0-1.5,8.62,49.65,49.65,0,0,0,4.13-8.5q1.74-4.62,3.37-9c.17-.41.35-.83.56-1.25a1.9,1.9,0,0,0,.19-1.25Z"/><path class="cls-3" d="M363,50.05a24.1,24.1,0,0,0-1.63,4.57,21.28,21.28,0,0,0-.75,5.5,9.37,9.37,0,0,0,1.13,4.68,4.41,4.41,0,0,0,4,2.13A12.38,12.38,0,0,0,372,65.55,57.4,57.4,0,0,0,377,62.68c1.66-1.17,3.22-2.31,4.68-3.44s2.77-2.23,3.94-3.31a68.74,68.74,0,0,0,6.19-5.38q2.93-2.86,5.81-5.87a3.08,3.08,0,0,0,.81-1,11.91,11.91,0,0,1,.94-1.38,6.64,6.64,0,0,1,1.06-1.06,1,1,0,0,1,1.19-.06c.58.25.71.75.38,1.5a9.09,9.09,0,0,1-.88,1.62,4.63,4.63,0,0,1-.75,1.38c-.33.42-.67.87-1,1.37a92.89,92.89,0,0,1-6.56,6.88q-3.45,3.26-7.06,6.5a51.47,51.47,0,0,1-10.5,7.5,28.06,28.06,0,0,1-3.13,1.44,18,18,0,0,1-3.62,1,16.22,16.22,0,0,1-3.82.18,7.54,7.54,0,0,1-3.56-1.12,5.72,5.72,0,0,1-1.31-1.19l-1.19-1.44a11.83,11.83,0,0,1-1.56-5.31,23.87,23.87,0,0,1,.37-5.94A36.85,36.85,0,0,1,359,49.8a35.09,35.09,0,0,1,2-4.62,51.32,51.32,0,0,1,5-7.38,14.63,14.63,0,0,1,7.62-4.75,6.08,6.08,0,0,1,4.19,1.13,4.28,4.28,0,0,1,1.31,4,8.21,8.21,0,0,1-1.5,3.75A24.24,24.24,0,0,1,375,45.05,27.94,27.94,0,0,1,370.08,49,10.25,10.25,0,0,1,363,50.05Zm11.62-13.37A13,13,0,0,0,368,41.24a45.77,45.77,0,0,0-4.25,6.94,7.82,7.82,0,0,0,4.62-1.25,33,33,0,0,0,3.25-2.63q1.38-1.5,2.88-3a5.38,5.38,0,0,0,1.37-4.25A1.37,1.37,0,0,0,374.64,36.68Z"/><path class="cls-3" d="M417.89,39.55a18.58,18.58,0,0,0-5.81,6c-1.46,2.42-3,4.84-4.69,7.25l-2,4a35.76,35.76,0,0,0-1.75,4.13A21.23,21.23,0,0,0,401.76,65a4.5,4.5,0,0,1-3,2.94h-1.12a3.14,3.14,0,0,1-1.06-.69,5,5,0,0,1-.82-1.06,40.09,40.09,0,0,1-.18-5.13c0-1.83.12-3.68.25-5.56s.33-3.71.62-5.5.61-3.44.94-4.94a17.87,17.87,0,0,1,.75-2.75,2.4,2.4,0,0,1,2-1.62,1.55,1.55,0,0,1,1.44,1.12,7,7,0,0,1,.25,2.32,23.49,23.49,0,0,1-.32,2.75,15,15,0,0,0-.25,2.31c-.16,1.67-.31,3.17-.43,4.5s-.28,2.58-.44,3.75q2.12-3.49,5.12-7.88a77.62,77.62,0,0,1,6.13-7.87,27.39,27.39,0,0,1,2.19-2.44,8.75,8.75,0,0,1,2.56-1.81,3.65,3.65,0,0,1,2.31,0,2,2,0,0,1,1.44,1.37c.16,1-.09,1.55-.75,1.63A1.38,1.38,0,0,1,417.89,39.55Z"/><path class="cls-1" d="M151.53,0h1.8V11.25h.06A4.65,4.65,0,0,1,154.44,10a6.29,6.29,0,0,1,1.36-.87,7.44,7.44,0,0,1,1.55-.52,8.75,8.75,0,0,1,1.59-.16,7.7,7.7,0,0,1,2.92.54,6.84,6.84,0,0,1,3.83,3.83,7.7,7.7,0,0,1,.54,2.92,7.76,7.76,0,0,1-.54,2.93,6.79,6.79,0,0,1-3.83,3.82,7.7,7.7,0,0,1-2.92.54,8.75,8.75,0,0,1-1.59-.16,6.87,6.87,0,0,1-1.55-.51,6.29,6.29,0,0,1-1.36-.87,4.69,4.69,0,0,1-1.05-1.25h-.06v2.43h-1.8Zm1.62,15.75A5.49,5.49,0,0,0,153.6,18a5.65,5.65,0,0,0,1.23,1.8A5.9,5.9,0,0,0,156.66,21a5.73,5.73,0,0,0,2.28.45,5.59,5.59,0,0,0,2.28-.45A5.28,5.28,0,0,0,163,19.76a5.14,5.14,0,0,0,1.09-1.8,6.59,6.59,0,0,0,0-4.41,5.06,5.06,0,0,0-1.09-1.8,5.3,5.3,0,0,0-1.74-1.22,5.59,5.59,0,0,0-2.28-.45,5.73,5.73,0,0,0-2.28.45,5.92,5.92,0,0,0-1.83,1.22,5.54,5.54,0,0,0-1.23,1.8A5.45,5.45,0,0,0,153.15,15.75Z"/><path class="cls-1" d="M170.85,12.72c0-.26,0-.57,0-.94s0-.75,0-1.13,0-.73,0-1.07,0-.58,0-.76h1.8c0,.52,0,1,0,1.5a4.57,4.57,0,0,0,.08.93,6.15,6.15,0,0,1,1.77-2A4.39,4.39,0,0,1,177,8.46a3,3,0,0,1,.52,0l.53.1-.21,1.77a2.18,2.18,0,0,0-.69-.12,5,5,0,0,0-2,.38,3.79,3.79,0,0,0-1.41,1,4.35,4.35,0,0,0-.82,1.55,6.46,6.46,0,0,0-.27,1.9v7.56h-1.8Z"/><path class="cls-1" d="M193.11,20.07a6.08,6.08,0,0,1-2.6,2.28,8.23,8.23,0,0,1-3.4.69,7.39,7.39,0,0,1-2.88-.54A6.48,6.48,0,0,1,182,21a6.67,6.67,0,0,1-1.43-2.31,8.47,8.47,0,0,1-.49-3,7.93,7.93,0,0,1,.51-2.88A6.85,6.85,0,0,1,182,10.55,6.76,6.76,0,0,1,184.23,9,6.85,6.85,0,0,1,187,8.46a6.66,6.66,0,0,1,2.8.56,6.14,6.14,0,0,1,2,1.47,6.21,6.21,0,0,1,1.25,2.08,7,7,0,0,1,.42,2.37V16.2H181.89a6.15,6.15,0,0,0,.22,1.46,5.14,5.14,0,0,0,.83,1.72,5.21,5.21,0,0,0,1.6,1.44,5,5,0,0,0,2.6.6,5.79,5.79,0,0,0,2.67-.66,4.81,4.81,0,0,0,2-1.8Zm-1.38-5.49a4.09,4.09,0,0,0-.38-1.74,4.63,4.63,0,0,0-1-1.42,4.84,4.84,0,0,0-1.53-1,4.9,4.9,0,0,0-1.87-.36,4.61,4.61,0,0,0-2.45.6,5.33,5.33,0,0,0-1.54,1.38,5.51,5.51,0,0,0-.81,1.52,4,4,0,0,0-.24,1Z"/><path class="cls-1" d="M208.92,16.86c0,.68,0,1.29,0,1.83s0,1,0,1.5,0,.89.07,1.29.08.8.14,1.2h-1.68a13,13,0,0,1-.18-2.25h-.06a5.06,5.06,0,0,1-1.94,2,6,6,0,0,1-2.92.63,6.62,6.62,0,0,1-1.77-.23,4.44,4.44,0,0,1-1.56-.71A3.88,3.88,0,0,1,198,20.82a3.83,3.83,0,0,1-.43-1.89,3.7,3.7,0,0,1,.81-2.52,5,5,0,0,1,2-1.39,9.47,9.47,0,0,1,2.52-.6c.89-.09,1.68-.14,2.36-.14h2.1v-.84a2.93,2.93,0,0,0-1.11-2.58,4.74,4.74,0,0,0-2.79-.78,6.33,6.33,0,0,0-4.23,1.56l-1-1.23A6.4,6.4,0,0,1,200.58,9a8.57,8.57,0,0,1,2.82-.5,6.31,6.31,0,0,1,4,1.19,4.57,4.57,0,0,1,1.5,3.82Zm-3.6-1.14a15.87,15.87,0,0,0-2.21.15,7.7,7.7,0,0,0-1.92.51,3.55,3.55,0,0,0-1.36,1A2.44,2.44,0,0,0,199.6,20a2.61,2.61,0,0,0,.74.81,3.43,3.43,0,0,0,1,.48,4,4,0,0,0,1.13.16,5.78,5.78,0,0,0,2.37-.42,4.11,4.11,0,0,0,1.48-1.09,3.82,3.82,0,0,0,.77-1.53,7.25,7.25,0,0,0,.21-1.73v-.93Z"/><path class="cls-1" d="M214.35,19.14A3.81,3.81,0,0,0,216,20.83a4.84,4.84,0,0,0,2.34.59,3.77,3.77,0,0,0,1.14-.18,3.48,3.48,0,0,0,1-.51,2.74,2.74,0,0,0,.73-.79,2,2,0,0,0,.29-1.07,1.72,1.72,0,0,0-.62-1.44,4.54,4.54,0,0,0-1.51-.75,18.14,18.14,0,0,0-2-.46,8.48,8.48,0,0,1-2-.6,4.29,4.29,0,0,1-1.52-1.13,3,3,0,0,1-.61-2,3.56,3.56,0,0,1,.42-1.77,3.83,3.83,0,0,1,1.09-1.24,4.58,4.58,0,0,1,1.52-.74,6.19,6.19,0,0,1,1.71-.24,6.45,6.45,0,0,1,3,.63,4.38,4.38,0,0,1,1.94,2l-1.62,1a3.8,3.8,0,0,0-1.28-1.45,3.6,3.6,0,0,0-2-.5,3.69,3.69,0,0,0-1,.15,3.5,3.5,0,0,0-.94.42,2.46,2.46,0,0,0-.71.69,1.67,1.67,0,0,0-.28,1,1.59,1.59,0,0,0,.61,1.38,4.76,4.76,0,0,0,1.52.71,18.4,18.4,0,0,0,2,.43,8,8,0,0,1,2,.59,3.93,3.93,0,0,1,1.51,1.17,3.36,3.36,0,0,1,.62,2.17,4,4,0,0,1-.41,1.87A3.8,3.8,0,0,1,221.83,22a4.93,4.93,0,0,1-1.6.81,6.54,6.54,0,0,1-1.89.27,7.72,7.72,0,0,1-3.29-.69,5,5,0,0,1-2.29-2.13Z"/><path class="cls-1" d="M234.45,10.44h-4v9a2,2,0,0,0,.51,1.44,1.91,1.91,0,0,0,1.41.51,4.1,4.1,0,0,0,1-.13,6.68,6.68,0,0,0,1-.35l.15,1.62a10.59,10.59,0,0,1-1.17.33,5.35,5.35,0,0,1-1.17.15,4.52,4.52,0,0,1-1.65-.28A2.94,2.94,0,0,1,229.5,22a3,3,0,0,1-.62-1.12,4.84,4.84,0,0,1-.19-1.4v-9h-3V8.82h3v-4h1.8v4h4Z"/><path class="cls-1" d="M253.44,10.44h-4v9a1.94,1.94,0,0,0,.5,1.44,1.91,1.91,0,0,0,1.42.51,4.15,4.15,0,0,0,1-.13,7.09,7.09,0,0,0,1-.35l.14,1.62a11,11,0,0,1-1.16.33,5.5,5.5,0,0,1-1.17.15,4.54,4.54,0,0,1-1.66-.28,2.94,2.94,0,0,1-1.11-.77,3,3,0,0,1-.61-1.12,4.83,4.83,0,0,1-.2-1.4v-9h-3V8.82h3v-4h1.81v4h4Z"/><path class="cls-1" d="M257.09,3.33a1.35,1.35,0,1,1,2.7,0,1.35,1.35,0,1,1-2.7,0Zm.45,5.49h1.8V22.68h-1.8Z"/><path class="cls-1" d="M265.07,19.14a3.81,3.81,0,0,0,1.68,1.69,4.84,4.84,0,0,0,2.34.59,3.77,3.77,0,0,0,1.14-.18,3.48,3.48,0,0,0,1-.51,2.78,2.78,0,0,0,.74-.79,2,2,0,0,0,.28-1.07,1.71,1.71,0,0,0-.61-1.44,4.6,4.6,0,0,0-1.52-.75,18.14,18.14,0,0,0-2-.46,8.48,8.48,0,0,1-2-.6,4.26,4.26,0,0,1-1.51-1.13,3.05,3.05,0,0,1-.62-2,3.56,3.56,0,0,1,.42-1.77,3.86,3.86,0,0,1,1.1-1.24,4.53,4.53,0,0,1,1.51-.74,6.19,6.19,0,0,1,1.71-.24,6.49,6.49,0,0,1,3,.63,4.36,4.36,0,0,1,1.93,2l-1.62,1a3.78,3.78,0,0,0-1.27-1.45,3.94,3.94,0,0,0-3-.35,3.56,3.56,0,0,0-1,.42,2.42,2.42,0,0,0-.7.69,1.67,1.67,0,0,0-.29,1,1.6,1.6,0,0,0,.62,1.38,4.7,4.7,0,0,0,1.51.71,18.4,18.4,0,0,0,2,.43,8,8,0,0,1,2,.59,4,4,0,0,1,1.52,1.17,3.36,3.36,0,0,1,.61,2.17,4,4,0,0,1-.4,1.87A3.8,3.8,0,0,1,272.56,22a5,5,0,0,1-1.61.81,6.54,6.54,0,0,1-1.89.27,7.68,7.68,0,0,1-3.28-.69,5,5,0,0,1-2.3-2.13Z"/><path class="cls-1" d="M278.45,19.14a3.81,3.81,0,0,0,1.68,1.69,4.84,4.84,0,0,0,2.34.59,3.77,3.77,0,0,0,1.14-.18,3.48,3.48,0,0,0,1-.51,2.65,2.65,0,0,0,.74-.79,2,2,0,0,0,.28-1.07,1.71,1.71,0,0,0-.61-1.44,4.6,4.6,0,0,0-1.52-.75,18.14,18.14,0,0,0-2-.46,8.48,8.48,0,0,1-2-.6,4.26,4.26,0,0,1-1.51-1.13,3.05,3.05,0,0,1-.62-2,3.56,3.56,0,0,1,.42-1.77A3.86,3.86,0,0,1,279,9.44a4.53,4.53,0,0,1,1.51-.74,6.19,6.19,0,0,1,1.71-.24,6.49,6.49,0,0,1,3,.63,4.36,4.36,0,0,1,1.93,2l-1.62,1a3.78,3.78,0,0,0-1.27-1.45,3.94,3.94,0,0,0-3-.35,3.56,3.56,0,0,0-.95.42,2.42,2.42,0,0,0-.7.69,1.67,1.67,0,0,0-.29,1,1.6,1.6,0,0,0,.62,1.38,4.7,4.7,0,0,0,1.51.71,18.08,18.08,0,0,0,2,.43,8.07,8.07,0,0,1,2,.59,3.89,3.89,0,0,1,1.52,1.17,3.36,3.36,0,0,1,.61,2.17,4,4,0,0,1-.4,1.87A3.8,3.8,0,0,1,285.94,22a4.88,4.88,0,0,1-1.61.81,6.54,6.54,0,0,1-1.89.27,7.68,7.68,0,0,1-3.28-.69,5,5,0,0,1-2.3-2.13Z"/><path class="cls-1" d="M303.5,18.78c0,.26,0,.58,0,.95s0,.74.05,1.12,0,.73,0,1.07,0,.58,0,.76h-1.8c0-.52,0-1,0-1.5a4.57,4.57,0,0,0-.08-.93h-.09a4.87,4.87,0,0,1-1.8,2,5.24,5.24,0,0,1-2.94.82,6,6,0,0,1-2.65-.51,4.21,4.21,0,0,1-1.62-1.33,4.88,4.88,0,0,1-.8-1.91,11.61,11.61,0,0,1-.21-2.22V8.82h1.8V17a8.85,8.85,0,0,0,.15,1.64A4.31,4.31,0,0,0,294.1,20a2.76,2.76,0,0,0,1,1,3.58,3.58,0,0,0,1.75.37,5.14,5.14,0,0,0,1.88-.34,4,4,0,0,0,1.53-1,5.09,5.09,0,0,0,1-1.77,7.59,7.59,0,0,0,.37-2.51V8.82h1.8Z"/><path class="cls-1" d="M321.26,20.07a6.06,6.06,0,0,1-2.59,2.28,8.28,8.28,0,0,1-3.41.69,7.39,7.39,0,0,1-2.88-.54A6.48,6.48,0,0,1,310.16,21a6.64,6.64,0,0,1-1.42-2.31,8.47,8.47,0,0,1-.5-3,7.93,7.93,0,0,1,.51-2.88,6.85,6.85,0,0,1,1.44-2.29A6.76,6.76,0,0,1,312.38,9a6.85,6.85,0,0,1,2.79-.56A6.71,6.71,0,0,1,318,9a6.08,6.08,0,0,1,3.28,3.55,7,7,0,0,1,.42,2.37V16.2H310a6.24,6.24,0,0,0,.23,1.46,5.11,5.11,0,0,0,.82,1.72,5.25,5.25,0,0,0,1.61,1.44,5,5,0,0,0,2.59.6,5.79,5.79,0,0,0,2.67-.66,4.81,4.81,0,0,0,2-1.8Zm-1.38-5.49a4.09,4.09,0,0,0-.37-1.74,4.63,4.63,0,0,0-1-1.42,4.84,4.84,0,0,0-1.53-1,5,5,0,0,0-1.88-.36,4.57,4.57,0,0,0-2.44.6,5.37,5.37,0,0,0-1.55,1.38,5.51,5.51,0,0,0-.81,1.52,4,4,0,0,0-.24,1Z"/></g></g></svg>