<svg xmlns="http://www.w3.org/2000/svg" viewBox="0 0 423.02 129.07"><defs><style>.cls-1{fill:#153a49;}.cls-2{fill:#ff8300;}.cls-3{fill:#53575a;}</style></defs><g id="Layer_2" data-name="Layer 2"><g id="Layer_1-2" data-name="Layer 1"><path class="cls-1" d="M32.7,51a15.91,15.91,0,0,0,3.8-1.69,14.07,14.07,0,0,0,2.89-2.37,19.66,19.66,0,0,0,2.15-2.77,22.32,22.32,0,0,0,2.92-7.53h.46L43,52.06H.07v-.45a26.07,26.07,0,0,0,3.73-.23,5.06,5.06,0,0,0,2.44-.94,3.9,3.9,0,0,0,1.3-1.95,11.37,11.37,0,0,0,.39-3.32V7.67a2.56,2.56,0,0,0,0-.39,2.56,2.56,0,0,1,0-.39c0-2.38-.43-4-1.27-4.91S4.25.58,2.08.46H0V.06H41.21V13.71h-.46v-.06c-.34-1.43-.74-2.92-1.2-4.48a13.17,13.17,0,0,0-2.11-4.26,11,11,0,0,0-3.9-3.19A14.35,14.35,0,0,0,27,.46H14.82V25.87h9.3A7.4,7.4,0,0,0,28.5,24.6,8.6,8.6,0,0,0,31.92,19c.12-.91.19-1.51.19-1.81V17h.46V35.17h-.46V35c0-.3-.07-.93-.19-1.89a8.58,8.58,0,0,0-1-2.95,8.2,8.2,0,0,0-2.51-2.7,7.82,7.82,0,0,0-4.58-1.17h-9V44.07a7.62,7.62,0,0,1,.06,1.17,12.36,12.36,0,0,0,.3,3,4.14,4.14,0,0,0,1,1.89,4.31,4.31,0,0,0,1.79,1.07,10.18,10.18,0,0,0,2.73.42h7.21A16.73,16.73,0,0,0,32.7,51Z"/><path class="cls-1" d="M87.55,50.67c.52-.63.35-1.64-.52-3L74.23,28.21,65.71,41a20.3,20.3,0,0,0-2.3,4.29,7.23,7.23,0,0,0-.52,2.92,3.12,3.12,0,0,0,.68,1.85,3.65,3.65,0,0,0,1.33,1,5.28,5.28,0,0,0,1.5.42,8.47,8.47,0,0,0,1.13.1v.45H50.05v-.45h.58a19.82,19.82,0,0,0,2.15-.39,13.7,13.7,0,0,0,3.48-1.4,22.52,22.52,0,0,0,4.29-3.15,30.07,30.07,0,0,0,4.64-5.59L74,27.75,59.34,5.59a2,2,0,0,1-.26-.39,10.42,10.42,0,0,0-2.3-2.53,11.37,11.37,0,0,0-2.34-1.4A9.12,9.12,0,0,0,52.29.62,10.5,10.5,0,0,0,50.63.46h-.52V.06H70.72v.4H69c-1.52,0-2.55.35-3.09,1.07s-.36,1.74.55,3.09L79.23,24.05l8.84-13.52c1.52-2.38,2.33-4.25,2.44-5.59a4.18,4.18,0,0,0-.65-3,3.33,3.33,0,0,0-2-1.24A11.15,11.15,0,0,0,86,.46V.06h17.42v.4h-.58a18.72,18.72,0,0,0-2.11.39A13.71,13.71,0,0,0,97.3,2.21a22.28,22.28,0,0,0-4.22,3.06,28.21,28.21,0,0,0-4.55,5.39l-9,13.72L94.31,46.93a9.46,9.46,0,0,0,2.28,2.53A11.53,11.53,0,0,0,99,50.86a8.1,8.1,0,0,0,2.11.62,12.22,12.22,0,0,0,1.63.13h.65v.45H82.61v-.45h1.82C86,51.61,87,51.3,87.55,50.67Z"/><path class="cls-1" d="M106.66,52.06v-.45a26.12,26.12,0,0,0,3.74-.23,5.06,5.06,0,0,0,2.44-.94,3.9,3.9,0,0,0,1.3-1.95,11.37,11.37,0,0,0,.39-3.32V6.89q0-3.57-1.27-4.91T108.74.46h-2.08V.06h24.7a26.27,26.27,0,0,1,7.54,1,15,15,0,0,1,5.2,2.79,11,11,0,0,1,3,4.07,13.25,13.25,0,0,1,1,5.23,11.65,11.65,0,0,1-4,9.29,13.87,13.87,0,0,1-5.2,2.8,24.08,24.08,0,0,1-7.54,1h-9.88v19a12.36,12.36,0,0,0,.3,3,4.14,4.14,0,0,0,1,1.89,4.3,4.3,0,0,0,1.82,1.07,10.55,10.55,0,0,0,2.76.42h2l-.07.06v.39H106.66Zm14.82-26.19h9.36a9.46,9.46,0,0,0,5.53-1.62,9.78,9.78,0,0,0,1.46-1.34A9.11,9.11,0,0,0,139.16,21a13.67,13.67,0,0,0,1.3-3.55,18.89,18.89,0,0,0,.46-4.32q0-5.6-2.41-9a8.85,8.85,0,0,0-7.67-3.7h-4.16a6.12,6.12,0,0,0-4.06,1.62c-.76.87-1.14,2.45-1.14,4.75v19Z"/><path class="cls-1" d="M142.41,51.48l1.14-.13a7.94,7.94,0,0,0,2.54-.88,13.41,13.41,0,0,0,3.08-2.3,12.67,12.67,0,0,0,2.8-4.49L169.45,0H170l17.42,43.55a28.55,28.55,0,0,0,2.15,4.39,8.79,8.79,0,0,0,2,2.27,4.42,4.42,0,0,0,2,.91l2.31.36v.46H174.46v-.46c1.56-.09,2.89-.18,4-.29a4.48,4.48,0,0,0,2.5-.88,2.58,2.58,0,0,0,.71-2.31,17.57,17.57,0,0,0-1.3-4.58l-4.81-12.09H157.43l-4.94,12.29a6.15,6.15,0,0,0-.55,3.28,4.34,4.34,0,0,0,1,2.21,5.32,5.32,0,0,0,1.92,1.36,11.59,11.59,0,0,0,2.21.72,11.46,11.46,0,0,0,1.85.26l.85,0v.46H142.41ZM166.53,8.71l-8.91,22.17h17.75Z"/><path class="cls-1" d="M260.58.06V.52h-1a17.83,17.83,0,0,0-2.76.29,12.11,12.11,0,0,0-3.35,1.11,8.17,8.17,0,0,0-2.83,2.37,6.65,6.65,0,0,0-1.2,4.16V52.06H249L210.73,4.23V43.62a6.76,6.76,0,0,0,1.2,4.22,8.08,8.08,0,0,0,2.83,2.37,12.11,12.11,0,0,0,3.35,1.11,17.71,17.71,0,0,0,2.76.29h1v.45H199.09v-.45h1a18,18,0,0,0,2.76-.29,12.22,12.22,0,0,0,3.35-1.11A8.26,8.26,0,0,0,209,47.84a6.76,6.76,0,0,0,1.2-4.22v-37c0-1,0-1.94-.07-2.7A3.68,3.68,0,0,0,209.56,2,3,3,0,0,0,207.84.88a12.87,12.87,0,0,0-3.48-.36h-2V.06h13.91L249,40.69V8.45a6.65,6.65,0,0,0-1.2-4.16,8.26,8.26,0,0,0-2.83-2.37A12.22,12.22,0,0,0,241.57.81a18,18,0,0,0-2.76-.29h-1V.06h22.75Z"/><path class="cls-1" d="M310.37,44.4a22.48,22.48,0,0,1-7.73,5.65,25.28,25.28,0,0,1-9.95,2H264.81v-.45a25.33,25.33,0,0,0,3.7-.23,5,5,0,0,0,2.41-.94,4,4,0,0,0,1.3-1.95,11.37,11.37,0,0,0,.39-3.32V6.89c0-2.38-.44-4-1.3-4.91S268.92.58,266.76.46h-2V.06h27.95a24.07,24.07,0,0,1,9.95,2,22.83,22.83,0,0,1,7.73,5.59,24.8,24.8,0,0,1,5,8.32,29.47,29.47,0,0,1,1.72,10.07,29.23,29.23,0,0,1-1.72,10.05A25,25,0,0,1,310.37,44.4Zm-11.5,5.2A18.83,18.83,0,0,0,302,47.25a19.13,19.13,0,0,0,2.69-3.12,28.36,28.36,0,0,0,3.84-8.19,34.59,34.59,0,0,0,1.36-9.88,35.37,35.37,0,0,0-1.36-9.94,27.4,27.4,0,0,0-3.84-8.19A20,20,0,0,0,302,4.81a18.76,18.76,0,0,0-3.09-2.34,15,15,0,0,0-7-2H284.7a8.06,8.06,0,0,0-2.41.52,3.88,3.88,0,0,0-1.59,1.1A4.38,4.38,0,0,0,279.82,4a13.78,13.78,0,0,0-.26,2.87V44.07a3.56,3.56,0,0,0,0,.55,6.13,6.13,0,0,1,0,.62,13,13,0,0,0,.29,3,4.42,4.42,0,0,0,.94,1.89,4.07,4.07,0,0,0,1.76,1.07,10.33,10.33,0,0,0,2.79.42h5.92A15.41,15.41,0,0,0,298.87,49.6Z"/><path class="cls-1" d="M354.25,51a15.56,15.56,0,0,0,3.8-1.69,13.81,13.81,0,0,0,2.89-2.37,19,19,0,0,0,2.15-2.77A22.32,22.32,0,0,0,366,36.6h.46l-1.89,15.46h-43v-.45a26.22,26.22,0,0,0,3.74-.23,5,5,0,0,0,2.43-.94,3.9,3.9,0,0,0,1.3-1.95,11.37,11.37,0,0,0,.39-3.32V7.67a2.56,2.56,0,0,0,0-.39,2.56,2.56,0,0,1,0-.39q0-3.57-1.27-4.91T323.63.46h-2.08V.06h41.21V13.71h-.45v-.06c-.35-1.43-.75-2.92-1.2-4.48A13.19,13.19,0,0,0,359,4.91a11,11,0,0,0-3.9-3.19,14.32,14.32,0,0,0-6.5-1.26H336.37V25.87h9.3a7.45,7.45,0,0,0,4.39-1.27A8.64,8.64,0,0,0,353.47,19a15.74,15.74,0,0,0,.19-1.81V17h.46V35.17h-.46V35a17.68,17.68,0,0,0-.19-1.89,8.58,8.58,0,0,0-1-2.95,8.27,8.27,0,0,0-2.5-2.7,7.87,7.87,0,0,0-4.59-1.17h-9V44.07a6.23,6.23,0,0,1,.07,1.17,13,13,0,0,0,.29,3,4.15,4.15,0,0,0,1,1.89,4.27,4.27,0,0,0,1.78,1.07,10.18,10.18,0,0,0,2.73.42h7.22A16.71,16.71,0,0,0,354.25,51Z"/><path class="cls-1" d="M370.56,52.06v-.45h.07a26.22,26.22,0,0,0,3.74-.23,4.87,4.87,0,0,0,2.4-.94A4.06,4.06,0,0,0,378,48.49a11.37,11.37,0,0,0,.39-3.32V6.89c0-2.38-.43-4-1.27-4.91S374.81.58,372.64.46h-2.08V.06h24.77a26.76,26.76,0,0,1,7.54,1,16.79,16.79,0,0,1,5.2,2.79A11,11,0,0,1,411,7.9a13.08,13.08,0,0,1,1,5.23,11.67,11.67,0,0,1-4,9.29,15.44,15.44,0,0,1-5.2,2.8,13.54,13.54,0,0,1-3,.72c-1.06.12-2.17.23-3.34.32a10,10,0,0,1,2.89,1.36,15.06,15.06,0,0,1,3.48,3.58l12.22,17a6.46,6.46,0,0,0,2.17,1.91,13.07,13.07,0,0,0,2.47,1,9.86,9.86,0,0,0,2.12.42c.6.05,1,.07,1.1.07H423v.45H410l-15.86-22a15.27,15.27,0,0,0-1.79-2.05,7.31,7.31,0,0,0-1.56-1.14,5.35,5.35,0,0,0-1.46-.52,8.13,8.13,0,0,0-1.5-.13h-2.4v19a12.42,12.42,0,0,0,.29,3,4.14,4.14,0,0,0,1,1.89,4.31,4.31,0,0,0,1.79,1.07,10.18,10.18,0,0,0,2.73.42h2v.45H370.56Zm14.89-26.19h9.36a9.35,9.35,0,0,0,5.46-1.62,10.29,10.29,0,0,0,1.46-1.34,11.65,11.65,0,0,0,1.4-1.91,15.74,15.74,0,0,0,1.23-3.55,18.89,18.89,0,0,0,.46-4.32,15.17,15.17,0,0,0-2.41-9,8.8,8.8,0,0,0-7.6-3.7h-4.23a8.06,8.06,0,0,0-2.4.52,4,4,0,0,0-1.6,1.1A4.26,4.26,0,0,0,385.71,4a13.13,13.13,0,0,0-.26,2.87v19Z"/><path class="cls-1" d="M48.59,102.61a27.77,27.77,0,0,1,1.82-10.2A25.13,25.13,0,0,1,55.28,84a21.89,21.89,0,0,1,7.15-5.59,20.14,20.14,0,0,1,8.91-2.08h3.77A20,20,0,0,1,84,78.43,21.58,21.58,0,0,1,91.23,84a28.15,28.15,0,0,1,4.94,8.39,30.63,30.63,0,0,1,0,20.41,28.22,28.22,0,0,1-4.94,8.38A21.58,21.58,0,0,1,84,126.79a20,20,0,0,1-8.84,2.08H71.34a20.14,20.14,0,0,1-8.91-2.08,21.89,21.89,0,0,1-7.15-5.59,25.08,25.08,0,0,1-4.87-8.38A27.82,27.82,0,0,1,48.59,102.61Zm7.08,0a39.49,39.49,0,0,0,1.21,10,27.34,27.34,0,0,0,3.6,8.32,15,15,0,0,0,1,1.49,13.41,13.41,0,0,0,1.14,1.3,16.57,16.57,0,0,0,3.93,3,32.15,32.15,0,0,0,3.09,1.47l1.23.26a7.58,7.58,0,0,0,1.37.13h2a6.5,6.5,0,0,0,1.3-.13c.39-.09.82-.18,1.3-.26.73-.31,1.74-.79,3-1.47a17.87,17.87,0,0,0,4-3c.34-.39.7-.82,1.07-1.3s.73-1,1.07-1.49a27.65,27.65,0,0,0,3.64-8.32,40.5,40.5,0,0,0,0-19.89A27.54,27.54,0,0,0,86,84.35c-.34-.52-.7-1-1.07-1.5s-.73-.91-1.07-1.3a17.87,17.87,0,0,0-4-3c-1.28-.67-2.29-1.16-3-1.46l-1.3-.23a7.46,7.46,0,0,0-1.3-.1h-2a10.47,10.47,0,0,0-2.6.33,31.64,31.64,0,0,0-3.09,1.46,16.57,16.57,0,0,0-3.93,3,13.41,13.41,0,0,0-1.14,1.3,15.13,15.13,0,0,0-1,1.5,27.23,27.23,0,0,0-3.6,8.32A39.41,39.41,0,0,0,55.67,102.61Z"/><path class="cls-1" d="M101.11,129.07v-.46a24.83,24.83,0,0,0,3.74-.23,5,5,0,0,0,2.43-.94,3.9,3.9,0,0,0,1.3-2,11.34,11.34,0,0,0,.39-3.31V83.89q0-3.57-1.26-4.91t-4.52-1.52h-2.08v-.39h24.7a26.34,26.34,0,0,1,7.54,1,14.92,14.92,0,0,1,5.2,2.8,10.91,10.91,0,0,1,2.95,4.06,13.08,13.08,0,0,1,1,5.23,11.71,11.71,0,0,1-4,9.3,14.09,14.09,0,0,1-5.2,2.79,24.13,24.13,0,0,1-7.54,1h-9.88v19a13,13,0,0,0,.29,3,4.15,4.15,0,0,0,1,1.89,4.24,4.24,0,0,0,1.82,1.07,10.42,10.42,0,0,0,2.76.42h2l-.06.07v.39H101.11Zm14.82-26.2h9.36a9.46,9.46,0,0,0,5.52-1.62,9.81,9.81,0,0,0,1.47-1.34A9.5,9.5,0,0,0,133.61,98a14.29,14.29,0,0,0,1.3-3.55,19.49,19.49,0,0,0,.45-4.32,15.17,15.17,0,0,0-2.4-9,8.88,8.88,0,0,0-7.67-3.7h-4.16c-1.95.21-3.31.75-4.06,1.62s-1.14,2.45-1.14,4.75v19Z"/><path class="cls-1" d="M190.16,90.52v-.13c-.35-1.34-.74-2.74-1.17-4.19a14.82,14.82,0,0,0-1.92-4.06A10.63,10.63,0,0,0,183.62,79a12.78,12.78,0,0,0-5.68-1.56h-.59a5.81,5.81,0,0,0-4,1.59c-.75.89-1.13,2.46-1.13,4.72v38.41a12.49,12.49,0,0,0,.29,3,4.25,4.25,0,0,0,1,1.92,4.37,4.37,0,0,0,1.79,1.07,10.18,10.18,0,0,0,2.73.42h2v.46H157.4v-.46a24.6,24.6,0,0,0,3.73-.23,4.83,4.83,0,0,0,2.41-.94,4.06,4.06,0,0,0,1.27-2,11.34,11.34,0,0,0,.39-3.31V83.76a13,13,0,0,0-.29-3,4.16,4.16,0,0,0-1-1.88,3.88,3.88,0,0,0-1.79-1,13.51,13.51,0,0,0-2.73-.46H159A12.57,12.57,0,0,0,153.37,79a11.16,11.16,0,0,0-3.45,3.19A14.35,14.35,0,0,0,148,86.2c-.43,1.45-.8,2.85-1.1,4.19v.13h-.46V76.87h44.2V90.52Z"/><path class="cls-1" d="M199.74,128.38a5.06,5.06,0,0,0,2.44-.94,3.9,3.9,0,0,0,1.3-2,11.34,11.34,0,0,0,.39-3.31V83.89q0-3.57-1.27-4.91c-.84-.88-2.35-1.39-4.51-1.52H196v-.39h22.62v.32h0v.07H216A6.15,6.15,0,0,0,212,79.08c-.75.87-1.13,2.45-1.13,4.75v38.41a12.42,12.42,0,0,0,.29,3,4.14,4.14,0,0,0,1,1.89,4.36,4.36,0,0,0,1.82,1.07,10.56,10.56,0,0,0,2.77.42h2v.46H196v-.46A24.68,24.68,0,0,0,199.74,128.38Z"/><path class="cls-1" d="M222.85,102.61a28,28,0,0,1,1.82-10.2A25.13,25.13,0,0,1,229.54,84a21.82,21.82,0,0,1,7.16-5.59,20.1,20.1,0,0,1,8.9-2.08h3.77a20,20,0,0,1,8.84,2.08A21.58,21.58,0,0,1,265.49,84a27.94,27.94,0,0,1,4.94,8.39,30.47,30.47,0,0,1,0,20.41,28,28,0,0,1-4.94,8.38,21.58,21.58,0,0,1-7.28,5.59,20,20,0,0,1-8.84,2.08H245.6a20.1,20.1,0,0,1-8.9-2.08,21.82,21.82,0,0,1-7.16-5.59,25.08,25.08,0,0,1-4.87-8.38A28,28,0,0,1,222.85,102.61Zm7.09,0a40,40,0,0,0,1.2,10,27.11,27.11,0,0,0,3.61,8.32,13.69,13.69,0,0,0,2.14,2.79,16.57,16.57,0,0,0,3.93,3,32.15,32.15,0,0,0,3.09,1.47l1.24.26a7.38,7.38,0,0,0,1.36.13h2a6.43,6.43,0,0,0,1.3-.13c.39-.09.82-.18,1.3-.26.74-.31,1.74-.79,3-1.47a17.87,17.87,0,0,0,4-3c.35-.39.7-.82,1.07-1.3s.73-1,1.08-1.49a28.16,28.16,0,0,0,3.64-8.32,40.82,40.82,0,0,0,0-19.89,28,28,0,0,0-3.64-8.32q-.53-.78-1.08-1.5c-.37-.48-.72-.91-1.07-1.3a17.87,17.87,0,0,0-4-3c-1.28-.67-2.28-1.16-3-1.46l-1.3-.23a7.39,7.39,0,0,0-1.3-.1h-2a10.53,10.53,0,0,0-2.6.33,31.64,31.64,0,0,0-3.09,1.46,16.57,16.57,0,0,0-3.93,3,13.4,13.4,0,0,0-2.14,2.8,27,27,0,0,0-3.61,8.32A39.87,39.87,0,0,0,229.94,102.61Z"/><path class="cls-1" d="M334,77.07v.45h-1a18,18,0,0,0-2.76.29,12,12,0,0,0-3.34,1.11,8.08,8.08,0,0,0-2.83,2.37,6.66,6.66,0,0,0-1.21,4.16v43.62h-.51L284.14,81.23v39.39a6.7,6.7,0,0,0,1.21,4.22,8.14,8.14,0,0,0,2.82,2.37,11.89,11.89,0,0,0,3.35,1.11,17.93,17.93,0,0,0,2.77.29h1v.46H272.51v-.46h1a18,18,0,0,0,2.76-.29,11.72,11.72,0,0,0,3.34-1.11,8.08,8.08,0,0,0,2.83-2.37,6.76,6.76,0,0,0,1.2-4.22v-37q0-1.56-.06-2.7A3.72,3.72,0,0,0,283,79a3,3,0,0,0-1.72-1.14,12.82,12.82,0,0,0-3.48-.36h-2v-.45h13.91l32.7,40.62V85.45a6.66,6.66,0,0,0-1.21-4.16,8.08,8.08,0,0,0-2.83-2.37A12.15,12.15,0,0,0,315,77.81a17.93,17.93,0,0,0-2.77-.29h-1v-.45H334Z"/><path class="cls-1" d="M339.07,112.56h.52a15.61,15.61,0,0,0,.33,3,22.66,22.66,0,0,0,.91,3.31,19.16,19.16,0,0,0,1.42,3.16,9.48,9.48,0,0,0,1.89,2.4,15.75,15.75,0,0,0,4.68,2.83,16.13,16.13,0,0,0,5.52,1.07h.59a18.06,18.06,0,0,0,5.53-1.1,10.72,10.72,0,0,0,4.42-3.71,9.73,9.73,0,0,0,1.72-5.17,10.15,10.15,0,0,0-1.53-5.52,12.91,12.91,0,0,0-5.33-4.71l-8.19-4.23a24,24,0,0,1-6.5-4.58,15.49,15.49,0,0,1-3.41-5.14,11.25,11.25,0,0,1-.75-5.23,12,12,0,0,1,1.56-4.87,14.27,14.27,0,0,1,3.48-4,17.62,17.62,0,0,1,5-2.8,11.45,11.45,0,0,1,2.6-.71,17.94,17.94,0,0,1,2.67-.2A15.67,15.67,0,0,1,362,77.46c.7.26,1.44.52,2.21.78a8.87,8.87,0,0,0,2.35.45,4.9,4.9,0,0,0,2.21-.39,4.08,4.08,0,0,0,1.81-1.75h.46v14.1h-.52a10.59,10.59,0,0,0-.42-2.86A15.23,15.23,0,0,0,369,84.9a17.55,17.55,0,0,0-1.63-2.6,15.69,15.69,0,0,0-1.81-2,13.19,13.19,0,0,0-4.29-2.57,14.84,14.84,0,0,0-5.07-.87,15.68,15.68,0,0,0-2.25.16,13.46,13.46,0,0,0-2.17.49,9.3,9.3,0,0,0-4.65,3.12,6.65,6.65,0,0,0-1.37,4.94,11.57,11.57,0,0,0,2.89,5.94,29,29,0,0,0,8.13,6.28l7.47,3.83a18.87,18.87,0,0,1,5.66,4.45,13.72,13.72,0,0,1,2.86,5.37,11.49,11.49,0,0,1,.06,5.59,12,12,0,0,1-2.69,5.16,17.63,17.63,0,0,1-5.43,4.1,25.28,25.28,0,0,1-8.13,2.37h.14l-.95.1q-.42,0-.87,0h-.66a15,15,0,0,1-5.65-1.1v0a6.71,6.71,0,0,1-.65-.26,11.84,11.84,0,0,0-4.29-1,5.36,5.36,0,0,0-2.5.52,2.62,2.62,0,0,0-1.2,1.17,8.14,8.14,0,0,0-.39.88V129h-.46Z"/><path class="cls-2" d="M140.64,57.72a1.56,1.56,0,0,1,.36,1.12c0,.41-.05.85-.05,1.33-.07,1.15-.09,2.41,0,3.77s0,2.69,0,4,0,2.55,0,3.77a4.5,4.5,0,0,1-1.07,3H139a3.29,3.29,0,0,1-.76-1.58,15.82,15.82,0,0,1-.36-2.3c-.07-1.49-.09-3.06,0-4.69a44.05,44.05,0,0,1,.35-4.79c.07-.41.14-.89.21-1.43a6.11,6.11,0,0,1,.35-1.43,1.72,1.72,0,0,1,.72-.87A1.21,1.21,0,0,1,140.64,57.72Zm.51-19.79a2.35,2.35,0,0,1-.81,1.63,1.11,1.11,0,0,1-1.18-.2,1.77,1.77,0,0,1-.41-1,1.26,1.26,0,0,1,.31-1,1.29,1.29,0,0,1,1.17-.31C140.78,37.39,141.08,37.66,141.15,37.93Z"/><path class="cls-2" d="M166.75,73.94A7.3,7.3,0,0,0,168.44,72c.44-.75.9-1.5,1.37-2.25s.94-1.49,1.38-2.24.87-1.5,1.28-2.24.95-1.3,1.42-2,1-1.5,1.53-2.25c.34-.47.68-1,1-1.48a6,6,0,0,1,1.18-1.32,3.07,3.07,0,0,1,1.48-.72,3.33,3.33,0,0,1,1.83.26,4.41,4.41,0,0,1,1.17,2.5,24.79,24.79,0,0,1,.31,3.31c0,1.16.09,2.31.15,3.47a7.58,7.58,0,0,0,.72,3,5.94,5.94,0,0,0,2.09-1.79c.58-.78,1.14-1.54,1.68-2.29s1.07-1.65,1.58-2.5a16.92,16.92,0,0,0,1.28-2.6,6.49,6.49,0,0,0,.86-1.79,1.34,1.34,0,0,1,1.69-.87,1.76,1.76,0,0,1-.1,1.89,4.53,4.53,0,0,0-.72,1.89c-.34.61-.64,1.21-.92,1.78s-.54,1.18-.81,1.79a20.27,20.27,0,0,0-2,3.06,10.67,10.67,0,0,1-2.35,3,3.65,3.65,0,0,1-1.27.81,3.42,3.42,0,0,1-1.89.11,3.71,3.71,0,0,1-1.89-1.89,10.42,10.42,0,0,1-.76-3A28.81,28.81,0,0,1,179.5,64a19.49,19.49,0,0,0-.3-3.52,1.87,1.87,0,0,0-.87.77c-.24.37-.49.73-.76,1.07-.75,1-1.48,2.11-2.2,3.26s-1.37,2.31-2,3.47a31.78,31.78,0,0,0-2.7,4.54,8.38,8.38,0,0,1-3.52,3.72,4.83,4.83,0,0,0-.71,0,2.19,2.19,0,0,1-.82,0,6.07,6.07,0,0,1-1-.51,9.25,9.25,0,0,1-1.38-4.64q-.15-2.81-.15-5.76c0-2,0-4-.1-5.92s-.17-3.84-.31-5.61a58.87,58.87,0,0,0-3.77,8.77q-1.64,4.8-3.16,10c-.68,2.45-1.31,5-1.89,7.55s-1.21,5.23-1.89,7.95c-.13.62-.27,1.23-.4,1.84a9,9,0,0,1-.56,1.68,3.78,3.78,0,0,1-1,1.28,3,3,0,0,1-1.64.61,2.07,2.07,0,0,1-1.83-1.48,16.13,16.13,0,0,1-.61-2.7,47.53,47.53,0,0,1,0-8.93q.41-4.74.91-9c.35-2.86.75-5.73,1.23-8.62s1-5.67,1.63-8.32q.3-1.22.66-2.55a2,2,0,0,1,1.79-1.53,1.5,1.5,0,0,1,1.17.21,2,2,0,0,1,.56.81,5,5,0,0,1-.1,2.25,5,5,0,0,0-.1,2.24,6.7,6.7,0,0,0,.41,1.74,2.76,2.76,0,0,1,.1,1.63.7.7,0,0,1-.67.4,1,1,0,0,1-.76-.3q-.83,5.21-1.53,10.3c-.48,3.4-.82,7-1,10.81q1.72-5.91,3.67-12.34t4.29-12.24c.2-.47.47-1.14.81-2a12.18,12.18,0,0,1,1.28-2.39A6,6,0,0,1,162,50.78a2.1,2.1,0,0,1,2.19,0,2.69,2.69,0,0,1,1.38,1.63,12.14,12.14,0,0,1,.66,2.76,23.61,23.61,0,0,1,.21,3.21c0,1.12,0,2.13.1,3a50,50,0,0,1,0,6.48A29.86,29.86,0,0,0,166.75,73.94Z"/><path class="cls-2" d="M192.56,80.36q2.66-6.31,5.71-12.14a32.31,32.31,0,0,1,8-9.89l1-.41c.3-.13.66-.27,1.07-.41a3.45,3.45,0,0,1,3.06.92,5.5,5.5,0,0,1,1.32,2.81,9.24,9.24,0,0,1-.05,3.51,14,14,0,0,1-1,3.17,29.49,29.49,0,0,0,3.88-2.55q1.83-1.43,3.87-2.76l2.91-2c1-.68,2-1.36,3-2a7.77,7.77,0,0,0,1.12-.56,1,1,0,0,1,1.23.15.94.94,0,0,1-.31,1.33c-.48.34-.88.65-1.22.92q-4.29,3-8.27,6t-8.15,6a34.29,34.29,0,0,1-2.45,3.83,30.5,30.5,0,0,1-3,3.41c-.41.35-.9.81-1.48,1.38S201.64,82,201,82.55a14,14,0,0,1-2,1.38,5.38,5.38,0,0,1-2.09.72c-1.5.2-2.32-.31-2.45-1.53a2.43,2.43,0,0,1,.56-2.15,19.42,19.42,0,0,1,1.48-1.43c.54-.54,1-1,1.48-1.42s.9-.82,1.37-1.23a31.93,31.93,0,0,0,3.27-2.39,33.43,33.43,0,0,1,3.26-2.4c.48-.75,1-1.62,1.48-2.6s1-2,1.38-3c.13-.48.29-1,.46-1.63a11.92,11.92,0,0,0,.35-1.84,5.83,5.83,0,0,0-.05-1.73,2.71,2.71,0,0,0-.76-1.43,5.56,5.56,0,0,0-3.57,1.68,35.86,35.86,0,0,0-2.55,2.91,44.12,44.12,0,0,0-5.1,8.21,88.13,88.13,0,0,0-3.88,9.44c-.27.68-.53,1.34-.76,2a13.7,13.7,0,0,0-.57,2,21.93,21.93,0,0,0-.3,3.73c0,1.32,0,2.63-.1,3.92-.14,2.59-.28,5.17-.41,7.76s-.31,5.2-.51,7.85q-.1.92-.15,1.89a15,15,0,0,1-.21,1.78,3.72,3.72,0,0,1-.61,1.48,2.64,2.64,0,0,1-1.27,1h-.31a1.71,1.71,0,0,1-1.58-1.68,29,29,0,0,1-.15-2.91,47.08,47.08,0,0,1,.15-5.87c.17-1.87.39-3.75.66-5.66.14-.88.31-1.77.51-2.65s.38-1.77.51-2.65a42.81,42.81,0,0,0,.31-5.25c0-1.8.07-3.52.2-5.16q.41-6.53.77-12.85t.76-12.95V56.14a16.35,16.35,0,0,1,.1-1.79,3.76,3.76,0,0,1,.46-1.43,1.27,1.27,0,0,1,1.17-.61,1.22,1.22,0,0,1,1.18.77,5.58,5.58,0,0,1,.46,1.83,14.08,14.08,0,0,1,0,2.25c-.07.78-.11,1.44-.11,2q-.4,5.29-.76,10.65T192.56,80.36Z"/><path class="cls-2" d="M231,16.92l.1-.11A1.66,1.66,0,0,1,233,18.14a11.25,11.25,0,0,1,.31,2.45,45.58,45.58,0,0,1-.36,8.31c-.38,2.69-.7,5.32-1,7.91q-.51,5.3-1,10.76t-.92,11q-.62,9.69-1.32,19.33a181.52,181.52,0,0,0-.31,20.35,11.35,11.35,0,0,0,.1,1.43,12.3,12.3,0,0,1,.1,1.58,4.26,4.26,0,0,1-.2,1.38.81.81,0,0,1-.82.61,1.44,1.44,0,0,1-1.78-1.23,16.6,16.6,0,0,1-.46-2.65c-.14-1.09-.22-2.14-.26-3.16s-.08-1.94-.15-2.75c.07-2,.07-4.07,0-6.07s-.06-3.93,0-5.77q.11-14.77,1.23-28.1T229,26.81l.61-5.2a20.55,20.55,0,0,0,.26-2.5,3.34,3.34,0,0,1,.87-2.19Z"/><path class="cls-2" d="M251.62,56.29c-1.3,1.7-2.55,3.54-3.78,5.51s-2.45,3.87-3.67,5.71c-.88,1.29-1.8,2.69-2.75,4.18a20.91,20.91,0,0,1-3.27,4,7,7,0,0,1-1.43,1.27,2.21,2.21,0,0,1-1.93.26A2.76,2.76,0,0,1,233.36,75a31.29,31.29,0,0,1,1.89-8.88,41.09,41.09,0,0,1,3.62-7.55c.47-.74,1-1.49,1.58-2.24a5.46,5.46,0,0,1,1.88-1.63,2.92,2.92,0,0,1,3.42.15c1,.78,1.34,2,1.07,3.72A5.62,5.62,0,0,0,248,56.9c.44-.82.91-1.65,1.42-2.5a17.87,17.87,0,0,1,1.63-2.29A2.88,2.88,0,0,1,252.84,51a2.16,2.16,0,0,1,.71.11l.62.2a4.92,4.92,0,0,1,1,1.94q-.21,6.12-.82,11.58t-.92,11.57v1.84c0,.75,0,1.5-.1,2.24a10.44,10.44,0,0,1-.36,2c-.17.58-.46.87-.86.87a1.16,1.16,0,0,1-1.08-.66,5.66,5.66,0,0,1-.51-1.64,12.81,12.81,0,0,1-.15-2,10.29,10.29,0,0,0-.1-1.64,58.08,58.08,0,0,1,.2-10.81C250.9,63.06,251.27,59.62,251.62,56.29Zm-7.35.2a.09.09,0,0,0-.1-.1,2.61,2.61,0,0,0-.56.26,3.17,3.17,0,0,1-.56.25,21.54,21.54,0,0,0-2.55,3.62,42.8,42.8,0,0,0-2,4.13c-.55,1.43-1.07,2.95-1.58,4.54a22.07,22.07,0,0,0-1,5.15,35.64,35.64,0,0,0,5.15-6.58c1.53-2.48,3.07-4.91,4.64-7.29a4.08,4.08,0,0,1-.51-2.19A1.76,1.76,0,0,0,244.27,56.49Z"/><path class="cls-2" d="M265.49,73.42q2-3.87,4.08-7.9a37.51,37.51,0,0,1,4.79-7.29q.4-.51,1-1.23a7.61,7.61,0,0,1,1.33-1.22,4.46,4.46,0,0,1,1.58-.72,3.18,3.18,0,0,1,1.89.21,4.67,4.67,0,0,1,2.24,3.16q.7,2.45,1.22,4.9c.14.75.29,1.53.46,2.34s.36,1.64.56,2.45a17.7,17.7,0,0,0,.82,2.3c.34.78.75,1.24,1.22,1.37a1.69,1.69,0,0,0,1.53-.35,11.32,11.32,0,0,1,1.23-.87c.41-.34.78-.63,1.12-.87a7.16,7.16,0,0,0,1-.87,41.17,41.17,0,0,0,4.28-4.28,50.35,50.35,0,0,1,4.29-4.38A17.07,17.07,0,0,1,302,59a2.57,2.57,0,0,1,1.23-.35c.37,0,.59.23.66.71s-.15.75-.66,1a4.72,4.72,0,0,0-1.18.82,25.36,25.36,0,0,0-2.85,2.9q-1.44,1.68-3.06,3.42c-.55.54-1.07,1-1.58,1.53s-1,1-1.58,1.53c-.89.88-1.84,1.75-2.86,2.6a6,6,0,0,1-4,1.27l-.46-.2a1.43,1.43,0,0,0-.56-.1,6.31,6.31,0,0,1-2.5-3.16,32.35,32.35,0,0,1-1.27-4.34c-.34-1.53-.67-3.06-1-4.59a14.35,14.35,0,0,0-1.48-4.13,6,6,0,0,0-2.65,2.3,31.82,31.82,0,0,1-2,2.9,47.45,47.45,0,0,0-3.47,6.33q-1.53,3.36-3,6.93A6.32,6.32,0,0,0,267,78a17.13,17.13,0,0,1-.72,1.89,5.18,5.18,0,0,1-1.07,1.58,1.85,1.85,0,0,1-1.78.46,1.7,1.7,0,0,1-1.38-1.07,6.36,6.36,0,0,1-.56-2.24,24.76,24.76,0,0,1-.05-2.76q0-1.47.15-2.7c.27-3.27.65-6.44,1.12-9.54a58.82,58.82,0,0,1,1.94-8.52q.4-1.11.72-2a1.42,1.42,0,0,1,1.32-1,1.17,1.17,0,0,1,1.28.57,3,3,0,0,1,.3,1.58,11.06,11.06,0,0,1-.3,2c-.17.71-.29,1.31-.36,1.78-.48,2.59-.88,5.17-1.22,7.75S265.76,70.84,265.49,73.42Z"/><path class="cls-2" d="M307.72,45.07q8.76-.3,18.25-.92a135,135,0,0,1,18.87.1c.34,0,.72,0,1.13,0a.9.9,0,0,1,.81.57c-.07.54-.32.81-.76.81a5.9,5.9,0,0,1-1.18-.1,185.46,185.46,0,0,0-18.87.15q-9.37.57-18.46,1.07-1.42,8.37-2.6,17A125.29,125.29,0,0,0,303.84,82c0,.89,0,1.87.1,3a21.56,21.56,0,0,0,.41,3.06c.13.75.36,1.67.66,2.76s.77,1.66,1.38,1.73a1.35,1.35,0,0,0,1.07-.31,8.8,8.8,0,0,0,1.12-1,9.29,9.29,0,0,0,1-1.17c.31-.41.53-.71.67-.92a99.52,99.52,0,0,0,7.29-10.86q3.21-5.56,6.78-11.58c.61-1.08,1.26-2.21,1.94-3.36s1.43-2.31,2.24-3.47a9.27,9.27,0,0,1,.92-1.17q.51-.57,1-.36c.54.27.65.7.31,1.27a13,13,0,0,1-.82,1.28c-1.7,2.85-3.3,5.75-4.79,8.67s-3.1,5.81-4.8,8.67c-.95,1.56-1.88,3.15-2.8,4.74s-1.89,3.18-2.91,4.75-2.07,3.09-3.16,4.58a10.86,10.86,0,0,1-4.18,3.47,5.5,5.5,0,0,1-2.14,0,6.28,6.28,0,0,1-3.52-3.82,27.65,27.65,0,0,1-1.38-5.77,43.76,43.76,0,0,1-.51-6.78c0-2.34.07-4.64.2-6.88q.51-6.84,1.38-13.21t2.09-12.19c-3.13.14-6.31.37-9.54.71s-6.51.58-9.84.72c-.41,0-.87,0-1.38.05s-.79-.22-.86-.77a.72.72,0,0,1,.81-.81,9.8,9.8,0,0,0,1.43-.1q4.8-.31,9.79-.82c3.34-.34,6.63-.58,9.9-.71.41-1.43.86-3.12,1.37-5.05A41,41,0,0,1,306.9,35a8.31,8.31,0,0,1,.76-1.68,1.62,1.62,0,0,1,1.38-1,1.06,1.06,0,0,1,1,.41,1.47,1.47,0,0,1,.2,1,7.55,7.55,0,0,1-.2,1.17c-.1.41-.19.78-.26,1.12-.34,1.5-.67,3-1,4.64S308.05,43.71,307.72,45.07Z"/><path class="cls-3" d="M100.11,59.19h1.31L106,69.81h-1.68l-1.06-2.62H98.16l-1,2.62H95.43Zm2.58,6.74-2-4.88h0l-2,4.88Z"/><path class="cls-3" d="M107.34,59.19h1.89l5.85,8.73h0V59.19h1.44V69.81h-1.83l-5.91-8.73h0v8.73h-1.44Z"/><path class="cls-3" d="M119,59.19h3.71a6.86,6.86,0,0,1,2,.26,5.54,5.54,0,0,1,1.47.68,4.39,4.39,0,0,1,1,1,5.1,5.1,0,0,1,.66,1.14,5.74,5.74,0,0,1,.34,1.17,6.18,6.18,0,0,1,.11,1.08,5.4,5.4,0,0,1-.38,2,5,5,0,0,1-1.11,1.69A5.43,5.43,0,0,1,125,69.36a6.54,6.54,0,0,1-2.51.45H119Zm1.44,9.27h1.82a6.13,6.13,0,0,0,1.73-.24,4.34,4.34,0,0,0,1.43-.75,3.59,3.59,0,0,0,1-1.23,4,4,0,0,0,.36-1.74,5.22,5.22,0,0,0-.17-1.19A3.7,3.7,0,0,0,126,62a3.8,3.8,0,0,0-1.27-1,4.55,4.55,0,0,0-2.1-.43h-2.16Z"/></g></g></svg>