<?xml version="1.0" encoding="utf-8"?>
<!-- Generator: Adobe Illustrator 24.2.0, SVG Export Plug-In . SVG Version: 6.00 Build 0)  -->
<svg version="1.1" id="Layer_1" xmlns="http://www.w3.org/2000/svg" xmlns:xlink="http://www.w3.org/1999/xlink" x="0px" y="0px"
	 viewBox="0 0 1043.1 629" style="enable-background:new 0 0 1043.1 629;" xml:space="preserve">
<style type="text/css">
	.st0{fill-rule:evenodd;clip-rule:evenodd;fill:#BCBEC0;}
	.st1{fill:#E6E7E8;}
	.st2{fill:#FFFFFF;}
	.st3{opacity:6.000000e-02;}
	.st4{fill:#696766;}
	.st5{opacity:0.18;}
	.st6{opacity:0.75;}
	.st7{opacity:0.1;}
	.st8{opacity:0.4;}
	.st9{fill:none;stroke:#FF8300;}
	.st10{fill:#FF8D1E;}
	.st11{fill:#FF8300;}
	.st12{fill:#8B8E8F;}
	.st13{fill:none;stroke:#FF8300;stroke-width:0.92;}
	.st14{fill-rule:evenodd;clip-rule:evenodd;fill:#53575A;}
	.st15{fill:#53575A;}
</style>
<path class="st0" d="M971.9,484.2c4.5,6.2,7.4,13.9,9.3,21.3c1,3.8,1.7,7.5,2.2,11.2h3.1c0.4-3.7,0.6-8.1,0.7-13.2
	c0.1-5.5,0-11.6-0.1-17.8c0.7,7,1.5,13.9,2.2,19.8c0.5,4.2,1,7.8,1.6,11.2h1c0.4-4.1,0.7-8.2,1.1-12.1c0.5-5.1,0.9-9.9,1.2-14.7
	c0.2,4.5,0.5,9,0.9,12.9c0.4,3.9,0.9,7.3,1.4,10.6c0.4-3.3,0.9-6.6,1.3-12c0.4-5.4,0.6-12.8,0.9-20.2c0.2,4.3,0.6,8.7,1,12.6
	s0.8,7.4,1.3,11.8c0.4,3.3,0.8,7.1,1.1,11.1h1.1c0.9-4.9,1.5-9.8,1.8-14.8c0.4-7.3,0.3-16.1,0.3-33.7c0.1-17.5,0.6-43.8,0.8-70.4
	s-0.2-53.8-0.6-81.3s-0.7-55.4-0.9-77.3s0.2-38,0.9-49.9s1.9-19.7,3-27.4c-2.6,3-5.2,5.9-9.4,11.4c-4.2,5.5-10,13.4-15.7,21.4
	c7.8-13.8,15.5-27.6,23.3-41.5c-8.7,12.2-17.5,24.4-25,35.1s-13.8,19.9-21,30.1c-7.2,10.2-15.2,21.4-21.5,29.5s-10.7,13-15.1,18
	c3.4-5.8,6.7-11.6,11.6-19.2c4.9-7.5,11.3-16.7,19.4-28.2c8.1-11.5,17.7-25.3,26-38.5c8.3-13.2,15.4-25.8,22.5-38.3
	c-8.8,12.7-17.6,25.4-25.7,37.1c-8.1,11.7-15.7,22.5-23.2,33.3c7.6-12.5,15.2-24.9,22.8-37.5c7.6-12.6,15-25.3,22.6-38.1
	c-5.5,7.4-11,14.7-17.1,23.7c-6.1,9-13,19.7-19.3,29.3c-6.3,9.5-12.2,17.8-19.3,28s-15.5,22-24,34.7c-8.5,12.6-17,25.9-23.4,37.3
	s-10.7,20.7-13.6,29.6c-2.7,8.3-4.4,17-4.9,25.7c-0.7,7.9-0.4,15.8,0.8,23.6c1,6.1,2.7,12.1,5.2,17.8c2.1,5.1,4.6,10,7.5,14.7
	c3,5.1,6.8,10.6,10.5,16.1c-6.1-7.2-12.2-14.4-16.6-21.4c-8.3-13-12.8-28.1-13.1-43.5c0.1-9,1.6-18,4.2-26.7
	c3.1-9.8,7.1-19.2,12-28.2c5.1-9.5,11.2-19.1,21.6-34.7c10.5-15.7,25.2-37.4,38-56.2s23.4-34.9,32.1-48.1
	c8.7-13.2,15.3-23.7,22-34.1c-3.3,2.7-6.3,5.9-8.9,9.4c-4.2,5.4-10.3,14.2-21.9,31.3s-28.8,42.4-41.4,60.7s-20.7,29.6-29,42.3
	s-16.6,26.7-22,37.6c-4.2,8.2-7.4,17-9.5,26c-1.7,7.3-2.6,14.7-2.6,22.2c0.1,7.2,1.3,14.3,3.4,21.1c2.2,6.5,4.9,12.8,8,18.9
	c-2.1-3.8-4.3-7.5-6.4-11.4c-2.7-4.6-4.7-9.6-5.8-14.8c-1.6-8.4-1.9-17-1.1-25.5c1.1-9.6,3.6-19.1,7.3-28c4-9.7,9.4-20.2,16.5-32.4
	s15.7-26.1,26.5-42.1c10.8-16,23.7-34.1,36.5-52.7c12.8-18.6,25.3-37.5,32.7-49.1c7.3-11.6,9.4-16.1,11.4-20.6
	c-15.9,22.2-31.8,44.5-49,68.8c-16.4,23.1-33.8,48.1-47.6,69.3l-3,4.5c-13.6,21-23.2,37.8-29,51.2c-6,13.8-8.1,23.9-8.9,33.6
	c-1,9.8,0.1,19.8,3.1,29.2c3.3,10.2,9.2,21.5,17.6,32.4c8.4,10.9,19,21.3,32.1,31.6c13.1,10.3,28.3,20.6,38.9,28.2
	C961.3,473.1,967.4,478,971.9,484.2z"/>
<path class="st0" d="M679,484.2c4.5,6.2,7.4,13.9,9.3,21.3c1,3.8,1.7,7.5,2.2,11.2h3.1c0.4-3.7,0.5-8.1,0.7-13.2
	c0.1-5.5,0-11.6-0.1-17.8c0.7,7,1.5,13.9,2.2,19.8c0.5,4.2,1.1,7.8,1.6,11.2h1c0.4-4.1,0.7-8.2,1.1-12.1c0.5-5.1,0.9-9.9,1.2-14.7
	c0.2,4.5,0.5,9,0.9,12.9c0.4,3.9,0.9,7.3,1.4,10.6c0.4-3.3,0.9-6.6,1.3-12c0.4-5.4,0.6-12.8,0.9-20.2c0.2,4.3,0.6,8.7,1,12.6
	s0.8,7.4,1.3,11.8c0.4,3.3,0.8,7.1,1.1,11.1h1.1c0.9-4.9,1.5-9.8,1.8-14.8c0.4-7.3,0.3-16.1,0.3-33.7c0.1-17.5,0.6-43.8,0.8-70.4
	s-0.2-53.8-0.6-81.3s-0.7-55.4-0.9-77.3s0.2-38,0.9-49.9s1.9-19.7,3-27.4c-2.6,3-5.2,5.9-9.3,11.4c-4.2,5.5-10,13.4-15.7,21.4
	c7.8-13.8,15.5-27.6,23.3-41.5c-8.7,12.2-17.5,24.4-25,35.1s-13.8,19.9-21,30.1c-7.2,10.2-15.2,21.4-21.5,29.5s-10.7,13-15.1,18
	c3.3-5.8,6.7-11.6,11.6-19.2c4.9-7.5,11.3-16.7,19.4-28.2c8.1-11.5,17.7-25.3,26-38.5c8.3-13.2,15.4-25.8,22.5-38.3
	c-8.8,12.7-17.6,25.4-25.7,37.1c-8.1,11.7-15.7,22.5-23.2,33.3c7.6-12.5,15.2-24.9,22.8-37.5c7.6-12.6,15-25.3,22.6-38.1
	c-5.5,7.4-11,14.7-17.1,23.7c-6.1,9-13,19.7-19.3,29.3c-6.3,9.5-12.2,17.8-19.3,28s-15.5,22-24,34.7c-8.5,12.6-17,25.9-23.4,37.3
	s-10.7,20.7-13.6,29.6c-2.7,8.3-4.4,17-4.9,25.7c-0.7,7.9-0.4,15.8,0.8,23.6c1,6.1,2.8,12.1,5.2,17.8c2.1,5.1,4.6,10,7.5,14.7
	c3,5.1,6.8,10.6,10.5,16.1c-6.1-7.2-12.2-14.4-16.6-21.4c-8.3-13-12.8-28.1-13.1-43.5c0.1-9,1.6-18,4.2-26.7
	c3.1-9.8,7.1-19.2,12-28.2c5.1-9.5,11.2-19.1,21.6-34.7c10.5-15.7,25.2-37.4,38-56.2s23.5-34.9,32.1-48.1
	c8.6-13.2,15.2-23.7,21.9-34.1c-3.3,2.7-6.3,5.9-8.9,9.4c-4.2,5.4-10.3,14.2-21.9,31.3s-28.8,42.4-41.4,60.7s-20.7,29.6-29,42.3
	s-16.6,26.7-22,37.6c-4.2,8.2-7.4,17-9.5,26c-1.7,7.3-2.6,14.7-2.6,22.2c0.1,7.2,1.3,14.3,3.4,21.1c2.2,6.5,4.9,12.8,8,18.9
	c-2.1-3.8-4.3-7.5-6.4-11.4c-2.7-4.6-4.7-9.6-5.8-14.8c-1.6-8.4-1.9-17-1.1-25.5c1.1-9.6,3.6-19.1,7.3-28c4-9.7,9.4-20.2,16.5-32.4
	s15.7-26.1,26.5-42.1c10.8-16,23.7-34.1,36.5-52.7c12.8-18.6,25.3-37.5,32.7-49.1c7.3-11.7,9.4-16.1,11.4-20.6
	c-15.9,22.2-31.8,44.5-49,68.8c-16.4,23.1-33.8,48.1-47.7,69.3l-2.9,4.5c-13.6,21-23.2,37.8-29,51.2c-6,13.8-8.1,23.9-8.9,33.6
	c-1,9.8,0.1,19.8,3.1,29.2c3.3,10.2,9.2,21.5,17.6,32.4c8.4,10.9,19,21.3,32.1,31.6c13.1,10.3,28.3,20.6,38.9,28.2
	C668.4,473.1,674.5,478,679,484.2z"/>
<path class="st0" d="M196.1,175.4c0.4,7.5,0.8,15,1.2,33.4s0.9,47.5,0.5,78.6s-1.8,64.2-3.4,89.5s-3.8,42.9-5.8,60.5
	c0.4-20.4,0.9-40.8,1.9-62.8s2.5-45.8,3.2-69.7s0.5-47.7,0.8-69.3S195.4,194.7,196.1,175.4"/>
<path class="st0" d="M185.4,423.3c0.4-3.7,0.8-7.3,1.3-16.4s1.1-23.7,1.6-37.6s0.8-27.2,1.1-47.5s0.6-47.4,1.2-70.1
	s1.4-40.8,2.1-58.9c-1.6,9.2-3.1,18.4-5,28.9s-3.8,22-6.2,32.1c-2.4,10.1-5,18.4-7.2,27.1c-2.2,8.3-3.9,16.7-5.2,25.2
	c-1,6.8-1.4,13.8-1.3,20.7c0.1,8.4,0.9,16.7,2.1,24.9c1.6,10.6,4.1,24.1,6.7,37.7c-2.2-7.9-4.5-15.8-6.4-24.8
	c-2-9.2-3.4-18.5-4.3-27.8c-0.8-8.1-0.7-16.2,0.2-24.2c1.1-8.6,3.1-18.8,6.2-32.1c3.1-13.3,7.3-29.6,10.1-42.1s4.3-21.2,5-27.2
	c0.5-4.2,0.8-8.4,0.7-12.6c-1.9,10.8-3.9,21.6-7.4,37.4s-8.6,36.4-12.1,51.8s-5.5,25.4-5.9,35.8c-0.2,10.1,0.5,20.2,2.2,30.2
	c1.3,8.2,3.1,16.3,5.2,24.3c2.1,8,4.7,17,6.7,24.2s3.4,12.5,4.9,17.9c-0.5-8.1-1.1-16.1-1.5-24.8s-0.7-17.9-1.3-27.6
	s-1.7-19.5-2.4-27.9c-0.7-7.4-1-14.8-0.9-22.2c0.2-6,0.7-11.9,1.6-17.8c0.7-4.8,1.3-7.9,2-11.1c0,13.1,0.1,26.1,0.3,36.7
	s0.5,18.8,1.1,30.2s1.2,26.3,1.9,41.2c0.3-19,0.6-38,0.7-53.3s0.3-27,0.1-39.1s-0.7-24.6-1.2-37.1c-3,11.2-6,22.5-7.8,32.6
	c-1.8,10.3-2.4,20.8-1.8,31.3c0.6,12.1,2.2,27.2,3.9,42.3c-1.8-12-3.5-24-4.4-34c-0.9-8.6-1-17.2-0.4-25.9
	c0.6-7.9,1.8-15.5,4.5-26.8s6.6-26.2,10.5-41.1c-0.5,21.5-0.9,42.9-1.1,64.1s-0.3,42.1-0.3,61S185.4,406.4,185.4,423.3"/>
<polygon class="st0" points="708.6,489.1 717.8,421.1 722.5,169 708.6,192.4 "/>
<path class="st0" d="M690.6,181.9v307.3c-2-7.3-4.1-14.7-5-39.3s-0.8-66.7-0.1-108.9s1.8-84.7,2.8-111.2S689.9,192.6,690.6,181.9"/>
<path class="st0" d="M718.1,496.8c1.3-15.4,2.6-30.8,3.3-51.1s1-45.7,2-93.5s2.9-117.9,4.7-188.1c-1.2,12.8-2.5,25.6-3.7,46.2
	s-2.4,49.2-3.9,92.3s-3.1,101-3.6,135.9S717.3,485,718.1,496.8"/>
<path class="st1" d="M705.7,404.7c0,0,0.8,19.1-5,25c0,0-10.1,13.4-14.2,11.2c-1.4-1.4-2.6-3.1-3.5-4.9l12.9-25.9L705.7,404.7z"/>
<path class="st1" d="M700,245.6c0,0,1.5-21.9-9.5-25.6c0,0-4.7,0.1-6.1,3.8l0.8,7.3l13.1,16.6L700,245.6z"/>
<path class="st2" d="M665.7,447.2c0,0,28.1-6.4,46.5-57.6c0,0,14.8-42.1,2.8-100.5c0,0-12.8-56.7-34.1-67.8c0,0-15.7-8.3-27,3.9
	c0,0-13.3,18.8-16.9,25.1c0,0-30.6,40.7-37.4,61.1c0,0-6.7,15.4-7,29.3c0,0-6.6,56.5,41,96.2C633.6,436.9,649.3,451.4,665.7,447.2"
	/>
<g class="st3">
	<g>
		<g>
			<g>
				<g>
					<path class="st4" d="M696,411.7c0,0,46.1-57.4,0.6-167.4c0,0-8.9-21.3-19.6,0.1c0,0-36.6,46.3-22.9,113.8
						c0,0,7.4,42.5,16.2,54.6C670.2,412.8,679.8,432.1,696,411.7"/>
				</g>
			</g>
		</g>
	</g>
</g>
<g class="st5">
	<g>
		<g>
			<g>
				<g>
					<path class="st4" d="M625.7,273.2c8.5-14,19.3-22.8,24.3-19.9c4.9,3,2.1,16.7-6.4,30.7s-19.3,22.9-24.3,19.9
						S617.2,287.1,625.7,273.2"/>
				</g>
			</g>
		</g>
	</g>
</g>
<g class="st6">
	<g>
		<g>
			<g>
				<g>
					<path class="st1" d="M627.2,273.4c7.7-12,16.9-19.9,20.6-17.5c3.7,2.3,0.4,14-7.3,26s-16.9,19.9-20.6,17.5
						S619.5,285.4,627.2,273.4"/>
				</g>
			</g>
		</g>
	</g>
</g>
<path class="st2" d="M655.7,226.9c0.7,0,1.3,0.2,1.9,0.5c15.9,8.8,17,38.3,16.9,47.1c0,1.9-0.2,3.7-0.6,5.6
	c-7.8,33-39.4,50.8-39.8,51c-12,7.2-22,10.9-29.6,10.9c-7.9,0-10.5-3.9-10.9-4.6c-0.8-17.3,15.2-43.9,15.3-44.1
	c7.8-12.1,34.7-51.8,42.8-63.7C652.8,227.9,654.2,226.9,655.7,226.9 M655.6,226.3c-1.9,0.1-3.6,1.2-4.6,2.9
	c-8.6,12.7-35,51.7-42.8,63.7c0,0-16.4,27-15.4,44.7c0,0,2.5,5.1,11.5,5.1c6.3,0,15.8-2.5,30-11c0,0,32.1-17.8,40.1-51.4
	c0.4-1.9,0.6-3.8,0.6-5.7c0.1-9.7-1.1-38.8-17.2-47.7C657.2,226.5,656.4,226.3,655.6,226.3"/>
<g class="st7">
	<g>
		<g>
			<g>
				<g>
					<path class="st4" d="M675,277.8c0,0,2.7-45.4-21.2-52.6c0,0-36.2,53.3-45.5,67.7c0,0-16.4,27-15.4,44.7c0,0,7.1,14.7,41.5-5.9
						C634.4,331.7,668.1,313.1,675,277.8"/>
				</g>
			</g>
		</g>
	</g>
</g>
<g class="st8">
	<g>
		<g>
			<g>
				<g>
					<path class="st2" d="M654.1,225.9c22.6,7.4,20.3,51.3,20.3,51.7c-6.8,34.6-40,53.3-40.3,53.5c-12,7.2-22,10.9-29.6,10.9
						c-7.9,0-10.5-3.9-10.9-4.6c-0.8-17.3,15.2-43.9,15.3-44.1C617.7,279.6,650.8,230.8,654.1,225.9 M653.8,225.2
						c0,0-36.2,53.3-45.5,67.7c0,0-16.4,27-15.4,44.7c0,0,2.5,5.1,11.5,5.1c6.3,0,15.8-2.5,30-11c0,0,33.7-18.7,40.6-54
						C675,277.7,677.7,232.3,653.8,225.2"/>
				</g>
			</g>
		</g>
	</g>
</g>
<path class="st0" d="M435.2,188.6v294.6c-2-7-4.1-14.1-5-37.7s-0.8-63.9-0.1-104.4s1.8-81.2,2.8-106.6S434.4,198.8,435.2,188.6"/>
<path class="st0" d="M422.5,497.5c1.3-14.8,2.6-29.5,3.3-49s1-43.8,2-89.6s2.9-113,4.7-180.2c-1.2,12.3-2.5,24.6-3.7,44.3
	s-2.4,47.1-3.8,88.4s-3.1,96.8-3.6,130.2S421.8,486.2,422.5,497.5"/>
<path class="st0" d="M355.6,258.2c-9.2,19.2-15.8,34.5-19.9,46.9c-3.5,10.1-5.7,20.6-6.7,31.3c-0.9,9.2-0.6,18.6,1,27.7
	c2,10.9,5.3,21.5,9.9,31.6c5.2,11.1,11.6,21.6,19.1,31.4c7.9,10.5,17.1,20.9,23.5,28.6s10,12.6,12.6,18.7s4.1,13.5,5.1,20.6
	s1.2,14,1.5,20.9c0.4-2.7,0.9-5.5,1.3-9.1s0.7-8.1,1-13.3s0.4-11,0.5-16.8c0.2,6.6,0.5,13.2,0.7,18.8s0.6,10,0.9,14.5
	c0.5-5.1,1-10.3,1.5-15.2s0.9-9.3,1.3-13.8c0,4.2,0,8.5,0.1,12.2s0.3,6.9,0.5,10.1c0.4-3.1,0.8-6.2,1.2-11.2s0.8-12,1.3-19.1
	c0,4.1,0.1,8.2,0.2,11.9s0.3,7,0.5,11.2s0.3,9.1,0.4,14.1c0.8-5.2,1.7-10.6,2.2-17.4s0.7-15.2,1.3-31.8s1.9-41.3,2.9-66.4
	s1.6-50.8,2.3-76.8s1.4-52.3,2-73s1.4-35.9,2.2-47s1.9-18.5,2.8-25.7c-1.7,2.7-3.5,5.3-6.3,10.3s-6.7,12.2-10.6,19.4
	c5.4-12.7,10.6-25.3,16-38c-5.9,11.1-11.8,22.1-16.8,31.9s-9.3,18.1-14.2,27.3s-10.3,19.5-14.5,26.8c-4.2,7.3-7.1,11.7-10.1,16.2
	c2.3-5.3,4.6-10.6,7.9-17.5s7.6-15.2,13.1-25.7s11.9-23,17.6-35s10.5-23.5,15.4-35c-5.9,11.6-11.9,23.1-17.4,33.8
	s-10.6,20.5-15.7,30.3c5.2-11.4,10.4-22.8,15.6-34.3s10.3-23.2,15.4-34.9c-3.7,6.7-7.4,13.3-11.5,21.5s-8.8,18-13.1,26.7
	s-8.2,16.2-13.1,25.4s-10.5,20-16.2,31.5s-11.5,23.6-15.9,34c-3.9,8.8-7.1,18-9.5,27.3c-2,7.9-3.3,15.9-4,24
	c-0.7,7.4-0.8,14.9-0.3,22.3c0.4,5.8,1.3,11.5,2.7,17.1c1.1,4.8,2.5,9.6,4.2,14.2c1.7,5,3.9,10.3,6,15.7c-3.6-6.8-6.8-13.8-9.7-21
	c-2.5-6.5-4.3-13.3-5.3-20.2c-1.2-7.1-1.7-14.4-1.5-21.6c0.4-8.4,1.6-16.8,3.5-25c2.2-8.9,5-17.6,8.5-26c3.5-8.7,7.6-17.4,14.7-31.7
	c7.1-14.2,17.1-34,25.7-51.2s15.9-31.8,21.8-43.8s10.4-21.6,14.9-31.2c-2.3,2.6-4.2,5.4-5.9,8.4c-2.8,4.9-7,12.9-14.8,28.4
	s-19.5,38.6-28,55.2s-14,26.9-19.6,38.5c-5.6,11.6-11.3,24.4-15,34.4c-3,7.8-5.3,15.9-6.8,24.1c-1.3,6.9-2.1,13.8-2.4,20.8
	c-0.2,6.7,0.3,13.5,1.4,20.1c1.1,6.2,2.6,12.2,4.4,18.2c-1.2-3.7-2.4-7.3-3.6-11.1c-1.6-4.6-2.6-9.4-3.1-14.3
	c-0.7-8-0.6-16.1,0.2-24.1c1-8.9,2.8-17.6,5.6-26c3.3-10.1,7.1-20,11.4-29.7c4.9-11.2,10.7-23.8,18-38.4s16-31,24.7-47.9
	s17.1-34,22.1-44.7s6.5-14.8,7.9-18.8c-10.7,20.2-21.4,40.4-33,62.5c-11,21-22.8,43.7-32.2,63"/>
<path class="st1" d="M419.3,400.5c0,0,0.9,15.7-5.6,20.6c0,0-11.5,11.1-16.1,9.2c0,0-2.9-2.1-3.9-4l14.7-21.4L419.3,400.5z"/>
<path class="st1" d="M415.3,263.5c0,0,1.7-18-10.9-21.2c0,0-5.4,0.1-6.9,3.1l0.9,6l14.9,13.7L415.3,263.5z"/>
<path class="st2" d="M395.3,430c0,0,18.1-5.2,29.9-47.5c0,0,9.6-34.7,1.8-83c0,0-8.3-46.8-22-56c0,0-10.1-6.8-17.4,3.2
	c0,0-8.5,15.5-10.9,20.8c0,0-19.7,33.6-24.1,50.4c0,0-4.3,12.7-4.5,24.1c0,0-4.3,46.7,26.4,79.4C374.6,421.4,384.7,433.4,395.3,430"
	/>
<g class="st3">
	<g>
		<g>
			<g>
				<g>
					<path class="st4" d="M407.2,400.2c0,0,49.5-47.7,1.4-138.1c0,0-9.4-17.5-20.9,0.2c0,0-39.3,38.5-25,94.1c0,0,7.7,35,17,44.9
						C379.7,401.3,389.9,417.1,407.2,400.2"/>
				</g>
			</g>
		</g>
	</g>
</g>
<g class="st7">
	<g>
		<g>
			<g>
				<g>
					<path class="st4" d="M401.3,290.1c0,0,1.7-37.5-13.6-43.4c0,0-23.3,44-29.3,55.9c0,0-10.5,22.3-9.9,36.9c0,0,4.6,12.1,26.7-4.9
						C375.2,334.6,396.9,319.2,401.3,290.1"/>
				</g>
			</g>
		</g>
	</g>
</g>
<g class="st8">
	<g>
		<g>
			<g>
				<g>
					<path class="st2" d="M387.9,247.3c14.4,6.2,13,42.4,13,42.7c-4.4,28.6-25.8,44.1-26,44.2c-7.7,5.9-14.1,9-19,9
						c-5.1,0-6.7-3.3-6.9-3.8c-0.6-14.3,9.8-36.4,9.9-36.6C364.5,291.6,385.7,251.6,387.9,247.3 M387.8,246.7c0,0-23.3,44-29.3,55.9
						c0,0-10.5,22.3-9.9,36.9c0,0,1.6,4.2,7.4,4.2c4.1,0,10.2-2.1,19.3-9c0,0,21.7-15.4,26.2-44.5
						C401.4,290.1,403.1,252.6,387.8,246.7"/>
				</g>
			</g>
		</g>
	</g>
</g>
<g class="st5">
	<g>
		<g>
			<g>
				<g>
					<path class="st4" d="M368.8,287.9c5.2-11.7,12.3-19.9,15.9-18.3s2.3,12.4-2.9,24.1c-5.2,11.7-12.3,19.9-15.9,18.3
						S363.6,299.5,368.8,287.9"/>
				</g>
			</g>
		</g>
	</g>
</g>
<g class="st6">
	<g>
		<g>
			<g>
				<g>
					<path class="st1" d="M369.9,287.7c4.8-10,10.8-17.1,13.5-15.8s1,10.4-3.8,20.5s-10.8,17.1-13.5,15.8S365.1,297.8,369.9,287.7"
						/>
				</g>
			</g>
		</g>
	</g>
</g>
<path class="st2" d="M388.9,248.1c0.5,0,0.9,0.2,1.2,0.4c10.3,7.6,10.8,32.2,10.7,39.6c0,1.1-0.1,2.3-0.3,3.4
	c-4.9,27.6-25.5,42.5-25.7,42.7c-7.7,5.9-14.1,9-19,9c-5.1,0-6.7-3.3-6.9-3.8c-0.6-14.3,9.8-36.4,9.9-36.6
	c5-9.9,22.2-42.6,27.4-52.3C387,249,388,248.2,388.9,248.1 M389,247.7c-1.1,0-2.3,0.9-3.2,2.6c-5.7,10.7-22.4,42.5-27.4,52.3
	c0,0-10.5,22.3-9.9,36.9c0,0,1.6,4.2,7.4,4.2c4,0,10.2-2.1,19.3-9c13.5-10.7,22.7-26,25.9-42.9c0.2-1.1,0.3-2.3,0.3-3.5
	c0.1-7.1-0.4-32.2-10.9-40C390.1,247.9,389.5,247.7,389,247.7"/>
<polygon class="st0" points="1001.5,489.1 1010.8,421.1 1015.4,169 1001.5,192.4 "/>
<path class="st0" d="M983.5,181.9v307.3c-2-7.3-4.1-14.7-5-39.3s-0.8-66.7-0.1-108.9s1.8-84.7,2.8-111.2S982.8,192.6,983.5,181.9"/>
<path class="st0" d="M1011.1,496.8c1.3-15.4,2.6-30.8,3.3-51.1s1-45.7,2-93.5s2.9-117.9,4.7-188.1c-1.2,12.8-2.5,25.6-3.7,46.2
	s-2.4,49.1-3.8,92.3s-3.1,101-3.6,135.9S1010.3,485,1011.1,496.8"/>
<path class="st2" d="M960.5,447.7c0,0,28.1-6.4,46.5-57.6c0,0,14.8-42.1,2.8-100.5c0,0-12.8-56.7-34.1-67.8c0,0-15.7-8.2-27,3.9
	c0,0-13.3,18.8-16.8,25.1c0,0-30.7,40.7-37.4,61.1c0,0-6.7,15.4-7,29.3c0,0-6.6,56.5,41,96.2c0,0,15.7,14.5,32.3,10.4"/>
<polyline class="st9" points="457.5,92.8 133.1,92.8 133.1,130.4 "/>
<polyline class="st9" points="819.4,130.4 819.4,92.8 495,92.8 "/>
<path class="st10" d="M469.2,102.1c0.8-0.1,1.6-0.4,2.2-0.9c0.6-0.5,1-1.1,1.2-1.8c0.3-1,0.4-2,0.4-3.1V67c0-2.2-0.4-3.7-1.2-4.5
	s-2.2-1.3-4.2-1.4h-0.6v-0.4h1.1c0.7,0,1.5-0.1,2.5-0.3c1-0.2,2-0.4,3-0.9c1-0.5,2-1.1,2.8-1.9c0.9-0.9,1.6-2,2-3.2l0.1,0.1v-0.1h1
	v40.8c0,0.2,0,0.3,0,0.5c0,0.2,0,0.4,0,0.6c0,0.9,0.1,1.9,0.3,2.8c0.1,0.6,0.4,1.2,0.9,1.7c0.4,0.5,1,0.8,1.6,1
	c0.8,0.2,1.7,0.4,2.6,0.4h1.9v0.4h-20.8v-0.4C466.9,102.3,468,102.3,469.2,102.1z"/>
<polyline class="st9" points="801.7,541.8 610.2,541.8 610.2,504.4 "/>
<polyline class="st9" points="1042.6,504.4 1042.6,541.8 851.2,541.8 "/>
<path class="st11" d="M819.9,544.4c0.9-0.9,1.8-1.8,2.7-2.7s1.7-1.8,2.5-2.6c2.2-2.3,4.1-5,5.6-7.8c1.3-2.5,2.3-5.1,3-7.8
	c0.6-2.4,0.9-4.8,0.8-7.2c0-2-0.4-4.1-1.1-6c-0.6-1.6-1.5-3-2.7-4.1c-1.1-1-2.5-1.5-3.9-1.5c-0.4,0-0.7,0-1.1,0.1l-1.1,0.1
	c-1.5,0.2-2.9,1-3.9,2.1c-0.8,1-1.4,2.2-1.7,3.5c-0.3,1.2-0.4,2.5-0.3,3.8c0,1,0,1.9,0,2.9c-0.1,1.6-1.4,2.8-2.9,2.8
	c-0.7,0-1.4-0.3-1.9-0.8c-0.5-0.5-0.8-1.3-0.7-2v-0.4c0.2-3.3,1.7-6.4,4.1-8.7c1.3-1.2,2.7-2.1,4.3-2.8c1.6-0.7,3.4-1,5.1-1
	c3.4-0.1,6.8,1.3,9.2,3.7c2.4,2.4,3.7,5.7,3.6,9.1c-0.1,1-0.2,2.1-0.5,3.1c-0.3,1.1-0.6,2.1-1.1,3.1c-0.5,1.1-1,2.1-1.7,3.1
	c-0.7,1-1.4,2.1-2.3,3.3c-1.9,2.5-3.9,4.8-6.1,7c-2.4,2.4-5,5.1-7.8,7.9c-0.7,0.8-1.5,1.6-2.3,2.3h19.1c0.5,0,1.1-0.1,1.6-0.2
	c0.4-0.1,0.7-0.3,1-0.5c0.2-0.1,0.4-0.3,0.5-0.5l0.2-0.4v-0.1h0.5l-1.1,7.3h-27.7l4.1-4.2L819.9,544.4z"/>
<path class="st12" d="M487.6,411h-2.4v5c0,0.3,0,0.5,0.1,0.8c0,0.2,0.1,0.3,0.2,0.5c0.1,0.1,0.2,0.2,0.4,0.2c0.2,0,0.3,0.1,0.5,0.1
	c0.2,0,0.4,0,0.6-0.1c0.2-0.1,0.4-0.1,0.6-0.2l0.1,1.1c-0.5,0.2-1.1,0.3-1.6,0.3c-0.2,0-0.5,0-0.7-0.1c-0.3-0.1-0.5-0.2-0.7-0.3
	c-0.2-0.2-0.4-0.4-0.5-0.7c-0.1-0.4-0.2-0.7-0.2-1.1V411h-1.8V410h1.8v-2.4h1.2v2.4h2.4V411z"/>
<path class="st12" d="M491.3,406.7c0,0.2-0.1,0.5-0.3,0.6c-0.2,0.2-0.4,0.3-0.6,0.2c-0.2,0-0.4-0.1-0.6-0.2c-0.3-0.3-0.4-0.9,0-1.2
	c0,0,0,0,0,0c0.2-0.2,0.4-0.2,0.6-0.2c0.2,0,0.4,0.1,0.6,0.2C491.2,406.2,491.3,406.5,491.3,406.7z M491.1,418.4h-1.2v-8.4h1.2
	V418.4z"/>
<path class="st12" d="M498.7,411.9c-0.2-0.3-0.4-0.6-0.7-0.8c-0.3-0.2-0.7-0.3-1.1-0.3c-0.2,0-0.4,0-0.6,0.1c-0.2,0-0.4,0.1-0.6,0.2
	c-0.2,0.1-0.3,0.2-0.4,0.4c-0.1,0.2-0.2,0.4-0.1,0.6c0,0.3,0.1,0.7,0.4,0.9c0.4,0.2,0.8,0.4,1.2,0.5l1.2,0.3
	c0.6,0.1,1.1,0.4,1.5,0.8c0.4,0.4,0.6,0.9,0.6,1.5c0,0.8-0.3,1.6-1,2c-0.3,0.2-0.7,0.4-1,0.5c-0.4,0.1-0.8,0.1-1.2,0.1
	c-0.6,0-1.2-0.1-1.8-0.4c-0.6-0.3-1.1-0.7-1.4-1.3l1-0.7c0.2,0.4,0.5,0.7,0.9,0.9c0.4,0.2,0.8,0.4,1.3,0.3c0.2,0,0.5,0,0.7-0.1
	c0.2,0,0.4-0.1,0.6-0.2c0.2-0.1,0.3-0.3,0.5-0.4c0.1-0.2,0.2-0.4,0.2-0.6c0-0.4-0.2-0.7-0.5-0.9c-0.4-0.2-0.7-0.4-1.1-0.4l-1.1-0.3
	l-0.6-0.2c-0.3-0.1-0.5-0.2-0.7-0.4c-0.2-0.2-0.5-0.4-0.6-0.7c-0.2-0.3-0.3-0.6-0.2-1c0-0.4,0.1-0.8,0.3-1.1
	c0.2-0.3,0.4-0.6,0.7-0.8c0.3-0.2,0.6-0.4,1-0.5c0.4-0.1,0.8-0.2,1.1-0.1c0.6,0,1.1,0.1,1.6,0.3c0.5,0.2,0.9,0.7,1.2,1.2
	L498.7,411.9z"/>
<path class="st12" d="M506.8,411.9c-0.2-0.3-0.4-0.6-0.7-0.8c-0.3-0.2-0.7-0.3-1.1-0.3c-0.2,0-0.4,0-0.6,0.1c-0.2,0-0.4,0.1-0.6,0.2
	c-0.2,0.1-0.3,0.2-0.4,0.4c-0.1,0.2-0.2,0.4-0.1,0.6c0,0.3,0.1,0.7,0.4,0.9c0.4,0.2,0.8,0.4,1.2,0.5l1.2,0.3
	c0.6,0.1,1.1,0.4,1.5,0.8c0.4,0.4,0.6,0.9,0.6,1.5c0,0.8-0.3,1.6-1,2c-0.3,0.2-0.7,0.4-1,0.5c-0.4,0.1-0.8,0.1-1.2,0.1
	c-0.6,0-1.2-0.1-1.8-0.4c-0.6-0.3-1.1-0.7-1.4-1.3l1-0.7c0.2,0.4,0.5,0.7,0.9,0.9c0.4,0.2,0.8,0.4,1.3,0.3c0.2,0,0.5,0,0.7-0.1
	c0.2,0,0.4-0.1,0.6-0.2c0.2-0.1,0.3-0.3,0.5-0.4c0.1-0.2,0.2-0.4,0.2-0.6c0-0.4-0.2-0.7-0.5-0.9c-0.4-0.2-0.7-0.4-1.1-0.4l-1.1-0.3
	l-0.6-0.2c-0.3-0.1-0.5-0.2-0.7-0.4c-0.2-0.2-0.5-0.4-0.6-0.7c-0.2-0.3-0.3-0.6-0.2-1c0-0.4,0.1-0.8,0.3-1.1
	c0.2-0.3,0.4-0.6,0.7-0.8c0.3-0.2,0.6-0.4,1-0.5c0.4-0.1,0.8-0.2,1.1-0.1c0.6,0,1.1,0.1,1.6,0.3c0.5,0.2,0.9,0.7,1.2,1.2
	L506.8,411.9z"/>
<path class="st12" d="M516.4,418.4c0-0.2,0-0.5,0-0.7V417l0,0c-0.1,0.2-0.3,0.4-0.5,0.6c-0.2,0.2-0.4,0.4-0.7,0.5
	c-0.3,0.1-0.5,0.2-0.8,0.3c-1.1,0.3-2.3,0-3.2-0.7c-0.6-0.7-0.8-1.6-0.8-2.4v-5.4h1.2v4.6c0,0.4,0,0.8,0.1,1.2
	c0.1,0.3,0.2,0.6,0.4,0.9c0.2,0.3,0.4,0.4,0.7,0.6c0.4,0.1,0.7,0.2,1.1,0.2c0.2,0,0.3,0,0.5-0.1c0.3-0.1,0.6-0.2,0.9-0.4
	c0.3-0.3,0.6-0.6,0.8-1c0.3-0.6,0.4-1.2,0.4-1.8v-4.3h1.2v6.7c0,0.2,0,0.5,0,0.9s0,0.7,0.1,1L516.4,418.4z"/>
<path class="st12" d="M521.5,414.5c0,0.4,0.1,0.8,0.3,1.2c0.3,0.7,0.9,1.3,1.6,1.6c0.9,0.4,2,0.3,2.8-0.2c0.4-0.3,0.7-0.6,1-1
	l0.9,0.8c-0.4,0.6-1,1.1-1.7,1.4c-0.6,0.3-1.3,0.4-2,0.4c-0.6,0-1.2-0.1-1.7-0.3c-0.5-0.2-1-0.5-1.4-0.9c-0.4-0.4-0.7-0.9-0.9-1.4
	c-0.4-1.1-0.4-2.4,0-3.5c0.4-1,1.2-1.9,2.2-2.3c0.5-0.2,1.1-0.3,1.7-0.3c0.6,0,1.2,0.1,1.7,0.3c0.5,0.2,0.9,0.5,1.3,0.9
	c0.3,0.4,0.6,0.8,0.8,1.3c0.2,0.5,0.3,1.1,0.3,1.6v0.5L521.5,414.5z M527.2,413.5c0.1-1.4-0.9-2.6-2.3-2.7c-0.1,0-0.3,0-0.4,0
	c-0.4,0-0.8,0.1-1.1,0.2c-0.3,0.1-0.7,0.3-0.9,0.6c-0.3,0.2-0.5,0.5-0.7,0.9c-0.2,0.3-0.2,0.7-0.2,1L527.2,413.5z"/>
<path class="st12" d="M468.5,434.5c0,0.4,0.1,0.8,0.3,1.2c0.3,0.7,0.9,1.3,1.6,1.6c0.4,0.2,0.8,0.2,1.2,0.2c0.6,0,1.2-0.1,1.6-0.4
	c0.4-0.3,0.7-0.6,1-1l0.9,0.8c-0.4,0.6-1,1.1-1.7,1.4c-0.6,0.3-1.3,0.4-2,0.4c-0.6,0-1.2-0.1-1.7-0.3c-0.5-0.2-1-0.5-1.4-0.9
	c-0.4-0.4-0.7-0.9-0.9-1.4c-0.4-1.1-0.4-2.4,0-3.5c0.2-0.5,0.5-1,0.9-1.4c0.4-0.4,0.8-0.7,1.4-0.9c0.5-0.2,1.1-0.3,1.7-0.3
	c0.6,0,1.2,0.1,1.7,0.3c0.5,0.2,0.9,0.5,1.3,0.9c0.3,0.4,0.6,0.8,0.8,1.3c0.2,0.5,0.3,1.1,0.3,1.6v0.5L468.5,434.5z M474.3,433.5
	c0.1-1.4-0.9-2.6-2.3-2.7c-0.1,0-0.3,0-0.4,0c-0.4,0-0.8,0.1-1.1,0.2c-0.3,0.1-0.7,0.3-1,0.6c-0.3,0.3-0.5,0.5-0.6,0.9
	c-0.2,0.3-0.2,0.7-0.2,1L474.3,433.5z"/>
<path class="st12" d="M480.3,433.9l-3.1-3.9h1.6l2.3,3.1l2.2-3.1h1.5l-2.9,3.9l3.5,4.5h-1.6l-2.9-3.7l-2.7,3.7h-1.5L480.3,433.9z"/>
<path class="st12" d="M487.1,429.9h1.2v1.4l0,0c0.2-0.3,0.4-0.5,0.7-0.7c0.3-0.2,0.5-0.4,0.8-0.5c0.3-0.1,0.6-0.2,0.9-0.3
	c0.3-0.1,0.6-0.1,0.9-0.1c0.6,0,1.2,0.1,1.8,0.3c0.5,0.2,1,0.5,1.4,0.9c0.4,0.4,0.7,0.9,0.9,1.4c0.4,1.1,0.4,2.4,0,3.5
	c-0.2,0.5-0.5,1-0.9,1.4c-0.4,0.4-0.9,0.7-1.4,0.9c-0.6,0.2-1.2,0.3-1.8,0.3c-0.3,0-0.6,0-0.9-0.1c-0.3-0.1-0.6-0.2-0.9-0.3
	c-0.3-0.1-0.6-0.3-0.8-0.5c-0.3-0.2-0.5-0.5-0.7-0.7l0,0v6.6h-1.2V429.9z M494.8,434.1c0-0.4-0.1-0.9-0.2-1.3
	c-0.1-0.4-0.4-0.8-0.6-1.1c-0.3-0.3-0.6-0.5-1-0.7c-0.4-0.2-0.9-0.3-1.3-0.3c-0.5,0-0.9,0.1-1.4,0.3c-0.8,0.3-1.4,1-1.8,1.8
	c-0.3,0.8-0.3,1.8,0,2.6c0.3,0.8,1,1.4,1.8,1.8c0.4,0.2,0.9,0.3,1.4,0.3c0.5,0,0.9-0.1,1.3-0.3c0.4-0.2,0.7-0.4,1-0.7
	c0.3-0.3,0.5-0.7,0.6-1.1C494.7,435,494.8,434.6,494.8,434.1z"/>
<path class="st12" d="M503.9,433.2V433c0.2-1-0.6-2-1.6-2.2c-0.2,0-0.4,0-0.5,0c-1,0-1.9,0.3-2.6,1l-0.7-0.9c1-0.9,2.3-1.3,3.6-1.2
	c0.4,0,0.8,0.1,1.2,0.2c0.7,0.2,1.3,0.8,1.6,1.5c0.2,0.4,0.3,0.9,0.2,1.3v3.8c0,0.3,0,0.7,0,1s0.1,0.6,0.1,0.9H504
	c0-0.2-0.1-0.4-0.1-0.7c0-0.2,0-0.5,0-0.7l0,0c-0.3,0.5-0.7,0.9-1.2,1.2c-0.5,0.3-1.1,0.4-1.7,0.4c-0.4,0-0.7,0-1.1-0.1
	c-0.3-0.1-0.7-0.3-0.9-0.5c-0.3-0.2-0.5-0.5-0.6-0.8c-0.4-0.9-0.3-1.9,0.3-2.7c0.4-0.4,0.8-0.7,1.3-0.9c0.6-0.2,1.1-0.3,1.7-0.4
	c0.6,0,1.2-0.1,1.7-0.1L503.9,433.2z M503.3,434.2c-0.3,0-0.7,0-1.1,0c-0.4,0-0.9,0.1-1.3,0.2c-0.4,0.1-0.8,0.3-1.1,0.5
	c-0.3,0.2-0.5,0.6-0.4,1c0,0.2,0.1,0.5,0.2,0.7c0.1,0.2,0.3,0.4,0.5,0.5c0.2,0.1,0.4,0.2,0.6,0.3c0.2,0.1,0.5,0.1,0.7,0.1
	c0.4,0,0.8-0.1,1.1-0.2c0.3-0.1,0.6-0.3,0.8-0.6c0.2-0.2,0.4-0.5,0.5-0.9c0.1-0.3,0.2-0.7,0.1-1.1v-0.6L503.3,434.2z"/>
<path class="st12" d="M509.3,429.9c0,0.2,0,0.5,0,0.7s0,0.4,0,0.7l0,0c0.1-0.2,0.3-0.4,0.5-0.6c0.2-0.2,0.4-0.4,0.7-0.5
	c0.3-0.1,0.5-0.2,0.8-0.3c0.3-0.1,0.6-0.1,0.8-0.1c0.9-0.1,1.8,0.2,2.4,0.9c0.6,0.7,0.8,1.6,0.8,2.4v5.4h-1.2v-4.7
	c0-0.7-0.1-1.5-0.5-2.1c-0.4-0.5-1.1-0.8-1.8-0.7c-0.2,0-0.3,0-0.5,0.1c-0.3,0.1-0.6,0.2-0.9,0.4c-0.3,0.3-0.6,0.6-0.8,1
	c-0.3,0.6-0.4,1.2-0.4,1.8v4.3h-1.2v-6.6c0-0.2,0-0.5,0-0.9s0-0.7-0.1-1L509.3,429.9z"/>
<path class="st12" d="M527,438.4h-1.2v-1.4l0,0c-0.2,0.3-0.4,0.5-0.7,0.7c-0.3,0.2-0.5,0.4-0.8,0.5c-0.3,0.1-0.6,0.2-0.9,0.3
	c-0.3,0.1-0.6,0.1-0.9,0.1c-0.6,0-1.2-0.1-1.8-0.3c-1.1-0.4-1.9-1.3-2.3-2.3c-0.5-1.1-0.5-2.4,0-3.5c0.4-1.1,1.3-1.9,2.3-2.3
	c0.6-0.2,1.2-0.3,1.8-0.3c0.3,0,0.6,0,0.9,0.1c0.3,0.1,0.6,0.2,0.9,0.3c0.3,0.1,0.6,0.3,0.8,0.5c0.3,0.2,0.5,0.5,0.7,0.7l0,0v-6.6
	h1.2V438.4z M519.3,434.1c0,0.4,0.1,0.9,0.2,1.3c0.1,0.4,0.4,0.8,0.6,1.1c0.3,0.3,0.6,0.5,1,0.7c0.4,0.2,0.9,0.3,1.3,0.3
	c0.5,0,0.9-0.1,1.3-0.3c0.4-0.2,0.8-0.4,1.1-0.7c0.3-0.3,0.5-0.7,0.7-1.1c0.3-0.8,0.3-1.8,0-2.6c-0.2-0.4-0.4-0.8-0.7-1.1
	c-0.3-0.3-0.7-0.5-1.1-0.7c-0.4-0.2-0.9-0.3-1.3-0.3c-0.5,0-0.9,0.1-1.3,0.3c-0.4,0.2-0.7,0.4-1,0.7c-0.3,0.3-0.5,0.7-0.6,1.1
	C519.4,433.2,519.3,433.7,519.3,434.1L519.3,434.1z"/>
<path class="st12" d="M530.7,434.5c0,0.4,0.1,0.8,0.3,1.2c0.3,0.7,0.9,1.3,1.6,1.6c0.4,0.2,0.8,0.2,1.2,0.2c0.6,0,1.2-0.1,1.7-0.4
	c0.4-0.3,0.7-0.6,1-1l0.9,0.8c-0.4,0.6-1,1.1-1.7,1.4c-0.6,0.3-1.3,0.4-2,0.4c-0.6,0-1.2-0.1-1.7-0.3c-0.5-0.2-1-0.5-1.4-0.9
	c-0.4-0.4-0.7-0.9-0.9-1.4c-0.4-1.1-0.4-2.4,0-3.5c0.2-0.5,0.5-1,0.9-1.4c0.4-0.4,0.8-0.7,1.3-0.9c0.5-0.2,1.1-0.3,1.7-0.3
	c0.6,0,1.2,0.1,1.7,0.3c0.5,0.2,0.9,0.5,1.3,0.9c0.3,0.4,0.6,0.8,0.8,1.3c0.2,0.5,0.3,1.1,0.3,1.6v0.5L530.7,434.5z M536.5,433.5
	c0.1-1.4-0.9-2.6-2.3-2.7c-0.1,0-0.3,0-0.4,0c-0.4,0-0.8,0.1-1.1,0.2c-0.4,0.1-0.7,0.3-1,0.6c-0.3,0.3-0.5,0.5-0.7,0.9
	c-0.2,0.3-0.2,0.7-0.2,1L536.5,433.5z"/>
<path class="st12" d="M540.4,432.5c0-0.4,0-0.8,0-1.1s0-0.9,0-1.5h1.2v1.6l0,0c0.1-0.2,0.2-0.5,0.4-0.7c0.2-0.2,0.3-0.4,0.6-0.6
	c0.2-0.2,0.5-0.3,0.8-0.4c0.3-0.1,0.7-0.2,1-0.1c0.3,0,0.6,0,0.9,0.1l-0.2,1.2c-0.2-0.1-0.4-0.1-0.7-0.1c-0.4,0-0.8,0.1-1.2,0.3
	c-0.3,0.2-0.6,0.4-0.8,0.7c-0.2,0.3-0.4,0.6-0.5,0.9c-0.1,0.3-0.1,0.6-0.2,0.9v4.8h-1.2V432.5z"/>
<path class="st12" d="M810.1,423.8h1.2v6.6l0,0c0.2-0.3,0.4-0.5,0.7-0.7c0.3-0.2,0.5-0.4,0.8-0.5c0.3-0.1,0.6-0.2,0.9-0.3
	c0.3-0.1,0.6-0.1,0.9-0.1c0.6,0,1.2,0.1,1.8,0.3c0.5,0.2,1,0.5,1.4,0.9c0.4,0.4,0.7,0.9,0.9,1.4c0.4,1.1,0.4,2.4,0,3.5
	c-0.2,0.5-0.5,1-0.9,1.4c-0.4,0.4-0.9,0.7-1.4,0.9c-0.6,0.2-1.2,0.3-1.8,0.3c-0.3,0-0.6,0-0.9-0.1c-0.3-0.1-0.6-0.2-0.9-0.3
	c-0.3-0.1-0.6-0.3-0.8-0.5c-0.3-0.2-0.5-0.5-0.7-0.7l0,0v1.4h-1.2V423.8z M817.8,433.1c0-0.4-0.1-0.9-0.2-1.3
	c-0.1-0.4-0.4-0.8-0.6-1.1c-0.3-0.3-0.6-0.5-1-0.7c-0.4-0.2-0.9-0.3-1.3-0.3c-0.5,0-0.9,0.1-1.3,0.3c-0.4,0.2-0.8,0.4-1.1,0.7
	c-0.3,0.3-0.5,0.7-0.7,1.1c-0.3,0.8-0.3,1.8,0,2.6c0.2,0.4,0.4,0.8,0.7,1.1c0.3,0.3,0.7,0.5,1.1,0.7c0.4,0.2,0.9,0.3,1.3,0.3
	c0.5,0,0.9-0.1,1.3-0.3c0.4-0.2,0.7-0.4,1-0.7c0.3-0.3,0.5-0.7,0.6-1.1C817.8,434,817.8,433.6,817.8,433.1L817.8,433.1z"/>
<path class="st12" d="M821.6,431.5c0-0.4,0-0.8,0-1.1s0-0.9,0-1.5h1.2v1.6l0,0c0.1-0.2,0.2-0.5,0.4-0.7c0.2-0.2,0.4-0.4,0.6-0.6
	c0.2-0.2,0.5-0.3,0.8-0.4c0.3-0.1,0.7-0.2,1-0.1c0.3,0,0.6,0,0.9,0.1l-0.2,1.2c-0.2-0.1-0.5-0.1-0.7-0.1c-0.4,0-0.8,0.1-1.2,0.3
	c-0.3,0.2-0.6,0.4-0.8,0.7c-0.2,0.3-0.4,0.6-0.5,0.9c-0.1,0.3-0.1,0.6-0.2,0.9v4.8h-1.2L821.6,431.5z"/>
<path class="st12" d="M828.3,433.5c0,0.4,0.1,0.8,0.3,1.2c0.2,0.4,0.4,0.7,0.7,1c0.3,0.3,0.6,0.5,1,0.6c0.4,0.2,0.8,0.2,1.2,0.2
	c0.6,0,1.2-0.1,1.7-0.4c0.4-0.3,0.7-0.6,1-1l0.9,0.8c-0.4,0.6-1,1.1-1.7,1.4c-0.6,0.3-1.3,0.4-2,0.4c-0.6,0-1.2-0.1-1.7-0.3
	c-0.5-0.2-1-0.5-1.4-0.9c-0.4-0.4-0.7-0.9-0.9-1.4c-0.2-0.6-0.3-1.2-0.3-1.8c0-0.6,0.1-1.2,0.3-1.8c0.2-0.5,0.5-1,0.9-1.4
	c0.4-0.4,0.8-0.7,1.3-0.9c0.5-0.2,1.1-0.3,1.7-0.3c0.6,0,1.2,0.1,1.7,0.3c1,0.4,1.7,1.2,2,2.2c0.2,0.5,0.3,1.1,0.3,1.6v0.5
	L828.3,433.5z M834.1,432.5c0.1-1.4-0.9-2.6-2.3-2.7c-0.1,0-0.3,0-0.4,0c-0.4,0-0.8,0.1-1.1,0.2c-0.4,0.1-0.7,0.3-1,0.6
	c-0.3,0.3-0.5,0.5-0.6,0.9c-0.2,0.3-0.2,0.7-0.2,1L834.1,432.5z"/>
<path class="st12" d="M843.3,432.2V432c0.2-1-0.6-2-1.6-2.2c-0.2,0-0.4,0-0.5,0c-1,0-1.9,0.3-2.6,1l-0.7-0.9c1-0.9,2.3-1.3,3.6-1.2
	c0.4,0,0.8,0.1,1.2,0.2c0.7,0.2,1.3,0.8,1.6,1.5c0.2,0.4,0.3,0.9,0.3,1.3v3.8c0,0.3,0,0.7,0,1s0.1,0.6,0.1,0.9h-1.2
	c0-0.2-0.1-0.4-0.1-0.7c0-0.2,0-0.5,0-0.7l0,0c-0.3,0.5-0.7,0.9-1.2,1.2c-0.5,0.3-1.1,0.4-1.7,0.4c-0.4,0-0.7,0-1.1-0.1
	c-0.3-0.1-0.6-0.3-0.9-0.5c-0.3-0.2-0.5-0.5-0.7-0.8c-0.4-0.9-0.3-1.9,0.3-2.7c0.4-0.4,0.8-0.7,1.3-0.9c0.6-0.2,1.1-0.3,1.7-0.4
	c0.6,0,1.2-0.1,1.7-0.1L843.3,432.2z M842.7,433.2c-0.3,0-0.7,0-1.1,0c-0.4,0-0.9,0.1-1.3,0.2c-0.4,0.1-0.8,0.3-1.1,0.5
	c-0.3,0.2-0.5,0.6-0.4,1c0,0.2,0.1,0.5,0.2,0.7c0.1,0.2,0.3,0.4,0.5,0.5c0.2,0.1,0.4,0.2,0.6,0.3c0.2,0.1,0.5,0.1,0.7,0.1
	c0.4,0,0.8-0.1,1.1-0.2c0.3-0.1,0.6-0.3,0.8-0.6c0.2-0.2,0.4-0.5,0.5-0.9c0.1-0.3,0.2-0.7,0.2-1.1v-0.6L842.7,433.2z"/>
<path class="st12" d="M852,430.9c-0.2-0.3-0.4-0.6-0.7-0.8c-0.3-0.2-0.7-0.3-1.1-0.3c-0.2,0-0.4,0-0.6,0.1c-0.2,0-0.4,0.1-0.6,0.2
	c-0.2,0.1-0.3,0.2-0.4,0.4c-0.1,0.2-0.2,0.4-0.2,0.6c0,0.3,0.1,0.7,0.4,0.9c0.4,0.2,0.8,0.4,1.2,0.5l1.2,0.3
	c0.6,0.1,1.1,0.4,1.5,0.8c0.4,0.4,0.6,0.9,0.6,1.5c0,0.4-0.1,0.8-0.3,1.2c-0.2,0.3-0.4,0.6-0.7,0.8c-0.3,0.2-0.7,0.4-1.1,0.5
	c-0.4,0.1-0.8,0.1-1.2,0.1c-0.6,0-1.2-0.1-1.8-0.4c-0.6-0.3-1.1-0.7-1.4-1.3l1-0.7c0.2,0.4,0.5,0.7,0.9,0.9c0.4,0.2,0.8,0.4,1.3,0.3
	c0.2,0,0.5,0,0.7-0.1c0.2,0,0.4-0.1,0.6-0.2c0.2-0.1,0.3-0.3,0.5-0.4c0.1-0.2,0.2-0.4,0.2-0.6c0-0.4-0.2-0.7-0.5-0.9
	c-0.4-0.2-0.7-0.4-1.1-0.4l-1.2-0.3l-0.6-0.2c-0.3-0.1-0.5-0.2-0.7-0.4c-0.2-0.2-0.4-0.4-0.6-0.7c-0.2-0.3-0.3-0.6-0.3-1
	c0-0.4,0.1-0.8,0.3-1.1c0.2-0.3,0.4-0.6,0.7-0.8c0.3-0.2,0.6-0.4,1-0.5c0.4-0.1,0.8-0.2,1.2-0.1c0.6,0,1.1,0.1,1.6,0.3
	c0.5,0.2,0.9,0.7,1.2,1.2L852,430.9z"/>
<path class="st12" d="M860,430h-2.4v5c0,0.3,0,0.5,0.1,0.8c0,0.2,0.1,0.3,0.3,0.5c0.1,0.1,0.2,0.2,0.4,0.2c0.2,0,0.3,0.1,0.5,0.1
	c0.2,0,0.4,0,0.6-0.1c0.2-0.1,0.4-0.1,0.6-0.2l0.1,1.1c-0.5,0.2-1.1,0.3-1.6,0.3c-0.2,0-0.5,0-0.7-0.1c-0.2-0.1-0.5-0.2-0.7-0.3
	c-0.2-0.2-0.4-0.4-0.5-0.7c-0.1-0.4-0.2-0.8-0.2-1.1V430h-1.8V429h1.8v-2.4h1.2v2.4h2.4V430z"/>
<path class="st12" d="M806.4,445.7c0,0.2-0.1,0.5-0.3,0.6c-0.3,0.3-0.8,0.3-1.2,0c0,0,0,0,0,0c-0.3-0.3-0.4-0.9,0-1.2c0,0,0,0,0,0
	c0.3-0.3,0.9-0.3,1.2,0C806.3,445.2,806.4,445.5,806.4,445.7z M806.1,457.4h-1.2v-8.4h1.2L806.1,457.4z"/>
<path class="st12" d="M809.3,450.8c0-0.3,0-0.6,0-0.9s0-0.6-0.1-0.9h1.3v1.3l0,0c0.3-0.5,0.7-0.9,1.2-1.1c0.5-0.2,1-0.4,1.5-0.4
	c0.2,0,0.5,0,0.7,0.1c0.6,0.1,1.1,0.4,1.4,0.8c0.2,0.3,0.4,0.6,0.5,0.9c0.2-0.5,0.6-1,1.1-1.3c0.5-0.3,1.1-0.5,1.6-0.5
	c0.9-0.1,1.8,0.2,2.4,0.9c0.6,0.7,0.8,1.6,0.8,2.4v5.4h-1.2v-4.9c0-0.7-0.1-1.4-0.5-2c-0.4-0.5-1-0.8-1.7-0.7
	c-0.4,0-0.8,0.1-1.1,0.3c-0.3,0.2-0.5,0.4-0.7,0.7c-0.2,0.3-0.3,0.6-0.4,1c-0.1,0.4-0.1,0.8-0.1,1.1v4.5H815v-4.9
	c0-0.7-0.1-1.4-0.5-2c-0.4-0.5-1-0.8-1.7-0.7c-0.2,0-0.3,0-0.5,0.1c-0.3,0.1-0.6,0.2-0.8,0.4c-0.3,0.3-0.6,0.6-0.8,1
	c-0.2,0.6-0.4,1.2-0.3,1.8v4.3h-1.2V450.8z"/>
<path class="st12" d="M825,448.9h1.2v1.4l0,0c0.2-0.3,0.4-0.5,0.7-0.7c0.3-0.2,0.5-0.4,0.8-0.5c0.3-0.1,0.6-0.2,0.9-0.3
	c0.3-0.1,0.6-0.1,0.9-0.1c0.6,0,1.2,0.1,1.8,0.3c0.5,0.2,1,0.5,1.4,0.9c0.4,0.4,0.7,0.9,0.9,1.4c0.4,1.1,0.4,2.4,0,3.5
	c-0.2,0.5-0.5,1-0.9,1.4c-0.4,0.4-0.9,0.7-1.4,0.9c-0.6,0.2-1.2,0.3-1.8,0.3c-0.3,0-0.6,0-0.9-0.1c-0.3-0.1-0.6-0.2-0.9-0.3
	c-0.3-0.1-0.6-0.3-0.8-0.5c-0.3-0.2-0.5-0.5-0.7-0.7l0,0v6.6H825V448.9z M832.7,453.1c0-0.4-0.1-0.9-0.2-1.3
	c-0.1-0.4-0.4-0.8-0.6-1.1c-0.3-0.3-0.6-0.5-1-0.7c-0.4-0.2-0.9-0.3-1.3-0.3c-0.5,0-0.9,0.1-1.3,0.3c-0.8,0.3-1.4,1-1.8,1.8
	c-0.3,0.8-0.3,1.8,0,2.6c0.3,0.8,1,1.4,1.8,1.8c0.4,0.2,0.9,0.3,1.3,0.3c0.5,0,0.9-0.1,1.3-0.3c0.4-0.2,0.7-0.4,1-0.7
	c0.3-0.3,0.5-0.7,0.6-1.1C832.6,454,832.7,453.6,832.7,453.1L832.7,453.1z"/>
<path class="st12" d="M837.8,457.4h-1.2v-13.6h1.2V457.4z"/>
<path class="st12" d="M846.5,452.2V452c0.2-1-0.6-2-1.6-2.2c-0.2,0-0.4,0-0.5,0c-1,0-1.9,0.3-2.6,1l-0.7-0.9c1-0.9,2.3-1.3,3.6-1.2
	c0.4,0,0.8,0.1,1.2,0.2c0.4,0.1,0.7,0.3,1,0.5c0.3,0.3,0.5,0.6,0.7,0.9c0.2,0.4,0.3,0.9,0.2,1.3v3.8c0,0.3,0,0.7,0,1
	s0.1,0.6,0.1,0.9h-1.2c0-0.2-0.1-0.4-0.1-0.7c0-0.2,0-0.5,0-0.7l0,0c-0.3,0.5-0.7,0.9-1.2,1.2c-0.5,0.3-1.1,0.4-1.7,0.4
	c-0.4,0-0.7,0-1.1-0.1c-0.3-0.1-0.7-0.3-0.9-0.5c-0.3-0.2-0.5-0.5-0.6-0.8c-0.2-0.3-0.3-0.7-0.2-1.1c0-0.6,0.2-1.2,0.5-1.6
	c0.4-0.4,0.8-0.7,1.3-0.9c0.6-0.2,1.1-0.3,1.7-0.4c0.6,0,1.2-0.1,1.7-0.1L846.5,452.2z M845.8,453.2c-0.3,0-0.7,0-1.1,0
	c-0.4,0-0.9,0.1-1.3,0.2c-0.4,0.1-0.7,0.3-1.1,0.5c-0.3,0.2-0.5,0.6-0.4,1c0,0.2,0.1,0.5,0.2,0.7c0.1,0.2,0.3,0.4,0.5,0.5
	c0.2,0.1,0.4,0.2,0.6,0.3c0.2,0.1,0.5,0.1,0.7,0.1c0.4,0,0.8-0.1,1.1-0.2c0.3-0.1,0.6-0.3,0.8-0.6c0.2-0.2,0.4-0.5,0.5-0.9
	c0.1-0.3,0.2-0.7,0.2-1.1v-0.6L845.8,453.2z"/>
<path class="st12" d="M851.9,448.9c0,0.2,0,0.5,0,0.7s0,0.4,0,0.7l0,0c0.1-0.2,0.3-0.4,0.5-0.6c0.2-0.2,0.4-0.4,0.7-0.5
	c0.3-0.1,0.5-0.3,0.8-0.3c0.3-0.1,0.6-0.1,0.8-0.1c0.9-0.1,1.8,0.2,2.4,0.9c0.6,0.7,0.8,1.6,0.8,2.4v5.4h-1.2v-4.7
	c0-0.7-0.1-1.5-0.5-2.1c-0.4-0.5-1.1-0.8-1.8-0.7c-0.2,0-0.3,0-0.5,0.1c-0.3,0.1-0.6,0.2-0.9,0.4c-0.3,0.3-0.6,0.6-0.8,1
	c-0.3,0.6-0.4,1.2-0.4,1.8v4.3h-1.2v-6.6c0-0.2,0-0.5,0-0.9s0-0.7-0.1-1L851.9,448.9z"/>
<path class="st12" d="M865.5,450H863v5c0,0.3,0,0.5,0.1,0.8c0,0.2,0.1,0.3,0.2,0.5c0.1,0.1,0.2,0.2,0.4,0.2c0.2,0,0.3,0.1,0.5,0.1
	c0.2,0,0.4,0,0.6-0.1c0.2-0.1,0.4-0.1,0.6-0.2v1.1c-0.5,0.2-1.1,0.3-1.6,0.3c-0.2,0-0.5,0-0.7-0.1c-0.2-0.1-0.5-0.2-0.7-0.3
	c-0.2-0.2-0.4-0.4-0.5-0.7c-0.1-0.4-0.2-0.8-0.2-1.1V450H860V449h1.8v-2.4h1.2v2.4h2.4L865.5,450z"/>
<line class="st13" x1="878.7" y1="438.4" x2="954.7" y2="438.4"/>
<line class="st13" x1="461.6" y1="418.7" x2="385.6" y2="418.7"/>
<line class="st13" x1="549.8" y1="418.7" x2="625.8" y2="418.7"/>
<path class="st12" d="M2.9,236.9h1.2v6.6l0,0c0.2-0.3,0.4-0.5,0.7-0.7c0.3-0.2,0.5-0.4,0.8-0.5c0.3-0.1,0.6-0.2,0.9-0.3
	c0.3-0.1,0.6-0.1,0.9-0.1c0.6,0,1.2,0.1,1.8,0.3c0.5,0.2,1,0.5,1.4,0.9c0.4,0.4,0.7,0.9,0.9,1.4c0.5,1.1,0.5,2.4,0,3.5
	c-0.2,0.5-0.5,1-0.9,1.4c-0.4,0.4-0.9,0.7-1.4,0.9c-0.9,0.3-1.8,0.4-2.7,0.2c-0.3-0.1-0.6-0.2-0.9-0.3c-0.3-0.1-0.6-0.3-0.8-0.5
	c-0.3-0.2-0.5-0.5-0.7-0.7l0,0v1.4H2.9V236.9z M10.6,246.3c0-0.4-0.1-0.9-0.2-1.3c-0.1-0.4-0.4-0.7-0.6-1.1c-0.3-0.3-0.6-0.5-1-0.7
	c-0.4-0.2-0.9-0.3-1.3-0.3c-0.5,0-0.9,0.1-1.3,0.3c-0.4,0.2-0.8,0.4-1.1,0.7c-0.3,0.3-0.5,0.7-0.7,1.1c-0.2,0.4-0.3,0.9-0.2,1.3
	c0,0.4,0.1,0.9,0.2,1.3c0.2,0.4,0.4,0.8,0.7,1.1c0.3,0.3,0.7,0.5,1.1,0.7c0.4,0.2,0.9,0.3,1.3,0.3c0.5,0,0.9-0.1,1.3-0.3
	c0.8-0.3,1.4-1,1.6-1.8C10.5,247.2,10.6,246.8,10.6,246.3L10.6,246.3z"/>
<path class="st12" d="M14.4,244.7c0-0.4,0-0.8,0-1.1s0-0.9,0-1.5h1.2v1.6l0,0c0.1-0.2,0.2-0.4,0.4-0.6c0.2-0.2,0.4-0.4,0.6-0.6
	c0.2-0.2,0.5-0.3,0.8-0.4c0.3-0.1,0.7-0.2,1-0.1c0.3,0,0.6,0,0.9,0.1l-0.2,1.2c-0.2-0.1-0.4-0.1-0.7-0.1c-0.4,0-0.8,0.1-1.2,0.3
	c-0.3,0.2-0.6,0.4-0.8,0.7c-0.2,0.3-0.4,0.6-0.5,0.9c-0.1,0.3-0.1,0.6-0.1,0.9v4.8h-1.2V244.7z"/>
<path class="st12" d="M21.1,246.6c0,0.4,0.1,0.8,0.3,1.2c0.2,0.4,0.4,0.7,0.7,1c0.3,0.3,0.6,0.5,1,0.6c0.4,0.2,0.8,0.2,1.2,0.2
	c0.6,0,1.2-0.1,1.6-0.4c0.4-0.3,0.8-0.6,1-1l0.9,0.8c-0.4,0.6-1,1.1-1.7,1.4c-0.6,0.3-1.3,0.4-2,0.4c-0.6,0-1.2-0.1-1.7-0.3
	c-0.5-0.2-1-0.5-1.4-0.9c-0.8-0.9-1.2-2-1.2-3.2c0-0.6,0.1-1.2,0.3-1.8c0.6-1.6,2.2-2.7,3.9-2.7c0.6,0,1.2,0.1,1.7,0.3
	c0.5,0.2,0.9,0.5,1.3,0.9c0.3,0.4,0.6,0.8,0.8,1.3c0.2,0.5,0.3,1.1,0.3,1.6v0.5L21.1,246.6z M26.9,245.6c0.1-1.4-1-2.6-2.3-2.7
	c-0.1,0-0.3,0-0.4,0c-0.4,0-0.8,0.1-1.1,0.2c-0.3,0.1-0.7,0.3-0.9,0.6c-0.3,0.2-0.5,0.5-0.6,0.9c-0.2,0.3-0.2,0.7-0.2,1L26.9,245.6z
	"/>
<path class="st12" d="M36.1,245.4v-0.2c0.2-1-0.6-2-1.6-2.2c-0.2,0-0.4,0-0.5,0c-1,0-1.9,0.3-2.6,1l-0.7-0.9c1-0.9,2.3-1.3,3.6-1.2
	c0.4,0,0.8,0.1,1.2,0.2c0.4,0.1,0.7,0.3,1,0.6c0.3,0.3,0.5,0.6,0.6,0.9c0.2,0.4,0.3,0.9,0.2,1.3v3.8c0,0.3,0,0.7,0,1
	s0.1,0.6,0.1,0.9h-1.1c0-0.2-0.1-0.4-0.1-0.7s0-0.5,0-0.7l0,0c-0.3,0.5-0.7,0.9-1.2,1.2c-0.5,0.3-1.1,0.4-1.7,0.4
	c-0.4,0-0.7-0.1-1.1-0.2c-0.3-0.1-0.7-0.2-0.9-0.5c-0.3-0.2-0.5-0.5-0.6-0.8c-0.2-0.3-0.2-0.7-0.2-1.1c0-0.6,0.2-1.2,0.5-1.6
	c0.4-0.4,0.8-0.7,1.3-0.9c0.6-0.2,1.1-0.3,1.7-0.4c0.6,0,1.2-0.1,1.7-0.1L36.1,245.4z M35.5,246.4c-0.3,0-0.7,0-1.1,0
	c-0.4,0-0.9,0.1-1.3,0.2c-0.4,0.1-0.7,0.3-1.1,0.5c-0.3,0.2-0.5,0.6-0.4,1c0,0.5,0.2,0.9,0.6,1.2c0.2,0.1,0.4,0.2,0.6,0.3
	c0.2,0.1,0.5,0.1,0.7,0.1c0.4,0,0.8-0.1,1.1-0.2c0.3-0.1,0.6-0.3,0.8-0.6c0.2-0.3,0.4-0.5,0.5-0.9c0.1-0.3,0.1-0.7,0.2-1v-0.6
	L35.5,246.4z"/>
<path class="st12" d="M44.8,244.1c-0.2-0.3-0.4-0.6-0.7-0.8c-0.3-0.2-0.7-0.3-1.1-0.3c-0.2,0-0.4,0-0.6,0.1c-0.2,0-0.4,0.1-0.6,0.2
	c-0.2,0.1-0.3,0.2-0.4,0.4c-0.1,0.2-0.2,0.4-0.2,0.6c0,0.3,0.1,0.7,0.4,0.9c0.4,0.2,0.8,0.4,1.2,0.5l1.2,0.3
	c0.6,0.1,1.1,0.4,1.5,0.8c0.4,0.4,0.6,0.9,0.6,1.5c0,0.4-0.1,0.8-0.3,1.2c-0.2,0.3-0.4,0.6-0.7,0.8c-0.3,0.2-0.6,0.4-1,0.5
	c-0.4,0.1-0.8,0.1-1.2,0.1c-0.6,0-1.2-0.1-1.8-0.4c-0.6-0.3-1.1-0.7-1.4-1.3l1-0.7c0.2,0.4,0.5,0.7,0.9,0.9c0.4,0.2,0.8,0.4,1.3,0.4
	c0.2,0,0.5,0,0.7-0.1c0.2,0,0.4-0.1,0.6-0.3c0.2-0.1,0.3-0.3,0.5-0.4c0.1-0.2,0.2-0.4,0.2-0.6c0-0.4-0.2-0.7-0.5-0.9
	c-0.4-0.2-0.7-0.3-1.1-0.4l-1.2-0.3c-0.2,0-0.4-0.1-0.6-0.2c-0.3-0.1-0.5-0.2-0.7-0.4c-0.2-0.2-0.4-0.4-0.6-0.6
	c-0.2-0.3-0.3-0.6-0.2-1c0-0.4,0.1-0.8,0.3-1.1c0.2-0.3,0.4-0.6,0.7-0.8c0.3-0.2,0.6-0.4,1-0.5c0.4-0.1,0.8-0.2,1.2-0.1
	c0.6,0,1.1,0.1,1.6,0.3c0.5,0.2,0.9,0.7,1.2,1.2L44.8,244.1z"/>
<path class="st12" d="M52.8,243.2h-2.4v5c0,0.3,0,0.5,0.1,0.8c0,0.2,0.1,0.3,0.2,0.5c0.1,0.1,0.2,0.2,0.4,0.2c0.2,0,0.3,0.1,0.5,0.1
	c0.2,0,0.4,0,0.6-0.1c0.2-0.1,0.4-0.1,0.6-0.2v1.1c-0.5,0.2-1.1,0.3-1.6,0.3c-0.2,0-0.5,0-0.7-0.1c-0.2-0.1-0.5-0.2-0.7-0.3
	c-0.2-0.2-0.4-0.4-0.5-0.7c-0.1-0.4-0.2-0.7-0.2-1.1v-5.3h-1.7v-1.1h1.8v-2.4h1.2v2.4h2.4L52.8,243.2z"/>
<path class="st12" d="M65.5,245.4v-0.2c0.2-1-0.6-2-1.6-2.2c-0.2,0-0.4,0-0.5,0c-1,0-1.9,0.3-2.6,1l-0.7-0.9c1-0.9,2.3-1.3,3.6-1.2
	c0.4,0,0.8,0.1,1.2,0.2c0.4,0.1,0.7,0.3,1,0.6c0.3,0.3,0.5,0.6,0.7,0.9c0.2,0.4,0.3,0.9,0.2,1.3v3.8c0,0.3,0,0.7,0,1
	c0,0.4,0.1,0.6,0.1,0.9h-1.1c0-0.2-0.1-0.4-0.1-0.7s0-0.5,0-0.7l0,0c-0.3,0.5-0.7,0.9-1.2,1.2c-0.5,0.3-1.1,0.4-1.7,0.4
	c-0.4,0-0.7-0.1-1.1-0.2c-0.3-0.1-0.7-0.2-0.9-0.5c-0.3-0.2-0.5-0.5-0.7-0.8c-0.2-0.3-0.2-0.7-0.2-1.1c0-0.6,0.2-1.2,0.5-1.6
	c0.4-0.4,0.8-0.7,1.3-0.9c0.6-0.2,1.1-0.3,1.7-0.4c0.6,0,1.2-0.1,1.7-0.1L65.5,245.4z M64.9,246.4c-0.3,0-0.7,0-1.1,0
	c-0.4,0-0.9,0.1-1.3,0.2c-0.4,0.1-0.8,0.3-1.1,0.5c-0.3,0.2-0.5,0.6-0.4,1c0,0.5,0.2,0.9,0.6,1.2c0.2,0.1,0.4,0.2,0.6,0.3
	c0.2,0.1,0.5,0.1,0.7,0.1c0.4,0,0.8-0.1,1.1-0.2c0.3-0.1,0.6-0.3,0.8-0.6c0.2-0.3,0.4-0.5,0.5-0.9c0.1-0.3,0.1-0.7,0.2-1v-0.6
	L64.9,246.4z"/>
<path class="st12" d="M73.7,243.2h-2v7.4h-1.2v-7.3h-1.8v-1.1h1.8v-2.3c-0.1-0.9,0.2-1.7,0.8-2.4c0.6-0.5,1.3-0.7,2-0.7
	c0.2,0,0.3,0,0.5,0l0.5,0.1l-0.2,1.1l-0.4-0.1c-0.2,0-0.3,0-0.5,0c-0.3,0-0.5,0-0.8,0.2c-0.2,0.1-0.4,0.3-0.5,0.5
	c-0.1,0.2-0.2,0.4-0.2,0.7c0,0.3,0,0.6,0,0.9v2.2h2V243.2z"/>
<path class="st12" d="M79.8,243.2h-2.4v5c0,0.3,0,0.5,0.1,0.8c0,0.2,0.1,0.3,0.2,0.5c0.1,0.1,0.2,0.2,0.4,0.2c0.2,0,0.3,0.1,0.5,0.1
	c0.2,0,0.4,0,0.6-0.1c0.2-0.1,0.4-0.1,0.6-0.2v1.1c-0.5,0.2-1.1,0.3-1.6,0.3c-0.2,0-0.5,0-0.7-0.1c-0.2-0.1-0.5-0.2-0.7-0.3
	c-0.2-0.2-0.4-0.4-0.5-0.7c-0.1-0.4-0.2-0.7-0.2-1.1v-5.3h-1.7v-1.1h1.8v-2.4h1.2v2.4h2.4L79.8,243.2z"/>
<path class="st12" d="M82.7,246.6c0,0.4,0.1,0.8,0.3,1.2c0.2,0.4,0.4,0.7,0.7,1c0.3,0.3,0.6,0.5,0.9,0.6c0.4,0.2,0.8,0.2,1.2,0.2
	c0.6,0,1.2-0.1,1.7-0.4c0.4-0.3,0.7-0.6,1-1l0.9,0.8c-0.4,0.6-1,1.1-1.7,1.4c-0.6,0.3-1.3,0.4-2,0.4c-0.6,0-1.2-0.1-1.7-0.3
	c-0.5-0.2-1-0.5-1.4-0.9c-0.4-0.4-0.7-0.9-0.9-1.4c-0.4-1.1-0.4-2.4,0-3.5c0.2-0.5,0.5-1,0.9-1.4c0.4-0.4,0.8-0.7,1.3-0.9
	c1.1-0.4,2.3-0.4,3.4,0c0.5,0.2,0.9,0.5,1.3,0.9c0.3,0.4,0.6,0.8,0.8,1.3c0.2,0.5,0.3,1.1,0.3,1.6v0.5L82.7,246.6z M88.4,245.6
	c0-0.7-0.2-1.5-0.7-2c-0.5-0.5-1.3-0.8-2-0.8c-0.4,0-0.8,0.1-1.1,0.2c-0.7,0.3-1.3,0.8-1.6,1.5c-0.2,0.3-0.2,0.7-0.2,1L88.4,245.6z"
	/>
<path class="st12" d="M92.3,244.7c0-0.4,0-0.8,0-1.1s0-0.9,0-1.5h1.2v1.6l0,0c0.1-0.2,0.2-0.5,0.4-0.6c0.2-0.2,0.3-0.4,0.6-0.6
	c0.2-0.2,0.5-0.3,0.8-0.4c0.3-0.1,0.7-0.2,1-0.1c0.3,0,0.6,0,0.9,0.1l-0.2,1.2c-0.2-0.1-0.4-0.1-0.7-0.1c-0.4,0-0.8,0.1-1.2,0.3
	c-0.6,0.3-1.1,0.9-1.3,1.5c-0.1,0.3-0.1,0.6-0.2,0.9v4.8h-1.2V244.7z"/>
<path class="st12" d="M0.1,264c0-0.3,0-0.6,0-0.9L0,262.1h1.3v1.3l0,0c0.3-0.5,0.7-0.9,1.2-1.1c0.5-0.2,1-0.4,1.5-0.4
	c0.2,0,0.5,0,0.7,0.1c0.3,0.1,0.5,0.1,0.8,0.3c0.2,0.1,0.5,0.3,0.7,0.5c0.2,0.3,0.4,0.6,0.5,0.9c0.2-0.5,0.6-1,1.2-1.3
	c0.5-0.3,1.1-0.5,1.6-0.5c0.9-0.1,1.8,0.2,2.4,0.9c0.6,0.7,0.8,1.6,0.8,2.4v5.4h-1.2v-4.9c0-0.7-0.1-1.4-0.4-2
	c-0.4-0.5-1-0.8-1.7-0.7c-0.4,0-0.8,0.1-1.1,0.3c-0.3,0.2-0.5,0.4-0.7,0.7c-0.2,0.3-0.3,0.6-0.4,1C7,265.3,7,265.7,7,266v4.5H5.8
	v-4.9c0-0.7-0.1-1.4-0.4-2c-0.4-0.5-1-0.8-1.7-0.7c-0.2,0-0.3,0-0.5,0.1c-0.3,0.1-0.6,0.2-0.8,0.4c-0.3,0.3-0.6,0.6-0.8,1
	c-0.2,0.6-0.4,1.2-0.3,1.8v4.3H0.1V264z"/>
<path class="st12" d="M21.2,265.4v-0.2c0.2-1-0.6-2-1.6-2.2c-0.2,0-0.4,0-0.6,0c-1,0-1.9,0.3-2.6,1l-0.7-0.9c1-0.9,2.3-1.3,3.6-1.2
	c0.4,0,0.8,0.1,1.2,0.2c0.4,0.1,0.7,0.3,1,0.5c0.3,0.3,0.5,0.6,0.7,0.9c0.2,0.4,0.3,0.9,0.2,1.3v3.8c0,0.3,0,0.7,0,1
	s0.1,0.6,0.1,0.9h-1.1c0-0.2-0.1-0.4-0.1-0.7c0-0.2,0-0.5,0-0.7l0,0c-0.3,0.5-0.7,0.9-1.3,1.2c-0.5,0.3-1.1,0.4-1.7,0.4
	c-0.4,0-0.7-0.1-1.1-0.2c-0.3-0.1-0.7-0.2-0.9-0.5c-0.3-0.2-0.5-0.5-0.6-0.8c-0.2-0.3-0.3-0.7-0.2-1.1c0-0.6,0.2-1.2,0.5-1.6
	c0.4-0.4,0.8-0.7,1.3-0.9c0.6-0.2,1.1-0.3,1.7-0.4c0.6,0,1.2-0.1,1.7-0.1H21.2z M20.6,266.4c-0.3,0-0.7,0-1.1,0
	c-0.4,0-0.9,0.1-1.3,0.2c-0.4,0.1-0.7,0.3-1.1,0.5c-0.3,0.2-0.5,0.6-0.4,1c0,0.5,0.2,0.9,0.6,1.2c0.2,0.1,0.4,0.2,0.6,0.3
	c0.2,0.1,0.5,0.1,0.7,0.1c0.4,0,0.8-0.1,1.1-0.2c0.3-0.1,0.6-0.3,0.8-0.6c0.2-0.3,0.4-0.6,0.5-0.9c0.1-0.3,0.2-0.7,0.2-1v-0.6
	L20.6,266.4z"/>
<path class="st12" d="M30,264.1c-0.2-0.3-0.4-0.6-0.7-0.8c-0.3-0.2-0.7-0.3-1.1-0.3c-0.2,0-0.4,0-0.6,0.1c-0.2,0-0.4,0.1-0.6,0.2
	c-0.2,0.1-0.3,0.2-0.4,0.4c-0.1,0.2-0.2,0.4-0.1,0.6c0,0.3,0.1,0.7,0.4,0.9c0.4,0.2,0.7,0.4,1.1,0.4l1.2,0.3
	c0.6,0.1,1.1,0.4,1.5,0.8c0.4,0.4,0.6,0.9,0.6,1.5c0,0.8-0.3,1.6-1,2c-0.3,0.2-0.7,0.4-1,0.5c-0.4,0.1-0.8,0.2-1.2,0.1
	c-0.6,0-1.2-0.1-1.8-0.4c-0.6-0.3-1.1-0.7-1.4-1.3l1-0.7c0.2,0.4,0.5,0.7,0.9,0.9c0.4,0.2,0.8,0.4,1.3,0.4c0.2,0,0.5,0,0.7-0.1
	c0.2,0,0.4-0.1,0.6-0.3c0.2-0.1,0.3-0.3,0.5-0.4c0.1-0.2,0.2-0.4,0.2-0.6c0-0.4-0.2-0.7-0.5-0.9c-0.4-0.2-0.7-0.3-1.1-0.4l-1.1-0.3
	c-0.2,0-0.4-0.1-0.6-0.2c-0.3-0.1-0.5-0.2-0.7-0.4c-0.2-0.2-0.5-0.4-0.6-0.6c-0.2-0.3-0.3-0.7-0.2-1c0-0.4,0.1-0.8,0.3-1.1
	c0.2-0.3,0.4-0.6,0.7-0.8c0.3-0.2,0.6-0.4,1-0.5c0.4-0.1,0.8-0.2,1.2-0.1c0.6,0,1.1,0.1,1.6,0.3c0.5,0.2,1,0.6,1.2,1.2L30,264.1z"/>
<path class="st12" d="M37.9,263.2h-2.4v5c0,0.3,0,0.5,0.1,0.8c0,0.2,0.1,0.3,0.2,0.5c0.1,0.1,0.2,0.2,0.4,0.2c0.2,0,0.3,0.1,0.5,0.1
	c0.2,0,0.4,0,0.6-0.1c0.2-0.1,0.4-0.1,0.6-0.2v1.1c-0.5,0.2-1.1,0.3-1.6,0.3c-0.2,0-0.5,0-0.7-0.1c-0.2-0.1-0.5-0.2-0.7-0.3
	c-0.2-0.2-0.4-0.4-0.5-0.7c-0.1-0.4-0.2-0.7-0.2-1.1v-5.3h-1.7v-1.1h1.8v-2.4h1.2v2.4h2.4V263.2z"/>
<path class="st12" d="M40.7,266.6c0,0.4,0.1,0.8,0.3,1.2c0.2,0.4,0.4,0.7,0.7,1c0.3,0.3,0.6,0.5,1,0.6c0.4,0.2,0.8,0.2,1.2,0.2
	c0.6,0,1.1-0.1,1.6-0.4c0.4-0.3,0.8-0.6,1.1-1l0.9,0.8c-0.4,0.6-1,1.1-1.7,1.4c-0.6,0.3-1.3,0.4-2,0.4c-0.6,0-1.2-0.1-1.7-0.3
	c-0.5-0.2-1-0.5-1.4-0.9c-0.4-0.4-0.7-0.9-0.9-1.4c-0.2-0.6-0.3-1.2-0.3-1.8c0-0.6,0.1-1.2,0.3-1.8c0.2-0.5,0.5-1,0.9-1.4
	c0.4-0.4,0.8-0.7,1.3-0.9c1.1-0.4,2.3-0.4,3.4,0c1,0.4,1.7,1.2,2,2.2c0.2,0.5,0.3,1.1,0.3,1.6v0.5L40.7,266.6z M46.4,265.6
	c0-0.7-0.2-1.5-0.7-2c-0.5-0.5-1.3-0.8-2-0.8c-0.4,0-0.8,0.1-1.1,0.2c-0.3,0.1-0.7,0.3-0.9,0.6c-0.3,0.2-0.5,0.5-0.7,0.9
	c-0.2,0.3-0.2,0.7-0.2,1L46.4,265.6z"/>
<path class="st12" d="M56.4,264.1c-0.2-0.3-0.5-0.6-0.9-0.8c-0.4-0.2-0.8-0.3-1.2-0.3c-0.5,0-0.9,0.1-1.3,0.2
	c-0.4,0.2-0.7,0.4-1,0.7c-0.3,0.3-0.5,0.7-0.6,1.1c-0.3,0.9-0.3,1.8,0,2.7c0.1,0.4,0.3,0.8,0.6,1.1c0.3,0.3,0.6,0.5,1,0.7
	c0.4,0.2,0.9,0.3,1.3,0.2c0.4,0,0.9-0.1,1.2-0.3c0.3-0.2,0.6-0.5,0.9-0.8l1,0.7c-0.4,0.5-0.9,0.8-1.4,1.1c-0.5,0.2-1.1,0.4-1.7,0.4
	c-0.6,0-1.3-0.1-1.8-0.3c-0.5-0.2-1-0.5-1.4-0.9c-0.4-0.4-0.7-0.9-0.9-1.4c-0.4-1.1-0.4-2.4,0-3.5c0.2-0.5,0.5-1,0.9-1.4
	c0.4-0.4,0.9-0.7,1.4-0.9c0.6-0.2,1.2-0.3,1.8-0.3c0.6,0,1.1,0.1,1.7,0.4c0.5,0.3,1,0.6,1.4,1.1L56.4,264.1z"/>
<path class="st12" d="M63.6,263.2h-2.4v5c0,0.3,0,0.5,0.1,0.8c0,0.2,0.1,0.3,0.2,0.5c0.1,0.1,0.2,0.2,0.4,0.2c0.2,0,0.3,0.1,0.5,0.1
	c0.2,0,0.4-0.1,0.6-0.2c0.2-0.1,0.4-0.1,0.6-0.2v1.1c-0.5,0.2-1.1,0.3-1.6,0.3c-0.2,0-0.5,0-0.7-0.1c-0.2-0.1-0.5-0.2-0.7-0.3
	c-0.2-0.2-0.4-0.4-0.5-0.7c-0.1-0.3-0.1-0.7-0.1-1.1v-5.3h-1.8v-1.1H60v-2.4h1.2v2.4h2.4L63.6,263.2z"/>
<path class="st12" d="M74.1,266.3c0,0.6-0.1,1.2-0.3,1.8c-0.2,0.5-0.5,1-0.9,1.4c-0.4,0.4-0.9,0.7-1.4,0.9c-1.2,0.5-2.4,0.5-3.6,0
	c-1.1-0.4-1.9-1.3-2.3-2.3c-0.4-1.1-0.4-2.4,0-3.5c0.2-0.5,0.5-1,0.9-1.4c0.4-0.4,0.9-0.7,1.4-0.9c1.2-0.4,2.4-0.4,3.6,0
	c0.5,0.2,1,0.5,1.4,0.9c0.4,0.4,0.7,0.9,0.9,1.4C74,265.1,74.1,265.7,74.1,266.3z M72.8,266.3c0-0.5-0.1-0.9-0.2-1.3
	c-0.1-0.4-0.4-0.8-0.6-1.1c-0.3-0.3-0.6-0.5-1-0.7c-0.4-0.2-0.9-0.3-1.3-0.3c-0.5,0-0.9,0.1-1.3,0.3c-0.4,0.2-0.7,0.4-1,0.7
	c-0.3,0.3-0.5,0.7-0.6,1.1c-0.2,0.4-0.2,0.9-0.2,1.3c0,0.4,0.1,0.9,0.2,1.3c0.1,0.4,0.4,0.8,0.6,1.1c0.3,0.3,0.6,0.5,1,0.7
	c0.4,0.2,0.9,0.3,1.3,0.3c0.5,0,0.9-0.1,1.3-0.3c0.8-0.3,1.4-1,1.6-1.8C72.7,267.2,72.8,266.8,72.8,266.3z"/>
<path class="st12" d="M76.6,264c0-0.3,0-0.6,0-0.9s0-0.6-0.1-0.9h1.3v1.3l0,0c0.3-0.5,0.7-0.9,1.2-1.1c0.5-0.2,1-0.4,1.5-0.4
	c0.2,0,0.5,0,0.7,0.1c0.3,0.1,0.5,0.1,0.7,0.3c0.3,0.1,0.5,0.3,0.7,0.5c0.2,0.3,0.4,0.6,0.5,0.9c0.2-0.5,0.6-1,1.1-1.3
	c0.5-0.3,1.1-0.5,1.6-0.5c0.9-0.1,1.8,0.2,2.4,0.9c0.6,0.7,0.8,1.6,0.8,2.4v5.4H88v-4.9c0-0.7-0.1-1.4-0.4-2c-0.4-0.5-1-0.8-1.7-0.7
	c-0.4,0-0.8,0.1-1.1,0.3c-0.3,0.2-0.5,0.4-0.7,0.7c-0.2,0.3-0.3,0.6-0.4,1c-0.1,0.4-0.1,0.8-0.1,1.1v4.5h-1.2v-4.9
	c0-0.7-0.1-1.4-0.4-2c-0.4-0.5-1-0.8-1.7-0.7c-0.2,0-0.3,0-0.5,0.1c-0.3,0.1-0.6,0.2-0.8,0.4c-0.3,0.3-0.6,0.6-0.7,1
	c-0.3,0.6-0.4,1.2-0.3,1.8v4.3h-1.2V264z"/>
<path class="st12" d="M95.4,269.1l2.6-7h1.4l-4.2,10.6c-0.2,0.6-0.6,1.1-1,1.5c-0.5,0.4-1.1,0.6-1.7,0.6H92c-0.2,0-0.4,0-0.6-0.1
	l0.1-1.2c0.3,0.1,0.6,0.2,0.9,0.2c0.4,0,0.7-0.1,1-0.4c0.3-0.3,0.5-0.7,0.6-1.1l0.6-1.6l-3.5-8.5h1.5L95.4,269.1z"/>
<line class="st13" x1="108.4" y1="246.5" x2="184.4" y2="246.5"/>
<path class="st14" d="M379.6,490.1c4.3,7.5,6.8,16.5,8.5,26.6h6.2c-1.1-11.1-3.2-21-7.8-29l-30.8-43.6
	c-22.5-31.3-55.5-102.9-1.8-213.1c8-16.3,18.8-33.5,26.9-51.1c8.8-18.9,16-38.6,21.6-58.7c0.8-2.9,1.7-6,2.5-9.1h-6.6
	c-3.8,12.6-7.5,24.1-11.2,34.3c-5.4,15.4-11.6,30.5-18.8,45.2c-6.9,14-14.5,27.7-22.8,40.9c0,0-63.6,115.9,0.6,211.8L379.6,490.1z"
	/>
<path class="st15" d="M938.2,464.2c-23.6-9.9-37.6-17.1-57.2-45.2c-46.7-52.1-21.8-112.4-1.3-147.2c3.5-5.8,68.5-101.4,82.7-121.9
	c6.9-10.9,12.9-23.8,18.1-37.7h-5.1c-1.9,5.2-4,10.1-6.1,14.7c-76.5,135-188.3,204.3-71.5,321.2c0,0,21.4,15.3,33.5,18.5
	c13.7,3.7,21.8,10.2,27.7,23.5c4.3,7.5,6.8,16.5,8.5,26.6h6.2c-1.1-11.1-3.2-21-7.8-29C960,474.3,951.3,469.6,938.2,464.2z"/>
<path class="st15" d="M645.3,464.2c-23.6-9.9-37.6-17.1-57.2-45.2c-46.7-52.1-21.8-112.4-1.3-147.2c3.5-5.8,68.5-101.4,82.7-121.9
	c6.9-10.9,12.9-23.8,18.1-37.7h-5.1c-1.9,5.2-4,10.1-6.1,14.7c-76.5,135-188.3,204.3-71.5,321.2c0,0,21.4,15.3,33.5,18.5
	c13.7,3.7,21.8,10.2,27.7,23.5c4.3,7.5,6.8,16.5,8.5,26.6h6.2c-1.1-11.1-3.2-21-7.8-29C667.1,474.3,658.4,469.6,645.3,464.2z"/>
<path class="st15" d="M172.6,417.2c-48.9-71.5-2.6-193.2-2.6-193.2s9.5-23.5,13.7-39.4c4.2-15.9,8.5-35.9,10.7-49.9
	c1.3-7.5,2.1-15.1,2.6-22.8h-1.1c-3.3,16.6-6.7,32.9-10.1,47.3c-4,16.5-7.4,30.8-12,42.3c-28.7,71.3-29.4,126.8-29.4,126.8
	c1.2,33.9,8.5,64.3,19.1,85.3c0.6,1.1,1.2,2.2,2,3.2c2,2.7,4.2,5.3,6.5,7.8c2.2,2.2,4.2,4.5,6,7c11.3,19.7,4.4,56.2,16.6,84.9h0.1
	c-11.5-29-0.8-66.8-12.1-86.5L172.6,417.2z"/>
</svg>
