<svg xmlns="http://www.w3.org/2000/svg" xmlns:xlink="http://www.w3.org/1999/xlink" viewBox="0 0 1043.1 628.95"><defs><style>.cls-1,.cls-33,.cls-37{fill:none;}.cls-2{clip-path:url(#clip-path);}.cls-3{fill:#53575a;}.cls-3,.cls-4{fill-rule:evenodd;}.cls-4{fill:#bcbec0;}.cls-5{fill:#e6e7e8;}.cls-6{fill:#fff;}.cls-7{opacity:0.06;}.cls-8{clip-path:url(#clip-path-2);}.cls-9{clip-path:url(#clip-path-3);}.cls-10{fill:#696766;}.cls-11{opacity:0.18;}.cls-12{clip-path:url(#clip-path-4);}.cls-13{clip-path:url(#clip-path-5);}.cls-14{opacity:0.75;}.cls-14,.cls-17{isolation:isolate;}.cls-15{clip-path:url(#clip-path-6);}.cls-16{clip-path:url(#clip-path-7);}.cls-17{opacity:0.1;}.cls-18{clip-path:url(#clip-path-8);}.cls-19{clip-path:url(#clip-path-9);}.cls-20{opacity:0.4;}.cls-21{clip-path:url(#clip-path-10);}.cls-22{clip-path:url(#clip-path-11);}.cls-23{clip-path:url(#clip-path-12);}.cls-24{clip-path:url(#clip-path-13);}.cls-25{clip-path:url(#clip-path-14);}.cls-26{clip-path:url(#clip-path-15);}.cls-27{clip-path:url(#clip-path-16);}.cls-28{clip-path:url(#clip-path-17);}.cls-29{clip-path:url(#clip-path-18);}.cls-30{clip-path:url(#clip-path-19);}.cls-31{clip-path:url(#clip-path-20);}.cls-32{clip-path:url(#clip-path-21);}.cls-33,.cls-37{stroke:#ff8300;}.cls-34{fill:#ff8d1e;}.cls-35{fill:#ff8300;}.cls-36{fill:#8b8e8f;}.cls-37{stroke-width:0.92px;}</style><clipPath id="clip-path" transform="translate(0 54.55)"><rect class="cls-1" x="123.75" y="58.16" width="898" height="403.53"/></clipPath><clipPath id="clip-path-2" transform="translate(0 54.55)"><rect class="cls-1" x="651.03" y="180.29" width="65.69" height="186.2"/></clipPath><clipPath id="clip-path-3" transform="translate(0 54.55)"><rect class="cls-1" x="651.03" y="180.29" width="65.69" height="186.2"/></clipPath><clipPath id="clip-path-4" transform="translate(0 54.55)"><rect class="cls-1" x="616.89" y="198.19" width="35.49" height="51.72"/></clipPath><clipPath id="clip-path-5" transform="translate(0 54.55)"><rect class="cls-1" x="616.89" y="198.19" width="35.49" height="51.72"/></clipPath><clipPath id="clip-path-6" transform="translate(0 54.55)"><rect class="cls-1" x="618.4" y="200.96" width="30.86" height="44.36"/></clipPath><clipPath id="clip-path-7" transform="translate(0 54.55)"><rect class="cls-1" x="618.4" y="200.96" width="30.86" height="44.36"/></clipPath><clipPath id="clip-path-8" transform="translate(0 54.55)"><rect class="cls-1" x="592.87" y="170.61" width="82.21" height="117.51"/></clipPath><clipPath id="clip-path-9" transform="translate(0 54.55)"><rect class="cls-1" x="592.87" y="170.61" width="82.21" height="117.52"/></clipPath><clipPath id="clip-path-10" transform="translate(0 54.55)"><rect class="cls-1" x="592.87" y="170.63" width="82.21" height="117.51"/></clipPath><clipPath id="clip-path-11" transform="translate(0 54.55)"><rect class="cls-1" x="592.87" y="170.63" width="82.21" height="117.51"/></clipPath><clipPath id="clip-path-12" transform="translate(0 54.55)"><rect class="cls-1" x="359.58" y="199.82" width="70.05" height="153.65"/></clipPath><clipPath id="clip-path-13" transform="translate(0 54.55)"><rect class="cls-1" x="359.58" y="199.82" width="70.05" height="153.65"/></clipPath><clipPath id="clip-path-14" transform="translate(0 54.55)"><rect class="cls-1" x="348.43" y="192.14" width="52.95" height="96.99"/></clipPath><clipPath id="clip-path-15" transform="translate(0 54.55)"><rect class="cls-1" x="348.43" y="192.14" width="52.95" height="96.99"/></clipPath><clipPath id="clip-path-16" transform="translate(0 54.55)"><rect class="cls-1" x="348.43" y="192.11" width="52.96" height="97"/></clipPath><clipPath id="clip-path-17" transform="translate(0 54.55)"><rect class="cls-1" x="348.43" y="192.11" width="52.96" height="97"/></clipPath><clipPath id="clip-path-18" transform="translate(0 54.55)"><rect class="cls-1" x="363.87" y="214.83" width="22.88" height="42.73"/></clipPath><clipPath id="clip-path-19" transform="translate(0 54.55)"><rect class="cls-1" x="363.87" y="214.83" width="22.88" height="42.72"/></clipPath><clipPath id="clip-path-20" transform="translate(0 54.55)"><rect class="cls-1" x="364.83" y="217.19" width="19.86" height="36.61"/></clipPath><clipPath id="clip-path-21" transform="translate(0 54.55)"><rect class="cls-1" x="364.83" y="217.19" width="19.86" height="36.6"/></clipPath></defs><g id="Layer_2" data-name="Layer 2"><g id="Layer_1-2" data-name="Layer 1"><g class="cls-2"><path class="cls-3" d="M198.37,469.73c-17.3-29.58-3.41-72.7-15.74-94.18l-10-12.86C123.75,291.22,170,169.54,170,169.54s9.46-23.54,13.66-39.41,8.46-35.86,10.74-49.86a228.27,228.27,0,0,0,3-30.14c-3.85,19.1-7.65,38.15-11.63,54.69s-7.38,30.85-12,42.32c-28.66,71.27-29.36,126.77-29.36,126.77,1.24,33.93,8.51,64.27,19.13,85.32a20.69,20.69,0,0,0,2,3.15,91.29,91.29,0,0,0,6.5,7.78,54.18,54.18,0,0,1,6,7c12.33,21.49,3,63,20.35,92.6" transform="translate(0 54.55)"/><path class="cls-4" d="M196.11,120.84c.39,7.52.76,15,1.18,33.38s.91,47.51.49,78.58S196,297,194.35,322.28s-3.77,42.92-5.81,60.54c.45-20.4.92-40.75,1.91-62.84s2.48-45.84,3.17-69.68.49-47.71.75-69.29,1-40.88,1.74-60.17" transform="translate(0 54.55)"/><path class="cls-4" d="M185.45,368.74c.4-3.67.76-7.28,1.27-16.41s1.12-23.72,1.62-37.64.76-27.2,1.1-47.47.62-47.42,1.17-70.11,1.35-40.8,2.11-58.93c-1.57,9.22-3.13,18.44-5,28.9s-3.79,22-6.16,32.08-5,18.43-7.22,27.07a243.51,243.51,0,0,0-5.18,25.16,126.3,126.3,0,0,0-1.3,20.67A183.86,183.86,0,0,0,170,297c1.57,10.57,4.12,24.13,6.68,37.7-2.23-7.86-4.5-15.78-6.38-24.81A252.62,252.62,0,0,1,166,282.05a110.23,110.23,0,0,1,.25-24.22c1.07-8.62,3.13-18.82,6.24-32.08s7.34-29.59,10.12-42.06,4.27-21.19,5-27.16a95.38,95.38,0,0,0,.74-12.61c-1.92,10.84-3.89,21.65-7.42,37.38s-8.62,36.42-12.15,51.76-5.47,25.39-5.87,35.78A160.84,160.84,0,0,0,165.11,299a235,235,0,0,0,5.23,24.29c2.11,8,4.66,17,6.67,24.17s3.43,12.53,4.85,17.9c-.53-8.07-1.12-16.11-1.54-24.78S179.63,322.64,179,313s-1.69-19.47-2.37-27.91a193.08,193.08,0,0,1-.85-22.25A156.79,156.79,0,0,1,177.38,245c.67-4.78,1.33-7.94,2-11.11,0,13.07.12,26.12.33,36.72s.53,18.75,1.09,30.23S182,327.14,182.69,342c.28-19,.56-38,.73-53.29s.33-27,.14-39.07-.72-24.58-1.22-37.08c-3,11.25-6,22.46-7.8,32.62a132.87,132.87,0,0,0-1.75,31.32c.58,12.07,2.23,27.19,3.92,42.26-1.76-12-3.52-24-4.43-34a154,154,0,0,1-.42-25.86c.57-7.85,1.83-15.53,4.46-26.81s6.56-26.21,10.53-41.1c-.48,21.46-.93,42.87-1.15,64.06s-.3,42.14-.27,61,0,35.78,0,52.68" transform="translate(0 54.55)"/><polygon class="cls-4" points="708.57 489.11 717.81 421.12 722.5 168.96 708.57 192.4 708.57 489.11"/><path class="cls-4" d="M690.59,127.38V434.71c-2-7.34-4.08-14.68-5-39.32s-.77-66.68-.07-108.93,1.79-84.69,2.75-111.23,1.62-37.19,2.3-47.85" transform="translate(0 54.55)"/><path class="cls-4" d="M718.11,442.21c1.27-15.38,2.63-30.76,3.31-51.11s1-45.7,2-93.48,2.86-117.87,4.71-188.06c-1.22,12.82-2.48,25.65-3.7,46.25S722,205,720.57,248.1,717.46,349.13,717,384s.33,46.49,1.1,58.24" transform="translate(0 54.55)"/><path class="cls-3" d="M696.56,574.4c-25.95-44.36-5.11-109-23.6-141.26-5.91-13.39-14.59-18.06-27.69-23.54-23.62-9.9-37.57-17.09-57.22-45.21-46.7-52.07-21.82-112.38-1.26-147.22,3.47-5.83,68.51-101.38,82.67-121.94C694.32,56.1,706.9-9,716.45-54.55,703.27-20.06,692.7,37,676.4,72.2c-76.5,135-188.27,204.34-71.53,321.22,0,0,21.4,15.33,33.48,18.55,13.71,3.65,21.78,10.15,27.69,23.54,18.5,32.24,4.57,94.53,30.52,138.89" transform="translate(0 54.55)"/><path class="cls-4" d="M604,204.86c-13.62,21-23.19,37.78-29,51.16-6,13.75-8.06,23.9-8.88,33.58a72.24,72.24,0,0,0,3.09,29.19c3.28,10.25,9.19,21.52,17.61,32.43s19,21.26,32.1,31.58,28.34,20.56,38.92,28.16,16.62,12.45,21.12,18.69,7.37,13.85,9.29,21.26,2.72,14.68,3.61,21.9c.56-3,1.1-5.89,1.62-9.73s.65-8.65.77-14.16,0-11.61-.14-17.75c.68,7,1.45,13.9,2.18,19.76s1.48,10.55,2.23,15.24c.51-5.46,1-11,1.48-16.15s.89-9.9,1.24-14.66c.23,4.46.47,9,.89,12.92s.89,7.27,1.38,10.63c.42-3.33.87-6.59,1.29-12s.63-12.8.94-20.25c.23,4.33.56,8.65,1,12.59s.8,7.41,1.34,11.79,1,9.59,1.5,14.89a143.63,143.63,0,0,0,2.56-18.55c.42-7.27.26-16.15.33-33.69s.6-43.75.81-70.39-.23-53.8-.58-81.33-.73-55.36-.89-77.3.21-38,.89-49.87,1.9-19.67,3-27.44c-2.58,3-5.18,5.91-9.35,11.4s-10,13.43-15.74,21.38c7.81-13.83,15.5-27.64,23.31-41.47-8.7,12.19-17.52,24.38-25,35.07s-13.79,19.86-21,30.08-15.22,21.41-21.5,29.52-10.69,13-15.1,18c3.35-5.82,6.7-11.63,11.58-19.16s11.3-16.74,19.44-28.25,17.65-25.3,26-38.45,15.4-25.77,22.46-38.27c-8.77,12.71-17.56,25.42-25.67,37.14s-15.66,22.53-23.24,33.32c7.58-12.45,15.24-24.93,22.82-37.49s15-25.35,22.57-38.13c-5.51,7.36-11,14.7-17.14,23.73s-13,19.74-19.27,29.28-12.17,17.82-19.34,28-15.5,22-24,34.65-17,25.91-23.42,37.28-10.69,20.66-13.57,29.62a104.61,104.61,0,0,0-4.93,25.72,103.47,103.47,0,0,0,.75,23.61,74.5,74.5,0,0,0,5.23,17.79,104.53,104.53,0,0,0,7.5,14.7c3,5.09,6.78,10.58,10.53,16.09-6.07-7.2-12.17-14.38-16.6-21.41a83.71,83.71,0,0,1-13.11-43.54,97.28,97.28,0,0,1,4.18-26.66,155.32,155.32,0,0,1,12-28.23c5.09-9.54,11.19-19.06,21.64-34.72s25.25-37.37,38-56.25,23.45-34.86,32.1-48.09S703,79.94,709.69,69.49a51.4,51.4,0,0,0-8.86,9.4c-4.17,5.41-10.31,14.23-21.92,31.3s-28.75,42.41-41.38,60.65-20.68,29.62-29,42.3-16.57,26.73-22,37.59a113.49,113.49,0,0,0-9.5,26,94.93,94.93,0,0,0-2.58,22.16A73.85,73.85,0,0,0,577.88,320a135.33,135.33,0,0,0,8,18.88c-2.14-3.78-4.27-7.55-6.4-11.44a48.49,48.49,0,0,1-5.77-14.85,90,90,0,0,1-1.06-25.46,100.9,100.9,0,0,1,7.34-28c4-9.73,9.4-20.19,16.46-32.36s15.69-26.1,26.52-42.11S646.7,150.59,659.52,132s25.35-37.45,32.66-49.1,9.4-16.11,11.42-20.56c-15.9,22.22-31.79,44.52-49,68.77-16.37,23.09-33.84,48.06-47.65,69.26" transform="translate(0 54.55)"/><path class="cls-5" d="M705.69,350.18s.75,19.07-5,24.95c0,0-10.11,13.41-14.16,11.21a16.87,16.87,0,0,1-3.45-4.88l12.9-25.9Z" transform="translate(0 54.55)"/><path class="cls-5" d="M700,191s1.46-21.85-9.54-25.65c0,0-4.74.1-6.1,3.78l.83,7.29L698.32,193Z" transform="translate(0 54.55)"/><path class="cls-6" d="M665.73,392.69s28.14-6.37,46.45-57.56c0,0,14.84-42.06,2.79-100.49,0,0-12.85-56.71-34.14-67.85,0,0-15.66-8.26-27,3.87,0,0-13.29,18.78-16.86,25.13,0,0-30.64,40.73-37.4,61.08,0,0-6.72,15.43-7,29.26,0,0-6.61,56.53,41,96.2,0,0,15.73,14.51,32.26,10.36" transform="translate(0 54.55)"/><g class="cls-7"><g class="cls-8"><g class="cls-9"><path class="cls-10" d="M696,357.12s46.14-57.37.63-167.4c0,0-8.93-21.27-19.63.07,0,0-36.64,46.33-22.93,113.85,0,0,7.37,42.49,16.16,54.59,0,0,9.61,19.29,25.77-1.11" transform="translate(0 54.55)"/></g></g></g><g class="cls-11"><g class="cls-12"><g class="cls-13"><path class="cls-10" d="M625.69,218.63c8.47-14,19.33-22.85,24.27-19.86s2.08,16.74-6.38,30.7-19.33,22.86-24.27,19.86-2.08-16.73,6.38-30.7" transform="translate(0 54.55)"/></g></g></g><g class="cls-14"><g class="cls-15"><g class="cls-16"><path class="cls-5" d="M627.19,218.9c7.69-12,16.9-19.87,20.56-17.52s.4,14-7.29,26-16.89,19.86-20.56,17.52-.4-14,7.29-26" transform="translate(0 54.55)"/></g></g></g><path class="cls-6" d="M655.67,172.39a3.74,3.74,0,0,1,1.88.52c15.94,8.84,17,38.31,16.88,47.13a26.48,26.48,0,0,1-.61,5.58c-7.81,33-39.43,50.83-39.79,51-12,7.23-22,10.88-29.63,10.88-7.86,0-10.46-3.91-10.86-4.62-.84-17.28,15.17-43.91,15.31-44.14,7.81-12.13,34.73-51.84,42.77-63.71,1.15-1.73,2.6-2.65,4-2.65m0-.65a5.68,5.68,0,0,0-4.57,2.9c-8.58,12.66-35,51.68-42.79,63.73,0,0-16.36,27-15.4,44.69,0,0,2.46,5.09,11.49,5.09,6.3,0,15.82-2.49,30-10.95,0,0,32.1-17.78,40.07-51.42a26,26,0,0,0,.63-5.72c.07-9.71-1.07-38.78-17.23-47.71a4,4,0,0,0-2.16-.61" transform="translate(0 54.55)"/><g class="cls-17"><g class="cls-18"><g class="cls-19"><path class="cls-10" d="M675,223.2s2.65-45.44-21.17-52.59c0,0-36.15,53.27-45.51,67.74,0,0-16.36,27-15.4,44.68,0,0,7.13,14.71,41.45-5.86,0,0,33.72-18.66,40.63-54" transform="translate(0 54.55)"/></g></g></g><g class="cls-20"><g class="cls-21"><g class="cls-22"><path class="cls-6" d="M654.08,171.38c22.58,7.37,20.3,51.35,20.28,51.7-6.77,34.59-40,53.34-40.33,53.53-12,7.22-22,10.88-29.63,10.88-7.86,0-10.46-3.92-10.86-4.62-.84-17.28,15.17-43.91,15.31-44.15,8.82-13.64,41.9-62.44,45.23-67.34m-.26-.75s-36.15,53.27-45.51,67.74c0,0-16.36,27-15.4,44.69,0,0,2.46,5.09,11.49,5.09,6.3,0,15.82-2.49,30-10.95,0,0,33.72-18.67,40.63-54,0,0,2.65-45.44-21.17-52.59" transform="translate(0 54.55)"/></g></g></g><path class="cls-4" d="M435.16,134.08V428.66c-2-7-4.08-14.07-5-37.68s-.77-63.91-.07-104.4,1.79-81.17,2.75-106.61,1.59-35.69,2.3-45.89" transform="translate(0 54.55)"/><path class="cls-4" d="M422.52,442.92c1.26-14.75,2.62-29.47,3.3-49s1-43.79,2-89.61,2.86-113,4.72-180.25c-1.22,12.28-2.49,24.59-3.71,44.33s-2.41,47.11-3.82,88.44-3.12,96.84-3.56,130.23.32,44.61,1.1,55.87" transform="translate(0 54.55)"/><path class="cls-4" d="M355.6,203.62c-9.24,19.16-15.82,34.5-19.9,46.85A132.12,132.12,0,0,0,329,281.73a102,102,0,0,0,1,27.71A131,131,0,0,0,339.89,341,169.83,169.83,0,0,0,359,372.39c7.86,10.46,17.1,20.87,23.47,28.56s10,12.59,12.64,18.71,4.15,13.46,5.11,20.56,1.22,14,1.53,20.87c.44-2.74.89-5.51,1.33-9.12s.71-8.14,1-13.34.38-10.95.52-16.77c.19,6.62.45,13.2.7,18.78s.57,10,.89,14.49c.52-5.13,1-10.34,1.48-15.17s.89-9.3,1.27-13.76c0,4.22,0,8.51.12,12.24s.32,6.92.51,10.08c.38-3.12.77-6.17,1.22-11.25s.82-12,1.27-19.09c0,4.11.07,8.21.18,11.94s.26,7,.45,11.18.33,9.12.44,14.14c.83-5.25,1.72-10.58,2.23-17.38s.71-15.24,1.34-31.81,1.85-41.29,2.86-66.43S421.13,289,421.84,263s1.4-52.31,2-73,1.4-35.85,2.22-47,1.86-18.47,2.82-25.74c-1.71,2.7-3.45,5.32-6.26,10.27s-6.71,12.17-10.6,19.39c5.37-12.66,10.64-25.32,16-38-5.86,11.06-11.79,22.13-16.83,31.86s-9.31,18.05-14.16,27.34-10.27,19.46-14.49,26.8-7.15,11.74-10.08,16.2c2.29-5.32,4.59-10.65,7.9-17.49s7.64-15.24,13.13-25.7,11.93-23,17.61-35,10.52-23.54,15.38-35c-5.94,11.56-11.87,23.11-17.35,33.76s-10.6,20.49-15.69,30.27c5.16-11.37,10.39-22.75,15.57-34.26s10.27-23.19,15.43-34.86c-3.71,6.66-7.41,13.34-11.54,21.52s-8.79,18-13.08,26.66-8.23,16.2-13.08,25.44-10.46,20-16.21,31.51-11.53,23.61-15.94,34a181.69,181.69,0,0,0-9.5,27.29,144.74,144.74,0,0,0-4,24,147.92,147.92,0,0,0-.33,22.32,102.85,102.85,0,0,0,2.68,17.07,127.68,127.68,0,0,0,4.22,14.25c1.71,4.95,3.89,10.34,6.05,15.71a217.83,217.83,0,0,1-9.71-21,98,98,0,0,1-5.3-20.19,113.89,113.89,0,0,1-1.48-21.59,134.57,134.57,0,0,1,3.52-24.95,182.86,182.86,0,0,1,8.49-26c3.51-8.74,7.64-17.44,14.72-31.67s17.09-34,25.7-51.21,15.87-31.75,21.76-43.8S421.84,90.57,426.36,81a44,44,0,0,0-5.86,8.45c-2.81,4.9-7,12.89-14.79,28.44s-19.46,38.59-28,55.16-14,26.92-19.58,38.48-11.3,24.41-15.05,34.37a140.05,140.05,0,0,0-6.82,24.1,130.63,130.63,0,0,0-2.37,20.8,104,104,0,0,0,1.41,20.12,168.53,168.53,0,0,0,4.4,18.22c-1.21-3.68-2.41-7.34-3.63-11.14a63.79,63.79,0,0,1-3.12-14.3,128.52,128.52,0,0,1,.19-24.1,129.89,129.89,0,0,1,5.56-26.05,294.85,294.85,0,0,1,11.42-29.73c4.85-11.19,10.71-23.85,18.05-38.41s16-31,24.69-47.9S410,103.46,415,92.82s6.45-14.75,7.86-18.85c-10.72,20.18-21.43,40.42-33,62.46-11,21-22.84,43.68-32.22,63" transform="translate(0 54.55)"/><path class="cls-3" d="M410.15,574.4c-26-44.36-5.11-109-23.61-141.26l-30.76-43.63c-22.48-31.26-55.52-102.88-1.84-213.11,8-16.34,18.83-33.5,26.91-51.11a380.59,380.59,0,0,0,21.62-58.71C409.29,42.9,416.19,13,420-7.88A339.19,339.19,0,0,0,425.42-53c-6.3,28.53-12.56,57-19,81.68s-13,45.63-19.2,63.12A413.51,413.51,0,0,1,368.45,137a464,464,0,0,1-22.84,40.91s-63.58,115.92.6,211.75l33.41,45.86c18.5,32.24,4.57,94.53,30.53,138.89" transform="translate(0 54.55)"/><path class="cls-5" d="M419.28,346s.85,15.74-5.62,20.61c0,0-11.52,11.07-16.14,9.24,0,0-2.93-2.09-3.91-4l14.68-21.38Z" transform="translate(0 54.55)"/><path class="cls-5" d="M415.32,208.92s1.66-18-10.86-21.17c0,0-5.37.07-6.94,3.12l.92,6,14.93,13.69Z" transform="translate(0 54.55)"/><path class="cls-6" d="M395.34,375.44s18.13-5.25,29.92-47.53c0,0,9.57-34.72,1.81-83,0,0-8.28-46.82-22-56,0,0-10.08-6.83-17.42,3.21,0,0-8.55,15.5-10.85,20.75,0,0-19.74,33.62-24.11,50.41,0,0-4.33,12.73-4.52,24.15,0,0-4.27,46.66,26.4,79.41,0,0,10.13,12,20.77,8.56" transform="translate(0 54.55)"/><g class="cls-7"><g class="cls-23"><g class="cls-24"><path class="cls-10" d="M407.21,345.62s49.49-47.74,1.4-138.1c0,0-9.44-17.47-20.93.23,0,0-39.3,38.55-24.95,94.14,0,0,7.67,35,17,44.87,0,0,10.15,15.83,27.48-1.14" transform="translate(0 54.55)"/></g></g></g><g class="cls-17"><g class="cls-25"><g class="cls-26"><path class="cls-10" d="M401.32,235.54S403,198,387.68,192.14c0,0-23.31,44-29.31,55.92,0,0-10.53,22.29-9.92,36.88,0,0,4.6,12.12,26.71-4.86,0,0,21.71-15.4,26.16-44.54" transform="translate(0 54.55)"/></g></g></g><g class="cls-20"><g class="cls-27"><g class="cls-28"><path class="cls-6" d="M387.89,192.72c14.44,6.19,13,42.42,13,42.74-4.36,28.61-25.76,44.09-26,44.25-7.74,5.93-14.14,9-19,9-5.06,0-6.7-3.31-6.94-3.83-.56-14.32,9.78-36.36,9.87-36.57,5.68-11.23,26.87-51.26,29.15-55.55m-.21-.61s-23.31,44-29.31,55.92c0,0-10.53,22.3-9.92,36.88,0,0,1.6,4.2,7.41,4.2,4.06,0,10.2-2.06,19.32-9.05,0,0,21.73-15.4,26.17-44.55,0,0,1.66-37.49-13.67-43.4" transform="translate(0 54.55)"/></g></g></g><g class="cls-11"><g class="cls-29"><g class="cls-30"><path class="cls-10" d="M368.82,233.31c5.2-11.69,12.32-19.87,15.91-18.28s2.27,12.37-2.93,24.05S369.47,259,365.89,257.36s-2.27-12.36,2.93-24.05" transform="translate(0 54.55)"/></g></g></g><g class="cls-14"><g class="cls-31"><g class="cls-32"><path class="cls-5" d="M369.91,233.18c4.79-10,10.84-17.12,13.52-15.84s1,10.44-3.83,20.47-10.84,17.12-13.51,15.84-1-10.44,3.82-20.47" transform="translate(0 54.55)"/></g></g></g><path class="cls-6" d="M388.94,193.59a2.15,2.15,0,0,1,1.25.45c10.31,7.62,10.8,32.21,10.69,39.57a22,22,0,0,1-.31,3.4c-4.87,27.6-25.51,42.51-25.74,42.67-7.74,5.94-14.14,9-19,9-5.07,0-6.71-3.31-6.94-3.82-.56-14.33,9.78-36.37,9.87-36.58,5-9.94,22.25-42.55,27.41-52.31.84-1.5,1.83-2.34,2.81-2.34m0-.47c-1.15,0-2.3.92-3.19,2.6-5.67,10.74-22.43,42.46-27.4,52.31,0,0-10.53,22.3-9.92,36.88,0,0,1.59,4.2,7.41,4.2,4.05,0,10.2-2.06,19.32-9.05a71.38,71.38,0,0,0,25.9-42.95,23.19,23.19,0,0,0,.31-3.47c.09-7.11-.35-32.2-10.9-40a2.56,2.56,0,0,0-1.53-.56" transform="translate(0 54.55)"/><polygon class="cls-4" points="1001.51 489.11 1010.75 421.12 1015.44 168.96 1001.51 192.4 1001.51 489.11"/><path class="cls-4" d="M983.55,127.38V434.71c-2-7.34-4.07-14.68-5-39.32s-.77-66.68-.07-108.93,1.79-84.69,2.75-111.23,1.59-37.19,2.29-47.85" transform="translate(0 54.55)"/><path class="cls-4" d="M1011.06,442.21c1.26-15.38,2.62-30.76,3.3-51.11s1-45.7,2-93.48,2.86-117.87,4.72-188.06c-1.22,12.82-2.49,25.65-3.71,46.25s-2.41,49.15-3.82,92.29-3.12,101-3.56,135.87.32,46.49,1.1,58.24" transform="translate(0 54.55)"/><path class="cls-3" d="M989.51,574.4c-26-44.36-5.11-109-23.61-141.26-5.91-13.39-14.59-18.06-27.69-23.54-23.61-9.9-37.56-17.09-57.21-45.21-46.71-52.07-21.83-112.38-1.27-147.22,3.47-5.83,68.51-101.38,82.68-121.94C987.26,56.1,999.85-9,1009.39-54.55,996.22-20.06,985.64,37,969.35,72.2c-76.51,135-188.28,204.34-71.54,321.22,0,0,21.41,15.33,33.48,18.55,13.72,3.65,21.78,10.15,27.69,23.54,18.5,32.24,4.58,94.53,30.53,138.89" transform="translate(0 54.55)"/><path class="cls-4" d="M896.9,204.86c-13.62,21-23.19,37.78-29,51.16-6,13.75-8.07,23.9-8.89,33.58a72.07,72.07,0,0,0,3.1,29.19c3.28,10.25,9.19,21.52,17.6,32.43s19,21.26,32.1,31.58,28.35,20.56,38.92,28.16,16.63,12.45,21.13,18.69,7.36,13.85,9.28,21.26,2.72,14.68,3.61,21.9c.57-3,1.11-5.89,1.62-9.73s.66-8.65.78-14.16,0-11.61-.14-17.75c.67,7,1.45,13.9,2.18,19.76s1.47,10.55,2.22,15.24c.52-5.46,1-11,1.48-16.15s.89-9.9,1.24-14.66c.24,4.46.47,9,.89,12.92s.89,7.27,1.39,10.63c.42-3.33.86-6.59,1.29-12s.63-12.8.93-20.25c.24,4.33.57,8.65,1,12.59s.79,7.41,1.34,11.79,1,9.59,1.5,14.89a142,142,0,0,0,2.55-18.55c.42-7.27.26-16.15.33-33.69s.61-43.75.82-70.39-.23-53.8-.59-81.33-.72-55.36-.89-77.3.21-38,.89-49.87,1.9-19.67,3-27.44c-2.58,3-5.19,5.91-9.36,11.4s-10,13.43-15.73,21.38c7.81-13.83,15.5-27.64,23.3-41.47-8.69,12.19-17.51,24.38-25,35.07s-13.78,19.86-21,30.08-15.21,21.41-21.5,29.52-10.69,13-15.1,18c3.36-5.82,6.71-11.63,11.59-19.16s11.3-16.74,19.43-28.25,17.66-25.3,26-38.45,15.41-25.77,22.47-38.27c-8.77,12.71-17.57,25.42-25.68,37.14s-15.66,22.53-23.23,33.32c7.57-12.45,15.24-24.93,22.81-37.49s15-25.35,22.58-38.13c-5.51,7.36-11,14.7-17.14,23.73s-13,19.74-19.27,29.28-12.17,17.82-19.35,28-15.49,22-24,34.65-17,25.91-23.43,37.28-10.69,20.66-13.57,29.62a105,105,0,0,0-4.92,25.72,103.47,103.47,0,0,0,.75,23.61,74.06,74.06,0,0,0,5.22,17.79,103.55,103.55,0,0,0,7.51,14.7c3,5.09,6.77,10.58,10.52,16.09-6.07-7.2-12.17-14.38-16.6-21.41a83.83,83.83,0,0,1-13.1-43.54,97.63,97.63,0,0,1,4.17-26.66,155.38,155.38,0,0,1,12-28.23c5.08-9.54,11.18-19.06,21.64-34.72s25.25-37.37,38-56.25,23.44-34.86,32.09-48.09S996,79.94,1002.64,69.49a50.72,50.72,0,0,0-8.86,9.4c-4.18,5.41-10.32,14.23-21.92,31.3s-28.75,42.41-41.39,60.65-20.68,29.62-29,42.3-16.58,26.73-22,37.59a112.92,112.92,0,0,0-9.49,26,94.4,94.4,0,0,0-2.58,22.16A73.84,73.84,0,0,0,870.82,320a135.33,135.33,0,0,0,8,18.88c-2.13-3.78-4.26-7.55-6.4-11.44a48.25,48.25,0,0,1-5.76-14.85,89.22,89.22,0,0,1-1.06-25.46,100.9,100.9,0,0,1,7.34-28c4-9.73,9.4-20.19,16.46-32.36s15.68-26.1,26.52-42.11,23.7-34.11,36.53-52.68,25.34-37.45,32.65-49.1,9.41-16.11,11.42-20.56c-15.89,22.22-31.79,44.52-49,68.77-16.36,23.09-33.83,48.06-47.64,69.26" transform="translate(0 54.55)"/><path class="cls-6" d="M960.46,393.12s28.14-6.38,46.45-57.57c0,0,14.84-42.06,2.79-100.49,0,0-12.85-56.71-34.14-67.85,0,0-15.66-8.25-27,3.87,0,0-13.29,18.78-16.85,25.13,0,0-30.65,40.73-37.4,61.08,0,0-6.73,15.43-7,29.26,0,0-6.61,56.53,41,96.2,0,0,15.73,14.54,32.26,10.37" transform="translate(0 54.55)"/></g><polyline class="cls-33" points="457.52 92.85 133.06 92.85 133.06 130.35"/><polyline class="cls-33" points="819.41 130.35 819.41 92.85 494.96 92.85"/><path class="cls-34" d="M469.16,47.55a4.67,4.67,0,0,0,2.22-.87,3.6,3.6,0,0,0,1.2-1.8,10.49,10.49,0,0,0,.36-3.06V12.48q0-3.3-1.2-4.5t-4.2-1.38h-.6V6.18H468q1-.06,2.46-.27a11.76,11.76,0,0,0,3-.87,9.86,9.86,0,0,0,2.82-1.86A7.47,7.47,0,0,0,478.28,0l.06.12V0h1V40.8a4.63,4.63,0,0,0,0,.51,5.17,5.17,0,0,1,0,.57,11.67,11.67,0,0,0,.27,2.76,4,4,0,0,0,.87,1.74,3.65,3.65,0,0,0,1.62,1,9.75,9.75,0,0,0,2.58.39h1.86v.42H465.74v-.42A23.3,23.3,0,0,0,469.16,47.55Z" transform="translate(0 54.55)"/><polyline class="cls-33" points="801.67 541.85 610.25 541.85 610.25 504.35"/><polyline class="cls-33" points="1042.6 504.35 1042.6 541.85 851.17 541.85"/><path class="cls-35" d="M819.88,489.88q1.38-1.38,2.7-2.73t2.52-2.61a36.56,36.56,0,0,0,5.58-7.8,34.79,34.79,0,0,0,3-7.83,26.56,26.56,0,0,0,.81-7.23,18.53,18.53,0,0,0-1.11-6,10.13,10.13,0,0,0-2.7-4.08,5.79,5.79,0,0,0-3.93-1.5,10.6,10.6,0,0,0-1.11.06l-1.11.12a6.26,6.26,0,0,0-3.87,2.13,8.73,8.73,0,0,0-1.65,3.48,14.08,14.08,0,0,0-.33,3.75,28.76,28.76,0,0,1,0,2.88,2.93,2.93,0,0,1-2.94,2.76,2.56,2.56,0,0,1-1.92-.81,2.51,2.51,0,0,1-.72-2v-.36a12.9,12.9,0,0,1,4.14-8.7,13.63,13.63,0,0,1,4.35-2.76,13.83,13.83,0,0,1,5.13-1,12.47,12.47,0,0,1,9.18,3.72,12.12,12.12,0,0,1,3.6,9.12,20.25,20.25,0,0,1-.48,3.09,15.43,15.43,0,0,1-1.14,3.15,21.38,21.38,0,0,1-1.65,3.12q-1,1.56-2.31,3.3a74.55,74.55,0,0,1-6.06,7q-3.54,3.66-7.8,7.92a30.65,30.65,0,0,1-2.28,2.28h19.08a5,5,0,0,0,1.62-.21,3.57,3.57,0,0,0,1-.48,1.46,1.46,0,0,0,.48-.54l.18-.39v-.06h.48l-1.14,7.32H811.78l4.14-4.23Z" transform="translate(0 54.55)"/><path class="cls-36" d="M487.62,356.46h-2.43v5a2.63,2.63,0,0,0,.09.76,1,1,0,0,0,.25.46.86.86,0,0,0,.39.23,1.88,1.88,0,0,0,.49.06,2.39,2.39,0,0,0,.63-.09,2.9,2.9,0,0,0,.59-.23l.06,1.1a3.9,3.9,0,0,1-1.6.3,2.94,2.94,0,0,1-.71-.09,1.62,1.62,0,0,1-.68-.34,2,2,0,0,1-.5-.68,2.65,2.65,0,0,1-.2-1.14v-5.31h-1.78v-1.08H484V353h1.19v2.37h2.43Z" transform="translate(0 54.55)"/><path class="cls-36" d="M491.32,352.14a.8.8,0,0,1-.27.62.81.81,0,0,1-.59.25.83.83,0,0,1-.59-.25.85.85,0,0,1,0-1.24.86.86,0,0,1,.59-.24.84.84,0,0,1,.59.24A.8.8,0,0,1,491.32,352.14Zm-.27,11.67h-1.18v-8.43h1.18Z" transform="translate(0 54.55)"/><path class="cls-36" d="M498.74,357.38a2.24,2.24,0,0,0-.72-.83,2,2,0,0,0-1.1-.3,2.68,2.68,0,0,0-.62.07,2,2,0,0,0-.57.22,1.35,1.35,0,0,0-.4.39,1.06,1.06,0,0,0-.15.58.94.94,0,0,0,.41.86,4.07,4.07,0,0,0,1.24.47l1.21.29a2.8,2.8,0,0,1,1.47.8,2.06,2.06,0,0,1,.58,1.5,2.3,2.3,0,0,1-1,2,3.13,3.13,0,0,1-1.05.46,5.48,5.48,0,0,1-1.21.14,4.33,4.33,0,0,1-1.8-.37,3.33,3.33,0,0,1-1.44-1.27l1-.7a2.76,2.76,0,0,0,.91.92,2.4,2.4,0,0,0,1.3.34,2.94,2.94,0,0,0,.72-.08,2,2,0,0,0,.64-.25,1.27,1.27,0,0,0,.45-.44,1.1,1.1,0,0,0,.17-.63,1,1,0,0,0-.46-.91,4.11,4.11,0,0,0-1.14-.44l-1.15-.27-.58-.18a2.77,2.77,0,0,1-.72-.38,2.28,2.28,0,0,1-.61-.66,1.83,1.83,0,0,1-.25-1,2.39,2.39,0,0,1,.26-1.13,2.32,2.32,0,0,1,.7-.79,3.15,3.15,0,0,1,1-.46,4.43,4.43,0,0,1,1.15-.15,3.88,3.88,0,0,1,1.64.34,2.38,2.38,0,0,1,1.17,1.17Z" transform="translate(0 54.55)"/><path class="cls-36" d="M506.75,357.38a2.24,2.24,0,0,0-.72-.83,2,2,0,0,0-1.1-.3,2.68,2.68,0,0,0-.62.07,2,2,0,0,0-.57.22,1.35,1.35,0,0,0-.4.39,1.06,1.06,0,0,0-.15.58.94.94,0,0,0,.41.86,4.07,4.07,0,0,0,1.24.47l1.21.29a2.83,2.83,0,0,1,1.47.8,2.06,2.06,0,0,1,.58,1.5,2.3,2.3,0,0,1-1,2,3.13,3.13,0,0,1-1.05.46,5.48,5.48,0,0,1-1.21.14,4.33,4.33,0,0,1-1.8-.37,3.33,3.33,0,0,1-1.44-1.27l1-.7a2.76,2.76,0,0,0,.91.92,2.4,2.4,0,0,0,1.3.34,2.94,2.94,0,0,0,.72-.08,2,2,0,0,0,.64-.25,1.27,1.27,0,0,0,.45-.44,1.1,1.1,0,0,0,.17-.63,1,1,0,0,0-.46-.91,4.11,4.11,0,0,0-1.14-.44l-1.15-.27-.58-.18a2.77,2.77,0,0,1-.72-.38,2.28,2.28,0,0,1-.61-.66,1.83,1.83,0,0,1-.25-1,2.39,2.39,0,0,1,.26-1.13,2.32,2.32,0,0,1,.7-.79,3.15,3.15,0,0,1,1-.46,4.43,4.43,0,0,1,1.15-.15,3.88,3.88,0,0,1,1.64.34,2.38,2.38,0,0,1,1.17,1.17Z" transform="translate(0 54.55)"/><path class="cls-36" d="M516.38,363.81c0-.23,0-.46,0-.68v-.67h0a3.22,3.22,0,0,1-.5.63,3.75,3.75,0,0,1-.69.49,3.26,3.26,0,0,1-.8.32,3.56,3.56,0,0,1-3.23-.73,3.5,3.5,0,0,1-.77-2.44v-5.35h1.18V360a6.6,6.6,0,0,0,.11,1.25,2.3,2.3,0,0,0,.37.9,1.55,1.55,0,0,0,.7.56,2.8,2.8,0,0,0,1.11.19,3.75,3.75,0,0,0,.5-.07,2.2,2.2,0,0,0,.88-.4,2.88,2.88,0,0,0,.82-1,3.73,3.73,0,0,0,.36-1.8v-4.32h1.18V362q0,.35,0,.87t.06,1Z" transform="translate(0 54.55)"/><path class="cls-36" d="M521.49,359.92a3.73,3.73,0,0,0,.31,1.19,3.07,3.07,0,0,0,1.62,1.6,3.22,3.22,0,0,0,2.82-.21,3.21,3.21,0,0,0,1-1l.92.76a4.6,4.6,0,0,1-1.67,1.37,4.73,4.73,0,0,1-1.95.41,4.49,4.49,0,0,1-1.74-.33,4.1,4.1,0,0,1-1.38-.93,4.52,4.52,0,0,1-.91-1.4,4.89,4.89,0,0,1,0-3.53,4.2,4.2,0,0,1,2.25-2.33,4.18,4.18,0,0,1,1.67-.33,4,4,0,0,1,1.71.34,3.82,3.82,0,0,1,1.27.91,3.93,3.93,0,0,1,.78,1.33,4.85,4.85,0,0,1,.27,1.63v.54Zm5.73-1a2.52,2.52,0,0,0-2.74-2.7,2.9,2.9,0,0,0-1.12.22,3.15,3.15,0,0,0-.94.6,3,3,0,0,0-.65.87,2.24,2.24,0,0,0-.24,1Z" transform="translate(0 54.55)"/><path class="cls-36" d="M468.55,379.92a3.48,3.48,0,0,0,.3,1.19,3.16,3.16,0,0,0,1.62,1.6,3,3,0,0,0,1.17.23,3,3,0,0,0,1.65-.44,3.21,3.21,0,0,0,1-1l.92.76a4.52,4.52,0,0,1-1.67,1.37,4.7,4.7,0,0,1-1.95.41,4.57,4.57,0,0,1-1.74-.33,4,4,0,0,1-1.37-.93,4.18,4.18,0,0,1-.91-1.4,5,5,0,0,1,0-3.53,4.32,4.32,0,0,1,.9-1.4,4,4,0,0,1,1.35-.93,4.22,4.22,0,0,1,1.67-.33,4,4,0,0,1,1.71.34,3.72,3.72,0,0,1,1.27.91,4,4,0,0,1,.79,1.33,4.85,4.85,0,0,1,.27,1.63v.54Zm5.72-1a2.52,2.52,0,0,0-2.74-2.7,2.85,2.85,0,0,0-1.11.22,3.2,3.2,0,0,0-.95.6,3.25,3.25,0,0,0-.65.87,2.24,2.24,0,0,0-.24,1Z" transform="translate(0 54.55)"/><path class="cls-36" d="M480.26,379.31l-3.06-3.93h1.62l2.34,3.15,2.24-3.15h1.47l-2.93,3.93,3.53,4.5h-1.62L481,380.12l-2.72,3.69h-1.51Z" transform="translate(0 54.55)"/><path class="cls-36" d="M487.12,375.38h1.19v1.41h0a3,3,0,0,1,.68-.74,4.21,4.21,0,0,1,.83-.51,4,4,0,0,1,.89-.28,4.51,4.51,0,0,1,.87-.09,4.82,4.82,0,0,1,1.81.33,4,4,0,0,1,1.41.93,4.09,4.09,0,0,1,.93,1.4,4.89,4.89,0,0,1,0,3.53,4.09,4.09,0,0,1-.93,1.4,4,4,0,0,1-1.41.93,4.82,4.82,0,0,1-1.81.33,4.51,4.51,0,0,1-.87-.09,3.57,3.57,0,0,1-.89-.29,4.16,4.16,0,0,1-.83-.5,3,3,0,0,1-.68-.74h0V389h-1.19Zm7.69,4.21a3.8,3.8,0,0,0-.23-1.31,3.07,3.07,0,0,0-.64-1.06,2.89,2.89,0,0,0-1-.71,3.11,3.11,0,0,0-1.32-.26,3.32,3.32,0,0,0-1.35.26,3.23,3.23,0,0,0-1.76,1.77,3.58,3.58,0,0,0,0,2.63,3.23,3.23,0,0,0,1.76,1.77,3.49,3.49,0,0,0,1.35.26,3.27,3.27,0,0,0,1.32-.26,2.89,2.89,0,0,0,1-.71,3.07,3.07,0,0,0,.64-1.06A3.81,3.81,0,0,0,494.81,379.59Z" transform="translate(0 54.55)"/><path class="cls-36" d="M503.88,378.64v-.22a1.91,1.91,0,0,0-2.16-2.17,3.71,3.71,0,0,0-2.57,1l-.72-.85a4.73,4.73,0,0,1,3.56-1.22,3.88,3.88,0,0,1,1.18.18,2.65,2.65,0,0,1,1.65,1.47,3.36,3.36,0,0,1,.25,1.33v3.77c0,.32,0,.66,0,1s.07.65.1.88h-1.15a6.48,6.48,0,0,1-.08-.67c0-.24,0-.47,0-.7h0a3.18,3.18,0,0,1-1.24,1.21A3.66,3.66,0,0,1,501,384a3.81,3.81,0,0,1-1.08-.15,2.72,2.72,0,0,1-.93-.47,2.41,2.41,0,0,1-.65-.77,2.65,2.65,0,0,1,.29-2.69,3.32,3.32,0,0,1,1.33-.87,6.66,6.66,0,0,1,1.71-.36c.61,0,1.16-.07,1.67-.07Zm-.61,1c-.3,0-.68,0-1.13.05a6.68,6.68,0,0,0-1.29.21,3,3,0,0,0-1.07.53,1.22,1.22,0,0,0-.44,1,1.41,1.41,0,0,0,.17.71,1.44,1.44,0,0,0,.46.49,1.9,1.9,0,0,0,.64.27,2.87,2.87,0,0,0,.71.08,2.78,2.78,0,0,0,1.13-.21,2.38,2.38,0,0,0,.8-.59,2.34,2.34,0,0,0,.48-.86,3.62,3.62,0,0,0,.15-1.06v-.61Z" transform="translate(0 54.55)"/><path class="cls-36" d="M509.32,375.38c0,.23,0,.46,0,.68s0,.44,0,.67h0a2.72,2.72,0,0,1,.5-.63,3.37,3.37,0,0,1,.68-.49,4,4,0,0,1,.8-.33,3.59,3.59,0,0,1,.84-.11,3.09,3.09,0,0,1,2.4.85,3.53,3.53,0,0,1,.77,2.44v5.35h-1.19v-4.67a4,4,0,0,0-.48-2.15,2,2,0,0,0-1.8-.74,4,4,0,0,0-.51.07,2.28,2.28,0,0,0-.87.39,2.82,2.82,0,0,0-.82,1,3.73,3.73,0,0,0-.36,1.8v4.32h-1.19v-6.57q0-.35,0-.87t-.06-1Z" transform="translate(0 54.55)"/><path class="cls-36" d="M527,383.81h-1.19V382.4h0a3,3,0,0,1-.68.74,4.47,4.47,0,0,1-.83.5,3.7,3.7,0,0,1-.89.29,4.59,4.59,0,0,1-.87.09,4.78,4.78,0,0,1-1.81-.33,4.15,4.15,0,0,1-2.34-2.33,4.75,4.75,0,0,1,0-3.53,4.15,4.15,0,0,1,2.34-2.33,4.78,4.78,0,0,1,1.81-.33,4.59,4.59,0,0,1,.87.09,4.17,4.17,0,0,1,.89.28,4.52,4.52,0,0,1,.83.51,3,3,0,0,1,.68.74h0V370.2H527Zm-7.69-4.22a3.81,3.81,0,0,0,.22,1.32,3.23,3.23,0,0,0,.64,1.06,3,3,0,0,0,1,.71,3.29,3.29,0,0,0,1.33.26,3.52,3.52,0,0,0,1.34-.26,3.28,3.28,0,0,0,1.07-.71,3.21,3.21,0,0,0,.7-1.06,3.58,3.58,0,0,0,0-2.63,3.21,3.21,0,0,0-.7-1.06,3.28,3.28,0,0,0-1.07-.71,3.34,3.34,0,0,0-1.34-.26,3.13,3.13,0,0,0-1.33.26,3,3,0,0,0-1,.71,3.23,3.23,0,0,0-.64,1.06A3.79,3.79,0,0,0,519.27,379.59Z" transform="translate(0 54.55)"/><path class="cls-36" d="M530.74,379.92a3.48,3.48,0,0,0,.3,1.19,3.16,3.16,0,0,0,1.62,1.6,3,3,0,0,0,1.17.23,3,3,0,0,0,1.65-.44,3.21,3.21,0,0,0,1-1l.92.76a4.52,4.52,0,0,1-1.67,1.37,4.7,4.7,0,0,1-1.95.41,4.57,4.57,0,0,1-1.74-.33,4,4,0,0,1-1.37-.93,4.18,4.18,0,0,1-.91-1.4,5,5,0,0,1,0-3.53,4.16,4.16,0,0,1,.9-1.4,4,4,0,0,1,1.35-.93,4.18,4.18,0,0,1,1.67-.33,4,4,0,0,1,1.71.34,3.72,3.72,0,0,1,1.27.91,4,4,0,0,1,.79,1.33,4.85,4.85,0,0,1,.27,1.63v.54Zm5.72-1a2.52,2.52,0,0,0-2.74-2.7,2.85,2.85,0,0,0-1.11.22,3.2,3.2,0,0,0-1,.6,3.25,3.25,0,0,0-.65.87,2.24,2.24,0,0,0-.24,1Z" transform="translate(0 54.55)"/><path class="cls-36" d="M540.4,378c0-.37,0-.75,0-1.13s0-.89,0-1.5h1.17V377h0a2.37,2.37,0,0,1,.36-.66,2.74,2.74,0,0,1,.56-.57,2.86,2.86,0,0,1,.78-.4,3,3,0,0,1,1-.15,3.33,3.33,0,0,1,.88.1l-.24,1.17a2,2,0,0,0-.68-.09,2.47,2.47,0,0,0-1.17.26,2.79,2.79,0,0,0-.81.67,2.67,2.67,0,0,0-.48.87,3,3,0,0,0-.15.9v4.76H540.4Z" transform="translate(0 54.55)"/><path class="cls-36" d="M810.14,369.2h1.19v6.59h0a3.05,3.05,0,0,1,.69-.74,4.21,4.21,0,0,1,.83-.51,4,4,0,0,1,.89-.28,4.43,4.43,0,0,1,.87-.09,4.82,4.82,0,0,1,1.81.33,4,4,0,0,1,1.41.93,4.09,4.09,0,0,1,.93,1.4,4.89,4.89,0,0,1,0,3.53,4.09,4.09,0,0,1-.93,1.4,4,4,0,0,1-1.41.93,4.82,4.82,0,0,1-1.81.33,4.43,4.43,0,0,1-.87-.09,3.57,3.57,0,0,1-.89-.29,4.16,4.16,0,0,1-.83-.5,3.05,3.05,0,0,1-.69-.74h0v1.41h-1.19Zm7.69,9.39a3.8,3.8,0,0,0-.23-1.31,3.07,3.07,0,0,0-.64-1.06,2.89,2.89,0,0,0-1-.71,3.11,3.11,0,0,0-1.32-.26,3.32,3.32,0,0,0-1.35.26,3.24,3.24,0,0,0-1.06.71,3.06,3.06,0,0,0-.7,1.06,3.46,3.46,0,0,0,0,2.63,3.06,3.06,0,0,0,.7,1.06,3.24,3.24,0,0,0,1.06.71,3.49,3.49,0,0,0,1.35.26,3.27,3.27,0,0,0,1.32-.26,2.89,2.89,0,0,0,1-.71,3.07,3.07,0,0,0,.64-1.06A3.81,3.81,0,0,0,817.83,378.59Z" transform="translate(0 54.55)"/><path class="cls-36" d="M821.62,377c0-.37,0-.75,0-1.13s0-.89-.05-1.5h1.17V376h0a2.37,2.37,0,0,1,.36-.66,2.57,2.57,0,0,1,.57-.57,3,3,0,0,1,.77-.4,3.09,3.09,0,0,1,1-.15,3.33,3.33,0,0,1,.88.1l-.23,1.17a2.05,2.05,0,0,0-.69-.09,2.52,2.52,0,0,0-1.17.26,2.79,2.79,0,0,0-.81.67,3.1,3.1,0,0,0-.48.87,3,3,0,0,0-.15.9v4.76h-1.19Z" transform="translate(0 54.55)"/><path class="cls-36" d="M828.34,378.92a3.72,3.72,0,0,0,.3,1.19,3.13,3.13,0,0,0,.67,1,3.24,3.24,0,0,0,1,.64,3,3,0,0,0,1.17.23,3,3,0,0,0,1.65-.44,3.21,3.21,0,0,0,1-1l.92.76a4.58,4.58,0,0,1-1.66,1.37,4.78,4.78,0,0,1-2,.41,4.48,4.48,0,0,1-1.73-.33,3.91,3.91,0,0,1-1.38-.93,4.34,4.34,0,0,1-.91-1.4,4.65,4.65,0,0,1-.33-1.77,4.83,4.83,0,0,1,.32-1.76,4.32,4.32,0,0,1,.9-1.4,4.18,4.18,0,0,1,1.35-.93,4.27,4.27,0,0,1,1.68-.33,4.11,4.11,0,0,1,1.71.34,3.81,3.81,0,0,1,2.05,2.24,4.85,4.85,0,0,1,.27,1.63v.54Zm5.72-1a2.52,2.52,0,0,0-2.73-2.7,2.87,2.87,0,0,0-1.12.22,3.33,3.33,0,0,0-1,.6,3.21,3.21,0,0,0-.64.87,2.25,2.25,0,0,0-.25,1Z" transform="translate(0 54.55)"/><path class="cls-36" d="M843.28,377.64v-.22a1.91,1.91,0,0,0-2.16-2.17,3.74,3.74,0,0,0-2.58,1l-.72-.85a4.75,4.75,0,0,1,3.57-1.22,3.88,3.88,0,0,1,1.18.18,2.6,2.6,0,0,1,1.64,1.47,3.19,3.19,0,0,1,.26,1.33v3.77c0,.32,0,.66,0,1s.06.65.1.88h-1.15a6.48,6.48,0,0,1-.08-.67c0-.24,0-.47,0-.7h0a3.16,3.16,0,0,1-1.23,1.21,3.67,3.67,0,0,1-1.74.37,3.91,3.91,0,0,1-1.08-.15,2.76,2.76,0,0,1-.92-.47,2.41,2.41,0,0,1-.65-.77,2.65,2.65,0,0,1,.29-2.69,3.32,3.32,0,0,1,1.33-.87,6.66,6.66,0,0,1,1.71-.36c.6,0,1.16-.07,1.66-.07Zm-.61,1c-.3,0-.68,0-1.13.05a6.68,6.68,0,0,0-1.29.21,3,3,0,0,0-1.07.53,1.22,1.22,0,0,0-.44,1,1.41,1.41,0,0,0,.17.71,1.44,1.44,0,0,0,.46.49,1.82,1.82,0,0,0,.64.27,2.87,2.87,0,0,0,.71.08,2.81,2.81,0,0,0,1.13-.21,2.38,2.38,0,0,0,.8-.59,2.32,2.32,0,0,0,.47-.86,3.32,3.32,0,0,0,.16-1.06v-.61Z" transform="translate(0 54.55)"/><path class="cls-36" d="M852,376.38a2.24,2.24,0,0,0-.72-.83,1.91,1.91,0,0,0-1.09-.3,2.62,2.62,0,0,0-.62.07,2,2,0,0,0-.57.22,1.39,1.39,0,0,0-.41.39,1.06,1.06,0,0,0-.15.58,1,1,0,0,0,.41.86,4,4,0,0,0,1.25.47l1.2.29a2.8,2.8,0,0,1,1.47.8,2.06,2.06,0,0,1,.58,1.5,2.42,2.42,0,0,1-.27,1.18,2.5,2.5,0,0,1-.74.81,3.28,3.28,0,0,1-1.06.46,5.32,5.32,0,0,1-1.2.14,4.37,4.37,0,0,1-1.81-.37,3.26,3.26,0,0,1-1.43-1.27l1-.7a2.86,2.86,0,0,0,.91.92,2.41,2.41,0,0,0,1.31.34,2.94,2.94,0,0,0,.72-.08,2.14,2.14,0,0,0,.64-.25,1.45,1.45,0,0,0,.45-.44,1.19,1.19,0,0,0,.17-.63,1,1,0,0,0-.47-.91,4,4,0,0,0-1.13-.44l-1.16-.27-.58-.18a2.77,2.77,0,0,1-.72-.38,2.25,2.25,0,0,1-.6-.66,1.83,1.83,0,0,1-.26-1,2.28,2.28,0,0,1,.27-1.13,2.13,2.13,0,0,1,.7-.79,3,3,0,0,1,1-.46,4.37,4.37,0,0,1,1.15-.15,3.92,3.92,0,0,1,1.64.34,2.46,2.46,0,0,1,1.17,1.17Z" transform="translate(0 54.55)"/><path class="cls-36" d="M860,375.46h-2.43v5a2.63,2.63,0,0,0,.09.76,1,1,0,0,0,.26.46.78.78,0,0,0,.38.23,2,2,0,0,0,.5.06,2.39,2.39,0,0,0,.63-.09,3.45,3.45,0,0,0,.59-.23l.06,1.1a3.92,3.92,0,0,1-1.61.3,3.07,3.07,0,0,1-.71-.09,1.64,1.64,0,0,1-.67-.34,2,2,0,0,1-.51-.68,2.82,2.82,0,0,1-.19-1.14v-5.31h-1.79v-1.08h1.79V372h1.18v2.37H860Z" transform="translate(0 54.55)"/><path class="cls-36" d="M806.36,391.14a.8.8,0,0,1-.27.62.83.83,0,0,1-1.19,0,.85.85,0,0,1,0-1.24.86.86,0,0,1,1.19,0A.8.8,0,0,1,806.36,391.14Zm-.27,11.67H804.9v-8.43h1.19Z" transform="translate(0 54.55)"/><path class="cls-36" d="M809.31,396.25c0-.31,0-.62,0-.93s0-.63-.07-.94h1.28v1.28h0a2.8,2.8,0,0,1,1.19-1.12,3.43,3.43,0,0,1,1.52-.37,3.75,3.75,0,0,1,.73.07,2.53,2.53,0,0,1,1.43.79,3,3,0,0,1,.53.88,2.82,2.82,0,0,1,1.14-1.28,3.12,3.12,0,0,1,1.63-.46,3.05,3.05,0,0,1,2.39.85,3.49,3.49,0,0,1,.78,2.44v5.35h-1.19v-4.92a3.58,3.58,0,0,0-.45-2,1.85,1.85,0,0,0-1.68-.68,2.12,2.12,0,0,0-1.11.26,2.1,2.1,0,0,0-.73.69,3.08,3.08,0,0,0-.41,1,5.38,5.38,0,0,0-.12,1.14v4.49H815v-4.92a3.58,3.58,0,0,0-.45-2,1.84,1.84,0,0,0-1.67-.68,3.2,3.2,0,0,0-.5.07,2,2,0,0,0-.8.39,2.94,2.94,0,0,0-.75,1,4,4,0,0,0-.33,1.8v4.32h-1.19Z" transform="translate(0 54.55)"/><path class="cls-36" d="M825,394.38h1.19v1.41h0a2.87,2.87,0,0,1,.69-.74,4.21,4.21,0,0,1,.83-.51,3.84,3.84,0,0,1,.89-.28,4.43,4.43,0,0,1,.87-.09,4.82,4.82,0,0,1,1.81.33,4.23,4.23,0,0,1,1.41.93,4.09,4.09,0,0,1,.93,1.4,4.89,4.89,0,0,1,0,3.53,4.09,4.09,0,0,1-.93,1.4,4.23,4.23,0,0,1-1.41.93,4.82,4.82,0,0,1-1.81.33,4.43,4.43,0,0,1-.87-.09,3.44,3.44,0,0,1-.89-.29,4.16,4.16,0,0,1-.83-.5,2.87,2.87,0,0,1-.69-.74h0V408H825Zm7.69,4.21a3.8,3.8,0,0,0-.23-1.31,3.07,3.07,0,0,0-.64-1.06,3,3,0,0,0-1-.71,3.11,3.11,0,0,0-1.32-.26,3.32,3.32,0,0,0-1.35.26,3.29,3.29,0,0,0-1.77,1.77,3.58,3.58,0,0,0,0,2.63,3.29,3.29,0,0,0,1.77,1.77,3.49,3.49,0,0,0,1.35.26,3.27,3.27,0,0,0,1.32-.26,3,3,0,0,0,1-.71,3.07,3.07,0,0,0,.64-1.06A3.81,3.81,0,0,0,832.7,398.59Z" transform="translate(0 54.55)"/><path class="cls-36" d="M837.82,402.81h-1.18V389.2h1.18Z" transform="translate(0 54.55)"/><path class="cls-36" d="M846.45,397.64v-.22a1.91,1.91,0,0,0-2.16-2.17,3.72,3.72,0,0,0-2.58,1l-.72-.85a4.74,4.74,0,0,1,3.57-1.22,3.93,3.93,0,0,1,1.18.18,2.7,2.7,0,0,1,1,.55,2.75,2.75,0,0,1,.66.92,3.19,3.19,0,0,1,.25,1.33v3.77c0,.32,0,.66,0,1s.06.65.1.88h-1.15a6.39,6.39,0,0,1-.09-.67c0-.24,0-.47,0-.7h0a3.23,3.23,0,0,1-1.23,1.21,3.7,3.7,0,0,1-1.74.37,3.91,3.91,0,0,1-1.08-.15,2.81,2.81,0,0,1-.93-.47,2.51,2.51,0,0,1-.64-.77,2.31,2.31,0,0,1-.25-1.07,2.36,2.36,0,0,1,.53-1.62,3.35,3.35,0,0,1,1.34-.87,6.66,6.66,0,0,1,1.71-.36c.6,0,1.16-.07,1.66-.07Zm-.62,1c-.3,0-.67,0-1.12.05a6.92,6.92,0,0,0-1.3.21,2.93,2.93,0,0,0-1.06.53,1.22,1.22,0,0,0-.44,1,1.41,1.41,0,0,0,.17.71,1.44,1.44,0,0,0,.46.49,1.82,1.82,0,0,0,.64.27,2.81,2.81,0,0,0,.71.08,2.73,2.73,0,0,0,1.12-.21,2.42,2.42,0,0,0,.81-.59,2.32,2.32,0,0,0,.47-.86,3.62,3.62,0,0,0,.16-1.06v-.61Z" transform="translate(0 54.55)"/><path class="cls-36" d="M851.88,394.38c0,.23,0,.46,0,.68s0,.44,0,.67h0a2.52,2.52,0,0,1,.51-.63,3.37,3.37,0,0,1,.68-.49,3.74,3.74,0,0,1,.8-.33,3.46,3.46,0,0,1,.84-.11,3.05,3.05,0,0,1,2.39.85,3.49,3.49,0,0,1,.78,2.44v5.35h-1.19v-4.67a3.91,3.91,0,0,0-.49-2.15,2,2,0,0,0-1.8-.74,3.75,3.75,0,0,0-.5.07,2.22,2.22,0,0,0-.87.39,2.82,2.82,0,0,0-.82,1,3.73,3.73,0,0,0-.36,1.8v4.32h-1.19v-6.57q0-.35,0-.87t-.06-1Z" transform="translate(0 54.55)"/><path class="cls-36" d="M865.47,395.46H863v5a2.63,2.63,0,0,0,.09.76,1.11,1.11,0,0,0,.25.46.86.86,0,0,0,.39.23,2,2,0,0,0,.5.06,2.39,2.39,0,0,0,.63-.09,3.45,3.45,0,0,0,.59-.23l0,1.1a3.84,3.84,0,0,1-1.6.3,3,3,0,0,1-.71-.09,1.64,1.64,0,0,1-.67-.34,1.87,1.87,0,0,1-.51-.68,2.81,2.81,0,0,1-.2-1.14v-5.31h-1.78v-1.08h1.78V392H863v2.37h2.43Z" transform="translate(0 54.55)"/><line class="cls-37" x1="878.68" y1="438.37" x2="954.68" y2="438.37"/><line class="cls-37" x1="461.57" y1="418.68" x2="385.57" y2="418.68"/><line class="cls-37" x1="549.8" y1="418.68" x2="625.8" y2="418.68"/><path class="cls-36" d="M2.92,182.37H4.11V189h0a3.21,3.21,0,0,1,.68-.74,4.47,4.47,0,0,1,.83-.5,4.21,4.21,0,0,1,.89-.29,4.59,4.59,0,0,1,.87-.09,4.78,4.78,0,0,1,1.81.33,4.32,4.32,0,0,1,1.42.93,4.36,4.36,0,0,1,.92,1.41,4.73,4.73,0,0,1,0,3.52,4.36,4.36,0,0,1-.92,1.41,4.3,4.3,0,0,1-1.42.92,4.73,4.73,0,0,1-2.68.25,4.21,4.21,0,0,1-.89-.29,4,4,0,0,1-.83-.51,3.16,3.16,0,0,1-.68-.73h0V196H2.92Zm7.69,9.4a3.81,3.81,0,0,0-.22-1.32,3.34,3.34,0,0,0-.64-1.06,3.13,3.13,0,0,0-1-.71,3.29,3.29,0,0,0-1.33-.26,3.49,3.49,0,0,0-1.35.26,3.52,3.52,0,0,0-1.06.71,3.32,3.32,0,0,0-.7,1.06,3.41,3.41,0,0,0-.25,1.32,3.32,3.32,0,0,0,.25,1.31,3.26,3.26,0,0,0,.7,1.07,3.72,3.72,0,0,0,1.06.71,3.49,3.49,0,0,0,1.35.26,3.29,3.29,0,0,0,1.33-.26,3,3,0,0,0,1.64-1.78A3.71,3.71,0,0,0,10.61,191.77Z" transform="translate(0 54.55)"/><path class="cls-36" d="M14.41,190.19c0-.38,0-.75,0-1.14s0-.88,0-1.49h1.17v1.56h0a3.22,3.22,0,0,1,.36-.65,3.08,3.08,0,0,1,.57-.57,3,3,0,0,1,.77-.41,3.13,3.13,0,0,1,1-.15,3.25,3.25,0,0,1,.88.11l-.23,1.17a2,2,0,0,0-.68-.09,2.47,2.47,0,0,0-1.17.26,2.43,2.43,0,0,0-.81.67,2.67,2.67,0,0,0-.48.87,2.93,2.93,0,0,0-.15.9V196H14.41Z" transform="translate(0 54.55)"/><path class="cls-36" d="M21.12,192.09a3.67,3.67,0,0,0,.31,1.19,3.28,3.28,0,0,0,.66,1,3.1,3.1,0,0,0,1,.64,2.85,2.85,0,0,0,1.17.24,3.08,3.08,0,0,0,1.65-.44,3.42,3.42,0,0,0,1.05-1l.92.75a4.5,4.5,0,0,1-1.67,1.37,4.59,4.59,0,0,1-2,.42,4.36,4.36,0,0,1-1.74-.34,4.23,4.23,0,0,1-1.38-.92,4.62,4.62,0,0,1-1.24-3.17,4.6,4.6,0,0,1,.33-1.76,4.14,4.14,0,0,1,3.92-2.67,4.21,4.21,0,0,1,1.71.34,3.82,3.82,0,0,1,1.27.91,3.93,3.93,0,0,1,.78,1.33,4.89,4.89,0,0,1,.27,1.63v.54Zm5.73-1a2.53,2.53,0,0,0-2.74-2.7,2.91,2.91,0,0,0-1.12.23,3.15,3.15,0,0,0-.94.6,3,3,0,0,0-.65.86,2.27,2.27,0,0,0-.24,1Z" transform="translate(0 54.55)"/><path class="cls-36" d="M36.06,190.81v-.21a1.92,1.92,0,0,0-2.16-2.18,3.71,3.71,0,0,0-2.57,1l-.72-.85a4.77,4.77,0,0,1,3.56-1.22,3.88,3.88,0,0,1,1.18.18,2.55,2.55,0,0,1,1,.55A2.78,2.78,0,0,1,37,189a3.16,3.16,0,0,1,.25,1.33v3.76c0,.32,0,.66,0,1s.06.64.09.87H36.24c0-.2-.06-.42-.08-.67s0-.47,0-.7h0a3.26,3.26,0,0,1-1.23,1.22,3.85,3.85,0,0,1-1.74.37,3.58,3.58,0,0,1-1.08-.16,2.7,2.7,0,0,1-.93-.46,2.47,2.47,0,0,1-.65-.78,2.25,2.25,0,0,1-.24-1.07,2.33,2.33,0,0,1,.53-1.61,3.28,3.28,0,0,1,1.33-.87,6.84,6.84,0,0,1,1.71-.36c.61,0,1.16-.08,1.67-.08Zm-.61,1c-.3,0-.67,0-1.12,0a6.09,6.09,0,0,0-1.3.22,2.78,2.78,0,0,0-1.06.53,1.19,1.19,0,0,0-.44,1,1.37,1.37,0,0,0,.63,1.2,2.17,2.17,0,0,0,.64.27,3.36,3.36,0,0,0,.71.08,2.6,2.6,0,0,0,1.12-.22,2.26,2.26,0,0,0,.8-.58,2.32,2.32,0,0,0,.48-.87,3.6,3.6,0,0,0,.15-1v-.61Z" transform="translate(0 54.55)"/><path class="cls-36" d="M44.83,189.56a2.16,2.16,0,0,0-.72-.83,1.87,1.87,0,0,0-1.1-.31,2.68,2.68,0,0,0-.62.07,2.06,2.06,0,0,0-.57.23,1.22,1.22,0,0,0-.4.38,1.07,1.07,0,0,0-.16.58,1,1,0,0,0,.42.87,4,4,0,0,0,1.24.46l1.21.29a2.88,2.88,0,0,1,1.46.8,2.08,2.08,0,0,1,.59,1.5,2.32,2.32,0,0,1-.28,1.18,2.4,2.4,0,0,1-.74.81,3,3,0,0,1-1,.46,5,5,0,0,1-1.21.15,4.54,4.54,0,0,1-1.81-.37,3.44,3.44,0,0,1-1.43-1.27l1-.7a2.73,2.73,0,0,0,.91.91,2.38,2.38,0,0,0,1.3.35,3.53,3.53,0,0,0,.72-.08,2,2,0,0,0,.64-.26,1.27,1.27,0,0,0,.45-.44,1.1,1.1,0,0,0,.17-.63,1,1,0,0,0-.47-.91,4.37,4.37,0,0,0-1.13-.44l-1.15-.27a4.42,4.42,0,0,1-.59-.18,2.79,2.79,0,0,1-.72-.38,2.22,2.22,0,0,1-.6-.65,1.86,1.86,0,0,1-.25-1,2.46,2.46,0,0,1,.26-1.14,2.31,2.31,0,0,1,.7-.79,3.66,3.66,0,0,1,1-.46,4.43,4.43,0,0,1,1.15-.15,4,4,0,0,1,1.64.34,2.46,2.46,0,0,1,1.17,1.17Z" transform="translate(0 54.55)"/><path class="cls-36" d="M52.75,188.64H50.32v5a2.71,2.71,0,0,0,.09.77,1.06,1.06,0,0,0,.25.46.84.84,0,0,0,.39.22,1.53,1.53,0,0,0,.49.07,2.28,2.28,0,0,0,.63-.09,2.69,2.69,0,0,0,.6-.24l0,1.1a3.71,3.71,0,0,1-1.6.31,2.94,2.94,0,0,1-.71-.09,1.82,1.82,0,0,1-.68-.34,1.92,1.92,0,0,1-.5-.69,2.79,2.79,0,0,1-.2-1.13v-5.31H47.35v-1.08h1.78v-2.38h1.19v2.38h2.43Z" transform="translate(0 54.55)"/><path class="cls-36" d="M65.49,190.81v-.21a1.92,1.92,0,0,0-2.16-2.18,3.71,3.71,0,0,0-2.57,1l-.72-.85a4.77,4.77,0,0,1,3.56-1.22,3.88,3.88,0,0,1,1.18.18,2.55,2.55,0,0,1,1,.55,2.78,2.78,0,0,1,.67.93,3.16,3.16,0,0,1,.25,1.33v3.76a9.15,9.15,0,0,0,0,1c0,.35.06.64.09.87H65.67c0-.2-.06-.42-.08-.67s0-.47,0-.7h0a3.21,3.21,0,0,1-1.24,1.22,3.78,3.78,0,0,1-1.73.37,3.58,3.58,0,0,1-1.08-.16,2.7,2.7,0,0,1-.93-.46,2.34,2.34,0,0,1-.65-.78,2.25,2.25,0,0,1-.24-1.07,2.33,2.33,0,0,1,.53-1.61,3.21,3.21,0,0,1,1.33-.87,6.84,6.84,0,0,1,1.71-.36c.61,0,1.16-.08,1.67-.08Zm-.61,1c-.3,0-.67,0-1.13,0a6,6,0,0,0-1.29.22,2.71,2.71,0,0,0-1.06.53,1.19,1.19,0,0,0-.44,1,1.37,1.37,0,0,0,.63,1.2,2.17,2.17,0,0,0,.64.27,3.36,3.36,0,0,0,.71.08,2.6,2.6,0,0,0,1.12-.22,2.26,2.26,0,0,0,.8-.58,2.32,2.32,0,0,0,.48-.87,3.6,3.6,0,0,0,.15-1v-.61Z" transform="translate(0 54.55)"/><path class="cls-36" d="M73.72,188.64h-2V196H70.53v-7.34H68.75v-1.08h1.78v-2.31a3.1,3.1,0,0,1,.78-2.38,2.88,2.88,0,0,1,2-.71,4.36,4.36,0,0,1,.51,0l.51.09-.21,1.08-.45-.09a3.71,3.71,0,0,0-.47,0,1.66,1.66,0,0,0-.79.16,1.1,1.1,0,0,0-.47.46,2.07,2.07,0,0,0-.22.69,7.48,7.48,0,0,0,0,.85v2.16h2Z" transform="translate(0 54.55)"/><path class="cls-36" d="M79.84,188.64H77.41v5a2.71,2.71,0,0,0,.09.77,1.06,1.06,0,0,0,.25.46.84.84,0,0,0,.39.22,1.53,1.53,0,0,0,.49.07,2.28,2.28,0,0,0,.63-.09,2.69,2.69,0,0,0,.6-.24l0,1.1a3.71,3.71,0,0,1-1.6.31,2.94,2.94,0,0,1-.71-.09,1.82,1.82,0,0,1-.68-.34,1.92,1.92,0,0,1-.5-.69,2.79,2.79,0,0,1-.2-1.13v-5.31H74.44v-1.08h1.78v-2.38h1.19v2.38h2.43Z" transform="translate(0 54.55)"/><path class="cls-36" d="M82.65,192.09a3.42,3.42,0,0,0,.3,1.19,3.13,3.13,0,0,0,.67,1,3,3,0,0,0,.95.64,2.85,2.85,0,0,0,1.17.24,3,3,0,0,0,1.65-.44,3.42,3.42,0,0,0,1-1l.92.75a4.43,4.43,0,0,1-1.67,1.37,4.55,4.55,0,0,1-2,.42,4.39,4.39,0,0,1-1.74-.34,4.08,4.08,0,0,1-1.37-.92,4.33,4.33,0,0,1-.91-1.41,4.93,4.93,0,0,1,0-3.52,4.48,4.48,0,0,1,.9-1.41,4.12,4.12,0,0,1,1.35-.93,4.43,4.43,0,0,1,3.38,0,3.72,3.72,0,0,1,1.27.91,4,4,0,0,1,.79,1.33,4.89,4.89,0,0,1,.27,1.63v.54Zm5.72-1a2.7,2.7,0,0,0-.72-2,2.66,2.66,0,0,0-2-.75,2.87,2.87,0,0,0-1.11.23,3.07,3.07,0,0,0-1.6,1.46,2.27,2.27,0,0,0-.24,1Z" transform="translate(0 54.55)"/><path class="cls-36" d="M92.31,190.19c0-.38,0-.75,0-1.14s0-.88,0-1.49h1.17v1.56h0a2.47,2.47,0,0,1,.36-.65,2.74,2.74,0,0,1,.56-.57,2.88,2.88,0,0,1,.78-.41,3,3,0,0,1,1-.15,3.31,3.31,0,0,1,.88.11l-.24,1.17a2,2,0,0,0-.68-.09,2.47,2.47,0,0,0-1.17.26,2.74,2.74,0,0,0-1.29,1.54,2.93,2.93,0,0,0-.15.9V196H92.31Z" transform="translate(0 54.55)"/><path class="cls-36" d="M.09,209.43c0-.31,0-.62,0-.94L0,207.56H1.28v1.27h0a2.8,2.8,0,0,1,1.2-1.11A3.45,3.45,0,0,1,4,207.34a3.83,3.83,0,0,1,.73.07,2.9,2.9,0,0,1,.75.26,2.74,2.74,0,0,1,.67.53,2.84,2.84,0,0,1,.53.89,2.74,2.74,0,0,1,1.15-1.28,3.13,3.13,0,0,1,1.63-.47,3.07,3.07,0,0,1,2.39.86,3.49,3.49,0,0,1,.77,2.44V216H11.47v-4.91a3.61,3.61,0,0,0-.45-2,1.88,1.88,0,0,0-1.68-.68,2.22,2.22,0,0,0-1.11.26,2.2,2.2,0,0,0-.73.69,3.13,3.13,0,0,0-.41,1A5.24,5.24,0,0,0,7,211.5V216H5.78v-4.91a3.61,3.61,0,0,0-.45-2,1.88,1.88,0,0,0-1.68-.68,3.3,3.3,0,0,0-.49.07,1.83,1.83,0,0,0-.8.4,2.77,2.77,0,0,0-.75,1,4,4,0,0,0-.33,1.8V216H.09Z" transform="translate(0 54.55)"/><path class="cls-36" d="M21.19,210.81v-.21A1.92,1.92,0,0,0,19,208.42a3.72,3.72,0,0,0-2.58,1l-.72-.85a4.78,4.78,0,0,1,3.57-1.22,3.82,3.82,0,0,1,1.17.18,2.67,2.67,0,0,1,1,.55,2.9,2.9,0,0,1,.66.93,3.16,3.16,0,0,1,.25,1.33v3.76c0,.32,0,.66.05,1s.06.64.1.87H21.37a5.74,5.74,0,0,1-.09-.67c0-.24,0-.47,0-.7h0A3.26,3.26,0,0,1,20,215.83a3.82,3.82,0,0,1-1.74.37,3.58,3.58,0,0,1-1.08-.16,2.7,2.7,0,0,1-.93-.46,2.31,2.31,0,0,1-.64-.78,2.14,2.14,0,0,1-.25-1.07,2.33,2.33,0,0,1,.53-1.61,3.25,3.25,0,0,1,1.34-.87,6.66,6.66,0,0,1,1.71-.36c.6,0,1.16-.08,1.66-.08Zm-.62,1c-.3,0-.67,0-1.12,0a6.2,6.2,0,0,0-1.3.22,2.78,2.78,0,0,0-1.06.53,1.22,1.22,0,0,0-.44,1,1.37,1.37,0,0,0,.63,1.2,2.17,2.17,0,0,0,.64.27,3.36,3.36,0,0,0,.71.08,2.57,2.57,0,0,0,1.12-.22,2.4,2.4,0,0,0,.81-.58,2.44,2.44,0,0,0,.47-.87,3.6,3.6,0,0,0,.16-1v-.61Z" transform="translate(0 54.55)"/><path class="cls-36" d="M30,209.56a2.16,2.16,0,0,0-.72-.83,1.85,1.85,0,0,0-1.1-.31,2.68,2.68,0,0,0-.62.07,1.88,1.88,0,0,0-.56.23,1.25,1.25,0,0,0-.41.38,1.06,1.06,0,0,0-.15.58,1,1,0,0,0,.41.87A4.09,4.09,0,0,0,28,211l1.21.29a2.87,2.87,0,0,1,1.47.8,2.07,2.07,0,0,1,.58,1.5,2.3,2.3,0,0,1-1,2,3,3,0,0,1-1.05.46,4.87,4.87,0,0,1-1.2.15,4.5,4.5,0,0,1-1.81-.37,3.32,3.32,0,0,1-1.43-1.27l1-.7a2.73,2.73,0,0,0,.91.91,2.42,2.42,0,0,0,1.31.35,3.53,3.53,0,0,0,.72-.08,2,2,0,0,0,.63-.26,1.27,1.27,0,0,0,.45-.44,1.11,1.11,0,0,0,.18-.63,1,1,0,0,0-.47-.91,4.31,4.31,0,0,0-1.14-.44l-1.15-.27a4.36,4.36,0,0,1-.58-.18,2.5,2.5,0,0,1-.72-.38,2.12,2.12,0,0,1-.61-.65,2,2,0,0,1-.25-1,2.46,2.46,0,0,1,.26-1.14,2.42,2.42,0,0,1,.7-.79,3.66,3.66,0,0,1,1-.46,4.5,4.5,0,0,1,1.16-.15,4,4,0,0,1,1.63.34A2.38,2.38,0,0,1,31,208.85Z" transform="translate(0 54.55)"/><path class="cls-36" d="M37.87,208.64H35.44v5a2.71,2.71,0,0,0,.09.77,1.18,1.18,0,0,0,.25.46.84.84,0,0,0,.39.22,1.59,1.59,0,0,0,.5.07,2.39,2.39,0,0,0,.63-.09,2.81,2.81,0,0,0,.59-.24l0,1.1a3.68,3.68,0,0,1-1.6.31,3,3,0,0,1-.71-.09,1.7,1.7,0,0,1-.67-.34,1.83,1.83,0,0,1-.51-.69,2.79,2.79,0,0,1-.2-1.13v-5.31H32.47v-1.08h1.78v-2.38h1.19v2.38h2.43Z" transform="translate(0 54.55)"/><path class="cls-36" d="M40.68,212.09a3.67,3.67,0,0,0,.31,1.19,3.1,3.1,0,0,0,.66,1,3.18,3.18,0,0,0,1,.64,2.9,2.9,0,0,0,1.18.24,3,3,0,0,0,1.64-.44,3.58,3.58,0,0,0,1.06-1l.91.75a4.48,4.48,0,0,1-1.66,1.37,4.62,4.62,0,0,1-1.95.42,4.32,4.32,0,0,1-1.74-.34,4,4,0,0,1-1.38-.92,4.5,4.5,0,0,1-.91-1.41,4.63,4.63,0,0,1-.33-1.76,4.79,4.79,0,0,1,.32-1.76,4.48,4.48,0,0,1,.9-1.41,4.34,4.34,0,0,1,1.35-.93,4.46,4.46,0,0,1,3.39,0,3.73,3.73,0,0,1,2,2.24,4.89,4.89,0,0,1,.27,1.63v.54Zm5.72-1a2.7,2.7,0,0,0-.72-2,2.65,2.65,0,0,0-2-.75,2.88,2.88,0,0,0-1.12.23,3.15,3.15,0,0,0-.94.6,3,3,0,0,0-.65.86,2.27,2.27,0,0,0-.24,1Z" transform="translate(0 54.55)"/><path class="cls-36" d="M56.36,209.54a2.66,2.66,0,0,0-.86-.8,2.45,2.45,0,0,0-1.25-.32,3.27,3.27,0,0,0-1.32.23,3,3,0,0,0-1,.71,2.86,2.86,0,0,0-.63,1.07,4.19,4.19,0,0,0,0,2.68,3,3,0,0,0,.63,1.07,2.83,2.83,0,0,0,1,.7,3.11,3.11,0,0,0,1.32.24,2.36,2.36,0,0,0,1.25-.33,2.53,2.53,0,0,0,.86-.79l1,.74a4.07,4.07,0,0,1-1.42,1.09,4.32,4.32,0,0,1-1.66.37,4.76,4.76,0,0,1-1.85-.32A4.08,4.08,0,0,1,51,215a3.94,3.94,0,0,1-.89-1.41,5.37,5.37,0,0,1,0-3.54,4.07,4.07,0,0,1,.89-1.42,4.2,4.2,0,0,1,1.42-.92,4.59,4.59,0,0,1,1.85-.32,4.32,4.32,0,0,1,1.66.37,4,4,0,0,1,1.42,1.09Z" transform="translate(0 54.55)"/><path class="cls-36" d="M63.61,208.64H61.18v5a2.71,2.71,0,0,0,.09.77,1.18,1.18,0,0,0,.25.46.84.84,0,0,0,.39.22,1.59,1.59,0,0,0,.5.07A2.39,2.39,0,0,0,63,215a2.81,2.81,0,0,0,.59-.24l0,1.1a3.68,3.68,0,0,1-1.6.31,3,3,0,0,1-.71-.09,1.7,1.7,0,0,1-.67-.34,1.83,1.83,0,0,1-.51-.69A2.79,2.79,0,0,1,60,214v-5.31H58.21v-1.08H60v-2.38h1.19v2.38h2.43Z" transform="translate(0 54.55)"/><path class="cls-36" d="M74.1,211.77a4.63,4.63,0,0,1-.33,1.76,4.23,4.23,0,0,1-.93,1.41,4.15,4.15,0,0,1-1.41.92,4.93,4.93,0,0,1-3.6,0,4.15,4.15,0,0,1-2.34-2.33,4.86,4.86,0,0,1,0-3.52,4.23,4.23,0,0,1,.93-1.41,4.28,4.28,0,0,1,1.41-.93,5.07,5.07,0,0,1,3.6,0,4.18,4.18,0,0,1,1.41.93,4.23,4.23,0,0,1,.93,1.41A4.6,4.6,0,0,1,74.1,211.77Zm-1.29,0a3.81,3.81,0,0,0-.23-1.32,3.17,3.17,0,0,0-.64-1.06,3,3,0,0,0-1-.71,3.32,3.32,0,0,0-1.33-.26,3.27,3.27,0,0,0-1.32.26,3,3,0,0,0-1,.71,3.31,3.31,0,0,0-.63,1.06,3.81,3.81,0,0,0-.22,1.32,3.71,3.71,0,0,0,.22,1.31,3.26,3.26,0,0,0,.63,1.07,3.13,3.13,0,0,0,1,.71,3.27,3.27,0,0,0,1.32.26,3.32,3.32,0,0,0,1.33-.26,3,3,0,0,0,1.63-1.78A3.72,3.72,0,0,0,72.81,211.77Z" transform="translate(0 54.55)"/><path class="cls-36" d="M76.62,209.43c0-.31,0-.62,0-.94s0-.62-.07-.93h1.28v1.27h0a2.8,2.8,0,0,1,1.2-1.11,3.42,3.42,0,0,1,1.52-.38,3.9,3.9,0,0,1,.73.07,3,3,0,0,1,.74.26,2.79,2.79,0,0,1,.68.53,3,3,0,0,1,.53.89,2.77,2.77,0,0,1,1.14-1.28,3.16,3.16,0,0,1,1.63-.47,3.06,3.06,0,0,1,2.39.86,3.49,3.49,0,0,1,.78,2.44V216H88v-4.91a3.61,3.61,0,0,0-.45-2,1.87,1.87,0,0,0-1.67-.68,2.24,2.24,0,0,0-1.12.26,2.3,2.3,0,0,0-.73.69,3.12,3.12,0,0,0-.4,1,4.69,4.69,0,0,0-.13,1.14V216H82.31v-4.91a3.61,3.61,0,0,0-.45-2,1.87,1.87,0,0,0-1.67-.68,3.36,3.36,0,0,0-.5.07,1.94,1.94,0,0,0-.8.4,2.88,2.88,0,0,0-.74,1,3.87,3.87,0,0,0-.34,1.8V216H76.62Z" transform="translate(0 54.55)"/><path class="cls-36" d="M95.45,214.52l2.58-7h1.44l-4.22,10.62a4.45,4.45,0,0,1-1,1.55,2.31,2.31,0,0,1-1.68.57l-.55,0a2.54,2.54,0,0,1-.55-.1l.13-1.16a1.93,1.93,0,0,0,.9.2,1.25,1.25,0,0,0,1-.4,3.38,3.38,0,0,0,.63-1.11l.61-1.62-3.46-8.53h1.5Z" transform="translate(0 54.55)"/><line class="cls-37" x1="108.36" y1="246.54" x2="184.36" y2="246.54"/></g></g></svg>