<svg xmlns="http://www.w3.org/2000/svg" viewBox="0 0 400.02 176.95"><defs><style>.cls-1{fill:none;stroke:#ff8300;}.cls-2{fill:#53575a;}.cls-3{fill:#ff8300;}</style></defs><g id="Layer_2" data-name="Layer 2"><g id="Layer_1-2" data-name="Layer 1"><line class="cls-1" x1="131.41" y1="176.45" x2="395.41" y2="176.45"/><path class="cls-2" d="M126.54,155.68v-.6h.08a33,33,0,0,0,4.95-.31,6.42,6.42,0,0,0,3.18-1.24,5.28,5.28,0,0,0,1.68-2.58,15.21,15.21,0,0,0,.51-4.39V95.91c0-3.15-.55-5.32-1.67-6.49s-3.11-1.85-6-2h-2.75v-.51H159.3a35.37,35.37,0,0,1,10,1.29,22,22,0,0,1,6.88,3.7,14.55,14.55,0,0,1,3.91,5.37,17.5,17.5,0,0,1,1.34,6.92q0,7.74-5.25,12.3a20.77,20.77,0,0,1-6.88,3.7,18.4,18.4,0,0,1-4,1c-1.4.17-2.88.31-4.43.43a13,13,0,0,1,3.83,1.8,19.78,19.78,0,0,1,4.6,4.73l16.17,22.45a8.56,8.56,0,0,0,2.88,2.53,16.62,16.62,0,0,0,3.27,1.38,13.2,13.2,0,0,0,2.79.56c.8.06,1.29.09,1.46.09h.09v.6h-17.2l-21-29.07a19.75,19.75,0,0,0-2.37-2.71,9.69,9.69,0,0,0-2.06-1.5,6.57,6.57,0,0,0-1.94-.69,10.58,10.58,0,0,0-2-.17h-3.18v25.11a16.57,16.57,0,0,0,.39,3.95,5.46,5.46,0,0,0,1.29,2.5,5.62,5.62,0,0,0,2.36,1.42,14.05,14.05,0,0,0,3.62.56h2.66v.6h-30ZM146.23,121h12.39a12.36,12.36,0,0,0,7.22-2.15,13.85,13.85,0,0,0,1.94-1.76,15.11,15.11,0,0,0,1.84-2.54,20.83,20.83,0,0,0,1.64-4.69,25.62,25.62,0,0,0,.6-5.72q0-7.39-3.18-11.86a11.66,11.66,0,0,0-10.06-4.91H153a11.75,11.75,0,0,0-3.19.69,5.36,5.36,0,0,0-2.1,1.46,5.53,5.53,0,0,0-1.16,2.5,17.62,17.62,0,0,0-.35,3.78V121Z"/><path class="cls-2" d="M244.27,154.22a20.88,20.88,0,0,0,5-2.24,18.57,18.57,0,0,0,3.83-3.14,25.14,25.14,0,0,0,2.84-3.65,29.69,29.69,0,0,0,3.87-10h.6L258,155.68H201.1v-.6a33,33,0,0,0,5-.31,6.74,6.74,0,0,0,3.22-1.24A5.14,5.14,0,0,0,211,151a15.16,15.16,0,0,0,.52-4.39V96.94a3.15,3.15,0,0,0,0-.52,2.92,2.92,0,0,1,0-.51c0-3.15-.56-5.32-1.68-6.49s-3.11-1.85-6-2H201v-.51h54.53v18.06h-.6v-.09q-.69-2.84-1.59-5.93a17.84,17.84,0,0,0-2.8-5.64,14.62,14.62,0,0,0-5.16-4.21,18.88,18.88,0,0,0-8.6-1.68H220.62V121h12.3a9.89,9.89,0,0,0,5.81-1.68,11.36,11.36,0,0,0,4.51-7.35,22.06,22.06,0,0,0,.26-2.41v-.26h.6v24h-.6v-.26a24.42,24.42,0,0,0-.26-2.49,11.2,11.2,0,0,0-1.38-3.92,10.81,10.81,0,0,0-3.31-3.57,10.37,10.37,0,0,0-6.06-1.54H220.62V145.1a8.85,8.85,0,0,1,.09,1.55,16.57,16.57,0,0,0,.39,3.95,5.27,5.27,0,0,0,1.29,2.5,5.55,5.55,0,0,0,2.36,1.42,14,14,0,0,0,3.61.56h9.55A22,22,0,0,0,244.27,154.22Z"/><path class="cls-2" d="M266,154.9c.06,0,.56-.05,1.51-.17a10.3,10.3,0,0,0,3.35-1.16,17.82,17.82,0,0,0,4.08-3,16.68,16.68,0,0,0,3.7-5.94l23.14-57.79h.68l23.05,57.62a37.55,37.55,0,0,0,2.84,5.81,11.81,11.81,0,0,0,2.58,3,5.78,5.78,0,0,0,2.62,1.2l3.06.47v.61H308.43v-.61c2.06-.11,3.82-.24,5.29-.38a6,6,0,0,0,3.31-1.16,3.41,3.41,0,0,0,.94-3.06,23.19,23.19,0,0,0-1.72-6.06l-6.36-16h-24l-6.54,16.26a8.25,8.25,0,0,0-.73,4.34,5.68,5.68,0,0,0,1.33,2.92,7.06,7.06,0,0,0,2.54,1.81,15.73,15.73,0,0,0,2.92,1,15.44,15.44,0,0,0,2.45.34l1.12,0v.61H266Zm31.91-56.58-11.79,29.32h23.48Z"/><path class="cls-2" d="M397,155.68H341.54v-.6a32,32,0,0,0,4.9-.31,6.66,6.66,0,0,0,3.18-1.24,5.14,5.14,0,0,0,1.72-2.58,14.82,14.82,0,0,0,.52-4.39V95.91c0-3.15-.58-5.32-1.72-6.49s-3.16-1.85-6-2h-2.67v-.51h29.93v.43h0v.08h-3.53a11.76,11.76,0,0,0-3.18.69,5.47,5.47,0,0,0-2.11,1.46A5.75,5.75,0,0,0,361.4,92a17.68,17.68,0,0,0-.34,3.78v50.83a16.57,16.57,0,0,0,.39,3.95,5.27,5.27,0,0,0,1.29,2.5,5.62,5.62,0,0,0,2.36,1.42,14.36,14.36,0,0,0,3.7.56h8.6a22,22,0,0,0,6.36-.86,20.71,20.71,0,0,0,5-2.24,18.57,18.57,0,0,0,3.83-3.14,25.14,25.14,0,0,0,2.84-3.65,31.12,31.12,0,0,0,4-10h.6l-2.5,20.47Z"/><path class="cls-3" d="M31.62,22.62c-.41.26-.7.19-.87-.18a2.78,2.78,0,0,0-.5-.82,7.67,7.67,0,0,0-1.44-1.06,3,3,0,0,0-2.19-.31,3.65,3.65,0,0,0-2.37,2.19c-.67,1.29-1.21,2.39-1.63,3.31A67.07,67.07,0,0,0,19.06,36.5Q17.62,42.38,16.62,48q5-1.87,10.63-4.12a76.25,76.25,0,0,1,11.87-3.63,52,52,0,0,1,6.19-.94A14.58,14.58,0,0,1,51.5,40c.42.17.88.38,1.38.62A1.22,1.22,0,0,1,53.5,42a2.05,2.05,0,0,1-2.25.38,9,9,0,0,0-2.63-.63,14.69,14.69,0,0,0-4.87.31c-1.58.38-3.13.77-4.63,1.19s-2.93.86-4.31,1.31S32.17,45.5,31,46q-4.12,1.38-7.88,3.06c-2.5,1.13-4.95,2.32-7.37,3.56-.42,2.59-.79,5.26-1.13,8s-.66,5.59-1,8.5c-.08.92-.18,1.86-.31,2.82a13.26,13.26,0,0,0-.06,2.81,9.5,9.5,0,0,0,.5,2.06q.38,1.06.63,2.07a80.38,80.38,0,0,1,2,23.62c0,.92-.05,1.85-.13,2.81a12.16,12.16,0,0,1-.5,2.63,4.7,4.7,0,0,1-1.13,1.94,2.69,2.69,0,0,1-2,.74,2.49,2.49,0,0,1-1.81-.68,4.77,4.77,0,0,1-1.06-1.69,10.9,10.9,0,0,1-.56-2.13c-.13-.74-.23-1.45-.31-2.12A74.45,74.45,0,0,1,7.81,92.06q-.06-6.18.31-12.56c.09-.83.19-1.67.32-2.5a9.57,9.57,0,0,0,.06-2.38,5.37,5.37,0,0,0-.69-2c-.37-.66-.73-1.33-1.06-2A18.46,18.46,0,0,0,4.56,67L2,63.75c-.42-.5-.85-1.06-1.31-1.69A3.38,3.38,0,0,1,0,60a3.78,3.78,0,0,1,.5-1.88A7.64,7.64,0,0,1,1.75,56.5a9.27,9.27,0,0,1,1.63-1.31c.58-.38,1.08-.73,1.5-1.07,1.16-.74,2.27-1.39,3.31-1.93l3.43-1.81c.76-4.09,1.73-8.27,2.94-12.57A102.9,102.9,0,0,1,18.62,26a36.52,36.52,0,0,1,2.69-4.88,8.65,8.65,0,0,1,4.07-3.37c0,.08.08,0,.24-.13a4.52,4.52,0,0,1,2.88.57c.67.46,1.33.93,2,1.43A8.53,8.53,0,0,0,31.56,21,1.16,1.16,0,0,1,31.62,22.62ZM4.5,59.88a31.45,31.45,0,0,1,2.56,2.87A25.28,25.28,0,0,1,9.25,66q.38-2.62.69-5.31t.81-5.19l-.13-.12c-1.08.74-2.16,1.45-3.24,2.12A13.05,13.05,0,0,0,4.5,59.88Z"/><path class="cls-3" d="M41.62,57.38A24.48,24.48,0,0,0,40,61.94a21.28,21.28,0,0,0-.75,5.5,9.27,9.27,0,0,0,1.13,4.68,4.4,4.4,0,0,0,4,2.13,12.37,12.37,0,0,0,6.18-1.37A55.58,55.58,0,0,0,55.62,70c1.67-1.17,3.23-2.31,4.69-3.44s2.77-2.23,3.94-3.31a70.25,70.25,0,0,0,6.19-5.37Q73.37,55,76.25,52a3.08,3.08,0,0,0,.81-1A11.91,11.91,0,0,1,78,49.62a7.08,7.08,0,0,1,1.06-1.06,1,1,0,0,1,1.19-.06c.58.25.71.75.37,1.5a8.57,8.57,0,0,1-.87,1.62A4.63,4.63,0,0,1,79,53c-.33.42-.67.88-1,1.38a94.75,94.75,0,0,1-6.56,6.87q-3.45,3.25-7.06,6.5a51.47,51.47,0,0,1-10.5,7.5,28.06,28.06,0,0,1-3.13,1.44,17.89,17.89,0,0,1-3.63,1,16.66,16.66,0,0,1-3.81.19,7.66,7.66,0,0,1-3.56-1.13,5.72,5.72,0,0,1-1.31-1.19l-1.19-1.44a11.83,11.83,0,0,1-1.56-5.31,23.82,23.82,0,0,1,.37-5.93A38.22,38.22,0,0,1,39.62,52.5a52.73,52.73,0,0,1,5-7.38,14.68,14.68,0,0,1,7.63-4.74,6,6,0,0,1,4.19,1.12,4.28,4.28,0,0,1,1.31,4,8.21,8.21,0,0,1-1.5,3.75,24.28,24.28,0,0,1-2.63,3.13,27.81,27.81,0,0,1-4.93,3.93C46.89,57.44,44.54,57.79,41.62,57.38ZM53.25,44a13.07,13.07,0,0,0-6.63,4.56,45.73,45.73,0,0,0-4.24,6.94A7.82,7.82,0,0,0,47,54.25a33,33,0,0,0,3.25-2.63c.92-1,1.87-2,2.87-3a5.38,5.38,0,0,0,1.38-4.24A1.34,1.34,0,0,0,53.25,44Z"/><path class="cls-3" d="M77.75,57.38a23.72,23.72,0,0,0-1.63,4.56,21.28,21.28,0,0,0-.75,5.5,9.37,9.37,0,0,0,1.13,4.68,4.41,4.41,0,0,0,4,2.13,12.41,12.41,0,0,0,6.19-1.37q2.93-1.5,5.06-2.88c1.66-1.17,3.23-2.31,4.69-3.44s2.77-2.23,3.93-3.31a70.25,70.25,0,0,0,6.19-5.37Q109.5,55,112.37,52a3.21,3.21,0,0,0,.82-1,11.86,11.86,0,0,1,.93-1.38,7.13,7.13,0,0,1,1.07-1.06,1,1,0,0,1,1.18-.06c.59.25.71.75.38,1.5a9.09,9.09,0,0,1-.88,1.62,4.22,4.22,0,0,1-.75,1.38c-.33.42-.66.88-1,1.38a94.75,94.75,0,0,1-6.56,6.87q-3.44,3.25-7.06,6.5A51.47,51.47,0,0,1,90,75.25a28.06,28.06,0,0,1-3.13,1.44,17.79,17.79,0,0,1-3.62,1,16.69,16.69,0,0,1-3.81.19,7.7,7.7,0,0,1-3.57-1.13,5.93,5.93,0,0,1-1.31-1.19l-1.19-1.44a12.09,12.09,0,0,1-1.56-5.31,23.83,23.83,0,0,1,.38-5.93,35.88,35.88,0,0,1,1.56-5.76,36.48,36.48,0,0,1,2-4.62,51.88,51.88,0,0,1,5-7.38,14.61,14.61,0,0,1,7.62-4.74,6,6,0,0,1,4.19,1.12,4.28,4.28,0,0,1,1.31,4,8,8,0,0,1-1.5,3.75,25.06,25.06,0,0,1-2.62,3.13,27.88,27.88,0,0,1-4.94,3.93C83,57.44,80.66,57.79,77.75,57.38ZM89.37,44a13,13,0,0,0-6.62,4.56A45.77,45.77,0,0,0,78.5,55.5a7.8,7.8,0,0,0,4.62-1.25,33,33,0,0,0,3.25-2.63q1.38-1.5,2.88-3a5.34,5.34,0,0,0,1.37-4.24A1.34,1.34,0,0,0,89.37,44Z"/><path class="cls-3" d="M118.75.12l.12-.12a2,2,0,0,1,2.25,1.62,13.53,13.53,0,0,1,.38,3,55.28,55.28,0,0,1-.44,10.19c-.46,3.3-.86,6.52-1.19,9.69q-.63,6.49-1.25,13.19T117.5,51.12q-.75,11.88-1.63,23.69a222.35,222.35,0,0,0-.37,24.94,15,15,0,0,0,.12,1.75,16.34,16.34,0,0,1,.13,1.94,5.49,5.49,0,0,1-.25,1.68,1,1,0,0,1-1,.76,1.78,1.78,0,0,1-2.19-1.5,20.46,20.46,0,0,1-.56-3.26c-.17-1.33-.27-2.62-.32-3.87s-.1-2.37-.18-3.37q.12-3.75,0-7.44c-.09-2.46-.09-4.82,0-7.06q.12-18.13,1.5-34.44t3.5-32.69L117,5.88a25.53,25.53,0,0,0,.31-3.07A4.17,4.17,0,0,1,118.37.12Z"/><path class="cls-3" d="M162.12,50.88a10.27,10.27,0,0,0-3.75,3,12,12,0,0,0-1.56,2,4,4,0,0,0-.69,2.62,4.42,4.42,0,0,0,1.38,2.44c.75.71,1.41,1.35,2,1.94l1.93,1.93a17.77,17.77,0,0,1,1.69,1.94q3.12-2.25,5.94-4.69a56.41,56.41,0,0,1,6.06-4.56,46.56,46.56,0,0,1,4.69-3.12q2.56-1.5,5.31-2.88l1.75-.88a1.71,1.71,0,0,1,1.88.13,1.29,1.29,0,0,1-.13,1,1.5,1.5,0,0,1-.75.56l-1,.38a1.5,1.5,0,0,0-.75.56,34.47,34.47,0,0,0-5.06,2.81c-1.54,1-3.11,2.06-4.69,3.06q-6,4.5-11.62,9.38a39.82,39.82,0,0,1,3.06,5.88,18.3,18.3,0,0,1,1.31,7.12,20.7,20.7,0,0,1-1.25,8,23,23,0,0,1-3.75,6.5,27.8,27.8,0,0,1-5.37,4.75,11.82,11.82,0,0,1-7.25,2.13,8.92,8.92,0,0,1-2.88-.63A10.54,10.54,0,0,1,146.5,101a12.67,12.67,0,0,1-2-2.88,9.18,9.18,0,0,1-.88-3.62,13.71,13.71,0,0,1,1.63-8,42.05,42.05,0,0,1,4.12-6.25,52.22,52.22,0,0,1,4.94-5.44c1.71-1.62,3.39-3.14,5.06-4.56a15.07,15.07,0,0,0-2-2.31q-1.12-1.06-2.25-2.19a21.85,21.85,0,0,1-2.06-2.37,9.57,9.57,0,0,1-1.44-2.76,6.46,6.46,0,0,1,.06-5.06,20.23,20.23,0,0,1,2.44-4.06,33,33,0,0,1,2.44-2.44,11.5,11.5,0,0,1,2.81-1.81,11.59,11.59,0,0,1,1.88-.37,3.57,3.57,0,0,1,1.87.24,2.51,2.51,0,0,0,.69.69,2.08,2.08,0,0,1,.69.94,4.09,4.09,0,0,1,.06,2.37c-.21.92-.52,1.38-.94,1.38-.58.08-.92-.08-1-.5A2.65,2.65,0,0,0,162.12,50.88ZM160.5,72.5q-2.13,1.75-4.25,3.88A53.28,53.28,0,0,0,152.12,81q-1.12,1.38-2.31,3.06a18.69,18.69,0,0,0-2,3.69,17.88,17.88,0,0,0-1.13,4.19,10.34,10.34,0,0,0,.44,4.56,8.76,8.76,0,0,0,1.63,1.69,3.77,3.77,0,0,0,2.37.69,8.8,8.8,0,0,0,5.06-1.94A21.92,21.92,0,0,0,160.12,93a17.13,17.13,0,0,0,2.44-4.75,21.62,21.62,0,0,0,1.12-5.56,17.74,17.74,0,0,0-.5-5.57,13.3,13.3,0,0,0-2.31-4.87c0-.08,0-.13-.12-.13C160.58,72.29,160.5,72.42,160.5,72.5Zm-13.25,31.12c0,.09.08,0,.25-.12C147.5,103.58,147.41,103.62,147.25,103.62Z"/><path class="cls-3" d="M195.5,47.12a9.76,9.76,0,0,1,6.68,2.63,12.09,12.09,0,0,1,3.07,6.37q4-.75,8.31-1.68c2.87-.63,5.69-1.27,8.44-1.94a8.74,8.74,0,0,0,1.25-.44,11.36,11.36,0,0,1,1.56-.5,4.66,4.66,0,0,1,1.44-.12,1,1,0,0,1,.87.56.77.77,0,0,1-.25,1,5.79,5.79,0,0,1-1.25.69,9.59,9.59,0,0,1-1.62.5,12.36,12.36,0,0,0-1.25.31q-4,1.24-8.44,2.19c-3,.62-5.9,1.23-8.81,1.81a26.17,26.17,0,0,1-1.07,9.06A31.63,31.63,0,0,1,201,75.25a39.47,39.47,0,0,1-4.82,6A13.86,13.86,0,0,1,189.62,85h-1.87a4.94,4.94,0,0,1-2.13-.94A17.32,17.32,0,0,1,184,82.62a10.86,10.86,0,0,1-1.94-5.43,32,32,0,0,1,.06-6.63,60.15,60.15,0,0,1,1.13-6.75c.5-2.2.95-4.19,1.37-5.93a4.9,4.9,0,0,1-.06-4.5A9.86,9.86,0,0,1,187,50.12a20.61,20.61,0,0,0,.93-2.62A21,21,0,0,1,189,44.62a8.56,8.56,0,0,1,1.56-2.37,3.17,3.17,0,0,1,2.44-1,2.45,2.45,0,0,1,2.5,1.81A6.84,6.84,0,0,1,195.5,47.12Zm-6,13q-.63,3.63-1.57,7.82a31,31,0,0,0-.68,8.56,10.76,10.76,0,0,0,.43,2.12,3.13,3.13,0,0,0,1.19,1.63,9.67,9.67,0,0,0,5.75-3c1.42-1.58,2.75-3.21,4-4.87a49.73,49.73,0,0,0,3-6.07,15.05,15.05,0,0,0,1-7.31,56.59,56.59,0,0,1-6.37.94A50.74,50.74,0,0,1,189.5,60.12ZM195,49.75a3.81,3.81,0,0,0-.25,1.44.83.83,0,0,1-.75.93,1.73,1.73,0,0,1-.57-.06,3.36,3.36,0,0,1-.43-.18,2.28,2.28,0,0,1-.13-1.76,5.36,5.36,0,0,0-.94,1.63c-.21.58-.39,1.21-.56,1.87a17.62,17.62,0,0,0-.62,2c-.17.67-.34,1.34-.5,2q3.5,0,6.5-.24c2-.17,3.95-.42,5.87-.76a10,10,0,0,0-2.31-4.93Q198.62,49.88,195,49.75Z"/></g></g></svg>