<svg xmlns="http://www.w3.org/2000/svg" viewBox="0 0 384.59 187.4"><defs><style>.cls-1{fill:#53575a;}.cls-2{fill:#ff8300;}.cls-3{fill:none;stroke:#ff8300;}</style></defs><g id="Layer_2" data-name="Layer 2"><g id="Layer_1-2" data-name="Layer 1"><path class="cls-1" d="M5,151.13a6.67,6.67,0,0,0,3.18-1.25,5.14,5.14,0,0,0,1.72-2.58,15.16,15.16,0,0,0,.52-4.39V92.26a16.66,16.66,0,0,0-.39-4,5.47,5.47,0,0,0-1.29-2.49,5.29,5.29,0,0,0-2.41-1.38,20,20,0,0,0-3.65-.6H0v-.69H54.52v18.24h-.6v-.18q-.69-2.83-1.59-5.89a17.67,17.67,0,0,0-2.79-5.59,14.8,14.8,0,0,0-5.16-4.21,18.88,18.88,0,0,0-8.6-1.68H19.61v33.46h12.3a10.06,10.06,0,0,0,5.8-1.64,10.3,10.3,0,0,0,3.14-3.53,12.62,12.62,0,0,0,1.33-3.78,18.1,18.1,0,0,0,.3-2.49v-.26H43v24h-.52v-.25a20.29,20.29,0,0,0-.3-2.5A12.26,12.26,0,0,0,40.81,123a10.52,10.52,0,0,0-3.27-3.52,10.29,10.29,0,0,0-6.06-1.55H19.61V143a16.67,16.67,0,0,0,.39,3.91,5.33,5.33,0,0,0,1.29,2.54,5.58,5.58,0,0,0,2.4,1.42,14.61,14.61,0,0,0,3.66.56H30v.6H.09v-.6A33.58,33.58,0,0,0,5,151.13Z"/><path class="cls-1" d="M47.21,151.43l1.51-.18a10.3,10.3,0,0,0,3.35-1.16A17.49,17.49,0,0,0,56.16,147a16.67,16.67,0,0,0,3.69-5.93L83,83.32h.69l23,57.62a37.94,37.94,0,0,0,2.83,5.8,11.64,11.64,0,0,0,2.58,3,5.81,5.81,0,0,0,2.63,1.2c.88.15,1.9.3,3,.48v.6H89.61v-.6c2.06-.12,3.83-.25,5.29-.39a6,6,0,0,0,3.31-1.16,3.4,3.4,0,0,0,1-3,24,24,0,0,0-1.72-6.07l-6.37-16h-24L60.54,141a8.25,8.25,0,0,0-.73,4.34,5.76,5.76,0,0,0,1.34,2.93,7,7,0,0,0,2.53,1.8,15.58,15.58,0,0,0,2.93.95,14.1,14.1,0,0,0,2.45.34l1.11.05v.6h-23ZM79.12,94.84,67.34,124.17H90.81Z"/><path class="cls-1" d="M118.59,117.71v-.08h-.34a39,39,0,0,1,.6-6.88,38.25,38.25,0,0,1,1.81-6.62,34.83,34.83,0,0,1,6.53-11,35.84,35.84,0,0,1,4.43-4.21,25.08,25.08,0,0,1,5.12-3.19A26,26,0,0,1,148.52,83,21.44,21.44,0,0,1,157,84.61H157a.52.52,0,0,0,.35.17l.08.08,1.17.52c.37.17.75.37,1.16.6,3,1.44,5.33,2.15,7.05,2.15a7.07,7.07,0,0,0,3.87-.86,4.38,4.38,0,0,0,2-3h.6v25h-.6a43.26,43.26,0,0,0-1.25-6,40.26,40.26,0,0,0-1.94-5.33A30.92,30.92,0,0,0,167,93.59a28.27,28.27,0,0,0-3.06-3.65,22.09,22.09,0,0,0-7.22-4.82,22.59,22.59,0,0,0-6.88-1.55,15.32,15.32,0,0,0-8.6,2.67,24.57,24.57,0,0,0-7.05,7.31,39.53,39.53,0,0,0-4.77,10.88,48.42,48.42,0,0,0-1.77,13.28,46.6,46.6,0,0,0,2.88,16.69A33.22,33.22,0,0,0,138,146.53a23.21,23.21,0,0,0,7.65,4.64,8.76,8.76,0,0,0,2,.47,16.94,16.94,0,0,0,2.11.13,29.11,29.11,0,0,0,3.48-.52,19.07,19.07,0,0,0,3.4-1,21.19,21.19,0,0,0,7.14-4.81,18.54,18.54,0,0,0,3-3.57,37,37,0,0,0,2.45-4.34,31.62,31.62,0,0,0,2-5.34,56.37,56.37,0,0,0,1.29-6l.6.09a39.42,39.42,0,0,1-3.35,11.52,28.25,28.25,0,0,1-5.59,8.17,24.23,24.23,0,0,1-7.4,4.82,20.79,20.79,0,0,1-8.34,1.63,25.89,25.89,0,0,1-11.78-2.75,30,30,0,0,1-9.55-7.39,35.05,35.05,0,0,1-6.53-11,38.49,38.49,0,0,1-1.81-6.62,39.07,39.07,0,0,1-.6-6.89Z"/><path class="cls-1" d="M240.2,101.2V101c-.47-1.78-1-3.62-1.55-5.55a19.74,19.74,0,0,0-2.54-5.37,14,14,0,0,0-4.56-4.21A17,17,0,0,0,224,83.83h-.78q-3.78.35-5.29,2.11t-1.5,6.23V143a16.67,16.67,0,0,0,.39,3.91,5.33,5.33,0,0,0,1.29,2.54,5.62,5.62,0,0,0,2.36,1.42,14,14,0,0,0,3.61.56h2.67v.6H196.85v-.6a34.52,34.52,0,0,0,5-.3,6.51,6.51,0,0,0,3.18-1.25,5.26,5.26,0,0,0,1.67-2.58,14.82,14.82,0,0,0,.52-4.39V92.26a16.66,16.66,0,0,0-.39-4,5,5,0,0,0-3.65-3.87,19.18,19.18,0,0,0-3.61-.6H199a16.7,16.7,0,0,0-7.48,2.07A14.68,14.68,0,0,0,187,90.11a18.74,18.74,0,0,0-2.58,5.37c-.57,1.93-1.06,3.77-1.46,5.55v.17h-.6V83.14H240.8V101.2Z"/><path class="cls-1" d="M247.25,117.2a37.06,37.06,0,0,1,2.4-13.5,33.41,33.41,0,0,1,6.45-11.1,28.76,28.76,0,0,1,9.46-7.39,26.64,26.64,0,0,1,11.79-2.75h5A26.43,26.43,0,0,1,294,85.21a28.52,28.52,0,0,1,9.63,7.39,37,37,0,0,1,6.54,11.1,39,39,0,0,1,2.32,13.5,38.52,38.52,0,0,1-2.32,13.5,36.9,36.9,0,0,1-6.54,11.09,28.42,28.42,0,0,1-9.63,7.4,26.43,26.43,0,0,1-11.7,2.75h-5a26.64,26.64,0,0,1-11.79-2.75,28.79,28.79,0,0,1-9.46-7.4,33.27,33.27,0,0,1-6.45-11.09A37.06,37.06,0,0,1,247.25,117.2Zm9.37,0a52.78,52.78,0,0,0,1.59,13.16,36.08,36.08,0,0,0,4.77,11,20.09,20.09,0,0,0,1.34,2,17.12,17.12,0,0,0,1.5,1.72,21.9,21.9,0,0,0,5.21,4,42,42,0,0,0,4.08,1.94l1.63.34a8.89,8.89,0,0,0,1.81.17h2.58a7.66,7.66,0,0,0,1.72-.17c.52-.11,1.09-.23,1.72-.34,1-.4,2.31-1.05,4-1.94a23.66,23.66,0,0,0,5.29-4c.46-.51.93-1.09,1.42-1.72s1-1.29,1.42-2a36.89,36.89,0,0,0,4.81-11,53.62,53.62,0,0,0,0-26.32,37,37,0,0,0-4.81-11c-.46-.68-.94-1.34-1.42-2s-1-1.21-1.42-1.73a23.89,23.89,0,0,0-5.29-4c-1.69-.89-3-1.54-4-1.94l-1.72-.3a10.11,10.11,0,0,0-1.72-.13h-2.58a14.47,14.47,0,0,0-3.44.43A42,42,0,0,0,271,85.34a22.1,22.1,0,0,0-5.21,4,17.27,17.27,0,0,0-1.5,1.73A20.09,20.09,0,0,0,263,93a36.19,36.19,0,0,0-4.77,11A52.78,52.78,0,0,0,256.62,117.2Z"/><path class="cls-1" d="M315.19,152.2v-.6h.08a34.52,34.52,0,0,0,5-.3,6.47,6.47,0,0,0,3.18-1.25,5.35,5.35,0,0,0,1.68-2.58,15.21,15.21,0,0,0,.51-4.39V92.43c0-3.15-.56-5.32-1.67-6.49s-3.12-1.85-6-2h-2.75V83.4H348a35.42,35.42,0,0,1,10,1.29,22.24,22.24,0,0,1,6.88,3.7,14.55,14.55,0,0,1,3.91,5.37,17.58,17.58,0,0,1,1.33,6.93q0,7.74-5.24,12.3a20.76,20.76,0,0,1-6.88,3.69,18,18,0,0,1-4,.95c-1.41.17-2.88.32-4.43.43a13,13,0,0,1,3.83,1.81,19.4,19.4,0,0,1,4.6,4.73L374.1,147a8.59,8.59,0,0,0,2.88,2.54,16.91,16.91,0,0,0,3.27,1.37,12.6,12.6,0,0,0,2.79.56c.8.06,1.29.09,1.46.09h.09v.6h-17.2l-21-29.07a20.39,20.39,0,0,0-2.36-2.71,10.33,10.33,0,0,0-2.06-1.5,7.19,7.19,0,0,0-1.94-.69,11.49,11.49,0,0,0-2-.17h-3.18v25.11a16.6,16.6,0,0,0,.39,4,5.38,5.38,0,0,0,1.29,2.49,5.52,5.52,0,0,0,2.36,1.42,13.62,13.62,0,0,0,3.61.56h2.67v.6h-30Zm19.69-34.66h12.38a12.32,12.32,0,0,0,7.23-2.15,13.22,13.22,0,0,0,1.93-1.76,14.6,14.6,0,0,0,1.85-2.54,21.06,21.06,0,0,0,1.64-4.68,25.68,25.68,0,0,0,.6-5.72q0-7.39-3.18-11.87a11.65,11.65,0,0,0-10.07-4.9h-5.59a11,11,0,0,0-3.18.69,5.26,5.26,0,0,0-2.1,1.46,5.55,5.55,0,0,0-1.17,2.49,17.78,17.78,0,0,0-.34,3.79v25.19Z"/><path class="cls-2" d="M72.32,20.81c-.38.23-.65.18-.8-.17a2.71,2.71,0,0,0-.46-.75,7.29,7.29,0,0,0-1.32-1,2.75,2.75,0,0,0-2-.29,3.3,3.3,0,0,0-2.18,2c-.61,1.19-1.11,2.21-1.5,3.05a61.32,61.32,0,0,0-3.27,9.89c-.89,3.6-1.63,7.13-2.25,10.58q4.6-1.72,9.78-3.8A69.36,69.36,0,0,1,79.22,37a48.54,48.54,0,0,1,5.7-.86,13.39,13.39,0,0,1,5.69.63,13.24,13.24,0,0,1,1.26.58,1.11,1.11,0,0,1,.58,1.26,1.86,1.86,0,0,1-2.07.34A8.91,8.91,0,0,0,88,38.41a13.44,13.44,0,0,0-4.48.29c-1.46.34-2.88.71-4.26,1.09s-2.7.79-4,1.21-2.44.86-3.51,1.32a74.81,74.81,0,0,0-7.25,2.82q-3.45,1.55-6.78,3.27c-.39,2.38-.73,4.83-1,7.36s-.61,5.14-.92,7.82c-.07.85-.17,1.71-.28,2.59a11.28,11.28,0,0,0-.06,2.59,9.36,9.36,0,0,0,.46,1.9q.34,1,.57,1.89A73.31,73.31,0,0,1,58.29,94.3c0,.84,0,1.7-.11,2.59a11.45,11.45,0,0,1-.46,2.41,4.29,4.29,0,0,1-1,1.78,2.48,2.48,0,0,1-1.84.69,2.24,2.24,0,0,1-1.66-.63,4.32,4.32,0,0,1-1-1.55,11.05,11.05,0,0,1-.52-2c-.11-.69-.21-1.34-.29-1.95a68.66,68.66,0,0,1-1-11q-.06-5.7.28-11.56c.08-.77.18-1.53.29-2.3a8.12,8.12,0,0,0,.06-2.19,5.23,5.23,0,0,0-.63-1.84c-.35-.61-.67-1.22-1-1.84a16.87,16.87,0,0,0-2-3.33l-2.36-3c-.38-.46-.79-1-1.21-1.55a3.16,3.16,0,0,1-.63-1.9,3.42,3.42,0,0,1,.46-1.73A7.34,7.34,0,0,1,44.84,52a9.51,9.51,0,0,1,1.49-1.21,14,14,0,0,0,1.38-1c1.08-.69,2.09-1.28,3-1.78s2-1,3.16-1.67q1-5.62,2.71-11.55a94.38,94.38,0,0,1,3.73-10.87,32.51,32.51,0,0,1,2.48-4.49,7.9,7.9,0,0,1,3.73-3.1c0,.08.08,0,.23-.12a4.22,4.22,0,0,1,2.65.52c.61.42,1.23.86,1.84,1.32a7.39,7.39,0,0,0,1,1.27A1.06,1.06,0,0,1,72.32,20.81ZM47.37,55.08a32.64,32.64,0,0,1,2.36,2.65,23.64,23.64,0,0,1,2,3q.34-2.41.63-4.89t.75-4.77L53,50.94c-1,.69-2,1.35-3,2A12.37,12.37,0,0,0,47.37,55.08Z"/><path class="cls-2" d="M81.52,52.78A23.48,23.48,0,0,0,80,57,19.61,19.61,0,0,0,79.34,62a8.62,8.62,0,0,0,1,4.31,4.08,4.08,0,0,0,3.68,2A11.36,11.36,0,0,0,89.75,67q2.7-1.38,4.65-2.64c1.54-1.07,3-2.13,4.32-3.16s2.55-2.05,3.62-3.05A62.06,62.06,0,0,0,108,53.24q2.7-2.64,5.35-5.4a2.8,2.8,0,0,0,.75-.92,9.74,9.74,0,0,1,.86-1.27,5.61,5.61,0,0,1,1-1,.89.89,0,0,1,1.09-.06c.53.23.65.69.34,1.38a7.57,7.57,0,0,1-.8,1.49,4.35,4.35,0,0,1-.69,1.27A14.68,14.68,0,0,0,115,50a84.23,84.23,0,0,1-6,6.33q-3.17,3-6.5,6a47,47,0,0,1-9.66,6.9,25.09,25.09,0,0,1-2.87,1.32,16.69,16.69,0,0,1-3.34.92,15.15,15.15,0,0,1-3.5.17,7,7,0,0,1-3.28-1,5.72,5.72,0,0,1-1.21-1.09L77.5,68.19a11.07,11.07,0,0,1-1.44-4.88,22,22,0,0,1,.35-5.47,33.44,33.44,0,0,1,1.43-5.29,35.31,35.31,0,0,1,1.84-4.25,48.66,48.66,0,0,1,4.6-6.79,13.53,13.53,0,0,1,7-4.37,5.56,5.56,0,0,1,3.85,1,4,4,0,0,1,1.21,3.68A7.36,7.36,0,0,1,95,45.31a22.46,22.46,0,0,1-2.42,2.87A26,26,0,0,1,88,51.81,9.46,9.46,0,0,1,81.52,52.78Zm10.7-12.3a11.9,11.9,0,0,0-6.1,4.2,42.62,42.62,0,0,0-3.91,6.38,7.14,7.14,0,0,0,4.26-1.15,31.53,31.53,0,0,0,3-2.42q1.26-1.38,2.64-2.76a5,5,0,0,0,1.27-3.91A1.25,1.25,0,0,0,92.22,40.48Z"/><path class="cls-2" d="M114.76,52.78a22.66,22.66,0,0,0-1.5,4.2,19.61,19.61,0,0,0-.69,5.06,8.62,8.62,0,0,0,1,4.31,4.07,4.07,0,0,0,3.68,2A11.33,11.33,0,0,0,123,67q2.7-1.38,4.66-2.64c1.53-1.07,3-2.13,4.31-3.16s2.55-2.05,3.62-3.05a62.18,62.18,0,0,0,5.7-4.95q2.7-2.64,5.34-5.4a2.8,2.8,0,0,0,.75-.92,12.24,12.24,0,0,1,.86-1.27,6.4,6.4,0,0,1,1-1,.89.89,0,0,1,1.09-.06c.54.23.65.69.35,1.38a8.05,8.05,0,0,1-.81,1.49,3.93,3.93,0,0,1-.69,1.27c-.3.38-.61.8-.92,1.26a84.11,84.11,0,0,1-6,6.33q-3.16,3-6.5,6a47.55,47.55,0,0,1-9.66,6.9,25.28,25.28,0,0,1-2.88,1.32,16.42,16.42,0,0,1-3.33.92,15.21,15.21,0,0,1-3.51.17,7,7,0,0,1-3.28-1,5.43,5.43,0,0,1-1.2-1.09c-.35-.42-.71-.87-1.1-1.33a10.93,10.93,0,0,1-1.43-4.88,22,22,0,0,1,.34-5.47,34.57,34.57,0,0,1,1.44-5.29,33.78,33.78,0,0,1,1.84-4.25,47.81,47.81,0,0,1,4.6-6.79,13.46,13.46,0,0,1,7-4.37,5.59,5.59,0,0,1,3.86,1,3.94,3.94,0,0,1,1.2,3.68,7.36,7.36,0,0,1-1.38,3.45,22.41,22.41,0,0,1-2.41,2.87,26.4,26.4,0,0,1-4.54,3.63A9.47,9.47,0,0,1,114.76,52.78Zm10.69-12.3a11.87,11.87,0,0,0-6.09,4.2,41.81,41.81,0,0,0-3.91,6.38,7.13,7.13,0,0,0,4.25-1.15,30.31,30.31,0,0,0,3-2.42c.85-.92,1.73-1.84,2.65-2.76a4.93,4.93,0,0,0,1.26-3.91A1.25,1.25,0,0,0,125.45,40.48Z"/><path class="cls-2" d="M152.48.11l.11-.11a1.87,1.87,0,0,1,2.07,1.49A12.41,12.41,0,0,1,155,4.25a51,51,0,0,1-.41,9.38q-.63,4.55-1.09,8.91-.57,6-1.15,12.13t-1,12.36q-.69,10.94-1.5,21.8a203.59,203.59,0,0,0-.34,22.94,12.54,12.54,0,0,0,.11,1.61,13.76,13.76,0,0,1,.12,1.78,5,5,0,0,1-.23,1.55.91.91,0,0,1-.92.69,1.62,1.62,0,0,1-2-1.38,18.91,18.91,0,0,1-.51-3c-.16-1.22-.25-2.41-.29-3.56s-.1-2.19-.17-3.11q.1-3.45,0-6.84t0-6.5q.1-16.66,1.38-31.68t3.22-30.07l.69-5.87a23.46,23.46,0,0,0,.28-2.81,3.88,3.88,0,0,1,1-2.48Z"/><path class="cls-2" d="M207,67.16q3.33-4,6.61-8.34a91.27,91.27,0,0,1,7.19-8.34q1.26-1.26,2.64-2.58a5.69,5.69,0,0,1,3.34-1.56,1.66,1.66,0,0,1,.86.81,1.35,1.35,0,0,1-.06,1.26,1,1,0,0,1-.75.23,1,1,0,0,1-.74-.23A97.17,97.17,0,0,0,215.55,60q-4.77,6.21-9.37,12.76Q204.33,85,201.47,96.66a143.06,143.06,0,0,1-7.25,21.9,26.47,26.47,0,0,1-1.44,3.11c-.57,1.07-1.17,2.15-1.78,3.22-.38.69-.79,1.38-1.21,2.07a11.47,11.47,0,0,1-1.38,1.84,6,6,0,0,1-1.84,1.32,5.88,5.88,0,0,1-2.58.52c0,.07-.08,0-.23-.12a1.86,1.86,0,0,1-.75-.34,4.09,4.09,0,0,0-.75-.46,1.88,1.88,0,0,0-.57-.69,11.27,11.27,0,0,1-.92-4,22.94,22.94,0,0,1,.17-4.31,39.86,39.86,0,0,1,.8-4.2c.35-1.38.68-2.64,1-3.79.77-2.53,1.61-5,2.53-7.3s1.84-4.58,2.76-6.73a179.22,179.22,0,0,1,14-24.5c.38-2.45.75-5,1.09-7.7s.6-5.41.75-8.17.36-5.52.4-8.51a26.39,26.39,0,0,0-1-7.93A2.48,2.48,0,0,0,201.93,43c-.39.58-.77,1.09-1.15,1.55a20.77,20.77,0,0,1,1.15,3.11,7,7,0,0,0,.69,1.61,1.34,1.34,0,0,1,0,1.49c-.62.23-1.06.14-1.33-.28a3.66,3.66,0,0,0-.86-1c-.23-.38-.48-.77-.75-1.15a5.46,5.46,0,0,1-.63-1.15,37.41,37.41,0,0,0-3.1,4.6q-1.38,2.41-3,4.71c-.46.62-1,1.44-1.67,2.48a18.3,18.3,0,0,1-2.24,2.87,7.8,7.8,0,0,1-2.71,1.9,3.32,3.32,0,0,1-3.16-.58,4.87,4.87,0,0,1-1-2.81,14.48,14.48,0,0,1,.17-3.4,21.05,21.05,0,0,1,.86-3.39c.39-1.11.77-2.09,1.15-2.93a32.43,32.43,0,0,1,2.07-4.08,17.24,17.24,0,0,1,2.53-3.28,11.37,11.37,0,0,1,1.73-1.38,7.76,7.76,0,0,1,2.3-1,7.45,7.45,0,0,1,2.58-.23,5.81,5.81,0,0,1,2.48.81,5.8,5.8,0,0,0,1.32-1.27,9.85,9.85,0,0,1,1.38-1.43,4.69,4.69,0,0,1,1.72-.92,3.58,3.58,0,0,1,2.25.17,4.45,4.45,0,0,1,.92.63,4.53,4.53,0,0,1,.69.75,7.14,7.14,0,0,1,1.2,2.59,17.85,17.85,0,0,1,.52,3.33c.08,1.19.12,2.44.12,3.74s0,2.57-.12,3.79c-.15,2.69-.31,5.26-.46,7.71S207.22,65.17,207,67.16Zm-20.82,46.23q-.91,3-1.61,6.32a16.1,16.1,0,0,0,.12,6.9,10.46,10.46,0,0,0,3.33-4.19q1.26-2.7,2.42-5.24a108.62,108.62,0,0,0,6.09-17.07q2.41-9,4.37-18.81c0-.07,0-.07-.11,0q-4.26,7.36-8.17,15.18A94.37,94.37,0,0,0,186.17,113.39Zm5.41-67.28a23.63,23.63,0,0,0-3.63,5.7,26.67,26.67,0,0,0-2,7.41,31.49,31.49,0,0,0,5.23-7q2.25-4,4.78-7.71a3,3,0,0,0-2.53.35C192.8,45.31,192.19,45.73,191.58,46.11Z"/><path class="cls-2" d="M233.78,43.35a9,9,0,0,1,6.15,2.42,11.1,11.1,0,0,1,2.82,5.86c2.45-.46,5-1,7.65-1.55s5.23-1.17,7.76-1.78a9,9,0,0,0,1.15-.4,8.64,8.64,0,0,1,1.44-.46,3.93,3.93,0,0,1,1.32-.12.93.93,0,0,1,.8.52.71.71,0,0,1-.22.92,5.44,5.44,0,0,1-1.16.63,8.12,8.12,0,0,1-1.49.46c-.54.12-.92.21-1.15.29q-3.68,1.15-7.76,2c-2.73.58-5.43,1.13-8.11,1.67a24.07,24.07,0,0,1-1,8.34,29.11,29.11,0,0,1-3.16,7.07,36.33,36.33,0,0,1-4.43,5.52,12.65,12.65,0,0,1-6,3.45h-1.72a4.55,4.55,0,0,1-2-.86A17.4,17.4,0,0,1,223.2,76a10,10,0,0,1-1.78-5,28.93,28.93,0,0,1,.06-6.09,52.91,52.91,0,0,1,1-6.21c.46-2,.88-3.86,1.26-5.47a4.52,4.52,0,0,1-.05-4.14,9,9,0,0,1,2.24-3,18.94,18.94,0,0,0,.86-2.41,20.9,20.9,0,0,1,1-2.65,7.8,7.8,0,0,1,1.44-2.18,2.93,2.93,0,0,1,2.24-.92,2.25,2.25,0,0,1,2.3,1.67A6.23,6.23,0,0,1,233.78,43.35Zm-5.52,12c-.38,2.23-.86,4.62-1.44,7.19a28.81,28.81,0,0,0-.63,7.88,10.68,10.68,0,0,0,.4,2,2.8,2.8,0,0,0,1.1,1.5A8.86,8.86,0,0,0,233,71.07c1.3-1.46,2.52-2.95,3.67-4.49A43.13,43.13,0,0,0,239.41,61a13.85,13.85,0,0,0,.92-6.73,52.83,52.83,0,0,1-5.86.86A47.71,47.71,0,0,1,228.26,55.31Zm5.06-9.54a3.58,3.58,0,0,0-.23,1.32.76.76,0,0,1-.69.86,1.78,1.78,0,0,1-.52-.05,3.17,3.17,0,0,1-.4-.18,2.1,2.1,0,0,1-.12-1.61,4.91,4.91,0,0,0-.86,1.5c-.19.54-.36,1.11-.52,1.72a16.85,16.85,0,0,0-.57,1.84c-.15.62-.31,1.23-.46,1.84,2.15,0,4.14-.07,6-.23s3.64-.38,5.4-.69a9.16,9.16,0,0,0-2.12-4.54A6.77,6.77,0,0,0,233.32,45.77Z"/><path class="cls-2" d="M268.74,43.35a9,9,0,0,1,6.15,2.42,11.1,11.1,0,0,1,2.82,5.86c2.45-.46,5-1,7.64-1.55s5.24-1.17,7.77-1.78a9.51,9.51,0,0,0,1.15-.4,8.64,8.64,0,0,1,1.44-.46,3.91,3.91,0,0,1,1.32-.12.93.93,0,0,1,.8.52.7.7,0,0,1-.23.92,5.12,5.12,0,0,1-1.15.63,8.36,8.36,0,0,1-1.49.46c-.54.12-.92.21-1.15.29-2.46.77-5,1.44-7.76,2s-5.43,1.13-8.11,1.67a24.07,24.07,0,0,1-1,8.34,29.5,29.5,0,0,1-3.16,7.07,37,37,0,0,1-4.43,5.52,12.65,12.65,0,0,1-6,3.45h-1.72a4.55,4.55,0,0,1-2-.86A17.4,17.4,0,0,1,258.16,76a10,10,0,0,1-1.78-5,29.6,29.6,0,0,1,.05-6.09,55.09,55.09,0,0,1,1-6.21c.46-2,.88-3.86,1.26-5.47a4.49,4.49,0,0,1-.05-4.14,8.9,8.9,0,0,1,2.24-3,20.62,20.62,0,0,0,.86-2.41,19.47,19.47,0,0,1,1-2.65,8,8,0,0,1,1.43-2.18,3,3,0,0,1,2.25-.92,2.25,2.25,0,0,1,2.3,1.67A6.23,6.23,0,0,1,268.74,43.35Zm-5.52,12c-.39,2.23-.87,4.62-1.44,7.19a28.42,28.42,0,0,0-.63,7.88,9.91,9.91,0,0,0,.4,2,2.78,2.78,0,0,0,1.09,1.5,8.8,8.8,0,0,0,5.29-2.76c1.31-1.46,2.53-2.95,3.68-4.49A43.13,43.13,0,0,0,274.37,61a13.85,13.85,0,0,0,.92-6.73,52.83,52.83,0,0,1-5.86.86A47.71,47.71,0,0,1,263.22,55.31Zm5.06-9.54a3.38,3.38,0,0,0-.23,1.32.76.76,0,0,1-.69.86,1.78,1.78,0,0,1-.52-.05,3.17,3.17,0,0,1-.4-.18,2.1,2.1,0,0,1-.12-1.61,4.91,4.91,0,0,0-.86,1.5c-.19.54-.36,1.11-.52,1.72a16.85,16.85,0,0,0-.57,1.84c-.16.62-.31,1.23-.46,1.84,2.14,0,4.14-.07,6-.23s3.64-.38,5.4-.69a9.16,9.16,0,0,0-2.12-4.54A6.77,6.77,0,0,0,268.28,45.77Z"/><path class="cls-2" d="M314.05,12.88A1.49,1.49,0,0,1,315.2,14a5.54,5.54,0,0,1,.05,2.13,19.39,19.39,0,0,1-.51,2.47,16.25,16.25,0,0,0-.46,2.07q-.93,5.06-1.79,10.64t-1.32,11.38q-.46,5.81-.4,11.73a77.86,77.86,0,0,0,1,11.67,22.46,22.46,0,0,0,.69,3.34,8.78,8.78,0,0,0,1.38,2.87,7.46,7.46,0,0,0,3.1-2.64c.77-1.15,1.57-2.26,2.42-3.34a82.36,82.36,0,0,0,5.23-9.2,96.84,96.84,0,0,1,5.12-9.2,14.19,14.19,0,0,0,1.09-1.84,1.55,1.55,0,0,1,1.67-.92,1.39,1.39,0,0,1,.23,1.84,19.22,19.22,0,0,1-1,1.85q-1.26,2.74-2.76,5.57c-1,1.88-1.95,3.7-2.87,5.46-1.31,2.46-2.59,4.93-3.86,7.42a29.07,29.07,0,0,1-4.54,6.61,14.69,14.69,0,0,0-1.72,1.27,3.27,3.27,0,0,1-2.19.69,3.56,3.56,0,0,1-2.18-1,6.78,6.78,0,0,1-1.5-2,12.6,12.6,0,0,1-.92-2.53c-.23-.92-.42-1.8-.57-2.65a56.47,56.47,0,0,1-.92-7.64c-.16-2.72-.22-5.45-.18-8.17s.18-5.4.41-8.05.49-5.12.8-7.42q-1,2.41-2,4.95c-.65,1.69-1.32,3.37-2,5.06a4.59,4.59,0,0,1,.4.8c.11.31.25.66.4,1a17,17,0,0,1,.35,1.84,2.82,2.82,0,0,1-.23,1.61,1.11,1.11,0,0,1-1.33-.4,4.65,4.65,0,0,0-1-1.1c-1.08,2.76-2.13,5.66-3.17,8.69a57.9,57.9,0,0,1-3.62,8.45,22.22,22.22,0,0,1-1.61,2.53,3.06,3.06,0,0,1-2.64,1.26,1.83,1.83,0,0,1-1-.46,8.13,8.13,0,0,0-.8-.69,8.85,8.85,0,0,1-.81-4.88,41.37,41.37,0,0,1,.81-5.58,62.56,62.56,0,0,1,1.84-6.44,21,21,0,0,1,3-5.64A10.85,10.85,0,0,1,298,44.62a4.51,4.51,0,0,1,4.25-.46q2.64-6,5.06-13.28t4.6-14.32c.31-.84.58-1.63.81-2.36A1.79,1.79,0,0,1,314.05,12.88ZM300.48,47.72a4.22,4.22,0,0,0-1.9,1.38,12.93,12.93,0,0,0-1.44,2.07,30.4,30.4,0,0,0-2.76,7A46.51,46.51,0,0,0,293,66.12a46.13,46.13,0,0,0,3.8-7.82q1.6-4.24,3.1-8.28c.15-.38.33-.76.52-1.14a1.76,1.76,0,0,0,.17-1.16Z"/><line class="cls-3" x1="60.21" y1="186.9" x2="324.21" y2="186.9"/></g></g></svg>