<svg xmlns="http://www.w3.org/2000/svg" viewBox="0 0 251 76.27"><defs><style>.cls-1{fill:#53575a;}.cls-2{fill:#ff8300;}</style></defs><g id="Layer_2" data-name="Layer 2"><g id="Layer_1-2" data-name="Layer 1"><path class="cls-1" d="M29.44,48.93a9.67,9.67,0,0,0-.73-3.77,8,8,0,0,0-2.16-3,10.85,10.85,0,0,0-3.73-2,18.68,18.68,0,0,0-5.33-.69H0v1H1.8a4.29,4.29,0,0,1,2.87.94,4.63,4.63,0,0,1,.77,3.13V71.12a7.37,7.37,0,0,1-.25,2.17,2.3,2.3,0,0,1-.77,1.17,3.17,3.17,0,0,1-1.5.57,17.93,17.93,0,0,1-2.53.16H0v1.08H16.43v-.5l.55-.58H14.71a7.33,7.33,0,0,1-1.81-.28,2.53,2.53,0,0,1-1.1-.64,2.58,2.58,0,0,1-.58-1.13,8.33,8.33,0,0,1-.19-2V58.41h6.46a17,17,0,0,0,5.33-.74,10.28,10.28,0,0,0,3.74-2A8.51,8.51,0,0,0,29.44,48.93ZM11,44.57a4.84,4.84,0,0,1,.69-3,4,4,0,0,1,2.53-1h2.88a5.74,5.74,0,0,1,5,2.4,10.19,10.19,0,0,1,1.59,6,13.27,13.27,0,0,1-.3,2.91,9.16,9.16,0,0,1-.87,2.36,6,6,0,0,1-.86,1.24,6.2,6.2,0,0,1-.95.87,6.18,6.18,0,0,1-3.6,1H11Z"/><path class="cls-1" d="M60.59,74.85a2.69,2.69,0,0,1-1.2-.55,5.92,5.92,0,0,1-1.26-1.48,20.15,20.15,0,0,1-1.45-3L44.62,39.7l-.1-.25h-.88L31.44,69.94a8.46,8.46,0,0,1-1.85,3,9,9,0,0,1-2,1.53,5.31,5.31,0,0,1-1.63.57l-.75.08h-.38v1.09H37.58V75.1H37.2l-.57,0a7.06,7.06,0,0,1-1.22-.17A8.22,8.22,0,0,1,34,74.43a3.32,3.32,0,0,1-1.19-.85,2.72,2.72,0,0,1-.61-1.34,4,4,0,0,1,.36-2.06l3.33-8.26h12L51.1,70A12.53,12.53,0,0,1,52,73.1a1.44,1.44,0,0,1-.36,1.28,2.78,2.78,0,0,1-1.53.51c-.76.08-1.67.15-2.75.21H47v1.07H62.51v-1l-.33-.05Zm-24.31-14,5.6-13.92,5.55,13.92Z"/><path class="cls-1" d="M59.22,49.59H60.3V49.2c.2-.93.46-1.89.75-2.88a10,10,0,0,1,1.3-2.71,7.38,7.38,0,0,1,2.27-2.09,8.41,8.41,0,0,1,3.71-1h.24a8.88,8.88,0,0,1,1.82.31,2.3,2.3,0,0,1,1.06.61A2.38,2.38,0,0,1,72,42.54a8.28,8.28,0,0,1,.19,2V71A7.37,7.37,0,0,1,72,73.2a2.36,2.36,0,0,1-.75,1.17,3,3,0,0,1-1.48.57,17.9,17.9,0,0,1-2.53.15h-.39v1.09H83.26V75.09H81.49a6.65,6.65,0,0,1-1.79-.28,2.47,2.47,0,0,1-1.07-.64A2.5,2.5,0,0,1,78.05,73a8.32,8.32,0,0,1-.19-2V44.48a4.85,4.85,0,0,1,.69-3,3.65,3.65,0,0,1,2.48-1h.37a8.78,8.78,0,0,1,3.77,1,7,7,0,0,1,2.26,2.09,10.19,10.19,0,0,1,1.28,2.71c.29,1,.56,1.93.79,2.84v.43h1.09V39.36H59.22Z"/><path class="cls-1" d="M106.45,74.91a2.43,2.43,0,0,1-1.09-.64,2.38,2.38,0,0,1-.58-1.13,8.21,8.21,0,0,1-.2-2V44.57a4.83,4.83,0,0,1,.7-3,3.92,3.92,0,0,1,2.52-1h1.8l.39,0v-1H93.55v1h1.81a4.31,4.31,0,0,1,2.87.94A4.68,4.68,0,0,1,99,44.61V71.12a7.73,7.73,0,0,1-.25,2.17A2.36,2.36,0,0,1,98,74.46a3.25,3.25,0,0,1-1.51.57,17.82,17.82,0,0,1-2.53.16h-.39v1.08H110V75.19h-1.77A7.33,7.33,0,0,1,106.45,74.91Z"/><path class="cls-1" d="M143.2,65.1a15.07,15.07,0,0,1-2,5.09,12.91,12.91,0,0,1-1.44,1.86,9,9,0,0,1-1.92,1.57,10.74,10.74,0,0,1-2.54,1.13,11.09,11.09,0,0,1-3.22.44h-5a6.65,6.65,0,0,1-1.79-.28,2.57,2.57,0,0,1-1.08-.64,2.47,2.47,0,0,1-.57-1.13,8.21,8.21,0,0,1-.2-2,4.54,4.54,0,0,0,0-.81V58.41h5.82a5,5,0,0,1,3,.74,5.18,5.18,0,0,1,1.62,1.73,5.7,5.7,0,0,1,.68,1.92,10.78,10.78,0,0,1,.13,1.25v.52h1.08V51.24h-1.08v.53a9.87,9.87,0,0,1-.13,1.2,5.75,5.75,0,0,1-.66,1.85,5.54,5.54,0,0,1-1.56,1.75,4.73,4.73,0,0,1-2.8.79h-6.05V40.54h8.07a9.5,9.5,0,0,1,4.33.84,7.25,7.25,0,0,1,2.56,2.09,8.79,8.79,0,0,1,1.41,2.82c.31,1.07.59,2.11.81,3.05v.38h1.09V39.5h-29.3v1h1.8a4.29,4.29,0,0,1,2.87.94,4.68,4.68,0,0,1,.77,3.13,1.84,1.84,0,0,0,0,.33,1.49,1.49,0,0,1,0,.21v26a7.78,7.78,0,0,1-.25,2.17,2.36,2.36,0,0,1-.77,1.17,3.25,3.25,0,0,1-1.51.57,17.82,17.82,0,0,1-2.53.16h-.39v1.08h30.48l1.39-11.48h-1.06Z"/><path class="cls-1" d="M172.75,40.59h1.06a11.63,11.63,0,0,1,1.85.19,8.19,8.19,0,0,1,2.21.73,5.35,5.35,0,0,1,1.83,1.54,4.22,4.22,0,0,1,.75,2.64V66.92L158.5,39.64l-.12-.14h-10.2v1.09H150a8.4,8.4,0,0,1,2.3.23,1.68,1.68,0,0,1,1,.63,2.19,2.19,0,0,1,.34,1.13c0,.52,0,1.14,0,1.85V70a4.34,4.34,0,0,1-.75,2.69,5.32,5.32,0,0,1-1.83,1.53,8.08,8.08,0,0,1-2.21.73,11.85,11.85,0,0,1-1.85.2h-1.06v1.08h16.53V75.19h-1.07a11.86,11.86,0,0,1-1.84-.2,8.08,8.08,0,0,1-2.21-.73,5.32,5.32,0,0,1-1.83-1.53,4.34,4.34,0,0,1-.75-2.69V43.87l25.77,32.26.12.14h.93V45.69a4.21,4.21,0,0,1,.75-2.64,5.35,5.35,0,0,1,1.83-1.54,8.19,8.19,0,0,1,2.21-.73,11.63,11.63,0,0,1,1.84-.19h1.07V39.5H172.75Z"/><path class="cls-1" d="M192,49.59H193V49.2c.21-.93.47-1.89.76-2.88a9.67,9.67,0,0,1,1.3-2.71,7.38,7.38,0,0,1,2.27-2.09,8.41,8.41,0,0,1,3.71-1h.24a8.65,8.65,0,0,1,1.81.31,2.29,2.29,0,0,1,1.07.61,2.48,2.48,0,0,1,.58,1.13,8.28,8.28,0,0,1,.19,2V71a7.37,7.37,0,0,1-.25,2.17,2.43,2.43,0,0,1-.75,1.17,3,3,0,0,1-1.48.57,17.9,17.9,0,0,1-2.53.15h-.39v1.09H216V75.09h-1.76a6.65,6.65,0,0,1-1.79-.28,2.51,2.51,0,0,1-1.08-.64,2.6,2.6,0,0,1-.58-1.15,8.89,8.89,0,0,1-.19-2V44.48a4.84,4.84,0,0,1,.7-3,3.64,3.64,0,0,1,2.47-1h.38a8.78,8.78,0,0,1,3.77,1,7,7,0,0,1,2.26,2.09,10.19,10.19,0,0,1,1.28,2.71c.29,1,.56,1.93.79,2.84v.43h1.09V39.36H192Z"/><path class="cls-1" d="M250.73,63.55a9.7,9.7,0,0,0-2.06-3.86,13.37,13.37,0,0,0-4-3.18l-5.16-2.65A19.69,19.69,0,0,1,234,49.61,7.76,7.76,0,0,1,232,45.7a4.23,4.23,0,0,1,.87-3.15,6.2,6.2,0,0,1,3-2,9.17,9.17,0,0,1,1.44-.32,9.91,9.91,0,0,1,4.88.48,8.51,8.51,0,0,1,2.84,1.69,12.14,12.14,0,0,1,1.22,1.37,12.76,12.76,0,0,1,1.09,1.74,11.38,11.38,0,0,1,.76,1.93,7.17,7.17,0,0,1,.27,1.88v.39h1.13V39.14h-.92l-.11.19a2.54,2.54,0,0,1-1.08,1.06,3.1,3.1,0,0,1-1.36.24,5.78,5.78,0,0,1-1.51-.3l-1.51-.53a12,12,0,0,0-6.1-.66,8.64,8.64,0,0,0-1.88.52,12.45,12.45,0,0,0-3.55,2,10.36,10.36,0,0,0-2.5,2.89,9,9,0,0,0-1.13,3.53,8.25,8.25,0,0,0,.55,3.8,11,11,0,0,0,2.44,3.68,16.89,16.89,0,0,0,4.6,3.25l5.67,2.93a8.63,8.63,0,0,1,3.54,3.11,6.76,6.76,0,0,1,1,3.62,6.27,6.27,0,0,1-1.13,3.37,6.86,6.86,0,0,1-2.87,2.42A11.7,11.7,0,0,1,238,75h-.4a10.55,10.55,0,0,1-6.82-2.6,6,6,0,0,1-1.22-1.57,12.35,12.35,0,0,1-1-2.12,15.24,15.24,0,0,1-.62-2.24,10.89,10.89,0,0,1-.22-2l0-.39h-1.09V76.23h.7l.39,0v-.32l.23-.51a1.6,1.6,0,0,1,.67-.64,3.59,3.59,0,0,1,1.56-.31,7.74,7.74,0,0,1,2.78.66,3.69,3.69,0,0,0,.5.2,10.77,10.77,0,0,0,4,.79H238c.22,0,.44,0,.64,0s.42,0,.67-.07h0A18,18,0,0,0,245,74.27a12.76,12.76,0,0,0,3.88-2.92,8.74,8.74,0,0,0,1.95-3.75A8.41,8.41,0,0,0,250.73,63.55Z"/><path class="cls-2" d="M62.19,2.81c-.23.14-.4.11-.49-.1a1.53,1.53,0,0,0-.28-.46,4.61,4.61,0,0,0-.8-.59,1.7,1.7,0,0,0-1.23-.18,2,2,0,0,0-1.33,1.23c-.37.72-.68,1.34-.91,1.85a37,37,0,0,0-2,6c-.54,2.2-1,4.34-1.37,6.44q2.81-1,6-2.31a43.24,43.24,0,0,1,6.65-2,28.52,28.52,0,0,1,3.47-.52,8.1,8.1,0,0,1,3.46.38c.23.09.49.21.77.35a.68.68,0,0,1,.35.77,1.13,1.13,0,0,1-1.26.21,5.26,5.26,0,0,0-1.47-.35A8.32,8.32,0,0,0,69,13.7c-.89.21-1.75.43-2.59.66s-1.64.48-2.41.74-1.49.52-2.14.8a45.94,45.94,0,0,0-4.41,1.72q-2.1.94-4.13,2c-.23,1.45-.44,2.94-.63,4.48s-.37,3.13-.56,4.76c0,.51-.1,1-.17,1.58a6.9,6.9,0,0,0,0,1.57,5.91,5.91,0,0,0,.28,1.16,11.47,11.47,0,0,1,.35,1.15,44.85,44.85,0,0,1,1.12,13.23c0,.51,0,1-.07,1.58a7.23,7.23,0,0,1-.28,1.47,2.62,2.62,0,0,1-.63,1.08,1.51,1.51,0,0,1-1.12.42,1.37,1.37,0,0,1-1-.38,2.66,2.66,0,0,1-.6-1,6.29,6.29,0,0,1-.31-1.19c-.07-.42-.13-.82-.18-1.19a41.39,41.39,0,0,1-.59-6.68q0-3.47.17-7c0-.46.11-.93.18-1.4a5,5,0,0,0,0-1.33,2.92,2.92,0,0,0-.38-1.12c-.21-.37-.41-.74-.6-1.12a10.48,10.48,0,0,0-1.22-2L45.6,25.84c-.23-.28-.48-.59-.73-.94a1.91,1.91,0,0,1-.39-1.16,2.17,2.17,0,0,1,.28-1,4.33,4.33,0,0,1,.7-.91,5.71,5.71,0,0,1,.91-.73,8.46,8.46,0,0,0,.84-.6c.66-.42,1.27-.78,1.86-1.08l1.92-1c.42-2.28,1-4.63,1.65-7A56.18,56.18,0,0,1,54.91,4.7,19.33,19.33,0,0,1,56.42,2,4.78,4.78,0,0,1,58.69.08c0,.05.05,0,.14-.07a2.47,2.47,0,0,1,1.61.32c.37.25.75.52,1.12.8a4.94,4.94,0,0,0,.6.77A.66.66,0,0,1,62.19,2.81ZM47,23.67a18.2,18.2,0,0,1,1.44,1.61,14.8,14.8,0,0,1,1.22,1.82q.21-1.47.39-3c.11-1,.27-2,.45-2.91l-.07-.07c-.6.42-1.21.82-1.82,1.19A7.66,7.66,0,0,0,47,23.67Z"/><path class="cls-2" d="M71.92,16.53A5.45,5.45,0,0,1,75.67,18a6.8,6.8,0,0,1,1.71,3.57c1.49-.28,3.05-.59,4.66-.94s3.18-.72,4.72-1.09a6.55,6.55,0,0,0,.7-.24,5,5,0,0,1,.88-.28,2.3,2.3,0,0,1,.8-.07.55.55,0,0,1,.49.31.43.43,0,0,1-.14.56,3.49,3.49,0,0,1-.7.39,5.71,5.71,0,0,1-.91.28,6.55,6.55,0,0,0-.7.17c-1.49.47-3.07.88-4.72,1.23s-3.31.68-4.94,1A14.77,14.77,0,0,1,76.93,28,17.82,17.82,0,0,1,75,32.28a22.39,22.39,0,0,1-2.69,3.36,7.71,7.71,0,0,1-3.68,2.1h-1a2.86,2.86,0,0,1-1.19-.52,11.92,11.92,0,0,1-.91-.81,6.09,6.09,0,0,1-1.08-3,17.74,17.74,0,0,1,0-3.71,33.11,33.11,0,0,1,.63-3.78c.28-1.24.54-2.35.77-3.33a2.74,2.74,0,0,1,0-2.52,5.45,5.45,0,0,1,1.36-1.82,12.25,12.25,0,0,0,.53-1.47,12.34,12.34,0,0,1,.59-1.61,4.81,4.81,0,0,1,.88-1.33,1.79,1.79,0,0,1,1.36-.56,1.37,1.37,0,0,1,1.4,1A3.81,3.81,0,0,1,71.92,16.53Zm-3.36,7.28q-.34,2-.87,4.38A17.41,17.41,0,0,0,67.3,33a6.27,6.27,0,0,0,.25,1.19,1.67,1.67,0,0,0,.66.91,5.36,5.36,0,0,0,3.22-1.68c.79-.89,1.54-1.79,2.24-2.73a26.11,26.11,0,0,0,1.68-3.39,8.54,8.54,0,0,0,.56-4.1,33.57,33.57,0,0,1-3.57.53A29.83,29.83,0,0,1,68.56,23.81ZM71.64,18a2.25,2.25,0,0,0-.14.81.47.47,0,0,1-.42.52,1.19,1.19,0,0,1-.31,0,2.41,2.41,0,0,1-.25-.11,1.29,1.29,0,0,1-.07-1,2.86,2.86,0,0,0-.52.91,10,10,0,0,0-.32,1.05,9.63,9.63,0,0,0-.35,1.12c-.09.37-.19.75-.28,1.12,1.31,0,2.52-.05,3.64-.14s2.22-.23,3.29-.42a5.47,5.47,0,0,0-1.29-2.76A4.11,4.11,0,0,0,71.64,18Z"/><path class="cls-2" d="M99.57,16.39a10.42,10.42,0,0,0-3.25,3.36q-1.23,2-2.63,4.06l-1.12,2.24a21.33,21.33,0,0,0-1,2.31,11.87,11.87,0,0,0-1,2.28,2.53,2.53,0,0,1-1.68,1.64h-.63a1.71,1.71,0,0,1-.59-.38,3.17,3.17,0,0,1-.46-.6,22,22,0,0,1-.1-2.87c0-1,.07-2.06.14-3.11a30.52,30.52,0,0,1,.35-3.08c.16-1,.34-1.93.52-2.77a10.1,10.1,0,0,1,.42-1.54A1.35,1.35,0,0,1,89.63,17a.88.88,0,0,1,.81.63,4.06,4.06,0,0,1,.14,1.3,14.9,14.9,0,0,1-.18,1.54,8.16,8.16,0,0,0-.14,1.29q-.14,1.39-.24,2.52c-.07.75-.16,1.45-.25,2.1q1.19-2,2.87-4.41a44.1,44.1,0,0,1,3.43-4.41,14.12,14.12,0,0,1,1.23-1.36,4.72,4.72,0,0,1,1.43-1,2.06,2.06,0,0,1,1.3,0,1.08,1.08,0,0,1,.8.77c.09.56,0,.86-.42.91A.78.78,0,0,1,99.57,16.39Z"/></g></g></svg>