<svg xmlns="http://www.w3.org/2000/svg" viewBox="0 0 251 76.27"><defs><style>.cls-1{fill:#53575a;}.cls-2{fill:#ff8300;}</style></defs><g id="Layer_2" data-name="Layer 2"><g id="Layer_1-2" data-name="Layer 1"><path class="cls-1" d="M29.44,48.93a9.67,9.67,0,0,0-.73-3.77,8,8,0,0,0-2.16-3,10.85,10.85,0,0,0-3.73-2,18.68,18.68,0,0,0-5.33-.69H0v1H1.8a4.29,4.29,0,0,1,2.87.94,4.63,4.63,0,0,1,.77,3.13V71.12a7.49,7.49,0,0,1-.25,2.18,2.31,2.31,0,0,1-.77,1.16,3.17,3.17,0,0,1-1.5.57,17.93,17.93,0,0,1-2.53.16H0v1.08H16.43v-.5l.55-.58H14.71a6.88,6.88,0,0,1-1.81-.28,2.53,2.53,0,0,1-1.1-.64,2.58,2.58,0,0,1-.58-1.13,8.28,8.28,0,0,1-.19-2V58.41h6.46a17,17,0,0,0,5.33-.74,10.2,10.2,0,0,0,3.74-2A8.51,8.51,0,0,0,29.44,48.93ZM11,44.57a4.84,4.84,0,0,1,.69-3,4,4,0,0,1,2.53-1h2.88a5.74,5.74,0,0,1,5,2.4,10.19,10.19,0,0,1,1.59,6,13.27,13.27,0,0,1-.3,2.91,9.16,9.16,0,0,1-.87,2.36,6,6,0,0,1-.86,1.24,6.65,6.65,0,0,1-.95.87,6.19,6.19,0,0,1-3.6,1.06H11Z"/><path class="cls-1" d="M60.59,74.85a2.69,2.69,0,0,1-1.2-.55,5.92,5.92,0,0,1-1.26-1.48,19.19,19.19,0,0,1-1.45-3L44.62,39.7l-.1-.24h-.88L31.44,69.94a8.46,8.46,0,0,1-1.85,3,8.94,8.94,0,0,1-2,1.53,5.31,5.31,0,0,1-1.63.57l-.75.09h-.38v1.08H37.58V75.1H37.2l-.57,0a7.06,7.06,0,0,1-1.22-.17A8.22,8.22,0,0,1,34,74.43a3.32,3.32,0,0,1-1.19-.85,2.72,2.72,0,0,1-.61-1.34,4,4,0,0,1,.36-2.06l3.33-8.26h12L51.1,70A12.53,12.53,0,0,1,52,73.1a1.44,1.44,0,0,1-.36,1.28,2.78,2.78,0,0,1-1.53.51c-.76.08-1.67.15-2.75.21l-.36,0v1.06H62.51v-1l-.33-.05Zm-24.31-14,5.6-13.92,5.55,13.92Z"/><path class="cls-1" d="M59.22,49.59H60.3V49.2c.2-.92.46-1.89.75-2.88a10,10,0,0,1,1.3-2.71,7.5,7.5,0,0,1,2.27-2.09,8.41,8.41,0,0,1,3.71-1h.24a8.71,8.71,0,0,1,1.82.3,2.3,2.3,0,0,1,1.06.61A2.38,2.38,0,0,1,72,42.54a8.33,8.33,0,0,1,.19,2V71A7.49,7.49,0,0,1,72,73.21a2.37,2.37,0,0,1-.75,1.16,3,3,0,0,1-1.48.57,17.72,17.72,0,0,1-2.53.16h-.39v1.08H83.26V75.1H81.49a6.65,6.65,0,0,1-1.79-.28,2.53,2.53,0,0,1-1.07-.64A2.5,2.5,0,0,1,78.05,73a8.32,8.32,0,0,1-.19-2V44.48a4.85,4.85,0,0,1,.69-3,3.67,3.67,0,0,1,2.48-1h.37a8.65,8.65,0,0,1,3.77,1,7,7,0,0,1,2.26,2.09,10.19,10.19,0,0,1,1.28,2.71c.29,1,.56,1.93.79,2.84v.43h1.09V39.37H59.22Z"/><path class="cls-1" d="M106.45,74.91a2.43,2.43,0,0,1-1.09-.64,2.38,2.38,0,0,1-.58-1.13,8.21,8.21,0,0,1-.2-2V44.57a4.83,4.83,0,0,1,.7-3,3.92,3.92,0,0,1,2.52-1h1.8l.39,0v-1H93.55v1h1.81a4.31,4.31,0,0,1,2.87.94A4.68,4.68,0,0,1,99,44.61V71.12a7.85,7.85,0,0,1-.25,2.18A2.4,2.4,0,0,1,98,74.46a3.25,3.25,0,0,1-1.51.57,17.72,17.72,0,0,1-2.53.16h-.39v1.08H110V75.19h-1.77A6.88,6.88,0,0,1,106.45,74.91Z"/><path class="cls-1" d="M143.2,65.1a15.07,15.07,0,0,1-2,5.09,13.08,13.08,0,0,1-1.44,1.86,9.32,9.32,0,0,1-1.92,1.57,10.35,10.35,0,0,1-2.54,1.13h0a11,11,0,0,1-3.22.44h-5a6.65,6.65,0,0,1-1.79-.28,2.57,2.57,0,0,1-1.08-.64,2.47,2.47,0,0,1-.57-1.13,8.21,8.21,0,0,1-.2-2,4.54,4.54,0,0,0,0-.81V58.41h5.82a5.06,5.06,0,0,1,3,.74,5.18,5.18,0,0,1,1.62,1.73,5.7,5.7,0,0,1,.68,1.92,11,11,0,0,1,.13,1.25v.52h1.08V51.25h-1.08v.52a9.87,9.87,0,0,1-.13,1.2,5.75,5.75,0,0,1-.66,1.85,5.54,5.54,0,0,1-1.56,1.75,4.8,4.8,0,0,1-2.8.8h-6.05V40.54h8.07a9.5,9.5,0,0,1,4.33.84,7.25,7.25,0,0,1,2.56,2.09,8.89,8.89,0,0,1,1.41,2.82c.31,1.07.59,2.11.81,3.05v.38h1.09V39.5h-29.3v1h1.8a4.29,4.29,0,0,1,2.87.94,4.68,4.68,0,0,1,.77,3.13,1.76,1.76,0,0,0,0,.33,1.49,1.49,0,0,1,0,.21v26a7.91,7.91,0,0,1-.25,2.18,2.4,2.4,0,0,1-.77,1.16,3.25,3.25,0,0,1-1.51.57,17.72,17.72,0,0,1-2.53.16h-.39v1.08h30.48l1.39-11.48h-1.06Z"/><path class="cls-1" d="M172.75,40.59h1.06a11.63,11.63,0,0,1,1.85.19,8.19,8.19,0,0,1,2.21.73,5.35,5.35,0,0,1,1.83,1.54,4.21,4.21,0,0,1,.75,2.64V66.92L158.38,39.5h-10.2v1.09H150a8.4,8.4,0,0,1,2.3.23,1.68,1.68,0,0,1,1,.63,2.19,2.19,0,0,1,.34,1.14c0,.51,0,1.13,0,1.84V70a4.34,4.34,0,0,1-.75,2.69,5.32,5.32,0,0,1-1.83,1.53,8.08,8.08,0,0,1-2.21.73,11.85,11.85,0,0,1-1.85.2h-1.06v1.08h16.53V75.19h-1.07a11.86,11.86,0,0,1-1.84-.2,8.08,8.08,0,0,1-2.21-.73,5.32,5.32,0,0,1-1.83-1.53,4.34,4.34,0,0,1-.75-2.69V43.87l25.77,32.26.12.14h.93V45.69a4.21,4.21,0,0,1,.75-2.64,5.35,5.35,0,0,1,1.83-1.54,8.08,8.08,0,0,1,2.21-.73,11.63,11.63,0,0,1,1.84-.19h1.07V39.5H172.75Z"/><path class="cls-1" d="M192,49.59H193V49.2c.21-.92.47-1.89.76-2.88a10,10,0,0,1,1.3-2.71,7.5,7.5,0,0,1,2.27-2.09,8.41,8.41,0,0,1,3.71-1h.24a8.72,8.72,0,0,1,1.81.3,2.29,2.29,0,0,1,1.07.61,2.48,2.48,0,0,1,.58,1.13,8.33,8.33,0,0,1,.19,2V71a7.49,7.49,0,0,1-.25,2.18,2.37,2.37,0,0,1-.75,1.16,3,3,0,0,1-1.48.57,17.72,17.72,0,0,1-2.53.16h-.39v1.08H216V75.1h-1.76a6.65,6.65,0,0,1-1.79-.28,2.47,2.47,0,0,1-1.07-.64A2.41,2.41,0,0,1,210.8,73a8.27,8.27,0,0,1-.2-2V44.48a4.84,4.84,0,0,1,.7-3,3.64,3.64,0,0,1,2.47-1h.38a8.65,8.65,0,0,1,3.77,1,7,7,0,0,1,2.26,2.09,10.19,10.19,0,0,1,1.28,2.71c.29,1,.56,1.93.79,2.84v.43h1.09V39.37H192Z"/><path class="cls-1" d="M250.73,63.55a9.7,9.7,0,0,0-2.06-3.86,13.37,13.37,0,0,0-4-3.18l-5.16-2.65A19.69,19.69,0,0,1,234,49.61,7.76,7.76,0,0,1,232,45.7a4.23,4.23,0,0,1,.87-3.15,6.16,6.16,0,0,1,3-2,9.05,9.05,0,0,1,1.45-.32,9.91,9.91,0,0,1,4.87.48,8.51,8.51,0,0,1,2.84,1.69,12.14,12.14,0,0,1,1.22,1.37,12.76,12.76,0,0,1,1.09,1.74,11.16,11.16,0,0,1,.76,1.94,7,7,0,0,1,.27,1.87v.39h1.13V39.14h-.92l-.11.19a2.54,2.54,0,0,1-1.08,1.06,3.1,3.1,0,0,1-1.36.24,5.78,5.78,0,0,1-1.51-.3l-1.51-.53a12,12,0,0,0-6.1-.66,8.8,8.8,0,0,0-1.88.52,12.59,12.59,0,0,0-3.55,2,10.53,10.53,0,0,0-2.5,2.89,9.09,9.09,0,0,0-1.13,3.53,8.25,8.25,0,0,0,.55,3.8,11.15,11.15,0,0,0,2.44,3.69,16.88,16.88,0,0,0,4.6,3.24l5.67,2.93a8.63,8.63,0,0,1,3.54,3.11,6.76,6.76,0,0,1,1,3.62,6.33,6.33,0,0,1-1.13,3.38,7,7,0,0,1-2.87,2.42A12.29,12.29,0,0,1,238,75h-.4a10.77,10.77,0,0,1-3.69-.72,10.51,10.51,0,0,1-3.13-1.89,6,6,0,0,1-1.22-1.56,13.09,13.09,0,0,1-1-2.12,15.71,15.71,0,0,1-.62-2.25,10.89,10.89,0,0,1-.22-2l0-.39h-1.09V76.23h.7l.39,0v-.32l.23-.51a1.53,1.53,0,0,1,.67-.63,3.44,3.44,0,0,1,1.56-.32,7.73,7.73,0,0,1,2.78.66,4.1,4.1,0,0,0,.49.2,10.86,10.86,0,0,0,4.05.79H238c.22,0,.44,0,.64,0s.42,0,.67-.07h0A18,18,0,0,0,245,74.27a12.76,12.76,0,0,0,3.88-2.92,8.74,8.74,0,0,0,1.95-3.75A8.41,8.41,0,0,0,250.73,63.55Z"/><path class="cls-2" d="M100.83,16a1.08,1.08,0,0,0-.8-.77,2.06,2.06,0,0,0-1.3,0,4.72,4.72,0,0,0-1.43,1,14.12,14.12,0,0,0-1.23,1.36A44.1,44.1,0,0,0,92.64,22Q91,24.44,89.77,26.4c.09-.65.18-1.35.25-2.1s.15-1.59.24-2.52a8.16,8.16,0,0,1,.14-1.29A14.9,14.9,0,0,0,90.58,19a4,4,0,0,0-.14-1.3.88.88,0,0,0-.81-.63,1.35,1.35,0,0,0-1.12.91,10.23,10.23,0,0,0-.33,1.13,6.08,6.08,0,0,0-.72.24,6.55,6.55,0,0,1-.7.24c-1.54.37-3.11.74-4.72,1.09s-3.17.66-4.66.94A6.8,6.8,0,0,0,75.67,18a5.45,5.45,0,0,0-3.75-1.47,3.81,3.81,0,0,0,0-2.27,1.48,1.48,0,0,0-.52-.76l.31,0a5.26,5.26,0,0,1,1.47.35,1.13,1.13,0,0,0,1.26-.21.68.68,0,0,0-.35-.77c-.28-.14-.54-.26-.77-.35a8.1,8.1,0,0,0-3.46-.38,28.52,28.52,0,0,0-3.47.52,42.16,42.16,0,0,0-6.65,2Q56.59,16,53.79,17c.38-2.1.83-4.25,1.37-6.44a37,37,0,0,1,2-6c.23-.51.54-1.13.91-1.85a2,2,0,0,1,1.33-1.23,1.7,1.7,0,0,1,1.23.18,4.14,4.14,0,0,1,.8.59,1.53,1.53,0,0,1,.28.46c.09.21.26.24.49.1a.66.66,0,0,0,0-.91,4.94,4.94,0,0,1-.6-.77c-.37-.28-.75-.55-1.12-.8A2.47,2.47,0,0,0,58.83,0c-.09.09-.14.12-.14.07A4.78,4.78,0,0,0,56.42,2,19.33,19.33,0,0,0,54.91,4.7a56.18,56.18,0,0,0-2.27,6.62q-1,3.6-1.65,7l-1.92,1c-.59.3-1.2.66-1.86,1.08a8.46,8.46,0,0,1-.84.6,5.71,5.71,0,0,0-.91.73,4.33,4.33,0,0,0-.7.91,2.17,2.17,0,0,0-.28,1,1.91,1.91,0,0,0,.39,1.16c.25.35.5.66.73.94L47,27.66a10.48,10.48,0,0,1,1.22,2c.19.37.39.75.6,1.12a2.92,2.92,0,0,1,.38,1.12,5,5,0,0,1,0,1.33c-.07.47-.13.93-.18,1.4q-.21,3.57-.17,7a41.39,41.39,0,0,0,.59,6.68c0,.37.11.77.18,1.19a6.29,6.29,0,0,0,.31,1.19,2.66,2.66,0,0,0,.6,1,1.37,1.37,0,0,0,1,.38,1.51,1.51,0,0,0,1.12-.42,2.62,2.62,0,0,0,.63-1.08,7.23,7.23,0,0,0,.28-1.47c.05-.54.07-1.07.07-1.58a44.85,44.85,0,0,0-1.12-13.23,11.47,11.47,0,0,0-.35-1.15A5.91,5.91,0,0,1,51.9,32a6.9,6.9,0,0,1,0-1.57c.07-.54.12-1.07.17-1.58.19-1.63.37-3.22.56-4.76s.4-3,.63-4.48q2-1,4.13-2a45.94,45.94,0,0,1,4.41-1.72c.65-.28,1.37-.55,2.14-.8s1.57-.51,2.41-.74,1.7-.45,2.59-.66l.38-.08a1.71,1.71,0,0,0-.2.18,4.81,4.81,0,0,0-.88,1.33,11.83,11.83,0,0,0-.59,1.61,12.25,12.25,0,0,1-.53,1.47A5.45,5.45,0,0,0,65.8,20a2.74,2.74,0,0,0,0,2.52c-.23,1-.49,2.09-.77,3.33a33.11,33.11,0,0,0-.63,3.78,17.74,17.74,0,0,0,0,3.71,6.09,6.09,0,0,0,1.08,3,11.92,11.92,0,0,0,.91.81,2.86,2.86,0,0,0,1.19.52h1a7.71,7.71,0,0,0,3.68-2.1A22.39,22.39,0,0,0,75,32.28,17.82,17.82,0,0,0,76.93,28a14.77,14.77,0,0,0,.59-5.08c1.63-.33,3.28-.66,4.94-1s3.23-.76,4.72-1.23a6.55,6.55,0,0,1,.7-.17h0c-.11.55-.21,1.13-.31,1.75a30.52,30.52,0,0,0-.35,3.08c-.07,1.05-.12,2.09-.14,3.11a22,22,0,0,0,.1,2.87,3.17,3.17,0,0,0,.46.6,1.71,1.71,0,0,0,.59.38h.63a2.53,2.53,0,0,0,1.68-1.64,11.87,11.87,0,0,1,1-2.28,21.33,21.33,0,0,1,1-2.31l1.12-2.24c.93-1.35,1.81-2.71,2.63-4.06a10.42,10.42,0,0,1,3.25-3.36.78.78,0,0,0,.84.49C100.78,16.83,100.92,16.53,100.83,16ZM50.05,24.13q-.18,1.5-.39,3a14.8,14.8,0,0,0-1.22-1.82A18.2,18.2,0,0,0,47,23.67a7.66,7.66,0,0,1,1.61-1.33c.61-.37,1.22-.77,1.82-1.19l.07.07C50.32,22.16,50.16,23.12,50.05,24.13Zm19.21-2.84a9.63,9.63,0,0,1,.35-1.12,10,10,0,0,1,.32-1.05,2.86,2.86,0,0,1,.52-.91,1.29,1.29,0,0,0,.07,1,2.41,2.41,0,0,0,.25.11,1.19,1.19,0,0,0,.31,0,.47.47,0,0,0,.42-.52,2.21,2.21,0,0,1,.14-.81,4.11,4.11,0,0,1,3,1.09,5.47,5.47,0,0,1,1.29,2.76c-1.07.19-2.17.33-3.29.42s-2.33.14-3.64.14C69.07,22,69.17,21.66,69.26,21.29Zm6.09,6a26.76,26.76,0,0,1-1.68,3.39c-.7.93-1.45,1.84-2.24,2.73a5.36,5.36,0,0,1-3.22,1.68,1.67,1.67,0,0,1-.66-.91A6.27,6.27,0,0,1,67.3,33a17.41,17.41,0,0,1,.39-4.79q.53-2.36.87-4.38a29.83,29.83,0,0,0,3.78-.1,33.57,33.57,0,0,0,3.57-.53A8.54,8.54,0,0,1,75.35,27.28Z"/><path class="cls-2" d="M199.07,16a1.09,1.09,0,0,0-.81-.77,2,2,0,0,0-1.29,0,4.64,4.64,0,0,0-1.44,1,15.44,15.44,0,0,0-1.22,1.36A44.1,44.1,0,0,0,190.88,22Q189.2,24.44,188,26.4q.13-1,.24-2.1c.07-.75.15-1.59.25-2.52a7.12,7.12,0,0,1,.14-1.29,12.49,12.49,0,0,0,.17-1.54,3.76,3.76,0,0,0-.14-1.3.87.87,0,0,0-.8-.63,1.33,1.33,0,0,0-1.12.91,8.82,8.82,0,0,0-.42,1.54v.06l-.06.08c-.66.84-1.32,1.65-2,2.42s-1.34,1.55-2,2.34a19.52,19.52,0,0,0-1.4,1.54,14.82,14.82,0,0,1-1.4,1.47l-.63.63a7.41,7.41,0,0,1-.91.77,7.56,7.56,0,0,1-1,.6,1.44,1.44,0,0,1-1,.1,1.42,1.42,0,0,1-1-.87q-.36-.73-.63-1.44c-.19-.51-.35-1-.49-1.57s-.26-1-.35-1.51-.2-1.07-.32-1.68a10.75,10.75,0,0,0-.45-1.64,4.11,4.11,0,0,0-.74-1.26,1.77,1.77,0,0,0-1.22-.6,1.84,1.84,0,0,0-1.68.63,10.26,10.26,0,0,1-1.19,1.26,12.27,12.27,0,0,0-1,1.33c-.33.47-.66,1-1,1.47-.52.65-1,1.35-1.51,2.1s-1,1.45-1.5,2.1l-.46.74a1.27,1.27,0,0,1-.59.52c0-1.87.08-3.64.24-5.32s.36-3.31.6-4.9a7.45,7.45,0,0,1,.14-2.06,3.92,3.92,0,0,0-.07-1.93,1.8,1.8,0,0,0-.35-.38.74.74,0,0,0-.63-.11,1,1,0,0,0-.67.46,4.13,4.13,0,0,0-.42.94,6.28,6.28,0,0,0-.24,1.16c-.05.39-.1.75-.14,1.08L160,19.11a5.27,5.27,0,0,0-.56.19c-.28.11-.52.19-.7.24-1.54.37-3.12.74-4.73,1.09s-3.16.66-4.65.94A6.74,6.74,0,0,0,147.65,18a5.41,5.41,0,0,0-3.74-1.47,3.81,3.81,0,0,0,0-2.27,1.37,1.37,0,0,0-1.4-1,1.81,1.81,0,0,0-1.37.56,4.79,4.79,0,0,0-.87,1.33,11.86,11.86,0,0,0-.6,1.61,12.33,12.33,0,0,1-.52,1.47A5.46,5.46,0,0,0,137.78,20a1.27,1.27,0,0,0-.06.18l-.25.31c-1.73,2.1-3.44,4.21-5.15,6.34s-3.44,4.14-5.21,6c.32-2,.63-4.3.91-6.89s.53-5.1.77-7.53c0-.79.1-1.69.17-2.69a3.76,3.76,0,0,0-.38-2.28c-.28-.51-.63-.7-1.05-.56a3,3,0,0,0-1.68,1.51,7.12,7.12,0,0,1-1.4,1.85c-.42.65-.87,1.27-1.33,1.86A21.26,21.26,0,0,0,121.79,20q-1.47,1.81-2.77,3.75a9.29,9.29,0,0,1-3.39,3,4.4,4.4,0,0,1-.53-2.1q0-1.26,0-2.52a9.18,9.18,0,0,1,.1-1.29,10,10,0,0,0,.11-1.4,3.37,3.37,0,0,0-.18-1.16.65.65,0,0,0-.66-.49,1.07,1.07,0,0,0-1.09.56,4.1,4.1,0,0,0-.52,1.33,15.65,15.65,0,0,0-.46,2.87,12,12,0,0,0,.14,2.91,6.88,6.88,0,0,0,.88,2.38,2.53,2.53,0,0,0,1.68,1.22h.77a1.73,1.73,0,0,0,.56-.21,1.64,1.64,0,0,1,.56-.21,17.36,17.36,0,0,0,2.62-2.8c.77-1,1.51-2.09,2.21-3.18s1.39-2.21,2.06-3.33a27.66,27.66,0,0,1,2.21-3.15,7.77,7.77,0,0,0,.66-.94,1.52,1.52,0,0,1,.67-.67q-.57,5.53-1.47,10.71T124,35.71q-2.31,2.65-4.52,5.46a66.87,66.87,0,0,0-4.16,5.95c-.52.93-1.08,2-1.68,3.08A34.59,34.59,0,0,0,112,53.77a29.29,29.29,0,0,0-1,3.26,18.24,18.24,0,0,0-.6,3.67,8.57,8.57,0,0,0,.42,3.33,2.82,2.82,0,0,0,3.43,2.13,9.13,9.13,0,0,0,1.16-.35A8.3,8.3,0,0,0,118,63.33c.68-1,1.32-2,1.93-3.12A46.15,46.15,0,0,0,124,48.91q1.44-6.27,2.56-12.78,3.71-4.41,7.24-8.78c1.33-1.65,2.64-3.32,4-5a1.43,1.43,0,0,0,.08.22c-.24,1-.49,2.09-.77,3.33a33.11,33.11,0,0,0-.63,3.78,18.47,18.47,0,0,0,0,3.71,6.1,6.1,0,0,0,1.09,3,10.27,10.27,0,0,0,.91.81,2.81,2.81,0,0,0,1.19.52h1.05a7.68,7.68,0,0,0,3.67-2.1,22.45,22.45,0,0,0,2.7-3.36,17.8,17.8,0,0,0,1.92-4.3,14.77,14.77,0,0,0,.6-5.08c1.63-.33,3.28-.66,4.93-1s3.23-.76,4.73-1.23l.6-.15c0,.23-.07.44-.11.68-.19,1.14-.33,2.31-.42,3.5a26.89,26.89,0,0,0-.07,3.46,8.89,8.89,0,0,0,.56,2.94,2.89,2.89,0,0,0,.87.7,2,2,0,0,0,1.3.14,6.74,6.74,0,0,0,2.52-2.45c.6-1,1.23-2.05,1.89-3.08.32-.51.64-1,.94-1.5s.64-1,1-1.51l1.08-1.47a3.9,3.9,0,0,1,1.3-1.12,10.19,10.19,0,0,1,.94,2.66c.21,1,.43,1.94.67,2.87A13.23,13.23,0,0,0,173.2,29a4.84,4.84,0,0,0,1.65,1.92,2.93,2.93,0,0,0,2.69,0,17.94,17.94,0,0,0,2-1.44A29.13,29.13,0,0,0,183,25.77c1-1.24,1.92-2.39,2.82-3.47-.15,1-.27,2-.34,3s-.11,2.09-.14,3.11a22,22,0,0,0,.11,2.87,3.61,3.61,0,0,0,.45.6,1.76,1.76,0,0,0,.6.38h.63a2.53,2.53,0,0,0,1.68-1.64,11.87,11.87,0,0,1,1.05-2.28,19.51,19.51,0,0,1,1-2.31l1.12-2.24c.93-1.35,1.81-2.71,2.62-4.06a10.45,10.45,0,0,1,3.26-3.36.77.77,0,0,0,.84.49C199,16.83,199.16,16.53,199.07,16ZM120.81,49.75a47.41,47.41,0,0,1-3.5,9.34,29.87,29.87,0,0,1-1.54,2.7,5.15,5.15,0,0,1-2.24,1.92,1.94,1.94,0,0,1-.91-1.54,11.92,11.92,0,0,1,0-1.89,20.56,20.56,0,0,1,1.26-5.46,36.53,36.53,0,0,1,2.1-4.55,56.26,56.26,0,0,1,3.46-5.67c1.24-1.77,2.49-3.48,3.75-5.11,0,0,.07,0,.07.07Q122.14,44.68,120.81,49.75Zm21.1-30.63a2.89,2.89,0,0,1,.53-.91,1.24,1.24,0,0,0,.07,1l.24.11a1.27,1.27,0,0,0,.32,0,.47.47,0,0,0,.42-.52,2,2,0,0,1,.14-.81,4.09,4.09,0,0,1,3,1.09,5.56,5.56,0,0,1,1.3,2.76c-1.08.19-2.17.33-3.29.42s-2.34.14-3.64.14c.09-.37.18-.75.28-1.12a9.63,9.63,0,0,1,.35-1.12C141.69,19.8,141.8,19.45,141.91,19.12Zm5.43,8.16a29.74,29.74,0,0,1-1.68,3.39c-.7.93-1.45,1.84-2.24,2.73a5.39,5.39,0,0,1-3.22,1.68,1.74,1.74,0,0,1-.67-.91,6.27,6.27,0,0,1-.24-1.19,17,17,0,0,1,.38-4.79c.35-1.57.64-3,.88-4.38a29.83,29.83,0,0,0,3.78-.1,33.57,33.57,0,0,0,3.57-.53A8.54,8.54,0,0,1,147.34,27.28Z"/></g></g></svg>