<svg xmlns="http://www.w3.org/2000/svg" viewBox="0 0 283.58 69.32"><defs><style>.cls-1{fill:#53575a;}.cls-2{fill:#ff8300;}</style></defs><g id="Layer_2" data-name="Layer 2"><g id="Layer_1-2" data-name="Layer 1"><path class="cls-1" d="M22,52.69a13.37,13.37,0,0,0-4-3.18l-5.16-2.65A19.69,19.69,0,0,1,7.3,42.61,7.68,7.68,0,0,1,5.38,38.7a4.23,4.23,0,0,1,.87-3.15,6.16,6.16,0,0,1,3-2,9.17,9.17,0,0,1,1.44-.32,9.94,9.94,0,0,1,4.88.48,8.61,8.61,0,0,1,2.84,1.69,11.21,11.21,0,0,1,1.21,1.37,11.35,11.35,0,0,1,1.09,1.74,10.42,10.42,0,0,1,.76,1.94,6.68,6.68,0,0,1,.28,1.87v.39h1.13V32.14H22l-.11.19a2.59,2.59,0,0,1-1.08,1.06,3.13,3.13,0,0,1-1.36.24,5.93,5.93,0,0,1-1.52-.3l-1.51-.53a12,12,0,0,0-6.09-.66,8.64,8.64,0,0,0-1.88.52,12.45,12.45,0,0,0-3.55,2,10.2,10.2,0,0,0-2.5,2.89,9,9,0,0,0-1.13,3.53,8.38,8.38,0,0,0,.54,3.8,11.35,11.35,0,0,0,2.45,3.69,16.88,16.88,0,0,0,4.6,3.24l5.67,2.93a8.66,8.66,0,0,1,3.53,3.11,6.69,6.69,0,0,1,1,3.62,6.29,6.29,0,0,1-1.13,3.37,6.92,6.92,0,0,1-2.87,2.42,11.7,11.7,0,0,1-3.69.74H11a10.87,10.87,0,0,1-3.7-.72A10.47,10.47,0,0,1,4.15,65.4a5.84,5.84,0,0,1-1.22-1.56,13.73,13.73,0,0,1-1-2.13,15.54,15.54,0,0,1-.61-2.24,10.09,10.09,0,0,1-.22-2l0-.39H0V69.23H.7l.39,0v-.32c0-.09.11-.26.23-.51A1.47,1.47,0,0,1,2,67.72a3.42,3.42,0,0,1,1.55-.32,8.34,8.34,0,0,1,2.79.66,4.1,4.1,0,0,0,.49.2,10.86,10.86,0,0,0,4,.79h.45c.22,0,.43,0,.64,0s.42,0,.67-.07h0a18.13,18.13,0,0,0,5.66-1.67,12.62,12.62,0,0,0,3.88-2.93,8.76,8.76,0,0,0,1.95-3.74,8.54,8.54,0,0,0-.05-4.05A9.83,9.83,0,0,0,22,52.69ZM19.4,34.4a3.63,3.63,0,0,0,1.7-.31,2.78,2.78,0,0,0,1-.8v6.57a11.89,11.89,0,0,0-1.87-3.58A10.84,10.84,0,0,0,19,34.8c-.23-.2-.47-.39-.72-.58A6.8,6.8,0,0,0,19.4,34.4ZM3.53,66.63A4.11,4.11,0,0,0,1.62,67a2.58,2.58,0,0,0-.85.73V60.42c.13.52.29,1,.47,1.55a14.28,14.28,0,0,0,1,2.25A6.85,6.85,0,0,0,3.64,66a12,12,0,0,0,1,.76A5.49,5.49,0,0,0,3.53,66.63Zm19.84-6.2a8,8,0,0,1-1.79,3.41,11.76,11.76,0,0,1-3.64,2.74,11.62,11.62,0,0,1-1.07.49,7.61,7.61,0,0,0,1.7-1.79,7.14,7.14,0,0,0,1.26-3.78,7.43,7.43,0,0,0-1.11-4,9.42,9.42,0,0,0-3.85-3.41L9.2,51.13A16.54,16.54,0,0,1,4.8,48,10.52,10.52,0,0,1,2.52,44.6,7.53,7.53,0,0,1,2,41.16a8,8,0,0,1,1-3.22,9.2,9.2,0,0,1,2.32-2.68L5.69,35l-.05.07a5,5,0,0,0-1,3.7A8.38,8.38,0,0,0,6.7,43.1a20.87,20.87,0,0,0,5.75,4.44l5.17,2.65a12.68,12.68,0,0,1,3.8,3,9,9,0,0,1,1.9,3.56A7.68,7.68,0,0,1,23.37,60.43Z"/><path class="cls-1" d="M50.22,33.5h1c.44,0,1,.1,1.82.22a7.65,7.65,0,0,1,2.18.68,5.44,5.44,0,0,1,1.85,1.48,4.1,4.1,0,0,1,.82,2.54V58.13a8.58,8.58,0,0,1-1,4.1,9.06,9.06,0,0,1-2.59,3.16,13.43,13.43,0,0,1-4.81,2.36,10.31,10.31,0,0,1-5.07.11,8.5,8.5,0,0,1-3.73-2,9.44,9.44,0,0,1-2.31-3.68,14.5,14.5,0,0,1-.78-4.82V36.05a2.87,2.87,0,0,1,.89-1.87,4.21,4.21,0,0,1,2.2-.68h1.84l.39-.09.53,0-.53-.54v-.45H26.46V33.5h1.81a4.85,4.85,0,0,1,2.7.7,2.92,2.92,0,0,1,.89,2.15V57.64a11,11,0,0,0,1,4.94,11.21,11.21,0,0,0,3,3.68,13.48,13.48,0,0,0,4.21,2.27,15.92,15.92,0,0,0,5,.79h.27a17,17,0,0,0,5.2-.79A13.92,13.92,0,0,0,55,66.26a11,11,0,0,0,3-3.66,10,10,0,0,0,1-4.47V38.65A4.26,4.26,0,0,1,59.75,36a5.61,5.61,0,0,1,1.85-1.56,7.27,7.27,0,0,1,2.2-.72,18.35,18.35,0,0,1,1.84-.22H66.7V32.41H50.22ZM40.38,67.8a12.73,12.73,0,0,1-4-2.14,10.39,10.39,0,0,1-2.8-3.43,10.25,10.25,0,0,1-1-4.59V36.32a3.68,3.68,0,0,0-1.18-2.73,3.19,3.19,0,0,0-.84-.45H38.8a3.27,3.27,0,0,0-.76.43A3.58,3.58,0,0,0,36.85,36V57.32a15,15,0,0,0,.84,5.08,10.06,10.06,0,0,0,2.5,4,9,9,0,0,0,3.67,2.12A14,14,0,0,1,40.38,67.8Zm22.3-34.62a8.25,8.25,0,0,0-1.43.58,6.25,6.25,0,0,0-2.11,1.77,4.29,4.29,0,0,0-.68,1.35,4.09,4.09,0,0,0-.76-1.5,6.45,6.45,0,0,0-2.11-1.67,8.91,8.91,0,0,0-1.38-.53Z"/><path class="cls-1" d="M106.63,68.18l-.74,0a6.61,6.61,0,0,1-1.38-.28,7.94,7.94,0,0,1-1.63-.69A4,4,0,0,1,101.5,66L93,54.21a10.76,10.76,0,0,0-2.5-2.57c-.21-.14-.42-.26-.62-.37l.77-.09a10,10,0,0,0,2.17-.51,11.43,11.43,0,0,0,3.73-2,8.51,8.51,0,0,0,2.88-6.73,9.67,9.67,0,0,0-.73-3.77,8.13,8.13,0,0,0-2.16-3,12.32,12.32,0,0,0-3.74-2,18.85,18.85,0,0,0-5.32-.69H70v1h1.8a4.29,4.29,0,0,1,2.87.94,4.68,4.68,0,0,1,.77,3.13V64.12a7.42,7.42,0,0,1-.25,2.17,2.33,2.33,0,0,1-.76,1.17,2.87,2.87,0,0,1-1.47.57,18.37,18.37,0,0,1-2.58.15H70v1.09H86.45V68.18H84.69a6.65,6.65,0,0,1-1.79-.28,2.51,2.51,0,0,1-1.08-.64,2.48,2.48,0,0,1-.58-1.13,8.83,8.83,0,0,1-.19-2V51.41h1.28a5.15,5.15,0,0,1,1,.08,3.15,3.15,0,0,1,.9.32,5.23,5.23,0,0,1,1,.73,11.07,11.07,0,0,1,1.18,1.36l11.1,15.37h9.58l0-1.09Zm-14-34.25a11.13,11.13,0,0,1,3.47,1.86,7.19,7.19,0,0,1,2,2.67,8.87,8.87,0,0,1,.67,3.47,7.75,7.75,0,0,1-2.61,6.14,10.52,10.52,0,0,1-3.49,1.87,8.59,8.59,0,0,1-2,.47l-.31,0a7.61,7.61,0,0,0,.87-.51,7.27,7.27,0,0,0,1.07-1,8,8,0,0,0,1-1.41A11.84,11.84,0,0,0,94.14,45a14.21,14.21,0,0,0,.32-3.08,10.85,10.85,0,0,0-1.74-6.43,6.3,6.3,0,0,0-2.38-2A14.76,14.76,0,0,1,92.6,33.93ZM80.47,35.5a9.42,9.42,0,0,0-.19,2.07V64.16a9.21,9.21,0,0,0,.21,2.16,3,3,0,0,0,1.79,2.18H74.15a3,3,0,0,0,.75-.44,3.16,3.16,0,0,0,1-1.53,8.34,8.34,0,0,0,.29-2.41V37.61c0-1.77-.32-3-1-3.66a3,3,0,0,0-1-.68h7.94a3.05,3.05,0,0,0-1,.76A3.24,3.24,0,0,0,80.47,35.5Zm.58,14.86V37.57a9.21,9.21,0,0,1,.17-1.9,2.68,2.68,0,0,1,.52-1.14,2.57,2.57,0,0,1,1-.66,5.93,5.93,0,0,1,1.52-.33h2.93a5.71,5.71,0,0,1,4.95,2.4,10.26,10.26,0,0,1,1.59,6,13.34,13.34,0,0,1-.3,2.91,10.68,10.68,0,0,1-.82,2.34,6.94,6.94,0,0,1-.92,1.26,5.51,5.51,0,0,1-4.5,1.92ZM97.87,68.5,87,53.44A11.3,11.3,0,0,0,85.72,52a5.57,5.57,0,0,0-1.15-.83h2.62l1,.25a6.37,6.37,0,0,1,1.89.9,9.72,9.72,0,0,1,2.3,2.38l8.47,11.74a4.85,4.85,0,0,0,1.63,1.44,9.65,9.65,0,0,0,1.46.65Z"/><path class="cls-1" d="M127,54.65h.39c.8,0,1.56,0,2.27,0a6.26,6.26,0,0,1,1.76.3,2.33,2.33,0,0,1,1.09.71,2,2,0,0,1,.38,1.31v4.18a6,6,0,0,1-.25,1.82,6.89,6.89,0,0,1-.59,1.38,5.36,5.36,0,0,1-.67.92l-.49.52a14.27,14.27,0,0,1-2.8,1.66,9.63,9.63,0,0,1-3.4.74,7,7,0,0,1-2.08-.29,14,14,0,0,1-1.75-.81,10.86,10.86,0,0,1-2.08-1.54,16.27,16.27,0,0,1-3.86-6.18,24.58,24.58,0,0,1-1.46-8.61,25.4,25.4,0,0,1,.89-6.83,19.89,19.89,0,0,1,2.42-5.56,12.64,12.64,0,0,1,3.58-3.72,7.8,7.8,0,0,1,4.34-1.33l.22,0a10.49,10.49,0,0,1,3.23.8,11.93,11.93,0,0,1,3.61,2.39,14.73,14.73,0,0,1,2.85,4.08,20.34,20.34,0,0,1,1.67,5.83l.05.33h1V32.91h-1l-.06.3a1.9,1.9,0,0,1-.87,1.33,3.38,3.38,0,0,1-1.84.39A9.21,9.21,0,0,1,130,33.84c-.2-.09-.39-.18-.57-.28l-.62-.3-.31-.15a13.28,13.28,0,0,0-10.83.6,16,16,0,0,0-5.17,4A19.82,19.82,0,0,0,109,43.6a21.07,21.07,0,0,0-1,10.89A21.55,21.55,0,0,0,109,58a19.9,19.9,0,0,0,3.49,5.87,14.11,14.11,0,0,0,2.4,2.31,18.93,18.93,0,0,0,2.76,1.7,14.2,14.2,0,0,0,6.3,1.44,13.49,13.49,0,0,0,3.38-.42,19.82,19.82,0,0,0,3-1.13c1-.45,2-.85,2.85-1.18a9.28,9.28,0,0,1,2.46-.54,2.24,2.24,0,0,1,1.76.64l.11.11h.86V56.42a2.75,2.75,0,0,1,.16-1.06.94.94,0,0,1,.46-.46,3.26,3.26,0,0,1,1-.21c.45,0,1,0,1.7,0h.39V53.51H127Zm6.57-18.95a4,4,0,0,0,2.25-.51,2.28,2.28,0,0,0,.72-.66v9.26a19.7,19.7,0,0,0-1.25-3.51,15.31,15.31,0,0,0-3-4.3c-.26-.24-.52-.47-.78-.68A6.56,6.56,0,0,0,133.56,35.7ZM118,67.19a16.41,16.41,0,0,1-2.64-1.63,13,13,0,0,1-2.28-2.19,18.94,18.94,0,0,1-3.35-5.64,20,20,0,0,1-.93-3.38,19.38,19.38,0,0,1-.31-3.55,19.62,19.62,0,0,1,1.24-6.93,18.86,18.86,0,0,1,3.35-5.65A15.18,15.18,0,0,1,118,34.4a14.51,14.51,0,0,1,3.4-1.15,9.25,9.25,0,0,0-1.48.8,13.28,13.28,0,0,0-3.8,3.94,20.7,20.7,0,0,0-2.53,5.77,26.56,26.56,0,0,0-.91,7,25.34,25.34,0,0,0,1.51,8.88,16.85,16.85,0,0,0,4.06,6.47,11.4,11.4,0,0,0,2.24,1.66c.37.2.73.38,1.06.53A12.88,12.88,0,0,1,118,67.19Zm20.56-12.9a1.63,1.63,0,0,0-.68.76,3.3,3.3,0,0,0-.24,1.37v9.43a3,3,0,0,0-2-.57,9.78,9.78,0,0,0-2.68.59c-.6.21-1.22.46-1.85.73l.25-.19c.12-.12.31-.31.55-.57a5.29,5.29,0,0,0,.77-1.06,7.35,7.35,0,0,0,.67-1.54,6.81,6.81,0,0,0,.29-2.05V57a2.73,2.73,0,0,0-.57-1.81,3.14,3.14,0,0,0-1.34-.91Z"/><path class="cls-1" d="M175.24,58.1a15.15,15.15,0,0,1-2,5.09,12.91,12.91,0,0,1-1.44,1.86,9.65,9.65,0,0,1-1.92,1.57,10.74,10.74,0,0,1-2.54,1.13h0a11.06,11.06,0,0,1-3.22.43h-5a6.65,6.65,0,0,1-1.79-.28,2.53,2.53,0,0,1-1.07-.64,2.38,2.38,0,0,1-.58-1.13,8.27,8.27,0,0,1-.2-2,4.39,4.39,0,0,0,0-.81V51.41h5.82a5.12,5.12,0,0,1,3,.74,5.25,5.25,0,0,1,1.61,1.73,5.7,5.7,0,0,1,.68,1.92,10.78,10.78,0,0,1,.13,1.25v.52h1.09V44.25h-1.09v.52a9.87,9.87,0,0,1-.13,1.2,5.63,5.63,0,0,1-2.22,3.6,4.73,4.73,0,0,1-2.8.79h-6.05V33.54h8.07a9.5,9.5,0,0,1,4.33.84,7.27,7.27,0,0,1,2.57,2.09,8.76,8.76,0,0,1,1.4,2.82c.31,1.07.59,2.11.81,3.05v.38h1.09V32.5h-29.3v1h1.8a4.29,4.29,0,0,1,2.87.94,4.68,4.68,0,0,1,.77,3.13,1.84,1.84,0,0,0,0,.33,1.49,1.49,0,0,1,0,.21v26a7.73,7.73,0,0,1-.25,2.17,2.36,2.36,0,0,1-.77,1.17,3.25,3.25,0,0,1-1.51.57,17.9,17.9,0,0,1-2.53.15h-.39v1.09H175l1.4-11.48H175.3ZM164.8,50.18a6.23,6.23,0,0,0,1.77-2,6.66,6.66,0,0,0,.42-.91v7.19a6.82,6.82,0,0,0-.44-1,6.1,6.1,0,0,0-1.85-2,4.15,4.15,0,0,0-1.36-.63A4.42,4.42,0,0,0,164.8,50.18ZM173,33.27v7.2l-.39-1.39A9.61,9.61,0,0,0,171.06,36a8,8,0,0,0-2.83-2.32,6.79,6.79,0,0,0-1-.42ZM148.63,68.5a3,3,0,0,0,.76-.44,3,3,0,0,0,1-1.53,8,8,0,0,0,.29-2.41v-26a1.84,1.84,0,0,0,0-.33,1.48,1.48,0,0,1,0-.21c0-1.77-.33-3-1-3.66a3,3,0,0,0-1-.68h6V63.43a5.61,5.61,0,0,1,0,.73,9.2,9.2,0,0,0,.22,2.16,3.17,3.17,0,0,0,.77,1.48,3.09,3.09,0,0,0,1,.7Zm25.65,0h-6.7a11.57,11.57,0,0,0,2.73-1.21,10.32,10.32,0,0,0,2.08-1.71,13.33,13.33,0,0,0,2.8-4.54Z"/><path class="cls-1" d="M212.47,43.37A19.7,19.7,0,0,0,209,37.45a15.55,15.55,0,0,0-5.16-4A14.36,14.36,0,0,0,197.53,32h-2.61a14.4,14.4,0,0,0-6.33,1.48,15.46,15.46,0,0,0-5.07,4,17.71,17.71,0,0,0-3.45,5.92,20.71,20.71,0,0,0,0,14.39,17.71,17.71,0,0,0,3.44,5.93,15.59,15.59,0,0,0,5.08,4,14.4,14.4,0,0,0,6.33,1.48h2.61a14.26,14.26,0,0,0,6.28-1.48,15.38,15.38,0,0,0,5.17-4,19.7,19.7,0,0,0,3.49-5.92,20.7,20.7,0,0,0,1.24-7.2A21,21,0,0,0,212.47,43.37ZM188.92,67a14.77,14.77,0,0,1-4.83-3.77,17.08,17.08,0,0,1-3.3-5.69,20.17,20.17,0,0,1,0-13.87A17,17,0,0,1,184.1,38a14.64,14.64,0,0,1,4.82-3.77,13.83,13.83,0,0,1,3.65-1.2l-1.14.58a11.77,11.77,0,0,0-2.81,2.16,9.38,9.38,0,0,0-.82.93,11,11,0,0,0-.72,1.06,19.55,19.55,0,0,0-2.55,5.88,29.42,29.42,0,0,0,0,14,19.44,19.44,0,0,0,2.54,5.86,10.77,10.77,0,0,0,.73,1.08,8.25,8.25,0,0,0,.82.93,11.77,11.77,0,0,0,2.81,2.16l1.14.58A13.71,13.71,0,0,1,188.92,67Zm8.8,1.1a4.07,4.07,0,0,1-.82.08h-1.35a4.85,4.85,0,0,1-.87-.08l-.79-.16a22.28,22.28,0,0,1-2.1-1,11,11,0,0,1-2.63-2A10,10,0,0,1,187.73,63a18.47,18.47,0,0,1-2.45-5.64,28.52,28.52,0,0,1,0-13.58,18.44,18.44,0,0,1,2.46-5.66,8.19,8.19,0,0,1,.67-1,8.1,8.1,0,0,1,.75-.87,11.17,11.17,0,0,1,2.63-2,22.3,22.3,0,0,1,2.05-1,7.15,7.15,0,0,1,1.71-.21h1.35a5.35,5.35,0,0,1,.84.06c.26,0,.56.1.81.13.5.21,1.19.54,2.06,1a11.77,11.77,0,0,1,2.66,2c.24.26.48.55.73.88s.49.66.72,1a18.72,18.72,0,0,1,2.47,5.64,27.86,27.86,0,0,1,0,13.58A18.75,18.75,0,0,1,204.72,63c-.23.35-.47.69-.72,1s-.49.62-.71.86a11.83,11.83,0,0,1-2.68,2c-.87.46-1.56.79-2,1Zm14-10.56a19.13,19.13,0,0,1-3.35,5.69A14.57,14.57,0,0,1,203.48,67a13.64,13.64,0,0,1-3.64,1.2c.34-.16.72-.36,1.13-.58a12.84,12.84,0,0,0,2.88-2.17c.24-.28.5-.59.76-.92s.51-.69.76-1.06a20.09,20.09,0,0,0,2.57-5.88,28.44,28.44,0,0,0,0-14,20.09,20.09,0,0,0-2.57-5.88c-.25-.37-.5-.72-.76-1.06s-.52-.64-.78-.94A13,13,0,0,0,201,33.56c-.41-.22-.79-.41-1.14-.58a14,14,0,0,1,3.66,1.2A14.63,14.63,0,0,1,208.4,38a19.13,19.13,0,0,1,3.35,5.69,20.14,20.14,0,0,1,1.19,6.93A19.9,19.9,0,0,1,211.75,57.5Z"/><path class="cls-1" d="M240,33.59H241a11.63,11.63,0,0,1,1.85.19,8.08,8.08,0,0,1,2.21.73,5.35,5.35,0,0,1,1.83,1.54,4.21,4.21,0,0,1,.75,2.64V59.92L225.61,32.5h-10.2v1.09h1.78a8.4,8.4,0,0,1,2.3.23,1.68,1.68,0,0,1,1,.63,2.19,2.19,0,0,1,.34,1.13c0,.52.05,1.14.05,1.85V63a4.34,4.34,0,0,1-.75,2.69,5.32,5.32,0,0,1-1.83,1.53,8.08,8.08,0,0,1-2.21.73,11.63,11.63,0,0,1-1.85.19h-1.06v1.09h16.52V68.18h-1.06a11.52,11.52,0,0,1-1.84-.19,8.08,8.08,0,0,1-2.21-.73,5.32,5.32,0,0,1-1.83-1.53A4.34,4.34,0,0,1,222,63V36.87l25.89,32.4h.93V38.69a4.21,4.21,0,0,1,.75-2.64,5.35,5.35,0,0,1,1.83-1.54,8.08,8.08,0,0,1,2.21-.73,11.63,11.63,0,0,1,1.84-.19h1.07V32.5H240ZM222.13,66.2A6.1,6.1,0,0,0,224.22,68a9,9,0,0,0,1.38.55h-8.35a9,9,0,0,0,1.38-.55,6.2,6.2,0,0,0,2.09-1.75,4.17,4.17,0,0,0,.7-1.47A4.37,4.37,0,0,0,222.13,66.2Zm25.91,2L221.52,35.05a2.84,2.84,0,0,0-.4-1,2.24,2.24,0,0,0-.9-.75h5L248,61.59Zm4.38-35a9,9,0,0,0-1.38.55A6,6,0,0,0,249,35.58a4.27,4.27,0,0,0-.71,1.45,4.08,4.08,0,0,0-.7-1.45,6,6,0,0,0-2.09-1.76,9,9,0,0,0-1.38-.55Z"/><path class="cls-1" d="M283.31,56.55a9.7,9.7,0,0,0-2.06-3.86,13.37,13.37,0,0,0-4-3.18l-5.16-2.65a19.84,19.84,0,0,1-5.52-4.25,7.76,7.76,0,0,1-1.92-3.91,4.23,4.23,0,0,1,.87-3.15,6.2,6.2,0,0,1,3-2A9.3,9.3,0,0,1,270,33.2a9.91,9.91,0,0,1,4.87.48,8.51,8.51,0,0,1,2.84,1.69A11.59,11.59,0,0,1,280,38.48a11.16,11.16,0,0,1,.76,1.94,7,7,0,0,1,.27,1.87v.39h1.13V32.14h-.91l-.12.19A2.54,2.54,0,0,1,280,33.39a3.09,3.09,0,0,1-1.35.24,5.77,5.77,0,0,1-1.52-.3l-1.51-.53a12,12,0,0,0-6.1-.66,8.8,8.8,0,0,0-1.88.52,12.59,12.59,0,0,0-3.55,2,10.53,10.53,0,0,0-2.5,2.89,8.86,8.86,0,0,0-1.12,3.53,8.11,8.11,0,0,0,.54,3.8,11.15,11.15,0,0,0,2.44,3.69,16.88,16.88,0,0,0,4.6,3.24l5.67,2.93a8.63,8.63,0,0,1,3.54,3.11,6.67,6.67,0,0,1,1,3.62,6.29,6.29,0,0,1-1.13,3.37,6.86,6.86,0,0,1-2.87,2.42,11.7,11.7,0,0,1-3.69.74h-.4a10.77,10.77,0,0,1-3.69-.72,10.51,10.51,0,0,1-3.13-1.89,6.27,6.27,0,0,1-1.22-1.56,12.81,12.81,0,0,1-1-2.13,15.59,15.59,0,0,1-.62-2.24,10.89,10.89,0,0,1-.22-2l0-.39h-1.09V69.23h.7l.39,0v-.32l.23-.51a1.53,1.53,0,0,1,.67-.63,3.44,3.44,0,0,1,1.56-.32,8.24,8.24,0,0,1,2.78.66,4.32,4.32,0,0,0,.5.2,10.77,10.77,0,0,0,4,.79h.45c.22,0,.44,0,.64,0s.42,0,.67-.07h0a18,18,0,0,0,5.66-1.67,12.5,12.5,0,0,0,3.88-2.93,8.65,8.65,0,0,0,1.95-3.74A8.41,8.41,0,0,0,283.31,56.55ZM278.64,34.4a3.67,3.67,0,0,0,1.71-.31,2.75,2.75,0,0,0,1-.8v6.57a11.24,11.24,0,0,0-.71-1.73,12.31,12.31,0,0,0-1.16-1.85,10.84,10.84,0,0,0-1.31-1.48c-.23-.2-.47-.39-.71-.58A6.54,6.54,0,0,0,278.64,34.4ZM262.77,66.63a4.11,4.11,0,0,0-1.91.41,2.58,2.58,0,0,0-.85.73V60.42c.13.52.29,1,.47,1.55a14.32,14.32,0,0,0,1,2.25A6.64,6.64,0,0,0,262.89,66a11.87,11.87,0,0,0,1,.76A5.42,5.42,0,0,0,262.77,66.63Zm19.84-6.2a8,8,0,0,1-1.79,3.41,13.33,13.33,0,0,1-4.71,3.23,7.23,7.23,0,0,0,1.7-1.79,7.14,7.14,0,0,0,1.26-3.78,7.34,7.34,0,0,0-1.11-4,9.39,9.39,0,0,0-3.84-3.41l-5.68-2.92a16.31,16.31,0,0,1-4.39-3.1,10.21,10.21,0,0,1-2.28-3.43,7.54,7.54,0,0,1-.5-3.44,8.12,8.12,0,0,1,1-3.22,9.51,9.51,0,0,1,2.32-2.68,3.92,3.92,0,0,1,.32-.25l-.06.07a5,5,0,0,0-1,3.7A8.32,8.32,0,0,0,266,43.1a20.65,20.65,0,0,0,5.74,4.44l5.17,2.65a12.68,12.68,0,0,1,3.8,3,9.13,9.13,0,0,1,1.91,3.56A7.8,7.8,0,0,1,282.61,60.43Z"/><path class="cls-1" d="M.39,57.46H.75A10.94,10.94,0,0,0,1,59.55a16.27,16.27,0,0,0,.63,2.29,13.56,13.56,0,0,0,1,2.19A6.29,6.29,0,0,0,3.9,65.69a10.93,10.93,0,0,0,3.24,2,11.28,11.28,0,0,0,3.82.74h.41a12.36,12.36,0,0,0,3.82-.76,7.35,7.35,0,0,0,3.06-2.57,6.66,6.66,0,0,0,1.19-3.58,6.92,6.92,0,0,0-1.05-3.82A8.91,8.91,0,0,0,14.7,54.4L9,51.47a16.73,16.73,0,0,1-4.5-3.17,10.85,10.85,0,0,1-2.37-3.56,7.88,7.88,0,0,1-.51-3.62,8.4,8.4,0,0,1,1.08-3.37A9.9,9.9,0,0,1,5.13,35,12.37,12.37,0,0,1,8.58,33a8,8,0,0,1,1.8-.49,12.35,12.35,0,0,1,1.84-.14,10.92,10.92,0,0,1,4,.77q.72.27,1.53.54a6.18,6.18,0,0,0,1.62.31A3.31,3.31,0,0,0,21,33.74a2.84,2.84,0,0,0,1.26-1.21h.32v9.76h-.36a7.11,7.11,0,0,0-.3-2,10.37,10.37,0,0,0-.78-2A11.66,11.66,0,0,0,20,36.51a10.64,10.64,0,0,0-1.26-1.42,9.15,9.15,0,0,0-3-1.78,10.69,10.69,0,0,0-5.06-.49,9,9,0,0,0-1.51.34,6.5,6.5,0,0,0-3.22,2.16A4.6,4.6,0,0,0,5,38.74a7.9,7.9,0,0,0,2,4.11,20,20,0,0,0,5.63,4.35l5.17,2.65a13.18,13.18,0,0,1,3.92,3.08,9.51,9.51,0,0,1,2,3.72,8,8,0,0,1,0,3.87,8.22,8.22,0,0,1-1.87,3.57,12.11,12.11,0,0,1-3.75,2.84,17.78,17.78,0,0,1-5.63,1.64h.09l-.65.07-.61,0h-.45A10.31,10.31,0,0,1,7,67.9v0a3.49,3.49,0,0,1-.45-.18,8.15,8.15,0,0,0-3-.7,3.7,3.7,0,0,0-1.74.36,1.86,1.86,0,0,0-.83.81,6.61,6.61,0,0,0-.27.61v0H.39Z"/><path class="cls-1" d="M50.61,32.8h15.7v.31h-.67c-.48,0-1.12.11-1.89.23a7.52,7.52,0,0,0-2.32.76,5.75,5.75,0,0,0-2,1.67,4.56,4.56,0,0,0-.83,2.88V58.13a9.73,9.73,0,0,1-1,4.3A10.71,10.71,0,0,1,54.75,66a13.75,13.75,0,0,1-4.23,2.21,16.63,16.63,0,0,1-5.09.76h-.27a15.38,15.38,0,0,1-4.9-.76A13.19,13.19,0,0,1,36.16,66a10.64,10.64,0,0,1-2.9-3.55,10.48,10.48,0,0,1-1-4.77V36.35a3.25,3.25,0,0,0-1-2.45,5.15,5.15,0,0,0-2.92-.79H26.85v-.36h15.7V33l.05,0h-.05v.09H40.71a4.56,4.56,0,0,0-2.43.77,3.14,3.14,0,0,0-1,2.11V57.32a14.77,14.77,0,0,0,.81,5,9.61,9.61,0,0,0,2.41,3.83,8.66,8.66,0,0,0,3.89,2.13,10.64,10.64,0,0,0,5.27-.11,13.71,13.71,0,0,0,5-2.43,9.39,9.39,0,0,0,2.7-3.28,8.94,8.94,0,0,0,1-4.28V38.42a4.43,4.43,0,0,0-.9-2.79,5.81,5.81,0,0,0-2-1.57,8.12,8.12,0,0,0-2.29-.72c-.79-.12-1.4-.2-1.85-.23h-.67Z"/><path class="cls-1" d="M70.36,68.89v-.32h0A17.07,17.07,0,0,0,73,68.41a3.35,3.35,0,0,0,1.67-.65,2.8,2.8,0,0,0,.88-1.35,7.83,7.83,0,0,0,.27-2.29V37.61a5,5,0,0,0-.88-3.4,4.68,4.68,0,0,0-3.13-1.05H70.36v-.27H87.51a18.52,18.52,0,0,1,5.22.67,11.68,11.68,0,0,1,3.6,1.94,7.49,7.49,0,0,1,2,2.81,9.06,9.06,0,0,1,.7,3.62,8.1,8.1,0,0,1-2.74,6.44,10.82,10.82,0,0,1-3.6,1.93,9.47,9.47,0,0,1-2.1.5c-.73.09-1.5.16-2.31.22a6.85,6.85,0,0,1,2,.95,10.49,10.49,0,0,1,2.41,2.47l8.46,11.75a4.48,4.48,0,0,0,1.5,1.32,8.71,8.71,0,0,0,1.71.72,6.73,6.73,0,0,0,1.47.3l.76,0h.05v.32h-9l-11-15.21a10.61,10.61,0,0,0-1.24-1.42,5.25,5.25,0,0,0-1.08-.79,3.62,3.62,0,0,0-1-.36,5.83,5.83,0,0,0-1-.09H80.67V64.16a8.51,8.51,0,0,0,.2,2.07,2.86,2.86,0,0,0,.67,1.31,3,3,0,0,0,1.24.74,7.37,7.37,0,0,0,1.89.29h1.4v.32H70.36ZM80.67,50.75h6.48a6.46,6.46,0,0,0,3.78-1.12,7,7,0,0,0,1-.93,7.78,7.78,0,0,0,1-1.32,10.92,10.92,0,0,0,.85-2.46,13.31,13.31,0,0,0,.32-3,10.5,10.5,0,0,0-1.67-6.21,6.08,6.08,0,0,0-5.26-2.56H84.22a5.94,5.94,0,0,0-1.66.36,2.85,2.85,0,0,0-1.11.76,2.89,2.89,0,0,0-.6,1.31,9.29,9.29,0,0,0-.18,2V50.75Z"/><path class="cls-1" d="M108.12,50.8a20.34,20.34,0,0,1,.31-3.6,19.64,19.64,0,0,1,.95-3.47A19.25,19.25,0,0,1,112.79,38a15.56,15.56,0,0,1,5-3.91A13.89,13.89,0,0,1,124,32.62a12.15,12.15,0,0,1,4.41.85l.09.05.18.09a6.63,6.63,0,0,1,.6.29l.61.29a9.35,9.35,0,0,0,3.71,1.13,3.73,3.73,0,0,0,2.05-.45,2.34,2.34,0,0,0,1-1.58h.27v13.1h-.27a21.35,21.35,0,0,0-1.71-5.94A14.82,14.82,0,0,0,132,36.26a12.09,12.09,0,0,0-3.74-2.47,10.86,10.86,0,0,0-3.59-.86v0a8.11,8.11,0,0,0-4.55,1.39,12.9,12.9,0,0,0-3.69,3.83A20.09,20.09,0,0,0,114,43.87a25.4,25.4,0,0,0-.91,6.93,24.88,24.88,0,0,0,1.49,8.75,16.45,16.45,0,0,0,4,6.32,11.28,11.28,0,0,0,2.16,1.6,13.38,13.38,0,0,0,1.8.83,7.28,7.28,0,0,0,2.21.32,10,10,0,0,0,3.55-.77,14.53,14.53,0,0,0,2.88-1.71l.54-.56a6.05,6.05,0,0,0,.72-1,7.11,7.11,0,0,0,.63-1.46,6.45,6.45,0,0,0,.27-1.94V57a2.4,2.4,0,0,0-.47-1.56,2.87,2.87,0,0,0-1.26-.83,6.69,6.69,0,0,0-1.87-.31c-.72,0-1.48-.05-2.29-.05V53.9h14.39v.36c-.69,0-1.26,0-1.73.05a3.4,3.4,0,0,0-1.14.24,1.29,1.29,0,0,0-.66.66,3.08,3.08,0,0,0-.2,1.21v10h-.31a2.65,2.65,0,0,0-2-.74,9,9,0,0,0-2.57.56c-.91.33-1.87.73-2.88,1.19a18.45,18.45,0,0,1-3,1.11,13.16,13.16,0,0,1-3.28.4,13.71,13.71,0,0,1-6.13-1.39,17.08,17.08,0,0,1-2.69-1.67,13.81,13.81,0,0,1-2.35-2.25,19.25,19.25,0,0,1-3.41-5.76,19.81,19.81,0,0,1-.95-3.44A20.24,20.24,0,0,1,108.12,50.8Z"/><path class="cls-1" d="M167.47,68.12A10.74,10.74,0,0,0,170.1,67a9.85,9.85,0,0,0,2-1.64,13.71,13.71,0,0,0,1.49-1.91,15.4,15.4,0,0,0,2-5.22h.32l-1.31,10.71H144.88v-.32a17.3,17.3,0,0,0,2.59-.16,3.47,3.47,0,0,0,1.68-.65,2.63,2.63,0,0,0,.9-1.35,7.83,7.83,0,0,0,.27-2.29v-26a1.23,1.23,0,0,0,0-.27,2.45,2.45,0,0,1,0-.27,5,5,0,0,0-.88-3.4,4.66,4.66,0,0,0-3.13-1.05h-1.44v-.27h28.53v9.45h-.31v-.05c-.24-1-.52-2-.83-3.1a9.28,9.28,0,0,0-1.47-2.95,7.66,7.66,0,0,0-2.7-2.21,10,10,0,0,0-4.5-.87h-8.46V50.75h6.44a5.13,5.13,0,0,0,3-.88A5.94,5.94,0,0,0,166.93,46a10.79,10.79,0,0,0,.13-1.26v-.14h.32V57.19h-.32v-.14a11.84,11.84,0,0,0-.13-1.3,5.87,5.87,0,0,0-.72-2,5.65,5.65,0,0,0-1.73-1.87A5.46,5.46,0,0,0,161.3,51h-6.21V63.35a4.68,4.68,0,0,1,0,.81,9,9,0,0,0,.2,2.07,2.68,2.68,0,0,0,1.91,2,7.38,7.38,0,0,0,1.9.29h5A11.46,11.46,0,0,0,167.47,68.12Z"/><path class="cls-1" d="M179.17,50.57a19.3,19.3,0,0,1,1.26-7.06,17.36,17.36,0,0,1,3.37-5.81,15,15,0,0,1,4.95-3.87,14,14,0,0,1,6.17-1.44h2.61a13.88,13.88,0,0,1,6.12,1.44,14.94,14.94,0,0,1,5,3.87,19.38,19.38,0,0,1,3.42,5.81,21.23,21.23,0,0,1,0,14.13,19.33,19.33,0,0,1-3.42,5.8,14.94,14.94,0,0,1-5,3.87,13.88,13.88,0,0,1-6.12,1.44h-2.61a14,14,0,0,1-6.17-1.44,15,15,0,0,1-4.95-3.87,17.31,17.31,0,0,1-3.37-5.8A19.36,19.36,0,0,1,179.17,50.57Zm4.9,0a27.38,27.38,0,0,0,.84,6.89,18.75,18.75,0,0,0,2.49,5.76,10.36,10.36,0,0,0,.7,1,10.15,10.15,0,0,0,.79.9,11.47,11.47,0,0,0,2.72,2.09,21.88,21.88,0,0,0,2.14,1l.85.18a4.86,4.86,0,0,0,1,.09h1.35a4.16,4.16,0,0,0,.9-.09l.9-.18c.51-.21,1.21-.55,2.09-1a12.05,12.05,0,0,0,2.77-2.09c.24-.27.49-.57.74-.9s.5-.67.74-1a19.29,19.29,0,0,0,2.52-5.76,28,28,0,0,0,0-13.77A19.29,19.29,0,0,0,205,37.93c-.24-.36-.48-.71-.74-1s-.5-.63-.74-.9a12.05,12.05,0,0,0-2.77-2.09c-.88-.47-1.58-.8-2.09-1l-.9-.16a5,5,0,0,0-.9-.07h-1.35a7.4,7.4,0,0,0-1.8.23,21.39,21.39,0,0,0-2.14,1A11.47,11.47,0,0,0,188.89,36a10.15,10.15,0,0,0-.79.9,10.5,10.5,0,0,0-.7,1,18.75,18.75,0,0,0-2.49,5.76A27.3,27.3,0,0,0,184.07,50.57Z"/><path class="cls-1" d="M256.12,32.89v.31h-.68a12.61,12.61,0,0,0-1.91.2,8.33,8.33,0,0,0-2.32.77,5.53,5.53,0,0,0-2,1.64,4.57,4.57,0,0,0-.84,2.88v30.2h-.36L221.6,35.77V63a4.63,4.63,0,0,0,.84,2.92,5.53,5.53,0,0,0,1.95,1.64,8.33,8.33,0,0,0,2.32.77,12.61,12.61,0,0,0,1.91.2h.68v.32H213.55v-.32h.67a12.72,12.72,0,0,0,1.92-.2,8.27,8.27,0,0,0,2.31-.77,5.56,5.56,0,0,0,2-1.64,4.63,4.63,0,0,0,.83-2.92V37.43c0-.72,0-1.34,0-1.87a2.61,2.61,0,0,0-.41-1.32,2,2,0,0,0-1.19-.79,8.71,8.71,0,0,0-2.41-.25H215.8v-.31h9.63L248.06,61V38.69a4.56,4.56,0,0,0-.83-2.88,5.56,5.56,0,0,0-2-1.64A8.27,8.27,0,0,0,243,33.4a12.72,12.72,0,0,0-1.92-.2h-.67v-.31h15.75Z"/><path class="cls-1" d="M259.63,57.46H260a10.94,10.94,0,0,0,.22,2.09,16.27,16.27,0,0,0,.63,2.29,13.56,13.56,0,0,0,1,2.19,6.29,6.29,0,0,0,1.31,1.66,10.93,10.93,0,0,0,3.24,2,11.28,11.28,0,0,0,3.82.74h.41a12.36,12.36,0,0,0,3.82-.76,7.35,7.35,0,0,0,3.06-2.57,6.75,6.75,0,0,0,1.2-3.58,7,7,0,0,0-1.06-3.82,8.91,8.91,0,0,0-3.69-3.26l-5.67-2.93a16.73,16.73,0,0,1-4.5-3.17,10.65,10.65,0,0,1-2.36-3.56,7.76,7.76,0,0,1-.52-3.62A8.4,8.4,0,0,1,262,37.75,9.78,9.78,0,0,1,264.38,35,12.17,12.17,0,0,1,267.82,33a8,8,0,0,1,1.8-.49,12.35,12.35,0,0,1,1.84-.14,10.92,10.92,0,0,1,4.05.77q.72.27,1.53.54a6.18,6.18,0,0,0,1.62.31,3.31,3.31,0,0,0,1.53-.27,2.84,2.84,0,0,0,1.26-1.21h.32v9.76h-.36a7.47,7.47,0,0,0-.29-2,11.09,11.09,0,0,0-.79-2,11.66,11.66,0,0,0-1.13-1.8,10.64,10.64,0,0,0-1.26-1.42,9.15,9.15,0,0,0-3-1.78,10.69,10.69,0,0,0-5.06-.49,9.21,9.21,0,0,0-1.51.34,6.42,6.42,0,0,0-3.21,2.16,4.61,4.61,0,0,0-.95,3.42,8,8,0,0,0,2,4.11,20,20,0,0,0,5.63,4.35L277,49.85A13.18,13.18,0,0,1,281,52.93a9.51,9.51,0,0,1,2,3.72,8,8,0,0,1,0,3.87,8.3,8.3,0,0,1-1.86,3.57,12.28,12.28,0,0,1-3.76,2.84,17.78,17.78,0,0,1-5.63,1.64h.09l-.65.07-.61,0h-.45a10.31,10.31,0,0,1-3.91-.76v0a3.49,3.49,0,0,1-.45-.18,8.15,8.15,0,0,0-3-.7,3.63,3.63,0,0,0-1.73.36,1.84,1.84,0,0,0-.84.81,6.61,6.61,0,0,0-.27.61v0h-.31Z"/><path class="cls-2" d="M124.26,2.81c-.24.14-.4.11-.49-.1a1.77,1.77,0,0,0-.28-.46,4.26,4.26,0,0,0-.81-.59,1.68,1.68,0,0,0-1.22-.18,2,2,0,0,0-1.33,1.23c-.38.72-.68,1.34-.91,1.85a36.94,36.94,0,0,0-2,6c-.53,2.19-1,4.34-1.36,6.44,1.86-.7,3.85-1.47,6-2.31a41.84,41.84,0,0,1,6.65-2,28.65,28.65,0,0,1,3.46-.52,8.14,8.14,0,0,1,3.47.38c.23.09.49.21.77.35a.69.69,0,0,1,.35.77,1.13,1.13,0,0,1-1.26.21,5.26,5.26,0,0,0-1.47-.35,8.28,8.28,0,0,0-2.73.18c-.89.21-1.75.43-2.59.66s-1.65.48-2.42.74-1.48.52-2.13.8a45.94,45.94,0,0,0-4.41,1.72q-2.1.94-4.13,2c-.24,1.45-.45,2.94-.63,4.48s-.38,3.13-.56,4.76c-.05.51-.11,1-.18,1.58A6.89,6.89,0,0,0,114,32a5.28,5.28,0,0,0,.28,1.16c.14.39.25.78.35,1.15a44.85,44.85,0,0,1,1.12,13.23c0,.51,0,1-.07,1.58a7.23,7.23,0,0,1-.28,1.47,2.62,2.62,0,0,1-.63,1.08,1.52,1.52,0,0,1-1.12.42,1.41,1.41,0,0,1-1-.38,2.78,2.78,0,0,1-.59-1,6.29,6.29,0,0,1-.32-1.19c-.07-.42-.13-.82-.17-1.19a42.54,42.54,0,0,1-.6-6.68q0-3.47.18-7c.05-.47.1-.93.17-1.4a5.46,5.46,0,0,0,0-1.33,3.13,3.13,0,0,0-.39-1.12c-.21-.37-.4-.75-.59-1.12a10,10,0,0,0-1.23-2l-1.43-1.82c-.23-.28-.48-.59-.74-.94a2,2,0,0,1-.38-1.16,2.07,2.07,0,0,1,.28-1,4.33,4.33,0,0,1,.7-.91,5.3,5.3,0,0,1,.91-.73,9.83,9.83,0,0,0,.84-.6c.65-.42,1.27-.78,1.85-1.08l1.93-1q.63-3.44,1.64-7A58,58,0,0,1,117,4.7,20.31,20.31,0,0,1,118.48,2,4.8,4.8,0,0,1,120.76.08c0,.05,0,0,.14-.07a2.49,2.49,0,0,1,1.61.32c.37.25.74.52,1.12.8a5.49,5.49,0,0,0,.59.77A.65.65,0,0,1,124.26,2.81ZM109.07,23.67a18.09,18.09,0,0,1,1.43,1.61,14.86,14.86,0,0,1,1.23,1.82c.14-1,.27-2,.38-3s.27-2,.46-2.91l-.07-.07c-.61.42-1.21.82-1.82,1.19A7.41,7.41,0,0,0,109.07,23.67Z"/><path class="cls-2" d="M134,16.53A5.41,5.41,0,0,1,137.73,18a6.74,6.74,0,0,1,1.72,3.57c1.49-.28,3-.59,4.65-.94s3.19-.72,4.73-1.09c.18-.05.42-.13.7-.24a5.19,5.19,0,0,1,.87-.28,2.36,2.36,0,0,1,.81-.07.57.57,0,0,1,.49.31.44.44,0,0,1-.14.56,3.49,3.49,0,0,1-.7.39,6.05,6.05,0,0,1-.91.28,6.55,6.55,0,0,0-.7.17c-1.5.47-3.07.88-4.73,1.23s-3.3.68-4.93,1A14.77,14.77,0,0,1,139,28a17.8,17.8,0,0,1-1.92,4.3,22.45,22.45,0,0,1-2.7,3.36,7.68,7.68,0,0,1-3.67,2.1h-1a2.75,2.75,0,0,1-1.19-.52,10.27,10.27,0,0,1-.91-.81,6.1,6.1,0,0,1-1.09-3,18.47,18.47,0,0,1,0-3.71,33.11,33.11,0,0,1,.63-3.78c.28-1.24.54-2.35.77-3.33a2.77,2.77,0,0,1,0-2.52,5.46,5.46,0,0,1,1.37-1.82,12.33,12.33,0,0,0,.52-1.47,11.86,11.86,0,0,1,.6-1.61,4.79,4.79,0,0,1,.87-1.33,1.81,1.81,0,0,1,1.37-.56,1.37,1.37,0,0,1,1.4,1A3.81,3.81,0,0,1,134,16.53Zm-3.36,7.28c-.24,1.35-.53,2.81-.88,4.38a17,17,0,0,0-.38,4.79,6.27,6.27,0,0,0,.24,1.19,1.74,1.74,0,0,0,.67.91,5.39,5.39,0,0,0,3.22-1.68c.79-.89,1.54-1.8,2.24-2.73a29.74,29.74,0,0,0,1.68-3.39,8.54,8.54,0,0,0,.56-4.1,33.57,33.57,0,0,1-3.57.53A29.83,29.83,0,0,1,130.63,23.81ZM133.71,18a2,2,0,0,0-.14.81.47.47,0,0,1-.42.52,1.27,1.27,0,0,1-.32,0l-.24-.11a1.24,1.24,0,0,1-.07-1,2.89,2.89,0,0,0-.53.91c-.11.33-.22.68-.31,1.05a9.63,9.63,0,0,0-.35,1.12c-.1.37-.19.75-.28,1.12,1.3,0,2.52-.05,3.64-.14s2.21-.23,3.29-.42a5.56,5.56,0,0,0-1.3-2.76A4.09,4.09,0,0,0,133.71,18Z"/><path class="cls-2" d="M161.64,16.39a10.45,10.45,0,0,0-3.26,3.36c-.82,1.35-1.69,2.71-2.62,4.06l-1.12,2.24a19.51,19.51,0,0,0-1,2.31,11.87,11.87,0,0,0-1,2.28,2.53,2.53,0,0,1-1.68,1.64h-.63a1.76,1.76,0,0,1-.6-.38,3.61,3.61,0,0,1-.45-.6,22,22,0,0,1-.11-2.87c0-1,.07-2.06.14-3.11s.19-2.08.35-3.08.34-1.93.53-2.77a8.82,8.82,0,0,1,.42-1.54A1.33,1.33,0,0,1,151.7,17a.86.86,0,0,1,.8.63,3.54,3.54,0,0,1,.14,1.3,12.49,12.49,0,0,1-.17,1.54,7.12,7.12,0,0,0-.14,1.29c-.1.93-.18,1.77-.25,2.52s-.15,1.45-.24,2.1q1.18-2,2.87-4.41a44.1,44.1,0,0,1,3.43-4.41,15.44,15.44,0,0,1,1.22-1.36,4.76,4.76,0,0,1,1.44-1,2,2,0,0,1,1.29,0,1.09,1.09,0,0,1,.81.77c.09.56-.05.86-.42.91A.77.77,0,0,1,161.64,16.39Z"/></g></g></svg>