<svg xmlns="http://www.w3.org/2000/svg" viewBox="0 0 318.86 69.36"><defs><style>.cls-1{fill:#53575a;}.cls-2{fill:#ff8300;}</style></defs><g id="Layer_2" data-name="Layer 2"><g id="Layer_1-2" data-name="Layer 1"><path class="cls-1" d="M26.56,35.2a11,11,0,0,0-3.74-2,18.68,18.68,0,0,0-5.33-.69H0v1H1.8a4.29,4.29,0,0,1,2.87.94,4.63,4.63,0,0,1,.77,3.13V64.12a7.37,7.37,0,0,1-.25,2.17,2.3,2.3,0,0,1-.77,1.17,3.17,3.17,0,0,1-1.5.57,17.93,17.93,0,0,1-2.53.16H0v1.08H16.43v-.5l.55-.58H14.71a7.33,7.33,0,0,1-1.81-.28,2.53,2.53,0,0,1-1.1-.64,2.58,2.58,0,0,1-.58-1.13,8.83,8.83,0,0,1-.19-2V51.41h6.46a17,17,0,0,0,5.33-.74,10.2,10.2,0,0,0,3.74-2,8.5,8.5,0,0,0,2.88-6.73,9.63,9.63,0,0,0-.73-3.77A8.1,8.1,0,0,0,26.56,35.2ZM11,37.57a4.84,4.84,0,0,1,.69-3,4,4,0,0,1,2.53-1h2.88a5.74,5.74,0,0,1,5,2.4,10.19,10.19,0,0,1,1.59,6,13.27,13.27,0,0,1-.3,2.91,9.16,9.16,0,0,1-.87,2.36,6,6,0,0,1-.86,1.24,6.71,6.71,0,0,1-.95.87,6.18,6.18,0,0,1-3.6,1H11Z"/><path class="cls-1" d="M65.27,34.49a3.89,3.89,0,0,1,2.52-1H69.6l.93-.09L70,32.86v-.45H53.55V33.5h1.8a4.4,4.4,0,0,1,2.87.94A4.71,4.71,0,0,1,59,37.57V50.28H41.59V37.52a8.57,8.57,0,0,1,.17-1.9,2.52,2.52,0,0,1,.52-1.13,2.35,2.35,0,0,1,.95-.66,5.34,5.34,0,0,1,1.52-.33H46.6l.93-.09L47,32.86v-.45H30.51V33.5H32.3a9.23,9.23,0,0,1,1.84.31,2.27,2.27,0,0,1,1.08.63,2.6,2.6,0,0,1,.59,1.16,8.28,8.28,0,0,1,.19,2v26.5a7.45,7.45,0,0,1-.25,2.18A2.29,2.29,0,0,1,35,67.41a3.25,3.25,0,0,1-1.51.58,17.9,17.9,0,0,1-2.53.15h-.39v1.09H47V68.14H45.27a6.9,6.9,0,0,1-1.82-.28,2.35,2.35,0,0,1-1.09-.64,2.4,2.4,0,0,1-.58-1.15,8.52,8.52,0,0,1-.19-2V51.36H59V64.07a7.45,7.45,0,0,1-.25,2.18A2.23,2.23,0,0,1,58,67.41a3.17,3.17,0,0,1-1.5.58,17.9,17.9,0,0,1-2.53.15h-.39v1.09H70V68.14H68.26a6.88,6.88,0,0,1-1.81-.28,2.43,2.43,0,0,1-1.1-.64,2.5,2.5,0,0,1-.58-1.15,9.09,9.09,0,0,1-.19-2V37.52A4.78,4.78,0,0,1,65.27,34.49Z"/><path class="cls-1" d="M97.11,33.54h.39l.7,0a2.76,2.76,0,0,1,.83.22,1.83,1.83,0,0,1,.69.53,1.78,1.78,0,0,1,.34,1,5.45,5.45,0,0,1-.3,1.92,18.23,18.23,0,0,1-1.34,3l-6.59,12L82.75,35.66c-.34-.58-.35-.9-.3-1.06a1.05,1.05,0,0,1,.45-.6,2.33,2.33,0,0,1,.94-.35,8.91,8.91,0,0,1,1.06-.15h1.15v-1H71.28v1h.39c.2,0,.54,0,1,.08a8.63,8.63,0,0,1,1.63.39,6.86,6.86,0,0,1,1.79.94,5.33,5.33,0,0,1,1.51,1.74.29.29,0,0,1,.06.1c0,.09.16.31.34.66L78.86,39l1.6,2.93,2.59,4.75,3.75,6.91V64a7.45,7.45,0,0,1-.25,2.15,2.14,2.14,0,0,1-.76,1.16,3.44,3.44,0,0,1-1.49.56,17.49,17.49,0,0,1-2.51.15h-.38v1.13H97.88V68.05H96.1a4.08,4.08,0,0,1-2.92-.82,4.74,4.74,0,0,1-.79-3.16V53.55l7-12.88a13.47,13.47,0,0,1,2.84-3.76,15,15,0,0,1,3-2.15,10.65,10.65,0,0,1,2.55-1,9.3,9.3,0,0,1,1.55-.24h.56V32.45H97.11Z"/><path class="cls-1" d="M134.51,52.69a13.5,13.5,0,0,0-4-3.18l-5.17-2.65a19.77,19.77,0,0,1-5.51-4.25,7.68,7.68,0,0,1-1.92-3.91,4.23,4.23,0,0,1,.87-3.15,6.16,6.16,0,0,1,3-2,9.17,9.17,0,0,1,1.44-.32,9.91,9.91,0,0,1,4.88.48,8.61,8.61,0,0,1,2.84,1.69,11.21,11.21,0,0,1,1.21,1.37,11.35,11.35,0,0,1,1.09,1.74,10.6,10.6,0,0,1,.76,1.93,6.8,6.8,0,0,1,.28,1.88v.39h1.13V32.14h-.92l-.11.19a2.59,2.59,0,0,1-1.08,1.06,3.13,3.13,0,0,1-1.36.24,5.93,5.93,0,0,1-1.52-.3l-1.51-.53a12,12,0,0,0-6.09-.66,8.64,8.64,0,0,0-1.88.52,12.45,12.45,0,0,0-3.55,2,10.2,10.2,0,0,0-2.5,2.89,9,9,0,0,0-1.13,3.53,8.38,8.38,0,0,0,.54,3.8,11.06,11.06,0,0,0,2.45,3.68,16.89,16.89,0,0,0,4.6,3.25L127,54.74a8.66,8.66,0,0,1,3.53,3.11,6.69,6.69,0,0,1,1,3.62,6.29,6.29,0,0,1-1.13,3.37,6.89,6.89,0,0,1-2.88,2.42,11.59,11.59,0,0,1-3.69.74h-.39a10.63,10.63,0,0,1-3.7-.71,10.47,10.47,0,0,1-3.12-1.89,5.68,5.68,0,0,1-1.22-1.56,14.05,14.05,0,0,1-1-2.12,16,16,0,0,1-.61-2.25,10.09,10.09,0,0,1-.22-2l0-.39H112.5V69.23h.7l.38,0v-.32l.24-.51a1.54,1.54,0,0,1,.67-.64A3.58,3.58,0,0,1,116,67.4a7.53,7.53,0,0,1,2.79.66,4.1,4.1,0,0,0,.49.2,10.86,10.86,0,0,0,4.05.79h.45c.22,0,.43,0,.64,0s.42,0,.67-.07h0a18.11,18.11,0,0,0,5.67-1.67,12.58,12.58,0,0,0,3.87-2.92,8.76,8.76,0,0,0,2-3.75,8.54,8.54,0,0,0-.05-4.05A10,10,0,0,0,134.51,52.69Z"/><path class="cls-1" d="M152.4,67.91a2.53,2.53,0,0,1-1.1-.64,2.48,2.48,0,0,1-.58-1.13,8.33,8.33,0,0,1-.19-2V37.57a4.84,4.84,0,0,1,.69-3,4,4,0,0,1,2.52-1h1.8l.39,0v-1H139.5v1h1.8a4.29,4.29,0,0,1,2.87.94,4.68,4.68,0,0,1,.77,3.13V64.12a7.37,7.37,0,0,1-.25,2.17,2.36,2.36,0,0,1-.77,1.17,3.17,3.17,0,0,1-1.5.57h0a17.72,17.72,0,0,1-2.53.16h-.38v1.08H156V68.19h-1.77A7.33,7.33,0,0,1,152.4,67.91Z"/><path class="cls-1" d="M186.89,55.19a29.79,29.79,0,0,1-.67,3.11,15.42,15.42,0,0,1-1,2.72A18.42,18.42,0,0,1,184,63.25a9.58,9.58,0,0,1-1.54,1.81,10.9,10.9,0,0,1-3.61,2.43,9.79,9.79,0,0,1-1.71.52,17.19,17.19,0,0,1-1.75.27,9.41,9.41,0,0,1-1.05-.07,4.26,4.26,0,0,1-1-.23,12,12,0,0,1-3.86-2.34,17.1,17.1,0,0,1-3.85-6.21,24.12,24.12,0,0,1-1.48-8.59A24.92,24.92,0,0,1,165,44a20.09,20.09,0,0,1,2.45-5.58,12.52,12.52,0,0,1,3.58-3.72,7.69,7.69,0,0,1,4.26-1.33,11.56,11.56,0,0,1,3.48.78,11.35,11.35,0,0,1,3.65,2.44A14.34,14.34,0,0,1,184,38.44a16.59,16.59,0,0,1,1.29,2.21,21,21,0,0,1,1,2.74,21.62,21.62,0,0,1,.64,3.09l0,.34h1V33h-1l-.06.31a1.91,1.91,0,0,1-.88,1.33,3.3,3.3,0,0,1-1.81.38,8.92,8.92,0,0,1-3.5-1.07c-.22-.12-.43-.24-.63-.33l-.54-.24-.12-.11h-.1l-.12-.09h-.08a11.69,11.69,0,0,0-4.49-.85,14.93,14.93,0,0,0-9.08,3.18,19.33,19.33,0,0,0-2.37,2.25,18.65,18.65,0,0,0-3.49,5.89,21,21,0,0,0-1,3.53,20.19,20.19,0,0,0-.31,3.32v.73h0a20.31,20.31,0,0,0,.31,3.33,21.27,21.27,0,0,0,1,3.53,18.72,18.72,0,0,0,3.49,5.88,16.18,16.18,0,0,0,5.11,4,14.1,14.1,0,0,0,6.34,1.48,11.37,11.37,0,0,0,4.51-.88,13.16,13.16,0,0,0,4-2.61,15.36,15.36,0,0,0,3-4.38A21,21,0,0,0,188,55.35L188,55,187,54.82Z"/><path class="cls-1" d="M203.83,67.91a2.53,2.53,0,0,1-1.1-.64,2.58,2.58,0,0,1-.58-1.13,8.89,8.89,0,0,1-.19-2V37.57a4.83,4.83,0,0,1,.7-3,3.9,3.9,0,0,1,2.52-1H207l.38,0v-1H190.93v1h1.8a4.32,4.32,0,0,1,2.88.94,4.68,4.68,0,0,1,.77,3.13V64.12a7.32,7.32,0,0,1-.26,2.17,2.24,2.24,0,0,1-.77,1.17,3.17,3.17,0,0,1-1.5.57h0a17.82,17.82,0,0,1-2.53.16h-.39v1.08h16.48V68.19h-1.77A7.33,7.33,0,0,1,203.83,67.91Z"/><path class="cls-1" d="M245,67.85a2.69,2.69,0,0,1-1.2-.55,5.54,5.54,0,0,1-1.26-1.48,18.31,18.31,0,0,1-1.45-3l-12.16-30.4h-.88L215.84,62.94a8.31,8.31,0,0,1-1.84,3A9,9,0,0,1,212,67.44a5.27,5.27,0,0,1-1.62.57l-.75.08h-.38v1.09H222V68.1h-.39l-.57,0a7.33,7.33,0,0,1-1.22-.17,8.4,8.4,0,0,1-1.45-.47,3.32,3.32,0,0,1-1.19-.85,2.64,2.64,0,0,1-.61-1.34,4,4,0,0,1,.36-2.06l3.32-8.26h12L235.51,63a12,12,0,0,1,.87,3.06,1.41,1.41,0,0,1-.36,1.28,2.75,2.75,0,0,1-1.52.51c-.76.08-1.68.15-2.75.21h-.36v1.07h15.53v-1l-.33-.05Zm-24.31-14,5.59-13.92,5.55,13.92Z"/><path class="cls-1" d="M275.26,33.59h1.06a11.63,11.63,0,0,1,1.85.19,8.19,8.19,0,0,1,2.21.73,5.32,5.32,0,0,1,1.82,1.54,4.21,4.21,0,0,1,.76,2.64V59.92L260.89,32.5h-10.2v1.09h1.78a8.4,8.4,0,0,1,2.3.23,1.75,1.75,0,0,1,1,.63,2.19,2.19,0,0,1,.34,1.13c0,.52.05,1.14.05,1.85V63a4.34,4.34,0,0,1-.76,2.69,5.29,5.29,0,0,1-1.82,1.53,8.19,8.19,0,0,1-2.21.73,12,12,0,0,1-1.85.2h-1.06v1.08H265V68.19H263.9a12.09,12.09,0,0,1-1.85-.2,8.31,8.31,0,0,1-2.21-.73A5.38,5.38,0,0,1,258,65.73a4.34,4.34,0,0,1-.75-2.69V36.87L283,69.13l.12.14h.93V38.69a4.21,4.21,0,0,1,.75-2.64,5.41,5.41,0,0,1,1.82-1.54,8.31,8.31,0,0,1,2.21-.73,11.74,11.74,0,0,1,1.85-.19h1.06V32.5H275.26Z"/><path class="cls-1" d="M318.59,56.55a9.83,9.83,0,0,0-2.06-3.86,13.37,13.37,0,0,0-4-3.18l-5.16-2.65a19.69,19.69,0,0,1-5.52-4.25,7.68,7.68,0,0,1-1.92-3.91,4.23,4.23,0,0,1,.87-3.15,6.16,6.16,0,0,1,3-2,9.17,9.17,0,0,1,1.44-.32,9.91,9.91,0,0,1,4.88.48A8.61,8.61,0,0,1,313,35.37a11.21,11.21,0,0,1,1.21,1.37,11.35,11.35,0,0,1,1.09,1.74,9.92,9.92,0,0,1,.76,1.93,6.8,6.8,0,0,1,.28,1.88v.39h1.13V32.14h-.92l-.11.19a2.59,2.59,0,0,1-1.08,1.06,3.1,3.1,0,0,1-1.36.24,5.93,5.93,0,0,1-1.52-.3l-1.51-.53a12,12,0,0,0-6.09-.66,8.64,8.64,0,0,0-1.88.52,12.45,12.45,0,0,0-3.55,2,10.36,10.36,0,0,0-2.5,2.89,9,9,0,0,0-1.13,3.53,8.38,8.38,0,0,0,.54,3.8,11.21,11.21,0,0,0,2.45,3.68,16.89,16.89,0,0,0,4.6,3.25L309,54.74a8.66,8.66,0,0,1,3.53,3.11,6.69,6.69,0,0,1,1,3.62,6.29,6.29,0,0,1-1.13,3.37,6.86,6.86,0,0,1-2.87,2.42,11.7,11.7,0,0,1-3.69.74h-.4a10.53,10.53,0,0,1-3.69-.71,10.39,10.39,0,0,1-3.13-1.89,5.88,5.88,0,0,1-1.22-1.56,13.09,13.09,0,0,1-1-2.12,16.08,16.08,0,0,1-.62-2.25,10.89,10.89,0,0,1-.22-2l0-.39h-1.09V69.23h.7l.39,0v-.32c0-.09.11-.26.23-.51a1.54,1.54,0,0,1,.67-.64,3.58,3.58,0,0,1,1.55-.31,7.53,7.53,0,0,1,2.79.66,4.1,4.1,0,0,0,.49.2,10.86,10.86,0,0,0,4.05.79h.45c.22,0,.43,0,.64,0s.42,0,.67-.07h0a18.13,18.13,0,0,0,5.66-1.67,12.76,12.76,0,0,0,3.88-2.92,8.85,8.85,0,0,0,1.95-3.75A8.54,8.54,0,0,0,318.59,56.55Z"/><path class="cls-2" d="M144.44,2.81c-.23.14-.39.11-.49-.1a1.35,1.35,0,0,0-.28-.46,4.25,4.25,0,0,0-.8-.59,1.7,1.7,0,0,0-1.23-.18,2,2,0,0,0-1.33,1.23c-.37.72-.67,1.34-.91,1.85a37.93,37.93,0,0,0-2,6c-.54,2.2-1,4.34-1.37,6.44q2.81-1,6-2.31a43.24,43.24,0,0,1,6.65-2,28.82,28.82,0,0,1,3.47-.52,8.08,8.08,0,0,1,3.46.38,8.22,8.22,0,0,1,.77.35.68.68,0,0,1,.35.77,1.13,1.13,0,0,1-1.26.21,5.1,5.1,0,0,0-1.47-.35,8.32,8.32,0,0,0-2.73.18c-.88.21-1.75.43-2.59.66s-1.64.48-2.41.74-1.48.52-2.14.8a45.94,45.94,0,0,0-4.41,1.72c-1.4.63-2.77,1.29-4.13,2-.23,1.45-.44,2.94-.63,4.48s-.37,3.13-.56,4.76c0,.51-.1,1-.17,1.58a7.53,7.53,0,0,0,0,1.57,5.91,5.91,0,0,0,.28,1.16,11.47,11.47,0,0,1,.35,1.15,44.51,44.51,0,0,1,1.12,13.23c0,.51,0,1-.07,1.58a6.61,6.61,0,0,1-.28,1.47,2.62,2.62,0,0,1-.63,1.08,1.51,1.51,0,0,1-1.12.42,1.39,1.39,0,0,1-1-.38,2.66,2.66,0,0,1-.6-1,6.29,6.29,0,0,1-.31-1.19c-.07-.42-.13-.82-.18-1.19a41.39,41.39,0,0,1-.59-6.68c0-2.31,0-4.66.17-7,.05-.46.11-.93.18-1.4a5,5,0,0,0,0-1.33,2.92,2.92,0,0,0-.38-1.12c-.21-.37-.41-.74-.6-1.12a10.48,10.48,0,0,0-1.22-2l-1.44-1.82c-.23-.28-.47-.59-.73-.94a1.91,1.91,0,0,1-.39-1.16,2.17,2.17,0,0,1,.28-1,4.33,4.33,0,0,1,.7-.91,5.71,5.71,0,0,1,.91-.73,8.46,8.46,0,0,0,.84-.6q1-.63,1.86-1.08l1.92-1c.42-2.28,1-4.63,1.65-7a58.06,58.06,0,0,1,2.27-6.62A20.38,20.38,0,0,1,138.67,2,4.78,4.78,0,0,1,140.94.08c0,.05.05,0,.14-.07a2.47,2.47,0,0,1,1.61.32c.38.25.75.52,1.12.8a4.94,4.94,0,0,0,.6.77A.65.65,0,0,1,144.44,2.81ZM129.25,23.67a16.75,16.75,0,0,1,1.44,1.61,14.8,14.8,0,0,1,1.22,1.82q.21-1.47.39-3t.45-2.91l-.07-.07c-.6.42-1.21.82-1.82,1.19A7.66,7.66,0,0,0,129.25,23.67Z"/><path class="cls-2" d="M154.17,16.53A5.41,5.41,0,0,1,157.92,18a6.8,6.8,0,0,1,1.71,3.57c1.5-.28,3.05-.59,4.66-.94s3.18-.72,4.72-1.09a6.55,6.55,0,0,0,.7-.24,5.3,5.3,0,0,1,.88-.28,2.3,2.3,0,0,1,.8-.07.54.54,0,0,1,.49.31.42.42,0,0,1-.14.56,3.23,3.23,0,0,1-.7.39,5.71,5.71,0,0,1-.91.28c-.32.07-.56.12-.7.17-1.49.47-3.06.88-4.72,1.23s-3.3.68-4.94,1a14.53,14.53,0,0,1-.59,5.08,17.44,17.44,0,0,1-1.93,4.3,22.39,22.39,0,0,1-2.69,3.36,7.66,7.66,0,0,1-3.68,2.1h-1a2.86,2.86,0,0,1-1.19-.52,11.92,11.92,0,0,1-.91-.81,6.19,6.19,0,0,1-1.08-3,17.74,17.74,0,0,1,0-3.71,33.11,33.11,0,0,1,.63-3.78c.28-1.24.54-2.35.77-3.33a2.74,2.74,0,0,1,0-2.52,5.58,5.58,0,0,1,1.36-1.82,10.73,10.73,0,0,0,.53-1.47,12.34,12.34,0,0,1,.59-1.61,5,5,0,0,1,.88-1.33,1.79,1.79,0,0,1,1.36-.56,1.37,1.37,0,0,1,1.4,1A3.66,3.66,0,0,1,154.17,16.53Zm-3.36,7.28q-.34,2-.87,4.38a17.41,17.41,0,0,0-.39,4.79,6.27,6.27,0,0,0,.25,1.19,1.77,1.77,0,0,0,.66.91,5.33,5.33,0,0,0,3.22-1.68c.8-.89,1.54-1.79,2.24-2.73a26.11,26.11,0,0,0,1.68-3.39,8.42,8.42,0,0,0,.56-4.1,33.57,33.57,0,0,1-3.57.53A29.83,29.83,0,0,1,150.81,23.81ZM153.89,18a2.25,2.25,0,0,0-.14.81.47.47,0,0,1-.42.52,1.19,1.19,0,0,1-.31,0l-.25-.11a1.29,1.29,0,0,1-.07-1,3.07,3.07,0,0,0-.52.91c-.12.33-.22.68-.32,1.05s-.25.75-.35,1.12-.18.75-.28,1.12c1.31,0,2.52-.05,3.64-.14s2.22-.23,3.29-.42a5.47,5.47,0,0,0-1.29-2.76A4.1,4.1,0,0,0,153.89,18Z"/><path class="cls-2" d="M181.82,16.39a10.42,10.42,0,0,0-3.25,3.36c-.82,1.36-1.69,2.71-2.63,4.06l-1.12,2.24a21.33,21.33,0,0,0-1,2.31,11.87,11.87,0,0,0-1.05,2.28,2.53,2.53,0,0,1-1.68,1.64h-.63a1.71,1.71,0,0,1-.59-.38,3.64,3.64,0,0,1-.46-.6,23.94,23.94,0,0,1-.1-2.87c0-1,.07-2.06.14-3.11s.19-2.08.35-3.08.34-1.93.52-2.77a11.4,11.4,0,0,1,.42-1.54,1.35,1.35,0,0,1,1.12-.91.88.88,0,0,1,.81.63,4.06,4.06,0,0,1,.14,1.3,12.58,12.58,0,0,1-.18,1.54,8.16,8.16,0,0,0-.14,1.29q-.13,1.39-.24,2.52c-.07.75-.15,1.45-.25,2.1.8-1.31,1.75-2.78,2.87-4.41a45.63,45.63,0,0,1,3.43-4.41,15.57,15.57,0,0,1,1.23-1.36,4.72,4.72,0,0,1,1.43-1,2.06,2.06,0,0,1,1.3,0,1.08,1.08,0,0,1,.8.77c.1.56,0,.86-.42.91A.78.78,0,0,1,181.82,16.39Z"/></g></g></svg>