<svg xmlns="http://www.w3.org/2000/svg" viewBox="0 0 626.58 617.99"><defs><style>.cls-1,.cls-6,.cls-7,.cls-8{fill:none;stroke-miterlimit:10;stroke-width:1.28px;}.cls-1{stroke:#a4a6a8;}.cls-2{fill:#53575a;}.cls-3{fill:#ff8704;}.cls-4{fill:#a4a6a8;}.cls-5{fill:#ff8300;}.cls-6{stroke:#53575a;}.cls-7{stroke:#ff8300;}.cls-8{stroke:#ff8704;}</style></defs><g id="Layer_2" data-name="Layer 2"><g id="Layer_1-2" data-name="Layer 1"><line class="cls-1" x1="165.71" y1="522.4" x2="165.71" y2="531.37"/><line class="cls-1" x1="252.24" y1="522.4" x2="252.24" y2="531.37"/><line class="cls-1" x1="338.78" y1="522.4" x2="338.78" y2="531.37"/><line class="cls-1" x1="425.31" y1="522.4" x2="425.31" y2="531.37"/><line class="cls-1" x1="511.84" y1="522.4" x2="511.84" y2="531.37"/><line class="cls-1" x1="600.94" y1="522.4" x2="600.94" y2="531.37"/><path class="cls-2" d="M228.6,592.41a6.07,6.07,0,0,0,3,.85c1.73,0,2.74-.91,2.74-2.23s-.7-1.92-2.47-2.6c-2.13-.76-3.45-1.86-3.45-3.71,0-2,1.69-3.55,4.23-3.55a5.93,5.93,0,0,1,2.89.64l-.47,1.38a5.21,5.21,0,0,0-2.48-.62c-1.79,0-2.46,1.07-2.46,2,0,1.22.79,1.82,2.6,2.52,2.21.86,3.33,1.92,3.33,3.84s-1.49,3.77-4.58,3.77a6.77,6.77,0,0,1-3.33-.83Z"/><path class="cls-2" d="M247,589.69c0,3.48-2.4,5-4.68,5-2.54,0-4.5-1.86-4.5-4.83,0-3.15,2.06-5,4.66-5S247,586.82,247,589.69Zm-7.45.1c0,2.06,1.18,3.61,2.85,3.61s2.86-1.53,2.86-3.65c0-1.59-.8-3.61-2.82-3.61S239.51,588,239.51,589.79Z"/><path class="cls-2" d="M249.29,594.47v-8.1H248v-1.3h1.32v-.44a4.44,4.44,0,0,1,1.09-3.29,3.26,3.26,0,0,1,2.29-.87,4.06,4.06,0,0,1,1.45.27l-.23,1.32a2.65,2.65,0,0,0-1.09-.21c-1.45,0-1.82,1.28-1.82,2.72v.5h2.27v1.3H251v8.1Z"/><path class="cls-2" d="M257.05,582.37v2.7h2.45v1.3h-2.45v5.07c0,1.16.33,1.82,1.28,1.82a4.22,4.22,0,0,0,1-.11l.08,1.28a4.3,4.3,0,0,1-1.51.23,2.36,2.36,0,0,1-1.85-.72,3.49,3.49,0,0,1-.66-2.44v-5.13h-1.45v-1.3h1.45v-2.25Z"/><path class="cls-2" d="M261.42,587.61c0-1,0-1.76-.08-2.54h1.51l.1,1.55h0a3.45,3.45,0,0,1,3.1-1.76c1.31,0,3.32.78,3.32,4v5.61h-1.7v-5.42c0-1.51-.57-2.77-2.18-2.77a2.43,2.43,0,0,0-2.29,1.74,2.46,2.46,0,0,0-.11.8v5.65h-1.71Z"/><path class="cls-2" d="M273.14,590.08a3,3,0,0,0,3.22,3.26,6,6,0,0,0,2.6-.49l.29,1.23a7.63,7.63,0,0,1-3.12.58c-2.89,0-4.62-1.9-4.62-4.74s1.67-5.06,4.4-5.06c3.07,0,3.89,2.7,3.89,4.42a6.41,6.41,0,0,1-.06.8Zm5-1.22c0-1.09-.45-2.78-2.37-2.78a2.82,2.82,0,0,0-2.62,2.78Z"/><path class="cls-2" d="M281.68,592.72a4.44,4.44,0,0,0,2.25.68c1.24,0,1.82-.62,1.82-1.4s-.48-1.26-1.74-1.73c-1.69-.6-2.49-1.53-2.49-2.66,0-1.51,1.22-2.75,3.24-2.75a4.69,4.69,0,0,1,2.31.58l-.43,1.24a3.63,3.63,0,0,0-1.92-.54c-1,0-1.57.58-1.57,1.28s.56,1.13,1.79,1.59c1.63.62,2.46,1.44,2.46,2.84,0,1.65-1.28,2.81-3.51,2.81a5.34,5.34,0,0,1-2.64-.64Z"/><path class="cls-2" d="M289.36,592.72a4.5,4.5,0,0,0,2.25.68c1.24,0,1.83-.62,1.83-1.4s-.49-1.26-1.75-1.73c-1.69-.6-2.48-1.53-2.48-2.66,0-1.51,1.22-2.75,3.24-2.75a4.72,4.72,0,0,1,2.31.58l-.43,1.24a3.69,3.69,0,0,0-1.92-.54c-1,0-1.57.58-1.57,1.28s.56,1.13,1.78,1.59c1.63.62,2.47,1.44,2.47,2.84,0,1.65-1.28,2.81-3.52,2.81a5.34,5.34,0,0,1-2.64-.64Z"/><path class="cls-2" d="M305.1,581a12.76,12.76,0,0,0-2.45,7.93,13.05,13.05,0,0,0,2.45,7.88h-1.34a12.55,12.55,0,0,1-2.54-7.88,12.81,12.81,0,0,1,2.54-7.93Z"/><path class="cls-2" d="M316.71,593.88a12,12,0,0,1-4,.72A6.15,6.15,0,0,1,306,588c0-3.9,2.7-6.75,7.09-6.75a8.16,8.16,0,0,1,3.26.6l-.41,1.38a6.79,6.79,0,0,0-2.89-.56,4.88,4.88,0,0,0-5.26,5.26c0,3.31,2,5.27,5,5.27a5.44,5.44,0,0,0,2.26-.35V589H312.4v-1.36h4.31Z"/><path class="cls-2" d="M320.25,590.08a3,3,0,0,0,3.23,3.26,6,6,0,0,0,2.6-.49l.29,1.23a7.65,7.65,0,0,1-3.13.58c-2.89,0-4.62-1.9-4.62-4.74s1.67-5.06,4.41-5.06c3.07,0,3.88,2.7,3.88,4.42a6.41,6.41,0,0,1-.06.8Zm5-1.22c0-1.09-.44-2.78-2.37-2.78-1.72,0-2.48,1.59-2.62,2.78Z"/><path class="cls-2" d="M329,580.69h1.7v13.78H329Z"/><path class="cls-2" d="M344.55,588.33h-5.08v4.72h5.66v1.42h-7.35V581.38h7.06v1.42h-5.37v4.13h5.08Z"/><path class="cls-2" d="M347.27,580.69H349v13.78h-1.7Z"/><path class="cls-2" d="M357.05,594.47l-.14-1.19h-.06a3.48,3.48,0,0,1-2.87,1.4,2.68,2.68,0,0,1-2.87-2.7c0-2.27,2-3.51,5.65-3.49v-.2a1.94,1.94,0,0,0-2.14-2.17,4.64,4.64,0,0,0-2.44.7l-.39-1.13a5.84,5.84,0,0,1,3.08-.83c2.88,0,3.58,2,3.58,3.84v3.51a13,13,0,0,0,.15,2.26Zm-.25-4.8c-1.87,0-4,.29-4,2.12a1.51,1.51,0,0,0,1.61,1.63,2.34,2.34,0,0,0,2.27-1.57,1.78,1.78,0,0,0,.1-.55Z"/><path class="cls-2" d="M361,592.72a4.44,4.44,0,0,0,2.25.68c1.24,0,1.82-.62,1.82-1.4s-.48-1.26-1.74-1.73c-1.69-.6-2.49-1.53-2.49-2.66,0-1.51,1.22-2.75,3.24-2.75a4.69,4.69,0,0,1,2.31.58l-.42,1.24a3.7,3.7,0,0,0-1.93-.54c-1,0-1.57.58-1.57,1.28s.56,1.13,1.79,1.59c1.63.62,2.46,1.44,2.46,2.84,0,1.65-1.28,2.81-3.51,2.81a5.34,5.34,0,0,1-2.64-.64Z"/><path class="cls-2" d="M370.94,582.37v2.7h2.45v1.3h-2.45v5.07c0,1.16.33,1.82,1.28,1.82a4.22,4.22,0,0,0,1-.11l.08,1.28a4.3,4.3,0,0,1-1.51.23,2.36,2.36,0,0,1-1.85-.72,3.49,3.49,0,0,1-.66-2.44v-5.13h-1.45v-1.3h1.45v-2.25Z"/><path class="cls-2" d="M377.21,582.43a1.06,1.06,0,0,1-2.12,0,1,1,0,0,1,1.07-1.07A1,1,0,0,1,377.21,582.43Zm-1.9,12v-9.4H377v9.4Z"/><path class="cls-2" d="M386.54,594.12a6.29,6.29,0,0,1-2.69.54,4.46,4.46,0,0,1-4.68-4.79,4.77,4.77,0,0,1,5-5,5.75,5.75,0,0,1,2.37.48l-.39,1.32a4,4,0,0,0-2-.44,3.54,3.54,0,0,0,0,7.06,4.87,4.87,0,0,0,2.09-.46Z"/><path class="cls-2" d="M390.44,582.43a1,1,0,0,1-1.08,1.05,1,1,0,0,1-1-1.05,1,1,0,0,1,1.07-1.07A1,1,0,0,1,390.44,582.43Zm-1.9,12v-9.4h1.71v9.4Z"/><path class="cls-2" d="M395.14,582.37v2.7h2.45v1.3h-2.45v5.07c0,1.16.33,1.82,1.28,1.82a4.22,4.22,0,0,0,1-.11l.08,1.28a4.36,4.36,0,0,1-1.52.23,2.36,2.36,0,0,1-1.84-.72,3.49,3.49,0,0,1-.66-2.44v-5.13H392v-1.3h1.46v-2.25Z"/><path class="cls-2" d="M400.28,585.07l2.06,5.55c.21.62.45,1.36.6,1.92h0c.17-.56.37-1.28.6-2l1.86-5.51h1.81l-2.56,6.7c-1.22,3.22-2.06,4.87-3.22,5.88a4.66,4.66,0,0,1-2.1,1.11l-.43-1.44a4.61,4.61,0,0,0,1.5-.84,5,5,0,0,0,1.43-1.9,1.19,1.19,0,0,0,.14-.4,1.43,1.43,0,0,0-.12-.45l-3.47-8.66Z"/><path class="cls-2" d="M407.77,596.81a13.1,13.1,0,0,0,2.45-7.93,12.83,12.83,0,0,0-2.45-7.88h1.32a12.36,12.36,0,0,1,2.54,7.9,12.57,12.57,0,0,1-2.54,7.91Z"/><path class="cls-2" d="M422.15,581a12.82,12.82,0,0,0-2.44,7.93,13.05,13.05,0,0,0,2.44,7.88h-1.34a12.55,12.55,0,0,1-2.54-7.88,12.81,12.81,0,0,1,2.54-7.93Z"/><path class="cls-2" d="M424,587.61c0-1,0-1.76-.08-2.54h1.49l.08,1.52h.06a3.23,3.23,0,0,1,2.95-1.73,2.79,2.79,0,0,1,2.66,1.88h0a3.86,3.86,0,0,1,1-1.22,3.17,3.17,0,0,1,2.07-.66c1.24,0,3.09.81,3.09,4.07v5.54H435.7v-5.32c0-1.81-.66-2.89-2-2.89a2.2,2.2,0,0,0-2,1.55,2.71,2.71,0,0,0-.13.85v5.81h-1.67v-5.63c0-1.5-.66-2.58-2-2.58a2.51,2.51,0,0,0-2.25,2.54v5.67H424Z"/><path class="cls-2" d="M440.14,587.61c0-1,0-1.76-.08-2.54h1.5l.07,1.52h.06a3.24,3.24,0,0,1,2.95-1.73,2.79,2.79,0,0,1,2.66,1.88h0a3.86,3.86,0,0,1,1.05-1.22,3.18,3.18,0,0,1,2.08-.66c1.24,0,3.08.81,3.08,4.07v5.54h-1.67v-5.32c0-1.81-.66-2.89-2-2.89a2.19,2.19,0,0,0-2,1.55,2.7,2.7,0,0,0-.14.85v5.81H446v-5.63c0-1.5-.66-2.58-2-2.58A2.32,2.32,0,0,0,442,588a2.35,2.35,0,0,0-.14.84v5.67h-1.67Z"/><path class="cls-2" d="M455.3,596.81a13.17,13.17,0,0,0,2.44-7.93A12.9,12.9,0,0,0,455.3,581h1.32a12.36,12.36,0,0,1,2.54,7.9,12.57,12.57,0,0,1-2.54,7.91Z"/><path class="cls-2" d="M239.22,615.7a6,6,0,0,0,3,.85c1.72,0,2.73-.91,2.73-2.23s-.7-1.92-2.46-2.6c-2.14-.76-3.46-1.87-3.46-3.71,0-2,1.69-3.55,4.23-3.55a6,6,0,0,1,2.9.64l-.47,1.38a5.15,5.15,0,0,0-2.49-.62c-1.78,0-2.46,1.06-2.46,2,0,1.22.8,1.82,2.6,2.52,2.21.85,3.34,1.92,3.34,3.84s-1.5,3.77-4.58,3.77a6.73,6.73,0,0,1-3.34-.84Z"/><path class="cls-2" d="M257.58,613a4.6,4.6,0,0,1-4.68,5c-2.54,0-4.5-1.87-4.5-4.84,0-3.14,2-5,4.65-5S257.58,610.11,257.58,613Zm-7.46.1c0,2,1.19,3.61,2.86,3.61s2.85-1.54,2.85-3.65c0-1.59-.8-3.61-2.81-3.61S250.12,611.29,250.12,613.08Z"/><path class="cls-2" d="M259.9,617.75v-8.09h-1.32v-1.3h1.32v-.45a4.42,4.42,0,0,1,1.09-3.28,3.26,3.26,0,0,1,2.29-.87,3.91,3.91,0,0,1,1.46.27l-.24,1.32a2.48,2.48,0,0,0-1.08-.21c-1.46,0-1.83,1.28-1.83,2.71v.51h2.27v1.3h-2.27v8.09Z"/><path class="cls-2" d="M267.67,605.66v2.7h2.44v1.3h-2.44v5.07c0,1.16.33,1.82,1.28,1.82a3.77,3.77,0,0,0,1-.12l.07,1.28a4,4,0,0,1-1.51.24,2.38,2.38,0,0,1-1.84-.72,3.47,3.47,0,0,1-.66-2.45v-5.12h-1.46v-1.3H266v-2.25Z"/><path class="cls-2" d="M272.89,613.37a3,3,0,0,0,3.22,3.26,6.2,6.2,0,0,0,2.6-.49l.29,1.22a7.45,7.45,0,0,1-3.13.59c-2.89,0-4.61-1.9-4.61-4.74s1.66-5.06,4.4-5.06c3.07,0,3.88,2.69,3.88,4.42,0,.35,0,.62-.05.8Zm5-1.23c0-1.08-.44-2.77-2.36-2.77a2.82,2.82,0,0,0-2.62,2.77Z"/><path class="cls-2" d="M281.66,611.29c0-1.11,0-2.06-.08-2.93h1.49l.06,1.84h.08a2.82,2.82,0,0,1,2.6-2.05,2.46,2.46,0,0,1,.49.05v1.61a3.33,3.33,0,0,0-.59,0,2.4,2.4,0,0,0-2.29,2.19,4.67,4.67,0,0,0-.07.8v5h-1.69Z"/><path class="cls-2" d="M399.13,604.67h7.05v1.42h-5.36v4.35h4.95v1.39h-4.95v5.92h-1.69Z"/><path class="cls-2" d="M409.94,605.72a1.06,1.06,0,0,1-2.11,0,1,1,0,0,1,1.06-1.07A1,1,0,0,1,409.94,605.72Zm-1.9,12v-9.39h1.71v9.39Z"/><path class="cls-2" d="M412.58,611.29c0-1.11,0-2.06-.08-2.93H414l.06,1.84h.07a2.82,2.82,0,0,1,2.61-2.05,2.28,2.28,0,0,1,.48.05v1.61a3.21,3.21,0,0,0-.58,0,2.39,2.39,0,0,0-2.29,2.19,4.6,4.6,0,0,0-.08.8v5h-1.69Z"/><path class="cls-2" d="M419,610.9c0-1,0-1.76-.08-2.54h1.49l.08,1.51h.06a3.24,3.24,0,0,1,2.95-1.72,2.77,2.77,0,0,1,2.66,1.88h0a3.85,3.85,0,0,1,1-1.22,3.22,3.22,0,0,1,2.08-.66c1.24,0,3.09.81,3.09,4.07v5.53h-1.67v-5.32c0-1.8-.66-2.89-2-2.89a2.21,2.21,0,0,0-2,1.56,2.71,2.71,0,0,0-.13.85v5.8h-1.67v-5.63c0-1.49-.66-2.58-2-2.58a2.34,2.34,0,0,0-2.12,1.71,2.28,2.28,0,0,0-.14.84v5.66H419Z"/><path class="cls-2" d="M436.12,613.37a3,3,0,0,0,3.22,3.26,6.16,6.16,0,0,0,2.6-.49l.29,1.22a7.43,7.43,0,0,1-3.12.59c-2.89,0-4.62-1.9-4.62-4.74s1.67-5.06,4.41-5.06c3.06,0,3.88,2.69,3.88,4.42a6.41,6.41,0,0,1-.06.8Zm5-1.23a2.43,2.43,0,0,0-2.37-2.77,2.83,2.83,0,0,0-2.62,2.77Z"/><path class="cls-2" d="M444.89,611.29c0-1.11,0-2.06-.08-2.93h1.5l.06,1.84h.07a2.82,2.82,0,0,1,2.61-2.05,2.28,2.28,0,0,1,.48.05v1.61a3.21,3.21,0,0,0-.58,0,2.39,2.39,0,0,0-2.29,2.19,4.6,4.6,0,0,0-.08.8v5h-1.69Z"/><path class="cls-2" d="M73.67,21.27H68.53L68,24.73a7.44,7.44,0,0,1,1.1-.08,5.73,5.73,0,0,1,2.9.72,3.85,3.85,0,0,1,1.93,3.47c0,2.63-2.09,4.6-5,4.6a6.52,6.52,0,0,1-3.36-.83L66,31.22A6.05,6.05,0,0,0,68.9,32,3,3,0,0,0,72.1,29c0-1.74-1.18-3-3.88-3a14.5,14.5,0,0,0-1.87.14l.87-6.47h6.45Z"/><path class="cls-2" d="M85.23,26.33c0,4.58-1.7,7.11-4.69,7.11-2.63,0-4.42-2.47-4.46-6.93s2-7,4.69-7S85.23,22,85.23,26.33Zm-7.32.21C77.91,30,79,32,80.64,32c1.87,0,2.76-2.18,2.76-5.62s-.85-5.49-2.74-5.49C79.07,20.92,77.91,22.86,77.91,26.54Z"/><path class="cls-2" d="M71.27,116.55v-3.67H65v-1.2l6-8.61h2v8.38h1.89v1.43H73v3.67Zm0-5.1V107c0-.71,0-1.41.06-2.12h-.06c-.42.79-.75,1.37-1.12,2l-3.3,4.59v0Z"/><path class="cls-2" d="M84.31,104.6H79.17l-.52,3.47a7.23,7.23,0,0,1,1.1-.09,5.63,5.63,0,0,1,2.9.73,3.83,3.83,0,0,1,1.93,3.46c0,2.64-2.09,4.61-5,4.61a6.6,6.6,0,0,1-3.35-.83l.45-1.39a6.07,6.07,0,0,0,2.88.74,3,3,0,0,0,3.2-2.92c0-1.74-1.18-3-3.88-3a14.27,14.27,0,0,0-1.87.15l.87-6.47h6.45Z"/><path class="cls-2" d="M71.27,201.15v-3.67H65v-1.2l6-8.61h2v8.38h1.89v1.43H73v3.67Zm0-5.1v-4.5c0-.71,0-1.41.06-2.12h-.06c-.42.79-.75,1.37-1.12,2L66.85,196v0Z"/><path class="cls-2" d="M85.23,194.27c0,4.58-1.7,7.11-4.69,7.11-2.63,0-4.42-2.47-4.46-6.93s2-7,4.69-7S85.23,190,85.23,194.27Zm-7.32.2c0,3.51,1.07,5.5,2.73,5.5,1.87,0,2.76-2.18,2.76-5.62s-.85-5.5-2.74-5.5C79.07,188.85,77.91,190.8,77.91,194.47Z"/><path class="cls-2" d="M66.06,283.66a6.12,6.12,0,0,0,3,.85c2.34,0,3.07-1.49,3-2.61,0-1.89-1.72-2.7-3.49-2.7h-1v-1.37h1c1.33,0,3-.68,3-2.28,0-1.08-.68-2-2.36-2a5,5,0,0,0-2.7.89l-.48-1.33a6.43,6.43,0,0,1,3.53-1c2.65,0,3.86,1.57,3.86,3.21A3.34,3.34,0,0,1,71,278.43v0a3.52,3.52,0,0,1,3,3.47c0,2.15-1.67,4-4.91,4a6.89,6.89,0,0,1-3.5-.91Z"/><path class="cls-2" d="M84.31,273.81H79.17l-.52,3.46a7.44,7.44,0,0,1,1.1-.08,5.73,5.73,0,0,1,2.9.72,3.86,3.86,0,0,1,1.93,3.47c0,2.63-2.09,4.6-5,4.6a6.5,6.5,0,0,1-3.35-.83l.45-1.39a6.05,6.05,0,0,0,2.88.75,3,3,0,0,0,3.2-2.92c0-1.75-1.18-3-3.88-3a14.5,14.5,0,0,0-1.87.14l.87-6.47h6.45Z"/><path class="cls-2" d="M66.06,367a6.12,6.12,0,0,0,3,.85c2.34,0,3.07-1.5,3-2.62,0-1.88-1.72-2.69-3.49-2.69h-1v-1.37h1c1.33,0,3-.69,3-2.28,0-1.08-.68-2-2.36-2a4.92,4.92,0,0,0-2.7.89l-.48-1.33a6.43,6.43,0,0,1,3.53-1c2.65,0,3.86,1.58,3.86,3.22A3.34,3.34,0,0,1,71,361.77v0a3.51,3.51,0,0,1,3,3.46c0,2.16-1.67,4.05-4.91,4.05a6.89,6.89,0,0,1-3.5-.91Z"/><path class="cls-2" d="M85.23,362.21c0,4.58-1.7,7.11-4.69,7.11-2.63,0-4.42-2.47-4.46-6.93s2-7,4.69-7S85.23,357.91,85.23,362.21Zm-7.32.2c0,3.51,1.07,5.5,2.73,5.5,1.87,0,2.76-2.18,2.76-5.62s-.85-5.5-2.74-5.5C79.07,356.79,77.91,358.74,77.91,362.41Z"/><path class="cls-2" d="M65.63,452.43v-1.12l1.43-1.39c3.44-3.28,5-5,5-7.05a2.41,2.41,0,0,0-2.68-2.64,4.64,4.64,0,0,0-2.86,1.14L66,440.09a5.9,5.9,0,0,1,3.82-1.37,3.79,3.79,0,0,1,4.12,3.92c0,2.49-1.8,4.5-4.64,7.24l-1.08,1v0h6v1.52Z"/><path class="cls-2" d="M84.31,440.48H79.17L78.65,444a6.13,6.13,0,0,1,1.1-.09,5.63,5.63,0,0,1,2.9.73,3.83,3.83,0,0,1,1.93,3.46c0,2.63-2.09,4.61-5,4.61a6.6,6.6,0,0,1-3.35-.83l.45-1.39a6.07,6.07,0,0,0,2.88.74,3,3,0,0,0,3.2-2.92c0-1.74-1.18-3-3.88-3a14.27,14.27,0,0,0-1.87.15l.87-6.47h6.45Z"/><path class="cls-2" d="M65.63,535.76v-1.12l1.43-1.38c3.44-3.28,5-5,5-7.06a2.41,2.41,0,0,0-2.68-2.63,4.58,4.58,0,0,0-2.86,1.14L66,523.43a5.9,5.9,0,0,1,3.82-1.37A3.79,3.79,0,0,1,73.9,526c0,2.48-1.8,4.5-4.64,7.23l-1.08,1v0h6v1.51Z"/><path class="cls-2" d="M85.23,528.88c0,4.58-1.7,7.11-4.69,7.11-2.63,0-4.42-2.47-4.46-6.92s2-7,4.69-7S85.23,524.59,85.23,528.88Zm-7.32.21c0,3.5,1.07,5.49,2.73,5.49,1.87,0,2.76-2.18,2.76-5.62s-.85-5.49-2.74-5.49C79.07,523.47,77.91,525.42,77.91,529.09Z"/><line class="cls-1" x1="95.85" y1="446.76" x2="104.82" y2="446.76"/><line class="cls-1" x1="95.85" y1="362.15" x2="104.82" y2="362.15"/><line class="cls-1" x1="95.85" y1="362.15" x2="104.82" y2="362.15"/><line class="cls-1" x1="95.85" y1="278.83" x2="104.82" y2="278.83"/><line class="cls-1" x1="95.85" y1="195.5" x2="104.82" y2="195.5"/><line class="cls-1" x1="95.85" y1="110.89" x2="104.82" y2="110.89"/><line class="cls-1" x1="95.85" y1="27.56" x2="104.82" y2="27.56"/><path class="cls-3" d="M285.58,257a9,9,0,1,1-9-9,9,9,0,0,1,9,9"/><path class="cls-4" d="M165.07,485.22a9,9,0,1,1-9-9,9,9,0,0,1,9,9"/><path class="cls-2" d="M256.09,476.25a9,9,0,1,1-9-9,9,9,0,0,1,9,9"/><path class="cls-5" d="M292.27,262.07a5.53,5.53,0,0,0,2.8.79c1.59,0,2.53-.85,2.53-2.07s-.65-1.77-2.28-2.4c-2-.7-3.2-1.72-3.2-3.43,0-1.88,1.56-3.28,3.92-3.28a5.46,5.46,0,0,1,2.67.59l-.43,1.27A4.9,4.9,0,0,0,296,253c-1.65,0-2.28,1-2.28,1.81,0,1.13.74,1.69,2.41,2.33,2,.79,3.08,1.78,3.08,3.56s-1.38,3.48-4.23,3.48a6.27,6.27,0,0,1-3.09-.77Z"/><path class="cls-5" d="M303,252.84a.93.93,0,0,1-1,1,.94.94,0,0,1-.95-1,1,1,0,0,1,1-1A.93.93,0,0,1,303,252.84ZM301.28,264v-8.69h1.58V264Z"/><path class="cls-5" d="M306.35,259.91a2.79,2.79,0,0,0,3,3,5.75,5.75,0,0,0,2.41-.45l.27,1.13a7.08,7.08,0,0,1-2.89.54,4,4,0,0,1-4.27-4.38c0-2.62,1.54-4.68,4.07-4.68,2.84,0,3.59,2.49,3.59,4.09,0,.32,0,.57-.05.73Zm4.63-1.13a2.24,2.24,0,0,0-2.19-2.56,2.62,2.62,0,0,0-2.42,2.56Z"/><path class="cls-5" d="M314.47,257.64c0-.9,0-1.64-.07-2.36h1.39l.09,1.44h0a3.19,3.19,0,0,1,2.87-1.63c1.2,0,3.07.71,3.07,3.69V264h-1.58v-5c0-1.4-.52-2.56-2-2.56a2.24,2.24,0,0,0-2.12,1.61,2.37,2.37,0,0,0-.1.74V264h-1.58Z"/><path class="cls-5" d="M326.28,252.79v2.49h2.26v1.21h-2.26v4.68c0,1.08.3,1.69,1.18,1.69a3.75,3.75,0,0,0,.92-.11l.07,1.18a3.78,3.78,0,0,1-1.4.22,2.17,2.17,0,0,1-1.71-.67,3.19,3.19,0,0,1-.61-2.26v-4.73h-1.34v-1.21h1.34V253.2Z"/><path class="cls-5" d="M330.31,258c0-1,0-1.9-.07-2.71h1.38l.06,1.71h.07a2.6,2.6,0,0,1,2.4-1.9,1.55,1.55,0,0,1,.45,0v1.49a2.16,2.16,0,0,0-.54-.05,2.2,2.2,0,0,0-2.11,2,4.14,4.14,0,0,0-.07.74V264h-1.57Z"/><path class="cls-5" d="M340.92,264l-.13-1.1h-.05a3.22,3.22,0,0,1-2.66,1.3,2.48,2.48,0,0,1-2.65-2.5c0-2.1,1.87-3.25,5.22-3.23v-.18a1.79,1.79,0,0,0-2-2,4.27,4.27,0,0,0-2.26.65l-.36-1a5.36,5.36,0,0,1,2.85-.77c2.66,0,3.3,1.81,3.3,3.55v3.25a12,12,0,0,0,.15,2.08Zm-.23-4.43c-1.73,0-3.68.27-3.68,1.95A1.4,1.4,0,0,0,338.5,263a2.17,2.17,0,0,0,2.1-1.45,1.76,1.76,0,0,0,.09-.51Z"/><path class="cls-5" d="M350.18,251.87v5.06H356v-5.06h1.58V264H356V258.3h-5.85V264h-1.56v-12.1Z"/><path class="cls-5" d="M360.11,262.07a5.53,5.53,0,0,0,2.8.79c1.59,0,2.53-.85,2.53-2.07s-.65-1.77-2.28-2.4c-2-.7-3.2-1.72-3.2-3.43,0-1.88,1.56-3.28,3.91-3.28a5.47,5.47,0,0,1,2.68.59l-.43,1.27a4.9,4.9,0,0,0-2.3-.57c-1.65,0-2.28,1-2.28,1.81,0,1.13.74,1.69,2.41,2.33,2,.79,3.08,1.78,3.08,3.56s-1.38,3.48-4.23,3.48a6.27,6.27,0,0,1-3.09-.77Z"/><path class="cls-5" d="M377.62,263.57a7.65,7.65,0,0,1-3.19.58c-3.41,0-6-2.15-6-6.12a6,6,0,0,1,6.32-6.35,6.38,6.38,0,0,1,2.87.54l-.38,1.27a5.62,5.62,0,0,0-2.44-.5c-2.83,0-4.72,1.81-4.72,5,0,3,1.71,4.86,4.65,4.86a6.36,6.36,0,0,0,2.55-.5Z"/><path class="cls-5" d="M392.59,263.43a11.32,11.32,0,0,1-3.72.66,5.66,5.66,0,0,1-6.2-6.1c0-3.6,2.49-6.24,6.55-6.24a7.49,7.49,0,0,1,3,.55l-.38,1.28a6.19,6.19,0,0,0-2.67-.52,4.52,4.52,0,0,0-4.86,4.86c0,3.07,1.85,4.88,4.66,4.88a5,5,0,0,0,2.08-.32v-3.61h-2.45v-1.25h4Z"/><path class="cls-5" d="M395.87,259.91a2.79,2.79,0,0,0,3,3,5.75,5.75,0,0,0,2.41-.45l.27,1.13a7.08,7.08,0,0,1-2.89.54,4,4,0,0,1-4.27-4.38c0-2.62,1.54-4.68,4.07-4.68,2.84,0,3.59,2.49,3.59,4.09,0,.32,0,.57,0,.73Zm4.63-1.13a2.24,2.24,0,0,0-2.18-2.56,2.62,2.62,0,0,0-2.43,2.56Z"/><path class="cls-5" d="M404,251.23h1.58V264H404Z"/><path class="cls-2" d="M291.94,278a3.93,3.93,0,0,0,2,.57c1.14,0,1.81-.6,1.81-1.48s-.47-1.26-1.63-1.71c-1.41-.5-2.28-1.23-2.28-2.45s1.11-2.35,2.79-2.35a3.89,3.89,0,0,1,1.91.43l-.31.91a3.37,3.37,0,0,0-1.64-.41c-1.18,0-1.63.7-1.63,1.29,0,.81.53,1.21,1.72,1.67,1.46.56,2.21,1.27,2.21,2.53s-1,2.49-3,2.49a4.43,4.43,0,0,1-2.2-.55Z"/><path class="cls-2" d="M299.69,271.37v1.78h1.62V274h-1.62v3.34c0,.77.22,1.21.85,1.21a2.41,2.41,0,0,0,.65-.08l.06.85a2.8,2.8,0,0,1-1,.15A1.59,1.59,0,0,1,299,279a2.33,2.33,0,0,1-.44-1.62V274h-1v-.86h1v-1.49Z"/><path class="cls-2" d="M302.58,275.08c0-.73,0-1.35-.05-1.93h1l0,1.22h.05a1.87,1.87,0,0,1,1.72-1.36,1,1,0,0,1,.32,0v1.06a2,2,0,0,0-.38,0,1.57,1.57,0,0,0-1.51,1.45,2.67,2.67,0,0,0-.06.53v3.3h-1.11Z"/><path class="cls-2" d="M307.27,276.46a2,2,0,0,0,2.13,2.15,4.1,4.1,0,0,0,1.72-.32l.19.81a5.07,5.07,0,0,1-2.07.38,2.88,2.88,0,0,1-3.05-3.13c0-1.87,1.11-3.34,2.91-3.34a2.63,2.63,0,0,1,2.57,2.92,5,5,0,0,1,0,.53Zm3.31-.81a1.61,1.61,0,0,0-1.57-1.83,1.87,1.87,0,0,0-1.73,1.83Z"/><path class="cls-2" d="M313.06,274.83c0-.64,0-1.17-.05-1.68h1l.07,1h0a2.29,2.29,0,0,1,2-1.17c.86,0,2.2.51,2.2,2.64v3.7h-1.13v-3.57c0-1-.37-1.84-1.44-1.84a1.6,1.6,0,0,0-1.51,1.16,1.62,1.62,0,0,0-.08.52v3.73h-1.13Z"/><path class="cls-2" d="M325.52,273.15c0,.45,0,1,0,1.7v3.61a3.58,3.58,0,0,1-.88,2.83,3.32,3.32,0,0,1-2.26.74,4,4,0,0,1-2.06-.51l.28-.86a3.46,3.46,0,0,0,1.82.49c1.15,0,2-.6,2-2.17v-.69h0a2.2,2.2,0,0,1-2,1,2.77,2.77,0,0,1-2.64-3c0-2.1,1.37-3.29,2.79-3.29a2.06,2.06,0,0,1,1.94,1.08h0l.05-.94Zm-1.16,2.45a1.72,1.72,0,0,0-.07-.52,1.62,1.62,0,0,0-1.57-1.19c-1.08,0-1.85.91-1.85,2.35,0,1.22.62,2.23,1.83,2.23a1.66,1.66,0,0,0,1.57-1.16,2.08,2.08,0,0,0,.09-.6Z"/><path class="cls-2" d="M328.7,271.37v1.78h1.62V274H328.7v3.34c0,.77.22,1.21.85,1.21a2.41,2.41,0,0,0,.65-.08l.05.85a2.72,2.72,0,0,1-1,.15A1.58,1.58,0,0,1,328,279a2.33,2.33,0,0,1-.44-1.62V274h-1v-.86h1v-1.49Z"/><path class="cls-2" d="M331.59,270.25h1.13v3.87h0a2.05,2.05,0,0,1,.81-.79,2.33,2.33,0,0,1,1.15-.32c.84,0,2.17.51,2.17,2.65v3.69h-1.13v-3.56c0-1-.37-1.85-1.43-1.85a1.64,1.64,0,0,0-1.52,1.13,1.48,1.48,0,0,0-.07.54v3.74h-1.13Z"/><path class="cls-2" d="M341.33,278.06a3.82,3.82,0,0,0,1.85.52c1.45,0,1.89-.92,1.88-1.61,0-1.17-1.06-1.67-2.15-1.67h-.63v-.84h.63c.82,0,1.86-.43,1.86-1.41,0-.67-.43-1.26-1.46-1.26a3.12,3.12,0,0,0-1.67.55l-.3-.82a4,4,0,0,1,2.18-.64c1.64,0,2.39,1,2.39,2a2.07,2.07,0,0,1-1.54,2v0a2.18,2.18,0,0,1,1.86,2.14c0,1.34-1,2.5-3,2.5a4.23,4.23,0,0,1-2.17-.56Z"/><path class="cls-2" d="M352.39,271.82a3.64,3.64,0,0,0-.84.05,3.38,3.38,0,0,0-2.9,3h0a2.54,2.54,0,0,1,4.52,1.73,2.78,2.78,0,0,1-2.76,2.93c-1.79,0-2.95-1.38-2.95-3.55a5.23,5.23,0,0,1,1.41-3.75,4.52,4.52,0,0,1,2.66-1.23,5.86,5.86,0,0,1,.82-.07Zm-.32,4.8a1.69,1.69,0,0,0-1.71-1.91,1.87,1.87,0,0,0-1.62,1,.92.92,0,0,0-.13.5c0,1.37.66,2.38,1.84,2.38C351.42,278.62,352.07,277.81,352.07,276.62Z"/><path class="cls-2" d="M354.3,278.69a.76.76,0,0,1,.77-.81.81.81,0,1,1-.77.81Z"/><path class="cls-2" d="M357.14,278.06a3.81,3.81,0,0,0,1.84.52c1.45,0,1.9-.92,1.89-1.61,0-1.17-1.07-1.67-2.16-1.67h-.62v-.84h.62c.82,0,1.86-.43,1.86-1.41,0-.67-.42-1.26-1.46-1.26a3.12,3.12,0,0,0-1.67.55l-.29-.82a4,4,0,0,1,2.18-.64c1.64,0,2.38,1,2.38,2a2.06,2.06,0,0,1-1.54,2v0A2.18,2.18,0,0,1,362,277c0,1.34-1,2.5-3,2.5a4.23,4.23,0,0,1-2.17-.56Z"/><path class="cls-2" d="M363.44,279.35v-.69l.89-.86c2.13-2,3.09-3.1,3.1-4.36a1.48,1.48,0,0,0-1.65-1.62,2.82,2.82,0,0,0-1.77.7l-.36-.79a3.66,3.66,0,0,1,2.36-.85,2.35,2.35,0,0,1,2.55,2.42c0,1.54-1.12,2.78-2.87,4.48l-.67.61v0h3.74v.93Z"/><path class="cls-2" d="M291.94,293.38a4,4,0,0,0,2,.56c1.14,0,1.81-.6,1.81-1.47s-.47-1.27-1.63-1.72c-1.41-.5-2.28-1.23-2.28-2.45S293,286,294.63,286a3.91,3.91,0,0,1,1.91.42l-.31.91a3.48,3.48,0,0,0-1.64-.41c-1.18,0-1.63.7-1.63,1.29,0,.81.53,1.21,1.72,1.67,1.46.56,2.21,1.27,2.21,2.54s-1,2.48-3,2.48a4.43,4.43,0,0,1-2.2-.55Z"/><path class="cls-2" d="M304.05,291.58a3,3,0,0,1-3.09,3.3,3,3,0,0,1-3-3.2,3,3,0,0,1,3.08-3.29A2.94,2.94,0,0,1,304.05,291.58Zm-4.92.07c0,1.36.78,2.38,1.88,2.38s1.89-1,1.89-2.41c0-1.05-.53-2.38-1.86-2.38S299.13,290.47,299.13,291.65Z"/><path class="cls-2" d="M305.59,294.74v-5.35h-.87v-.86h.87v-.29a2.92,2.92,0,0,1,.72-2.17,2.16,2.16,0,0,1,1.51-.58,2.6,2.6,0,0,1,1,.18l-.15.88a1.65,1.65,0,0,0-.72-.15c-1,0-1.2.85-1.2,1.8v.33h1.5v.86h-1.5v5.35Z"/><path class="cls-2" d="M310.72,286.75v1.78h1.61v.86h-1.61v3.35c0,.77.22,1.2.84,1.2a2.44,2.44,0,0,0,.66-.08l0,.85a2.76,2.76,0,0,1-1,.15,1.55,1.55,0,0,1-1.22-.47,2.3,2.3,0,0,1-.43-1.62v-3.38h-1v-.86h1v-1.48Z"/><path class="cls-2" d="M313.6,290.21c0-.64,0-1.17-.05-1.68h1l.07,1h0a2.29,2.29,0,0,1,2.05-1.17c.86,0,2.19.51,2.19,2.64v3.71h-1.12v-3.58c0-1-.38-1.83-1.44-1.83a1.6,1.6,0,0,0-1.51,1.15,1.64,1.64,0,0,0-.08.53v3.73H313.6Z"/><path class="cls-2" d="M321.35,291.84a2,2,0,0,0,2.12,2.15,4.06,4.06,0,0,0,1.72-.32l.19.81a5,5,0,0,1-2.06.38,2.88,2.88,0,0,1-3.05-3.12c0-1.88,1.1-3.35,2.91-3.35a2.63,2.63,0,0,1,2.56,2.92,3.26,3.26,0,0,1,0,.53Zm3.3-.81a1.59,1.59,0,0,0-1.56-1.83,1.87,1.87,0,0,0-1.73,1.83Z"/><path class="cls-2" d="M327,293.58a2.91,2.91,0,0,0,1.48.45c.82,0,1.21-.41,1.21-.92s-.32-.84-1.16-1.14c-1.11-.4-1.64-1-1.64-1.76a1.91,1.91,0,0,1,2.14-1.82,3.07,3.07,0,0,1,1.53.39l-.28.82a2.37,2.37,0,0,0-1.27-.36c-.67,0-1,.38-1,.84s.37.75,1.18,1.05c1.08.41,1.63.95,1.63,1.88s-.85,1.85-2.32,1.85a3.54,3.54,0,0,1-1.75-.42Z"/><path class="cls-2" d="M332.06,293.58a3,3,0,0,0,1.49.45c.82,0,1.2-.41,1.2-.92s-.32-.84-1.15-1.14c-1.11-.4-1.64-1-1.64-1.76a1.91,1.91,0,0,1,2.14-1.82,3.07,3.07,0,0,1,1.53.39l-.29.82a2.33,2.33,0,0,0-1.26-.36c-.67,0-1,.38-1,.84s.37.75,1.18,1.05c1.07.41,1.62.95,1.62,1.88s-.84,1.85-2.32,1.85a3.5,3.5,0,0,1-1.74-.42Z"/><path class="cls-2" d="M337,289.56a.77.77,0,1,1,1.53,0,.77.77,0,1,1-1.53,0Zm0,4.52a.77.77,0,1,1,1.53,0,.77.77,0,1,1-1.53,0Z"/><path class="cls-2" d="M347.28,287.35H344.1l-.32,2.14a5.31,5.31,0,0,1,.68-.05,3.48,3.48,0,0,1,1.79.45,2.37,2.37,0,0,1,1.2,2.14,2.9,2.9,0,0,1-3.11,2.85,4,4,0,0,1-2.07-.52l.28-.85a3.75,3.75,0,0,0,1.78.46,1.84,1.84,0,0,0,2-1.81c0-1.08-.73-1.85-2.39-1.85a8.42,8.42,0,0,0-1.16.09l.54-4h4Z"/><path class="cls-2" d="M349,294.07a.76.76,0,0,1,.77-.81.81.81,0,0,1,0,1.62A.76.76,0,0,1,349,294.07Z"/><path class="cls-2" d="M351.43,292.62a2.39,2.39,0,0,1,1.66-2.23l0,0a2.06,2.06,0,0,1-1.32-1.87,2.34,2.34,0,0,1,2.58-2.22,2.16,2.16,0,0,1,2.42,2.05,2.1,2.1,0,0,1-1.37,1.95v0a2.31,2.31,0,0,1,1.68,2.15,2.57,2.57,0,0,1-2.83,2.43C352.48,294.88,351.43,293.84,351.43,292.62Zm4.49-.05c0-1-.71-1.5-1.83-1.82a1.8,1.8,0,0,0-1.5,1.72,1.54,1.54,0,0,0,1.66,1.59A1.51,1.51,0,0,0,355.92,292.57Zm-3.1-4.17c0,.84.62,1.29,1.59,1.54a1.63,1.63,0,0,0,1.26-1.51,1.29,1.29,0,0,0-1.41-1.36A1.32,1.32,0,0,0,352.82,288.4Z"/><path class="cls-2" d="M363.65,290.48c0,2.83-1,4.4-2.9,4.4-1.63,0-2.73-1.53-2.75-4.28s1.2-4.34,2.89-4.34S363.65,287.83,363.65,290.48Zm-4.53.13c0,2.16.67,3.4,1.7,3.4s1.7-1.35,1.7-3.48-.52-3.39-1.69-3.39C359.84,287.14,359.12,288.34,359.12,290.61Z"/><path class="cls-2" d="M369.66,287.35h-3.18l-.32,2.14a5.31,5.31,0,0,1,.68-.05,3.54,3.54,0,0,1,1.8.45,2.38,2.38,0,0,1,1.19,2.14,2.9,2.9,0,0,1-3.1,2.85,4.06,4.06,0,0,1-2.08-.52l.28-.85a3.82,3.82,0,0,0,1.78.46,1.85,1.85,0,0,0,2-1.81c0-1.08-.73-1.85-2.4-1.85a8.26,8.26,0,0,0-1.15.09l.53-4h4Z"/><path class="cls-2" d="M13,388.05a6.07,6.07,0,0,0,.85-3c0-1.73-.91-2.74-2.23-2.74S9.7,383,9,384.75c-.76,2.13-1.87,3.45-3.71,3.45-2,0-3.55-1.69-3.55-4.23a5.93,5.93,0,0,1,.64-2.89l1.38.46A5.15,5.15,0,0,0,3.16,384c0,1.78,1.06,2.46,2,2.46,1.22,0,1.82-.79,2.52-2.6.85-2.21,1.92-3.34,3.84-3.34s3.77,1.5,3.77,4.59a6.69,6.69,0,0,1-.84,3.33Z"/><path class="cls-2" d="M3,376.29h2.7v-2.45H7v2.45H12c1.16,0,1.82-.33,1.82-1.28a3.8,3.8,0,0,0-.12-1l1.28-.07a4,4,0,0,1,.24,1.51,2.4,2.4,0,0,1-.72,1.85,3.52,3.52,0,0,1-2.45.65H7v1.46H5.66V378H3.41Z"/><path class="cls-2" d="M8.59,371.92c-1.11,0-2.06,0-2.93.08v-1.5l1.84-.06v-.07a2.82,2.82,0,0,1-2-2.6,1.85,1.85,0,0,1,0-.49H7.11a3.3,3.3,0,0,0-.05.58,2.39,2.39,0,0,0,2.19,2.29,4.58,4.58,0,0,0,.79.08h5v1.69Z"/><path class="cls-2" d="M10.67,364.8a3,3,0,0,0,3.26-3.22,6.16,6.16,0,0,0-.49-2.6l1.22-.3a7.49,7.49,0,0,1,.59,3.13,4.37,4.37,0,0,1-4.74,4.62c-2.83,0-5.06-1.67-5.06-4.41,0-3.06,2.69-3.88,4.42-3.88a6.41,6.41,0,0,1,.8.06Zm-1.23-5a2.43,2.43,0,0,0-2.77,2.37,2.83,2.83,0,0,0,2.77,2.62Z"/><path class="cls-2" d="M8.2,356c-1,0-1.76,0-2.54.07v-1.51l1.55-.1v0a3.47,3.47,0,0,1-1.76-3.11c0-1.3.77-3.32,4-3.32h5.61v1.71H9.64c-1.52,0-2.78.56-2.78,2.17a2.43,2.43,0,0,0,1.75,2.29,2.34,2.34,0,0,0,.79.12h5.65V356Z"/><path class="cls-2" d="M5.66,337.16c.68,0,1.43.08,2.58.08h5.45c2.16,0,3.48.43,4.29,1.34A5,5,0,0,1,19.11,342a6,6,0,0,1-.78,3.12l-1.3-.43a5.27,5.27,0,0,0,.74-2.75c0-1.75-.91-3-3.28-3H13.44v0a3.33,3.33,0,0,1,1.57,3c0,2.33-2,4-4.58,4-3.18,0-5-2.08-5-4.23a3.14,3.14,0,0,1,1.63-2.94v0l-1.42-.08Zm3.71,1.77a2.34,2.34,0,0,0-.78.1,2.46,2.46,0,0,0-1.81,2.38c0,1.63,1.38,2.8,3.56,2.8,1.84,0,3.37-.93,3.37-2.78A2.49,2.49,0,0,0,12,339.07a2.89,2.89,0,0,0-.92-.14Z"/><path class="cls-2" d="M3,332.35h2.7v-2.44H7v2.44H12c1.16,0,1.82-.33,1.82-1.28a3.65,3.65,0,0,0-.12-1L15,330a4.11,4.11,0,0,1,.24,1.52,2.39,2.39,0,0,1-.72,1.84,3.47,3.47,0,0,1-2.45.66H7v1.46H5.66V334H3.41Z"/><path class="cls-2" d="M1.27,328v-1.71H7.13v0A3.2,3.2,0,0,1,5.93,325a3.55,3.55,0,0,1-.48-1.75c0-1.26.77-3.28,4-3.28h5.59v1.71H9.66c-1.52,0-2.8.56-2.8,2.17a2.45,2.45,0,0,0,1.71,2.29,2,2,0,0,0,.81.12h5.67V328Z"/><path class="cls-2" d="M1.58,309.4a12.85,12.85,0,0,0,7.94,2.44,13.12,13.12,0,0,0,7.88-2.44v1.33a12.49,12.49,0,0,1-7.88,2.55,12.78,12.78,0,0,1-7.94-2.55Z"/><path class="cls-2" d="M14.47,297.81a12.24,12.24,0,0,1,.72,4,6.73,6.73,0,0,1-1.73,4.89,6.75,6.75,0,0,1-4.87,1.82c-3.9,0-6.76-2.7-6.76-7.08a8,8,0,0,1,.61-3.26l1.37.4a6.84,6.84,0,0,0-.56,2.9,4.89,4.89,0,0,0,5.26,5.26c3.32,0,5.28-2,5.28-5.05a5.39,5.39,0,0,0-.35-2.25H9.54v2.66H8.18v-4.31Z"/><path class="cls-2" d="M10.67,294.24A3,3,0,0,0,13.93,291a6.2,6.2,0,0,0-.49-2.6l1.22-.29a7.43,7.43,0,0,1,.59,3.12,4.37,4.37,0,0,1-4.74,4.62c-2.83,0-5.06-1.67-5.06-4.41,0-3.06,2.69-3.88,4.42-3.88a6.41,6.41,0,0,1,.8.06Zm-1.23-5a2.43,2.43,0,0,0-2.77,2.37,2.82,2.82,0,0,0,2.77,2.62Z"/><path class="cls-2" d="M1.27,285.47v-1.71H15.05v1.71Z"/><path class="cls-2" d="M2,276.72v-7.05H3.39V275H7.74v-4.95H9.13V275h5.92v1.69Z"/><path class="cls-2" d="M8.59,267.81c-1.11,0-2.06,0-2.93.08v-1.5l1.84-.05v-.08a2.82,2.82,0,0,1-2-2.6,1.85,1.85,0,0,1,0-.49H7.11a3.3,3.3,0,0,0-.05.58A2.39,2.39,0,0,0,9.25,266a4.58,4.58,0,0,0,.79.08h5v1.69Z"/><path class="cls-2" d="M15.05,256.34l-1.18.14v0a3.52,3.52,0,0,1,1.4,2.88,2.68,2.68,0,0,1-2.7,2.87c-2.27,0-3.51-2-3.5-5.65H8.88a1.93,1.93,0,0,0-2.17,2.14,4.64,4.64,0,0,0,.7,2.44l-1.13.39a5.88,5.88,0,0,1-.83-3.09c0-2.87,2-3.57,3.84-3.57H12.8a13.9,13.9,0,0,0,2.25-.15Zm-4.79.25c0,1.87.29,4,2.11,4A1.51,1.51,0,0,0,14,259a2.33,2.33,0,0,0-1.57-2.27,1.71,1.71,0,0,0-.54-.1Z"/><path class="cls-2" d="M14.7,245.49a6.2,6.2,0,0,1,.55,2.7,4.47,4.47,0,0,1-4.8,4.68,4.78,4.78,0,0,1-5-5.05A5.77,5.77,0,0,1,6,245.45l1.32.39a4,4,0,0,0-.45,2,3.25,3.25,0,0,0,3.55,3.32,3.22,3.22,0,0,0,3.52-3.26,4.79,4.79,0,0,0-.47-2.1Z"/><path class="cls-2" d="M3,241.19h2.7v-2.45H7v2.45H12c1.16,0,1.82-.33,1.82-1.29a3.63,3.63,0,0,0-.12-1l1.28-.08a4,4,0,0,1,.24,1.51,2.36,2.36,0,0,1-.72,1.84,3.47,3.47,0,0,1-2.45.66H7v1.46H5.66v-1.46H3.41Z"/><path class="cls-2" d="M12.49,229c1,0,1.83,0,2.56-.08v1.52l-1.53.09v0a3.54,3.54,0,0,1,1.75,3.11c0,1.47-.82,3.24-4.12,3.24H5.66v-1.71h5.2c1.79,0,3-.54,3-2.1a2.48,2.48,0,0,0-1.55-2.25,2.75,2.75,0,0,0-.88-.15H5.66V229Z"/><path class="cls-2" d="M8.59,226.13c-1.11,0-2.06,0-2.93.07v-1.49l1.84-.06v-.08a2.8,2.8,0,0,1-2-2.6,1.77,1.77,0,0,1,0-.48H7.11a3.21,3.21,0,0,0-.05.58,2.39,2.39,0,0,0,2.19,2.29,4.58,4.58,0,0,0,.79.08h5v1.69Z"/><path class="cls-2" d="M10.67,219a3,3,0,0,0,3.26-3.22,6.2,6.2,0,0,0-.49-2.6l1.22-.29a7.45,7.45,0,0,1,.59,3.13,4.37,4.37,0,0,1-4.74,4.62c-2.83,0-5.06-1.67-5.06-4.41,0-3.07,2.69-3.88,4.42-3.88a6.41,6.41,0,0,1,.8.06Zm-1.23-5c-1.08,0-2.77.44-2.77,2.37A2.84,2.84,0,0,0,9.44,219Z"/><path class="cls-2" d="M17.4,211.28a13.11,13.11,0,0,0-7.94-2.44,12.92,12.92,0,0,0-7.88,2.44V210a12.38,12.38,0,0,1,7.9-2.54A12.6,12.6,0,0,1,17.4,210Z"/><path class="cls-2" d="M0,196.71a13.58,13.58,0,0,0,8.41,2.58,13.71,13.71,0,0,0,8.3-2.58v1.41a13.18,13.18,0,0,1-8.32,2.69A13.53,13.53,0,0,1,0,198.12Z"/><path class="cls-2" d="M15.05,175.38H7v1.32H5.66v-1.32H5.21a4.42,4.42,0,0,1-3.28-1.09A3.26,3.26,0,0,1,1.06,172a3.85,3.85,0,0,1,.27-1.45l1.32.23a2.5,2.5,0,0,0-.21,1.09c0,1.45,1.28,1.82,2.71,1.82h.51v-2.27H7v2.27h8.09Zm0,15c-.64,0-1.59-.08-2.42-.08H1.27v-1.69h5.9v0a3.48,3.48,0,0,1-1.72-3.2c0-2.33,1.94-4,4.79-4,3.36,0,5,2.12,5,4.21a3.36,3.36,0,0,1-1.77,3.15v.06l1.55.07Zm-13.78,4.5v-1.71H15.05v1.71Zm4.58-17.56h.93v3H5.85Zm5.44,11.29a4.2,4.2,0,0,0,.62-.07,2.64,2.64,0,0,0,2-2.57c0-1.78-1.46-2.85-3.61-2.85-1.89,0-3.5,1-3.5,2.8a2.73,2.73,0,0,0,2.1,2.6,4.14,4.14,0,0,0,.7.09Z"/><path class="cls-2" d="M17.4,168.92a13.11,13.11,0,0,0-7.94-2.45,12.86,12.86,0,0,0-7.88,2.45V167.6a12.32,12.32,0,0,1,7.9-2.55,12.54,12.54,0,0,1,7.92,2.55Z"/><path class="cls-2" d="M25.26,449v-1.69H36.92v-5.59h1.42V449Z"/><path class="cls-2" d="M34,439.24A3,3,0,0,0,37.21,436a6.18,6.18,0,0,0-.48-2.6l1.22-.3a7.73,7.73,0,0,1,.58,3.13,4.36,4.36,0,0,1-4.73,4.62c-2.84,0-5.07-1.67-5.07-4.41,0-3.06,2.7-3.88,4.43-3.88a6.06,6.06,0,0,1,.79.06Zm-1.22-5c-1.09,0-2.77.45-2.77,2.37a2.83,2.83,0,0,0,2.77,2.62Z"/><path class="cls-2" d="M38.34,425.26l-1.18.14v.06a3.5,3.5,0,0,1,1.39,2.87,2.67,2.67,0,0,1-2.69,2.87c-2.28,0-3.52-2-3.5-5.64h-.19A1.94,1.94,0,0,0,30,427.69a4.74,4.74,0,0,0,.7,2.45l-1.12.39a5.82,5.82,0,0,1-.84-3.09c0-2.87,2-3.57,3.85-3.57h3.51a12.86,12.86,0,0,0,2.25-.16Zm-4.79.26c0,1.86.29,4,2.11,4a1.51,1.51,0,0,0,1.63-1.61,2.34,2.34,0,0,0-1.57-2.28,2.1,2.1,0,0,0-.54-.09Z"/><path class="cls-2" d="M36.59,421.35a4.51,4.51,0,0,0,.68-2.26c0-1.24-.62-1.82-1.4-1.82s-1.26.49-1.72,1.75c-.6,1.69-1.54,2.48-2.66,2.48-1.52,0-2.76-1.22-2.76-3.24a4.69,4.69,0,0,1,.58-2.31l1.25.43A3.59,3.59,0,0,0,30,418.3c0,1,.59,1.57,1.28,1.57s1.13-.56,1.6-1.78c.62-1.63,1.43-2.47,2.83-2.47,1.65,0,2.81,1.28,2.81,3.51a5.34,5.34,0,0,1-.64,2.64Z"/><path class="cls-2" d="M26.25,411.37H29v-2.44h1.3v2.44h5.06c1.17,0,1.83-.33,1.83-1.28a3.65,3.65,0,0,0-.12-1L38.3,409a4.14,4.14,0,0,1,.23,1.52,2.39,2.39,0,0,1-.71,1.84,3.47,3.47,0,0,1-2.45.66H30.25v1.46H29V413H26.69Z"/><path class="cls-2" d="M25.43,402.83a17.93,17.93,0,0,1-.27-3.24,5.32,5.32,0,0,1,1.07-3.78,3.24,3.24,0,0,1,2.48-1,3.43,3.43,0,0,1,3.34,2.46h.06a3.26,3.26,0,0,1,2.64-1.92,19.68,19.68,0,0,0,3.59-1v1.75a17.34,17.34,0,0,1-3.13.87c-1.8.39-2.48,1.09-2.54,2.62v1.6h5.67v1.68Zm6-1.68v-1.73c0-1.81-1-2.95-2.48-2.95-1.69,0-2.43,1.22-2.45,3a6.84,6.84,0,0,0,.16,1.67Z"/><path class="cls-2" d="M34,391.42a3,3,0,0,0,3.26-3.22,6.22,6.22,0,0,0-.48-2.6l1.22-.29a7.63,7.63,0,0,1,.58,3.12,4.36,4.36,0,0,1-4.73,4.62c-2.84,0-5.07-1.67-5.07-4.4,0-3.07,2.7-3.88,4.43-3.88a6.48,6.48,0,0,1,.79.05Zm-1.22-5c-1.09,0-2.77.44-2.77,2.36a2.82,2.82,0,0,0,2.77,2.62Z"/><path class="cls-2" d="M36.59,382.89a4.51,4.51,0,0,0,.68-2.26c0-1.24-.62-1.82-1.4-1.82s-1.26.48-1.72,1.75c-.6,1.68-1.54,2.48-2.66,2.48-1.52,0-2.76-1.22-2.76-3.24a4.69,4.69,0,0,1,.58-2.31l1.25.43a3.56,3.56,0,0,0-.55,1.92c0,1,.59,1.57,1.28,1.57s1.13-.56,1.6-1.79c.62-1.63,1.43-2.46,2.83-2.46,1.65,0,2.81,1.28,2.81,3.51a5.34,5.34,0,0,1-.64,2.64Z"/><path class="cls-2" d="M26.31,373.07a1,1,0,0,1,1,1.08,1,1,0,0,1-1,1,1,1,0,0,1-1.07-1.07A1,1,0,0,1,26.31,373.07Zm12,1.9H29v-1.71h9.39Z"/><path class="cls-2" d="M36.59,370.66a4.47,4.47,0,0,0,.68-2.25c0-1.24-.62-1.83-1.4-1.83s-1.26.49-1.72,1.75c-.6,1.69-1.54,2.48-2.66,2.48-1.52,0-2.76-1.22-2.76-3.24a4.72,4.72,0,0,1,.58-2.31l1.25.43a3.59,3.59,0,0,0-.55,1.92c0,1,.59,1.57,1.28,1.57s1.13-.56,1.6-1.78c.62-1.63,1.43-2.47,2.83-2.47,1.65,0,2.81,1.29,2.81,3.52a5.34,5.34,0,0,1-.64,2.64Z"/><path class="cls-2" d="M26.25,360.68H29v-2.44h1.3v2.44h5.06c1.17,0,1.83-.33,1.83-1.28a3.77,3.77,0,0,0-.12-1l1.28-.07a4.08,4.08,0,0,1,.23,1.51,2.36,2.36,0,0,1-.71,1.84,3.47,3.47,0,0,1-2.45.66H30.25v1.46H29v-1.46H26.69Z"/><path class="cls-2" d="M38.34,351.12l-1.18.13v.06a3.52,3.52,0,0,1,1.39,2.87,2.68,2.68,0,0,1-2.69,2.88c-2.28,0-3.52-2-3.5-5.65h-.19A1.94,1.94,0,0,0,30,353.54a4.74,4.74,0,0,0,.7,2.45l-1.12.39a5.79,5.79,0,0,1-.84-3.09c0-2.87,2-3.57,3.85-3.57h3.51a12.86,12.86,0,0,0,2.25-.16Zm-4.79.25c0,1.86.29,4,2.11,4a1.51,1.51,0,0,0,1.63-1.61,2.32,2.32,0,0,0-1.57-2.27,1.77,1.77,0,0,0-.54-.1Z"/><path class="cls-2" d="M31.49,347c-1,0-1.77,0-2.54.07v-1.51l1.55-.1v0a3.45,3.45,0,0,1-1.77-3.1c0-1.3.78-3.32,4-3.32h5.61v1.71H32.92c-1.51,0-2.77.56-2.77,2.17a2.43,2.43,0,0,0,1.75,2.29,2.34,2.34,0,0,0,.79.12h5.65V347Z"/><path class="cls-2" d="M26.25,334.22H29v-2.45h1.3v2.45h5.06c1.17,0,1.83-.33,1.83-1.29a3.77,3.77,0,0,0-.12-1l1.28-.07a4.08,4.08,0,0,1,.23,1.51,2.39,2.39,0,0,1-.71,1.85,3.52,3.52,0,0,1-2.45.66H30.25v1.45H29v-1.45H26.69Z"/><path class="cls-2" d="M32.59,207.69c-1.82.1-4,.22-5.64.2V208c1.53.44,3.16,1,5,1.65l6.34,2.31v1.28L32,215.3c-1.84.62-3.53,1.15-5.08,1.52v0c1.63,0,3.82.13,5.78.25l5.61.35v1.61l-13.08-.91V216l6.33-2.23c1.61-.54,3-1,4.4-1.32v-.06c-1.32-.33-2.75-.79-4.4-1.38l-6.33-2.33v-2.15l13.08-.81v1.64Z"/><path class="cls-2" d="M33.57,194.56a4.58,4.58,0,0,1,5,4.68c0,2.54-1.86,4.5-4.83,4.5-3.14,0-5-2.06-5-4.66S30.69,194.56,33.57,194.56Zm.09,7.45c2.06,0,3.61-1.18,3.61-2.85s-1.53-2.86-3.65-2.86c-1.59,0-3.61.8-3.61,2.82S31.88,202,33.66,202Z"/><path class="cls-2" d="M36.59,192.64a4.5,4.5,0,0,0,.68-2.25c0-1.25-.62-1.83-1.4-1.83s-1.26.49-1.72,1.75c-.6,1.69-1.54,2.48-2.66,2.48-1.52,0-2.76-1.22-2.76-3.24a4.72,4.72,0,0,1,.58-2.31l1.25.43a3.59,3.59,0,0,0-.55,1.92c0,1,.59,1.57,1.28,1.57s1.13-.56,1.6-1.78c.62-1.63,1.43-2.47,2.83-2.47,1.65,0,2.81,1.28,2.81,3.52a5.36,5.36,0,0,1-.64,2.64Z"/><path class="cls-2" d="M26.25,182.66H29v-2.44h1.3v2.44h5.06c1.17,0,1.83-.33,1.83-1.28a3.77,3.77,0,0,0-.12-1l1.28-.08a4.14,4.14,0,0,1,.23,1.52,2.39,2.39,0,0,1-.71,1.84,3.47,3.47,0,0,1-2.45.66H30.25v1.46H29v-1.46H26.69Z"/><path class="cls-2" d="M25.43,174.13a18.13,18.13,0,0,1-.27-3.25,5.32,5.32,0,0,1,1.07-3.78,3.24,3.24,0,0,1,2.48-1,3.43,3.43,0,0,1,3.34,2.47h.06a3.28,3.28,0,0,1,2.64-1.93,19.68,19.68,0,0,0,3.59-1v1.75a16.5,16.5,0,0,1-3.13.87c-1.8.39-2.48,1.09-2.54,2.62v1.6h5.67v1.69Zm6-1.69v-1.73c0-1.81-1-3-2.48-3-1.69,0-2.43,1.22-2.45,3a6.78,6.78,0,0,0,.16,1.67Z"/><path class="cls-2" d="M34,162.72a3,3,0,0,0,3.26-3.23,6.22,6.22,0,0,0-.48-2.6L38,156.6a7.65,7.65,0,0,1,.58,3.13c0,2.89-1.9,4.61-4.73,4.61s-5.07-1.66-5.07-4.4c0-3.07,2.7-3.88,4.43-3.88a6.06,6.06,0,0,1,.79.06Zm-1.22-5c-1.09,0-2.77.44-2.77,2.37a2.84,2.84,0,0,0,2.77,2.62Z"/><path class="cls-2" d="M36.59,154.18a4.5,4.5,0,0,0,.68-2.25c0-1.25-.62-1.83-1.4-1.83s-1.26.49-1.72,1.75c-.6,1.69-1.54,2.48-2.66,2.48-1.52,0-2.76-1.22-2.76-3.24a4.69,4.69,0,0,1,.58-2.31l1.25.43a3.59,3.59,0,0,0-.55,1.92c0,1,.59,1.57,1.28,1.57s1.13-.56,1.6-1.78c.62-1.63,1.43-2.47,2.83-2.47,1.65,0,2.81,1.28,2.81,3.51a5.34,5.34,0,0,1-.64,2.64Z"/><path class="cls-2" d="M26.31,144.36a1.06,1.06,0,0,1,0,2.11,1,1,0,0,1-1.07-1.06A1,1,0,0,1,26.31,144.36Zm12,1.9H29v-1.71h9.39Z"/><path class="cls-2" d="M36.59,142a4.47,4.47,0,0,0,.68-2.25c0-1.24-.62-1.82-1.4-1.82s-1.26.48-1.72,1.74c-.6,1.69-1.54,2.49-2.66,2.49-1.52,0-2.76-1.23-2.76-3.25a4.65,4.65,0,0,1,.58-2.3l1.25.42A3.59,3.59,0,0,0,30,138.9c0,1,.59,1.58,1.28,1.58s1.13-.57,1.6-1.79c.62-1.63,1.43-2.46,2.83-2.46,1.65,0,2.81,1.28,2.81,3.51a5.34,5.34,0,0,1-.64,2.64Z"/><path class="cls-2" d="M26.25,132H29v-2.45h1.3V132h5.06c1.17,0,1.83-.33,1.83-1.29a3.63,3.63,0,0,0-.12-1l1.28-.08a4.08,4.08,0,0,1,.23,1.51,2.39,2.39,0,0,1-.71,1.85,3.52,3.52,0,0,1-2.45.66H30.25v1.45H29v-1.45H26.69Z"/><path class="cls-2" d="M38.34,122.41l-1.18.14v0a3.54,3.54,0,0,1,1.39,2.88,2.67,2.67,0,0,1-2.69,2.87c-2.28,0-3.52-2-3.5-5.65h-.19A1.94,1.94,0,0,0,30,124.84a4.74,4.74,0,0,0,.7,2.44l-1.12.39a5.79,5.79,0,0,1-.84-3.09c0-2.87,2-3.57,3.85-3.57h3.51a14,14,0,0,0,2.25-.15Zm-4.79.25c0,1.86.29,4,2.11,4A1.51,1.51,0,0,0,37.29,125a2.33,2.33,0,0,0-1.57-2.27,1.77,1.77,0,0,0-.54-.1Z"/><path class="cls-2" d="M31.49,118.26c-1,0-1.77,0-2.54.08v-1.52l1.55-.1v0a3.45,3.45,0,0,1-1.77-3.1c0-1.3.78-3.32,4-3.32h5.61V112H32.92c-1.51,0-2.77.56-2.77,2.17a2.43,2.43,0,0,0,1.75,2.29,2.34,2.34,0,0,0,.79.12h5.65v1.71Z"/><path class="cls-2" d="M26.25,105.51H29v-2.45h1.3v2.45h5.06c1.17,0,1.83-.33,1.83-1.28a3.65,3.65,0,0,0-.12-1l1.28-.08a4.08,4.08,0,0,1,.23,1.51,2.39,2.39,0,0,1-.71,1.85,3.52,3.52,0,0,1-2.45.66H30.25v1.45H29v-1.45H26.69Z"/><line class="cls-6" x1="33.03" y1="309.59" x2="33.03" y2="250.7"/><polygon class="cls-2" points="33.03 241.65 38.24 254.4 33.03 251.38 27.82 254.4 33.03 241.65"/><polyline class="cls-7" points="617.52 530.73 95.85 530.73 95.21 530.73 95.21 9.05"/><polygon class="cls-5" points="626.58 530.73 613.82 525.52 616.85 530.73 613.82 535.94 626.58 530.73"/><polygon class="cls-5" points="95.2 0 100.42 12.75 95.2 9.73 90 12.75 95.2 0"/><path class="cls-3" d="M413.77,125a9,9,0,1,1-9-9,9,9,0,0,1,9,9"/><line class="cls-8" x1="281.73" y1="251.9" x2="404.16" y2="129.48"/><path class="cls-4" d="M398.39,331.39a9,9,0,1,1-9-9,9,9,0,0,1,9,9"/><path class="cls-4" d="M503.51,266a9,9,0,1,1-9-9,9,9,0,0,1,9,9"/><path class="cls-2" d="M511.66,264.83l-1,3H509.4l3.23-9.51h1.48l3.24,9.51H516l-1-3Zm3.11-1-.93-2.74c-.21-.62-.35-1.18-.49-1.73h0c-.14.56-.29,1.14-.48,1.72l-.93,2.75Z"/><path class="cls-2" d="M518.68,257.8h1.24v10h-1.24Z"/><path class="cls-2" d="M522,257.8h1.24v10H522Z"/><path class="cls-2" d="M526,264.63a2.19,2.19,0,0,0,2.34,2.37,4.63,4.63,0,0,0,1.89-.35l.21.88a5.45,5.45,0,0,1-2.27.43,3.17,3.17,0,0,1-3.36-3.44c0-2.06,1.22-3.68,3.2-3.68,2.23,0,2.82,2,2.82,3.21a3.91,3.91,0,0,1,0,.58Zm3.64-.89a1.78,1.78,0,0,0-1.72-2,2.06,2.06,0,0,0-1.91,2Z"/><path class="cls-2" d="M532.4,263.12c0-.8,0-1.49,0-2.13h1.08l0,1.34h.06a2,2,0,0,1,1.89-1.49,1.25,1.25,0,0,1,.35,0v1.17a1.76,1.76,0,0,0-.42,0,1.74,1.74,0,0,0-1.67,1.59,4.83,4.83,0,0,0,0,.58v3.64H532.4Z"/><path class="cls-2" d="M542.79,261c0,.5,0,1.05,0,1.88v4c0,1.56-.31,2.52-1,3.11a3.61,3.61,0,0,1-2.48.82,4.49,4.49,0,0,1-2.27-.56l.31-.95a3.79,3.79,0,0,0,2,.54c1.26,0,2.19-.66,2.19-2.38v-.76h0a2.45,2.45,0,0,1-2.17,1.14,3.05,3.05,0,0,1-2.91-3.33c0-2.31,1.51-3.62,3.07-3.62a2.26,2.26,0,0,1,2.13,1.18h0l.06-1Zm-1.28,2.69a1.66,1.66,0,0,0-.07-.56,1.79,1.79,0,0,0-1.73-1.31c-1.19,0-2,1-2,2.58,0,1.34.67,2.45,2,2.45a1.82,1.82,0,0,0,1.72-1.27,2.16,2.16,0,0,0,.1-.66Z"/><path class="cls-2" d="M548.58,267.82l-.1-.86h-.05a2.54,2.54,0,0,1-2.08,1,2,2,0,0,1-2.09-2c0-1.65,1.47-2.55,4.1-2.54v-.14a1.41,1.41,0,0,0-1.55-1.58,3.39,3.39,0,0,0-1.77.51l-.29-.82a4.34,4.34,0,0,1,2.25-.6c2.08,0,2.59,1.42,2.59,2.79v2.55a10.24,10.24,0,0,0,.11,1.64Zm-.19-3.49c-1.35,0-2.89.21-2.89,1.54a1.1,1.1,0,0,0,1.17,1.18,1.7,1.7,0,0,0,1.65-1.14,1.34,1.34,0,0,0,.07-.39Z"/><path class="cls-2" d="M551.59,262.84c0-.71,0-1.28-.05-1.85h1.1l.07,1.13h0a2.48,2.48,0,0,1,2.25-1.28c1,0,2.41.56,2.41,2.9v4.08h-1.24v-3.94c0-1.1-.41-2-1.58-2a1.75,1.75,0,0,0-1.66,1.27,1.62,1.62,0,0,0-.09.57v4.11h-1.24Z"/><path class="cls-2" d="M569.09,267.51a6.17,6.17,0,0,1-2.51.45,4.44,4.44,0,0,1-4.69-4.81,4.72,4.72,0,0,1,5-5,5.16,5.16,0,0,1,2.26.42l-.3,1a4.59,4.59,0,0,0-1.92-.39c-2.22,0-3.71,1.42-3.71,3.92,0,2.32,1.34,3.82,3.66,3.82a4.94,4.94,0,0,0,2-.4Z"/><path class="cls-2" d="M576.62,264.35a3.34,3.34,0,0,1-3.4,3.62,3.25,3.25,0,0,1-3.27-3.51,3.34,3.34,0,0,1,3.39-3.62A3.23,3.23,0,0,1,576.62,264.35Zm-5.41.07c0,1.49.86,2.62,2.07,2.62s2.07-1.11,2.07-2.65c0-1.16-.57-2.62-2-2.62S571.21,263.12,571.21,264.42Z"/><path class="cls-2" d="M578.19,257.8h1.24v4.26h0a2.2,2.2,0,0,1,.89-.87,2.53,2.53,0,0,1,1.26-.35c.92,0,2.39.56,2.39,2.92v4.06h-1.24V263.9c0-1.1-.41-2-1.58-2a1.78,1.78,0,0,0-1.67,1.24,1.51,1.51,0,0,0-.08.59v4.12h-1.24Z"/><path class="cls-2" d="M586.71,264.63a2.18,2.18,0,0,0,2.34,2.37,4.66,4.66,0,0,0,1.89-.35l.21.88a5.49,5.49,0,0,1-2.27.43,3.17,3.17,0,0,1-3.36-3.44c0-2.06,1.21-3.68,3.2-3.68,2.23,0,2.82,2,2.82,3.21,0,.25,0,.45,0,.58Zm3.63-.89a1.76,1.76,0,0,0-1.72-2,2.06,2.06,0,0,0-1.9,2Z"/><path class="cls-2" d="M592.91,266.55a3.28,3.28,0,0,0,1.64.49c.9,0,1.32-.45,1.32-1s-.35-.91-1.27-1.25c-1.22-.44-1.8-1.11-1.8-1.93a2.1,2.1,0,0,1,2.35-2,3.37,3.37,0,0,1,1.68.42l-.31.9a2.66,2.66,0,0,0-1.4-.39c-.73,0-1.14.42-1.14.93s.41.82,1.3,1.15c1.18.45,1.79,1,1.79,2.06,0,1.2-.93,2-2.55,2a3.92,3.92,0,0,1-1.92-.47Z"/><path class="cls-2" d="M600.05,259.07a.77.77,0,1,1-1.54,0,.75.75,0,0,1,.77-.77A.74.74,0,0,1,600.05,259.07Zm-1.39,8.75V261h1.24v6.83Z"/><path class="cls-2" d="M602.44,261l1.34,3.84a15.83,15.83,0,0,1,.55,1.75h0c.16-.57.36-1.13.58-1.75l1.33-3.84h1.3l-2.68,6.83h-1.19L601.12,261Z"/><path class="cls-2" d="M609.31,264.63a2.19,2.19,0,0,0,2.34,2.37,4.63,4.63,0,0,0,1.89-.35l.21.88a5.45,5.45,0,0,1-2.27.43,3.16,3.16,0,0,1-3.35-3.44c0-2.06,1.21-3.68,3.2-3.68,2.22,0,2.82,2,2.82,3.21a3.66,3.66,0,0,1,0,.58Zm3.64-.89a1.78,1.78,0,0,0-1.72-2,2.06,2.06,0,0,0-1.91,2Z"/><path class="cls-2" d="M509.79,279.41a3.53,3.53,0,0,0,1.8.51c1,0,1.62-.54,1.62-1.33s-.41-1.14-1.46-1.54c-1.27-.45-2.05-1.11-2.05-2.21a2.23,2.23,0,0,1,2.51-2.11,3.61,3.61,0,0,1,1.72.38l-.28.82a3,3,0,0,0-1.47-.37c-1.06,0-1.47.64-1.47,1.17,0,.73.47,1.08,1.55,1.5,1.31.51,2,1.14,2,2.28s-.89,2.24-2.72,2.24a4,4,0,0,1-2-.5Z"/><path class="cls-2" d="M516.78,273.45v1.6h1.45v.77h-1.45v3c0,.69.2,1.08.76,1.08a2,2,0,0,0,.59-.07l0,.76a2.52,2.52,0,0,1-.9.14,1.39,1.39,0,0,1-1.1-.43,2,2,0,0,1-.39-1.45v-3.05h-.87v-.77h.87v-1.34Z"/><path class="cls-2" d="M519.38,276.79c0-.65,0-1.22,0-1.74h.89l0,1.1h0a1.66,1.66,0,0,1,1.54-1.22,1.23,1.23,0,0,1,.29,0v1a1.13,1.13,0,0,0-.34,0,1.41,1.41,0,0,0-1.36,1.31,2.19,2.19,0,0,0,0,.47v3h-1Z"/><path class="cls-2" d="M523.61,278a1.79,1.79,0,0,0,1.92,1.94,3.68,3.68,0,0,0,1.54-.29l.17.72a4.3,4.3,0,0,1-1.85.35,2.59,2.59,0,0,1-2.75-2.81c0-1.69,1-3,2.62-3a2.36,2.36,0,0,1,2.31,2.62,4.14,4.14,0,0,1,0,.48Zm3-.73a1.45,1.45,0,0,0-1.41-1.65,1.68,1.68,0,0,0-1.56,1.65Z"/><path class="cls-2" d="M528.83,276.56c0-.57,0-1.05-.05-1.51h.9l.06.92h0a2.05,2.05,0,0,1,1.85-1c.77,0,2,.46,2,2.37v3.34h-1v-3.22c0-.9-.33-1.65-1.29-1.65a1.44,1.44,0,0,0-1.36,1,1.39,1.39,0,0,0-.07.48v3.36h-1Z"/><path class="cls-2" d="M540,275.05c0,.41,0,.86,0,1.54v3.24a3.23,3.23,0,0,1-.79,2.55,3,3,0,0,1-2,.67,3.61,3.61,0,0,1-1.86-.47l.25-.77a3.17,3.17,0,0,0,1.64.44c1,0,1.8-.54,1.8-1.95v-.62h0a2,2,0,0,1-1.78.93,2.5,2.5,0,0,1-2.38-2.72,2.68,2.68,0,0,1,2.52-3,1.85,1.85,0,0,1,1.74,1h0l0-.84Zm-1,2.21a1.38,1.38,0,0,0-.06-.47,1.47,1.47,0,0,0-1.42-1.07c-1,0-1.66.82-1.66,2.11,0,1.1.55,2,1.65,2a1.49,1.49,0,0,0,1.41-1,1.68,1.68,0,0,0,.08-.54Z"/><path class="cls-2" d="M542.9,273.45v1.6h1.45v.77H542.9v3c0,.69.2,1.08.76,1.08a2,2,0,0,0,.59-.07l0,.76a2.52,2.52,0,0,1-.9.14,1.39,1.39,0,0,1-1.1-.43,2,2,0,0,1-.39-1.45v-3.05H541v-.77h.87v-1.34Z"/><path class="cls-2" d="M545.5,272.44h1v3.49h0a1.91,1.91,0,0,1,.72-.72,2.12,2.12,0,0,1,1-.28c.75,0,2,.46,2,2.38v3.33h-1v-3.21c0-.9-.33-1.66-1.29-1.66a1.47,1.47,0,0,0-1.36,1,1.21,1.21,0,0,0-.07.49v3.37h-1Z"/><path class="cls-2" d="M554.27,279.47a3.39,3.39,0,0,0,1.66.47c1.3,0,1.7-.83,1.69-1.45,0-1.05-1-1.5-1.94-1.5h-.56v-.76h.56c.74,0,1.68-.38,1.68-1.27,0-.6-.38-1.13-1.32-1.13a2.7,2.7,0,0,0-1.5.5l-.26-.74a3.53,3.53,0,0,1,2-.58c1.47,0,2.14.88,2.14,1.79a1.85,1.85,0,0,1-1.38,1.76v0a1.94,1.94,0,0,1,1.67,1.92c0,1.2-.93,2.25-2.73,2.25a3.74,3.74,0,0,1-2-.51Z"/><path class="cls-2" d="M564.22,273.85a3.53,3.53,0,0,0-.76,0,3.05,3.05,0,0,0-2.61,2.66h0a2.29,2.29,0,0,1,4.07,1.56,2.51,2.51,0,0,1-2.49,2.64c-1.61,0-2.66-1.24-2.66-3.19a4.75,4.75,0,0,1,1.27-3.38,4.1,4.1,0,0,1,2.4-1.11,4.51,4.51,0,0,1,.74-.06Zm-.29,4.33a1.52,1.52,0,0,0-1.54-1.72,1.69,1.69,0,0,0-1.46.92.88.88,0,0,0-.11.45c0,1.24.59,2.15,1.65,2.15C563.34,280,563.93,279.25,563.93,278.18Z"/><path class="cls-2" d="M565.94,280a.68.68,0,0,1,.69-.73.73.73,0,0,1,0,1.45A.68.68,0,0,1,565.94,280Z"/><path class="cls-2" d="M568.25,280.64V280l.79-.77c1.92-1.82,2.78-2.79,2.8-3.92a1.34,1.34,0,0,0-1.49-1.47,2.53,2.53,0,0,0-1.59.64l-.33-.72a3.29,3.29,0,0,1,2.13-.76,2.11,2.11,0,0,1,2.29,2.18c0,1.38-1,2.5-2.58,4l-.6.55v0H573v.85Z"/><path class="cls-2" d="M579,273.14v.67l-3.26,6.83h-1L578,274v0H574.3v-.84Z"/><path class="cls-2" d="M509.79,292.23a3.53,3.53,0,0,0,1.8.51c1,0,1.62-.54,1.62-1.33s-.41-1.14-1.46-1.54c-1.27-.45-2.05-1.11-2.05-2.21a2.23,2.23,0,0,1,2.51-2.11,3.61,3.61,0,0,1,1.72.38l-.28.82a3,3,0,0,0-1.47-.37c-1.06,0-1.47.64-1.47,1.17,0,.72.47,1.08,1.55,1.5,1.31.5,2,1.14,2,2.28s-.89,2.24-2.72,2.24a4,4,0,0,1-2-.5Z"/><path class="cls-2" d="M520.69,290.62a2.73,2.73,0,0,1-2.78,3,2.66,2.66,0,0,1-2.68-2.87,2.73,2.73,0,0,1,2.77-3A2.65,2.65,0,0,1,520.69,290.62Zm-4.43.05c0,1.23.7,2.15,1.7,2.15s1.69-.91,1.69-2.17c0-.95-.47-2.15-1.67-2.15S516.26,289.61,516.26,290.67Z"/><path class="cls-2" d="M522.08,293.45v-4.81h-.79v-.77h.79v-.27a2.61,2.61,0,0,1,.64-1.94,1.94,1.94,0,0,1,1.36-.52,2.41,2.41,0,0,1,.87.16l-.14.78a1.53,1.53,0,0,0-.65-.12c-.86,0-1.08.76-1.08,1.61v.3h1.35v.77h-1.35v4.81Z"/><path class="cls-2" d="M526.69,286.27v1.6h1.45v.77h-1.45v3c0,.7.2,1.09.76,1.09a2.48,2.48,0,0,0,.59-.07l.05.76a2.52,2.52,0,0,1-.9.14,1.39,1.39,0,0,1-1.1-.43,2,2,0,0,1-.39-1.45v-3.05h-.87v-.77h.87v-1.34Z"/><path class="cls-2" d="M529.29,289.38c0-.58,0-1.05,0-1.51h.9l.06.92h0a2.06,2.06,0,0,1,1.85-1.05c.77,0,2,.46,2,2.38v3.33h-1v-3.22c0-.89-.33-1.64-1.29-1.64a1.44,1.44,0,0,0-1.36,1,1.68,1.68,0,0,0-.07.48v3.35h-1Z"/><path class="cls-2" d="M536.26,290.85a1.78,1.78,0,0,0,1.91,1.93,3.72,3.72,0,0,0,1.55-.28l.17.72a4.55,4.55,0,0,1-1.86.35,2.59,2.59,0,0,1-2.74-2.82,2.71,2.71,0,0,1,2.62-3,2.36,2.36,0,0,1,2.3,2.63,4.64,4.64,0,0,1,0,.48Zm3-.73a1.44,1.44,0,0,0-1.41-1.65,1.68,1.68,0,0,0-1.55,1.65Z"/><path class="cls-2" d="M541.33,292.42a2.72,2.72,0,0,0,1.34.4c.74,0,1.08-.37,1.08-.83s-.28-.75-1-1c-1-.36-1.48-.91-1.48-1.58a1.73,1.73,0,0,1,1.93-1.64,2.73,2.73,0,0,1,1.37.35l-.25.74a2.18,2.18,0,0,0-1.15-.33c-.6,0-.93.35-.93.77s.33.66,1.06.94c1,.37,1.47.86,1.47,1.69,0,1-.77,1.67-2.09,1.67a3.19,3.19,0,0,1-1.57-.38Z"/><path class="cls-2" d="M545.9,292.42a2.72,2.72,0,0,0,1.34.4c.74,0,1.08-.37,1.08-.83s-.28-.75-1-1c-1-.36-1.48-.91-1.48-1.58a1.73,1.73,0,0,1,1.93-1.64,2.73,2.73,0,0,1,1.37.35l-.26.74a2.14,2.14,0,0,0-1.14-.33c-.6,0-.93.35-.93.77s.33.66,1.06.94c1,.37,1.46.86,1.46,1.69,0,1-.76,1.67-2.08,1.67a3.17,3.17,0,0,1-1.57-.38Z"/><path class="cls-2" d="M550.37,288.79a.69.69,0,1,1,.68.72A.68.68,0,0,1,550.37,288.79Zm0,4.08a.69.69,0,1,1,.68.71A.67.67,0,0,1,550.37,292.87Z"/><path class="cls-2" d="M555.36,292.29a3.46,3.46,0,0,0,1.66.47c1.31,0,1.71-.83,1.7-1.45,0-1.05-1-1.5-1.94-1.5h-.57v-.76h.57c.74,0,1.67-.38,1.67-1.27,0-.6-.38-1.13-1.31-1.13a2.75,2.75,0,0,0-1.5.49l-.27-.73a3.56,3.56,0,0,1,2-.58c1.48,0,2.15.88,2.15,1.79a1.85,1.85,0,0,1-1.39,1.76v0a2,2,0,0,1,1.68,1.93c0,1.2-.94,2.25-2.74,2.25a3.84,3.84,0,0,1-1.95-.51Z"/><path class="cls-2" d="M561.12,292.85a.68.68,0,0,1,.69-.72.73.73,0,0,1,0,1.45A.68.68,0,0,1,561.12,292.85Z"/><path class="cls-2" d="M563.43,293.45v-.62l.79-.77c1.92-1.83,2.78-2.79,2.79-3.92a1.34,1.34,0,0,0-1.48-1.47,2.61,2.61,0,0,0-1.6.63l-.32-.71a3.29,3.29,0,0,1,2.12-.76A2.11,2.11,0,0,1,568,288c0,1.38-1,2.5-2.59,4l-.6.56v0h3.37v.84Z"/><path class="cls-2" d="M572.48,293.45v-2H569v-.67l3.34-4.78h1.1v4.66h1v.79h-1v2Zm0-2.83v-2.51c0-.39,0-.78,0-1.17h0c-.23.43-.41.76-.62,1.1L570,290.59v0Z"/><path class="cls-2" d="M575.26,293.45v-.62l.8-.77c1.91-1.83,2.78-2.79,2.79-3.92a1.34,1.34,0,0,0-1.49-1.47,2.61,2.61,0,0,0-1.59.63l-.32-.71a3.29,3.29,0,0,1,2.12-.76,2.11,2.11,0,0,1,2.3,2.18c0,1.38-1,2.5-2.59,4l-.6.56v0h3.37v.84Z"/><path class="cls-2" d="M120.66,425.07l-1,3h-1.27l3.23-9.5h1.48l3.24,9.5h-1.31l-1-3Zm3.12-1-.93-2.73c-.21-.62-.35-1.19-.5-1.74h0c-.14.57-.3,1.14-.48,1.72l-.93,2.75Z"/><path class="cls-2" d="M127.67,418.05h1.24v10h-1.24Z"/><path class="cls-2" d="M131,418.05h1.24v10H131Z"/><path class="cls-2" d="M135,424.87a2.19,2.19,0,0,0,2.34,2.37,4.47,4.47,0,0,0,1.89-.35l.21.89a5.7,5.7,0,0,1-2.27.42,3.17,3.17,0,0,1-3.36-3.44c0-2.06,1.22-3.68,3.2-3.68,2.23,0,2.82,2,2.82,3.22a3.65,3.65,0,0,1,0,.57Zm3.64-.88a1.78,1.78,0,0,0-1.72-2,2.06,2.06,0,0,0-1.91,2Z"/><path class="cls-2" d="M141.39,423.36c0-.8,0-1.49-.06-2.12h1.09l0,1.34h.06a2.05,2.05,0,0,1,1.89-1.5,1.25,1.25,0,0,1,.35,0v1.17a1.76,1.76,0,0,0-.42,0,1.74,1.74,0,0,0-1.67,1.59,4.83,4.83,0,0,0,0,.58v3.64h-1.23Z"/><path class="cls-2" d="M151.78,421.24c0,.49-.05,1-.05,1.87v4c0,1.57-.31,2.53-1,3.12a3.61,3.61,0,0,1-2.48.82,4.39,4.39,0,0,1-2.27-.57l.31-.94a3.89,3.89,0,0,0,2,.53c1.26,0,2.19-.66,2.19-2.38v-.76h0a2.45,2.45,0,0,1-2.17,1.14,3.05,3.05,0,0,1-2.91-3.33c0-2.31,1.51-3.62,3.07-3.62a2.26,2.26,0,0,1,2.13,1.18h0l.06-1Zm-1.28,2.69a1.72,1.72,0,0,0-.07-.57,1.8,1.8,0,0,0-1.73-1.31c-1.19,0-2,1-2,2.58,0,1.34.67,2.46,2,2.46a1.82,1.82,0,0,0,1.72-1.27,2.16,2.16,0,0,0,.1-.66Z"/><path class="cls-2" d="M157.56,428.06l-.09-.86h-.05a2.52,2.52,0,0,1-2.08,1,2,2,0,0,1-2.09-2c0-1.65,1.47-2.56,4.1-2.54v-.14A1.4,1.4,0,0,0,155.8,422a3.3,3.3,0,0,0-1.77.51l-.29-.82a4.25,4.25,0,0,1,2.25-.61c2.08,0,2.59,1.43,2.59,2.79v2.55a10.16,10.16,0,0,0,.11,1.64Zm-.18-3.48c-1.35,0-2.89.21-2.89,1.53a1.1,1.1,0,0,0,1.17,1.19,1.71,1.71,0,0,0,1.65-1.14,1.4,1.4,0,0,0,.07-.4Z"/><path class="cls-2" d="M160.58,423.08c0-.7,0-1.28-.05-1.84h1.1l.07,1.12h0a2.5,2.5,0,0,1,2.25-1.28c1,0,2.41.56,2.41,2.91v4.07h-1.24v-3.93c0-1.1-.41-2-1.58-2a1.76,1.76,0,0,0-1.66,1.27,1.68,1.68,0,0,0-.09.58v4.1h-1.24Z"/><path class="cls-2" d="M171.44,418.68a13.49,13.49,0,0,1,2.36-.19,3.89,3.89,0,0,1,2.74.77,2.36,2.36,0,0,1,.75,1.81,2.5,2.5,0,0,1-1.79,2.42v0a2.4,2.4,0,0,1,1.4,1.92,15,15,0,0,0,.73,2.61h-1.27a13.3,13.3,0,0,1-.63-2.27c-.28-1.31-.79-1.8-1.91-1.85h-1.15v4.12h-1.23Zm1.23,4.33h1.25c1.31,0,2.15-.72,2.15-1.8s-.89-1.76-2.19-1.78a5.48,5.48,0,0,0-1.21.11Z"/><path class="cls-2" d="M179.72,424.87a2.19,2.19,0,0,0,2.34,2.37,4.47,4.47,0,0,0,1.89-.35l.21.89a5.66,5.66,0,0,1-2.27.42,3.17,3.17,0,0,1-3.36-3.44c0-2.06,1.22-3.68,3.2-3.68,2.23,0,2.82,2,2.82,3.22a3.65,3.65,0,0,1,0,.57Zm3.64-.88a1.78,1.78,0,0,0-1.72-2,2.06,2.06,0,0,0-1.91,2Z"/><path class="cls-2" d="M185.92,426.79a3.28,3.28,0,0,0,1.64.49c.9,0,1.32-.45,1.32-1s-.35-.92-1.26-1.26c-1.23-.43-1.81-1.11-1.81-1.93a2.11,2.11,0,0,1,2.36-2,3.44,3.44,0,0,1,1.67.42l-.31.91a2.61,2.61,0,0,0-1.39-.4c-.74,0-1.14.42-1.14.93s.4.82,1.29,1.16c1.19.45,1.79,1,1.79,2.06,0,1.19-.93,2-2.55,2a3.92,3.92,0,0,1-1.92-.46Z"/><path class="cls-2" d="M191.68,423.46c0-.87,0-1.58-.06-2.22h1.11l.06,1.17h0a2.67,2.67,0,0,1,2.42-1.33c1.65,0,2.89,1.4,2.89,3.47,0,2.45-1.49,3.67-3.1,3.67a2.4,2.4,0,0,1-2.1-1.08h0v3.71h-1.22Zm1.22,1.82a2.55,2.55,0,0,0,.06.51,1.91,1.91,0,0,0,1.86,1.45c1.31,0,2.07-1.07,2.07-2.63,0-1.37-.72-2.54-2-2.54A2,2,0,0,0,193,423.6a2.18,2.18,0,0,0-.09.51Z"/><path class="cls-2" d="M205.88,424.59a3.34,3.34,0,0,1-3.4,3.63,3.25,3.25,0,0,1-3.27-3.52,3.33,3.33,0,0,1,3.38-3.62A3.24,3.24,0,0,1,205.88,424.59Zm-5.42.07c0,1.5.86,2.62,2.07,2.62s2.08-1.11,2.08-2.65c0-1.15-.58-2.62-2.05-2.62S200.46,423.36,200.46,424.66Z"/><path class="cls-2" d="M207.44,423.08c0-.7,0-1.28-.05-1.84h1.1l.07,1.12h0a2.53,2.53,0,0,1,2.26-1.28c.94,0,2.41.56,2.41,2.91v4.07H212v-3.93c0-1.1-.41-2-1.58-2a1.76,1.76,0,0,0-1.66,1.27,1.68,1.68,0,0,0-.09.58v4.1h-1.24Z"/><path class="cls-2" d="M215.1,426.79a3.24,3.24,0,0,0,1.63.49c.91,0,1.33-.45,1.33-1s-.35-.92-1.27-1.26c-1.23-.43-1.8-1.11-1.8-1.93a2.1,2.1,0,0,1,2.35-2,3.48,3.48,0,0,1,1.68.42l-.31.91a2.65,2.65,0,0,0-1.4-.4c-.73,0-1.14.42-1.14.93s.41.82,1.3,1.16c1.18.45,1.79,1,1.79,2.06,0,1.19-.93,2-2.55,2a3.92,3.92,0,0,1-1.92-.46Z"/><path class="cls-2" d="M222.23,419.32a.73.73,0,0,1-.79.76.74.74,0,0,1-.74-.76.75.75,0,0,1,.77-.78A.73.73,0,0,1,222.23,419.32Zm-1.38,8.74v-6.82h1.24v6.82Z"/><path class="cls-2" d="M224.63,421.24l1.34,3.83a16.52,16.52,0,0,1,.55,1.75h0c.16-.56.36-1.13.58-1.75l1.33-3.83h1.29l-2.68,6.82H225.9l-2.59-6.82Z"/><path class="cls-2" d="M231.48,424.87a2.19,2.19,0,0,0,2.34,2.37,4.43,4.43,0,0,0,1.89-.35l.22.89a5.7,5.7,0,0,1-2.27.42,3.17,3.17,0,0,1-3.36-3.44c0-2.06,1.21-3.68,3.2-3.68,2.23,0,2.82,2,2.82,3.22a5.55,5.55,0,0,1,0,.57Zm3.64-.88a1.76,1.76,0,0,0-1.72-2,2.06,2.06,0,0,0-1.9,2Z"/><path class="cls-2" d="M118.79,439.66a3.63,3.63,0,0,0,1.8.5c1,0,1.63-.54,1.63-1.32s-.42-1.14-1.47-1.55c-1.27-.45-2-1.11-2-2.2a2.23,2.23,0,0,1,2.51-2.11,3.47,3.47,0,0,1,1.72.38l-.27.82a3.13,3.13,0,0,0-1.48-.37c-1.06,0-1.46.63-1.46,1.16,0,.73.47,1.09,1.54,1.5,1.32.51,2,1.14,2,2.29s-.89,2.23-2.73,2.23a4,4,0,0,1-2-.49Z"/><path class="cls-2" d="M125.78,433.69v1.61h1.46v.77h-1.46v3c0,.69.2,1.08.77,1.08a2,2,0,0,0,.58-.07l.05.77a2.56,2.56,0,0,1-.9.13,1.45,1.45,0,0,1-1.1-.42,2.13,2.13,0,0,1-.39-1.46v-3h-.86v-.77h.86V434Z"/><path class="cls-2" d="M128.38,437c0-.66,0-1.23,0-1.74h.89l0,1.09h0a1.68,1.68,0,0,1,1.55-1.22,1.36,1.36,0,0,1,.29,0v1a1.83,1.83,0,0,0-.35,0,1.43,1.43,0,0,0-1.36,1.3,3.23,3.23,0,0,0-.05.47v3h-1Z"/><path class="cls-2" d="M132.6,438.27a1.8,1.8,0,0,0,1.92,1.94,3.68,3.68,0,0,0,1.54-.29l.18.73a4.59,4.59,0,0,1-1.86.34,2.59,2.59,0,0,1-2.75-2.81,2.72,2.72,0,0,1,2.62-3,2.37,2.37,0,0,1,2.31,2.63,2.47,2.47,0,0,1,0,.47Zm3-.72a1.45,1.45,0,0,0-1.41-1.65,1.68,1.68,0,0,0-1.56,1.65Z"/><path class="cls-2" d="M137.82,436.81c0-.58,0-1.05,0-1.51h.9l.06.92h0a2.06,2.06,0,0,1,1.85-1.05c.77,0,2,.46,2,2.38v3.33h-1v-3.22c0-.9-.34-1.65-1.3-1.65a1.44,1.44,0,0,0-1.36,1,1.66,1.66,0,0,0-.07.47v3.36h-1Z"/><path class="cls-2" d="M149,435.3c0,.4,0,.85,0,1.53v3.24a3.21,3.21,0,0,1-.8,2.55,3,3,0,0,1-2,.67,3.61,3.61,0,0,1-1.86-.46l.26-.77a3.11,3.11,0,0,0,1.63.43c1,0,1.8-.54,1.8-1.95v-.62h0a2,2,0,0,1-1.78.94,2.5,2.5,0,0,1-2.37-2.73,2.67,2.67,0,0,1,2.51-3,1.85,1.85,0,0,1,1.74,1h0l0-.84ZM148,437.5a1.35,1.35,0,0,0-.06-.46A1.45,1.45,0,0,0,146.5,436c-1,0-1.66.81-1.66,2.11,0,1.09.56,2,1.65,2a1.48,1.48,0,0,0,1.41-1,1.75,1.75,0,0,0,.08-.55Z"/><path class="cls-2" d="M151.89,433.69v1.61h1.46v.77h-1.46v3c0,.69.2,1.08.76,1.08a2,2,0,0,0,.59-.07l0,.77a2.56,2.56,0,0,1-.9.13,1.45,1.45,0,0,1-1.1-.42,2.08,2.08,0,0,1-.39-1.46v-3H150v-.77h.86V434Z"/><path class="cls-2" d="M154.49,432.69h1v3.48h0a1.82,1.82,0,0,1,.72-.71,2,2,0,0,1,1-.29c.75,0,2,.46,2,2.39v3.32h-1v-3.21c0-.9-.34-1.66-1.3-1.66a1.47,1.47,0,0,0-1.36,1,1.32,1.32,0,0,0-.07.48v3.37h-1Z"/><path class="cls-2" d="M163,440.88v-.62l.79-.78c1.92-1.82,2.78-2.79,2.79-3.92a1.34,1.34,0,0,0-1.49-1.46,2.55,2.55,0,0,0-1.59.63l-.32-.71a3.29,3.29,0,0,1,2.12-.77,2.11,2.11,0,0,1,2.3,2.18c0,1.39-1,2.51-2.59,4l-.6.55v0h3.37v.84Z"/><path class="cls-2" d="M169.18,439.71a3.27,3.27,0,0,0,1.66.48c1.3,0,1.7-.83,1.69-1.46,0-1.05-.95-1.5-1.93-1.5H170v-.76h.57c.73,0,1.67-.38,1.67-1.27,0-.6-.38-1.13-1.32-1.13a2.78,2.78,0,0,0-1.5.5l-.26-.74a3.53,3.53,0,0,1,2-.58c1.48,0,2.14.88,2.14,1.79a1.87,1.87,0,0,1-1.38,1.77v0a2,2,0,0,1,1.67,1.93c0,1.2-.93,2.25-2.73,2.25a3.84,3.84,0,0,1-1.95-.51Z"/><path class="cls-2" d="M174.93,440.28a.69.69,0,0,1,.7-.73.68.68,0,0,1,.68.73.69.69,0,1,1-1.38,0Z"/><path class="cls-2" d="M182.22,437.05c0,2.55-.94,4-2.6,4-1.47,0-2.46-1.38-2.48-3.86s1.08-3.9,2.6-3.9S182.22,434.66,182.22,437.05Zm-4.07.11c0,1.95.6,3.06,1.52,3.06s1.54-1.21,1.54-3.13-.47-3-1.52-3C178.8,434,178.15,435.12,178.15,437.16Z"/><path class="cls-2" d="M187.44,434.1a3.45,3.45,0,0,0-.76,0,3.05,3.05,0,0,0-2.61,2.67h0a2.29,2.29,0,0,1,4.08,1.55,2.51,2.51,0,0,1-2.49,2.65c-1.61,0-2.66-1.25-2.66-3.2a4.7,4.7,0,0,1,1.27-3.38,4.1,4.1,0,0,1,2.4-1.11,5.58,5.58,0,0,1,.74-.05Zm-.29,4.32a1.53,1.53,0,0,0-1.55-1.72,1.66,1.66,0,0,0-1.45.93.83.83,0,0,0-.11.45c0,1.23.58,2.14,1.65,2.14C186.56,440.22,187.15,439.5,187.15,438.42Z"/><path class="cls-2" d="M118.79,452.47a3.53,3.53,0,0,0,1.8.51c1,0,1.63-.54,1.63-1.32s-.42-1.15-1.47-1.55c-1.27-.45-2-1.11-2-2.2a2.23,2.23,0,0,1,2.51-2.11,3.47,3.47,0,0,1,1.72.38l-.27.82a3.13,3.13,0,0,0-1.48-.37c-1.06,0-1.46.63-1.46,1.16,0,.73.47,1.09,1.54,1.5,1.32.51,2,1.14,2,2.29s-.89,2.23-2.73,2.23a4.06,4.06,0,0,1-2-.49Z"/><path class="cls-2" d="M129.69,450.86a2.72,2.72,0,0,1-2.78,3,2.65,2.65,0,0,1-2.67-2.87,2.72,2.72,0,0,1,2.77-3A2.64,2.64,0,0,1,129.69,450.86Zm-4.43.06c0,1.22.71,2.14,1.7,2.14s1.7-.91,1.7-2.17c0-.94-.48-2.14-1.68-2.14S125.26,449.86,125.26,450.92Z"/><path class="cls-2" d="M131.08,453.7v-4.81h-.78v-.78h.78v-.26a2.6,2.6,0,0,1,.65-2,1.92,1.92,0,0,1,1.36-.52,2.35,2.35,0,0,1,.86.16l-.14.79a1.46,1.46,0,0,0-.64-.13c-.87,0-1.09.76-1.09,1.61v.3h1.35v.78h-1.35v4.81Z"/><path class="cls-2" d="M135.69,446.51v1.6h1.46v.78h-1.46v3c0,.69.2,1.08.77,1.08a2,2,0,0,0,.58-.07l.05.76a2.32,2.32,0,0,1-.9.14,1.45,1.45,0,0,1-1.1-.42,2.13,2.13,0,0,1-.39-1.46v-3h-.86v-.78h.86v-1.33Z"/><path class="cls-2" d="M138.29,449.63c0-.58,0-1.05,0-1.52h.9l.06.93h0a2,2,0,0,1,1.84-1.05c.77,0,2,.46,2,2.37v3.34h-1v-3.22c0-.9-.34-1.65-1.29-1.65a1.45,1.45,0,0,0-1.37,1,1.63,1.63,0,0,0-.06.47v3.36h-1Z"/><path class="cls-2" d="M145.26,451.09a1.79,1.79,0,0,0,1.91,1.94,3.7,3.7,0,0,0,1.55-.29l.17.73a4.53,4.53,0,0,1-1.85.34,2.59,2.59,0,0,1-2.75-2.81c0-1.69,1-3,2.62-3a2.37,2.37,0,0,1,2.31,2.63,3.73,3.73,0,0,1,0,.47Zm3-.73a1.45,1.45,0,0,0-1.41-1.65,1.68,1.68,0,0,0-1.56,1.65Z"/><path class="cls-2" d="M150.34,452.66a2.61,2.61,0,0,0,1.33.4c.74,0,1.09-.37,1.09-.83s-.29-.75-1-1c-1-.36-1.48-.92-1.48-1.58a1.73,1.73,0,0,1,1.93-1.64,2.81,2.81,0,0,1,1.37.34l-.25.74a2.15,2.15,0,0,0-1.14-.32c-.6,0-.94.34-.94.76s.34.67,1.06.95c1,.37,1.47.85,1.47,1.68,0,1-.76,1.67-2.09,1.67a3.19,3.19,0,0,1-1.57-.38Z"/><path class="cls-2" d="M154.9,452.66a2.65,2.65,0,0,0,1.34.4c.74,0,1.09-.37,1.09-.83s-.29-.75-1-1c-1-.36-1.48-.92-1.48-1.58a1.73,1.73,0,0,1,1.93-1.64,2.84,2.84,0,0,1,1.37.34l-.25.74a2.18,2.18,0,0,0-1.14-.32c-.6,0-.94.34-.94.76s.34.67,1.06.95c1,.37,1.47.85,1.47,1.68,0,1-.76,1.67-2.09,1.67a3.19,3.19,0,0,1-1.57-.38Z"/><path class="cls-2" d="M159.37,449a.68.68,0,0,1,.69-.73.68.68,0,0,1,.68.73.67.67,0,0,1-.69.71A.68.68,0,0,1,159.37,449Zm0,4.07a.68.68,0,0,1,.69-.73.68.68,0,0,1,.68.73.67.67,0,0,1-.69.71A.68.68,0,0,1,159.37,453.11Z"/><path class="cls-2" d="M169,446.2v.67l-3.26,6.83h-1l3.25-6.64v0h-3.67v-.84Z"/><path class="cls-2" d="M170.12,453.1a.69.69,0,1,1,.68.72A.68.68,0,0,1,170.12,453.1Z"/><path class="cls-2" d="M175.57,453.7v-2h-3.49V451l3.35-4.79h1.09v4.66h1v.8h-1v2Zm0-2.84v-2.5c0-.4,0-.79,0-1.18h0c-.23.44-.42.76-.63,1.11l-1.83,2.55v0Z"/><path class="cls-2" d="M182.63,446.91a3.49,3.49,0,0,0-.76,0,3,3,0,0,0-2.61,2.67h0a2.29,2.29,0,0,1,4.08,1.55,2.51,2.51,0,0,1-2.5,2.64c-1.6,0-2.65-1.24-2.65-3.19a4.7,4.7,0,0,1,1.27-3.38,4.1,4.1,0,0,1,2.4-1.11,5.86,5.86,0,0,1,.74-.06Zm-.29,4.33a1.53,1.53,0,0,0-1.55-1.72,1.67,1.67,0,0,0-1.45.92.88.88,0,0,0-.11.45c0,1.24.58,2.15,1.64,2.15C181.75,453,182.34,452.31,182.34,451.24Z"/><path class="cls-2" d="M188.74,447.05h-2.86l-.29,1.93a4.53,4.53,0,0,1,.61-.05,3.15,3.15,0,0,1,1.62.41,2.12,2.12,0,0,1,1.07,1.92,2.59,2.59,0,0,1-2.79,2.56,3.69,3.69,0,0,1-1.87-.46l.26-.77a3.39,3.39,0,0,0,1.6.42,1.66,1.66,0,0,0,1.78-1.63c0-1-.66-1.66-2.16-1.66a7,7,0,0,0-1,.08l.48-3.6h3.59Z"/><path class="cls-2" d="M274.56,481.57c-.07-1.32-.16-2.91-.14-4.1h0c-.33,1.12-.72,2.3-1.2,3.61l-1.68,4.61h-.93L269,481.17c-.45-1.34-.83-2.57-1.1-3.7h0c0,1.19-.09,2.78-.18,4.2l-.25,4.08H266.3l.66-9.51h1.56l1.63,4.6c.39,1.17.71,2.21,1,3.2h0c.24-1,.58-2,1-3.2l1.69-4.6h1.56l.6,9.51h-1.2Z"/><path class="cls-2" d="M278.62,482.56a2.19,2.19,0,0,0,2.34,2.37,4.59,4.59,0,0,0,1.89-.35l.21.89a5.66,5.66,0,0,1-2.27.42,3.16,3.16,0,0,1-3.35-3.44c0-2.06,1.21-3.68,3.2-3.68,2.22,0,2.82,2,2.82,3.21a3.54,3.54,0,0,1,0,.58Zm3.64-.89a1.77,1.77,0,0,0-1.72-2,2,2,0,0,0-1.9,2Z"/><path class="cls-2" d="M285,480.77c0-.7,0-1.28-.06-1.85H286l.07,1.13h0a2.51,2.51,0,0,1,2.25-1.28c.95,0,2.41.56,2.41,2.9v4.08h-1.24v-3.94c0-1.1-.41-2-1.58-2a1.77,1.77,0,0,0-1.66,1.27,1.64,1.64,0,0,0-.08.57v4.11H285Z"/><path class="cls-2" d="M294.26,477v2H296v.95h-1.78v3.68c0,.84.24,1.32.93,1.32a3,3,0,0,0,.72-.08l0,.93a3,3,0,0,1-1.09.17,1.7,1.7,0,0,1-1.34-.52,2.51,2.51,0,0,1-.48-1.78v-3.72H292v-.95h1.06v-1.63Z"/><path class="cls-2" d="M303.54,482.28a3.34,3.34,0,0,1-3.4,3.62,3.24,3.24,0,0,1-3.27-3.51,3.33,3.33,0,0,1,3.38-3.62A3.23,3.23,0,0,1,303.54,482.28Zm-5.42.07c0,1.49.86,2.62,2.08,2.62s2.07-1.11,2.07-2.65c0-1.15-.58-2.62-2-2.62S298.12,481.05,298.12,482.35Z"/><path class="cls-2" d="M305.1,481.05c0-.8,0-1.49-.05-2.13h1.08l0,1.34h.06a2.05,2.05,0,0,1,1.89-1.49,1.25,1.25,0,0,1,.35,0V480a1.71,1.71,0,0,0-.42,0,1.74,1.74,0,0,0-1.66,1.59,3.34,3.34,0,0,0-.06.58v3.64H305.1Z"/><path class="cls-2" d="M320.75,481.57c-.07-1.32-.15-2.91-.14-4.1h0c-.32,1.12-.72,2.3-1.2,3.61l-1.67,4.61h-.94l-1.53-4.52c-.45-1.34-.83-2.57-1.1-3.7h0c0,1.19-.1,2.78-.18,4.2l-.26,4.08h-1.17l.67-9.51h1.56l1.62,4.6c.4,1.17.72,2.21,1,3.2h0c.24-1,.58-2,1-3.2l1.7-4.6h1.56l.59,9.51H321Z"/><path class="cls-2" d="M324.82,482.56a2.18,2.18,0,0,0,2.34,2.37,4.63,4.63,0,0,0,1.89-.35l.21.89a5.7,5.7,0,0,1-2.27.42,3.17,3.17,0,0,1-3.36-3.44c0-2.06,1.21-3.68,3.2-3.68,2.23,0,2.82,2,2.82,3.21a5.79,5.79,0,0,1,0,.58Zm3.63-.89a1.76,1.76,0,0,0-1.72-2,2.05,2.05,0,0,0-1.9,2Z"/><path class="cls-2" d="M331.19,480.77c0-.7,0-1.28-.06-1.85h1.09l.06,1.1h0a2.34,2.34,0,0,1,2.14-1.25,2,2,0,0,1,1.93,1.37h0a2.81,2.81,0,0,1,.76-.89,2.33,2.33,0,0,1,1.51-.48c.9,0,2.24.59,2.24,3v4h-1.21v-3.87c0-1.31-.48-2.1-1.48-2.1a1.62,1.62,0,0,0-1.47,1.13,2.31,2.31,0,0,0-.09.62v4.22h-1.22v-4.09c0-1.09-.48-1.88-1.42-1.88A1.7,1.7,0,0,0,332.5,481a1.77,1.77,0,0,0-.1.61v4.12h-1.21Z"/><path class="cls-2" d="M349.13,482.28a3.34,3.34,0,0,1-3.4,3.62,3.24,3.24,0,0,1-3.27-3.51,3.33,3.33,0,0,1,3.38-3.62A3.23,3.23,0,0,1,349.13,482.28Zm-5.42.07c0,1.49.86,2.62,2.08,2.62s2.07-1.11,2.07-2.65c0-1.15-.58-2.62-2.05-2.62S343.71,481.05,343.71,482.35Z"/><path class="cls-2" d="M350.69,481.05c0-.8,0-1.49-.05-2.13h1.08l0,1.34h.06a2.05,2.05,0,0,1,1.89-1.49,1.25,1.25,0,0,1,.35,0V480a1.71,1.71,0,0,0-.42,0,1.73,1.73,0,0,0-1.66,1.59,3.34,3.34,0,0,0-.06.58v3.64h-1.23Z"/><path class="cls-2" d="M356.11,478.92l1.49,4c.16.45.33,1,.44,1.39h0c.12-.41.27-.93.43-1.42l1.36-4h1.31l-1.86,4.87c-.89,2.34-1.5,3.54-2.34,4.27a3.35,3.35,0,0,1-1.52.8l-.32-1a3.28,3.28,0,0,0,1.09-.61,3.6,3.6,0,0,0,1-1.38.76.76,0,0,0,.1-.29,1.34,1.34,0,0,0-.08-.33l-2.53-6.29Z"/><path class="cls-2" d="M369.57,485.32a8.72,8.72,0,0,1-2.92.53,4.46,4.46,0,0,1-4.87-4.8,4.76,4.76,0,0,1,5.14-4.9,6,6,0,0,1,2.37.43l-.29,1a5.08,5.08,0,0,0-2.11-.4,3.55,3.55,0,0,0-3.82,3.82,3.48,3.48,0,0,0,3.67,3.83,4,4,0,0,0,1.63-.25v-2.84h-1.93v-1h3.13Z"/><path class="cls-2" d="M372.17,482.56a2.19,2.19,0,0,0,2.34,2.37,4.63,4.63,0,0,0,1.89-.35l.21.89a5.66,5.66,0,0,1-2.27.42,3.17,3.17,0,0,1-3.36-3.44c0-2.06,1.22-3.68,3.21-3.68,2.22,0,2.82,2,2.82,3.21a3.54,3.54,0,0,1-.05.58Zm3.64-.89a1.77,1.77,0,0,0-1.72-2,2.05,2.05,0,0,0-1.91,2Z"/><path class="cls-2" d="M378.54,475.74h1.24v10h-1.24Z"/><path class="cls-2" d="M266.22,497.34a3.51,3.51,0,0,0,1.8.51c1,0,1.62-.54,1.62-1.32s-.41-1.15-1.46-1.55c-1.27-.45-2.06-1.11-2.06-2.2a2.24,2.24,0,0,1,2.52-2.11,3.49,3.49,0,0,1,1.72.38l-.28.82a3.06,3.06,0,0,0-1.48-.37c-1.06,0-1.46.63-1.46,1.16,0,.73.47,1.09,1.55,1.5,1.31.51,2,1.14,2,2.28s-.89,2.24-2.72,2.24a4.13,4.13,0,0,1-2-.49Z"/><path class="cls-2" d="M273.21,491.38V493h1.45v.78h-1.45v3c0,.69.2,1.08.76,1.08a2,2,0,0,0,.59-.07l0,.76a2.23,2.23,0,0,1-.89.14,1.42,1.42,0,0,1-1.1-.42,2.08,2.08,0,0,1-.39-1.46v-3h-.87V493h.87v-1.33Z"/><path class="cls-2" d="M275.81,494.73c0-.66,0-1.23-.05-1.75h.89l0,1.1h.05a1.66,1.66,0,0,1,1.54-1.22,1.23,1.23,0,0,1,.29,0v1a1.67,1.67,0,0,0-.34,0,1.44,1.44,0,0,0-1.37,1.31,3.3,3.3,0,0,0,0,.47v3h-1Z"/><path class="cls-2" d="M280,496a1.79,1.79,0,0,0,1.91,1.94,3.7,3.7,0,0,0,1.55-.29l.17.73a4.59,4.59,0,0,1-1.86.34,2.59,2.59,0,0,1-2.74-2.81c0-1.69,1-3,2.62-3a2.36,2.36,0,0,1,2.3,2.63,4.22,4.22,0,0,1,0,.47Zm3-.73a1.44,1.44,0,0,0-1.4-1.65,1.68,1.68,0,0,0-1.56,1.65Z"/><path class="cls-2" d="M285.24,494.5c0-.58,0-1.05,0-1.52h.9l0,.93h0a2,2,0,0,1,1.84-1.05c.78,0,2,.46,2,2.37v3.34h-1v-3.22c0-.9-.33-1.65-1.29-1.65a1.43,1.43,0,0,0-1.36,1,1.33,1.33,0,0,0-.07.47v3.36h-1Z"/><path class="cls-2" d="M296.46,493c0,.41,0,.86,0,1.54v3.24a3.18,3.18,0,0,1-.8,2.55,2.93,2.93,0,0,1-2,.67,3.57,3.57,0,0,1-1.85-.46l.25-.78a3.17,3.17,0,0,0,1.64.44c1,0,1.8-.54,1.8-1.95v-.62h0a2,2,0,0,1-1.77.93,2.49,2.49,0,0,1-2.38-2.72,2.68,2.68,0,0,1,2.52-3,1.85,1.85,0,0,1,1.74,1h0l.05-.85Zm-1,2.21a1.56,1.56,0,0,0-.06-.46,1.47,1.47,0,0,0-1.42-1.08c-1,0-1.66.82-1.66,2.11,0,1.1.55,2,1.65,2a1.49,1.49,0,0,0,1.41-1,2,2,0,0,0,.08-.54Z"/><path class="cls-2" d="M299.32,491.38V493h1.45v.78h-1.45v3c0,.69.19,1.08.76,1.08a2.1,2.1,0,0,0,.59-.07l0,.76a2.25,2.25,0,0,1-.9.14,1.41,1.41,0,0,1-1.09-.42,2.08,2.08,0,0,1-.39-1.46v-3h-.87V493h.87v-1.33Z"/><path class="cls-2" d="M301.91,490.38h1v3.48h0a1.85,1.85,0,0,1,.73-.71,2,2,0,0,1,1-.29c.75,0,1.95.46,1.95,2.39v3.32h-1v-3.21c0-.9-.33-1.66-1.29-1.66a1.45,1.45,0,0,0-1.36,1,1.13,1.13,0,0,0-.07.48v3.37h-1Z"/><path class="cls-2" d="M310.44,498.57v-.63l.8-.77c1.91-1.82,2.78-2.79,2.79-3.92a1.34,1.34,0,0,0-1.49-1.47,2.53,2.53,0,0,0-1.59.64l-.33-.72a3.35,3.35,0,0,1,2.13-.76,2.11,2.11,0,0,1,2.29,2.18c0,1.39-1,2.51-2.58,4l-.6.55v0h3.37v.84Z"/><path class="cls-2" d="M316.6,497.4a3.34,3.34,0,0,0,1.66.48c1.31,0,1.71-.83,1.7-1.46,0-1.05-1-1.5-1.94-1.5h-.56v-.76H318c.74,0,1.67-.38,1.67-1.27,0-.6-.38-1.13-1.31-1.13a2.75,2.75,0,0,0-1.5.5l-.27-.74a3.56,3.56,0,0,1,2-.58c1.48,0,2.15.88,2.15,1.79a1.87,1.87,0,0,1-1.39,1.77v0a2,2,0,0,1,1.68,1.92c0,1.2-.94,2.25-2.74,2.25a3.85,3.85,0,0,1-1.95-.5Z"/><path class="cls-2" d="M322.36,498a.68.68,0,0,1,.69-.73.73.73,0,1,1-.69.73Z"/><path class="cls-2" d="M329.14,491.92h-2.86l-.29,1.93a4.53,4.53,0,0,1,.61-.05,3.15,3.15,0,0,1,1.62.41,2.12,2.12,0,0,1,1.07,1.92,2.59,2.59,0,0,1-2.79,2.56,3.69,3.69,0,0,1-1.87-.46l.25-.77a3.47,3.47,0,0,0,1.61.42,1.65,1.65,0,0,0,1.77-1.63c0-1-.65-1.66-2.15-1.66a7,7,0,0,0-1,.08l.48-3.6h3.59Z"/><path class="cls-2" d="M334.86,491.78a3.56,3.56,0,0,0-.76.05,3,3,0,0,0-2.6,2.67h0a2.28,2.28,0,0,1,4.07,1.55,2.5,2.5,0,0,1-2.49,2.64c-1.6,0-2.65-1.24-2.65-3.19a4.7,4.7,0,0,1,1.27-3.38,4.1,4.1,0,0,1,2.4-1.11,5.87,5.87,0,0,1,.73-.06Zm-.28,4.33a1.53,1.53,0,0,0-1.55-1.72,1.66,1.66,0,0,0-1.45.92.88.88,0,0,0-.12.45c0,1.24.59,2.15,1.65,2.15C334,497.91,334.58,497.18,334.58,496.11Z"/><path class="cls-2" d="M266.22,510.16a3.51,3.51,0,0,0,1.8.51c1,0,1.62-.54,1.62-1.33s-.41-1.14-1.46-1.54c-1.27-.45-2.06-1.11-2.06-2.21a2.24,2.24,0,0,1,2.52-2.11,3.61,3.61,0,0,1,1.72.38l-.28.82a3.18,3.18,0,0,0-1.48-.37c-1.06,0-1.46.64-1.46,1.17,0,.73.47,1.08,1.55,1.5,1.31.51,2,1.14,2,2.28s-.89,2.24-2.72,2.24a4.13,4.13,0,0,1-2-.49Z"/><path class="cls-2" d="M277.13,508.55a2.73,2.73,0,0,1-2.78,3,2.65,2.65,0,0,1-2.68-2.87,2.73,2.73,0,0,1,2.77-3A2.64,2.64,0,0,1,277.13,508.55Zm-4.43.06c0,1.22.71,2.14,1.7,2.14s1.69-.91,1.69-2.17c0-.94-.47-2.14-1.67-2.14S272.7,507.54,272.7,508.61Z"/><path class="cls-2" d="M278.52,511.39v-4.81h-.79v-.78h.79v-.26a2.63,2.63,0,0,1,.64-2,1.94,1.94,0,0,1,1.36-.52,2.41,2.41,0,0,1,.87.16l-.14.78a1.71,1.71,0,0,0-.65-.12c-.86,0-1.08.76-1.08,1.61v.3h1.35v.78h-1.35v4.81Z"/><path class="cls-2" d="M283.13,504.2v1.6h1.45v.78h-1.45v3c0,.69.2,1.08.76,1.08a2,2,0,0,0,.59-.07l0,.76a2.52,2.52,0,0,1-.9.14,1.39,1.39,0,0,1-1.1-.43,2,2,0,0,1-.39-1.45v-3h-.87v-.78h.87v-1.34Z"/><path class="cls-2" d="M285.73,507.31c0-.57,0-1.05-.05-1.51h.9l.06.93h0a2,2,0,0,1,1.85-1.05c.77,0,2,.46,2,2.37v3.34h-1v-3.22c0-.9-.33-1.65-1.29-1.65a1.43,1.43,0,0,0-1.36,1,1.61,1.61,0,0,0-.07.47v3.36h-1Z"/><path class="cls-2" d="M292.7,508.78a1.79,1.79,0,0,0,1.91,1.94,3.7,3.7,0,0,0,1.55-.29l.17.73a4.59,4.59,0,0,1-1.86.34,2.59,2.59,0,0,1-2.74-2.81c0-1.69,1-3,2.62-3a2.36,2.36,0,0,1,2.3,2.63,4.41,4.41,0,0,1,0,.47Zm3-.73a1.45,1.45,0,0,0-1.41-1.65,1.68,1.68,0,0,0-1.55,1.65Z"/><path class="cls-2" d="M297.77,510.35a2.72,2.72,0,0,0,1.34.4c.74,0,1.08-.37,1.08-.83s-.28-.75-1-1c-1-.35-1.48-.91-1.48-1.58a1.72,1.72,0,0,1,1.93-1.63A2.84,2.84,0,0,1,301,506l-.25.74a2.19,2.19,0,0,0-1.15-.32c-.6,0-.93.34-.93.76s.33.67,1.06.94c1,.37,1.46.86,1.46,1.69,0,1-.76,1.67-2.08,1.67a3.19,3.19,0,0,1-1.57-.38Z"/><path class="cls-2" d="M302.34,510.35a2.72,2.72,0,0,0,1.34.4c.74,0,1.08-.37,1.08-.83s-.28-.75-1-1c-1-.35-1.48-.91-1.48-1.58a1.72,1.72,0,0,1,1.92-1.63,2.85,2.85,0,0,1,1.38.34l-.26.74a2.15,2.15,0,0,0-1.14-.32c-.6,0-.93.34-.93.76s.33.67,1.06.94c1,.37,1.46.86,1.46,1.69,0,1-.76,1.67-2.08,1.67a3.17,3.17,0,0,1-1.57-.38Z"/><path class="cls-2" d="M306.81,506.73a.69.69,0,1,1,.68.71A.67.67,0,0,1,306.81,506.73Zm0,4.07a.69.69,0,1,1,.68.71A.67.67,0,0,1,306.81,510.8Z"/><path class="cls-2" d="M315.84,504.6a3.53,3.53,0,0,0-.76,0,3,3,0,0,0-2.61,2.66h0a2.26,2.26,0,0,1,1.82-.86,2.23,2.23,0,0,1,2.26,2.42,2.51,2.51,0,0,1-2.49,2.64c-1.61,0-2.66-1.24-2.66-3.19a4.7,4.7,0,0,1,1.27-3.38,4.1,4.1,0,0,1,2.4-1.11,4.44,4.44,0,0,1,.74-.06Zm-.29,4.33a1.53,1.53,0,0,0-1.55-1.72,1.67,1.67,0,0,0-1.45.92.88.88,0,0,0-.11.45c0,1.24.58,2.15,1.65,2.15C315,510.73,315.55,510,315.55,508.93Z"/><path class="cls-2" d="M317.56,510.79a.68.68,0,0,1,.69-.73.73.73,0,1,1-.69.73Z"/><path class="cls-2" d="M323,511.39v-2.05h-3.48v-.66l3.35-4.79H324v4.66H325v.79H324v2.05Zm0-2.84v-2.5c0-.4,0-.79,0-1.18h0c-.23.44-.41.76-.62,1.11l-1.83,2.54v0Z"/><path class="cls-2" d="M330.77,507.56c0,2.55-.95,3.95-2.61,3.95-1.46,0-2.46-1.37-2.48-3.85s1.09-3.9,2.61-3.9S330.77,505.17,330.77,507.56Zm-4.07.11c0,1.95.6,3.06,1.52,3.06s1.53-1.21,1.53-3.13-.47-3.05-1.52-3.05C327.34,504.55,326.7,505.63,326.7,507.67Z"/><path class="cls-2" d="M331.7,511.39v-.63l.8-.77c1.91-1.82,2.78-2.79,2.79-3.92a1.34,1.34,0,0,0-1.49-1.47,2.55,2.55,0,0,0-1.59.64l-.32-.72a3.27,3.27,0,0,1,2.12-.76,2.11,2.11,0,0,1,2.3,2.18c0,1.39-1,2.5-2.59,4l-.6.55v0h3.37v.85Z"/><path class="cls-2" d="M500.81,379.4a3.53,3.53,0,0,0,1.8.51c1,0,1.63-.54,1.63-1.32s-.41-1.15-1.46-1.55c-1.27-.45-2.06-1.11-2.06-2.2a2.25,2.25,0,0,1,2.52-2.12,3.51,3.51,0,0,1,1.72.39l-.28.82a3.06,3.06,0,0,0-1.48-.37c-1.06,0-1.46.63-1.46,1.16,0,.73.47,1.08,1.54,1.5,1.32.51,2,1.14,2,2.29s-.89,2.23-2.72,2.23a4.13,4.13,0,0,1-2-.49Z"/><path class="cls-2" d="M507.81,373.44V375h1.45v.78h-1.45v3c0,.69.19,1.08.76,1.08a2.1,2.1,0,0,0,.59-.07l0,.76a2.48,2.48,0,0,1-.9.14,1.41,1.41,0,0,1-1.09-.42,2.07,2.07,0,0,1-.4-1.46v-3H506V375h.86v-1.33Z"/><path class="cls-2" d="M510.4,376.79c0-.66,0-1.23,0-1.75h.88l0,1.1h.05a1.66,1.66,0,0,1,1.54-1.22,1.23,1.23,0,0,1,.29,0v1a1.69,1.69,0,0,0-.35,0,1.44,1.44,0,0,0-1.36,1.31,3.3,3.3,0,0,0,0,.47v3h-1Z"/><path class="cls-2" d="M514.64,378a1.79,1.79,0,0,0,1.91,1.94,3.7,3.7,0,0,0,1.55-.29l.17.73a4.59,4.59,0,0,1-1.86.34,2.59,2.59,0,0,1-2.74-2.81c0-1.69,1-3,2.62-3a2.36,2.36,0,0,1,2.3,2.63,4.22,4.22,0,0,1,0,.47Zm3-.73a1.44,1.44,0,0,0-1.4-1.65,1.68,1.68,0,0,0-1.56,1.65Z"/><path class="cls-2" d="M519.85,376.55c0-.57,0-1,0-1.51h.9l0,.93h0a2,2,0,0,1,1.84-1.05c.77,0,2,.46,2,2.37v3.34h-1v-3.22c0-.9-.34-1.65-1.29-1.65a1.43,1.43,0,0,0-1.36,1,1.33,1.33,0,0,0-.07.47v3.36h-1Z"/><path class="cls-2" d="M531.06,375c0,.41,0,.86,0,1.54v3.24a3.18,3.18,0,0,1-.8,2.55,2.93,2.93,0,0,1-2,.67,3.57,3.57,0,0,1-1.85-.46l.25-.78a3.17,3.17,0,0,0,1.64.44c1,0,1.8-.54,1.8-1.95v-.62h0a2,2,0,0,1-1.77.93,2.49,2.49,0,0,1-2.38-2.72,2.68,2.68,0,0,1,2.52-3,1.86,1.86,0,0,1,1.74,1h0l0-.85Zm-1,2.21a1.56,1.56,0,0,0-.06-.46,1.47,1.47,0,0,0-1.42-1.08c-1,0-1.66.82-1.66,2.11,0,1.1.55,2,1.65,2a1.47,1.47,0,0,0,1.4-1,1.7,1.7,0,0,0,.09-.54Z"/><path class="cls-2" d="M533.93,373.44V375h1.45v.78h-1.45v3c0,.69.19,1.08.76,1.08a2.1,2.1,0,0,0,.59-.07l0,.76a2.44,2.44,0,0,1-.9.14,1.41,1.41,0,0,1-1.09-.42,2.08,2.08,0,0,1-.39-1.46v-3h-.87V375h.87v-1.33Z"/><path class="cls-2" d="M536.52,372.44h1v3.48h0a1.85,1.85,0,0,1,.73-.71,2,2,0,0,1,1-.29c.75,0,1.95.46,1.95,2.38v3.33h-1v-3.21c0-.9-.33-1.66-1.29-1.66a1.45,1.45,0,0,0-1.36,1,1.21,1.21,0,0,0-.07.49v3.37h-1Z"/><path class="cls-2" d="M545.29,379.46a3.35,3.35,0,0,0,1.66.47c1.31,0,1.71-.83,1.7-1.45,0-1.05-1-1.5-1.94-1.5h-.56v-.76h.56c.74,0,1.67-.38,1.67-1.27,0-.6-.38-1.13-1.31-1.13a2.75,2.75,0,0,0-1.5.5l-.27-.74a3.59,3.59,0,0,1,2-.58c1.48,0,2.15.88,2.15,1.79a1.85,1.85,0,0,1-1.38,1.76v0a2,2,0,0,1,1.67,1.93c0,1.19-.94,2.24-2.74,2.24a3.85,3.85,0,0,1-2-.5Z"/><path class="cls-2" d="M556,376.8c0,2.55-.94,3.95-2.61,3.95-1.46,0-2.45-1.37-2.48-3.85s1.09-3.9,2.61-3.9S556,374.41,556,376.8Zm-4.07.11c0,1.95.6,3.06,1.52,3.06s1.54-1.21,1.54-3.13-.48-3-1.53-3C552.53,373.79,551.88,374.87,551.88,376.91Z"/><path class="cls-2" d="M557,380a.68.68,0,0,1,.69-.73.73.73,0,1,1-.69.73Z"/><path class="cls-2" d="M562.41,380.63v-2h-3.48v-.67l3.34-4.79h1.1v4.66h1v.8h-1v2Zm0-2.84v-2.5c0-.4,0-.79,0-1.18h0c-.23.44-.41.76-.62,1.11L560,377.77v0Z"/><path class="cls-2" d="M569.67,374h-2.86l-.29,1.93a4.25,4.25,0,0,1,.61-.05,3.15,3.15,0,0,1,1.62.41,2.14,2.14,0,0,1,1.07,1.92,2.6,2.6,0,0,1-2.79,2.56,3.69,3.69,0,0,1-1.87-.46l.25-.77a3.44,3.44,0,0,0,1.61.41,1.65,1.65,0,0,0,1.77-1.62c0-1-.66-1.66-2.15-1.66a6.88,6.88,0,0,0-1,.08l.48-3.6h3.59Z"/><path class="cls-2" d="M500.81,392.22a3.53,3.53,0,0,0,1.8.51c1,0,1.63-.54,1.63-1.33s-.41-1.14-1.46-1.54c-1.27-.45-2.06-1.11-2.06-2.21a2.24,2.24,0,0,1,2.52-2.11,3.64,3.64,0,0,1,1.72.38l-.28.82a3.06,3.06,0,0,0-1.48-.37c-1.06,0-1.46.64-1.46,1.17,0,.73.47,1.08,1.54,1.5,1.32.51,2,1.14,2,2.28s-.89,2.24-2.72,2.24a4,4,0,0,1-2-.5Z"/><path class="cls-2" d="M511.72,390.61a2.73,2.73,0,0,1-2.78,3,2.65,2.65,0,0,1-2.68-2.87,2.72,2.72,0,0,1,2.77-3A2.64,2.64,0,0,1,511.72,390.61Zm-4.43.06c0,1.22.7,2.14,1.69,2.14s1.7-.91,1.7-2.17c0-.94-.47-2.14-1.67-2.14S507.29,389.6,507.29,390.67Z"/><path class="cls-2" d="M513.1,393.45v-4.81h-.78v-.78h.78v-.26a2.64,2.64,0,0,1,.65-2,1.94,1.94,0,0,1,1.36-.52,2.31,2.31,0,0,1,.86.16l-.13.78a1.71,1.71,0,0,0-.65-.12c-.86,0-1.08.76-1.08,1.61v.3h1.35v.78h-1.35v4.81Z"/><path class="cls-2" d="M517.72,386.26v1.6h1.45v.78h-1.45v3c0,.69.19,1.08.76,1.08a2.1,2.1,0,0,0,.59-.07l0,.76a2.44,2.44,0,0,1-.9.14,1.39,1.39,0,0,1-1.09-.43,2,2,0,0,1-.39-1.45v-3h-.87v-.78h.87v-1.34Z"/><path class="cls-2" d="M520.31,389.37c0-.57,0-1.05,0-1.51h.9l.05.93h0a2,2,0,0,1,1.84-1.05c.78,0,2,.46,2,2.37v3.34h-1v-3.22c0-.9-.33-1.65-1.29-1.65a1.43,1.43,0,0,0-1.36,1,1.33,1.33,0,0,0-.07.47v3.36h-1Z"/><path class="cls-2" d="M527.28,390.84a1.79,1.79,0,0,0,1.92,1.94,3.68,3.68,0,0,0,1.54-.29l.18.73a4.59,4.59,0,0,1-1.86.34,2.59,2.59,0,0,1-2.75-2.81c0-1.69,1-3,2.62-3a2.37,2.37,0,0,1,2.31,2.63,2.64,2.64,0,0,1,0,.47Zm3-.73a1.45,1.45,0,0,0-1.41-1.65,1.68,1.68,0,0,0-1.56,1.65Z"/><path class="cls-2" d="M532.36,392.41a2.72,2.72,0,0,0,1.34.4c.74,0,1.08-.37,1.08-.83s-.29-.75-1-1c-1-.35-1.47-.91-1.47-1.58a1.71,1.71,0,0,1,1.92-1.63,2.88,2.88,0,0,1,1.38.34l-.26.74a2.15,2.15,0,0,0-1.14-.32c-.6,0-.93.34-.93.76s.33.67,1.06.94c1,.37,1.46.86,1.46,1.69,0,1-.76,1.67-2.09,1.67a3.22,3.22,0,0,1-1.57-.38Z"/><path class="cls-2" d="M536.93,392.41a2.72,2.72,0,0,0,1.34.4c.73,0,1.08-.37,1.08-.83s-.29-.75-1-1c-1-.35-1.48-.91-1.48-1.58a1.72,1.72,0,0,1,1.93-1.63,2.81,2.81,0,0,1,1.37.34l-.25.74a2.15,2.15,0,0,0-1.14-.32c-.6,0-.94.34-.94.76s.34.67,1.07.94c1,.37,1.46.86,1.46,1.69,0,1-.76,1.67-2.09,1.67a3.22,3.22,0,0,1-1.57-.38Z"/><path class="cls-2" d="M541.39,388.79a.69.69,0,1,1,1.38,0,.69.69,0,1,1-1.38,0Zm0,4.07a.69.69,0,1,1,1.38,0,.69.69,0,1,1-1.38,0Z"/><path class="cls-2" d="M546.39,392.28a3.32,3.32,0,0,0,1.66.47c1.3,0,1.71-.83,1.69-1.45,0-1.05-1-1.5-1.93-1.5h-.57V389h.57c.73,0,1.67-.38,1.67-1.27,0-.6-.38-1.13-1.32-1.13a2.7,2.7,0,0,0-1.5.5l-.26-.74a3.53,3.53,0,0,1,2-.58c1.48,0,2.15.88,2.15,1.79a1.86,1.86,0,0,1-1.39,1.76v0a1.94,1.94,0,0,1,1.67,1.92c0,1.2-.93,2.25-2.73,2.25a3.74,3.74,0,0,1-1.95-.51Z"/><path class="cls-2" d="M552.14,392.85a.69.69,0,0,1,.7-.73.73.73,0,1,1-.7.73Z"/><path class="cls-2" d="M554.69,392.28a3.36,3.36,0,0,0,1.67.47c1.3,0,1.7-.83,1.69-1.45,0-1.05-1-1.5-1.94-1.5h-.56V389h.56c.74,0,1.68-.38,1.68-1.27,0-.6-.38-1.13-1.32-1.13a2.67,2.67,0,0,0-1.5.5l-.26-.74a3.53,3.53,0,0,1,2-.58c1.47,0,2.14.88,2.14,1.79a1.85,1.85,0,0,1-1.38,1.76v0a1.94,1.94,0,0,1,1.67,1.92c0,1.2-.93,2.25-2.73,2.25a3.72,3.72,0,0,1-2-.51Z"/><path class="cls-2" d="M563.51,393.45V391.4H560v-.67l3.35-4.78h1.1v4.66h1v.79h-1v2.05Zm0-2.84V388.1q0-.59,0-1.17h0c-.23.44-.42.76-.62,1.11l-1.84,2.55v0Z"/><path class="cls-2" d="M566.53,392.28a3.35,3.35,0,0,0,1.66.47c1.31,0,1.71-.83,1.7-1.45,0-1.05-1-1.5-1.94-1.5h-.57V389H568c.74,0,1.67-.38,1.67-1.27,0-.6-.38-1.13-1.31-1.13a2.67,2.67,0,0,0-1.5.5l-.27-.74a3.59,3.59,0,0,1,2-.58c1.48,0,2.15.88,2.15,1.79a1.85,1.85,0,0,1-1.38,1.76v0a1.94,1.94,0,0,1,1.67,1.92c0,1.2-.94,2.25-2.74,2.25a3.74,3.74,0,0,1-2-.51Z"/><path class="cls-2" d="M405.26,331.49l-1,3H403l3.23-9.51h1.48l3.24,9.51h-1.31l-1-3Zm3.11-1-.93-2.74c-.21-.62-.35-1.18-.49-1.73h0c-.14.56-.3,1.14-.48,1.72l-.93,2.75Z"/><path class="cls-2" d="M412.27,324.47h1.24v10h-1.24Z"/><path class="cls-2" d="M415.59,324.47h1.24v10h-1.24Z"/><path class="cls-2" d="M419.61,331.29a2.19,2.19,0,0,0,2.34,2.37,4.59,4.59,0,0,0,1.89-.35l.21.88a5.42,5.42,0,0,1-2.27.43,3.16,3.16,0,0,1-3.35-3.44c0-2.06,1.21-3.68,3.2-3.68,2.23,0,2.82,2,2.82,3.21a5.79,5.79,0,0,1,0,.58Zm3.64-.89a1.77,1.77,0,0,0-1.72-2,2,2,0,0,0-1.9,2Z"/><path class="cls-2" d="M426,329.78c0-.8,0-1.49-.06-2.13H427l.05,1.34h.05A2.05,2.05,0,0,1,429,327.5a1.25,1.25,0,0,1,.35,0v1.17a1.71,1.71,0,0,0-.42,0,1.74,1.74,0,0,0-1.66,1.59,3.34,3.34,0,0,0-.06.58v3.64H426Z"/><path class="cls-2" d="M436.38,327.65c0,.5-.06,1.05-.06,1.88v4a4,4,0,0,1-1,3.12,3.6,3.6,0,0,1-2.48.81,4.37,4.37,0,0,1-2.27-.56l.31-.94a3.85,3.85,0,0,0,2,.53c1.27,0,2.2-.66,2.2-2.38v-.76h0a2.44,2.44,0,0,1-2.17,1.14,3.06,3.06,0,0,1-2.91-3.33c0-2.31,1.51-3.62,3.08-3.62a2.29,2.29,0,0,1,2.13,1.18h0l.05-1Zm-1.29,2.7a1.68,1.68,0,0,0-.07-.57,1.78,1.78,0,0,0-1.73-1.31c-1.18,0-2,1-2,2.58,0,1.34.68,2.45,2,2.45a1.82,1.82,0,0,0,1.72-1.27,2.15,2.15,0,0,0,.09-.66Z"/><path class="cls-2" d="M442.16,334.48l-.1-.86h0a2.56,2.56,0,0,1-2.09,1,2,2,0,0,1-2.09-2c0-1.65,1.47-2.55,4.11-2.54V330a1.41,1.41,0,0,0-1.55-1.58,3.4,3.4,0,0,0-1.78.51l-.28-.82a4.28,4.28,0,0,1,2.24-.6c2.09,0,2.59,1.42,2.59,2.79v2.55a9.14,9.14,0,0,0,.12,1.64ZM442,331c-1.36,0-2.89.22-2.89,1.54a1.1,1.1,0,0,0,1.17,1.19,1.71,1.71,0,0,0,1.65-1.15,1.28,1.28,0,0,0,.07-.39Z"/><path class="cls-2" d="M445.18,329.5c0-.7,0-1.28-.06-1.85h1.1l.07,1.13h0a2.51,2.51,0,0,1,2.26-1.28c.94,0,2.41.56,2.41,2.9v4.08h-1.24v-3.94c0-1.1-.41-2-1.58-2a1.76,1.76,0,0,0-1.67,1.27,1.91,1.91,0,0,0-.08.57v4.11h-1.24Z"/><path class="cls-2" d="M455.87,333a4.32,4.32,0,0,0,2.2.62c1.25,0,2-.66,2-1.62s-.5-1.39-1.79-1.89c-1.55-.55-2.51-1.35-2.51-2.69s1.23-2.58,3.08-2.58a4.35,4.35,0,0,1,2.1.46l-.34,1a3.78,3.78,0,0,0-1.81-.46c-1.29,0-1.79.78-1.79,1.43,0,.89.58,1.32,1.89,1.83,1.61.62,2.43,1.4,2.43,2.79s-1.09,2.74-3.33,2.74a4.84,4.84,0,0,1-2.42-.61Z"/><path class="cls-2" d="M469.19,331a3.34,3.34,0,0,1-3.4,3.62,3.25,3.25,0,0,1-3.27-3.51,3.34,3.34,0,0,1,3.39-3.62A3.23,3.23,0,0,1,469.19,331Zm-5.41.07c0,1.49.86,2.62,2.07,2.62s2.07-1.11,2.07-2.65c0-1.16-.58-2.62-2-2.62S463.78,329.78,463.78,331.08Z"/><path class="cls-2" d="M470.88,334.48V328.6h-1v-1h1v-.32a3.24,3.24,0,0,1,.79-2.38,2.36,2.36,0,0,1,1.67-.64,2.83,2.83,0,0,1,1.05.2l-.16,1a1.8,1.8,0,0,0-.79-.16c-1.06,0-1.33.93-1.33,2v.36h1.65v1h-1.65v5.88Z"/><path class="cls-2" d="M476.52,325.69v2h1.78v1h-1.78v3.68c0,.84.24,1.32.93,1.32a2.85,2.85,0,0,0,.72-.08l.06.93a3,3,0,0,1-1.1.17,1.75,1.75,0,0,1-1.34-.52,2.56,2.56,0,0,1-.48-1.78V328.6h-1.06v-1h1.06V326Z"/><path class="cls-2" d="M481.54,326h-2.89v-1h7v1h-2.9v8.46h-1.25Z"/><path class="cls-2" d="M491.88,331a3.34,3.34,0,0,1-3.4,3.62,3.24,3.24,0,0,1-3.27-3.51,3.33,3.33,0,0,1,3.38-3.62A3.23,3.23,0,0,1,491.88,331Zm-5.41.07c0,1.49.86,2.62,2.07,2.62s2.07-1.11,2.07-2.65c0-1.16-.58-2.62-2-2.62S486.47,329.78,486.47,331.08Z"/><path class="cls-2" d="M499.16,332.62c0,.7,0,1.32,0,1.86h-1.1l-.07-1.12h0a2.55,2.55,0,0,1-2.25,1.27c-1.07,0-2.36-.59-2.36-3v-4h1.24v3.78c0,1.3.4,2.17,1.53,2.17a1.77,1.77,0,0,0,1.75-1.76v-4.19h1.24Z"/><path class="cls-2" d="M506.08,334.22a4.51,4.51,0,0,1-2,.4,3.24,3.24,0,0,1-3.4-3.48,3.47,3.47,0,0,1,3.67-3.63,4.33,4.33,0,0,1,1.72.35l-.28,1a2.91,2.91,0,0,0-1.44-.32,2.57,2.57,0,0,0,0,5.13,3.45,3.45,0,0,0,1.52-.34Z"/><path class="cls-2" d="M507.53,324.47h1.24v4.25h0a2.33,2.33,0,0,1,.89-.87,2.57,2.57,0,0,1,1.27-.35c.92,0,2.38.56,2.38,2.92v4.06H512.1v-3.92c0-1.1-.41-2-1.58-2a1.77,1.77,0,0,0-1.66,1.24,1.5,1.5,0,0,0-.09.59v4.12h-1.24Z"/><path class="cls-2" d="M519,325.3l-1.34,1.76v0l2.13-.28v1l-2.13-.26v0l1.35,1.69-.89.51-.84-2h0l-.92,2-.8-.5,1.34-1.72v0l-2.09.27v-1l2.08.26v0l-1.33-1.72.86-.5.87,2h0l.86-2Z"/><path class="cls-2" d="M403.39,346.07a3.51,3.51,0,0,0,1.8.51c1,0,1.62-.54,1.62-1.33s-.41-1.14-1.46-1.54c-1.27-.45-2.06-1.11-2.06-2.2a2.25,2.25,0,0,1,2.52-2.12,3.64,3.64,0,0,1,1.72.38l-.28.82a3.18,3.18,0,0,0-1.48-.37c-1.06,0-1.46.64-1.46,1.17,0,.73.47,1.08,1.54,1.5,1.32.51,2,1.14,2,2.28s-.89,2.24-2.72,2.24a4.13,4.13,0,0,1-2-.49Z"/><path class="cls-2" d="M410.38,340.11v1.6h1.45v.78h-1.45v3c0,.69.19,1.08.76,1.08a2.1,2.1,0,0,0,.59-.07l0,.76a2.44,2.44,0,0,1-.9.14,1.39,1.39,0,0,1-1.09-.43,2,2,0,0,1-.39-1.45v-3h-.87v-.78h.87v-1.34Z"/><path class="cls-2" d="M413,343.45c0-.65,0-1.22,0-1.74h.89l0,1.1h0a1.66,1.66,0,0,1,1.54-1.22,1.23,1.23,0,0,1,.29,0v1a1.2,1.2,0,0,0-.35,0,1.44,1.44,0,0,0-1.36,1.31,3.3,3.3,0,0,0,0,.47v3h-1Z"/><path class="cls-2" d="M417.2,344.69a1.79,1.79,0,0,0,1.91,1.94,3.7,3.7,0,0,0,1.55-.29l.17.73a4.59,4.59,0,0,1-1.86.34,2.59,2.59,0,0,1-2.74-2.81c0-1.69,1-3,2.62-3a2.36,2.36,0,0,1,2.3,2.63,4.41,4.41,0,0,1,0,.47Zm3-.73a1.44,1.44,0,0,0-1.4-1.65,1.68,1.68,0,0,0-1.56,1.65Z"/><path class="cls-2" d="M422.41,343.22c0-.57,0-1.05,0-1.51h.9l.05.93h0a2,2,0,0,1,1.84-1.05c.77,0,2,.46,2,2.37v3.34h-1v-3.22c0-.9-.34-1.65-1.29-1.65a1.43,1.43,0,0,0-1.36,1,1.33,1.33,0,0,0-.07.47v3.36h-1Z"/><path class="cls-2" d="M433.62,341.71c0,.41,0,.86,0,1.54v3.24a3.19,3.19,0,0,1-.8,2.55,2.93,2.93,0,0,1-2,.67,3.57,3.57,0,0,1-1.85-.46l.25-.78a3.17,3.17,0,0,0,1.64.44c1,0,1.8-.54,1.8-2v-.62h0a2,2,0,0,1-1.77.93,2.49,2.49,0,0,1-2.38-2.72,2.68,2.68,0,0,1,2.52-3,1.86,1.86,0,0,1,1.74,1h0l.05-.84Zm-1,2.21a1.68,1.68,0,0,0-.06-.47,1.47,1.47,0,0,0-1.42-1.07c-1,0-1.66.82-1.66,2.11,0,1.1.55,2,1.65,2a1.47,1.47,0,0,0,1.4-1,1.7,1.7,0,0,0,.09-.54Z"/><path class="cls-2" d="M436.49,340.11v1.6h1.45v.78h-1.45v3c0,.69.19,1.08.76,1.08a2.1,2.1,0,0,0,.59-.07l0,.76a2.48,2.48,0,0,1-.9.14,1.39,1.39,0,0,1-1.09-.43,2,2,0,0,1-.4-1.45v-3h-.86v-.78h.86v-1.34Z"/><path class="cls-2" d="M439.08,339.11h1v3.48h0a1.94,1.94,0,0,1,.73-.72,2.12,2.12,0,0,1,1-.28c.75,0,1.95.46,1.95,2.38v3.33h-1v-3.21c0-.9-.33-1.66-1.29-1.66a1.45,1.45,0,0,0-1.36,1,1.21,1.21,0,0,0-.07.49v3.37h-1Z"/><path class="cls-2" d="M447.85,346.13a3.35,3.35,0,0,0,1.66.47c1.31,0,1.71-.83,1.7-1.45,0-1-1-1.5-1.94-1.5h-.56v-.76h.56c.74,0,1.67-.38,1.67-1.27,0-.6-.38-1.13-1.31-1.13a2.75,2.75,0,0,0-1.5.5l-.27-.74a3.56,3.56,0,0,1,2-.58c1.48,0,2.15.88,2.15,1.79a1.85,1.85,0,0,1-1.39,1.76v0a1.94,1.94,0,0,1,1.68,1.92c0,1.2-.94,2.25-2.74,2.25a3.85,3.85,0,0,1-1.95-.5Z"/><path class="cls-2" d="M453.53,347.3v-.63l.79-.77c1.92-1.82,2.78-2.79,2.8-3.92a1.34,1.34,0,0,0-1.49-1.47,2.53,2.53,0,0,0-1.59.64l-.33-.72a3.29,3.29,0,0,1,2.12-.76,2.11,2.11,0,0,1,2.3,2.18c0,1.39-1,2.5-2.58,4l-.6.55v0h3.37v.85Z"/><path class="cls-2" d="M459.53,346.7a.68.68,0,0,1,.69-.73.73.73,0,1,1-.69.73Z"/><path class="cls-2" d="M466.31,340.65h-2.86l-.29,1.93a3.24,3.24,0,0,1,.61-.05,3.15,3.15,0,0,1,1.62.41,2.12,2.12,0,0,1,1.07,1.92,2.59,2.59,0,0,1-2.79,2.56,3.69,3.69,0,0,1-1.87-.46l.25-.77a3.48,3.48,0,0,0,1.61.41,1.65,1.65,0,0,0,1.77-1.62c0-1-.65-1.66-2.15-1.66a7,7,0,0,0-1,.08l.48-3.6h3.59Z"/><path class="cls-2" d="M472.62,339.8v.67l-3.26,6.83h-1.05l3.25-6.64v0h-3.67v-.84Z"/><path class="cls-2" d="M403.39,358.89a3.51,3.51,0,0,0,1.8.51c1,0,1.62-.54,1.62-1.33s-.41-1.14-1.46-1.54c-1.27-.45-2.06-1.11-2.06-2.21a2.24,2.24,0,0,1,2.52-2.11,3.64,3.64,0,0,1,1.72.38l-.28.82a3.06,3.06,0,0,0-1.48-.37c-1.06,0-1.46.64-1.46,1.17,0,.72.47,1.08,1.54,1.5,1.32.51,2,1.14,2,2.28s-.89,2.24-2.72,2.24a4,4,0,0,1-2-.5Z"/><path class="cls-2" d="M414.3,357.28a2.73,2.73,0,0,1-2.78,3,2.66,2.66,0,0,1-2.68-2.87,2.73,2.73,0,0,1,2.77-3A2.65,2.65,0,0,1,414.3,357.28Zm-4.43.05c0,1.23.7,2.15,1.7,2.15s1.69-.91,1.69-2.17c0-.94-.47-2.14-1.67-2.14S409.87,356.27,409.87,357.33Z"/><path class="cls-2" d="M415.69,360.11V355.3h-.79v-.77h.79v-.26a2.63,2.63,0,0,1,.64-1.95,1.94,1.94,0,0,1,1.36-.52,2.41,2.41,0,0,1,.87.16l-.14.78a1.53,1.53,0,0,0-.65-.12c-.86,0-1.08.76-1.08,1.61v.3H418v.77h-1.35v4.81Z"/><path class="cls-2" d="M420.3,352.93v1.6h1.45v.77H420.3v3c0,.7.2,1.09.76,1.09a2.48,2.48,0,0,0,.59-.07l.05.76a2.52,2.52,0,0,1-.9.14,1.39,1.39,0,0,1-1.1-.43,2,2,0,0,1-.39-1.45V355.3h-.87v-.77h.87v-1.34Z"/><path class="cls-2" d="M422.9,356c0-.57,0-1.05,0-1.51h.9l.06.92h0a2.06,2.06,0,0,1,1.85-1.05c.77,0,2,.47,2,2.38v3.33h-1V356.9c0-.9-.33-1.65-1.29-1.65a1.44,1.44,0,0,0-1.36,1,1.39,1.39,0,0,0-.07.48v3.35h-1Z"/><path class="cls-2" d="M429.86,357.51a1.8,1.8,0,0,0,1.92,1.94,3.73,3.73,0,0,0,1.55-.29l.17.72a4.39,4.39,0,0,1-1.86.35,2.59,2.59,0,0,1-2.74-2.81c0-1.69,1-3,2.61-3a2.37,2.37,0,0,1,2.31,2.63,4.64,4.64,0,0,1,0,.48Zm3-.73a1.45,1.45,0,0,0-1.41-1.65,1.68,1.68,0,0,0-1.55,1.65Z"/><path class="cls-2" d="M434.94,359.08a2.72,2.72,0,0,0,1.34.4c.74,0,1.08-.37,1.08-.83s-.28-.75-1-1c-1-.36-1.48-.91-1.48-1.58a1.73,1.73,0,0,1,1.93-1.64,2.83,2.83,0,0,1,1.37.35l-.26.74a2.15,2.15,0,0,0-1.14-.32c-.6,0-.93.34-.93.76s.33.67,1.06.94c1,.37,1.46.86,1.46,1.69,0,1-.76,1.67-2.08,1.67a3.17,3.17,0,0,1-1.57-.38Z"/><path class="cls-2" d="M439.51,359.08a2.72,2.72,0,0,0,1.34.4c.74,0,1.08-.37,1.08-.83s-.29-.75-1-1c-1-.36-1.47-.91-1.47-1.58a1.72,1.72,0,0,1,1.92-1.64,2.85,2.85,0,0,1,1.38.35l-.26.74a2.15,2.15,0,0,0-1.14-.32c-.6,0-.93.34-.93.76s.33.67,1.06.94c1,.37,1.46.86,1.46,1.69,0,1-.76,1.67-2.09,1.67a3.15,3.15,0,0,1-1.56-.38Z"/><path class="cls-2" d="M444,355.45a.69.69,0,1,1,1.38,0,.69.69,0,1,1-1.38,0Zm0,4.08a.69.69,0,1,1,1.38,0,.69.69,0,1,1-1.38,0Z"/><path class="cls-2" d="M451.87,360.11v-2h-3.49v-.67l3.35-4.78h1.09v4.66h1.05v.79h-1.05v2Zm0-2.83v-2.51q0-.58,0-1.17h0c-.23.44-.42.76-.63,1.1l-1.83,2.55v0Z"/><path class="cls-2" d="M454.73,359.51a.68.68,0,0,1,.69-.72.73.73,0,1,1-.69.72Z"/><path class="cls-2" d="M460.17,360.11v-2h-3.48v-.67l3.34-4.78h1.1v4.66h1.05v.79h-1.05v2Zm0-2.83v-2.51c0-.39,0-.78,0-1.17h0c-.23.44-.41.76-.62,1.1l-1.83,2.55v0Z"/><path class="cls-2" d="M463.54,359.4a4.11,4.11,0,0,0,.82,0,2.85,2.85,0,0,0,1.57-.72,3.28,3.28,0,0,0,1-2h0a2.21,2.21,0,0,1-1.77.81,2.17,2.17,0,0,1-2.21-2.3,2.57,2.57,0,0,1,2.56-2.66c1.53,0,2.48,1.25,2.48,3.16a4.78,4.78,0,0,1-1.29,3.52,3.79,3.79,0,0,1-2.18,1,4.76,4.76,0,0,1-.94.06Zm.37-4.31a1.45,1.45,0,0,0,1.44,1.59,1.69,1.69,0,0,0,1.48-.79.65.65,0,0,0,.09-.37c0-1.28-.47-2.26-1.53-2.26C464.52,353.26,463.91,354,463.91,355.09Z"/><path class="cls-2" d="M468.87,360.11v-.62l.8-.77c1.91-1.82,2.78-2.79,2.79-3.92a1.34,1.34,0,0,0-1.49-1.47,2.55,2.55,0,0,0-1.59.64l-.32-.72a3.27,3.27,0,0,1,2.12-.76,2.11,2.11,0,0,1,2.29,2.18c0,1.38-1,2.5-2.58,4l-.6.55v0h3.37v.84Z"/><line class="cls-1" x1="163.79" y1="480.09" x2="383" y2="336.51"/><line class="cls-1" x1="395.82" y1="324.98" x2="488.77" y2="271.77"/><line class="cls-6" x1="251.6" y1="476.89" x2="482.36" y2="366.64"/><path class="cls-2" d="M92.77,554.11a3.85,3.85,0,0,1,2.67-3.61l0-.06a3.35,3.35,0,0,1-2.13-3c0-2.13,1.8-3.59,4.16-3.59,2.62,0,3.92,1.64,3.92,3.32a3.41,3.41,0,0,1-2.22,3.15v.07a3.73,3.73,0,0,1,2.72,3.48c0,2.34-2,3.92-4.58,3.92C94.47,557.76,92.77,556.08,92.77,554.11ZM100,554c0-1.64-1.14-2.43-3-2.95a2.94,2.94,0,0,0-2.43,2.78,2.5,2.5,0,0,0,2.7,2.57A2.43,2.43,0,0,0,100,554Zm-5-6.74c0,1.35,1,2.07,2.57,2.49a2.67,2.67,0,0,0,2-2.45,2.09,2.09,0,0,0-2.28-2.2A2.15,2.15,0,0,0,95,547.29Z"/><path class="cls-2" d="M170.47,544.05v1.21l-5.87,12.27h-1.88l5.84-11.92v0H162v-1.52Z"/><path class="cls-2" d="M254.8,545.34a6.86,6.86,0,0,0-1.37.08,5.47,5.47,0,0,0-4.68,4.79h.06a4.11,4.11,0,0,1,7.32,2.8,4.51,4.51,0,0,1-4.48,4.75c-2.88,0-4.77-2.24-4.77-5.74a8.47,8.47,0,0,1,2.28-6.08,7.34,7.34,0,0,1,4.31-2,9.38,9.38,0,0,1,1.33-.11Zm-.52,7.77c0-1.92-1.1-3.09-2.78-3.09a3,3,0,0,0-2.61,1.66,1.61,1.61,0,0,0-.21.81c0,2.22,1.06,3.86,3,3.86C253.23,556.35,254.28,555,254.28,553.11Z"/><path class="cls-2" d="M342,545.59h-5.14l-.52,3.46a7.44,7.44,0,0,1,1.1-.08,5.73,5.73,0,0,1,2.9.72,3.85,3.85,0,0,1,1.93,3.47c0,2.63-2.09,4.6-5,4.6a6.62,6.62,0,0,1-3.36-.83l.45-1.39a6.05,6.05,0,0,0,2.88.75,3,3,0,0,0,3.2-2.93c0-1.74-1.18-3-3.88-3a14.5,14.5,0,0,0-1.87.14l.87-6.47H342Z"/><path class="cls-2" d="M425.45,557.53v-3.67h-6.26v-1.2l6-8.61h2v8.38h1.89v1.43h-1.89v3.67Zm0-5.1v-4.5c0-.7,0-1.41.06-2.11h-.06c-.41.78-.75,1.36-1.12,2l-3.3,4.58v0Z"/><path class="cls-2" d="M508.3,555.44a6.12,6.12,0,0,0,3,.85c2.34,0,3.07-1.5,3.05-2.62,0-1.88-1.73-2.69-3.49-2.69h-1v-1.37h1c1.33,0,3-.68,3-2.28,0-1.08-.69-2-2.37-2a4.91,4.91,0,0,0-2.69.89l-.48-1.33a6.43,6.43,0,0,1,3.53-1c2.65,0,3.85,1.58,3.85,3.22a3.34,3.34,0,0,1-2.48,3.17v0a3.52,3.52,0,0,1,3,3.47c0,2.15-1.68,4-4.91,4a6.93,6.93,0,0,1-3.51-.91Z"/><path class="cls-2" d="M595.92,557.53v-1.12l1.43-1.39c3.44-3.27,5-5,5-7a2.4,2.4,0,0,0-2.67-2.63,4.61,4.61,0,0,0-2.87,1.14l-.58-1.29a6,6,0,0,1,3.82-1.37,3.8,3.8,0,0,1,4.13,3.92c0,2.49-1.81,4.5-4.65,7.24l-1.08,1v0h6.06v1.51Z"/><path class="cls-5" d="M423,128.74a5.53,5.53,0,0,0,2.8.79c1.59,0,2.53-.84,2.53-2.06s-.65-1.78-2.28-2.41c-2-.69-3.2-1.72-3.2-3.42,0-1.89,1.56-3.29,3.91-3.29a5.45,5.45,0,0,1,2.68.6l-.43,1.27a4.94,4.94,0,0,0-2.3-.57c-1.65,0-2.28,1-2.28,1.81,0,1.13.74,1.68,2.41,2.33,2,.79,3.08,1.78,3.08,3.55s-1.38,3.49-4.23,3.49a6.27,6.27,0,0,1-3.09-.78Z"/><path class="cls-5" d="M433.79,119.52a.93.93,0,0,1-1,1,.94.94,0,0,1-1-1,1,1,0,0,1,1-1A.93.93,0,0,1,433.79,119.52ZM432,130.65V122h1.57v8.69Z"/><path class="cls-5" d="M437.11,126.59a2.78,2.78,0,0,0,3,3,5.77,5.77,0,0,0,2.41-.44l.27,1.13a7.08,7.08,0,0,1-2.89.54,4,4,0,0,1-4.27-4.38c0-2.62,1.54-4.69,4.07-4.69,2.84,0,3.59,2.5,3.59,4.09a5.31,5.31,0,0,1-.06.74Zm4.63-1.13a2.25,2.25,0,0,0-2.19-2.57,2.63,2.63,0,0,0-2.42,2.57Z"/><path class="cls-5" d="M445.23,124.31c0-.9,0-1.63-.08-2.35h1.4l.09,1.44h0a3.19,3.19,0,0,1,2.87-1.64c1.2,0,3.07.72,3.07,3.7v5.19H451v-5c0-1.4-.52-2.57-2-2.57a2.25,2.25,0,0,0-2.12,1.62,2.3,2.3,0,0,0-.1.73v5.23h-1.58Z"/><path class="cls-5" d="M457,119.47V122h2.26v1.2H457v4.69c0,1.07.3,1.68,1.18,1.68a3.69,3.69,0,0,0,.91-.1l.08,1.18a3.78,3.78,0,0,1-1.4.22,2.2,2.2,0,0,1-1.71-.67,3.22,3.22,0,0,1-.61-2.26v-4.74h-1.34V122h1.34v-2.08Z"/><path class="cls-5" d="M461.07,124.67c0-1,0-1.9-.07-2.71h1.38l.06,1.71h.07a2.6,2.6,0,0,1,2.4-1.91,1.53,1.53,0,0,1,.45.06v1.49a2.12,2.12,0,0,0-.54-.06,2.21,2.21,0,0,0-2.11,2,4.09,4.09,0,0,0-.08.74v4.63h-1.56Z"/><path class="cls-5" d="M471.68,130.65l-.13-1.1h-.05a3.24,3.24,0,0,1-2.66,1.29,2.47,2.47,0,0,1-2.65-2.49c0-2.1,1.86-3.25,5.22-3.23v-.18a1.79,1.79,0,0,0-2-2,4.27,4.27,0,0,0-2.26.65l-.36-1a5.43,5.43,0,0,1,2.85-.77c2.66,0,3.3,1.82,3.3,3.56v3.24a12.07,12.07,0,0,0,.15,2.09Zm-.23-4.44c-1.73,0-3.68.27-3.68,2a1.4,1.4,0,0,0,1.49,1.51,2.16,2.16,0,0,0,2.1-1.46,1.76,1.76,0,0,0,.09-.5Z"/><path class="cls-5" d="M480.94,118.55v5.06h5.85v-5.06h1.58v12.1h-1.58V125h-5.85v5.67h-1.56v-12.1Z"/><path class="cls-5" d="M490.87,128.74a5.53,5.53,0,0,0,2.8.79c1.59,0,2.53-.84,2.53-2.06s-.65-1.78-2.28-2.41c-2-.69-3.2-1.72-3.2-3.42,0-1.89,1.56-3.29,3.91-3.29a5.45,5.45,0,0,1,2.68.6l-.43,1.27a4.94,4.94,0,0,0-2.3-.57c-1.65,0-2.28,1-2.28,1.81,0,1.13.74,1.68,2.41,2.33,2,.79,3.08,1.78,3.08,3.55s-1.38,3.49-4.23,3.49a6.27,6.27,0,0,1-3.09-.78Z"/><path class="cls-5" d="M508.38,130.25a7.65,7.65,0,0,1-3.19.58c-3.41,0-6-2.16-6-6.12a6,6,0,0,1,6.32-6.36,6.53,6.53,0,0,1,2.87.54l-.38,1.28a5.61,5.61,0,0,0-2.44-.51c-2.83,0-4.72,1.82-4.72,5,0,3,1.71,4.86,4.65,4.86a6.19,6.19,0,0,0,2.55-.5Z"/><path class="cls-5" d="M514.86,119.83V124h4.06v1.08h-4.06v4.25h-1.15v-4.25h-4.05V124h4.05v-4.21Z"/><path class="cls-5" d="M534,130.11a11.31,11.31,0,0,1-3.71.66,5.68,5.68,0,0,1-6.21-6.1c0-3.61,2.49-6.24,6.55-6.24a7.49,7.49,0,0,1,3,.55l-.38,1.28a6.19,6.19,0,0,0-2.67-.52,4.52,4.52,0,0,0-4.86,4.86c0,3.07,1.85,4.88,4.66,4.88a5.12,5.12,0,0,0,2.09-.32v-3.61H530v-1.26h4Z"/><path class="cls-5" d="M537.31,126.59a2.78,2.78,0,0,0,3,3,5.77,5.77,0,0,0,2.41-.44l.27,1.13a7.08,7.08,0,0,1-2.89.54,4,4,0,0,1-4.27-4.38c0-2.62,1.54-4.69,4.07-4.69,2.84,0,3.59,2.5,3.59,4.09,0,.33,0,.58-.05.74Zm4.63-1.13a2.25,2.25,0,0,0-2.19-2.57,2.63,2.63,0,0,0-2.42,2.57Z"/><path class="cls-5" d="M545.43,117.91H547v12.74h-1.58Z"/><path class="cls-2" d="M422.7,144.67a3.93,3.93,0,0,0,2,.56c1.14,0,1.8-.6,1.8-1.47s-.46-1.27-1.62-1.72c-1.41-.5-2.28-1.23-2.28-2.45s1.11-2.34,2.79-2.34a3.94,3.94,0,0,1,1.91.42l-.31.91a3.48,3.48,0,0,0-1.64-.41c-1.18,0-1.63.71-1.63,1.3,0,.8.53,1.2,1.72,1.66,1.46.57,2.21,1.27,2.21,2.54s-1,2.49-3,2.49a4.53,4.53,0,0,1-2.2-.55Z"/><path class="cls-2" d="M430.45,138v1.79h1.62v.85h-1.62V144c0,.77.22,1.2.85,1.2a2.49,2.49,0,0,0,.65-.07l.05.84a2.69,2.69,0,0,1-1,.16,1.55,1.55,0,0,1-1.21-.48,2.28,2.28,0,0,1-.44-1.61v-3.39h-1v-.85h1v-1.49Z"/><path class="cls-2" d="M433.34,141.76c0-.73,0-1.36,0-1.93h1l0,1.21h.05a1.87,1.87,0,0,1,1.72-1.36,1.47,1.47,0,0,1,.32,0v1.07a1.43,1.43,0,0,0-.38,0,1.59,1.59,0,0,0-1.52,1.45,3.83,3.83,0,0,0-.05.52V146h-1.11Z"/><path class="cls-2" d="M438,143.13a2,2,0,0,0,2.13,2.16,4.21,4.21,0,0,0,1.71-.32l.2.8a5,5,0,0,1-2.07.39A2.88,2.88,0,0,1,437,143c0-1.87,1.11-3.35,2.91-3.35a2.64,2.64,0,0,1,2.57,2.93,4.59,4.59,0,0,1,0,.52Zm3.31-.8a1.62,1.62,0,0,0-1.57-1.84,1.87,1.87,0,0,0-1.73,1.84Z"/><path class="cls-2" d="M443.82,141.51c0-.65,0-1.17-.05-1.68h1l.07,1h0a2.29,2.29,0,0,1,2.05-1.17c.86,0,2.19.52,2.19,2.65V146H448v-3.58c0-1-.38-1.83-1.44-1.83a1.61,1.61,0,0,0-1.51,1.15,1.74,1.74,0,0,0-.08.53V146h-1.13Z"/><path class="cls-2" d="M456.28,139.83c0,.44,0,.94,0,1.7v3.6a3.6,3.6,0,0,1-.88,2.84,3.32,3.32,0,0,1-2.26.74,4,4,0,0,1-2.06-.51l.28-.86a3.56,3.56,0,0,0,1.82.48c1.15,0,2-.6,2-2.16V145h0a2.21,2.21,0,0,1-2,1,2.77,2.77,0,0,1-2.64-3c0-2.1,1.37-3.3,2.79-3.3a2.07,2.07,0,0,1,1.94,1.08h0l.05-.93Zm-1.16,2.44a1.66,1.66,0,0,0-.07-.51,1.62,1.62,0,0,0-1.57-1.19c-1.08,0-1.85.91-1.85,2.35,0,1.21.62,2.22,1.83,2.22A1.65,1.65,0,0,0,455,144a2.08,2.08,0,0,0,.09-.6Z"/><path class="cls-2" d="M459.46,138v1.79h1.62v.85h-1.62V144c0,.77.22,1.2.85,1.2a2.49,2.49,0,0,0,.65-.07l.05.84a2.69,2.69,0,0,1-1,.16,1.55,1.55,0,0,1-1.21-.48,2.28,2.28,0,0,1-.44-1.61v-3.39h-1v-.85h1v-1.49Z"/><path class="cls-2" d="M462.35,136.93h1.13v3.87h0a2.05,2.05,0,0,1,.81-.79,2.24,2.24,0,0,1,1.15-.33c.84,0,2.17.52,2.17,2.66V146H466.5v-3.56c0-1-.37-1.85-1.44-1.85a1.62,1.62,0,0,0-1.51,1.13,1.45,1.45,0,0,0-.07.54V146h-1.13Z"/><path class="cls-2" d="M475.31,146v-2.27h-3.87V143l3.71-5.32h1.22v5.18h1.17v.88h-1.17V146Zm0-3.15v-2.79c0-.43,0-.87,0-1.3h0c-.26.48-.46.84-.69,1.23l-2,2.83v0Z"/><path class="cls-2" d="M481.88,146v-2.27H478V143l3.72-5.32H483v5.18h1.16v.88H483V146Zm0-3.15v-2.79c0-.43,0-.87,0-1.3h0c-.25.48-.46.84-.69,1.23l-2,2.83v0Z"/><path class="cls-2" d="M485.06,145.36a.75.75,0,0,1,.77-.8.75.75,0,0,1,.76.8.77.77,0,1,1-1.53,0Z"/><path class="cls-2" d="M490.08,138.75h0l-1.45.78-.22-.86,1.82-1h1V146h-1.08Z"/><path class="cls-2" d="M499,138.49a4.41,4.41,0,0,0-.85,0,3.38,3.38,0,0,0-2.89,3h0a2.54,2.54,0,0,1,4.53,1.73,2.79,2.79,0,0,1-2.77,2.93c-1.78,0-2.95-1.38-2.95-3.55a5.25,5.25,0,0,1,1.41-3.76,4.55,4.55,0,0,1,2.67-1.23,5.42,5.42,0,0,1,.82-.06Zm-.32,4.81a1.69,1.69,0,0,0-1.72-1.91,1.83,1.83,0,0,0-1.61,1,.9.9,0,0,0-.13.5c0,1.37.65,2.38,1.83,2.38C498,145.3,498.64,144.49,498.64,143.3Z"/><path class="cls-2" d="M422.7,160.05a3.93,3.93,0,0,0,2,.57c1.14,0,1.8-.6,1.8-1.48s-.46-1.26-1.62-1.71c-1.41-.5-2.28-1.23-2.28-2.45s1.11-2.35,2.79-2.35a3.92,3.92,0,0,1,1.91.43L427,154a3.37,3.37,0,0,0-1.64-.41c-1.18,0-1.63.7-1.63,1.29,0,.81.53,1.21,1.72,1.67,1.46.56,2.21,1.27,2.21,2.53s-1,2.49-3,2.49a4.43,4.43,0,0,1-2.2-.55Z"/><path class="cls-2" d="M434.81,158.26a3,3,0,0,1-3.09,3.29,3,3,0,0,1-3-3.19,3,3,0,0,1,3.08-3.29A2.93,2.93,0,0,1,434.81,158.26Zm-4.92.06c0,1.36.78,2.39,1.88,2.39s1.89-1,1.89-2.41c0-1.05-.53-2.39-1.86-2.39S429.89,157.14,429.89,158.32Z"/><path class="cls-2" d="M436.35,161.41v-5.34h-.87v-.86h.87v-.29a2.9,2.9,0,0,1,.72-2.17,2.16,2.16,0,0,1,1.51-.58,2.6,2.6,0,0,1,1,.18l-.15.87a1.83,1.83,0,0,0-.72-.14c-1,0-1.2.85-1.2,1.8v.33H439v.86h-1.49v5.34Z"/><path class="cls-2" d="M441.48,153.43v1.78h1.61v.86h-1.61v3.34c0,.77.22,1.21.84,1.21a2.44,2.44,0,0,0,.66-.08l0,.85a2.8,2.8,0,0,1-1,.15,1.55,1.55,0,0,1-1.22-.47,2.33,2.33,0,0,1-.43-1.62v-3.38h-1v-.86h1v-1.49Z"/><path class="cls-2" d="M444.36,156.89c0-.64,0-1.17-.05-1.68h1l.06,1h0a2.29,2.29,0,0,1,2.05-1.17c.86,0,2.19.51,2.19,2.64v3.7h-1.12v-3.57c0-1-.38-1.84-1.44-1.84a1.6,1.6,0,0,0-1.51,1.16,1.62,1.62,0,0,0-.08.52v3.73h-1.13Z"/><path class="cls-2" d="M452.11,158.52a2,2,0,0,0,2.12,2.15,4.06,4.06,0,0,0,1.72-.32l.19.81a5,5,0,0,1-2.06.38,2.88,2.88,0,0,1-3.05-3.13c0-1.87,1.1-3.34,2.91-3.34A2.63,2.63,0,0,1,456.5,158a3.26,3.26,0,0,1,0,.53Zm3.3-.81a1.6,1.6,0,0,0-1.56-1.83,1.87,1.87,0,0,0-1.73,1.83Z"/><path class="cls-2" d="M457.75,160.26a2.91,2.91,0,0,0,1.48.45c.82,0,1.21-.41,1.21-.92s-.32-.84-1.16-1.15c-1.11-.39-1.64-1-1.64-1.75a1.91,1.91,0,0,1,2.14-1.82,3.18,3.18,0,0,1,1.53.38l-.28.82a2.5,2.5,0,0,0-1.27-.36c-.67,0-1,.39-1,.85s.37.74,1.18,1.05c1.08.41,1.63.95,1.63,1.87,0,1.09-.85,1.86-2.32,1.86a3.54,3.54,0,0,1-1.75-.42Z"/><path class="cls-2" d="M462.82,160.26a3,3,0,0,0,1.49.45c.82,0,1.2-.41,1.2-.92s-.32-.84-1.15-1.15c-1.11-.39-1.64-1-1.64-1.75a1.91,1.91,0,0,1,2.14-1.82,3.18,3.18,0,0,1,1.53.38l-.29.82a2.43,2.43,0,0,0-1.27-.36c-.66,0-1,.39-1,.85s.37.74,1.18,1.05c1.07.41,1.62.95,1.62,1.87,0,1.09-.84,1.86-2.32,1.86a3.5,3.5,0,0,1-1.74-.42Z"/><path class="cls-2" d="M467.78,156.24a.77.77,0,1,1,.76.79A.76.76,0,0,1,467.78,156.24Zm0,4.52a.77.77,0,1,1,1.53,0,.77.77,0,1,1-1.53,0Z"/><path class="cls-2" d="M476.55,161.41v-2.27h-3.87v-.74l3.72-5.32h1.21v5.18h1.17v.88h-1.17v2.27Zm0-3.15v-2.78c0-.44,0-.87,0-1.31h0c-.26.49-.46.85-.69,1.23l-2,2.83v0Z"/><path class="cls-2" d="M479.73,160.75a.76.76,0,0,1,.77-.81.81.81,0,1,1-.77.81Z"/><path class="cls-2" d="M482.29,161.41v-.69l.89-.86c2.13-2,3.09-3.1,3.1-4.36a1.48,1.48,0,0,0-1.65-1.62,2.82,2.82,0,0,0-1.77.7l-.36-.79a3.66,3.66,0,0,1,2.36-.85,2.35,2.35,0,0,1,2.55,2.42c0,1.54-1.12,2.78-2.87,4.48l-.67.61v0h3.74v.93Z"/><path class="cls-2" d="M494.28,153.08v.75l-3.63,7.58h-1.16L493.1,154v0H489v-.94Z"/><path class="cls-2" d="M501,157.16c0,2.83-1.05,4.39-2.89,4.39-1.63,0-2.73-1.52-2.76-4.28s1.21-4.33,2.9-4.33S501,154.51,501,157.16Zm-4.52.13c0,2.16.67,3.39,1.69,3.39s1.71-1.34,1.71-3.47-.53-3.4-1.7-3.4C497.18,153.81,496.46,155,496.46,157.29Z"/><path class="cls-2" d="M494.53,363.43a9,9,0,1,1-9-9,9,9,0,0,1,9,9"/><line class="cls-6" x1="308.65" y1="612.77" x2="367.54" y2="612.77"/><polygon class="cls-2" points="376.59 612.77 363.84 617.99 366.87 612.77 363.84 607.56 376.59 612.77"/></g></g></svg>