<svg xmlns="http://www.w3.org/2000/svg" viewBox="0 0 557.89 201.72"><defs><style>.cls-1{fill:#53575a;}.cls-2{fill:#ff8300;}.cls-3{fill:#153a49;}</style></defs><g id="Layer_2" data-name="Layer 2"><g id="Layer_1-2" data-name="Layer 1"><path class="cls-1" d="M106.84,186.65a8.33,8.33,0,0,1,.57-3.12,7.68,7.68,0,0,1,1.6-2.47,7.19,7.19,0,0,1,2.47-1.61,8.22,8.22,0,0,1,3.13-.58,8.14,8.14,0,0,1,3.12.58,7.29,7.29,0,0,1,2.47,1.61,7.39,7.39,0,0,1,1.61,2.47,8.68,8.68,0,0,1,0,6.24,7.22,7.22,0,0,1-4.08,4.08,8.33,8.33,0,0,1-3.12.57,8.42,8.42,0,0,1-3.13-.57,7.22,7.22,0,0,1-2.47-1.62,7.53,7.53,0,0,1-1.6-2.46A8.33,8.33,0,0,1,106.84,186.65Zm1.92,0a6.79,6.79,0,0,0,.4,2.35,5.36,5.36,0,0,0,1.17,1.92,5.72,5.72,0,0,0,1.85,1.3,6.42,6.42,0,0,0,4.87,0,5.72,5.72,0,0,0,1.85-1.3,5.51,5.51,0,0,0,1.17-1.92,7.1,7.1,0,0,0,0-4.7,5.51,5.51,0,0,0-1.17-1.92,5.57,5.57,0,0,0-1.85-1.3,6.42,6.42,0,0,0-4.87,0,5.57,5.57,0,0,0-1.85,1.3,5.36,5.36,0,0,0-1.17,1.92A6.75,6.75,0,0,0,108.76,186.65Z"/><path class="cls-1" d="M127.32,183.42c0-.28,0-.62,0-1s0-.8-.05-1.2,0-.79,0-1.14,0-.62,0-.81h1.92c0,.55,0,1.08,0,1.6a4.45,4.45,0,0,0,.08,1h.09a5.3,5.3,0,0,1,1.92-2.1,5.66,5.66,0,0,1,3.14-.88,6.16,6.16,0,0,1,2.81.55,4.49,4.49,0,0,1,1.72,1.42,5.45,5.45,0,0,1,.86,2,11.62,11.62,0,0,1,.24,2.37V194h-1.92v-8.7a9.19,9.19,0,0,0-.16-1.75,4.68,4.68,0,0,0-.56-1.52,3,3,0,0,0-1.12-1.07,3.79,3.79,0,0,0-1.87-.4,5.34,5.34,0,0,0-2,.37,4.18,4.18,0,0,0-1.63,1.12,5.43,5.43,0,0,0-1.09,1.89,7.9,7.9,0,0,0-.4,2.67V194h-1.92Z"/><path class="cls-1" d="M158.81,198.62a5.62,5.62,0,0,1-1.51,2.27,3.79,3.79,0,0,1-2.56.83,6.22,6.22,0,0,1-1-.08,7,7,0,0,1-.93-.21l.2-1.79c.27.09.56.17.84.24a3.79,3.79,0,0,0,.88.11,1.87,1.87,0,0,0,.92-.22,2.36,2.36,0,0,0,.68-.58,3.47,3.47,0,0,0,.5-.78c.14-.29.26-.58.37-.88l1.34-3.43-6-14.84h2.14l4.9,12.44,4.76-12.44h2Z"/><path class="cls-1" d="M169.27,186.65a8.14,8.14,0,0,1,.58-3.12,7.36,7.36,0,0,1,1.6-2.47,7.06,7.06,0,0,1,2.46-1.61,8.28,8.28,0,0,1,3.14-.58,8.14,8.14,0,0,1,3.12.58,7.25,7.25,0,0,1,2.46,1.61,7.57,7.57,0,0,1,1.62,2.47,8.82,8.82,0,0,1,0,6.24,7.42,7.42,0,0,1-1.62,2.46,7.27,7.27,0,0,1-2.46,1.62,8.33,8.33,0,0,1-3.12.57,8.47,8.47,0,0,1-3.14-.57,7.08,7.08,0,0,1-2.46-1.62,7.22,7.22,0,0,1-1.6-2.46A8.14,8.14,0,0,1,169.27,186.65Zm1.92,0a6.79,6.79,0,0,0,.4,2.35,5.51,5.51,0,0,0,1.17,1.92,5.72,5.72,0,0,0,1.85,1.3,6.42,6.42,0,0,0,4.87,0,5.72,5.72,0,0,0,1.85-1.3A5.23,5.23,0,0,0,182.5,189a7.1,7.1,0,0,0,0-4.7,5.23,5.23,0,0,0-1.17-1.92,5.57,5.57,0,0,0-1.85-1.3,6.42,6.42,0,0,0-4.87,0,5.57,5.57,0,0,0-1.85,1.3,5.51,5.51,0,0,0-1.17,1.92A6.75,6.75,0,0,0,171.19,186.65Z"/><path class="cls-1" d="M202.26,189.88c0,.28,0,.61,0,1s0,.79.05,1.2,0,.78,0,1.13,0,.63,0,.82H200.5c0-.55,0-1.09-.05-1.6a4.45,4.45,0,0,0-.08-1h-.09a5.21,5.21,0,0,1-1.92,2.09,5.58,5.58,0,0,1-3.14.88,6.46,6.46,0,0,1-2.83-.54,4.54,4.54,0,0,1-1.73-1.42,5.32,5.32,0,0,1-.85-2,12.19,12.19,0,0,1-.22-2.36v-8.8h1.92V188a9,9,0,0,0,.16,1.74,4.52,4.52,0,0,0,.56,1.52,3,3,0,0,0,1.12,1.08,3.9,3.9,0,0,0,1.87.4,5.55,5.55,0,0,0,2-.37,4.29,4.29,0,0,0,1.63-1.12,5.28,5.28,0,0,0,1.09-1.89,8,8,0,0,0,.4-2.67v-7.39h1.92Z"/><path class="cls-1" d="M208.15,183.42c0-.28,0-.62,0-1s0-.8-.05-1.2,0-.79,0-1.14,0-.62,0-.81h1.92c0,.55,0,1.08.05,1.6a4.45,4.45,0,0,0,.08,1,6.56,6.56,0,0,1,1.89-2.15,4.68,4.68,0,0,1,2.81-.83,3.43,3.43,0,0,1,.56,0l.56.11-.22,1.89a2.22,2.22,0,0,0-.74-.13,5.48,5.48,0,0,0-2.16.4,4,4,0,0,0-1.5,1.11,4.48,4.48,0,0,0-.88,1.64,7,7,0,0,0-.29,2V194h-1.92Z"/><path class="cls-1" d="M228.37,183.42c0-.28,0-.62,0-1s0-.8-.05-1.2,0-.79,0-1.14,0-.62,0-.81h1.92c0,.55,0,1.08.05,1.6a5.19,5.19,0,0,0,.08,1,6.56,6.56,0,0,1,1.89-2.15,4.73,4.73,0,0,1,2.82-.83,3.53,3.53,0,0,1,.56,0l.56.11-.23,1.89a2.17,2.17,0,0,0-.73-.13,5.41,5.41,0,0,0-2.16.4,4.15,4.15,0,0,0-1.51,1.11,4.63,4.63,0,0,0-.88,1.64,7,7,0,0,0-.29,2V194h-1.92Z"/><path class="cls-1" d="M252.12,191.26a6.48,6.48,0,0,1-2.77,2.43,8.82,8.82,0,0,1-3.63.73,7.92,7.92,0,0,1-3.07-.57,6.9,6.9,0,0,1-2.37-1.62,7,7,0,0,1-1.52-2.46,9.05,9.05,0,0,1-.53-3.15,8.56,8.56,0,0,1,.54-3.08,7.5,7.5,0,0,1,1.54-2.44,7.17,7.17,0,0,1,2.34-1.64,7.32,7.32,0,0,1,3-.59,7.19,7.19,0,0,1,3,.59,6.63,6.63,0,0,1,2.18,1.57,6.55,6.55,0,0,1,1.33,2.23,7.36,7.36,0,0,1,.45,2.52v1.35H240.15a6.6,6.6,0,0,0,.24,1.55,5.45,5.45,0,0,0,.88,1.84,5.68,5.68,0,0,0,1.71,1.54,5.43,5.43,0,0,0,2.77.64,6.2,6.2,0,0,0,2.85-.71,5.18,5.18,0,0,0,2.11-1.92Zm-1.47-5.86a4.5,4.5,0,0,0-.4-1.86,5.11,5.11,0,0,0-1.09-1.52,5.47,5.47,0,0,0-1.63-1,5.39,5.39,0,0,0-2-.38,4.85,4.85,0,0,0-2.61.64,5.67,5.67,0,0,0-1.65,1.47,5.82,5.82,0,0,0-.86,1.62,3.93,3.93,0,0,0-.26,1.07Z"/><path class="cls-1" d="M269.88,191.86a7,7,0,0,1-2.47,1.94,7,7,0,0,1-3,.62,8.47,8.47,0,0,1-3.14-.57,7.08,7.08,0,0,1-2.46-1.62,7.22,7.22,0,0,1-1.6-2.46,8.68,8.68,0,0,1,0-6.24,7.36,7.36,0,0,1,1.6-2.47,7.06,7.06,0,0,1,2.46-1.61,8.28,8.28,0,0,1,3.14-.58,7,7,0,0,1,3,.67,7.91,7.91,0,0,1,2.48,1.89l-1.53,1.15a6.88,6.88,0,0,0-1.83-1.45,4.49,4.49,0,0,0-2.14-.53,5.92,5.92,0,0,0-2.43.48,5.5,5.5,0,0,0-3,3.22,7.1,7.1,0,0,0,0,4.7,5.51,5.51,0,0,0,1.17,1.92,5.66,5.66,0,0,0,1.86,1.3,5.92,5.92,0,0,0,2.43.48,4.52,4.52,0,0,0,2.22-.56,6.07,6.07,0,0,0,1.75-1.49Z"/><path class="cls-1" d="M272.69,186.65a8.33,8.33,0,0,1,.58-3.12,7.52,7.52,0,0,1,1.6-2.47,7.06,7.06,0,0,1,2.46-1.61,8.28,8.28,0,0,1,3.14-.58,8.14,8.14,0,0,1,3.12.58,7.25,7.25,0,0,1,2.46,1.61,7.41,7.41,0,0,1,1.62,2.47,8.82,8.82,0,0,1,0,6.24,7.3,7.3,0,0,1-4.08,4.08,8.33,8.33,0,0,1-3.12.57,8.47,8.47,0,0,1-3.14-.57,7.08,7.08,0,0,1-2.46-1.62,7.37,7.37,0,0,1-1.6-2.46A8.33,8.33,0,0,1,272.69,186.65Zm1.92,0A7,7,0,0,0,275,189a5.51,5.51,0,0,0,1.17,1.92,5.66,5.66,0,0,0,1.86,1.3,6.39,6.39,0,0,0,4.86,0,5.76,5.76,0,0,0,1.86-1.3,5.51,5.51,0,0,0,1.17-1.92,7.28,7.28,0,0,0,0-4.7,5.51,5.51,0,0,0-1.17-1.92,5.62,5.62,0,0,0-1.86-1.3,6.39,6.39,0,0,0-4.86,0,5.5,5.5,0,0,0-3,3.22A7,7,0,0,0,274.61,186.65Z"/><path class="cls-1" d="M293.17,183.42c0-.28,0-.62,0-1s0-.8-.05-1.2,0-.79,0-1.14,0-.62,0-.81h1.92c0,.55,0,1.08.05,1.6a5.19,5.19,0,0,0,.08,1h.1a5.16,5.16,0,0,1,1.92-2.1,5.62,5.62,0,0,1,3.13-.88,6.24,6.24,0,0,1,2.82.55,4.53,4.53,0,0,1,1.71,1.42,5.29,5.29,0,0,1,.86,2,11.62,11.62,0,0,1,.24,2.37V194h-1.92v-8.7a9.19,9.19,0,0,0-.16-1.75,4.46,4.46,0,0,0-.56-1.52,2.89,2.89,0,0,0-1.12-1.07,3.79,3.79,0,0,0-1.87-.4,5.38,5.38,0,0,0-2,.37,4.26,4.26,0,0,0-1.63,1.12,5.43,5.43,0,0,0-1.09,1.89,8.16,8.16,0,0,0-.4,2.67V194h-1.92Z"/><path class="cls-1" d="M311.64,190.26a4.07,4.07,0,0,0,1.79,1.81,5.23,5.23,0,0,0,2.49.63,4,4,0,0,0,1.22-.2,3.59,3.59,0,0,0,1.09-.54,2.87,2.87,0,0,0,.78-.85,2.06,2.06,0,0,0,.31-1.13,1.82,1.82,0,0,0-.66-1.54,4.91,4.91,0,0,0-1.62-.8,19.92,19.92,0,0,0-2.11-.5,8.52,8.52,0,0,1-2.11-.64,4.4,4.4,0,0,1-1.62-1.2,3.27,3.27,0,0,1-.65-2.17,3.78,3.78,0,0,1,.45-1.89,4.14,4.14,0,0,1,1.16-1.33,5.07,5.07,0,0,1,1.62-.78,6.67,6.67,0,0,1,1.82-.26,7,7,0,0,1,3.16.67,4.7,4.7,0,0,1,2.06,2.12l-1.73,1a4,4,0,0,0-1.36-1.55,3.86,3.86,0,0,0-2.13-.53,3.81,3.81,0,0,0-1.07.16,4,4,0,0,0-1,.45,2.89,2.89,0,0,0-.75.73,1.81,1.81,0,0,0-.3,1,1.72,1.72,0,0,0,.65,1.47,5.06,5.06,0,0,0,1.62.75,20.19,20.19,0,0,0,2.11.47,8.1,8.1,0,0,1,2.11.62,4.32,4.32,0,0,1,1.62,1.25,3.6,3.6,0,0,1,.66,2.32,4.34,4.34,0,0,1-.44,2,4.05,4.05,0,0,1-1.18,1.42,5.31,5.31,0,0,1-1.71.87,7,7,0,0,1-2,.28,8.18,8.18,0,0,1-3.5-.73,5.33,5.33,0,0,1-2.45-2.27Z"/><path class="cls-1" d="M333.08,181h-4.23v9.64a2,2,0,0,0,.55,1.53,2,2,0,0,0,1.5.55,4.22,4.22,0,0,0,1.1-.15,6.24,6.24,0,0,0,1.08-.37l.16,1.73a10,10,0,0,1-1.25.35,5.55,5.55,0,0,1-1.25.16,4.66,4.66,0,0,1-1.76-.3,2.94,2.94,0,0,1-1.18-.82,3.19,3.19,0,0,1-.66-1.2,5,5,0,0,1-.21-1.48V181h-3.2v-1.72h3.2V175h1.92v4.26h4.23Z"/><path class="cls-1" d="M337.14,183.42c0-.28,0-.62,0-1s0-.8-.05-1.2,0-.79-.05-1.14,0-.62,0-.81h1.92c0,.55,0,1.08.05,1.6a5.19,5.19,0,0,0,.08,1,6.56,6.56,0,0,1,1.89-2.15,4.68,4.68,0,0,1,2.81-.83,3.43,3.43,0,0,1,.56,0l.56.11-.22,1.89a2.22,2.22,0,0,0-.74-.13,5.48,5.48,0,0,0-2.16.4,4,4,0,0,0-1.5,1.11,4.48,4.48,0,0,0-.88,1.64,7,7,0,0,0-.29,2V194h-1.92Z"/><path class="cls-1" d="M361,189.88c0,.28,0,.61,0,1s0,.79,0,1.2,0,.78.05,1.13,0,.63,0,.82h-1.92c0-.55,0-1.09-.05-1.6a5.19,5.19,0,0,0-.08-1H359a5.08,5.08,0,0,1-1.92,2.09,5.55,5.55,0,0,1-3.13.88,6.43,6.43,0,0,1-2.83-.54,4.47,4.47,0,0,1-1.73-1.42,5.17,5.17,0,0,1-.85-2,12.19,12.19,0,0,1-.22-2.36v-8.8h1.92V188a9,9,0,0,0,.16,1.74,4.31,4.31,0,0,0,.56,1.52A2.91,2.91,0,0,0,352,192.3a3.9,3.9,0,0,0,1.87.4,5.59,5.59,0,0,0,2-.37,4.37,4.37,0,0,0,1.63-1.12,5.43,5.43,0,0,0,1.09-1.89,8.24,8.24,0,0,0,.4-2.67v-7.39H361Z"/><path class="cls-1" d="M379.22,191.86a6.74,6.74,0,0,1-5.44,2.56,8.47,8.47,0,0,1-3.14-.57,7.08,7.08,0,0,1-2.46-1.62,7.37,7.37,0,0,1-1.6-2.46,8.68,8.68,0,0,1,0-6.24,7.52,7.52,0,0,1,1.6-2.47,7.06,7.06,0,0,1,2.46-1.61,8.28,8.28,0,0,1,3.14-.58,6.92,6.92,0,0,1,3,.67,7.91,7.91,0,0,1,2.48,1.89l-1.53,1.15a6.88,6.88,0,0,0-1.83-1.45,4.49,4.49,0,0,0-2.14-.53,5.92,5.92,0,0,0-2.43.48,5.5,5.5,0,0,0-3,3.22,7.1,7.1,0,0,0,0,4.7,5.51,5.51,0,0,0,1.17,1.92,5.66,5.66,0,0,0,1.86,1.3,5.92,5.92,0,0,0,2.43.48,4.52,4.52,0,0,0,2.22-.56,5.81,5.81,0,0,0,1.75-1.49Z"/><path class="cls-1" d="M390.1,181h-4.22v9.64a2.07,2.07,0,0,0,.54,1.53,2,2,0,0,0,1.5.55,4.3,4.3,0,0,0,1.11-.15,6.44,6.44,0,0,0,1.07-.37l.16,1.73a9.57,9.57,0,0,1-1.25.35,5.48,5.48,0,0,1-1.25.16,4.66,4.66,0,0,1-1.76-.3,3,3,0,0,1-1.18-.82,3.19,3.19,0,0,1-.66-1.2,5,5,0,0,1-.2-1.48V181h-3.2v-1.72H384V175h1.92v4.26h4.22Z"/><path class="cls-1" d="M394,173.4a1.37,1.37,0,0,1,.42-1,1.46,1.46,0,0,1,2.05,0,1.4,1.4,0,0,1,.41,1,1.44,1.44,0,0,1-2.46,1A1.36,1.36,0,0,1,394,173.4Zm.48,5.86h1.92V194h-1.92Z"/><path class="cls-1" d="M401.65,186.65a8.14,8.14,0,0,1,.58-3.12,7.36,7.36,0,0,1,1.6-2.47,7.06,7.06,0,0,1,2.46-1.61,8.28,8.28,0,0,1,3.14-.58,8.14,8.14,0,0,1,3.12.58,7.25,7.25,0,0,1,2.46,1.61,7.57,7.57,0,0,1,1.62,2.47,8.82,8.82,0,0,1,0,6.24,7.42,7.42,0,0,1-1.62,2.46,7.27,7.27,0,0,1-2.46,1.62,8.33,8.33,0,0,1-3.12.57,8.47,8.47,0,0,1-3.14-.57,7.08,7.08,0,0,1-2.46-1.62,7.22,7.22,0,0,1-1.6-2.46A8.14,8.14,0,0,1,401.65,186.65Zm1.92,0A6.79,6.79,0,0,0,404,189a5.51,5.51,0,0,0,1.17,1.92,5.72,5.72,0,0,0,1.85,1.3,6.42,6.42,0,0,0,4.87,0,5.72,5.72,0,0,0,1.85-1.3,5.23,5.23,0,0,0,1.17-1.92,7.1,7.1,0,0,0,0-4.7,5.23,5.23,0,0,0-1.17-1.92,5.57,5.57,0,0,0-1.85-1.3,6.42,6.42,0,0,0-4.87,0,5.57,5.57,0,0,0-1.85,1.3A5.51,5.51,0,0,0,404,184.3,6.75,6.75,0,0,0,403.57,186.65Z"/><path class="cls-1" d="M422.13,183.42c0-.28,0-.62,0-1s0-.8-.05-1.2,0-.79-.05-1.14,0-.62,0-.81h1.92c0,.55,0,1.08.05,1.6a5.19,5.19,0,0,0,.08,1h.09a5.3,5.3,0,0,1,1.92-2.1,5.68,5.68,0,0,1,3.14-.88,6.24,6.24,0,0,1,2.82.55,4.53,4.53,0,0,1,1.71,1.42,5.45,5.45,0,0,1,.86,2,11.62,11.62,0,0,1,.24,2.37V194h-1.92v-8.7a9.19,9.19,0,0,0-.16-1.75,4.46,4.46,0,0,0-.56-1.52A2.89,2.89,0,0,0,431,181a3.79,3.79,0,0,0-1.87-.4,5.38,5.38,0,0,0-2,.37,4.26,4.26,0,0,0-1.63,1.12,5.43,5.43,0,0,0-1.09,1.89,7.9,7.9,0,0,0-.4,2.67V194h-1.92Z"/><path class="cls-1" d="M451.76,196.63a11.91,11.91,0,0,1-.17,2.08,4,4,0,0,1-.66,1.6,3.06,3.06,0,0,1-1.3,1,5,5,0,0,1-2.09.37,4.42,4.42,0,0,1-1.54-.29l.29-1.69a3.45,3.45,0,0,0,1.22.25,2.44,2.44,0,0,0,1.23-.27,1.88,1.88,0,0,0,.7-.7,2.85,2.85,0,0,0,.32-1,8,8,0,0,0,.08-1.22V179.26h1.92Zm-2.4-23.23a1.37,1.37,0,0,1,.42-1,1.46,1.46,0,0,1,2.05,0,1.4,1.4,0,0,1,.41,1,1.44,1.44,0,0,1-2.46,1A1.36,1.36,0,0,1,449.36,173.4Z"/><path class="cls-1" d="M457,186.65a8.14,8.14,0,0,1,.58-3.12,7.36,7.36,0,0,1,1.6-2.47,7.06,7.06,0,0,1,2.46-1.61,8.28,8.28,0,0,1,3.14-.58,8.14,8.14,0,0,1,3.12.58,7.25,7.25,0,0,1,2.46,1.61,7.57,7.57,0,0,1,1.62,2.47,8.82,8.82,0,0,1,0,6.24,7.42,7.42,0,0,1-1.62,2.46,7.27,7.27,0,0,1-2.46,1.62,8.33,8.33,0,0,1-3.12.57,8.47,8.47,0,0,1-3.14-.57,7.08,7.08,0,0,1-2.46-1.62,7.22,7.22,0,0,1-1.6-2.46A8.14,8.14,0,0,1,457,186.65Zm1.92,0a6.79,6.79,0,0,0,.4,2.35,5.51,5.51,0,0,0,1.17,1.92,5.72,5.72,0,0,0,1.85,1.3,6.42,6.42,0,0,0,4.87,0,5.72,5.72,0,0,0,1.85-1.3,5.23,5.23,0,0,0,1.17-1.92,7.1,7.1,0,0,0,0-4.7,5.23,5.23,0,0,0-1.17-1.92,5.57,5.57,0,0,0-1.85-1.3,6.42,6.42,0,0,0-4.87,0,5.57,5.57,0,0,0-1.85,1.3,5.51,5.51,0,0,0-1.17,1.92A6.75,6.75,0,0,0,458.93,186.65Z"/><path class="cls-1" d="M490,189.88c0,.28,0,.61,0,1s0,.79.05,1.2,0,.78.05,1.13,0,.63,0,.82h-1.92c0-.55,0-1.09-.05-1.6a4.45,4.45,0,0,0-.08-1H488a5.21,5.21,0,0,1-1.92,2.09,5.58,5.58,0,0,1-3.14.88,6.46,6.46,0,0,1-2.83-.54,4.54,4.54,0,0,1-1.73-1.42,5.32,5.32,0,0,1-.85-2,13,13,0,0,1-.22-2.36v-8.8h1.92V188a9,9,0,0,0,.16,1.74,4.52,4.52,0,0,0,.56,1.52,3,3,0,0,0,1.12,1.08,3.9,3.9,0,0,0,1.87.4,5.55,5.55,0,0,0,2-.37,4.29,4.29,0,0,0,1.63-1.12,5.28,5.28,0,0,0,1.09-1.89,8,8,0,0,0,.4-2.67v-7.39H490Z"/><path class="cls-1" d="M495.92,183.42c0-.28,0-.62,0-1s0-.8-.05-1.2,0-.79,0-1.14,0-.62,0-.81h1.92c0,.55,0,1.08.05,1.6a5.19,5.19,0,0,0,.08,1,6.56,6.56,0,0,1,1.89-2.15,4.72,4.72,0,0,1,2.81-.83,3.33,3.33,0,0,1,.56,0l.56.11-.22,1.89a2.22,2.22,0,0,0-.74-.13,5.48,5.48,0,0,0-2.16.4,4.2,4.2,0,0,0-1.5,1.11,4.48,4.48,0,0,0-.88,1.64,7,7,0,0,0-.29,2V194h-1.92Z"/><path class="cls-1" d="M507.22,183.42c0-.28,0-.62,0-1s0-.8-.05-1.2,0-.79-.05-1.14,0-.62,0-.81H509c0,.55,0,1.08,0,1.6a4.45,4.45,0,0,0,.08,1h.09a5.3,5.3,0,0,1,1.92-2.1,5.66,5.66,0,0,1,3.14-.88,6.16,6.16,0,0,1,2.81.55,4.49,4.49,0,0,1,1.72,1.42,5.45,5.45,0,0,1,.86,2,11.62,11.62,0,0,1,.24,2.37V194H518v-8.7a9.19,9.19,0,0,0-.16-1.75,4.68,4.68,0,0,0-.56-1.52,3,3,0,0,0-1.12-1.07,3.79,3.79,0,0,0-1.87-.4,5.34,5.34,0,0,0-2,.37,4.18,4.18,0,0,0-1.63,1.12,5.28,5.28,0,0,0-1.09,1.89,7.9,7.9,0,0,0-.4,2.67V194h-1.92Z"/><path class="cls-1" d="M538.71,191.26a6.48,6.48,0,0,1-2.77,2.43,8.82,8.82,0,0,1-3.63.73,8,8,0,0,1-3.08-.57,7,7,0,0,1-3.88-4.08,8.83,8.83,0,0,1-.53-3.15,8.56,8.56,0,0,1,.54-3.08,7.34,7.34,0,0,1,1.54-2.44,7.24,7.24,0,0,1,2.33-1.64,7.41,7.41,0,0,1,3-.59,7.19,7.19,0,0,1,3,.59,6.63,6.63,0,0,1,2.18,1.57,6.72,6.72,0,0,1,1.33,2.23,7.6,7.6,0,0,1,.44,2.52v1.35H526.74a6.6,6.6,0,0,0,.24,1.55,5.26,5.26,0,0,0,5.36,4,6.2,6.2,0,0,0,2.85-.71,5.18,5.18,0,0,0,2.11-1.92Zm-1.48-5.86a4.35,4.35,0,0,0-.4-1.86,5.08,5.08,0,0,0-1.08-1.52,5.3,5.3,0,0,0-3.64-1.42,4.84,4.84,0,0,0-2.6.64,5.67,5.67,0,0,0-1.65,1.47,5.87,5.87,0,0,0-.87,1.62,4.2,4.2,0,0,0-.25,1.07Z"/><path class="cls-1" d="M548.24,198.62a5.51,5.51,0,0,1-1.5,2.27,3.81,3.81,0,0,1-2.56.83,6.22,6.22,0,0,1-1-.08,7,7,0,0,1-.93-.21l.19-1.79c.28.09.56.17.85.24a3.72,3.72,0,0,0,.88.11,1.8,1.8,0,0,0,.91-.22,2.27,2.27,0,0,0,.69-.58,3.85,3.85,0,0,0,.5-.78,7.39,7.39,0,0,0,.36-.88L548,194.1l-6-14.84h2.15L549,191.7l4.77-12.44h2.05Z"/><rect class="cls-2" x="197.43" y="150.55" width="264" height="1"/><path class="cls-3" d="M145.87,99.79a25.07,25.07,0,0,0-7.48-5.89l-9.89-5.07q-7.32-4.12-10.75-8.3c-2.3-2.78-3.57-5.41-3.83-7.87a8.81,8.81,0,0,1,1.8-6.54A12.43,12.43,0,0,1,121.87,62a17.75,17.75,0,0,1,2.88-.65,21.62,21.62,0,0,1,3-.21,19.28,19.28,0,0,1,6.71,1.16,17.34,17.34,0,0,1,5.68,3.39,21.24,21.24,0,0,1,2.4,2.71,22.64,22.64,0,0,1,2.15,3.44,20.88,20.88,0,0,1,1.51,3.83,14,14,0,0,1,.56,3.78h.69V60.79h-.61a5.41,5.41,0,0,1-2.4,2.32,6.21,6.21,0,0,1-2.93.52,12.07,12.07,0,0,1-3.09-.6c-1-.35-2-.69-2.93-1a20.72,20.72,0,0,0-7.74-1.47,23.9,23.9,0,0,0-3.52.26,15.09,15.09,0,0,0-3.44,1,23.35,23.35,0,0,0-6.58,3.7,18.57,18.57,0,0,0-4.6,5.33,16,16,0,0,0-2.07,6.45,15,15,0,0,0,1,6.92A20.33,20.33,0,0,0,113,90.93a31.7,31.7,0,0,0,8.6,6.07l10.83,5.59a17.1,17.1,0,0,1,7.05,6.23,13.28,13.28,0,0,1,2,7.31,12.78,12.78,0,0,1-2.27,6.84,14.06,14.06,0,0,1-5.85,4.9,23.58,23.58,0,0,1-7.31,1.46h-.78a21.21,21.21,0,0,1-7.31-1.42,20.49,20.49,0,0,1-6.19-3.74,11.81,11.81,0,0,1-2.49-3.18,25.33,25.33,0,0,1-1.89-4.17,30.84,30.84,0,0,1-1.21-4.39,20.6,20.6,0,0,1-.43-4h-.69v21.75h.61v-.08a10.52,10.52,0,0,1,.51-1.16,3.61,3.61,0,0,1,1.59-1.55,7.26,7.26,0,0,1,3.31-.69A15.84,15.84,0,0,1,116.8,128a6.89,6.89,0,0,0,.86.35,19.85,19.85,0,0,0,7.48,1.46H126c.4,0,.79,0,1.16,0s.79-.07,1.25-.13h-.17A33.86,33.86,0,0,0,139,126.54a23.42,23.42,0,0,0,7.18-5.42,16,16,0,0,0,3.57-6.84,15.4,15.4,0,0,0-.09-7.39A18.08,18.08,0,0,0,145.87,99.79Z"/><path class="cls-3" d="M215.18,79.11v.17h.6V61.22H157.3V79.28h.61v-.17c.4-1.78.88-3.63,1.46-5.55A18.74,18.74,0,0,1,162,68.19,14.49,14.49,0,0,1,166.51,64,16.83,16.83,0,0,1,174,61.91h.51a18.38,18.38,0,0,1,3.62.6,5.27,5.27,0,0,1,2.36,1.38,5.47,5.47,0,0,1,1.29,2.49,16.6,16.6,0,0,1,.39,4V121a14.82,14.82,0,0,1-.52,4.39A5.26,5.26,0,0,1,180,128a6.5,6.5,0,0,1-3.19,1.24,32.74,32.74,0,0,1-4.94.31v.6h29.93v-.6H199.1a14,14,0,0,1-3.61-.56,5.65,5.65,0,0,1-2.37-1.42,5.51,5.51,0,0,1-1.29-2.54,17.29,17.29,0,0,1-.38-3.91V70.25q0-4.47,1.5-6.23c1-1.18,2.77-1.88,5.29-2.11H199A17.18,17.18,0,0,1,206.54,64a14.07,14.07,0,0,1,4.56,4.22,19.42,19.42,0,0,1,2.53,5.37C214.21,75.48,214.72,77.33,215.18,79.11Z"/><path class="cls-3" d="M277,127.83a11.64,11.64,0,0,1-2.58-3A37.55,37.55,0,0,1,271.6,119L248.55,61.39h-.69l-23.13,57.8a16.77,16.77,0,0,1-3.7,5.93,17.56,17.56,0,0,1-4.09,3,10.22,10.22,0,0,1-3.35,1.16l-1.5.18v.6h23v-.6l-1.12,0a15.14,15.14,0,0,1-2.45-.34,15.81,15.81,0,0,1-2.93-1,7.12,7.12,0,0,1-2.53-1.8,5.84,5.84,0,0,1-1.34-2.93,8.27,8.27,0,0,1,.74-4.34L232,102.85h24l6.36,16A24,24,0,0,1,264,124.9a3.41,3.41,0,0,1-.95,3.06,5.92,5.92,0,0,1-3.31,1.16c-1.46.14-3.22.27-5.29.39v.6h28.21v-.6l-3.05-.48A5.78,5.78,0,0,1,277,127.83Zm-44.81-25.59L244,72.92l11.7,29.32Z"/><path class="cls-3" d="M354.41,129.59a12.6,12.6,0,0,1-2.79-.56,17.18,17.18,0,0,1-3.27-1.37,8.7,8.7,0,0,1-2.88-2.54L329.3,102.67a19.59,19.59,0,0,0-4.6-4.73,12.93,12.93,0,0,0-3.82-1.8c1.54-.12,3-.26,4.42-.43a17.84,17.84,0,0,0,4-.95,20.57,20.57,0,0,0,6.88-3.7q5.25-4.56,5.25-12.29a17.54,17.54,0,0,0-1.33-6.93,14.58,14.58,0,0,0-3.92-5.37,21.92,21.92,0,0,0-6.88-3.7,35.34,35.34,0,0,0-10-1.29H286.56V62h2.75q4.31.26,6,2c1.12,1.17,1.68,3.34,1.68,6.49v50.65a14.82,14.82,0,0,1-.52,4.39,5.21,5.21,0,0,1-1.68,2.58,6.43,6.43,0,0,1-3.18,1.25,34.37,34.37,0,0,1-4.94.3h-.09v.6h30v-.6h-2.66a14,14,0,0,1-3.61-.56,5.59,5.59,0,0,1-2.37-1.42,5.47,5.47,0,0,1-1.29-2.49,16.78,16.78,0,0,1-.38-4V96.14h3.18a11.58,11.58,0,0,1,2,.17,6.52,6.52,0,0,1,1.93.69,9.44,9.44,0,0,1,2.06,1.5,19.75,19.75,0,0,1,2.37,2.71l21,29.07H356v-.6h-.08Q355.63,129.68,354.41,129.59Zm-45-34h-3.18V70.42a17.68,17.68,0,0,1,.34-3.78,5.55,5.55,0,0,1,1.16-2.49,5.41,5.41,0,0,1,2.11-1.47,11.41,11.41,0,0,1,3.18-.68h5.59a11.64,11.64,0,0,1,10.06,4.9q3.18,4.47,3.18,11.87a25.53,25.53,0,0,1-.6,5.71,20.65,20.65,0,0,1-1.63,4.69,15.13,15.13,0,0,1-1.85,2.54,13.26,13.26,0,0,1-1.94,1.76,12.28,12.28,0,0,1-7.22,2.15Z"/><path class="cls-3" d="M356,79.28h.61v-.17c.4-1.78.88-3.63,1.46-5.55a18.74,18.74,0,0,1,2.58-5.37A14.49,14.49,0,0,1,365.17,64a16.83,16.83,0,0,1,7.48-2.06h.51a18.38,18.38,0,0,1,3.62.6,5.27,5.27,0,0,1,2.36,1.38,5.47,5.47,0,0,1,1.29,2.49,16.6,16.6,0,0,1,.39,4V121a14.82,14.82,0,0,1-.52,4.39,5.21,5.21,0,0,1-1.68,2.58,6.42,6.42,0,0,1-3.18,1.24,32.83,32.83,0,0,1-4.94.31v.6h29.93v-.6h-2.67a14,14,0,0,1-3.61-.56,5.59,5.59,0,0,1-2.37-1.42,5.51,5.51,0,0,1-1.29-2.54,16.73,16.73,0,0,1-.38-3.91V70.25q0-4.47,1.5-6.23c1-1.18,2.77-1.88,5.29-2.11h.77A17.18,17.18,0,0,1,405.2,64a14.07,14.07,0,0,1,4.56,4.22,19.71,19.71,0,0,1,2.53,5.37c.58,1.92,1.09,3.77,1.55,5.55v.17h.6V61.22H356Z"/><path class="cls-3" d="M477.82,119.79a25.77,25.77,0,0,1-2.83,3.65,18.52,18.52,0,0,1-3.83,3.14,20.5,20.5,0,0,1-5,2.24,22.06,22.06,0,0,1-6.37.86h-9.54a13.9,13.9,0,0,1-3.61-.56,5.59,5.59,0,0,1-2.37-1.42,5.47,5.47,0,0,1-1.29-2.49,16.72,16.72,0,0,1-.39-4,10.39,10.39,0,0,0-.08-1.55V96.14h11.87a10.29,10.29,0,0,1,6.06,1.55,10.89,10.89,0,0,1,3.31,3.56,11.62,11.62,0,0,1,1.38,3.92,23.38,23.38,0,0,1,.25,2.49v.26H466v-24h-.61v.25a21.2,21.2,0,0,1-.25,2.41,11.46,11.46,0,0,1-1.34,3.79,11.14,11.14,0,0,1-3.18,3.56,9.77,9.77,0,0,1-5.8,1.68h-12.3V62h16.17a18.89,18.89,0,0,1,8.6,1.67,14.82,14.82,0,0,1,5.16,4.22,17.56,17.56,0,0,1,2.79,5.63q.9,3.09,1.59,5.93v.09h.6V61.48H422.87V62h2.75q4.31.26,6,2c1.12,1.17,1.68,3.34,1.68,6.49a3.12,3.12,0,0,0,0,.52,2.92,2.92,0,0,1,0,.51v49.62a15.21,15.21,0,0,1-.51,4.39,5.2,5.2,0,0,1-1.72,2.58,6.78,6.78,0,0,1-3.23,1.25,34.37,34.37,0,0,1-4.94.3v.6H479.8l2.5-20.47h-.61A29.28,29.28,0,0,1,477.82,119.79Z"/><path class="cls-3" d="M555.61,82.55a32.81,32.81,0,0,0-6.58-11,30.13,30.13,0,0,0-10.23-7.39,31.72,31.72,0,0,0-13.16-2.67h-37V62h2.67q4.29.26,6,2c1.14,1.17,1.72,3.34,1.72,6.49v50.65a15.16,15.16,0,0,1-.52,4.39,5.14,5.14,0,0,1-1.72,2.58,6.67,6.67,0,0,1-3.18,1.25,33.58,33.58,0,0,1-4.9.3v.6h36.89a33.29,33.29,0,0,0,13.16-2.67A29.6,29.6,0,0,0,549,120.13a32.89,32.89,0,0,0,6.58-11,40,40,0,0,0,0-26.62ZM546.54,109a38,38,0,0,1-5.08,10.84,26.6,26.6,0,0,1-3.56,4.13,24.69,24.69,0,0,1-4.09,3.09,20.33,20.33,0,0,1-10,2.67H516a14.29,14.29,0,0,1-3.7-.56A5.23,5.23,0,0,1,510,127.7a5.63,5.63,0,0,1-1.25-2.49,16.72,16.72,0,0,1-.39-4,7.15,7.15,0,0,0,0-.82,6.29,6.29,0,0,1,0-.73V70.42a17.68,17.68,0,0,1,.34-3.78,5.65,5.65,0,0,1,1.16-2.49,5.49,5.49,0,0,1,2.11-1.47,11.41,11.41,0,0,1,3.18-.68h9.55a20,20,0,0,1,9.2,2.66,24.22,24.22,0,0,1,4.09,3.1,26.14,26.14,0,0,1,3.56,4.13,36.35,36.35,0,0,1,5.08,10.83,47,47,0,0,1,1.8,13.16A46,46,0,0,1,546.54,109Z"/><path class="cls-2" d="M28.53,54q3.63-4.38,7.19-9.06a98.53,98.53,0,0,1,7.81-9.06q1.38-1.38,2.88-2.82A6.14,6.14,0,0,1,50,31.38a1.7,1.7,0,0,1,.94.87,1.46,1.46,0,0,1-.06,1.37,1.41,1.41,0,0,1-1.63,0A105.81,105.81,0,0,0,37.85,46.25Q32.66,53,27.66,60.12q-2,13.26-5.13,25.94a154.31,154.31,0,0,1-7.87,23.82,32,32,0,0,1-1.56,3.37c-.63,1.17-1.27,2.33-1.94,3.5-.42.75-.86,1.5-1.31,2.25a12.57,12.57,0,0,1-1.5,2,6.74,6.74,0,0,1-2,1.44,6.6,6.6,0,0,1-2.82.56c0,.08-.08,0-.25-.12a2.18,2.18,0,0,1-.81-.38,4.4,4.4,0,0,0-.81-.5,2,2,0,0,0-.63-.75,12.65,12.65,0,0,1-1-4.37,26.11,26.11,0,0,1,.19-4.69,41,41,0,0,1,.88-4.57c.37-1.5.73-2.87,1.06-4.12q1.25-4.12,2.75-7.94t3-7.31A195.71,195.71,0,0,1,23.16,61.62c.42-2.66.81-5.45,1.19-8.37s.64-5.87.81-8.87.39-6,.44-9.26a28.82,28.82,0,0,0-1.07-8.62A2.73,2.73,0,0,0,23,27.69a18.55,18.55,0,0,1-1.25,1.69A19.85,19.85,0,0,1,23,32.75a8.24,8.24,0,0,0,.75,1.75,1.41,1.41,0,0,1,0,1.62c-.66.26-1.14.15-1.43-.31a4.32,4.32,0,0,0-.94-1.06c-.25-.42-.52-.83-.81-1.25a6,6,0,0,1-.69-1.25,40.22,40.22,0,0,0-3.38,5q-1.5,2.63-3.25,5.13c-.5.66-1.1,1.56-1.81,2.68A19.49,19.49,0,0,1,9,48.19,8.36,8.36,0,0,1,6.1,50.25a3.59,3.59,0,0,1-3.44-.63,5.37,5.37,0,0,1-1.13-3.06,16.36,16.36,0,0,1,.19-3.68,22.43,22.43,0,0,1,.94-3.69C3.08,38,3.49,36.92,3.91,36a35.46,35.46,0,0,1,2.25-4.44A18.75,18.75,0,0,1,8.91,28a12.23,12.23,0,0,1,1.87-1.5,8.32,8.32,0,0,1,2.5-1.12,7.88,7.88,0,0,1,2.82-.26,6.29,6.29,0,0,1,2.68.88,6.18,6.18,0,0,0,1.44-1.38,11.11,11.11,0,0,1,1.5-1.56,5.23,5.23,0,0,1,1.88-1,3.94,3.94,0,0,1,2.43.19,4.72,4.72,0,0,1,1,.69,3.85,3.85,0,0,1,.75.81,7.71,7.71,0,0,1,1.32,2.81,19.42,19.42,0,0,1,.56,3.63c.08,1.29.12,2.64.12,4.06s0,2.79-.12,4.13c-.17,2.91-.33,5.7-.5,8.37S28.78,51.83,28.53,54ZM5.91,104.25q-1,3.25-1.75,6.87a17.61,17.61,0,0,0,.12,7.5,11.47,11.47,0,0,0,3.63-4.56q1.38-2.94,2.62-5.68a117.81,117.81,0,0,0,6.63-18.57Q19.79,80,21.91,69.38c0-.09,0-.09-.13,0q-4.62,8-8.87,16.5A102.27,102.27,0,0,0,5.91,104.25Zm5.87-73.13a25.84,25.84,0,0,0-3.93,6.19,28.67,28.67,0,0,0-2.19,8.07,34.42,34.42,0,0,0,5.69-7.63q2.43-4.38,5.18-8.37a3.26,3.26,0,0,0-2.75.37C13.12,30.25,12.45,30.71,11.78,31.12Z"/><path class="cls-2" d="M50.28,38.38a24.48,24.48,0,0,0-1.62,4.56,21.28,21.28,0,0,0-.75,5.5A9.37,9.37,0,0,0,49,53.12a4.42,4.42,0,0,0,4,2.13,12.39,12.39,0,0,0,6.19-1.37A55.58,55.58,0,0,0,64.28,51C66,49.83,67.51,48.69,69,47.56s2.77-2.23,3.94-3.31a71.72,71.72,0,0,0,6.19-5.37Q82,36,84.91,33a3.08,3.08,0,0,0,.81-1,10.77,10.77,0,0,1,.94-1.38,7.08,7.08,0,0,1,1.06-1.06,1,1,0,0,1,1.19-.06c.58.25.71.75.37,1.5a8.57,8.57,0,0,1-.87,1.62A4.63,4.63,0,0,1,87.66,34c-.34.42-.67.88-1,1.38Q83.53,39,80.1,42.25T73,48.75a50.92,50.92,0,0,1-10.5,7.5,27.87,27.87,0,0,1-3.12,1.44,18.07,18.07,0,0,1-3.63,1,16.69,16.69,0,0,1-3.81.19,7.66,7.66,0,0,1-3.56-1.13,5.72,5.72,0,0,1-1.31-1.19l-1.19-1.44a11.83,11.83,0,0,1-1.56-5.31,23.82,23.82,0,0,1,.37-5.93A38.22,38.22,0,0,1,48.28,33.5a52.73,52.73,0,0,1,5-7.38,14.68,14.68,0,0,1,7.63-4.74A6,6,0,0,1,65.1,22.5c1,.83,1.47,2.17,1.31,4a8.21,8.21,0,0,1-1.5,3.75,25.11,25.11,0,0,1-2.63,3.13,27.81,27.81,0,0,1-4.93,3.93C55.55,38.44,53.2,38.79,50.28,38.38ZM61.91,25a13,13,0,0,0-6.63,4.56A46.59,46.59,0,0,0,51,36.5a7.83,7.83,0,0,0,4.63-1.25,34.18,34.18,0,0,0,3.25-2.63c.91-1,1.87-2,2.87-3a5.38,5.38,0,0,0,1.38-4.24A1.35,1.35,0,0,0,61.91,25Z"/><path class="cls-2" d="M92.53,15.62q10.75-.36,22.38-1.12a165.12,165.12,0,0,1,23.12.12c.42,0,.88,0,1.38.07a1.08,1.08,0,0,1,1,.69c-.09.66-.4,1-.94,1a7.69,7.69,0,0,1-1.44-.13,225.5,225.5,0,0,0-23.12.19q-11.5.69-22.63,1.31Q90.53,28,89.09,38.62a155.38,155.38,0,0,0-1.31,22.26c0,1.08,0,2.29.13,3.62a25.17,25.17,0,0,0,.5,3.75,33.61,33.61,0,0,0,.81,3.37c.37,1.34.94,2,1.69,2.13a1.68,1.68,0,0,0,1.31-.37,12.26,12.26,0,0,0,1.37-1.19,12.88,12.88,0,0,0,1.25-1.44c.38-.5.65-.87.82-1.13a120.37,120.37,0,0,0,8.93-13.31q3.94-6.81,8.32-14.19,1.13-2,2.37-4.12c.83-1.42,1.75-2.83,2.75-4.25a11.71,11.71,0,0,1,1.13-1.44,1.09,1.09,0,0,1,1.25-.43c.66.33.79.85.37,1.56a18,18,0,0,1-1,1.56q-3.12,5.25-5.87,10.62T108,56.25c-1.17,1.92-2.31,3.86-3.44,5.81S102.28,66,101,67.88s-2.54,3.79-3.87,5.62A13.52,13.52,0,0,1,92,77.75a6.79,6.79,0,0,1-2.62,0,7.78,7.78,0,0,1-4.32-4.69A34,34,0,0,1,83.41,66a53.42,53.42,0,0,1-.63-8.31c0-2.88.09-5.69.25-8.44q.63-8.37,1.69-16.19t2.56-14.94q-5.75.25-11.69.88t-12.06.88c-.5,0-1.06,0-1.69.06s-1-.27-1.06-.94a.89.89,0,0,1,1-1,11.18,11.18,0,0,0,1.75-.12q5.88-.39,12-1T87.66,16q.75-2.62,1.68-6.19a52,52,0,0,1,2.19-6.56,9.61,9.61,0,0,1,.94-2.06A2,2,0,0,1,94.16,0a1.28,1.28,0,0,1,1.18.5,1.8,1.8,0,0,1,.25,1.19,8.6,8.6,0,0,1-.25,1.43c-.12.5-.23,1-.31,1.38-.42,1.83-.83,3.73-1.25,5.69S93,14,92.53,15.62Z"/><path class="cls-2" d="M126.66,15.62Q137.4,15.26,149,14.5a165.27,165.27,0,0,1,23.13.12c.41,0,.87,0,1.37.07a1.08,1.08,0,0,1,1,.69c-.08.66-.4,1-.94,1a7.5,7.5,0,0,1-1.43-.13,225.72,225.72,0,0,0-23.13.19q-11.5.69-22.62,1.31Q124.66,28,123.22,38.62a152.54,152.54,0,0,0-1.31,22.26c0,1.08,0,2.29.12,3.62a25.17,25.17,0,0,0,.5,3.75c.17.92.44,2,.81,3.37s.94,2,1.69,2.13a1.67,1.67,0,0,0,1.31-.37,13.29,13.29,0,0,0,1.38-1.19A14,14,0,0,0,129,70.75c.37-.5.64-.87.81-1.13a121.89,121.89,0,0,0,8.94-13.31q3.93-6.81,8.31-14.19,1.13-2,2.38-4.12c.83-1.42,1.75-2.83,2.75-4.25a11.62,11.62,0,0,1,1.12-1.44,1.09,1.09,0,0,1,1.25-.43c.67.33.79.85.38,1.56a18,18,0,0,1-1,1.56q-3.14,5.25-5.88,10.62t-5.87,10.63q-1.75,2.88-3.44,5.81c-1.13,2-2.31,3.9-3.56,5.82s-2.55,3.79-3.88,5.62a13.41,13.41,0,0,1-5.12,4.25,6.84,6.84,0,0,1-2.63,0,7.76,7.76,0,0,1-4.31-4.69A34,34,0,0,1,117.53,66a53.44,53.44,0,0,1-.62-8.31q0-4.32.25-8.44c.41-5.58,1-11,1.68-16.19s1.57-10.18,2.57-14.94q-5.76.25-11.69.88t-12.06.88c-.5,0-1.07,0-1.69.06s-1-.27-1.06-.94a.88.88,0,0,1,1-1,11.27,11.27,0,0,0,1.75-.12q5.86-.39,12-1T121.78,16q.75-2.62,1.69-6.19a48.94,48.94,0,0,1,2.19-6.56,9,9,0,0,1,.93-2.06A2,2,0,0,1,128.28,0a1.31,1.31,0,0,1,1.19.5,1.86,1.86,0,0,1,.25,1.19,9.77,9.77,0,0,1-.25,1.43c-.13.5-.23,1-.31,1.38q-.63,2.75-1.25,5.69T126.66,15.62Z"/><path class="cls-2" d="M155.16,31.12a1.92,1.92,0,0,1,.43,1.38q-.06.75-.06,1.62c-.08,1.42-.1,3-.06,4.63s.06,3.29.06,4.87,0,3.13-.06,4.63a5.44,5.44,0,0,1-1.31,3.63h-1a4,4,0,0,1-.94-1.94,18.49,18.49,0,0,1-.44-2.82c-.08-1.83-.1-3.74-.06-5.74a53.84,53.84,0,0,1,.44-5.88c.08-.5.16-1.08.25-1.75a6.9,6.9,0,0,1,.43-1.75,2.05,2.05,0,0,1,.88-1.06A1.45,1.45,0,0,1,155.16,31.12Zm.62-24.24a2.88,2.88,0,0,1-1,2,1.36,1.36,0,0,1-1.44-.26,2.07,2.07,0,0,1-.5-1.18,1.54,1.54,0,0,1,.38-1.19,1.54,1.54,0,0,1,1.44-.37C155.32,6.21,155.7,6.54,155.78,6.88Z"/><path class="cls-2" d="M167.53,50.38q2.5-4.76,5-9.69a46.39,46.39,0,0,1,5.88-8.94c.33-.42.75-.92,1.25-1.5a9.49,9.49,0,0,1,1.62-1.5,5.24,5.24,0,0,1,1.94-.87,3.79,3.79,0,0,1,2.31.24q1.88.89,2.75,3.88t1.5,6c.17.92.35,1.88.56,2.88s.44,2,.69,3a20.69,20.69,0,0,0,1,2.81,2.7,2.7,0,0,0,1.5,1.69,2.11,2.11,0,0,0,1.88-.44,12.75,12.75,0,0,1,1.5-1.06c.5-.42,1-.77,1.37-1.07a9,9,0,0,0,1.25-1.06,52,52,0,0,0,5.25-5.25A64.49,64.49,0,0,1,210,34.12a20.77,20.77,0,0,1,2.19-1.43,3.21,3.21,0,0,1,1.5-.44c.45,0,.73.29.81.87s-.19.92-.81,1.26a5.69,5.69,0,0,0-1.44,1,31.18,31.18,0,0,0-3.5,3.56c-1.17,1.37-2.42,2.77-3.75,4.18-.67.67-1.31,1.3-1.94,1.88s-1.27,1.21-1.93,1.88c-1.09,1.08-2.25,2.14-3.5,3.18a7.33,7.33,0,0,1-4.88,1.56l-.56-.24a1.73,1.73,0,0,0-.69-.13,7.67,7.67,0,0,1-3.06-3.87,38,38,0,0,1-1.56-5.32c-.42-1.87-.82-3.75-1.19-5.62a17.54,17.54,0,0,0-1.81-5.06,7.36,7.36,0,0,0-3.25,2.81,41,41,0,0,1-2.5,3.56,57.09,57.09,0,0,0-4.25,7.75Q172,49.63,170.28,54a7.85,7.85,0,0,0-.87,1.94,22.9,22.9,0,0,1-.88,2.31,6.32,6.32,0,0,1-1.31,1.94,2.32,2.32,0,0,1-2.19.56,2.08,2.08,0,0,1-1.69-1.31,7.88,7.88,0,0,1-.68-2.75,28.53,28.53,0,0,1-.07-3.38c0-1.2.11-2.31.19-3.31q.5-6,1.38-11.69a69.45,69.45,0,0,1,2.37-10.43c.33-.92.63-1.76.88-2.5A1.75,1.75,0,0,1,169,24.12a1.42,1.42,0,0,1,1.56.69,3.65,3.65,0,0,1,.38,1.94,14.71,14.71,0,0,1-.38,2.44c-.21.87-.35,1.6-.43,2.19q-.89,4.74-1.5,9.5T167.53,50.38Z"/><path class="cls-2" d="M234.28,54q3.61-4.38,7.19-9.06a95.54,95.54,0,0,1,7.81-9.06c.91-.92,1.87-1.86,2.87-2.82a6.14,6.14,0,0,1,3.63-1.68,1.73,1.73,0,0,1,.94.87,1.49,1.49,0,0,1-.07,1.37,1.08,1.08,0,0,1-.81.26,1.09,1.09,0,0,1-.81-.26,105.89,105.89,0,0,0-11.44,12.63Q238.4,53,233.4,60.12q-2,13.26-5.12,25.94a155.4,155.4,0,0,1-7.88,23.82,28.4,28.4,0,0,1-1.56,3.37c-.62,1.17-1.27,2.33-1.94,3.5-.41.75-.85,1.5-1.31,2.25a12.57,12.57,0,0,1-1.5,2,6.28,6.28,0,0,1-4.81,2c0,.08-.08,0-.25-.12a2.18,2.18,0,0,1-.81-.38,4.52,4.52,0,0,0-.82-.5,2,2,0,0,0-.62-.75,12.43,12.43,0,0,1-1-4.37,25.22,25.22,0,0,1,.19-4.69,43.35,43.35,0,0,1,.87-4.57c.38-1.5.73-2.87,1.06-4.12.84-2.75,1.75-5.4,2.75-7.94s2-5,3-7.31A195.71,195.71,0,0,1,228.9,61.62q.63-4,1.19-8.37c.38-2.92.65-5.87.81-8.87s.4-6,.44-9.26a28.83,28.83,0,0,0-1.06-8.62,2.67,2.67,0,0,0-1.5,1.19c-.42.62-.84,1.19-1.25,1.69a21.73,21.73,0,0,1,1.25,3.37,7.33,7.33,0,0,0,.75,1.75,1.45,1.45,0,0,1,0,1.62c-.67.26-1.15.15-1.44-.31a4,4,0,0,0-.94-1.06c-.25-.42-.52-.83-.81-1.25a6.48,6.48,0,0,1-.69-1.25,40.14,40.14,0,0,0-3.37,5c-1,1.75-2.09,3.46-3.25,5.13-.5.66-1.11,1.56-1.81,2.68a20.07,20.07,0,0,1-2.44,3.13,8.48,8.48,0,0,1-2.94,2.06,3.59,3.59,0,0,1-3.44-.63,5.36,5.36,0,0,1-1.12-3.06,15.79,15.79,0,0,1,.19-3.68,23.45,23.45,0,0,1,.93-3.69c.42-1.21.84-2.27,1.25-3.19a35.46,35.46,0,0,1,2.25-4.44A19.17,19.17,0,0,1,214.65,28a12.35,12.35,0,0,1,1.88-1.5,8.21,8.21,0,0,1,2.5-1.12,7.8,7.8,0,0,1,2.81-.26,6.33,6.33,0,0,1,2.69.88A6.18,6.18,0,0,0,226,24.62a10.08,10.08,0,0,1,1.5-1.56,5.19,5.19,0,0,1,1.87-1,4,4,0,0,1,2.44.19,5.29,5.29,0,0,1,1,.69,4.48,4.48,0,0,1,.75.81,7.7,7.7,0,0,1,1.31,2.81,19.42,19.42,0,0,1,.56,3.63c.09,1.29.13,2.64.13,4.06s0,2.79-.13,4.13q-.24,4.36-.5,8.37C234.74,49.42,234.53,51.83,234.28,54Zm-22.63,50.25c-.66,2.17-1.25,4.46-1.75,6.87a17.61,17.61,0,0,0,.13,7.5,11.37,11.37,0,0,0,3.62-4.56c.92-2,1.79-3.85,2.63-5.68a118.8,118.8,0,0,0,6.62-18.57q2.63-9.81,4.75-20.43,0-.13-.12,0-4.64,8-8.88,16.5A103,103,0,0,0,211.65,104.25Zm5.88-73.13a25.56,25.56,0,0,0-3.94,6.19,29,29,0,0,0-2.19,8.07,34.11,34.11,0,0,0,5.69-7.63c1.63-2.92,3.35-5.71,5.19-8.37a3.25,3.25,0,0,0-2.75.37C218.86,30.25,218.19,30.71,217.53,31.12Z"/></g></g></svg>