<svg xmlns="http://www.w3.org/2000/svg" viewBox="0 0 557.89 151.55"><defs><style>.cls-1{fill:none;stroke:#ff8300;}.cls-2{fill:#53575a;}.cls-3{fill:#ff8300;}</style></defs><g id="Layer_2" data-name="Layer 2"><g id="Layer_1-2" data-name="Layer 1"><line class="cls-1" x1="197.43" y1="151.05" x2="461.43" y2="151.05"/><path class="cls-2" d="M105.1,108.44h.69a20.6,20.6,0,0,0,.43,4,30.84,30.84,0,0,0,1.21,4.39,25.33,25.33,0,0,0,1.89,4.17,11.81,11.81,0,0,0,2.49,3.18,20.49,20.49,0,0,0,6.19,3.74,21.21,21.21,0,0,0,7.31,1.42h.78a23.58,23.58,0,0,0,7.31-1.46,14.14,14.14,0,0,0,5.85-4.9,12.78,12.78,0,0,0,2.27-6.84,13.28,13.28,0,0,0-2-7.31,17.1,17.1,0,0,0-7.05-6.23L121.62,97a31.7,31.7,0,0,1-8.6-6.07,20.33,20.33,0,0,1-4.52-6.79,15,15,0,0,1-1-6.92,16,16,0,0,1,2.07-6.45,18.57,18.57,0,0,1,4.6-5.33,23.11,23.11,0,0,1,6.58-3.7,15.09,15.09,0,0,1,3.44-1,23.9,23.9,0,0,1,3.52-.26A20.91,20.91,0,0,1,135.46,62c.92.35,1.89.69,2.93,1a12.07,12.07,0,0,0,3.09.6,6.34,6.34,0,0,0,2.93-.52,5.41,5.41,0,0,0,2.4-2.32h.61V79.45h-.69a14,14,0,0,0-.56-3.78,20.88,20.88,0,0,0-1.51-3.83,22.64,22.64,0,0,0-2.15-3.44,21.24,21.24,0,0,0-2.4-2.71,17.34,17.34,0,0,0-5.68-3.39,19.29,19.29,0,0,0-6.71-1.17,21.66,21.66,0,0,0-3,.22,18.86,18.86,0,0,0-2.88.64,12.44,12.44,0,0,0-6.15,4.13,8.8,8.8,0,0,0-1.8,6.54c.26,2.46,1.53,5.09,3.83,7.87s5.87,5.54,10.75,8.3l9.89,5.07a25.07,25.07,0,0,1,7.48,5.89,18.08,18.08,0,0,1,3.78,7.1,15.4,15.4,0,0,1,.09,7.39,16,16,0,0,1-3.57,6.84,23.42,23.42,0,0,1-7.18,5.42,33.86,33.86,0,0,1-10.75,3.14h.17l-1.25.13c-.37,0-.76,0-1.16,0h-.86a19.85,19.85,0,0,1-7.48-1.46v0a6.89,6.89,0,0,1-.86-.35,15.84,15.84,0,0,0-5.68-1.33,7.26,7.26,0,0,0-3.31.69,3.61,3.61,0,0,0-1.59,1.55,10.52,10.52,0,0,0-.51,1.16v.08h-.61Z"/><path class="cls-2" d="M215.18,79.28v-.17c-.46-1.78-1-3.63-1.55-5.55a19.42,19.42,0,0,0-2.53-5.37A14.07,14.07,0,0,0,206.54,64,17.18,17.18,0,0,0,199,61.91h-.77c-2.52.23-4.29.93-5.29,2.11s-1.5,3.25-1.5,6.23v50.83a17.35,17.35,0,0,0,.38,3.91,5.51,5.51,0,0,0,1.29,2.54,5.65,5.65,0,0,0,2.37,1.42,13.58,13.58,0,0,0,3.61.55h2.67v.61H171.84v-.61a32.89,32.89,0,0,0,4.94-.3A6.5,6.5,0,0,0,180,128a5.26,5.26,0,0,0,1.67-2.58,14.82,14.82,0,0,0,.52-4.39V70.34a16.6,16.6,0,0,0-.39-4,5.47,5.47,0,0,0-1.29-2.49,5.27,5.27,0,0,0-2.36-1.38,17.67,17.67,0,0,0-3.62-.6H174A16.83,16.83,0,0,0,166.51,64,14.49,14.49,0,0,0,162,68.19a18.74,18.74,0,0,0-2.58,5.37c-.58,1.92-1.06,3.77-1.46,5.55v.17h-.61V61.22h58.48V79.28Z"/><path class="cls-2" d="M212.09,129.5s.55-.05,1.5-.17a10.22,10.22,0,0,0,3.35-1.16,17.85,17.85,0,0,0,4.09-3,16.86,16.86,0,0,0,3.7-5.93l23.13-57.8h.69L271.6,119a37.55,37.55,0,0,0,2.84,5.81,11.64,11.64,0,0,0,2.58,3,5.78,5.78,0,0,0,2.62,1.2c.89.15,1.9.3,3.05.47v.61H254.48v-.61c2.07-.11,3.83-.24,5.29-.38a5.92,5.92,0,0,0,3.31-1.16,3.41,3.41,0,0,0,.95-3.06,24,24,0,0,0-1.72-6.06l-6.36-16H232l-6.53,16.26a8.27,8.27,0,0,0-.74,4.34,5.84,5.84,0,0,0,1.34,2.93,7.12,7.12,0,0,0,2.53,1.8,15.81,15.81,0,0,0,2.93,1,15.14,15.14,0,0,0,2.45.34l1.12,0v.61h-23ZM244,72.92l-11.78,29.32h23.48Z"/><path class="cls-2" d="M286.56,130.28v-.6h.09a34.37,34.37,0,0,0,4.94-.3,6.43,6.43,0,0,0,3.18-1.25,5.21,5.21,0,0,0,1.68-2.58,14.82,14.82,0,0,0,.52-4.39V70.51c0-3.15-.56-5.32-1.68-6.49s-3.11-1.85-6-2h-2.75v-.51h32.77a35.34,35.34,0,0,1,10,1.29,21.92,21.92,0,0,1,6.88,3.7,14.58,14.58,0,0,1,3.92,5.37,17.53,17.53,0,0,1,1.33,6.92q0,7.74-5.25,12.3a20.57,20.57,0,0,1-6.88,3.7,18.4,18.4,0,0,1-4,.95c-1.4.17-2.88.31-4.42.43a12.93,12.93,0,0,1,3.82,1.8,19.59,19.59,0,0,1,4.6,4.73l16.17,22.45a8.7,8.7,0,0,0,2.88,2.54,17.18,17.18,0,0,0,3.27,1.37,13.2,13.2,0,0,0,2.79.56q1.21.09,1.47.09H356v.6h-17.2l-21-29.07a19.75,19.75,0,0,0-2.37-2.71,9.44,9.44,0,0,0-2.06-1.5,6.52,6.52,0,0,0-1.93-.69,10.65,10.65,0,0,0-2-.17h-3.18v25.11a16.78,16.78,0,0,0,.38,4,5.47,5.47,0,0,0,1.29,2.49,5.59,5.59,0,0,0,2.37,1.42,14,14,0,0,0,3.61.56h2.66v.6h-30Zm19.7-34.66h12.38a12.36,12.36,0,0,0,7.22-2.15,13.26,13.26,0,0,0,1.94-1.76,15.13,15.13,0,0,0,1.85-2.54,20.83,20.83,0,0,0,1.63-4.69,25.55,25.55,0,0,0,.6-5.72q0-7.4-3.18-11.86A11.64,11.64,0,0,0,318.64,62h-5.59a11.76,11.76,0,0,0-3.18.69,5.31,5.31,0,0,0-2.11,1.47,5.55,5.55,0,0,0-1.16,2.49,17.68,17.68,0,0,0-.34,3.78v25.2Z"/><path class="cls-2" d="M413.84,79.28v-.17c-.46-1.78-1-3.63-1.55-5.55a19.71,19.71,0,0,0-2.53-5.37A14.07,14.07,0,0,0,405.2,64a17.18,17.18,0,0,0-7.53-2.06h-.77c-2.52.23-4.29.93-5.29,2.11s-1.5,3.25-1.5,6.23v50.83a16.79,16.79,0,0,0,.38,3.91,5.51,5.51,0,0,0,1.29,2.54,5.59,5.59,0,0,0,2.37,1.42,13.58,13.58,0,0,0,3.61.55h2.67v.61H370.5v-.61a33,33,0,0,0,4.94-.3,6.42,6.42,0,0,0,3.18-1.24,5.21,5.21,0,0,0,1.68-2.58,14.82,14.82,0,0,0,.52-4.39V70.34a16.6,16.6,0,0,0-.39-4,5.47,5.47,0,0,0-1.29-2.49,5.27,5.27,0,0,0-2.36-1.38,17.67,17.67,0,0,0-3.62-.6h-.51A16.83,16.83,0,0,0,365.17,64a14.49,14.49,0,0,0-4.56,4.22A18.74,18.74,0,0,0,358,73.56c-.58,1.92-1.06,3.77-1.46,5.55v.17H356V61.22h58.48V79.28Z"/><path class="cls-2" d="M466.13,128.82a20.88,20.88,0,0,0,5-2.24,18.84,18.84,0,0,0,3.83-3.14,25.77,25.77,0,0,0,2.83-3.65,29.28,29.28,0,0,0,3.87-10h.61l-2.5,20.47H423v-.6a34.37,34.37,0,0,0,4.94-.3,6.78,6.78,0,0,0,3.23-1.25,5.2,5.2,0,0,0,1.72-2.58,15.21,15.21,0,0,0,.51-4.39V71.54a3.12,3.12,0,0,0,0-.52,2.92,2.92,0,0,1,0-.51c0-3.15-.56-5.32-1.68-6.49s-3.11-1.85-6-2h-2.75v-.51h54.52V79.54h-.6v-.09q-.69-2.83-1.59-5.93a17.56,17.56,0,0,0-2.79-5.63,14.82,14.82,0,0,0-5.16-4.22,18.88,18.88,0,0,0-8.6-1.68H442.48V95.62h12.3a9.77,9.77,0,0,0,5.8-1.68,11.14,11.14,0,0,0,3.18-3.56,11.54,11.54,0,0,0,1.34-3.79,21.2,21.2,0,0,0,.25-2.41v-.26H466v24h-.61v-.26a23.38,23.38,0,0,0-.25-2.49,11.62,11.62,0,0,0-1.38-3.92,10.89,10.89,0,0,0-3.31-3.56,10.29,10.29,0,0,0-6.06-1.55H442.48V119.7a10.39,10.39,0,0,1,.08,1.55,16.72,16.72,0,0,0,.39,4,5.47,5.47,0,0,0,1.29,2.49,5.59,5.59,0,0,0,2.37,1.42,13.9,13.9,0,0,0,3.61.56h9.54A22.06,22.06,0,0,0,466.13,128.82Z"/><path class="cls-2" d="M549,120.13a29.6,29.6,0,0,1-10.23,7.48,33.29,33.29,0,0,1-13.16,2.67H488.75v-.6a33.58,33.58,0,0,0,4.9-.3,6.67,6.67,0,0,0,3.18-1.25,5.14,5.14,0,0,0,1.72-2.58,15.16,15.16,0,0,0,.52-4.39V70.51c0-3.15-.58-5.32-1.72-6.49s-3.16-1.85-6-2h-2.67v-.51h37a31.72,31.72,0,0,1,13.16,2.67A30,30,0,0,1,549,71.54a32.72,32.72,0,0,1,6.58,11,40,40,0,0,1,0,26.62A32.89,32.89,0,0,1,549,120.13ZM533.81,127a24.69,24.69,0,0,0,4.09-3.09,27.07,27.07,0,0,0,3.56-4.13A38,38,0,0,0,546.54,109a46,46,0,0,0,1.8-13.07,46.91,46.91,0,0,0-1.8-13.16,36.52,36.52,0,0,0-5.08-10.84,26.51,26.51,0,0,0-3.56-4.12,24.22,24.22,0,0,0-4.09-3.1,20.16,20.16,0,0,0-9.2-2.67h-9.55a11.76,11.76,0,0,0-3.18.69,5.38,5.38,0,0,0-2.11,1.47,5.65,5.65,0,0,0-1.16,2.49,17.68,17.68,0,0,0-.34,3.78V119.7a6.29,6.29,0,0,0,0,.73,7.15,7.15,0,0,1,0,.82,16.72,16.72,0,0,0,.39,4A5.63,5.63,0,0,0,510,127.7a5.23,5.23,0,0,0,2.32,1.42,14.29,14.29,0,0,0,3.7.56h7.82A20.33,20.33,0,0,0,533.81,127Z"/><path class="cls-3" d="M28.53,54q3.63-4.38,7.19-9.06a98.53,98.53,0,0,1,7.81-9.06q1.38-1.38,2.88-2.82A6.14,6.14,0,0,1,50,31.38a1.7,1.7,0,0,1,.94.87,1.46,1.46,0,0,1-.06,1.37,1.41,1.41,0,0,1-1.63,0A105.81,105.81,0,0,0,37.85,46.25Q32.66,53,27.66,60.12q-2,13.26-5.13,25.94a154.31,154.31,0,0,1-7.87,23.82,32,32,0,0,1-1.56,3.37c-.63,1.17-1.27,2.33-1.94,3.5-.42.75-.86,1.5-1.31,2.25a12.57,12.57,0,0,1-1.5,2,6.74,6.74,0,0,1-2,1.44,6.6,6.6,0,0,1-2.82.56c0,.08-.08,0-.25-.12a2.18,2.18,0,0,1-.81-.38,4.4,4.4,0,0,0-.81-.5,2,2,0,0,0-.63-.75,12.65,12.65,0,0,1-1-4.37,26.11,26.11,0,0,1,.19-4.69,41,41,0,0,1,.88-4.57c.37-1.5.73-2.87,1.06-4.12q1.25-4.12,2.75-7.94t3-7.31A195.71,195.71,0,0,1,23.16,61.62c.42-2.66.81-5.45,1.19-8.37s.64-5.87.81-8.87.39-6,.44-9.26a28.82,28.82,0,0,0-1.07-8.62A2.73,2.73,0,0,0,23,27.69a18.55,18.55,0,0,1-1.25,1.69A19.85,19.85,0,0,1,23,32.75a8.24,8.24,0,0,0,.75,1.75,1.41,1.41,0,0,1,0,1.62c-.66.26-1.14.15-1.43-.31a4.32,4.32,0,0,0-.94-1.06c-.25-.42-.52-.83-.81-1.25a6,6,0,0,1-.69-1.25,40.22,40.22,0,0,0-3.38,5q-1.5,2.63-3.25,5.13c-.5.66-1.1,1.56-1.81,2.68A19.49,19.49,0,0,1,9,48.19,8.36,8.36,0,0,1,6.1,50.25a3.59,3.59,0,0,1-3.44-.63,5.37,5.37,0,0,1-1.13-3.06,16.36,16.36,0,0,1,.19-3.68,22.43,22.43,0,0,1,.94-3.69C3.08,38,3.49,36.92,3.91,36a35.46,35.46,0,0,1,2.25-4.44A18.75,18.75,0,0,1,8.91,28a12.23,12.23,0,0,1,1.87-1.5,8.32,8.32,0,0,1,2.5-1.12,7.88,7.88,0,0,1,2.82-.26,6.29,6.29,0,0,1,2.68.88,6.18,6.18,0,0,0,1.44-1.38,11.11,11.11,0,0,1,1.5-1.56,5.23,5.23,0,0,1,1.88-1,3.94,3.94,0,0,1,2.43.19,4.72,4.72,0,0,1,1,.69,3.85,3.85,0,0,1,.75.81,7.71,7.71,0,0,1,1.32,2.81,19.42,19.42,0,0,1,.56,3.63c.08,1.29.12,2.64.12,4.06s0,2.79-.12,4.13c-.17,2.91-.33,5.7-.5,8.37S28.78,51.83,28.53,54ZM5.91,104.25q-1,3.25-1.75,6.87a17.61,17.61,0,0,0,.12,7.5,11.47,11.47,0,0,0,3.63-4.56q1.38-2.94,2.62-5.68a117.81,117.81,0,0,0,6.63-18.57Q19.79,80,21.91,69.38c0-.09,0-.09-.13,0q-4.62,8-8.87,16.5A102.27,102.27,0,0,0,5.91,104.25Zm5.87-73.13a25.84,25.84,0,0,0-3.93,6.19,28.67,28.67,0,0,0-2.19,8.07,34.42,34.42,0,0,0,5.69-7.63q2.43-4.38,5.18-8.37a3.26,3.26,0,0,0-2.75.37C13.12,30.25,12.45,30.71,11.78,31.12Z"/><path class="cls-3" d="M50.28,38.38a24.48,24.48,0,0,0-1.62,4.56,21.28,21.28,0,0,0-.75,5.5A9.37,9.37,0,0,0,49,53.12a4.42,4.42,0,0,0,4,2.13,12.39,12.39,0,0,0,6.19-1.37A55.58,55.58,0,0,0,64.28,51C66,49.83,67.51,48.69,69,47.56s2.77-2.23,3.94-3.31a71.72,71.72,0,0,0,6.19-5.37Q82,36,84.91,33a3.08,3.08,0,0,0,.81-1,10.77,10.77,0,0,1,.94-1.38,7.08,7.08,0,0,1,1.06-1.06,1,1,0,0,1,1.19-.06c.58.25.71.75.37,1.5a8.57,8.57,0,0,1-.87,1.62A4.63,4.63,0,0,1,87.66,34c-.34.42-.67.88-1,1.38Q83.53,39,80.1,42.25T73,48.75a50.92,50.92,0,0,1-10.5,7.5,27.87,27.87,0,0,1-3.12,1.44,18.07,18.07,0,0,1-3.63,1,16.69,16.69,0,0,1-3.81.19,7.66,7.66,0,0,1-3.56-1.13,5.72,5.72,0,0,1-1.31-1.19l-1.19-1.44a11.83,11.83,0,0,1-1.56-5.31,23.82,23.82,0,0,1,.37-5.93A38.22,38.22,0,0,1,48.28,33.5a52.73,52.73,0,0,1,5-7.38,14.68,14.68,0,0,1,7.63-4.74A6,6,0,0,1,65.1,22.5c1,.83,1.47,2.17,1.31,4a8.21,8.21,0,0,1-1.5,3.75,25.11,25.11,0,0,1-2.63,3.13,27.81,27.81,0,0,1-4.93,3.93C55.55,38.44,53.2,38.79,50.28,38.38ZM61.91,25a13,13,0,0,0-6.63,4.56A46.59,46.59,0,0,0,51,36.5a7.83,7.83,0,0,0,4.63-1.25,34.18,34.18,0,0,0,3.25-2.63c.91-1,1.87-2,2.87-3a5.38,5.38,0,0,0,1.38-4.24A1.35,1.35,0,0,0,61.91,25Z"/><path class="cls-3" d="M92.53,15.62q10.75-.36,22.38-1.12a165.12,165.12,0,0,1,23.12.12c.42,0,.88,0,1.38.07a1.08,1.08,0,0,1,1,.69c-.09.66-.4,1-.94,1a7.69,7.69,0,0,1-1.44-.13,225.5,225.5,0,0,0-23.12.19q-11.5.69-22.63,1.31Q90.53,28,89.09,38.62a155.38,155.38,0,0,0-1.31,22.26c0,1.08,0,2.29.13,3.62a25.17,25.17,0,0,0,.5,3.75,33.61,33.61,0,0,0,.81,3.37c.37,1.34.94,2,1.69,2.13a1.68,1.68,0,0,0,1.31-.37,12.26,12.26,0,0,0,1.37-1.19,12.88,12.88,0,0,0,1.25-1.44c.38-.5.65-.87.82-1.13a120.37,120.37,0,0,0,8.93-13.31q3.94-6.81,8.32-14.19,1.13-2,2.37-4.12c.83-1.42,1.75-2.83,2.75-4.25a11.71,11.71,0,0,1,1.13-1.44,1.09,1.09,0,0,1,1.25-.43c.66.33.79.85.37,1.56a18,18,0,0,1-1,1.56q-3.12,5.25-5.87,10.62T108,56.25c-1.17,1.92-2.31,3.86-3.44,5.81S102.28,66,101,67.88s-2.54,3.79-3.87,5.62A13.52,13.52,0,0,1,92,77.75a6.79,6.79,0,0,1-2.62,0,7.78,7.78,0,0,1-4.32-4.69A34,34,0,0,1,83.41,66a53.42,53.42,0,0,1-.63-8.31c0-2.88.09-5.69.25-8.44q.63-8.37,1.69-16.19t2.56-14.94q-5.75.25-11.69.88t-12.06.88c-.5,0-1.06,0-1.69.06s-1-.27-1.06-.94a.89.89,0,0,1,1-1,11.18,11.18,0,0,0,1.75-.12q5.88-.39,12-1T87.66,16q.75-2.62,1.68-6.19a52,52,0,0,1,2.19-6.56,9.61,9.61,0,0,1,.94-2.06A2,2,0,0,1,94.16,0a1.28,1.28,0,0,1,1.18.5,1.8,1.8,0,0,1,.25,1.19,8.6,8.6,0,0,1-.25,1.43c-.12.5-.23,1-.31,1.38-.42,1.83-.83,3.73-1.25,5.69S93,14,92.53,15.62Z"/><path class="cls-3" d="M126.66,15.62Q137.4,15.26,149,14.5a165.27,165.27,0,0,1,23.13.12c.41,0,.87,0,1.37.07a1.08,1.08,0,0,1,1,.69c-.08.66-.4,1-.94,1a7.5,7.5,0,0,1-1.43-.13,225.72,225.72,0,0,0-23.13.19q-11.5.69-22.62,1.31Q124.66,28,123.22,38.62a152.54,152.54,0,0,0-1.31,22.26c0,1.08,0,2.29.12,3.62a25.17,25.17,0,0,0,.5,3.75c.17.92.44,2,.81,3.37s.94,2,1.69,2.13a1.67,1.67,0,0,0,1.31-.37,13.29,13.29,0,0,0,1.38-1.19A14,14,0,0,0,129,70.75c.37-.5.64-.87.81-1.13a121.89,121.89,0,0,0,8.94-13.31q3.93-6.81,8.31-14.19,1.13-2,2.38-4.12c.83-1.42,1.75-2.83,2.75-4.25a11.62,11.62,0,0,1,1.12-1.44,1.09,1.09,0,0,1,1.25-.43c.67.33.79.85.38,1.56a18,18,0,0,1-1,1.56q-3.14,5.25-5.88,10.62t-5.87,10.63q-1.75,2.88-3.44,5.81c-1.13,2-2.31,3.9-3.56,5.82s-2.55,3.79-3.88,5.62a13.41,13.41,0,0,1-5.12,4.25,6.84,6.84,0,0,1-2.63,0,7.76,7.76,0,0,1-4.31-4.69A34,34,0,0,1,117.53,66a53.44,53.44,0,0,1-.62-8.31q0-4.32.25-8.44c.41-5.58,1-11,1.68-16.19s1.57-10.18,2.57-14.94q-5.76.25-11.69.88t-12.06.88c-.5,0-1.07,0-1.69.06s-1-.27-1.06-.94a.88.88,0,0,1,1-1,11.27,11.27,0,0,0,1.75-.12q5.86-.39,12-1T121.78,16q.75-2.62,1.69-6.19a48.94,48.94,0,0,1,2.19-6.56,9,9,0,0,1,.93-2.06A2,2,0,0,1,128.28,0a1.31,1.31,0,0,1,1.19.5,1.86,1.86,0,0,1,.25,1.19,9.77,9.77,0,0,1-.25,1.43c-.13.5-.23,1-.31,1.38q-.63,2.75-1.25,5.69T126.66,15.62Z"/><path class="cls-3" d="M155.16,31.12a1.92,1.92,0,0,1,.43,1.38q-.06.75-.06,1.62c-.08,1.42-.1,3-.06,4.63s.06,3.29.06,4.87,0,3.13-.06,4.63a5.44,5.44,0,0,1-1.31,3.63h-1a4,4,0,0,1-.94-1.94,18.49,18.49,0,0,1-.44-2.82c-.08-1.83-.1-3.74-.06-5.74a53.84,53.84,0,0,1,.44-5.88c.08-.5.16-1.08.25-1.75a6.9,6.9,0,0,1,.43-1.75,2.05,2.05,0,0,1,.88-1.06A1.45,1.45,0,0,1,155.16,31.12Zm.62-24.24a2.88,2.88,0,0,1-1,2,1.36,1.36,0,0,1-1.44-.26,2.07,2.07,0,0,1-.5-1.18,1.54,1.54,0,0,1,.38-1.19,1.54,1.54,0,0,1,1.44-.37C155.32,6.21,155.7,6.54,155.78,6.88Z"/><path class="cls-3" d="M167.53,50.38q2.5-4.76,5-9.69a46.39,46.39,0,0,1,5.88-8.94c.33-.42.75-.92,1.25-1.5a9.49,9.49,0,0,1,1.62-1.5,5.24,5.24,0,0,1,1.94-.87,3.79,3.79,0,0,1,2.31.24q1.88.89,2.75,3.88t1.5,6c.17.92.35,1.88.56,2.88s.44,2,.69,3a20.69,20.69,0,0,0,1,2.81,2.7,2.7,0,0,0,1.5,1.69,2.11,2.11,0,0,0,1.88-.44,12.75,12.75,0,0,1,1.5-1.06c.5-.42,1-.77,1.37-1.07a9,9,0,0,0,1.25-1.06,52,52,0,0,0,5.25-5.25A64.49,64.49,0,0,1,210,34.12a20.77,20.77,0,0,1,2.19-1.43,3.21,3.21,0,0,1,1.5-.44c.45,0,.73.29.81.87s-.19.92-.81,1.26a5.69,5.69,0,0,0-1.44,1,31.18,31.18,0,0,0-3.5,3.56c-1.17,1.37-2.42,2.77-3.75,4.18-.67.67-1.31,1.3-1.94,1.88s-1.27,1.21-1.93,1.88c-1.09,1.08-2.25,2.14-3.5,3.18a7.33,7.33,0,0,1-4.88,1.56l-.56-.24a1.73,1.73,0,0,0-.69-.13,7.67,7.67,0,0,1-3.06-3.87,38,38,0,0,1-1.56-5.32c-.42-1.87-.82-3.75-1.19-5.62a17.54,17.54,0,0,0-1.81-5.06,7.36,7.36,0,0,0-3.25,2.81,41,41,0,0,1-2.5,3.56,57.09,57.09,0,0,0-4.25,7.75Q172,49.63,170.28,54a7.85,7.85,0,0,0-.87,1.94,22.9,22.9,0,0,1-.88,2.31,6.32,6.32,0,0,1-1.31,1.94,2.32,2.32,0,0,1-2.19.56,2.08,2.08,0,0,1-1.69-1.31,7.88,7.88,0,0,1-.68-2.75,28.53,28.53,0,0,1-.07-3.38c0-1.2.11-2.31.19-3.31q.5-6,1.38-11.69a69.45,69.45,0,0,1,2.37-10.43c.33-.92.63-1.76.88-2.5A1.75,1.75,0,0,1,169,24.12a1.42,1.42,0,0,1,1.56.69,3.65,3.65,0,0,1,.38,1.94,14.71,14.71,0,0,1-.38,2.44c-.21.87-.35,1.6-.43,2.19q-.89,4.74-1.5,9.5T167.53,50.38Z"/><path class="cls-3" d="M234.28,54q3.61-4.38,7.19-9.06a95.54,95.54,0,0,1,7.81-9.06c.91-.92,1.87-1.86,2.87-2.82a6.14,6.14,0,0,1,3.63-1.68,1.73,1.73,0,0,1,.94.87,1.49,1.49,0,0,1-.07,1.37,1.08,1.08,0,0,1-.81.26,1.09,1.09,0,0,1-.81-.26,105.89,105.89,0,0,0-11.44,12.63Q238.4,53,233.4,60.12q-2,13.26-5.12,25.94a155.4,155.4,0,0,1-7.88,23.82,28.4,28.4,0,0,1-1.56,3.37c-.62,1.17-1.27,2.33-1.94,3.5-.41.75-.85,1.5-1.31,2.25a12.57,12.57,0,0,1-1.5,2,6.28,6.28,0,0,1-4.81,2c0,.08-.08,0-.25-.12a2.18,2.18,0,0,1-.81-.38,4.52,4.52,0,0,0-.82-.5,2,2,0,0,0-.62-.75,12.43,12.43,0,0,1-1-4.37,25.22,25.22,0,0,1,.19-4.69,43.35,43.35,0,0,1,.87-4.57c.38-1.5.73-2.87,1.06-4.12.84-2.75,1.75-5.4,2.75-7.94s2-5,3-7.31A195.71,195.71,0,0,1,228.9,61.62q.63-4,1.19-8.37c.38-2.92.65-5.87.81-8.87s.4-6,.44-9.26a28.83,28.83,0,0,0-1.06-8.62,2.67,2.67,0,0,0-1.5,1.19c-.42.62-.84,1.19-1.25,1.69a21.73,21.73,0,0,1,1.25,3.37,7.33,7.33,0,0,0,.75,1.75,1.45,1.45,0,0,1,0,1.62c-.67.26-1.15.15-1.44-.31a4,4,0,0,0-.94-1.06c-.25-.42-.52-.83-.81-1.25a6.48,6.48,0,0,1-.69-1.25,40.14,40.14,0,0,0-3.37,5c-1,1.75-2.09,3.46-3.25,5.13-.5.66-1.11,1.56-1.81,2.68a20.07,20.07,0,0,1-2.44,3.13,8.48,8.48,0,0,1-2.94,2.06,3.59,3.59,0,0,1-3.44-.63,5.36,5.36,0,0,1-1.12-3.06,15.79,15.79,0,0,1,.19-3.68,23.45,23.45,0,0,1,.93-3.69c.42-1.21.84-2.27,1.25-3.19a35.46,35.46,0,0,1,2.25-4.44A19.17,19.17,0,0,1,214.65,28a12.35,12.35,0,0,1,1.88-1.5,8.21,8.21,0,0,1,2.5-1.12,7.8,7.8,0,0,1,2.81-.26,6.33,6.33,0,0,1,2.69.88A6.18,6.18,0,0,0,226,24.62a10.08,10.08,0,0,1,1.5-1.56,5.19,5.19,0,0,1,1.87-1,4,4,0,0,1,2.44.19,5.29,5.29,0,0,1,1,.69,4.48,4.48,0,0,1,.75.81,7.7,7.7,0,0,1,1.31,2.81,19.42,19.42,0,0,1,.56,3.63c.09,1.29.13,2.64.13,4.06s0,2.79-.13,4.13q-.24,4.36-.5,8.37C234.74,49.42,234.53,51.83,234.28,54Zm-22.63,50.25c-.66,2.17-1.25,4.46-1.75,6.87a17.61,17.61,0,0,0,.13,7.5,11.37,11.37,0,0,0,3.62-4.56c.92-2,1.79-3.85,2.63-5.68a118.8,118.8,0,0,0,6.62-18.57q2.63-9.81,4.75-20.43,0-.13-.12,0-4.64,8-8.88,16.5A103,103,0,0,0,211.65,104.25Zm5.88-73.13a25.56,25.56,0,0,0-3.94,6.19,29,29,0,0,0-2.19,8.07,34.11,34.11,0,0,0,5.69-7.63c1.63-2.92,3.35-5.71,5.19-8.37a3.25,3.25,0,0,0-2.75.37C218.86,30.25,218.19,30.71,217.53,31.12Z"/></g></g></svg>