<svg xmlns="http://www.w3.org/2000/svg" viewBox="0 0 860.64 166.41"><defs><style>.cls-1{fill:#274351;}.cls-2{fill:#ff8300;}</style></defs><g id="Layer_2" data-name="Layer 2"><g id="Layer_1-2" data-name="Layer 1"><path class="cls-1" d="M68.91,105.69a5,5,0,0,0,2.41-1,3.88,3.88,0,0,0,1.3-1.95A11.29,11.29,0,0,0,73,99.48V61.19a12.36,12.36,0,0,0-.3-3,4.11,4.11,0,0,0-1-1.88,4,4,0,0,0-1.82-1,14.38,14.38,0,0,0-2.76-.46h-2V54.3h41.21V68.08h-.45V68c-.35-1.43-.75-2.91-1.21-4.45a13.27,13.27,0,0,0-2.11-4.22,11,11,0,0,0-3.9-3.19,14.34,14.34,0,0,0-6.5-1.27H80V80.11h9.3a7.54,7.54,0,0,0,4.38-1.24A7.82,7.82,0,0,0,96,76.21a9.61,9.61,0,0,0,1-2.86,14.13,14.13,0,0,0,.23-1.89v-.19h.39V89.4h-.39v-.19A16.25,16.25,0,0,0,97,87.32a9.18,9.18,0,0,0-1-2.92,7.39,7.39,0,0,0-7-3.84H80v19a13,13,0,0,0,.29,3,3.81,3.81,0,0,0,2.8,3,10.55,10.55,0,0,0,2.76.42h2v.46H65.21v-.46A25.59,25.59,0,0,0,68.91,105.69Z"/><path class="cls-1" d="M109.34,80a28,28,0,0,1,1.82-10.2A25.13,25.13,0,0,1,116,61.45a21.89,21.89,0,0,1,7.15-5.59,20.28,20.28,0,0,1,8.91-2.08h3.77a20.14,20.14,0,0,1,8.84,2.08A21.7,21.7,0,0,1,152,61.45a28.06,28.06,0,0,1,4.94,8.39A29.55,29.55,0,0,1,158.67,80a29.2,29.2,0,0,1-1.75,10.21A27.89,27.89,0,0,1,152,98.63a21.58,21.58,0,0,1-7.28,5.59,20,20,0,0,1-8.84,2.08h-3.77a20.14,20.14,0,0,1-8.91-2.08A21.75,21.75,0,0,1,116,98.63a25.08,25.08,0,0,1-4.87-8.38A28,28,0,0,1,109.34,80Zm7.08,0A39.49,39.49,0,0,0,117.63,90a27.34,27.34,0,0,0,3.6,8.32,13.91,13.91,0,0,0,1,1.49,13.41,13.41,0,0,0,1.14,1.3,16.37,16.37,0,0,0,3.93,3,31.64,31.64,0,0,0,3.09,1.46l1.23.26A6.78,6.78,0,0,0,133,106H135a5.78,5.78,0,0,0,1.3-.13c.39-.09.82-.17,1.3-.26.74-.3,1.74-.79,3-1.46a17.64,17.64,0,0,0,4-3c.35-.39.7-.82,1.07-1.3s.73-1,1.07-1.49A27.65,27.65,0,0,0,150.35,90a40.5,40.5,0,0,0,0-19.89,27.65,27.65,0,0,0-3.64-8.32c-.34-.52-.7-1-1.07-1.5s-.72-.91-1.07-1.3a17.87,17.87,0,0,0-4-3c-1.28-.67-2.28-1.16-3-1.46l-1.3-.23a8.48,8.48,0,0,0-1.3-.1H133a10.53,10.53,0,0,0-2.6.33A31.64,31.64,0,0,0,127.31,56a16.57,16.57,0,0,0-3.93,3,14.71,14.71,0,0,0-1.14,1.3,15.13,15.13,0,0,0-1,1.5,27.34,27.34,0,0,0-3.6,8.32A39.41,39.41,0,0,0,116.42,80Z"/><path class="cls-1" d="M160.75,106.5V106h.07a26.39,26.39,0,0,0,3.74-.22,4.83,4.83,0,0,0,2.4-.95,3.9,3.9,0,0,0,1.27-2,11.29,11.29,0,0,0,.39-3.31V61.32q0-3.57-1.27-4.9t-4.52-1.53h-2.08V54.5h24.77a26.73,26.73,0,0,1,7.54,1,16.81,16.81,0,0,1,5.2,2.8,11.13,11.13,0,0,1,3,4.06,13.29,13.29,0,0,1,1,5.23,11.71,11.71,0,0,1-4,9.3,15.6,15.6,0,0,1-5.2,2.79,13.46,13.46,0,0,1-3,.72c-1.07.13-2.18.24-3.35.32a9.92,9.92,0,0,1,2.89,1.37,14.79,14.79,0,0,1,3.48,3.57l12.22,17a6.64,6.64,0,0,0,2.18,1.92,13.18,13.18,0,0,0,2.47,1A9.67,9.67,0,0,0,212,106l1.1.06h.07v.46h-13l-15.86-22a15.27,15.27,0,0,0-1.79-2A7.31,7.31,0,0,0,181,81.34a5.24,5.24,0,0,0-1.46-.52,9.1,9.1,0,0,0-1.5-.13h-2.4v19a12.89,12.89,0,0,0,.29,3,3.86,3.86,0,0,0,2.76,3,10.18,10.18,0,0,0,2.73.42h2v.46H160.75Zm14.89-26.2H185a9.35,9.35,0,0,0,5.46-1.62,10.23,10.23,0,0,0,1.46-1.33,10.81,10.81,0,0,0,1.4-1.92,15.65,15.65,0,0,0,1.23-3.54,19,19,0,0,0,.46-4.33,15.14,15.14,0,0,0-2.41-9,8.79,8.79,0,0,0-7.6-3.7h-4.23a8.74,8.74,0,0,0-2.4.52,4.08,4.08,0,0,0-1.59,1.1,4.15,4.15,0,0,0-.88,1.89,13.61,13.61,0,0,0-.26,2.86v19Z"/><path class="cls-1" d="M282,54.89h-.32a10.91,10.91,0,0,0-1.79.23,9,9,0,0,0-2.63,1,10.13,10.13,0,0,0-2.76,2.31,11,11,0,0,0-2.12,4.19l-12.87,43.75h-.45L246.23,63.14l-12.61,43.23h-.52l-13-43.81-.26-.85a15.31,15.31,0,0,0-1.66-3.93,5.85,5.85,0,0,0-1.88-1.92,5.17,5.17,0,0,0-2.12-.68c-.73-.06-1.51-.16-2.34-.29h-.06v-.46H233.1v.46h-.2c-1.12,0-2.18,0-3.18.1a4.34,4.34,0,0,0-2.41.78,3.11,3.11,0,0,0-1.1,2.21,11.12,11.12,0,0,0,.71,4.38l9.56,32.5L246,62.36a.69.69,0,0,1-.13-.35.73.73,0,0,0-.06-.3,15.31,15.31,0,0,0-1.66-3.93,5.85,5.85,0,0,0-1.88-1.92,5.21,5.21,0,0,0-2.15-.68c-.76-.06-1.53-.16-2.31-.29h-.06v-.46H259.1v.46h-.2q-1.68,0-3.15.06a4.41,4.41,0,0,0-2.4.75,3.05,3.05,0,0,0-1.14,2.21,11.55,11.55,0,0,0,.71,4.45l9.56,32.5,9.88-33.8a4,4,0,0,0-.23-3.34A5.42,5.42,0,0,0,270,55.86a8.91,8.91,0,0,0-2.82-.81,21,21,0,0,0-2.12-.16h-.39v-.46H282Z"/><path class="cls-1" d="M271.77,105.91l1.14-.13a7.65,7.65,0,0,0,2.54-.87,13.48,13.48,0,0,0,3.08-2.31,12.58,12.58,0,0,0,2.8-4.49l17.48-43.68h.52L316.75,98a28.55,28.55,0,0,0,2.15,4.39,8.86,8.86,0,0,0,2,2.28,4.42,4.42,0,0,0,2,.91l2.31.35v.46H303.82v-.46c1.56-.08,2.89-.18,4-.29a4.51,4.51,0,0,0,2.5-.88,2.55,2.55,0,0,0,.71-2.3,17.72,17.72,0,0,0-1.3-4.59l-4.81-12.09H286.79l-4.94,12.29a6.15,6.15,0,0,0-.55,3.28,4.3,4.3,0,0,0,1,2.21,5.35,5.35,0,0,0,1.92,1.37,12.27,12.27,0,0,0,2.21.71,11.46,11.46,0,0,0,1.85.26l.85,0v.46H271.77Zm24.12-42.77L287,85.31h17.75Z"/><path class="cls-1" d="M328.06,106.5V106h.07a26.39,26.39,0,0,0,3.74-.22,4.83,4.83,0,0,0,2.4-.95,3.9,3.9,0,0,0,1.27-2,11.29,11.29,0,0,0,.39-3.31V61.32q0-3.57-1.27-4.9t-4.52-1.53h-2.08V54.5h24.77a26.78,26.78,0,0,1,7.54,1,16.81,16.81,0,0,1,5.2,2.8,11.13,11.13,0,0,1,3,4.06,13.29,13.29,0,0,1,1,5.23,11.71,11.71,0,0,1-4,9.3,15.6,15.6,0,0,1-5.2,2.79,13.59,13.59,0,0,1-3,.72c-1.07.13-2.18.24-3.35.32a10,10,0,0,1,2.89,1.37,14.79,14.79,0,0,1,3.48,3.57l12.22,17a6.54,6.54,0,0,0,2.18,1.92,13.18,13.18,0,0,0,2.47,1,9.67,9.67,0,0,0,2.11.42l1.1.06h.07v.46h-13l-15.86-22a15.27,15.27,0,0,0-1.79-2,7.31,7.31,0,0,0-1.56-1.14,5.35,5.35,0,0,0-1.46-.52,9.1,9.1,0,0,0-1.5-.13H343v19a12.89,12.89,0,0,0,.29,3,3.86,3.86,0,0,0,2.76,3,10.18,10.18,0,0,0,2.73.42h2v.46H328.06ZM343,80.3h9.36a9.35,9.35,0,0,0,5.46-1.62,10.8,10.8,0,0,0,1.46-1.33,11.33,11.33,0,0,0,1.4-1.92,15.65,15.65,0,0,0,1.23-3.54,19,19,0,0,0,.46-4.33,15.14,15.14,0,0,0-2.41-9,8.79,8.79,0,0,0-7.6-3.7h-4.23a8.74,8.74,0,0,0-2.4.52,4.08,4.08,0,0,0-1.59,1.1,4.15,4.15,0,0,0-.88,1.89,13,13,0,0,0-.26,2.86v19Z"/><path class="cls-1" d="M429.72,98.83a22.48,22.48,0,0,1-7.73,5.65,25.11,25.11,0,0,1-9.95,2H384.16V106a25.5,25.5,0,0,0,3.7-.22,5,5,0,0,0,2.41-.95,3.88,3.88,0,0,0,1.3-2,11.29,11.29,0,0,0,.39-3.31V61.32c0-2.38-.44-4-1.3-4.9s-2.39-1.4-4.55-1.53h-2V54.5h28a24.07,24.07,0,0,1,9.95,2,23,23,0,0,1,7.73,5.59,24.9,24.9,0,0,1,5,8.32,29.56,29.56,0,0,1,1.72,10.08,29.21,29.21,0,0,1-1.72,10A24.86,24.86,0,0,1,429.72,98.83Zm-11.5,5.2a18.76,18.76,0,0,0,3.09-2.34A20,20,0,0,0,424,98.57a28.36,28.36,0,0,0,3.84-8.19,34.69,34.69,0,0,0,1.36-9.88,35.39,35.39,0,0,0-1.36-10A27.4,27.4,0,0,0,424,62.36a20,20,0,0,0-2.69-3.12,18.76,18.76,0,0,0-3.09-2.34,15.16,15.16,0,0,0-7-2h-7.21a8.74,8.74,0,0,0-2.41.52,4.08,4.08,0,0,0-1.59,1.1,4.37,4.37,0,0,0-.88,1.89,13.61,13.61,0,0,0-.26,2.86V98.5a3.69,3.69,0,0,0,0,.56,5.93,5.93,0,0,1,0,.61,12.89,12.89,0,0,0,.29,3,4.42,4.42,0,0,0,.94,1.89,4,4,0,0,0,1.76,1.07,10.33,10.33,0,0,0,2.79.42h5.92A15.41,15.41,0,0,0,418.22,104Z"/><path class="cls-1" d="M447.6,92.45a9,9,0,0,1-1,10.53,10,10,0,0,1-2.11,1.82,9.84,9.84,0,0,1-2.51,1.17l-.06-.39a10.9,10.9,0,0,0,2.34-1.13,9.9,9.9,0,0,0,2.08-1.79,11.76,11.76,0,0,0,1.33-2.08,7.12,7.12,0,0,0,.75-3.06c-.05-.26-.16-.4-.36-.42a1.56,1.56,0,0,0-.71.13,6.36,6.36,0,0,0-.88.42,4.16,4.16,0,0,1-.85.39,3,3,0,0,1-1.49.33,3.89,3.89,0,0,1-4-4,3.76,3.76,0,0,1,1.14-2.76,3.84,3.84,0,0,1,2.83-1.14v-.06A3.91,3.91,0,0,1,447.6,92.45Z"/><path class="cls-1" d="M401.45,159.45a5.6,5.6,0,0,1-.91,1.24c-.35.34-.7.67-1,1a3.79,3.79,0,0,1-.72.65,15.44,15.44,0,0,1-5.85,2.8,30.8,30.8,0,0,1-8.51,1H358.35v-.46a24.83,24.83,0,0,0,3.74-.23,5.06,5.06,0,0,0,2.44-.94,4,4,0,0,0,1.3-2,11.34,11.34,0,0,0,.39-3.31V121.82a3.51,3.51,0,0,1-.07-.85,13,13,0,0,0-.29-3,4.33,4.33,0,0,0-.94-1.88,3.68,3.68,0,0,0-1.76-1,13.77,13.77,0,0,0-2.73-.46h-2.08v-.52h24.7a29.43,29.43,0,0,1,4,.26,22.23,22.23,0,0,1,3.54.78,13.88,13.88,0,0,1,5.2,2.86,12.8,12.8,0,0,1,0,18.53,17.7,17.7,0,0,1-2.37,1.62,13.12,13.12,0,0,1-2.83,1.17,10.23,10.23,0,0,1-1.49.42q-.78.17-1.56.36a22.21,22.21,0,0,1,2.82.29c.89.16,1.75.34,2.57.56a16.09,16.09,0,0,1,5.85,2.79,11.23,11.23,0,0,1,4.49,9.3A11.76,11.76,0,0,1,401.45,159.45Zm-28.28-19.56h9.36a9.55,9.55,0,0,0,5.53-1.56,10.46,10.46,0,0,0,1.43-1.3,11.23,11.23,0,0,0,1.36-1.89,16.56,16.56,0,0,0,1.69-7.86c0-3.77-.8-6.79-2.4-9q-2.53-3.64-7.61-3.64h-4.16a5.88,5.88,0,0,0-4.06,1.59c-.76.89-1.14,2.46-1.14,4.72v19ZM392.48,162q2.73-3.31,2.73-9a14,14,0,0,0-2.73-9q-2.93-3.7-8.58-3.71H373.17v19a13,13,0,0,0,.29,3,4.17,4.17,0,0,0,1,1.92,4.24,4.24,0,0,0,1.82,1.07,10.55,10.55,0,0,0,2.76.42h4.88Q389.62,165.69,392.48,162Z"/><path class="cls-1" d="M404.89,165.69l1.14-.13a7.89,7.89,0,0,0,2.53-.88,13,13,0,0,0,3.09-2.3,12.72,12.72,0,0,0,2.8-4.49l17.48-43.68h.52l17.42,43.55a28.55,28.55,0,0,0,2.15,4.39,8.62,8.62,0,0,0,2,2.27,4.32,4.32,0,0,0,2,.91l2.31.36v.46H436.94v-.46c1.56-.09,2.89-.18,4-.29a4.52,4.52,0,0,0,2.51-.88,2.57,2.57,0,0,0,.71-2.31,18,18,0,0,0-1.3-4.58L438,145.54H419.91L415,157.83a6.27,6.27,0,0,0-.56,3.28,4.35,4.35,0,0,0,1,2.21,5.32,5.32,0,0,0,1.92,1.36,12,12,0,0,0,4.06,1l.85,0v.46H404.89ZM429,122.92l-8.91,22.17h17.75Z"/><path class="cls-1" d="M458.78,140.21v-.06h-.26A29.67,29.67,0,0,1,459,135a29.1,29.1,0,0,1,1.37-5,26.39,26.39,0,0,1,4.94-8.32,27,27,0,0,1,3.34-3.18,18.85,18.85,0,0,1,3.87-2.41A19.59,19.59,0,0,1,481.4,114a16.12,16.12,0,0,1,6.37,1.24h.06a.4.4,0,0,0,.26.13l.07.06.87.39a9.38,9.38,0,0,1,.88.46,13.44,13.44,0,0,0,5.33,1.62,5.37,5.37,0,0,0,2.93-.65,3.31,3.31,0,0,0,1.49-2.27h.46v18.91h-.46a32.66,32.66,0,0,0-.94-4.55,30.81,30.81,0,0,0-1.46-4,24.52,24.52,0,0,0-1.92-3.28,21.09,21.09,0,0,0-2.31-2.76,16.64,16.64,0,0,0-5.46-3.64,16.88,16.88,0,0,0-5.2-1.17,11.62,11.62,0,0,0-6.5,2,18.58,18.58,0,0,0-5.33,5.53,30,30,0,0,0-3.61,8.22,36.68,36.68,0,0,0-1.33,10,35.22,35.22,0,0,0,2.18,12.61,25.22,25.22,0,0,0,5.69,9.17,17.42,17.42,0,0,0,3.18,2.3,17.76,17.76,0,0,0,2.6,1.21,6.83,6.83,0,0,0,1.53.35,12.34,12.34,0,0,0,1.59.1,26.37,26.37,0,0,0,2.63-.39,14.47,14.47,0,0,0,2.57-.78,16.06,16.06,0,0,0,5.4-3.64,14,14,0,0,0,2.3-2.7,28.59,28.59,0,0,0,1.86-3.28,24.09,24.09,0,0,0,1.49-4,44.34,44.34,0,0,0,1-4.55l.45.07a30.06,30.06,0,0,1-2.53,8.71,21.47,21.47,0,0,1-4.23,6.17,18.4,18.4,0,0,1-5.59,3.64,15.81,15.81,0,0,1-6.3,1.24,19.72,19.72,0,0,1-8.91-2.08,22.7,22.7,0,0,1-7.21-5.59,26.5,26.5,0,0,1-4.94-8.32,29.1,29.1,0,0,1-1.37-5,29.67,29.67,0,0,1-.45-5.2Z"/><path class="cls-1" d="M540.32,165.4a3.31,3.31,0,0,0,1.3-.52,1.12,1.12,0,0,0,.45-1,2.87,2.87,0,0,0-1-1.62l-19.5-20.87a8.33,8.33,0,0,0-1.3-1.3,1.32,1.32,0,0,0-.71-.26h-.07v19.7a12,12,0,0,0,.3,2.92,4.14,4.14,0,0,0,1,1.89,4.3,4.3,0,0,0,1.82,1.07,10.55,10.55,0,0,0,2.76.42h2v.52H504.66v-.52a24.74,24.74,0,0,0,3.74-.23,5.26,5.26,0,0,0,2.44-.91,3.66,3.66,0,0,0,1.3-2,11.4,11.4,0,0,0,.39-3.28V122a2.56,2.56,0,0,0,0-.39,2.13,2.13,0,0,1,0-.46,12.55,12.55,0,0,0-.29-3,4.23,4.23,0,0,0-.94-1.91,3.64,3.64,0,0,0-1.76-1,13.51,13.51,0,0,0-2.73-.46h-2.08v-.39h22.62v.39h-2.6a6.17,6.17,0,0,0-4.06,1.63q-1.14,1.29-1.14,4.74v18.27a1.87,1.87,0,0,0,.72-.17,5.83,5.83,0,0,0,1.36-1.07l12.48-11a7.31,7.31,0,0,0,.78-.65,35,35,0,0,0,4.55-4.59,8,8,0,0,0,1.79-3.41,2.63,2.63,0,0,0-.68-2.37,7,7,0,0,0-2.86-1.59v-.46h20.09v.46a20.08,20.08,0,0,0-5.6.74,24.31,24.31,0,0,0-4.74,2,30.51,30.51,0,0,0-4.06,2.64q-1.86,1.42-3.42,2.79l-13.84,12.09,24.89,27a13.47,13.47,0,0,0,2.41,2.15,10.46,10.46,0,0,0,2.27,1.17,8.09,8.09,0,0,0,2.28.45c.78,0,1.6.07,2.47.07v.45H537v-.45h1.75A15.81,15.81,0,0,0,540.32,165.4Z"/><path class="cls-1" d="M623.14,127.73v-.13c-.34-1.34-.73-2.74-1.17-4.19a14.8,14.8,0,0,0-1.91-4.06,10.73,10.73,0,0,0-3.45-3.19,12.82,12.82,0,0,0-5.69-1.56h-.58a5.79,5.79,0,0,0-4,1.59c-.76.89-1.13,2.46-1.13,4.72v38.41a12.49,12.49,0,0,0,.29,3,4.16,4.16,0,0,0,1,1.92,4.31,4.31,0,0,0,1.79,1.07,10.18,10.18,0,0,0,2.73.42h2v.46H590.38v-.46a24.74,24.74,0,0,0,3.74-.23,4.87,4.87,0,0,0,2.41-.94,4,4,0,0,0,1.26-2,11.34,11.34,0,0,0,.39-3.31V121a12.42,12.42,0,0,0-.29-3,4.06,4.06,0,0,0-1-1.88,3.88,3.88,0,0,0-1.79-1,13.77,13.77,0,0,0-2.73-.46H592a12.61,12.61,0,0,0-5.66,1.56,11.12,11.12,0,0,0-3.44,3.19,14.08,14.08,0,0,0-1.95,4.06c-.43,1.45-.8,2.85-1.11,4.19v.13h-.45V114.08h44.2v13.65Z"/><path class="cls-1" d="M628.47,139.82a28,28,0,0,1,1.82-10.2,25.15,25.15,0,0,1,4.88-8.39,21.68,21.68,0,0,1,7.15-5.59,20.13,20.13,0,0,1,8.9-2.08H655a20,20,0,0,1,8.84,2.08,21.48,21.48,0,0,1,7.28,5.59,27.73,27.73,0,0,1,4.94,8.39,30.47,30.47,0,0,1,0,20.41,27.8,27.8,0,0,1-4.94,8.38,21.48,21.48,0,0,1-7.28,5.59,20,20,0,0,1-8.84,2.08h-3.77a20.13,20.13,0,0,1-8.9-2.08,21.68,21.68,0,0,1-7.15-5.59,25.11,25.11,0,0,1-4.88-8.38A28,28,0,0,1,628.47,139.82Zm7.09,0a40,40,0,0,0,1.2,10,27.11,27.11,0,0,0,3.61,8.32,13.45,13.45,0,0,0,1,1.49,12.12,12.12,0,0,0,1.13,1.3,16.8,16.8,0,0,0,3.94,3,31.07,31.07,0,0,0,3.08,1.47l1.24.26a7.47,7.47,0,0,0,1.36.13h2a6.43,6.43,0,0,0,1.3-.13c.39-.09.83-.18,1.3-.26.74-.31,1.75-.79,3-1.47a17.83,17.83,0,0,0,4-3c.35-.39.71-.82,1.08-1.3s.72-1,1.07-1.49a28.16,28.16,0,0,0,3.64-8.32,40.82,40.82,0,0,0,0-19.89,28,28,0,0,0-3.64-8.32c-.35-.52-.71-1-1.07-1.5s-.73-.91-1.08-1.3a17.83,17.83,0,0,0-4-3c-1.28-.67-2.29-1.16-3-1.46l-1.3-.23a7.39,7.39,0,0,0-1.3-.1h-2a10.59,10.59,0,0,0-2.6.33,30.6,30.6,0,0,0-3.08,1.46,16.8,16.8,0,0,0-3.94,3,12.12,12.12,0,0,0-1.13,1.3,13.57,13.57,0,0,0-1,1.5,27,27,0,0,0-3.61,8.32A39.87,39.87,0,0,0,635.56,139.82Z"/><path class="cls-1" d="M724.92,144v15.34q0,3.57,1.3,4.94c.86.91,2.4,1.37,4.61,1.37h2v.52H710.16v-.52a25.47,25.47,0,0,0,3.71-.23,5.25,5.25,0,0,0,2.4-.91,3.74,3.74,0,0,0,1.3-2,11.44,11.44,0,0,0,.39-3.28V144c-2.16-4-4-7.35-5.49-10.11s-2.74-5-3.74-6.85l-2.3-4.23c-.55-1-.95-1.74-1.21-2.24s-.42-.81-.48-.94a1,1,0,0,0-.17-.26,7.69,7.69,0,0,0-2.27-2.6,10.25,10.25,0,0,0-2.73-1.43,12.46,12.46,0,0,0-2.47-.59,14.68,14.68,0,0,0-1.56-.13v-.39h20.21v.39h-1.1c-.48,0-1,.12-1.63.23a4.33,4.33,0,0,0-1.56.58,2.12,2.12,0,0,0-.87,1.17,2.64,2.64,0,0,0,.48,2l13.59,25,10-18.27a26.35,26.35,0,0,0,2-4.48,8.46,8.46,0,0,0,.46-3,2.93,2.93,0,0,0-1.82-2.7,4.35,4.35,0,0,0-1.37-.36c-.45,0-.81-.06-1.07-.06v-.46h17.42v.46H750a14.14,14.14,0,0,0-2.34.35,15.63,15.63,0,0,0-3.84,1.47,21.72,21.72,0,0,0-4.48,3.18,20.24,20.24,0,0,0-4.23,5.59Z"/><path class="cls-1" d="M750.85,139.82a28,28,0,0,1,1.82-10.2,25.15,25.15,0,0,1,4.88-8.39,21.68,21.68,0,0,1,7.15-5.59,20.13,20.13,0,0,1,8.9-2.08h3.77a20,20,0,0,1,8.84,2.08,21.48,21.48,0,0,1,7.28,5.59,27.73,27.73,0,0,1,4.94,8.39,30.47,30.47,0,0,1,0,20.41,27.8,27.8,0,0,1-4.94,8.38,21.48,21.48,0,0,1-7.28,5.59,20,20,0,0,1-8.84,2.08H773.6a20.13,20.13,0,0,1-8.9-2.08,21.68,21.68,0,0,1-7.15-5.59,25.11,25.11,0,0,1-4.88-8.38A28,28,0,0,1,750.85,139.82Zm7.09,0a40,40,0,0,0,1.2,10,27.11,27.11,0,0,0,3.61,8.32,13.45,13.45,0,0,0,1,1.49,12.12,12.12,0,0,0,1.13,1.3,16.8,16.8,0,0,0,3.94,3,31.07,31.07,0,0,0,3.08,1.47l1.24.26a7.47,7.47,0,0,0,1.36.13h2a6.43,6.43,0,0,0,1.3-.13c.39-.09.83-.18,1.3-.26.74-.31,1.75-.79,3-1.47a17.83,17.83,0,0,0,4-3c.35-.39.71-.82,1.08-1.3s.72-1,1.07-1.49a28.16,28.16,0,0,0,3.64-8.32,40.82,40.82,0,0,0,0-19.89,28,28,0,0,0-3.64-8.32c-.35-.52-.71-1-1.07-1.5s-.73-.91-1.08-1.3a17.83,17.83,0,0,0-4-3c-1.28-.67-2.29-1.16-3-1.46l-1.3-.23a7.39,7.39,0,0,0-1.3-.1h-2a10.59,10.59,0,0,0-2.6.33,30.6,30.6,0,0,0-3.08,1.46,16.8,16.8,0,0,0-3.94,3,12.12,12.12,0,0,0-1.13,1.3,13.57,13.57,0,0,0-1,1.5,27,27,0,0,0-3.61,8.32A39.87,39.87,0,0,0,757.94,139.82Z"/><path class="cls-1" d="M838,114.15h22.69v.45h-1q-1,.06-2.73.33a11,11,0,0,0-3.34,1.1,8.33,8.33,0,0,0-2.86,2.41,6.57,6.57,0,0,0-1.21,4.16v28.14a13.75,13.75,0,0,1-1.43,6.21,15.14,15.14,0,0,1-4.16,5.1,19.42,19.42,0,0,1-6.11,3.19,24,24,0,0,1-7.34,1.1h-.39a22.45,22.45,0,0,1-7.09-1.1,18.94,18.94,0,0,1-5.91-3.19,15.38,15.38,0,0,1-4.19-5.13,15.18,15.18,0,0,1-1.47-6.89V119.28a4.73,4.73,0,0,0-1.49-3.54,7.59,7.59,0,0,0-4.23-1.14h-2.08v-.52h22.69v.33l.06.06h-.06v.13h-2.67a6.56,6.56,0,0,0-3.51,1.11,4.5,4.5,0,0,0-1.49,3.05v30.81a21.32,21.32,0,0,0,1.17,7.15,14,14,0,0,0,3.48,5.53,12.57,12.57,0,0,0,5.62,3.08,15.39,15.39,0,0,0,7.6-.16,19.51,19.51,0,0,0,7.15-3.51,13.44,13.44,0,0,0,3.9-4.74,12.9,12.9,0,0,0,1.5-6.18V122.27a6.47,6.47,0,0,0-1.3-4,8.46,8.46,0,0,0-2.86-2.27,11.72,11.72,0,0,0-3.32-1c-1.12-.18-2-.29-2.66-.33h-1Z"/><path class="cls-2" d="M477.53,91a37.88,37.88,0,0,1,4.92-3.52,61.45,61.45,0,0,1,5.64-3c.21-.11.51-.24.88-.4s.61,0,.72.4a.77.77,0,0,1-.6.88c-.45.16-.79.27-1,.32-.32.21-.63.4-.92.56l-.84.48a45.14,45.14,0,0,0-5.2,3.28,50.5,50.5,0,0,0-4.64,3.84c-.37.91-.79,1.81-1.24,2.72s-.95,1.79-1.48,2.64-1.07,1.69-1.6,2.52a9.83,9.83,0,0,1-1.92,2.2,6.65,6.65,0,0,1-.92.6,2.08,2.08,0,0,1-1.24.2.43.43,0,0,0-.28-.16.43.43,0,0,1-.28-.16,2.09,2.09,0,0,1-.2-1.88,8.69,8.69,0,0,1,.84-1.64,9.7,9.7,0,0,1,1-1.52c.37-.48.69-.93,1-1.36l2.2-2.68c.72-.88,1.48-1.75,2.28-2.6.27-.85.55-1.71.84-2.56a9.47,9.47,0,0,0,.44-3,6.23,6.23,0,0,0-2.44,2l-2,2.6a58.34,58.34,0,0,0-4.08,7.64,31.16,31.16,0,0,0-2.48,9.56,3.55,3.55,0,0,1-.64,1.84c-.32.37-.82.37-1.52,0a4.29,4.29,0,0,1-.68-2.24c0-.85,0-1.71,0-2.56s-.06-1.83,0-2.76.07-1.85.12-2.76q.33-8.08,1.28-15.44a57.44,57.44,0,0,1,3.28-13.36q.24-.48.48-1.08a7.8,7.8,0,0,1,.56-1.12,1.94,1.94,0,0,1,.8-.76,1.4,1.4,0,0,1,1.2.08c-.11.48-.24,1-.4,1.68s-.29,1.15-.4,1.52v-.32a18.15,18.15,0,0,0-.88,3c-.21,1.07-.45,2.16-.72,3.28a86.09,86.09,0,0,0-1.48,10.56q-.44,5.52-.84,11.2c.64-1.55,1.29-3,2-4.52A24.88,24.88,0,0,1,469.29,91a23.53,23.53,0,0,1,2.8-3.76c.53-.53,1.09-1.07,1.68-1.6a4.06,4.06,0,0,1,2.32-1,1.66,1.66,0,0,1,1.44.8,4,4,0,0,1,.48,1.68,7.6,7.6,0,0,1-.12,2C477.76,89.82,477.64,90.44,477.53,91Zm-7,8.88a7.47,7.47,0,0,0-1.36,2.56,25.92,25.92,0,0,0,3.2-4.88Z"/><path class="cls-2" d="M504.49,100.33q3-3.28,6-6.92t5.88-7.24l1.92-2.4a3.59,3.59,0,0,0,1-1.2,1.13,1.13,0,0,1,1.48-.48.67.67,0,0,1-.08.92,2.47,2.47,0,0,0-.56.68q-3.92,5.28-8,10.28t-8.28,10q-1.28,7.44-2.92,14.6a52.61,52.61,0,0,1-4.68,12.92c-.69,1.23-1.43,2.41-2.2,3.56a9.49,9.49,0,0,1-3,2.84,11.83,11.83,0,0,1-1.32.4,3.71,3.71,0,0,1-1.56,0,4,4,0,0,1-2.36-2.44,9.74,9.74,0,0,1-.48-3.8,21.37,21.37,0,0,1,.68-4.2,31.46,31.46,0,0,1,1.2-3.72,42.75,42.75,0,0,1,1.92-4.08c.69-1.28,1.33-2.45,1.92-3.52a74,74,0,0,1,4.76-6.8q2.52-3.19,5.16-6.24,1.13-5.93,2.16-11.84t1.68-12.24a1.72,1.72,0,0,0-.76.76,8.24,8.24,0,0,1-.76,1.08,31.22,31.22,0,0,0-2.52,3.6q-1.15,1.92-2.36,3.8c-.8,1.25-1.64,2.47-2.52,3.64a20.18,20.18,0,0,1-3,3.2,1.65,1.65,0,0,0-.64.24,1.65,1.65,0,0,1-.64.24h-.88a2.89,2.89,0,0,1-1.92-1.4,7.72,7.72,0,0,1-1-2.72,13.39,13.39,0,0,1-.16-3.32,17.31,17.31,0,0,1,.52-3.28,4.83,4.83,0,0,1,.6-1.52,1.23,1.23,0,0,1,1.24-.64.76.76,0,0,1,.76.56A4,4,0,0,1,491,85a11.29,11.29,0,0,1-.12,1.6,10.58,10.58,0,0,0-.12,1.48c0,1,0,1.92,0,2.88a5.06,5.06,0,0,0,.6,2.4,10.58,10.58,0,0,0,3.88-3.48c1-1.47,2-2.89,3.16-4.28a26,26,0,0,1,1.52-2.12,26,26,0,0,0,1.52-2.12,7.9,7.9,0,0,0,1.6-2.12A3.43,3.43,0,0,1,505,77.53c.48-.16.88,0,1.2.64a4.34,4.34,0,0,1,.44,2.6c-.08,1.15-.15,2.17-.2,3.08q-.41,4.16-.88,8.6T504.49,100.33Zm-12.72,19.84a44.45,44.45,0,0,0-2.4,5.2,23,23,0,0,0-1.44,6.24,15.56,15.56,0,0,0,0,2.16,2.2,2.2,0,0,0,1,1.76,5.82,5.82,0,0,0,2.56-2.2,31.05,31.05,0,0,0,1.76-3.08,53.2,53.2,0,0,0,4-10.68q1.51-5.8,2.8-11.64a.07.07,0,0,0-.08-.08c-1.44,1.87-2.87,3.81-4.28,5.84A66.52,66.52,0,0,0,491.77,120.17Z"/><path class="cls-2" d="M550,98.17q2.32-2.81,4.6-5.8a64.24,64.24,0,0,1,5-5.8c.59-.59,1.2-1.19,1.84-1.8a4,4,0,0,1,2.32-1.08,1.1,1.1,0,0,1,.6.56,1,1,0,0,1,0,.88.93.93,0,0,1-1,0A67.34,67.34,0,0,0,556,93.21q-3.32,4.32-6.52,8.88-1.28,8.47-3.28,16.6a98.64,98.64,0,0,1-5,15.24,20.35,20.35,0,0,1-1,2.16c-.4.75-.81,1.49-1.24,2.24q-.4.72-.84,1.44a7.5,7.5,0,0,1-1,1.28,4,4,0,0,1-3.08,1.28s0,0-.16-.08a1.25,1.25,0,0,1-.52-.24,3,3,0,0,0-.52-.32,1.22,1.22,0,0,0-.4-.48,8,8,0,0,1-.64-2.8,16.67,16.67,0,0,1,.12-3,25.94,25.94,0,0,1,.56-2.92c.24-1,.47-1.84.68-2.64q.79-2.64,1.76-5.08t1.92-4.68a125.49,125.49,0,0,1,9.76-17c.27-1.71.52-3.49.76-5.36s.41-3.76.52-5.68.25-3.84.28-5.92a18.3,18.3,0,0,0-.68-5.52,1.77,1.77,0,0,0-1,.76,12.64,12.64,0,0,1-.8,1.08,13.25,13.25,0,0,1,.8,2.16,5.4,5.4,0,0,0,.48,1.12.94.94,0,0,1,0,1c-.43.16-.73.09-.92-.2a2.72,2.72,0,0,0-.6-.68c-.16-.27-.33-.53-.52-.8a4,4,0,0,1-.44-.8,25.63,25.63,0,0,0-2.16,3.2c-.64,1.12-1.33,2.21-2.08,3.28-.32.43-.71,1-1.16,1.72a12.08,12.08,0,0,1-1.56,2,5.48,5.48,0,0,1-1.88,1.32,2.31,2.31,0,0,1-2.2-.4,3.39,3.39,0,0,1-.72-2,10.47,10.47,0,0,1,.12-2.36,13.84,13.84,0,0,1,.6-2.36c.27-.77.53-1.45.8-2a22.86,22.86,0,0,1,1.44-2.84,11.86,11.86,0,0,1,1.76-2.28,7.87,7.87,0,0,1,1.2-1,5.41,5.41,0,0,1,1.6-.72,5.2,5.2,0,0,1,1.8-.16,3.93,3.93,0,0,1,1.72.56,4,4,0,0,0,.92-.88,6.51,6.51,0,0,1,1-1,3.31,3.31,0,0,1,1.2-.64,2.53,2.53,0,0,1,1.56.12,3.06,3.06,0,0,1,.64.44,3.12,3.12,0,0,1,.48.52,5,5,0,0,1,.84,1.8,11.86,11.86,0,0,1,.36,2.32c0,.83.08,1.69.08,2.6s0,1.79-.08,2.64c-.11,1.87-.21,3.65-.32,5.36S550.17,96.78,550,98.17Zm-14.48,32.16c-.43,1.39-.8,2.85-1.12,4.4a11.29,11.29,0,0,0,.08,4.8,7.37,7.37,0,0,0,2.32-2.92c.59-1.25,1.15-2.47,1.68-3.64a74.79,74.79,0,0,0,4.24-11.88q1.68-6.28,3-13.08c0-.05,0-.05-.08,0q-3,5.11-5.68,10.56A65.74,65.74,0,0,0,535.53,130.33Zm3.76-46.8a16.48,16.48,0,0,0-2.52,4,18.48,18.48,0,0,0-1.4,5.16A21.87,21.87,0,0,0,539,87.77c1-1.87,2.15-3.65,3.32-5.36a2.1,2.1,0,0,0-1.76.24C540.14,83,539.72,83.26,539.29,83.53Z"/><path class="cls-2" d="M563.93,88.17a16,16,0,0,0-1,2.92,13.61,13.61,0,0,0-.48,3.52,6,6,0,0,0,.72,3A2.83,2.83,0,0,0,565.69,99a7.92,7.92,0,0,0,4-.88,37.06,37.06,0,0,0,3.24-1.84c1.07-.75,2.07-1.48,3-2.2s1.77-1.43,2.52-2.12a44.55,44.55,0,0,0,4-3.44q1.88-1.84,3.72-3.76a2,2,0,0,0,.52-.64,7.15,7.15,0,0,1,.6-.88,4,4,0,0,1,.68-.68.62.62,0,0,1,.76,0q.55.24.24,1a5.4,5.4,0,0,1-.56,1,3,3,0,0,1-.48.88c-.21.27-.43.56-.64.88a60.34,60.34,0,0,1-4.2,4.4c-1.47,1.39-3,2.77-4.52,4.16a33,33,0,0,1-6.72,4.8,17.15,17.15,0,0,1-2,.92,11.56,11.56,0,0,1-2.32.64,11,11,0,0,1-2.44.12,4.79,4.79,0,0,1-2.28-.72,3.81,3.81,0,0,1-.84-.76l-.76-.92a7.62,7.62,0,0,1-1-3.4,15.28,15.28,0,0,1,.24-3.8,22.88,22.88,0,0,1,1-3.68,23.49,23.49,0,0,1,1.28-3,33.37,33.37,0,0,1,3.2-4.72,9.37,9.37,0,0,1,4.88-3,3.9,3.9,0,0,1,2.68.72,2.73,2.73,0,0,1,.84,2.56,5.29,5.29,0,0,1-1,2.4,16.12,16.12,0,0,1-1.68,2,17.85,17.85,0,0,1-3.16,2.52A6.57,6.57,0,0,1,563.93,88.17Zm7.44-8.56a8.32,8.32,0,0,0-4.24,2.92A29.74,29.74,0,0,0,564.41,87a5,5,0,0,0,3-.8,20.6,20.6,0,0,0,2.08-1.68c.59-.64,1.2-1.28,1.84-1.92a3.46,3.46,0,0,0,.88-2.72A.88.88,0,0,0,571.37,79.61Z"/><path class="cls-2" d="M591,73.61q6.87-.24,14.32-.72a105.91,105.91,0,0,1,14.8.08c.26,0,.56,0,.88,0a.69.69,0,0,1,.64.44c-.06.43-.26.64-.6.64a4.92,4.92,0,0,1-.92-.08,146,146,0,0,0-14.8.12L590.81,75q-1.12,6.56-2,13.36a96.42,96.42,0,0,0-.84,14.24c0,.69,0,1.47.08,2.32a16,16,0,0,0,.32,2.4,21.67,21.67,0,0,0,.52,2.16c.24.85.6,1.31,1.08,1.36a1.1,1.1,0,0,0,.84-.24,8.34,8.34,0,0,0,.88-.76,8.64,8.64,0,0,0,.8-.92c.24-.32.41-.56.52-.72a77.8,77.8,0,0,0,5.72-8.52q2.52-4.37,5.32-9.08c.48-.85,1-1.73,1.52-2.64s1.12-1.81,1.76-2.72a6.93,6.93,0,0,1,.72-.92.69.69,0,0,1,.8-.28c.42.21.5.55.24,1s-.48.79-.64,1q-2,3.36-3.76,6.8t-3.76,6.8c-.75,1.23-1.48,2.47-2.2,3.72s-1.48,2.49-2.28,3.72-1.63,2.43-2.48,3.6a8.68,8.68,0,0,1-3.28,2.72,4.31,4.31,0,0,1-1.68,0,4.94,4.94,0,0,1-2.76-3,21.48,21.48,0,0,1-1.08-4.52,34.05,34.05,0,0,1-.4-5.32c0-1.84,0-3.64.16-5.4.26-3.57.62-7,1.08-10.36s1-6.52,1.64-9.56c-2.46.11-5,.29-7.48.56s-5.11.45-7.72.56c-.32,0-.68,0-1.08,0s-.63-.17-.68-.6a.56.56,0,0,1,.64-.64,7.35,7.35,0,0,0,1.12-.08q3.75-.24,7.68-.64c2.61-.27,5.2-.45,7.76-.56q.48-1.68,1.08-4a31.31,31.31,0,0,1,1.4-4.2,5.6,5.6,0,0,1,.6-1.32,1.25,1.25,0,0,1,1.08-.76.84.84,0,0,1,.76.32,1.26,1.26,0,0,1,.16.76,6.59,6.59,0,0,1-.16.92c-.08.32-.15.61-.2.88-.27,1.17-.54,2.39-.8,3.64S591.23,72.54,591,73.61Z"/><path class="cls-2" d="M612.81,73.61q6.87-.24,14.32-.72a105.91,105.91,0,0,1,14.8.08c.26,0,.56,0,.88,0a.69.69,0,0,1,.64.44c-.06.43-.26.64-.6.64a4.92,4.92,0,0,1-.92-.08,146,146,0,0,0-14.8.12L612.65,75q-1.12,6.56-2,13.36a96.42,96.42,0,0,0-.84,14.24c0,.69,0,1.47.08,2.32a16,16,0,0,0,.32,2.4,21.67,21.67,0,0,0,.52,2.16c.24.85.6,1.31,1.08,1.36a1.1,1.1,0,0,0,.84-.24,8.34,8.34,0,0,0,.88-.76,8.64,8.64,0,0,0,.8-.92c.24-.32.41-.56.52-.72a77.8,77.8,0,0,0,5.72-8.52q2.52-4.37,5.32-9.08c.48-.85,1-1.73,1.52-2.64s1.12-1.81,1.76-2.72a6.93,6.93,0,0,1,.72-.92.69.69,0,0,1,.8-.28c.42.21.5.55.24,1s-.48.79-.64,1q-2,3.36-3.76,6.8t-3.76,6.8c-.75,1.23-1.48,2.47-2.2,3.72s-1.48,2.49-2.28,3.72-1.63,2.43-2.48,3.6a8.68,8.68,0,0,1-3.28,2.72,4.31,4.31,0,0,1-1.68,0,4.94,4.94,0,0,1-2.76-3,21.48,21.48,0,0,1-1.08-4.52,34.05,34.05,0,0,1-.4-5.32c0-1.84,0-3.64.16-5.4.26-3.57.62-7,1.08-10.36s1-6.52,1.64-9.56c-2.46.11-5,.29-7.48.56s-5.11.45-7.72.56c-.32,0-.68,0-1.08,0s-.63-.17-.68-.6a.56.56,0,0,1,.64-.64,7.35,7.35,0,0,0,1.12-.08q3.75-.24,7.68-.64c2.61-.27,5.2-.45,7.76-.56q.48-1.68,1.08-4a31.31,31.31,0,0,1,1.4-4.2,5.6,5.6,0,0,1,.6-1.32,1.25,1.25,0,0,1,1.08-.76.84.84,0,0,1,.76.32,1.26,1.26,0,0,1,.16.76,6.59,6.59,0,0,1-.16.92c-.08.32-.15.61-.2.88-.27,1.17-.54,2.39-.8,3.64S613.07,72.54,612.81,73.61Z"/><path class="cls-2" d="M631.05,83.53a1.26,1.26,0,0,1,.28.88c0,.32,0,.67,0,1-.06.91-.07,1.89,0,3s0,2.11,0,3.12,0,2,0,3a3.51,3.51,0,0,1-.84,2.32h-.64a2.53,2.53,0,0,1-.6-1.24,10.94,10.94,0,0,1-.28-1.8c-.06-1.17-.07-2.4,0-3.68a33.09,33.09,0,0,1,.28-3.76c0-.32.1-.69.16-1.12a3.91,3.91,0,0,1,.28-1.12,1.29,1.29,0,0,1,.56-.68A.94.94,0,0,1,631.05,83.53Zm.4-15.52a1.83,1.83,0,0,1-.64,1.28.86.86,0,0,1-.92-.16,1.24,1.24,0,0,1-.32-.76,1,1,0,0,1,.24-.76,1,1,0,0,1,.92-.24C631.15,67.58,631.39,67.8,631.45,68Z"/><path class="cls-2" d="M639,95.85c1.06-2,2.13-4.09,3.2-6.2a29.17,29.17,0,0,1,3.76-5.72c.21-.27.48-.59.8-1a5.87,5.87,0,0,1,1-1,3.41,3.41,0,0,1,1.24-.56,2.44,2.44,0,0,1,1.48.16,3.66,3.66,0,0,1,1.76,2.48q.56,1.92,1,3.84c.1.59.22,1.2.36,1.84s.28,1.28.44,1.92a12.56,12.56,0,0,0,.64,1.8,1.69,1.69,0,0,0,1,1.08,1.34,1.34,0,0,0,1.2-.28,9.47,9.47,0,0,1,1-.68c.32-.27.61-.49.88-.68a6.74,6.74,0,0,0,.8-.68,35.52,35.52,0,0,0,3.36-3.36,40.1,40.1,0,0,1,3.36-3.44,12.35,12.35,0,0,1,1.4-.92,2,2,0,0,1,1-.28c.29,0,.46.19.52.56s-.12.59-.52.8a3.84,3.84,0,0,0-.92.64,19.43,19.43,0,0,0-2.24,2.28c-.75.88-1.55,1.77-2.4,2.68-.43.43-.84.83-1.24,1.2s-.82.77-1.24,1.2c-.7.69-1.44,1.37-2.24,2a4.69,4.69,0,0,1-3.12,1l-.36-.16a1.27,1.27,0,0,0-.44-.08,4.9,4.9,0,0,1-2-2.48,24.51,24.51,0,0,1-1-3.4c-.27-1.2-.52-2.4-.76-3.6a11.21,11.21,0,0,0-1.16-3.24,4.78,4.78,0,0,0-2.08,1.8,27.72,27.72,0,0,1-1.6,2.28,36.35,36.35,0,0,0-2.72,5c-.8,1.76-1.58,3.57-2.32,5.44a4.64,4.64,0,0,0-.56,1.24,14.56,14.56,0,0,1-.56,1.48,4.37,4.37,0,0,1-.84,1.24,1.48,1.48,0,0,1-1.4.36,1.32,1.32,0,0,1-1.08-.84,5,5,0,0,1-.44-1.76,16.94,16.94,0,0,1,0-2.16c0-.77.06-1.48.12-2.12q.32-3.84.88-7.48a44.45,44.45,0,0,1,1.52-6.68c.21-.59.4-1.12.56-1.6a1.11,1.11,0,0,1,1-.8.91.91,0,0,1,1,.44,2.44,2.44,0,0,1,.24,1.24,9.58,9.58,0,0,1-.24,1.56,13.18,13.18,0,0,0-.28,1.4c-.38,2-.7,4-1,6.08S639.18,93.82,639,95.85Z"/><path class="cls-2" d="M681.69,98.17c1.54-1.87,3.08-3.8,4.6-5.8a62.68,62.68,0,0,1,5-5.8c.58-.59,1.2-1.19,1.83-1.8a4,4,0,0,1,2.33-1.08,1.11,1.11,0,0,1,.59.56,1,1,0,0,1,0,.88.7.7,0,0,1-.52.16.69.69,0,0,1-.52-.16,67.34,67.34,0,0,0-7.32,8.08q-3.33,4.32-6.53,8.88-1.27,8.47-3.27,16.6a100.83,100.83,0,0,1-5,15.24,20.35,20.35,0,0,1-1,2.16c-.4.75-.82,1.49-1.24,2.24q-.41.72-.84,1.44a8.72,8.72,0,0,1-1,1.28,4.32,4.32,0,0,1-1.28.92,4.19,4.19,0,0,1-1.8.36s-.06,0-.16-.08A1.2,1.2,0,0,1,665,142a3.38,3.38,0,0,0-.52-.32,1.22,1.22,0,0,0-.41-.48,8,8,0,0,1-.63-2.8,15,15,0,0,1,.12-3,28.36,28.36,0,0,1,.55-2.92c.25-1,.47-1.84.69-2.64q.8-2.64,1.76-5.08t1.92-4.68a124.44,124.44,0,0,1,9.76-17c.26-1.71.52-3.49.76-5.36s.41-3.76.52-5.68.25-3.84.28-5.92a18.29,18.29,0,0,0-.69-5.52,1.77,1.77,0,0,0-1,.76,12.63,12.63,0,0,1-.79,1.08,13.35,13.35,0,0,1,.79,2.16,5,5,0,0,0,.49,1.12.94.94,0,0,1,0,1c-.43.16-.74.09-.92-.2a2.56,2.56,0,0,0-.61-.68c-.15-.27-.33-.53-.51-.8a4,4,0,0,1-.45-.8,26.69,26.69,0,0,0-2.15,3.2c-.64,1.12-1.34,2.21-2.08,3.28-.32.43-.71,1-1.16,1.72a13.25,13.25,0,0,1-1.56,2,5.57,5.57,0,0,1-1.88,1.32,2.33,2.33,0,0,1-2.21-.4,3.45,3.45,0,0,1-.71-2,9.43,9.43,0,0,1,.12-2.36,14.81,14.81,0,0,1,.59-2.36q.4-1.16.81-2a20.41,20.41,0,0,1,1.44-2.84,12.24,12.24,0,0,1,1.75-2.28,8.52,8.52,0,0,1,1.21-1,5.41,5.41,0,0,1,1.6-.72,5.16,5.16,0,0,1,1.8-.16,4,4,0,0,1,1.72.56,4.18,4.18,0,0,0,.92-.88,6.51,6.51,0,0,1,1-1,3.16,3.16,0,0,1,1.2-.64,2.5,2.5,0,0,1,1.55.12,3.25,3.25,0,0,1,1.13,1,4.83,4.83,0,0,1,.83,1.8,12.64,12.64,0,0,1,.37,2.32c.05.83.08,1.69.08,2.6s0,1.79-.08,2.64c-.11,1.87-.22,3.65-.33,5.36S681.85,96.78,681.69,98.17Zm-14.48,32.16c-.43,1.39-.8,2.85-1.13,4.4a11.45,11.45,0,0,0,.08,4.8,7.39,7.39,0,0,0,2.33-2.92c.58-1.25,1.14-2.47,1.67-3.64a74.81,74.81,0,0,0,4.25-11.88q1.68-6.28,3-13.08c0-.05,0-.05-.08,0q-3,5.11-5.68,10.56A65,65,0,0,0,667.21,130.33ZM671,83.53a15.89,15.89,0,0,0-2.52,4A18.47,18.47,0,0,0,667,92.65a21.9,21.9,0,0,0,3.65-4.88c1-1.87,2.14-3.65,3.32-5.36a2.1,2.1,0,0,0-1.76.24C671.82,83,671.39,83.26,671,83.53Z"/><path class="cls-2" d="M3,48.56C4,45.63,5,42.77,6,40a71.16,71.16,0,0,1,3.56-8A20.17,20.17,0,0,0,11,29.52a2.83,2.83,0,0,1,2.08-1.68,1.68,1.68,0,0,1,1.8.52,5,5,0,0,1,.88,2A14.67,14.67,0,0,1,16.09,33c0,.93.06,1.75.12,2.44q.08,2.33.24,4.68a6.71,6.71,0,0,0,1.12,3.64A7.94,7.94,0,0,0,20.45,41a32.12,32.12,0,0,1,2.32-3.28c.58-.75,1.17-1.53,1.76-2.36s1.2-1.61,1.84-2.36l.8-.6a.66.66,0,0,1,1,.12.71.71,0,0,1-.2,1,1.7,1.7,0,0,0-.68.76,4.73,4.73,0,0,0-.68.84q-.29.44-.6.84-1.37,1.76-2.68,3.84a39.26,39.26,0,0,1-2.84,3.92,13.27,13.27,0,0,1-1.36,1.32,2.34,2.34,0,0,1-1.92.52,2,2,0,0,1-1-.48,3.25,3.25,0,0,1-.72-.8,7.8,7.8,0,0,1-1-3c-.16-1.2-.27-2.47-.32-3.8s-.11-2.65-.16-4a13.62,13.62,0,0,0-.56-3.48,8.12,8.12,0,0,0-2,2.72c-.51,1.07-1,2.19-1.48,3.36Q8.2,40.41,6.81,44.92T4.21,54.4c-.16.59-.35,1.19-.56,1.8a2.24,2.24,0,0,1-1.2,1.32,1.69,1.69,0,0,1-1-.12A5.28,5.28,0,0,1,.77,57a5.63,5.63,0,0,1-.64-2.84c0-1.15,0-2.23-.08-3.24a76,76,0,0,1,.24-9.24q.39-4.76,1-9.56a76.44,76.44,0,0,1,1.72-8.52q1.08-4.12,2.28-8.2L5.69,14a14.81,14.81,0,0,1,.48-1.52,4.55,4.55,0,0,1,.68-1.28,1.4,1.4,0,0,1,1-.6,1,1,0,0,1,.88.24,2.67,2.67,0,0,1,.48.64,1.78,1.78,0,0,1,0,1.32,10.23,10.23,0,0,0-.44,1.48,16.43,16.43,0,0,0-.6,2,9.11,9.11,0,0,0-.2,2.08.5.5,0,0,1-.28.32.46.46,0,0,0-.28.32,106.36,106.36,0,0,0-3,13.8A116,116,0,0,0,3,48.56Z"/><path class="cls-2" d="M26.6,36.72a16,16,0,0,0-1,2.92,13.61,13.61,0,0,0-.48,3.52,6,6,0,0,0,.72,3,2.84,2.84,0,0,0,2.56,1.36,7.92,7.92,0,0,0,4-.88,34.32,34.32,0,0,0,3.24-1.84c1.07-.75,2.07-1.48,3-2.2s1.78-1.43,2.52-2.12A43.18,43.18,0,0,0,45,37q1.89-1.84,3.72-3.76a1.91,1.91,0,0,0,.52-.64,8.47,8.47,0,0,1,.6-.88,4.37,4.37,0,0,1,.68-.68.62.62,0,0,1,.76,0q.57.24.24,1A5.4,5.4,0,0,1,51,33a2.61,2.61,0,0,1-.48.88c-.21.27-.42.56-.64.88a58.29,58.29,0,0,1-4.2,4.4c-1.46,1.39-3,2.77-4.52,4.16a32.46,32.46,0,0,1-6.72,4.8,16.41,16.41,0,0,1-2,.92,11.38,11.38,0,0,1-2.32.64,11,11,0,0,1-2.44.12,4.86,4.86,0,0,1-2.28-.72,3.81,3.81,0,0,1-.84-.76l-.76-.92a7.75,7.75,0,0,1-1-3.4,15.28,15.28,0,0,1,.24-3.8,24,24,0,0,1,1-3.68,25,25,0,0,1,1.28-3,33.37,33.37,0,0,1,3.2-4.72,9.41,9.41,0,0,1,4.88-3,3.88,3.88,0,0,1,2.68.72,2.73,2.73,0,0,1,.84,2.56,5.08,5.08,0,0,1-1,2.4,15.3,15.3,0,0,1-1.68,2A17.85,17.85,0,0,1,31.12,36,6.55,6.55,0,0,1,26.6,36.72ZM34,28.16a8.36,8.36,0,0,0-4.24,2.92,29.74,29.74,0,0,0-2.72,4.44,5,5,0,0,0,3-.8A20.6,20.6,0,0,0,32.12,33c.59-.64,1.2-1.28,1.84-1.92a3.42,3.42,0,0,0,.88-2.72A.88.88,0,0,0,34,28.16Z"/><path class="cls-2" d="M52.84.08,52.92,0a1.3,1.3,0,0,1,1.44,1A8.54,8.54,0,0,1,54.6,3a34.26,34.26,0,0,1-.28,6.52c-.29,2.11-.54,4.17-.76,6.2-.26,2.77-.53,5.59-.8,8.44s-.5,5.72-.72,8.6q-.48,7.61-1,15.16a144.36,144.36,0,0,0-.24,16A10,10,0,0,0,50.84,65a8.89,8.89,0,0,1,.08,1.24,3.31,3.31,0,0,1-.16,1.08.62.62,0,0,1-.64.48,1.13,1.13,0,0,1-1.4-1,14.92,14.92,0,0,1-.36-2.08c-.1-.85-.17-1.68-.2-2.48s-.06-1.52-.12-2.16c.06-1.6.06-3.19,0-4.76s0-3.08,0-4.52q.09-11.59,1-22T51.24,7.84l.48-4.08a14,14,0,0,0,.2-2A2.72,2.72,0,0,1,52.6.08Z"/><path class="cls-2" d="M60.2,49.84q2.09-5,4.48-9.52a25.32,25.32,0,0,1,6.24-7.76l.76-.32c.24-.11.52-.21.84-.32a2.67,2.67,0,0,1,2.4.72,4.31,4.31,0,0,1,1,2.2,7.34,7.34,0,0,1,0,2.76,10.53,10.53,0,0,1-.76,2.48,22.77,22.77,0,0,0,3-2c1-.75,2-1.47,3-2.16.75-.53,1.51-1.07,2.28-1.6s1.56-1.07,2.36-1.6a6.54,6.54,0,0,0,.88-.44.77.77,0,0,1,1,.12.73.73,0,0,1-.24,1l-1,.72Q83.16,36.49,80,38.84t-6.4,4.68a24,24,0,0,1-1.92,3A23.18,23.18,0,0,1,69.4,49.2c-.32.27-.7.63-1.16,1.08s-.92.88-1.4,1.28a10.8,10.8,0,0,1-1.56,1.08,4.06,4.06,0,0,1-1.64.56q-1.76.24-1.92-1.2a1.93,1.93,0,0,1,.44-1.68,14.85,14.85,0,0,1,1.16-1.12c.43-.43.82-.8,1.16-1.12l1.08-1a26,26,0,0,0,2.56-1.88,27.21,27.21,0,0,1,2.56-1.88c.38-.59.76-1.27,1.16-2s.76-1.56,1.08-2.36c.11-.37.23-.8.36-1.28a8.14,8.14,0,0,0,.28-1.44,4.39,4.39,0,0,0,0-1.36,2.09,2.09,0,0,0-.6-1.12,4.37,4.37,0,0,0-2.8,1.32c-.74.77-1.41,1.53-2,2.28a35.48,35.48,0,0,0-4,6.44,70.11,70.11,0,0,0-3,7.4q-.31.79-.6,1.56A12,12,0,0,0,60,54.32a16.84,16.84,0,0,0-.24,2.92c0,1,0,2.07-.08,3.08-.1,2-.21,4.05-.32,6.08s-.24,4.08-.4,6.16c0,.48-.09,1-.12,1.48a9.63,9.63,0,0,1-.16,1.4,3,3,0,0,1-.48,1.16,2,2,0,0,1-1,.76H57A1.35,1.35,0,0,1,55.76,76a22.05,22.05,0,0,1-.12-2.28,38.52,38.52,0,0,1,.12-4.6c.14-1.47.31-3,.52-4.44.11-.69.24-1.39.4-2.08s.3-1.39.4-2.08a34.56,34.56,0,0,0,.24-4.12c0-1.41.06-2.76.16-4q.33-5.11.6-10.08c.19-3.31.39-6.69.6-10.16V30.84a12,12,0,0,1,.08-1.4,3.14,3.14,0,0,1,.36-1.12,1,1,0,0,1,.92-.48.94.94,0,0,1,.92.6,4.22,4.22,0,0,1,.36,1.44,8.62,8.62,0,0,1,0,1.76c0,.61-.08,1.13-.08,1.56q-.32,4.15-.6,8.36T60.2,49.84Z"/><path class="cls-2" d="M87.56,32.08a1.21,1.21,0,0,1,.28.88c0,.32,0,.67,0,1,0,.91-.07,1.89,0,3s0,2.11,0,3.12,0,2,0,3a3.46,3.46,0,0,1-.84,2.32h-.64a2.71,2.71,0,0,1-.6-1.24,13.58,13.58,0,0,1-.28-1.8c-.05-1.17-.06-2.4,0-3.68a35.56,35.56,0,0,1,.28-3.76c.06-.32.11-.69.16-1.12a4.7,4.7,0,0,1,.28-1.12,1.34,1.34,0,0,1,.56-.68A.94.94,0,0,1,87.56,32.08ZM88,16.56a1.83,1.83,0,0,1-.64,1.28.87.87,0,0,1-.92-.16,1.37,1.37,0,0,1-.32-.76,1,1,0,0,1,.24-.76,1,1,0,0,1,.92-.24C87.67,16.13,87.91,16.35,88,16.56Z"/><path class="cls-2" d="M95.48,44.4c1.07-2,2.14-4.09,3.2-6.2a29.62,29.62,0,0,1,3.76-5.72c.22-.27.48-.59.8-1a6.24,6.24,0,0,1,1-1,3.57,3.57,0,0,1,1.24-.56,2.43,2.43,0,0,1,1.48.16,3.63,3.63,0,0,1,1.76,2.48q.57,1.92,1,3.84c.11.59.23,1.2.36,1.84s.28,1.28.44,1.92a12.56,12.56,0,0,0,.64,1.8,1.75,1.75,0,0,0,1,1.08,1.33,1.33,0,0,0,1.2-.28c.38-.29.7-.52,1-.68s.61-.49.88-.68a5.46,5.46,0,0,0,.8-.68,33.3,33.3,0,0,0,3.36-3.36A41.65,41.65,0,0,1,122.68,34a14.45,14.45,0,0,1,1.4-.92,2,2,0,0,1,1-.28c.29,0,.47.19.52.56s-.12.59-.52.8a3.84,3.84,0,0,0-.92.64,20.25,20.25,0,0,0-2.24,2.28c-.74.88-1.55,1.77-2.4,2.68-.42.43-.84.83-1.24,1.2s-.81.77-1.24,1.2c-.69.69-1.44,1.37-2.24,2a4.69,4.69,0,0,1-3.12,1l-.36-.16a1.23,1.23,0,0,0-.44-.08,4.9,4.9,0,0,1-2-2.48,26,26,0,0,1-1-3.4c-.26-1.2-.52-2.4-.76-3.6A10.93,10.93,0,0,0,106,32.24a4.84,4.84,0,0,0-2.08,1.8,25.49,25.49,0,0,1-1.6,2.28,37.46,37.46,0,0,0-2.72,5q-1.2,2.64-2.32,5.44A5,5,0,0,0,96.68,48a14.56,14.56,0,0,1-.56,1.48,4,4,0,0,1-.84,1.24,1.47,1.47,0,0,1-1.4.36,1.32,1.32,0,0,1-1.08-.84,5.17,5.17,0,0,1-.44-1.76c0-.67-.06-1.39,0-2.16s.07-1.48.12-2.12q.33-3.84.88-7.48A45.71,45.71,0,0,1,94.84,30c.22-.59.4-1.12.56-1.6a1.12,1.12,0,0,1,1-.8.91.91,0,0,1,1,.44,2.25,2.25,0,0,1,.24,1.24,7.8,7.8,0,0,1-.24,1.56c-.13.56-.22,1-.28,1.4-.37,2-.69,4-1,6.08S95.7,42.37,95.48,44.4Z"/><path class="cls-2" d="M138.2,46.72q2.33-2.8,4.6-5.8a64.24,64.24,0,0,1,5-5.8c.59-.59,1.2-1.19,1.84-1.8A4,4,0,0,1,152,32.24a1.1,1.1,0,0,1,.6.56,1,1,0,0,1,0,.88.93.93,0,0,1-1,0,67.34,67.34,0,0,0-7.32,8.08q-3.32,4.32-6.52,8.88-1.27,8.47-3.28,16.6a98.64,98.64,0,0,1-5,15.24,20.35,20.35,0,0,1-1,2.16c-.4.75-.81,1.49-1.24,2.24q-.4.72-.84,1.44a7.5,7.5,0,0,1-1,1.28,4.2,4.2,0,0,1-1.28.92,4.13,4.13,0,0,1-1.8.36c0,.05,0,0-.16-.08a1.32,1.32,0,0,1-.52-.24,2.62,2.62,0,0,0-.52-.32,1.22,1.22,0,0,0-.4-.48A8.2,8.2,0,0,1,120,87a16.67,16.67,0,0,1,.12-3,28.39,28.39,0,0,1,.56-2.92c.24-1,.47-1.84.68-2.64.54-1.76,1.12-3.45,1.76-5.08s1.28-3.19,1.92-4.68a125.49,125.49,0,0,1,9.76-17c.27-1.71.52-3.49.76-5.36s.41-3.76.52-5.68.25-3.84.28-5.92a18.3,18.3,0,0,0-.68-5.52,1.77,1.77,0,0,0-1,.76,12.64,12.64,0,0,1-.8,1.08,13.25,13.25,0,0,1,.8,2.16,5.4,5.4,0,0,0,.48,1.12.94.94,0,0,1,0,1c-.43.16-.73.09-.92-.2a2.72,2.72,0,0,0-.6-.68c-.16-.27-.33-.53-.52-.8a4,4,0,0,1-.44-.8,25.63,25.63,0,0,0-2.16,3.2c-.64,1.12-1.33,2.21-2.08,3.28-.32.43-.71,1-1.16,1.72a12.08,12.08,0,0,1-1.56,2,5.48,5.48,0,0,1-1.88,1.32,2.31,2.31,0,0,1-2.2-.4,3.53,3.53,0,0,1-.72-2A10.47,10.47,0,0,1,121,39.6a16,16,0,0,1,.6-2.36c.27-.77.54-1.45.8-2a22.86,22.86,0,0,1,1.44-2.84,11.86,11.86,0,0,1,1.76-2.28,7.87,7.87,0,0,1,1.2-1,5.41,5.41,0,0,1,1.6-.72,5.2,5.2,0,0,1,1.8-.16,3.93,3.93,0,0,1,1.72.56,4,4,0,0,0,.92-.88,6.51,6.51,0,0,1,1-1,3.31,3.31,0,0,1,1.2-.64,2.53,2.53,0,0,1,1.56.12,3.06,3.06,0,0,1,.64.44,3.12,3.12,0,0,1,.48.52,5,5,0,0,1,.84,1.8,11.86,11.86,0,0,1,.36,2.32c.05.83.08,1.69.08,2.6s0,1.79-.08,2.64c-.11,1.87-.21,3.65-.32,5.36S138.36,45.33,138.2,46.72ZM123.72,78.88c-.42,1.39-.8,2.85-1.12,4.4a11.29,11.29,0,0,0,.08,4.8A7.37,7.37,0,0,0,125,85.16c.59-1.25,1.15-2.47,1.68-3.64a74.79,74.79,0,0,0,4.24-11.88q1.68-6.28,3-13.08c0-.05,0-.05-.08,0q-3,5.11-5.68,10.56A65.74,65.74,0,0,0,123.72,78.88Zm3.76-46.8A16.48,16.48,0,0,0,125,36a18.48,18.48,0,0,0-1.4,5.16,21.87,21.87,0,0,0,3.64-4.88c1-1.87,2.15-3.65,3.32-5.36a2.1,2.1,0,0,0-1.76.24C128.33,31.52,127.91,31.81,127.48,32.08Z"/><path class="cls-2" d="M184.36,48.88q3-3.29,6-6.92t5.88-7.24l1.92-2.4a3.59,3.59,0,0,0,1-1.2,1.13,1.13,0,0,1,1.48-.48.67.67,0,0,1-.08.92,2.47,2.47,0,0,0-.56.68q-3.92,5.28-8,10.28t-8.28,10q-1.28,7.44-2.92,14.6a52.61,52.61,0,0,1-4.68,12.92c-.69,1.23-1.43,2.41-2.2,3.56a9.49,9.49,0,0,1-3,2.84,11.83,11.83,0,0,1-1.32.4,3.71,3.71,0,0,1-1.56,0,4,4,0,0,1-2.36-2.44,9.74,9.74,0,0,1-.48-3.8,21.37,21.37,0,0,1,.68-4.2,31.46,31.46,0,0,1,1.2-3.72A42.75,42.75,0,0,1,169,68.64c.69-1.28,1.33-2.45,1.92-3.52a74,74,0,0,1,4.76-6.8q2.52-3.19,5.16-6.24Q182,46.16,183,40.24T184.68,28a1.72,1.72,0,0,0-.76.76,8.24,8.24,0,0,1-.76,1.08,31.22,31.22,0,0,0-2.52,3.6q-1.15,1.92-2.36,3.8c-.8,1.25-1.64,2.47-2.52,3.64a20.18,20.18,0,0,1-3,3.2,1.65,1.65,0,0,0-.64.24,1.65,1.65,0,0,1-.64.24h-.88a2.89,2.89,0,0,1-1.92-1.4,7.72,7.72,0,0,1-1-2.72,13.39,13.39,0,0,1-.16-3.32,17.31,17.31,0,0,1,.52-3.28,4.83,4.83,0,0,1,.6-1.52,1.23,1.23,0,0,1,1.24-.64.76.76,0,0,1,.76.56,4,4,0,0,1,.2,1.32,11.29,11.29,0,0,1-.12,1.6,10.58,10.58,0,0,0-.12,1.48c0,1,0,1.92,0,2.88a5.06,5.06,0,0,0,.6,2.4,10.58,10.58,0,0,0,3.88-3.48c1-1.47,2-2.89,3.16-4.28A26,26,0,0,1,179.8,32a26,26,0,0,0,1.52-2.12,7.9,7.9,0,0,0,1.6-2.12,3.43,3.43,0,0,1,1.92-1.72c.48-.16.88.05,1.2.64a4.34,4.34,0,0,1,.44,2.6c-.08,1.15-.15,2.17-.2,3.08q-.41,4.16-.88,8.6T184.36,48.88ZM171.64,68.72a44.45,44.45,0,0,0-2.4,5.2,23,23,0,0,0-1.44,6.24,15.56,15.56,0,0,0,0,2.16,2.2,2.2,0,0,0,1,1.76,5.82,5.82,0,0,0,2.56-2.2,31.05,31.05,0,0,0,1.76-3.08,53.2,53.2,0,0,0,4-10.68q1.51-5.81,2.8-11.64a.07.07,0,0,0-.08-.08c-1.44,1.87-2.87,3.81-4.28,5.84A66.52,66.52,0,0,0,171.64,68.72Z"/><path class="cls-2" d="M203.56,30.16a6.26,6.26,0,0,1,4.28,1.68,7.68,7.68,0,0,1,2,4.08q2.56-.48,5.32-1.08t5.4-1.24a6,6,0,0,0,.8-.28,6.48,6.48,0,0,1,1-.32,2.77,2.77,0,0,1,.92-.08.66.66,0,0,1,.56.36.49.49,0,0,1-.16.64,3.5,3.5,0,0,1-.8.44,6.32,6.32,0,0,1-1,.32c-.37.08-.64.15-.8.2q-2.56.79-5.4,1.4T210,37.44a16.66,16.66,0,0,1-.68,5.8,20.13,20.13,0,0,1-2.2,4.92A24.92,24.92,0,0,1,204,52a8.92,8.92,0,0,1-4.2,2.4h-1.2a3.25,3.25,0,0,1-1.36-.6,11.57,11.57,0,0,1-1-.92A7,7,0,0,1,195,49.4a20.79,20.79,0,0,1,0-4.24,38.16,38.16,0,0,1,.72-4.32c.32-1.41.61-2.68.88-3.8a3.15,3.15,0,0,1,0-2.88,6.13,6.13,0,0,1,1.56-2.08,14.56,14.56,0,0,0,.6-1.68,13.9,13.9,0,0,1,.68-1.84,5.65,5.65,0,0,1,1-1.52A2,2,0,0,1,202,26.4a1.57,1.57,0,0,1,1.6,1.16A4.26,4.26,0,0,1,203.56,30.16Zm-3.84,8.32c-.27,1.55-.6,3.21-1,5a19.67,19.67,0,0,0-.44,5.48,7.28,7.28,0,0,0,.28,1.36,2,2,0,0,0,.76,1A6.2,6.2,0,0,0,203,49.44c.91-1,1.76-2,2.56-3.12a31.87,31.87,0,0,0,1.92-3.88,9.63,9.63,0,0,0,.64-4.68,35,35,0,0,1-4.08.6A34.63,34.63,0,0,1,199.72,38.48Zm3.52-6.64a2.4,2.4,0,0,0-.16.92.53.53,0,0,1-.48.6,1.11,1.11,0,0,1-.36,0L202,33.2a1.44,1.44,0,0,1-.08-1.12,3.31,3.31,0,0,0-.6,1q-.19.56-.36,1.2a12.57,12.57,0,0,0-.4,1.28c-.11.43-.21.85-.32,1.28,1.49,0,2.88-.05,4.16-.16s2.53-.27,3.76-.48a6.39,6.39,0,0,0-1.48-3.16A4.67,4.67,0,0,0,203.24,31.84Z"/><path class="cls-2" d="M224,44.48a1.54,1.54,0,0,0,.68-.6c.18-.29.36-.57.52-.84.58-.75,1.16-1.55,1.72-2.4S228,39,228.6,38.24c.37-.59.74-1.15,1.12-1.68a16,16,0,0,1,1.2-1.52,12.47,12.47,0,0,0,1.36-1.44,2.13,2.13,0,0,1,1.92-.72,2,2,0,0,1,1.4.68,5.06,5.06,0,0,1,.84,1.44,12.42,12.42,0,0,1,.52,1.88l.36,1.92c.1.53.24,1.11.4,1.72a18.74,18.74,0,0,0,.56,1.8c.21.53.45,1.08.72,1.64a1.64,1.64,0,0,0,1.12,1,1.59,1.59,0,0,0,1.16-.12,7.63,7.63,0,0,0,1.16-.68,8.79,8.79,0,0,0,1-.88l.72-.72a15.79,15.79,0,0,0,1.6-1.68,23.17,23.17,0,0,1,1.6-1.76c.74-.91,1.5-1.8,2.28-2.68s1.53-1.8,2.28-2.76a6.56,6.56,0,0,0,.64-1,1,1,0,0,1,1-.56.94.94,0,0,1,.28,1.24,7.64,7.64,0,0,1-.68,1.08l-.8,1.08-.72.92c-1.12,1.33-2.3,2.77-3.52,4.32a33.19,33.19,0,0,1-3.92,4.16A19.5,19.5,0,0,1,242,46.52a3.34,3.34,0,0,1-3.08,0,5.4,5.4,0,0,1-1.88-2.2,14.42,14.42,0,0,1-1.08-3c-.27-1.07-.52-2.16-.76-3.28a11.75,11.75,0,0,0-1.08-3,4.56,4.56,0,0,0-1.48,1.28c-.4.53-.82,1.09-1.24,1.68s-.82,1.16-1.16,1.72l-1.08,1.72c-.75,1.17-1.47,2.35-2.16,3.52a7.74,7.74,0,0,1-2.88,2.8,2.23,2.23,0,0,1-1.48-.16,3.3,3.3,0,0,1-1-.8,10.46,10.46,0,0,1-.64-3.36,33,33,0,0,1,.08-4c.11-1.36.27-2.69.48-4s.43-2.52.64-3.64c.05-.37.11-.79.16-1.24a7.38,7.38,0,0,1,.28-1.32,4.17,4.17,0,0,1,.48-1.08,1.07,1.07,0,0,1,.76-.52.9.9,0,0,1,.72.12,2.07,2.07,0,0,1,.4.44,4.4,4.4,0,0,1,.08,2.2,8.46,8.46,0,0,0-.16,2.36q-.4,2.72-.68,5.6T224,44.48Z"/><path class="cls-2" d="M283.4,44.8a5.65,5.65,0,0,0,1.32-1.52c.34-.59.7-1.17,1.08-1.76s.73-1.17,1.08-1.76.68-1.17,1-1.76.74-1,1.12-1.6.77-1.17,1.2-1.76l.8-1.16a4.61,4.61,0,0,1,.92-1,2.47,2.47,0,0,1,1.16-.56,2.64,2.64,0,0,1,1.44.2,3.5,3.5,0,0,1,.92,2,21.26,21.26,0,0,1,.24,2.6c0,.91.06,1.81.12,2.72a5.87,5.87,0,0,0,.56,2.32,4.65,4.65,0,0,0,1.64-1.4l1.32-1.8c.42-.64.84-1.29,1.24-2a13.73,13.73,0,0,0,1-2,5.53,5.53,0,0,0,.68-1.4c.18-.56.62-.79,1.32-.68a1.38,1.38,0,0,1-.08,1.48,3.48,3.48,0,0,0-.56,1.48c-.27.48-.51,1-.72,1.4s-.43.92-.64,1.4a14.89,14.89,0,0,0-1.6,2.4,8.46,8.46,0,0,1-1.84,2.32,2.92,2.92,0,0,1-1,.64,2.66,2.66,0,0,1-1.48.08,2.82,2.82,0,0,1-1.48-1.48,7.8,7.8,0,0,1-.6-2.32,22.59,22.59,0,0,1-.16-2.8,14.93,14.93,0,0,0-.24-2.76,1.44,1.44,0,0,0-.68.6q-.28.44-.6.84c-.59.8-1.16,1.65-1.72,2.56s-1.08,1.81-1.56,2.72a25,25,0,0,0-2.12,3.56,6.71,6.71,0,0,1-2.76,2.92,3.06,3.06,0,0,0-.56,0,1.85,1.85,0,0,1-.64,0,5.43,5.43,0,0,1-.8-.4,7.15,7.15,0,0,1-1.08-3.64c-.08-1.47-.12-3-.12-4.52s0-3.09-.08-4.64-.14-3-.24-4.4a44.78,44.78,0,0,0-3,6.88c-.86,2.51-1.68,5.12-2.48,7.84q-.81,2.88-1.48,5.92t-1.48,6.24c-.11.48-.22,1-.32,1.44a7,7,0,0,1-.44,1.32,2.92,2.92,0,0,1-.76,1A2.27,2.27,0,0,1,269,61a1.62,1.62,0,0,1-1.44-1.16,13.69,13.69,0,0,1-.48-2.12,38.93,38.93,0,0,1,0-7q.32-3.72.72-7.08t1-6.76q.56-3.41,1.28-6.52c.16-.64.33-1.31.52-2a1.55,1.55,0,0,1,1.4-1.2,1.2,1.2,0,0,1,.92.16,1.69,1.69,0,0,1,.44.64,4,4,0,0,1-.08,1.76,3.89,3.89,0,0,0-.08,1.76,5.51,5.51,0,0,0,.32,1.36,2.16,2.16,0,0,1,.08,1.28.55.55,0,0,1-.52.32.81.81,0,0,1-.6-.24q-.65,4.08-1.2,8.08c-.38,2.67-.64,5.49-.8,8.48q1.35-4.63,2.88-9.68t3.36-9.6c.16-.37.37-.89.64-1.56a9.41,9.41,0,0,1,1-1.88,4.63,4.63,0,0,1,1.36-1.36,1.66,1.66,0,0,1,1.72,0,2.1,2.1,0,0,1,1.08,1.28,10.06,10.06,0,0,1,.52,2.16,20.28,20.28,0,0,1,.16,2.52c0,.88,0,1.67.08,2.36a43,43,0,0,1,0,5.08A22.8,22.8,0,0,0,283.4,44.8Z"/><path class="cls-2" d="M307.88,30.16a6.28,6.28,0,0,1,4.28,1.68,7.75,7.75,0,0,1,2,4.08c1.7-.32,3.48-.68,5.32-1.08s3.64-.81,5.4-1.24a6,6,0,0,0,.8-.28,6.48,6.48,0,0,1,1-.32,2.75,2.75,0,0,1,.92-.08.68.68,0,0,1,.56.36.5.5,0,0,1-.16.64,3.73,3.73,0,0,1-.8.44,6.32,6.32,0,0,1-1,.32c-.38.08-.64.15-.8.2q-2.56.79-5.4,1.4t-5.64,1.16a16.9,16.9,0,0,1-.68,5.8,20.51,20.51,0,0,1-2.2,4.92A25.53,25.53,0,0,1,308.32,52a8.92,8.92,0,0,1-4.2,2.4h-1.2a3.2,3.2,0,0,1-1.36-.6,10.34,10.34,0,0,1-1-.92,6.89,6.89,0,0,1-1.24-3.48,20.1,20.1,0,0,1,0-4.24,38.16,38.16,0,0,1,.72-4.32c.32-1.41.61-2.68.88-3.8a3.12,3.12,0,0,1,0-2.88,6.13,6.13,0,0,1,1.56-2.08,14.56,14.56,0,0,0,.6-1.68,12.62,12.62,0,0,1,.68-1.84,5.42,5.42,0,0,1,1-1.52,2,2,0,0,1,1.56-.64,1.57,1.57,0,0,1,1.6,1.16A4.42,4.42,0,0,1,307.88,30.16ZM304,38.48c-.27,1.55-.6,3.21-1,5A19.67,19.67,0,0,0,302.6,49a6.56,6.56,0,0,0,.28,1.36,1.92,1.92,0,0,0,.76,1,6.23,6.23,0,0,0,3.68-1.92c.9-1,1.76-2,2.56-3.12a31.87,31.87,0,0,0,1.92-3.88,9.75,9.75,0,0,0,.64-4.68,35,35,0,0,1-4.08.6A34.63,34.63,0,0,1,304,38.48Zm3.52-6.64a2.4,2.4,0,0,0-.16.92.53.53,0,0,1-.48.6,1.11,1.11,0,0,1-.36,0l-.28-.12a1.44,1.44,0,0,1-.08-1.12,3.31,3.31,0,0,0-.6,1,9.42,9.42,0,0,0-.36,1.2,10.48,10.48,0,0,0-.4,1.28c-.11.43-.22.85-.32,1.28,1.49,0,2.88-.05,4.16-.16s2.53-.27,3.76-.48A6.39,6.39,0,0,0,311,33.08,4.69,4.69,0,0,0,307.56,31.84Z"/><path class="cls-2" d="M328,30.16a1.67,1.67,0,0,1,.6,1.48c0,.67,0,1.29,0,1.88v5.92a44.05,44.05,0,0,0,.32,5.6c.37-.91.76-1.84,1.16-2.8s.81-2,1.24-3,.85-1.91,1.28-2.84a7.92,7.92,0,0,1,1.6-2.36,6.78,6.78,0,0,1,1.28-.72,2.68,2.68,0,0,1,1.6-.16,6.09,6.09,0,0,1,1.44.48l1.36.68a7.38,7.38,0,0,0,1.48.56,5.63,5.63,0,0,0,1.8.12,5.33,5.33,0,0,0,1.56-.48l1.4-.72a2.48,2.48,0,0,0,1-.8,1.4,1.4,0,0,1,1.12-.56.85.85,0,0,1,.16.84,2.25,2.25,0,0,1-.52.8,5,5,0,0,1-.8.64,4,4,0,0,0-.68.52A6.45,6.45,0,0,1,343,36.52a8.71,8.71,0,0,1-3.8-.44,5.6,5.6,0,0,1-1.36-.56,2.23,2.23,0,0,0-1.36-.32A1.84,1.84,0,0,0,335,36.36c-.38.72-.7,1.35-1,1.88s-.6,1.27-.84,1.88-.5,1.24-.76,1.88-.51,1.28-.72,1.92L331,46c-.22.59-.48,1.24-.8,2a1.91,1.91,0,0,1-1.36,1.24,1.49,1.49,0,0,1-1.84-.92,9.09,9.09,0,0,1-.64-2.36A30.81,30.81,0,0,1,326,40.6c0-1.84.09-3.69.2-5.56.05-.37.09-.8.12-1.28a11.75,11.75,0,0,1,.16-1.44,10.81,10.81,0,0,1,.28-1.28,1.4,1.4,0,0,1,.48-.8c.05-.11.16-.15.32-.12A2.15,2.15,0,0,0,328,30.16Z"/><path class="cls-2" d="M347.48,36.72a15.33,15.33,0,0,0-1,2.92,13.61,13.61,0,0,0-.48,3.52,6,6,0,0,0,.72,3,2.83,2.83,0,0,0,2.56,1.36,8,8,0,0,0,4-.88,37.06,37.06,0,0,0,3.24-1.84c1.06-.75,2.06-1.48,3-2.2s1.77-1.43,2.52-2.12a46,46,0,0,0,4-3.44q1.88-1.84,3.72-3.76a2,2,0,0,0,.52-.64,6.19,6.19,0,0,1,.6-.88,4,4,0,0,1,.68-.68.62.62,0,0,1,.76,0q.56.24.24,1a6,6,0,0,1-.56,1,3,3,0,0,1-.48.88,10.53,10.53,0,0,0-.64.88c-1.34,1.55-2.74,3-4.2,4.4s-3,2.77-4.52,4.16a33,33,0,0,1-6.72,4.8,18,18,0,0,1-2,.92,11.56,11.56,0,0,1-2.32.64,11,11,0,0,1-2.44.12,4.79,4.79,0,0,1-2.28-.72,3.81,3.81,0,0,1-.84-.76l-.76-.92a7.62,7.62,0,0,1-1-3.4,15.28,15.28,0,0,1,.24-3.8,22.88,22.88,0,0,1,1-3.68,22.11,22.11,0,0,1,1.28-3,32.55,32.55,0,0,1,3.2-4.72,9.37,9.37,0,0,1,4.88-3,3.9,3.9,0,0,1,2.68.72,2.77,2.77,0,0,1,.84,2.56,5.29,5.29,0,0,1-1,2.4,17,17,0,0,1-1.68,2A18.22,18.22,0,0,1,352,36,6.57,6.57,0,0,1,347.48,36.72Zm7.44-8.56a8.28,8.28,0,0,0-4.24,2.92A28.93,28.93,0,0,0,348,35.52a5,5,0,0,0,3-.8A21.78,21.78,0,0,0,353,33c.58-.64,1.2-1.28,1.84-1.92a3.46,3.46,0,0,0,.88-2.72A.89.89,0,0,0,354.92,28.16Z"/></g></g></svg>