<svg xmlns="http://www.w3.org/2000/svg" viewBox="0 0 376.56 161.33"><defs><style>.cls-1{fill:#274351;}.cls-2{fill:#ff8300;}</style></defs><g id="Layer_2" data-name="Layer 2"><g id="Layer_1-2" data-name="Layer 1"><path class="cls-1" d="M75.93,79.23a3.87,3.87,0,0,0,1.8-.7,2.94,2.94,0,0,0,1-1.47,8.24,8.24,0,0,0,.3-2.48V45.88a9.77,9.77,0,0,0-.22-2.24,3.14,3.14,0,0,0-.73-1.42,3.11,3.11,0,0,0-1.37-.78,11.44,11.44,0,0,0-2.07-.34H73.1v-.39H104V51h-.35V51c-.26-1.08-.56-2.19-.9-3.34a10,10,0,0,0-1.58-3.17,8.36,8.36,0,0,0-2.93-2.39,10.71,10.71,0,0,0-4.87-.95H84.21v19h7a5.64,5.64,0,0,0,3.29-.93,5.87,5.87,0,0,0,1.78-2A7,7,0,0,0,97,55a9.27,9.27,0,0,0,.17-1.41v-.15h.29V67h-.29v-.15A10.18,10.18,0,0,0,97,65.47a6.7,6.7,0,0,0-.78-2.2,5.56,5.56,0,0,0-5.28-2.87H84.21V74.63a9.34,9.34,0,0,0,.22,2.22,3.08,3.08,0,0,0,.73,1.43,3.17,3.17,0,0,0,1.36.81,7.94,7.94,0,0,0,2.08.31h1.51v.35h-17V79.4A18.19,18.19,0,0,0,75.93,79.23Z"/><path class="cls-1" d="M106.24,60a20.93,20.93,0,0,1,1.36-7.65,18.8,18.8,0,0,1,3.65-6.29,16.32,16.32,0,0,1,5.37-4.19,15.07,15.07,0,0,1,6.67-1.56h2.83a15.06,15.06,0,0,1,6.63,1.56,16.31,16.31,0,0,1,5.45,4.19,21,21,0,0,1,3.71,6.29A22.28,22.28,0,0,1,143.22,60a22,22,0,0,1-1.31,7.65A21.08,21.08,0,0,1,138.2,74a16.31,16.31,0,0,1-5.45,4.19,15.06,15.06,0,0,1-6.63,1.56h-2.83a15.07,15.07,0,0,1-6.67-1.56A16.32,16.32,0,0,1,111.25,74a18.9,18.9,0,0,1-3.65-6.29A20.93,20.93,0,0,1,106.24,60Zm5.31,0a30,30,0,0,0,.9,7.46,20.53,20.53,0,0,0,2.7,6.23,9.58,9.58,0,0,0,.76,1.12,9.21,9.21,0,0,0,.85,1,12.3,12.3,0,0,0,2.95,2.26,24,24,0,0,0,2.31,1.1l.93.2a5.61,5.61,0,0,0,1,.09h1.47a4.85,4.85,0,0,0,1-.09c.29-.07.62-.13,1-.2.56-.23,1.31-.59,2.27-1.1a13.09,13.09,0,0,0,3-2.26c.26-.29.53-.62.8-1s.55-.73.81-1.12A20.81,20.81,0,0,0,137,67.47a30.39,30.39,0,0,0,0-14.92,20.7,20.7,0,0,0-2.72-6.23c-.26-.39-.53-.77-.81-1.12s-.54-.69-.8-1a13.46,13.46,0,0,0-3-2.27c-1-.5-1.71-.86-2.27-1.09l-1-.17a5.77,5.77,0,0,0-1-.08H124a8.15,8.15,0,0,0-2,.25c-.58.23-1.35.59-2.31,1.09a12.64,12.64,0,0,0-2.95,2.27,9.21,9.21,0,0,0-.85,1,9.58,9.58,0,0,0-.76,1.12,20.42,20.42,0,0,0-2.7,6.23A30,30,0,0,0,111.55,60Z"/><path class="cls-1" d="M144.78,79.84V79.5h.05a18.56,18.56,0,0,0,2.8-.17,3.61,3.61,0,0,0,1.81-.71,3,3,0,0,0,.95-1.46,8.62,8.62,0,0,0,.29-2.48V46c0-1.79-.32-3-1-3.68a5,5,0,0,0-3.39-1.15h-1.56v-.29h18.57a20,20,0,0,1,5.65.73,12.83,12.83,0,0,1,3.9,2.09,8.4,8.4,0,0,1,2.22,3,10,10,0,0,1,.75,3.92,8.76,8.76,0,0,1-3,7,11.68,11.68,0,0,1-3.9,2.1,9.77,9.77,0,0,1-2.27.53c-.79.1-1.63.18-2.5.25a7.26,7.26,0,0,1,2.16,1A10.93,10.93,0,0,1,169,64.2l9.16,12.72a5,5,0,0,0,1.63,1.44,10,10,0,0,0,1.86.78,7.8,7.8,0,0,0,1.58.31c.45,0,.73,0,.83,0h.05v.34h-9.75L162.47,63.37a11,11,0,0,0-1.34-1.53A5.79,5.79,0,0,0,160,61a4.15,4.15,0,0,0-1.1-.39,6.69,6.69,0,0,0-1.12-.09h-1.8V74.73a9.29,9.29,0,0,0,.22,2.24,3.16,3.16,0,0,0,.73,1.41,3,3,0,0,0,1.34.8,7.6,7.6,0,0,0,2.05.32h1.51v.34h-17ZM155.94,60.2h7A7,7,0,0,0,167.05,59a8.16,8.16,0,0,0,1.1-1,9.23,9.23,0,0,0,1-1.44,11.86,11.86,0,0,0,.92-2.66,14.32,14.32,0,0,0,.34-3.24,11.37,11.37,0,0,0-1.8-6.72,6.6,6.6,0,0,0-5.7-2.78h-3.17a6.89,6.89,0,0,0-1.8.39,3.07,3.07,0,0,0-1.2.83,3.18,3.18,0,0,0-.65,1.41,10.08,10.08,0,0,0-.2,2.15V60.2Z"/><path class="cls-1" d="M235.66,41.15h-.24a8.41,8.41,0,0,0-1.34.17,7,7,0,0,0-2,.76A7.39,7.39,0,0,0,230,43.81,8.18,8.18,0,0,0,228.45,47l-9.65,32.8h-.34l-9.65-32.41-9.45,32.41H199L189.22,46.9l-.19-.63a11.61,11.61,0,0,0-1.24-3,4.34,4.34,0,0,0-1.42-1.44,3.81,3.81,0,0,0-1.58-.51c-.55,0-1.14-.12-1.76-.22h0v-.34h16v.34h-.15c-.84,0-1.64,0-2.38.07a3.36,3.36,0,0,0-1.81.59,2.35,2.35,0,0,0-.83,1.66,8.5,8.5,0,0,0,.54,3.28l7.16,24.37,7.17-24.37a.43.43,0,0,1-.1-.26.51.51,0,0,0,0-.22,11.61,11.61,0,0,0-1.24-3,4.34,4.34,0,0,0-1.42-1.44,3.85,3.85,0,0,0-1.6-.51c-.57,0-1.15-.12-1.73-.22h-.05v-.34h16v.34h-.14c-.85,0-1.64,0-2.37.05a3.23,3.23,0,0,0-1.8.56,2.26,2.26,0,0,0-.85,1.66,8.57,8.57,0,0,0,.53,3.33L221,71.12l7.4-25.34a3,3,0,0,0-.17-2.51,4,4,0,0,0-1.63-1.39,6.68,6.68,0,0,0-2.12-.61c-.73-.08-1.26-.12-1.58-.12h-.3v-.34h13.06Z"/><path class="cls-1" d="M228,79.4l.86-.09a6.16,6.16,0,0,0,1.9-.66A9.9,9.9,0,0,0,233,76.92a9.6,9.6,0,0,0,2.1-3.36l13.11-32.75h.39l13.06,32.65a21.62,21.62,0,0,0,1.6,3.29,6.58,6.58,0,0,0,1.47,1.7,3.22,3.22,0,0,0,1.48.69l1.73.26v.35H252V79.4c1.17-.06,2.17-.13,3-.22a3.42,3.42,0,0,0,1.88-.65,2,2,0,0,0,.54-1.73,13.49,13.49,0,0,0-1-3.44l-3.6-9.06h-13.6l-3.7,9.21A4.72,4.72,0,0,0,235.1,76a3.36,3.36,0,0,0,.76,1.66,4.05,4.05,0,0,0,1.44,1,8.75,8.75,0,0,0,1.65.53,8.42,8.42,0,0,0,1.39.2l.64,0v.35H228ZM246,47.34,239.37,64h13.3Z"/><path class="cls-1" d="M270.16,79.84V79.5h0a18.71,18.71,0,0,0,2.81-.17,3.61,3.61,0,0,0,1.8-.71,3,3,0,0,0,.95-1.46,8.62,8.62,0,0,0,.29-2.48V46c0-1.79-.32-3-.95-3.68a5,5,0,0,0-3.39-1.15h-1.56v-.29h18.57a19.9,19.9,0,0,1,5.65.73,12.71,12.71,0,0,1,3.9,2.09,8.18,8.18,0,0,1,2.22,3,10,10,0,0,1,.75,3.92,8.76,8.76,0,0,1-3,7,11.68,11.68,0,0,1-3.9,2.1,9.81,9.81,0,0,1-2.26.53c-.8.1-1.64.18-2.51.25a7.31,7.31,0,0,1,2.17,1,11.1,11.1,0,0,1,2.6,2.68l9.16,12.72a4.88,4.88,0,0,0,1.64,1.44,9.91,9.91,0,0,0,1.85.78,7.93,7.93,0,0,0,1.58.31c.46,0,.73,0,.83,0h.05v.34h-9.75L287.85,63.37a10.39,10.39,0,0,0-1.34-1.53,5.28,5.28,0,0,0-1.17-.86,4.22,4.22,0,0,0-1.09-.39,6.77,6.77,0,0,0-1.12-.09h-1.81V74.73a9.83,9.83,0,0,0,.22,2.24,3.16,3.16,0,0,0,.73,1.41,3,3,0,0,0,1.34.8,7.67,7.67,0,0,0,2.05.32h1.51v.34h-17ZM281.32,60.2h7A7,7,0,0,0,292.43,59a7.6,7.6,0,0,0,1.1-1,9.23,9.23,0,0,0,1.05-1.44,11.38,11.38,0,0,0,.92-2.66,14.3,14.3,0,0,0,.35-3.24A11.38,11.38,0,0,0,294,43.93a6.6,6.6,0,0,0-5.7-2.78h-3.17a6.89,6.89,0,0,0-1.8.39,3,3,0,0,0-1.19.83,3.19,3.19,0,0,0-.66,1.41,10.08,10.08,0,0,0-.2,2.15V60.2Z"/><path class="cls-1" d="M346.38,74.09a16.82,16.82,0,0,1-5.8,4.24,18.84,18.84,0,0,1-7.46,1.51h-20.9V79.5a18.19,18.19,0,0,0,2.78-.17,3.77,3.77,0,0,0,1.8-.71,2.86,2.86,0,0,0,1-1.46,8.24,8.24,0,0,0,.3-2.48V46c0-1.79-.33-3-1-3.68a5.13,5.13,0,0,0-3.41-1.15h-1.51v-.29h20.95a18,18,0,0,1,7.46,1.51,17.07,17.07,0,0,1,5.8,4.19,18.89,18.89,0,0,1,3.73,6.24,22.68,22.68,0,0,1,0,15.08A18.75,18.75,0,0,1,346.38,74.09ZM337.75,78a14.12,14.12,0,0,0,2.32-1.75,15.89,15.89,0,0,0,2-2.34A21.85,21.85,0,0,0,345,67.76a26.12,26.12,0,0,0,1-7.41,26.63,26.63,0,0,0-1-7.46,21.09,21.09,0,0,0-2.88-6.14,15.3,15.3,0,0,0-2-2.33,13.65,13.65,0,0,0-2.32-1.76,11.37,11.37,0,0,0-5.21-1.51h-5.41a6.71,6.71,0,0,0-1.8.39,2.86,2.86,0,0,0-1.85,2.24,9.47,9.47,0,0,0-.2,2.15V73.85c0,.13,0,.27,0,.41a3.48,3.48,0,0,1,0,.47,9.29,9.29,0,0,0,.22,2.24,3.23,3.23,0,0,0,.7,1.41,2.92,2.92,0,0,0,1.32.8,7.74,7.74,0,0,0,2.1.32h4.43A11.48,11.48,0,0,0,337.75,78Z"/><path class="cls-1" d="M359.83,69.31a6.77,6.77,0,0,1-.78,7.9,7.65,7.65,0,0,1-3.46,2.24l0-.29a7.87,7.87,0,0,0,1.75-.86A6.91,6.91,0,0,0,358.85,77a8.63,8.63,0,0,0,1-1.56,5.26,5.26,0,0,0,.56-2.29c0-.19-.12-.3-.26-.31a1,1,0,0,0-.54.1,4.82,4.82,0,0,0-.66.31,3.41,3.41,0,0,1-.63.29,2.21,2.21,0,0,1-1.12.25,2.92,2.92,0,0,1-3-3,2.82,2.82,0,0,1,.86-2.07,2.9,2.9,0,0,1,2.12-.85v0A2.94,2.94,0,0,1,359.83,69.31Z"/><path class="cls-2" d="M26.52,36.41q1.08-3.3,2.25-6.42a54.08,54.08,0,0,1,2.67-6,16.81,16.81,0,0,0,1.07-1.86,2.13,2.13,0,0,1,1.56-1.26,1.27,1.27,0,0,1,1.35.39,3.71,3.71,0,0,1,.66,1.5,10.32,10.32,0,0,1,.24,2q0,1.05.09,1.83.06,1.74.18,3.51a5.07,5.07,0,0,0,.84,2.73,5.89,5.89,0,0,0,2.16-2,25,25,0,0,1,1.74-2.46q.66-.84,1.32-1.77T44,24.77l.6-.45a.5.5,0,0,1,.72.09.53.53,0,0,1-.15.75,1.34,1.34,0,0,0-.51.57,3.71,3.71,0,0,0-.51.63,7.17,7.17,0,0,1-.45.63q-1,1.32-2,2.88a29,29,0,0,1-2.13,2.94,9.72,9.72,0,0,1-1,1,1.74,1.74,0,0,1-1.44.39,1.53,1.53,0,0,1-.72-.36,2.44,2.44,0,0,1-.54-.6A5.85,5.85,0,0,1,35.15,31q-.18-1.35-.24-2.85t-.12-3a10,10,0,0,0-.42-2.61,6.22,6.22,0,0,0-1.53,2q-.57,1.2-1.11,2.52-1.32,3.18-2.36,6.57t-1.95,7.1q-.18.66-.42,1.35a1.63,1.63,0,0,1-.9,1,1.23,1.23,0,0,1-.75-.09,4.45,4.45,0,0,1-.51-.33,4.25,4.25,0,0,1-.48-2.13c0-.86,0-1.67-.06-2.42a58,58,0,0,1,.18-6.93q.3-3.57.78-7.17a58.25,58.25,0,0,1,1.29-6.39q.81-3.09,1.71-6.14.12-.42.27-1t.36-1.14a3.61,3.61,0,0,1,.51-1A1.09,1.09,0,0,1,30.12,8a.73.73,0,0,1,.66.18,2.5,2.5,0,0,1,.36.48,1.31,1.31,0,0,1,0,1,6.31,6.31,0,0,0-.33,1.11,10.12,10.12,0,0,0-.45,1.5,7,7,0,0,0-.15,1.55A.37.37,0,0,1,30,14a.36.36,0,0,0-.21.24,80.79,80.79,0,0,0-2.28,10.35A88.19,88.19,0,0,0,26.52,36.41Z"/><path class="cls-2" d="M44.21,27.53a11.78,11.78,0,0,0-.78,2.19,10.22,10.22,0,0,0-.36,2.64,4.51,4.51,0,0,0,.54,2.25,2.13,2.13,0,0,0,1.92,1,5.93,5.93,0,0,0,3-.66,27.7,27.7,0,0,0,2.43-1.38q1.2-.84,2.25-1.65c.7-.54,1.32-1.07,1.88-1.59a33.06,33.06,0,0,0,3-2.58q1.41-1.38,2.79-2.82a1.47,1.47,0,0,0,.39-.48,5.45,5.45,0,0,1,.45-.66,3.07,3.07,0,0,1,.51-.51.47.47,0,0,1,.57,0q.42.18.18.72a4.28,4.28,0,0,1-.42.78,2.12,2.12,0,0,1-.36.66q-.24.3-.48.66a44.73,44.73,0,0,1-3.15,3.3Q56.86,31,55.12,32.51a24.27,24.27,0,0,1-5,3.6,13.29,13.29,0,0,1-1.5.69,8.62,8.62,0,0,1-1.74.48,8,8,0,0,1-1.83.09,3.66,3.66,0,0,1-1.71-.54,2.85,2.85,0,0,1-.63-.57l-.57-.69A5.75,5.75,0,0,1,41.36,33a11.45,11.45,0,0,1,.18-2.85,18.5,18.5,0,0,1,1.71-5,25,25,0,0,1,2.4-3.54,7,7,0,0,1,3.66-2.28,2.89,2.89,0,0,1,2,.54A2.06,2.06,0,0,1,52,21.83a3.89,3.89,0,0,1-.72,1.8A11.88,11.88,0,0,1,50,25.13,13.48,13.48,0,0,1,47.6,27,4.94,4.94,0,0,1,44.21,27.53Zm5.58-6.42a6.22,6.22,0,0,0-3.18,2.19,22.1,22.1,0,0,0-2,3.33,3.74,3.74,0,0,0,2.22-.6,16.48,16.48,0,0,0,1.56-1.26Q49,24,49.73,23.33a2.58,2.58,0,0,0,.66-2A.65.65,0,0,0,49.79,21.11Z"/><path class="cls-2" d="M63.88.06,63.94,0A1,1,0,0,1,65,.78a6.44,6.44,0,0,1,.18,1.44A26.32,26.32,0,0,1,65,7.11q-.33,2.37-.57,4.65-.3,3.11-.6,6.32t-.54,6.45q-.36,5.7-.78,11.37a106.84,106.84,0,0,0-.18,12,6.88,6.88,0,0,0,.06.84,7.5,7.5,0,0,1,.06.93,2.55,2.55,0,0,1-.12.81.47.47,0,0,1-.48.36.85.85,0,0,1-1.05-.72,9.84,9.84,0,0,1-.27-1.56q-.12-1-.15-1.86T60.28,45q.06-1.8,0-3.57t0-3.39q.06-8.68.72-16.52T62.68,5.88L63,2.82a11.8,11.8,0,0,0,.15-1.47A2,2,0,0,1,63.7.06Z"/><path class="cls-2" d="M69.4,37.37q1.56-3.72,3.36-7.14a19,19,0,0,1,4.68-5.82l.56-.24q.27-.12.63-.24a2,2,0,0,1,1.8.54,3.26,3.26,0,0,1,.78,1.65,5.56,5.56,0,0,1,0,2.07,8.18,8.18,0,0,1-.57,1.86,17.24,17.24,0,0,0,2.28-1.5q1.08-.84,2.28-1.62l1.71-1.2,1.77-1.2a5.06,5.06,0,0,0,.66-.33.58.58,0,0,1,.72.09.55.55,0,0,1-.18.78q-.42.3-.72.54-2.52,1.74-4.86,3.51t-4.8,3.51A19.63,19.63,0,0,1,78,34.88a19.16,19.16,0,0,1-1.73,2c-.24.2-.53.47-.87.8a13.4,13.4,0,0,1-1.05,1,8.1,8.1,0,0,1-1.17.81,3.11,3.11,0,0,1-1.23.42q-1.32.18-1.44-.9a1.41,1.41,0,0,1,.33-1.25,11.15,11.15,0,0,1,.87-.84q.48-.48.87-.84l.81-.72a19.78,19.78,0,0,0,1.92-1.41,19.63,19.63,0,0,1,1.91-1.41q.42-.66.87-1.53t.81-1.77l.27-1a6.86,6.86,0,0,0,.21-1.08,3.45,3.45,0,0,0,0-1,1.58,1.58,0,0,0-.45-.84,3.2,3.2,0,0,0-2.09,1A20.39,20.39,0,0,0,75.34,28a26.42,26.42,0,0,0-3,4.83,52.53,52.53,0,0,0-2.28,5.54c-.16.41-.31.79-.45,1.17a7.81,7.81,0,0,0-.33,1.17,12.61,12.61,0,0,0-.18,2.19q0,1.17-.06,2.31l-.24,4.56q-.12,2.28-.3,4.62-.06.54-.09,1.11a8,8,0,0,1-.12,1.05,2.23,2.23,0,0,1-.36.87,1.54,1.54,0,0,1-.75.57H67a1,1,0,0,1-.93-1A16.61,16.61,0,0,1,66,55.3a27.86,27.86,0,0,1,.09-3.45q.15-1.65.39-3.33.12-.78.3-1.56t.3-1.56a25.92,25.92,0,0,0,.18-3.09q0-1.59.12-3,.24-3.83.45-7.55t.45-7.62v-1a8.5,8.5,0,0,1,.06-1.05,2.19,2.19,0,0,1,.27-.84.74.74,0,0,1,.69-.36.71.71,0,0,1,.69.45,3.29,3.29,0,0,1,.27,1.08,7.27,7.27,0,0,1,0,1.32q-.06.69-.06,1.17-.24,3.12-.45,6.27T69.4,37.37Z"/><path class="cls-2" d="M89.91,24.05a.9.9,0,0,1,.21.66q0,.36,0,.78-.06,1,0,2.22t0,2.34q0,1.14,0,2.22A2.6,2.6,0,0,1,89.43,34H89a1.93,1.93,0,0,1-.45-.93,9.09,9.09,0,0,1-.21-1.35q-.06-1.32,0-2.76a26,26,0,0,1,.21-2.82q.06-.36.12-.84a3.22,3.22,0,0,1,.21-.84,1,1,0,0,1,.42-.51A.69.69,0,0,1,89.91,24.05Zm.3-11.63a1.37,1.37,0,0,1-.48,1,.63.63,0,0,1-.69-.13.92.92,0,0,1-.24-.56.73.73,0,0,1,.18-.57.74.74,0,0,1,.69-.18Q90.15,12.18,90.21,12.42Z"/><path class="cls-2" d="M95.85,33.29q1.2-2.28,2.4-4.65a22.1,22.1,0,0,1,2.82-4.29c.15-.2.36-.44.6-.72a4,4,0,0,1,.77-.72,2.61,2.61,0,0,1,.93-.42,1.83,1.83,0,0,1,1.11.12,2.74,2.74,0,0,1,1.32,1.86q.42,1.44.72,2.88.12.66.27,1.38t.33,1.44a10,10,0,0,0,.48,1.35,1.28,1.28,0,0,0,.72.81,1,1,0,0,0,.9-.21,7.27,7.27,0,0,1,.72-.51q.36-.3.66-.51a4.52,4.52,0,0,0,.6-.51,25,25,0,0,0,2.52-2.52,30.46,30.46,0,0,1,2.52-2.58,10,10,0,0,1,1.05-.69,1.54,1.54,0,0,1,.72-.21q.33,0,.39.42t-.39.6a2.93,2.93,0,0,0-.69.48,15.18,15.18,0,0,0-1.68,1.71q-.84,1-1.8,2-.48.48-.93.9t-.93.9q-.78.78-1.68,1.53a3.53,3.53,0,0,1-2.34.75l-.27-.12a.88.88,0,0,0-.33-.06,3.69,3.69,0,0,1-1.47-1.86,19,19,0,0,1-.75-2.55q-.3-1.35-.57-2.7a8.34,8.34,0,0,0-.87-2.43,3.49,3.49,0,0,0-1.55,1.35c-.36.58-.77,1.15-1.2,1.71a27.66,27.66,0,0,0-2,3.72q-.9,2-1.74,4.08a3.68,3.68,0,0,0-.42.93,10.56,10.56,0,0,1-.42,1.11,3.05,3.05,0,0,1-.63.93,1.09,1.09,0,0,1-1,.26,1,1,0,0,1-.81-.62,3.77,3.77,0,0,1-.33-1.32,14.23,14.23,0,0,1,0-1.62q0-.87.09-1.59.24-2.88.66-5.61a33.65,33.65,0,0,1,1.14-5q.24-.66.42-1.2a.84.84,0,0,1,.78-.6.68.68,0,0,1,.75.33,1.73,1.73,0,0,1,.18.93,6.68,6.68,0,0,1-.18,1.17q-.15.63-.21,1.05-.42,2.28-.72,4.56T95.85,33.29Z"/><path class="cls-2" d="M127.87,35q1.74-2.1,3.45-4.35a47.45,47.45,0,0,1,3.75-4.35L136.45,25a2.94,2.94,0,0,1,1.74-.81.84.84,0,0,1,.45.42.71.71,0,0,1,0,.66.69.69,0,0,1-.78,0,50.74,50.74,0,0,0-5.49,6.06q-2.49,3.24-4.89,6.65-1,6.36-2.46,12.45a74.33,74.33,0,0,1-3.77,11.43,15.12,15.12,0,0,1-.75,1.61q-.45.84-.93,1.68-.3.54-.63,1.08a6,6,0,0,1-.72,1,3,3,0,0,1-2.31,1s0,0-.12-.06a1,1,0,0,1-.39-.18,2.21,2.21,0,0,0-.39-.24,1,1,0,0,0-.3-.36,6,6,0,0,1-.48-2.1,12,12,0,0,1,.09-2.25,20,20,0,0,1,.42-2.18q.27-1.08.51-2,.6-2,1.32-3.81T118,51.46a94.55,94.55,0,0,1,7.31-12.78c.2-1.27.39-2.61.57-4s.31-2.82.39-4.26.19-2.88.21-4.44a13.81,13.81,0,0,0-.51-4.14,1.3,1.3,0,0,0-.72.57,9.48,9.48,0,0,1-.6.81,10.12,10.12,0,0,1,.6,1.62,3.8,3.8,0,0,0,.36.84.69.69,0,0,1,0,.78q-.48.18-.69-.15a2.08,2.08,0,0,0-.44-.51c-.13-.2-.26-.4-.4-.6a2.5,2.5,0,0,1-.32-.6,19.41,19.41,0,0,0-1.62,2.4q-.72,1.26-1.56,2.46-.36.48-.87,1.29a9.44,9.44,0,0,1-1.17,1.5,4,4,0,0,1-1.41,1,1.73,1.73,0,0,1-1.65-.3,2.57,2.57,0,0,1-.54-1.47,7.57,7.57,0,0,1,.09-1.77,10.94,10.94,0,0,1,.45-1.77q.3-.87.6-1.53a16.33,16.33,0,0,1,1.08-2.13,9,9,0,0,1,1.32-1.71,5.9,5.9,0,0,1,.9-.72,4.08,4.08,0,0,1,1.2-.54,3.83,3.83,0,0,1,1.35-.12,3,3,0,0,1,1.29.42,3,3,0,0,0,.69-.66,4.6,4.6,0,0,1,.71-.75,2.44,2.44,0,0,1,.9-.48,1.86,1.86,0,0,1,1.17.09,2.29,2.29,0,0,1,.48.33,2.07,2.07,0,0,1,.36.39,3.67,3.67,0,0,1,.63,1.35,9.32,9.32,0,0,1,.27,1.74q.06.93.06,1.95t-.06,2q-.12,2.1-.24,4T127.87,35ZM117,59.14c-.32,1-.6,2.13-.84,3.3a8.38,8.38,0,0,0,.06,3.59A5.51,5.51,0,0,0,118,63.84l1.26-2.72a56.52,56.52,0,0,0,3.18-8.91q1.26-4.71,2.27-9.81s0,0-.06,0q-2.2,3.84-4.25,7.92A49.16,49.16,0,0,0,117,59.14Zm2.82-35.09A12.3,12.3,0,0,0,118,27a13.81,13.81,0,0,0-1,3.87,16.48,16.48,0,0,0,2.73-3.66q1.17-2.1,2.49-4a1.58,1.58,0,0,0-1.32.18Q120.32,23.75,119.84,24.05Z"/><path class="cls-2" d="M162.48,36.65q2.28-2.46,4.47-5.19t4.4-5.43l1.44-1.8a2.65,2.65,0,0,0,.75-.9.84.84,0,0,1,1.11-.36.5.5,0,0,1-.06.69,1.82,1.82,0,0,0-.42.51q-2.94,4-6,7.71T162,39.4q-1,5.58-2.19,11A39.62,39.62,0,0,1,156.3,60c-.52.92-1.07,1.8-1.65,2.67a7.25,7.25,0,0,1-2.25,2.12,8.1,8.1,0,0,1-1,.3,2.87,2.87,0,0,1-1.17,0,3,3,0,0,1-1.77-1.83,7.26,7.26,0,0,1-.36-2.84,16.67,16.67,0,0,1,.51-3.15,24.23,24.23,0,0,1,.9-2.79A30.89,30.89,0,0,1,151,51.46l1.44-2.64a56.35,56.35,0,0,1,3.57-5.1q1.89-2.4,3.87-4.68.84-4.42,1.62-8.87T162.72,21a1.29,1.29,0,0,0-.57.57,6.43,6.43,0,0,1-.57.81,24,24,0,0,0-1.89,2.7q-.87,1.44-1.77,2.85T156,30.65a15,15,0,0,1-2.25,2.4,1.34,1.34,0,0,0-.48.18,1.34,1.34,0,0,1-.48.18h-.66a2.16,2.16,0,0,1-1.44-1,5.76,5.76,0,0,1-.75-2,10.16,10.16,0,0,1-.12-2.49,13.18,13.18,0,0,1,.39-2.46,3.48,3.48,0,0,1,.45-1.14.92.92,0,0,1,.93-.48.57.57,0,0,1,.57.42,3,3,0,0,1,.15,1,8.5,8.5,0,0,1-.09,1.2,8,8,0,0,0-.09,1.11q0,1.08,0,2.16a3.74,3.74,0,0,0,.45,1.8,8,8,0,0,0,2.91-2.61q1.11-1.65,2.37-3.21A18.92,18.92,0,0,1,159.06,24a18.92,18.92,0,0,0,1.14-1.59,6,6,0,0,0,1.2-1.59,2.57,2.57,0,0,1,1.44-1.29q.54-.18.9.48a3.24,3.24,0,0,1,.33,1.95q-.09,1.29-.15,2.31-.3,3.12-.66,6.45T162.48,36.65Zm-9.54,14.87a32.36,32.36,0,0,0-1.8,3.9,17.4,17.4,0,0,0-1.08,4.68,11,11,0,0,0,0,1.62,1.69,1.69,0,0,0,.78,1.32,4.46,4.46,0,0,0,1.92-1.65,23.8,23.8,0,0,0,1.32-2.31,40,40,0,0,0,3-8q1.14-4.35,2.1-8.73a.05.05,0,0,0-.06-.06q-1.62,2.1-3.21,4.38A48.36,48.36,0,0,0,152.94,51.52Z"/><path class="cls-2" d="M176.87,22.61a4.67,4.67,0,0,1,3.21,1.26,5.79,5.79,0,0,1,1.47,3.06q1.92-.36,4-.81t4.05-.93a4.41,4.41,0,0,0,.6-.21,4.69,4.69,0,0,1,.75-.24,2.15,2.15,0,0,1,.69-.06.49.49,0,0,1,.42.27.37.37,0,0,1-.12.48,2.79,2.79,0,0,1-.6.33,4.45,4.45,0,0,1-.78.24l-.6.15q-1.92.6-4,1.05l-4.23.87a12.56,12.56,0,0,1-.51,4.35,15.19,15.19,0,0,1-1.65,3.69A18.38,18.38,0,0,1,177.2,39a6.63,6.63,0,0,1-3.15,1.8h-.9a2.38,2.38,0,0,1-1-.45,8.72,8.72,0,0,1-.78-.69,5.44,5.44,0,0,1-.93-2.6,15.43,15.43,0,0,1,0-3.18,26.69,26.69,0,0,1,.53-3.24c.24-1.06.47-2,.66-2.85a2.39,2.39,0,0,1,0-2.16,4.69,4.69,0,0,1,1.17-1.56,10.06,10.06,0,0,0,.45-1.26,10.3,10.3,0,0,1,.51-1.38,4.18,4.18,0,0,1,.75-1.14,1.53,1.53,0,0,1,1.17-.48,1.17,1.17,0,0,1,1.2.87A3.23,3.23,0,0,1,176.87,22.61ZM174,28.85q-.3,1.74-.75,3.75a14.85,14.85,0,0,0-.33,4.11,5.42,5.42,0,0,0,.21,1,1.42,1.42,0,0,0,.57.77,4.56,4.56,0,0,0,2.76-1.43q1-1.14,1.92-2.34a23.2,23.2,0,0,0,1.44-2.91,7.26,7.26,0,0,0,.48-3.51,27.4,27.4,0,0,1-3.06.45A25,25,0,0,1,174,28.85Zm2.64-5a1.85,1.85,0,0,0-.12.69.4.4,0,0,1-.36.45.91.91,0,0,1-.27,0l-.21-.09a1.09,1.09,0,0,1-.06-.84,2.56,2.56,0,0,0-.45.78q-.15.42-.27.9a8.84,8.84,0,0,0-.3,1l-.24,1q1.68,0,3.12-.12t2.82-.36a4.77,4.77,0,0,0-1.11-2.37A3.51,3.51,0,0,0,176.63,23.87Z"/><path class="cls-2" d="M192.16,33.35a1.16,1.16,0,0,0,.52-.45l.38-.63q.66-.84,1.29-1.8t1.29-1.8q.42-.66.84-1.26a12.53,12.53,0,0,1,.9-1.14,8.77,8.77,0,0,0,1-1.08,1.6,1.6,0,0,1,1.44-.54,1.51,1.51,0,0,1,1,.51,3.57,3.57,0,0,1,.63,1.08,8.45,8.45,0,0,1,.39,1.41q.15.78.27,1.44t.3,1.29q.18.69.42,1.35t.54,1.23a1.24,1.24,0,0,0,.84.75,1.22,1.22,0,0,0,.87-.09,5.49,5.49,0,0,0,.87-.51,6.18,6.18,0,0,0,.78-.66l.54-.54a11.82,11.82,0,0,0,1.2-1.26q.54-.66,1.2-1.32.84-1,1.71-2t1.71-2.07a4.43,4.43,0,0,0,.48-.78.71.71,0,0,1,.78-.42.7.7,0,0,1,.21.93,5.25,5.25,0,0,1-.51.81l-.6.81-.54.69q-1.26,1.5-2.64,3.24a24.36,24.36,0,0,1-2.94,3.12,13.83,13.83,0,0,1-1.71,1.23,2.51,2.51,0,0,1-2.31,0A4.07,4.07,0,0,1,202,33.26a11.54,11.54,0,0,1-.81-2.25q-.3-1.2-.57-2.46a8.78,8.78,0,0,0-.81-2.28,3.42,3.42,0,0,0-1.11,1l-.93,1.26q-.48.66-.87,1.29l-.81,1.29q-.84,1.32-1.62,2.64a5.73,5.73,0,0,1-2.16,2.1,1.65,1.65,0,0,1-1.1-.12,2.48,2.48,0,0,1-.75-.6,7.84,7.84,0,0,1-.48-2.52,24.78,24.78,0,0,1,.06-3q.12-1.53.36-3t.48-2.73q.06-.42.12-.93a5.44,5.44,0,0,1,.21-1,3,3,0,0,1,.36-.81.8.8,0,0,1,.56-.39.68.68,0,0,1,.55.09,1.5,1.5,0,0,1,.29.33,3.27,3.27,0,0,1,.06,1.65,6.55,6.55,0,0,0-.12,1.77q-.3,2-.51,4.2T192.16,33.35Z"/><path class="cls-2" d="M236.73,33.59a4.16,4.16,0,0,0,1-1.14q.39-.66.81-1.32t.81-1.32q.39-.66.75-1.32t.84-1.2q.4-.66.9-1.32l.6-.87a3.41,3.41,0,0,1,.68-.78,1.86,1.86,0,0,1,.87-.42,1.94,1.94,0,0,1,1.08.15,2.6,2.6,0,0,1,.69,1.47,15,15,0,0,1,.18,1.95q0,1,.09,2a4.45,4.45,0,0,0,.42,1.74,3.42,3.42,0,0,0,1.23-1.05l1-1.35q.48-.72.93-1.47a9.83,9.83,0,0,0,.75-1.53,4,4,0,0,0,.51-1.05.78.78,0,0,1,1-.51,1,1,0,0,1-.06,1.11,2.63,2.63,0,0,0-.42,1.11q-.3.54-.54,1t-.48,1.05a11.69,11.69,0,0,0-1.2,1.8,6.17,6.17,0,0,1-1.38,1.74,2.2,2.2,0,0,1-.75.48,2,2,0,0,1-1.11.06,2.15,2.15,0,0,1-1.11-1.11,6.15,6.15,0,0,1-.45-1.74,17.47,17.47,0,0,1-.12-2.1,11.24,11.24,0,0,0-.18-2.07,1.09,1.09,0,0,0-.51.45,7.17,7.17,0,0,1-.45.63c-.44.6-.86,1.24-1.28,1.92s-.81,1.36-1.17,2A18.81,18.81,0,0,0,239,33.38,5,5,0,0,1,237,35.57a2.58,2.58,0,0,0-.42,0,1.39,1.39,0,0,1-.48,0,4.2,4.2,0,0,1-.6-.3,5.37,5.37,0,0,1-.81-2.73q-.09-1.65-.09-3.39t-.06-3.48q-.06-1.74-.18-3.3a33.94,33.94,0,0,0-2.22,5.16q-1,2.82-1.86,5.88-.6,2.16-1.11,4.44c-.34,1.52-.71,3.07-1.11,4.67l-.24,1.08a4.79,4.79,0,0,1-.33,1,2.14,2.14,0,0,1-.57.75,1.73,1.73,0,0,1-1,.36,1.22,1.22,0,0,1-1.08-.87,9.72,9.72,0,0,1-.36-1.59,28.64,28.64,0,0,1,0-5.24q.24-2.79.54-5.31t.72-5.07q.42-2.55,1-4.89.18-.72.39-1.5a1.16,1.16,0,0,1,1.05-.9.88.88,0,0,1,.69.12,1.21,1.21,0,0,1,.33.48,3,3,0,0,1-.06,1.32,3,3,0,0,0-.06,1.32,4.22,4.22,0,0,0,.24,1,1.58,1.58,0,0,1,.06,1,.41.41,0,0,1-.39.24.61.61,0,0,1-.45-.18q-.48,3.06-.9,6.06T227,38q1-3.47,2.16-7.25t2.52-7.2q.18-.42.48-1.17a7.32,7.32,0,0,1,.75-1.41,3.53,3.53,0,0,1,1-1,1.24,1.24,0,0,1,1.29,0,1.59,1.59,0,0,1,.81,1,7.4,7.4,0,0,1,.39,1.62,14.3,14.3,0,0,1,.12,1.89q0,1,.06,1.77a30.26,30.26,0,0,1,0,3.81A17.63,17.63,0,0,0,236.73,33.59Z"/><path class="cls-2" d="M255.08,22.61a4.67,4.67,0,0,1,3.21,1.26,5.79,5.79,0,0,1,1.47,3.06q1.92-.36,4-.81c1.38-.3,2.73-.61,4-.93a4.41,4.41,0,0,0,.6-.21,4.69,4.69,0,0,1,.75-.24,2.15,2.15,0,0,1,.69-.06.49.49,0,0,1,.42.27.37.37,0,0,1-.12.48,2.79,2.79,0,0,1-.6.33,4.45,4.45,0,0,1-.78.24l-.6.15c-1.28.4-2.63.75-4,1.05l-4.23.87a12.56,12.56,0,0,1-.51,4.35,15.19,15.19,0,0,1-1.65,3.69A18.38,18.38,0,0,1,255.41,39a6.63,6.63,0,0,1-3.15,1.8h-.9a2.38,2.38,0,0,1-1-.45,8.72,8.72,0,0,1-.78-.69,5.24,5.24,0,0,1-.93-2.6,15.41,15.41,0,0,1,0-3.18,28.81,28.81,0,0,1,.54-3.24q.36-1.59.66-2.85a2.36,2.36,0,0,1,0-2.16A4.69,4.69,0,0,1,251,24.05a10.06,10.06,0,0,0,.45-1.26,10.3,10.3,0,0,1,.51-1.38,4.18,4.18,0,0,1,.75-1.14,1.53,1.53,0,0,1,1.17-.48,1.17,1.17,0,0,1,1.2.87A3.23,3.23,0,0,1,255.08,22.61Zm-2.88,6.24q-.3,1.74-.75,3.75a14.85,14.85,0,0,0-.33,4.11,5.42,5.42,0,0,0,.21,1,1.42,1.42,0,0,0,.57.77,4.56,4.56,0,0,0,2.76-1.43q1-1.14,1.92-2.34A23.2,23.2,0,0,0,258,31.82a7.26,7.26,0,0,0,.48-3.51,27.4,27.4,0,0,1-3.06.45A25,25,0,0,1,252.2,28.85Zm2.64-5a1.85,1.85,0,0,0-.12.69.4.4,0,0,1-.36.45.91.91,0,0,1-.27,0l-.21-.09a1.09,1.09,0,0,1-.06-.84,2.56,2.56,0,0,0-.45.78q-.15.42-.27.9a8.84,8.84,0,0,0-.3,1l-.24,1q1.68,0,3.12-.12t2.82-.36a4.77,4.77,0,0,0-1.11-2.37A3.51,3.51,0,0,0,254.84,23.87Z"/><path class="cls-2" d="M270.13,22.61a1.23,1.23,0,0,1,.45,1.11q0,.75,0,1.41v4.44a34,34,0,0,0,.24,4.2l.87-2.1.93-2.22,1-2.13a6,6,0,0,1,1.2-1.77,5.47,5.47,0,0,1,1-.54,2,2,0,0,1,1.2-.12,4.28,4.28,0,0,1,1.08.36l1,.51a5.75,5.75,0,0,0,1.11.42,4.1,4.1,0,0,0,1.35.09,3.85,3.85,0,0,0,1.17-.36l1.05-.54a1.81,1.81,0,0,0,.72-.6,1.07,1.07,0,0,1,.84-.42.62.62,0,0,1,.12.63,1.63,1.63,0,0,1-.39.6,3.51,3.51,0,0,1-.6.48,3,3,0,0,0-.51.39,4.81,4.81,0,0,1-2.49.93,6.55,6.55,0,0,1-2.85-.33,4.24,4.24,0,0,1-1-.42,1.67,1.67,0,0,0-1-.24,1.39,1.39,0,0,0-1.08.87l-.72,1.41q-.36.72-.63,1.41t-.57,1.41q-.3.72-.54,1.44t-.54,1.56q-.24.66-.6,1.47a1.42,1.42,0,0,1-1,.93,1.12,1.12,0,0,1-1.38-.69,7.05,7.05,0,0,1-.48-1.77,23.6,23.6,0,0,1-.27-4q0-2.07.15-4.17.06-.42.09-1a9.91,9.91,0,0,1,.12-1.08,8.77,8.77,0,0,1,.21-1,1.1,1.1,0,0,1,.36-.6q.06-.12.24-.09Z"/><path class="cls-2" d="M284.77,27.53a11.78,11.78,0,0,0-.78,2.19,10.22,10.22,0,0,0-.36,2.64,4.51,4.51,0,0,0,.54,2.25,2.13,2.13,0,0,0,1.92,1,6,6,0,0,0,3-.66c.93-.48,1.74-.94,2.42-1.38s1.55-1.11,2.25-1.65,1.33-1.07,1.89-1.59a33.06,33.06,0,0,0,3-2.58Q300,26.39,301.38,25a1.47,1.47,0,0,0,.39-.48,5.45,5.45,0,0,1,.45-.66,3.07,3.07,0,0,1,.51-.51.47.47,0,0,1,.57,0q.42.18.18.72a4.28,4.28,0,0,1-.42.78,2.12,2.12,0,0,1-.36.66q-.24.3-.48.66a44.73,44.73,0,0,1-3.15,3.3q-1.65,1.56-3.39,3.12a24.62,24.62,0,0,1-5,3.6,14,14,0,0,1-1.49.69,8.81,8.81,0,0,1-1.74.48,8,8,0,0,1-1.83.09,3.66,3.66,0,0,1-1.71-.54,2.85,2.85,0,0,1-.63-.57l-.57-.69a5.75,5.75,0,0,1-.75-2.55,11.45,11.45,0,0,1,.18-2.85,18.5,18.5,0,0,1,1.71-5,25,25,0,0,1,2.4-3.54,7,7,0,0,1,3.65-2.28,2.89,2.89,0,0,1,2,.54,2.06,2.06,0,0,1,.63,1.92,3.89,3.89,0,0,1-.72,1.8,11.88,11.88,0,0,1-1.26,1.5A13.48,13.48,0,0,1,288.15,27,4.91,4.91,0,0,1,284.77,27.53Zm5.57-6.42a6.15,6.15,0,0,0-3.17,2.19,22.1,22.1,0,0,0-2,3.33,3.76,3.76,0,0,0,2.22-.6,16.33,16.33,0,0,0,1.55-1.26q.66-.72,1.38-1.44a2.58,2.58,0,0,0,.66-2A.65.65,0,0,0,290.34,21.11Z"/><path class="cls-1" d="M32.31,156.12a3.86,3.86,0,0,1-.68.92c-.26.26-.52.51-.78.74a2.77,2.77,0,0,1-.54.48,11.34,11.34,0,0,1-4.39,2.1,23,23,0,0,1-6.38.78H0v-.34a20,20,0,0,0,2.8-.17,3.91,3.91,0,0,0,1.83-.71,2.91,2.91,0,0,0,1-1.46A8.36,8.36,0,0,0,5.9,156V127.9a2.46,2.46,0,0,1-.05-.63A9.77,9.77,0,0,0,5.63,125a3.13,3.13,0,0,0-.71-1.41,2.72,2.72,0,0,0-1.31-.78,10.21,10.21,0,0,0-2-.35H0v-.39H18.52a21.42,21.42,0,0,1,3,.2,16.92,16.92,0,0,1,2.66.58,10.47,10.47,0,0,1,3.9,2.15,9.6,9.6,0,0,1,0,13.89,12.12,12.12,0,0,1-1.78,1.21,9.43,9.43,0,0,1-2.12.88,8,8,0,0,1-1.12.32q-.59.12-1.17.27a15.5,15.5,0,0,1,2.12.22c.67.11,1.31.25,1.92.41a12,12,0,0,1,4.39,2.1,8.39,8.39,0,0,1,3.36,7A8.8,8.8,0,0,1,32.31,156.12Zm-21.2-14.67h7a7.15,7.15,0,0,0,4.14-1.17,7.22,7.22,0,0,0,1.07-1,8.27,8.27,0,0,0,1-1.42A12.49,12.49,0,0,0,25.63,132a11.49,11.49,0,0,0-1.8-6.78,6.49,6.49,0,0,0-5.7-2.73H15a4.39,4.39,0,0,0-3,1.2,5.51,5.51,0,0,0-.85,3.53v14.23ZM25.58,158a10.24,10.24,0,0,0,2.05-6.73,10.46,10.46,0,0,0-2.05-6.72,7.7,7.7,0,0,0-6.43-2.78h-8V156a9.34,9.34,0,0,0,.22,2.22,3.17,3.17,0,0,0,.73,1.44,3.23,3.23,0,0,0,1.37.8,8.19,8.19,0,0,0,2.07.32h3.65A7.62,7.62,0,0,0,25.58,158Z"/><path class="cls-1" d="M34.89,160.8l.85-.1a5.83,5.83,0,0,0,1.9-.66A9.93,9.93,0,0,0,40,158.31,9.45,9.45,0,0,0,42.05,155L55.16,122.2h.39l13.06,32.65a21.51,21.51,0,0,0,1.61,3.29,6.81,6.81,0,0,0,1.46,1.71,3.33,3.33,0,0,0,1.49.68l1.73.27v.34h-16v-.34c1.17-.07,2.17-.14,3-.22a3.37,3.37,0,0,0,1.88-.66,1.92,1.92,0,0,0,.53-1.73,13.37,13.37,0,0,0-1-3.44l-3.61-9.06H46.15l-3.71,9.21a4.72,4.72,0,0,0-.41,2.46,3.3,3.3,0,0,0,.75,1.66,3.93,3.93,0,0,0,1.44,1,8.9,8.9,0,0,0,1.66.54,8.28,8.28,0,0,0,1.39.19l.63,0v.34h-13ZM53,128.73l-6.68,16.62H59.6Z"/><path class="cls-1" d="M75.34,141.69v0h-.2a22.63,22.63,0,0,1,.34-3.9,21.74,21.74,0,0,1,1-3.75,19.74,19.74,0,0,1,3.7-6.24,20.16,20.16,0,0,1,2.51-2.39,14.2,14.2,0,0,1,2.9-1.8A14.7,14.7,0,0,1,92.29,122a12.27,12.27,0,0,1,4.78.92h.05a.26.26,0,0,0,.19.1l0,0,.66.29c.21.1.43.21.66.34a10,10,0,0,0,4,1.22,4,4,0,0,0,2.2-.49,2.46,2.46,0,0,0,1.12-1.7h.34v14.18H106a23.74,23.74,0,0,0-1.8-6.43,18.46,18.46,0,0,0-1.44-2.46A16.32,16.32,0,0,0,101,126a12.33,12.33,0,0,0-8-3.6,8.68,8.68,0,0,0-4.88,1.51,14,14,0,0,0-4,4.14,22.49,22.49,0,0,0-2.71,6.17,27.72,27.72,0,0,0-1,7.52,26.35,26.35,0,0,0,1.64,9.46A18.77,18.77,0,0,0,86.35,158a13,13,0,0,0,2.39,1.73,12.29,12.29,0,0,0,2,.9,5.13,5.13,0,0,0,1.14.27A9.89,9.89,0,0,0,93,161a17.28,17.28,0,0,0,2-.29,10.53,10.53,0,0,0,1.92-.59,12,12,0,0,0,4-2.72,10.66,10.66,0,0,0,1.73-2,20.7,20.7,0,0,0,1.39-2.46,17.75,17.75,0,0,0,1.12-3c.29-1.07.53-2.21.73-3.41l.34.05a22.33,22.33,0,0,1-1.9,6.53,15.88,15.88,0,0,1-3.17,4.63A13.65,13.65,0,0,1,97,160.41a11.91,11.91,0,0,1-4.73.92,14.7,14.7,0,0,1-6.67-1.56,16.86,16.86,0,0,1-5.41-4.19,19.74,19.74,0,0,1-3.7-6.24,21.74,21.74,0,0,1-1-3.75,22.63,22.63,0,0,1-.34-3.9Z"/><path class="cls-1" d="M136.47,160.58a2.4,2.4,0,0,0,1-.39.81.81,0,0,0,.34-.76,2.11,2.11,0,0,0-.75-1.22l-14.62-15.64a6.93,6.93,0,0,0-1-1,1,1,0,0,0-.54-.2h-.05v14.77a9,9,0,0,0,.22,2.19,3.05,3.05,0,0,0,.73,1.41,3.15,3.15,0,0,0,1.37.81,7.8,7.8,0,0,0,2.07.31h1.51v.39h-17v-.39a18.56,18.56,0,0,0,2.8-.17,4,4,0,0,0,1.83-.68,2.78,2.78,0,0,0,1-1.46,8.32,8.32,0,0,0,.3-2.46V128a1.43,1.43,0,0,0,0-.29,1.78,1.78,0,0,1,0-.34,9.89,9.89,0,0,0-.22-2.22,3.25,3.25,0,0,0-.71-1.44,2.89,2.89,0,0,0-1.31-.78,11,11,0,0,0-2-.34h-1.56v-.29h17v.29h-2a4.63,4.63,0,0,0-3,1.22,5.53,5.53,0,0,0-.85,3.56v13.69a1.47,1.47,0,0,0,.54-.12,4.74,4.74,0,0,0,1-.81l9.36-8.23a6.19,6.19,0,0,0,.58-.49,27.08,27.08,0,0,0,3.41-3.43,6,6,0,0,0,1.34-2.56,2,2,0,0,0-.51-1.78,5.28,5.28,0,0,0-2.14-1.19v-.35H149.5v.35a14.6,14.6,0,0,0-4.19.56,18,18,0,0,0-3.55,1.46,23.15,23.15,0,0,0-3,2c-.93.72-1.78,1.41-2.56,2.1l-10.38,9.06,18.67,20.27a9.58,9.58,0,0,0,1.8,1.61,7.9,7.9,0,0,0,1.7.88,6.26,6.26,0,0,0,1.71.34c.58,0,1.2.05,1.85.05v.34H134v-.34h1.31A10.49,10.49,0,0,0,136.47,160.58Z"/><path class="cls-1" d="M198.52,132.34v-.1c-.26-1-.56-2.05-.88-3.14a11.37,11.37,0,0,0-1.44-3,7.94,7.94,0,0,0-2.58-2.39,9.69,9.69,0,0,0-4.27-1.17h-.43a4.32,4.32,0,0,0-3,1.2,5.51,5.51,0,0,0-.85,3.53V156a9.34,9.34,0,0,0,.22,2.22,3.07,3.07,0,0,0,.73,1.44,3.18,3.18,0,0,0,1.34.8,7.93,7.93,0,0,0,2,.32h1.51v.34H174v-.34a20.08,20.08,0,0,0,2.8-.17,3.7,3.7,0,0,0,1.8-.71,2.94,2.94,0,0,0,.95-1.46,8.4,8.4,0,0,0,.29-2.49v-28.7a9.24,9.24,0,0,0-.22-2.24,3,3,0,0,0-.73-1.41,2.93,2.93,0,0,0-1.34-.78,10,10,0,0,0-2-.35h-.3a9.55,9.55,0,0,0-4.24,1.17,8.36,8.36,0,0,0-2.58,2.39,10.58,10.58,0,0,0-1.46,3c-.33,1.09-.6,2.13-.83,3.14v.1h-.34V122.1h33.14v10.24Z"/><path class="cls-1" d="M202.51,141.4a20.93,20.93,0,0,1,1.37-7.65,18.9,18.9,0,0,1,3.65-6.29,16.42,16.42,0,0,1,5.36-4.19,15.25,15.25,0,0,1,6.68-1.56h2.82a15.14,15.14,0,0,1,6.63,1.56,16.37,16.37,0,0,1,5.46,4.19,21,21,0,0,1,3.7,6.29,22.13,22.13,0,0,1,1.32,7.65,21.8,21.8,0,0,1-1.32,7.65,20.92,20.92,0,0,1-3.7,6.29,16.25,16.25,0,0,1-5.46,4.19,15,15,0,0,1-6.63,1.56h-2.82a15.11,15.11,0,0,1-6.68-1.56,16.29,16.29,0,0,1-5.36-4.19,18.8,18.8,0,0,1-3.65-6.29A20.93,20.93,0,0,1,202.51,141.4Zm5.31,0a30,30,0,0,0,.9,7.46,20.33,20.33,0,0,0,2.71,6.23,11.07,11.07,0,0,0,.75,1.13,10.23,10.23,0,0,0,.86,1,12.6,12.6,0,0,0,2.94,2.27,23.43,23.43,0,0,0,2.32,1.09l.93.2a5.51,5.51,0,0,0,1,.1h1.46a4.92,4.92,0,0,0,1-.1c.29-.07.61-.13,1-.2.55-.22,1.31-.59,2.27-1.09a13.65,13.65,0,0,0,3-2.27c.26-.29.53-.62.81-1s.54-.73.8-1.13a20.85,20.85,0,0,0,2.73-6.23,30.35,30.35,0,0,0,0-14.91,21,21,0,0,0-2.73-6.24c-.26-.39-.53-.76-.8-1.12s-.55-.68-.81-1a13.58,13.58,0,0,0-3-2.26c-1-.51-1.72-.87-2.27-1.1l-1-.17a5.94,5.94,0,0,0-1-.07h-1.46a8.13,8.13,0,0,0-1.95.24,23.93,23.93,0,0,0-2.32,1.1,12.53,12.53,0,0,0-2.94,2.26,10.38,10.38,0,0,0-.86,1,12.14,12.14,0,0,0-.75,1.12,20.49,20.49,0,0,0-2.71,6.24A29.88,29.88,0,0,0,207.82,141.4Z"/><path class="cls-1" d="M274.82,144.52V156c0,1.79.32,3,1,3.7a4.64,4.64,0,0,0,3.46,1h1.51v.39h-17v-.39a19.47,19.47,0,0,0,2.78-.17,4,4,0,0,0,1.8-.68,2.82,2.82,0,0,0,1-1.47,8.71,8.71,0,0,0,.29-2.46V144.52l-4.12-7.58-2.8-5.14c-.75-1.36-1.32-2.42-1.73-3.17s-.71-1.3-.9-1.68-.32-.61-.36-.7a.62.62,0,0,0-.13-.2,5.88,5.88,0,0,0-1.7-2,8.07,8.07,0,0,0-2.05-1.07,9.58,9.58,0,0,0-1.85-.44c-.55-.06-.94-.1-1.17-.1v-.29h15.15v.29h-.82c-.36,0-.77.09-1.22.18a3.06,3.06,0,0,0-1.17.43,1.57,1.57,0,0,0-.66.88,2,2,0,0,0,.37,1.49l10.18,18.71,7.51-13.69a20.22,20.22,0,0,0,1.48-3.37,6.11,6.11,0,0,0,.34-2.24,2.37,2.37,0,0,0-.46-1.34,2.44,2.44,0,0,0-.9-.68,3.21,3.21,0,0,0-1-.27c-.34,0-.6,0-.8,0v-.34h13.06v.34h-.19a10.13,10.13,0,0,0-1.76.27,11.93,11.93,0,0,0-2.87,1.1,16.36,16.36,0,0,0-3.37,2.39,14.93,14.93,0,0,0-3.16,4.19Z"/><path class="cls-1" d="M294.26,141.4a20.93,20.93,0,0,1,1.36-7.65,18.76,18.76,0,0,1,3.66-6.29,16.42,16.42,0,0,1,5.36-4.19,15.24,15.24,0,0,1,6.67-1.56h2.83a15.2,15.2,0,0,1,6.63,1.56,16.37,16.37,0,0,1,5.46,4.19,21.26,21.26,0,0,1,3.7,6.29,22.12,22.12,0,0,1,1.31,7.65,21.8,21.8,0,0,1-1.31,7.65,21.13,21.13,0,0,1-3.7,6.29,16.25,16.25,0,0,1-5.46,4.19,15.06,15.06,0,0,1-6.63,1.56h-2.83a15.1,15.1,0,0,1-6.67-1.56,16.29,16.29,0,0,1-5.36-4.19,18.66,18.66,0,0,1-3.66-6.29A20.93,20.93,0,0,1,294.26,141.4Zm5.31,0a30,30,0,0,0,.9,7.46,20.09,20.09,0,0,0,2.71,6.23,8.52,8.52,0,0,0,.75,1.13,11.78,11.78,0,0,0,.85,1,12.64,12.64,0,0,0,3,2.27,22.41,22.41,0,0,0,2.32,1.09l.92.2a5.71,5.71,0,0,0,1,.1h1.46a4.82,4.82,0,0,0,1-.1l1-.2c.55-.22,1.3-.59,2.26-1.09a13.46,13.46,0,0,0,3-2.27c.26-.29.53-.62.8-1s.55-.73.81-1.13a20.85,20.85,0,0,0,2.73-6.23A30.66,30.66,0,0,0,325,134a21,21,0,0,0-2.73-6.24c-.26-.39-.53-.76-.81-1.12s-.54-.68-.8-1a13.38,13.38,0,0,0-3-2.26c-1-.51-1.71-.87-2.26-1.1l-1-.17a5.82,5.82,0,0,0-1-.07H312a8.13,8.13,0,0,0-1.95.24,22.87,22.87,0,0,0-2.32,1.1,12.57,12.57,0,0,0-3,2.26,12,12,0,0,0-.85,1,9.11,9.11,0,0,0-.75,1.12,20.25,20.25,0,0,0-2.71,6.24A29.88,29.88,0,0,0,299.57,141.4Z"/><path class="cls-1" d="M359.56,122.15h17v.34h-.73c-.52,0-1.2.12-2,.25a8,8,0,0,0-2.51.83,6.26,6.26,0,0,0-2.15,1.8,5,5,0,0,0-.9,3.12v21.1a10.38,10.38,0,0,1-1.07,4.65,11.57,11.57,0,0,1-3.12,3.83,14.79,14.79,0,0,1-4.58,2.39,18,18,0,0,1-5.51.82h-.29a16.78,16.78,0,0,1-5.31-.82,14.39,14.39,0,0,1-4.44-2.39,11.73,11.73,0,0,1-3.14-3.85,11.45,11.45,0,0,1-1.1-5.17V126a3.5,3.5,0,0,0-1.12-2.65,5.6,5.6,0,0,0-3.16-.86h-1.56v-.39h17v.25l.05.05h-.05v.09h-2a5.05,5.05,0,0,0-2.64.83,3.49,3.49,0,0,0-1.12,2.29v23.1a16.07,16.07,0,0,0,.88,5.36,10.36,10.36,0,0,0,2.61,4.14,9.45,9.45,0,0,0,4.21,2.32,11.54,11.54,0,0,0,5.7-.12,14.88,14.88,0,0,0,5.37-2.63,10.24,10.24,0,0,0,2.92-3.56,9.64,9.64,0,0,0,1.12-4.63V128.25a4.85,4.85,0,0,0-1-3,6.45,6.45,0,0,0-2.15-1.7,8.81,8.81,0,0,0-2.48-.78c-.85-.13-1.52-.21-2-.25h-.73Z"/><path class="cls-2" d="M111.65,108.37a28.52,28.52,0,0,1,3.68-2.64,45.49,45.49,0,0,1,4.23-2.28l.66-.3q.42-.18.54.3a.58.58,0,0,1-.45.66q-.51.18-.75.24-.36.24-.69.42l-.63.36a34.07,34.07,0,0,0-3.9,2.46,37.57,37.57,0,0,0-3.47,2.88q-.42,1-.93,2t-1.11,2q-.6,1-1.2,1.89a7.56,7.56,0,0,1-1.44,1.65,4.57,4.57,0,0,1-.69.45,1.56,1.56,0,0,1-.93.15.33.33,0,0,0-.21-.12.33.33,0,0,1-.21-.12A1.56,1.56,0,0,1,104,117a6.44,6.44,0,0,1,.63-1.23,6.83,6.83,0,0,1,.72-1.14,12.27,12.27,0,0,0,.72-1l1.65-2q.81-1,1.71-2,.3-1,.63-1.92a7,7,0,0,0,.33-2.28,4.63,4.63,0,0,0-1.83,1.47l-1.47,1.95a43.6,43.6,0,0,0-3.06,5.73,23.46,23.46,0,0,0-1.86,7.17,2.63,2.63,0,0,1-.48,1.37q-.36.42-1.14,0a3.08,3.08,0,0,1-.51-1.67q0-1,0-1.92t0-2.07q0-1,.09-2.07.24-6.06,1-11.58a43.15,43.15,0,0,1,2.46-10q.18-.36.36-.81a5.49,5.49,0,0,1,.42-.84,1.49,1.49,0,0,1,.6-.57,1,1,0,0,1,.9.06q-.12.54-.3,1.26t-.3,1.14V93.8a13.68,13.68,0,0,0-.66,2.28q-.24,1.2-.54,2.46a64.13,64.13,0,0,0-1.11,7.91q-.33,4.14-.63,8.4.72-1.74,1.47-3.39a18.76,18.76,0,0,1,1.77-3.09,17.8,17.8,0,0,1,2.1-2.82q.6-.6,1.26-1.2a3,3,0,0,1,1.74-.72,1.27,1.27,0,0,1,1.08.6,3.44,3.44,0,0,1,.36,1.26,6.43,6.43,0,0,1-.09,1.5C111.81,107.51,111.73,108,111.65,108.37ZM106.37,115a5.58,5.58,0,0,0-1,1.92,19.32,19.32,0,0,0,2.4-3.66Z"/><path class="cls-2" d="M131.86,115.39c1.52-1.64,3-3.37,4.46-5.19s2.93-3.63,4.41-5.43l1.44-1.8a2.65,2.65,0,0,0,.75-.9.84.84,0,0,1,1.11-.36.5.5,0,0,1-.06.69,1.82,1.82,0,0,0-.42.51q-2.94,4-6,7.71t-6.2,7.53q-1,5.58-2.19,10.94a39.62,39.62,0,0,1-3.51,9.69q-.78,1.38-1.65,2.67a7.17,7.17,0,0,1-2.25,2.13,8.1,8.1,0,0,1-1,.3,2.87,2.87,0,0,1-1.17,0,3,3,0,0,1-1.77-1.83,7.31,7.31,0,0,1-.36-2.85,15.9,15.9,0,0,1,.51-3.15,24.23,24.23,0,0,1,.9-2.79,30.89,30.89,0,0,1,1.44-3.06l1.44-2.64a56.35,56.35,0,0,1,3.57-5.1q1.89-2.38,3.87-4.67.84-4.44,1.62-8.88t1.26-9.18a1.34,1.34,0,0,0-.57.57,6.43,6.43,0,0,1-.57.81,24,24,0,0,0-1.89,2.7q-.87,1.44-1.77,2.85t-1.89,2.73a15,15,0,0,1-2.25,2.4,1.34,1.34,0,0,0-.48.18,1.34,1.34,0,0,1-.48.18h-.66a2.16,2.16,0,0,1-1.44-1.05,5.76,5.76,0,0,1-.75-2,10.16,10.16,0,0,1-.12-2.49,13.18,13.18,0,0,1,.39-2.46,3.48,3.48,0,0,1,.45-1.14.92.92,0,0,1,.93-.48.57.57,0,0,1,.57.42,3,3,0,0,1,.15,1,8.5,8.5,0,0,1-.09,1.2,8,8,0,0,0-.09,1.11q0,1.08,0,2.16a3.74,3.74,0,0,0,.45,1.8,8,8,0,0,0,2.91-2.61q1.11-1.65,2.37-3.21a18.92,18.92,0,0,1,1.14-1.59,18.92,18.92,0,0,0,1.14-1.59,6,6,0,0,0,1.2-1.59,2.6,2.6,0,0,1,1.44-1.29q.54-.18.9.48a3.24,3.24,0,0,1,.33,2q-.09,1.29-.15,2.31-.3,3.12-.66,6.45T131.86,115.39Zm-9.54,14.87a32.36,32.36,0,0,0-1.8,3.9,17.4,17.4,0,0,0-1.08,4.68,11,11,0,0,0,0,1.62,1.66,1.66,0,0,0,.78,1.32,4.39,4.39,0,0,0,1.92-1.65,23.8,23.8,0,0,0,1.32-2.31,40,40,0,0,0,3-8q1.14-4.35,2.1-8.72a.05.05,0,0,0-.06-.06q-1.62,2.09-3.21,4.37A48.36,48.36,0,0,0,122.32,130.26Z"/><path class="cls-2" d="M166,113.77q1.74-2.1,3.45-4.35a47.45,47.45,0,0,1,3.75-4.35l1.38-1.35a2.94,2.94,0,0,1,1.74-.81.84.84,0,0,1,.45.42.71.71,0,0,1,0,.66.69.69,0,0,1-.78,0,50.74,50.74,0,0,0-5.49,6.06q-2.49,3.24-4.89,6.66-1,6.36-2.46,12.44a74.34,74.34,0,0,1-3.78,11.43,12.8,12.8,0,0,1-.75,1.62c-.3.56-.61,1.12-.92,1.68L157,145a6,6,0,0,1-.72,1,3,3,0,0,1-2.31,1s0,0-.12-.06a1.18,1.18,0,0,1-.39-.18,1.75,1.75,0,0,0-.39-.24,1,1,0,0,0-.3-.36,6,6,0,0,1-.48-2.1,12,12,0,0,1,.09-2.25,20.15,20.15,0,0,1,.42-2.19q.27-1.08.51-2,.6-2,1.32-3.81t1.44-3.51a92.35,92.35,0,0,1,7.31-12.77q.3-1.92.57-4t.39-4.26q.18-2.1.21-4.44a13.81,13.81,0,0,0-.51-4.14,1.3,1.3,0,0,0-.72.57,9.48,9.48,0,0,1-.6.81,10.12,10.12,0,0,1,.6,1.62,3.8,3.8,0,0,0,.36.84.69.69,0,0,1,0,.78q-.48.18-.69-.15a1.91,1.91,0,0,0-.45-.51q-.18-.3-.39-.6a3,3,0,0,1-.33-.6,19.41,19.41,0,0,0-1.62,2.4c-.48.84-1,1.66-1.55,2.46a14.08,14.08,0,0,0-.87,1.29,9.44,9.44,0,0,1-1.17,1.5,4,4,0,0,1-1.41,1,1.73,1.73,0,0,1-1.65-.3,2.57,2.57,0,0,1-.54-1.47,7.57,7.57,0,0,1,.09-1.77,10.94,10.94,0,0,1,.45-1.77q.3-.87.6-1.53a16.33,16.33,0,0,1,1.08-2.13,9,9,0,0,1,1.32-1.71,5.9,5.9,0,0,1,.9-.72,4,4,0,0,1,2.54-.66,3.12,3.12,0,0,1,1.29.42,2.83,2.83,0,0,0,.69-.66,5.69,5.69,0,0,1,.72-.75,2.42,2.42,0,0,1,.9-.47,1.86,1.86,0,0,1,1.17.09,2.29,2.29,0,0,1,.48.33,1.78,1.78,0,0,1,.36.38,3.67,3.67,0,0,1,.63,1.35,9.32,9.32,0,0,1,.27,1.74q.06.93.06,2t-.06,2q-.12,2.1-.24,4T166,113.77Zm-10.85,24.11q-.48,1.56-.84,3.3a8.43,8.43,0,0,0,.06,3.6,5.51,5.51,0,0,0,1.74-2.19q.66-1.41,1.26-2.73a57.52,57.52,0,0,0,3.17-8.91q1.26-4.71,2.28-9.8s0,0-.06,0q-2.22,3.82-4.26,7.91A49.14,49.14,0,0,0,155.13,137.88ZM158,102.79a12.3,12.3,0,0,0-1.89,3,13.81,13.81,0,0,0-1.05,3.87,16.48,16.48,0,0,0,2.73-3.66c.78-1.4,1.6-2.74,2.48-4a1.58,1.58,0,0,0-1.32.18C158.58,102.37,158.26,102.59,158,102.79Z"/><path class="cls-2" d="M176.42,106.27a11.78,11.78,0,0,0-.78,2.19,10.22,10.22,0,0,0-.36,2.64,4.51,4.51,0,0,0,.54,2.25,2.13,2.13,0,0,0,1.92,1,5.93,5.93,0,0,0,3-.66c.93-.48,1.74-.94,2.42-1.38s1.55-1.11,2.25-1.65,1.33-1.07,1.89-1.59a33.06,33.06,0,0,0,3-2.58q1.41-1.38,2.79-2.82a1.47,1.47,0,0,0,.39-.48,5.45,5.45,0,0,1,.45-.66,3.07,3.07,0,0,1,.51-.51.47.47,0,0,1,.57,0q.42.18.18.72a4.28,4.28,0,0,1-.42.78,2.12,2.12,0,0,1-.36.66q-.24.3-.48.66a44.73,44.73,0,0,1-3.15,3.3q-1.65,1.56-3.39,3.12a24.62,24.62,0,0,1-5,3.6,13.29,13.29,0,0,1-1.5.69,8.53,8.53,0,0,1-1.73.48,8,8,0,0,1-1.83.09,3.66,3.66,0,0,1-1.71-.54,2.85,2.85,0,0,1-.63-.57l-.57-.69a5.75,5.75,0,0,1-.75-2.55,11.45,11.45,0,0,1,.18-2.85,18.5,18.5,0,0,1,1.71-5,25,25,0,0,1,2.4-3.54,7,7,0,0,1,3.65-2.27,2.89,2.89,0,0,1,2,.54,2,2,0,0,1,.63,1.91,3.89,3.89,0,0,1-.72,1.8,11.88,11.88,0,0,1-1.26,1.5,13.41,13.41,0,0,1-2.36,1.89A4.94,4.94,0,0,1,176.42,106.27ZM182,99.85a6.15,6.15,0,0,0-3.17,2.19,22.1,22.1,0,0,0-2,3.33,3.74,3.74,0,0,0,2.22-.6,16.48,16.48,0,0,0,1.56-1.26c.43-.48.89-1,1.37-1.44a2.58,2.58,0,0,0,.66-2A.71.71,0,0,0,182,99.85Z"/><path class="cls-2" d="M196.69,95.36c3.44-.12,7-.3,10.73-.54a79,79,0,0,1,11.1.06l.66,0a.52.52,0,0,1,.48.33q-.06.48-.45.48a3.54,3.54,0,0,1-.69-.06,108.07,108.07,0,0,0-11.1.09l-10.85.63q-.84,4.91-1.53,10a73.72,73.72,0,0,0-.63,10.68q0,.78.06,1.74a12.24,12.24,0,0,0,.24,1.8q.12.66.39,1.62c.18.63.45,1,.81,1a.88.88,0,0,0,.63-.18,6.7,6.7,0,0,0,.66-.57,6.44,6.44,0,0,0,.6-.69l.39-.54a58.47,58.47,0,0,0,4.29-6.39q1.88-3.27,4-6.81.54-1,1.14-2t1.32-2a5.85,5.85,0,0,1,.54-.69.52.52,0,0,1,.6-.21q.48.24.18.75a8.68,8.68,0,0,1-.48.75q-1.5,2.52-2.82,5.1t-2.82,5.1c-.56.92-1.1,1.85-1.64,2.79s-1.11,1.87-1.71,2.79-1.22,1.82-1.86,2.69a6.43,6.43,0,0,1-2.46,2,3.34,3.34,0,0,1-1.26,0,3.73,3.73,0,0,1-2.07-2.24,16.47,16.47,0,0,1-.81-3.39,25.82,25.82,0,0,1-.3-4q0-2.07.12-4.05.3-4,.81-7.77t1.23-7.16q-2.76.12-5.61.42t-5.79.42l-.81,0a.44.44,0,0,1-.51-.45.42.42,0,0,1,.48-.48,5.17,5.17,0,0,0,.84-.06q2.82-.18,5.76-.48t5.82-.42q.36-1.26.81-3a24.22,24.22,0,0,1,1.05-3.15,4.55,4.55,0,0,1,.45-1,1,1,0,0,1,.81-.57.62.62,0,0,1,.57.24.89.89,0,0,1,.12.57,4.55,4.55,0,0,1-.12.69q-.09.36-.15.66-.3,1.32-.6,2.73T196.69,95.36Z"/><path class="cls-2" d="M213.06,95.36q5.16-.18,10.74-.54a78.91,78.91,0,0,1,11.09.06l.66,0a.52.52,0,0,1,.48.33q-.06.48-.45.48a3.54,3.54,0,0,1-.69-.06,107.87,107.87,0,0,0-11.09.09l-10.86.63q-.84,4.91-1.53,10a73.72,73.72,0,0,0-.63,10.68q0,.78.06,1.74a12.24,12.24,0,0,0,.24,1.8q.12.66.39,1.62c.18.63.45,1,.81,1a.88.88,0,0,0,.63-.18,6.7,6.7,0,0,0,.66-.57,6.44,6.44,0,0,0,.6-.69l.39-.54a58.47,58.47,0,0,0,4.29-6.39q1.89-3.27,4-6.81.54-1,1.14-2t1.32-2a5.85,5.85,0,0,1,.54-.69.52.52,0,0,1,.6-.21c.32.16.37.41.18.75s-.36.59-.48.75q-1.5,2.52-2.82,5.1t-2.82,5.1q-.84,1.38-1.65,2.79t-1.71,2.79c-.6.92-1.22,1.82-1.86,2.69a6.43,6.43,0,0,1-2.46,2,3.34,3.34,0,0,1-1.26,0,3.73,3.73,0,0,1-2.07-2.24,16.47,16.47,0,0,1-.81-3.39,25.82,25.82,0,0,1-.3-4q0-2.07.12-4.05.3-4,.81-7.77t1.23-7.16q-2.76.12-5.61.42t-5.78.42l-.81,0a.44.44,0,0,1-.51-.45.42.42,0,0,1,.48-.48,5.17,5.17,0,0,0,.84-.06q2.82-.18,5.75-.48t5.82-.42q.36-1.26.81-3a24.22,24.22,0,0,1,1.05-3.15,4.55,4.55,0,0,1,.45-1,1,1,0,0,1,.81-.57.62.62,0,0,1,.57.24.89.89,0,0,1,.12.57,4.55,4.55,0,0,1-.12.69q-.09.36-.15.66-.3,1.32-.6,2.73T213.06,95.36Z"/><path class="cls-2" d="M226.74,102.79a.9.9,0,0,1,.21.66q0,.36,0,.78c0,.68-.06,1.42,0,2.22s0,1.58,0,2.34,0,1.5,0,2.22a2.7,2.7,0,0,1-.63,1.74h-.48a1.93,1.93,0,0,1-.45-.93,9.09,9.09,0,0,1-.21-1.35q-.06-1.32,0-2.76a26,26,0,0,1,.21-2.82q.06-.36.12-.84a3.22,3.22,0,0,1,.21-.84,1,1,0,0,1,.42-.51A.69.69,0,0,1,226.74,102.79Zm.3-11.63a1.37,1.37,0,0,1-.48,1,.65.65,0,0,1-.69-.12,1,1,0,0,1-.24-.57.73.73,0,0,1,.18-.57.74.74,0,0,1,.69-.18Q227,90.92,227,91.16Z"/><path class="cls-2" d="M232.67,112q1.2-2.28,2.4-4.65a22.1,22.1,0,0,1,2.82-4.29l.6-.72a4.39,4.39,0,0,1,.78-.72,2.61,2.61,0,0,1,.93-.42,1.83,1.83,0,0,1,1.11.12,2.74,2.74,0,0,1,1.32,1.86q.42,1.44.72,2.88.12.66.27,1.38t.33,1.44a10,10,0,0,0,.48,1.35,1.28,1.28,0,0,0,.72.81,1,1,0,0,0,.9-.21,7.27,7.27,0,0,1,.72-.51q.36-.3.66-.51a4.52,4.52,0,0,0,.6-.51,25,25,0,0,0,2.52-2.52,28.86,28.86,0,0,1,2.51-2.58,10,10,0,0,1,1.05-.69,1.54,1.54,0,0,1,.72-.21q.33,0,.39.42t-.39.6a2.93,2.93,0,0,0-.69.48,15.18,15.18,0,0,0-1.68,1.71c-.56.66-1.16,1.33-1.79,2q-.48.48-.93.9t-.93.9q-.78.78-1.68,1.53a3.53,3.53,0,0,1-2.34.75l-.27-.12a.88.88,0,0,0-.33-.06,3.69,3.69,0,0,1-1.47-1.86A19,19,0,0,1,242,108q-.3-1.35-.57-2.7a8.34,8.34,0,0,0-.87-2.43,3.57,3.57,0,0,0-1.56,1.35,18.91,18.91,0,0,1-1.2,1.71,27.66,27.66,0,0,0-2,3.72q-.9,2-1.74,4.08a3.68,3.68,0,0,0-.42.93,10.56,10.56,0,0,1-.42,1.11,3.05,3.05,0,0,1-.63.93,1.11,1.11,0,0,1-1.05.27,1,1,0,0,1-.81-.63,3.77,3.77,0,0,1-.33-1.32,14.23,14.23,0,0,1,0-1.62q0-.87.09-1.59.24-2.88.66-5.61a33.65,33.65,0,0,1,1.14-5q.24-.66.42-1.2a.84.84,0,0,1,.78-.6.7.7,0,0,1,.75.33,1.75,1.75,0,0,1,.18.93,6.68,6.68,0,0,1-.18,1.17q-.15.63-.21,1-.42,2.28-.72,4.56T232.67,112Z"/><path class="cls-2" d="M264.7,113.77q1.74-2.1,3.45-4.35a47.45,47.45,0,0,1,3.75-4.35l1.38-1.35a2.92,2.92,0,0,1,1.74-.81.91.91,0,0,1,.45.42.74.74,0,0,1,0,.66.71.71,0,0,1-.79,0,51.52,51.52,0,0,0-5.48,6.06q-2.49,3.24-4.89,6.66-1,6.36-2.46,12.44A74.34,74.34,0,0,1,258,140.58a14.37,14.37,0,0,1-.75,1.62q-.45.84-.93,1.68-.3.54-.63,1.08a6,6,0,0,1-.72,1,3,3,0,0,1-2.31,1s0,0-.12-.06a1.18,1.18,0,0,1-.39-.18,1.54,1.54,0,0,0-.39-.24.89.89,0,0,0-.3-.36,6.21,6.21,0,0,1-.48-2.1,14,14,0,0,1,.09-2.25c.11-.74.24-1.47.42-2.19s.36-1.38.51-2q.6-2,1.32-3.81t1.44-3.51a93.44,93.44,0,0,1,7.32-12.77q.3-1.92.57-4t.39-4.26q.18-2.1.21-4.44a13.81,13.81,0,0,0-.51-4.14,1.3,1.3,0,0,0-.72.57,9.48,9.48,0,0,1-.6.81,10.12,10.12,0,0,1,.6,1.62,3.8,3.8,0,0,0,.36.84.69.69,0,0,1,0,.78q-.48.18-.69-.15a1.91,1.91,0,0,0-.45-.51q-.18-.3-.39-.6a3,3,0,0,1-.33-.6,19.41,19.41,0,0,0-1.62,2.4q-.72,1.26-1.56,2.46-.36.48-.87,1.29a9.44,9.44,0,0,1-1.17,1.5,4,4,0,0,1-1.41,1,1.73,1.73,0,0,1-1.65-.3,2.57,2.57,0,0,1-.54-1.47,7.57,7.57,0,0,1,.09-1.77,12.08,12.08,0,0,1,.45-1.77q.3-.87.6-1.53A16.33,16.33,0,0,1,254,103a9,9,0,0,1,1.32-1.71,5.9,5.9,0,0,1,.9-.72,4,4,0,0,1,2.55-.66,3.12,3.12,0,0,1,1.29.42,2.83,2.83,0,0,0,.69-.66,5.69,5.69,0,0,1,.72-.75,2.42,2.42,0,0,1,.9-.47,1.86,1.86,0,0,1,1.17.09,2.29,2.29,0,0,1,.48.33,1.78,1.78,0,0,1,.36.38,3.67,3.67,0,0,1,.63,1.35,9.32,9.32,0,0,1,.27,1.74q.06.93.06,2t-.06,2q-.12,2.1-.24,4T264.7,113.77Zm-10.86,24.11q-.48,1.56-.84,3.3a8.43,8.43,0,0,0,.06,3.6,5.51,5.51,0,0,0,1.74-2.19q.66-1.41,1.26-2.73a56.52,56.52,0,0,0,3.18-8.91q1.26-4.71,2.28-9.8s0,0-.06,0q-2.22,3.82-4.26,7.91A49.16,49.16,0,0,0,253.84,137.88Zm2.82-35.09a12.3,12.3,0,0,0-1.89,3,13.81,13.81,0,0,0-1.05,3.87,16.48,16.48,0,0,0,2.73-3.66q1.17-2.1,2.49-4a1.58,1.58,0,0,0-1.32.18Q257.14,102.49,256.66,102.79Z"/></g></g></svg>