<svg xmlns="http://www.w3.org/2000/svg" xmlns:xlink="http://www.w3.org/1999/xlink" viewBox="0 0 85.62 85.62"><defs><style>.cls-1,.cls-3,.cls-4,.cls-5{fill:none;}.cls-2{clip-path:url(#clip-path);}.cls-3,.cls-4{stroke:#ff8300;}.cls-3,.cls-4,.cls-5{stroke-linecap:round;stroke-linejoin:round;}.cls-3{stroke-width:1.39px;}.cls-4{stroke-width:0.84px;}.cls-5{stroke:#002a3a;stroke-width:1.58px;}</style><clipPath id="clip-path" transform="translate(0 0)"><rect class="cls-1" width="85.61" height="85.61"/></clipPath></defs><g id="Layer_2" data-name="Layer 2"><g id="Layer_1-2" data-name="Layer 1"><g class="cls-2"><path class="cls-3" d="M43,22.46h7.2a3.28,3.28,0,0,1,3.28,3.28V38.65" transform="translate(0 0)"/><path class="cls-3" d="M43.64,64.34h-21a3.27,3.27,0,0,1-3.27-3.28V25.74a3.27,3.27,0,0,1,3.27-3.28h7.21" transform="translate(0 0)"/></g><polyline class="cls-3" points="25.51 30.51 26.42 31.41 28.13 29.7"/><line class="cls-3" x1="31.78" y1="47.59" x2="34.92" y2="47.59"/><line class="cls-3" x1="31.78" y1="53.35" x2="33.87" y2="53.35"/><g class="cls-2"><rect class="cls-3" x="29.88" y="19.85" width="13.09" height="5.23" rx="1.03"/></g><polyline class="cls-3" points="25.51 35.74 26.42 36.65 28.13 34.94"/><polyline class="cls-3" points="25.51 41.5 26.42 42.41 28.13 40.69"/><line class="cls-3" x1="31.78" y1="41.57" x2="38.58" y2="41.57"/><line class="cls-3" x1="31.78" y1="35.81" x2="44.86" y2="35.81"/><line class="cls-3" x1="31.78" y1="30.58" x2="44.86" y2="30.58"/><polygon class="cls-4" points="53.61 50.76 65.62 45.51 65.62 59.02 53.61 65.03 40.84 59.02 40.84 45.51 53.61 50.76"/><polyline class="cls-4" points="40.84 45.51 53.23 41.38 65.62 45.51"/><line class="cls-4" x1="53.61" y1="50.76" x2="53.61" y2="65.03"/><polyline class="cls-4" points="57.26 42.72 45.28 47.33 45.28 52.59 46.83 52.1 48.6 53.96 48.6 48.7 60.6 43.84"/><path class="cls-5" d="M7,20.76A42,42,0,1,0,20.87,7" transform="translate(0 0)"/></g></g></svg>