<svg xmlns="http://www.w3.org/2000/svg" viewBox="0 0 85.62 85.62"><defs><style>.cls-1{fill:#ff8300;}.cls-2{fill:none;stroke:#002a3a;stroke-linecap:round;stroke-linejoin:round;stroke-width:1.58px;}</style></defs><g id="Layer_2" data-name="Layer 2"><g id="Layer_1-2" data-name="Layer 1"><path class="cls-1" d="M13.9,13.42a1.14,1.14,0,1,1-1.14-1.13,1.13,1.13,0,0,1,1.14,1.13"/><path class="cls-2" d="M7,20.76A42,42,0,1,0,20.87,7"/><path class="cls-1" d="M13.9,13.42a1.14,1.14,0,1,1-1.14-1.13,1.13,1.13,0,0,1,1.14,1.13"/><path class="cls-1" d="M34,61.37a21.14,21.14,0,0,1-12.16-19.1A20.91,20.91,0,0,1,25.82,30l1.49,1.06a19.1,19.1,0,0,0-3.6,11.21A19.31,19.31,0,0,0,34.82,59.71Z"/><path class="cls-1" d="M29.2,28.81l-1.31-1.28c.42-.42.87-.84,1.34-1.25l1.19,1.39c-.43.37-.84.76-1.22,1.14"/><path class="cls-1" d="M51.83,61.37l-.77-1.66A19.24,19.24,0,1,0,32.65,26l-1-1.55a21.07,21.07,0,1,1,20.16,36.9"/><polygon class="cls-1" points="36.63 49.88 35.33 48.59 42.02 41.89 42.02 25.79 43.85 25.79 43.85 42.65 36.63 49.88"/><polygon class="cls-1" points="48.44 60.64 46.63 60.35 47.35 55.9 42.86 55.06 43.2 53.26 49.45 54.43 48.44 60.64"/><rect class="cls-1" x="34.19" y="26.95" width="1.83" height="3.5" transform="translate(-9.65 21.4) rotate(-30.01)"/><rect class="cls-1" x="33.35" y="54.93" width="3.52" height="1.83" transform="translate(-30.81 58.34) rotate(-60.01)"/><rect class="cls-1" x="28.44" y="32.68" width="1.83" height="3.5" transform="translate(-15.14 42.64) rotate(-59.99)"/><rect class="cls-1" x="25.54" y="41.36" width="3.66" height="1.83"/><rect class="cls-1" x="27.61" y="49.2" width="3.49" height="1.83" transform="translate(-21.11 21.37) rotate(-29.98)"/><rect class="cls-1" x="49.02" y="27.78" width="3.5" height="1.83" transform="translate(0.53 58.33) rotate(-60.01)"/><rect class="cls-1" x="54.77" y="33.52" width="3.5" height="1.83" transform="translate(-9.65 32.88) rotate(-30.01)"/><rect class="cls-1" x="56.68" y="41.36" width="3.66" height="1.83"/><rect class="cls-1" x="55.61" y="48.37" width="1.83" height="3.49" transform="translate(-15.15 74) rotate(-59.99)"/><path class="cls-1" d="M59.31,60.8,58.1,59.43a22.81,22.81,0,0,0,7.08-11.7l1.78.44A24.55,24.55,0,0,1,59.31,60.8"/><path class="cls-1" d="M53.66,64.56l-.79-1.65A23.26,23.26,0,0,0,56,61.11l1,1.5a24.26,24.26,0,0,1-3.34,2"/><path class="cls-1" d="M20.7,36.82l-1.78-.44a24.62,24.62,0,0,1,7.65-12.64l1.21,1.38a22.77,22.77,0,0,0-7.08,11.7"/><path class="cls-1" d="M29.92,23.44l-1.05-1.51A25.43,25.43,0,0,1,32.21,20l.8,1.65a22.21,22.21,0,0,0-3.09,1.8"/><path class="cls-1" d="M65.78,34.14l-1.7-.7c2.3-5.61,2.33-10.12.07-12.38a5.28,5.28,0,0,0-2-1.25l.61-1.73a7.26,7.26,0,0,1,2.73,1.68c2.84,2.86,3,8,.33,14.38"/><path class="cls-1" d="M26.49,67a8.2,8.2,0,0,1-6.07-2.22,7.4,7.4,0,0,1-1.67-2.71l1.73-.61a5.47,5.47,0,0,0,1.25,2c4.07,4.15,15.28.27,26.07-9L49,55.86C40.65,63,32.38,67,26.49,67"/><path class="cls-1" d="M51.65,21,51,19.31a29.53,29.53,0,0,1,3.41-1.13L54.84,20A25.76,25.76,0,0,0,51.65,21"/><path class="cls-1" d="M56.94,19.53l-.26-1.81a14.54,14.54,0,0,1,3.64-.1l-.2,1.82a12.78,12.78,0,0,0-3.18.09"/><path class="cls-1" d="M18.28,59.67a15.19,15.19,0,0,1,.1-3.66l1.82.26a13,13,0,0,0-.1,3.2Z"/><path class="cls-1" d="M20.6,54.28l-1.78-.45a29.65,29.65,0,0,1,1.1-3.4l1.71.67a26,26,0,0,0-1,3.18"/></g></g></svg>