<svg xmlns="http://www.w3.org/2000/svg" viewBox="0 0 85.62 85.62"><defs><style>.cls-1,.cls-2,.cls-4{fill:none;stroke-linecap:round;stroke-linejoin:round;}.cls-1,.cls-4{stroke:#002a3a;}.cls-1{stroke-width:1.15px;}.cls-2{stroke:#ff8300;stroke-width:1.21px;}.cls-3{fill:#ff8300;}.cls-4{stroke-width:1.58px;}</style></defs><g id="Layer_2" data-name="Layer 2"><g id="Layer_1-2" data-name="Layer 1"><path class="cls-1" d="M66.43,27.14a30.65,30.65,0,0,0-47.72-.53"/><polygon class="cls-2" points="43.39 45.3 62.09 37.13 62.09 58.16 43.39 67.5 23.53 58.16 23.53 37.13 43.39 45.3"/><polyline class="cls-2" points="23.53 37.13 42.81 30.7 62.09 37.13"/><line class="cls-2" x1="43.39" y1="45.3" x2="43.39" y2="67.5"/><polyline class="cls-2" points="49.07 32.79 30.43 39.97 30.43 48.15 32.85 47.39 35.6 50.27 35.6 42.1 54.28 34.52"/><path class="cls-3" d="M13.9,13.42a1.14,1.14,0,1,1-1.14-1.13,1.13,1.13,0,0,1,1.14,1.13"/><polyline class="cls-1" points="19.24 22.87 17.97 27.14 22.26 25.67"/><polyline class="cls-1" points="66.04 23.68 67.31 27.95 63.02 26.48"/><path class="cls-3" d="M13.9,13.42a1.14,1.14,0,1,1-1.14-1.13,1.13,1.13,0,0,1,1.14,1.13"/><path class="cls-4" d="M7,20.76A42,42,0,1,0,20.87,7"/><path class="cls-3" d="M13.9,13.42a1.14,1.14,0,1,1-1.14-1.13,1.13,1.13,0,0,1,1.14,1.13"/></g></g></svg>