<svg xmlns="http://www.w3.org/2000/svg" viewBox="0 0 85.62 85.62"><defs><style>.cls-1{fill:#ff8300;}.cls-2{fill:none;stroke:#002a3a;stroke-linecap:round;stroke-linejoin:round;stroke-width:1.58px;}</style></defs><g id="Layer_2" data-name="Layer 2"><g id="Layer_1-2" data-name="Layer 1"><path class="cls-1" d="M16.17,32.7V26.52a.29.29,0,0,1,.07-.22.3.3,0,0,1,.22-.06h1.59a3,3,0,0,1,1.72.4,1.47,1.47,0,0,1,.57,1.28,1.75,1.75,0,0,1-.28,1,1.8,1.8,0,0,1-.81.61v0a1,1,0,0,1,.46.37,4.92,4.92,0,0,1,.39.82l.74,1.87a.45.45,0,0,1,0,.13c0,.1-.13.15-.4.15h-.09a.62.62,0,0,1-.25,0,.21.21,0,0,1-.13-.11l-.72-1.86a1.43,1.43,0,0,0-.53-.73,1.68,1.68,0,0,0-.89-.2H17V32.7c0,.14-.13.2-.38.2h-.08C16.3,32.9,16.17,32.84,16.17,32.7Zm2.09-3.46a1.16,1.16,0,0,0,.61-.16,1.14,1.14,0,0,0,.44-.43,1.09,1.09,0,0,0,.17-.58,1,1,0,0,0-.35-.83,1.41,1.41,0,0,0-.94-.28H17v2.28Z"/><path class="cls-1" d="M22,32.82A.32.32,0,0,1,22,32.6V26.52A.34.34,0,0,1,22,26.3a.32.32,0,0,1,.22-.06h3.31a.18.18,0,0,1,.15.06.43.43,0,0,1,0,.22v.15a.39.39,0,0,1,0,.22.16.16,0,0,1-.15.07H22.8v2.17h2.48a.18.18,0,0,1,.15.06.57.57,0,0,1,0,.22v.15a.54.54,0,0,1,0,.22.18.18,0,0,1-.15.07H22.8v2.31h2.77a.18.18,0,0,1,.15.07.41.41,0,0,1,0,.22v.15a.41.41,0,0,1,0,.22.18.18,0,0,1-.15.07H22.25A.32.32,0,0,1,22,32.82Z"/><path class="cls-1" d="M27.49,32.81a2.29,2.29,0,0,1-.73-.32q-.18-.14-.18-.24a.59.59,0,0,1,.13-.31c.08-.14.15-.2.2-.2a.66.66,0,0,1,.2.09,4.46,4.46,0,0,0,.63.28,2.71,2.71,0,0,0,.8.11,1.28,1.28,0,0,0,.9-.31,1,1,0,0,0,.35-.81.86.86,0,0,0-.19-.58,1.37,1.37,0,0,0-.46-.37,6.09,6.09,0,0,0-.79-.34c-.36-.15-.65-.28-.87-.4a1.57,1.57,0,0,1-.55-.54,1.71,1.71,0,0,1-.23-.93A1.64,1.64,0,0,1,27,27a1.76,1.76,0,0,1,.74-.63,2.75,2.75,0,0,1,1.11-.22,3.29,3.29,0,0,1,.72.09,1.82,1.82,0,0,1,.62.24c.13.08.19.16.19.25a.65.65,0,0,1-.12.3c-.08.14-.14.2-.18.2a.3.3,0,0,1-.14,0l-.12-.07a2.2,2.2,0,0,0-1-.25,1.34,1.34,0,0,0-.89.29,1,1,0,0,0-.33.79.79.79,0,0,0,.16.52,1.2,1.2,0,0,0,.38.3l.75.31a6,6,0,0,1,.93.42,1.8,1.8,0,0,1,.61.59,1.72,1.72,0,0,1,.25,1,1.7,1.7,0,0,1-.57,1.35,2.26,2.26,0,0,1-1.54.49A3.87,3.87,0,0,1,27.49,32.81Z"/><path class="cls-1" d="M33.18,32.7V27H31.36a.16.16,0,0,1-.15-.07.39.39,0,0,1,0-.22v-.15a.43.43,0,0,1,0-.22.18.18,0,0,1,.15-.06h4.45a.18.18,0,0,1,.15.06.43.43,0,0,1,0,.22v.15a.39.39,0,0,1,0,.22.16.16,0,0,1-.15.07H34V32.7c0,.14-.13.2-.38.2h-.08C33.31,32.9,33.18,32.84,33.18,32.7Z"/><path class="cls-1" d="M37.48,32.07a3.77,3.77,0,0,1-.75-2.53A3.69,3.69,0,0,1,37.48,27a2.75,2.75,0,0,1,2.18-.85,2.78,2.78,0,0,1,2.18.85,3.69,3.69,0,0,1,.75,2.51,3.77,3.77,0,0,1-.75,2.53,3.17,3.17,0,0,1-4.36,0Zm3.71-.53a3.18,3.18,0,0,0,.54-2,3.1,3.1,0,0,0-.54-2,2.09,2.09,0,0,0-3.07,0,3.17,3.17,0,0,0-.52,2,3.25,3.25,0,0,0,.52,2,2.07,2.07,0,0,0,3.07,0Z"/><path class="cls-1" d="M44.42,32.12a3.71,3.71,0,0,1-.75-2.56q0-3.37,3.08-3.38a3.82,3.82,0,0,1,.9.1,3.21,3.21,0,0,1,.69.24c.15.09.22.17.22.25a.73.73,0,0,1-.12.34c-.07.14-.14.21-.2.21A1.13,1.13,0,0,1,48,27.2a2.55,2.55,0,0,0-.52-.21,2.6,2.6,0,0,0-.71-.09,2.11,2.11,0,0,0-1.69.64,3.1,3.1,0,0,0-.54,2,3.16,3.16,0,0,0,.53,2,2,2,0,0,0,1.66.64,2.66,2.66,0,0,0,.8-.11,3.36,3.36,0,0,0,.65-.28.39.39,0,0,1,.18-.08q.09,0,.21.21a.75.75,0,0,1,.13.3c0,.09-.1.2-.31.31a2.71,2.71,0,0,1-.72.27,4,4,0,0,1-.94.1A3,3,0,0,1,44.42,32.12Z"/><path class="cls-1" d="M49.93,32.7V26.43c0-.14.13-.21.38-.21h.08c.25,0,.38.07.38.21v2.9h0l2.33-3c.07-.09.24-.13.51-.13h.1a.81.81,0,0,1,.25,0s.08.05.08.09a.3.3,0,0,1-.09.19l-2.38,3,2.88,3.12a.25.25,0,0,1,.09.15.13.13,0,0,1-.1.11,1.29,1.29,0,0,1-.32,0h-.44a.36.36,0,0,1-.2-.11l-2.71-3.06h0v3c0,.14-.13.2-.38.2h-.08C50.06,32.9,49.93,32.84,49.93,32.7Z"/><path class="cls-1" d="M55.4,32.7V26.43c0-.14.13-.21.38-.21h.08c.25,0,.38.07.38.21V32.7c0,.14-.13.2-.38.2h-.08C55.53,32.9,55.4,32.84,55.4,32.7Z"/><path class="cls-1" d="M58,32.7V26.43c0-.14.13-.21.38-.21h.2a.55.55,0,0,1,.24,0,.31.31,0,0,1,.16.14l3,4.5a4.84,4.84,0,0,1,.32.57h0c0-.14,0-.36,0-.64V26.43c0-.14.13-.21.38-.21h.07c.25,0,.38.07.38.21V32.7c0,.14-.13.2-.38.2h-.19a.37.37,0,0,1-.33-.13l-3.06-4.61a3.74,3.74,0,0,1-.31-.57h0c0,.14,0,.36,0,.64V32.7c0,.14-.13.2-.38.2H58.4C58.15,32.9,58,32.84,58,32.7Z"/><path class="cls-1" d="M69.52,29.52a.29.29,0,0,1,.07.22v2.52c0,.25-.2.42-.59.53a6.47,6.47,0,0,1-1.53.15,2.8,2.8,0,0,1-2.18-.82,3.63,3.63,0,0,1-.75-2.5q0-3.44,3.07-3.44a4.14,4.14,0,0,1,.87.09,2.92,2.92,0,0,1,.69.23c.17.1.26.19.26.27a.73.73,0,0,1-.12.34c-.08.14-.15.21-.2.21l-.25-.12a2.34,2.34,0,0,0-.52-.21,2.55,2.55,0,0,0-.71-.09,2,2,0,0,0-1.72.67,3.18,3.18,0,0,0-.51,2,3.49,3.49,0,0,0,.48,2,1.8,1.8,0,0,0,1.65.73q.34,0,.69,0a2.74,2.74,0,0,0,.53-.09V30.18H67.64a.15.15,0,0,1-.14-.07.37.37,0,0,1,0-.22v-.15a.42.42,0,0,1,0-.22.17.17,0,0,1,.14-.06H69.3A.3.3,0,0,1,69.52,29.52Z"/><path class="cls-1" d="M17,54.54V36.91a.69.69,0,0,1,.81-.82h8.55a.47.47,0,0,1,.42.19,1.25,1.25,0,0,1,.12.63v.43a1.25,1.25,0,0,1-.12.63.47.47,0,0,1-.42.18h-7v6.19h6.48a.45.45,0,0,1,.42.19,1.25,1.25,0,0,1,.12.63v.43a1.18,1.18,0,0,1-.12.62.45.45,0,0,1-.42.19H19.41v8.14c0,.4-.37.6-1.09.6H18.1Q17,55.14,17,54.54Z"/><path class="cls-1" d="M30.86,54.9a.86.86,0,0,1-.19-.63V36.91a.69.69,0,0,1,.81-.82H41a.47.47,0,0,1,.42.19,1.25,1.25,0,0,1,.12.63v.43a1.25,1.25,0,0,1-.12.63.47.47,0,0,1-.42.18h-7.9v6.19h7.09a.47.47,0,0,1,.42.19,1.25,1.25,0,0,1,.12.63v.43a1.18,1.18,0,0,1-.12.62.47.47,0,0,1-.42.19H33.05V53H41a.47.47,0,0,1,.42.19,1.25,1.25,0,0,1,.12.63v.43a1.25,1.25,0,0,1-.12.63.47.47,0,0,1-.42.19h-9.5A.87.87,0,0,1,30.86,54.9Z"/><path class="cls-1" d="M45.67,54.9a.86.86,0,0,1-.19-.63V36.91a.86.86,0,0,1,.19-.63.88.88,0,0,1,.62-.19h9.47a.47.47,0,0,1,.42.19,1.14,1.14,0,0,1,.13.63v.43a1.14,1.14,0,0,1-.13.63.47.47,0,0,1-.42.18H47.87v6.19H55a.45.45,0,0,1,.42.19,1.25,1.25,0,0,1,.12.63v.43a1.18,1.18,0,0,1-.12.62.45.45,0,0,1-.42.19H47.87V53h7.92a.47.47,0,0,1,.42.19,1.25,1.25,0,0,1,.12.63v.43a1.25,1.25,0,0,1-.12.63.47.47,0,0,1-.42.19h-9.5A.88.88,0,0,1,45.67,54.9Z"/><path class="cls-1" d="M61.27,54.87A6.13,6.13,0,0,1,59.18,54c-.34-.26-.51-.48-.51-.68a1.88,1.88,0,0,1,.36-.9c.25-.38.44-.57.59-.57a2,2,0,0,1,.57.27,11.26,11.26,0,0,0,1.8.79,7.1,7.1,0,0,0,2.29.33,3.72,3.72,0,0,0,2.57-.89,2.94,2.94,0,0,0,1-2.32,2.55,2.55,0,0,0-.54-1.66A4,4,0,0,0,66,47.26a24.22,24.22,0,0,0-2.24-1,22.34,22.34,0,0,1-2.49-1.14,4.55,4.55,0,0,1-1.58-1.54A4.93,4.93,0,0,1,59,41a4.64,4.64,0,0,1,.75-2.61,4.93,4.93,0,0,1,2.11-1.77A7.37,7.37,0,0,1,65,35.93a9.59,9.59,0,0,1,2.07.26,5,5,0,0,1,1.76.69c.36.22.54.45.54.71a1.92,1.92,0,0,1-.34.86c-.22.38-.4.57-.53.57a.92.92,0,0,1-.39-.13l-.34-.19A6,6,0,0,0,65,38a3.77,3.77,0,0,0-2.54.82,2.78,2.78,0,0,0-1,2.25A2.29,2.29,0,0,0,62,42.55a3.17,3.17,0,0,0,1.09.86c.41.18,1.12.48,2.13.88a20.53,20.53,0,0,1,2.66,1.2A4.89,4.89,0,0,1,70.31,50a4.83,4.83,0,0,1-1.63,3.86,6.5,6.5,0,0,1-4.4,1.41A11.48,11.48,0,0,1,61.27,54.87Z"/><line class="cls-2" x1="13.1" y1="72.52" x2="72.52" y2="13.1"/><path class="cls-1" d="M13.9,13.42a1.14,1.14,0,1,1-1.14-1.13,1.13,1.13,0,0,1,1.14,1.13"/><path class="cls-2" d="M7,20.76A42,42,0,1,0,20.87,7"/><path class="cls-1" d="M13.9,13.42a1.14,1.14,0,1,1-1.14-1.13,1.13,1.13,0,0,1,1.14,1.13"/></g></g></svg>