<svg xmlns="http://www.w3.org/2000/svg" viewBox="0 0 85.62 85.62"><defs><style>.cls-1{fill:#ff8300;}.cls-2{fill:none;stroke:#002a3a;stroke-linecap:round;stroke-linejoin:round;stroke-width:1.58px;}</style></defs><g id="Layer_2" data-name="Layer 2"><g id="Layer_1-2" data-name="Layer 1"><path class="cls-1" d="M41.87,47.37v1.86H37.4a.61.61,0,0,0-.61.61V53.4a.6.6,0,0,0,.16.42l3.26,3.54a.62.62,0,0,0,.45.19h1.06v3.12a.61.61,0,0,0,.61.61.61.61,0,0,0,.61-.61v-6a.61.61,0,0,0-.61-.61.62.62,0,0,0-.61.61v1.7h-.8L38,53.17V50.45H61.83v2.72l-2.92,3.17h-.8v-1.7a.61.61,0,0,0-1.22,0v6a.61.61,0,0,0,1.22,0V57.55h1.07a.64.64,0,0,0,.45-.19l3.26-3.54a.65.65,0,0,0,.16-.42V49.84a.62.62,0,0,0-.61-.61H43.09V47.37a5,5,0,0,1,5-5h3.61a5,5,0,0,1,5,5v.42a.61.61,0,1,0,1.21,0v-.42a6.25,6.25,0,0,0-6.24-6.24H48.11a6.25,6.25,0,0,0-6.24,6.24"/><path class="cls-1" d="M54.6,35.07a4.69,4.69,0,1,0-4.68,4.69,4.69,4.69,0,0,0,4.68-4.69m-8.15,0a3.47,3.47,0,1,1,3.47,3.47,3.47,3.47,0,0,1-3.47-3.47"/><path class="cls-1" d="M20.78,54.29H31.42a.61.61,0,1,0,0-1.21h-10V24.48H63.46v21a.61.61,0,0,0,.61.61.62.62,0,0,0,.61-.61V23.87a.61.61,0,0,0-.61-.61H20.78a.61.61,0,0,0-.61.61V53.68a.61.61,0,0,0,.61.61"/><path class="cls-1" d="M13.9,13.42a1.14,1.14,0,1,1-1.14-1.13,1.13,1.13,0,0,1,1.14,1.13"/><path class="cls-2" d="M7,20.76A42,42,0,1,0,20.87,7"/><path class="cls-1" d="M13.9,13.42a1.14,1.14,0,1,1-1.14-1.13,1.13,1.13,0,0,1,1.14,1.13"/></g></g></svg>