<svg xmlns="http://www.w3.org/2000/svg" viewBox="0 0 1105.74 396.8"><defs><style>.cls-1{fill:#ff8300;}.cls-2{fill:#53575a;}.cls-3,.cls-4,.cls-5,.cls-6,.cls-7,.cls-8,.cls-9{fill:none;}.cls-3,.cls-4,.cls-5,.cls-6,.cls-7,.cls-8{stroke:#ff8300;}.cls-3{stroke-width:1.11px;}.cls-4{stroke-width:2.26px;}.cls-5{stroke-width:1.94px;}.cls-6{stroke-width:0.92px;}.cls-7{stroke-width:1.88px;}.cls-8{stroke-width:1.62px;}</style></defs><g id="Layer_2" data-name="Layer 2"><g id="Layer_1-2" data-name="Layer 1"><path class="cls-1" d="M914,95.39a7.57,7.57,0,0,1-.26,2,4.46,4.46,0,0,1-.83,1.64,4,4,0,0,1-1.48,1.14,6.16,6.16,0,0,1-4.47,0A4,4,0,0,1,905.46,99a4.46,4.46,0,0,1-.83-1.64,7.57,7.57,0,0,1-.26-2V87.5h1.51v7.67a7.24,7.24,0,0,0,.16,1.49,3.78,3.78,0,0,0,.54,1.28,2.81,2.81,0,0,0,1,.89,3.86,3.86,0,0,0,3.17,0,2.73,2.73,0,0,0,1-.89,3.78,3.78,0,0,0,.54-1.28,6.61,6.61,0,0,0,.16-1.49V87.5H914Z"/><path class="cls-1" d="M917,93.82q0-.57,0-1.08c0-.34,0-.64,0-.92h1.33c0,.23,0,.46,0,.69s0,.46,0,.7h0a2.41,2.41,0,0,1,.4-.6,2.86,2.86,0,0,1,.62-.51,3.32,3.32,0,0,1,.81-.36,3.39,3.39,0,0,1,1-.13,3.66,3.66,0,0,1,1.43.25,2.61,2.61,0,0,1,1,.7,2.8,2.8,0,0,1,.59,1.09,5.13,5.13,0,0,1,.19,1.39v5.21H923V95.19a2.72,2.72,0,0,0-.46-1.68A1.75,1.75,0,0,0,921,92.9a2.67,2.67,0,0,0-1.18.24,2,2,0,0,0-.81.66,3,3,0,0,0-.47,1,5.3,5.3,0,0,0-.15,1.31v4.11H917Z"/><path class="cls-1" d="M927,88.53a1,1,0,0,1,.29-.72,1,1,0,0,1,1.46,0,1,1,0,0,1,.3.72,1,1,0,0,1-.29.74,1,1,0,0,1-.74.28,1,1,0,0,1-1-1Zm.32,3.29h1.4v8.43h-1.4Z"/><path class="cls-1" d="M940.1,104.35h-1.4V99h0a4,4,0,0,1-1.34,1.06,3.64,3.64,0,0,1-1.68.38,4.78,4.78,0,0,1-1.81-.33,4,4,0,0,1-1.4-.93,4.32,4.32,0,0,1-.9-1.4,4.84,4.84,0,0,1-.32-1.77,4.76,4.76,0,0,1,.32-1.74,4.45,4.45,0,0,1,.89-1.41,4.35,4.35,0,0,1,1.34-.93,4,4,0,0,1,1.66-.34,3.89,3.89,0,0,1,2,.49,3.19,3.19,0,0,1,1.25,1.22h0v-1.5h1.4ZM938.7,96a3.53,3.53,0,0,0-.21-1.23,2.92,2.92,0,0,0-.6-1,3.15,3.15,0,0,0-3.42-.67,3,3,0,0,0-.94.67,2.77,2.77,0,0,0-.6,1,3.74,3.74,0,0,0,0,2.47,3,3,0,0,0,.6,1,2.85,2.85,0,0,0,.94.66,3.18,3.18,0,0,0,2.47,0,2.9,2.9,0,0,0,.95-.66,3.13,3.13,0,0,0,.6-1A3.55,3.55,0,0,0,938.7,96Z"/><path class="cls-1" d="M950.21,98.25c0,.38,0,.74,0,1.08s0,.64,0,.92H949c0-.23,0-.46,0-.69s0-.46,0-.7h0a2.37,2.37,0,0,1-.4.59,2.85,2.85,0,0,1-.62.52,3.32,3.32,0,0,1-.81.36,3.39,3.39,0,0,1-1,.13,3.71,3.71,0,0,1-1.44-.25,2.65,2.65,0,0,1-1-.7,2.8,2.8,0,0,1-.59-1.09,4.79,4.79,0,0,1-.19-1.4v-5.2h1.41v5.06a2.67,2.67,0,0,0,.46,1.67,1.72,1.72,0,0,0,1.46.62,2.67,2.67,0,0,0,1.18-.24,2.09,2.09,0,0,0,.81-.66,3,3,0,0,0,.47-1,5.36,5.36,0,0,0,.15-1.31V91.82h1.4Z"/><path class="cls-1" d="M960.57,98.72a4.42,4.42,0,0,1-1.66,1.36,5.41,5.41,0,0,1-2.09.38,4.25,4.25,0,0,1-1.78-.35,4,4,0,0,1-1.34-.94,4.19,4.19,0,0,1-.85-1.41,4.91,4.91,0,0,1-.3-1.73,4.79,4.79,0,0,1,.33-1.79,4,4,0,0,1,.9-1.4,4.06,4.06,0,0,1,1.37-.91,4.41,4.41,0,0,1,1.73-.32,4.32,4.32,0,0,1,1.62.29,3.48,3.48,0,0,1,1.26.87,3.73,3.73,0,0,1,.82,1.38,5.69,5.69,0,0,1,.29,1.87v.45h-6.8a2.85,2.85,0,0,0,.26,1,3.08,3.08,0,0,0,.58.87,2.67,2.67,0,0,0,.85.58,2.64,2.64,0,0,0,1.06.22,3.32,3.32,0,0,0,1.55-.33,3.36,3.36,0,0,0,1.13-1Zm-1.21-3.44a2.46,2.46,0,0,0-.7-1.73,2.55,2.55,0,0,0-1.84-.65,2.73,2.73,0,0,0-1.89.65,2.69,2.69,0,0,0-.86,1.73Z"/><path class="cls-1" d="M968.31,86.64h1.4v6.41h0A4.17,4.17,0,0,1,971.09,92a3.76,3.76,0,0,1,1.68-.37,4.82,4.82,0,0,1,1.81.33,3.86,3.86,0,0,1,1.39.93,4,4,0,0,1,.9,1.4,4.89,4.89,0,0,1,0,3.53,4.14,4.14,0,0,1-.89,1.4,3.94,3.94,0,0,1-1.34.93,4.16,4.16,0,0,1-1.65.33,3.89,3.89,0,0,1-2-.49,3.19,3.19,0,0,1-1.25-1.22h0v1.5h-1.4Zm1.4,9.39a3.55,3.55,0,0,0,.21,1.24,3,3,0,0,0,.6,1,2.85,2.85,0,0,0,.94.66,3.18,3.18,0,0,0,2.47,0,2.9,2.9,0,0,0,1-.66,3.13,3.13,0,0,0,.6-1,3.74,3.74,0,0,0,0-2.47,2.92,2.92,0,0,0-.6-1,3.15,3.15,0,0,0-3.42-.67,3,3,0,0,0-.94.67,2.77,2.77,0,0,0-.6,1A3.53,3.53,0,0,0,969.71,96Z"/><path class="cls-1" d="M979.05,96a4.73,4.73,0,0,1,.34-1.8,4.22,4.22,0,0,1,.94-1.39,4.17,4.17,0,0,1,1.42-.91,5.22,5.22,0,0,1,3.6,0,4.17,4.17,0,0,1,1.42.91,4.22,4.22,0,0,1,.94,1.39,4.93,4.93,0,0,1,0,3.6,4.26,4.26,0,0,1-.94,1.4,4.17,4.17,0,0,1-1.42.91,5.22,5.22,0,0,1-3.6,0,4.17,4.17,0,0,1-1.42-.91,4.26,4.26,0,0,1-.94-1.4A4.73,4.73,0,0,1,979.05,96Zm1.51,0a3.55,3.55,0,0,0,.21,1.24,3.13,3.13,0,0,0,.6,1,2.9,2.9,0,0,0,1,.66,3.15,3.15,0,0,0,2.46,0,2.9,2.9,0,0,0,1-.66,3.13,3.13,0,0,0,.6-1,3.74,3.74,0,0,0,0-2.47,2.92,2.92,0,0,0-.6-1,3.08,3.08,0,0,0-1-.67,3.27,3.27,0,0,0-2.46,0,3.08,3.08,0,0,0-1,.67,2.92,2.92,0,0,0-.6,1A3.53,3.53,0,0,0,980.56,96Z"/><path class="cls-1" d="M990.41,93.82c0-.38,0-.74,0-1.08s0-.64,0-.92h1.33c0,.23,0,.46,0,.69s0,.46,0,.7h0a2.47,2.47,0,0,1,.41-.6,2.86,2.86,0,0,1,.62-.51,3.28,3.28,0,0,1,1.78-.49,3.66,3.66,0,0,1,1.43.25,2.63,2.63,0,0,1,1.58,1.79,4.77,4.77,0,0,1,.19,1.39v5.21h-1.4V95.19a2.73,2.73,0,0,0-.47-1.68,1.74,1.74,0,0,0-1.46-.61,2.7,2.7,0,0,0-1.18.24,2,2,0,0,0-.81.66,2.94,2.94,0,0,0-.46,1,4.85,4.85,0,0,0-.16,1.31v4.11h-1.4Z"/><path class="cls-1" d="M1007.58,98.75h0a3.19,3.19,0,0,1-1.25,1.22,3.89,3.89,0,0,1-2,.49,4.19,4.19,0,0,1-1.65-.33,3.94,3.94,0,0,1-1.34-.93,4.14,4.14,0,0,1-.89-1.4,4.89,4.89,0,0,1,0-3.53,4,4,0,0,1,.9-1.4,4,4,0,0,1,1.39-.93,4.82,4.82,0,0,1,1.81-.33,3.76,3.76,0,0,1,1.68.37,4.17,4.17,0,0,1,1.34,1.07h0V86.64H1009v13.61h-1.41Zm0-2.72a3.53,3.53,0,0,0-.21-1.23,2.64,2.64,0,0,0-.6-1,3,3,0,0,0-.94-.67,3.3,3.3,0,0,0-2.47,0,2.92,2.92,0,0,0-.94.67,2.79,2.79,0,0,0-.61,1,3.91,3.91,0,0,0,0,2.47,3,3,0,0,0,.61,1,2.75,2.75,0,0,0,.94.66,3.18,3.18,0,0,0,2.47,0,2.85,2.85,0,0,0,.94-.66,2.8,2.8,0,0,0,.6-1A3.55,3.55,0,0,0,1007.58,96Z"/><path class="cls-2" d="M862.86,107.15h1.25v5.7h0a3.73,3.73,0,0,1,1.19-.95,3.43,3.43,0,0,1,1.5-.33,4.19,4.19,0,0,1,1.61.29,3.56,3.56,0,0,1,1.24.83,3.73,3.73,0,0,1,.8,1.24,4.39,4.39,0,0,1,0,3.14,3.92,3.92,0,0,1-.79,1.25,3.71,3.71,0,0,1-1.2.82,3.65,3.65,0,0,1-1.47.3,3.52,3.52,0,0,1-1.77-.44,3,3,0,0,1-1.11-1.08h0v1.33h-1.25Zm1.25,8.35a3.25,3.25,0,0,0,.18,1.1,2.65,2.65,0,0,0,.54.88,2.41,2.41,0,0,0,.84.59,2.84,2.84,0,0,0,2.19,0,2.41,2.41,0,0,0,.84-.59,2.65,2.65,0,0,0,.54-.88,3.25,3.25,0,0,0,.18-1.1,3.2,3.2,0,0,0-.18-1.09,2.6,2.6,0,0,0-1.38-1.48,3,3,0,0,0-2.19,0,2.6,2.6,0,0,0-1.38,1.48A3.2,3.2,0,0,0,864.11,115.5Z"/><path class="cls-2" d="M879.53,117.89a3.87,3.87,0,0,1-1.47,1.2,4.62,4.62,0,0,1-1.85.35,4,4,0,0,1-1.59-.31,3.56,3.56,0,0,1-1.19-.84,3.6,3.6,0,0,1-.75-1.25,4.52,4.52,0,0,1,0-3.13,3.67,3.67,0,0,1,.8-1.25,3.83,3.83,0,0,1,1.22-.81,4,4,0,0,1,1.53-.28,3.69,3.69,0,0,1,1.44.26,3.07,3.07,0,0,1,1.13.77,3.27,3.27,0,0,1,.73,1.23,5,5,0,0,1,.25,1.66v.4h-6a2.71,2.71,0,0,0,.23.92,2.56,2.56,0,0,0,.52.76,2.2,2.2,0,0,0,.75.52,2.28,2.28,0,0,0,1,.2,3,3,0,0,0,1.37-.29,3.21,3.21,0,0,0,1-.85Zm-1.07-3.06a2.18,2.18,0,0,0-.62-1.54,2.26,2.26,0,0,0-1.63-.57,2.3,2.3,0,0,0-2.45,2.11Z"/><path class="cls-2" d="M886,112.81h-2.21v3.75c0,.24,0,.47,0,.68a1.65,1.65,0,0,0,.13.54.87.87,0,0,0,.34.37,1.24,1.24,0,0,0,.64.14,2.77,2.77,0,0,0,.56-.07A2,2,0,0,0,886,118l0,1.14a3,3,0,0,1-.71.2,4,4,0,0,1-.75.07,2.68,2.68,0,0,1-1.07-.18,1.52,1.52,0,0,1-.62-.49,1.91,1.91,0,0,1-.3-.8,6.63,6.63,0,0,1-.07-1v-4.12h-1.63v-1h1.63v-2.13h1.25v2.13H886Z"/><path class="cls-2" d="M895.72,119.25h-1.23l-2.12-5.76h0l-1.89,5.76h-1.27l-2.44-7.49h1.38l1.71,5.76h0l1.94-5.76h1.31l2,5.76h0l1.7-5.76h1.34Z"/><path class="cls-2" d="M906.4,117.89a3.82,3.82,0,0,1-1.48,1.2,4.62,4.62,0,0,1-1.85.35,4,4,0,0,1-1.59-.31,3.66,3.66,0,0,1-1.19-.84,3.93,3.93,0,0,1-.75-1.25,4.67,4.67,0,0,1,0-3.13,3.83,3.83,0,0,1,.8-1.25,3.94,3.94,0,0,1,1.22-.81,4.06,4.06,0,0,1,1.54-.28,3.76,3.76,0,0,1,1.44.26,3.12,3.12,0,0,1,1.12.77,3.27,3.27,0,0,1,.73,1.23,5,5,0,0,1,.26,1.66v.4h-6a2.71,2.71,0,0,0,.23.92,2.76,2.76,0,0,0,.52.76,2.41,2.41,0,0,0,.75.52,2.31,2.31,0,0,0,1,.2,3,3,0,0,0,1.37-.29,3.1,3.1,0,0,0,1-.85Zm-1.08-3.06a2.18,2.18,0,0,0-.62-1.54,2.25,2.25,0,0,0-1.63-.57,2.43,2.43,0,0,0-1.68.57,2.45,2.45,0,0,0-.77,1.54Z"/><path class="cls-2" d="M915.44,117.89a3.82,3.82,0,0,1-1.48,1.2,4.62,4.62,0,0,1-1.85.35,4,4,0,0,1-1.59-.31,3.66,3.66,0,0,1-1.19-.84,3.93,3.93,0,0,1-.75-1.25,4.67,4.67,0,0,1,0-3.13,3.83,3.83,0,0,1,.8-1.25,3.94,3.94,0,0,1,1.22-.81,4.06,4.06,0,0,1,1.54-.28,3.76,3.76,0,0,1,1.44.26,3.12,3.12,0,0,1,1.12.77,3.27,3.27,0,0,1,.73,1.23,5,5,0,0,1,.26,1.66v.4h-6.05a2.71,2.71,0,0,0,.23.92,2.76,2.76,0,0,0,.52.76,2.41,2.41,0,0,0,.75.52,2.31,2.31,0,0,0,1,.2,3,3,0,0,0,1.37-.29,3.1,3.1,0,0,0,1-.85Zm-1.08-3.06a2.18,2.18,0,0,0-.62-1.54,2.25,2.25,0,0,0-1.63-.57,2.43,2.43,0,0,0-1.68.57,2.45,2.45,0,0,0-.77,1.54Z"/><path class="cls-2" d="M917.8,113.53q0-.51,0-1c0-.29,0-.57,0-.81h1.18c0,.2,0,.4,0,.61s0,.41,0,.62h0a1.92,1.92,0,0,1,.36-.53,2.45,2.45,0,0,1,.55-.45,2.63,2.63,0,0,1,.72-.32,3,3,0,0,1,.87-.12,3.28,3.28,0,0,1,1.27.22,2.59,2.59,0,0,1,.89.62,2.74,2.74,0,0,1,.52,1,4.43,4.43,0,0,1,.16,1.24v4.63h-1.25v-4.5a2.38,2.38,0,0,0-.41-1.49,1.54,1.54,0,0,0-1.3-.54,2.38,2.38,0,0,0-1,.21,1.67,1.67,0,0,0-.72.59,2.54,2.54,0,0,0-.42.91,4.69,4.69,0,0,0-.14,1.17v3.65H917.8Z"/><path class="cls-2" d="M935.53,112.81h-2.2v3.75c0,.24,0,.47,0,.68a1.26,1.26,0,0,0,.13.54.85.85,0,0,0,.33.37,1.28,1.28,0,0,0,.65.14,2.67,2.67,0,0,0,.55-.07,2,2,0,0,0,.55-.19l.05,1.14a3,3,0,0,1-.72.2,3.85,3.85,0,0,1-.74.07,2.61,2.61,0,0,1-1.07-.18,1.4,1.4,0,0,1-.62-.49,1.91,1.91,0,0,1-.3-.8,6.63,6.63,0,0,1-.07-1v-4.12h-1.63v-1h1.63v-2.13h1.25v2.13h2.2Z"/><path class="cls-2" d="M937.24,107.15h1.25v5.65h0a2,2,0,0,1,.36-.44,2.14,2.14,0,0,1,.53-.39,2.94,2.94,0,0,1,.7-.29,2.69,2.69,0,0,1,.81-.11,3.3,3.3,0,0,1,1.28.22,2.36,2.36,0,0,1,1.4,1.59,4.09,4.09,0,0,1,.17,1.24v4.63h-1.25v-4.5a2.38,2.38,0,0,0-.41-1.49,1.54,1.54,0,0,0-1.3-.54,2.46,2.46,0,0,0-1,.21,1.79,1.79,0,0,0-.72.59,2.72,2.72,0,0,0-.41.91,4.69,4.69,0,0,0-.14,1.17v3.65h-1.25Z"/><path class="cls-2" d="M953,117.89a3.87,3.87,0,0,1-1.47,1.2,4.71,4.71,0,0,1-1.86.35,4,4,0,0,1-1.58-.31,3.7,3.7,0,0,1-1.2-.84,3.93,3.93,0,0,1-.75-1.25,4.57,4.57,0,0,1-.26-1.54,4.16,4.16,0,0,1,.29-1.59,3.53,3.53,0,0,1,.8-1.25,3.78,3.78,0,0,1,1.21-.81,4.06,4.06,0,0,1,1.54-.28,3.76,3.76,0,0,1,1.44.26,3.16,3.16,0,0,1,1.13.77,3.39,3.39,0,0,1,.72,1.23,5,5,0,0,1,.26,1.66v.4h-6a2.71,2.71,0,0,0,.23.92,2.76,2.76,0,0,0,.52.76,2.34,2.34,0,0,0,.76.52,2.23,2.23,0,0,0,.94.2,2.77,2.77,0,0,0,2.38-1.14Zm-1.07-3.06a2.19,2.19,0,0,0-.63-1.54,2.25,2.25,0,0,0-1.63-.57,2.3,2.3,0,0,0-2.45,2.11Z"/><path class="cls-2" d="M967.41,118.91a4.24,4.24,0,0,1-1,3.11,4.07,4.07,0,0,1-3,1.07,6,6,0,0,1-2-.32,4.81,4.81,0,0,1-1.68-1.11l.89-1a4.49,4.49,0,0,0,1.26,1,3.94,3.94,0,0,0,2.91.08,2.14,2.14,0,0,0,.87-.68,2.65,2.65,0,0,0,.45-1,5.38,5.38,0,0,0,.13-1.14v-1h0A2.77,2.77,0,0,1,965,119a3.49,3.49,0,0,1-1.47.33,4.25,4.25,0,0,1-1.62-.29,3.57,3.57,0,0,1-1.26-.8,3.37,3.37,0,0,1-.82-1.21,4.06,4.06,0,0,1-.29-1.54,4.53,4.53,0,0,1,.29-1.65,3.42,3.42,0,0,1,.81-1.24,3.52,3.52,0,0,1,1.25-.77,4.74,4.74,0,0,1,1.64-.27,3.92,3.92,0,0,1,.76.08,3,3,0,0,1,.75.28,2.65,2.65,0,0,1,.65.46,2.61,2.61,0,0,1,.48.65h0v-1.28h1.25Zm-6.57-3.41a2.67,2.67,0,0,0,1.62,2.48,2.53,2.53,0,0,0,1,.21,2.71,2.71,0,0,0,1.13-.22A2.5,2.5,0,0,0,966,116.5a2.94,2.94,0,0,0,.18-1,3,3,0,0,0-.2-1.11,2.43,2.43,0,0,0-1.39-1.44,2.73,2.73,0,0,0-1.08-.2,2.67,2.67,0,0,0-1.08.21,2.57,2.57,0,0,0-.84.6,2.69,2.69,0,0,0-.53.88A3,3,0,0,0,960.84,115.5Z"/><path class="cls-2" d="M976.56,117.89a3.82,3.82,0,0,1-1.48,1.2,4.62,4.62,0,0,1-1.85.35,4,4,0,0,1-1.59-.31,3.66,3.66,0,0,1-1.19-.84,3.93,3.93,0,0,1-.75-1.25,4.67,4.67,0,0,1,0-3.13,3.83,3.83,0,0,1,.8-1.25,3.94,3.94,0,0,1,1.22-.81,4.06,4.06,0,0,1,1.54-.28,3.76,3.76,0,0,1,1.44.26,3.12,3.12,0,0,1,1.12.77,3.27,3.27,0,0,1,.73,1.23,5,5,0,0,1,.26,1.66v.4h-6.05a2.71,2.71,0,0,0,.23.92,2.76,2.76,0,0,0,.52.76,2.41,2.41,0,0,0,.75.52,2.31,2.31,0,0,0,1,.2,3,3,0,0,0,1.37-.29,3.1,3.1,0,0,0,1-.85Zm-1.08-3.06a2.18,2.18,0,0,0-.62-1.54,2.25,2.25,0,0,0-1.63-.57,2.43,2.43,0,0,0-1.68.57,2.45,2.45,0,0,0-.77,1.54Z"/><path class="cls-2" d="M979,107.15h1.24v12.1H979Z"/><path class="cls-2" d="M987.42,112.72a3.35,3.35,0,0,1,1.37-.87,4.71,4.71,0,0,1,1.61-.28,3.19,3.19,0,0,1,2.4.78,3.37,3.37,0,0,1,.73,2.38V118q0,.31,0,.66c0,.23.05.44.08.64h-1.2a3.17,3.17,0,0,1-.07-.57c0-.21,0-.39,0-.55h0a3,3,0,0,1-1,.94,2.8,2.8,0,0,1-1.48.37,3.71,3.71,0,0,1-1.08-.15,2.48,2.48,0,0,1-.88-.42,2.13,2.13,0,0,1-.6-.7,2,2,0,0,1-.23-1,2.08,2.08,0,0,1,.48-1.45,2.93,2.93,0,0,1,1.2-.79,6.11,6.11,0,0,1,1.53-.32c.55,0,1.06-.06,1.51-.06h.48v-.22a1.55,1.55,0,0,0-.48-1.24,2.11,2.11,0,0,0-1.37-.41,3.46,3.46,0,0,0-1.19.2,3,3,0,0,0-1,.61Zm3.62,2.93a4.58,4.58,0,0,0-1.91.33,1.14,1.14,0,0,0-.7,1.11,1.08,1.08,0,0,0,.47,1,2.24,2.24,0,0,0,1.18.29,2.33,2.33,0,0,0,.95-.18,2,2,0,0,0,1.09-1.2,2.74,2.74,0,0,0,.16-.87v-.48Z"/><path class="cls-2" d="M996,113.53q0-.51,0-1c0-.29,0-.57,0-.81h1.18c0,.2,0,.4,0,.61s0,.41,0,.62h0a2.48,2.48,0,0,1,.36-.53,2.51,2.51,0,0,1,.56-.45,2.63,2.63,0,0,1,.72-.32,2.93,2.93,0,0,1,.86-.12,3.28,3.28,0,0,1,1.27.22,2.5,2.5,0,0,1,.89.62,2.59,2.59,0,0,1,.52,1,4.42,4.42,0,0,1,.17,1.24v4.63h-1.25v-4.5a2.38,2.38,0,0,0-.42-1.49,1.52,1.52,0,0,0-1.29-.54,2.4,2.4,0,0,0-1,.21,1.79,1.79,0,0,0-.72.59,2.54,2.54,0,0,0-.42.91,4.71,4.71,0,0,0-.13,1.17v3.65H996Z"/><path class="cls-2" d="M1011.26,117.92h0a3,3,0,0,1-1.11,1.08,3.52,3.52,0,0,1-1.77.44,3.61,3.61,0,0,1-1.47-.3,3.71,3.71,0,0,1-1.2-.82,3.92,3.92,0,0,1-.79-1.25,4.39,4.39,0,0,1,0-3.14,3.73,3.73,0,0,1,.8-1.24,3.56,3.56,0,0,1,1.24-.83,4.19,4.19,0,0,1,1.61-.29,3.43,3.43,0,0,1,1.5.33,3.73,3.73,0,0,1,1.19.95h0v-5.7h1.25v12.1h-1.25Zm0-2.42a3.2,3.2,0,0,0-.18-1.09,2.6,2.6,0,0,0-1.38-1.48,3,3,0,0,0-2.19,0,2.57,2.57,0,0,0-.84.6,2.41,2.41,0,0,0-.54.88,3.2,3.2,0,0,0-.18,1.09,3.25,3.25,0,0,0,.18,1.1,2.49,2.49,0,0,0,.54.88,2.41,2.41,0,0,0,.84.59,2.84,2.84,0,0,0,2.19,0,2.41,2.41,0,0,0,.84-.59,2.65,2.65,0,0,0,.54-.88A3.25,3.25,0,0,0,1011.26,115.5Z"/><path class="cls-2" d="M1019.72,117.28a3.23,3.23,0,0,0,.81.73,2,2,0,0,0,1.11.28,3,3,0,0,0,.59-.07,1.63,1.63,0,0,0,.53-.21,1.12,1.12,0,0,0,.39-.36.94.94,0,0,0,.14-.52.83.83,0,0,0-.13-.49,1.15,1.15,0,0,0-.36-.33,2.26,2.26,0,0,0-.52-.22l-.59-.14a9.93,9.93,0,0,1-1-.26,3.23,3.23,0,0,1-.84-.37,1.71,1.71,0,0,1-.79-1.55,1.9,1.9,0,0,1,.24-1,2.19,2.19,0,0,1,.64-.68,3.09,3.09,0,0,1,.9-.42,3.49,3.49,0,0,1,1-.14,3.34,3.34,0,0,1,1.48.32,2.29,2.29,0,0,1,1.07,1l-1,.68a1.87,1.87,0,0,0-.64-.64,1.68,1.68,0,0,0-1-.25,2.37,2.37,0,0,0-.52.06,1.78,1.78,0,0,0-.47.19,1.19,1.19,0,0,0-.34.33.76.76,0,0,0-.14.46.61.61,0,0,0,.15.41,1.24,1.24,0,0,0,.42.29,3.55,3.55,0,0,0,.61.23l.71.16a6.8,6.8,0,0,1,.94.24,3.1,3.1,0,0,1,.79.41,1.79,1.79,0,0,1,.52.64,2.09,2.09,0,0,1,.2,1,2.13,2.13,0,0,1-.26,1.08,2.07,2.07,0,0,1-.68.73,3,3,0,0,1-1,.41,4.48,4.48,0,0,1-1.1.13,4.12,4.12,0,0,1-1.65-.3,3,3,0,0,1-1.26-1.09Z"/><path class="cls-2" d="M1026.54,107.15h1.25v5.65h0a2,2,0,0,1,.35-.44,2.2,2.2,0,0,1,.54-.39,3,3,0,0,1,.69-.29,2.75,2.75,0,0,1,.82-.11,3.28,3.28,0,0,1,1.27.22,2.41,2.41,0,0,1,.89.62,2.45,2.45,0,0,1,.52,1,4.42,4.42,0,0,1,.17,1.24v4.63h-1.25v-4.5a2.38,2.38,0,0,0-.42-1.49,1.51,1.51,0,0,0-1.29-.54,2.4,2.4,0,0,0-1,.21,1.79,1.79,0,0,0-.72.59,2.54,2.54,0,0,0-.42.91,4.71,4.71,0,0,0-.13,1.17v3.65h-1.25Z"/><path class="cls-2" d="M1042.28,117.89a3.73,3.73,0,0,1-1.47,1.2,4.62,4.62,0,0,1-1.85.35,4,4,0,0,1-1.59-.31,3.56,3.56,0,0,1-1.19-.84,3.6,3.6,0,0,1-.75-1.25,4.52,4.52,0,0,1,0-3.13,3.67,3.67,0,0,1,.8-1.25,3.83,3.83,0,0,1,1.22-.81,4,4,0,0,1,1.53-.28,3.69,3.69,0,0,1,1.44.26,3.07,3.07,0,0,1,1.13.77,3.27,3.27,0,0,1,.73,1.23,5,5,0,0,1,.26,1.66v.4h-6a2.71,2.71,0,0,0,.23.92,2.56,2.56,0,0,0,.52.76,2.2,2.2,0,0,0,.75.52,2.28,2.28,0,0,0,1,.2,3,3,0,0,0,1.37-.29,3.1,3.1,0,0,0,1-.85Zm-1.07-3.06a2.18,2.18,0,0,0-.62-1.54,2.26,2.26,0,0,0-1.63-.57,2.3,2.3,0,0,0-2.45,2.11Z"/><path class="cls-2" d="M1044.76,107.15H1046v12.1h-1.25Z"/><path class="cls-2" d="M1048.78,107.15H1050v12.1h-1.25Z"/><path class="cls-2" d="M852,131.63a2.66,2.66,0,0,0-.87-.7,2.45,2.45,0,0,0-1-.21,2.75,2.75,0,0,0-1.11.21,2.27,2.27,0,0,0-.79.6,2.81,2.81,0,0,0-.47.89,3.49,3.49,0,0,0-.16,1.08,3.14,3.14,0,0,0,.18,1.08,3,3,0,0,0,.52.89,2.13,2.13,0,0,0,.79.6,2.48,2.48,0,0,0,1,.22,2.21,2.21,0,0,0,1.9-.93l.93.88a3.28,3.28,0,0,1-1.28.91,4.39,4.39,0,0,1-3.14,0,3.33,3.33,0,0,1-1.22-.82,3.53,3.53,0,0,1-.78-1.24,4.6,4.6,0,0,1,0-3.16,3.65,3.65,0,0,1,2-2.07,4,4,0,0,1,1.58-.29,4.33,4.33,0,0,1,1.57.28,3.54,3.54,0,0,1,1.31.9Z"/><path class="cls-2" d="M854.49,131.53q0-.51,0-1c0-.29,0-.57,0-.81h1.18c0,.2,0,.4,0,.61s0,.41,0,.62h0a1.92,1.92,0,0,1,.36-.53,2.45,2.45,0,0,1,.55-.45,2.63,2.63,0,0,1,.72-.32,3,3,0,0,1,.86-.12h.26a.92.92,0,0,1,.26.07l-.08,1.26a2.54,2.54,0,0,0-.68-.1,1.9,1.9,0,0,0-1.67.75,3.54,3.54,0,0,0-.52,2v3.65h-1.25Z"/><path class="cls-2" d="M866.7,135.89a3.87,3.87,0,0,1-1.47,1.2,4.64,4.64,0,0,1-1.86.35,4,4,0,0,1-1.58-.31,3.56,3.56,0,0,1-1.19-.84,3.6,3.6,0,0,1-.75-1.25,4.52,4.52,0,0,1,0-3.13,3.67,3.67,0,0,1,.8-1.25,3.83,3.83,0,0,1,1.22-.81,4,4,0,0,1,1.53-.28,3.76,3.76,0,0,1,1.44.26,3.07,3.07,0,0,1,1.13.77,3.41,3.41,0,0,1,.73,1.23,5,5,0,0,1,.25,1.66v.4h-6a2.49,2.49,0,0,0,.23.92,2.39,2.39,0,0,0,.52.76,2.2,2.2,0,0,0,.75.52,2.26,2.26,0,0,0,.94.2,3,3,0,0,0,1.38-.29,3.21,3.21,0,0,0,1-.85Zm-1.07-3.06a2.18,2.18,0,0,0-.62-1.54,2.27,2.27,0,0,0-1.64-.57,2.28,2.28,0,0,0-2.44,2.11Z"/><path class="cls-2" d="M869,130.72a3.42,3.42,0,0,1,1.37-.87,4.75,4.75,0,0,1,1.61-.28,3.18,3.18,0,0,1,2.4.78,3.38,3.38,0,0,1,.74,2.38V136q0,.31,0,.66c0,.23,0,.44.08.64H874a2.47,2.47,0,0,1-.07-.57c0-.21,0-.39,0-.55h0a3.08,3.08,0,0,1-1,.94,2.78,2.78,0,0,1-1.48.37,3.81,3.81,0,0,1-1.08-.15,2.56,2.56,0,0,1-.88-.42,2.13,2.13,0,0,1-.6-.7,2,2,0,0,1-.22-1,2.08,2.08,0,0,1,.48-1.45,2.9,2.9,0,0,1,1.19-.79,6.19,6.19,0,0,1,1.54-.32c.54,0,1-.06,1.51-.06h.48v-.22a1.56,1.56,0,0,0-.49-1.24,2.09,2.09,0,0,0-1.37-.41,3.5,3.5,0,0,0-1.19.2,2.9,2.9,0,0,0-1,.61Zm3.62,2.93a4.53,4.53,0,0,0-1.9.33,1.15,1.15,0,0,0-.71,1.11,1.1,1.1,0,0,0,.47,1,2.27,2.27,0,0,0,1.18.29,2.33,2.33,0,0,0,1-.18,2,2,0,0,0,.68-.49,2.19,2.19,0,0,0,.42-.71,3.05,3.05,0,0,0,.16-.87v-.48Z"/><path class="cls-2" d="M881.61,130.81h-2.2v3.75c0,.24,0,.47,0,.68a1.43,1.43,0,0,0,.13.54.81.81,0,0,0,.34.37,1.24,1.24,0,0,0,.64.14,2.86,2.86,0,0,0,.56-.07,2,2,0,0,0,.54-.19l0,1.14a3.08,3.08,0,0,1-.71.2,4,4,0,0,1-.75.07,2.65,2.65,0,0,1-1.07-.18,1.4,1.4,0,0,1-.62-.49,1.91,1.91,0,0,1-.3-.8,6.63,6.63,0,0,1-.07-1v-4.12h-1.63v-1.05h1.63v-2.13h1.25v2.13h2.2Z"/><path class="cls-2" d="M890,135.89a3.87,3.87,0,0,1-1.47,1.2,4.71,4.71,0,0,1-1.86.35,4,4,0,0,1-1.58-.31,3.7,3.7,0,0,1-1.2-.84,3.93,3.93,0,0,1-.75-1.25,4.57,4.57,0,0,1-.26-1.54,4.16,4.16,0,0,1,.29-1.59,3.53,3.53,0,0,1,.8-1.25,3.78,3.78,0,0,1,1.21-.81,4.06,4.06,0,0,1,1.54-.28,3.76,3.76,0,0,1,1.44.26,3.16,3.16,0,0,1,1.13.77,3.39,3.39,0,0,1,.72,1.23,5,5,0,0,1,.26,1.66v.4h-6a2.71,2.71,0,0,0,.23.92,2.76,2.76,0,0,0,.52.76,2.34,2.34,0,0,0,.76.52,2.23,2.23,0,0,0,.94.2,3.06,3.06,0,0,0,1.38-.29,3.18,3.18,0,0,0,1-.85Zm-1.07-3.06a2.19,2.19,0,0,0-.63-1.54,2.25,2.25,0,0,0-1.63-.57,2.3,2.3,0,0,0-2.45,2.11Z"/><path class="cls-2" d="M892.51,135.28a2.92,2.92,0,0,0,.81.73,2,2,0,0,0,1.11.28,2.87,2.87,0,0,0,.58-.07,1.6,1.6,0,0,0,.54-.21,1,1,0,0,0,.38-.36.86.86,0,0,0,.15-.52.84.84,0,0,0-.14-.49,1.15,1.15,0,0,0-.36-.33,2.38,2.38,0,0,0-.51-.22l-.59-.14a9.93,9.93,0,0,1-1-.26,3.23,3.23,0,0,1-.84-.37,2,2,0,0,1-.58-.6,2.14,2.14,0,0,1,0-1.91,2.08,2.08,0,0,1,.64-.68,2.92,2.92,0,0,1,.89-.42,3.56,3.56,0,0,1,1-.14,3.37,3.37,0,0,1,1.48.32,2.27,2.27,0,0,1,1.06,1l-1,.68a1.93,1.93,0,0,0-.63-.64,1.7,1.7,0,0,0-1-.25,2.31,2.31,0,0,0-.52.06,1.54,1.54,0,0,0-.47.19,1.23,1.23,0,0,0-.35.33.82.82,0,0,0-.13.46.61.61,0,0,0,.15.41,1.3,1.3,0,0,0,.41.29,3.9,3.9,0,0,0,.61.23l.71.16a6.94,6.94,0,0,1,.95.24,2.88,2.88,0,0,1,.78.41,1.82,1.82,0,0,1,.53.64,2.09,2.09,0,0,1,.19,1,2.13,2.13,0,0,1-.25,1.08,2.07,2.07,0,0,1-.68.73,3.17,3.17,0,0,1-1,.41,4.53,4.53,0,0,1-1.1.13,4.21,4.21,0,0,1-1.66-.3,3,3,0,0,1-1.25-1.09Z"/><path class="cls-2" d="M904.56,130.81h-1.63v-1.05h1.63v-1.68a5.48,5.48,0,0,1,.13-1.26,2.44,2.44,0,0,1,.44-1,2,2,0,0,1,.82-.65,3.12,3.12,0,0,1,1.26-.23,2.46,2.46,0,0,1,.52.05,1.42,1.42,0,0,1,.44.14l-.17,1.12a2.45,2.45,0,0,0-.85-.16,1.44,1.44,0,0,0-.75.17,1,1,0,0,0-.41.46,2.12,2.12,0,0,0-.16.71c0,.28,0,.58,0,.9v1.41h1.82v1.05h-1.82v6.44h-1.25Z"/><path class="cls-2" d="M915.65,135.47q0,.51,0,1c0,.3,0,.57,0,.82h-1.18c0-.21,0-.41,0-.61s0-.41,0-.63h0a1.78,1.78,0,0,1-.36.53,2.8,2.8,0,0,1-.55.46,3,3,0,0,1-.72.32,3,3,0,0,1-.86.12,3.29,3.29,0,0,1-1.28-.23,2.34,2.34,0,0,1-.88-.62,2.45,2.45,0,0,1-.52-1,4.09,4.09,0,0,1-.17-1.24v-4.62h1.25v4.49a2.38,2.38,0,0,0,.41,1.49,1.55,1.55,0,0,0,1.3.55,2.46,2.46,0,0,0,1-.21,2,2,0,0,0,.72-.59,2.77,2.77,0,0,0,.41-.92,4.67,4.67,0,0,0,.14-1.16v-3.65h1.25Z"/><path class="cls-2" d="M918.29,125.15h1.24v12.1h-1.24Z"/><path class="cls-2" d="M922.3,125.15h1.25v12.1H922.3Z"/><path class="cls-2" d="M926.19,131.53q0-.51,0-1c0-.29,0-.57,0-.81h1.18c0,.2,0,.4,0,.61s0,.41,0,.62h0a2.48,2.48,0,0,1,.36-.53,2.51,2.51,0,0,1,.56-.45,2.7,2.7,0,0,1,.71-.32,3,3,0,0,1,.87-.12,3.28,3.28,0,0,1,1.27.22,2.5,2.5,0,0,1,.89.62,2.59,2.59,0,0,1,.52,1,4.42,4.42,0,0,1,.17,1.24v4.63h-1.25v-4.5a2.38,2.38,0,0,0-.42-1.49,1.52,1.52,0,0,0-1.29-.54,2.4,2.4,0,0,0-1,.21,1.79,1.79,0,0,0-.72.59,2.54,2.54,0,0,0-.42.91,4.71,4.71,0,0,0-.13,1.17v3.65h-1.25Z"/><path class="cls-2" d="M941.92,135.89a3.87,3.87,0,0,1-1.47,1.2,4.71,4.71,0,0,1-1.86.35,4,4,0,0,1-1.59-.31,3.77,3.77,0,0,1-1.19-.84,3.93,3.93,0,0,1-.75-1.25,4.67,4.67,0,0,1,0-3.13,3.83,3.83,0,0,1,.8-1.25,3.94,3.94,0,0,1,1.22-.81,4.06,4.06,0,0,1,1.54-.28,3.76,3.76,0,0,1,1.44.26,3.25,3.25,0,0,1,1.13.77,3.39,3.39,0,0,1,.72,1.23,5,5,0,0,1,.26,1.66v.4h-6.05a2.71,2.71,0,0,0,.23.92,2.76,2.76,0,0,0,.52.76,2.41,2.41,0,0,0,.75.52,2.31,2.31,0,0,0,1,.2A3,3,0,0,0,940,136a3.1,3.1,0,0,0,1-.85Zm-1.08-3.06a2.14,2.14,0,0,0-.62-1.54,2.25,2.25,0,0,0-1.63-.57,2.43,2.43,0,0,0-1.68.57,2.45,2.45,0,0,0-.77,1.54Z"/><path class="cls-2" d="M944.44,135.28a3.23,3.23,0,0,0,.81.73,2,2,0,0,0,1.11.28,3,3,0,0,0,.59-.07,1.55,1.55,0,0,0,.53-.21,1.12,1.12,0,0,0,.39-.36.94.94,0,0,0,.14-.52.83.83,0,0,0-.13-.49,1.15,1.15,0,0,0-.36-.33,2.26,2.26,0,0,0-.52-.22l-.59-.14a9.93,9.93,0,0,1-1-.26,3.23,3.23,0,0,1-.84-.37,1.71,1.71,0,0,1-.79-1.55,1.9,1.9,0,0,1,.24-1,2.19,2.19,0,0,1,.64-.68,3.09,3.09,0,0,1,.9-.42,3.49,3.49,0,0,1,1-.14,3.31,3.31,0,0,1,1.48.32,2.29,2.29,0,0,1,1.07,1l-1,.68a1.87,1.87,0,0,0-.64-.64,1.68,1.68,0,0,0-1-.25,2.37,2.37,0,0,0-.52.06,1.78,1.78,0,0,0-.47.19,1.19,1.19,0,0,0-.34.33.83.83,0,0,0-.14.46.61.61,0,0,0,.15.41,1.24,1.24,0,0,0,.42.29,3.55,3.55,0,0,0,.61.23l.71.16a6.8,6.8,0,0,1,.94.24,3.1,3.1,0,0,1,.79.41,1.94,1.94,0,0,1,.53.64,2.23,2.23,0,0,1,.19,1,2.13,2.13,0,0,1-.26,1.08,2.07,2.07,0,0,1-.68.73,3,3,0,0,1-1,.41,4.48,4.48,0,0,1-1.1.13,4.12,4.12,0,0,1-1.65-.3,3,3,0,0,1-1.26-1.09Z"/><path class="cls-2" d="M951.4,135.28a3.23,3.23,0,0,0,.81.73,2,2,0,0,0,1.11.28,3,3,0,0,0,.59-.07,1.55,1.55,0,0,0,.53-.21,1.12,1.12,0,0,0,.39-.36.94.94,0,0,0,.14-.52.83.83,0,0,0-.13-.49,1.15,1.15,0,0,0-.36-.33,2.26,2.26,0,0,0-.52-.22l-.59-.14a9.93,9.93,0,0,1-1-.26,3.23,3.23,0,0,1-.84-.37,1.71,1.71,0,0,1-.79-1.55,1.9,1.9,0,0,1,.24-1,2.19,2.19,0,0,1,.64-.68,3.09,3.09,0,0,1,.9-.42,3.49,3.49,0,0,1,1-.14,3.31,3.31,0,0,1,1.48.32,2.29,2.29,0,0,1,1.07,1l-1,.68a1.87,1.87,0,0,0-.64-.64,1.68,1.68,0,0,0-.95-.25,2.37,2.37,0,0,0-.52.06,1.78,1.78,0,0,0-.47.19,1.19,1.19,0,0,0-.34.33.83.83,0,0,0-.14.46.61.61,0,0,0,.15.41,1.24,1.24,0,0,0,.42.29,3.55,3.55,0,0,0,.61.23l.71.16a6.8,6.8,0,0,1,.94.24,3.1,3.1,0,0,1,.79.41,1.94,1.94,0,0,1,.53.64,2.23,2.23,0,0,1,.19,1,2.13,2.13,0,0,1-.26,1.08,2.07,2.07,0,0,1-.68.73,3,3,0,0,1-1,.41,4.48,4.48,0,0,1-1.1.13,4.12,4.12,0,0,1-1.65-.3,3,3,0,0,1-1.26-1.09Z"/><path class="cls-2" d="M962.64,126.83a.86.86,0,0,1,.26-.64.88.88,0,0,1,.65-.27.93.93,0,0,1,.66,1.57.91.91,0,0,1-.66.25.86.86,0,0,1-.91-.91Zm.28,2.93h1.25v7.49h-1.25Z"/><path class="cls-2" d="M966.81,131.53q0-.51,0-1c0-.29,0-.57,0-.81h1.18c0,.2,0,.4,0,.61s0,.41,0,.62h0a1.92,1.92,0,0,1,.36-.53,2.45,2.45,0,0,1,.55-.45,2.63,2.63,0,0,1,.72-.32,3,3,0,0,1,.86-.12,3.24,3.24,0,0,1,1.27.22,2.41,2.41,0,0,1,.89.62,2.45,2.45,0,0,1,.52,1,4.09,4.09,0,0,1,.17,1.24v4.63h-1.25v-4.5a2.44,2.44,0,0,0-.41-1.49,1.54,1.54,0,0,0-1.3-.54,2.46,2.46,0,0,0-1,.21,1.79,1.79,0,0,0-.72.59,2.72,2.72,0,0,0-.41.91,4.69,4.69,0,0,0-.14,1.17v3.65h-1.25Z"/><path class="cls-2" d="M984.56,130.81h-2.21v3.75c0,.24,0,.47,0,.68a1.65,1.65,0,0,0,.13.54.87.87,0,0,0,.34.37,1.24,1.24,0,0,0,.64.14,2.77,2.77,0,0,0,.56-.07,2,2,0,0,0,.54-.19l0,1.14a3,3,0,0,1-.71.2,4,4,0,0,1-.75.07,2.68,2.68,0,0,1-1.07-.18,1.52,1.52,0,0,1-.62-.49,1.91,1.91,0,0,1-.3-.8,6.63,6.63,0,0,1-.07-1v-4.12h-1.63v-1.05h1.63v-2.13h1.25v2.13h2.21Z"/><path class="cls-2" d="M986.27,125.15h1.25v5.65h0a1.73,1.73,0,0,1,.35-.44,2.2,2.2,0,0,1,.54-.39,2.86,2.86,0,0,1,.69-.29,2.75,2.75,0,0,1,.82-.11,3.28,3.28,0,0,1,1.27.22,2.5,2.5,0,0,1,.89.62,2.59,2.59,0,0,1,.52,1,4.42,4.42,0,0,1,.17,1.24v4.63h-1.25v-4.5a2.38,2.38,0,0,0-.42-1.49,1.52,1.52,0,0,0-1.29-.54,2.4,2.4,0,0,0-1.05.21,1.79,1.79,0,0,0-.72.59,2.54,2.54,0,0,0-.42.91,4.71,4.71,0,0,0-.13,1.17v3.65h-1.25Z"/><path class="cls-2" d="M1002,135.89a3.87,3.87,0,0,1-1.47,1.2,4.64,4.64,0,0,1-1.86.35,4,4,0,0,1-1.58-.31,3.56,3.56,0,0,1-1.19-.84,3.6,3.6,0,0,1-.75-1.25,4.52,4.52,0,0,1,0-3.13,3.67,3.67,0,0,1,.8-1.25,3.83,3.83,0,0,1,1.22-.81,4,4,0,0,1,1.53-.28,3.73,3.73,0,0,1,1.44.26,3.07,3.07,0,0,1,1.13.77,3.27,3.27,0,0,1,.73,1.23,5,5,0,0,1,.25,1.66v.4h-6a2.49,2.49,0,0,0,.23.92,2.56,2.56,0,0,0,.52.76,2.2,2.2,0,0,0,.75.52,2.26,2.26,0,0,0,.94.2,3,3,0,0,0,1.38-.29,3.21,3.21,0,0,0,1-.85Zm-1.07-3.06a2.18,2.18,0,0,0-.62-1.54,2.27,2.27,0,0,0-1.64-.57,2.28,2.28,0,0,0-2.44,2.11Z"/><path class="cls-2" d="M1013.07,130.81h-2.21v3.75c0,.24,0,.47,0,.68a1.43,1.43,0,0,0,.12.54.87.87,0,0,0,.34.37,1.24,1.24,0,0,0,.64.14,2.77,2.77,0,0,0,.56-.07,2,2,0,0,0,.54-.19l0,1.14a3,3,0,0,1-.71.2,3.93,3.93,0,0,1-.74.07,2.7,2.7,0,0,1-1.08-.18,1.52,1.52,0,0,1-.62-.49,1.91,1.91,0,0,1-.3-.8,8.11,8.11,0,0,1-.07-1v-4.12H1008v-1.05h1.63v-2.13h1.25v2.13h2.21Z"/><path class="cls-2" d="M1014.33,133.5a4,4,0,0,1,.31-1.6,3.8,3.8,0,0,1,.83-1.24,3.9,3.9,0,0,1,1.26-.81,4.71,4.71,0,0,1,3.2,0,4.06,4.06,0,0,1,1.27.81,3.8,3.8,0,0,1,.83,1.24,4.42,4.42,0,0,1,0,3.2,3.65,3.65,0,0,1-2.1,2.05,4.56,4.56,0,0,1-3.2,0,3.6,3.6,0,0,1-1.26-.81,3.7,3.7,0,0,1-.83-1.24A3.94,3.94,0,0,1,1014.33,133.5Zm1.35,0a3.25,3.25,0,0,0,.18,1.1,2.49,2.49,0,0,0,.54.88,2.41,2.41,0,0,0,.84.59,2.72,2.72,0,0,0,1.09.22,2.77,2.77,0,0,0,1.1-.22,2.48,2.48,0,0,0,1.37-1.47,3,3,0,0,0,.19-1.1,3,3,0,0,0-.19-1.09,2.53,2.53,0,0,0-.53-.88,2.8,2.8,0,0,0-.84-.6,2.77,2.77,0,0,0-1.1-.21,2.72,2.72,0,0,0-1.09.21,2.57,2.57,0,0,0-.84.6,2.41,2.41,0,0,0-.54.88A3.2,3.2,0,0,0,1015.68,133.5Z"/><path class="cls-2" d="M1024.36,129.76h1.25v1.09h0a3.77,3.77,0,0,1,1.2-.95,3.36,3.36,0,0,1,1.49-.33,4.16,4.16,0,0,1,1.61.29,3.47,3.47,0,0,1,1.24.83,3.73,3.73,0,0,1,.8,1.24,4.39,4.39,0,0,1,0,3.14,3.92,3.92,0,0,1-.79,1.25,3.69,3.69,0,0,1-2.67,1.12,3.46,3.46,0,0,1-1.76-.44,3,3,0,0,1-1.12-1.08h0v5h-1.25Zm1.25,3.74a3,3,0,0,0,.19,1.1,2.48,2.48,0,0,0,1.37,1.47,2.77,2.77,0,0,0,1.1.22,2.72,2.72,0,0,0,1.09-.22,2.41,2.41,0,0,0,.84-.59,2.49,2.49,0,0,0,.54-.88,3.25,3.25,0,0,0,.18-1.1,3.2,3.2,0,0,0-.18-1.09,2.41,2.41,0,0,0-.54-.88,2.57,2.57,0,0,0-.84-.6,2.72,2.72,0,0,0-1.09-.21,2.77,2.77,0,0,0-1.1.21,2.8,2.8,0,0,0-.84.6,2.53,2.53,0,0,0-.53.88A3,3,0,0,0,1025.61,133.5Z"/><path class="cls-2" d="M1038.89,129.76h1.25v1.09h0a3.73,3.73,0,0,1,1.19-.95,3.43,3.43,0,0,1,1.5-.33,4.19,4.19,0,0,1,1.61.29,3.56,3.56,0,0,1,1.24.83,3.73,3.73,0,0,1,.8,1.24,4.39,4.39,0,0,1,0,3.14,3.92,3.92,0,0,1-.79,1.25,3.71,3.71,0,0,1-1.2.82,3.58,3.58,0,0,1-1.47.3,3.52,3.52,0,0,1-1.77-.44,3,3,0,0,1-1.11-1.08h0v5h-1.25Zm1.25,3.74a3.25,3.25,0,0,0,.18,1.1,2.82,2.82,0,0,0,.54.88,2.5,2.5,0,0,0,.84.59,2.77,2.77,0,0,0,1.1.22,2.72,2.72,0,0,0,1.09-.22,2.41,2.41,0,0,0,.84-.59,2.49,2.49,0,0,0,.54-.88,3.25,3.25,0,0,0,.18-1.1,3.2,3.2,0,0,0-.18-1.09,2.41,2.41,0,0,0-.54-.88,2.57,2.57,0,0,0-.84-.6,2.72,2.72,0,0,0-1.09-.21,2.77,2.77,0,0,0-1.1.21,2.68,2.68,0,0,0-.84.6,2.71,2.71,0,0,0-.54.88A3.2,3.2,0,0,0,1040.14,133.5Z"/><path class="cls-2" d="M1048.8,130.72a3.38,3.38,0,0,1,1.36-.87,4.75,4.75,0,0,1,1.61-.28,3.18,3.18,0,0,1,2.4.78,3.38,3.38,0,0,1,.74,2.38V136q0,.31,0,.66c0,.23,0,.44.08.64h-1.2a2.47,2.47,0,0,1-.07-.57c0-.21,0-.39,0-.55h0a3.08,3.08,0,0,1-1,.94,2.78,2.78,0,0,1-1.48.37,3.81,3.81,0,0,1-1.08-.15,2.56,2.56,0,0,1-.88-.42,2.13,2.13,0,0,1-.6-.7,2,2,0,0,1-.22-1,2.08,2.08,0,0,1,.48-1.45,3,3,0,0,1,1.19-.79,6.28,6.28,0,0,1,1.54-.32c.55,0,1-.06,1.51-.06h.48v-.22a1.53,1.53,0,0,0-.49-1.24,2.07,2.07,0,0,0-1.37-.41,3.5,3.5,0,0,0-1.19.2,2.9,2.9,0,0,0-1,.61Zm3.61,2.93a4.53,4.53,0,0,0-1.9.33,1.15,1.15,0,0,0-.71,1.11,1.08,1.08,0,0,0,.48,1,2.2,2.2,0,0,0,1.17.29,2.33,2.33,0,0,0,1-.18,1.92,1.92,0,0,0,.68-.49,2,2,0,0,0,.42-.71,2.74,2.74,0,0,0,.16-.87v-.48Z"/><path class="cls-2" d="M1057.36,131.53c0-.34,0-.66,0-1s0-.57,0-.81h1.19c0,.2,0,.4,0,.61s0,.41,0,.62h0a2.48,2.48,0,0,1,.36-.53,2.45,2.45,0,0,1,.55-.45,2.92,2.92,0,0,1,.72-.32,3,3,0,0,1,.87-.12h.25a.84.84,0,0,1,.26.07l-.08,1.26a2.53,2.53,0,0,0-.67-.1,1.91,1.91,0,0,0-1.68.75,3.54,3.54,0,0,0-.52,2v3.65h-1.24Z"/><path class="cls-2" d="M1067.24,130.81H1065v3.75c0,.24,0,.47,0,.68a1.43,1.43,0,0,0,.13.54.81.81,0,0,0,.34.37,1.24,1.24,0,0,0,.64.14,2.86,2.86,0,0,0,.56-.07,2,2,0,0,0,.54-.19l0,1.14a3.08,3.08,0,0,1-.71.2,4,4,0,0,1-.75.07,2.65,2.65,0,0,1-1.07-.18,1.4,1.4,0,0,1-.62-.49,1.91,1.91,0,0,1-.3-.8,6.63,6.63,0,0,1-.07-1v-4.12h-1.63v-1.05h1.63v-2.13H1065v2.13h2.2Z"/><path class="cls-2" d="M906.33,151.5a4,4,0,0,1,.31-1.6,3.8,3.8,0,0,1,.83-1.24,3.9,3.9,0,0,1,1.26-.81,4.71,4.71,0,0,1,3.2,0,4.06,4.06,0,0,1,1.27.81,3.8,3.8,0,0,1,.83,1.24,4.42,4.42,0,0,1,0,3.2,3.65,3.65,0,0,1-2.1,2.05,4.56,4.56,0,0,1-3.2,0,3.6,3.6,0,0,1-1.26-.81,3.7,3.7,0,0,1-.83-1.24A3.94,3.94,0,0,1,906.33,151.5Zm1.35,0a3.25,3.25,0,0,0,.18,1.1,2.49,2.49,0,0,0,.54.88,2.41,2.41,0,0,0,.84.59,2.72,2.72,0,0,0,1.09.22,2.77,2.77,0,0,0,1.1-.22,2.48,2.48,0,0,0,1.37-1.47,3,3,0,0,0,.19-1.1,3,3,0,0,0-.19-1.09,2.53,2.53,0,0,0-.53-.88,2.8,2.8,0,0,0-.84-.6,2.77,2.77,0,0,0-1.1-.21,2.72,2.72,0,0,0-1.09.21,2.57,2.57,0,0,0-.84.6,2.41,2.41,0,0,0-.54.88A3.2,3.2,0,0,0,907.68,151.5Z"/><path class="cls-2" d="M917.05,148.81h-1.63v-1.05h1.63v-1.68a5.48,5.48,0,0,1,.13-1.26,2.58,2.58,0,0,1,.44-1,2,2,0,0,1,.82-.65,3.2,3.2,0,0,1,1.27-.23,2.32,2.32,0,0,1,.51,0,1.59,1.59,0,0,1,.45.14l-.18,1.12a2.45,2.45,0,0,0-.85-.16,1.44,1.44,0,0,0-.75.17,1.08,1.08,0,0,0-.41.46,2.12,2.12,0,0,0-.16.71c0,.28,0,.58,0,.9v1.41h1.83v1.05H918.3v6.44h-1.25Z"/><path class="cls-2" d="M929,157a8.94,8.94,0,0,1-.4.87,2.39,2.39,0,0,1-.48.67,1.8,1.8,0,0,1-.67.43,2.45,2.45,0,0,1-.95.16,3.82,3.82,0,0,1-.57,0,1.52,1.52,0,0,1-.55-.16l.16-1.08a1.8,1.8,0,0,0,.4.1,3.54,3.54,0,0,0,.48,0,1.14,1.14,0,0,0,.9-.33,3,3,0,0,0,.49-.9l.51-1.41-3.1-7.53h1.46l2.32,5.87h0l2.22-5.87h1.36Z"/><path class="cls-2" d="M933.64,151.5a4.15,4.15,0,0,1,.31-1.6,3.8,3.8,0,0,1,.83-1.24,3.9,3.9,0,0,1,1.26-.81,4.45,4.45,0,0,1,1.6-.28,4.37,4.37,0,0,1,1.6.28,3.65,3.65,0,0,1,2.1,2.05,4.42,4.42,0,0,1,0,3.2,3.7,3.7,0,0,1-.83,1.24,3.55,3.55,0,0,1-1.27.81,4.38,4.38,0,0,1-1.6.29,4.46,4.46,0,0,1-1.6-.29,3.6,3.6,0,0,1-1.26-.81,3.7,3.7,0,0,1-.83-1.24A4.11,4.11,0,0,1,933.64,151.5Zm1.35,0a3.25,3.25,0,0,0,.18,1.1,2.49,2.49,0,0,0,.54.88,2.41,2.41,0,0,0,.84.59,2.84,2.84,0,0,0,2.19,0,2.41,2.41,0,0,0,.84-.59,2.65,2.65,0,0,0,.54-.88,3.25,3.25,0,0,0,.18-1.1,3.2,3.2,0,0,0-.18-1.09,2.6,2.6,0,0,0-1.38-1.48,3,3,0,0,0-2.19,0,2.57,2.57,0,0,0-.84.6,2.41,2.41,0,0,0-.54.88A3.2,3.2,0,0,0,935,151.5Z"/><path class="cls-2" d="M950.25,153.47c0,.34,0,.66,0,1s0,.57,0,.82h-1.19c0-.21,0-.41,0-.61s0-.41,0-.63h0a2.26,2.26,0,0,1-.36.53,3.12,3.12,0,0,1-.55.46,3.35,3.35,0,0,1-.72.32,3,3,0,0,1-.87.12,3.27,3.27,0,0,1-1.27-.23,2.38,2.38,0,0,1-.89-.62,2.59,2.59,0,0,1-.52-1,4.42,4.42,0,0,1-.17-1.24v-4.62H945v4.49a2.38,2.38,0,0,0,.42,1.49,1.54,1.54,0,0,0,1.29.55,2.4,2.4,0,0,0,1.05-.21,1.82,1.82,0,0,0,.72-.59,2.59,2.59,0,0,0,.42-.92,4.68,4.68,0,0,0,.13-1.16v-3.65h1.25Z"/><path class="cls-2" d="M952.78,149.53q0-.51,0-1c0-.29,0-.57,0-.81h1.18c0,.2,0,.4,0,.61s0,.41,0,.62h0a2.48,2.48,0,0,1,.36-.53,2.51,2.51,0,0,1,.56-.45,2.63,2.63,0,0,1,.72-.32,2.93,2.93,0,0,1,.86-.12h.26a.78.78,0,0,1,.25.07l-.08,1.26a2.41,2.41,0,0,0-.67-.1,1.89,1.89,0,0,0-1.67.75,3.46,3.46,0,0,0-.52,2v3.65h-1.25Z"/><path class="cls-2" d="M963.12,143.15h1.24v5.7h0a3.63,3.63,0,0,1,1.19-.95,3.36,3.36,0,0,1,1.49-.33,4.16,4.16,0,0,1,1.61.29,3.47,3.47,0,0,1,1.24.83,3.73,3.73,0,0,1,.8,1.24,4.39,4.39,0,0,1,0,3.14,3.75,3.75,0,0,1-.79,1.25,3.69,3.69,0,0,1-2.66,1.12,3.47,3.47,0,0,1-1.77-.44,2.89,2.89,0,0,1-1.11-1.08h0v1.33h-1.24Zm1.24,8.35a3.26,3.26,0,0,0,.19,1.1,2.48,2.48,0,0,0,1.37,1.47,2.86,2.86,0,0,0,2.2,0,2.48,2.48,0,0,0,1.37-1.47,3.26,3.26,0,0,0,.19-1.1,3.2,3.2,0,0,0-.19-1.09,2.53,2.53,0,0,0-.53-.88,2.8,2.8,0,0,0-.84-.6,3,3,0,0,0-2.2,0,2.8,2.8,0,0,0-.84.6,2.53,2.53,0,0,0-.53.88A3.2,3.2,0,0,0,964.36,151.5Z"/><path class="cls-2" d="M973.1,149.53q0-.51,0-1c0-.29,0-.57,0-.81h1.18c0,.2,0,.4,0,.61s0,.41,0,.62h0a2.48,2.48,0,0,1,.36-.53,2.51,2.51,0,0,1,.56-.45,2.63,2.63,0,0,1,.72-.32,2.93,2.93,0,0,1,.86-.12H977a.78.78,0,0,1,.25.07l-.08,1.26a2.47,2.47,0,0,0-.67-.1,1.88,1.88,0,0,0-1.67.75,3.46,3.46,0,0,0-.52,2v3.65H973.1Z"/><path class="cls-2" d="M985.31,153.89a3.87,3.87,0,0,1-1.47,1.2,4.71,4.71,0,0,1-1.86.35,4,4,0,0,1-1.58-.31,3.7,3.7,0,0,1-1.2-.84,3.93,3.93,0,0,1-.75-1.25,4.57,4.57,0,0,1-.26-1.54,4.16,4.16,0,0,1,.29-1.59,3.53,3.53,0,0,1,.8-1.25,3.78,3.78,0,0,1,1.21-.81,4.06,4.06,0,0,1,1.54-.28,3.76,3.76,0,0,1,1.44.26,3.16,3.16,0,0,1,1.13.77,3.39,3.39,0,0,1,.72,1.23,4.78,4.78,0,0,1,.26,1.66v.4h-6.05a2.71,2.71,0,0,0,.23.92,2.76,2.76,0,0,0,.52.76,2.34,2.34,0,0,0,.76.52,2.23,2.23,0,0,0,.94.2,2.77,2.77,0,0,0,2.38-1.14Zm-1.07-3.06a2.19,2.19,0,0,0-.63-1.54,2.25,2.25,0,0,0-1.63-.57,2.3,2.3,0,0,0-2.45,2.11Z"/><path class="cls-2" d="M987.58,148.72a3.35,3.35,0,0,1,1.37-.87,4.71,4.71,0,0,1,1.61-.28,3.18,3.18,0,0,1,2.4.78,3.37,3.37,0,0,1,.73,2.38V154q0,.31,0,.66c0,.23,0,.44.08.64h-1.2a3.17,3.17,0,0,1-.07-.57c0-.21,0-.39,0-.55h0a3,3,0,0,1-1,.94,2.8,2.8,0,0,1-1.48.37,3.71,3.71,0,0,1-1.08-.15,2.48,2.48,0,0,1-.88-.42,2.13,2.13,0,0,1-.6-.7,2,2,0,0,1-.23-1,2.08,2.08,0,0,1,.48-1.45,2.93,2.93,0,0,1,1.2-.79,6.11,6.11,0,0,1,1.53-.32c.55,0,1.06-.06,1.51-.06h.48v-.22a1.55,1.55,0,0,0-.48-1.24,2.11,2.11,0,0,0-1.37-.41,3.46,3.46,0,0,0-1.19.2,3,3,0,0,0-1,.61Zm3.62,2.93a4.58,4.58,0,0,0-1.91.33,1.14,1.14,0,0,0-.7,1.11,1.1,1.1,0,0,0,.47,1,2.27,2.27,0,0,0,1.18.29,2.33,2.33,0,0,0,1-.18,2,2,0,0,0,1.09-1.2,2.74,2.74,0,0,0,.16-.87v-.48Z"/><path class="cls-2" d="M996.28,153.28a3.23,3.23,0,0,0,.81.73,2,2,0,0,0,1.11.28,3,3,0,0,0,.59-.07,1.55,1.55,0,0,0,.53-.21,1.12,1.12,0,0,0,.39-.36.94.94,0,0,0,.14-.52.83.83,0,0,0-.13-.49,1.15,1.15,0,0,0-.36-.33,2.26,2.26,0,0,0-.52-.22l-.59-.14a9.93,9.93,0,0,1-1-.26,3.23,3.23,0,0,1-.84-.37,1.71,1.71,0,0,1-.79-1.55,1.9,1.9,0,0,1,.24-1,2.19,2.19,0,0,1,.64-.68,3.09,3.09,0,0,1,.9-.42,3.49,3.49,0,0,1,1-.14,3.31,3.31,0,0,1,1.48.32,2.29,2.29,0,0,1,1.07,1l-1,.68a1.87,1.87,0,0,0-.64-.64,1.68,1.68,0,0,0-.95-.25,2.37,2.37,0,0,0-.52.06,1.78,1.78,0,0,0-.47.19,1.19,1.19,0,0,0-.34.33.83.83,0,0,0-.14.46.61.61,0,0,0,.15.41,1.24,1.24,0,0,0,.42.29,3.55,3.55,0,0,0,.61.23l.71.16a6.8,6.8,0,0,1,.94.24,3.1,3.1,0,0,1,.79.41,1.79,1.79,0,0,1,.52.64,2.09,2.09,0,0,1,.2,1,2.13,2.13,0,0,1-.26,1.08,2.07,2.07,0,0,1-.68.73,3,3,0,0,1-1,.41,4.48,4.48,0,0,1-1.1.13,4.12,4.12,0,0,1-1.65-.3,3,3,0,0,1-1.26-1.09Z"/><path class="cls-2" d="M1007.2,148.81H1005v3.75c0,.24,0,.47,0,.68a1.43,1.43,0,0,0,.13.54.87.87,0,0,0,.34.37,1.24,1.24,0,0,0,.64.14,2.77,2.77,0,0,0,.56-.07,2,2,0,0,0,.54-.19l0,1.14a3,3,0,0,1-.71.2,4,4,0,0,1-.75.07,2.68,2.68,0,0,1-1.07-.18,1.46,1.46,0,0,1-.62-.49,1.91,1.91,0,0,1-.3-.8,6.63,6.63,0,0,1-.07-1v-4.12h-1.63v-1.05h1.63v-2.13H1005v2.13h2.21Z"/><polyline class="cls-3" points="373.07 21.52 505.47 21.52 505.47 105.09"/><path class="cls-4" d="M512,116a6.51,6.51,0,1,0-6.5,6.51A6.5,6.5,0,0,0,512,116Z"/><path class="cls-5" d="M515.41,116a9.94,9.94,0,1,0-9.94,9.94A9.94,9.94,0,0,0,515.41,116Z"/><path class="cls-1" d="M373.07,21.48a3.24,3.24,0,1,0-3.24,3.23,3.23,3.23,0,0,0,3.24-3.23"/><path class="cls-1" d="M175.07,14.5h8v1.41h-6.5v4h6.07v1.41h-6.07v4.53h6.82v1.41h-8.33Z"/><path class="cls-1" d="M187.85,22.71l-3-3.89h1.84l2.23,3,2.11-3h1.71l-2.9,3.89,3.47,4.54h-1.85l-2.66-3.64-2.63,3.64h-1.75Z"/><path class="cls-1" d="M200.84,20.93a2.94,2.94,0,0,0-1-.79,2.72,2.72,0,0,0-1.15-.24,3,3,0,0,0-1.24.24,2.43,2.43,0,0,0-.89.68,2.91,2.91,0,0,0-.53,1,4,4,0,0,0-.18,1.21,3.47,3.47,0,0,0,.2,1.22,3.2,3.2,0,0,0,.58,1,2.46,2.46,0,0,0,.89.67,2.79,2.79,0,0,0,1.17.25,2.48,2.48,0,0,0,2.14-1.05l1,1a3.72,3.72,0,0,1-1.44,1,4.93,4.93,0,0,1-1.75.32,4.86,4.86,0,0,1-1.78-.32,3.89,3.89,0,0,1-1.38-.92,4.21,4.21,0,0,1-.88-1.4,4.91,4.91,0,0,1-.32-1.79,4.83,4.83,0,0,1,.32-1.76,4.14,4.14,0,0,1,.89-1.4,3.91,3.91,0,0,1,1.38-.93,4.58,4.58,0,0,1,1.77-.33,4.75,4.75,0,0,1,1.77.32,3.88,3.88,0,0,1,1.47,1Z"/><path class="cls-1" d="M203.83,13.64h1.41V27.25h-1.41Z"/><path class="cls-1" d="M215.55,25.25c0,.38,0,.74,0,1.08s0,.64,0,.92h-1.33c0-.23,0-.46,0-.69s0-.46,0-.7h0a2.42,2.42,0,0,1-.41.59,2.64,2.64,0,0,1-.62.52,3.28,3.28,0,0,1-1.78.49,3.66,3.66,0,0,1-1.43-.25,2.69,2.69,0,0,1-1-.7,2.78,2.78,0,0,1-.58-1.09,4.79,4.79,0,0,1-.19-1.4v-5.2h1.4v5.06a2.67,2.67,0,0,0,.47,1.67,1.72,1.72,0,0,0,1.46.62,2.66,2.66,0,0,0,1.17-.24,2.09,2.09,0,0,0,.81-.66,3,3,0,0,0,.47-1,5.34,5.34,0,0,0,.16-1.31V18.82h1.4Z"/><path class="cls-1" d="M218.56,25a3.33,3.33,0,0,0,.9.83,2.4,2.4,0,0,0,1.26.31,3,3,0,0,0,.65-.08,1.79,1.79,0,0,0,.61-.23,1.3,1.3,0,0,0,.43-.41,1,1,0,0,0,.16-.58,1,1,0,0,0-.15-.56,1.64,1.64,0,0,0-.41-.37,2.44,2.44,0,0,0-.57-.24l-.67-.16c-.4-.09-.77-.18-1.13-.29a4,4,0,0,1-.95-.42,2.11,2.11,0,0,1-.65-.68,2.08,2.08,0,0,1-.24-1.06,2.11,2.11,0,0,1,.27-1.08,2.31,2.31,0,0,1,.72-.77,3.46,3.46,0,0,1,1-.47,4,4,0,0,1,1.15-.16,3.84,3.84,0,0,1,1.66.36,2.56,2.56,0,0,1,1.2,1.17l-1.17.77a2.25,2.25,0,0,0-.71-.73,2,2,0,0,0-1.07-.28,3.06,3.06,0,0,0-.59.07,1.91,1.91,0,0,0-.53.22,1.34,1.34,0,0,0-.38.37.84.84,0,0,0-.16.51.63.63,0,0,0,.18.46,1.36,1.36,0,0,0,.46.33,4.54,4.54,0,0,0,.69.26c.25.07.52.13.8.18a7.16,7.16,0,0,1,1.06.28,2.92,2.92,0,0,1,.88.45,2.31,2.31,0,0,1,.6.72,2.46,2.46,0,0,1,.21,1.07,2.35,2.35,0,0,1-.29,1.22,2.3,2.3,0,0,1-.76.82,3.49,3.49,0,0,1-1.08.46,5.59,5.59,0,0,1-1.23.14,4.84,4.84,0,0,1-1.87-.33,3.36,3.36,0,0,1-1.41-1.23Z"/><path class="cls-1" d="M226,15.53a1,1,0,0,1,.29-.72,1,1,0,0,1,.73-.31,1,1,0,0,1,.73.31,1,1,0,0,1,.3.72,1,1,0,0,1-.29.74,1,1,0,0,1-.74.28,1,1,0,0,1-1-1Zm.32,3.29h1.41v8.43h-1.41Z"/><path class="cls-1" d="M234.54,27.25H233l-3.44-8.43h1.64l2.63,6.61h0l2.5-6.61h1.51Z"/><path class="cls-1" d="M247.07,25.72a4.42,4.42,0,0,1-1.66,1.36,5.38,5.38,0,0,1-2.09.38,4.25,4.25,0,0,1-1.78-.35,4,4,0,0,1-1.34-.94,4.19,4.19,0,0,1-.85-1.41,5.15,5.15,0,0,1-.29-1.73,5,5,0,0,1,.32-1.79,4.32,4.32,0,0,1,.9-1.4,4.16,4.16,0,0,1,1.37-.91,4.44,4.44,0,0,1,1.73-.32,4.25,4.25,0,0,1,1.62.29,3.6,3.6,0,0,1,1.27.87,4,4,0,0,1,.82,1.38,5.7,5.7,0,0,1,.28,1.87v.45h-6.8a2.85,2.85,0,0,0,.26,1,3.11,3.11,0,0,0,.59.87,2.74,2.74,0,0,0,.84.58,2.68,2.68,0,0,0,1.06.22,3.29,3.29,0,0,0,1.55-.33,3.49,3.49,0,0,0,1.14-.95Zm-1.21-3.44a2.42,2.42,0,0,0-.7-1.73,2.53,2.53,0,0,0-1.84-.65,2.59,2.59,0,0,0-2.75,2.38Z"/><path class="cls-1" d="M260.89,20.93a2.94,2.94,0,0,0-1-.79,2.72,2.72,0,0,0-1.15-.24,3,3,0,0,0-1.24.24,2.55,2.55,0,0,0-.9.68,3.09,3.09,0,0,0-.53,1,4,4,0,0,0-.18,1.21,3.47,3.47,0,0,0,.21,1.22,3.2,3.2,0,0,0,.58,1,2.46,2.46,0,0,0,.89.67,2.79,2.79,0,0,0,1.17.25,2.48,2.48,0,0,0,2.14-1.05l1,1a3.58,3.58,0,0,1-1.44,1,5,5,0,0,1-3.52,0,3.89,3.89,0,0,1-1.38-.92,4.21,4.21,0,0,1-.88-1.4,4.91,4.91,0,0,1-.32-1.79,4.83,4.83,0,0,1,.32-1.76A4.09,4.09,0,0,1,257,18.94a4.66,4.66,0,0,1,1.78-.33,4.79,4.79,0,0,1,1.77.32,3.88,3.88,0,0,1,1.47,1Z"/><path class="cls-1" d="M263.25,23a4.55,4.55,0,0,1,.34-1.8,4.22,4.22,0,0,1,.94-1.39,4.17,4.17,0,0,1,1.42-.91,5.22,5.22,0,0,1,3.6,0,4.17,4.17,0,0,1,1.42.91,4.22,4.22,0,0,1,.94,1.39,4.93,4.93,0,0,1,0,3.6,4.26,4.26,0,0,1-.94,1.4,4.17,4.17,0,0,1-1.42.91,5.22,5.22,0,0,1-3.6,0,4.17,4.17,0,0,1-1.42-.91,4.26,4.26,0,0,1-.94-1.4A4.55,4.55,0,0,1,263.25,23Zm1.51,0a3.55,3.55,0,0,0,.21,1.24,3.13,3.13,0,0,0,.6,1,2.79,2.79,0,0,0,.95.66,3.15,3.15,0,0,0,2.46,0,2.9,2.9,0,0,0,.95-.66,3.13,3.13,0,0,0,.6-1,3.74,3.74,0,0,0,0-2.47,2.92,2.92,0,0,0-.6-1,3.08,3.08,0,0,0-.95-.67,3.27,3.27,0,0,0-2.46,0,3,3,0,0,0-.95.67,2.92,2.92,0,0,0-.6,1A3.53,3.53,0,0,0,264.76,23Z"/><path class="cls-1" d="M274.59,13.64H276V20h0a2.21,2.21,0,0,1,.4-.49,2.33,2.33,0,0,1,.6-.44,3.29,3.29,0,0,1,1.7-.45,3.66,3.66,0,0,1,1.43.25,2.69,2.69,0,0,1,1,.7,2.78,2.78,0,0,1,.58,1.09,4.77,4.77,0,0,1,.19,1.39v5.21h-1.4V22.19a2.73,2.73,0,0,0-.47-1.68,1.74,1.74,0,0,0-1.46-.61,2.7,2.7,0,0,0-1.18.24,2,2,0,0,0-.81.66,2.94,2.94,0,0,0-.46,1,4.85,4.85,0,0,0-.16,1.31v4.11h-1.4Z"/><path class="cls-1" d="M292.3,25.72a4.32,4.32,0,0,1-1.65,1.36,5.45,5.45,0,0,1-2.09.38,4.22,4.22,0,0,1-1.78-.35,4.09,4.09,0,0,1-1.35-.94,4.33,4.33,0,0,1-.84-1.41,4.91,4.91,0,0,1-.3-1.73,4.79,4.79,0,0,1,.33-1.79,4.06,4.06,0,0,1,2.26-2.31,4.48,4.48,0,0,1,1.73-.32,4.25,4.25,0,0,1,1.62.29,3.51,3.51,0,0,1,1.27.87,3.87,3.87,0,0,1,.82,1.38,5.69,5.69,0,0,1,.29,1.87v.45H285.8a3.06,3.06,0,0,0,.26,1,3.11,3.11,0,0,0,.59.87,2.67,2.67,0,0,0,.85.58,2.61,2.61,0,0,0,1.06.22,3.32,3.32,0,0,0,1.55-.33,3.46,3.46,0,0,0,1.13-.95Zm-1.2-3.44a2.43,2.43,0,0,0-.71-1.73,2.51,2.51,0,0,0-1.83-.65,2.61,2.61,0,0,0-2.76,2.38Z"/><path class="cls-1" d="M295.13,25a3.37,3.37,0,0,0,.91.83,2.36,2.36,0,0,0,1.25.31,3,3,0,0,0,.65-.08,1.72,1.72,0,0,0,.61-.23,1.3,1.3,0,0,0,.43-.41,1,1,0,0,0,.16-.58,1,1,0,0,0-.15-.56,1.48,1.48,0,0,0-.41-.37,2.27,2.27,0,0,0-.57-.24l-.67-.16c-.39-.09-.77-.18-1.13-.29a4,4,0,0,1-.95-.42,2.11,2.11,0,0,1-.65-.68,2.08,2.08,0,0,1-.24-1.06,2.11,2.11,0,0,1,.27-1.08,2.31,2.31,0,0,1,.72-.77,3.46,3.46,0,0,1,1-.47,4,4,0,0,1,1.15-.16,3.88,3.88,0,0,1,1.67.36,2.54,2.54,0,0,1,1.19,1.17l-1.17.77a2.15,2.15,0,0,0-.71-.73,2,2,0,0,0-1.07-.28,2.87,2.87,0,0,0-.58.07,1.69,1.69,0,0,0-.53.22,1.26,1.26,0,0,0-.39.37.9.9,0,0,0-.15.51.63.63,0,0,0,.17.46,1.36,1.36,0,0,0,.46.33,4.54,4.54,0,0,0,.69.26c.26.07.52.13.8.18a6.85,6.85,0,0,1,1.06.28,2.92,2.92,0,0,1,.88.45,2.18,2.18,0,0,1,.6.72,2.81,2.81,0,0,1-.07,2.29,2.42,2.42,0,0,1-.77.82,3.49,3.49,0,0,1-1.08.46,5.59,5.59,0,0,1-1.23.14,4.84,4.84,0,0,1-1.87-.33A3.36,3.36,0,0,1,294,25.9Z"/><path class="cls-1" d="M302.6,15.53a1,1,0,0,1,.29-.72,1,1,0,0,1,.73-.31,1,1,0,0,1,.73.31,1,1,0,0,1,.3.72,1,1,0,0,1-.29.74,1,1,0,0,1-.74.28,1,1,0,0,1-1-1Zm.32,3.29h1.41v8.43h-1.41Z"/><path class="cls-1" d="M311.13,27.25h-1.55l-3.44-8.43h1.64l2.63,6.61h0L313,18.82h1.51Z"/><path class="cls-1" d="M323.66,25.72A4.42,4.42,0,0,1,322,27.08a5.41,5.41,0,0,1-2.09.38,4.25,4.25,0,0,1-1.78-.35,4,4,0,0,1-1.34-.94,4.19,4.19,0,0,1-.85-1.41,5.15,5.15,0,0,1-.29-1.73,4.78,4.78,0,0,1,.32-1.79,4.32,4.32,0,0,1,.9-1.4,4.06,4.06,0,0,1,1.37-.91,4.44,4.44,0,0,1,1.73-.32,4.32,4.32,0,0,1,1.62.29,3.6,3.6,0,0,1,1.27.87,3.85,3.85,0,0,1,.81,1.38A5.44,5.44,0,0,1,324,23v.45h-6.8a2.85,2.85,0,0,0,.26,1,3.08,3.08,0,0,0,.58.87,2.79,2.79,0,0,0,.85.58,2.64,2.64,0,0,0,1.06.22,3.32,3.32,0,0,0,1.55-.33,3.36,3.36,0,0,0,1.13-.95Zm-1.21-3.44a2.42,2.42,0,0,0-.7-1.73,2.55,2.55,0,0,0-1.84-.65,2.73,2.73,0,0,0-1.89.65,2.69,2.69,0,0,0-.86,1.73Z"/><path class="cls-1" d="M339.89,26.87a4.78,4.78,0,0,1-1.18,3.5,4.56,4.56,0,0,1-3.41,1.2,6.58,6.58,0,0,1-2.24-.36,5.35,5.35,0,0,1-1.9-1.25l1-1.15a5,5,0,0,0,1.41,1.09,3.78,3.78,0,0,0,1.72.37,3.72,3.72,0,0,0,1.56-.28,2.51,2.51,0,0,0,1-.76,2.75,2.75,0,0,0,.5-1.08,5.4,5.4,0,0,0,.15-1.28V25.79h0A3.06,3.06,0,0,1,337.14,27a3.89,3.89,0,0,1-1.66.37,4.91,4.91,0,0,1-1.82-.32,4.41,4.41,0,0,1-1.42-.9,4.08,4.08,0,0,1-.92-1.37A4.63,4.63,0,0,1,331,23a5.17,5.17,0,0,1,.32-1.85,3.86,3.86,0,0,1,.91-1.39,4,4,0,0,1,1.42-.88,5.32,5.32,0,0,1,1.83-.3,4.28,4.28,0,0,1,.87.09,3.8,3.8,0,0,1,.83.31,2.93,2.93,0,0,1,.73.52,2.77,2.77,0,0,1,.54.73h0V18.82h1.4ZM332.51,23a2.92,2.92,0,0,0,.24,1.2,2.84,2.84,0,0,0,.64.95,2.9,2.9,0,0,0,.94.64,2.79,2.79,0,0,0,1.15.24,3.21,3.21,0,0,0,1.28-.25,3,3,0,0,0,.95-.68,2.88,2.88,0,0,0,.58-1,3.45,3.45,0,0,0,.2-1.16,3.31,3.31,0,0,0-.22-1.25,2.8,2.8,0,0,0-.61-1,2.62,2.62,0,0,0-1-.64,3.28,3.28,0,0,0-1.23-.23,3,3,0,0,0-1.21.24,2.86,2.86,0,0,0-1.54,1.66A3.32,3.32,0,0,0,332.51,23Z"/><path class="cls-1" d="M350.19,25.72a4.35,4.35,0,0,1-1.66,1.36,5.38,5.38,0,0,1-2.09.38,4.29,4.29,0,0,1-1.78-.35,4,4,0,0,1-1.34-.94,4.16,4.16,0,0,1-.84-1.41,4.91,4.91,0,0,1-.3-1.73,5,5,0,0,1,.32-1.79,4.32,4.32,0,0,1,.9-1.4,4.16,4.16,0,0,1,1.37-.91,4.48,4.48,0,0,1,1.73-.32,4.25,4.25,0,0,1,1.62.29,3.6,3.6,0,0,1,1.27.87,3.87,3.87,0,0,1,.82,1.38A5.69,5.69,0,0,1,350.5,23v.45h-6.81a2.85,2.85,0,0,0,.26,1,3.11,3.11,0,0,0,.59.87,2.74,2.74,0,0,0,.84.58,2.68,2.68,0,0,0,1.06.22,3.29,3.29,0,0,0,1.55-.33,3.49,3.49,0,0,0,1.14-.95ZM349,22.28a2.42,2.42,0,0,0-.7-1.73,2.52,2.52,0,0,0-1.84-.65,2.61,2.61,0,0,0-2.75,2.38Z"/><path class="cls-1" d="M353,13.64h1.4V27.25H353Z"/><path class="cls-2" d="M180.11,35.83a.87.87,0,0,1,.27-.64.91.91,0,0,1,1.29,0,.87.87,0,0,1,.27.64.87.87,0,0,1-.92.91.88.88,0,0,1-.65-.25A.9.9,0,0,1,180.11,35.83Zm.29,2.93h1.25v7.49H180.4Z"/><path class="cls-2" d="M184.45,44.28a2.92,2.92,0,0,0,.81.73,2,2,0,0,0,1.11.28,2.87,2.87,0,0,0,.58-.07,1.6,1.6,0,0,0,.54-.21,1,1,0,0,0,.38-.36.86.86,0,0,0,.15-.52.84.84,0,0,0-.14-.49,1.15,1.15,0,0,0-.36-.33,2.38,2.38,0,0,0-.51-.22l-.59-.14a9.29,9.29,0,0,1-1-.26,3.23,3.23,0,0,1-.84-.37,2,2,0,0,1-.58-.6,2.14,2.14,0,0,1,0-1.91,2.08,2.08,0,0,1,.64-.68,2.92,2.92,0,0,1,.89-.42,3.56,3.56,0,0,1,1-.14,3.37,3.37,0,0,1,1.48.32,2.32,2.32,0,0,1,1.06,1l-1,.68a1.93,1.93,0,0,0-.63-.64,1.7,1.7,0,0,0-.95-.25,2.31,2.31,0,0,0-.52.06,1.72,1.72,0,0,0-.48.19,1.33,1.33,0,0,0-.34.33.83.83,0,0,0-.14.46.62.62,0,0,0,.16.41,1.3,1.3,0,0,0,.41.29,3.9,3.9,0,0,0,.61.23l.71.16a6.94,6.94,0,0,1,1,.24,2.88,2.88,0,0,1,.78.41,1.94,1.94,0,0,1,.53.64,2.09,2.09,0,0,1,.19,1,2,2,0,0,1-.26,1.08,2,2,0,0,1-.68.73,3,3,0,0,1-1,.41,4.4,4.4,0,0,1-1.09.13,4.21,4.21,0,0,1-1.66-.3,3,3,0,0,1-1.25-1.09Z"/><path class="cls-1" d="M199.81,40.53a1.9,1.9,0,0,0-.64-.73,1.71,1.71,0,0,0-1-.27,2.64,2.64,0,0,0-.55.06,1.59,1.59,0,0,0-.5.2,1.18,1.18,0,0,0-.36.34.94.94,0,0,0-.14.52.83.83,0,0,0,.37.76,3.61,3.61,0,0,0,1.1.42l1.07.26a2.48,2.48,0,0,1,1.31.71,1.87,1.87,0,0,1,.52,1.33,2,2,0,0,1-.25,1,1.91,1.91,0,0,1-.66.72,2.8,2.8,0,0,1-.93.41,4.29,4.29,0,0,1-1.07.13,3.9,3.9,0,0,1-1.61-.33A2.9,2.9,0,0,1,195.22,45l.91-.62a2.41,2.41,0,0,0,.81.81,2.07,2.07,0,0,0,1.16.31,3.58,3.58,0,0,0,.64-.07,1.88,1.88,0,0,0,.56-.23,1.15,1.15,0,0,0,.4-.39,1,1,0,0,0,.16-.56.88.88,0,0,0-.42-.81,3.94,3.94,0,0,0-1-.39l-1-.24-.52-.16a2.34,2.34,0,0,1-.64-.34,2,2,0,0,1-.54-.58,1.66,1.66,0,0,1-.22-.89,2.18,2.18,0,0,1,.23-1,2.09,2.09,0,0,1,.62-.7,3,3,0,0,1,.89-.41,3.88,3.88,0,0,1,1-.13,3.52,3.52,0,0,1,1.45.3,2.1,2.1,0,0,1,1,1Z"/><path class="cls-1" d="M206.67,39.72h-2.16v4.41a2.48,2.48,0,0,0,.08.68.94.94,0,0,0,.23.41.73.73,0,0,0,.34.2,1.51,1.51,0,0,0,.44.06,2.23,2.23,0,0,0,.56-.08,2.79,2.79,0,0,0,.53-.21l.05,1a3.44,3.44,0,0,1-1.43.27,2.86,2.86,0,0,1-.63-.08,1.56,1.56,0,0,1-.6-.31,1.75,1.75,0,0,1-.45-.6,2.62,2.62,0,0,1-.17-1V39.72h-1.59v-1h1.59V36.65h1v2.11h2.16Z"/><path class="cls-1" d="M208.38,41.09c0-.33,0-.66,0-1s0-.79,0-1.33h1v1.39h0a2.36,2.36,0,0,1,.32-.58,2.46,2.46,0,0,1,.51-.51,2.31,2.31,0,0,1,.68-.36,2.77,2.77,0,0,1,.89-.13,3.12,3.12,0,0,1,.79.09l-.21,1a1.87,1.87,0,0,0-.61-.08,2.22,2.22,0,0,0-1,.23,2.36,2.36,0,0,0-.72.6,2.42,2.42,0,0,0-.42.77,2.64,2.64,0,0,0-.14.8v4.23h-1.06Z"/><path class="cls-1" d="M221,42.5a4,4,0,0,1-.3,1.57,3.67,3.67,0,0,1-.82,1.25,3.76,3.76,0,0,1-1.26.82,4.42,4.42,0,0,1-3.2,0,3.73,3.73,0,0,1-2.08-2.07,4.39,4.39,0,0,1,0-3.14,3.8,3.8,0,0,1,.83-1.24,3.7,3.7,0,0,1,1.25-.83,4.56,4.56,0,0,1,3.2,0,3.73,3.73,0,0,1,2.08,2.07A4.07,4.07,0,0,1,221,42.5Zm-1.15,0a3.51,3.51,0,0,0-.2-1.17,2.89,2.89,0,0,0-.57-.94,2.57,2.57,0,0,0-.89-.63,2.75,2.75,0,0,0-1.17-.23,2.79,2.79,0,0,0-1.18.23,2.45,2.45,0,0,0-.88.63,2.86,2.86,0,0,0-.56.94,3.51,3.51,0,0,0-.2,1.17,3.42,3.42,0,0,0,.2,1.17,2.77,2.77,0,0,0,.56.94,2.6,2.6,0,0,0,.88.64,3,3,0,0,0,1.18.23,2.91,2.91,0,0,0,1.17-.23,2.74,2.74,0,0,0,.89-.64,2.79,2.79,0,0,0,.57-.94A3.42,3.42,0,0,0,219.89,42.5Z"/><path class="cls-1" d="M224.13,38.76c0,.2,0,.4,0,.6s0,.4,0,.6h0a2.36,2.36,0,0,1,.45-.56,2.9,2.9,0,0,1,.6-.44,3.74,3.74,0,0,1,.72-.29,2.69,2.69,0,0,1,.74-.1,2.73,2.73,0,0,1,2.13.76,3.1,3.1,0,0,1,.69,2.16v4.76h-1.06V42.1a3.49,3.49,0,0,0-.43-1.91,1.77,1.77,0,0,0-1.6-.66l-.45.06a2,2,0,0,0-.78.35,2.47,2.47,0,0,0-.72.87,3.22,3.22,0,0,0-.32,1.6v3.84h-1.06V40.41c0-.21,0-.46,0-.77s0-.6-.06-.88Z"/><path class="cls-1" d="M232.74,47.75a3.27,3.27,0,0,0,1.2,1,3.65,3.65,0,0,0,1.66.38,3.45,3.45,0,0,0,1.36-.24,2.28,2.28,0,0,0,.9-.63,2.39,2.39,0,0,0,.5-.93,4.26,4.26,0,0,0,.15-1.15V44.84h0a3,3,0,0,1-1.25,1.09,3.91,3.91,0,0,1-1.55.32,4.12,4.12,0,0,1-1.53-.29,4,4,0,0,1-1.24-.79,3.68,3.68,0,0,1-.83-1.21,3.85,3.85,0,0,1-.3-1.52,3.84,3.84,0,0,1,1.08-2.75,3.4,3.4,0,0,1,1.2-.83,3.78,3.78,0,0,1,1.52-.29,4.66,4.66,0,0,1,.72.06,3.55,3.55,0,0,1,.75.22,3.79,3.79,0,0,1,.74.44,3.39,3.39,0,0,1,.69.72h0V38.76h1.06v7.42a6.11,6.11,0,0,1-.15,1.3,3.19,3.19,0,0,1-.6,1.26,3.23,3.23,0,0,1-1.22,1,4.62,4.62,0,0,1-2,.39,5.28,5.28,0,0,1-2-.37,4.72,4.72,0,0,1-1.6-1.14Zm.19-5.34a2.82,2.82,0,0,0,.81,2,2.75,2.75,0,0,0,.88.62,2.49,2.49,0,0,0,1.09.24,2.91,2.91,0,0,0,1.1-.21,3.08,3.08,0,0,0,.92-.59,2.56,2.56,0,0,0,.61-.9,2.82,2.82,0,0,0,.2-1.18,3.18,3.18,0,0,0-.19-1.12,2.67,2.67,0,0,0-.56-.91,2.59,2.59,0,0,0-.89-.62,2.87,2.87,0,0,0-1.19-.23,2.48,2.48,0,0,0-1.09.23,2.75,2.75,0,0,0-.88.62,2.94,2.94,0,0,0-.6.91A3,3,0,0,0,232.93,42.41Z"/><path class="cls-2" d="M246.69,34.15h1.25v5.7h0a3.73,3.73,0,0,1,1.19-1,3.37,3.37,0,0,1,1.5-.33,4.14,4.14,0,0,1,1.6.29,3.47,3.47,0,0,1,1.24.83,3.58,3.58,0,0,1,.8,1.24,4.39,4.39,0,0,1,0,3.14,3.75,3.75,0,0,1-.79,1.25,3.57,3.57,0,0,1-1.19.82,3.65,3.65,0,0,1-1.47.3,3.52,3.52,0,0,1-1.77-.44A2.89,2.89,0,0,1,248,44.92h0v1.33h-1.25Zm1.25,8.35a3.25,3.25,0,0,0,.18,1.1,2.49,2.49,0,0,0,.54.88,2.41,2.41,0,0,0,.84.59,2.72,2.72,0,0,0,1.09.22,2.77,2.77,0,0,0,1.1-.22,2.48,2.48,0,0,0,1.37-1.47,3,3,0,0,0,.19-1.1,3,3,0,0,0-.19-1.09,2.53,2.53,0,0,0-.53-.88,2.8,2.8,0,0,0-.84-.6,2.77,2.77,0,0,0-1.1-.21,2.72,2.72,0,0,0-1.09.21,2.57,2.57,0,0,0-.84.6,2.41,2.41,0,0,0-.54.88A3.2,3.2,0,0,0,247.94,42.5Z"/><path class="cls-2" d="M263.22,44.47q0,.51,0,1c0,.3,0,.57,0,.82H262.1c0-.21,0-.41,0-.61s0-.41,0-.63h0a1.78,1.78,0,0,1-.36.53,2.8,2.8,0,0,1-.55.46,3,3,0,0,1-1.58.44,3.29,3.29,0,0,1-1.28-.23,2.34,2.34,0,0,1-.88-.62,2.45,2.45,0,0,1-.52-1,4.09,4.09,0,0,1-.17-1.24V38.76h1.25v4.49a2.38,2.38,0,0,0,.41,1.49,1.55,1.55,0,0,0,1.3.55,2.46,2.46,0,0,0,1.05-.21,2,2,0,0,0,.72-.59,2.77,2.77,0,0,0,.41-.92,4.67,4.67,0,0,0,.14-1.16V38.76h1.25Z"/><path class="cls-2" d="M269.84,39.81h-2.21v3.75c0,.24,0,.47,0,.68a1.26,1.26,0,0,0,.13.54.79.79,0,0,0,.33.37,1.24,1.24,0,0,0,.64.14,2.77,2.77,0,0,0,.56-.07,2.11,2.11,0,0,0,.55-.19l0,1.14a3,3,0,0,1-.71.2,3.93,3.93,0,0,1-.74.07,2.61,2.61,0,0,1-1.07-.18,1.49,1.49,0,0,1-.63-.49,1.78,1.78,0,0,1-.29-.8,6.56,6.56,0,0,1-.08-1V39.81h-1.63V38.76h1.63V36.63h1.25v2.13h2.21Z"/><path class="cls-1" d="M280.08,40.53a1.9,1.9,0,0,0-.64-.73,1.71,1.71,0,0,0-1-.27,2.64,2.64,0,0,0-.55.06,1.59,1.59,0,0,0-.5.2,1.18,1.18,0,0,0-.36.34.94.94,0,0,0-.14.52.83.83,0,0,0,.37.76,3.61,3.61,0,0,0,1.1.42l1.08.26a2.49,2.49,0,0,1,1.3.71,1.82,1.82,0,0,1,.52,1.33,2,2,0,0,1-.25,1,2,2,0,0,1-.65.72,3,3,0,0,1-.94.41,4.29,4.29,0,0,1-1.07.13,3.93,3.93,0,0,1-1.61-.33A2.9,2.9,0,0,1,275.49,45l.91-.62a2.41,2.41,0,0,0,.81.81,2.07,2.07,0,0,0,1.16.31,3.58,3.58,0,0,0,.64-.07,2.06,2.06,0,0,0,.57-.23,1.35,1.35,0,0,0,.4-.39,1,1,0,0,0,.15-.56.88.88,0,0,0-.42-.81,3.94,3.94,0,0,0-1-.39l-1-.24-.52-.16a2.34,2.34,0,0,1-.64-.34,2,2,0,0,1-.54-.58,1.66,1.66,0,0,1-.22-.89,2.18,2.18,0,0,1,.23-1,2,2,0,0,1,.63-.7,2.85,2.85,0,0,1,.88-.41,3.93,3.93,0,0,1,1-.13,3.48,3.48,0,0,1,1.45.3,2.1,2.1,0,0,1,1,1Z"/><path class="cls-1" d="M290.64,42.5a4,4,0,0,1-.3,1.57,3.67,3.67,0,0,1-.82,1.25,3.76,3.76,0,0,1-1.26.82,4.42,4.42,0,0,1-3.2,0A3.73,3.73,0,0,1,283,44.07a4.39,4.39,0,0,1,0-3.14,3.8,3.8,0,0,1,.83-1.24,3.7,3.7,0,0,1,1.25-.83,4.56,4.56,0,0,1,3.2,0,3.73,3.73,0,0,1,2.08,2.07A4.07,4.07,0,0,1,290.64,42.5Zm-1.15,0a3.51,3.51,0,0,0-.2-1.17,3.07,3.07,0,0,0-.57-.94,2.57,2.57,0,0,0-.89-.63,3.12,3.12,0,0,0-2.35,0,2.45,2.45,0,0,0-.88.63,2.86,2.86,0,0,0-.56.94,3.51,3.51,0,0,0-.2,1.17,3.42,3.42,0,0,0,.2,1.17,2.77,2.77,0,0,0,.56.94,2.6,2.6,0,0,0,.88.64,3.12,3.12,0,0,0,2.35,0,2.74,2.74,0,0,0,.89-.64,3,3,0,0,0,.57-.94A3.42,3.42,0,0,0,289.49,42.5Z"/><path class="cls-1" d="M296.21,39.72h-1.78v6.53h-1.05V39.72h-1.59v-1h1.59v-2a2.77,2.77,0,0,1,.68-2.12,2.61,2.61,0,0,1,1.83-.63,3.4,3.4,0,0,1,.45,0l.46.08-.19,1-.4-.08a3,3,0,0,0-.42,0,1.55,1.55,0,0,0-.7.14,1,1,0,0,0-.42.41,1.88,1.88,0,0,0-.19.62,5.78,5.78,0,0,0-.05.75v1.92h1.78Z"/><path class="cls-1" d="M301.49,39.72h-2.16v4.41a2.14,2.14,0,0,0,.08.68.84.84,0,0,0,.22.41.77.77,0,0,0,.35.2,1.46,1.46,0,0,0,.44.06,2.29,2.29,0,0,0,.56-.08,2.69,2.69,0,0,0,.52-.21l.05,1a3.39,3.39,0,0,1-1.42.27,2.72,2.72,0,0,1-.63-.08,1.56,1.56,0,0,1-.6-.31,1.53,1.53,0,0,1-.45-.6,2.44,2.44,0,0,1-.18-1V39.72h-1.58v-1h1.58V36.65h1.06v2.11h2.16Z"/><path class="cls-2" d="M311.84,39.81h-2.21v3.75c0,.24,0,.47,0,.68a1.43,1.43,0,0,0,.12.54.87.87,0,0,0,.34.37,1.24,1.24,0,0,0,.64.14,2.77,2.77,0,0,0,.56-.07,2,2,0,0,0,.54-.19l0,1.14a3,3,0,0,1-.71.2,3.93,3.93,0,0,1-.74.07,2.61,2.61,0,0,1-1.07-.18,1.49,1.49,0,0,1-.63-.49,1.78,1.78,0,0,1-.29-.8,6.56,6.56,0,0,1-.08-1V39.81h-1.63V38.76h1.63V36.63h1.25v2.13h2.21Z"/><path class="cls-2" d="M313.1,42.5a4,4,0,0,1,.31-1.6,3.8,3.8,0,0,1,.83-1.24,3.9,3.9,0,0,1,1.26-.81,4.71,4.71,0,0,1,3.2,0,4,4,0,0,1,1.27.81,3.8,3.8,0,0,1,.83,1.24,4.42,4.42,0,0,1,0,3.2,3.7,3.7,0,0,1-.83,1.24,3.64,3.64,0,0,1-1.27.81,4.56,4.56,0,0,1-3.2,0,3.6,3.6,0,0,1-1.26-.81,3.7,3.7,0,0,1-.83-1.24A3.94,3.94,0,0,1,313.1,42.5Zm1.35,0a3.25,3.25,0,0,0,.18,1.1,2.49,2.49,0,0,0,.54.88,2.41,2.41,0,0,0,.84.59,2.72,2.72,0,0,0,1.09.22,2.77,2.77,0,0,0,1.1-.22,2.61,2.61,0,0,0,.84-.59,2.82,2.82,0,0,0,.54-.88,3.25,3.25,0,0,0,.18-1.1,3.2,3.2,0,0,0-.18-1.09,2.71,2.71,0,0,0-.54-.88,2.8,2.8,0,0,0-.84-.6,2.77,2.77,0,0,0-1.1-.21,2.72,2.72,0,0,0-1.09.21,2.57,2.57,0,0,0-.84.6,2.41,2.41,0,0,0-.54.88A3.2,3.2,0,0,0,314.45,42.5Z"/><path class="cls-2" d="M331.89,39.81h-2.21v3.75c0,.24,0,.47,0,.68a1.65,1.65,0,0,0,.13.54.87.87,0,0,0,.34.37,1.24,1.24,0,0,0,.64.14,2.77,2.77,0,0,0,.56-.07,2,2,0,0,0,.54-.19l.05,1.14a3,3,0,0,1-.71.2,3.93,3.93,0,0,1-.74.07,2.7,2.7,0,0,1-1.08-.18,1.52,1.52,0,0,1-.62-.49,1.91,1.91,0,0,1-.3-.8,8.11,8.11,0,0,1-.07-1V39.81H326.8V38.76h1.63V36.63h1.25v2.13h2.21Z"/><path class="cls-2" d="M333.6,34.15h1.25V39.8h0a1.73,1.73,0,0,1,.35-.44,2.2,2.2,0,0,1,.54-.39,2.86,2.86,0,0,1,.69-.29,2.75,2.75,0,0,1,.82-.11,3.28,3.28,0,0,1,1.27.22,2.5,2.5,0,0,1,.89.62,2.59,2.59,0,0,1,.52,1,4.42,4.42,0,0,1,.17,1.24v4.63h-1.25v-4.5a2.38,2.38,0,0,0-.42-1.49,1.52,1.52,0,0,0-1.29-.54,2.4,2.4,0,0,0-1.05.21,1.73,1.73,0,0,0-.72.59,2.54,2.54,0,0,0-.42.91,4.71,4.71,0,0,0-.13,1.17v3.65H333.6Z"/><path class="cls-2" d="M349.33,44.89a3.82,3.82,0,0,1-1.48,1.2,4.62,4.62,0,0,1-1.85.35,4,4,0,0,1-1.59-.31,3.77,3.77,0,0,1-1.19-.84,3.93,3.93,0,0,1-.75-1.25,4.67,4.67,0,0,1,0-3.13,3.83,3.83,0,0,1,.8-1.25,3.94,3.94,0,0,1,1.22-.81,4.06,4.06,0,0,1,1.54-.28,3.76,3.76,0,0,1,1.44.26,3.12,3.12,0,0,1,1.12.77,3.27,3.27,0,0,1,.73,1.23,5,5,0,0,1,.26,1.66v.4h-6.05a2.71,2.71,0,0,0,.23.92,2.76,2.76,0,0,0,.52.76,2.41,2.41,0,0,0,.75.52,2.31,2.31,0,0,0,.95.2,3,3,0,0,0,1.37-.29,3.1,3.1,0,0,0,1-.85Zm-1.08-3.06a2.18,2.18,0,0,0-.62-1.54,2.25,2.25,0,0,0-1.63-.57,2.3,2.3,0,0,0-2.45,2.11Z"/><path class="cls-2" d="M169.58,57.81h-2.21v3.75c0,.24,0,.47,0,.68a1.65,1.65,0,0,0,.13.54.87.87,0,0,0,.34.37,1.24,1.24,0,0,0,.64.14,2.77,2.77,0,0,0,.56-.07,2,2,0,0,0,.54-.19l0,1.14a3,3,0,0,1-.71.2,3.93,3.93,0,0,1-.74.07,2.7,2.7,0,0,1-1.08-.18,1.52,1.52,0,0,1-.62-.49,1.91,1.91,0,0,1-.3-.8,8.11,8.11,0,0,1-.07-1V57.81h-1.63V56.76h1.63V54.63h1.25v2.13h2.21Z"/><path class="cls-2" d="M170.84,60.5a4,4,0,0,1,.31-1.6,3.8,3.8,0,0,1,.83-1.24,3.9,3.9,0,0,1,1.26-.81,4.71,4.71,0,0,1,3.2,0,4.06,4.06,0,0,1,1.27.81,4,4,0,0,1,.83,1.24,4.42,4.42,0,0,1,0,3.2,3.86,3.86,0,0,1-.83,1.24,3.73,3.73,0,0,1-1.27.81,4.56,4.56,0,0,1-3.2,0,3.6,3.6,0,0,1-1.26-.81,3.7,3.7,0,0,1-.83-1.24A3.94,3.94,0,0,1,170.84,60.5Zm1.35,0a3.25,3.25,0,0,0,.18,1.1,2.48,2.48,0,0,0,1.37,1.47,2.8,2.8,0,0,0,1.1.22,2.77,2.77,0,0,0,1.1-.22,2.48,2.48,0,0,0,1.37-1.47,3,3,0,0,0,.19-1.1,3,3,0,0,0-.19-1.09,2.53,2.53,0,0,0-.53-.88,2.8,2.8,0,0,0-.84-.6,2.77,2.77,0,0,0-1.1-.21,2.51,2.51,0,0,0-1.94.81,2.53,2.53,0,0,0-.53.88A3.2,3.2,0,0,0,172.19,60.5Z"/><path class="cls-2" d="M187.45,62.47q0,.51,0,1c0,.3,0,.57,0,.82h-1.18c0-.21,0-.41,0-.61s0-.41,0-.63h0a1.78,1.78,0,0,1-.36.53,2.53,2.53,0,0,1-.55.46,3,3,0,0,1-.72.32,2.93,2.93,0,0,1-.86.12,3.24,3.24,0,0,1-1.27-.23,2.3,2.3,0,0,1-.89-.62,2.45,2.45,0,0,1-.52-1,4.42,4.42,0,0,1-.17-1.24V56.76h1.25v4.49a2.44,2.44,0,0,0,.41,1.49,1.55,1.55,0,0,0,1.3.55,2.4,2.4,0,0,0,1.05-.21,2,2,0,0,0,.72-.59,2.58,2.58,0,0,0,.41-.92,4.24,4.24,0,0,0,.14-1.16V56.76h1.25Z"/><path class="cls-2" d="M195.3,58.63a2.53,2.53,0,0,0-.86-.7,2.45,2.45,0,0,0-1-.21,2.75,2.75,0,0,0-1.11.21,2.27,2.27,0,0,0-.79.6,2.62,2.62,0,0,0-.47.89,3.49,3.49,0,0,0-.16,1.08,3.14,3.14,0,0,0,.18,1.08,3,3,0,0,0,.51.89,2.25,2.25,0,0,0,.8.6,2.48,2.48,0,0,0,1,.22,2.21,2.21,0,0,0,1.9-.93l.93.88a3.28,3.28,0,0,1-1.28.91,4.39,4.39,0,0,1-3.14,0,3.25,3.25,0,0,1-1.22-.82,3.71,3.71,0,0,1-.79-1.24,4.6,4.6,0,0,1,0-3.16,3.71,3.71,0,0,1,2-2.07,4,4,0,0,1,1.58-.29,4.33,4.33,0,0,1,1.57.28,3.54,3.54,0,0,1,1.31.9Z"/><path class="cls-2" d="M197.85,52.15h1.25V57.8h0a1.73,1.73,0,0,1,.35-.44A2.2,2.2,0,0,1,200,57a2.86,2.86,0,0,1,.69-.29,2.75,2.75,0,0,1,.82-.11,3.28,3.28,0,0,1,1.27.22,2.5,2.5,0,0,1,.89.62,2.59,2.59,0,0,1,.52,1,4.42,4.42,0,0,1,.17,1.24v4.63h-1.25v-4.5a2.38,2.38,0,0,0-.42-1.49,1.52,1.52,0,0,0-1.29-.54,2.4,2.4,0,0,0-1,.21,1.73,1.73,0,0,0-.72.59,2.54,2.54,0,0,0-.42.91,4.71,4.71,0,0,0-.13,1.17v3.65h-1.25Z"/><path class="cls-2" d="M211.67,62.28a3.23,3.23,0,0,0,.81.73,2,2,0,0,0,1.11.28,3.06,3.06,0,0,0,.59-.07,1.63,1.63,0,0,0,.53-.21,1.12,1.12,0,0,0,.39-.36.94.94,0,0,0,.14-.52.77.77,0,0,0-.14-.49,1.15,1.15,0,0,0-.36-.33,2.18,2.18,0,0,0-.51-.22l-.59-.14a9.93,9.93,0,0,1-1-.26,3.23,3.23,0,0,1-.84-.37,1.71,1.71,0,0,1-.79-1.55,1.9,1.9,0,0,1,.24-1,2.08,2.08,0,0,1,.64-.68,3.09,3.09,0,0,1,.9-.42,3.49,3.49,0,0,1,1-.14,3.34,3.34,0,0,1,1.48.32,2.27,2.27,0,0,1,1.06,1l-1,.68a1.93,1.93,0,0,0-.63-.64,1.7,1.7,0,0,0-.95-.25,2.37,2.37,0,0,0-.52.06,1.65,1.65,0,0,0-.47.19,1.37,1.37,0,0,0-.35.33.82.82,0,0,0-.13.46.61.61,0,0,0,.15.41,1.24,1.24,0,0,0,.42.29,3.76,3.76,0,0,0,.6.23l.72.16a6.8,6.8,0,0,1,.94.24,2.88,2.88,0,0,1,.78.41,1.82,1.82,0,0,1,.53.64,2.09,2.09,0,0,1,.19,1,2.13,2.13,0,0,1-.25,1.08,2.07,2.07,0,0,1-.68.73,3,3,0,0,1-1,.41,4.48,4.48,0,0,1-1.1.13,4.12,4.12,0,0,1-1.65-.3,3,3,0,0,1-1.26-1.09Z"/><path class="cls-2" d="M218.06,60.5a4.15,4.15,0,0,1,.3-1.6,3.8,3.8,0,0,1,.83-1.24,4,4,0,0,1,1.27-.81,4.71,4.71,0,0,1,3.2,0,3.9,3.9,0,0,1,1.26.81,3.8,3.8,0,0,1,.83,1.24,4.28,4.28,0,0,1,0,3.2,3.7,3.7,0,0,1-.83,1.24,3.6,3.6,0,0,1-1.26.81,4.56,4.56,0,0,1-3.2,0,3.64,3.64,0,0,1-1.27-.81,3.7,3.7,0,0,1-.83-1.24A4.11,4.11,0,0,1,218.06,60.5Zm1.34,0a3.25,3.25,0,0,0,.18,1.1,2.82,2.82,0,0,0,.54.88,2.41,2.41,0,0,0,.84.59,2.77,2.77,0,0,0,1.1.22,2.72,2.72,0,0,0,1.09-.22,2.41,2.41,0,0,0,.84-.59,2.49,2.49,0,0,0,.54-.88,3.25,3.25,0,0,0,.18-1.1,3.2,3.2,0,0,0-.18-1.09,2.41,2.41,0,0,0-.54-.88,2.57,2.57,0,0,0-.84-.6,2.72,2.72,0,0,0-1.09-.21,2.77,2.77,0,0,0-1.1.21,2.57,2.57,0,0,0-.84.6,2.71,2.71,0,0,0-.54.88A3.2,3.2,0,0,0,219.4,60.5Z"/><path class="cls-2" d="M232.57,53.83a.9.9,0,0,1,.26-.64.92.92,0,0,1,1.3,0,.9.9,0,0,1,.26.64.86.86,0,0,1-.91.91.91.91,0,0,1-.66-.25A.89.89,0,0,1,232.57,53.83Zm.29,2.93h1.24v7.49h-1.24Z"/><path class="cls-2" d="M240.84,57.81h-2.21v3.75c0,.24,0,.47,0,.68a1.26,1.26,0,0,0,.13.54.79.79,0,0,0,.33.37,1.24,1.24,0,0,0,.64.14,2.77,2.77,0,0,0,.56-.07,2.11,2.11,0,0,0,.55-.19l0,1.14a3,3,0,0,1-.71.2,3.93,3.93,0,0,1-.74.07,2.61,2.61,0,0,1-1.07-.18,1.49,1.49,0,0,1-.63-.49,1.78,1.78,0,0,1-.29-.8,6.56,6.56,0,0,1-.08-1V57.81h-1.63V56.76h1.63V54.63h1.25v2.13h2.21Z"/><path class="cls-2" d="M247.78,57.81h-1.63V56.76h1.63V55.08a6.1,6.1,0,0,1,.13-1.26,2.58,2.58,0,0,1,.44-1,2,2,0,0,1,.83-.65,3.12,3.12,0,0,1,1.26-.23,2.32,2.32,0,0,1,.51,0,1.59,1.59,0,0,1,.45.14l-.18,1.12a2.39,2.39,0,0,0-.84-.16,1.5,1.5,0,0,0-.76.17,1,1,0,0,0-.4.46,1.9,1.9,0,0,0-.16.71q0,.42,0,.9v1.41h1.83v1.05H249v6.44h-1.25Z"/><path class="cls-2" d="M259,62.89a3.87,3.87,0,0,1-1.47,1.2,4.64,4.64,0,0,1-1.86.35,4,4,0,0,1-1.58-.31,3.56,3.56,0,0,1-1.19-.84,3.6,3.6,0,0,1-.75-1.25,4.52,4.52,0,0,1,0-3.13,3.67,3.67,0,0,1,.8-1.25,3.83,3.83,0,0,1,1.22-.81,4,4,0,0,1,1.53-.28,3.76,3.76,0,0,1,1.44.26,3.16,3.16,0,0,1,1.13.77,3.41,3.41,0,0,1,.73,1.23,5,5,0,0,1,.25,1.66v.4h-6a2.49,2.49,0,0,0,.23.92,2.39,2.39,0,0,0,.52.76,2.2,2.2,0,0,0,.75.52,2.26,2.26,0,0,0,.94.2,3,3,0,0,0,1.38-.29,3.21,3.21,0,0,0,1-.85ZM258,59.83a2.18,2.18,0,0,0-.62-1.54,2.27,2.27,0,0,0-1.64-.57,2.28,2.28,0,0,0-2.44,2.11Z"/><path class="cls-2" d="M268.09,62.89a3.87,3.87,0,0,1-1.47,1.2,4.71,4.71,0,0,1-1.86.35,4,4,0,0,1-1.58-.31,3.7,3.7,0,0,1-1.2-.84,3.93,3.93,0,0,1-.75-1.25A4.57,4.57,0,0,1,261,60.5a4.16,4.16,0,0,1,.29-1.59,3.53,3.53,0,0,1,.8-1.25,3.78,3.78,0,0,1,1.21-.81,4.06,4.06,0,0,1,1.54-.28,3.76,3.76,0,0,1,1.44.26,3.16,3.16,0,0,1,1.13.77,3.39,3.39,0,0,1,.72,1.23,5,5,0,0,1,.26,1.66v.4h-6.05a2.71,2.71,0,0,0,.23.92,2.76,2.76,0,0,0,.52.76,2.34,2.34,0,0,0,.76.52,2.23,2.23,0,0,0,.94.2,2.77,2.77,0,0,0,2.38-1.14ZM267,59.83a2.19,2.19,0,0,0-.63-1.54,2.25,2.25,0,0,0-1.63-.57,2.3,2.3,0,0,0-2.45,2.11Z"/><path class="cls-2" d="M270.55,52.15h1.25v12.1h-1.25Z"/><path class="cls-2" d="M274.6,62.28a3.07,3.07,0,0,0,.81.73,2,2,0,0,0,1.11.28,2.87,2.87,0,0,0,.58-.07,1.6,1.6,0,0,0,.54-.21,1,1,0,0,0,.38-.36.86.86,0,0,0,.15-.52.84.84,0,0,0-.14-.49,1.15,1.15,0,0,0-.36-.33,2.38,2.38,0,0,0-.51-.22l-.59-.14a9.93,9.93,0,0,1-1-.26,3.23,3.23,0,0,1-.84-.37,2,2,0,0,1-.58-.6,2.14,2.14,0,0,1,0-1.91,2.08,2.08,0,0,1,.64-.68,2.92,2.92,0,0,1,.89-.42,3.56,3.56,0,0,1,1-.14,3.37,3.37,0,0,1,1.48.32,2.27,2.27,0,0,1,1.06,1l-1,.68a1.93,1.93,0,0,0-.63-.64,1.7,1.7,0,0,0-1-.25,2.31,2.31,0,0,0-.52.06,1.54,1.54,0,0,0-.47.19,1.23,1.23,0,0,0-.35.33.82.82,0,0,0-.13.46.61.61,0,0,0,.15.41,1.3,1.3,0,0,0,.41.29,3.9,3.9,0,0,0,.61.23l.71.16a6.94,6.94,0,0,1,.95.24,2.88,2.88,0,0,1,.78.41,1.82,1.82,0,0,1,.53.64,2.09,2.09,0,0,1,.19,1,2.13,2.13,0,0,1-.25,1.08,2.17,2.17,0,0,1-.68.73,3.17,3.17,0,0,1-1,.41,4.53,4.53,0,0,1-1.1.13,4.21,4.21,0,0,1-1.66-.3,3,3,0,0,1-1.25-1.09Z"/><path class="cls-2" d="M286.12,52.15h1.25v12.1h-1.25Z"/><path class="cls-2" d="M289.85,53.83a.9.9,0,0,1,.26-.64.92.92,0,0,1,1.3,0,.9.9,0,0,1,.26.64.89.89,0,0,1-.25.66.91.91,0,0,1-.66.25.86.86,0,0,1-.91-.91Zm.29,2.93h1.24v7.49h-1.24Z"/><path class="cls-2" d="M294,52.15h1.25v7.9l3.41-3.29h1.78l-3.62,3.41,4,4.08H299l-3.71-3.94v3.94H294Z"/><path class="cls-2" d="M308.86,62.89a3.82,3.82,0,0,1-1.48,1.2,4.62,4.62,0,0,1-1.85.35,4,4,0,0,1-1.59-.31,3.66,3.66,0,0,1-1.19-.84A3.93,3.93,0,0,1,302,62a4.67,4.67,0,0,1,0-3.13,3.57,3.57,0,0,1,2-2.06,4.06,4.06,0,0,1,1.54-.28,3.76,3.76,0,0,1,1.44.26,3.12,3.12,0,0,1,1.12.77,3.27,3.27,0,0,1,.73,1.23,5,5,0,0,1,.26,1.66v.4h-6.05a2.71,2.71,0,0,0,.23.92,2.56,2.56,0,0,0,.52.76,2.38,2.38,0,0,0,1.7.72A3,3,0,0,0,306.9,63a3.1,3.1,0,0,0,1-.85Zm-1.08-3.06a2.18,2.18,0,0,0-.62-1.54,2.26,2.26,0,0,0-1.63-.57,2.3,2.3,0,0,0-2.45,2.11Z"/><path class="cls-2" d="M315.82,58.53c0-.34,0-.66,0-1s0-.57,0-.81h1.19c0,.2,0,.4,0,.61s0,.41,0,.62h0a1.92,1.92,0,0,1,.36-.53,2.45,2.45,0,0,1,.55-.45,2.63,2.63,0,0,1,.72-.32,3,3,0,0,1,.87-.12,3.28,3.28,0,0,1,1.27.22,2.59,2.59,0,0,1,.89.62,2.74,2.74,0,0,1,.52,1,4.43,4.43,0,0,1,.16,1.24v4.63H321.1v-4.5a2.38,2.38,0,0,0-.42-1.49,1.54,1.54,0,0,0-1.3-.54,2.38,2.38,0,0,0-1,.21,1.67,1.67,0,0,0-.72.59,2.54,2.54,0,0,0-.42.91,4.69,4.69,0,0,0-.14,1.17v3.65h-1.24Z"/><path class="cls-2" d="M324.77,57.72a3.49,3.49,0,0,1,1.37-.87,4.75,4.75,0,0,1,1.61-.28,3.18,3.18,0,0,1,2.4.78,3.38,3.38,0,0,1,.74,2.38V63q0,.31,0,.66c0,.23.05.44.08.64h-1.2a2.47,2.47,0,0,1-.07-.57c0-.21,0-.39,0-.55h0a3.08,3.08,0,0,1-1,.94,2.78,2.78,0,0,1-1.48.37,3.81,3.81,0,0,1-1.08-.15,2.56,2.56,0,0,1-.88-.42,2.13,2.13,0,0,1-.6-.7,2,2,0,0,1-.22-1,2.08,2.08,0,0,1,.48-1.45,3,3,0,0,1,1.19-.79,6.28,6.28,0,0,1,1.54-.32c.55,0,1.05-.06,1.51-.06h.48v-.22a1.53,1.53,0,0,0-.49-1.24,2.07,2.07,0,0,0-1.37-.41,3.5,3.5,0,0,0-1.19.2,2.9,2.9,0,0,0-1,.61Zm3.62,2.93a4.53,4.53,0,0,0-1.9.33,1.15,1.15,0,0,0-.71,1.11,1.1,1.1,0,0,0,.47,1,2.27,2.27,0,0,0,1.18.29,2.33,2.33,0,0,0,.95-.18,2,2,0,0,0,.68-.49,2.19,2.19,0,0,0,.42-.71,2.74,2.74,0,0,0,.16-.87v-.48Z"/><path class="cls-2" d="M337.42,57.81h-2.21v3.75c0,.24,0,.47,0,.68a1.43,1.43,0,0,0,.13.54.87.87,0,0,0,.34.37,1.24,1.24,0,0,0,.64.14,2.77,2.77,0,0,0,.56-.07,2,2,0,0,0,.54-.19l.05,1.14a3,3,0,0,1-.71.2,4,4,0,0,1-.75.07,2.68,2.68,0,0,1-1.07-.18,1.46,1.46,0,0,1-.62-.49,1.91,1.91,0,0,1-.3-.8,6.63,6.63,0,0,1-.07-1V57.81h-1.63V56.76H334V54.63h1.25v2.13h2.21Z"/><path class="cls-2" d="M345.64,62.47q0,.51,0,1c0,.3,0,.57,0,.82h-1.18c0-.21,0-.41,0-.61s0-.41,0-.63h0a2.26,2.26,0,0,1-.36.53,2.87,2.87,0,0,1-.56.46,3,3,0,0,1-.72.32,2.93,2.93,0,0,1-.86.12,3.24,3.24,0,0,1-1.27-.23,2.3,2.3,0,0,1-.89-.62,2.45,2.45,0,0,1-.52-1,4.42,4.42,0,0,1-.17-1.24V56.76h1.25v4.49a2.38,2.38,0,0,0,.42,1.49,1.51,1.51,0,0,0,1.29.55,2.4,2.4,0,0,0,1.05-.21,2,2,0,0,0,.72-.59,2.78,2.78,0,0,0,.42-.92,4.68,4.68,0,0,0,.13-1.16V56.76h1.25Z"/><path class="cls-2" d="M348.15,58.53q0-.51,0-1c0-.29,0-.57,0-.81h1.18c0,.2,0,.4,0,.61s0,.41,0,.62h0a2.48,2.48,0,0,1,.36-.53,2.51,2.51,0,0,1,.56-.45,2.63,2.63,0,0,1,.72-.32,2.93,2.93,0,0,1,.86-.12h.26a.78.78,0,0,1,.25.07l-.08,1.26a2.41,2.41,0,0,0-.67-.1,1.89,1.89,0,0,0-1.67.75,3.46,3.46,0,0,0-.52,2v3.65h-1.25Z"/><path class="cls-2" d="M353.85,57.72a3.38,3.38,0,0,1,1.36-.87,4.75,4.75,0,0,1,1.61-.28,3.18,3.18,0,0,1,2.4.78,3.38,3.38,0,0,1,.74,2.38V63q0,.31,0,.66c0,.23.05.44.08.64h-1.2a2.47,2.47,0,0,1-.07-.57c0-.21,0-.39,0-.55h0a3,3,0,0,1-1,.94,2.78,2.78,0,0,1-1.48.37,3.81,3.81,0,0,1-1.08-.15,2.65,2.65,0,0,1-.88-.42,2.13,2.13,0,0,1-.6-.7,2.34,2.34,0,0,1,.26-2.41,3,3,0,0,1,1.19-.79,6.28,6.28,0,0,1,1.54-.32c.55,0,1-.06,1.51-.06h.48v-.22a1.53,1.53,0,0,0-.49-1.24,2.07,2.07,0,0,0-1.37-.41,3.5,3.5,0,0,0-1.19.2,2.9,2.9,0,0,0-1,.61Zm3.61,2.93a4.53,4.53,0,0,0-1.9.33,1.15,1.15,0,0,0-.71,1.11,1.08,1.08,0,0,0,.48,1,2.2,2.2,0,0,0,1.17.29,2.3,2.3,0,0,0,.95-.18,1.92,1.92,0,0,0,.68-.49,2,2,0,0,0,.42-.71,2.74,2.74,0,0,0,.16-.87v-.48Z"/><path class="cls-2" d="M362.5,52.15h1.25v12.1H362.5Z"/><path class="cls-2" d="M217.49,70.15h1.25v5.7h0A3.73,3.73,0,0,1,220,74.9a3.43,3.43,0,0,1,1.5-.33,4.19,4.19,0,0,1,1.61.29,3.56,3.56,0,0,1,1.24.83,3.73,3.73,0,0,1,.8,1.24,4.39,4.39,0,0,1,0,3.14,3.77,3.77,0,0,1-.8,1.25,3.57,3.57,0,0,1-1.19.82,3.65,3.65,0,0,1-1.47.3,3.52,3.52,0,0,1-1.77-.44,3,3,0,0,1-1.11-1.08h0v1.33h-1.25Zm1.25,8.35a3.25,3.25,0,0,0,.18,1.1,2.65,2.65,0,0,0,.54.88,2.41,2.41,0,0,0,.84.59,2.84,2.84,0,0,0,2.19,0,2.41,2.41,0,0,0,.84-.59,2.65,2.65,0,0,0,.54-.88,3.25,3.25,0,0,0,.18-1.1,3.2,3.2,0,0,0-.18-1.09,2.6,2.6,0,0,0-1.38-1.48,3,3,0,0,0-2.19,0,2.6,2.6,0,0,0-1.38,1.48A3.2,3.2,0,0,0,218.74,78.5Z"/><path class="cls-2" d="M227.49,76.53q0-.51,0-1c0-.29,0-.57,0-.81h1.18c0,.2,0,.4,0,.61s0,.41,0,.62h0a1.92,1.92,0,0,1,.36-.53,2.25,2.25,0,0,1,.55-.45,2.63,2.63,0,0,1,.72-.32,2.93,2.93,0,0,1,.86-.12h.26a.78.78,0,0,1,.25.07l-.08,1.26a2.41,2.41,0,0,0-.67-.1,1.89,1.89,0,0,0-1.67.75,3.46,3.46,0,0,0-.52,2v3.65h-1.25Z"/><path class="cls-2" d="M239.7,80.89a3.87,3.87,0,0,1-1.47,1.2,4.71,4.71,0,0,1-1.86.35,4,4,0,0,1-1.58-.31,3.7,3.7,0,0,1-1.2-.84,3.93,3.93,0,0,1-.75-1.25,4.57,4.57,0,0,1-.26-1.54,4.16,4.16,0,0,1,.29-1.59,3.67,3.67,0,0,1,.8-1.25,3.78,3.78,0,0,1,1.21-.81,4.06,4.06,0,0,1,1.54-.28,3.76,3.76,0,0,1,1.44.26,3.16,3.16,0,0,1,1.13.77,3.39,3.39,0,0,1,.72,1.23,4.78,4.78,0,0,1,.26,1.66v.4h-6.05a2.71,2.71,0,0,0,.23.92,2.76,2.76,0,0,0,.52.76,2.34,2.34,0,0,0,.76.52,2.23,2.23,0,0,0,.94.2,2.77,2.77,0,0,0,2.38-1.14Zm-1.07-3.06a2.19,2.19,0,0,0-.63-1.54,2.25,2.25,0,0,0-1.63-.57,2.3,2.3,0,0,0-2.45,2.11Z"/><path class="cls-2" d="M242,75.72a3.42,3.42,0,0,1,1.37-.87,4.75,4.75,0,0,1,1.61-.28,3.18,3.18,0,0,1,2.4.78,3.38,3.38,0,0,1,.74,2.38V81q0,.31,0,.66c0,.23.05.44.08.64H247a2.47,2.47,0,0,1-.07-.57c0-.21,0-.39,0-.55h0a3.08,3.08,0,0,1-1,.94,2.78,2.78,0,0,1-1.48.37,3.81,3.81,0,0,1-1.08-.15,2.56,2.56,0,0,1-.88-.42,2.13,2.13,0,0,1-.6-.7,2,2,0,0,1-.22-1,2.08,2.08,0,0,1,.48-1.45,3,3,0,0,1,1.19-.79,6.28,6.28,0,0,1,1.54-.32c.55,0,1-.06,1.51-.06h.48v-.22a1.53,1.53,0,0,0-.49-1.24,2.07,2.07,0,0,0-1.37-.41,3.5,3.5,0,0,0-1.19.2,2.9,2.9,0,0,0-1,.61Zm3.62,2.93a4.53,4.53,0,0,0-1.9.33,1.15,1.15,0,0,0-.71,1.11,1.1,1.1,0,0,0,.47,1,2.27,2.27,0,0,0,1.18.29,2.33,2.33,0,0,0,.95-.18,2,2,0,0,0,.68-.49,2.19,2.19,0,0,0,.42-.71,3.05,3.05,0,0,0,.16-.87v-.48Z"/><path class="cls-2" d="M250.67,80.28a3.23,3.23,0,0,0,.81.73,2,2,0,0,0,1.11.28,3,3,0,0,0,.59-.07,1.55,1.55,0,0,0,.53-.21,1.12,1.12,0,0,0,.39-.36.94.94,0,0,0,.14-.52.83.83,0,0,0-.13-.49,1.15,1.15,0,0,0-.36-.33,2.26,2.26,0,0,0-.52-.22l-.59-.14a9.93,9.93,0,0,1-1-.26,3.23,3.23,0,0,1-.84-.37,1.71,1.71,0,0,1-.79-1.55,1.9,1.9,0,0,1,.24-1,2.19,2.19,0,0,1,.64-.68,3.09,3.09,0,0,1,.9-.42,3.49,3.49,0,0,1,1-.14,3.31,3.31,0,0,1,1.48.32,2.29,2.29,0,0,1,1.07,1l-1,.68a1.87,1.87,0,0,0-.64-.64,1.68,1.68,0,0,0-.95-.25,2.37,2.37,0,0,0-.52.06,1.78,1.78,0,0,0-.47.19,1.19,1.19,0,0,0-.34.33.83.83,0,0,0-.14.46.61.61,0,0,0,.15.41,1.24,1.24,0,0,0,.42.29,3.55,3.55,0,0,0,.61.23l.71.16a6.8,6.8,0,0,1,.94.24,3.1,3.1,0,0,1,.79.41,1.79,1.79,0,0,1,.52.64,2.09,2.09,0,0,1,.2,1,2.13,2.13,0,0,1-.26,1.08,2.07,2.07,0,0,1-.68.73,3,3,0,0,1-1,.41,4.48,4.48,0,0,1-1.1.13,4.12,4.12,0,0,1-1.65-.3,3,3,0,0,1-1.26-1.09Z"/><path class="cls-2" d="M261.59,75.81h-2.21v3.75c0,.24,0,.47,0,.68a1.65,1.65,0,0,0,.13.54.87.87,0,0,0,.34.37,1.24,1.24,0,0,0,.64.14,2.77,2.77,0,0,0,.56-.07,2,2,0,0,0,.54-.19l0,1.14a3,3,0,0,1-.71.2,4,4,0,0,1-.75.07,2.68,2.68,0,0,1-1.07-.18,1.52,1.52,0,0,1-.62-.49,1.91,1.91,0,0,1-.3-.8,6.63,6.63,0,0,1-.07-1V75.81H256.5v-1h1.63V72.63h1.25v2.13h2.21Z"/><path class="cls-2" d="M272,75.81h-2.21v3.75c0,.24,0,.47,0,.68a1.65,1.65,0,0,0,.13.54.87.87,0,0,0,.34.37,1.24,1.24,0,0,0,.64.14,2.77,2.77,0,0,0,.56-.07A2,2,0,0,0,272,81l.05,1.14a3,3,0,0,1-.71.2,4,4,0,0,1-.75.07,2.68,2.68,0,0,1-1.07-.18,1.52,1.52,0,0,1-.62-.49,1.91,1.91,0,0,1-.3-.8,6.63,6.63,0,0,1-.07-1V75.81H266.9v-1h1.63V72.63h1.25v2.13H272Z"/><path class="cls-2" d="M273.52,71.83a.87.87,0,0,1,.27-.64.91.91,0,0,1,1.29,0,.87.87,0,0,1,.27.64.87.87,0,0,1-.92.91.88.88,0,0,1-.65-.25A.9.9,0,0,1,273.52,71.83Zm.29,2.93h1.25v7.49h-1.25Z"/><path class="cls-2" d="M277.86,80.28a2.92,2.92,0,0,0,.81.73,2,2,0,0,0,1.11.28,3,3,0,0,0,.58-.07,1.6,1.6,0,0,0,.54-.21,1,1,0,0,0,.38-.36.86.86,0,0,0,.15-.52.84.84,0,0,0-.14-.49,1.15,1.15,0,0,0-.36-.33,2.38,2.38,0,0,0-.51-.22l-.59-.14a9.29,9.29,0,0,1-1-.26,3.23,3.23,0,0,1-.84-.37,2,2,0,0,1-.58-.6,2.14,2.14,0,0,1,0-1.91,2.08,2.08,0,0,1,.64-.68,2.92,2.92,0,0,1,.89-.42,3.51,3.51,0,0,1,1-.14,3.37,3.37,0,0,1,1.48.32,2.32,2.32,0,0,1,1.06,1l-1,.68a1.93,1.93,0,0,0-.63-.64,1.7,1.7,0,0,0-.95-.25,2.31,2.31,0,0,0-.52.06,1.72,1.72,0,0,0-.48.19,1.33,1.33,0,0,0-.34.33.83.83,0,0,0-.14.46.57.57,0,0,0,.16.41,1.3,1.3,0,0,0,.41.29,3.9,3.9,0,0,0,.61.23l.71.16a6.94,6.94,0,0,1,.95.24,3,3,0,0,1,.78.41,1.94,1.94,0,0,1,.53.64,2.09,2.09,0,0,1,.19,1,2.13,2.13,0,0,1-.26,1.08,2,2,0,0,1-.68.73,3,3,0,0,1-1,.41,4.4,4.4,0,0,1-1.09.13,4.21,4.21,0,0,1-1.66-.3,3,3,0,0,1-1.25-1.09Z"/><path class="cls-2" d="M284.83,80.28a3.23,3.23,0,0,0,.81.73,2,2,0,0,0,1.11.28,3,3,0,0,0,.59-.07,1.55,1.55,0,0,0,.53-.21,1.12,1.12,0,0,0,.39-.36.94.94,0,0,0,.14-.52.83.83,0,0,0-.13-.49,1.15,1.15,0,0,0-.36-.33,2.26,2.26,0,0,0-.52-.22L286.8,79a9.93,9.93,0,0,1-1-.26,3.23,3.23,0,0,1-.84-.37,1.71,1.71,0,0,1-.79-1.55,1.9,1.9,0,0,1,.24-1,2.19,2.19,0,0,1,.64-.68,3.09,3.09,0,0,1,.9-.42,3.49,3.49,0,0,1,1-.14,3.31,3.31,0,0,1,1.48.32,2.29,2.29,0,0,1,1.07,1l-1,.68a1.87,1.87,0,0,0-.64-.64,1.68,1.68,0,0,0-.95-.25,2.37,2.37,0,0,0-.52.06,1.78,1.78,0,0,0-.47.19,1.19,1.19,0,0,0-.34.33.83.83,0,0,0-.14.46.61.61,0,0,0,.15.41,1.24,1.24,0,0,0,.42.29,3.55,3.55,0,0,0,.61.23l.71.16a6.8,6.8,0,0,1,.94.24,3.1,3.1,0,0,1,.79.41,1.79,1.79,0,0,1,.52.64,2.09,2.09,0,0,1,.2,1,2.13,2.13,0,0,1-.26,1.08,2.07,2.07,0,0,1-.68.73,3,3,0,0,1-1,.41,4.48,4.48,0,0,1-1.1.13,4.12,4.12,0,0,1-1.65-.3,3,3,0,0,1-1.26-1.09Z"/><path class="cls-2" d="M298.18,80.47q0,.51,0,1c0,.3,0,.57,0,.82h-1.18c0-.21,0-.41,0-.61s0-.41,0-.63h0a1.78,1.78,0,0,1-.36.53,2.8,2.8,0,0,1-.55.46,3,3,0,0,1-.72.32,2.93,2.93,0,0,1-.86.12,3.24,3.24,0,0,1-1.27-.23,2.3,2.3,0,0,1-.89-.62,2.45,2.45,0,0,1-.52-1,4.42,4.42,0,0,1-.17-1.24V74.76h1.25v4.49a2.44,2.44,0,0,0,.41,1.49,1.55,1.55,0,0,0,1.3.55,2.43,2.43,0,0,0,1.05-.21,2,2,0,0,0,.72-.59,2.77,2.77,0,0,0,.41-.92,4.67,4.67,0,0,0,.14-1.16V74.76h1.25Z"/><path class="cls-2" d="M307.38,80.89a3.87,3.87,0,0,1-1.47,1.2,4.71,4.71,0,0,1-1.86.35,4,4,0,0,1-1.58-.31,3.7,3.7,0,0,1-1.2-.84,3.93,3.93,0,0,1-.75-1.25,4.57,4.57,0,0,1-.26-1.54,4.16,4.16,0,0,1,.29-1.59,3.53,3.53,0,0,1,.8-1.25,3.78,3.78,0,0,1,1.21-.81,4.06,4.06,0,0,1,1.54-.28,3.76,3.76,0,0,1,1.44.26,3.16,3.16,0,0,1,1.13.77,3.39,3.39,0,0,1,.72,1.23,5,5,0,0,1,.26,1.66v.4h-6a2.71,2.71,0,0,0,.23.92,2.76,2.76,0,0,0,.52.76,2.34,2.34,0,0,0,.76.52,2.23,2.23,0,0,0,.94.2,2.77,2.77,0,0,0,2.38-1.14Zm-1.07-3.06a2.19,2.19,0,0,0-.63-1.54,2.25,2.25,0,0,0-1.63-.57,2.3,2.3,0,0,0-2.45,2.11Z"/><path class="cls-2" d="M312.45,71.44h-2.36l0,1.56a1.34,1.34,0,0,1,.37-.11l.38,0a2,2,0,0,1,.75.14,1.87,1.87,0,0,1,.59.4,2,2,0,0,1,.37.61,2.19,2.19,0,0,1,0,1.54,1.75,1.75,0,0,1-.42.61,1.85,1.85,0,0,1-.62.38,2.09,2.09,0,0,1-.79.14,1.83,1.83,0,0,1-1.07-.28,2,2,0,0,1-.64-.77l.69-.26a1.22,1.22,0,0,0,.43.52,1,1,0,0,0,.64.2,1.3,1.3,0,0,0,.49-.09,1.05,1.05,0,0,0,.39-.27,1.51,1.51,0,0,0,.27-.42,1.54,1.54,0,0,0,.1-.55,1.25,1.25,0,0,0-.12-.56,1.12,1.12,0,0,0-.3-.41,1.17,1.17,0,0,0-.45-.25,1.69,1.69,0,0,0-.56-.09,1.9,1.9,0,0,0-.61.1,3.68,3.68,0,0,0-.57.26l.06-3h3Z"/><line class="cls-6" x1="148.89" y1="228.62" x2="262.18" y2="228.62"/><path class="cls-7" d="M277.06,229.34a5.42,5.42,0,1,0-5.42,5.42A5.42,5.42,0,0,0,277.06,229.34Z"/><path class="cls-8" d="M279.92,229.34a8.28,8.28,0,1,0-8.28,8.28A8.27,8.27,0,0,0,279.92,229.34Z"/><path class="cls-1" d="M151.27,228.58a2.69,2.69,0,1,0-2.69,2.7,2.69,2.69,0,0,0,2.69-2.7"/><path class="cls-1" d="M28.54,223.5h4.89a6.38,6.38,0,0,1,1.33.15,6.71,6.71,0,0,1,1.4.45,7.46,7.46,0,0,1,1.33.82,5.5,5.5,0,0,1,1.13,1.22,6.06,6.06,0,0,1,.77,1.64,7.71,7.71,0,0,1,0,4.19,6.06,6.06,0,0,1-.77,1.64,5.45,5.45,0,0,1-1.13,1.21,6.46,6.46,0,0,1-1.33.82,6.2,6.2,0,0,1-1.4.46,6.38,6.38,0,0,1-1.33.15H28.54Zm1.51,11.34h2.88a6.6,6.6,0,0,0,2-.29,4.2,4.2,0,0,0,1.62-.89,4,4,0,0,0,1.08-1.54,5.8,5.8,0,0,0,.4-2.25,5.88,5.88,0,0,0-.4-2.25,4.2,4.2,0,0,0-1.08-1.54,4.48,4.48,0,0,0-1.62-.89,6.92,6.92,0,0,0-2-.28H30.05Z"/><path class="cls-1" d="M49.38,234.25c0,.38,0,.74,0,1.08s0,.64,0,.92H48.12c0-.23,0-.46,0-.69s0-.46,0-.7h0a2.42,2.42,0,0,1-.41.59A2.64,2.64,0,0,1,47,236a3.28,3.28,0,0,1-1.78.49,3.66,3.66,0,0,1-1.43-.25,2.69,2.69,0,0,1-1-.7,2.8,2.8,0,0,1-.59-1.09A5.16,5.16,0,0,1,42,233v-5.2h1.4v5.06a2.61,2.61,0,0,0,.47,1.67,1.72,1.72,0,0,0,1.46.62,2.66,2.66,0,0,0,1.17-.24,2.09,2.09,0,0,0,.81-.66,3,3,0,0,0,.47-1,5.34,5.34,0,0,0,.16-1.31v-4.11h1.4Z"/><path class="cls-1" d="M52.22,229.82q0-.57,0-1.08c0-.34,0-.64,0-.92h1.33c0,.23,0,.46,0,.69s0,.46,0,.7h0a2.41,2.41,0,0,1,.4-.6,2.86,2.86,0,0,1,.62-.51,3.32,3.32,0,0,1,.81-.36,3.39,3.39,0,0,1,1-.13h.29a1.57,1.57,0,0,1,.29.08l-.09,1.42a2.68,2.68,0,0,0-.76-.11,2.13,2.13,0,0,0-1.88.84,3.94,3.94,0,0,0-.58,2.29v4.11H52.22Z"/><path class="cls-1" d="M58.63,228.9a4,4,0,0,1,1.54-1,5.38,5.38,0,0,1,1.81-.31,3.55,3.55,0,0,1,2.7.88,3.81,3.81,0,0,1,.83,2.68v3.62q0,.36,0,.75c0,.25.06.49.09.71H64.28a3.2,3.2,0,0,1-.08-.64c0-.24,0-.44,0-.62h0a3.42,3.42,0,0,1-1.11,1.06,3.25,3.25,0,0,1-1.67.41,4.32,4.32,0,0,1-1.21-.16,3,3,0,0,1-1-.48,2.43,2.43,0,0,1-.68-.78,2.33,2.33,0,0,1-.25-1.08,2.35,2.35,0,0,1,.54-1.64,3.34,3.34,0,0,1,1.34-.88,6.81,6.81,0,0,1,1.73-.36c.62-.05,1.19-.07,1.7-.07h.54v-.25a1.7,1.7,0,0,0-.55-1.39A2.3,2.3,0,0,0,62,228.9a4.15,4.15,0,0,0-1.34.23,3.34,3.34,0,0,0-1.16.69Zm4.07,3.3a5,5,0,0,0-2.14.37,1.3,1.3,0,0,0-.8,1.25,1.21,1.21,0,0,0,.54,1.12,2.44,2.44,0,0,0,1.32.33,2.72,2.72,0,0,0,1.07-.2,2.16,2.16,0,0,0,.76-.55,2.38,2.38,0,0,0,.47-.8,3.21,3.21,0,0,0,.18-1v-.54Z"/><path class="cls-1" d="M68.19,222.64h1.4v6.41h0A4.17,4.17,0,0,1,71,228a3.76,3.76,0,0,1,1.68-.37,4.78,4.78,0,0,1,1.81.33,4,4,0,0,1,1.4.93,4.32,4.32,0,0,1,.9,1.4,5,5,0,0,1,0,3.53,4.47,4.47,0,0,1-.89,1.4,4,4,0,0,1-1.35.93,4.12,4.12,0,0,1-1.65.33,3.89,3.89,0,0,1-2-.49,3.19,3.19,0,0,1-1.25-1.22h0v1.5h-1.4Zm1.4,9.39a3.55,3.55,0,0,0,.21,1.24,3.13,3.13,0,0,0,.6,1,2.9,2.9,0,0,0,.95.66,3.15,3.15,0,0,0,2.46,0,2.9,2.9,0,0,0,1-.66,3.13,3.13,0,0,0,.6-1,3.74,3.74,0,0,0,0-2.47,2.92,2.92,0,0,0-.6-1,3.08,3.08,0,0,0-1-.67,3.27,3.27,0,0,0-2.46,0,3.08,3.08,0,0,0-.95.67,2.92,2.92,0,0,0-.6,1A3.53,3.53,0,0,0,69.59,232Z"/><path class="cls-1" d="M79.55,222.64H81v13.61h-1.4Z"/><path class="cls-1" d="M91.44,234.72a4.32,4.32,0,0,1-1.65,1.36,5.41,5.41,0,0,1-2.09.38,4.25,4.25,0,0,1-1.78-.35,4,4,0,0,1-1.34-.94,4.19,4.19,0,0,1-.85-1.41,4.91,4.91,0,0,1-.3-1.73,4.79,4.79,0,0,1,.33-1.79,4,4,0,0,1,.9-1.4,4.06,4.06,0,0,1,1.37-.91,4.39,4.39,0,0,1,1.72-.32,4.25,4.25,0,0,1,1.62.29,3.43,3.43,0,0,1,1.27.87,3.73,3.73,0,0,1,.82,1.38,5.69,5.69,0,0,1,.29,1.87v.45H85a2.85,2.85,0,0,0,.26,1,3.08,3.08,0,0,0,.58.87,2.67,2.67,0,0,0,.85.58,2.64,2.64,0,0,0,1.06.22,3.32,3.32,0,0,0,1.55-.33,3.36,3.36,0,0,0,1.13-1Zm-1.2-3.44a2.46,2.46,0,0,0-.7-1.73,2.55,2.55,0,0,0-1.84-.65,2.73,2.73,0,0,0-1.89.65,2.69,2.69,0,0,0-.86,1.73Z"/><path class="cls-1" d="M99.45,234a3.52,3.52,0,0,0,.91.83,2.39,2.39,0,0,0,1.25.31,3,3,0,0,0,.66-.08,1.74,1.74,0,0,0,.6-.23,1.33,1.33,0,0,0,.44-.41,1.07,1.07,0,0,0,.16-.58,1,1,0,0,0-.15-.56,1.64,1.64,0,0,0-.41-.37,2.35,2.35,0,0,0-.58-.24l-.66-.16c-.4-.09-.78-.18-1.14-.29a3.87,3.87,0,0,1-.94-.42,2,2,0,0,1-.65-.68,2.08,2.08,0,0,1-.24-1.06A2.11,2.11,0,0,1,99,229a2.31,2.31,0,0,1,.72-.77,3.35,3.35,0,0,1,1-.47,4,4,0,0,1,1.15-.16,3.84,3.84,0,0,1,1.66.36,2.61,2.61,0,0,1,1.2,1.17l-1.17.77a2.25,2.25,0,0,0-.71-.73,2,2,0,0,0-1.07-.28,3.06,3.06,0,0,0-.59.07,1.91,1.91,0,0,0-.53.22,1.34,1.34,0,0,0-.38.37.84.84,0,0,0-.16.51.67.67,0,0,0,.17.46,1.41,1.41,0,0,0,.47.33,4.54,4.54,0,0,0,.69.26c.25.07.52.13.8.18a7.16,7.16,0,0,1,1.06.28,3,3,0,0,1,.88.45,2.15,2.15,0,0,1,.59.72,2.32,2.32,0,0,1,.22,1.07,2.45,2.45,0,0,1-.29,1.22,2.3,2.3,0,0,1-.76.82,3.49,3.49,0,0,1-1.08.46,5.68,5.68,0,0,1-1.24.14,4.76,4.76,0,0,1-1.86-.33,3.36,3.36,0,0,1-1.41-1.23Z"/><path class="cls-1" d="M107.12,222.64h1.41V229h0a2.21,2.21,0,0,1,.4-.49,2.74,2.74,0,0,1,.6-.44,3.89,3.89,0,0,1,.78-.33,3.46,3.46,0,0,1,.92-.12,3.66,3.66,0,0,1,1.43.25,2.61,2.61,0,0,1,1,.7,2.8,2.8,0,0,1,.59,1.09,5.13,5.13,0,0,1,.19,1.39v5.21h-1.41v-5.06a2.66,2.66,0,0,0-.47-1.68,1.72,1.72,0,0,0-1.45-.61,2.67,2.67,0,0,0-1.18.24,2,2,0,0,0-.81.66,3,3,0,0,0-.47,1,5.3,5.3,0,0,0-.15,1.31v4.11h-1.41Z"/><path class="cls-1" d="M124.82,234.72a4.42,4.42,0,0,1-1.66,1.36,5.41,5.41,0,0,1-2.09.38,4.25,4.25,0,0,1-1.78-.35,4,4,0,0,1-1.34-.94,4.19,4.19,0,0,1-.85-1.41,5.15,5.15,0,0,1-.29-1.73,4.78,4.78,0,0,1,.32-1.79,4.32,4.32,0,0,1,.9-1.4,4.06,4.06,0,0,1,1.37-.91,4.44,4.44,0,0,1,1.73-.32,4.32,4.32,0,0,1,1.62.29,3.6,3.6,0,0,1,1.27.87,3.85,3.85,0,0,1,.81,1.38,5.44,5.44,0,0,1,.29,1.87v.45h-6.8a2.85,2.85,0,0,0,.26,1,3.08,3.08,0,0,0,.58.87,2.79,2.79,0,0,0,.85.58,2.64,2.64,0,0,0,1.06.22,3.32,3.32,0,0,0,1.55-.33,3.36,3.36,0,0,0,1.13-1Zm-1.21-3.44a2.42,2.42,0,0,0-.7-1.73,2.55,2.55,0,0,0-1.84-.65,2.73,2.73,0,0,0-1.89.65,2.69,2.69,0,0,0-.86,1.73Z"/><path class="cls-1" d="M127.61,222.64H129v13.61h-1.4Z"/><path class="cls-1" d="M132.12,222.64h1.41v13.61h-1.41Z"/><path class="cls-2" d="M10,244.83a.87.87,0,0,1,.27-.64.91.91,0,0,1,1.29,0,.87.87,0,0,1,.27.64.87.87,0,0,1-.92.91.88.88,0,0,1-.65-.25A.9.9,0,0,1,10,244.83Zm.29,2.93h1.25v7.49H10.28Z"/><path class="cls-2" d="M14.33,253.28a2.92,2.92,0,0,0,.81.73,2,2,0,0,0,1.11.28,2.87,2.87,0,0,0,.58-.07,1.6,1.6,0,0,0,.54-.21,1,1,0,0,0,.38-.36.86.86,0,0,0,.15-.52.84.84,0,0,0-.14-.49,1.15,1.15,0,0,0-.36-.33,2.38,2.38,0,0,0-.51-.22L16.3,252a9.29,9.29,0,0,1-1-.26,3.23,3.23,0,0,1-.84-.37,2,2,0,0,1-.58-.6,2.14,2.14,0,0,1,0-1.91,2.08,2.08,0,0,1,.64-.68,2.92,2.92,0,0,1,.89-.42,3.51,3.51,0,0,1,1-.14,3.37,3.37,0,0,1,1.48.32,2.32,2.32,0,0,1,1.06,1l-1,.68a1.93,1.93,0,0,0-.63-.64,1.7,1.7,0,0,0-.95-.25,2.31,2.31,0,0,0-.52.06,1.72,1.72,0,0,0-.48.19,1.33,1.33,0,0,0-.34.33.83.83,0,0,0-.14.46.62.62,0,0,0,.16.41,1.3,1.3,0,0,0,.41.29,3.9,3.9,0,0,0,.61.23l.71.16a6.94,6.94,0,0,1,.95.24,2.88,2.88,0,0,1,.78.41,1.94,1.94,0,0,1,.53.64,2.09,2.09,0,0,1,.19,1,2,2,0,0,1-.26,1.08,2,2,0,0,1-.68.73,3,3,0,0,1-1,.41,4.4,4.4,0,0,1-1.09.13,4.21,4.21,0,0,1-1.66-.3,3,3,0,0,1-1.25-1.09Z"/><path class="cls-2" d="M32,253.92h0A2.89,2.89,0,0,1,30.83,255a3.47,3.47,0,0,1-1.77.44,3.69,3.69,0,0,1-2.66-1.12,3.75,3.75,0,0,1-.79-1.25,4.39,4.39,0,0,1,0-3.14,3.73,3.73,0,0,1,.8-1.24,3.47,3.47,0,0,1,1.24-.83,4.16,4.16,0,0,1,1.61-.29,3.36,3.36,0,0,1,1.49.33,3.63,3.63,0,0,1,1.19.95h0v-5.7h1.24v12.1H32Zm0-2.42a3,3,0,0,0-.19-1.09,2.53,2.53,0,0,0-.53-.88,2.8,2.8,0,0,0-.84-.6,2.77,2.77,0,0,0-1.1-.21,2.51,2.51,0,0,0-1.94.81,2.53,2.53,0,0,0-.53.88,3.2,3.2,0,0,0-.18,1.09,3.25,3.25,0,0,0,.18,1.1,2.48,2.48,0,0,0,1.37,1.47,2.8,2.8,0,0,0,1.1.22,2.77,2.77,0,0,0,1.1-.22,2.48,2.48,0,0,0,1.37-1.47A3,3,0,0,0,32,251.5Z"/><path class="cls-2" d="M42.36,253.89a3.87,3.87,0,0,1-1.47,1.2,4.67,4.67,0,0,1-1.86.35,4,4,0,0,1-1.58-.31,3.56,3.56,0,0,1-1.19-.84A3.78,3.78,0,0,1,35.5,253a4.57,4.57,0,0,1-.26-1.54,4.36,4.36,0,0,1,.29-1.59,3.67,3.67,0,0,1,.8-1.25,3.78,3.78,0,0,1,1.21-.81,4.09,4.09,0,0,1,1.54-.28,3.76,3.76,0,0,1,1.44.26,3.16,3.16,0,0,1,1.13.77,3.41,3.41,0,0,1,.73,1.23,5,5,0,0,1,.25,1.66v.4H36.58a2.72,2.72,0,0,0,.24.92,2.39,2.39,0,0,0,.52.76,2.2,2.2,0,0,0,.75.52,2.26,2.26,0,0,0,.94.2,3,3,0,0,0,1.38-.29,3.21,3.21,0,0,0,1-.85Zm-1.07-3.06a2.15,2.15,0,0,0-.63-1.54,2.23,2.23,0,0,0-1.63-.57,2.44,2.44,0,0,0-1.68.57,2.5,2.5,0,0,0-.77,1.54Z"/><path class="cls-2" d="M44.87,253.28a3.23,3.23,0,0,0,.81.73,2,2,0,0,0,1.11.28,3.06,3.06,0,0,0,.59-.07,1.63,1.63,0,0,0,.53-.21,1.12,1.12,0,0,0,.39-.36.94.94,0,0,0,.14-.52.77.77,0,0,0-.14-.49,1.15,1.15,0,0,0-.36-.33,2.38,2.38,0,0,0-.51-.22l-.59-.14a9.93,9.93,0,0,1-1-.26,3.23,3.23,0,0,1-.84-.37,1.71,1.71,0,0,1-.79-1.55,1.9,1.9,0,0,1,.24-1,2.08,2.08,0,0,1,.64-.68,3.09,3.09,0,0,1,.9-.42,3.49,3.49,0,0,1,1-.14,3.34,3.34,0,0,1,1.48.32,2.27,2.27,0,0,1,1.06,1l-1,.68a1.93,1.93,0,0,0-.63-.64,1.7,1.7,0,0,0-.95-.25,2.37,2.37,0,0,0-.52.06,1.65,1.65,0,0,0-.47.19,1.23,1.23,0,0,0-.35.33.82.82,0,0,0-.13.46.61.61,0,0,0,.15.41,1.24,1.24,0,0,0,.42.29,3.76,3.76,0,0,0,.6.23l.72.16a6.8,6.8,0,0,1,.94.24,2.88,2.88,0,0,1,.78.41,1.82,1.82,0,0,1,.53.64,2.09,2.09,0,0,1,.19,1,2.13,2.13,0,0,1-.25,1.08,2.07,2.07,0,0,1-.68.73,3,3,0,0,1-1,.41,4.48,4.48,0,0,1-1.1.13,4.12,4.12,0,0,1-1.65-.3,3,3,0,0,1-1.26-1.09Z"/><path class="cls-2" d="M51.51,244.83a.87.87,0,0,1,.27-.64.91.91,0,0,1,1.29,0,.87.87,0,0,1,.27.64.87.87,0,0,1-.92.91.88.88,0,0,1-.65-.25A.9.9,0,0,1,51.51,244.83Zm.29,2.93h1.25v7.49H51.8Z"/><path class="cls-2" d="M63.16,254.91a4.24,4.24,0,0,1-1,3.11,4.07,4.07,0,0,1-3,1.07,5.89,5.89,0,0,1-2-.32,4.85,4.85,0,0,1-1.69-1.11l.9-1a4.45,4.45,0,0,0,1.25,1,3.55,3.55,0,0,0,1.53.32,3.45,3.45,0,0,0,1.38-.24,2.24,2.24,0,0,0,.88-.68,2.48,2.48,0,0,0,.44-1,4.8,4.8,0,0,0,.13-1.14v-1h0A2.77,2.77,0,0,1,60.71,255a3.49,3.49,0,0,1-1.47.33,4.25,4.25,0,0,1-1.62-.29,3.57,3.57,0,0,1-1.26-.8,3.65,3.65,0,0,1-.82-1.21,4.06,4.06,0,0,1-.28-1.54,4.53,4.53,0,0,1,.28-1.65,3.71,3.71,0,0,1,.81-1.24,3.65,3.65,0,0,1,1.26-.77,4.68,4.68,0,0,1,1.63-.27,4,4,0,0,1,.77.08,3,3,0,0,1,.74.28,2.47,2.47,0,0,1,.65.46,2.61,2.61,0,0,1,.48.65h0v-1.28h1.25ZM56.6,251.5A2.67,2.67,0,0,0,58.22,254a2.52,2.52,0,0,0,1,.21,2.73,2.73,0,0,0,1.14-.22,2.5,2.5,0,0,0,1.36-1.47,3.18,3.18,0,0,0,.17-1,3,3,0,0,0-.19-1.11,2.56,2.56,0,0,0-.54-.87,2.36,2.36,0,0,0-.85-.57,2.78,2.78,0,0,0-1.09-.2,2.74,2.74,0,0,0-1.08.21,2.53,2.53,0,0,0-.83.6,2.71,2.71,0,0,0-.54.88A3,3,0,0,0,56.6,251.5Z"/><path class="cls-2" d="M65.61,249.53q0-.51,0-1a8,8,0,0,1,0-.81h1.19c0,.2,0,.4,0,.61s0,.41,0,.62h0a2.48,2.48,0,0,1,.36-.53,2.7,2.7,0,0,1,.55-.45,2.92,2.92,0,0,1,.72-.32,3,3,0,0,1,.87-.12,3.28,3.28,0,0,1,1.27.22,2.5,2.5,0,0,1,.89.62,2.59,2.59,0,0,1,.52,1,4.42,4.42,0,0,1,.17,1.24v4.63H70.89v-4.5a2.38,2.38,0,0,0-.42-1.49,1.53,1.53,0,0,0-1.29-.54,2.4,2.4,0,0,0-1.05.21,1.67,1.67,0,0,0-.72.59,2.54,2.54,0,0,0-.42.91,4.71,4.71,0,0,0-.13,1.17v3.65H65.61Z"/><path class="cls-2" d="M81.35,253.89a3.87,3.87,0,0,1-1.47,1.2,4.64,4.64,0,0,1-1.86.35,4,4,0,0,1-1.58-.31,3.56,3.56,0,0,1-1.19-.84A3.6,3.6,0,0,1,74.5,253a4.52,4.52,0,0,1,0-3.13,3.67,3.67,0,0,1,.8-1.25,3.83,3.83,0,0,1,1.22-.81,4,4,0,0,1,1.53-.28,3.76,3.76,0,0,1,1.44.26,3.07,3.07,0,0,1,1.13.77,3.41,3.41,0,0,1,.73,1.23,5,5,0,0,1,.25,1.66v.4h-6a2.49,2.49,0,0,0,.23.92,2.39,2.39,0,0,0,.52.76,2.2,2.2,0,0,0,.75.52,2.26,2.26,0,0,0,.94.2A3,3,0,0,0,79.4,254a3.21,3.21,0,0,0,1-.85Zm-1.07-3.06a2.18,2.18,0,0,0-.62-1.54,2.27,2.27,0,0,0-1.64-.57,2.28,2.28,0,0,0-2.44,2.11Z"/><path class="cls-2" d="M89.94,253.92h0A2.89,2.89,0,0,1,88.8,255a3.52,3.52,0,0,1-1.77.44,3.65,3.65,0,0,1-1.47-.3,3.57,3.57,0,0,1-1.19-.82,3.75,3.75,0,0,1-.79-1.25,4.39,4.39,0,0,1,0-3.14,3.58,3.58,0,0,1,.8-1.24,3.47,3.47,0,0,1,1.24-.83,4.14,4.14,0,0,1,1.6-.29,3.37,3.37,0,0,1,1.5.33,3.73,3.73,0,0,1,1.19.95h0v-5.7h1.25v12.1H89.94Zm0-2.42a3.2,3.2,0,0,0-.18-1.09,2.41,2.41,0,0,0-.54-.88,2.57,2.57,0,0,0-.84-.6,2.72,2.72,0,0,0-1.09-.21,2.77,2.77,0,0,0-1.1.21,2.8,2.8,0,0,0-.84.6,2.53,2.53,0,0,0-.53.88,3,3,0,0,0-.19,1.09,3,3,0,0,0,.19,1.1,2.48,2.48,0,0,0,1.37,1.47,2.77,2.77,0,0,0,1.1.22,2.72,2.72,0,0,0,1.09-.22,2.41,2.41,0,0,0,.84-.59,2.49,2.49,0,0,0,.54-.88A3.25,3.25,0,0,0,89.94,251.5Z"/><path class="cls-2" d="M102.36,248.81h-2.21v3.75c0,.24,0,.47,0,.68a1.26,1.26,0,0,0,.13.54.79.79,0,0,0,.33.37,1.24,1.24,0,0,0,.64.14,2.77,2.77,0,0,0,.56-.07,2.11,2.11,0,0,0,.55-.19l0,1.14a3,3,0,0,1-.71.2,3.93,3.93,0,0,1-.74.07,2.61,2.61,0,0,1-1.07-.18,1.49,1.49,0,0,1-.63-.49A1.78,1.78,0,0,1,99,254a6.56,6.56,0,0,1-.08-1v-4.12H97.27v-1.05H98.9v-2.13h1.25v2.13h2.21Z"/><path class="cls-2" d="M103.62,251.5a4.15,4.15,0,0,1,.31-1.6,3.8,3.8,0,0,1,.83-1.24,3.9,3.9,0,0,1,1.26-.81,4.71,4.71,0,0,1,3.2,0,4,4,0,0,1,1.27.81,3.8,3.8,0,0,1,.83,1.24,4.42,4.42,0,0,1,0,3.2,3.7,3.7,0,0,1-.83,1.24,3.64,3.64,0,0,1-1.27.81,4.56,4.56,0,0,1-3.2,0,3.6,3.6,0,0,1-1.26-.81,3.7,3.7,0,0,1-.83-1.24A4.11,4.11,0,0,1,103.62,251.5Zm1.35,0a3.25,3.25,0,0,0,.18,1.1,2.49,2.49,0,0,0,.54.88,2.41,2.41,0,0,0,.84.59,2.72,2.72,0,0,0,1.09.22,2.77,2.77,0,0,0,1.1-.22,2.41,2.41,0,0,0,.84-.59,2.82,2.82,0,0,0,.54-.88,3.25,3.25,0,0,0,.18-1.1,3.2,3.2,0,0,0-.18-1.09,2.71,2.71,0,0,0-.54-.88,2.57,2.57,0,0,0-.84-.6,2.77,2.77,0,0,0-1.1-.21,2.72,2.72,0,0,0-1.09.21,2.57,2.57,0,0,0-.84.6,2.41,2.41,0,0,0-.54.88A3.2,3.2,0,0,0,105,251.5Z"/><path class="cls-2" d="M118.33,243.15h1.25v7.9l3.4-3.29h1.78l-3.62,3.41,4,4.08h-1.84l-3.71-3.94v3.94h-1.25Z"/><path class="cls-2" d="M133.18,253.89a3.82,3.82,0,0,1-1.48,1.2,4.62,4.62,0,0,1-1.85.35,4,4,0,0,1-1.59-.31,3.66,3.66,0,0,1-1.19-.84,3.93,3.93,0,0,1-.75-1.25,4.67,4.67,0,0,1,0-3.13,3.57,3.57,0,0,1,2-2.06,4.06,4.06,0,0,1,1.54-.28,3.76,3.76,0,0,1,1.44.26,3.12,3.12,0,0,1,1.12.77,3.27,3.27,0,0,1,.73,1.23,5,5,0,0,1,.26,1.66v.4h-6a2.71,2.71,0,0,0,.23.92,2.76,2.76,0,0,0,.52.76,2.38,2.38,0,0,0,1.7.72,3,3,0,0,0,1.37-.29,3.1,3.1,0,0,0,1-.85Zm-1.08-3.06a2.18,2.18,0,0,0-.62-1.54,2.26,2.26,0,0,0-1.63-.57,2.3,2.3,0,0,0-2.45,2.11Z"/><path class="cls-2" d="M142.23,253.89a3.87,3.87,0,0,1-1.47,1.2,4.64,4.64,0,0,1-1.86.35,4,4,0,0,1-1.58-.31,3.56,3.56,0,0,1-1.19-.84,3.6,3.6,0,0,1-.75-1.25,4.52,4.52,0,0,1,0-3.13,3.67,3.67,0,0,1,.8-1.25,3.83,3.83,0,0,1,1.22-.81,4,4,0,0,1,1.53-.28,3.76,3.76,0,0,1,1.44.26,3.07,3.07,0,0,1,1.13.77,3.41,3.41,0,0,1,.73,1.23,5,5,0,0,1,.25,1.66v.4h-6a2.49,2.49,0,0,0,.23.92,2.39,2.39,0,0,0,.52.76,2.2,2.2,0,0,0,.75.52,2.26,2.26,0,0,0,.94.2,3,3,0,0,0,1.38-.29,3.21,3.21,0,0,0,1-.85Zm-1.07-3.06a2.18,2.18,0,0,0-.62-1.54,2.27,2.27,0,0,0-1.64-.57,2.28,2.28,0,0,0-2.44,2.11Z"/><path class="cls-2" d="M144.54,247.76h1.24v1.09h0a3.63,3.63,0,0,1,1.19-.95,3.36,3.36,0,0,1,1.49-.33,4.16,4.16,0,0,1,1.61.29,3.47,3.47,0,0,1,1.24.83,3.73,3.73,0,0,1,.8,1.24,4.39,4.39,0,0,1,0,3.14,3.75,3.75,0,0,1-.79,1.25,3.69,3.69,0,0,1-2.66,1.12,3.47,3.47,0,0,1-1.77-.44,2.89,2.89,0,0,1-1.11-1.08h0v5h-1.24Zm1.24,3.74a3,3,0,0,0,.19,1.1,2.48,2.48,0,0,0,1.37,1.47,2.77,2.77,0,0,0,1.1.22,2.8,2.8,0,0,0,1.1-.22,2.48,2.48,0,0,0,1.37-1.47,3.26,3.26,0,0,0,.19-1.1,3.2,3.2,0,0,0-.19-1.09,2.53,2.53,0,0,0-.53-.88,2.51,2.51,0,0,0-1.94-.81,2.77,2.77,0,0,0-1.1.21,2.8,2.8,0,0,0-.84.6,2.53,2.53,0,0,0-.53.88A3,3,0,0,0,145.78,251.5Z"/><path class="cls-2" d="M29.91,266.81H27.7v3.75c0,.24,0,.47,0,.68a1.26,1.26,0,0,0,.13.54.85.85,0,0,0,.33.37,1.27,1.27,0,0,0,.64.14,2.68,2.68,0,0,0,.56-.07,2,2,0,0,0,.55-.19l.05,1.14a3,3,0,0,1-.72.2,3.85,3.85,0,0,1-.74.07,2.65,2.65,0,0,1-1.07-.18,1.49,1.49,0,0,1-.63-.49,2,2,0,0,1-.29-.8,6.63,6.63,0,0,1-.07-1v-4.12H24.82v-1.05h1.64v-2.13H27.7v2.13h2.21Z"/><path class="cls-2" d="M31.62,261.15h1.25v5.65h0a2,2,0,0,1,.36-.44,2.14,2.14,0,0,1,.53-.39,2.94,2.94,0,0,1,.7-.29,2.69,2.69,0,0,1,.81-.11,3.33,3.33,0,0,1,1.28.22,2.36,2.36,0,0,1,1.4,1.59,4.09,4.09,0,0,1,.17,1.24v4.63H36.9v-4.5a2.38,2.38,0,0,0-.41-1.49,1.54,1.54,0,0,0-1.3-.54,2.46,2.46,0,0,0-1,.21,1.79,1.79,0,0,0-.72.59,2.72,2.72,0,0,0-.41.91,4.69,4.69,0,0,0-.14,1.17v3.65H31.62Z"/><path class="cls-2" d="M47.35,271.89a3.87,3.87,0,0,1-1.47,1.2,4.64,4.64,0,0,1-1.86.35,4,4,0,0,1-1.58-.31,3.56,3.56,0,0,1-1.19-.84A3.6,3.6,0,0,1,40.5,271a4.52,4.52,0,0,1,0-3.13,3.67,3.67,0,0,1,.8-1.25,3.83,3.83,0,0,1,1.22-.81,4,4,0,0,1,1.53-.28,3.73,3.73,0,0,1,1.44.26,3.07,3.07,0,0,1,1.13.77,3.27,3.27,0,0,1,.73,1.23,5,5,0,0,1,.25,1.66v.4h-6a2.49,2.49,0,0,0,.23.92,2.39,2.39,0,0,0,.52.76,2.2,2.2,0,0,0,.75.52,2.26,2.26,0,0,0,.94.2A3,3,0,0,0,45.4,272a3.21,3.21,0,0,0,1-.85Zm-1.07-3.06a2.18,2.18,0,0,0-.62-1.54,2.27,2.27,0,0,0-1.64-.57,2.28,2.28,0,0,0-2.44,2.11Z"/><path class="cls-2" d="M61.78,272.91a4.24,4.24,0,0,1-1,3.11,4.08,4.08,0,0,1-3,1.07,5.93,5.93,0,0,1-2-.32A4.94,4.94,0,0,1,54,275.66l.9-1a4.35,4.35,0,0,0,1.26,1,3.94,3.94,0,0,0,2.91.08A2.14,2.14,0,0,0,60,275a2.65,2.65,0,0,0,.45-1,5.38,5.38,0,0,0,.13-1.14v-1h0A2.69,2.69,0,0,1,59.34,273a3.51,3.51,0,0,1-1.48.33,4.23,4.23,0,0,1-1.61-.29,3.71,3.71,0,0,1-1.27-.8,3.48,3.48,0,0,1-.81-1.21,4.06,4.06,0,0,1-.29-1.54,4.53,4.53,0,0,1,.29-1.65,3.42,3.42,0,0,1,.81-1.24,3.52,3.52,0,0,1,1.25-.77,4.72,4.72,0,0,1,1.63-.27,3.94,3.94,0,0,1,.77.08,3,3,0,0,1,.75.28,2.42,2.42,0,0,1,.64.46,2.2,2.2,0,0,1,.48.65h0v-1.28h1.24Zm-6.56-3.41A2.67,2.67,0,0,0,56.84,272a2.52,2.52,0,0,0,1,.21A2.73,2.73,0,0,0,59,272a2.5,2.5,0,0,0,1.36-1.47,2.94,2.94,0,0,0,.18-1,3,3,0,0,0-.2-1.11A2.43,2.43,0,0,0,59,266.92a3,3,0,0,0-2.17,0,2.64,2.64,0,0,0-.83.6,2.53,2.53,0,0,0-.53.88A3,3,0,0,0,55.22,269.5Z"/><path class="cls-2" d="M70.94,271.89a3.82,3.82,0,0,1-1.48,1.2,4.62,4.62,0,0,1-1.85.35,4,4,0,0,1-1.59-.31,3.77,3.77,0,0,1-1.19-.84,3.93,3.93,0,0,1-.75-1.25,4.67,4.67,0,0,1,0-3.13,3.83,3.83,0,0,1,.8-1.25,3.94,3.94,0,0,1,1.22-.81,4.06,4.06,0,0,1,1.54-.28,3.76,3.76,0,0,1,1.44.26,3.12,3.12,0,0,1,1.12.77,3.27,3.27,0,0,1,.73,1.23,5,5,0,0,1,.26,1.66v.4h-6a2.71,2.71,0,0,0,.23.92,2.76,2.76,0,0,0,.52.76,2.41,2.41,0,0,0,.75.52,2.31,2.31,0,0,0,1,.2A3,3,0,0,0,69,272a3.1,3.1,0,0,0,1-.85Zm-1.08-3.06a2.18,2.18,0,0,0-.62-1.54,2.25,2.25,0,0,0-1.63-.57,2.43,2.43,0,0,0-1.68.57,2.45,2.45,0,0,0-.77,1.54Z"/><path class="cls-2" d="M73.42,261.15h1.24v12.1H73.42Z"/><path class="cls-2" d="M81.74,262.83a.86.86,0,0,1,.26-.64.88.88,0,0,1,.65-.27.9.9,0,0,1,.91.91.87.87,0,0,1-.91.91.86.86,0,0,1-.91-.91Zm.28,2.93h1.25v7.49H82Z"/><path class="cls-2" d="M85.91,267.53q0-.51,0-1c0-.29,0-.57,0-.81H87c0,.2,0,.4,0,.61s0,.41,0,.62h0a1.92,1.92,0,0,1,.36-.53A2.25,2.25,0,0,1,88,266a2.63,2.63,0,0,1,.72-.32,2.93,2.93,0,0,1,.86-.12,3.24,3.24,0,0,1,1.27.22,2.41,2.41,0,0,1,.89.62,2.45,2.45,0,0,1,.52,1,4.42,4.42,0,0,1,.17,1.24v4.63H91.19v-4.5a2.44,2.44,0,0,0-.41-1.49,1.54,1.54,0,0,0-1.3-.54,2.43,2.43,0,0,0-1,.21,1.79,1.79,0,0,0-.72.59,2.72,2.72,0,0,0-.41.91,4.69,4.69,0,0,0-.14,1.17v3.65H85.91Z"/><path class="cls-2" d="M99.5,265.76h1.24v1.09h0a3.63,3.63,0,0,1,1.19-1,3.36,3.36,0,0,1,1.49-.33,4.16,4.16,0,0,1,1.61.29,3.47,3.47,0,0,1,1.24.83,3.73,3.73,0,0,1,.8,1.24,4.39,4.39,0,0,1,0,3.14,3.75,3.75,0,0,1-.79,1.25,3.69,3.69,0,0,1-2.66,1.12,3.47,3.47,0,0,1-1.77-.44,2.89,2.89,0,0,1-1.11-1.08h0v5H99.5Zm1.24,3.74a3.26,3.26,0,0,0,.19,1.1,2.48,2.48,0,0,0,1.37,1.47,2.86,2.86,0,0,0,2.2,0,2.48,2.48,0,0,0,1.37-1.47,3.26,3.26,0,0,0,.19-1.1,3.2,3.2,0,0,0-.19-1.09,2.53,2.53,0,0,0-.53-.88,2.8,2.8,0,0,0-.84-.6,3,3,0,0,0-2.2,0,2.8,2.8,0,0,0-.84.6,2.53,2.53,0,0,0-.53.88A3.2,3.2,0,0,0,100.74,269.5Z"/><path class="cls-2" d="M109.61,261.15h1.25v12.1h-1.25Z"/><path class="cls-2" d="M113.4,266.72a3.35,3.35,0,0,1,1.37-.87,4.71,4.71,0,0,1,1.61-.28,3.18,3.18,0,0,1,2.4.78,3.37,3.37,0,0,1,.73,2.38V272q0,.32,0,.66c0,.23,0,.44.08.64h-1.2a3.17,3.17,0,0,1-.07-.57c0-.21,0-.39,0-.55h0a3,3,0,0,1-1,.94,2.8,2.8,0,0,1-1.48.37,3.71,3.71,0,0,1-1.08-.15,2.48,2.48,0,0,1-.88-.42,2.13,2.13,0,0,1-.6-.7,2,2,0,0,1-.23-1,2.08,2.08,0,0,1,.48-1.45,2.93,2.93,0,0,1,1.2-.79,6.11,6.11,0,0,1,1.53-.32c.55,0,1.06-.06,1.51-.06h.48v-.22a1.55,1.55,0,0,0-.48-1.24,2.11,2.11,0,0,0-1.37-.41,3.46,3.46,0,0,0-1.19.2,3,3,0,0,0-1,.61Zm3.62,2.93a4.58,4.58,0,0,0-1.91.33,1.14,1.14,0,0,0-.7,1.11,1.1,1.1,0,0,0,.47,1,2.24,2.24,0,0,0,1.18.29,2.33,2.33,0,0,0,1-.18,2,2,0,0,0,1.09-1.2,2.74,2.74,0,0,0,.16-.87v-.48Z"/><path class="cls-2" d="M127.29,267.63a2.66,2.66,0,0,0-.87-.7,2.45,2.45,0,0,0-1-.21,2.7,2.7,0,0,0-1.1.21,2.31,2.31,0,0,0-.8.6,3,3,0,0,0-.47.89,3.81,3.81,0,0,0-.16,1.08,2.92,2.92,0,0,0,.19,1.08,2.79,2.79,0,0,0,.51.89,2.22,2.22,0,0,0,.79.6,2.51,2.51,0,0,0,1,.22,2.2,2.2,0,0,0,1.9-.93l.93.88a3.28,3.28,0,0,1-1.28.91,4.37,4.37,0,0,1-3.13,0,3.37,3.37,0,0,1-1.23-.82,3.68,3.68,0,0,1-.78-1.24,4.6,4.6,0,0,1,0-3.16,3.65,3.65,0,0,1,2-2.07,4,4,0,0,1,1.58-.29,4.42,4.42,0,0,1,1.58.28,3.5,3.5,0,0,1,1.3.9Z"/><path class="cls-2" d="M136.52,271.89a3.87,3.87,0,0,1-1.47,1.2,4.67,4.67,0,0,1-1.86.35,4,4,0,0,1-1.58-.31,3.56,3.56,0,0,1-1.19-.84,3.78,3.78,0,0,1-.76-1.25,4.57,4.57,0,0,1-.26-1.54,4.36,4.36,0,0,1,.29-1.59,3.67,3.67,0,0,1,.8-1.25,3.78,3.78,0,0,1,1.21-.81,4.09,4.09,0,0,1,1.54-.28,3.76,3.76,0,0,1,1.44.26,3.16,3.16,0,0,1,1.13.77,3.41,3.41,0,0,1,.73,1.23,5,5,0,0,1,.25,1.66v.4h-6a2.72,2.72,0,0,0,.24.92,2.39,2.39,0,0,0,.52.76,2.2,2.2,0,0,0,.75.52,2.26,2.26,0,0,0,.94.2,3,3,0,0,0,1.38-.29,3.21,3.21,0,0,0,1-.85Zm-1.07-3.06a2.15,2.15,0,0,0-.63-1.54,2.23,2.23,0,0,0-1.63-.57,2.3,2.3,0,0,0-2.45,2.11Z"/><polyline class="cls-3" points="875.55 93.52 743.15 93.52 743.15 177.09"/><path class="cls-4" d="M736.64,188a6.51,6.51,0,1,1,6.51,6.51A6.51,6.51,0,0,1,736.64,188Z"/><path class="cls-5" d="M733.21,188a9.94,9.94,0,1,1,9.94,9.94A9.94,9.94,0,0,1,733.21,188Z"/><path class="cls-1" d="M875.55,93.48a3.23,3.23,0,1,1,3.23,3.23,3.23,3.23,0,0,1-3.23-3.23"/><rect class="cls-9" width="1105.74" height="396.8"/></g></g></svg>