<svg xmlns="http://www.w3.org/2000/svg" viewBox="0 0 466.65 217.73"><defs><style>.cls-1{fill:#53575a;}.cls-2{fill:#ff8300;}</style></defs><g id="Layer_2" data-name="Layer 2"><g id="Layer_1-2" data-name="Layer 1"><path class="cls-1" d="M88.3,197H85.23v-1.73H88.3v-4.83a5.73,5.73,0,0,1,.44-2.39,4.56,4.56,0,0,1,1.07-1.52,3.75,3.75,0,0,1,1.42-.81,5.08,5.08,0,0,1,1.49-.24,5.62,5.62,0,0,1,2.21.38l-.39,1.67a3.77,3.77,0,0,0-1.72-.32q-2.59,0-2.6,3.93v4.13h3.46V197H90.22v13H88.3Z"/><path class="cls-1" d="M96.49,202.65a8.33,8.33,0,0,1,.58-3.12,7.37,7.37,0,0,1,1.6-2.46,7.27,7.27,0,0,1,2.47-1.62,8.85,8.85,0,0,1,6.25,0,7.42,7.42,0,0,1,2.46,1.62,7.13,7.13,0,0,1,1.62,2.46,8.68,8.68,0,0,1,0,6.24,7.22,7.22,0,0,1-4.08,4.08,8.71,8.71,0,0,1-6.25,0,7.1,7.1,0,0,1-2.47-1.61,7.52,7.52,0,0,1-1.6-2.47A8.33,8.33,0,0,1,96.49,202.65Zm1.92,0a7,7,0,0,0,.4,2.35,5.5,5.5,0,0,0,3,3.22,6.39,6.39,0,0,0,4.86,0,5.5,5.5,0,0,0,3-3.22,7.1,7.1,0,0,0,0-4.7,5.51,5.51,0,0,0-1.17-1.92,5.66,5.66,0,0,0-1.86-1.3,6.39,6.39,0,0,0-4.86,0,5.66,5.66,0,0,0-1.86,1.3,5.51,5.51,0,0,0-1.17,1.92A7,7,0,0,0,98.41,202.65Z"/><path class="cls-1" d="M116.94,199.42c0-.28,0-.61,0-1s0-.79,0-1.2,0-.78,0-1.13,0-.63,0-.82h1.92c0,.56,0,1.09,0,1.6a5.19,5.19,0,0,0,.08,1,6.52,6.52,0,0,1,1.89-2.14,4.65,4.65,0,0,1,2.81-.83,3.36,3.36,0,0,1,.56,0l.56.12-.22,1.88a2.48,2.48,0,0,0-.74-.12,5.3,5.3,0,0,0-2.16.4,4.06,4.06,0,0,0-1.5,1.1,4.68,4.68,0,0,0-.88,1.65,7,7,0,0,0-.29,2V210h-1.92Z"/><path class="cls-1" d="M141.33,214.62a5.55,5.55,0,0,1-1.51,2.27,3.74,3.74,0,0,1-2.56.84,6.22,6.22,0,0,1-1-.08q-.48-.09-.93-.21l.2-1.79.84.23a3.33,3.33,0,0,0,.88.12,1.85,1.85,0,0,0,.92-.23,2.49,2.49,0,0,0,.68-.57,3.78,3.78,0,0,0,.5-.79c.14-.29.26-.58.37-.88l1.34-3.42-6-14.85h2.14l4.9,12.45,4.76-12.45h2.05Z"/><path class="cls-1" d="M151.76,202.65a8.33,8.33,0,0,1,.57-3.12,7.53,7.53,0,0,1,1.6-2.46,7.36,7.36,0,0,1,2.47-1.62,8.42,8.42,0,0,1,3.13-.57,8.33,8.33,0,0,1,3.12.57,7.57,7.57,0,0,1,2.47,1.62,7.25,7.25,0,0,1,1.61,2.46,8.68,8.68,0,0,1,0,6.24,7.15,7.15,0,0,1-4.08,4.08,8.14,8.14,0,0,1-3.12.58,8.22,8.22,0,0,1-3.13-.58,7.19,7.19,0,0,1-2.47-1.61,7.68,7.68,0,0,1-1.6-2.47A8.33,8.33,0,0,1,151.76,202.65Zm1.92,0a6.75,6.75,0,0,0,.4,2.35,5.23,5.23,0,0,0,1.17,1.92,5.57,5.57,0,0,0,1.85,1.3,6.42,6.42,0,0,0,4.87,0,5.57,5.57,0,0,0,1.85-1.3A5.51,5.51,0,0,0,165,205a7.1,7.1,0,0,0,0-4.7,5.51,5.51,0,0,0-1.17-1.92,5.72,5.72,0,0,0-1.85-1.3,6.42,6.42,0,0,0-4.87,0,5.72,5.72,0,0,0-1.85,1.3,5.23,5.23,0,0,0-1.17,1.92A6.79,6.79,0,0,0,153.68,202.65Z"/><path class="cls-1" d="M184.75,205.88c0,.28,0,.62,0,1s0,.8.05,1.2,0,.79,0,1.14,0,.62,0,.81H183c0-.55,0-1.08-.05-1.6a5.19,5.19,0,0,0-.08-1h-.09a5.3,5.3,0,0,1-1.92,2.1,5.6,5.6,0,0,1-3.14.88,6.28,6.28,0,0,1-2.83-.55,4.45,4.45,0,0,1-1.73-1.42,5.13,5.13,0,0,1-.85-2,12.37,12.37,0,0,1-.22-2.37v-8.8H174V204a9.19,9.19,0,0,0,.16,1.75,4.46,4.46,0,0,0,.56,1.52,2.89,2.89,0,0,0,1.12,1.07,3.79,3.79,0,0,0,1.87.4,5.38,5.38,0,0,0,2-.37,4.26,4.26,0,0,0,1.63-1.12,5.43,5.43,0,0,0,1.09-1.89,7.9,7.9,0,0,0,.4-2.67v-7.39h1.92Z"/><path class="cls-1" d="M190.67,199.42c0-.28,0-.61,0-1s0-.79,0-1.2,0-.78-.05-1.13,0-.63,0-.82h1.92c0,.56,0,1.09,0,1.6a4.45,4.45,0,0,0,.08,1,6.52,6.52,0,0,1,1.89-2.14,4.61,4.61,0,0,1,2.81-.83,3.43,3.43,0,0,1,.56,0l.56.12-.22,1.88a2.48,2.48,0,0,0-.74-.12,5.3,5.3,0,0,0-2.16.4,3.91,3.91,0,0,0-1.5,1.1,4.52,4.52,0,0,0-.88,1.65,7,7,0,0,0-.29,2V210h-1.92Z"/><path class="cls-1" d="M222.38,203.84c0,.72,0,1.37,0,1.95s0,1.11,0,1.6,0,1,.08,1.38.08.85.14,1.27h-1.79a13.54,13.54,0,0,1-.19-2.39h-.07a5.44,5.44,0,0,1-2.06,2.11,6.44,6.44,0,0,1-3.12.67,7.53,7.53,0,0,1-1.89-.24,5,5,0,0,1-1.66-.77,3.85,3.85,0,0,1-1.2-1.36,4.08,4.08,0,0,1-.47-2,3.91,3.91,0,0,1,.87-2.68,5.34,5.34,0,0,1,2.12-1.49,10,10,0,0,1,2.69-.64,24.37,24.37,0,0,1,2.51-.15h2.24v-.89a3.11,3.11,0,0,0-1.18-2.75,5,5,0,0,0-3-.84,6.76,6.76,0,0,0-4.51,1.67L210.86,197a6.9,6.9,0,0,1,2.63-1.56,9.38,9.38,0,0,1,3-.52,6.74,6.74,0,0,1,4.29,1.26,4.87,4.87,0,0,1,1.6,4.08Zm-3.84-1.22a16.36,16.36,0,0,0-2.35.16,8.65,8.65,0,0,0-2.05.54,3.77,3.77,0,0,0-1.45,1,2.36,2.36,0,0,0-.55,1.6,2.28,2.28,0,0,0,.31,1.2,2.58,2.58,0,0,0,.78.86,3.41,3.41,0,0,0,1.07.51,4.16,4.16,0,0,0,1.2.18,6.13,6.13,0,0,0,2.53-.45,4.27,4.27,0,0,0,1.58-1.17,4,4,0,0,0,.82-1.63,7.65,7.65,0,0,0,.22-1.84v-1Z"/><path class="cls-1" d="M241.2,207.26a6.48,6.48,0,0,1-2.77,2.43,8.82,8.82,0,0,1-3.63.74,7.74,7.74,0,0,1-3.07-.58,6.87,6.87,0,0,1-2.37-1.61,7.17,7.17,0,0,1-1.52-2.47,9.05,9.05,0,0,1-.53-3.15,8.5,8.5,0,0,1,.54-3.07,7.44,7.44,0,0,1,1.54-2.45,7.18,7.18,0,0,1,5.31-2.22,7,7,0,0,1,3,.59,6.49,6.49,0,0,1,2.18,1.57,6.61,6.61,0,0,1,1.33,2.22,7.42,7.42,0,0,1,.45,2.53v1.34H229.23a6.6,6.6,0,0,0,.24,1.56,5.4,5.4,0,0,0,.88,1.83,5.68,5.68,0,0,0,1.71,1.54,5.33,5.33,0,0,0,2.77.64,6.19,6.19,0,0,0,2.85-.7,5.18,5.18,0,0,0,2.11-1.92Zm-1.47-5.86a4.42,4.42,0,0,0-.4-1.85,5,5,0,0,0-1.09-1.52,5.28,5.28,0,0,0-1.63-1,5.2,5.2,0,0,0-2-.39,4.86,4.86,0,0,0-2.61.65,5.4,5.4,0,0,0-1.65,1.47,5.64,5.64,0,0,0-.86,1.61,4,4,0,0,0-.26,1.07Z"/><path class="cls-1" d="M246.61,206.27a4.12,4.12,0,0,0,1.79,1.81,5.34,5.34,0,0,0,2.49.62,4,4,0,0,0,1.22-.19,3.73,3.73,0,0,0,1.09-.55,2.84,2.84,0,0,0,.78-.84,2.16,2.16,0,0,0,.31-1.14,1.85,1.85,0,0,0-.66-1.54,4.9,4.9,0,0,0-1.62-.79,17.73,17.73,0,0,0-2.11-.5,9,9,0,0,1-2.11-.64,4.63,4.63,0,0,1-1.62-1.2,3.3,3.3,0,0,1-.65-2.18,3.76,3.76,0,0,1,.45-1.88,3.92,3.92,0,0,1,1.16-1.33,4.89,4.89,0,0,1,1.62-.79,6.61,6.61,0,0,1,1.82-.25,6.91,6.91,0,0,1,3.16.67,4.68,4.68,0,0,1,2.06,2.11l-1.73,1a4,4,0,0,0-1.36-1.56,3.86,3.86,0,0,0-2.13-.53,3.78,3.78,0,0,0-1.07.17,3.68,3.68,0,0,0-1,.44,2.52,2.52,0,0,0-.75.74,1.8,1.8,0,0,0-.3,1,1.72,1.72,0,0,0,.65,1.47,4.87,4.87,0,0,0,1.62.76,20.29,20.29,0,0,0,2.11.46,8.51,8.51,0,0,1,2.11.63,4.29,4.29,0,0,1,1.62,1.24,3.62,3.62,0,0,1,.66,2.32,4.31,4.31,0,0,1-.44,2,4.08,4.08,0,0,1-1.18,1.43,5.29,5.29,0,0,1-1.71.86,7,7,0,0,1-2,.29,8.19,8.19,0,0,1-3.5-.74,5.33,5.33,0,0,1-2.45-2.27Z"/><path class="cls-1" d="M268.08,197h-4.23v9.63a2.07,2.07,0,0,0,.55,1.54,2,2,0,0,0,1.5.54,4.82,4.82,0,0,0,1.11-.14,7.5,7.5,0,0,0,1.07-.37l.16,1.73c-.37.12-.78.24-1.25.35a5.55,5.55,0,0,1-1.25.16,4.47,4.47,0,0,1-1.76-.31,3.1,3.1,0,0,1-1.18-.81,3.19,3.19,0,0,1-.66-1.2,5.11,5.11,0,0,1-.21-1.49V197h-3.2v-1.73h3.2V191h1.92v4.26h4.23Z"/><path class="cls-1" d="M272.14,185.85h1.92v12h.07a5.08,5.08,0,0,1,1.92-2.09,5.55,5.55,0,0,1,3.13-.88,6.38,6.38,0,0,1,2.82.54,4.63,4.63,0,0,1,1.71,1.42,5.33,5.33,0,0,1,.86,2,11.55,11.55,0,0,1,.24,2.37V210h-1.92v-8.7a9,9,0,0,0-.16-1.74,4.31,4.31,0,0,0-.56-1.52,2.91,2.91,0,0,0-1.12-1.08,3.9,3.9,0,0,0-1.87-.4,5.59,5.59,0,0,0-2,.37,4.37,4.37,0,0,0-1.63,1.12,5.43,5.43,0,0,0-1.09,1.89,8,8,0,0,0-.4,2.67V210h-1.92Z"/><path class="cls-1" d="M303.6,207.26a6.48,6.48,0,0,1-2.77,2.43,8.82,8.82,0,0,1-3.63.74,7.83,7.83,0,0,1-3.08-.58,6.93,6.93,0,0,1-2.36-1.61,7,7,0,0,1-1.52-2.47,9.05,9.05,0,0,1-.53-3.15,8.5,8.5,0,0,1,.54-3.07,7.44,7.44,0,0,1,1.54-2.45,7.14,7.14,0,0,1,5.31-2.22,7,7,0,0,1,3,.59,6.49,6.49,0,0,1,2.18,1.57,6.77,6.77,0,0,1,1.33,2.22,7.67,7.67,0,0,1,.45,2.53v1.34H291.63a6.6,6.6,0,0,0,.24,1.56,5.4,5.4,0,0,0,.88,1.83,5.68,5.68,0,0,0,1.71,1.54,5.33,5.33,0,0,0,2.77.64,6.19,6.19,0,0,0,2.85-.7,5.18,5.18,0,0,0,2.11-1.92Zm-1.48-5.86a4.27,4.27,0,0,0-.4-1.85,5,5,0,0,0-1.08-1.52,5.28,5.28,0,0,0-1.63-1,5.2,5.2,0,0,0-2-.39,4.86,4.86,0,0,0-2.61.65,5.76,5.76,0,0,0-2.51,3.08,4,4,0,0,0-.26,1.07Z"/><path class="cls-1" d="M316.21,197H312v9.63a2.07,2.07,0,0,0,.55,1.54,2,2,0,0,0,1.5.54,4.67,4.67,0,0,0,1.1-.14,7.63,7.63,0,0,0,1.08-.37l.16,1.73c-.37.12-.78.24-1.25.35a5.55,5.55,0,0,1-1.25.16,4.47,4.47,0,0,1-1.76-.31,3,3,0,0,1-1.18-.81,3.19,3.19,0,0,1-.66-1.2,5.11,5.11,0,0,1-.21-1.49V197h-3.2v-1.73h3.2V191H312v4.26h4.23Z"/><path class="cls-1" d="M320.11,189.4a1.42,1.42,0,0,1,.41-1,1.4,1.4,0,0,1,1-.42,1.37,1.37,0,0,1,1,.42,1.46,1.46,0,0,1,0,2.05,1.36,1.36,0,0,1-1,.41,1.39,1.39,0,0,1-1-.41A1.43,1.43,0,0,1,320.11,189.4Zm.48,5.86h1.92V210h-1.92Z"/><path class="cls-1" d="M341,207.87a6.8,6.8,0,0,1-2.46,1.93,7.08,7.08,0,0,1-3,.63,8.22,8.22,0,0,1-3.13-.58,7.19,7.19,0,0,1-2.47-1.61,7.68,7.68,0,0,1-1.6-2.47,8.82,8.82,0,0,1,0-6.24,7.53,7.53,0,0,1,1.6-2.46,7.36,7.36,0,0,1,2.47-1.62,8.42,8.42,0,0,1,3.13-.57,6.86,6.86,0,0,1,3,.67,8.15,8.15,0,0,1,2.48,1.89l-1.54,1.15a6.54,6.54,0,0,0-1.82-1.46,4.56,4.56,0,0,0-2.15-.53,6.16,6.16,0,0,0-2.43.48,5.88,5.88,0,0,0-1.86,1.3,5.34,5.34,0,0,0-1.16,1.92,7.1,7.1,0,0,0,0,4.7,5.34,5.34,0,0,0,1.16,1.92,5.72,5.72,0,0,0,1.86,1.3,6,6,0,0,0,2.43.48,4.58,4.58,0,0,0,2.23-.56,5.76,5.76,0,0,0,1.74-1.49Z"/><path class="cls-1" d="M368.43,209.08a10.55,10.55,0,0,1-.8,4.45,7.13,7.13,0,0,1-2,2.63,6.56,6.56,0,0,1-2.58,1.24,10.81,10.81,0,0,1-2.49.33,11.47,11.47,0,0,1-2.2-.21,10.38,10.38,0,0,1-2-.61,8.16,8.16,0,0,1-1.74-1,6.52,6.52,0,0,1-1.36-1.31l1.5-1.41a6.06,6.06,0,0,0,2.56,2.11,8,8,0,0,0,3.27.68,6.94,6.94,0,0,0,2.48-.39,4.79,4.79,0,0,0,1.66-1,4.58,4.58,0,0,0,1-1.37,7,7,0,0,0,.55-1.5,8.67,8.67,0,0,0,.21-1.43c0-.45,0-.81,0-1.09v-2h-.07a5.86,5.86,0,0,1-2.25,2.11,7,7,0,0,1-3.35.76,7.92,7.92,0,0,1-3.07-.59,7.77,7.77,0,0,1-2.51-1.63,8,8,0,0,1-1.7-2.42,7.28,7.28,0,0,1,0-5.88,7.75,7.75,0,0,1,1.7-2.4,8.14,8.14,0,0,1,2.51-1.64,7.93,7.93,0,0,1,3.07-.6,6.88,6.88,0,0,1,3.35.77,5.79,5.79,0,0,1,2.25,2.11h.07v-2.5h1.92Zm-1.86-6.62a5.71,5.71,0,0,0-.46-2.29,6,6,0,0,0-1.25-1.85,5.74,5.74,0,0,0-1.86-1.25,5.79,5.79,0,0,0-4.57,0,5.74,5.74,0,0,0-1.86,1.25,6,6,0,0,0-1.25,1.85,5.93,5.93,0,0,0,0,4.58,6,6,0,0,0,1.25,1.85,5.74,5.74,0,0,0,1.86,1.25,5.79,5.79,0,0,0,4.57,0,5.74,5.74,0,0,0,1.86-1.25,6,6,0,0,0,1.25-1.85A5.71,5.71,0,0,0,366.57,202.46Z"/><path class="cls-1" d="M372.94,202.65a8.33,8.33,0,0,1,.57-3.12,7.4,7.4,0,0,1,1.61-2.46,7.22,7.22,0,0,1,2.46-1.62,8.43,8.43,0,0,1,3.14-.57,8.33,8.33,0,0,1,3.12.57,7.52,7.52,0,0,1,2.46,1.62,7.42,7.42,0,0,1,1.62,2.46,8.82,8.82,0,0,1,0,6.24,7.57,7.57,0,0,1-1.62,2.47,7.34,7.34,0,0,1-2.46,1.61,8.14,8.14,0,0,1-3.12.58,8.24,8.24,0,0,1-3.14-.58,7.06,7.06,0,0,1-2.46-1.61,7.54,7.54,0,0,1-1.61-2.47A8.33,8.33,0,0,1,372.94,202.65Zm1.92,0a6.75,6.75,0,0,0,.4,2.35,5.51,5.51,0,0,0,1.17,1.92,5.57,5.57,0,0,0,1.85,1.3,6.42,6.42,0,0,0,4.87,0,5.57,5.57,0,0,0,1.85-1.3,5.51,5.51,0,0,0,1.17-1.92,7.1,7.1,0,0,0,0-4.7,5.51,5.51,0,0,0-1.17-1.92,5.72,5.72,0,0,0-1.85-1.3,6.42,6.42,0,0,0-4.87,0,5.72,5.72,0,0,0-1.85,1.3,5.51,5.51,0,0,0-1.17,1.92A6.79,6.79,0,0,0,374.86,202.65Z"/><path class="cls-1" d="M404.91,203.84c0,.72,0,1.37,0,1.95s0,1.11.05,1.6,0,1,.08,1.38.08.85.15,1.27h-1.8a14.57,14.57,0,0,1-.19-2.39h-.06a5.53,5.53,0,0,1-2.07,2.11,6.44,6.44,0,0,1-3.12.67,7.4,7.4,0,0,1-1.88-.24,5,5,0,0,1-1.67-.77,3.93,3.93,0,0,1-1.66-3.38,4,4,0,0,1,.86-2.68,5.45,5.45,0,0,1,2.13-1.49,9.89,9.89,0,0,1,2.69-.64,24.22,24.22,0,0,1,2.51-.15h2.24v-.89a3.14,3.14,0,0,0-1.18-2.75,5,5,0,0,0-3-.84,6.74,6.74,0,0,0-4.51,1.67L393.39,197A6.85,6.85,0,0,1,396,195.4a9.49,9.49,0,0,1,3-.52,6.76,6.76,0,0,1,4.29,1.26,4.9,4.9,0,0,1,1.6,4.08Zm-3.84-1.22a16.26,16.26,0,0,0-2.35.16,8.65,8.65,0,0,0-2.05.54,3.81,3.81,0,0,0-1.46,1,2.4,2.4,0,0,0-.54,1.6,2.38,2.38,0,0,0,.3,1.2,2.61,2.61,0,0,0,.79.86,3.31,3.31,0,0,0,1.07.51,4.06,4.06,0,0,0,1.2.18,6.19,6.19,0,0,0,2.53-.45,4.35,4.35,0,0,0,1.58-1.17,4.12,4.12,0,0,0,.82-1.63,8.19,8.19,0,0,0,.22-1.84v-1Z"/><path class="cls-1" d="M411,185.85h1.92V210H411Z"/><path class="cls-1" d="M419,206.27a4.12,4.12,0,0,0,1.79,1.81,5.35,5.35,0,0,0,2.5.62,3.92,3.92,0,0,0,1.21-.19,3.61,3.61,0,0,0,1.09-.55,2.84,2.84,0,0,0,.78-.84,2.07,2.07,0,0,0,.31-1.14,1.85,1.85,0,0,0-.66-1.54,4.75,4.75,0,0,0-1.61-.79,17.91,17.91,0,0,0-2.12-.5,9.11,9.11,0,0,1-2.11-.64,4.51,4.51,0,0,1-1.61-1.2,3.25,3.25,0,0,1-.66-2.18,3.76,3.76,0,0,1,.45-1.88,4.06,4.06,0,0,1,1.17-1.33,4.94,4.94,0,0,1,1.61-.79,6.68,6.68,0,0,1,1.83-.25,6.9,6.9,0,0,1,3.15.67,4.68,4.68,0,0,1,2.06,2.11l-1.73,1a4,4,0,0,0-1.35-1.56,3.91,3.91,0,0,0-2.13-.53,3.78,3.78,0,0,0-1.07.17,3.55,3.55,0,0,0-1,.44,2.68,2.68,0,0,0-.76.74,1.8,1.8,0,0,0-.3,1,1.7,1.7,0,0,0,.66,1.47,4.72,4.72,0,0,0,1.61.76,20.88,20.88,0,0,0,2.11.46,8.59,8.59,0,0,1,2.12.63,4.18,4.18,0,0,1,1.61,1.24,3.62,3.62,0,0,1,.66,2.32,4.44,4.44,0,0,1-.43,2,4.22,4.22,0,0,1-1.19,1.43,5.29,5.29,0,0,1-1.71.86,7,7,0,0,1-2,.29,8.25,8.25,0,0,1-3.5-.74,5.38,5.38,0,0,1-2.45-2.27Z"/><rect class="cls-2" x="124.28" y="166.55" width="264" height="1"/><path class="cls-1" d="M37.27,111.28a36.85,36.85,0,0,1,2.41-13.5,32.93,32.93,0,0,1,6.45-11.09,28.69,28.69,0,0,1,9.46-7.4,26.74,26.74,0,0,1,11.78-2.75h5a26.63,26.63,0,0,1,11.7,2.75,28.64,28.64,0,0,1,9.63,7.4,37.08,37.08,0,0,1,6.53,11.09,39,39,0,0,1,2.33,13.5,38.52,38.52,0,0,1-2.33,13.5,37,37,0,0,1-6.53,11.1,28.61,28.61,0,0,1-9.63,7.39A26.5,26.5,0,0,1,72.36,146h-5a26.61,26.61,0,0,1-11.78-2.76,28.66,28.66,0,0,1-9.46-7.39,33.07,33.07,0,0,1-6.45-11.1A36.78,36.78,0,0,1,37.27,111.28Zm9.38,0a52.73,52.73,0,0,0,1.59,13.16,36.08,36.08,0,0,0,4.77,11,19,19,0,0,0,1.33,2,18.37,18.37,0,0,0,1.51,1.72,22.34,22.34,0,0,0,5.2,4,42.78,42.78,0,0,0,4.09,1.93c.51.12,1.06.23,1.63.34a8.82,8.82,0,0,0,1.81.18h2.58a7.63,7.63,0,0,0,1.72-.18l1.72-.34c1-.4,2.3-1.05,4-1.93a23.7,23.7,0,0,0,5.28-4c.46-.52.94-1.09,1.42-1.72s1-1.29,1.42-2a36.91,36.91,0,0,0,4.82-11,53.94,53.94,0,0,0,0-26.32,37,37,0,0,0-4.82-11c-.46-.69-.93-1.35-1.42-2s-1-1.21-1.42-1.72a23.4,23.4,0,0,0-5.28-4c-1.7-.89-3-1.53-4-1.94l-1.72-.3a11.26,11.26,0,0,0-1.72-.13H68.58a14.41,14.41,0,0,0-3.44.43,43.3,43.3,0,0,0-4.09,1.94,22.07,22.07,0,0,0-5.2,4,17.18,17.18,0,0,0-1.51,1.72,19,19,0,0,0-1.33,2,36.13,36.13,0,0,0-4.77,11A52.78,52.78,0,0,0,46.65,111.28Z"/><path class="cls-1" d="M106.76,146.28v-.6a34.27,34.27,0,0,0,4.94-.3,6.64,6.64,0,0,0,3.23-1.25,5.14,5.14,0,0,0,1.72-2.58,15.08,15.08,0,0,0,.52-4.38V86.51q0-4.73-1.68-6.49c-1.12-1.17-3.11-1.85-6-2h-2.75v-.52h32.68a34.88,34.88,0,0,1,10,1.29,20,20,0,0,1,6.88,3.7,14.51,14.51,0,0,1,3.91,5.38,17.5,17.5,0,0,1,1.33,6.92q0,7.74-5.24,12.3a18.7,18.7,0,0,1-6.88,3.7,32,32,0,0,1-10,1.37H126.37v25.11a16.6,16.6,0,0,0,.39,4A5.37,5.37,0,0,0,128,143.7a5.49,5.49,0,0,0,2.41,1.42,13.75,13.75,0,0,0,3.66.56h2.66l-.08.09v.51H106.76Zm19.61-34.65h12.38a12.51,12.51,0,0,0,7.31-2.15,13.37,13.37,0,0,0,1.94-1.77,12.06,12.06,0,0,0,1.76-2.53,18.69,18.69,0,0,0,1.72-4.69,25.68,25.68,0,0,0,.6-5.72q0-7.39-3.18-11.87Q145.38,78,138.75,78h-5.5c-2.58.29-4.37,1-5.38,2.15s-1.5,3.24-1.5,6.28v25.2Z"/><path class="cls-1" d="M224.58,95.29v-.18q-.69-2.65-1.55-5.54a19.64,19.64,0,0,0-2.54-5.38A14,14,0,0,0,215.94,80a17,17,0,0,0-7.53-2.07h-.77c-2.53.23-4.29.94-5.29,2.11s-1.51,3.26-1.51,6.24v50.82a16.77,16.77,0,0,0,.39,3.92,5.07,5.07,0,0,0,3.66,3.95,13.48,13.48,0,0,0,3.61.56h2.66v.6H181.24v-.6a34.46,34.46,0,0,0,4.94-.3,6.43,6.43,0,0,0,3.18-1.25,5.21,5.21,0,0,0,1.68-2.58,15.13,15.13,0,0,0,.52-4.38V86.34a16.57,16.57,0,0,0-.39-4,5.46,5.46,0,0,0-1.29-2.5,5.15,5.15,0,0,0-2.37-1.37,18.2,18.2,0,0,0-3.61-.61h-.51A16.78,16.78,0,0,0,175.9,80a14.65,14.65,0,0,0-4.55,4.21,18.92,18.92,0,0,0-2.58,5.38q-.87,2.88-1.47,5.54v.18h-.6V77.23h58.48V95.29Z"/><path class="cls-1" d="M237.26,145.38a6.64,6.64,0,0,0,3.23-1.25,5.2,5.2,0,0,0,1.72-2.58,15.13,15.13,0,0,0,.51-4.38V86.51c0-3.15-.55-5.31-1.67-6.49s-3.11-1.85-6-2h-2.75v-.52h29.93v.43h0V78h-3.44c-2.58.29-4.38,1-5.38,2.15s-1.5,3.24-1.5,6.28v50.82a17.21,17.21,0,0,0,.38,4,5.06,5.06,0,0,0,3.7,3.91,13.68,13.68,0,0,0,3.66.56h2.66v.6h-30v-.6A34.27,34.27,0,0,0,237.26,145.38Z"/><path class="cls-1" d="M267.84,111.28a37.06,37.06,0,0,1,2.4-13.5,33.27,33.27,0,0,1,6.45-11.09,28.79,28.79,0,0,1,9.46-7.4,26.78,26.78,0,0,1,11.79-2.75h5a26.56,26.56,0,0,1,11.7,2.75,28.55,28.55,0,0,1,9.63,7.4,36.9,36.9,0,0,1,6.54,11.09,39,39,0,0,1,2.32,13.5,38.52,38.52,0,0,1-2.32,13.5,36.83,36.83,0,0,1-6.54,11.1,28.52,28.52,0,0,1-9.63,7.39,26.44,26.44,0,0,1-11.7,2.76h-5a26.66,26.66,0,0,1-11.79-2.76,28.76,28.76,0,0,1-9.46-7.39,33.41,33.41,0,0,1-6.45-11.1A37,37,0,0,1,267.84,111.28Zm9.37,0a52.73,52.73,0,0,0,1.59,13.16,36.08,36.08,0,0,0,4.77,11,17.64,17.64,0,0,0,1.34,2,18.3,18.3,0,0,0,1.5,1.72,22.17,22.17,0,0,0,5.21,4,44,44,0,0,0,4.08,1.93c.52.12,1.06.23,1.63.34a8.89,8.89,0,0,0,1.81.18h2.58a7.63,7.63,0,0,0,1.72-.18l1.72-.34c1-.4,2.31-1.05,4-1.93a24,24,0,0,0,5.29-4c.46-.52.93-1.09,1.42-1.72s1-1.29,1.42-2a36.89,36.89,0,0,0,4.81-11,53.62,53.62,0,0,0,0-26.32,36.94,36.94,0,0,0-4.81-11c-.46-.69-.94-1.35-1.42-2s-1-1.21-1.42-1.72a23.66,23.66,0,0,0-5.29-4c-1.69-.89-3-1.53-4-1.94l-1.72-.3a11.26,11.26,0,0,0-1.72-.13h-2.58a14.47,14.47,0,0,0-3.44.43,44.56,44.56,0,0,0-4.08,1.94,21.9,21.9,0,0,0-5.21,4,17.12,17.12,0,0,0-1.5,1.72,17.64,17.64,0,0,0-1.34,2,36.13,36.13,0,0,0-4.77,11A52.78,52.78,0,0,0,277.21,111.28Z"/><path class="cls-1" d="M414.89,77.48v.61H413.6a23.83,23.83,0,0,0-3.65.38,15.7,15.7,0,0,0-4.43,1.47,10.8,10.8,0,0,0-3.74,3.13,8.82,8.82,0,0,0-1.59,5.51v57.7h-.69L348.93,83V135.1a8.91,8.91,0,0,0,1.59,5.59,10.72,10.72,0,0,0,3.74,3.14,15.81,15.81,0,0,0,4.43,1.47,23.82,23.82,0,0,0,3.66.38h1.29v.6h-30.1v-.6h1.29a23.71,23.71,0,0,0,3.65-.38,15.7,15.7,0,0,0,4.43-1.47,10.63,10.63,0,0,0,3.74-3.14,8.91,8.91,0,0,0,1.6-5.59V86.17q0-2.07-.09-3.57a5.14,5.14,0,0,0-.77-2.54,4,4,0,0,0-2.28-1.5,17,17,0,0,0-4.6-.47h-2.67v-.61h18.4l43.26,53.75V88.58a8.82,8.82,0,0,0-1.59-5.51,10.8,10.8,0,0,0-3.74-3.13,15.7,15.7,0,0,0-4.43-1.47,23.83,23.83,0,0,0-3.65-.38H384.8v-.61h30.09Z"/><path class="cls-1" d="M421.6,124.44h.69a20.69,20.69,0,0,0,.43,4,31.59,31.59,0,0,0,1.21,4.39,25.33,25.33,0,0,0,1.89,4.17,11.81,11.81,0,0,0,2.49,3.18,20.78,20.78,0,0,0,6.19,3.74,21.45,21.45,0,0,0,7.31,1.42h.78a23.87,23.87,0,0,0,7.31-1.46,14,14,0,0,0,5.84-4.91,12.71,12.71,0,0,0,2.28-6.83,13.32,13.32,0,0,0-2-7.31,17,17,0,0,0-7.05-6.24L438.11,113a31.78,31.78,0,0,1-8.6-6.06,20.55,20.55,0,0,1-4.51-6.79,15,15,0,0,1-1-6.93,16.23,16.23,0,0,1,2.06-6.45,18.88,18.88,0,0,1,4.61-5.33,23.35,23.35,0,0,1,6.58-3.7,15.12,15.12,0,0,1,3.43-.94,22.83,22.83,0,0,1,3.53-.26A20.91,20.91,0,0,1,452,78c.92.34,1.89.69,2.93,1a11.27,11.27,0,0,0,3.09.6,6.27,6.27,0,0,0,2.92-.51,5.48,5.48,0,0,0,2.41-2.32h.6V95.46h-.68a14,14,0,0,0-.56-3.79,21.52,21.52,0,0,0-1.51-3.82A23.46,23.46,0,0,0,459,84.41a19.91,19.91,0,0,0-2.41-2.71,17.39,17.39,0,0,0-5.67-3.4,19.52,19.52,0,0,0-6.71-1.16,20.19,20.19,0,0,0-3,.22,17.74,17.74,0,0,0-2.88.64,12.4,12.4,0,0,0-6.15,4.13,8.79,8.79,0,0,0-1.8,6.53q.39,3.7,3.82,7.87t10.75,8.3l9.9,5.08a25,25,0,0,1,7.48,5.89,18,18,0,0,1,3.78,7.09,15.44,15.44,0,0,1,.09,7.4,16,16,0,0,1-3.57,6.83,23.26,23.26,0,0,1-7.18,5.42,33.61,33.61,0,0,1-10.75,3.14h.17c-.46.06-.88.1-1.25.13s-.76,0-1.16,0h-.86a19.66,19.66,0,0,1-7.48-1.46v0a6.42,6.42,0,0,1-.86-.34,15.68,15.68,0,0,0-5.68-1.33,7.14,7.14,0,0,0-3.31.68,3.66,3.66,0,0,0-1.59,1.55c-.29.6-.46,1-.52,1.16v.09h-.6Z"/><path class="cls-2" d="M3.46,50.12A1.93,1.93,0,0,1,3.9,51.5c0,.5-.07,1-.07,1.62-.08,1.42-.1,3-.06,4.63s.06,3.29.06,4.87,0,3.13-.06,4.63a5.44,5.44,0,0,1-1.31,3.63h-1a4,4,0,0,1-.94-1.94,19.82,19.82,0,0,1-.44-2.82C0,64.29,0,62.38,0,60.38A53.84,53.84,0,0,1,.46,54.5c.08-.5.17-1.08.25-1.75A6.49,6.49,0,0,1,1.15,51,2,2,0,0,1,2,49.94,1.45,1.45,0,0,1,3.46,50.12Zm.62-24.24a2.88,2.88,0,0,1-1,2,1.34,1.34,0,0,1-1.43-.26,1.94,1.94,0,0,1-.5-1.18,1.49,1.49,0,0,1,.37-1.19A1.54,1.54,0,0,1,3,24.88C3.62,25.21,4,25.54,4.08,25.88Z"/><path class="cls-2" d="M35.46,70a8.7,8.7,0,0,0,2.06-2.38c.54-.91,1.1-1.83,1.69-2.74s1.14-1.84,1.68-2.76,1.07-1.83,1.57-2.74,1.16-1.59,1.75-2.5,1.2-1.84,1.87-2.76c.42-.58.83-1.18,1.25-1.81a8,8,0,0,1,1.44-1.62,3.88,3.88,0,0,1,1.81-.88,4.11,4.11,0,0,1,2.25.31,5.49,5.49,0,0,1,1.44,3.07,30.61,30.61,0,0,1,.37,4.06c0,1.42.11,2.83.19,4.25a9.18,9.18,0,0,0,.88,3.62,7.1,7.1,0,0,0,2.56-2.18c.71-1,1.39-1.9,2.06-2.82s1.31-2,1.94-3.06a21.24,21.24,0,0,0,1.56-3.18,8.27,8.27,0,0,0,1.06-2.19A1.64,1.64,0,0,1,67,50.62a2.15,2.15,0,0,1-.13,2.32A5.41,5.41,0,0,0,66,55.25c-.42.75-.8,1.48-1.13,2.19s-.67,1.44-1,2.18a24.48,24.48,0,0,0-2.5,3.76A12.86,12.86,0,0,1,58.46,67a4.55,4.55,0,0,1-1.57,1,4.15,4.15,0,0,1-2.31.12,4.45,4.45,0,0,1-2.31-2.31,12.86,12.86,0,0,1-.94-3.62,35.77,35.77,0,0,1-.25-4.38,23.38,23.38,0,0,0-.37-4.31,2.33,2.33,0,0,0-1.07.94,15.44,15.44,0,0,1-.93,1.31q-1.38,1.88-2.69,4c-.88,1.42-1.69,2.83-2.44,4.25a39.77,39.77,0,0,0-3.31,5.56A10.38,10.38,0,0,1,36,74.12a5.5,5.5,0,0,0-.88.07,2.82,2.82,0,0,1-1-.07,8.06,8.06,0,0,1-1.25-.62,11.21,11.21,0,0,1-1.69-5.69Q31,64.38,31,60.75c0-2.42-.05-4.83-.13-7.25s-.21-4.71-.37-6.88a70.79,70.79,0,0,0-4.63,10.76c-1.33,3.91-2.62,8-3.87,12.24q-1.26,4.5-2.32,9.26c-.7,3.16-1.48,6.41-2.31,9.74l-.5,2.26a10,10,0,0,1-.69,2.06A4.48,4.48,0,0,1,15,94.5a3.57,3.57,0,0,1-2,.75,2.53,2.53,0,0,1-2.25-1.81A21.19,21.19,0,0,1,10,90.12a60.4,60.4,0,0,1,0-10.93q.49-5.82,1.12-11.07c.42-3.5.92-7,1.5-10.56s1.25-6.94,2-10.18c.25-1,.52-2.05.81-3.13a2.42,2.42,0,0,1,2.19-1.87,1.86,1.86,0,0,1,1.44.24,2.71,2.71,0,0,1,.69,1,6.29,6.29,0,0,1-.13,2.76,6.05,6.05,0,0,0-.12,2.74,8.61,8.61,0,0,0,.5,2.13,3.27,3.27,0,0,1,.12,2,.86.86,0,0,1-.81.5,1.31,1.31,0,0,1-.94-.37q-1,6.36-1.87,12.62T15.21,79.25q2.12-7.25,4.5-15.13t5.25-15c.25-.58.58-1.39,1-2.43a14.78,14.78,0,0,1,1.56-2.94,7.29,7.29,0,0,1,2.12-2.13,2.59,2.59,0,0,1,2.69,0,3.34,3.34,0,0,1,1.69,2A16,16,0,0,1,34.83,47a29.22,29.22,0,0,1,.25,3.94c0,1.37,0,2.6.13,3.68a65.7,65.7,0,0,1,0,7.94A36,36,0,0,0,35.46,70Z"/><path class="cls-2" d="M67.08,77.88q3.26-7.75,7-14.88a39.56,39.56,0,0,1,9.75-12.12l1.19-.5a11.73,11.73,0,0,1,1.31-.5A4.18,4.18,0,0,1,90.08,51a6.83,6.83,0,0,1,1.63,3.44,11.61,11.61,0,0,1-.07,4.31,16.87,16.87,0,0,1-1.18,3.87,35.34,35.34,0,0,0,4.75-3.12c1.5-1.17,3.08-2.29,4.75-3.38q1.74-1.24,3.56-2.5t3.69-2.5a10.17,10.17,0,0,0,1.37-.68,1.22,1.22,0,0,1,1.5.18,1.16,1.16,0,0,1-.37,1.63c-.59.42-1.09.79-1.5,1.13Q103,57,98.08,60.69T88.08,68a41.71,41.71,0,0,1-3,4.69,38.23,38.23,0,0,1-3.62,4.19c-.5.41-1.11,1-1.82,1.68s-1.43,1.38-2.18,2A16.79,16.79,0,0,1,75,82.25a6.44,6.44,0,0,1-2.56.87c-1.84.26-2.84-.37-3-1.87a3,3,0,0,1,.68-2.63A24,24,0,0,1,72,76.88c.66-.67,1.27-1.26,1.81-1.76s1.1-1,1.69-1.5a41.13,41.13,0,0,0,4-2.93,41.65,41.65,0,0,1,4-2.94c.58-.92,1.18-2,1.81-3.19s1.19-2.44,1.69-3.68c.16-.59.35-1.26.56-2A15,15,0,0,0,88,56.62a7.1,7.1,0,0,0-.07-2.12A3.23,3.23,0,0,0,87,52.75a6.84,6.84,0,0,0-4.38,2.06,44.21,44.21,0,0,0-3.12,3.57,54.57,54.57,0,0,0-6.25,10.06A106.46,106.46,0,0,0,68.46,80c-.34.83-.65,1.65-.94,2.44a16.63,16.63,0,0,0-.69,2.44,26.16,26.16,0,0,0-.37,4.56c0,1.62,0,3.23-.13,4.81-.17,3.17-.33,6.33-.5,9.5s-.37,6.37-.62,9.63c-.09.74-.15,1.51-.19,2.31a17.39,17.39,0,0,1-.25,2.19,4.9,4.9,0,0,1-.75,1.81,3.34,3.34,0,0,1-1.56,1.19h-.38a2.11,2.11,0,0,1-1.94-2.07c-.12-1.21-.18-2.39-.18-3.56a58.45,58.45,0,0,1,.18-7.19q.31-3.44.82-6.94c.16-1.08.37-2.16.62-3.24s.46-2.17.63-3.26a54,54,0,0,0,.37-6.43c0-2.21.09-4.31.25-6.31q.51-8,.94-15.76t.94-15.87V48.19A18.54,18.54,0,0,1,64.83,46a4.68,4.68,0,0,1,.56-1.75,1.53,1.53,0,0,1,1.44-.75,1.48,1.48,0,0,1,1.44.94,6.74,6.74,0,0,1,.56,2.25,15.78,15.78,0,0,1,0,2.75c-.08,1-.12,1.77-.12,2.44q-.51,6.49-.94,13.06T67.08,77.88Z"/><path class="cls-2" d="M114.21.12l.12-.12a2,2,0,0,1,2.25,1.62,13.53,13.53,0,0,1,.38,3,55.28,55.28,0,0,1-.44,10.19c-.46,3.3-.86,6.52-1.19,9.69q-.63,6.49-1.25,13.19T113,51.12q-.75,11.88-1.63,23.69A222.35,222.35,0,0,0,111,99.75a15,15,0,0,0,.12,1.75,16.34,16.34,0,0,1,.13,1.94,5.49,5.49,0,0,1-.25,1.68,1,1,0,0,1-1,.76,1.78,1.78,0,0,1-2.19-1.5,20.46,20.46,0,0,1-.56-3.26c-.17-1.33-.27-2.62-.32-3.87s-.1-2.37-.18-3.37q.12-3.75,0-7.44c-.09-2.46-.09-4.82,0-7.06q.12-18.13,1.5-34.44t3.5-32.69l.75-6.37a25.53,25.53,0,0,0,.31-3.07A4.17,4.17,0,0,1,113.83.12Z"/><path class="cls-2" d="M139.46,48.38q-2.39,3.12-4.63,6.74c-1.5,2.42-3,4.76-4.5,7-1.08,1.59-2.21,3.3-3.37,5.13a25.48,25.48,0,0,1-4,4.87,9.09,9.09,0,0,1-1.75,1.57,2.74,2.74,0,0,1-2.38.31,3.39,3.39,0,0,1-1.75-2.75,38.7,38.7,0,0,1,2.31-10.87,50.8,50.8,0,0,1,4.44-9.26c.58-.91,1.23-1.83,1.94-2.74a6.77,6.77,0,0,1,2.31-2,3.58,3.58,0,0,1,4.19.18c1.21,1,1.64,2.48,1.31,4.56a6.7,6.7,0,0,0,1.44-2c.54-1,1.12-2,1.75-3.06a20.35,20.35,0,0,1,2-2.81A3.47,3.47,0,0,1,141,41.88a2.86,2.86,0,0,1,.87.12l.75.25a5.68,5.68,0,0,1,1.25,2.37c-.17,5-.5,9.74-1,14.19S142,68,141.71,73v2.25c0,.92-.05,1.83-.13,2.75a12.4,12.4,0,0,1-.44,2.44c-.21.71-.56,1.06-1.06,1.06a1.41,1.41,0,0,1-1.31-.81,6.45,6.45,0,0,1-.63-2,16.29,16.29,0,0,1-.18-2.44,13.05,13.05,0,0,0-.13-2A70.42,70.42,0,0,1,138.08,61Q138.83,54.51,139.46,48.38Zm-9,.24c0-.08-.05-.12-.13-.12a3.62,3.62,0,0,0-.69.31,3,3,0,0,1-.68.31,27,27,0,0,0-3.13,4.44,52.83,52.83,0,0,0-2.5,5.06c-.67,1.76-1.31,3.61-1.94,5.57a27.26,27.26,0,0,0-1.18,6.31,44.23,44.23,0,0,0,6.31-8.06q2.8-4.56,5.69-8.94a5,5,0,0,1-.63-2.69A2.14,2.14,0,0,0,130.46,48.62Z"/><path class="cls-2" d="M156.46,69.38q2.49-4.75,5-9.69a45.89,45.89,0,0,1,5.87-8.94c.33-.42.75-.92,1.25-1.5a9.19,9.19,0,0,1,1.63-1.5,5.2,5.2,0,0,1,1.93-.87,3.83,3.83,0,0,1,2.32.24c1.25.59,2.16,1.88,2.75,3.88s1.08,4,1.5,6c.16.92.35,1.88.56,2.88s.44,2,.69,3a20.69,20.69,0,0,0,1,2.81,2.65,2.65,0,0,0,1.5,1.69,2.09,2.09,0,0,0,1.87-.44,12.75,12.75,0,0,1,1.5-1.06c.5-.42,1-.77,1.38-1.07a9.66,9.66,0,0,0,1.25-1.06,54.19,54.19,0,0,0,5.25-5.25A64.49,64.49,0,0,1,199,53.12a20.85,20.85,0,0,1,2.18-1.43,3.21,3.21,0,0,1,1.5-.44c.46,0,.73.29.82.87s-.19.92-.82,1.26a5.8,5.8,0,0,0-1.43,1,30.38,30.38,0,0,0-3.5,3.56c-1.17,1.37-2.42,2.77-3.75,4.18-.67.67-1.32,1.3-1.94,1.88s-1.27,1.21-1.94,1.88q-1.62,1.62-3.5,3.18a7.3,7.3,0,0,1-4.87,1.56l-.57-.24a1.68,1.68,0,0,0-.68-.13,7.74,7.74,0,0,1-3.07-3.87,40.85,40.85,0,0,1-1.56-5.32c-.42-1.87-.81-3.75-1.19-5.62a17.25,17.25,0,0,0-1.81-5.06,7.36,7.36,0,0,0-3.25,2.81,38.94,38.94,0,0,1-2.5,3.56,58.2,58.2,0,0,0-4.25,7.75Q161,68.63,159.21,73a7.49,7.49,0,0,0-.88,1.94,22.85,22.85,0,0,1-.87,2.31,6.52,6.52,0,0,1-1.32,1.94,2.3,2.3,0,0,1-2.18.56,2.06,2.06,0,0,1-1.69-1.31,7.67,7.67,0,0,1-.69-2.75,31,31,0,0,1-.06-3.38c0-1.2.1-2.31.19-3.31q.49-6,1.37-11.69a69.42,69.42,0,0,1,2.38-10.43c.33-.92.62-1.76.87-2.5A1.75,1.75,0,0,1,158,43.12a1.42,1.42,0,0,1,1.56.69,3.65,3.65,0,0,1,.37,1.94,13.66,13.66,0,0,1-.37,2.44c-.21.87-.36,1.6-.44,2.19q-.87,4.74-1.5,9.5T156.46,69.38Z"/><path class="cls-2" d="M208.2,34.62q10.76-.36,22.38-1.12a165.12,165.12,0,0,1,23.12.12c.42,0,.88,0,1.38.07a1.08,1.08,0,0,1,1,.69c-.08.66-.4,1-.94,1a7.69,7.69,0,0,1-1.44-.13,225.52,225.52,0,0,0-23.12.19q-11.51.69-22.63,1.31Q206.21,47,204.77,57.62a153.92,153.92,0,0,0-1.32,22.26c0,1.08.05,2.29.13,3.62a25.17,25.17,0,0,0,.5,3.75c.17.92.44,2,.81,3.37s.94,2,1.69,2.13a1.67,1.67,0,0,0,1.31-.37,13.29,13.29,0,0,0,1.38-1.19,15.34,15.34,0,0,0,1.25-1.44c.37-.5.64-.87.81-1.13a121.89,121.89,0,0,0,8.94-13.31q3.93-6.81,8.31-14.19,1.13-2,2.37-4.12c.84-1.42,1.75-2.83,2.75-4.25a12.76,12.76,0,0,1,1.13-1.44,1.09,1.09,0,0,1,1.25-.43c.67.33.79.85.37,1.56a15.84,15.84,0,0,1-1,1.56q-3.12,5.25-5.87,10.62T223.7,75.25c-1.16,1.92-2.31,3.86-3.43,5.81S218,85,216.7,86.88s-2.54,3.79-3.87,5.62a13.37,13.37,0,0,1-5.13,4.25,6.79,6.79,0,0,1-2.62,0,7.76,7.76,0,0,1-4.31-4.69A34,34,0,0,1,199.08,85a53.42,53.42,0,0,1-.63-8.31c0-2.88.09-5.69.25-8.44q.63-8.37,1.69-16.19T203,37.12q-5.74.26-11.68.88t-12.07.88q-.75,0-1.68.06c-.63,0-1-.27-1.07-.94a.89.89,0,0,1,1-1,11.18,11.18,0,0,0,1.75-.12q5.88-.39,12-1T203.33,35q.75-2.62,1.69-6.19a50.42,50.42,0,0,1,2.18-6.56,9.61,9.61,0,0,1,.94-2.06A2,2,0,0,1,209.83,19a1.31,1.31,0,0,1,1.19.5,1.93,1.93,0,0,1,.25,1.19,11.32,11.32,0,0,1-.25,1.43c-.13.5-.23,1-.32,1.38q-.62,2.74-1.25,5.69T208.2,34.62Z"/></g></g></svg>