<svg xmlns="http://www.w3.org/2000/svg" viewBox="0 0 495.56 180.7"><defs><style>.cls-1{fill:none;stroke:#f5831f;}.cls-2{fill:#153a49;}.cls-3{fill:#f5831f;}.cls-4{fill:#54575a;}</style></defs><g id="Layer_2" data-name="Layer 2"><g id="Layer_1-2" data-name="Layer 1"><line class="cls-1" x1="153.28" y1="180.2" x2="417.28" y2="180.2"/><path class="cls-2" d="M66.28,124.43a36.81,36.81,0,0,1,2.41-13.5,33.07,33.07,0,0,1,6.45-11.1,28.56,28.56,0,0,1,9.46-7.39,26.61,26.61,0,0,1,11.78-2.76h5a26.43,26.43,0,0,1,11.69,2.76,28.52,28.52,0,0,1,9.63,7.39,37,37,0,0,1,6.54,11.1,39,39,0,0,1,2.32,13.5,38.56,38.56,0,0,1-2.32,13.5A36.9,36.9,0,0,1,122.69,149a28.42,28.42,0,0,1-9.63,7.4,26.55,26.55,0,0,1-11.69,2.75h-5a26.74,26.74,0,0,1-11.78-2.75,28.59,28.59,0,0,1-9.46-7.4,32.93,32.93,0,0,1-6.45-11.09A36.85,36.85,0,0,1,66.28,124.43Zm9.37,0a52.78,52.78,0,0,0,1.59,13.16,35.91,35.91,0,0,0,4.78,11,17.55,17.55,0,0,0,1.33,2,17.12,17.12,0,0,0,1.5,1.72,21.9,21.9,0,0,0,5.21,4,42,42,0,0,0,4.08,1.94c.52.11,1.06.23,1.64.34a8.73,8.73,0,0,0,1.8.17h2.58a7.6,7.6,0,0,0,1.72-.17c.52-.11,1.09-.23,1.72-.34,1-.4,2.31-1,4-1.94a23.66,23.66,0,0,0,5.29-4c.46-.51.93-1.09,1.42-1.72s1-1.29,1.42-2a36.94,36.94,0,0,0,4.81-11,53.62,53.62,0,0,0,0-26.32,36.89,36.89,0,0,0-4.81-11c-.46-.69-.93-1.34-1.42-2s-1-1.2-1.42-1.72a24,24,0,0,0-5.29-4c-1.69-.88-3-1.53-4-1.93-.63-.11-1.2-.22-1.72-.3a10,10,0,0,0-1.72-.13H97.58a14,14,0,0,0-3.44.43,44,44,0,0,0-4.08,1.93,22.17,22.17,0,0,0-5.21,4,18.3,18.3,0,0,0-1.5,1.72,18.5,18.5,0,0,0-1.33,2,35.86,35.86,0,0,0-4.78,11A52.73,52.73,0,0,0,75.65,124.43Z"/><path class="cls-2" d="M135.77,159.43v-.6a34.46,34.46,0,0,0,4.94-.3,6.78,6.78,0,0,0,3.23-1.25,5.2,5.2,0,0,0,1.72-2.58,15.21,15.21,0,0,0,.51-4.39V99.66c0-3.15-.56-5.32-1.68-6.49s-3.11-1.85-6-2h-2.75v-.52h32.67a34.83,34.83,0,0,1,10,1.29,19.65,19.65,0,0,1,6.88,3.7,14.55,14.55,0,0,1,3.91,5.37,17.55,17.55,0,0,1,1.34,6.93q0,7.74-5.25,12.29a18.48,18.48,0,0,1-6.88,3.7,31.68,31.68,0,0,1-10,1.38H155.37V150.4a16.66,16.66,0,0,0,.39,4,5.47,5.47,0,0,0,1.29,2.49,5.56,5.56,0,0,0,2.41,1.42,14.52,14.52,0,0,0,3.65.56h2.67l-.09.08v.52H135.77Zm19.6-34.66h12.39a12.46,12.46,0,0,0,7.31-2.15,13.22,13.22,0,0,0,1.93-1.76,12.16,12.16,0,0,0,1.77-2.54,18.54,18.54,0,0,0,1.71-4.69,24.94,24.94,0,0,0,.61-5.71q0-7.4-3.18-11.87-3.54-4.9-10.15-4.9h-5.51q-3.87.42-5.37,2.15c-1,1.14-1.51,3.24-1.51,6.27v25.2Z"/><path class="cls-2" d="M253.58,108.43v-.17c-.45-1.78-1-3.63-1.54-5.55a19.74,19.74,0,0,0-2.54-5.37,14.18,14.18,0,0,0-4.56-4.22,17.18,17.18,0,0,0-7.52-2.06h-.78q-3.78.34-5.29,2.11t-1.5,6.23v50.83a16.67,16.67,0,0,0,.39,3.91,5.33,5.33,0,0,0,1.29,2.54,5.62,5.62,0,0,0,2.36,1.42,14,14,0,0,0,3.61.56h2.67v.6H210.24v-.6a33,33,0,0,0,4.95-.31,6.5,6.5,0,0,0,3.18-1.24,5.26,5.26,0,0,0,1.67-2.58,14.82,14.82,0,0,0,.52-4.39V99.49a16.6,16.6,0,0,0-.39-4,5,5,0,0,0-3.65-3.87,19.18,19.18,0,0,0-3.61-.6h-.52a16.83,16.83,0,0,0-7.48,2.06,14.83,14.83,0,0,0-4.56,4.22,18.74,18.74,0,0,0-2.58,5.37q-.86,2.88-1.46,5.55v.17h-.6V90.37h58.48v18.06Z"/><path class="cls-2" d="M266.27,158.53a6.7,6.7,0,0,0,3.22-1.25,5.08,5.08,0,0,0,1.72-2.58,14.82,14.82,0,0,0,.52-4.39V99.66c0-3.15-.56-5.32-1.68-6.49s-3.11-1.85-6-2h-2.76v-.52h29.93v.43h0v.09h-3.44q-3.87.42-5.37,2.15c-1,1.14-1.51,3.24-1.51,6.27V150.4a16.66,16.66,0,0,0,.39,4,5.47,5.47,0,0,0,1.29,2.49,5.56,5.56,0,0,0,2.41,1.42,14.52,14.52,0,0,0,3.65.56h2.67v.6h-30v-.6A34.52,34.52,0,0,0,266.27,158.53Z"/><path class="cls-2" d="M296.84,124.43a36.81,36.81,0,0,1,2.41-13.5,33.07,33.07,0,0,1,6.45-11.1,28.66,28.66,0,0,1,9.46-7.39,26.61,26.61,0,0,1,11.78-2.76h5a26.5,26.5,0,0,1,11.7,2.76,28.61,28.61,0,0,1,9.63,7.39,37.13,37.13,0,0,1,6.53,11.1,39,39,0,0,1,2.32,13.5,38.56,38.56,0,0,1-2.32,13.5A37.08,37.08,0,0,1,353.26,149a28.52,28.52,0,0,1-9.63,7.4,26.63,26.63,0,0,1-11.7,2.75h-5a26.74,26.74,0,0,1-11.78-2.75,28.69,28.69,0,0,1-9.46-7.4,32.93,32.93,0,0,1-6.45-11.09A36.85,36.85,0,0,1,296.84,124.43Zm9.38,0a52.32,52.32,0,0,0,1.59,13.16,36.13,36.13,0,0,0,4.77,11,17.55,17.55,0,0,0,1.33,2,17.18,17.18,0,0,0,1.51,1.72,21.87,21.87,0,0,0,5.2,4,40.92,40.92,0,0,0,4.09,1.94l1.63.34a8.76,8.76,0,0,0,1.81.17h2.58a7.57,7.57,0,0,0,1.71-.17c.52-.11,1.09-.23,1.73-.34,1-.4,2.3-1,4-1.94a23.43,23.43,0,0,0,5.29-4c.46-.51.93-1.09,1.42-1.72s1-1.29,1.42-2a37,37,0,0,0,4.82-11,53.94,53.94,0,0,0,0-26.32,36.91,36.91,0,0,0-4.82-11c-.46-.69-.93-1.34-1.42-2s-1-1.2-1.42-1.72a23.74,23.74,0,0,0-5.29-4c-1.69-.88-3-1.53-4-1.93-.64-.11-1.21-.22-1.73-.3a10,10,0,0,0-1.71-.13h-2.58a13.92,13.92,0,0,0-3.44.43,42.78,42.78,0,0,0-4.09,1.93,22.13,22.13,0,0,0-5.2,4,18.13,18.13,0,0,0-2.84,3.7,36.08,36.08,0,0,0-4.77,11A52.27,52.27,0,0,0,306.22,124.43Z"/><path class="cls-2" d="M443.81,90.63v.6h-1.29a22.83,22.83,0,0,0-3.65.39,15.68,15.68,0,0,0-4.43,1.46,10.83,10.83,0,0,0-3.74,3.14,8.79,8.79,0,0,0-1.59,5.5v57.71h-.69l-50.57-63.3v52.12a9,9,0,0,0,1.59,5.59,10.83,10.83,0,0,0,3.74,3.14,15.78,15.78,0,0,0,4.43,1.46,22.83,22.83,0,0,0,3.66.39h1.29v.6h-30.1v-.6h1.29a22.83,22.83,0,0,0,3.65-.39,15.68,15.68,0,0,0,4.43-1.46,10.83,10.83,0,0,0,3.74-3.14,9,9,0,0,0,1.59-5.59V99.32c0-1.38,0-2.57-.08-3.57a5,5,0,0,0-.78-2.54A4,4,0,0,0,374,91.7a17.29,17.29,0,0,0-4.6-.47h-2.66v-.6h18.4l43.26,53.75V101.72a8.79,8.79,0,0,0-1.59-5.5,10.83,10.83,0,0,0-3.74-3.14,15.78,15.78,0,0,0-4.43-1.46,22.83,22.83,0,0,0-3.66-.39h-1.29v-.6h30.1Z"/><path class="cls-2" d="M450.52,137.59h.69a20.6,20.6,0,0,0,.43,4,30.79,30.79,0,0,0,1.2,4.39,27.11,27.11,0,0,0,1.89,4.17,12,12,0,0,0,2.5,3.18,20.37,20.37,0,0,0,6.19,3.74,21.17,21.17,0,0,0,7.31,1.42h.77a23.52,23.52,0,0,0,7.31-1.46,13.94,13.94,0,0,0,5.85-4.9,12.88,12.88,0,0,0,2.28-6.84,13.36,13.36,0,0,0-2-7.31,17.1,17.1,0,0,0-7.05-6.23L467,126.15a31.86,31.86,0,0,1-8.6-6.07,20.45,20.45,0,0,1-4.51-6.79,15,15,0,0,1-1-6.92A16.07,16.07,0,0,1,455,99.92a18.73,18.73,0,0,1,4.6-5.33,23.49,23.49,0,0,1,6.58-3.7,15.24,15.24,0,0,1,3.44-1,24,24,0,0,1,3.53-.26,20.8,20.8,0,0,1,7.74,1.47c.91.34,1.89.68,2.92,1a12.14,12.14,0,0,0,3.1.6,6.17,6.17,0,0,0,2.92-.52,5.43,5.43,0,0,0,2.41-2.32h.6V108.6h-.69a14,14,0,0,0-.55-3.78,21.62,21.62,0,0,0-1.51-3.83,23.46,23.46,0,0,0-2.15-3.44,21.27,21.27,0,0,0-2.41-2.71,17.19,17.19,0,0,0-5.67-3.39,19.32,19.32,0,0,0-6.71-1.16,21.4,21.4,0,0,0-3,.21,17.75,17.75,0,0,0-2.88.65,12.34,12.34,0,0,0-6.15,4.12,8.83,8.83,0,0,0-1.8,6.54c.25,2.47,1.53,5.09,3.82,7.87s5.88,5.55,10.75,8.3l9.89,5.07a24.94,24.94,0,0,1,7.48,5.89,18,18,0,0,1,3.79,7.1,15.27,15.27,0,0,1,.08,7.39,15.88,15.88,0,0,1-3.56,6.84,23.47,23.47,0,0,1-7.19,5.42,33.79,33.79,0,0,1-10.75,3.14h.18c-.46.06-.88.1-1.25.13s-.76,0-1.16,0h-.86a19.81,19.81,0,0,1-7.48-1.46v0a5.82,5.82,0,0,1-.86-.35,15.93,15.93,0,0,0-5.68-1.33,7.23,7.23,0,0,0-3.31.69,3.56,3.56,0,0,0-1.59,1.55c-.29.6-.46,1-.52,1.16v.08h-.6Z"/><path class="cls-3" d="M161.66,50.12a1.93,1.93,0,0,1,.44,1.38c0,.5-.07,1-.07,1.62-.08,1.42-.1,3-.06,4.63S162,61,162,62.62s0,3.13-.06,4.63a5.44,5.44,0,0,1-1.31,3.63h-1a4,4,0,0,1-.94-1.94,19.82,19.82,0,0,1-.44-2.82c-.08-1.83-.1-3.74-.06-5.74a53.84,53.84,0,0,1,.44-5.88c.08-.5.17-1.08.25-1.75a6.49,6.49,0,0,1,.44-1.75,2.09,2.09,0,0,1,.87-1.06A1.45,1.45,0,0,1,161.66,50.12Zm.62-24.24a2.84,2.84,0,0,1-1,2,1.34,1.34,0,0,1-1.43-.26,2,2,0,0,1-.5-1.18,1.4,1.4,0,0,1,1.81-1.56C161.82,25.21,162.2,25.54,162.28,25.88Z"/><path class="cls-3" d="M193.66,70a8.7,8.7,0,0,0,2.06-2.38c.54-.91,1.1-1.83,1.69-2.74s1.14-1.84,1.69-2.76,1.06-1.83,1.56-2.74,1.16-1.59,1.75-2.5,1.21-1.84,1.87-2.76c.42-.58.84-1.18,1.25-1.81A8,8,0,0,1,207,50.69a3.93,3.93,0,0,1,1.81-.88,4.11,4.11,0,0,1,2.25.31,5.49,5.49,0,0,1,1.44,3.07,32.35,32.35,0,0,1,.38,4.06c0,1.42.1,2.83.18,4.25a9.35,9.35,0,0,0,.88,3.62,7.1,7.1,0,0,0,2.56-2.18c.71-1,1.4-1.9,2.06-2.82s1.32-2,1.94-3.06A19.48,19.48,0,0,0,222,53.88a8.59,8.59,0,0,0,1.07-2.19c.29-.88,1-1.23,2.06-1.07a2.15,2.15,0,0,1-.13,2.32,5.41,5.41,0,0,0-.87,2.31c-.42.75-.79,1.48-1.13,2.19l-1,2.18a25.24,25.24,0,0,0-2.5,3.76A12.86,12.86,0,0,1,216.66,67a4.6,4.6,0,0,1-1.56,1,4.19,4.19,0,0,1-2.32.12,4.45,4.45,0,0,1-2.31-2.31,12.86,12.86,0,0,1-.94-3.62,37.87,37.87,0,0,1-.25-4.38,23.38,23.38,0,0,0-.37-4.31,2.26,2.26,0,0,0-1.06.94c-.3.46-.61.89-.94,1.31-.92,1.25-1.81,2.58-2.69,4s-1.69,2.83-2.44,4.25a39.77,39.77,0,0,0-3.31,5.56,10.38,10.38,0,0,1-4.31,4.56,5.5,5.5,0,0,0-.88.07,2.82,2.82,0,0,1-1-.07A8.53,8.53,0,0,1,191,73.5a11.12,11.12,0,0,1-1.68-5.69q-.19-3.44-.19-7.06c0-2.42,0-4.83-.13-7.25s-.21-4.71-.37-6.88A71.81,71.81,0,0,0,184,57.38c-1.33,3.91-2.62,8-3.87,12.24q-1.26,4.5-2.31,9.26t-2.32,9.74c-.16.76-.33,1.5-.5,2.26a10,10,0,0,1-.68,2.06,4.63,4.63,0,0,1-1.19,1.56,3.57,3.57,0,0,1-2,.75,2.53,2.53,0,0,1-2.25-1.81,21.19,21.19,0,0,1-.75-3.32,60.4,60.4,0,0,1,0-10.93q.5-5.82,1.12-11.07c.42-3.5.92-7,1.5-10.56s1.25-6.94,2-10.18c.25-1,.52-2.05.82-3.13a2.41,2.41,0,0,1,2.18-1.87,1.86,1.86,0,0,1,1.44.24,2.71,2.71,0,0,1,.69,1,6.29,6.29,0,0,1-.13,2.76,6.05,6.05,0,0,0-.12,2.74,8.61,8.61,0,0,0,.5,2.13,3.27,3.27,0,0,1,.12,2,.84.84,0,0,1-.81.5,1.32,1.32,0,0,1-.94-.37q-1,6.36-1.87,12.62t-1.25,13.25q2.11-7.25,4.5-15.13t5.25-15c.25-.58.58-1.39,1-2.43a15.32,15.32,0,0,1,1.56-2.94,7.31,7.31,0,0,1,2.13-2.13,2.57,2.57,0,0,1,2.68,0,3.31,3.31,0,0,1,1.69,2A14.82,14.82,0,0,1,193,47a29.22,29.22,0,0,1,.25,3.94c0,1.37,0,2.6.13,3.68a65.7,65.7,0,0,1,0,7.94A36,36,0,0,0,193.66,70Z"/><path class="cls-3" d="M225.28,77.88q3.25-7.75,7-14.88A39.56,39.56,0,0,1,242,50.88l1.19-.5a11.73,11.73,0,0,1,1.31-.5A4.18,4.18,0,0,1,248.28,51a6.83,6.83,0,0,1,1.63,3.44,11.4,11.4,0,0,1-.07,4.31,16.87,16.87,0,0,1-1.18,3.87,35.34,35.34,0,0,0,4.75-3.12c1.5-1.17,3.08-2.29,4.75-3.38q1.74-1.24,3.56-2.5t3.69-2.5a10.17,10.17,0,0,0,1.37-.68,1.22,1.22,0,0,1,1.5.18,1.16,1.16,0,0,1-.37,1.63c-.59.42-1.09.79-1.5,1.13q-5.25,3.61-10.13,7.31t-10,7.31a41.71,41.71,0,0,1-3,4.69,38.23,38.23,0,0,1-3.62,4.19c-.5.41-1.11,1-1.82,1.68a29.16,29.16,0,0,1-2.18,2,16.79,16.79,0,0,1-2.44,1.69,6.44,6.44,0,0,1-2.56.87c-1.84.26-2.84-.37-3-1.87a3,3,0,0,1,.68-2.63,24,24,0,0,1,1.82-1.74c.66-.67,1.27-1.26,1.81-1.76s1.1-1,1.69-1.5a41.13,41.13,0,0,0,4-2.93,41.65,41.65,0,0,1,4-2.94c.58-.92,1.18-2,1.81-3.19s1.19-2.44,1.69-3.68c.16-.59.35-1.26.56-2a15,15,0,0,0,.44-2.26,7.1,7.1,0,0,0-.07-2.12,3.23,3.23,0,0,0-.93-1.75,6.84,6.84,0,0,0-4.38,2.06,44.21,44.21,0,0,0-3.12,3.57,54.57,54.57,0,0,0-6.25,10.06A106.46,106.46,0,0,0,226.66,80c-.34.83-.65,1.65-.94,2.44a16.63,16.63,0,0,0-.69,2.44,26.16,26.16,0,0,0-.37,4.56c0,1.62,0,3.23-.13,4.81-.17,3.17-.33,6.33-.5,9.5s-.37,6.37-.62,9.63c-.08.74-.15,1.51-.19,2.31a17.39,17.39,0,0,1-.25,2.19,4.9,4.9,0,0,1-.75,1.81,3.29,3.29,0,0,1-1.56,1.19h-.38a2.11,2.11,0,0,1-1.94-2.07c-.12-1.21-.18-2.39-.18-3.56a60.49,60.49,0,0,1,.18-7.19c.21-2.29.49-4.6.82-6.94.17-1.08.37-2.16.62-3.24s.46-2.17.63-3.26a54,54,0,0,0,.37-6.43c0-2.21.09-4.31.25-6.31q.51-8,.94-15.76t.94-15.87V48.19A18.54,18.54,0,0,1,223,46a4.68,4.68,0,0,1,.56-1.75A1.54,1.54,0,0,1,225,43.5a1.48,1.48,0,0,1,1.44.94,6.74,6.74,0,0,1,.56,2.25,15.78,15.78,0,0,1,0,2.75c-.08,1-.12,1.77-.12,2.44q-.51,6.49-.94,13.06T225.28,77.88Z"/><path class="cls-3" d="M272.41.12l.12-.12a2,2,0,0,1,2.25,1.62,13.53,13.53,0,0,1,.38,3,55.28,55.28,0,0,1-.44,10.19c-.46,3.3-.86,6.52-1.19,9.69q-.63,6.49-1.25,13.19t-1.12,13.43q-.75,11.88-1.63,23.69a222.35,222.35,0,0,0-.37,24.94,15,15,0,0,0,.12,1.75,16.34,16.34,0,0,1,.13,1.94,5.49,5.49,0,0,1-.25,1.68,1,1,0,0,1-1,.76,1.78,1.78,0,0,1-2.19-1.5,20.46,20.46,0,0,1-.56-3.26c-.17-1.33-.27-2.62-.32-3.87s-.1-2.37-.18-3.37q.12-3.75,0-7.44c-.09-2.46-.09-4.82,0-7.06q.12-18.13,1.5-34.44t3.5-32.69l.75-6.37A25.53,25.53,0,0,0,271,2.81,4.17,4.17,0,0,1,272,.12Z"/><path class="cls-3" d="M297.66,48.38q-2.39,3.12-4.63,6.74c-1.5,2.42-3,4.76-4.5,7-1.08,1.59-2.21,3.3-3.37,5.13a25.48,25.48,0,0,1-4,4.87,9.09,9.09,0,0,1-1.75,1.57A2.74,2.74,0,0,1,277,74a3.41,3.41,0,0,1-1.75-2.75,38.7,38.7,0,0,1,2.31-10.87A51.47,51.47,0,0,1,282,51.12c.58-.91,1.23-1.83,1.94-2.74a6.77,6.77,0,0,1,2.31-2,3.58,3.58,0,0,1,4.19.18c1.21,1,1.64,2.48,1.31,4.56a6.7,6.7,0,0,0,1.44-2c.54-1,1.12-2,1.75-3.06a20.35,20.35,0,0,1,2-2.81,3.47,3.47,0,0,1,2.19-1.37A2.86,2.86,0,0,1,300,42l.75.25A5.68,5.68,0,0,1,302,44.62c-.17,5-.5,9.74-1,14.19S300.16,68,299.91,73v2.25c0,.92-.05,1.83-.13,2.75a12.4,12.4,0,0,1-.44,2.44c-.2.71-.56,1.06-1.06,1.06a1.41,1.41,0,0,1-1.31-.81,6.45,6.45,0,0,1-.63-2,16.29,16.29,0,0,1-.18-2.44,13.05,13.05,0,0,0-.13-2A70.42,70.42,0,0,1,296.28,61Q297,54.51,297.66,48.38Zm-9,.24c0-.08-.05-.12-.13-.12a3.62,3.62,0,0,0-.69.31,2.82,2.82,0,0,1-.68.31A27,27,0,0,0,284,53.56a52.83,52.83,0,0,0-2.5,5.06c-.66,1.76-1.31,3.61-1.94,5.57a27.26,27.26,0,0,0-1.18,6.31,44.23,44.23,0,0,0,6.31-8.06q2.8-4.56,5.69-8.94a5,5,0,0,1-.63-2.69A2.14,2.14,0,0,0,288.66,48.62Z"/><path class="cls-3" d="M314.66,69.38q2.49-4.75,5-9.69a45.89,45.89,0,0,1,5.87-8.94c.33-.42.75-.92,1.25-1.5a9.19,9.19,0,0,1,1.63-1.5,5.27,5.27,0,0,1,1.93-.87,3.83,3.83,0,0,1,2.32.24c1.25.59,2.16,1.88,2.75,3.88s1.08,4,1.5,6c.16.92.35,1.88.56,2.88s.44,2,.69,3a20.69,20.69,0,0,0,1,2.81,2.65,2.65,0,0,0,1.5,1.69,2.09,2.09,0,0,0,1.87-.44,12.75,12.75,0,0,1,1.5-1.06c.5-.42,1-.77,1.38-1.07a9.66,9.66,0,0,0,1.25-1.06,54.19,54.19,0,0,0,5.25-5.25,64.49,64.49,0,0,1,5.25-5.38,20.85,20.85,0,0,1,2.18-1.43,3.28,3.28,0,0,1,1.5-.44c.46,0,.73.29.82.87s-.19.92-.82,1.26a5.8,5.8,0,0,0-1.43,1,30.38,30.38,0,0,0-3.5,3.56c-1.17,1.37-2.42,2.77-3.75,4.18-.67.67-1.32,1.3-1.94,1.88s-1.27,1.21-1.94,1.88q-1.62,1.62-3.5,3.18a7.3,7.3,0,0,1-4.87,1.56l-.57-.24a1.65,1.65,0,0,0-.68-.13,7.74,7.74,0,0,1-3.07-3.87A40.85,40.85,0,0,1,334,61.06c-.42-1.87-.81-3.75-1.19-5.62A17.25,17.25,0,0,0,331,50.38a7.36,7.36,0,0,0-3.25,2.81,38.94,38.94,0,0,1-2.5,3.56A58.2,58.2,0,0,0,321,64.5q-1.87,4.13-3.62,8.5a7.49,7.49,0,0,0-.88,1.94,22.85,22.85,0,0,1-.87,2.31,6.34,6.34,0,0,1-1.32,1.94,2.3,2.3,0,0,1-2.18.56,2.06,2.06,0,0,1-1.69-1.31,7.88,7.88,0,0,1-.69-2.75,31,31,0,0,1-.06-3.38c0-1.2.1-2.31.19-3.31q.49-6,1.37-11.69a70.67,70.67,0,0,1,2.38-10.43c.33-.92.62-1.76.87-2.5a1.75,1.75,0,0,1,1.63-1.26,1.42,1.42,0,0,1,1.56.69,3.56,3.56,0,0,1,.37,1.94,13.66,13.66,0,0,1-.37,2.44c-.21.87-.36,1.6-.44,2.19q-.87,4.74-1.5,9.5T314.66,69.38Z"/><path class="cls-3" d="M366.4,34.62q10.75-.36,22.38-1.12a165.12,165.12,0,0,1,23.12.12c.42,0,.88,0,1.38.07a1.08,1.08,0,0,1,1,.69c-.08.66-.4,1-.94,1a7.69,7.69,0,0,1-1.44-.13,225.52,225.52,0,0,0-23.12.19q-11.5.69-22.63,1.31Q364.41,47,363,57.62a153.92,153.92,0,0,0-1.32,22.26c0,1.08.05,2.29.13,3.62a25.17,25.17,0,0,0,.5,3.75c.17.92.44,2,.81,3.37s.94,2,1.69,2.13a1.67,1.67,0,0,0,1.31-.37,13.29,13.29,0,0,0,1.38-1.19,15.34,15.34,0,0,0,1.25-1.44c.37-.5.64-.87.81-1.13a121.89,121.89,0,0,0,8.94-13.31q3.93-6.81,8.31-14.19,1.13-2,2.37-4.12c.84-1.42,1.75-2.83,2.75-4.25A12.76,12.76,0,0,1,393,51.31a1.09,1.09,0,0,1,1.25-.43c.67.33.79.85.37,1.56a15.84,15.84,0,0,1-1,1.56q-3.12,5.25-5.87,10.62T381.9,75.25c-1.16,1.92-2.31,3.86-3.43,5.81s-2.32,3.9-3.57,5.82-2.54,3.79-3.87,5.62a13.37,13.37,0,0,1-5.13,4.25,6.79,6.79,0,0,1-2.62,0A7.76,7.76,0,0,1,359,92.06,34,34,0,0,1,357.28,85a53.42,53.42,0,0,1-.63-8.31c0-2.88.09-5.69.25-8.44q.63-8.37,1.69-16.19t2.56-14.94q-5.75.26-11.68.88t-12.07.88q-.75,0-1.68.06c-.63,0-1-.27-1.07-.94a.89.89,0,0,1,1-1,11.18,11.18,0,0,0,1.75-.12q5.88-.39,12-1T361.53,35q.75-2.62,1.69-6.19a50.42,50.42,0,0,1,2.18-6.56,9.61,9.61,0,0,1,.94-2.06A2,2,0,0,1,368,19a1.31,1.31,0,0,1,1.19.5,1.93,1.93,0,0,1,.25,1.19,11.32,11.32,0,0,1-.25,1.43c-.13.5-.23,1-.32,1.38q-.61,2.74-1.25,5.69T366.4,34.62Z"/><path class="cls-4" d="M12.16,70.83c0,.73,0,1.38,0,2s0,1.11,0,1.6,0,1,.08,1.38.08.85.15,1.28H10.66a13.7,13.7,0,0,1-.2-2.4H10.4a5.44,5.44,0,0,1-2.06,2.11,6.49,6.49,0,0,1-3.12.67,7.53,7.53,0,0,1-1.89-.24,5,5,0,0,1-1.67-.76,4.25,4.25,0,0,1-1.2-1.36A4.1,4.1,0,0,1,0,73a4,4,0,0,1,.86-2.69A5.45,5.45,0,0,1,3,68.86a10.27,10.27,0,0,1,2.69-.64c1-.09,1.79-.14,2.51-.14h2.24v-.9a3.13,3.13,0,0,0-1.18-2.75,5.09,5.09,0,0,0-3-.83,6.73,6.73,0,0,0-4.51,1.66L.64,64A6.84,6.84,0,0,1,3.26,62.4a9.51,9.51,0,0,1,3-.53,6.7,6.7,0,0,1,4.29,1.27,4.86,4.86,0,0,1,1.6,4.07ZM8.32,69.62A17.85,17.85,0,0,0,6,69.77a8.2,8.2,0,0,0-2,.55,4,4,0,0,0-1.46,1,2.4,2.4,0,0,0-.54,1.6,2.38,2.38,0,0,0,.3,1.2A2.76,2.76,0,0,0,3,75a3.91,3.91,0,0,0,1.07.51,4,4,0,0,0,1.2.17,6.17,6.17,0,0,0,2.53-.44,4.27,4.27,0,0,0,1.58-1.17,4,4,0,0,0,.82-1.63,7.65,7.65,0,0,0,.22-1.84v-1Z"/><path class="cls-4" d="M30.85,74.45h-.07a4.91,4.91,0,0,1-1.12,1.32,6.17,6.17,0,0,1-1.45.93,7.11,7.11,0,0,1-1.65.55,9.07,9.07,0,0,1-1.7.17,8.42,8.42,0,0,1-3.13-.57,7.36,7.36,0,0,1-2.47-1.62,7.53,7.53,0,0,1-1.6-2.46,8.82,8.82,0,0,1,0-6.24,7.68,7.68,0,0,1,1.6-2.47,7.19,7.19,0,0,1,2.47-1.61,8.22,8.22,0,0,1,3.13-.58,8.33,8.33,0,0,1,1.7.18,7.09,7.09,0,0,1,1.65.54,6.89,6.89,0,0,1,1.45.93,4.81,4.81,0,0,1,1.12,1.33h.07v-12h1.92V77H30.85Zm.19-4.8a5.86,5.86,0,0,0-.48-2.36,6.07,6.07,0,0,0-1.31-1.91,6.34,6.34,0,0,0-1.95-1.3,6.14,6.14,0,0,0-2.44-.48,6,6,0,0,0-2.43.48,5.57,5.57,0,0,0-1.85,1.3,5.27,5.27,0,0,0-1.17,1.91,7.13,7.13,0,0,0,0,4.71,5.31,5.31,0,0,0,1.17,1.92,5.55,5.55,0,0,0,1.85,1.29,5.83,5.83,0,0,0,2.43.48,6,6,0,0,0,2.44-.48,6.31,6.31,0,0,0,1.95-1.29A6.12,6.12,0,0,0,30.56,72,5.85,5.85,0,0,0,31,69.65Z"/><path class="cls-4" d="M36,62.25h2.18L43.14,75l4.8-12.71h2L44.06,77h-2Z"/><path class="cls-4" d="M65.06,70.83c0,.73,0,1.38,0,2s0,1.11.05,1.6,0,1,.08,1.38.08.85.14,1.28H63.55a13.74,13.74,0,0,1-.19-2.4H63.3a5.46,5.46,0,0,1-2.07,2.11,6.44,6.44,0,0,1-3.12.67,7.53,7.53,0,0,1-1.89-.24,4.94,4.94,0,0,1-1.66-.76,4.25,4.25,0,0,1-1.2-1.36,4.1,4.1,0,0,1-.46-2,3.93,3.93,0,0,1,.86-2.69,5.38,5.38,0,0,1,2.13-1.49,10.27,10.27,0,0,1,2.69-.64c.94-.09,1.78-.14,2.51-.14h2.24v-.9a3.13,3.13,0,0,0-1.19-2.75,5.08,5.08,0,0,0-3-.83,6.73,6.73,0,0,0-4.51,1.66L53.54,64a6.76,6.76,0,0,1,2.62-1.55,9.46,9.46,0,0,1,3-.53,6.7,6.7,0,0,1,4.29,1.27,4.89,4.89,0,0,1,1.6,4.07Zm-3.84-1.21a18,18,0,0,0-2.36.15,8.12,8.12,0,0,0-2,.55,3.9,3.9,0,0,0-1.46,1,2.4,2.4,0,0,0-.54,1.6,2.38,2.38,0,0,0,.3,1.2,2.62,2.62,0,0,0,.78.87,3.84,3.84,0,0,0,1.08.51,4,4,0,0,0,1.2.17,6.12,6.12,0,0,0,2.52-.44,4.39,4.39,0,0,0,1.59-1.17,4.1,4.1,0,0,0,.81-1.63,7.66,7.66,0,0,0,.23-1.84v-1Z"/><path class="cls-4" d="M70.82,66.42c0-.28,0-.62,0-1s0-.8,0-1.2,0-.79,0-1.14,0-.62,0-.82h1.92c0,.56,0,1.09,0,1.6a5.24,5.24,0,0,0,.08,1h.1a5.16,5.16,0,0,1,1.92-2.1,5.58,5.58,0,0,1,3.14-.88,6.16,6.16,0,0,1,2.81.55,4.38,4.38,0,0,1,1.71,1.42,5.3,5.3,0,0,1,.87,2,11.62,11.62,0,0,1,.24,2.37V77H81.57V68.33a10.05,10.05,0,0,0-.16-1.74,4.92,4.92,0,0,0-.56-1.52A3,3,0,0,0,79.73,64a3.81,3.81,0,0,0-1.87-.4,5.31,5.31,0,0,0-2,.37,4.29,4.29,0,0,0-1.64,1.12A5.27,5.27,0,0,0,73.14,67a7.9,7.9,0,0,0-.4,2.67V77H70.82Z"/><path class="cls-4" d="M101.63,74.86a6.92,6.92,0,0,1-2.46,1.94,7.23,7.23,0,0,1-3,.62,8.42,8.42,0,0,1-3.13-.57,7.27,7.27,0,0,1-2.47-1.62A7.53,7.53,0,0,1,89,72.77a8.82,8.82,0,0,1,0-6.24,7.68,7.68,0,0,1,1.6-2.47,7.1,7.1,0,0,1,2.47-1.61,8.22,8.22,0,0,1,3.13-.58,7,7,0,0,1,3,.67,8.15,8.15,0,0,1,2.48,1.89l-1.54,1.15a6.65,6.65,0,0,0-1.82-1.45,4.45,4.45,0,0,0-2.15-.53,6,6,0,0,0-2.43.48,5.62,5.62,0,0,0-1.86,1.3,5.39,5.39,0,0,0-1.16,1.91,7.13,7.13,0,0,0,0,4.71,5.43,5.43,0,0,0,1.16,1.92,5.59,5.59,0,0,0,1.86,1.29,5.8,5.8,0,0,0,2.43.48,4.58,4.58,0,0,0,2.23-.55,5.9,5.9,0,0,0,1.74-1.49Z"/><path class="cls-4" d="M118.33,74.25a6.37,6.37,0,0,1-2.76,2.44,8.83,8.83,0,0,1-3.64.73,8,8,0,0,1-3.07-.57A6.95,6.95,0,0,1,105,72.77a9.05,9.05,0,0,1-.52-3.15,8.56,8.56,0,0,1,.54-3.08,7.32,7.32,0,0,1,3.87-4.08,7.41,7.41,0,0,1,3-.59,7.19,7.19,0,0,1,3,.59A6.74,6.74,0,0,1,117,64a6.58,6.58,0,0,1,1.32,2.22,7.46,7.46,0,0,1,.45,2.53v1.35H106.37a6.6,6.6,0,0,0,.24,1.55,5.24,5.24,0,0,0,5.36,4,6.12,6.12,0,0,0,2.84-.7,5.14,5.14,0,0,0,2.12-1.92Zm-1.47-5.85a4.35,4.35,0,0,0-.4-1.86A4.94,4.94,0,0,0,115.37,65a5.23,5.23,0,0,0-1.63-1,5.35,5.35,0,0,0-2-.38,4.9,4.9,0,0,0-2.61.64,5.85,5.85,0,0,0-2.51,3.09,4.2,4.2,0,0,0-.25,1.07Z"/><path class="cls-4" d="M136.64,74.45h-.07a4.88,4.88,0,0,1-1.11,1.32,6.44,6.44,0,0,1-1.46.93,7.11,7.11,0,0,1-1.65.55,9.07,9.07,0,0,1-1.7.17,8.42,8.42,0,0,1-3.13-.57,7.11,7.11,0,0,1-4.06-4.08,8.68,8.68,0,0,1,0-6.24,7.49,7.49,0,0,1,1.59-2.47,7.19,7.19,0,0,1,2.47-1.61,8.22,8.22,0,0,1,3.13-.58,8.33,8.33,0,0,1,1.7.18,7.09,7.09,0,0,1,1.65.54,7.22,7.22,0,0,1,1.46.93,4.77,4.77,0,0,1,1.11,1.33h.07v-12h1.92V77h-1.92Zm.19-4.8a5.86,5.86,0,0,0-.48-2.36A6.07,6.07,0,0,0,135,65.38a6.34,6.34,0,0,0-1.95-1.3,6.14,6.14,0,0,0-2.44-.48,6,6,0,0,0-2.43.48,5.57,5.57,0,0,0-1.85,1.3,5.41,5.41,0,0,0-1.17,1.91,7.13,7.13,0,0,0,0,4.71,5.45,5.45,0,0,0,1.17,1.92,5.55,5.55,0,0,0,1.85,1.29,5.83,5.83,0,0,0,2.43.48,6,6,0,0,0,2.44-.48A6.31,6.31,0,0,0,135,73.92,6.12,6.12,0,0,0,136.35,72,5.85,5.85,0,0,0,136.83,69.65Z"/></g></g></svg>