<svg xmlns="http://www.w3.org/2000/svg" xmlns:xlink="http://www.w3.org/1999/xlink" viewBox="0 0 32 32"><defs><style>.cls-1{fill:none;}.cls-2{fill:#53575a;}.cls-3{clip-path:url(#clip-path);}.cls-4{fill:#fff;}</style><clipPath id="clip-path"><rect class="cls-1" width="32" height="32" rx="6"/></clipPath></defs><g id="Layer_2" data-name="Layer 2"><g id="Layer_1-2" data-name="Layer 1"><rect class="cls-2" width="32" height="32" rx="6"/><g class="cls-3"><path class="cls-4" d="M25.89,21.31A4.64,4.64,0,0,1,21.25,26H10.75a4.64,4.64,0,0,1-4.64-4.64V10.81a4.64,4.64,0,0,1,4.64-4.64h10.5a4.64,4.64,0,0,1,4.64,4.64ZM21.13,3.87H10.87a7,7,0,0,0-7,7V21.13a7,7,0,0,0,7,7H21.13a7,7,0,0,0,7-7V10.87a7,7,0,0,0-7-7"/><path class="cls-4" d="M16,20.14a4.08,4.08,0,1,1,4.08-4.08A4.08,4.08,0,0,1,16,20.14M16,9.77a6.29,6.29,0,1,0,6.29,6.29A6.28,6.28,0,0,0,16,9.77"/><path class="cls-4" d="M22.5,8.06A1.47,1.47,0,1,0,24,9.53,1.46,1.46,0,0,0,22.5,8.06"/></g></g></g></svg>