<?xml version="1.0" encoding="utf-8"?>
<!-- Generator: Adobe Illustrator 24.2.1, SVG Export Plug-In . SVG Version: 6.00 Build 0)  -->
<svg version="1.1" id="Layer_1" xmlns="http://www.w3.org/2000/svg" xmlns:xlink="http://www.w3.org/1999/xlink" x="0px" y="0px"
	 viewBox="0 0 503.6 328.1" style="enable-background:new 0 0 503.6 328.1;" xml:space="preserve">
<style type="text/css">
	.st0{fill:#153A49;}
	.st1{fill:#FF8300;}
</style>
<g id="Layer_2_1_">
	<g id="Layer_1-2">
		<path class="st0" d="M17.4,87c0-1.7-0.8-3.6-4.1-3.6h-1c0.4-2.7,2-4.4,5-6L16.5,76c-4.4,2.1-6.9,4.8-6.9,9.6
			c0,2.8,1.6,4.7,4.3,4.7c1.8,0.1,3.4-1.3,3.4-3.2C17.4,87.1,17.4,87,17.4,87 M7.8,87c0-1.7-0.8-3.6-4.1-3.6h-1c0.4-2.7,2-4.4,5-6
			L6.9,76C2.5,78,0,80.8,0,85.6c0,2.8,1.6,4.7,4.3,4.7c1.8,0.1,3.4-1.3,3.4-3.2C7.7,87.1,7.7,87,7.8,87"/>
		<path class="st0" d="M26,77.2h2.5v15.7h0.1c0.4-0.7,0.8-1.2,1.4-1.7c0.6-0.5,1.2-0.9,1.9-1.2c0.7-0.3,1.4-0.6,2.2-0.7
			c0.7-0.2,1.5-0.3,2.2-0.3c1.4,0,2.8,0.2,4.1,0.8c1.2,0.5,2.3,1.2,3.2,2.1c0.9,0.9,1.6,2,2.1,3.2c0.5,1.3,0.8,2.7,0.8,4.1
			c0,1.4-0.2,2.8-0.8,4.1c-0.5,1.2-1.2,2.3-2.1,3.2c-0.9,0.9-2,1.6-3.2,2.1c-1.3,0.5-2.7,0.8-4.1,0.8c-0.7,0-1.5-0.1-2.2-0.2
			c-0.7-0.2-1.5-0.4-2.2-0.7c-0.7-0.3-1.3-0.7-1.9-1.2c-0.6-0.5-1.1-1.1-1.5-1.7h-0.1v3.4H26V77.2z M28.3,99.2
			c0,2.1,0.8,4.1,2.3,5.6c0.7,0.7,1.6,1.3,2.6,1.7c1,0.4,2.1,0.6,3.2,0.6c1.1,0,2.2-0.2,3.2-0.6c0.9-0.4,1.7-1,2.4-1.7
			c0.7-0.7,1.2-1.6,1.5-2.5c0.7-2,0.7-4.2,0-6.2c-0.7-1.9-2.1-3.4-4-4.2c-1-0.4-2.1-0.6-3.2-0.6c-1.1,0-2.2,0.2-3.2,0.6
			c-0.9,0.4-1.8,1-2.5,1.7C29.1,95.1,28.2,97.1,28.3,99.2L28.3,99.2z"/>
		<path class="st0" d="M51.2,95c0-0.4,0-0.8,0-1.3s0-1-0.1-1.6s0-1-0.1-1.5c-0.1-0.5-0.1-0.9-0.1-1.1h2.5c0,0.7,0,1.4,0.1,2.1
			c0,0.4,0,0.9,0.1,1.3c0.6-1.1,1.5-2.1,2.5-2.8c1.1-0.8,2.4-1.2,3.7-1.1c0.2,0,0.5,0,0.7,0.1l0.7,0.2L61,91.7
			c-0.3-0.1-0.7-0.2-1-0.2c-1,0-1.9,0.2-2.8,0.5c-0.8,0.3-1.5,0.8-2,1.5c-0.5,0.6-0.9,1.4-1.2,2.2c-0.3,0.9-0.4,1.8-0.4,2.7v10.6
			h-2.4V95z"/>
		<path class="st0" d="M80.7,105.2c-0.9,1.4-2.1,2.5-3.6,3.2c-1.5,0.7-3.1,1-4.8,1c-1.4,0-2.7-0.2-4-0.8c-1.2-0.5-2.2-1.2-3.1-2.1
			c-0.9-0.9-1.6-2-2-3.2c-0.5-1.3-0.7-2.7-0.7-4.1c0-1.4,0.2-2.7,0.7-4c0.4-1.2,1.1-2.3,2-3.2c0.9-0.9,1.9-1.6,3.1-2.1
			c1.2-0.6,2.5-0.8,3.9-0.9c1.3,0,2.7,0.2,3.9,0.8c1.1,0.5,2,1.1,2.8,2c0.8,0.8,1.4,1.8,1.7,2.9c0.4,1.1,0.6,2.2,0.6,3.3v1.8H65.1
			c0,0.7,0.1,1.3,0.3,2c0.2,0.9,0.6,1.7,1.2,2.4c0.6,0.8,1.4,1.5,2.2,2c1.1,0.6,2.4,0.9,3.6,0.8c1.3,0,2.6-0.3,3.7-0.9
			c1.1-0.6,2.1-1.4,2.8-2.5L80.7,105.2z M78.8,97.5c0-0.8-0.2-1.7-0.5-2.4c-0.3-0.8-0.8-1.4-1.4-2c-0.6-0.6-1.3-1-2.1-1.4
			c-0.8-0.3-1.7-0.5-2.6-0.5c-1.2,0-2.4,0.2-3.4,0.8c-0.8,0.5-1.6,1.2-2.2,1.9c-0.5,0.6-0.9,1.4-1.1,2.1c-0.2,0.4-0.3,0.9-0.3,1.4
			L78.8,97.5z"/>
		<path class="st0" d="M101.1,100.7c0,0.9,0,1.8,0,2.6s0,1.4,0.1,2.1s0.1,1.2,0.1,1.8c0.1,0.6,0.1,1.1,0.2,1.7h-2.3
			c-0.2-1-0.3-2.1-0.2-3.1h-0.1c-0.6,1.1-1.6,2.1-2.7,2.8c-1.3,0.6-2.7,0.9-4.1,0.9c-0.8,0-1.7-0.1-2.5-0.3c-0.8-0.2-1.5-0.5-2.2-1
			c-0.7-0.5-1.2-1.1-1.6-1.8c-0.4-0.8-0.6-1.7-0.6-2.6c-0.1-1.3,0.3-2.5,1.1-3.5c0.8-0.9,1.7-1.5,2.8-1.9c1.1-0.4,2.3-0.7,3.5-0.8
			c1.1-0.1,2.2-0.2,3.3-0.2h2.9V96c0.1-1.4-0.5-2.7-1.6-3.6c-1.2-0.8-2.5-1.1-3.9-1.1c-2.2,0-4.3,0.7-5.9,2.2L86,91.7
			c1-0.9,2.2-1.6,3.4-2c1.3-0.5,2.6-0.7,4-0.8c2-0.1,4,0.5,5.6,1.7c1.4,1.1,2.1,2.9,2.1,5.3V100.7z M96.1,99.1c-1,0-2.1,0.1-3.1,0.2
			c-0.9,0.1-1.8,0.4-2.7,0.7c-0.7,0.3-1.4,0.7-1.9,1.3c-0.5,0.6-0.7,1.3-0.7,2.1c0,0.5,0.1,1.1,0.4,1.6c0.2,0.4,0.6,0.8,1,1.1
			c0.4,0.3,0.9,0.5,1.4,0.7c0.5,0.2,1,0.2,1.6,0.2c1.1,0,2.3-0.2,3.3-0.6c0.8-0.3,1.5-0.9,2.1-1.5c0.5-0.6,0.9-1.3,1.1-2.1
			c0.2-0.8,0.3-1.6,0.3-2.4v-1.3H96.1z"/>
		<path class="st0" d="M107,103.9c0.5,1,1.3,1.8,2.3,2.4c1,0.5,2.1,0.8,3.3,0.8c0.5,0,1.1-0.1,1.6-0.2c0.5-0.2,1-0.4,1.4-0.7
			c0.4-0.3,0.7-0.7,1-1.1c0.3-0.5,0.4-1,0.4-1.5c0.1-0.8-0.3-1.5-0.8-2c-0.6-0.5-1.4-0.8-2.1-1.1c-0.9-0.3-1.8-0.5-2.8-0.6
			c-1-0.2-1.9-0.5-2.8-0.8c-0.8-0.4-1.5-0.9-2.1-1.6c-0.6-0.8-0.9-1.8-0.8-2.8c0-0.9,0.2-1.7,0.6-2.5c0.4-0.7,0.9-1.3,1.5-1.7
			c0.6-0.5,1.4-0.8,2.1-1c0.8-0.2,1.6-0.3,2.4-0.3c1.4,0,2.8,0.3,4.1,0.9c1.2,0.6,2.1,1.6,2.7,2.8l-2.2,1.3c-0.4-0.8-1-1.5-1.8-2
			c-1.3-0.7-2.8-0.9-4.2-0.5c-0.5,0.1-0.9,0.3-1.3,0.6c-0.4,0.3-0.7,0.6-1,1c-0.3,0.4-0.4,0.9-0.4,1.3c-0.1,0.7,0.3,1.5,0.9,1.9
			c0.6,0.5,1.4,0.8,2.1,1c0.9,0.3,1.8,0.5,2.8,0.6c1,0.2,1.9,0.4,2.8,0.8c0.8,0.4,1.6,0.9,2.1,1.6c0.6,0.9,0.9,1.9,0.8,3
			c0,0.9-0.2,1.8-0.6,2.6c-0.4,0.7-0.9,1.4-1.6,1.9c-0.7,0.5-1.4,0.9-2.2,1.1c-0.9,0.3-1.7,0.4-2.6,0.4c-1.6,0-3.2-0.3-4.6-1
			c-1.4-0.6-2.5-1.7-3.2-3L107,103.9z"/>
		<path class="st0" d="M133.4,91.8h-5.5v12.6c0,0.7,0.2,1.5,0.7,2c0.5,0.5,1.3,0.8,2,0.7c0.5,0,1-0.1,1.4-0.2
			c0.5-0.1,0.9-0.3,1.4-0.5l0.2,2.3c-0.5,0.2-1.1,0.3-1.6,0.5c-0.5,0.1-1.1,0.2-1.6,0.2c-0.8,0-1.6-0.1-2.3-0.4
			c-1.2-0.5-2.1-1.4-2.4-2.6c-0.2-0.6-0.3-1.3-0.3-1.9V91.8h-4.2v-2.3h4.2V84h2.5v5.6h5.5L133.4,91.8z"/>
		<path class="st0" d="M163.4,106c-0.9,1.1-2,1.9-3.2,2.5c-1.2,0.6-2.6,0.8-3.9,0.8c-1.4,0-2.8-0.2-4.1-0.8
			c-1.2-0.5-2.3-1.2-3.2-2.1c-0.9-0.9-1.6-2-2.1-3.2c-1-2.6-1-5.5,0-8.2c0.5-1.2,1.2-2.3,2.1-3.2c0.9-0.9,2-1.6,3.2-2.1
			c1.3-0.5,2.7-0.8,4.1-0.8c1.4,0,2.8,0.3,4,0.9c1.2,0.6,2.3,1.4,3.2,2.5l-2,1.5c-0.7-0.8-1.5-1.4-2.4-1.9c-0.9-0.5-1.8-0.7-2.8-0.7
			c-1.1,0-2.2,0.2-3.2,0.6c-1.8,0.8-3.3,2.3-3.9,4.2c-0.7,2-0.7,4.2,0,6.1c0.3,0.9,0.9,1.8,1.5,2.5c0.7,0.7,1.5,1.3,2.4,1.7
			c1,0.4,2.1,0.6,3.2,0.6c1,0,2-0.2,2.9-0.7c0.9-0.5,1.7-1.1,2.3-1.9L163.4,106z"/>
		<path class="st0" d="M181.5,100.7c0,0.9,0,1.8,0,2.6s0,1.4,0.1,2.1s0.1,1.2,0.1,1.8c0,0.6,0.1,1.1,0.2,1.7h-2.4
			c-0.2-1-0.3-2.1-0.2-3.1h-0.1c-0.6,1.1-1.6,2.1-2.7,2.8c-1.3,0.6-2.7,0.9-4.1,0.9c-0.8,0-1.7-0.1-2.5-0.3c-0.8-0.2-1.5-0.5-2.2-1
			c-1.4-1-2.2-2.7-2.2-4.4c-0.1-1.3,0.3-2.5,1.1-3.5c0.8-0.9,1.7-1.5,2.8-1.9c1.1-0.4,2.3-0.7,3.5-0.8c1.1-0.1,2.2-0.2,3.3-0.2h2.9
			V96c0.1-1.4-0.4-2.7-1.6-3.6c-1.2-0.8-2.5-1.1-3.9-1.1c-2.2,0-4.3,0.7-5.9,2.2l-1.5-1.7c1-0.9,2.2-1.6,3.4-2
			c1.3-0.4,2.6-0.7,3.9-0.7c2-0.1,4,0.5,5.6,1.6c1.4,1.1,2.1,2.9,2.1,5.3L181.5,100.7z M176.5,99.1c-1,0-2.1,0.1-3.1,0.2
			c-0.9,0.1-1.8,0.4-2.7,0.7c-0.7,0.3-1.4,0.7-1.9,1.3c-0.5,0.6-0.7,1.3-0.7,2.1c0,0.5,0.1,1.1,0.4,1.6c0.2,0.4,0.6,0.8,1,1.1
			c0.4,0.3,0.9,0.5,1.4,0.7c0.5,0.2,1,0.2,1.6,0.2c1.1,0,2.3-0.2,3.3-0.6c0.8-0.3,1.5-0.9,2.1-1.5c0.5-0.6,0.9-1.4,1.1-2.1
			c0.2-0.8,0.3-1.6,0.3-2.4v-1.3H176.5z"/>
		<path class="st0" d="M187.4,95c0-0.4,0-0.8,0-1.3s0-1-0.1-1.6s0-1-0.1-1.5c-0.1-0.5,0-0.8,0-1.1h2.5c0,0.7,0.1,1.4,0.1,2.1
			c0,0.4,0,0.9,0.1,1.3h0.1c0.6-1.1,1.4-2.1,2.5-2.7c1.2-0.8,2.6-1.2,4.1-1.2c1.3,0,2.5,0.2,3.7,0.7c0.9,0.4,1.7,1.1,2.2,1.9
			c0.6,0.8,0.9,1.7,1.1,2.7c0.2,1,0.3,2.1,0.3,3.1v11.5h-2.5V97.5c0-0.8-0.1-1.5-0.2-2.3c-0.1-0.7-0.4-1.4-0.7-2
			c-0.4-0.6-0.9-1.1-1.5-1.4c-0.8-0.4-1.6-0.6-2.4-0.5c-0.9,0-1.8,0.2-2.6,0.5c-0.8,0.3-1.5,0.8-2.1,1.5c-0.6,0.7-1.1,1.6-1.4,2.5
			c-0.4,1.1-0.5,2.3-0.5,3.5v9.7h-2.5L187.4,95z"/>
		<path class="st0" d="M226.1,106c-0.9,1.1-2,1.9-3.2,2.5c-1.2,0.6-2.5,0.8-3.9,0.8c-1.4,0-2.8-0.2-4.1-0.8
			c-1.2-0.5-2.3-1.2-3.2-2.1c-0.9-0.9-1.6-2-2.1-3.2c-0.5-1.3-0.8-2.7-0.8-4.1c0-1.4,0.2-2.8,0.8-4.1c0.5-1.2,1.2-2.3,2.1-3.2
			c0.9-0.9,2-1.6,3.2-2.1c1.3-0.5,2.7-0.8,4.2-0.8c1.4,0,2.8,0.3,4,0.9c1.2,0.6,2.3,1.4,3.2,2.5l-2,1.5c-0.7-0.8-1.5-1.4-2.4-1.9
			c-0.9-0.5-1.8-0.7-2.8-0.7c-1.1,0-2.2,0.2-3.2,0.6c-0.9,0.4-1.7,1-2.4,1.7c-0.7,0.7-1.2,1.6-1.5,2.5c-0.7,2-0.7,4.2,0,6.2
			c0.3,0.9,0.9,1.8,1.5,2.5c0.7,0.7,1.5,1.3,2.4,1.7c1,0.4,2.1,0.6,3.2,0.6c1,0,2-0.2,2.9-0.7c0.9-0.5,1.7-1.1,2.3-1.9L226.1,106z"
			/>
		<path class="st0" d="M246.3,105.2c-0.9,1.4-2.1,2.5-3.6,3.2c-1.5,0.7-3.1,1-4.8,1c-1.4,0-2.7-0.2-4-0.8c-1.2-0.5-2.2-1.2-3.1-2.1
			c-0.9-0.9-1.6-2-2-3.2c-0.5-1.3-0.7-2.7-0.7-4.1c0-1.4,0.2-2.7,0.7-4c0.4-1.2,1.1-2.3,2-3.2c0.8-0.9,1.9-1.6,3-2.1
			c1.2-0.5,2.6-0.8,3.9-0.8c1.3,0,2.7,0.2,3.9,0.8c2.2,1,3.8,2.8,4.6,5c0.4,1.1,0.6,2.2,0.6,3.3v1.8h-16.2c0,0.7,0.1,1.3,0.3,2
			c0.2,0.9,0.6,1.7,1.2,2.4c0.6,0.8,1.4,1.5,2.2,2c1.1,0.6,2.4,0.9,3.6,0.8c1.3,0,2.6-0.3,3.7-0.9c1.1-0.6,2.1-1.4,2.8-2.5
			L246.3,105.2z M244.4,97.5c0-0.8-0.2-1.7-0.5-2.4c-0.3-0.8-0.8-1.4-1.4-2c-0.6-0.6-1.3-1-2.1-1.4c-0.8-0.3-1.7-0.5-2.6-0.5
			c-1.2,0-2.4,0.2-3.4,0.8c-0.8,0.5-1.6,1.1-2.1,1.9c-0.5,0.6-0.8,1.4-1.1,2.1c-0.2,0.4-0.3,0.9-0.3,1.4H244.4z"/>
		<path class="st0" d="M251.6,95c0-0.4,0-0.8,0-1.3s-0.1-1-0.1-1.6s0-1-0.1-1.5c-0.1-0.5,0-0.8,0-1.1h2.5c0,0.7,0,1.4,0.1,2.1
			c0,0.4,0,0.9,0.1,1.3c0.6-1.1,1.4-2.1,2.5-2.8c1-0.8,2.3-1.2,3.6-1.2c0.2,0,0.5,0,0.7,0.1l0.7,0.2l-0.3,2.5
			c-0.3-0.1-0.7-0.2-1-0.2c-1,0-1.9,0.2-2.8,0.5c-0.8,0.3-1.5,0.8-2,1.5c-0.5,0.6-0.9,1.4-1.1,2.2c-0.3,0.9-0.4,1.8-0.4,2.7v10.6
			h-2.5L251.6,95z"/>
		<path class="st0" d="M291,106c-0.9,1.1-2,1.9-3.2,2.5c-1.2,0.6-2.5,0.8-3.9,0.8c-1.4,0-2.8-0.2-4.1-0.8c-1.2-0.5-2.3-1.2-3.2-2.1
			c-0.9-0.9-1.6-2-2.1-3.2c-0.5-1.3-0.8-2.7-0.8-4.1c0-1.4,0.2-2.8,0.8-4.1c0.5-1.2,1.2-2.3,2.1-3.2c0.9-0.9,2-1.6,3.2-2.1
			c1.3-0.5,2.7-0.8,4.1-0.8c1.4,0,2.8,0.3,4,0.9c1.2,0.6,2.3,1.4,3.2,2.5l-2,1.5c-0.7-0.8-1.5-1.4-2.4-1.8c-0.9-0.5-1.8-0.7-2.8-0.7
			c-1.1,0-2.2,0.2-3.2,0.6c-1.9,0.8-3.3,2.3-4,4.2c-0.7,2-0.7,4.2,0,6.2c0.3,0.9,0.9,1.8,1.5,2.5c0.7,0.7,1.5,1.3,2.4,1.7
			c1,0.4,2.1,0.6,3.2,0.6c1,0,2-0.2,2.9-0.7c0.9-0.5,1.7-1.1,2.3-1.9L291,106z"/>
		<path class="st0" d="M294.1,77.2h2.5v15.7h0.1c0.6-1.1,1.4-2.1,2.5-2.7c1.2-0.8,2.7-1.2,4.1-1.2c1.3,0,2.5,0.2,3.7,0.7
			c0.9,0.4,1.7,1.1,2.2,1.9c0.6,0.8,0.9,1.7,1.1,2.7c0.2,1,0.3,2.1,0.3,3.1v11.5h-2.5V97.5c0-0.8-0.1-1.5-0.2-2.3
			c-0.1-0.7-0.4-1.4-0.7-2c-0.4-0.6-0.9-1.1-1.5-1.4c-0.8-0.4-1.6-0.6-2.4-0.5c-0.9,0-1.8,0.2-2.6,0.5c-0.8,0.3-1.5,0.8-2.1,1.5
			c-0.6,0.7-1.1,1.6-1.4,2.5c-0.4,1.1-0.5,2.3-0.5,3.5v9.7h-2.5V77.2z"/>
		<path class="st0" d="M331.6,100.7c0,0.9,0,1.8,0,2.6s0,1.4,0.1,2.1s0.1,1.2,0.1,1.8c0,0.6,0.1,1.1,0.2,1.7h-2.3
			c-0.2-1-0.3-2.1-0.2-3.1h-0.1c-0.6,1.2-1.6,2.1-2.7,2.8c-1.3,0.6-2.7,0.9-4.1,0.9c-0.8,0-1.7-0.1-2.5-0.3c-0.8-0.2-1.5-0.5-2.2-1
			c-1.4-1-2.2-2.7-2.2-4.4c-0.1-1.3,0.3-2.5,1.1-3.5c0.8-0.9,1.7-1.5,2.8-1.9c1.1-0.4,2.3-0.7,3.5-0.8c1.1-0.1,2.2-0.2,3.3-0.2h2.9
			V96c0.1-1.4-0.5-2.7-1.5-3.6c-1.1-0.8-2.5-1.1-3.8-1.1c-2.2,0-4.3,0.7-6,2.2l-1.5-1.7c1-0.9,2.2-1.6,3.4-2c1.3-0.5,2.7-0.7,4-0.8
			c2-0.1,4,0.5,5.6,1.7c1.4,1.1,2.1,2.9,2.1,5.3L331.6,100.7z M326.6,99.1c-1,0-2.1,0.1-3.1,0.2c-0.9,0.1-1.8,0.4-2.7,0.7
			c-0.7,0.3-1.4,0.7-1.9,1.3c-0.5,0.6-0.7,1.3-0.7,2.1c0,0.5,0.1,1.1,0.4,1.6c0.2,0.4,0.6,0.8,1,1.1c0.4,0.3,0.9,0.5,1.4,0.7
			c0.5,0.2,1,0.2,1.6,0.2c1.1,0,2.3-0.2,3.3-0.6c0.8-0.3,1.5-0.9,2-1.5c0.5-0.6,0.9-1.3,1.1-2.1c0.2-0.8,0.3-1.6,0.3-2.4v-1.3H326.6
			z"/>
		<path class="st0" d="M337.5,95c0-0.4,0-0.8,0-1.3s0-1-0.1-1.6s0-1-0.1-1.5c-0.1-0.5,0-0.8,0-1.1h2.5c0,0.7,0,1.4,0.1,2.1
			c0,0.4,0,0.9,0.1,1.3h0.1c0.6-1.1,1.4-2.1,2.5-2.7c1.2-0.8,2.6-1.2,4.1-1.2c1.3,0,2.5,0.2,3.7,0.7c0.9,0.4,1.7,1.1,2.2,1.9
			c0.6,0.8,0.9,1.7,1.1,2.7c0.2,1,0.3,2.1,0.3,3.1v11.5h-2.5V97.5c0-0.8-0.1-1.5-0.2-2.3c-0.1-0.7-0.4-1.4-0.7-2
			c-0.4-0.6-0.9-1.1-1.5-1.4c-0.8-0.4-1.6-0.6-2.5-0.5c-0.9,0-1.8,0.2-2.6,0.5c-0.8,0.3-1.6,0.8-2.2,1.5c-0.6,0.7-1.1,1.6-1.4,2.5
			c-0.4,1.1-0.5,2.3-0.5,3.5v9.7h-2.6V95z"/>
		<path class="st0" d="M379.4,107.6c0.1,2-0.2,4-1,5.8c-0.6,1.3-1.5,2.5-2.6,3.4c-1,0.8-2.1,1.3-3.4,1.6c-1.1,0.3-2.2,0.4-3.3,0.4
			c-1,0-1.9-0.1-2.9-0.3c-0.9-0.2-1.8-0.4-2.6-0.8c-0.8-0.3-1.6-0.8-2.3-1.3c-0.7-0.5-1.3-1.1-1.8-1.7l2-1.8c0.8,1.2,2,2.2,3.4,2.8
			c1.3,0.6,2.8,0.9,4.3,0.9c1.1,0,2.2-0.1,3.2-0.5c0.8-0.3,1.5-0.7,2.2-1.3c0.5-0.5,1-1.1,1.3-1.8c0.3-0.6,0.6-1.3,0.7-2
			c0.1-0.6,0.2-1.2,0.3-1.9c0-0.6,0-1.1,0-1.4v-2.7h-0.1c-0.7,1.2-1.7,2.1-3,2.8c-1.4,0.7-2.9,1-4.4,1c-1.4,0-2.7-0.3-4-0.8
			c-1.2-0.5-2.4-1.2-3.3-2.1c-0.9-0.9-1.7-2-2.2-3.2c-1.1-2.5-1.1-5.2,0-7.7c0.5-1.2,1.3-2.2,2.2-3.1c1-0.9,2.1-1.6,3.3-2.1
			c1.3-0.5,2.6-0.8,4-0.8c1.5,0,3,0.3,4.4,1c1.2,0.6,2.2,1.6,3,2.8h0.1v-3.3h2.5L379.4,107.6z M376.9,99c0-1-0.2-2.1-0.6-3
			c-0.8-1.8-2.2-3.3-4.1-4.1c-1.9-0.8-4.1-0.8-6,0c-1.8,0.8-3.3,2.2-4,4.1c-0.8,1.9-0.8,4.1,0,6c0.8,1.8,2.2,3.2,4.1,4
			c1.9,0.8,4.1,0.8,6,0c1.8-0.8,3.3-2.2,4.1-4.1C376.7,101,376.9,100,376.9,99z"/>
		<path class="st0" d="M401.7,105.2c-0.9,1.4-2.1,2.5-3.6,3.2c-1.5,0.7-3.1,1-4.8,1c-1.4,0-2.7-0.2-4-0.8c-1.2-0.5-2.2-1.2-3.1-2.1
			c-0.9-0.9-1.6-2-2-3.2c-0.5-1.3-0.7-2.7-0.7-4.1c0-1.4,0.2-2.7,0.7-4c0.4-1.2,1.1-2.3,2-3.2c0.9-0.9,1.9-1.6,3.1-2.1
			c1.2-0.5,2.6-0.8,3.9-0.8c1.3,0,2.7,0.2,3.9,0.8c2.2,1,3.8,2.8,4.6,5c0.4,1.1,0.6,2.2,0.6,3.3v1.8h-16.2c0,0.7,0.1,1.3,0.3,2
			c0.2,0.9,0.6,1.7,1.1,2.4c0.6,0.8,1.4,1.5,2.2,2c1.1,0.6,2.4,0.9,3.6,0.8c1.3,0,2.6-0.3,3.7-0.9c1.1-0.6,2.1-1.4,2.8-2.5
			L401.7,105.2z M399.8,97.5c0-0.8-0.2-1.7-0.5-2.4c-0.3-0.8-0.8-1.4-1.4-2c-0.6-0.6-1.3-1-2.1-1.4c-0.8-0.3-1.7-0.5-2.6-0.5
			c-1.2,0-2.4,0.2-3.4,0.8c-0.8,0.5-1.6,1.2-2.1,1.9c-0.5,0.6-0.9,1.4-1.1,2.1c-0.2,0.4-0.3,0.9-0.3,1.4L399.8,97.5z"/>
		<path class="st0" d="M407.2,103.9c0.5,1,1.3,1.8,2.4,2.4c1,0.5,2.1,0.8,3.3,0.8c0.5,0,1.1-0.1,1.6-0.2c0.5-0.2,1-0.4,1.4-0.7
			c0.4-0.3,0.7-0.7,1-1.1c0.3-0.4,0.4-1,0.4-1.5c0-0.8-0.3-1.5-0.9-2c-0.6-0.5-1.4-0.8-2.1-1.1c-0.9-0.3-1.8-0.5-2.8-0.6
			c-1-0.2-1.9-0.5-2.8-0.8c-0.8-0.4-1.5-0.9-2.1-1.6c-0.6-0.8-0.9-1.8-0.9-2.8c0-0.9,0.2-1.7,0.6-2.5c0.4-0.7,0.9-1.3,1.5-1.7
			c0.6-0.5,1.4-0.8,2.1-1c0.8-0.2,1.6-0.3,2.4-0.3c1.4,0,2.8,0.3,4.1,0.9c1.2,0.6,2.1,1.6,2.7,2.8l-2.2,1.3c-0.4-0.8-1-1.5-1.8-2
			c-0.8-0.5-1.8-0.7-2.8-0.7c-0.5,0-0.9,0.1-1.4,0.2c-0.5,0.1-0.9,0.3-1.3,0.6c-0.4,0.3-0.7,0.6-1,1c-0.3,0.4-0.4,0.9-0.4,1.3
			c-0.1,0.7,0.3,1.5,0.9,1.9c0.6,0.5,1.4,0.8,2.1,1c0.9,0.3,1.8,0.5,2.8,0.6c1,0.2,1.9,0.4,2.8,0.8c0.8,0.4,1.5,0.9,2.1,1.6
			c0.6,0.9,0.9,1.9,0.9,3c0,0.9-0.2,1.8-0.6,2.6c-0.4,0.7-0.9,1.4-1.5,1.9c-0.7,0.5-1.4,0.9-2.2,1.1c-0.9,0.3-1.7,0.4-2.6,0.4
			c-1.6,0-3.1-0.3-4.6-1c-1.4-0.6-2.5-1.7-3.2-3L407.2,103.9z"/>
		<path class="st0" d="M439.6,114.8c-0.4,1.2-1.1,2.2-2,3c-0.9,0.8-2.1,1.2-3.4,1.1c-0.4,0-0.8,0-1.2-0.1c-0.4-0.1-0.8-0.2-1.2-0.3
			l0.2-2.3l1.1,0.3c0.4,0.1,0.8,0.2,1.1,0.2c0.4,0,0.8-0.1,1.2-0.3c0.3-0.2,0.7-0.5,0.9-0.8c0.3-0.3,0.5-0.6,0.6-1
			c0.2-0.4,0.3-0.8,0.5-1.2l1.8-4.5l-7.9-19.4h2.8l6.4,16.3l6.2-16.3h2.7L439.6,114.8z"/>
		<path class="st0" d="M451.6,99.2c0-1.4,0.2-2.8,0.8-4.1c0.5-1.2,1.2-2.3,2.1-3.2c0.9-0.9,2-1.6,3.2-2.1c1.3-0.5,2.7-0.8,4.1-0.8
			c1.4,0,2.8,0.2,4.1,0.8c1.2,0.5,2.3,1.2,3.2,2.1c0.9,0.9,1.6,2,2.1,3.2c0.5,1.3,0.8,2.7,0.8,4.1c0,1.4-0.2,2.8-0.8,4.1
			c-1,2.4-2.9,4.4-5.3,5.3c-1.3,0.5-2.7,0.8-4.1,0.8c-1.4,0-2.8-0.2-4.1-0.8c-1.2-0.5-2.3-1.2-3.2-2.1c-0.9-0.9-1.6-2-2.1-3.2
			C451.9,102,451.6,100.6,451.6,99.2z M454.1,99.2c0,1,0.2,2.1,0.5,3.1c0.3,0.9,0.9,1.8,1.5,2.5c0.7,0.7,1.5,1.3,2.4,1.7
			c2,0.8,4.3,0.8,6.4,0c0.9-0.4,1.7-1,2.4-1.7c0.7-0.7,1.2-1.6,1.5-2.5c0.7-2,0.7-4.2,0-6.2c-0.7-1.9-2.1-3.4-4-4.2
			c-2-0.8-4.3-0.8-6.4,0c-1.9,0.8-3.3,2.3-4,4.2C454.3,97.1,454.1,98.1,454.1,99.2z"/>
		<path class="st0" d="M493.1,103.4c0,0.4,0,0.8,0,1.3s0,1,0.1,1.6s0,1,0.1,1.5c0.1,0.5,0,0.8,0,1.1h-2.4c0-0.7,0-1.4-0.1-2.1
			c0-0.4,0-0.9-0.1-1.3h-0.1c-0.6,1.1-1.4,2.1-2.5,2.7c-1.2,0.8-2.7,1.2-4.1,1.2c-1.3,0-2.5-0.2-3.7-0.7c-0.9-0.4-1.7-1.1-2.3-1.9
			c-0.6-0.8-0.9-1.7-1.1-2.7c-0.2-1-0.3-2.1-0.3-3.1V89.5h2.5v11.4c0,0.8,0.1,1.5,0.2,2.3c0.1,0.7,0.4,1.4,0.7,2
			c0.4,0.6,0.9,1.1,1.5,1.4c0.8,0.4,1.6,0.6,2.4,0.5c0.9,0,1.8-0.2,2.6-0.5c0.8-0.3,1.5-0.8,2.1-1.5c0.6-0.7,1.1-1.6,1.4-2.5
			c0.4-1.1,0.5-2.3,0.5-3.5v-9.7h2.5L493.1,103.4z"/>
		<path class="st0" d="M500.7,105.1h2.9l-3.2,9.5h-2.5L500.7,105.1z"/>
		<path class="st0" d="M130.2,155.7c0,0.9,0,1.8,0,2.6s0,1.4,0.1,2.1s0.1,1.2,0.1,1.8s0.1,1.1,0.2,1.7h-2.3c-0.2-1-0.3-2.1-0.2-3.1
			h-0.1c-0.6,1.2-1.6,2.1-2.7,2.8c-1.3,0.6-2.7,0.9-4.1,0.9c-0.8,0-1.7-0.1-2.5-0.3c-0.8-0.2-1.5-0.5-2.2-1c-1.4-1-2.2-2.7-2.2-4.4
			c-0.1-1.3,0.3-2.5,1.1-3.5c0.7-0.9,1.7-1.6,2.8-2c1.1-0.4,2.3-0.7,3.5-0.8c1.1-0.1,2.2-0.2,3.3-0.2h3V151c0.1-1.4-0.5-2.7-1.6-3.6
			c-1.2-0.8-2.5-1.1-3.9-1.1c-2.2,0-4.3,0.7-5.9,2.2l-1.5-1.7c1-0.9,2.2-1.6,3.4-2c1.3-0.4,2.6-0.7,3.9-0.7c2-0.1,4,0.5,5.6,1.6
			c1.4,1.1,2.1,2.9,2.1,5.3L130.2,155.7z M125.2,154.1c-1,0-2.1,0.1-3.1,0.2c-0.9,0.1-1.8,0.4-2.7,0.7c-0.7,0.3-1.4,0.7-1.9,1.3
			c-0.5,0.6-0.7,1.3-0.7,2.1c0,0.5,0.1,1.1,0.4,1.6c0.2,0.4,0.6,0.8,1,1.1c0.4,0.3,0.9,0.5,1.4,0.7c0.5,0.2,1,0.2,1.6,0.2
			c1.1,0,2.3-0.2,3.3-0.6c0.8-0.3,1.5-0.9,2.1-1.5c0.5-0.6,0.9-1.3,1.1-2.1c0.2-0.8,0.3-1.6,0.3-2.4v-1.3H125.2z"/>
		<path class="st0" d="M136.1,150c0-0.4,0-0.8,0-1.3c0-0.5,0-1-0.1-1.6s0-1-0.1-1.5c-0.1-0.5,0-0.8,0-1.1h2.5c0,0.7,0,1.4,0.1,2.1
			c0,0.4,0,0.9,0.1,1.3h0.1c0.6-1.1,1.4-2.1,2.5-2.7c1.2-0.8,2.6-1.2,4.1-1.2c1.3,0,2.5,0.2,3.7,0.7c0.9,0.4,1.7,1.1,2.2,1.9
			c0.6,0.8,0.9,1.7,1.1,2.7c0.2,1,0.3,2.1,0.3,3.1v11.5h-2.5v-11.4c0-0.8-0.1-1.5-0.2-2.3c-0.1-0.7-0.4-1.4-0.7-2
			c-0.4-0.6-0.9-1.1-1.5-1.4c-0.8-0.4-1.6-0.6-2.4-0.5c-0.9,0-1.8,0.2-2.6,0.5c-0.8,0.3-1.5,0.8-2.1,1.5c-0.6,0.7-1.1,1.6-1.4,2.5
			c-0.4,1.1-0.6,2.3-0.5,3.5v9.7h-2.5L136.1,150z"/>
		<path class="st0" d="M175.5,160.5L175.5,160.5c-0.5,0.7-1,1.2-1.5,1.7c-0.6,0.5-1.2,0.9-1.9,1.2c-0.7,0.3-1.4,0.6-2.1,0.7
			c-0.7,0.1-1.5,0.2-2.2,0.2c-1.4,0-2.8-0.2-4.1-0.8c-1.2-0.5-2.3-1.2-3.2-2.1c-0.9-0.9-1.6-2-2.1-3.2c-1-2.6-1-5.5,0-8.2
			c0.5-1.2,1.2-2.3,2.1-3.2c0.9-0.9,2-1.6,3.2-2.1c1.3-0.5,2.7-0.8,4.1-0.8c0.7,0,1.5,0.1,2.2,0.2c0.7,0.2,1.5,0.4,2.1,0.7
			c0.7,0.3,1.3,0.7,1.9,1.2c0.6,0.5,1.1,1.1,1.5,1.7h0.1v-15.7h2.5v31.6h-2.5L175.5,160.5z M175.7,154.2c0-1.1-0.2-2.1-0.6-3.1
			c-0.4-0.9-1-1.8-1.7-2.5c-1.5-1.5-3.6-2.3-5.7-2.3c-1.1,0-2.2,0.2-3.2,0.6c-1.9,0.8-3.3,2.3-4,4.2c-0.7,2-0.7,4.2,0,6.2
			c0.3,0.9,0.9,1.8,1.5,2.5c0.7,0.7,1.5,1.3,2.4,1.7c1,0.4,2.1,0.6,3.2,0.6c2.1,0,4.2-0.8,5.7-2.3c0.7-0.7,1.3-1.6,1.7-2.5
			C175.5,156.3,175.7,155.2,175.7,154.2z"/>
		<path class="st0" d="M202.8,146.8h-5.5v12.6c0,0.7,0.2,1.5,0.7,2c0.5,0.5,1.3,0.8,2,0.7c0.5,0,1-0.1,1.4-0.2
			c0.5-0.1,0.9-0.3,1.4-0.5l0.2,2.3c-0.5,0.2-1.1,0.3-1.6,0.5c-0.5,0.1-1.1,0.2-1.6,0.2c-0.8,0-1.6-0.1-2.3-0.4
			c-0.6-0.2-1.1-0.6-1.6-1.1c-0.4-0.5-0.7-1-0.9-1.6c-0.2-0.6-0.3-1.3-0.3-1.9v-12.6h-4.2v-2.3h4.2V139h2.5v5.6h5.5L202.8,146.8z"/>
		<path class="st0" d="M206.5,132.2h2.5v15.7h0.1c0.6-1.1,1.4-2.1,2.5-2.7c1.2-0.8,2.6-1.2,4.1-1.2c1.3,0,2.5,0.2,3.7,0.7
			c0.9,0.4,1.7,1.1,2.2,1.9c0.6,0.8,0.9,1.7,1.1,2.7c0.2,1,0.3,2.1,0.3,3.1v11.5h-2.5v-11.4c0-0.8-0.1-1.5-0.2-2.3
			c-0.1-0.7-0.4-1.4-0.7-2c-0.4-0.6-0.9-1.1-1.5-1.4c-0.8-0.4-1.6-0.6-2.4-0.5c-0.9,0-1.8,0.2-2.6,0.5c-0.8,0.3-1.5,0.8-2.1,1.5
			c-0.6,0.7-1.1,1.6-1.4,2.5c-0.4,1.1-0.5,2.3-0.5,3.5v9.7h-2.5L206.5,132.2z"/>
		<path class="st0" d="M246,160.2c-0.9,1.4-2.1,2.5-3.6,3.2c-1.5,0.7-3.1,1-4.8,1c-1.4,0-2.7-0.2-4-0.8c-1.2-0.5-2.2-1.2-3.1-2.1
			c-0.9-0.9-1.6-2-2-3.2c-0.5-1.3-0.7-2.7-0.7-4.1c0-1.4,0.2-2.7,0.7-4c0.4-1.2,1.1-2.3,2-3.2c0.8-0.9,1.9-1.6,3-2.1
			c1.2-0.5,2.6-0.8,3.9-0.8c1.3,0,2.7,0.2,3.9,0.8c2.2,1,3.8,2.8,4.6,5c0.4,1.1,0.6,2.2,0.6,3.3v1.8h-16.2c0,0.7,0.1,1.3,0.3,2
			c0.2,0.9,0.6,1.7,1.2,2.4c0.6,0.8,1.4,1.5,2.2,2c1.1,0.6,2.4,0.9,3.6,0.8c1.3,0,2.6-0.3,3.7-0.9c1.1-0.6,2.1-1.4,2.8-2.5
			L246,160.2z M244.1,152.5c0-0.8-0.2-1.7-0.5-2.4c-0.3-0.8-0.8-1.4-1.4-2c-0.6-0.6-1.3-1-2.1-1.4c-0.8-0.3-1.7-0.5-2.6-0.5
			c-1.2,0-2.4,0.2-3.4,0.8c-0.8,0.5-1.6,1.1-2.1,1.9c-0.5,0.6-0.9,1.4-1.1,2.1c-0.2,0.4-0.3,0.9-0.3,1.4L244.1,152.5z"/>
		<path class="st0" d="M277.7,161c-0.9,1.1-2,1.9-3.2,2.5c-1.2,0.6-2.5,0.8-3.9,0.8c-1.4,0-2.8-0.2-4.1-0.8
			c-1.2-0.5-2.3-1.2-3.2-2.1c-0.9-0.9-1.6-2-2.1-3.2c-1-2.6-1-5.5,0-8.2c0.5-1.2,1.2-2.3,2.1-3.2c0.9-0.9,2-1.6,3.2-2.1
			c1.3-0.5,2.7-0.8,4.1-0.8c1.4,0,2.7,0.3,4,0.9c1.2,0.6,2.3,1.4,3.2,2.5l-2,1.5c-0.7-0.8-1.5-1.4-2.4-1.9c-0.9-0.5-1.8-0.7-2.8-0.7
			c-1.1,0-2.2,0.2-3.2,0.6c-1.9,0.8-3.3,2.3-4,4.2c-0.7,2-0.7,4.2,0,6.2c0.3,0.9,0.9,1.8,1.5,2.5c0.7,0.7,1.5,1.3,2.4,1.7
			c1,0.4,2.1,0.6,3.2,0.6c1,0,2-0.2,2.9-0.7c0.9-0.5,1.7-1.1,2.3-1.9L277.7,161z"/>
		<path class="st0" d="M280.8,132.2h2.5v15.7h0.1c0.6-1.1,1.4-2.1,2.5-2.7c1.2-0.8,2.6-1.2,4.1-1.2c1.3,0,2.5,0.2,3.7,0.7
			c0.9,0.4,1.7,1.1,2.2,1.9c0.6,0.8,0.9,1.7,1.1,2.7c0.2,1,0.3,2.1,0.3,3.1v11.5h-2.5v-11.4c0-0.8-0.1-1.5-0.2-2.3
			c-0.1-0.7-0.4-1.4-0.7-2c-0.4-0.6-0.9-1.1-1.5-1.4c-0.8-0.4-1.6-0.6-2.4-0.5c-0.9,0-1.8,0.2-2.6,0.5c-0.8,0.3-1.5,0.8-2.1,1.5
			c-0.6,0.7-1.1,1.6-1.4,2.5c-0.4,1.1-0.5,2.3-0.5,3.5v9.7h-2.5V132.2z"/>
		<path class="st0" d="M318.3,155.7c0,0.9,0,1.8,0,2.6s0,1.4,0.1,2.1s0.1,1.2,0.1,1.8s0.1,1.1,0.2,1.7h-2.3c-0.2-1-0.3-2.1-0.2-3.1
			H316c-0.6,1.1-1.6,2.1-2.7,2.8c-1.3,0.6-2.7,0.9-4.1,0.9c-0.8,0-1.7-0.1-2.5-0.3c-0.8-0.2-1.5-0.5-2.2-1c-0.7-0.5-1.2-1.1-1.6-1.8
			c-0.4-0.8-0.6-1.7-0.6-2.6c-0.1-1.3,0.3-2.5,1.1-3.5c0.7-0.9,1.7-1.6,2.8-2c1.1-0.4,2.3-0.7,3.5-0.8c1.1-0.1,2.2-0.2,3.3-0.2h2.9
			V151c0.1-1.4-0.5-2.7-1.5-3.6c-1.2-0.8-2.5-1.1-3.9-1.1c-2.2,0-4.3,0.7-5.9,2.2l-1.5-1.7c1-0.9,2.2-1.6,3.4-2
			c1.3-0.5,2.6-0.7,4-0.8c2-0.1,4,0.5,5.6,1.7c1.4,1.1,2.1,2.9,2.1,5.3L318.3,155.7z M313.3,154.1c-1,0-2.1,0.1-3.1,0.2
			c-0.9,0.1-1.8,0.4-2.7,0.7c-0.7,0.3-1.4,0.7-1.9,1.3c-0.5,0.6-0.7,1.3-0.7,2.1c0,0.5,0.1,1.1,0.4,1.6c0.2,0.4,0.6,0.8,1,1.1
			c0.4,0.3,0.9,0.5,1.4,0.7c0.5,0.2,1,0.2,1.6,0.2c1.1,0,2.3-0.2,3.3-0.6c0.8-0.3,1.5-0.9,2.1-1.5c0.5-0.6,0.9-1.3,1.1-2.1
			c0.2-0.8,0.3-1.6,0.3-2.4v-1.3H313.3z"/>
		<path class="st0" d="M324.2,150c0-0.4,0-0.8,0-1.3c0-0.5,0-1-0.1-1.6s0-1-0.1-1.5c-0.1-0.5,0-0.8,0-1.1h2.5c0,0.7,0,1.4,0.1,2.1
			c0,0.4,0,0.9,0.1,1.3h0.1c0.6-1.1,1.4-2.1,2.5-2.7c1.2-0.8,2.6-1.2,4.1-1.2c1.3,0,2.5,0.2,3.7,0.7c0.9,0.4,1.7,1.1,2.2,1.9
			c0.6,0.8,0.9,1.7,1.1,2.7c0.2,1,0.3,2.1,0.3,3.1v11.5h-2.5v-11.4c0-0.8-0.1-1.5-0.3-2.3c-0.1-0.7-0.4-1.4-0.7-2
			c-0.4-0.6-0.9-1.1-1.5-1.4c-0.8-0.4-1.6-0.6-2.5-0.5c-0.9,0-1.8,0.2-2.6,0.5c-0.8,0.3-1.5,0.8-2.1,1.5c-0.6,0.7-1.1,1.6-1.4,2.5
			c-0.4,1.1-0.5,2.3-0.5,3.5v9.7h-2.5L324.2,150z"/>
		<path class="st0" d="M366,162.6c0.1,2-0.3,4-1,5.8c-0.6,1.3-1.5,2.5-2.6,3.4c-1,0.8-2.2,1.3-3.4,1.6c-1.1,0.3-2.2,0.4-3.3,0.4
			c-1,0-1.9-0.1-2.9-0.3c-0.9-0.2-1.8-0.4-2.7-0.8c-0.8-0.3-1.5-0.8-2.2-1.3c-0.7-0.5-1.3-1.1-1.8-1.7l2-1.8c0.8,1.2,2,2.2,3.3,2.8
			c1.3,0.6,2.8,0.9,4.3,0.9c1.1,0,2.2-0.1,3.2-0.5c1.5-0.6,2.7-1.7,3.4-3.2c0.6-1.2,0.9-2.5,1-3.8c0-0.6,0-1.1,0-1.4v-2.7h-0.1
			c-0.7,1.2-1.7,2.1-3,2.8c-1.4,0.7-2.9,1-4.4,1c-2.7,0-5.3-1-7.3-2.9c-0.9-0.9-1.7-2-2.2-3.2c-1.1-2.5-1.1-5.2,0-7.7
			c0.5-1.2,1.3-2.2,2.2-3.1c1-0.9,2.1-1.6,3.3-2.1c1.3-0.5,2.6-0.8,4-0.8c1.5,0,3,0.3,4.4,1c1.2,0.6,2.2,1.6,3,2.8h0.1v-3.3h2.5
			L366,162.6z M363.6,154c0-1-0.2-2.1-0.6-3c-0.4-0.9-0.9-1.7-1.6-2.4c-0.7-0.7-1.5-1.3-2.4-1.7c-1.9-0.8-4.1-0.8-6,0
			c-1.8,0.8-3.3,2.3-4.1,4.1c-0.8,1.9-0.8,4.1,0,6c0.8,1.8,2.3,3.3,4.1,4c1.9,0.8,4.1,0.8,6,0c0.9-0.4,1.7-0.9,2.4-1.6
			c0.7-0.7,1.2-1.5,1.6-2.4C363.4,156,363.6,155,363.6,154z"/>
		<path class="st0" d="M388.4,160.2c-0.9,1.4-2.1,2.5-3.6,3.2c-1.5,0.7-3.1,1-4.8,1c-1.4,0-2.7-0.2-4-0.8c-1.2-0.5-2.2-1.2-3.1-2.1
			c-0.9-0.9-1.6-2-2-3.2c-0.5-1.3-0.7-2.7-0.7-4.1c0-1.4,0.2-2.7,0.7-4c0.9-2.4,2.7-4.3,5.1-5.3c1.2-0.5,2.6-0.8,3.9-0.8
			c1.3,0,2.7,0.2,3.9,0.8c2.2,1,3.8,2.8,4.6,5c0.4,1.1,0.6,2.2,0.6,3.3v1.8h-16.3c0,0.7,0.1,1.3,0.3,2c0.2,0.9,0.6,1.7,1.1,2.4
			c0.6,0.8,1.4,1.5,2.2,2c1.1,0.6,2.4,0.9,3.6,0.8c1.3,0,2.6-0.3,3.7-0.9c1.1-0.6,2.1-1.4,2.8-2.5L388.4,160.2z M386.5,152.5
			c0-0.8-0.2-1.7-0.5-2.4c-0.3-0.8-0.8-1.4-1.4-2c-0.6-0.6-1.3-1-2.1-1.4c-0.8-0.3-1.7-0.5-2.6-0.5c-1.2,0-2.4,0.2-3.4,0.8
			c-0.8,0.5-1.6,1.2-2.2,1.9c-0.5,0.6-0.9,1.4-1.1,2.1c-0.2,0.5-0.3,0.9-0.3,1.4L386.5,152.5z"/>
		<path class="st0" d="M85,216c-0.9,1.1-2,1.9-3.2,2.5c-1.2,0.6-2.5,0.8-3.9,0.8c-1.4,0-2.8-0.2-4.1-0.8c-1.2-0.5-2.3-1.2-3.2-2.1
			c-0.9-0.9-1.6-2-2.1-3.2c-1-2.6-1-5.5,0-8.2c0.5-1.2,1.2-2.3,2.1-3.2c0.9-0.9,2-1.6,3.2-2.1c1.3-0.5,2.7-0.8,4.1-0.8
			c1.4,0,2.8,0.3,4,0.9c1.2,0.6,2.3,1.4,3.2,2.5l-2,1.5c-0.7-0.8-1.5-1.4-2.4-1.9c-0.9-0.5-1.8-0.7-2.8-0.7c-1.1,0-2.2,0.2-3.2,0.6
			c-1.9,0.8-3.3,2.3-4,4.2c-0.7,2-0.7,4.2,0,6.1c0.3,0.9,0.9,1.8,1.5,2.5c0.7,0.7,1.5,1.3,2.4,1.7c1,0.4,2.1,0.6,3.2,0.6
			c1,0,2-0.2,2.9-0.7c0.8-0.5,1.6-1.1,2.2-1.9L85,216z"/>
		<path class="st0" d="M103.1,210.7c0,0.9,0,1.8,0,2.6s0,1.4,0.1,2.1s0.1,1.2,0.1,1.8s0.1,1.1,0.2,1.7h-2.3c-0.2-1-0.3-2.1-0.2-3.1
			h-0.1c-0.6,1.2-1.6,2.1-2.7,2.8c-1.3,0.6-2.7,0.9-4.1,0.9c-0.8,0-1.7-0.1-2.5-0.3c-0.8-0.2-1.5-0.5-2.2-1
			c-0.7-0.5-1.2-1.1-1.6-1.8c-0.4-0.8-0.6-1.7-0.6-2.6c-0.1-1.3,0.3-2.5,1.1-3.5c0.7-0.9,1.7-1.6,2.8-2c1.1-0.4,2.3-0.7,3.5-0.8
			c1.1-0.1,2.2-0.2,3.3-0.2h2.9V206c0.1-1.4-0.5-2.7-1.6-3.6c-1.2-0.8-2.5-1.1-3.9-1.1c-2.2,0-4.3,0.7-5.9,2.2l-1.5-1.7
			c1-0.9,2.2-1.6,3.4-2c1.3-0.4,2.6-0.7,3.9-0.7c2-0.1,4,0.5,5.6,1.6c1.4,1.1,2.1,2.9,2.1,5.3L103.1,210.7z M98.1,209.1
			c-1,0-2.1,0.1-3.1,0.2c-0.9,0.1-1.8,0.4-2.7,0.7c-0.7,0.3-1.4,0.7-1.9,1.3c-0.5,0.6-0.7,1.3-0.7,2.1c0,0.5,0.1,1.1,0.4,1.6
			c0.2,0.4,0.6,0.8,1,1.1c0.4,0.3,0.9,0.5,1.4,0.7c0.5,0.2,1,0.2,1.6,0.2c1.1,0,2.3-0.2,3.3-0.6c0.8-0.3,1.5-0.9,2.1-1.5
			c0.5-0.6,0.9-1.3,1.1-2.1c0.2-0.8,0.3-1.6,0.3-2.4v-1.3L98.1,209.1z"/>
		<path class="st0" d="M109,205c0-0.4,0-0.8,0-1.3c0-0.5,0-1-0.1-1.6s0-1-0.1-1.5c-0.1-0.5,0-0.8,0-1.1h2.5c0,0.7,0,1.4,0.1,2.1
			c0,0.4,0,0.9,0.1,1.3h0.1c0.6-1.1,1.4-2.1,2.5-2.7c1.2-0.8,2.6-1.2,4.1-1.2c1.3,0,2.5,0.2,3.7,0.7c0.9,0.4,1.7,1.1,2.2,1.9
			c0.6,0.8,0.9,1.7,1.1,2.7c0.2,1,0.3,2.1,0.3,3.1v11.5h-2.5v-11.4c0-0.8-0.1-1.5-0.2-2.3c-0.1-0.7-0.4-1.4-0.7-2
			c-0.4-0.6-0.9-1.1-1.5-1.4c-0.8-0.4-1.6-0.6-2.4-0.5c-0.9,0-1.8,0.2-2.6,0.5c-0.8,0.3-1.5,0.8-2.1,1.5c-0.7,0.7-1.2,1.6-1.5,2.5
			c-0.4,1.1-0.5,2.3-0.5,3.5v9.7H109V205z"/>
		<path class="st0" d="M141,187.2h2.5v15.7h0.1c0.4-0.7,0.9-1.2,1.5-1.7c0.6-0.5,1.2-0.9,1.9-1.2c0.7-0.3,1.4-0.6,2.2-0.7
			c0.7-0.2,1.5-0.2,2.2-0.2c1.4,0,2.8,0.2,4.1,0.8c1.2,0.5,2.3,1.2,3.2,2.1c0.9,0.9,1.6,2,2.1,3.2c1,2.6,1,5.5,0,8.2
			c-1,2.4-2.9,4.4-5.3,5.3c-1.3,0.5-2.7,0.8-4.1,0.8c-0.7,0-1.5-0.1-2.2-0.2c-0.7-0.2-1.5-0.4-2.2-0.7c-0.7-0.3-1.3-0.7-1.9-1.2
			c-0.6-0.5-1.1-1.1-1.5-1.7h-0.1v3.4H141V187.2z M143.3,209.2c0,1.1,0.2,2.1,0.6,3.1c0.4,0.9,1,1.8,1.7,2.5
			c0.7,0.7,1.6,1.3,2.6,1.7c1,0.4,2.1,0.6,3.2,0.6c1.1,0,2.2-0.2,3.2-0.6c1.8-0.8,3.3-2.3,3.9-4.2c0.7-2,0.7-4.2,0-6.1
			c-0.3-0.9-0.8-1.8-1.5-2.5c-0.7-0.7-1.5-1.3-2.4-1.7c-1-0.4-2.1-0.6-3.2-0.6c-1.1,0-2.2,0.2-3.2,0.6c-1,0.4-1.8,1-2.6,1.7
			c-0.7,0.7-1.3,1.6-1.7,2.5C143.5,207.1,143.3,208.1,143.3,209.2L143.3,209.2z"/>
		<path class="st0" d="M183.4,215.2c-0.9,1.4-2.1,2.5-3.6,3.2c-1.5,0.7-3.1,1-4.8,1c-1.4,0-2.7-0.2-4-0.8c-1.2-0.5-2.2-1.2-3.1-2.1
			c-0.9-0.9-1.6-2-2-3.2c-0.5-1.3-0.7-2.7-0.7-4.1c0-1.4,0.2-2.7,0.7-4c0.9-2.4,2.7-4.4,5.1-5.4c1.2-0.5,2.6-0.8,3.9-0.8
			c1.3,0,2.7,0.2,3.9,0.8c2.2,1,3.8,2.8,4.6,5c0.4,1.1,0.6,2.2,0.6,3.3v1.8h-16.3c0,0.7,0.1,1.3,0.3,2c0.2,0.9,0.6,1.7,1.2,2.4
			c0.6,0.8,1.4,1.5,2.2,2c1.1,0.6,2.4,0.9,3.6,0.8c1.3,0,2.6-0.3,3.7-0.9c1.1-0.6,2.1-1.4,2.8-2.5L183.4,215.2z M181.4,207.5
			c0-0.8-0.2-1.7-0.5-2.4c-0.3-0.8-0.8-1.4-1.4-2c-0.6-0.6-1.3-1-2.1-1.4c-0.8-0.3-1.7-0.5-2.6-0.5c-1.2,0-2.4,0.2-3.4,0.8
			c-0.8,0.5-1.6,1.1-2.1,1.9c-0.5,0.6-0.9,1.4-1.1,2.1c-0.2,0.5-0.3,0.9-0.3,1.4L181.4,207.5z"/>
		<path class="st1" d="M213.8,206.1c1.6-1.4,3.4-2.6,5.2-3.7c1.9-1.2,3.9-2.3,6-3.2c0.2-0.1,0.5-0.2,0.9-0.4c0.4-0.2,0.6,0,0.8,0.4
			c0.1,0.4-0.2,0.8-0.6,0.9c-0.5,0.2-0.8,0.3-1.1,0.3c-0.3,0.2-0.7,0.4-1,0.6l-0.9,0.5c-1.9,1-3.8,2.2-5.5,3.5
			c-1.7,1.3-3.4,2.6-4.9,4.1c-0.4,1-0.8,1.9-1.3,2.9s-1,1.9-1.6,2.8s-1.1,1.8-1.7,2.7c-0.6,0.9-1.2,1.7-2,2.3
			c-0.3,0.2-0.6,0.5-1,0.6c-0.4,0.2-0.9,0.3-1.3,0.2c-0.1-0.1-0.2-0.2-0.3-0.2c-0.1,0-0.2-0.1-0.3-0.2c-0.4-0.6-0.5-1.3-0.2-2
			c0.2-0.6,0.5-1.2,0.9-1.7c0.3-0.6,0.6-1.1,1-1.6c0.4-0.5,0.7-0.9,1-1.4l2.3-2.9c0.8-0.9,1.6-1.9,2.4-2.8c0.3-0.9,0.6-1.8,0.9-2.7
			c0.3-1,0.5-2.1,0.5-3.2c-1,0.5-1.9,1.2-2.6,2.1l-2.1,2.8c-1.7,2.6-3.1,5.3-4.3,8.1c-1.4,3.2-2.3,6.7-2.6,10.2c0,0.7-0.3,1.4-0.7,2
			c-0.3,0.4-0.9,0.4-1.6,0c-0.5-0.7-0.7-1.5-0.7-2.4c0-0.9,0-1.8,0-2.7s-0.1-1.9,0-2.9s0.1-2,0.1-2.9c0.2-5.7,0.7-11.2,1.4-16.4
			c0.6-4.9,1.8-9.6,3.5-14.2c0.2-0.3,0.3-0.7,0.5-1.2c0.2-0.4,0.4-0.8,0.6-1.2c0.2-0.3,0.5-0.6,0.9-0.8c0.4-0.2,0.9-0.1,1.3,0.1
			c-0.1,0.5-0.2,1.1-0.4,1.8s-0.3,1.2-0.4,1.6v-0.3c-0.4,1-0.7,2.1-0.9,3.2c-0.2,1.1-0.5,2.3-0.8,3.5c-0.8,3.7-1.3,7.5-1.6,11.2
			c-0.3,3.9-0.6,7.9-0.9,11.9c0.7-1.6,1.4-3.2,2.1-4.8c0.7-1.5,1.5-3,2.5-4.4c0.9-1.4,1.9-2.8,3-4c0.6-0.6,1.2-1.1,1.8-1.7
			c0.7-0.6,1.6-0.9,2.5-1c0.6,0,1.2,0.3,1.5,0.9c0.3,0.6,0.5,1.2,0.5,1.8c0.1,0.7,0,1.4-0.1,2.1C214,204.9,213.9,205.6,213.8,206.1z
			 M206.3,215.6c-0.7,0.8-1.2,1.7-1.4,2.7c1.3-1.6,2.5-3.3,3.4-5.2C207.6,213.9,207,214.7,206.3,215.6z"/>
		<path class="st1" d="M226.8,203.1c-0.5,1-0.8,2-1.1,3.1c-0.3,1.2-0.5,2.5-0.5,3.7c0,1.1,0.2,2.2,0.8,3.2c0.6,0.9,1.6,1.5,2.7,1.4
			c1.5,0.1,2.9-0.3,4.2-0.9c1.2-0.6,2.3-1.3,3.4-2c1.1-0.8,2.2-1.6,3.2-2.3s1.9-1.5,2.7-2.2c1.5-1.1,2.9-2.4,4.2-3.7
			c1.3-1.3,2.6-2.6,3.9-4c0.2-0.2,0.4-0.4,0.6-0.7c0.2-0.3,0.4-0.6,0.6-0.9c0.2-0.3,0.5-0.5,0.7-0.7c0.2-0.2,0.6-0.2,0.8,0
			c0.4,0.2,0.5,0.5,0.3,1c-0.2,0.4-0.4,0.8-0.6,1.1c-0.1,0.3-0.3,0.7-0.5,0.9c-0.2,0.3-0.4,0.6-0.7,0.9c-1.4,1.6-2.9,3.2-4.5,4.7
			s-3.2,2.9-4.8,4.4c-2.2,2-4.6,3.7-7.1,5.1c-0.7,0.4-1.4,0.7-2.1,1c-0.8,0.3-1.6,0.5-2.5,0.7c-0.9,0.1-1.7,0.2-2.6,0.1
			c-0.9,0-1.7-0.3-2.4-0.8c-0.3-0.2-0.6-0.5-0.9-0.8c-0.2-0.3-0.5-0.6-0.8-1c-0.6-1.1-1-2.3-1.1-3.6c-0.1-1.3,0-2.7,0.3-4
			c0.5-2.5,1.3-4.8,2.4-7.1c1-1.8,2.1-3.4,3.4-5c1.3-1.6,3.1-2.7,5.2-3.3c1-0.1,2,0.2,2.9,0.8c0.8,0.7,1.1,1.7,0.9,2.7
			c-0.1,0.9-0.5,1.8-1,2.6c-0.5,0.8-1.1,1.5-1.8,2.1c-1,1-2.1,1.9-3.4,2.7C230.1,203.2,228.4,203.5,226.8,203.1z M234.7,194
			c-1.8,0.5-3.4,1.6-4.5,3.1c-1.1,1.5-2.1,3.1-2.9,4.7c1.1,0,2.2-0.2,3.1-0.8c0.8-0.6,1.5-1.2,2.2-1.8c0.6-0.7,1.3-1.4,2-2
			c0.7-0.8,1.1-1.8,0.9-2.9C235.4,194.1,235,194,234.7,194z"/>
		<path class="st1" d="M261.2,197c-1.1,1.4-2.1,2.9-3.1,4.6c-1,1.7-2,3.2-3.1,4.8c-0.7,1.1-1.5,2.2-2.3,3.5
			c-0.8,1.2-1.7,2.4-2.7,3.4c-0.3,0.4-0.7,0.8-1.2,1.1c-0.5,0.3-1.1,0.4-1.6,0.2c-0.7-0.4-1.1-1.1-1.2-1.9c0.2-2.5,0.7-5,1.6-7.4
			c0.8-2.2,1.8-4.3,3-6.3c0.4-0.6,0.8-1.2,1.3-1.9c0.4-0.6,1-1,1.6-1.4c0.9-0.6,2-0.5,2.8,0.1c0.9,0.8,1.2,2,0.9,3.1
			c0.4-0.4,0.7-0.9,1-1.4c0.4-0.7,0.8-1.4,1.2-2.1c0.4-0.7,0.9-1.3,1.4-1.9c0.4-0.5,0.9-0.8,1.5-0.9c0.2,0,0.4,0,0.6,0.1l0.5,0.2
			c0.4,0.5,0.7,1,0.9,1.6c-0.1,3.4-0.3,6.6-0.7,9.6c-0.3,3-0.6,6.2-0.8,9.6v1.5c0,0.6,0,1.2-0.1,1.9c0,0.6-0.1,1.1-0.3,1.7
			c-0.1,0.5-0.4,0.7-0.7,0.7c-0.4,0-0.7-0.2-0.9-0.6c-0.2-0.4-0.4-0.9-0.4-1.4c-0.1-0.5-0.1-1.1-0.1-1.7c0-0.5,0-0.9-0.1-1.4
			c-0.2-3-0.2-6,0.2-9C260.6,202.7,261,199.8,261.2,197z M255.1,197.2C255.1,197.1,255.1,197.1,255.1,197.2c-0.2,0-0.4,0-0.6,0.1
			c-0.2,0.1-0.3,0.2-0.5,0.2c-0.8,0.9-1.5,1.9-2.1,3c-0.6,1.1-1.2,2.3-1.7,3.4c-0.4,1.2-0.9,2.5-1.3,3.8c-0.4,1.4-0.7,2.8-0.8,4.3
			c1.6-1.6,3.1-3.5,4.3-5.5c1.3-2.1,2.6-4.1,3.9-6.1c-0.3-0.6-0.5-1.2-0.4-1.8C255.9,198,255.6,197.5,255.1,197.2L255.1,197.2z"/>
		<path class="st1" d="M273.5,211.4c0.3-0.1,0.6-0.4,0.7-0.6l0.5-0.9c0.6-0.8,1.2-1.6,1.8-2.6c0.6-0.9,1.2-1.8,1.8-2.6
			c0.4-0.6,0.8-1.2,1.2-1.8c0.4-0.6,0.8-1.1,1.3-1.6c0.5-0.5,1-1,1.5-1.5c0.5-0.6,1.2-0.9,2-0.8c0.6,0,1.1,0.3,1.5,0.7
			c0.4,0.5,0.7,1,0.9,1.5c0.2,0.6,0.4,1.3,0.5,2l0.4,2c0.1,0.6,0.3,1.2,0.4,1.8c0.2,0.6,0.4,1.3,0.6,1.9s0.5,1.1,0.8,1.8
			c0.2,0.5,0.6,0.9,1.2,1.1c0.4,0.1,0.9,0.1,1.2-0.1c0.4-0.2,0.8-0.4,1.2-0.7c0.4-0.3,0.8-0.6,1.1-0.9l0.8-0.8
			c0.6-0.6,1.2-1.2,1.7-1.8c0.5-0.6,1.1-1.2,1.7-1.9c0.8-1,1.6-1.9,2.4-2.9c0.8-0.9,1.6-1.9,2.4-2.9c0.3-0.3,0.5-0.7,0.7-1.1
			c0.2-0.4,0.6-0.7,1.1-0.6c0.4,0.3,0.6,0.9,0.3,1.3c-0.2,0.4-0.4,0.8-0.7,1.1c-0.3,0.4-0.6,0.8-0.9,1.1s-0.5,0.7-0.8,1
			c-1.2,1.4-2.4,3-3.7,4.6c-1.3,1.6-2.6,3.1-4.2,4.4c-0.8,0.6-1.6,1.2-2.4,1.7c-1,0.5-2.2,0.5-3.3,0c-0.9-0.6-1.6-1.4-2-2.3
			c-0.5-1-0.9-2.1-1.1-3.2c-0.3-1.1-0.6-2.3-0.8-3.5c-0.2-1.1-0.6-2.2-1.1-3.2c-0.6,0.3-1.2,0.8-1.6,1.4c-0.4,0.6-0.9,1.2-1.3,1.8
			c-0.5,0.6-0.9,1.2-1.2,1.8s-0.8,1.2-1.1,1.8c-0.8,1.3-1.6,2.5-2.3,3.7c-0.7,1.3-1.8,2.3-3.1,3c-0.5,0.1-1.1,0.1-1.6-0.2
			c-0.4-0.2-0.8-0.5-1.1-0.9c-0.4-1.1-0.7-2.4-0.7-3.6c-0.1-1.4,0-2.8,0.1-4.2c0.1-1.4,0.3-2.9,0.5-4.3c0.2-1.4,0.5-2.7,0.7-3.9
			c0.1-0.4,0.1-0.8,0.2-1.3c0.1-0.5,0.2-0.9,0.3-1.4c0.1-0.4,0.3-0.8,0.5-1.2c0.2-0.3,0.5-0.5,0.8-0.5c0.3-0.1,0.5,0,0.8,0.1
			c0.2,0.1,0.3,0.3,0.4,0.5c0.2,0.8,0.3,1.6,0.1,2.3c-0.2,0.8-0.2,1.7-0.2,2.5c-0.3,1.9-0.5,3.9-0.7,6S273.5,209.2,273.5,211.4z"/>
		<path class="st1" d="M308.7,187.7c4.9-0.2,10-0.4,15.2-0.8c5.2-0.3,10.5-0.3,15.7,0.1c0.3,0,0.6,0,0.9,0c0.3,0,0.6,0.2,0.7,0.5
			c-0.1,0.5-0.3,0.7-0.6,0.7c-0.3,0-0.7,0-1-0.1c-5.2-0.2-10.5-0.2-15.7,0.1c-5.2,0.3-10.4,0.6-15.4,0.9c-0.8,4.7-1.5,9.4-2.2,14.2
			c-0.7,5-1,10.1-0.9,15.1c0,0.7,0,1.6,0.1,2.5c0,0.9,0.2,1.7,0.3,2.6c0.1,0.8,0.3,1.5,0.5,2.3c0.2,0.9,0.6,1.4,1.1,1.4
			c0.3,0,0.6,0,0.9-0.2c0.3-0.2,0.6-0.5,0.9-0.8c0.3-0.3,0.6-0.7,0.9-1l0.5-0.8c2.2-2.9,4.3-5.9,6.1-9c1.8-3.1,3.7-6.3,5.7-9.7
			c0.5-0.9,1-1.8,1.6-2.8s1.2-1.9,1.9-2.9c0.2-0.4,0.5-0.7,0.8-1c0.2-0.3,0.5-0.4,0.9-0.3c0.5,0.2,0.5,0.6,0.2,1.1
			c-0.2,0.4-0.4,0.7-0.7,1.1c-1.4,2.4-2.8,4.8-4,7.2s-2.6,4.9-4,7.2c-0.8,1.3-1.6,2.6-2.3,4s-1.6,2.6-2.4,3.9s-1.7,2.6-2.6,3.8
			c-0.9,1.2-2.1,2.2-3.5,2.9c-0.6,0.1-1.2,0.1-1.8,0c-1.4-0.6-2.5-1.8-2.9-3.2c-0.6-1.6-0.9-3.2-1.1-4.8c-0.3-1.9-0.4-3.8-0.4-5.7
			c0-2,0.1-3.9,0.2-5.7c0.3-3.8,0.7-7.5,1.1-11c0.5-3.6,1.1-6.9,1.7-10.2c-2.6,0.1-5.3,0.3-8,0.6c-2.7,0.3-5.4,0.5-8.2,0.6
			c-0.3,0-0.7,0-1.1,0c-0.4,0.1-0.7-0.2-0.7-0.6c0-0.3,0.2-0.6,0.5-0.7c0.1,0,0.1,0,0.2,0c0.4,0,0.8,0,1.2-0.1
			c2.7-0.2,5.4-0.4,8.2-0.7c2.8-0.3,5.5-0.5,8.2-0.6c0.3-1.2,0.7-2.6,1.1-4.2c0.4-1.5,0.9-3,1.5-4.5c0.2-0.5,0.4-1,0.6-1.4
			c0.2-0.5,0.6-0.8,1.1-0.8c0.3,0,0.6,0.1,0.8,0.3c0.1,0.2,0.2,0.5,0.2,0.8c0,0.3-0.1,0.7-0.2,1c-0.1,0.3-0.2,0.6-0.2,0.9
			c-0.3,1.2-0.6,2.5-0.9,3.9C309.2,185.3,309,186.5,308.7,187.7z"/>
		<path class="st1" d="M328.1,198.2c0.2,0.3,0.3,0.6,0.3,0.9c0,0.3,0,0.7,0,1.1c-0.1,1-0.1,2,0,3.1c0.1,1.2,0,2.2,0,3.3s0,2.1,0,3.1
			c0,0.9-0.3,1.8-0.9,2.5h-0.7c-0.3-0.4-0.5-0.8-0.6-1.3c-0.2-0.6-0.3-1.3-0.3-1.9c-0.1-1.2-0.1-2.6,0-3.9c0-1.3,0.1-2.7,0.3-4
			c0.1-0.4,0.1-0.7,0.2-1.2c0-0.4,0.1-0.8,0.3-1.2c0.1-0.3,0.3-0.6,0.6-0.7C327.5,198,327.8,198,328.1,198.2z M328.5,181.7
			c0,0.5-0.3,1-0.7,1.4c-0.5,0.1-0.8,0.1-1-0.2c-0.2-0.2-0.3-0.5-0.3-0.8c0-0.3,0.1-0.6,0.3-0.8c0.3-0.3,0.6-0.3,1-0.2
			C328.2,181.3,328.5,181.5,328.5,181.7L328.5,181.7z"/>
		<path class="st1" d="M349.7,179.5c-0.3,0.2-0.5,0.1-0.6-0.1c-0.1-0.2-0.2-0.4-0.3-0.6c-0.3-0.3-0.6-0.5-1-0.7
			c-0.5-0.3-1-0.3-1.5-0.2c-0.7,0.2-1.3,0.8-1.6,1.5c-0.5,0.9-0.8,1.6-1.1,2.2c-1,2.4-1.8,4.8-2.4,7.3c-0.6,2.7-1.2,5.3-1.7,7.8
			c2.3-0.8,4.7-1.8,7.2-2.8c2.6-1,5.3-1.9,8.1-2.5c1.4-0.3,2.8-0.5,4.2-0.6c1.4-0.1,2.9,0,4.2,0.5c0.3,0.1,0.6,0.3,0.9,0.4
			c0.3,0.2,0.5,0.6,0.4,0.9c-0.4,0.4-1,0.5-1.5,0.3c-0.6-0.2-1.2-0.4-1.8-0.4c-1.1-0.1-2.2,0-3.3,0.2c-1.1,0.3-2.1,0.5-3.1,0.8
			c-1,0.3-2,0.6-2.9,0.9s-1.8,0.6-2.6,1c-1.8,0.6-3.6,1.3-5.4,2.1c-1.7,0.8-3.4,1.6-5,2.4c-0.3,1.8-0.5,3.6-0.8,5.4
			c-0.2,1.9-0.5,3.8-0.7,5.8c-0.1,0.6-0.1,1.3-0.2,1.9c-0.1,0.6-0.1,1.3,0,1.9c0.1,0.5,0.2,1,0.3,1.4c0.2,0.5,0.3,1,0.4,1.4
			c1.2,5.3,1.7,10.7,1.4,16.1c0,0.6,0,1.3-0.1,1.9c-0.1,0.6-0.2,1.2-0.4,1.8c-0.1,0.5-0.4,1-0.8,1.3c-0.4,0.3-0.9,0.5-1.4,0.5
			c-0.5,0-0.9-0.1-1.2-0.5c-0.3-0.3-0.6-0.7-0.7-1.1c-0.2-0.5-0.3-1-0.4-1.4c-0.1-0.5-0.2-1-0.2-1.4c-0.5-2.7-0.7-5.4-0.7-8.1
			c0-2.8,0.1-5.6,0.2-8.5c0-0.6,0.1-1.1,0.2-1.7c0.1-0.5,0.1-1.1,0-1.6c-0.1-0.5-0.2-0.9-0.5-1.4c-0.2-0.5-0.5-0.9-0.7-1.4
			c-0.4-0.9-0.9-1.7-1.5-2.5l-1.7-2.2c-0.3-0.3-0.6-0.7-0.9-1.1c-0.3-0.4-0.5-0.9-0.5-1.4c0-0.4,0.1-0.9,0.3-1.3
			c0.2-0.4,0.5-0.8,0.9-1.1c0.3-0.3,0.7-0.6,1.1-0.9c0.4-0.2,0.7-0.5,1-0.7c0.8-0.5,1.5-1,2.2-1.3l2.3-1.2c0.5-2.8,1.2-5.6,2-8.6
			c0.8-2.7,1.7-5.4,2.8-8c0.5-1.2,1.1-2.3,1.8-3.3c0.7-1,1.6-1.8,2.8-2.3c0,0.1,0.1,0,0.2-0.1c0.7-0.1,1.4,0,2,0.4
			c0.5,0.3,0.9,0.6,1.4,1c0.2,0.3,0.5,0.6,0.7,0.9C349.9,178.8,349.9,179.2,349.7,179.5z M331.2,204.8c0.6,0.6,1.2,1.3,1.7,2
			c0.6,0.7,1.1,1.4,1.5,2.2c0.2-1.2,0.3-2.4,0.5-3.6s0.3-2.4,0.5-3.5l-0.1-0.1c-0.7,0.5-1.5,1-2.2,1.4
			C332.5,203.7,331.8,204.2,331.2,204.8z"/>
		<path class="st1" d="M357.3,211.4c0.3-0.1,0.6-0.4,0.7-0.6l0.6-0.9c0.6-0.8,1.2-1.6,1.8-2.6c0.6-0.9,1.2-1.8,1.8-2.6
			c0.4-0.6,0.8-1.2,1.2-1.8c0.4-0.6,0.8-1.1,1.3-1.6c0.5-0.5,1-1,1.5-1.5c0.5-0.6,1.2-0.9,2-0.8c0.6,0,1.1,0.3,1.5,0.7
			c0.4,0.5,0.7,1,0.9,1.5c0.2,0.7,0.4,1.3,0.5,2c0.1,0.7,0.3,1.4,0.4,2s0.3,1.2,0.4,1.8s0.4,1.3,0.6,1.9s0.5,1.1,0.8,1.8
			c0.2,0.5,0.6,0.9,1.2,1.1c0.4,0.1,0.9,0.1,1.2-0.1c0.4-0.2,0.9-0.4,1.2-0.7c0.4-0.3,0.8-0.6,1.1-0.9l0.8-0.8
			c0.6-0.6,1.2-1.2,1.7-1.8c0.5-0.6,1.1-1.2,1.7-1.9c0.8-1,1.6-1.9,2.4-2.9c0.8-0.9,1.6-1.9,2.4-2.9c0.3-0.3,0.5-0.7,0.7-1.1
			c0.2-0.4,0.6-0.7,1.1-0.6c0.4,0.3,0.6,0.9,0.3,1.3c-0.2,0.4-0.4,0.8-0.7,1.1c-0.3,0.4-0.6,0.8-0.9,1.1s-0.5,0.7-0.8,1
			c-1.2,1.4-2.4,2.9-3.7,4.6c-1.3,1.6-2.7,3.1-4.2,4.4c-0.8,0.6-1.6,1.2-2.4,1.7c-1,0.5-2.3,0.5-3.3,0c-0.9-0.6-1.6-1.4-2-2.3
			c-0.5-1-0.9-2.1-1.1-3.2c-0.3-1.1-0.5-2.3-0.8-3.5c-0.2-1.1-0.6-2.2-1.1-3.2c-0.6,0.3-1.2,0.8-1.6,1.4c-0.4,0.6-0.9,1.2-1.3,1.8
			c-0.5,0.6-0.9,1.2-1.2,1.8s-0.8,1.2-1.1,1.8c-0.8,1.2-1.6,2.5-2.3,3.7c-0.7,1.3-1.8,2.3-3.1,3c-0.5,0.1-1.1,0.1-1.6-0.2
			c-0.4-0.2-0.8-0.5-1.1-0.9c-0.4-1.1-0.6-2.4-0.7-3.6c0-1.4,0-2.8,0.1-4.2c0.1-1.4,0.3-2.9,0.5-4.3c0.2-1.4,0.5-2.7,0.7-3.9
			c0.1-0.4,0.1-0.8,0.2-1.3c0.1-0.5,0.2-0.9,0.3-1.4c0.1-0.4,0.3-0.8,0.5-1.2c0.2-0.3,0.5-0.5,0.8-0.5c0.3-0.1,0.5,0,0.8,0.1
			c0.2,0.1,0.3,0.3,0.4,0.5c0.2,0.8,0.3,1.6,0.1,2.3c-0.2,0.8-0.2,1.7-0.2,2.5c-0.3,1.9-0.5,3.9-0.7,6S357.3,209.2,357.3,211.4z"/>
		<path class="st1" d="M391.7,164.2L391.7,164.2c0.8-0.2,1.5,0.3,1.6,1c0.2,0.7,0.2,1.3,0.2,2c0.1,2.3,0,4.6-0.3,6.9
			c-0.3,2.2-0.6,4.4-0.8,6.6c-0.3,2.9-0.6,5.9-0.9,9c-0.3,3-0.5,6.1-0.8,9.1c-0.3,5.4-0.7,10.8-1.1,16.1c-0.4,5.7-0.5,11.3-0.2,17
			c0,0.4,0,0.8,0.1,1.2c0.1,0.4,0.1,0.9,0.1,1.3c0,0.4-0.1,0.8-0.2,1.1c-0.1,0.3-0.4,0.5-0.7,0.5c-0.6,0.2-1.3-0.2-1.5-0.9
			c0,0,0-0.1,0-0.1c-0.2-0.7-0.3-1.5-0.4-2.2c-0.1-0.9-0.2-1.8-0.2-2.6c0-0.9-0.1-1.6-0.1-2.3c0.1-1.7,0.1-3.4,0-5.1s-0.1-3.3,0-4.8
			c0.1-8.2,0.4-16,1-23.4c0.6-7.4,1.4-14.8,2.4-22.3l0.5-4.3c0.1-0.7,0.2-1.4,0.2-2.1c0-0.7,0.3-1.3,0.7-1.8L391.7,164.2z"/>
		<path class="st0" d="M401.8,217.1c0-1.1,0.9-2,2-2s2,0.9,2,2c0,0.5-0.2,1-0.6,1.4c-0.8,0.8-2,0.8-2.8,0c0,0,0,0,0,0
			C402,218.1,401.8,217.6,401.8,217.1z"/>
		<path class="st0" d="M337.9,295.4h5.4v1.6h-5.4V295.4z"/>
		<path class="st0" d="M359.9,297.4c0,0.5-0.1,1.1-0.2,1.6c-0.2,0.5-0.4,1-0.8,1.4c-0.4,0.4-0.8,0.8-1.4,1c-0.7,0.3-1.4,0.4-2.1,0.4
			c-1,0-2-0.3-2.8-0.8c-0.8-0.6-1.3-1.5-1.4-2.5l1.9-0.4c0.1,0.6,0.3,1.1,0.8,1.5c0.4,0.4,1,0.6,1.6,0.5c0.5,0,0.9-0.1,1.3-0.3
			c0.3-0.2,0.6-0.4,0.8-0.8c0.2-0.3,0.3-0.7,0.4-1.1c0.1-0.4,0.1-0.8,0.1-1.2v-10.9h1.9V297.4z"/>
		<path class="st0" d="M363.8,292.5c0.5-0.5,1.2-0.9,1.9-1.2c0.7-0.3,1.5-0.4,2.2-0.4c1.2-0.1,2.4,0.3,3.3,1.1
			c0.7,0.9,1.1,2.1,1,3.3v4.4c0,0.3,0,0.6,0,0.9s0.1,0.6,0.1,0.9h-1.6c-0.1-0.3-0.1-0.5-0.1-0.8c0-0.3,0-0.5,0-0.8l0,0
			c-0.3,0.5-0.8,1-1.4,1.3c-0.6,0.3-1.3,0.5-2,0.5c-0.5,0-1-0.1-1.5-0.2c-0.4-0.1-0.8-0.3-1.2-0.6c-0.3-0.3-0.6-0.6-0.8-1
			c-0.2-0.4-0.3-0.9-0.3-1.3c0-0.7,0.2-1.4,0.7-2c0.4-0.5,1-0.9,1.6-1.1c0.7-0.2,1.4-0.4,2.1-0.4c0.8-0.1,1.5-0.1,2.1-0.1h0.7v-0.3
			c0-0.6-0.2-1.3-0.7-1.7c-0.5-0.4-1.2-0.6-1.9-0.6c-0.6,0-1.1,0.1-1.6,0.3c-0.5,0.2-1,0.5-1.4,0.9L363.8,292.5z M368.8,296.5
			c-0.9,0-1.8,0.1-2.6,0.5c-0.6,0.2-1,0.8-1,1.5c-0.1,0.5,0.2,1.1,0.6,1.4c0.5,0.3,1.1,0.4,1.6,0.4c0.4,0,0.9-0.1,1.3-0.3
			c0.4-0.2,0.7-0.4,0.9-0.7c0.3-0.3,0.5-0.6,0.6-1c0.1-0.4,0.2-0.8,0.2-1.2v-0.7L368.8,296.5z"/>
		<path class="st0" d="M375.8,293.6c0-0.5,0-0.9,0-1.3c0-0.4,0-0.8,0-1.1h1.6c0,0.3,0,0.6,0,0.8s0,0.6,0,0.9l0,0
			c0.1-0.3,0.3-0.5,0.5-0.7c0.2-0.2,0.5-0.5,0.8-0.6c0.7-0.4,1.4-0.6,2.2-0.6c0.6,0,1.2,0.1,1.8,0.3c0.5,0.2,0.9,0.5,1.2,0.9
			c0.3,0.4,0.6,0.8,0.7,1.3c0.2,0.6,0.2,1.1,0.2,1.7v6.4H383v-6.2c0-0.7-0.2-1.4-0.6-2c-0.4-0.5-1.1-0.8-1.8-0.8
			c-0.5,0-1,0.1-1.4,0.3c-0.4,0.2-0.7,0.5-1,0.8c-0.3,0.4-0.5,0.8-0.6,1.2c-0.1,0.5-0.2,1.1-0.2,1.6v5h-1.7L375.8,293.6z"/>
		<path class="st0" d="M397.6,299.6c-0.5,0.7-1.2,1.3-2,1.7c-0.8,0.3-1.7,0.5-2.5,0.5c-0.7,0-1.5-0.1-2.2-0.4
			c-0.6-0.3-1.2-0.7-1.6-1.2c-0.4-0.5-0.8-1.1-1-1.7c-0.2-0.7-0.4-1.4-0.4-2.1c0-0.7,0.1-1.5,0.4-2.2c0.2-0.6,0.6-1.2,1.1-1.7
			c0.5-0.5,1-0.9,1.7-1.1c0.7-0.3,1.4-0.4,2.1-0.4c0.7,0,1.4,0.1,2,0.4c0.6,0.2,1.1,0.6,1.5,1.1c0.4,0.5,0.8,1.1,1,1.7
			c0.3,0.7,0.4,1.5,0.4,2.3v0.6h-8.3c0,0.4,0.1,0.9,0.3,1.3c0.2,0.4,0.4,0.7,0.7,1.1c0.3,0.3,0.6,0.5,1,0.7c0.4,0.2,0.9,0.3,1.3,0.3
			c0.7,0,1.3-0.1,1.9-0.4c0.5-0.3,1-0.7,1.4-1.2L397.6,299.6z M396.2,295.4c0-0.8-0.3-1.5-0.9-2.1c-0.6-0.6-1.4-0.8-2.2-0.8
			c-0.8,0-1.7,0.2-2.3,0.8c-0.6,0.6-1,1.3-1.1,2.1H396.2z"/>
		<path class="st0" d="M418.9,289.1c-0.5-0.6-1-1.1-1.7-1.4c-0.7-0.3-1.4-0.5-2.1-0.5c-0.8,0-1.6,0.2-2.4,0.5
			c-0.7,0.3-1.4,0.8-1.9,1.4c-0.5,0.6-1,1.3-1.2,2.1c-0.3,0.8-0.4,1.6-0.4,2.5c0,0.9,0.1,1.7,0.4,2.5c0.3,0.7,0.7,1.4,1.2,2
			c0.5,0.6,1.2,1.1,1.9,1.4c1.6,0.7,3.4,0.7,5-0.1c0.8-0.4,1.5-0.9,2-1.6l1.4,1.2c-0.7,0.9-1.5,1.6-2.5,2.1
			c-1.1,0.5-2.2,0.7-3.4,0.7c-3.2,0.1-6.1-1.9-7.3-4.9c-0.8-2.1-0.8-4.4,0-6.5c0.4-1,0.9-1.8,1.6-2.6c0.7-0.7,1.6-1.3,2.5-1.7
			c1-0.4,2.1-0.6,3.2-0.6c1,0,2,0.2,3,0.6c1,0.4,1.8,1,2.5,1.9L418.9,289.1z"/>
		<path class="st0" d="M423,296.3c0-0.8,0.1-1.5,0.4-2.2c0.3-0.6,0.7-1.2,1.1-1.7c0.5-0.5,1.1-0.9,1.7-1.1c1.4-0.5,3-0.5,4.4,0
			c0.7,0.2,1.2,0.6,1.7,1.1c0.5,0.5,0.9,1.1,1.1,1.7c0.6,1.4,0.6,3,0,4.4c-0.3,0.6-0.7,1.2-1.1,1.7c-0.5,0.5-1.1,0.9-1.7,1.1
			c-1.4,0.5-3,0.5-4.4,0c-0.7-0.2-1.2-0.6-1.7-1.1c-0.5-0.5-0.9-1.1-1.1-1.7C423.1,297.8,423,297.1,423,296.3z M424.8,296.3
			c0,0.5,0.1,1,0.3,1.5c0.2,0.5,0.4,0.9,0.7,1.2c0.3,0.3,0.7,0.6,1.2,0.8c1,0.4,2,0.4,3,0c0.4-0.2,0.8-0.5,1.2-0.8
			c0.3-0.3,0.6-0.8,0.7-1.2c0.3-1,0.3-2,0-3c-0.3-0.9-1-1.6-1.9-2c-1-0.4-2-0.4-3,0c-0.9,0.4-1.6,1.1-1.9,2
			C424.9,295.3,424.8,295.8,424.8,296.3L424.8,296.3z"/>
		<path class="st0" d="M436.5,296.3c0-0.8,0.1-1.5,0.4-2.2c0.3-0.6,0.7-1.2,1.1-1.7c0.5-0.5,1.1-0.9,1.7-1.1
			c0.7-0.3,1.4-0.4,2.2-0.4c0.8,0,1.5,0.1,2.2,0.4c0.7,0.2,1.2,0.6,1.7,1.1c0.5,0.5,0.9,1.1,1.1,1.7c0.5,1.4,0.5,3,0,4.4
			c-0.3,0.6-0.7,1.2-1.1,1.7c-0.5,0.5-1.1,0.9-1.7,1.1c-0.7,0.3-1.4,0.4-2.2,0.4c-0.8,0-1.5-0.1-2.2-0.4c-0.6-0.2-1.2-0.6-1.7-1.1
			c-0.5-0.5-0.9-1.1-1.1-1.7C436.6,297.8,436.5,297.1,436.5,296.3z M438.3,296.3c0,0.5,0.1,1,0.2,1.5c0.3,0.9,1,1.6,1.9,2
			c0.5,0.2,1,0.3,1.5,0.3c0.5,0,1-0.1,1.5-0.3c0.4-0.2,0.8-0.5,1.2-0.8c0.3-0.3,0.6-0.8,0.7-1.2c0.3-1,0.3-2,0-3
			c-0.2-0.4-0.4-0.9-0.7-1.2c-0.3-0.3-0.7-0.6-1.2-0.8c-0.5-0.2-1-0.3-1.5-0.3c-0.5,0-1,0.1-1.5,0.3c-0.4,0.2-0.8,0.5-1.2,0.8
			c-0.3,0.3-0.6,0.8-0.7,1.2C438.4,295.3,438.3,295.8,438.3,296.3L438.3,296.3z"/>
		<path class="st0" d="M450.6,284.8h1.7v10.9l4.7-4.5h2.4l-5,4.7l5.5,5.6h-2.5l-5.1-5.4v5.4h-1.7L450.6,284.8z"/>
		<path class="st0" d="M463.2,304.5h-1.7l1.5-5.3h2L463.2,304.5z"/>
		<path class="st0" d="M254.1,312.4h1v6l0,0c0.1-0.3,0.3-0.5,0.6-0.7c0.2-0.2,0.5-0.3,0.7-0.5c0.3-0.1,0.5-0.2,0.8-0.3
			c0.8-0.2,1.6-0.1,2.4,0.2c0.5,0.2,0.9,0.5,1.2,0.8c0.4,0.3,0.6,0.8,0.8,1.2c0.2,0.5,0.3,1,0.3,1.6c0,0.5-0.1,1.1-0.3,1.6
			c-0.4,0.9-1.1,1.6-2,2c-0.8,0.3-1.6,0.4-2.4,0.2c-0.3-0.1-0.6-0.1-0.8-0.3c-0.3-0.1-0.5-0.3-0.7-0.5c-0.2-0.2-0.4-0.4-0.6-0.7l0,0
			v1.3h-1L254.1,312.4z M255,320.8c0,0.4,0.1,0.8,0.2,1.2c0.3,0.7,0.9,1.3,1.6,1.6c0.4,0.2,0.8,0.2,1.2,0.2c0.4,0,0.8-0.1,1.2-0.2
			c0.4-0.1,0.7-0.4,0.9-0.6c0.3-0.3,0.5-0.6,0.6-1c0.1-0.4,0.2-0.8,0.2-1.2c0-0.4-0.1-0.8-0.2-1.2c-0.1-0.4-0.3-0.7-0.6-1
			c-0.3-0.3-0.6-0.5-0.9-0.6c-0.4-0.2-0.8-0.2-1.2-0.2c-0.4,0-0.8,0.1-1.2,0.2c-0.4,0.2-0.7,0.4-1,0.6
			C255.3,319.1,254.9,319.9,255,320.8L255,320.8z"/>
		<path class="st0" d="M264.4,319.2c0-0.1,0-0.3,0-0.5s0-0.4,0-0.6s0-0.4,0-0.6s0-0.3,0-0.4h1c0,0.3,0,0.6,0,0.8c0,0.2,0,0.3,0,0.5
			c0.2-0.4,0.6-0.8,1-1.1c0.4-0.3,0.9-0.4,1.4-0.4h0.3l0.3,0.1l-0.1,0.9c-0.1,0-0.2-0.1-0.4-0.1c-0.4,0-0.7,0.1-1.1,0.2
			c-0.3,0.1-0.6,0.3-0.8,0.6c-0.2,0.2-0.3,0.5-0.4,0.8c-0.1,0.3-0.1,0.7-0.1,1v4h-1L264.4,319.2z"/>
		<path class="st0" d="M276.3,323.1c-0.3,0.5-0.8,1-1.4,1.2c-0.6,0.2-1.2,0.4-1.8,0.4c-0.5,0-1-0.1-1.5-0.3
			c-0.4-0.2-0.9-0.5-1.2-0.8c-0.3-0.4-0.6-0.8-0.8-1.2c-0.2-0.5-0.3-1-0.3-1.6c0-0.5,0.1-1,0.3-1.5c0.2-0.5,0.4-0.9,0.8-1.2
			c1.1-1.1,2.7-1.4,4.1-0.8c0.4,0.2,0.8,0.4,1.1,0.8c0.3,0.3,0.5,0.7,0.7,1.1c0.1,0.4,0.2,0.8,0.2,1.3v0.6h-6.2c0,0.3,0,0.5,0.1,0.8
			c0.1,0.3,0.2,0.6,0.4,0.9c0.2,0.3,0.5,0.6,0.9,0.8c0.4,0.2,0.9,0.3,1.4,0.3c0.5,0,1-0.1,1.4-0.4c0.4-0.2,0.8-0.6,1.1-1
			L276.3,323.1z M275.5,320.1c0-0.3-0.1-0.6-0.2-0.9c-0.3-0.6-0.8-1-1.3-1.2c-0.3-0.1-0.7-0.2-1-0.2c-0.5,0-0.9,0.1-1.3,0.3
			c-0.3,0.2-0.6,0.4-0.8,0.7c-0.2,0.2-0.3,0.5-0.4,0.8c-0.1,0.2-0.1,0.3-0.1,0.5L275.5,320.1z"/>
		<path class="st0" d="M284.7,321.4c0,0.4,0,0.7,0,1s0,0.6,0,0.8s0,0.5,0,0.7s0,0.4,0.1,0.6H284c-0.1-0.4-0.1-0.8-0.1-1.2l0,0
			c-0.2,0.4-0.6,0.8-1,1.1c-0.5,0.2-1,0.4-1.6,0.3c-0.3,0-0.6,0-0.9-0.1c-0.3-0.1-0.6-0.2-0.8-0.4c-0.3-0.2-0.5-0.4-0.6-0.7
			c-0.2-0.3-0.2-0.7-0.2-1c0-0.5,0.1-1,0.4-1.3c0.3-0.3,0.6-0.6,1.1-0.7c0.4-0.2,0.9-0.3,1.3-0.3c0.4,0,0.8-0.1,1.3-0.1h1.1v-0.4
			c0-0.5-0.2-1-0.6-1.4c-0.4-0.3-1-0.4-1.5-0.4c-0.8,0-1.6,0.3-2.3,0.8l-0.6-0.7c0.4-0.4,0.8-0.6,1.3-0.8c0.5-0.2,1-0.3,1.5-0.3
			c0.8,0,1.5,0.2,2.1,0.6c0.6,0.5,0.9,1.2,0.8,2L284.7,321.4z M282.8,320.8c-0.4,0-0.8,0-1.2,0.1c-0.3,0.1-0.7,0.1-1,0.3
			c-0.3,0.1-0.5,0.3-0.7,0.5c-0.2,0.2-0.3,0.5-0.3,0.8c0,0.2,0.1,0.4,0.2,0.6c0.1,0.2,0.2,0.3,0.4,0.4c0.2,0.1,0.3,0.2,0.5,0.2
			c0.2,0.1,0.4,0.1,0.6,0.1c0.4,0,0.9-0.1,1.3-0.2c0.3-0.1,0.6-0.3,0.8-0.6c0.2-0.2,0.3-0.5,0.4-0.8c0.1-0.3,0.1-0.6,0.1-0.9v-0.5
			H282.8z"/>
		<path class="st0" d="M287.6,322.6c0.2,0.4,0.5,0.7,0.9,0.9c0.4,0.2,0.8,0.3,1.2,0.3c0.2,0,0.4,0,0.6-0.1c0.2-0.1,0.4-0.2,0.5-0.3
			c0.2-0.1,0.3-0.3,0.4-0.4c0.1-0.2,0.2-0.4,0.1-0.6c0-0.3-0.1-0.6-0.3-0.8c-0.2-0.2-0.5-0.3-0.8-0.4c-0.3-0.1-0.7-0.2-1-0.2
			c-0.4-0.1-0.7-0.2-1.1-0.3c-0.3-0.1-0.6-0.3-0.8-0.6c-0.2-0.3-0.3-0.7-0.3-1.1c0-0.3,0.1-0.7,0.2-0.9c0.1-0.3,0.3-0.5,0.6-0.7
			c0.2-0.2,0.5-0.3,0.8-0.4c0.3-0.1,0.6-0.1,0.9-0.1c0.5,0,1.1,0.1,1.6,0.3c0.4,0.2,0.8,0.6,1,1l-0.9,0.5c-0.2-0.3-0.4-0.6-0.7-0.8
			c-0.3-0.2-0.7-0.3-1.1-0.3c-0.2,0-0.4,0-0.5,0.1c-0.2,0.1-0.4,0.1-0.5,0.2c-0.1,0.1-0.3,0.2-0.4,0.4c-0.1,0.2-0.2,0.3-0.1,0.5
			c0,0.3,0.1,0.6,0.3,0.7c0.2,0.2,0.5,0.3,0.8,0.4c0.3,0.1,0.7,0.2,1.1,0.2c0.3,0.1,0.7,0.2,1,0.3c0.3,0.1,0.6,0.4,0.8,0.6
			c0.2,0.3,0.4,0.7,0.3,1.2c0,0.3-0.1,0.7-0.2,1c-0.1,0.3-0.3,0.5-0.6,0.7c-0.3,0.2-0.5,0.3-0.9,0.4c-0.3,0.1-0.7,0.1-1,0.1
			c-0.6,0-1.2-0.1-1.8-0.4c-0.5-0.2-1-0.6-1.2-1.1L287.6,322.6z"/>
		<path class="st0" d="M298.3,318h-2.1v4.8c0,0.6,0.4,1,1,1c0.2,0,0.4,0,0.5-0.1c0.2,0,0.4-0.1,0.5-0.2l0.1,0.9l-0.6,0.2
			c-0.2,0-0.4,0.1-0.6,0.1c-0.3,0-0.6,0-0.9-0.2c-0.2-0.1-0.4-0.2-0.6-0.4c-0.1-0.2-0.3-0.4-0.3-0.6c-0.1-0.2-0.1-0.5-0.1-0.8V318
			h-1.6v-0.9h1.6V315h1v2.1h2.1L298.3,318z"/>
		<path class="st0" d="M304.8,319.2c0-0.2,0-0.3,0-0.5c0-0.2,0-0.4,0-0.6s0-0.4,0-0.6s0-0.3,0-0.4h1c0,0.3,0,0.6,0,0.8
			c0,0.2,0,0.3,0,0.5c0.2-0.4,0.6-0.8,1-1.1c0.4-0.3,0.9-0.4,1.4-0.4h0.3l0.3,0.1l-0.1,0.9c-0.1,0-0.2-0.1-0.4-0.1
			c-0.4,0-0.7,0.1-1.1,0.2c-0.3,0.1-0.6,0.3-0.8,0.6c-0.2,0.2-0.3,0.5-0.4,0.8c-0.1,0.3-0.1,0.7-0.1,1v4h-1L304.8,319.2z"/>
		<path class="st0" d="M316.7,323.1c-0.3,0.5-0.8,1-1.4,1.2c-0.6,0.2-1.2,0.4-1.8,0.4c-0.5,0-1.1-0.1-1.5-0.3
			c-0.4-0.2-0.8-0.5-1.2-0.8c-0.3-0.4-0.6-0.8-0.8-1.2c-0.2-0.5-0.3-1-0.3-1.6c0-0.5,0.1-1,0.3-1.5c0.2-0.5,0.4-0.9,0.8-1.2
			c0.3-0.3,0.7-0.6,1.2-0.8c0.5-0.2,1-0.3,1.5-0.3c0.5,0,1,0.1,1.5,0.3c0.4,0.2,0.8,0.4,1.1,0.8c0.3,0.3,0.5,0.7,0.7,1.1
			c0.1,0.4,0.2,0.8,0.2,1.3v0.6h-6.2c0,0.3,0,0.5,0.1,0.8c0.1,0.3,0.2,0.6,0.4,0.9c0.2,0.3,0.5,0.6,0.9,0.8c0.4,0.2,0.9,0.3,1.4,0.3
			c0.5,0,1-0.1,1.4-0.4c0.4-0.2,0.8-0.6,1-1L316.7,323.1z M316,320.1c0-0.3-0.1-0.6-0.2-0.9c-0.1-0.3-0.3-0.5-0.5-0.8
			c-0.2-0.2-0.5-0.4-0.8-0.5c-0.3-0.1-0.7-0.2-1-0.2c-0.5,0-0.9,0.1-1.3,0.3c-0.3,0.2-0.6,0.4-0.8,0.7c-0.2,0.2-0.3,0.5-0.4,0.8
			c-0.1,0.2-0.1,0.3-0.1,0.5H316z"/>
		<path class="st0" d="M325.6,323.4c-0.3,0.4-0.7,0.8-1.2,1c-0.5,0.2-1,0.3-1.5,0.3c-0.5,0-1.1-0.1-1.6-0.3
			c-0.5-0.2-0.9-0.5-1.2-0.8c-0.3-0.4-0.6-0.8-0.8-1.2c-0.2-0.5-0.3-1-0.3-1.6c0-0.5,0.1-1.1,0.3-1.6c0.2-0.5,0.5-0.9,0.8-1.2
			c0.3-0.4,0.8-0.6,1.2-0.8c0.5-0.2,1-0.3,1.6-0.3c0.5,0,1,0.1,1.5,0.3c0.5,0.2,0.9,0.5,1.2,0.9l-0.8,0.6c-0.2-0.3-0.5-0.6-0.9-0.8
			c-0.3-0.2-0.7-0.3-1.1-0.3c-0.4,0-0.8,0.1-1.2,0.2c-0.3,0.2-0.7,0.4-0.9,0.6c-0.3,0.3-0.5,0.6-0.6,1c-0.1,0.4-0.2,0.8-0.2,1.2
			c0,0.4,0.1,0.8,0.2,1.2c0.1,0.4,0.3,0.7,0.6,1c0.3,0.3,0.6,0.5,0.9,0.6c0.4,0.2,0.8,0.2,1.2,0.2c0.4,0,0.8-0.1,1.1-0.3
			c0.3-0.2,0.6-0.4,0.9-0.7L325.6,323.4z"/>
		<path class="st0" d="M327,320.8c0-0.5,0.1-1.1,0.3-1.6c0.2-0.5,0.5-0.9,0.8-1.2c0.4-0.4,0.8-0.6,1.2-0.8c0.5-0.2,1-0.3,1.6-0.3
			c0.5,0,1.1,0.1,1.6,0.3c0.9,0.4,1.6,1.1,2,2c0.2,0.5,0.3,1,0.3,1.6c0,0.5-0.1,1.1-0.3,1.6c-0.2,0.5-0.5,0.9-0.8,1.2
			c-0.4,0.4-0.8,0.6-1.2,0.8c-0.5,0.2-1,0.3-1.6,0.3c-0.5,0-1.1-0.1-1.6-0.3c-0.5-0.2-0.9-0.5-1.2-0.8c-0.3-0.4-0.6-0.8-0.8-1.2
			C327.1,321.8,327,321.3,327,320.8z M328,320.8c0,0.4,0.1,0.8,0.2,1.2c0.1,0.4,0.3,0.7,0.6,1c0.3,0.3,0.6,0.5,0.9,0.6
			c0.8,0.3,1.7,0.3,2.4,0c0.4-0.2,0.7-0.4,0.9-0.6c0.3-0.3,0.5-0.6,0.6-1c0.1-0.4,0.2-0.8,0.2-1.2c0-0.4-0.1-0.8-0.2-1.2
			c-0.1-0.4-0.3-0.7-0.6-1c-0.3-0.3-0.6-0.5-0.9-0.6c-0.8-0.3-1.7-0.3-2.4,0c-0.3,0.2-0.7,0.4-0.9,0.6c-0.3,0.3-0.5,0.6-0.6,1
			C328.1,320,328,320.4,328,320.8z"/>
		<path class="st0" d="M337.2,319.2c0-0.2,0-0.3,0-0.5c0-0.2,0-0.4,0-0.6s0-0.4,0-0.6s0-0.3,0-0.4h1c0,0.3,0,0.6,0,0.8
			c0,0.2,0,0.3,0,0.5h0c0.2-0.4,0.6-0.8,1-1c0.5-0.3,1-0.5,1.6-0.4c0.5,0,1,0.1,1.4,0.3c0.3,0.2,0.6,0.4,0.9,0.7
			c0.2,0.3,0.4,0.6,0.4,1c0.1,0.4,0.1,0.8,0.1,1.2v4.4h-1v-4.4c0-0.3,0-0.6-0.1-0.9c-0.1-0.3-0.1-0.5-0.3-0.8
			c-0.1-0.2-0.3-0.4-0.6-0.5c-0.3-0.1-0.6-0.2-0.9-0.2c-0.3,0-0.7,0.1-1,0.2c-0.3,0.1-0.6,0.3-0.8,0.6c-0.2,0.3-0.4,0.6-0.5,0.9
			c-0.1,0.4-0.2,0.9-0.2,1.3v3.7h-1L337.2,319.2z"/>
		<path class="st0" d="M346.5,322.6c0.2,0.4,0.5,0.7,0.9,0.9c0.4,0.2,0.8,0.3,1.2,0.3c0.2,0,0.4,0,0.6-0.1c0.2-0.1,0.4-0.2,0.5-0.3
			c0.2-0.1,0.3-0.3,0.4-0.4c0.1-0.2,0.2-0.4,0.1-0.6c0-0.3-0.1-0.6-0.3-0.8c-0.2-0.2-0.5-0.3-0.8-0.4c-0.3-0.1-0.7-0.2-1.1-0.2
			c-0.4-0.1-0.7-0.2-1.1-0.3c-0.3-0.1-0.6-0.3-0.8-0.6c-0.2-0.3-0.4-0.7-0.3-1.1c0-0.3,0.1-0.7,0.2-0.9c0.1-0.3,0.4-0.5,0.6-0.7
			c0.2-0.2,0.5-0.3,0.8-0.4c0.3-0.1,0.6-0.1,0.9-0.1c0.5,0,1.1,0.1,1.6,0.3c0.4,0.2,0.8,0.6,1,1l-0.9,0.5c-0.2-0.3-0.4-0.6-0.7-0.8
			c-0.3-0.2-0.7-0.3-1.1-0.3c-0.2,0-0.4,0-0.5,0.1c-0.2,0.1-0.3,0.1-0.5,0.2c-0.2,0.1-0.3,0.2-0.4,0.4c-0.1,0.2-0.2,0.3-0.1,0.5
			c0,0.3,0.1,0.6,0.3,0.7c0.2,0.2,0.5,0.3,0.8,0.4c0.3,0.1,0.7,0.2,1.1,0.2c0.4,0.1,0.7,0.2,1.1,0.3c0.3,0.1,0.6,0.4,0.8,0.6
			c0.2,0.3,0.4,0.7,0.3,1.2c0,0.3-0.1,0.7-0.2,1c-0.1,0.3-0.3,0.5-0.6,0.7c-0.3,0.2-0.5,0.3-0.9,0.4c-0.3,0.1-0.7,0.2-1,0.1
			c-0.6,0-1.2-0.1-1.8-0.4c-0.5-0.2-1-0.6-1.2-1.1L346.5,322.6z"/>
		<path class="st0" d="M357.2,318h-2.1v4.8c0,0.3,0.1,0.6,0.3,0.8c0.2,0.2,0.5,0.3,0.8,0.3c0.2,0,0.4,0,0.5-0.1
			c0.2,0,0.4-0.1,0.5-0.2l0.1,0.9l-0.6,0.2c-0.2,0-0.4,0.1-0.6,0.1c-0.3,0-0.6,0-0.9-0.2c-0.2-0.1-0.4-0.2-0.6-0.4
			c-0.2-0.2-0.3-0.4-0.3-0.6c-0.1-0.2-0.1-0.5-0.1-0.8V318h-1.6v-0.9h1.6V315h1v2.1h2.1L357.2,318z"/>
		<path class="st0" d="M359.2,319.2c0-0.1,0-0.3,0-0.5v-0.6c0-0.2,0-0.4,0-0.6s0-0.3,0-0.4h1c0,0.3,0,0.6,0,0.8c0,0.2,0,0.3,0,0.5
			c0.2-0.4,0.5-0.8,0.9-1.1c0.4-0.3,0.9-0.4,1.4-0.4h0.3l0.3,0.1l-0.1,0.9c-0.1,0-0.2-0.1-0.4-0.1c-0.4,0-0.7,0.1-1.1,0.2
			c-0.3,0.1-0.5,0.3-0.8,0.6c-0.2,0.2-0.4,0.5-0.4,0.8c-0.1,0.3-0.2,0.7-0.1,1v4h-1L359.2,319.2z"/>
		<path class="st0" d="M371.1,322.4c0,0.1,0,0.3,0,0.5v0.6c0,0.2,0,0.4,0,0.6s0,0.3,0,0.4h-1v-0.8c0-0.2,0-0.3,0-0.5l0,0
			c-0.2,0.4-0.6,0.8-1,1c-0.5,0.3-1,0.5-1.6,0.4c-0.5,0-1-0.1-1.4-0.3c-0.3-0.2-0.6-0.4-0.9-0.7c-0.2-0.3-0.4-0.6-0.4-1
			c-0.1-0.4-0.1-0.8-0.1-1.2v-4.4h1v4.4c0,0.3,0,0.6,0.1,0.9c0.1,0.3,0.1,0.5,0.3,0.8c0.1,0.2,0.3,0.4,0.6,0.5
			c0.3,0.1,0.6,0.2,0.9,0.2c0.3,0,0.7-0.1,1-0.2c0.3-0.1,0.6-0.3,0.8-0.6c0.2-0.3,0.4-0.6,0.5-1c0.1-0.4,0.2-0.9,0.2-1.3v-3.7h1
			L371.1,322.4z"/>
		<path class="st0" d="M380.3,323.4c-0.3,0.4-0.7,0.8-1.2,1c-0.5,0.2-1,0.3-1.5,0.3c-0.5,0-1.1-0.1-1.6-0.3
			c-0.5-0.2-0.9-0.5-1.2-0.8c-0.3-0.4-0.6-0.8-0.8-1.2c-0.2-0.5-0.3-1-0.3-1.6c0-0.5,0.1-1.1,0.3-1.6c0.2-0.5,0.5-0.9,0.8-1.2
			c0.3-0.4,0.8-0.6,1.2-0.8c0.5-0.2,1-0.3,1.6-0.3c0.5,0,1,0.1,1.5,0.3c0.5,0.2,0.9,0.5,1.2,0.9l-0.8,0.6c-0.3-0.3-0.6-0.5-0.9-0.7
			c-0.3-0.2-0.7-0.3-1.1-0.3c-0.4,0-0.8,0.1-1.2,0.2c-0.7,0.3-1.2,0.9-1.5,1.6c-0.1,0.4-0.2,0.8-0.2,1.2c0,0.4,0.1,0.8,0.2,1.2
			c0.1,0.4,0.3,0.7,0.6,1c0.3,0.3,0.6,0.5,0.9,0.6c0.4,0.2,0.8,0.2,1.2,0.2c0.4,0,0.8-0.1,1.1-0.3c0.3-0.2,0.6-0.4,0.9-0.7
			L380.3,323.4z"/>
		<path class="st0" d="M385.7,318h-2.1v4.8c0,0.3,0.1,0.6,0.3,0.8c0.2,0.2,0.5,0.3,0.8,0.3c0.2,0,0.4,0,0.5-0.1
			c0.2,0,0.4-0.1,0.5-0.2l0.1,0.9l-0.6,0.2c-0.2,0-0.4,0.1-0.6,0.1c-0.3,0-0.6,0-0.9-0.2c-0.2-0.1-0.4-0.2-0.6-0.4
			c-0.2-0.2-0.3-0.4-0.3-0.6c-0.1-0.2-0.1-0.5-0.1-0.8V318H381v-0.9h1.6V315h1v2.1h2.1L385.7,318z"/>
		<path class="st0" d="M387.7,314.1c0-0.4,0.3-0.7,0.7-0.7l0,0c0.2,0,0.4,0.1,0.5,0.2c0.3,0.3,0.3,0.7,0,1c-0.1,0.1-0.3,0.2-0.5,0.2
			c-0.2,0-0.4-0.1-0.5-0.2C387.7,314.5,387.7,314.3,387.7,314.1z M387.9,317.1h1v7.4h-1V317.1z"/>
		<path class="st0" d="M391.5,320.8c0-0.5,0.1-1.1,0.3-1.6c0.2-0.5,0.5-0.9,0.8-1.2c0.4-0.4,0.8-0.6,1.2-0.8c0.5-0.2,1-0.3,1.6-0.3
			c0.5,0,1.1,0.1,1.6,0.3c0.9,0.4,1.6,1.1,2,2c0.2,0.5,0.3,1,0.3,1.6c0,0.5-0.1,1.1-0.3,1.6c-0.2,0.5-0.5,0.9-0.8,1.2
			c-0.4,0.4-0.8,0.6-1.2,0.8c-0.5,0.2-1,0.3-1.6,0.3c-0.5,0-1.1-0.1-1.6-0.3c-0.5-0.2-0.9-0.5-1.2-0.8c-0.3-0.4-0.6-0.8-0.8-1.2
			C391.6,321.8,391.5,321.3,391.5,320.8z M392.5,320.8c0,0.4,0.1,0.8,0.2,1.2c0.1,0.4,0.3,0.7,0.6,1c0.3,0.3,0.6,0.5,0.9,0.6
			c0.8,0.3,1.7,0.3,2.4,0c0.4-0.2,0.7-0.4,0.9-0.6c0.3-0.3,0.5-0.6,0.6-1c0.1-0.4,0.2-0.8,0.2-1.2c0-0.4-0.1-0.8-0.2-1.2
			c-0.1-0.4-0.3-0.7-0.6-1c-0.3-0.3-0.6-0.5-0.9-0.6c-0.8-0.3-1.7-0.3-2.4,0c-0.4,0.2-0.7,0.4-0.9,0.6c-0.3,0.3-0.5,0.6-0.6,1
			C392.5,320,392.5,320.4,392.5,320.8L392.5,320.8z"/>
		<path class="st0" d="M401.7,319.2c0-0.1,0-0.3,0-0.5s0-0.4,0-0.6s0-0.4,0-0.6c0-0.1,0-0.3,0-0.4h1c0,0.3,0,0.6,0,0.8
			c0,0.2,0,0.3,0,0.5l0,0c0.2-0.4,0.6-0.8,1-1c0.5-0.3,1-0.5,1.6-0.4c0.5,0,1,0.1,1.4,0.3c0.3,0.2,0.6,0.4,0.9,0.7
			c0.2,0.3,0.4,0.6,0.4,1c0.1,0.4,0.1,0.8,0.1,1.2v4.4h-1v-4.4c0-0.3,0-0.6-0.1-0.9c-0.1-0.3-0.1-0.5-0.3-0.8
			c-0.1-0.2-0.3-0.4-0.6-0.5c-0.3-0.1-0.6-0.2-0.9-0.2c-0.3,0-0.7,0.1-1,0.2c-0.3,0.1-0.6,0.3-0.8,0.6c-0.2,0.3-0.4,0.6-0.5,0.9
			c-0.1,0.4-0.2,0.9-0.2,1.3v3.7h-1L401.7,319.2z"/>
		<path class="st0" d="M415.2,317.1h1v1.3l0,0c0.1-0.3,0.3-0.5,0.6-0.7c0.2-0.2,0.5-0.3,0.7-0.5c0.3-0.1,0.5-0.2,0.8-0.3
			c0.8-0.2,1.6-0.1,2.4,0.2c0.5,0.2,0.9,0.5,1.3,0.8c0.4,0.3,0.6,0.8,0.8,1.2c0.2,0.5,0.3,1,0.3,1.6c0,0.5-0.1,1.1-0.3,1.6
			c-0.4,0.9-1.1,1.6-2,2c-0.8,0.3-1.6,0.4-2.4,0.2c-0.3-0.1-0.6-0.1-0.8-0.3c-0.3-0.1-0.5-0.3-0.7-0.5c-0.2-0.2-0.4-0.4-0.6-0.7l0,0
			v4.9h-1L415.2,317.1z M416.1,320.8c0,0.4,0.1,0.8,0.2,1.2c0.3,0.7,0.9,1.3,1.6,1.6c0.4,0.2,0.8,0.2,1.2,0.2c0.4,0,0.8-0.1,1.2-0.2
			c0.3-0.1,0.7-0.4,0.9-0.6c0.3-0.3,0.5-0.6,0.6-1c0.1-0.4,0.2-0.8,0.2-1.2c0-0.4-0.1-0.8-0.2-1.2c-0.3-0.7-0.8-1.3-1.5-1.6
			c-0.4-0.2-0.8-0.2-1.2-0.2c-0.8,0-1.6,0.3-2.2,0.9C416.4,319.2,416.1,319.9,416.1,320.8L416.1,320.8z"/>
		<path class="st0" d="M431.3,321.4v1c0,0.3,0,0.6,0,0.8s0,0.5,0,0.7s0,0.4,0.1,0.6h-0.9c-0.1-0.4-0.1-0.8-0.1-1.2l0,0
			c-0.2,0.4-0.6,0.8-1,1.1c-0.5,0.2-1,0.4-1.6,0.3c-0.3,0-0.6,0-0.9-0.1c-0.3-0.1-0.6-0.2-0.8-0.4c-0.3-0.2-0.5-0.4-0.6-0.7
			c-0.2-0.3-0.2-0.7-0.2-1c0-0.5,0.1-1,0.4-1.3c0.3-0.3,0.7-0.6,1.1-0.7c0.4-0.2,0.9-0.3,1.4-0.3c0.4,0,0.8-0.1,1.2-0.1h1.1v-0.4
			c0-0.5-0.2-1-0.6-1.4c-0.4-0.3-1-0.4-1.5-0.4c-0.8,0-1.6,0.3-2.2,0.8l-0.6-0.7c0.4-0.4,0.8-0.6,1.3-0.8c0.5-0.2,1-0.3,1.5-0.3
			c0.8,0,1.5,0.2,2.1,0.6c0.6,0.5,0.9,1.2,0.8,2L431.3,321.4z M429.3,320.8c-0.4,0-0.8,0-1.2,0.1c-0.3,0.1-0.7,0.1-1,0.3
			c-0.3,0.1-0.5,0.3-0.7,0.5c-0.2,0.2-0.3,0.5-0.3,0.8c0,0.2,0.1,0.4,0.2,0.6c0.1,0.2,0.2,0.3,0.4,0.4c0.2,0.1,0.3,0.2,0.5,0.2
			c0.2,0.1,0.4,0.1,0.6,0.1c0.4,0,0.9-0.1,1.3-0.2c0.3-0.1,0.6-0.3,0.8-0.6c0.2-0.2,0.3-0.5,0.4-0.8c0.1-0.3,0.1-0.6,0.1-0.9v-0.5
			H429.3z"/>
		<path class="st0" d="M437.8,318h-2.1v4.8c0,0.3,0.1,0.6,0.3,0.8c0.2,0.2,0.5,0.3,0.8,0.3c0.2,0,0.4,0,0.6-0.1
			c0.2,0,0.4-0.1,0.5-0.2l0.1,0.9l-0.6,0.2c-0.2,0-0.4,0.1-0.6,0.1c-0.3,0-0.6,0-0.9-0.2c-0.2-0.1-0.4-0.2-0.6-0.4
			c-0.2-0.2-0.3-0.4-0.3-0.6c-0.1-0.2-0.1-0.5-0.1-0.8V318h-1.6v-0.9h1.6V315h1v2.1h2.1L437.8,318z"/>
		<path class="st0" d="M439.7,314.1c0-0.4,0.3-0.7,0.7-0.7c0.2,0,0.4,0.1,0.5,0.2c0.2,0.3,0.1,0.8-0.3,1c-0.2,0.1-0.5,0.1-0.7,0
			C439.8,314.5,439.7,314.3,439.7,314.1z M439.9,317.1h1v7.4h-1V317.1z"/>
		<path class="st0" d="M450.5,323.1c-0.3,0.5-0.8,1-1.4,1.2c-0.6,0.2-1.2,0.4-1.8,0.4c-0.5,0-1.1-0.1-1.5-0.3
			c-0.4-0.2-0.8-0.5-1.2-0.8c-0.3-0.4-0.6-0.8-0.8-1.2c-0.2-0.5-0.3-1-0.3-1.6c0-0.5,0.1-1,0.3-1.5c0.2-0.5,0.4-0.9,0.8-1.2
			c0.7-0.7,1.7-1.1,2.6-1.1c0.5,0,1,0.1,1.5,0.3c0.4,0.2,0.8,0.4,1.1,0.8c0.3,0.3,0.5,0.7,0.7,1.1c0.1,0.4,0.2,0.8,0.2,1.3v0.6h-6.2
			c0,0.3,0,0.5,0.1,0.8c0.1,0.3,0.2,0.6,0.4,0.9c0.2,0.3,0.5,0.6,0.9,0.8c0.4,0.2,0.9,0.3,1.4,0.3c0.5,0,1-0.1,1.4-0.4
			c0.4-0.2,0.8-0.6,1.1-1L450.5,323.1z M449.7,320.1c0-0.3-0.1-0.6-0.2-0.9c-0.1-0.3-0.3-0.5-0.5-0.8c-0.2-0.2-0.5-0.4-0.8-0.5
			c-0.3-0.1-0.7-0.2-1-0.2c-0.5,0-0.9,0.1-1.3,0.3c-0.3,0.2-0.6,0.4-0.8,0.7c-0.2,0.2-0.3,0.5-0.4,0.8c-0.1,0.2-0.1,0.3-0.1,0.5
			H449.7z"/>
		<path class="st0" d="M453.2,319.2c0-0.1,0-0.3,0-0.5s0-0.4,0-0.6s0-0.4,0-0.6s0-0.3,0-0.4h1c0,0.3,0,0.6,0,0.8c0,0.2,0,0.3,0,0.5
			l0,0c0.2-0.4,0.6-0.8,1-1c0.5-0.3,1-0.5,1.6-0.4c0.5,0,1,0.1,1.4,0.3c0.3,0.2,0.6,0.4,0.9,0.7c0.2,0.3,0.4,0.6,0.4,1
			c0.1,0.4,0.1,0.8,0.1,1.2v4.4h-1v-4.4c0-0.3,0-0.6-0.1-0.9c-0.1-0.3-0.1-0.5-0.3-0.8c-0.1-0.2-0.3-0.4-0.6-0.5
			c-0.3-0.1-0.6-0.2-0.9-0.2c-0.3,0-0.7,0.1-1,0.2c-0.3,0.1-0.6,0.3-0.8,0.6c-0.2,0.3-0.4,0.6-0.5,0.9c-0.1,0.4-0.2,0.9-0.2,1.3v3.7
			h-1L453.2,319.2z"/>
		<path class="st0" d="M466,318h-2.1v4.8c0,0.3,0.1,0.6,0.3,0.8c0.2,0.2,0.5,0.3,0.8,0.3c0.2,0,0.4,0,0.5-0.1c0.2,0,0.4-0.1,0.5-0.2
			l0.1,0.9l-0.6,0.2c-0.2,0-0.4,0.1-0.6,0.1c-0.3,0-0.6,0-0.9-0.2c-0.2-0.1-0.4-0.2-0.6-0.4c-0.2-0.2-0.3-0.4-0.3-0.6
			c-0.1-0.2-0.1-0.5-0.1-0.8V318h-1.6v-0.9h1.6V315h1v2.1h2.1V318z"/>
		<path class="st0" d="M417.4,191.2c0,1.7,0.8,3.6,4.1,3.6h1c-0.4,2.7-2,4.4-5,6l0.7,1.4c4.4-2.1,6.9-4.8,6.9-9.6
			c0-2.8-1.6-4.7-4.3-4.7c-1.8-0.1-3.4,1.3-3.4,3.2C417.4,191.2,417.3,191.2,417.4,191.2 M427,191.3c0,1.7,0.8,3.6,4.1,3.6h1
			c-0.4,2.7-2,4.4-5,6l0.7,1.4c4.4-2.1,6.9-4.8,6.9-9.6c0-2.8-1.6-4.6-4.3-4.6C428.5,188,427,189.4,427,191.3
			C426.9,191.3,426.9,191.3,427,191.3"/>
	</g>
</g>
<path class="st1" d="M288.9,34.3c0-5.3-2.5-11.3-12.7-11.3H273c1.1-8.5,6.3-13.7,15.5-18.6L286.3,0c-13.9,6.4-21.6,15.1-21.6,30.1
	c0,8.7,4.9,14.6,13.4,14.6C284.6,44.7,288.9,39.9,288.9,34.3 M258.8,34.3c0-5.3-2.5-11.3-12.7-11.3h-3.2c1.1-8.5,6.3-13.7,15.5-18.6
	L256.2,0c-13.9,6.4-21.6,15.1-21.6,30.1c0,8.7,4.9,14.6,13.4,14.6C254.5,44.7,258.8,39.9,258.8,34.3"/>
</svg>
