<svg xmlns="http://www.w3.org/2000/svg" xmlns:xlink="http://www.w3.org/1999/xlink" viewBox="0 0 32 32"><defs><style>.cls-1{fill:none;}.cls-2{fill:#53575a;}.cls-3{clip-path:url(#clip-path);}.cls-4{fill:#fff;}</style><clipPath id="clip-path"><rect class="cls-1" width="32" height="32" rx="6"/></clipPath></defs><g id="Layer_2" data-name="Layer 2"><g id="Layer_1-2" data-name="Layer 1"><rect class="cls-2" width="32" height="32" rx="6"/><g class="cls-3"><path class="cls-4" d="M27.91,27.25a.74.74,0,0,1-.74.74h-3.7a.75.75,0,0,1-.75-.74V20.47c0-1,.3-4.43-2.64-4.43-2.28,0-2.74,2.34-2.83,3.39v7.82a.75.75,0,0,1-.75.74H12.92a.74.74,0,0,1-.74-.74V12.67a.74.74,0,0,1,.74-.75H16.5a.75.75,0,0,1,.75.75v1.26c.84-1.27,2.1-2.25,4.77-2.25,5.93,0,5.89,5.53,5.89,8.57ZM7.36,10.56a3.28,3.28,0,1,1,3.28-3.28,3.27,3.27,0,0,1-3.28,3.28M9.9,27.18a.81.81,0,0,1-.81.81H5.64a.81.81,0,0,1-.81-.81V12.73a.81.81,0,0,1,.81-.81H9.09a.81.81,0,0,1,.81.81Z"/></g></g></g></svg>