<svg xmlns="http://www.w3.org/2000/svg" viewBox="0 0 371.42 82.68"><defs><style>.cls-1{fill:#e9e2dd;}.cls-2,.cls-4{fill:none;}.cls-2{stroke:#fff;stroke-width:0.98px;}.cls-3{fill:#ff831e;}.cls-4{stroke:#545759;stroke-miterlimit:2.91;stroke-width:0.31px;}.cls-5{fill:#545759;}</style></defs><g id="Layer_2" data-name="Layer 2"><g id="Layer_1-2" data-name="Layer 1"><rect class="cls-1" width="371.42" height="82.68"/><rect class="cls-2" x="6.02" y="6.48" width="359.37" height="69.72"/><polygon class="cls-3" points="337.64 58.52 346.18 70.28 348.32 70.28 356.85 58.52 354.43 58.52 347.25 68.46 340.07 58.52 337.64 58.52"/><path class="cls-4" d="M163.19,61.58h.23a7,7,0,0,0,.15,1.37,12,12,0,0,0,.41,1.5,8.81,8.81,0,0,0,.65,1.43,4,4,0,0,0,.85,1.08,7,7,0,0,0,2.12,1.28,7.18,7.18,0,0,0,2.5.49h.26a8.23,8.23,0,0,0,2.5-.5,4.77,4.77,0,0,0,2-1.68,4.36,4.36,0,0,0,.78-2.33,4.54,4.54,0,0,0-.69-2.5,5.78,5.78,0,0,0-2.41-2.13l-3.71-1.91a11,11,0,0,1-2.94-2.08,7,7,0,0,1-1.54-2.32,5.13,5.13,0,0,1-.34-2.36,5.58,5.58,0,0,1,.71-2.21,6.29,6.29,0,0,1,1.57-1.82,8.25,8.25,0,0,1,2.25-1.27,5.66,5.66,0,0,1,1.17-.32,8.11,8.11,0,0,1,1.21-.09,7.25,7.25,0,0,1,2.65.5l1,.36a4.49,4.49,0,0,0,1.06.2,2.1,2.1,0,0,0,1-.18,1.83,1.83,0,0,0,.83-.79h.2v6.38h-.23a4.66,4.66,0,0,0-.2-1.29,6.35,6.35,0,0,0-.51-1.31A9.34,9.34,0,0,0,176,47.9a6.94,6.94,0,0,0-.83-.92,5.8,5.8,0,0,0-1.94-1.16,6.49,6.49,0,0,0-2.29-.4,7,7,0,0,0-1,.07,6,6,0,0,0-1,.22,4.31,4.31,0,0,0-2.1,1.41,3,3,0,0,0-.62,2.24,5.27,5.27,0,0,0,1.31,2.69,13.07,13.07,0,0,0,3.67,2.83l3.38,1.74a8.53,8.53,0,0,1,2.56,2,6.21,6.21,0,0,1,1.3,2.43,5.33,5.33,0,0,1-1.2,4.86,7.78,7.78,0,0,1-2.45,1.85,11.58,11.58,0,0,1-3.67,1.08h.06l-.43,0H170a6.63,6.63,0,0,1-2.56-.5v0a1.36,1.36,0,0,1-.29-.11,5.29,5.29,0,0,0-1.94-.46,2.4,2.4,0,0,0-1.13.24,1.18,1.18,0,0,0-.55.53,2.09,2.09,0,0,0-.17.39v0h-.21Z"/><path class="cls-4" d="M196,45.48h10.26v.2h-.44c-.31,0-.73.07-1.23.15a5.21,5.21,0,0,0-1.52.5,3.73,3.73,0,0,0-1.29,1.09,3,3,0,0,0-.55,1.88V62a6.22,6.22,0,0,1-.64,2.8,6.88,6.88,0,0,1-1.88,2.31,8.79,8.79,0,0,1-2.77,1.44,10.88,10.88,0,0,1-3.32.5h-.17a10.18,10.18,0,0,1-3.21-.5,8.39,8.39,0,0,1-2.67-1.44,7,7,0,0,1-1.9-2.32A6.9,6.9,0,0,1,184,61.7V47.8a2.11,2.11,0,0,0-.68-1.6,3.35,3.35,0,0,0-1.91-.52h-.94v-.23h10.26v.14l0,0h0v.06h-1.2a3,3,0,0,0-1.59.5,2.07,2.07,0,0,0-.68,1.38V61.5a9.73,9.73,0,0,0,.53,3.23,6.35,6.35,0,0,0,1.57,2.5,5.68,5.68,0,0,0,2.55,1.39,7,7,0,0,0,3.44-.07A8.8,8.8,0,0,0,198.58,67a6,6,0,0,0,1.76-2.14A5.85,5.85,0,0,0,201,62V49.15a2.91,2.91,0,0,0-.59-1.82,3.84,3.84,0,0,0-1.29-1,5.55,5.55,0,0,0-1.5-.47c-.51-.08-.91-.13-1.21-.15H196Z"/><path class="cls-4" d="M208.92,69.05v-.2h0a11.37,11.37,0,0,0,1.69-.11,2.27,2.27,0,0,0,1.09-.42,1.72,1.72,0,0,0,.57-.89,5,5,0,0,0,.18-1.49V48.62a3.27,3.27,0,0,0-.57-2.22,3.05,3.05,0,0,0-2-.69h-1v-.17h11.2a11.85,11.85,0,0,1,3.41.44,7.28,7.28,0,0,1,2.35,1.26,4.89,4.89,0,0,1,1.34,1.84,5.85,5.85,0,0,1,.46,2.36,5.28,5.28,0,0,1-1.8,4.21,6.92,6.92,0,0,1-2.35,1.26,5.51,5.51,0,0,1-1.36.32c-.48.06-1,.11-1.52.15A4.62,4.62,0,0,1,222,58a6.58,6.58,0,0,1,1.57,1.62l5.53,7.67a2.87,2.87,0,0,0,1,.86,5.48,5.48,0,0,0,1.12.47,4.45,4.45,0,0,0,1,.2l.5,0h0v.2h-5.88l-7.18-9.93a6.82,6.82,0,0,0-.8-.93,3,3,0,0,0-.71-.51,2.3,2.3,0,0,0-.66-.24,3.74,3.74,0,0,0-.68-.06h-1.08V66a5.74,5.74,0,0,0,.13,1.36,1.86,1.86,0,0,0,.44.85,1.81,1.81,0,0,0,.81.48,4.51,4.51,0,0,0,1.23.2h.91v.2H208.92Zm6.74-11.84h4.23a4.24,4.24,0,0,0,2.47-.74,5.79,5.79,0,0,0,.66-.6,5.41,5.41,0,0,0,.63-.87,7,7,0,0,0,.56-1.6,8.6,8.6,0,0,0,.21-2,6.89,6.89,0,0,0-1.09-4,4,4,0,0,0-3.44-1.68H218a3.83,3.83,0,0,0-1.09.24,1.75,1.75,0,0,0-1.12,1.35,6.67,6.67,0,0,0-.11,1.29v8.62Z"/><path class="cls-4" d="M233.59,57.23a12.88,12.88,0,0,1,.82-4.61,12.52,12.52,0,0,1,2.23-3.76,10.08,10.08,0,0,1,3.3-2.56,9,9,0,0,1,4-.94,8,8,0,0,1,2.88.56l.06,0L247,46l.4.19c.12.07.26.13.39.19a6.07,6.07,0,0,0,2.43.73,2.42,2.42,0,0,0,1.34-.29,1.52,1.52,0,0,0,.67-1h.18v8.55h-.18a13.34,13.34,0,0,0-1.12-3.88,9.58,9.58,0,0,0-1.91-2.73,8,8,0,0,0-2.44-1.62,6.92,6.92,0,0,0-2.35-.55v0a5.28,5.28,0,0,0-3,.92A8.45,8.45,0,0,0,239,49a13.51,13.51,0,0,0-1.61,3.71,16.51,16.51,0,0,0-.59,4.52,16.16,16.16,0,0,0,1,5.72,10.71,10.71,0,0,0,2.59,4.13,7,7,0,0,0,1.41,1,8.3,8.3,0,0,0,1.17.55,4.64,4.64,0,0,0,1.44.2,6.31,6.31,0,0,0,2.32-.49,9.86,9.86,0,0,0,1.89-1.12l.35-.37a3.65,3.65,0,0,0,.47-.65,4.44,4.44,0,0,0,.41-.95A4.1,4.1,0,0,0,250,64V61.29a1.54,1.54,0,0,0-.31-1,1.83,1.83,0,0,0-.82-.55,4.71,4.71,0,0,0-1.22-.2q-.71,0-1.5,0v-.24h9.4v.24c-.45,0-.83,0-1.13,0a2.2,2.2,0,0,0-.75.16.86.86,0,0,0-.43.43,2.09,2.09,0,0,0-.13.79v6.52h-.2a1.74,1.74,0,0,0-1.34-.48,5.88,5.88,0,0,0-1.68.37c-.59.21-1.22.47-1.88.78a13.22,13.22,0,0,1-1.95.72,9.14,9.14,0,0,1-6.14-.65,11.36,11.36,0,0,1-1.77-1.09,8.81,8.81,0,0,1-1.53-1.47,12.52,12.52,0,0,1-2.23-3.76,13.22,13.22,0,0,1-.62-2.25A12.92,12.92,0,0,1,233.59,57.23Z"/><path class="cls-4" d="M272.36,68.55a7.11,7.11,0,0,0,1.72-.76,6.28,6.28,0,0,0,1.3-1.08,8.08,8.08,0,0,0,1-1.25,10,10,0,0,0,1.33-3.4h.2l-.85,7H257.6v-.2a11.37,11.37,0,0,0,1.69-.11,2.35,2.35,0,0,0,1.1-.42,1.75,1.75,0,0,0,.59-.89,5,5,0,0,0,.18-1.49V49a1.1,1.1,0,0,0,0-.18,1.09,1.09,0,0,1,0-.18,3.22,3.22,0,0,0-.58-2.22,3,3,0,0,0-2-.69h-.94v-.17h18.64v6.17H276v0c-.16-.65-.34-1.32-.54-2a6.07,6.07,0,0,0-1-1.92,5,5,0,0,0-1.76-1.44,6.38,6.38,0,0,0-2.94-.58h-5.53v11.5h4.21a3.3,3.3,0,0,0,2-.58,3.89,3.89,0,0,0,1.09-1.22,4,4,0,0,0,.45-1.29,7.28,7.28,0,0,0,.09-.82v-.09h.21v8.2h-.21v-.09a7.81,7.81,0,0,0-.09-.85,3.78,3.78,0,0,0-.47-1.34,3.61,3.61,0,0,0-1.13-1.22,3.56,3.56,0,0,0-2.07-.53h-4.06v8.06a2.94,2.94,0,0,1,0,.52,6.32,6.32,0,0,0,.13,1.36,2,2,0,0,0,.44.85,1.92,1.92,0,0,0,.81.48,4.66,4.66,0,0,0,1.24.2h3.26A7.41,7.41,0,0,0,272.36,68.55Z"/><path class="cls-4" d="M280,57.09a12.61,12.61,0,0,1,.82-4.62A11.38,11.38,0,0,1,283,48.68a9.76,9.76,0,0,1,3.23-2.53,9.2,9.2,0,0,1,4-.94H292a9.2,9.2,0,0,1,4,.94,9.79,9.79,0,0,1,3.29,2.53,12.69,12.69,0,0,1,2.23,3.79,13.35,13.35,0,0,1,.8,4.62,13.18,13.18,0,0,1-.8,4.61,12.57,12.57,0,0,1-2.23,3.79A9.79,9.79,0,0,1,296,68a9.06,9.06,0,0,1-4,.94h-1.7a9.06,9.06,0,0,1-4-.94A9.76,9.76,0,0,1,283,65.49a11.28,11.28,0,0,1-2.21-3.79A12.59,12.59,0,0,1,280,57.09Zm3.2,0a17.65,17.65,0,0,0,.55,4.49,12.13,12.13,0,0,0,1.63,3.77,6,6,0,0,0,.45.67,5.09,5.09,0,0,0,.52.59A7.63,7.63,0,0,0,288.12,68c.58.3,1.05.52,1.4.66l.56.12a3.11,3.11,0,0,0,.62.06h.88a2.74,2.74,0,0,0,.59-.06l.58-.12c.34-.14.79-.36,1.37-.66a8.21,8.21,0,0,0,1.81-1.37,6.11,6.11,0,0,0,.48-.59c.17-.21.33-.44.49-.67a12.63,12.63,0,0,0,1.64-3.77,18.32,18.32,0,0,0,0-9,12.69,12.69,0,0,0-1.64-3.76c-.16-.24-.32-.46-.49-.68s-.32-.41-.48-.59a8.14,8.14,0,0,0-1.81-1.36,13,13,0,0,0-1.37-.66l-.58-.11a3.65,3.65,0,0,0-.59,0h-.88a4.71,4.71,0,0,0-1.18.15,12.11,12.11,0,0,0-1.4.66,7.83,7.83,0,0,0-2.29,1.95,6.15,6.15,0,0,0-.45.68,12.18,12.18,0,0,0-1.63,3.76A17.67,17.67,0,0,0,283.2,57.09Z"/><path class="cls-4" d="M330.23,45.54v.2h-.44a9,9,0,0,0-1.25.13,5.58,5.58,0,0,0-1.51.5,3.76,3.76,0,0,0-1.28,1.08,3,3,0,0,0-.54,1.88V69.05H325L307.69,47.42V65.23a3.07,3.07,0,0,0,.54,1.91,3.62,3.62,0,0,0,1.28,1.07,5.26,5.26,0,0,0,1.51.5,7.86,7.86,0,0,0,1.25.14h.44v.2H302.43v-.2h.44a7.86,7.86,0,0,0,1.25-.14,5.36,5.36,0,0,0,1.51-.5,3.71,3.71,0,0,0,1.28-1.07,3.07,3.07,0,0,0,.54-1.91V48.5c0-.47,0-.87,0-1.21a1.75,1.75,0,0,0-.26-.87,1.37,1.37,0,0,0-.78-.52,6.18,6.18,0,0,0-1.57-.16h-.91v-.2h6.29L325,63.91V49.33a3,3,0,0,0-.54-1.88,3.85,3.85,0,0,0-1.28-1.08,5.65,5.65,0,0,0-1.52-.5,8.82,8.82,0,0,0-1.25-.13h-.44v-.2h10.29Z"/><path class="cls-5" d="M163.19,61.58h.23a7,7,0,0,0,.15,1.37,12,12,0,0,0,.41,1.5,8.81,8.81,0,0,0,.65,1.43,4,4,0,0,0,.85,1.08,7,7,0,0,0,2.12,1.28,7.18,7.18,0,0,0,2.5.49h.26a8.23,8.23,0,0,0,2.5-.5,4.77,4.77,0,0,0,2-1.68,4.36,4.36,0,0,0,.78-2.33,4.54,4.54,0,0,0-.69-2.5,5.78,5.78,0,0,0-2.41-2.13l-3.71-1.91a11,11,0,0,1-2.94-2.08,7,7,0,0,1-1.54-2.32,5.13,5.13,0,0,1-.34-2.36,5.58,5.58,0,0,1,.71-2.21,6.29,6.29,0,0,1,1.57-1.82,8.25,8.25,0,0,1,2.25-1.27,5.66,5.66,0,0,1,1.17-.32,8.11,8.11,0,0,1,1.21-.09,7.25,7.25,0,0,1,2.65.5l1,.36a4.49,4.49,0,0,0,1.06.2,2.1,2.1,0,0,0,1-.18,1.83,1.83,0,0,0,.83-.79h.2v6.38h-.23a4.66,4.66,0,0,0-.2-1.29,6.35,6.35,0,0,0-.51-1.31A9.34,9.34,0,0,0,176,47.9a6.94,6.94,0,0,0-.83-.92,5.8,5.8,0,0,0-1.94-1.16,6.49,6.49,0,0,0-2.29-.4,7,7,0,0,0-1,.07,6,6,0,0,0-1,.22,4.31,4.31,0,0,0-2.1,1.41,3,3,0,0,0-.62,2.24,5.27,5.27,0,0,0,1.31,2.69,13.07,13.07,0,0,0,3.67,2.83l3.38,1.74a8.53,8.53,0,0,1,2.56,2,6.21,6.21,0,0,1,1.3,2.43,5.33,5.33,0,0,1-1.2,4.86,7.78,7.78,0,0,1-2.45,1.85,11.58,11.58,0,0,1-3.67,1.08h.06l-.43,0H170a6.63,6.63,0,0,1-2.56-.5v0a1.36,1.36,0,0,1-.29-.11,5.29,5.29,0,0,0-1.94-.46,2.4,2.4,0,0,0-1.13.24,1.18,1.18,0,0,0-.55.53,2.09,2.09,0,0,0-.17.39v0h-.21Z"/><path class="cls-5" d="M196,45.48h10.26v.2h-.44c-.31,0-.73.07-1.23.15a5.21,5.21,0,0,0-1.52.5,3.73,3.73,0,0,0-1.29,1.09,3,3,0,0,0-.55,1.88V62a6.22,6.22,0,0,1-.64,2.8,6.88,6.88,0,0,1-1.88,2.31,8.79,8.79,0,0,1-2.77,1.44,10.88,10.88,0,0,1-3.32.5h-.17a10.18,10.18,0,0,1-3.21-.5,8.39,8.39,0,0,1-2.67-1.44,7,7,0,0,1-1.9-2.32A6.9,6.9,0,0,1,184,61.7V47.8a2.11,2.11,0,0,0-.68-1.6,3.35,3.35,0,0,0-1.91-.52h-.94v-.23h10.26v.14l0,0h0v.06h-1.2a3,3,0,0,0-1.59.5,2.07,2.07,0,0,0-.68,1.38V61.5a9.73,9.73,0,0,0,.53,3.23,6.35,6.35,0,0,0,1.57,2.5,5.68,5.68,0,0,0,2.55,1.39,7,7,0,0,0,3.44-.07A8.8,8.8,0,0,0,198.58,67a6,6,0,0,0,1.76-2.14A5.85,5.85,0,0,0,201,62V49.15a2.91,2.91,0,0,0-.59-1.82,3.84,3.84,0,0,0-1.29-1,5.55,5.55,0,0,0-1.5-.47c-.51-.08-.91-.13-1.21-.15H196Z"/><path class="cls-5" d="M208.92,69.05v-.2h0a11.37,11.37,0,0,0,1.69-.11,2.27,2.27,0,0,0,1.09-.42,1.72,1.72,0,0,0,.57-.89,5,5,0,0,0,.18-1.49V48.62a3.27,3.27,0,0,0-.57-2.22,3.05,3.05,0,0,0-2-.69h-1v-.17h11.2a11.85,11.85,0,0,1,3.41.44,7.28,7.28,0,0,1,2.35,1.26,4.89,4.89,0,0,1,1.34,1.84,5.85,5.85,0,0,1,.46,2.36,5.28,5.28,0,0,1-1.8,4.21,6.92,6.92,0,0,1-2.35,1.26,5.51,5.51,0,0,1-1.36.32c-.48.06-1,.11-1.52.15A4.62,4.62,0,0,1,222,58a6.58,6.58,0,0,1,1.57,1.62l5.53,7.67a2.87,2.87,0,0,0,1,.86,5.48,5.48,0,0,0,1.12.47,4.45,4.45,0,0,0,1,.2l.5,0h0v.2h-5.88l-7.18-9.93a6.82,6.82,0,0,0-.8-.93,3,3,0,0,0-.71-.51,2.3,2.3,0,0,0-.66-.24,3.74,3.74,0,0,0-.68-.06h-1.08V66a5.74,5.74,0,0,0,.13,1.36,1.86,1.86,0,0,0,.44.85,1.81,1.81,0,0,0,.81.48,4.51,4.51,0,0,0,1.23.2h.91v.2H208.92Zm6.74-11.84h4.23a4.24,4.24,0,0,0,2.47-.74,5.79,5.79,0,0,0,.66-.6,5.41,5.41,0,0,0,.63-.87,7,7,0,0,0,.56-1.6,8.6,8.6,0,0,0,.21-2,6.89,6.89,0,0,0-1.09-4,4,4,0,0,0-3.44-1.68H218a3.83,3.83,0,0,0-1.09.24,1.75,1.75,0,0,0-1.12,1.35,6.67,6.67,0,0,0-.11,1.29v8.62Z"/><path class="cls-5" d="M233.59,57.23a12.88,12.88,0,0,1,.82-4.61,12.52,12.52,0,0,1,2.23-3.76,10.08,10.08,0,0,1,3.3-2.56,9,9,0,0,1,4-.94,8,8,0,0,1,2.88.56l.06,0L247,46l.4.19c.12.07.26.13.39.19a6.07,6.07,0,0,0,2.43.73,2.42,2.42,0,0,0,1.34-.29,1.52,1.52,0,0,0,.67-1h.18v8.55h-.18a13.34,13.34,0,0,0-1.12-3.88,9.58,9.58,0,0,0-1.91-2.73,8,8,0,0,0-2.44-1.62,6.92,6.92,0,0,0-2.35-.55v0a5.28,5.28,0,0,0-3,.92A8.45,8.45,0,0,0,239,49a13.51,13.51,0,0,0-1.61,3.71,16.51,16.51,0,0,0-.59,4.52,16.16,16.16,0,0,0,1,5.72,10.71,10.71,0,0,0,2.59,4.13,7,7,0,0,0,1.41,1,8.3,8.3,0,0,0,1.17.55,4.64,4.64,0,0,0,1.44.2,6.31,6.31,0,0,0,2.32-.49,9.86,9.86,0,0,0,1.89-1.12l.35-.37a3.65,3.65,0,0,0,.47-.65,4.44,4.44,0,0,0,.41-.95A4.1,4.1,0,0,0,250,64V61.29a1.54,1.54,0,0,0-.31-1,1.83,1.83,0,0,0-.82-.55,4.71,4.71,0,0,0-1.22-.2q-.71,0-1.5,0v-.24h9.4v.24c-.45,0-.83,0-1.13,0a2.2,2.2,0,0,0-.75.16.86.86,0,0,0-.43.43,2.09,2.09,0,0,0-.13.79v6.52h-.2a1.74,1.74,0,0,0-1.34-.48,5.88,5.88,0,0,0-1.68.37c-.59.21-1.22.47-1.88.78a13.22,13.22,0,0,1-1.95.72,9.14,9.14,0,0,1-6.14-.65,11.36,11.36,0,0,1-1.77-1.09,8.81,8.81,0,0,1-1.53-1.47,12.52,12.52,0,0,1-2.23-3.76,13.22,13.22,0,0,1-.62-2.25A12.92,12.92,0,0,1,233.59,57.23Z"/><path class="cls-5" d="M272.36,68.55a7.11,7.11,0,0,0,1.72-.76,6.28,6.28,0,0,0,1.3-1.08,8.08,8.08,0,0,0,1-1.25,10,10,0,0,0,1.33-3.4h.2l-.85,7H257.6v-.2a11.37,11.37,0,0,0,1.69-.11,2.35,2.35,0,0,0,1.1-.42,1.75,1.75,0,0,0,.59-.89,5,5,0,0,0,.18-1.49V49a1.1,1.1,0,0,0,0-.18,1.09,1.09,0,0,1,0-.18,3.22,3.22,0,0,0-.58-2.22,3,3,0,0,0-2-.69h-.94v-.17h18.64v6.17H276v0c-.16-.65-.34-1.32-.54-2a6.07,6.07,0,0,0-1-1.92,5,5,0,0,0-1.76-1.44,6.38,6.38,0,0,0-2.94-.58h-5.53v11.5h4.21a3.3,3.3,0,0,0,2-.58,3.89,3.89,0,0,0,1.09-1.22,4,4,0,0,0,.45-1.29,7.28,7.28,0,0,0,.09-.82v-.09h.21v8.2h-.21v-.09a7.81,7.81,0,0,0-.09-.85,3.78,3.78,0,0,0-.47-1.34,3.61,3.61,0,0,0-1.13-1.22,3.56,3.56,0,0,0-2.07-.53h-4.06v8.06a2.94,2.94,0,0,1,0,.52,6.32,6.32,0,0,0,.13,1.36,2,2,0,0,0,.44.85,1.92,1.92,0,0,0,.81.48,4.66,4.66,0,0,0,1.24.2h3.26A7.41,7.41,0,0,0,272.36,68.55Z"/><path class="cls-5" d="M280,57.09a12.61,12.61,0,0,1,.82-4.62A11.38,11.38,0,0,1,283,48.68a9.76,9.76,0,0,1,3.23-2.53,9.2,9.2,0,0,1,4-.94H292a9.2,9.2,0,0,1,4,.94,9.79,9.79,0,0,1,3.29,2.53,12.69,12.69,0,0,1,2.23,3.79,13.35,13.35,0,0,1,.8,4.62,13.18,13.18,0,0,1-.8,4.61,12.57,12.57,0,0,1-2.23,3.79A9.79,9.79,0,0,1,296,68a9.06,9.06,0,0,1-4,.94h-1.7a9.06,9.06,0,0,1-4-.94A9.76,9.76,0,0,1,283,65.49a11.28,11.28,0,0,1-2.21-3.79A12.59,12.59,0,0,1,280,57.09Zm3.2,0a17.65,17.65,0,0,0,.55,4.49,12.13,12.13,0,0,0,1.63,3.77,6,6,0,0,0,.45.67,5.09,5.09,0,0,0,.52.59A7.63,7.63,0,0,0,288.12,68c.58.3,1.05.52,1.4.66l.56.12a3.11,3.11,0,0,0,.62.06h.88a2.74,2.74,0,0,0,.59-.06l.58-.12c.34-.14.79-.36,1.37-.66a8.21,8.21,0,0,0,1.81-1.37,6.11,6.11,0,0,0,.48-.59c.17-.21.33-.44.49-.67a12.63,12.63,0,0,0,1.64-3.77,18.32,18.32,0,0,0,0-9,12.69,12.69,0,0,0-1.64-3.76c-.16-.24-.32-.46-.49-.68s-.32-.41-.48-.59a8.14,8.14,0,0,0-1.81-1.36,13,13,0,0,0-1.37-.66l-.58-.11a3.65,3.65,0,0,0-.59,0h-.88a4.71,4.71,0,0,0-1.18.15,12.11,12.11,0,0,0-1.4.66,7.83,7.83,0,0,0-2.29,1.95,6.15,6.15,0,0,0-.45.68,12.18,12.18,0,0,0-1.63,3.76A17.67,17.67,0,0,0,283.2,57.09Z"/><path class="cls-5" d="M330.23,45.54v.2h-.44a9,9,0,0,0-1.25.13,5.58,5.58,0,0,0-1.51.5,3.76,3.76,0,0,0-1.28,1.08,3,3,0,0,0-.54,1.88V69.05H325L307.69,47.42V65.23a3.07,3.07,0,0,0,.54,1.91,3.62,3.62,0,0,0,1.28,1.07,5.26,5.26,0,0,0,1.51.5,7.86,7.86,0,0,0,1.25.14h.44v.2H302.43v-.2h.44a7.86,7.86,0,0,0,1.25-.14,5.36,5.36,0,0,0,1.51-.5,3.71,3.71,0,0,0,1.28-1.07,3.07,3.07,0,0,0,.54-1.91V48.5c0-.47,0-.87,0-1.21a1.75,1.75,0,0,0-.26-.87,1.37,1.37,0,0,0-.78-.52,6.18,6.18,0,0,0-1.57-.16h-.91v-.2h6.29L325,63.91V49.33a3,3,0,0,0-.54-1.88,3.85,3.85,0,0,0-1.28-1.08,5.65,5.65,0,0,0-1.52-.5,8.82,8.82,0,0,0-1.25-.13h-.44v-.2h10.29Z"/><path class="cls-4" d="M72.94,41a1.69,1.69,0,0,1-.22.29,2.84,2.84,0,0,1-.26.24.67.67,0,0,1-.17.16,3.83,3.83,0,0,1-1.42.68,7.69,7.69,0,0,1-2.06.25H62.5v-.11a5.8,5.8,0,0,0,.9-.06,1.13,1.13,0,0,0,.59-.23.94.94,0,0,0,.32-.47,2.89,2.89,0,0,0,.09-.8V31.9a1.16,1.16,0,0,1,0-.21,2.86,2.86,0,0,0-.08-.72,1,1,0,0,0-.22-.46,1,1,0,0,0-.43-.25,3.48,3.48,0,0,0-.66-.11h-.5V30h6a6.9,6.9,0,0,1,1.83.25,3.39,3.39,0,0,1,1.26.7,3.11,3.11,0,0,1,0,4.49,4.89,4.89,0,0,1-.58.39,2.77,2.77,0,0,1-.68.28,2.26,2.26,0,0,1-.37.11l-.37.08a6.78,6.78,0,0,1,.68.07,5.63,5.63,0,0,1,.62.14,3.83,3.83,0,0,1,1.42.67,2.72,2.72,0,0,1,1.09,2.26A2.92,2.92,0,0,1,72.94,41Zm-6.85-4.75h2.26a2.3,2.3,0,0,0,1.34-.37,2.54,2.54,0,0,0,.35-.32,2.76,2.76,0,0,0,.33-.45,4.09,4.09,0,0,0,.41-1.91A3.78,3.78,0,0,0,70.2,31a2.1,2.1,0,0,0-1.85-.88h-1a1.45,1.45,0,0,0-1,.38,1.85,1.85,0,0,0-.27,1.15v4.59Zm4.67,5.36a3.33,3.33,0,0,0,.67-2.17,3.42,3.42,0,0,0-.67-2.18,2.46,2.46,0,0,0-2.07-.89h-2.6V41a2.92,2.92,0,0,0,.07.72,1,1,0,0,0,.23.47,1.12,1.12,0,0,0,.44.26,3.06,3.06,0,0,0,.67.1h1.19A2.44,2.44,0,0,0,70.76,41.63Z"/><path class="cls-4" d="M74.39,36.26a6.61,6.61,0,0,1,.44-2.47,6,6,0,0,1,1.18-2,5.39,5.39,0,0,1,1.73-1.35,4.82,4.82,0,0,1,2.16-.5h.91a4.76,4.76,0,0,1,2.14.5,5.49,5.49,0,0,1,1.77,1.35,6.78,6.78,0,0,1,1.19,2,7,7,0,0,1,.43,2.47,6.9,6.9,0,0,1-.43,2.47,6.73,6.73,0,0,1-1.19,2A5.39,5.39,0,0,1,83,42.12a4.9,4.9,0,0,1-2.14.5H79.9a5,5,0,0,1-2.16-.5A5.29,5.29,0,0,1,76,40.76a5.82,5.82,0,0,1-1.18-2A6.61,6.61,0,0,1,74.39,36.26Zm1.71,0a9.88,9.88,0,0,0,.29,2.41,6.67,6.67,0,0,0,.88,2,2.92,2.92,0,0,0,.24.37,2.8,2.8,0,0,0,.28.31,3.72,3.72,0,0,0,.95.73,5.93,5.93,0,0,0,.75.36l.3.06a1.69,1.69,0,0,0,.33,0h.47a1.58,1.58,0,0,0,.32,0l.31-.06a6.72,6.72,0,0,0,.73-.36,4,4,0,0,0,1-.73c.09-.09.17-.2.26-.31s.18-.24.26-.37a6.67,6.67,0,0,0,.88-2,9.83,9.83,0,0,0,0-4.82,6.73,6.73,0,0,0-.88-2l-.26-.36c-.09-.11-.17-.22-.26-.31a4.31,4.31,0,0,0-1-.74c-.31-.16-.55-.28-.73-.35L80.91,30l-.32,0h-.47a2.72,2.72,0,0,0-.63.08,7.29,7.29,0,0,0-.75.35,4,4,0,0,0-.95.74,2.8,2.8,0,0,0-.28.31,3.75,3.75,0,0,0-.24.36,6.73,6.73,0,0,0-.88,2A9.88,9.88,0,0,0,76.1,36.26Z"/><path class="cls-4" d="M87.13,42.53l.27,0a2.22,2.22,0,0,0,.62-.22,3.06,3.06,0,0,0,.74-.56,3,3,0,0,0,.68-1.08l4.24-10.59h.12L98,40.61a7.1,7.1,0,0,0,.51,1.06,2.07,2.07,0,0,0,.48.55,1,1,0,0,0,.48.22l.56.09v.11H94.89v-.11l1-.07a1.1,1.1,0,0,0,.61-.22.64.64,0,0,0,.17-.56,4.46,4.46,0,0,0-.32-1.11l-1.16-2.92H90.77l-1.2,3a1.57,1.57,0,0,0-.14.8,1,1,0,0,0,.25.53,1.29,1.29,0,0,0,.46.33,3.11,3.11,0,0,0,.54.18l.45.06h.2v.11h-4.2ZM93,32.16l-2.16,5.37h4.3Z"/><path class="cls-4" d="M100.77,42.67v-.11h0a5.84,5.84,0,0,0,.91-.06,1.18,1.18,0,0,0,.58-.22,1.08,1.08,0,0,0,.31-.48,2.84,2.84,0,0,0,.09-.8V31.72a1.73,1.73,0,0,0-.31-1.19,1.68,1.68,0,0,0-1.09-.37h-.5v-.09h6a6.32,6.32,0,0,1,1.82.24,4,4,0,0,1,1.26.67,2.61,2.61,0,0,1,.72,1,3.23,3.23,0,0,1,.24,1.27,2.84,2.84,0,0,1-1,2.25,3.59,3.59,0,0,1-1.26.67,2.89,2.89,0,0,1-.73.18l-.81.08a2.29,2.29,0,0,1,.7.33,3.44,3.44,0,0,1,.84.86l3,4.11a1.68,1.68,0,0,0,.53.47,3.33,3.33,0,0,0,.6.25,2.17,2.17,0,0,0,.51.1l.27,0h0v.11h-3.14l-3.85-5.32a4,4,0,0,0-.43-.5,2.16,2.16,0,0,0-.38-.28,1.32,1.32,0,0,0-.35-.12,2.22,2.22,0,0,0-.37,0h-.58V41a3.5,3.5,0,0,0,.07.72,1.06,1.06,0,0,0,.24.46,1.08,1.08,0,0,0,.43.26,2.87,2.87,0,0,0,.66.1h.49v.1h-5.49Zm3.6-6.35h2.27a2.28,2.28,0,0,0,1.32-.39,2.59,2.59,0,0,0,.36-.32,3.56,3.56,0,0,0,.34-.47,4.55,4.55,0,0,0,.3-.86,4.9,4.9,0,0,0,.1-1,3.68,3.68,0,0,0-.58-2.18,2.12,2.12,0,0,0-1.84-.9h-1a2.6,2.6,0,0,0-.59.13.94.94,0,0,0-.38.27,1,1,0,0,0-.21.45,2.8,2.8,0,0,0-.07.7v4.61Z"/><path class="cls-4" d="M125.4,40.81a5.36,5.36,0,0,1-1.88,1.37,6,6,0,0,1-2.41.49h-6.75v-.11a5.57,5.57,0,0,0,.89-.06,1.22,1.22,0,0,0,.59-.22,1,1,0,0,0,.31-.48,2.79,2.79,0,0,0,.1-.8V31.72a1.73,1.73,0,0,0-.32-1.19,1.74,1.74,0,0,0-1.1-.37h-.49v-.09h6.77a5.7,5.7,0,0,1,2.41.49,5.43,5.43,0,0,1,1.88,1.35,6.12,6.12,0,0,1,1.2,2,7.27,7.27,0,0,1,0,4.87A6.18,6.18,0,0,1,125.4,40.81Zm-2.79,1.26a5,5,0,0,0,.75-.57,5.31,5.31,0,0,0,.65-.75,6.88,6.88,0,0,0,.93-2,8.37,8.37,0,0,0,.33-2.39,8.61,8.61,0,0,0-.33-2.41,6.47,6.47,0,0,0-.93-2,4.89,4.89,0,0,0-.65-.76,5,5,0,0,0-.75-.57,3.86,3.86,0,0,0-1.69-.49h-1.74a2.6,2.6,0,0,0-.59.13.94.94,0,0,0-.38.27A1.12,1.12,0,0,0,118,31a3.44,3.44,0,0,0-.06.7v9a.71.71,0,0,0,0,.14s0,.09,0,.15a2.92,2.92,0,0,0,.07.72,1.05,1.05,0,0,0,.23.46,1,1,0,0,0,.42.26,3,3,0,0,0,.68.1h1.43A3.7,3.7,0,0,0,122.61,42.07Z"/><path class="cls-4" d="M128.36,36h4.8v.73h-4.8Z"/><path class="cls-4" d="M134.66,36.35h-.07a7.47,7.47,0,0,1,.11-1.26,7.25,7.25,0,0,1,.34-1.21,6.42,6.42,0,0,1,1.19-2,6.54,6.54,0,0,1,.81-.77,4.33,4.33,0,0,1,.94-.58,4.71,4.71,0,0,1,2.16-.51,3.92,3.92,0,0,1,1.54.3h0l.06,0,0,0,.21.09.21.11a3.37,3.37,0,0,0,1.29.4,1.33,1.33,0,0,0,.71-.16.8.8,0,0,0,.36-.55h.11v4.58h-.11a7.91,7.91,0,0,0-.58-2.08,6.06,6.06,0,0,0-.46-.79,5.37,5.37,0,0,0-.56-.67,4,4,0,0,0-1.33-.89,4.15,4.15,0,0,0-1.26-.28,2.77,2.77,0,0,0-1.57.49,4.48,4.48,0,0,0-1.29,1.34,7.4,7.4,0,0,0-.88,2,9.09,9.09,0,0,0-.32,2.43,8.54,8.54,0,0,0,.53,3.06,6.1,6.1,0,0,0,1.38,2.22,4.23,4.23,0,0,0,.77.56,4.14,4.14,0,0,0,.63.29,2,2,0,0,0,.37.09l.38,0a6.17,6.17,0,0,0,.64-.09,4.89,4.89,0,0,0,.62-.19,3.86,3.86,0,0,0,1.31-.89,3,3,0,0,0,.56-.65A8.55,8.55,0,0,0,144,40a5.19,5.19,0,0,0,.36-1,11.17,11.17,0,0,0,.24-1.1h.11A7.15,7.15,0,0,1,144,40a5.09,5.09,0,0,1-1,1.5,4.43,4.43,0,0,1-1.35.88,3.87,3.87,0,0,1-1.53.3,4.83,4.83,0,0,1-2.16-.5,5.64,5.64,0,0,1-1.75-1.36,6.37,6.37,0,0,1-1.19-2,7.64,7.64,0,0,1-.34-1.22,7.47,7.47,0,0,1-.11-1.26Z"/><path class="cls-4" d="M153.85,42.4a3.59,3.59,0,0,0,.93-.41,4,4,0,0,0,.7-.57,5.26,5.26,0,0,0,.52-.67,5.68,5.68,0,0,0,.71-1.83h.11l-.46,3.75H146v-.11a5.62,5.62,0,0,0,.9-.06,1.26,1.26,0,0,0,.6-.22,1,1,0,0,0,.31-.48,2.84,2.84,0,0,0,.09-.8V31.82a.34.34,0,0,1,0-.1,1.73,1.73,0,0,0-.31-1.19,1.68,1.68,0,0,0-1.09-.37h-.51v-.09h10v3.31h-.11v0c-.09-.35-.18-.71-.29-1.09a3.13,3.13,0,0,0-.52-1,2.69,2.69,0,0,0-.94-.77,3.52,3.52,0,0,0-1.58-.31h-3v6.16h2.26a1.83,1.83,0,0,0,1.06-.3,2.09,2.09,0,0,0,.58-.66,2.32,2.32,0,0,0,.25-.69,3.73,3.73,0,0,0,0-.44v0h.11v4.39h-.11v0a4,4,0,0,0,0-.46,2.25,2.25,0,0,0-.26-.72,1.93,1.93,0,0,0-.6-.65,1.9,1.9,0,0,0-1.11-.28h-2.18v4.31a1.65,1.65,0,0,1,0,.29,2.92,2.92,0,0,0,.07.72,1.06,1.06,0,0,0,.24.46,1.08,1.08,0,0,0,.43.26,2.87,2.87,0,0,0,.66.1h1.75A3.78,3.78,0,0,0,153.85,42.4Z"/><path class="cls-4" d="M157.81,42.67v-.11h0a5.84,5.84,0,0,0,.91-.06,1.14,1.14,0,0,0,.58-.22,1,1,0,0,0,.31-.48,2.84,2.84,0,0,0,.09-.8V31.72a1.8,1.8,0,0,0-.3-1.19,1.71,1.71,0,0,0-1.1-.37h-.5v-.09h6a6.44,6.44,0,0,1,1.83.24,4,4,0,0,1,1.26.67,2.69,2.69,0,0,1,.71,1,3.23,3.23,0,0,1,.25,1.27,2.84,2.84,0,0,1-1,2.25,3.78,3.78,0,0,1-1.26.67,3.08,3.08,0,0,1-.74.18l-.81.08a2.18,2.18,0,0,1,.7.33,3.63,3.63,0,0,1,.85.86l3,4.11a1.55,1.55,0,0,0,.52.47,3.66,3.66,0,0,0,.6.25,2.38,2.38,0,0,0,.51.1l.27,0h0v.11h-3.15l-3.85-5.32a3.31,3.31,0,0,0-.43-.5,2.16,2.16,0,0,0-.38-.28,1.32,1.32,0,0,0-.35-.12,2.19,2.19,0,0,0-.36,0h-.59V41a2.86,2.86,0,0,0,.08.72,1,1,0,0,0,.23.46,1.15,1.15,0,0,0,.43.26,2.88,2.88,0,0,0,.67.1h.48v.1h-5.49Zm3.6-6.35h2.27a2.24,2.24,0,0,0,1.32-.39,2.59,2.59,0,0,0,.36-.32,3.56,3.56,0,0,0,.34-.47,4.55,4.55,0,0,0,.3-.86,4.88,4.88,0,0,0,.11-1,3.68,3.68,0,0,0-.59-2.18,2.12,2.12,0,0,0-1.84-.9h-1a2.51,2.51,0,0,0-.58.13.91.91,0,0,0-.39.27,1,1,0,0,0-.21.45,3.36,3.36,0,0,0-.07.7v4.61Z"/><path class="cls-4" d="M181.12,33.33v0c-.09-.33-.18-.67-.29-1a3.52,3.52,0,0,0-.46-1,2.5,2.5,0,0,0-.84-.77,3.08,3.08,0,0,0-1.37-.38H178a1.38,1.38,0,0,0-1,.38,1.78,1.78,0,0,0-.28,1.15V41a2.92,2.92,0,0,0,.07.72,1,1,0,0,0,.24.47,1.08,1.08,0,0,0,.43.26,2.87,2.87,0,0,0,.66.1h.49v.11h-5.48v-.11a5.62,5.62,0,0,0,.9-.06,1.1,1.1,0,0,0,.59-.23.91.91,0,0,0,.3-.47,2.52,2.52,0,0,0,.1-.8V31.69A2.92,2.92,0,0,0,175,31a1.06,1.06,0,0,0-.24-.46,1,1,0,0,0-.43-.25,3.48,3.48,0,0,0-.66-.11h-.1a3.08,3.08,0,0,0-1.37.38,2.67,2.67,0,0,0-.83.77,3.28,3.28,0,0,0-.47,1q-.17.53-.27,1v0h-.11V30h10.71v3.31Z"/><path class="cls-4" d="M183.44,42.5a1.22,1.22,0,0,0,.59-.22,1,1,0,0,0,.32-.48,2.84,2.84,0,0,0,.09-.8V31.72a1.73,1.73,0,0,0-.31-1.19,1.68,1.68,0,0,0-1.09-.37h-.51v-.09H188v.08h-.63a1.52,1.52,0,0,0-1,.4,1.8,1.8,0,0,0-.28,1.15V41a2.86,2.86,0,0,0,.08.72,1,1,0,0,0,.23.46,1.12,1.12,0,0,0,.44.26,3.06,3.06,0,0,0,.67.1H188v.11h-5.5v-.11A5.84,5.84,0,0,0,183.44,42.5Z"/><path class="cls-4" d="M189.84,42.47a1.09,1.09,0,0,0,.58-.23.88.88,0,0,0,.32-.47,2.89,2.89,0,0,0,.09-.8V31.69a2.92,2.92,0,0,0-.07-.72,1.05,1.05,0,0,0-.23-.46,1,1,0,0,0-.45-.25,3.48,3.48,0,0,0-.66-.11h-.49V30h10v3.34h-.11v0c-.08-.35-.18-.71-.29-1.08a3.26,3.26,0,0,0-.51-1,2.62,2.62,0,0,0-.95-.77,3.35,3.35,0,0,0-1.57-.31h-3v6.12h2.25a1.88,1.88,0,0,0,1.06-.29,2,2,0,0,0,.58-.65,2.28,2.28,0,0,0,.24-.69,3.15,3.15,0,0,0,.06-.46v0h.09v4.4h-.09v-.05a3.52,3.52,0,0,0-.06-.46,2.16,2.16,0,0,0-.25-.71,1.8,1.8,0,0,0-1.71-.92h-2.17V41a2.92,2.92,0,0,0,.07.72,1,1,0,0,0,.24.47,1.05,1.05,0,0,0,.44.26,2.88,2.88,0,0,0,.67.1h.48v.11h-5.48v-.11A5.62,5.62,0,0,0,189.84,42.47Z"/><path class="cls-4" d="M200.67,42.5a1.22,1.22,0,0,0,.59-.22.94.94,0,0,0,.31-.48,2.48,2.48,0,0,0,.1-.8V31.72a1.73,1.73,0,0,0-.31-1.19,1.68,1.68,0,0,0-1.09-.37h-.51v-.09h5.48v.08h-.63a1.52,1.52,0,0,0-1,.4,1.8,1.8,0,0,0-.28,1.15V41a3.5,3.5,0,0,0,.07.72,1.06,1.06,0,0,0,.24.46,1.12,1.12,0,0,0,.44.26,3.06,3.06,0,0,0,.67.1h.49v.11h-5.5v-.11A5.84,5.84,0,0,0,200.67,42.5Z"/><path class="cls-4" d="M214.28,42.4a3.59,3.59,0,0,0,.93-.41,4,4,0,0,0,.7-.57,5.26,5.26,0,0,0,.52-.67,5.45,5.45,0,0,0,.7-1.83h.11l-.45,3.75H206.38v-.11a5.71,5.71,0,0,0,.9-.06,1.18,1.18,0,0,0,.59-.22,1,1,0,0,0,.32-.48,2.84,2.84,0,0,0,.09-.8V31.82a.34.34,0,0,1,0-.1,1.73,1.73,0,0,0-.31-1.19,1.68,1.68,0,0,0-1.09-.37h-.51v-.09h10v3.31h-.11v0c-.09-.35-.18-.71-.29-1.09a3.57,3.57,0,0,0-.52-1,2.69,2.69,0,0,0-.94-.77,3.55,3.55,0,0,0-1.58-.31h-3v6.16h2.26a1.83,1.83,0,0,0,1.06-.3,2.09,2.09,0,0,0,.58-.66,2,2,0,0,0,.24-.69,2.68,2.68,0,0,0,0-.44v0h.11v4.39h-.11v0a2.85,2.85,0,0,0,0-.46,2,2,0,0,0-.25-.72,2,2,0,0,0-.6-.65,1.9,1.9,0,0,0-1.11-.28H210v4.31a1.65,1.65,0,0,1,0,.29,2.92,2.92,0,0,0,.07.72,1.06,1.06,0,0,0,.24.46,1.08,1.08,0,0,0,.43.26,2.87,2.87,0,0,0,.66.1h1.75A3.78,3.78,0,0,0,214.28,42.4Z"/><path class="cls-4" d="M229.47,40.81a5.36,5.36,0,0,1-1.88,1.37,6,6,0,0,1-2.41.49h-6.75v-.11a5.57,5.57,0,0,0,.89-.06,1.22,1.22,0,0,0,.59-.22,1,1,0,0,0,.31-.48,2.79,2.79,0,0,0,.1-.8V31.72a1.73,1.73,0,0,0-.32-1.19,1.74,1.74,0,0,0-1.1-.37h-.49v-.09h6.77a5.74,5.74,0,0,1,2.41.49,5.43,5.43,0,0,1,1.88,1.35,6.12,6.12,0,0,1,1.2,2,7.27,7.27,0,0,1,0,4.87A6.18,6.18,0,0,1,229.47,40.81Zm-2.79,1.26a5,5,0,0,0,.75-.57,5.31,5.31,0,0,0,.65-.75,6.88,6.88,0,0,0,.93-2,8.37,8.37,0,0,0,.33-2.39A8.61,8.61,0,0,0,229,34a6.47,6.47,0,0,0-.93-2,4.89,4.89,0,0,0-.65-.76,5,5,0,0,0-.75-.57,3.86,3.86,0,0,0-1.69-.49h-1.74a2.6,2.6,0,0,0-.59.13.88.88,0,0,0-.38.27,1.12,1.12,0,0,0-.22.45,3.44,3.44,0,0,0-.06.7v9a.71.71,0,0,0,0,.14s0,.09,0,.15a2.92,2.92,0,0,0,.07.72,1,1,0,0,0,.23.46,1,1,0,0,0,.42.26,3,3,0,0,0,.68.1h1.43A3.7,3.7,0,0,0,226.68,42.07Z"/><path class="cls-5" d="M72.94,41a1.69,1.69,0,0,1-.22.29,2.84,2.84,0,0,1-.26.24.67.67,0,0,1-.17.16,3.83,3.83,0,0,1-1.42.68,7.69,7.69,0,0,1-2.06.25H62.5v-.11a5.8,5.8,0,0,0,.9-.06,1.13,1.13,0,0,0,.59-.23.94.94,0,0,0,.32-.47,2.89,2.89,0,0,0,.09-.8V31.9a1.16,1.16,0,0,1,0-.21,2.86,2.86,0,0,0-.08-.72,1,1,0,0,0-.22-.46,1,1,0,0,0-.43-.25,3.48,3.48,0,0,0-.66-.11h-.5V30h6a6.9,6.9,0,0,1,1.83.25,3.39,3.39,0,0,1,1.26.7,3.11,3.11,0,0,1,0,4.49,4.89,4.89,0,0,1-.58.39,2.77,2.77,0,0,1-.68.28,2.26,2.26,0,0,1-.37.11l-.37.08a6.78,6.78,0,0,1,.68.07,5.63,5.63,0,0,1,.62.14,3.83,3.83,0,0,1,1.42.67,2.72,2.72,0,0,1,1.09,2.26A2.92,2.92,0,0,1,72.94,41Zm-6.85-4.75h2.26a2.3,2.3,0,0,0,1.34-.37,2.54,2.54,0,0,0,.35-.32,2.76,2.76,0,0,0,.33-.45,4.09,4.09,0,0,0,.41-1.91A3.78,3.78,0,0,0,70.2,31a2.1,2.1,0,0,0-1.85-.88h-1a1.45,1.45,0,0,0-1,.38,1.85,1.85,0,0,0-.27,1.15v4.59Zm4.67,5.36a3.33,3.33,0,0,0,.67-2.17,3.42,3.42,0,0,0-.67-2.18,2.46,2.46,0,0,0-2.07-.89h-2.6V41a2.92,2.92,0,0,0,.07.72,1,1,0,0,0,.23.47,1.12,1.12,0,0,0,.44.26,3.06,3.06,0,0,0,.67.1h1.19A2.44,2.44,0,0,0,70.76,41.63Z"/><path class="cls-5" d="M74.39,36.26a6.61,6.61,0,0,1,.44-2.47,6,6,0,0,1,1.18-2,5.39,5.39,0,0,1,1.73-1.35,4.82,4.82,0,0,1,2.16-.5h.91a4.76,4.76,0,0,1,2.14.5,5.49,5.49,0,0,1,1.77,1.35,6.78,6.78,0,0,1,1.19,2,7,7,0,0,1,.43,2.47,6.9,6.9,0,0,1-.43,2.47,6.73,6.73,0,0,1-1.19,2A5.39,5.39,0,0,1,83,42.12a4.9,4.9,0,0,1-2.14.5H79.9a5,5,0,0,1-2.16-.5A5.29,5.29,0,0,1,76,40.76a5.82,5.82,0,0,1-1.18-2A6.61,6.61,0,0,1,74.39,36.26Zm1.71,0a9.88,9.88,0,0,0,.29,2.41,6.67,6.67,0,0,0,.88,2,2.92,2.92,0,0,0,.24.37,2.8,2.8,0,0,0,.28.31,3.72,3.72,0,0,0,.95.73,5.93,5.93,0,0,0,.75.36l.3.06a1.69,1.69,0,0,0,.33,0h.47a1.58,1.58,0,0,0,.32,0l.31-.06a6.72,6.72,0,0,0,.73-.36,4,4,0,0,0,1-.73c.09-.09.17-.2.26-.31s.18-.24.26-.37a6.67,6.67,0,0,0,.88-2,9.83,9.83,0,0,0,0-4.82,6.73,6.73,0,0,0-.88-2l-.26-.36c-.09-.11-.17-.22-.26-.31a4.31,4.31,0,0,0-1-.74c-.31-.16-.55-.28-.73-.35L80.91,30l-.32,0h-.47a2.72,2.72,0,0,0-.63.08,7.29,7.29,0,0,0-.75.35,4,4,0,0,0-.95.74,2.8,2.8,0,0,0-.28.31,3.75,3.75,0,0,0-.24.36,6.73,6.73,0,0,0-.88,2A9.88,9.88,0,0,0,76.1,36.26Z"/><path class="cls-5" d="M87.13,42.53l.27,0a2.22,2.22,0,0,0,.62-.22,3.06,3.06,0,0,0,.74-.56,3,3,0,0,0,.68-1.08l4.24-10.59h.12L98,40.61a7.1,7.1,0,0,0,.51,1.06,2.07,2.07,0,0,0,.48.55,1,1,0,0,0,.48.22l.56.09v.11H94.89v-.11l1-.07a1.1,1.1,0,0,0,.61-.22.64.64,0,0,0,.17-.56,4.46,4.46,0,0,0-.32-1.11l-1.16-2.92H90.77l-1.2,3a1.57,1.57,0,0,0-.14.8,1,1,0,0,0,.25.53,1.29,1.29,0,0,0,.46.33,3.11,3.11,0,0,0,.54.18l.45.06h.2v.11h-4.2ZM93,32.16l-2.16,5.37h4.3Z"/><path class="cls-5" d="M100.77,42.67v-.11h0a5.84,5.84,0,0,0,.91-.06,1.18,1.18,0,0,0,.58-.22,1.08,1.08,0,0,0,.31-.48,2.84,2.84,0,0,0,.09-.8V31.72a1.73,1.73,0,0,0-.31-1.19,1.68,1.68,0,0,0-1.09-.37h-.5v-.09h6a6.32,6.32,0,0,1,1.82.24,4,4,0,0,1,1.26.67,2.61,2.61,0,0,1,.72,1,3.23,3.23,0,0,1,.24,1.27,2.84,2.84,0,0,1-1,2.25,3.59,3.59,0,0,1-1.26.67,2.89,2.89,0,0,1-.73.18l-.81.08a2.29,2.29,0,0,1,.7.33,3.44,3.44,0,0,1,.84.86l3,4.11a1.68,1.68,0,0,0,.53.47,3.33,3.33,0,0,0,.6.25,2.17,2.17,0,0,0,.51.1l.27,0h0v.11h-3.14l-3.85-5.32a4,4,0,0,0-.43-.5,2.16,2.16,0,0,0-.38-.28,1.32,1.32,0,0,0-.35-.12,2.22,2.22,0,0,0-.37,0h-.58V41a3.5,3.5,0,0,0,.07.72,1.06,1.06,0,0,0,.24.46,1.08,1.08,0,0,0,.43.26,2.87,2.87,0,0,0,.66.1h.49v.1h-5.49Zm3.6-6.35h2.27a2.28,2.28,0,0,0,1.32-.39,2.59,2.59,0,0,0,.36-.32,3.56,3.56,0,0,0,.34-.47,4.55,4.55,0,0,0,.3-.86,4.9,4.9,0,0,0,.1-1,3.68,3.68,0,0,0-.58-2.18,2.12,2.12,0,0,0-1.84-.9h-1a2.6,2.6,0,0,0-.59.13.94.94,0,0,0-.38.27,1,1,0,0,0-.21.45,2.8,2.8,0,0,0-.07.7v4.61Z"/><path class="cls-5" d="M125.4,40.81a5.36,5.36,0,0,1-1.88,1.37,6,6,0,0,1-2.41.49h-6.75v-.11a5.57,5.57,0,0,0,.89-.06,1.22,1.22,0,0,0,.59-.22,1,1,0,0,0,.31-.48,2.79,2.79,0,0,0,.1-.8V31.72a1.73,1.73,0,0,0-.32-1.19,1.74,1.74,0,0,0-1.1-.37h-.49v-.09h6.77a5.7,5.7,0,0,1,2.41.49,5.43,5.43,0,0,1,1.88,1.35,6.12,6.12,0,0,1,1.2,2,7.27,7.27,0,0,1,0,4.87A6.18,6.18,0,0,1,125.4,40.81Zm-2.79,1.26a5,5,0,0,0,.75-.57,5.31,5.31,0,0,0,.65-.75,6.88,6.88,0,0,0,.93-2,8.37,8.37,0,0,0,.33-2.39,8.61,8.61,0,0,0-.33-2.41,6.47,6.47,0,0,0-.93-2,4.89,4.89,0,0,0-.65-.76,5,5,0,0,0-.75-.57,3.86,3.86,0,0,0-1.69-.49h-1.74a2.6,2.6,0,0,0-.59.13.94.94,0,0,0-.38.27A1.12,1.12,0,0,0,118,31a3.44,3.44,0,0,0-.06.7v9a.71.71,0,0,0,0,.14s0,.09,0,.15a2.92,2.92,0,0,0,.07.72,1.05,1.05,0,0,0,.23.46,1,1,0,0,0,.42.26,3,3,0,0,0,.68.1h1.43A3.7,3.7,0,0,0,122.61,42.07Z"/><path class="cls-5" d="M128.36,36h4.8v.73h-4.8Z"/><path class="cls-5" d="M134.66,36.35h-.07a7.47,7.47,0,0,1,.11-1.26,7.25,7.25,0,0,1,.34-1.21,6.42,6.42,0,0,1,1.19-2,6.54,6.54,0,0,1,.81-.77,4.33,4.33,0,0,1,.94-.58,4.71,4.71,0,0,1,2.16-.51,3.92,3.92,0,0,1,1.54.3h0l.06,0,0,0,.21.09.21.11a3.37,3.37,0,0,0,1.29.4,1.33,1.33,0,0,0,.71-.16.8.8,0,0,0,.36-.55h.11v4.58h-.11a7.91,7.91,0,0,0-.58-2.08,6.06,6.06,0,0,0-.46-.79,5.37,5.37,0,0,0-.56-.67,4,4,0,0,0-1.33-.89,4.15,4.15,0,0,0-1.26-.28,2.77,2.77,0,0,0-1.57.49,4.48,4.48,0,0,0-1.29,1.34,7.4,7.4,0,0,0-.88,2,9.09,9.09,0,0,0-.32,2.43,8.54,8.54,0,0,0,.53,3.06,6.1,6.1,0,0,0,1.38,2.22,4.23,4.23,0,0,0,.77.56,4.14,4.14,0,0,0,.63.29,2,2,0,0,0,.37.09l.38,0a6.17,6.17,0,0,0,.64-.09,4.89,4.89,0,0,0,.62-.19,3.86,3.86,0,0,0,1.31-.89,3,3,0,0,0,.56-.65A8.55,8.55,0,0,0,144,40a5.19,5.19,0,0,0,.36-1,11.17,11.17,0,0,0,.24-1.1h.11A7.15,7.15,0,0,1,144,40a5.09,5.09,0,0,1-1,1.5,4.43,4.43,0,0,1-1.35.88,3.87,3.87,0,0,1-1.53.3,4.83,4.83,0,0,1-2.16-.5,5.64,5.64,0,0,1-1.75-1.36,6.37,6.37,0,0,1-1.19-2,7.64,7.64,0,0,1-.34-1.22,7.47,7.47,0,0,1-.11-1.26Z"/><path class="cls-5" d="M153.85,42.4a3.59,3.59,0,0,0,.93-.41,4,4,0,0,0,.7-.57,5.26,5.26,0,0,0,.52-.67,5.68,5.68,0,0,0,.71-1.83h.11l-.46,3.75H146v-.11a5.62,5.62,0,0,0,.9-.06,1.26,1.26,0,0,0,.6-.22,1,1,0,0,0,.31-.48,2.84,2.84,0,0,0,.09-.8V31.82a.34.34,0,0,1,0-.1,1.73,1.73,0,0,0-.31-1.19,1.68,1.68,0,0,0-1.09-.37h-.51v-.09h10v3.31h-.11v0c-.09-.35-.18-.71-.29-1.09a3.13,3.13,0,0,0-.52-1,2.69,2.69,0,0,0-.94-.77,3.52,3.52,0,0,0-1.58-.31h-3v6.16h2.26a1.83,1.83,0,0,0,1.06-.3,2.09,2.09,0,0,0,.58-.66,2.32,2.32,0,0,0,.25-.69,3.73,3.73,0,0,0,0-.44v0h.11v4.39h-.11v0a4,4,0,0,0,0-.46,2.25,2.25,0,0,0-.26-.72,1.93,1.93,0,0,0-.6-.65,1.9,1.9,0,0,0-1.11-.28h-2.18v4.31a1.65,1.65,0,0,1,0,.29,2.92,2.92,0,0,0,.07.72,1.06,1.06,0,0,0,.24.46,1.08,1.08,0,0,0,.43.26,2.87,2.87,0,0,0,.66.1h1.75A3.78,3.78,0,0,0,153.85,42.4Z"/><path class="cls-5" d="M157.81,42.67v-.11h0a5.84,5.84,0,0,0,.91-.06,1.14,1.14,0,0,0,.58-.22,1,1,0,0,0,.31-.48,2.84,2.84,0,0,0,.09-.8V31.72a1.8,1.8,0,0,0-.3-1.19,1.71,1.71,0,0,0-1.1-.37h-.5v-.09h6a6.44,6.44,0,0,1,1.83.24,4,4,0,0,1,1.26.67,2.69,2.69,0,0,1,.71,1,3.23,3.23,0,0,1,.25,1.27,2.84,2.84,0,0,1-1,2.25,3.78,3.78,0,0,1-1.26.67,3.08,3.08,0,0,1-.74.18l-.81.08a2.18,2.18,0,0,1,.7.33,3.63,3.63,0,0,1,.85.86l3,4.11a1.55,1.55,0,0,0,.52.47,3.66,3.66,0,0,0,.6.25,2.38,2.38,0,0,0,.51.1l.27,0h0v.11h-3.15l-3.85-5.32a3.31,3.31,0,0,0-.43-.5,2.16,2.16,0,0,0-.38-.28,1.32,1.32,0,0,0-.35-.12,2.19,2.19,0,0,0-.36,0h-.59V41a2.86,2.86,0,0,0,.08.72,1,1,0,0,0,.23.46,1.15,1.15,0,0,0,.43.26,2.88,2.88,0,0,0,.67.1h.48v.1h-5.49Zm3.6-6.35h2.27a2.24,2.24,0,0,0,1.32-.39,2.59,2.59,0,0,0,.36-.32,3.56,3.56,0,0,0,.34-.47,4.55,4.55,0,0,0,.3-.86,4.88,4.88,0,0,0,.11-1,3.68,3.68,0,0,0-.59-2.18,2.12,2.12,0,0,0-1.84-.9h-1a2.51,2.51,0,0,0-.58.13.91.91,0,0,0-.39.27,1,1,0,0,0-.21.45,3.36,3.36,0,0,0-.07.7v4.61Z"/><path class="cls-5" d="M181.12,33.33v0c-.09-.33-.18-.67-.29-1a3.52,3.52,0,0,0-.46-1,2.5,2.5,0,0,0-.84-.77,3.08,3.08,0,0,0-1.37-.38H178a1.38,1.38,0,0,0-1,.38,1.78,1.78,0,0,0-.28,1.15V41a2.92,2.92,0,0,0,.07.72,1,1,0,0,0,.24.47,1.08,1.08,0,0,0,.43.26,2.87,2.87,0,0,0,.66.1h.49v.11h-5.48v-.11a5.62,5.62,0,0,0,.9-.06,1.1,1.1,0,0,0,.59-.23.91.91,0,0,0,.3-.47,2.52,2.52,0,0,0,.1-.8V31.69A2.92,2.92,0,0,0,175,31a1.06,1.06,0,0,0-.24-.46,1,1,0,0,0-.43-.25,3.48,3.48,0,0,0-.66-.11h-.1a3.08,3.08,0,0,0-1.37.38,2.67,2.67,0,0,0-.83.77,3.28,3.28,0,0,0-.47,1q-.17.53-.27,1v0h-.11V30h10.71v3.31Z"/><path class="cls-5" d="M183.44,42.5a1.22,1.22,0,0,0,.59-.22,1,1,0,0,0,.32-.48,2.84,2.84,0,0,0,.09-.8V31.72a1.73,1.73,0,0,0-.31-1.19,1.68,1.68,0,0,0-1.09-.37h-.51v-.09H188v.08h-.63a1.52,1.52,0,0,0-1,.4,1.8,1.8,0,0,0-.28,1.15V41a2.86,2.86,0,0,0,.08.72,1,1,0,0,0,.23.46,1.12,1.12,0,0,0,.44.26,3.06,3.06,0,0,0,.67.1H188v.11h-5.5v-.11A5.84,5.84,0,0,0,183.44,42.5Z"/><path class="cls-5" d="M189.84,42.47a1.09,1.09,0,0,0,.58-.23.88.88,0,0,0,.32-.47,2.89,2.89,0,0,0,.09-.8V31.69a2.92,2.92,0,0,0-.07-.72,1.05,1.05,0,0,0-.23-.46,1,1,0,0,0-.45-.25,3.48,3.48,0,0,0-.66-.11h-.49V30h10v3.34h-.11v0c-.08-.35-.18-.71-.29-1.08a3.26,3.26,0,0,0-.51-1,2.62,2.62,0,0,0-.95-.77,3.35,3.35,0,0,0-1.57-.31h-3v6.12h2.25a1.88,1.88,0,0,0,1.06-.29,2,2,0,0,0,.58-.65,2.28,2.28,0,0,0,.24-.69,3.15,3.15,0,0,0,.06-.46v0h.09v4.4h-.09v-.05a3.52,3.52,0,0,0-.06-.46,2.16,2.16,0,0,0-.25-.71,1.8,1.8,0,0,0-1.71-.92h-2.17V41a2.92,2.92,0,0,0,.07.72,1,1,0,0,0,.24.47,1.05,1.05,0,0,0,.44.26,2.88,2.88,0,0,0,.67.1h.48v.11h-5.48v-.11A5.62,5.62,0,0,0,189.84,42.47Z"/><path class="cls-5" d="M200.67,42.5a1.22,1.22,0,0,0,.59-.22.94.94,0,0,0,.31-.48,2.48,2.48,0,0,0,.1-.8V31.72a1.73,1.73,0,0,0-.31-1.19,1.68,1.68,0,0,0-1.09-.37h-.51v-.09h5.48v.08h-.63a1.52,1.52,0,0,0-1,.4,1.8,1.8,0,0,0-.28,1.15V41a3.5,3.5,0,0,0,.07.72,1.06,1.06,0,0,0,.24.46,1.12,1.12,0,0,0,.44.26,3.06,3.06,0,0,0,.67.1h.49v.11h-5.5v-.11A5.84,5.84,0,0,0,200.67,42.5Z"/><path class="cls-5" d="M214.28,42.4a3.59,3.59,0,0,0,.93-.41,4,4,0,0,0,.7-.57,5.26,5.26,0,0,0,.52-.67,5.45,5.45,0,0,0,.7-1.83h.11l-.45,3.75H206.38v-.11a5.71,5.71,0,0,0,.9-.06,1.18,1.18,0,0,0,.59-.22,1,1,0,0,0,.32-.48,2.84,2.84,0,0,0,.09-.8V31.82a.34.34,0,0,1,0-.1,1.73,1.73,0,0,0-.31-1.19,1.68,1.68,0,0,0-1.09-.37h-.51v-.09h10v3.31h-.11v0c-.09-.35-.18-.71-.29-1.09a3.57,3.57,0,0,0-.52-1,2.69,2.69,0,0,0-.94-.77,3.55,3.55,0,0,0-1.58-.31h-3v6.16h2.26a1.83,1.83,0,0,0,1.06-.3,2.09,2.09,0,0,0,.58-.66,2,2,0,0,0,.24-.69,2.68,2.68,0,0,0,0-.44v0h.11v4.39h-.11v0a2.85,2.85,0,0,0,0-.46,2,2,0,0,0-.25-.72,2,2,0,0,0-.6-.65,1.9,1.9,0,0,0-1.11-.28H210v4.31a1.65,1.65,0,0,1,0,.29,2.92,2.92,0,0,0,.07.72,1.06,1.06,0,0,0,.24.46,1.08,1.08,0,0,0,.43.26,2.87,2.87,0,0,0,.66.1h1.75A3.78,3.78,0,0,0,214.28,42.4Z"/><path class="cls-5" d="M229.47,40.81a5.36,5.36,0,0,1-1.88,1.37,6,6,0,0,1-2.41.49h-6.75v-.11a5.57,5.57,0,0,0,.89-.06,1.22,1.22,0,0,0,.59-.22,1,1,0,0,0,.31-.48,2.79,2.79,0,0,0,.1-.8V31.72a1.73,1.73,0,0,0-.32-1.19,1.74,1.74,0,0,0-1.1-.37h-.49v-.09h6.77a5.74,5.74,0,0,1,2.41.49,5.43,5.43,0,0,1,1.88,1.35,6.12,6.12,0,0,1,1.2,2,7.27,7.27,0,0,1,0,4.87A6.18,6.18,0,0,1,229.47,40.81Zm-2.79,1.26a5,5,0,0,0,.75-.57,5.31,5.31,0,0,0,.65-.75,6.88,6.88,0,0,0,.93-2,8.37,8.37,0,0,0,.33-2.39A8.61,8.61,0,0,0,229,34a6.47,6.47,0,0,0-.93-2,4.89,4.89,0,0,0-.65-.76,5,5,0,0,0-.75-.57,3.86,3.86,0,0,0-1.69-.49h-1.74a2.6,2.6,0,0,0-.59.13.88.88,0,0,0-.38.27,1.12,1.12,0,0,0-.22.45,3.44,3.44,0,0,0-.06.7v9a.71.71,0,0,0,0,.14s0,.09,0,.15a2.92,2.92,0,0,0,.07.72,1,1,0,0,0,.23.46,1,1,0,0,0,.42.26,3,3,0,0,0,.68.1h1.43A3.7,3.7,0,0,0,226.68,42.07Z"/><path class="cls-3" d="M239.34,43.4c1-2.41,2.09-4.72,3.26-6.93a18.44,18.44,0,0,1,4.54-5.65l.55-.23a5.24,5.24,0,0,1,.61-.23,2,2,0,0,1,1.75.52,3.19,3.19,0,0,1,.76,1.6,5.68,5.68,0,0,1,0,2,7.64,7.64,0,0,1-.56,1.8,16.28,16.28,0,0,0,2.22-1.45c.69-.54,1.43-1.07,2.21-1.57.54-.39,1.09-.78,1.66-1.17L258,30.94a5.44,5.44,0,0,0,.64-.32.55.55,0,0,1,.7.09.53.53,0,0,1-.17.75c-.27.2-.51.37-.7.53-1.63,1.12-3.2,2.26-4.72,3.4s-3.06,2.28-4.65,3.41a20.82,20.82,0,0,1-1.4,2.18,17.1,17.1,0,0,1-1.69,2c-.23.19-.51.46-.84.79s-.67.64-1,.93a7.64,7.64,0,0,1-1.14.78,2.87,2.87,0,0,1-1.19.41c-.85.12-1.32-.17-1.4-.87a1.43,1.43,0,0,1,.32-1.23c.3-.31.58-.58.85-.81l.84-.82c.25-.23.52-.46.79-.69a20.3,20.3,0,0,0,1.86-1.37A18.59,18.59,0,0,1,247,38.68c.27-.43.56-.92.85-1.48s.55-1.14.78-1.72l.27-.93a7.76,7.76,0,0,0,.2-1,3.25,3.25,0,0,0,0-1,1.48,1.48,0,0,0-.44-.81,3.07,3.07,0,0,0-2,1,21.11,21.11,0,0,0-1.46,1.65A25.77,25.77,0,0,0,242.19,39,51.62,51.62,0,0,0,240,44.38c-.16.39-.3.77-.44,1.14a9.05,9.05,0,0,0-.32,1.13,13,13,0,0,0-.17,2.13c0,.76,0,1.5-.06,2.24-.08,1.47-.16,2.95-.23,4.42s-.18,3-.3,4.49c0,.35-.06.7-.08,1.07a7.52,7.52,0,0,1-.12,1,2.19,2.19,0,0,1-.35.85,1.47,1.47,0,0,1-.73.55H237a1,1,0,0,1-.9-1A15.67,15.67,0,0,1,236,60.8a26.31,26.31,0,0,1,.09-3.35c.1-1.07.22-2.14.38-3.23.07-.5.17-1,.29-1.51s.21-1,.29-1.52a26.55,26.55,0,0,0,.17-3q0-1.55.12-2.94c.15-2.49.3-4.93.44-7.34s.28-4.87.43-7.39v-1a8,8,0,0,1,.06-1,2.21,2.21,0,0,1,.26-.81.71.71,0,0,1,.67-.35.69.69,0,0,1,.67.43,3.17,3.17,0,0,1,.26,1.05,6.84,6.84,0,0,1,0,1.28q-.06.68-.06,1.14c-.15,2-.3,4-.43,6.08S239.42,41.42,239.34,43.4Z"/><path class="cls-3" d="M261.28,15.75l.06-.05c.58,0,.93.22,1.05.67a5.32,5.32,0,0,1,.17,1.24,20.39,20.39,0,0,1-.2,4.23c-.21,1.36-.4,2.7-.55,4-.2,1.8-.39,3.62-.59,5.47s-.36,3.7-.52,5.57c-.23,3.28-.49,6.55-.76,9.81A81.82,81.82,0,0,0,259.77,57a5,5,0,0,0,.06.72,5.73,5.73,0,0,1,.06.81,1.94,1.94,0,0,1-.12.7.46.46,0,0,1-.47.31.81.81,0,0,1-1-.62,7.66,7.66,0,0,1-.27-1.35c-.07-.55-.12-1.09-.14-1.61s-.05-1-.09-1.4c0-1,0-2.06,0-3.08s0-2,0-2.93q.06-7.5.7-14.27t1.63-13.55l.35-2.64a10.28,10.28,0,0,0,.14-1.27,1.63,1.63,0,0,1,.5-1.11Z"/><path class="cls-3" d="M273,29.66c-.74,1-1.45,2-2.15,3.14s-1.4,2.21-2.1,3.26c-.5.74-1,1.53-1.57,2.39a11.8,11.8,0,0,1-1.86,2.27,4.8,4.8,0,0,1-.82.73,1.26,1.26,0,0,1-1.1.14,1.58,1.58,0,0,1-.82-1.28,18.14,18.14,0,0,1,1.08-5.06,23.67,23.67,0,0,1,2.06-4.31c.28-.43.58-.85.91-1.28a3.16,3.16,0,0,1,1.07-.93,1.67,1.67,0,0,1,1.95.08,2.1,2.1,0,0,1,.62,2.13A3.38,3.38,0,0,0,271,30c.26-.47.53-.94.82-1.43a10.17,10.17,0,0,1,.93-1.31,1.62,1.62,0,0,1,1-.64,1.31,1.31,0,0,1,.41.06l.35.12a2.74,2.74,0,0,1,.58,1.1c-.08,2.33-.23,4.53-.47,6.61s-.4,4.28-.52,6.6v1.05c0,.43,0,.86-.06,1.28a6.7,6.7,0,0,1-.2,1.14c-.1.33-.26.49-.5.49a.65.65,0,0,1-.61-.38,2.83,2.83,0,0,1-.29-.93,6.9,6.9,0,0,1-.09-1.13,5.68,5.68,0,0,0-.06-.93,33.33,33.33,0,0,1,.12-6.17C272.63,33.52,272.85,31.56,273,29.66Zm-4.19.11s0-.05-.06-.05a1.83,1.83,0,0,0-.32.14,1.57,1.57,0,0,1-.32.15,12.26,12.26,0,0,0-1.45,2.06,24.65,24.65,0,0,0-1.17,2.36c-.31.82-.61,1.68-.9,2.59a12.88,12.88,0,0,0-.55,2.94A21.39,21.39,0,0,0,267,36.21q1.31-2.13,2.65-4.17a2.27,2.27,0,0,1-.3-1.25A1,1,0,0,0,268.85,29.77Z"/><path class="cls-3" d="M283.29,30.82a4.69,4.69,0,0,0-1.75,1.4,5.58,5.58,0,0,0-.73.93,1.89,1.89,0,0,0-.32,1.22,2.06,2.06,0,0,0,.64,1.14l.93.9.9.9a7.27,7.27,0,0,1,.79.9c1-.69,1.89-1.42,2.77-2.18a25.32,25.32,0,0,1,2.82-2.12,21.74,21.74,0,0,1,2.18-1.46c.8-.46,1.62-.91,2.48-1.34l.81-.4a.79.79,0,0,1,.87.05.65.65,0,0,1-.05.47.72.72,0,0,1-.35.26l-.47.18a.67.67,0,0,0-.35.26,16.16,16.16,0,0,0-2.36,1.31c-.71.48-1.44,1-2.18,1.42-1.86,1.4-3.67,2.86-5.41,4.37a17.72,17.72,0,0,1,1.42,2.74,8.42,8.42,0,0,1,.61,3.31,9.59,9.59,0,0,1-.58,3.73,10.83,10.83,0,0,1-1.74,3,13.16,13.16,0,0,1-2.51,2.21,5.52,5.52,0,0,1-3.37,1,4.17,4.17,0,0,1-1.34-.29,5,5,0,0,1-1-.59,5.57,5.57,0,0,1-.93-1.34,4.15,4.15,0,0,1-.41-1.68,6.41,6.41,0,0,1,.76-3.73,20.39,20.39,0,0,1,1.92-2.91,24.57,24.57,0,0,1,2.3-2.53c.79-.76,1.58-1.47,2.35-2.13a7.21,7.21,0,0,0-.93-1.07c-.35-.33-.7-.67-1-1a10,10,0,0,1-1-1.11,4,4,0,0,1-.67-1.28,3.06,3.06,0,0,1,0-2.36,9.67,9.67,0,0,1,1.14-1.89c.39-.42.77-.8,1.14-1.13a5.32,5.32,0,0,1,1.3-.85,7.62,7.62,0,0,1,.88-.17,1.6,1.6,0,0,1,.87.12,1.38,1.38,0,0,0,.32.32.91.91,0,0,1,.32.43,1.87,1.87,0,0,1,0,1.11c-.1.43-.24.64-.44.64s-.42,0-.46-.23A1.4,1.4,0,0,0,283.29,30.82Zm-.76,10.07c-.66.55-1.32,1.15-2,1.81a25.25,25.25,0,0,0-1.92,2.15c-.35.43-.71.9-1.08,1.43a8.27,8.27,0,0,0-.93,1.71,8,8,0,0,0-.52,1.95,4.78,4.78,0,0,0,.2,2.13,4,4,0,0,0,.76.78,1.69,1.69,0,0,0,1.1.32,4,4,0,0,0,2.36-.9,9.9,9.9,0,0,0,1.83-1.83,7.81,7.81,0,0,0,1.14-2.21,9.85,9.85,0,0,0,.52-2.59,8.35,8.35,0,0,0-.23-2.59,6,6,0,0,0-1.08-2.27s0-.06-.05-.06S282.53,40.85,282.53,40.89Zm-6.17,14.5s0,0,.11-.06S276.44,55.39,276.36,55.39Z"/><path class="cls-3" d="M298.25,23.25c3.33-.11,6.81-.29,10.42-.52a77.26,77.26,0,0,1,10.76.06l.64,0a.5.5,0,0,1,.47.32c0,.31-.19.46-.44.46a4.47,4.47,0,0,1-.67-.05,104.28,104.28,0,0,0-10.76.08q-5.37.33-10.54.61c-.55,3.19-1,6.43-1.49,9.73A72.15,72.15,0,0,0,296,44.33q0,.75.06,1.68a11.37,11.37,0,0,0,.24,1.75,16,16,0,0,0,.37,1.57c.18.62.44,1,.79,1a.78.78,0,0,0,.61-.17,5.34,5.34,0,0,0,.64-.56,5.26,5.26,0,0,0,.58-.67c.18-.23.3-.4.38-.52a56.41,56.41,0,0,0,4.16-6.2q1.83-3.16,3.87-6.61.52-.93,1.11-1.92c.39-.66.81-1.31,1.28-2a4.81,4.81,0,0,1,.52-.67c.2-.22.39-.29.59-.21s.36.4.17.73-.35.57-.46.73q-1.47,2.44-2.74,4.94c-.85,1.67-1.77,3.32-2.74,5-.54.9-1.07,1.8-1.6,2.71s-1.07,1.81-1.66,2.71-1.18,1.76-1.8,2.62a6.21,6.21,0,0,1-2.39,2,3.13,3.13,0,0,1-1.22,0,3.59,3.59,0,0,1-2-2.18,15.51,15.51,0,0,1-.78-3.29,24.3,24.3,0,0,1-.29-3.87c0-1.34,0-2.65.11-3.93q.3-3.9.79-7.53c.33-2.43.72-4.75,1.19-7-1.78.08-3.6.21-5.44.41s-3.72.33-5.62.4l-.78,0a.42.42,0,0,1-.5-.43.42.42,0,0,1,.47-.47,4.79,4.79,0,0,0,.81-.06c1.83-.11,3.69-.27,5.59-.46s3.78-.33,5.65-.41q.34-1.23.78-2.88a22.85,22.85,0,0,1,1-3.06,4.31,4.31,0,0,1,.44-1A.9.9,0,0,1,299,16a.63.63,0,0,1,.56.23.91.91,0,0,1,.11.55,5.5,5.5,0,0,1-.11.67c-.06.24-.11.45-.15.64-.2.86-.39,1.74-.58,2.65S298.44,22.48,298.25,23.25Z"/><path class="cls-3" d="M311.52,30.47a.91.91,0,0,1,.2.64c0,.24,0,.49,0,.76,0,.66-.05,1.38,0,2.15s0,1.54,0,2.27,0,1.46,0,2.16a2.52,2.52,0,0,1-.61,1.69h-.46a1.89,1.89,0,0,1-.44-.91,7.35,7.35,0,0,1-.2-1.31q-.06-1.28,0-2.67a24.35,24.35,0,0,1,.2-2.74q.06-.34.12-.81a3.08,3.08,0,0,1,.2-.82.92.92,0,0,1,.41-.49A.67.67,0,0,1,311.52,30.47Zm.29-11.29a1.29,1.29,0,0,1-.47.93.64.64,0,0,1-.67-.11,1,1,0,0,1-.23-.56.72.72,0,0,1,.17-.55.74.74,0,0,1,.67-.18C311.59,18.87,311.77,19,311.81,19.18Z"/><path class="cls-3" d="M321.59,32.45a.75.75,0,0,1-.67-.06,1.5,1.5,0,0,1-.44-.43,2.86,2.86,0,0,1-.29-.58,2.11,2.11,0,0,0-.29-.56,4.5,4.5,0,0,0-2,1.89,14.57,14.57,0,0,0-1.22,2.77,12.35,12.35,0,0,0-.41,1.6,11,11,0,0,0-.2,1.8,5.74,5.74,0,0,0,.17,1.69,2,2,0,0,0,.84,1.2,4.88,4.88,0,0,0,2.62-1,24.52,24.52,0,0,1,2-1.52c1.36-1,2.68-2,4-3.11s2.58-2.15,3.9-3.23l1-.76c.33-.27.67-.52,1-.76a2.4,2.4,0,0,1,.49-.35c.22-.11.42-.23.62-.34a6.79,6.79,0,0,0,.61-.3c.21-.11.39-.05.55.18s.07.52-.15.64a2.54,2.54,0,0,0-.55.41c-.54.39-1.06.78-1.54,1.19l-1.49,1.25c-1.43,1.2-2.86,2.5-4.27,3.87a47.77,47.77,0,0,1-4.52,3.87,16.83,16.83,0,0,1-2.21,1.43,3.63,3.63,0,0,1-2.85.2,3,3,0,0,1-1.48-1.66,7.61,7.61,0,0,1-.5-2.5,11.6,11.6,0,0,1,.23-2.79,15.55,15.55,0,0,1,.76-2.59,11,11,0,0,1,3.2-4.6l.47-.21a2.32,2.32,0,0,1,.46-.14s.06,0,.06,0,0,0,.06,0h.52a1.89,1.89,0,0,1,.47.06,2.2,2.2,0,0,1,1.28,1.69,4.34,4.34,0,0,0,0,1A.82.82,0,0,1,321.59,32.45Z"/><path class="cls-5" d="M20.65,18.74H18.32v8.57H16.94V18.74H14.86V17.48h2.08V14.79a3.64,3.64,0,0,1,.9-2.78,3.41,3.41,0,0,1,2.39-.83c.2,0,.4,0,.6,0l.6.11-.25,1.26-.53-.11a4.9,4.9,0,0,0-.54,0,2,2,0,0,0-.93.19,1.23,1.23,0,0,0-.54.54,2.43,2.43,0,0,0-.26.8,7.74,7.74,0,0,0-.06,1v2.52h2.33Zm3.68-5a.94.94,0,0,1-.32.73,1,1,0,0,1-1.38,0,1,1,0,0,1,0-1.45A1,1,0,0,1,24,13,.93.93,0,0,1,24.33,13.7ZM24,27.31H22.63V17.48H24Zm4.14-9.83c0,.27,0,.53.05.79s0,.52,0,.79h0a3.2,3.2,0,0,1,.59-.74,4,4,0,0,1,1.73-.95,3.36,3.36,0,0,1,1-.14,3.56,3.56,0,0,1,2.79,1,4,4,0,0,1,.91,2.84v6.24H33.86V21.87a4.59,4.59,0,0,0-.57-2.51,2.3,2.3,0,0,0-2.1-.87l-.58.08a2.45,2.45,0,0,0-1,.47,3.31,3.31,0,0,0-1,1.13,4.34,4.34,0,0,0-.42,2.1v5H26.83V19.64c0-.26,0-.6,0-1s0-.79-.07-1.16Zm19.63,9.83H46.4V25.67h0a3.61,3.61,0,0,1-.79.86,4.66,4.66,0,0,1-1,.59,4.87,4.87,0,0,1-1,.34,5.33,5.33,0,0,1-1,.1,5.54,5.54,0,0,1-2.11-.39,5.13,5.13,0,0,1-1.65-1.08,5,5,0,0,1-1.08-1.64,5.61,5.61,0,0,1,0-4.11,5,5,0,0,1,1.08-1.64,5.13,5.13,0,0,1,1.65-1.08,5.54,5.54,0,0,1,2.11-.39,5.33,5.33,0,0,1,1,.1,4.87,4.87,0,0,1,1,.34,4.66,4.66,0,0,1,1,.59,3.61,3.61,0,0,1,.79.86h0V11.43h1.38Zm-9-4.92a4.33,4.33,0,0,0,.26,1.54A3.49,3.49,0,0,0,41,26a3.78,3.78,0,0,0,1.54.3A4.1,4.1,0,0,0,44.1,26a4,4,0,0,0,1.25-.83,3.89,3.89,0,0,0,.82-1.24,4.21,4.21,0,0,0,0-3.07,3.89,3.89,0,0,0-.82-1.24,4,4,0,0,0-1.25-.83,4.1,4.1,0,0,0-1.57-.3,3.78,3.78,0,0,0-1.54.3,3.49,3.49,0,0,0-1.91,2.07A4.32,4.32,0,0,0,38.82,22.39Zm23.07-1.11V21a2.24,2.24,0,0,0-2.52-2.54,4.34,4.34,0,0,0-3,1.15l-.84-1a5.57,5.57,0,0,1,4.16-1.43,4.51,4.51,0,0,1,1.37.21,3,3,0,0,1,1.15.64A3.33,3.33,0,0,1,63,19.16a3.83,3.83,0,0,1,.29,1.55V25.1c0,.38,0,.78,0,1.19s.08.75.12,1H62.1Q62,27,62,26.53c0-.28,0-.55,0-.82h0a3.82,3.82,0,0,1-1.44,1.42,4.35,4.35,0,0,1-2,.43,4.46,4.46,0,0,1-1.26-.18,3.22,3.22,0,0,1-1.08-.54,2.78,2.78,0,0,1-.76-.91,2.59,2.59,0,0,1-.28-1.25,2.73,2.73,0,0,1,.62-1.88,3.77,3.77,0,0,1,1.55-1,7.26,7.26,0,0,1,2-.42c.71-.06,1.35-.09,1.94-.09Zm-.71,1.14c-.35,0-.79,0-1.31,0a7.33,7.33,0,0,0-1.51.25,3.22,3.22,0,0,0-1.24.62,1.39,1.39,0,0,0-.52,1.16,1.63,1.63,0,0,0,.2.82,1.55,1.55,0,0,0,.54.57,2.34,2.34,0,0,0,.74.32,3.91,3.91,0,0,0,.83.09,3.09,3.09,0,0,0,1.31-.25,2.74,2.74,0,0,0,.94-.68,2.85,2.85,0,0,0,.56-1,4.51,4.51,0,0,0,.17-1.23v-.71Z"/></g></g></svg>