<svg xmlns="http://www.w3.org/2000/svg" viewBox="0 0 447.7 41.05"><defs><style>.cls-1{fill:#616365;}</style></defs><g id="Layer_2" data-name="Layer 2"><g id="Layer_1-2" data-name="Layer 1"><path class="cls-1" d="M46,39.2c-.68-.67-1-1.91-1-3.7V6a6,6,0,0,1,.82-3.59,3.58,3.58,0,0,1,2.93-1H51V.5H40L26.65,26,13.37.63,13.3.5H2.45v.85H4.3a6,6,0,0,1,2.52.42A2.8,2.8,0,0,1,8.06,2.9,3.92,3.92,0,0,1,8.5,4.61c0,.7.05,1.46.05,2.24v27.4a5,5,0,0,1-.87,3.1,6.8,6.8,0,0,1-2.1,1.81A7.49,7.49,0,0,1,3.09,40,15.06,15.06,0,0,1,1,40.2H0V41H18v-.8H16.9a14.88,14.88,0,0,1-2-.2,7.59,7.59,0,0,1-2.52-.85,6.49,6.49,0,0,1-2.12-1.8,5,5,0,0,1-.87-3.1V5.66L23.43,32.37l.07.13h.7L39.14,3.88c0,.35,0,.76,0,1.24,0,1.15,0,2.53,0,4.13v26.2a8.83,8.83,0,0,1-.29,2.5,2.63,2.63,0,0,1-.91,1.38,4,4,0,0,1-1.74.67h0a16.92,16.92,0,0,1-2.81.2H33.1V41H51v-.8H49.2A4.54,4.54,0,0,1,46,39.2Z"/><path class="cls-1" d="M87.85,28.85a17,17,0,0,1-2.21,5.72A15.65,15.65,0,0,1,84,36.66a11,11,0,0,1-2.18,1.78A11.69,11.69,0,0,1,79,39.71a12.45,12.45,0,0,1-3.63.49H69.81a7.82,7.82,0,0,1-2-.31,2.72,2.72,0,0,1-2-2.1,9.24,9.24,0,0,1-.22-2.24,5.38,5.38,0,0,0,0-.9V21.2H72.2a5.86,5.86,0,0,1,3.38.85,6.23,6.23,0,0,1,2.62,4.18,13.46,13.46,0,0,1,.15,1.42v.4h.85V13.6h-.85V14a12.24,12.24,0,0,1-.15,1.37,6.29,6.29,0,0,1-.74,2.11,6.42,6.42,0,0,1-1.79,2,5.47,5.47,0,0,1-3.22.92h-6.9v-19H74.7a10.8,10.8,0,0,1,4.89.95A8.44,8.44,0,0,1,82.5,4.67a10,10,0,0,1,1.58,3.2c.35,1.18.66,2.33.92,3.43v.25h.85V.55H53.65v.8h1.83a5,5,0,0,1,3.31,1.1c.61.63.91,1.84.91,3.6a1.87,1.87,0,0,0,0,.34,2.28,2.28,0,0,1,0,.26V35.5A8.5,8.5,0,0,1,59.46,38a2.71,2.71,0,0,1-.91,1.38,3.72,3.72,0,0,1-1.76.68A20.5,20.5,0,0,1,54,40.2H53.7v.85H87.22l1.51-12.4h-.84Z"/><path class="cls-1" d="M126.3,28.85a17,17,0,0,1-2.21,5.72,15.65,15.65,0,0,1-1.62,2.09,11,11,0,0,1-2.18,1.78,11.69,11.69,0,0,1-2.86,1.27,12.45,12.45,0,0,1-3.63.49h-5.54a7.82,7.82,0,0,1-2-.31,2.72,2.72,0,0,1-2-2.1,9.24,9.24,0,0,1-.22-2.24,5.38,5.38,0,0,0,0-.9V21.2h6.65a5.86,5.86,0,0,1,3.38.85,6.23,6.23,0,0,1,2.62,4.18,13.46,13.46,0,0,1,.15,1.42v.4h.85V13.6h-.85V14a12.24,12.24,0,0,1-.15,1.37,6.29,6.29,0,0,1-.74,2.11,6.42,6.42,0,0,1-1.79,2,5.47,5.47,0,0,1-3.22.92H104v-19h9.15A10.8,10.8,0,0,1,118,2.3,8.44,8.44,0,0,1,121,4.67a10,10,0,0,1,1.58,3.2c.35,1.18.66,2.33.92,3.43v.25h.85V.55H92.1v.8h1.83a5,5,0,0,1,3.31,1.1c.61.63.91,1.84.91,3.6a1.87,1.87,0,0,0,0,.34,2.28,2.28,0,0,1,0,.26V35.5A8.5,8.5,0,0,1,97.91,38,2.71,2.71,0,0,1,97,39.35a3.72,3.72,0,0,1-1.76.68,20.5,20.5,0,0,1-2.84.17h-.25v.85h33.52l1.51-12.4h-.84Z"/><path class="cls-1" d="M130.2,11.4h.85v-.3c.23-1,.52-2.1.85-3.2a10.67,10.67,0,0,1,1.47-3.06,8.31,8.31,0,0,1,2.57-2.38,9.59,9.59,0,0,1,4.22-1.16h.28a10.9,10.9,0,0,1,2,.34,2.75,2.75,0,0,1,1.26.73,3,3,0,0,1,.69,1.34A9.24,9.24,0,0,1,144.65,6V35.4a8.62,8.62,0,0,1-.29,2.48,2.84,2.84,0,0,1-.89,1.38,3.65,3.65,0,0,1-1.73.67,20.5,20.5,0,0,1-2.84.17h-.25V41h17.9V40.1h-1.79a7.82,7.82,0,0,1-2-.31,3,3,0,0,1-1.27-.76,2.92,2.92,0,0,1-.69-1.36,9.34,9.34,0,0,1-.22-2.22V5.9a5.42,5.42,0,0,1,.82-3.46,4.2,4.2,0,0,1,2.88-1.14h.43A9.83,9.83,0,0,1,159,2.46a8.09,8.09,0,0,1,2.57,2.38A11.14,11.14,0,0,1,163,7.9c.33,1.09.62,2.16.89,3.18v.32h.85V.4H130.2Z"/><path class="cls-1" d="M211,22.92a14.66,14.66,0,0,0-4.43-3.49l-5.74-2.95a22.35,22.35,0,0,1-6.18-4.76,8.77,8.77,0,0,1-2.17-4.45,4.94,4.94,0,0,1,1-3.62,7,7,0,0,1,3.45-2.31A10.6,10.6,0,0,1,198.56,1a11.17,11.17,0,0,1,5.5.54,9.92,9.92,0,0,1,3.22,1.92A12,12,0,0,1,208.65,5a13.82,13.82,0,0,1,1.23,2,12.31,12.31,0,0,1,.85,2.18,7.87,7.87,0,0,1,.32,2.13v.25h.9V.15h-.74l-.08.12a2.93,2.93,0,0,1-1.28,1.25,3.43,3.43,0,0,1-1.59.28,6.31,6.31,0,0,1-1.73-.34L204.84.87A12.36,12.36,0,0,0,200.25,0a14.28,14.28,0,0,0-2.09.15,9.24,9.24,0,0,0-2,.57,13.7,13.7,0,0,0-3.89,2.19,11.12,11.12,0,0,0-2.74,3.17,9.68,9.68,0,0,0-1.23,3.84,8.93,8.93,0,0,0,.59,4.14,12.25,12.25,0,0,0,2.68,4,18.58,18.58,0,0,0,5.06,3.57l6.3,3.25a9.67,9.67,0,0,1,4,3.53A7.52,7.52,0,0,1,208,32.57a7.19,7.19,0,0,1-1.28,3.84,7.92,7.92,0,0,1-3.28,2.76,13.68,13.68,0,0,1-4.16.83h-.45a12,12,0,0,1-4.16-.81,11.76,11.76,0,0,1-3.53-2.13,6.8,6.8,0,0,1-1.39-1.78,14.81,14.81,0,0,1-1.09-2.39,20,20,0,0,1-.69-2.51,12.12,12.12,0,0,1-.24-2.28l-.05-.25h-.85V41h.6l.25,0v-.21c0-.08.1-.25.28-.61a1.85,1.85,0,0,1,.82-.79,4.11,4.11,0,0,1,1.8-.37,9.61,9.61,0,0,1,3.19.75,4,4,0,0,0,.52.21,11.67,11.67,0,0,0,4.44.87h.5q.36,0,.69,0c.22,0,.47,0,.74-.07v0a19.53,19.53,0,0,0,6.23-1.83,13.89,13.89,0,0,0,4.25-3.21,9.56,9.56,0,0,0,2.13-4.08,9.18,9.18,0,0,0,0-4.42A10.6,10.6,0,0,0,211,22.92Z"/><path class="cls-1" d="M231,39.89a3.07,3.07,0,0,1-1.3-.76,3,3,0,0,1-.68-1.34,9.24,9.24,0,0,1-.22-2.24V6a5.52,5.52,0,0,1,.81-3.49,4.58,4.58,0,0,1,2.94-1.16h2l.25-.05V.55h-17.9v.8h1.83A5,5,0,0,1,222,2.45c.6.63.91,1.84.91,3.6V35.5a8.5,8.5,0,0,1-.29,2.47,2.67,2.67,0,0,1-.92,1.38,3.68,3.68,0,0,1-1.75.68,20.5,20.5,0,0,1-2.84.17h-.25v.85h18V40.2H233A8.21,8.21,0,0,1,231,39.89Z"/><path class="cls-1" d="M272,28.85a17,17,0,0,1-2.21,5.72,14.78,14.78,0,0,1-1.63,2.09A10.64,10.64,0,0,1,266,38.44a11.69,11.69,0,0,1-2.86,1.27,12.45,12.45,0,0,1-3.63.49H254a8,8,0,0,1-2-.31,2.72,2.72,0,0,1-2-2.1,9.84,9.84,0,0,1-.21-2.24,5.47,5.47,0,0,0-.05-.9V21.2h6.65a5.86,5.86,0,0,1,3.38.85,6.23,6.23,0,0,1,2.62,4.18,14.11,14.11,0,0,1,.15,1.42v.4h.85V13.6h-.85V14a12.77,12.77,0,0,1-.15,1.37,6.56,6.56,0,0,1-.75,2.11,6.26,6.26,0,0,1-1.78,2,5.5,5.5,0,0,1-3.22.92h-6.9v-19h9.15a10.75,10.75,0,0,1,4.88.95,8.39,8.39,0,0,1,2.92,2.37,10.18,10.18,0,0,1,1.58,3.2c.34,1.17.65,2.33.92,3.43v.25H270V.55H237.8v.8h1.83a5,5,0,0,1,3.31,1.1c.6.63.91,1.84.91,3.6a1.87,1.87,0,0,0,0,.34,2.28,2.28,0,0,1,0,.26V35.5a8.5,8.5,0,0,1-.29,2.47,2.67,2.67,0,0,1-.92,1.38,3.68,3.68,0,0,1-1.75.68,20.5,20.5,0,0,1-2.84.17h-.25v.85h33.52l1.51-12.4H272Z"/><path class="cls-1" d="M304.85,1.4h1a12.67,12.67,0,0,1,2.08.22,8.76,8.76,0,0,1,2.5.83,6.1,6.1,0,0,1,2.09,1.75,4.89,4.89,0,0,1,.88,3.05V31.34L288.69.64l-.07-.09H277.55V1.4h1.8a10,10,0,0,1,2.6.26,2.08,2.08,0,0,1,1.19.78,2.66,2.66,0,0,1,.41,1.35c0,.59.05,1.28.05,2.06V34.3a5,5,0,0,1-.88,3.1,6,6,0,0,1-2.09,1.75,9.08,9.08,0,0,1-2.5.83,12.89,12.89,0,0,1-2.08.22h-1v.85h18V40.2h-1A12.88,12.88,0,0,1,290,40a9.19,9.19,0,0,1-2.5-.83,6.08,6.08,0,0,1-2.09-1.75,5,5,0,0,1-.87-3.1V4.71L313.45,41l.08.09h.77V7.25a4.89,4.89,0,0,1,.87-3,6.1,6.1,0,0,1,2.09-1.75,9,9,0,0,1,2.5-.83,12.88,12.88,0,0,1,2.09-.22h1V.55h-18Z"/><path class="cls-1" d="M326.2,11.4h.85v-.3c.23-1,.52-2.1.85-3.2a10.64,10.64,0,0,1,1.46-3.06,8.46,8.46,0,0,1,2.58-2.38,9.59,9.59,0,0,1,4.22-1.16h.28a10.9,10.9,0,0,1,2.05.34,2.8,2.8,0,0,1,1.26.73,3,3,0,0,1,.69,1.34A9.77,9.77,0,0,1,340.65,6V35.4a8.67,8.67,0,0,1-.29,2.48,2.92,2.92,0,0,1-.9,1.38,3.57,3.57,0,0,1-1.72.67,20.5,20.5,0,0,1-2.84.17h-.25V41h17.9V40.1h-1.79a8,8,0,0,1-2-.31,3.08,3.08,0,0,1-1.27-.76,2.82,2.82,0,0,1-.68-1.36,9.34,9.34,0,0,1-.22-2.22V5.9a5.5,5.5,0,0,1,.81-3.46,4.25,4.25,0,0,1,2.89-1.14h.43a9.74,9.74,0,0,1,4.26,1.16,8,8,0,0,1,2.57,2.38A11.16,11.16,0,0,1,359,7.9c.32,1.08.62,2.16.89,3.18v.32h.85V.4H326.2Z"/><path class="cls-1" d="M404.05,40.2l-.84-.05a8,8,0,0,1-1.57-.31,10.5,10.5,0,0,1-1.85-.78,4.85,4.85,0,0,1-1.59-1.41l-9.4-13a11.83,11.83,0,0,0-2.74-2.81,10.16,10.16,0,0,0-1.22-.68L386.3,21a10.74,10.74,0,0,0,2.38-.56,12.31,12.31,0,0,0,4.08-2.2,9.28,9.28,0,0,0,3.14-7.34,10.44,10.44,0,0,0-.8-4.12,8.72,8.72,0,0,0-2.35-3.23,13.46,13.46,0,0,0-4.08-2.19A21.1,21.1,0,0,0,382.8.55H363.5v.8h1.83a5,5,0,0,1,3.31,1.1c.6.63.91,1.84.91,3.6V35.5a8.5,8.5,0,0,1-.29,2.47,2.91,2.91,0,0,1-.9,1.39,3.57,3.57,0,0,1-1.73.67,20.51,20.51,0,0,1-2.88.17h-.25v.85h17.95V40.2h-1.79a8,8,0,0,1-2-.31,3.08,3.08,0,0,1-1.27-.76,3,3,0,0,1-.69-1.34,9.84,9.84,0,0,1-.21-2.24V21.2h1.6a5.63,5.63,0,0,1,1.1.1,4,4,0,0,1,1.06.37,5.51,5.51,0,0,1,1.14.84,10.53,10.53,0,0,1,1.34,1.54L393.89,41l.08.1h10.38v-.6l-.05-.25ZM375.45,6a10.08,10.08,0,0,1,.19-2.15,3,3,0,0,1,.62-1.34,3,3,0,0,1,1.13-.78,6.22,6.22,0,0,1,1.76-.38h3.25A6.56,6.56,0,0,1,388,4.09a11.49,11.49,0,0,1,1.81,6.76,14.64,14.64,0,0,1-.35,3.27,12.1,12.1,0,0,1-.92,2.65,8.6,8.6,0,0,1-1,1.44,8,8,0,0,1-1.09,1,6.94,6.94,0,0,1-4.05,1.2h-6.95Z"/><path class="cls-1" d="M447.48,40.1l-1.77-.27a3.26,3.26,0,0,1-1.41-.65,6.67,6.67,0,0,1-1.44-1.69,22,22,0,0,1-1.63-3.33L427.83.66,427.76.5H427L413.51,34.26a9.36,9.36,0,0,1-2.09,3.36,10.11,10.11,0,0,1-2.31,1.73,5.73,5.73,0,0,1-1.87.65l-.85.1h-.24V41H420V40.1h-.25l-.64,0a9.46,9.46,0,0,1-1.39-.2,9,9,0,0,1-1.65-.53,4,4,0,0,1-1.39-1,3.16,3.16,0,0,1-.71-1.58,4.6,4.6,0,0,1,.41-2.39l3.74-9.29h13.61l3.63,9.14a13.81,13.81,0,0,1,1,3.46,1.75,1.75,0,0,1-.47,1.56,3.25,3.25,0,0,1-1.78.62c-.84.08-1.84.15-3.07.22h-.23V41h16.9v-.82Zm-29-15.85L425,8.12l6.43,16.13Z"/></g></g></svg>