<svg xmlns="http://www.w3.org/2000/svg" viewBox="0 0 380.77 174.13"><defs><style>.cls-1{fill:#ff8300;}.cls-2{fill:#53575a;}.cls-3{fill:none;stroke:#ff8300;stroke-width:0.81px;}</style></defs><g id="Layer_2" data-name="Layer 2"><g id="Layer_1-2" data-name="Layer 1"><path class="cls-1" d="M10,97.67h.56a20.91,20.91,0,0,0,.34,3.6,31.63,31.63,0,0,0,1,4A24.94,24.94,0,0,0,13.44,109a10.85,10.85,0,0,0,2,2.87,16.63,16.63,0,0,0,5,3.36,15.75,15.75,0,0,0,5.92,1.28H27A17.6,17.6,0,0,0,33,115.17a11.84,11.84,0,0,0,4.73-4.42,12.44,12.44,0,0,0,1.85-6.15A13.05,13.05,0,0,0,37.89,98a14.47,14.47,0,0,0-5.71-5.61l-8.78-5a25.81,25.81,0,0,1-7-5.46,18.63,18.63,0,0,1-3.66-6.11,14.8,14.8,0,0,1-.8-6.23,15.52,15.52,0,0,1,1.67-5.81A16.72,16.72,0,0,1,17.38,59a18.59,18.59,0,0,1,5.33-3.33,11.68,11.68,0,0,1,2.78-.85,17.9,17.9,0,0,1,2.86-.23,15.4,15.4,0,0,1,6.27,1.32q1.11.46,2.37.93a8.63,8.63,0,0,0,2.5.54,4.69,4.69,0,0,0,2.37-.47,4.59,4.59,0,0,0,2-2.09h.49v16.8h-.56a14,14,0,0,0-.45-3.41,20.11,20.11,0,0,0-1.22-3.44,21.58,21.58,0,0,0-1.74-3.1,18.45,18.45,0,0,0-1.95-2.43,13.63,13.63,0,0,0-4.6-3.06,14.27,14.27,0,0,0-5.43-1,15.14,15.14,0,0,0-2.4.2,13.35,13.35,0,0,0-2.34.58,10.07,10.07,0,0,0-5,3.71,8.59,8.59,0,0,0-1.46,5.88,14.45,14.45,0,0,0,3.1,7.09A31.68,31.68,0,0,0,29,80l8,4.56a21.12,21.12,0,0,1,6.06,5.3,16.94,16.94,0,0,1,3.06,6.39,15.27,15.27,0,0,1,.07,6.66,14.86,14.86,0,0,1-2.89,6.15A19.24,19.24,0,0,1,37.47,114a25.23,25.23,0,0,1-8.7,2.82h.14l-1,.12c-.31,0-.62,0-.94,0h-.7a14.58,14.58,0,0,1-6.06-1.32v0a5.33,5.33,0,0,1-.7-.31,11.72,11.72,0,0,0-4.6-1.2,5.38,5.38,0,0,0-2.68.62,3.21,3.21,0,0,0-1.29,1.39,10.07,10.07,0,0,0-.41,1.05v.07H10Z"/><path class="cls-1" d="M87.77,55.26h24.31v.54h-1c-.74.05-1.71.18-2.92.39a10.93,10.93,0,0,0-3.59,1.31,9.26,9.26,0,0,0-3.06,2.87,8.51,8.51,0,0,0-1.29,4.95V98.83a17.78,17.78,0,0,1-6,13.47,20.26,20.26,0,0,1-6.55,3.79,23.22,23.22,0,0,1-7.87,1.32h-.42a21.59,21.59,0,0,1-7.59-1.32,19.6,19.6,0,0,1-6.34-3.79,18.26,18.26,0,0,1-4.5-6.11A20,20,0,0,1,59.35,98V61.37c-.14-2-.68-3.42-1.61-4.22a7.44,7.44,0,0,0-4.52-1.35H51v-.62H75.3v.39l.07.07H75.3v.16H72.44a6.52,6.52,0,0,0-3.76,1.32,5.65,5.65,0,0,0-1.6,3.63V97.44A28.1,28.1,0,0,0,68.33,106a16.87,16.87,0,0,0,3.73,6.58,13.26,13.26,0,0,0,6,3.68,15,15,0,0,0,8.16-.19,20.45,20.45,0,0,0,7.66-4.18,15.83,15.83,0,0,0,4.18-5.65,16.72,16.72,0,0,0,1.6-7.36V64.93a8.26,8.26,0,0,0-1.39-4.8,9.44,9.44,0,0,0-3.07-2.71,11.73,11.73,0,0,0-3.55-1.23c-1.21-.21-2.16-.34-2.86-.39h-1Z"/><path class="cls-1" d="M118.35,117.33v-.54h.07a25,25,0,0,0,4-.27A5,5,0,0,0,125,115.4a4.82,4.82,0,0,0,1.36-2.32,14.91,14.91,0,0,0,.42-4V63.54c0-2.84-.46-4.79-1.36-5.84s-2.52-1.67-4.84-1.82h-2.23v-.47h26.54A26.09,26.09,0,0,1,153,56.57a17.53,17.53,0,0,1,5.57,3.33,13.06,13.06,0,0,1,3.17,4.84A17.3,17.3,0,0,1,162.79,71q0,7-4.25,11.07A16.35,16.35,0,0,1,153,85.37a13.79,13.79,0,0,1-3.24.85c-1.14.15-2.33.28-3.59.38a10.26,10.26,0,0,1,3.1,1.63A16.88,16.88,0,0,1,153,92.49l13.1,20.2A7.22,7.22,0,0,0,168.4,115a13.08,13.08,0,0,0,2.65,1.24,9.93,9.93,0,0,0,2.26.5c.65.06,1.05.08,1.18.08h.07v.54H160.63l-17-26.16a18.57,18.57,0,0,0-1.92-2.44,8.24,8.24,0,0,0-1.67-1.35,5.18,5.18,0,0,0-1.57-.62,8.27,8.27,0,0,0-1.6-.16H134.3v22.61a17.34,17.34,0,0,0,.31,3.56,5.13,5.13,0,0,0,1,2.24,4.48,4.48,0,0,0,1.91,1.28,10.18,10.18,0,0,0,2.93.5h2.16v.54H118.35Zm16-31.19h10a9.29,9.29,0,0,0,5.85-1.93,11.85,11.85,0,0,0,1.57-1.59,14.18,14.18,0,0,0,1.5-2.29,19.65,19.65,0,0,0,1.32-4.21,25.16,25.16,0,0,0,.49-5.15q0-6.66-2.58-10.68a9.15,9.15,0,0,0-8.15-4.41H139.8a8.28,8.28,0,0,0-2.57.62,4.31,4.31,0,0,0-1.71,1.31,5.28,5.28,0,0,0-.94,2.25,17.24,17.24,0,0,0-.28,3.4V86.14Z"/><path class="cls-1" d="M181.81,116.36a5.14,5.14,0,0,0,2.58-1.12,4.66,4.66,0,0,0,1.39-2.32,14.91,14.91,0,0,0,.42-4V63.38a16.59,16.59,0,0,0-.32-3.56,5.12,5.12,0,0,0-1-2.24,4.18,4.18,0,0,0-2-1.24,13.66,13.66,0,0,0-3-.54h-2.16v-.62h44.16V71.59h-.49v-.16q-.56-2.55-1.28-5.3a16.74,16.74,0,0,0-2.27-5,12.1,12.1,0,0,0-4.18-3.79,13.92,13.92,0,0,0-7-1.51h-13.1V85.91h10a7.51,7.51,0,0,0,4.7-1.47,9.11,9.11,0,0,0,2.55-3.18,12.82,12.82,0,0,0,1.08-3.4,18.41,18.41,0,0,0,.24-2.25v-.23h.42V97h-.42v-.24a20.48,20.48,0,0,0-.24-2.24A11.84,11.84,0,0,0,210.82,91a9.18,9.18,0,0,0-2.64-3.18,7.8,7.8,0,0,0-4.92-1.39h-9.61v22.6a17.41,17.41,0,0,0,.31,3.52,5.13,5.13,0,0,0,1,2.29,4.48,4.48,0,0,0,2,1.27,10.5,10.5,0,0,0,3,.51h2.16v.54H177.84v-.54A23.26,23.26,0,0,0,181.81,116.36Z"/><path class="cls-1" d="M216,116.64l1.22-.16a7.87,7.87,0,0,0,2.72-1,15,15,0,0,0,3.31-2.75,15.48,15.48,0,0,0,3-5.34l18.74-52h.56l18.67,51.86a36,36,0,0,0,2.29,5.23,10.65,10.65,0,0,0,2.09,2.71,4.6,4.6,0,0,0,2.13,1.08l2.47.43v.54H250.35v-.54c1.67-.11,3.1-.22,4.29-.35a4.52,4.52,0,0,0,2.68-1.05,3.29,3.29,0,0,0,.77-2.75,23.37,23.37,0,0,0-1.4-5.45l-5.15-14.4H232.1l-5.29,14.63a8.06,8.06,0,0,0-.59,3.91,5.4,5.4,0,0,0,1.08,2.63,5.73,5.73,0,0,0,2,1.63,12.11,12.11,0,0,0,2.37.85,11.65,11.65,0,0,0,2,.31l.91,0v.54H216Zm25.84-50.93L232.31,92.1h19Z"/><path class="cls-1" d="M273.83,86.29v-.07h-.28A38.12,38.12,0,0,1,274,80a37.55,37.55,0,0,1,1.46-6,32.53,32.53,0,0,1,5.29-9.91,30.85,30.85,0,0,1,3.59-3.79,20.5,20.5,0,0,1,4.15-2.87A19.33,19.33,0,0,1,298.07,55a15.9,15.9,0,0,1,6.83,1.47H305a.38.38,0,0,0,.28.15l.06.08.95.46c.3.16.61.34.94.54a13.31,13.31,0,0,0,5.71,1.94A5.27,5.27,0,0,0,316,58.9a4,4,0,0,0,1.61-2.71h.48V78.71h-.48a41.37,41.37,0,0,0-1-5.42,39.7,39.7,0,0,0-1.56-4.8A29.52,29.52,0,0,0,313,64.58a24.77,24.77,0,0,0-2.47-3.29A18,18,0,0,0,304.69,57a16.59,16.59,0,0,0-5.58-1.39,11.56,11.56,0,0,0-7,2.4,21.22,21.22,0,0,0-5.71,6.58,37.6,37.6,0,0,0-3.87,9.79,48.37,48.37,0,0,0-1.43,12,46,46,0,0,0,2.34,15,30.44,30.44,0,0,0,6.09,10.91A19.1,19.1,0,0,0,293,115a18.6,18.6,0,0,0,2.79,1.43,6.7,6.7,0,0,0,1.64.43,12.47,12.47,0,0,0,1.7.12,24.93,24.93,0,0,0,2.83-.47,14.16,14.16,0,0,0,2.75-.93,17.28,17.28,0,0,0,5.78-4.33,16.28,16.28,0,0,0,2.47-3.21,36.66,36.66,0,0,0,2-3.91,30.36,30.36,0,0,0,1.6-4.8,54.33,54.33,0,0,0,1-5.42l.49.08a38.41,38.41,0,0,1-2.71,10.37,25.7,25.7,0,0,1-4.53,7.35,19.7,19.7,0,0,1-6,4.34,15.46,15.46,0,0,1-6.76,1.47,19.34,19.34,0,0,1-9.54-2.48,24.94,24.94,0,0,1-7.74-6.66,32.48,32.48,0,0,1-5.29-9.9,37.82,37.82,0,0,1-1.46-6,38.34,38.34,0,0,1-.49-6.2Z"/><path class="cls-1" d="M358.74,116a16.19,16.19,0,0,0,4.08-2,15.78,15.78,0,0,0,3.1-2.82,24.41,24.41,0,0,0,2.3-3.29,28.31,28.31,0,0,0,3.13-9h.49l-2,18.42H323.77v-.54a25.18,25.18,0,0,0,4-.27,5.13,5.13,0,0,0,2.61-1.12,4.64,4.64,0,0,0,1.39-2.32,14.91,14.91,0,0,0,.42-4V64.47a3.71,3.71,0,0,0,0-.47,2.38,2.38,0,0,1,0-.46q0-4.26-1.36-5.84c-.9-1.06-2.52-1.67-4.84-1.82H323.7v-.47h44.17V71.67h-.49v-.08q-.56-2.55-1.29-5.34a16.61,16.61,0,0,0-2.26-5.07,12.19,12.19,0,0,0-4.18-3.79,14,14,0,0,0-7-1.51H339.59V86.14h10a7.38,7.38,0,0,0,4.7-1.51,9.74,9.74,0,0,0,2.58-3.21A11,11,0,0,0,357.91,78a21.11,21.11,0,0,0,.21-2.16v-.24h.48v21.6h-.48V97q0-.54-.21-2.25a10.8,10.8,0,0,0-1.12-3.52A9.44,9.44,0,0,0,354.11,88a7.75,7.75,0,0,0-4.91-1.4h-9.61v21.21a10.34,10.34,0,0,1,.07,1.4,16.67,16.67,0,0,0,.31,3.56,5.24,5.24,0,0,0,1,2.24,4.52,4.52,0,0,0,1.92,1.28,10.1,10.1,0,0,0,2.92.5h7.74A16.24,16.24,0,0,0,358.74,116Z"/><path class="cls-2" d="M46.51,46.37a6.94,6.94,0,0,0,1.54-2q.6-1.14,1.26-2.28c.43-.75.85-1.51,1.26-2.27s.79-1.52,1.16-2.28.87-1.31,1.3-2.07.9-1.52,1.4-2.28q.47-.72.93-1.5a6.5,6.5,0,0,1,1.07-1.34,2.9,2.9,0,0,1,1.35-.73,2.82,2.82,0,0,1,1.68.26,4.67,4.67,0,0,1,1.07,2.54,27.5,27.5,0,0,1,.28,3.36c0,1.17.08,2.35.14,3.52a8.41,8.41,0,0,0,.65,3,5.4,5.4,0,0,0,1.91-1.81c.53-.79,1-1.57,1.54-2.33s1-1.67,1.44-2.53A18,18,0,0,0,67.66,33a7.45,7.45,0,0,0,.79-1.81A1.2,1.2,0,0,1,70,30.33a1.9,1.9,0,0,1-.1,1.91,4.88,4.88,0,0,0-.65,1.91c-.31.63-.59,1.23-.84,1.82s-.49,1.19-.74,1.81a20.58,20.58,0,0,0-1.86,3.1,10.56,10.56,0,0,1-2.15,3,3.41,3.41,0,0,1-1.16.83,2.86,2.86,0,0,1-1.72.11A3.58,3.58,0,0,1,59,42.9a11.81,11.81,0,0,1-.7-3,34.67,34.67,0,0,1-.18-3.62,22.1,22.1,0,0,0-.28-3.57,1.67,1.67,0,0,0-.79.77c-.22.38-.46.74-.7,1.09-.69,1-1.35,2.14-2,3.31s-1.25,2.35-1.81,3.52A33.3,33.3,0,0,0,50.1,46a8.25,8.25,0,0,1-3.21,3.77,4.23,4.23,0,0,0-.66,0,1.8,1.8,0,0,1-.74,0,6.12,6.12,0,0,1-.93-.51,9.94,9.94,0,0,1-1.26-4.71c-.09-1.9-.14-3.85-.14-5.85s0-4-.09-6-.16-3.9-.28-5.7a61.12,61.12,0,0,0-3.45,8.9q-1.48,4.88-2.89,10.15-.93,3.72-1.72,7.66T33,61.79c-.13.62-.25,1.24-.38,1.86a8.55,8.55,0,0,1-.51,1.71,3.65,3.65,0,0,1-.88,1.29,2.47,2.47,0,0,1-1.49.62,1.93,1.93,0,0,1-1.68-1.5A18.69,18.69,0,0,1,27.51,63a54.64,54.64,0,0,1,0-9.05c.25-3.21.53-6.27.84-9.16S29,39,29.47,36.07s.93-5.74,1.49-8.44c.18-.82.38-1.69.6-2.58a1.89,1.89,0,0,1,1.63-1.56,1.27,1.27,0,0,1,1.07.21,2.22,2.22,0,0,1,.52.83,5.66,5.66,0,0,1-.1,2.28,5.8,5.8,0,0,0-.09,2.27A8.2,8.2,0,0,0,35,30.84a3,3,0,0,1,.1,1.66.63.63,0,0,1-.61.41.9.9,0,0,1-.7-.31c-.5,3.52-1,7-1.4,10.46s-.74,7.1-.93,11Q33,48,34.78,41.5t3.91-12.42c.19-.48.43-1.15.74-2a13,13,0,0,1,1.17-2.43,5.8,5.8,0,0,1,1.58-1.76,1.79,1.79,0,0,1,2,0,2.71,2.71,0,0,1,1.25,1.66,14.37,14.37,0,0,1,.61,2.79,28.49,28.49,0,0,1,.18,3.26c0,1.14,0,2.16.1,3.06a60,60,0,0,1,0,6.57A33.14,33.14,0,0,0,46.51,46.37Z"/><path class="cls-2" d="M69.89,29.91a1.7,1.7,0,0,1,.33,1.14c0,.41,0,.86,0,1.35-.06,1.17-.08,2.45,0,3.82s0,2.73,0,4,0,2.59,0,3.83a4.85,4.85,0,0,1-1,3H68.4a3.51,3.51,0,0,1-.7-1.6,18,18,0,0,1-.32-2.33c-.06-1.52-.08-3.11,0-4.76a48.35,48.35,0,0,1,.33-4.87c.06-.41.12-.89.18-1.45a6.66,6.66,0,0,1,.33-1.44,1.66,1.66,0,0,1,.65-.88C69.1,29.58,69.46,29.64,69.89,29.91Zm.47-20.08a2.46,2.46,0,0,1-.75,1.66.93.93,0,0,1-1.07-.21,1.8,1.8,0,0,1-.37-1,1.37,1.37,0,0,1,.28-1A1.11,1.11,0,0,1,69.52,9C70,9.28,70.3,9.56,70.36,9.83Z"/><path class="cls-2" d="M86,33.43a1.15,1.15,0,0,1-1.07-.1,2.62,2.62,0,0,1-.7-.78,5.12,5.12,0,0,1-.47-1,4.12,4.12,0,0,0-.46-1,7.59,7.59,0,0,0-3.17,3.37,26.61,26.61,0,0,0-2,4.91,27.82,27.82,0,0,0-.65,2.85,23.27,23.27,0,0,0-.32,3.21,11.6,11.6,0,0,0,.27,3A3.43,3.43,0,0,0,78.84,50,7.33,7.33,0,0,0,83,48.23a41.14,41.14,0,0,1,3.26-2.69q3.25-2.68,6.33-5.54c2-1.89,4.13-3.81,6.24-5.74.5-.42,1-.86,1.54-1.35A20.31,20.31,0,0,1,102,31.57a3.34,3.34,0,0,1,.79-.62l1-.62a10.53,10.53,0,0,0,1-.52c.34-.21.63-.11.88.31s.11.93-.23,1.14a4,4,0,0,0-.89.72c-.87.69-1.69,1.4-2.46,2.12L99.7,36.33q-3.45,3.21-6.85,6.88a78,78,0,0,1-7.21,6.88,27.63,27.63,0,0,1-3.54,2.54,5.36,5.36,0,0,1-4.57.36,5.09,5.09,0,0,1-2.37-3,15.44,15.44,0,0,1-.8-4.45,22.84,22.84,0,0,1,.38-5A28.72,28.72,0,0,1,76,36a19.53,19.53,0,0,1,5.12-8.18l.75-.36a2.85,2.85,0,0,1,.74-.26c.06,0,.09,0,.09,0s0-.05.1-.05h.84a2.74,2.74,0,0,1,.74.1,3.87,3.87,0,0,1,2,3,9.11,9.11,0,0,0,0,1.81A1.58,1.58,0,0,1,86,33.43Z"/><path class="cls-2" d="M119.17,27.22a14.73,14.73,0,0,0-4.33,5c-1.09,2-2.25,4-3.5,6-.49,1.11-1,2.21-1.49,3.31a33.45,33.45,0,0,0-1.3,3.42,19.11,19.11,0,0,0-1.4,3.36,3.52,3.52,0,0,1-2.23,2.43h-.84a2.23,2.23,0,0,1-.79-.56,5,5,0,0,1-.61-.88,38.41,38.41,0,0,1-.14-4.25c0-1.51.1-3.05.19-4.6s.25-3.07.46-4.56.46-2.84.7-4.09a16,16,0,0,1,.56-2.27,1.86,1.86,0,0,1,1.49-1.35,1.18,1.18,0,0,1,1.07.93A6,6,0,0,1,107.2,31a21,21,0,0,1-.23,2.27,12.49,12.49,0,0,0-.19,1.92c-.12,1.38-.23,2.62-.33,3.73s-.2,2.14-.32,3.1c1.05-1.93,2.33-4.1,3.82-6.52A65.06,65.06,0,0,1,114.51,29a25.28,25.28,0,0,1,1.63-2,6.79,6.79,0,0,1,1.91-1.5,2.43,2.43,0,0,1,1.72,0,1.55,1.55,0,0,1,1.08,1.14c.12.83-.07,1.28-.56,1.34A1,1,0,0,1,119.17,27.22Z"/><path class="cls-2" d="M129.6,27.43a6.9,6.9,0,0,1,5,2.17,10.53,10.53,0,0,1,2.29,5.28c2-.41,4-.88,6.19-1.4s4.24-1,6.29-1.6a6.57,6.57,0,0,0,.93-.36,6.69,6.69,0,0,1,1.16-.42,3,3,0,0,1,1.08-.1.76.76,0,0,1,.65.46.69.69,0,0,1-.19.83,4.1,4.1,0,0,1-.93.57,6.37,6.37,0,0,1-1.21.41c-.44.11-.75.2-.93.26a64.5,64.5,0,0,1-6.29,1.82l-6.57,1.5a23.82,23.82,0,0,1-.79,7.5,27.79,27.79,0,0,1-2.56,6.36,31.65,31.65,0,0,1-3.59,5,10,10,0,0,1-4.89,3.11h-1.39a3.6,3.6,0,0,1-1.59-.78A13.61,13.61,0,0,1,121,56.82a9.58,9.58,0,0,1-1.44-4.5,29.69,29.69,0,0,1,0-5.49c.19-1.89.47-3.76.84-5.59s.72-3.46,1-4.91a4.46,4.46,0,0,1,0-3.73,8,8,0,0,1,1.82-2.69,20.68,20.68,0,0,0,.7-2.17,17.94,17.94,0,0,1,.79-2.38,7.42,7.42,0,0,1,1.16-2,2.28,2.28,0,0,1,1.82-.83,1.85,1.85,0,0,1,1.86,1.5A6.21,6.21,0,0,1,129.6,27.43Zm-4.47,10.76q-.47,3-1.16,6.47a28.39,28.39,0,0,0-.52,7.09,9.63,9.63,0,0,0,.33,1.76,2.52,2.52,0,0,0,.88,1.34A7,7,0,0,0,129,52.37c1.05-1.31,2.05-2.65,3-4a42,42,0,0,0,2.24-5,13.75,13.75,0,0,0,.74-6.05,38.92,38.92,0,0,1-4.75.78A35.23,35.23,0,0,1,125.13,38.19Zm4.1-8.59a3.38,3.38,0,0,0-.19,1.19c0,.45-.18.71-.56.78a1.5,1.5,0,0,1-.42-.05l-.32-.16a2.06,2.06,0,0,1-.1-1.45,4.43,4.43,0,0,0-.69,1.35,15.1,15.1,0,0,0-.42,1.55,16.42,16.42,0,0,0-.47,1.66c-.12.55-.25,1.1-.37,1.65,1.74,0,3.35-.07,4.84-.21a41.59,41.59,0,0,0,4.38-.62,8.6,8.6,0,0,0-1.72-4.08A5.17,5.17,0,0,0,129.23,29.6Z"/><path class="cls-2" d="M157,17.08q8-.31,16.67-.93a110.08,110.08,0,0,1,17.23.1c.31,0,.65,0,1,.05a.82.82,0,0,1,.74.57c-.06.55-.29.83-.7.83a4.89,4.89,0,0,1-1.07-.11,152.25,152.25,0,0,0-17.23.16q-8.57.57-16.86,1.09-1.31,8.49-2.38,17.28a140.57,140.57,0,0,0-1,18.42c0,.9,0,1.9.09,3a23.94,23.94,0,0,0,.37,3.1c.13.76.33,1.69.61,2.8s.7,1.69,1.25,1.75a1.14,1.14,0,0,0,1-.31,8.46,8.46,0,0,0,1-1,11.58,11.58,0,0,0,.93-1.19q.42-.61.6-.93a100.56,100.56,0,0,0,6.66-11q2.94-5.64,6.2-11.75.84-1.65,1.77-3.42c.62-1.17,1.3-2.34,2.05-3.52a10.68,10.68,0,0,1,.84-1.19q.46-.55.93-.36c.49.28.59.71.28,1.3s-.56,1-.75,1.29q-2.32,4.35-4.38,8.8c-1.36,3-2.82,5.9-4.37,8.79q-1.31,2.38-2.57,4.82c-.83,1.62-1.72,3.22-2.65,4.81s-1.9,3.14-2.89,4.66a10.39,10.39,0,0,1-3.82,3.52,4.92,4.92,0,0,1-2,0,6.22,6.22,0,0,1-3.22-3.88,30.46,30.46,0,0,1-1.25-5.85,49.45,49.45,0,0,1-.47-6.88c0-2.39.06-4.71.19-7q.47-6.93,1.25-13.4t1.91-12.37c-2.85.14-5.76.38-8.71.72s-5.94.59-9,.73c-.38,0-.8,0-1.26,0s-.73-.23-.79-.78.24-.83.74-.83a7.27,7.27,0,0,0,1.31-.1c2.91-.21,5.9-.48,8.94-.83s6.05-.58,9-.72c.38-1.45.79-3.16,1.26-5.13a46.59,46.59,0,0,1,1.63-5.43,8.34,8.34,0,0,1,.7-1.71c.34-.65.76-1,1.26-1a.92.92,0,0,1,.88.41,1.68,1.68,0,0,1,.19,1,9.14,9.14,0,0,1-.19,1.19c-.09.41-.17.79-.23,1.14q-.47,2.27-.93,4.71T157,17.08Z"/><path class="cls-2" d="M177.85,35.91a22.26,22.26,0,0,0-1.21,3.78,19.61,19.61,0,0,0-.56,4.56,8.5,8.5,0,0,0,.84,3.88,3.25,3.25,0,0,0,3,1.76,8.43,8.43,0,0,0,4.61-1.14,41.35,41.35,0,0,0,3.77-2.38q1.86-1.45,3.5-2.85c1.08-.93,2.06-1.84,2.93-2.74a52.24,52.24,0,0,0,4.61-4.45q2.19-2.38,4.33-4.87a2.39,2.39,0,0,0,.61-.82,8.85,8.85,0,0,1,.7-1.14,4.53,4.53,0,0,1,.79-.88.66.66,0,0,1,.88-.05c.44.2.53.62.28,1.24a6.68,6.68,0,0,1-.65,1.34,3.57,3.57,0,0,1-.56,1.14c-.25.35-.5.73-.74,1.14q-2.34,3-4.89,5.69T194.8,44.5A38.33,38.33,0,0,1,187,50.71a18.67,18.67,0,0,1-2.33,1.2,12.2,12.2,0,0,1-2.7.82,10.78,10.78,0,0,1-2.84.16,5.33,5.33,0,0,1-2.66-.93,4.55,4.55,0,0,1-1-1l-.89-1.19a10.7,10.7,0,0,1-1.16-4.4,21.42,21.42,0,0,1,.28-4.91,34.16,34.16,0,0,1,2.65-8.59,43.22,43.22,0,0,1,3.73-6.11,10.82,10.82,0,0,1,5.68-3.93,4.18,4.18,0,0,1,3.12.93,3.81,3.81,0,0,1,1,3.31,7.26,7.26,0,0,1-1.12,3.11,19.16,19.16,0,0,1-2,2.58A20.62,20.62,0,0,1,183.11,35,6.94,6.94,0,0,1,177.85,35.91Zm8.66-11.07a9.72,9.72,0,0,0-4.93,3.78,38.93,38.93,0,0,0-3.17,5.74,5.39,5.39,0,0,0,3.45-1,26.75,26.75,0,0,0,2.42-2.18c.68-.82,1.4-1.65,2.14-2.48a4.77,4.77,0,0,0,1-3.52A1,1,0,0,0,186.51,24.84Z"/><path class="cls-2" d="M223.68,26.5c-.5,0-.75-.28-.75-.83q-3.63,4.35-6.84,9T209.8,44.4c.37,1.11.76,2.16,1.16,3.16a27.6,27.6,0,0,0,1.35,2.84l.8,1.35c.28.48.57,1,.88,1.4a4.07,4.07,0,0,0,1.07,1.08,2.34,2.34,0,0,0,1.35.42,1.42,1.42,0,0,0,1.31-.78,1.4,1.4,0,0,1,1.3-.77,1.48,1.48,0,0,1,1,.82,3.69,3.69,0,0,1-1.12,2.54,8,8,0,0,1-2.24,1.29,6.31,6.31,0,0,1-3.49-.93,9.28,9.28,0,0,1-2.47-2.33,19.59,19.59,0,0,1-1.81-3c-.53-1.07-1-2.09-1.54-3.05q-3.63,6.21-7.69,12.88a78.07,78.07,0,0,0-6.75,14.23,8,8,0,0,0-.37,1.09q-.19.67-.42,1.35a7.27,7.27,0,0,1-.51,1.14.79.79,0,0,1-.66.46.76.76,0,0,1-.74-.83,5.61,5.61,0,0,1,.19-1.45,76.93,76.93,0,0,1,3.21-8.79q1.81-4.14,3.86-8c1.37-2.55,2.78-5.06,4.24-7.51s2.91-4.95,4.33-7.5c-.37-1-.74-2.26-1.11-3.67s-.7-2.9-1-4.45-.5-3.11-.65-4.66a19.86,19.86,0,0,1,0-4.5,4.7,4.7,0,0,1,.75-2.07,3.4,3.4,0,0,0,.46-.21,3.59,3.59,0,0,1,.47-.21,1.36,1.36,0,0,1,1.54.57,3.62,3.62,0,0,1,.6,1.6,1.12,1.12,0,0,1,0,.63,1.89,1.89,0,0,0-.09.51,15.72,15.72,0,0,0,.14,3.16c.15,1.14.29,2.19.42,3.16a30.79,30.79,0,0,0,.51,3.05c.22,1,.42,1.88.61,2.64q2.41-3.63,5.45-8.23t6-8.33c.69-.83,1.49-1.72,2.42-2.69A6.73,6.73,0,0,1,225.36,20a1.17,1.17,0,0,1,1,.05,1.06,1.06,0,0,1,.56.77,2.19,2.19,0,0,1-.42,1.76l-1,1.35c-.31.55-.6,1-.88,1.45A7,7,0,0,1,223.68,26.5Z"/><path class="cls-2" d="M233.27,17.08q8-.31,16.68-.93a110.08,110.08,0,0,1,17.23.1c.31,0,.65,0,1,.05a.83.83,0,0,1,.75.57c-.06.55-.3.83-.7.83a4.89,4.89,0,0,1-1.07-.11,152.23,152.23,0,0,0-17.23.16q-8.58.57-16.86,1.09-1.31,8.49-2.38,17.28a142.29,142.29,0,0,0-1,18.42c0,.9,0,1.9.1,3a22.31,22.31,0,0,0,.37,3.1c.12.76.32,1.69.6,2.8s.7,1.69,1.26,1.75a1.14,1.14,0,0,0,1-.31,8.41,8.41,0,0,0,1-1,10.44,10.44,0,0,0,.94-1.19q.42-.61.6-.93a102.15,102.15,0,0,0,6.66-11q2.94-5.64,6.2-11.75c.56-1.1,1.14-2.24,1.77-3.42s1.3-2.34,2.05-3.52a9.42,9.42,0,0,1,.83-1.19c.31-.37.62-.49.94-.36.49.28.59.71.27,1.3s-.55,1-.74,1.29q-2.33,4.35-4.38,8.8c-1.37,3-2.82,5.9-4.38,8.79q-1.31,2.38-2.56,4.82t-2.65,4.81c-.93,1.59-1.9,3.14-2.89,4.66a10.39,10.39,0,0,1-3.82,3.52,5,5,0,0,1-2,0,6.23,6.23,0,0,1-3.21-3.88,31.23,31.23,0,0,1-1.26-5.85,49.47,49.47,0,0,1-.46-6.88c0-2.39.06-4.71.18-7,.32-4.62.73-9.09,1.26-13.4s1.17-8.44,1.91-12.37c-2.85.14-5.76.38-8.71.72s-5.94.59-9,.73c-.37,0-.79,0-1.26,0s-.72-.23-.79-.78.25-.83.75-.83a7.08,7.08,0,0,0,1.3-.1c2.92-.21,5.9-.48,8.94-.83s6.06-.58,9-.72q.56-2.18,1.26-5.13a44.73,44.73,0,0,1,1.63-5.43,7.81,7.81,0,0,1,.7-1.71c.34-.65.76-1,1.25-1a.94.94,0,0,1,.89.41,1.76,1.76,0,0,1,.19,1,11.24,11.24,0,0,1-.19,1.19c-.09.41-.17.79-.23,1.14-.32,1.51-.63,3.08-.94,4.71S233.58,15.7,233.27,17.08Z"/><path class="cls-2" d="M255.07,46a1.71,1.71,0,0,0,.79-.77c.22-.38.42-.74.61-1.09.68-1,1.35-2,2-3.1s1.32-2.14,2-3.11c.44-.76.87-1.48,1.31-2.17a21.69,21.69,0,0,1,1.39-2,14.63,14.63,0,0,0,1.59-1.86A2.34,2.34,0,0,1,267,31a2.24,2.24,0,0,1,1.63.88,6.07,6.07,0,0,1,1,1.86,16.25,16.25,0,0,1,.61,2.43q.23,1.35.42,2.49c.12.69.27,1.43.46,2.22s.4,1.57.65,2.33.53,1.4.84,2.12a2,2,0,0,0,1.31,1.29,1.71,1.71,0,0,0,1.35-.15,8.41,8.41,0,0,0,1.35-.88,9.29,9.29,0,0,0,1.21-1.14l.84-.93a20,20,0,0,0,1.86-2.17q.84-1.14,1.86-2.28,1.31-1.76,2.66-3.47T287.67,32a7.62,7.62,0,0,0,.75-1.34,1.08,1.08,0,0,1,1.21-.73,1.3,1.3,0,0,1,.32,1.61,8.35,8.35,0,0,1-.79,1.39c-.31.49-.62,1-.93,1.4s-.59.85-.84,1.19q-2,2.59-4.1,5.59a41.26,41.26,0,0,1-4.56,5.38,20.8,20.8,0,0,1-2.66,2.12,3.53,3.53,0,0,1-3.58.06,6.9,6.9,0,0,1-2.19-2.85A21.24,21.24,0,0,1,269,41.92c-.31-1.38-.6-2.8-.88-4.25a16.31,16.31,0,0,0-1.26-3.93,5.44,5.44,0,0,0-1.72,1.66c-.47.69-.95,1.41-1.45,2.17s-.94,1.5-1.35,2.23-.82,1.46-1.26,2.22c-.87,1.52-1.7,3-2.51,4.55a9.52,9.52,0,0,1-3.35,3.63,2.35,2.35,0,0,1-1.73-.21,4,4,0,0,1-1.16-1,15.4,15.4,0,0,1-.75-4.35,46.7,46.7,0,0,1,.1-5.13c.12-1.75.31-3.48.55-5.17s.5-3.26.75-4.71c.06-.48.13-1,.19-1.6a10.55,10.55,0,0,1,.32-1.71,6.37,6.37,0,0,1,.56-1.4,1.27,1.27,0,0,1,.89-.67.92.92,0,0,1,.83.15,2.74,2.74,0,0,1,.47.57,6.2,6.2,0,0,1,.09,2.85,12.43,12.43,0,0,0-.18,3.05c-.31,2.35-.58,4.76-.79,7.25S255.07,43.19,255.07,46Z"/><path class="cls-2" d="M303,27.22a14.84,14.84,0,0,0-4.33,5q-1.63,3-3.49,6c-.5,1.11-1,2.21-1.49,3.31a33.51,33.51,0,0,0-1.31,3.42,19.11,19.11,0,0,0-1.4,3.36,3.52,3.52,0,0,1-2.23,2.43H288a2.23,2.23,0,0,1-.79-.56,5,5,0,0,1-.61-.88,38.41,38.41,0,0,1-.14-4.25c0-1.51.1-3.05.19-4.6s.25-3.07.47-4.56.45-2.84.7-4.09a15.93,15.93,0,0,1,.55-2.27,1.86,1.86,0,0,1,1.49-1.35,1.2,1.2,0,0,1,1.08.93,6.37,6.37,0,0,1,.18,1.92,21,21,0,0,1-.23,2.27,12.49,12.49,0,0,0-.19,1.92c-.12,1.38-.23,2.62-.32,3.73s-.21,2.14-.33,3.1q1.59-2.9,3.82-6.52A65.06,65.06,0,0,1,298.38,29,25.28,25.28,0,0,1,300,27a6.79,6.79,0,0,1,1.91-1.5,2.45,2.45,0,0,1,1.73,0,1.54,1.54,0,0,1,1.07,1.14c.12.83-.06,1.28-.56,1.34A1,1,0,0,1,303,27.22Z"/><path class="cls-2" d="M308,35.91a21.39,21.39,0,0,0-1.21,3.78,19.09,19.09,0,0,0-.56,4.56,8.5,8.5,0,0,0,.84,3.88,3.24,3.24,0,0,0,3,1.76,8.43,8.43,0,0,0,4.61-1.14,42.79,42.79,0,0,0,3.77-2.38c1.24-1,2.41-1.92,3.49-2.85s2.07-1.84,2.94-2.74a53.66,53.66,0,0,0,4.61-4.45q2.19-2.38,4.33-4.87a2.39,2.39,0,0,0,.61-.82,7.83,7.83,0,0,1,.69-1.14,4.91,4.91,0,0,1,.8-.88.66.66,0,0,1,.88-.05c.43.2.53.62.28,1.24a8,8,0,0,1-.65,1.34,3.79,3.79,0,0,1-.56,1.14q-.37.52-.75,1.14a72.71,72.71,0,0,1-4.89,5.69q-2.56,2.7-5.26,5.38a38.33,38.33,0,0,1-7.82,6.21,19.4,19.4,0,0,1-2.33,1.2,12.2,12.2,0,0,1-2.7.82,10.86,10.86,0,0,1-2.85.16,5.33,5.33,0,0,1-2.65-.93,4.84,4.84,0,0,1-1-1l-.88-1.19a10.71,10.71,0,0,1-1.17-4.4,22,22,0,0,1,.28-4.91A32.46,32.46,0,0,1,305,35.71a29.94,29.94,0,0,1,1.49-3.83,43.18,43.18,0,0,1,3.72-6.11,10.85,10.85,0,0,1,5.69-3.93,4.18,4.18,0,0,1,3.12.93,3.78,3.78,0,0,1,1,3.31,7.11,7.11,0,0,1-1.11,3.11,21,21,0,0,1-2,2.58A21.34,21.34,0,0,1,313.24,35,7,7,0,0,1,308,35.91Zm8.66-11.07a9.74,9.74,0,0,0-4.94,3.78,38.89,38.89,0,0,0-3.16,5.74,5.38,5.38,0,0,0,3.44-1,25.46,25.46,0,0,0,2.42-2.18c.69-.82,1.4-1.65,2.15-2.48a4.81,4.81,0,0,0,1-3.52A1,1,0,0,0,316.64,24.84Z"/><path class="cls-2" d="M348.78,0a1.28,1.28,0,0,1,.93,1,5.53,5.53,0,0,1,0,1.92,18.37,18.37,0,0,1-.42,2.22c-.18.77-.31,1.39-.37,1.87-.5,3-1,6.23-1.44,9.57s-.83,6.76-1.07,10.25-.36,7-.33,10.56a77.7,77.7,0,0,0,.79,10.5,23.43,23.43,0,0,0,.56,3,8.54,8.54,0,0,0,1.12,2.59,6.31,6.31,0,0,0,2.51-2.38c.62-1,1.28-2,2-3a78.46,78.46,0,0,0,4.24-8.28,88.76,88.76,0,0,1,4.14-8.28,12.77,12.77,0,0,0,.89-1.66,1.25,1.25,0,0,1,1.35-.83,1.35,1.35,0,0,1,.19,1.66c-.32.69-.6,1.24-.84,1.66-.69,1.65-1.43,3.33-2.24,5s-1.58,3.32-2.33,4.91q-1.57,3.31-3.12,6.68a26.55,26.55,0,0,1-3.68,6,10.8,10.8,0,0,0-1.39,1.14,2.5,2.5,0,0,1-1.77.62,2.74,2.74,0,0,1-1.77-.88A6.11,6.11,0,0,1,345.52,54a11.5,11.5,0,0,1-.75-2.28c-.19-.83-.34-1.62-.47-2.38a56.65,56.65,0,0,1-.74-6.88c-.13-2.45-.17-4.9-.14-7.35s.14-4.87.33-7.25.4-4.6.65-6.67c-.56,1.45-1.11,2.93-1.63,4.45s-1.07,3-1.63,4.55a3.81,3.81,0,0,1,.32.73c.1.27.2.58.33.93a15.79,15.79,0,0,1,.28,1.65,2.71,2.71,0,0,1-.19,1.45.84.84,0,0,1-1.07-.36,3.82,3.82,0,0,0-.79-1c-.87,2.48-1.72,5.09-2.56,7.81a55.77,55.77,0,0,1-2.94,7.61,20.35,20.35,0,0,1-1.3,2.28,2.4,2.4,0,0,1-2.14,1.13,1.37,1.37,0,0,1-.84-.41,6.49,6.49,0,0,0-.65-.62,8.77,8.77,0,0,1-.66-4.4,42.61,42.61,0,0,1,.66-5q.65-3.1,1.49-5.8a19.68,19.68,0,0,1,2.42-5.07,9.51,9.51,0,0,1,2.23-2.58,3.37,3.37,0,0,1,3.45-.42q2.15-5.38,4.1-11.95T347,3.31c.24-.76.46-1.46.65-2.12A1.54,1.54,0,0,1,348.78,0Zm-11,31.36a3.5,3.5,0,0,0-1.53,1.24,11.53,11.53,0,0,0-1.17,1.87,29.21,29.21,0,0,0-2.23,6.31,46.52,46.52,0,0,0-1.12,7.14,43.55,43.55,0,0,0,3.07-7q1.31-3.83,2.52-7.45c.12-.34.26-.69.42-1a1.8,1.8,0,0,0,.14-1Z"/><path class="cls-2" d="M7.21,163.69H4.08v5.9c0,.39,0,.74,0,1.07a2.27,2.27,0,0,0,.18.86,1.28,1.28,0,0,0,.47.58,1.66,1.66,0,0,0,.91.21,3.11,3.11,0,0,0,.79-.1,3.24,3.24,0,0,0,.77-.3l.07,1.79a3.86,3.86,0,0,1-1,.33,6.63,6.63,0,0,1-1,.1,3.55,3.55,0,0,1-1.52-.28,2.25,2.25,0,0,1-.89-.78,3,3,0,0,1-.41-1.25,11.8,11.8,0,0,1-.11-1.65v-6.48H0V162H2.31v-3.35H4.08V162H7.21Z"/><path class="cls-2" d="M18.87,171.68a5.52,5.52,0,0,1-2.09,1.9,5.89,5.89,0,0,1-2.63.55,5,5,0,0,1-2.24-.5,4.87,4.87,0,0,1-1.69-1.32,6,6,0,0,1-1.07-2,7.71,7.71,0,0,1-.37-2.42,7.22,7.22,0,0,1,.41-2.51,5.87,5.87,0,0,1,1.13-2A5.14,5.14,0,0,1,12,162.18a5.25,5.25,0,0,1,2.18-.45,5.06,5.06,0,0,1,2,.41,4.5,4.5,0,0,1,1.6,1.21,5.53,5.53,0,0,1,1,1.94,8.76,8.76,0,0,1,.36,2.61v.63H10.68A4.44,4.44,0,0,0,11,170a4.31,4.31,0,0,0,.74,1.21,3.51,3.51,0,0,0,1.06.82,3,3,0,0,0,1.34.3,3.91,3.91,0,0,0,2-.45,4.51,4.51,0,0,0,1.43-1.34Zm-1.52-4.81a3.62,3.62,0,0,0-.88-2.42,3,3,0,0,0-2.32-.91,3.21,3.21,0,0,0-2.38.91,4,4,0,0,0-1.09,2.42Z"/><path class="cls-2" d="M24.74,167.47,20.93,162h2.32l2.81,4.23L28.71,162h2.16l-3.65,5.44,4.37,6.35H29.26l-3.36-5.09-3.31,5.09h-2.2Z"/><path class="cls-2" d="M39.15,163.69H36v5.9c0,.39,0,.74,0,1.07a2.27,2.27,0,0,0,.18.86,1.3,1.3,0,0,0,.48.58,1.62,1.62,0,0,0,.9.21,3.25,3.25,0,0,0,.8-.1,3.42,3.42,0,0,0,.77-.3l.07,1.79a4,4,0,0,1-1,.33,6.75,6.75,0,0,1-1.06.1,3.59,3.59,0,0,1-1.52-.28,2.16,2.16,0,0,1-.88-.78,3.18,3.18,0,0,1-.42-1.25,11.89,11.89,0,0,1-.1-1.65v-6.48H31.93V162h2.32v-3.35H36V162h3.13Z"/><path class="cls-2" d="M50.58,171c0,.53,0,1,0,1.51s.05.9.05,1.28H49c0-.32,0-.63,0-.95s0-.65,0-1h0a3.15,3.15,0,0,1-.51.83,3.65,3.65,0,0,1-.79.72,4.06,4.06,0,0,1-1,.51,4,4,0,0,1-1.22.19,4.13,4.13,0,0,1-1.8-.36,3.31,3.31,0,0,1-1.26-1,4.23,4.23,0,0,1-.74-1.52,7.57,7.57,0,0,1-.24-2V162h1.77v7.08a4.15,4.15,0,0,0,.59,2.35,2.08,2.08,0,0,0,1.84.85A3.11,3.11,0,0,0,47,172a2.53,2.53,0,0,0,1-.93,4.1,4.1,0,0,0,.59-1.43,8.11,8.11,0,0,0,.2-1.84V162h1.77Z"/><path class="cls-2" d="M53.93,164.83c0-.54,0-1,0-1.51s0-.9,0-1.29h1.68c0,.32,0,.64,0,1s0,.64,0,1h0a3.51,3.51,0,0,1,.51-.83,3.84,3.84,0,0,1,.78-.72,4,4,0,0,1,1-.5,3.78,3.78,0,0,1,1.23-.19l.36,0a1.86,1.86,0,0,1,.37.1l-.12,2a3,3,0,0,0-.95-.15,2.57,2.57,0,0,0-2.37,1.18,6,6,0,0,0-.74,3.21v5.74H53.93Z"/><path class="cls-2" d="M71,171.68a5.44,5.44,0,0,1-2.09,1.9,5.89,5.89,0,0,1-2.63.55,5,5,0,0,1-2.24-.5,4.87,4.87,0,0,1-1.69-1.32,6,6,0,0,1-1.07-2,7.71,7.71,0,0,1-.37-2.42,7.22,7.22,0,0,1,.41-2.51,6,6,0,0,1,1.13-2,5.14,5.14,0,0,1,1.72-1.27,5.25,5.25,0,0,1,2.18-.45,5.06,5.06,0,0,1,2,.41,4.41,4.41,0,0,1,1.6,1.21,5.53,5.53,0,0,1,1,1.94,8.75,8.75,0,0,1,.37,2.61v.63H62.82a4.44,4.44,0,0,0,.33,1.45,4.31,4.31,0,0,0,.74,1.21A3.44,3.44,0,0,0,65,172a3,3,0,0,0,1.33.3,3.91,3.91,0,0,0,1.95-.45,4.51,4.51,0,0,0,1.43-1.34Zm-1.52-4.81a3.57,3.57,0,0,0-.88-2.42,3,3,0,0,0-2.32-.91,3.21,3.21,0,0,0-2.38.91,4,4,0,0,0-1.09,2.42Z"/><path class="cls-2" d="M83,171.73h0a4.34,4.34,0,0,1-1.58,1.7,4.47,4.47,0,0,1-2.51.7,4.76,4.76,0,0,1-2.08-.47,5.08,5.08,0,0,1-1.69-1.3,6.08,6.08,0,0,1-1.12-2,7.65,7.65,0,0,1,0-4.94,6.15,6.15,0,0,1,1.13-2,5.08,5.08,0,0,1,1.76-1.3,5.5,5.5,0,0,1,2.28-.46,4.28,4.28,0,0,1,2.12.53,5.49,5.49,0,0,1,1.69,1.48h0v-9h1.77v19H83Zm0-3.8a5.36,5.36,0,0,0-.26-1.73,4.16,4.16,0,0,0-.76-1.39,3.73,3.73,0,0,0-1.19-.93,3.56,3.56,0,0,0-1.55-.34,3.61,3.61,0,0,0-1.56.34,3.84,3.84,0,0,0-1.19.93,4.35,4.35,0,0,0-.76,1.39,5.65,5.65,0,0,0-.26,1.73,5.59,5.59,0,0,0,.26,1.72,4.35,4.35,0,0,0,.76,1.39,3.84,3.84,0,0,0,1.19.93,3.47,3.47,0,0,0,1.56.34,3.43,3.43,0,0,0,1.55-.34,3.73,3.73,0,0,0,1.19-.93,4.16,4.16,0,0,0,.76-1.39A5.3,5.3,0,0,0,83,167.93Z"/><path class="cls-2" d="M94.53,170.72a4.67,4.67,0,0,0,1.14,1.16,2.72,2.72,0,0,0,1.58.43,3.42,3.42,0,0,0,.83-.1,2.47,2.47,0,0,0,.76-.33,1.7,1.7,0,0,0,.54-.56,1.54,1.54,0,0,0,.21-.82,1.41,1.41,0,0,0-.2-.78,1.49,1.49,0,0,0-.51-.52,2.66,2.66,0,0,0-.72-.34l-.84-.23a14.14,14.14,0,0,1-1.43-.4,4.56,4.56,0,0,1-1.19-.59,2.8,2.8,0,0,1-.82-.95,3.68,3.68,0,0,1,0-3,3.25,3.25,0,0,1,.9-1.08,4.51,4.51,0,0,1,1.27-.66,4.78,4.78,0,0,1,1.46-.22,4.51,4.51,0,0,1,2.09.5,3.42,3.42,0,0,1,1.51,1.64L99.68,165a3,3,0,0,0-.9-1,2.29,2.29,0,0,0-1.35-.39,3.06,3.06,0,0,0-.73.1A2.06,2.06,0,0,0,96,164a1.59,1.59,0,0,0-.49.51,1.34,1.34,0,0,0-.19.72,1,1,0,0,0,.21.64,2,2,0,0,0,.59.47,5.3,5.3,0,0,0,.86.35,8.28,8.28,0,0,0,1,.25,9.08,9.08,0,0,1,1.34.39,3.82,3.82,0,0,1,1.11.65,2.73,2.73,0,0,1,.75,1,3.59,3.59,0,0,1,.27,1.48,3.77,3.77,0,0,1-.36,1.72,3.15,3.15,0,0,1-1,1.14,3.92,3.92,0,0,1-1.37.64,5.74,5.74,0,0,1-1.55.21,5.47,5.47,0,0,1-2.35-.47,4.48,4.48,0,0,1-1.78-1.73Z"/><path class="cls-2" d="M113.22,171c0,.53,0,1,0,1.51s0,.9,0,1.28h-1.68c0-.32,0-.63,0-.95s0-.65,0-1h0a3.15,3.15,0,0,1-.51.83,3.84,3.84,0,0,1-.78.72,4.42,4.42,0,0,1-1,.51,4.06,4.06,0,0,1-1.23.19,4.19,4.19,0,0,1-1.8-.36,3.31,3.31,0,0,1-1.26-1,4.23,4.23,0,0,1-.74-1.52,7.57,7.57,0,0,1-.24-2V162h1.77v7.08a4.15,4.15,0,0,0,.59,2.35,2.09,2.09,0,0,0,1.84.85,3.18,3.18,0,0,0,1.49-.33,2.67,2.67,0,0,0,1-.93,4.52,4.52,0,0,0,.59-1.43,8.74,8.74,0,0,0,.19-1.84V162h1.77Z"/><path class="cls-2" d="M116.57,164.83c0-.54,0-1,0-1.51s0-.9,0-1.29h1.68c0,.32,0,.64,0,1s0,.64,0,1h0a3.51,3.51,0,0,1,.51-.83,3.65,3.65,0,0,1,.79-.72,3.73,3.73,0,0,1,1-.5,3.67,3.67,0,0,1,1.22-.19l.36,0a1.7,1.7,0,0,1,.37.1l-.12,2a3,3,0,0,0-1-.15,2.57,2.57,0,0,0-2.37,1.18,6,6,0,0,0-.74,3.21v5.74h-1.77Z"/><path class="cls-2" d="M125.46,163.69h-2.31V162h2.31v-2.65a9.9,9.9,0,0,1,.19-2,4.24,4.24,0,0,1,.62-1.55,2.9,2.9,0,0,1,1.17-1,4.12,4.12,0,0,1,2.52-.29,2,2,0,0,1,.63.22l-.25,1.77a3.21,3.21,0,0,0-1.2-.26,1.86,1.86,0,0,0-1.07.27,1.69,1.69,0,0,0-.58.73,3.53,3.53,0,0,0-.22,1.12c0,.44,0,.91,0,1.41V162h2.59v1.66h-2.59v10.13h-1.77Z"/><path class="cls-2" d="M131.57,163.54a4.92,4.92,0,0,1,1.93-1.37,6.28,6.28,0,0,1,2.28-.44,4.25,4.25,0,0,1,3.41,1.23,5.78,5.78,0,0,1,1,3.76v5.06c0,.34,0,.69,0,1.05s.07.69.12,1h-1.7a4.6,4.6,0,0,1-.11-.89c0-.33,0-.62,0-.87h0a4.53,4.53,0,0,1-1.4,1.49,3.74,3.74,0,0,1-2.09.58,5.12,5.12,0,0,1-1.54-.23,3.54,3.54,0,0,1-1.24-.67,3.15,3.15,0,0,1-.85-1.09,3.36,3.36,0,0,1-.32-1.52,3.53,3.53,0,0,1,.68-2.29,4.07,4.07,0,0,1,1.69-1.23,7.64,7.64,0,0,1,2.18-.51c.78-.07,1.49-.1,2.14-.1h.68v-.35a2.54,2.54,0,0,0-.69-1.94,2.7,2.7,0,0,0-1.94-.66,4.69,4.69,0,0,0-1.69.32,3.94,3.94,0,0,0-1.46,1Zm5.12,4.61a5.86,5.86,0,0,0-2.7.53,1.84,1.84,0,0,0-1,1.74,1.81,1.81,0,0,0,.67,1.58,2.86,2.86,0,0,0,1.67.46,2.92,2.92,0,0,0,1.35-.29,2.8,2.8,0,0,0,1-.77,3.15,3.15,0,0,0,.59-1.12,5,5,0,0,0,.23-1.37v-.76Z"/><path class="cls-2" d="M151,165a3.56,3.56,0,0,0-1.22-1.1,3.19,3.19,0,0,0-1.45-.34,3.59,3.59,0,0,0-1.57.34,3.11,3.11,0,0,0-1.12,1,4.43,4.43,0,0,0-.67,1.4,6.18,6.18,0,0,0-.22,1.7,5.26,5.26,0,0,0,.26,1.7,4.64,4.64,0,0,0,.72,1.4,3.48,3.48,0,0,0,1.12.94,3.13,3.13,0,0,0,1.48.34,3.06,3.06,0,0,0,2.7-1.46l1.31,1.39a4.66,4.66,0,0,1-1.81,1.43,5.61,5.61,0,0,1-4.45,0,4.8,4.8,0,0,1-1.73-1.28,5.93,5.93,0,0,1-1.11-2,7.35,7.35,0,0,1-.4-2.49,7.27,7.27,0,0,1,.4-2.47,6,6,0,0,1,1.12-2,5.16,5.16,0,0,1,1.73-1.3,5.31,5.31,0,0,1,2.24-.46,5.62,5.62,0,0,1,2.23.45,4.82,4.82,0,0,1,1.85,1.41Z"/><path class="cls-2" d="M163.88,171.68a5.49,5.49,0,0,1-2.08,1.9,6,6,0,0,1-2.63.55,5,5,0,0,1-3.94-1.82,6,6,0,0,1-1.06-2,7.71,7.71,0,0,1-.38-2.42,7.47,7.47,0,0,1,.41-2.51,6,6,0,0,1,1.13-2,5.13,5.13,0,0,1,3.9-1.72,5.07,5.07,0,0,1,2.05.41,4.5,4.5,0,0,1,1.6,1.21,5.88,5.88,0,0,1,1,1.94,8.76,8.76,0,0,1,.36,2.61v.63H155.7A4.44,4.44,0,0,0,156,170a4.07,4.07,0,0,0,.73,1.21,3.44,3.44,0,0,0,1.07.82,3,3,0,0,0,1.34.3,3.91,3.91,0,0,0,2-.45,4.61,4.61,0,0,0,1.43-1.34Zm-1.52-4.81a3.57,3.57,0,0,0-.88-2.42,3,3,0,0,0-2.31-.91,3.18,3.18,0,0,0-2.38.91,3.92,3.92,0,0,0-1.09,2.42Z"/><path class="cls-2" d="M167.24,170.72a4.53,4.53,0,0,0,1.15,1.16,2.67,2.67,0,0,0,1.57.43,3.42,3.42,0,0,0,.83-.1,2.47,2.47,0,0,0,.76-.33,1.7,1.7,0,0,0,.54-.56,1.54,1.54,0,0,0,.21-.82,1.5,1.5,0,0,0-.19-.78,1.69,1.69,0,0,0-.51-.52,2.88,2.88,0,0,0-.73-.34l-.84-.23c-.5-.11-1-.25-1.43-.4a4.56,4.56,0,0,1-1.19-.59,2.8,2.8,0,0,1-.82-.95,3.3,3.3,0,0,1,.95-4.08,4.26,4.26,0,0,1,1.27-.66,4.68,4.68,0,0,1,1.45-.22,4.51,4.51,0,0,1,2.09.5,3.42,3.42,0,0,1,1.51,1.64L172.39,165a3,3,0,0,0-.9-1,2.29,2.29,0,0,0-1.35-.39,3.13,3.13,0,0,0-.73.1,2.06,2.06,0,0,0-.67.31,1.59,1.59,0,0,0-.49.51,1.34,1.34,0,0,0-.19.72,1,1,0,0,0,.21.64,2,2,0,0,0,.59.47,5.3,5.3,0,0,0,.86.35,8.76,8.76,0,0,0,1,.25,9.08,9.08,0,0,1,1.34.39,3.69,3.69,0,0,1,1.11.65,2.73,2.73,0,0,1,.75,1,3.59,3.59,0,0,1,.27,1.48,3.77,3.77,0,0,1-.36,1.72,3.15,3.15,0,0,1-1,1.14,3.87,3.87,0,0,1-1.36.64,5.87,5.87,0,0,1-1.56.21,5.5,5.5,0,0,1-2.35-.47,4.48,4.48,0,0,1-1.78-1.73Z"/><path class="cls-2" d="M182.84,163.54a5,5,0,0,1,1.94-1.37,6.28,6.28,0,0,1,2.28-.44,4.25,4.25,0,0,1,3.41,1.23,5.78,5.78,0,0,1,1,3.76v5.06c0,.34,0,.69,0,1.05s.07.69.12,1H190a4.6,4.6,0,0,1-.11-.89c0-.33,0-.62,0-.87h0a4.53,4.53,0,0,1-1.4,1.49,3.75,3.75,0,0,1-2.1.58,5.1,5.1,0,0,1-1.53-.23,3.54,3.54,0,0,1-1.24-.67,3.15,3.15,0,0,1-.85-1.09,3.36,3.36,0,0,1-.32-1.52,3.53,3.53,0,0,1,.68-2.29,4.07,4.07,0,0,1,1.69-1.23,7.64,7.64,0,0,1,2.18-.51c.77-.07,1.49-.1,2.14-.1h.68v-.35a2.54,2.54,0,0,0-.69-1.94,2.7,2.7,0,0,0-1.94-.66,4.69,4.69,0,0,0-1.69.32,3.94,3.94,0,0,0-1.46,1Zm5.13,4.61a5.86,5.86,0,0,0-2.7.53,1.84,1.84,0,0,0-1,1.74,1.81,1.81,0,0,0,.67,1.58,2.86,2.86,0,0,0,1.67.46,2.92,2.92,0,0,0,1.35-.29,2.8,2.8,0,0,0,1-.77,3.15,3.15,0,0,0,.59-1.12,5,5,0,0,0,.23-1.37v-.76Z"/><path class="cls-2" d="M194.75,164.83c0-.54,0-1,0-1.51s-.05-.9-.05-1.29h1.68c0,.32,0,.64,0,1s0,.64,0,1h.05a3.51,3.51,0,0,1,.51-.83,3.84,3.84,0,0,1,.78-.72,3.73,3.73,0,0,1,1-.5,3.78,3.78,0,0,1,1.23-.19l.36,0a1.61,1.61,0,0,1,.36.1l-.11,2a3,3,0,0,0-1-.15,2.57,2.57,0,0,0-2.37,1.18,6,6,0,0,0-.74,3.21v5.74h-1.77Z"/><path class="cls-2" d="M211.83,171.68a5.52,5.52,0,0,1-2.09,1.9,5.89,5.89,0,0,1-2.63.55,5,5,0,0,1-2.24-.5,4.87,4.87,0,0,1-1.69-1.32,6,6,0,0,1-1.07-2,7.71,7.71,0,0,1-.37-2.42,7.22,7.22,0,0,1,.41-2.51,5.87,5.87,0,0,1,1.13-2,5.14,5.14,0,0,1,1.72-1.27,5.25,5.25,0,0,1,2.18-.45,5.06,5.06,0,0,1,2,.41,4.5,4.5,0,0,1,1.6,1.21,5.53,5.53,0,0,1,1,1.94,8.76,8.76,0,0,1,.36,2.61v.63h-8.57A4.44,4.44,0,0,0,204,170a4.09,4.09,0,0,0,.74,1.21,3.4,3.4,0,0,0,1.06.82,3,3,0,0,0,1.34.3,3.91,3.91,0,0,0,1.95-.45,4.51,4.51,0,0,0,1.43-1.34Zm-1.52-4.81a3.62,3.62,0,0,0-.88-2.42,3,3,0,0,0-2.32-.91,3.2,3.2,0,0,0-2.38.91,4,4,0,0,0-1.09,2.42Z"/><path class="cls-2" d="M221.26,164.83c0-.54,0-1,0-1.51s-.05-.9-.05-1.29h1.68c0,.32,0,.64,0,1s0,.64,0,1h0a3.51,3.51,0,0,1,.51-.83,3.84,3.84,0,0,1,.78-.72,3.94,3.94,0,0,1,1-.5,3.67,3.67,0,0,1,1.22-.19,4.28,4.28,0,0,1,1.8.35,3.41,3.41,0,0,1,1.26,1,4.2,4.2,0,0,1,.74,1.53,7.49,7.49,0,0,1,.24,1.95v7.28h-1.77v-7.08a4.09,4.09,0,0,0-.59-2.34,2.08,2.08,0,0,0-1.84-.86,3.11,3.11,0,0,0-1.48.33,2.79,2.79,0,0,0-1,.93,4.35,4.35,0,0,0-.58,1.44,8,8,0,0,0-.2,1.84v5.74h-1.77Z"/><path class="cls-2" d="M233.26,167.93a7.16,7.16,0,0,1,.43-2.52,6.1,6.1,0,0,1,1.18-2,5.31,5.31,0,0,1,1.79-1.27,6,6,0,0,1,4.54,0,5.21,5.21,0,0,1,1.79,1.27,6.1,6.1,0,0,1,1.18,2,6.94,6.94,0,0,1,.43,2.52,7,7,0,0,1-.43,2.52,6.16,6.16,0,0,1-1.18,2,5.08,5.08,0,0,1-1.79,1.27,5.83,5.83,0,0,1-4.54,0,5.18,5.18,0,0,1-1.79-1.27,6.16,6.16,0,0,1-1.18-2A7.24,7.24,0,0,1,233.26,167.93Zm1.91,0a5.3,5.3,0,0,0,.26,1.72,4,4,0,0,0,.76,1.39,3.73,3.73,0,0,0,1.19.93,3.7,3.7,0,0,0,3.1,0,3.77,3.77,0,0,0,1.2-.93,4.35,4.35,0,0,0,.76-1.39,5.59,5.59,0,0,0,.26-1.72,5.65,5.65,0,0,0-.26-1.73,4.35,4.35,0,0,0-.76-1.39,3.77,3.77,0,0,0-1.2-.93,3.7,3.7,0,0,0-3.1,0,3.73,3.73,0,0,0-1.19.93,4,4,0,0,0-.76,1.39A5.36,5.36,0,0,0,235.17,167.93Z"/><path class="cls-2" d="M253.15,163.69H250v5.9c0,.39,0,.74,0,1.07a2.47,2.47,0,0,0,.19.86,1.28,1.28,0,0,0,.47.58,1.66,1.66,0,0,0,.91.21,3.11,3.11,0,0,0,.79-.1,3.24,3.24,0,0,0,.77-.3l.07,1.79a3.86,3.86,0,0,1-1,.33,6.63,6.63,0,0,1-1,.1,3.55,3.55,0,0,1-1.52-.28,2.25,2.25,0,0,1-.89-.78,3.18,3.18,0,0,1-.42-1.25,13.67,13.67,0,0,1-.1-1.65v-6.48h-2.31V162h2.31v-3.35H250V162h3.13Z"/><path class="cls-2" d="M261.5,163.54a4.89,4.89,0,0,1,1.94-1.37,6.24,6.24,0,0,1,2.28-.44,4.24,4.24,0,0,1,3.4,1.23,5.78,5.78,0,0,1,1,3.76v5.06c0,.34,0,.69,0,1.05s.06.69.11,1h-1.7a4,4,0,0,1-.1-.89c0-.33,0-.62,0-.87h-.05a4.5,4.5,0,0,1-1.39,1.49,3.8,3.8,0,0,1-2.1.58,5,5,0,0,1-1.53-.23,3.5,3.5,0,0,1-1.25-.67,3.15,3.15,0,0,1-.85-1.09,4,4,0,0,1,.36-3.81,4.13,4.13,0,0,1,1.69-1.23,7.64,7.64,0,0,1,2.18-.51c.78-.07,1.49-.1,2.14-.1h.68v-.35a2.54,2.54,0,0,0-.69-1.94,2.7,2.7,0,0,0-1.94-.66,4.73,4.73,0,0,0-1.69.32,3.94,3.94,0,0,0-1.46,1Zm5.12,4.61a5.86,5.86,0,0,0-2.7.53,1.84,1.84,0,0,0-1,1.74,1.78,1.78,0,0,0,.67,1.58,2.83,2.83,0,0,0,1.66.46,2.88,2.88,0,0,0,2.32-1.06,3.51,3.51,0,0,0,.59-1.12,5,5,0,0,0,.22-1.37v-.76Z"/><path class="cls-2" d="M273.56,154.77h1.77v19h-1.77Z"/><path class="cls-2" d="M279,154.77h1.77v19H279Z"/><path class="cls-2" d="M296.42,163.69h-3.13v5.9c0,.39,0,.74,0,1.07a2.27,2.27,0,0,0,.18.86,1.24,1.24,0,0,0,.48.58,1.62,1.62,0,0,0,.9.21,3.25,3.25,0,0,0,.8-.1,3.62,3.62,0,0,0,.77-.3l.07,1.79a4,4,0,0,1-1,.33,6.75,6.75,0,0,1-1.06.1,3.59,3.59,0,0,1-1.52-.28,2.16,2.16,0,0,1-.88-.78,3.18,3.18,0,0,1-.42-1.25,11.89,11.89,0,0,1-.1-1.65v-6.48h-2.32V162h2.32v-3.35h1.76V162h3.13Z"/><path class="cls-2" d="M298.62,154.77h1.77v8.9h.05a2.87,2.87,0,0,1,.5-.69,3.37,3.37,0,0,1,.76-.62,4.21,4.21,0,0,1,1-.46,4,4,0,0,1,1.16-.17,4.28,4.28,0,0,1,1.8.35,3.41,3.41,0,0,1,1.26,1,4.2,4.2,0,0,1,.74,1.53,7.49,7.49,0,0,1,.24,1.95v7.28h-1.77v-7.08a4.09,4.09,0,0,0-.59-2.34,2.08,2.08,0,0,0-1.84-.86,3.11,3.11,0,0,0-1.48.33,2.68,2.68,0,0,0-1,.93,4.16,4.16,0,0,0-.59,1.44,8,8,0,0,0-.2,1.84v5.74h-1.77Z"/><path class="cls-2" d="M320.71,171.68a5.49,5.49,0,0,1-2.08,1.9,5.92,5.92,0,0,1-2.63.55,5,5,0,0,1-2.25-.5,5,5,0,0,1-1.69-1.32,6,6,0,0,1-1.06-2,7.71,7.71,0,0,1-.38-2.42,7.47,7.47,0,0,1,.41-2.51,6,6,0,0,1,1.13-2,5.13,5.13,0,0,1,3.9-1.72,5.07,5.07,0,0,1,2.05.41,4.5,4.5,0,0,1,1.6,1.21,5.7,5.7,0,0,1,1,1.94,8.76,8.76,0,0,1,.36,2.61v.63h-8.57a4.44,4.44,0,0,0,.33,1.45,4.29,4.29,0,0,0,.73,1.21,3.56,3.56,0,0,0,1.07.82,3,3,0,0,0,1.34.3,3.91,3.91,0,0,0,1.95-.45,4.61,4.61,0,0,0,1.43-1.34Zm-1.52-4.81a3.57,3.57,0,0,0-.88-2.42,3,3,0,0,0-2.31-.91,3.18,3.18,0,0,0-2.38.91,3.92,3.92,0,0,0-1.09,2.42Z"/><path class="cls-2" d="M330.38,170.72a4.5,4.5,0,0,0,1.14,1.16,2.7,2.7,0,0,0,1.58.43,3.42,3.42,0,0,0,.83-.1,2.47,2.47,0,0,0,.76-.33,1.92,1.92,0,0,0,.54-.56,1.54,1.54,0,0,0,.2-.82,1.41,1.41,0,0,0-.19-.78,1.69,1.69,0,0,0-.51-.52,2.66,2.66,0,0,0-.72-.34l-.84-.23a14.14,14.14,0,0,1-1.43-.4,4.41,4.41,0,0,1-1.19-.59,2.7,2.7,0,0,1-.82-.95,3.19,3.19,0,0,1-.31-1.48,3.34,3.34,0,0,1,.34-1.52,3.28,3.28,0,0,1,.91-1.08,4.38,4.38,0,0,1,1.27-.66,4.72,4.72,0,0,1,1.45-.22,4.52,4.52,0,0,1,2.1.5,3.46,3.46,0,0,1,1.51,1.64L335.52,165a2.84,2.84,0,0,0-.89-1,2.29,2.29,0,0,0-1.35-.39,3.21,3.21,0,0,0-.74.1,2.16,2.16,0,0,0-.67.31,1.56,1.56,0,0,0-.48.51,1.34,1.34,0,0,0-.2.72.94.94,0,0,0,.22.64,1.91,1.91,0,0,0,.59.47,5,5,0,0,0,.86.35,8.28,8.28,0,0,0,1,.25,9.45,9.45,0,0,1,1.34.39,3.82,3.82,0,0,1,1.11.65,2.73,2.73,0,0,1,.75,1,3.59,3.59,0,0,1,.27,1.48,3.77,3.77,0,0,1-.36,1.72,3.28,3.28,0,0,1-1,1.14,3.79,3.79,0,0,1-1.36.64,5.74,5.74,0,0,1-1.55.21,5.47,5.47,0,0,1-2.35-.47,4.42,4.42,0,0,1-1.78-1.73Z"/><path class="cls-2" d="M339.68,163.54a4.92,4.92,0,0,1,1.93-1.37,6.28,6.28,0,0,1,2.28-.44A4.25,4.25,0,0,1,347.3,163a5.78,5.78,0,0,1,1,3.76v5.06c0,.34,0,.69,0,1.05s.07.69.12,1h-1.7a4.6,4.6,0,0,1-.11-.89c0-.33,0-.62,0-.87h0a4.43,4.43,0,0,1-1.4,1.49,3.74,3.74,0,0,1-2.09.58,5.12,5.12,0,0,1-1.54-.23,3.54,3.54,0,0,1-1.24-.67,3.15,3.15,0,0,1-.85-1.09,4,4,0,0,1,.36-3.81,4.07,4.07,0,0,1,1.69-1.23,7.64,7.64,0,0,1,2.18-.51c.77-.07,1.49-.1,2.14-.1h.68v-.35a2.54,2.54,0,0,0-.69-1.94,2.7,2.7,0,0,0-1.94-.66,4.69,4.69,0,0,0-1.69.32,3.94,3.94,0,0,0-1.46,1Zm5.12,4.61a5.86,5.86,0,0,0-2.7.53,1.84,1.84,0,0,0-1,1.74,1.81,1.81,0,0,0,.67,1.58,2.86,2.86,0,0,0,1.67.46,2.92,2.92,0,0,0,1.35-.29,2.71,2.71,0,0,0,1-.77,3.15,3.15,0,0,0,.59-1.12,4.68,4.68,0,0,0,.23-1.37v-.76Z"/><path class="cls-2" d="M351.58,164.83c0-.54,0-1,0-1.51s-.05-.9-.05-1.29h1.68c0,.32,0,.64,0,1s0,.64,0,1h0a3.51,3.51,0,0,1,.51-.83,3.84,3.84,0,0,1,.78-.72,4,4,0,0,1,1-.5,4.27,4.27,0,0,1,2.67.05,3.31,3.31,0,0,1,1,.58,2.54,2.54,0,0,1,.6.73,7.53,7.53,0,0,1,.35.69,5.32,5.32,0,0,1,1.37-1.65,3.2,3.2,0,0,1,2-.59,4.7,4.7,0,0,1,1.91.34,2.94,2.94,0,0,1,1.24,1,4.12,4.12,0,0,1,.69,1.56,10,10,0,0,1,.2,2.06v7.15h-1.77v-7a6.67,6.67,0,0,0-.11-1.19,3.13,3.13,0,0,0-.41-1,2.17,2.17,0,0,0-.8-.73,2.52,2.52,0,0,0-1.27-.28,2.43,2.43,0,0,0-1.06.25,2.7,2.7,0,0,0-.87.71,3.3,3.3,0,0,0-.59,1.1,4.23,4.23,0,0,0-.22,1.42v6.8h-1.77v-6.67a5.9,5.9,0,0,0-.48-2.79,1.66,1.66,0,0,0-1.56-.82,3.15,3.15,0,0,0-1.49.33,2.84,2.84,0,0,0-1,.93,4.58,4.58,0,0,0-.59,1.44,8.67,8.67,0,0,0-.19,1.84v5.74h-1.77Z"/><path class="cls-2" d="M380.39,171.68a5.52,5.52,0,0,1-2.09,1.9,5.92,5.92,0,0,1-2.63.55,5,5,0,0,1-2.25-.5,5,5,0,0,1-1.69-1.32,6,6,0,0,1-1.06-2,7.71,7.71,0,0,1-.38-2.42,7.47,7.47,0,0,1,.41-2.51,5.89,5.89,0,0,1,1.14-2,5,5,0,0,1,1.72-1.27,5.22,5.22,0,0,1,2.18-.45,5.06,5.06,0,0,1,2,.41,4.5,4.5,0,0,1,1.6,1.21,5.7,5.7,0,0,1,1,1.94,8.76,8.76,0,0,1,.36,2.61v.63H372.2a4.44,4.44,0,0,0,.33,1.45,4.29,4.29,0,0,0,.73,1.21,3.56,3.56,0,0,0,1.07.82,3,3,0,0,0,1.34.3,3.91,3.91,0,0,0,1.95-.45,4.61,4.61,0,0,0,1.43-1.34Zm-1.52-4.81a3.58,3.58,0,0,0-.89-2.42,3,3,0,0,0-2.31-.91,3.2,3.2,0,0,0-2.38.91,3.92,3.92,0,0,0-1.09,2.42Z"/><line class="cls-3" x1="83.84" y1="136.73" x2="297.68" y2="136.73"/></g></g></svg>