<svg xmlns="http://www.w3.org/2000/svg" xmlns:xlink="http://www.w3.org/1999/xlink" viewBox="0 0 802.09 283.33"><defs><style>.cls-1{fill:none;}.cls-2{fill:#fff;}.cls-3{clip-path:url(#clip-path);}.cls-4{fill:url(#linear-gradient);}.cls-5{clip-path:url(#clip-path-2);}.cls-6{fill:url(#linear-gradient-2);}.cls-7{clip-path:url(#clip-path-3);}.cls-8{fill:#ff8300;}.cls-9{fill:#525454;}.cls-10{fill:#53575a;}</style><clipPath id="clip-path"><path class="cls-1" d="M641.55,28.52a95.77,95.77,0,0,0-35.36,64.75,99,99,0,0,0-.57,10.28v.52a95.34,95.34,0,0,0,6.4,34.05,97.36,97.36,0,0,0,24.55,36.22l2-2.12A93.52,93.52,0,0,1,712,10.59c22.64,2.44,44.68,14.08,60.5,31.94l2.16-1.91a101,101,0,0,0-27.6-21.94A93.53,93.53,0,0,0,712.34,7.73a97.3,97.3,0,0,0-10.49-.57,95.64,95.64,0,0,0-60.3,21.36"/></clipPath><linearGradient id="linear-gradient" x1="-30.09" y1="1050.51" x2="-29.09" y2="1050.51" gradientTransform="matrix(169.06, 0, 0, -169.06, 5692.76, 177690.62)" gradientUnits="userSpaceOnUse"><stop offset="0" stop-color="#a3a3a2"/><stop offset="0.08" stop-color="#eaeae9"/><stop offset="0.15" stop-color="#f3f3f3"/><stop offset="0.16" stop-color="#eeeeed"/><stop offset="0.18" stop-color="#cecccb"/><stop offset="0.21" stop-color="#b8b4b3"/><stop offset="0.23" stop-color="#aaa5a4"/><stop offset="0.25" stop-color="#a5a09f"/><stop offset="0.27" stop-color="#b1aead"/><stop offset="0.31" stop-color="#c3c2c2"/><stop offset="0.34" stop-color="#cacaca"/><stop offset="0.36" stop-color="#c3c3c4"/><stop offset="0.48" stop-color="#abacad"/><stop offset="0.55" stop-color="#a2a3a4"/><stop offset="0.6" stop-color="#a2a3a4"/><stop offset="0.78" stop-color="#c8c6c6"/><stop offset="0.88" stop-color="#eae9e9"/><stop offset="0.9" stop-color="#f3f3f3"/><stop offset="0.92" stop-color="#eee"/><stop offset="0.94" stop-color="#e1e1e1"/><stop offset="0.96" stop-color="#cacaca"/><stop offset="0.98" stop-color="#abaaab"/><stop offset="1" stop-color="#868485"/></linearGradient><clipPath id="clip-path-2"><path class="cls-1" d="M634.88,96.35a66.86,66.86,0,0,0,4.06,31.38,68.08,68.08,0,0,0,17.15,25.36l2-2.11A64.67,64.67,0,0,1,709,39.28a66.09,66.09,0,0,1,41.89,21.81L753,59.18A67.73,67.73,0,0,0,702,36a67.63,67.63,0,0,0-67.11,60.33"/></clipPath><linearGradient id="linear-gradient-2" x1="-30.09" y1="1050.5" x2="-29.09" y2="1050.5" gradientTransform="matrix(118.53, 0, 0, -118.53, 4200.97, 124606.39)" xlink:href="#linear-gradient"/><clipPath id="clip-path-3"><path class="cls-1" d="M668.89,7.16A99.91,99.91,0,0,0,605.62,71v61.42a99.86,99.86,0,0,0,63.27,63.81h63a99.85,99.85,0,0,0,63.26-63.81V71A99.87,99.87,0,0,0,731.93,7.16Z"/></clipPath></defs><g id="Layer_2" data-name="Layer 2"><g id="Layer_1-2" data-name="Layer 1"><circle class="cls-2" cx="700.41" cy="101.68" r="101.68" transform="translate(-7.24 113.51) rotate(-9.22)"/><g class="cls-3"><rect class="cls-4" x="605.62" y="5.08" width="169.06" height="169.25"/></g><g class="cls-5"><rect class="cls-6" x="633.72" y="35.47" width="119.29" height="117.63"/></g><g class="cls-7"><path class="cls-8" d="M764.72,47a4.16,4.16,0,1,1-4.15-4.15A4.15,4.15,0,0,1,764.72,47"/><path class="cls-8" d="M647.9,161.79a4.16,4.16,0,1,1-4.16-4.16,4.15,4.15,0,0,1,4.16,4.16"/><path class="cls-8" d="M640.26,150a3,3,0,0,0,.22-1.7,3.66,3.66,0,0,0-.59-1.55,3.31,3.31,0,0,0-.64-.72,2.72,2.72,0,0,0-.85-.5,2.25,2.25,0,0,0-1-.15,1.82,1.82,0,0,0-1,.33,1.47,1.47,0,0,0-.74,1.09,4.21,4.21,0,0,0,.1,1.43c.12.52.26,1.08.44,1.67a6.82,6.82,0,0,1,.29,1.77,4,4,0,0,1-.37,1.74,3.85,3.85,0,0,1-1.5,1.59,3.71,3.71,0,0,1-2.72.47,4.62,4.62,0,0,1-1.58-.69,5.43,5.43,0,0,1-1.49-1.58,7.4,7.4,0,0,1-.92-2,3.69,3.69,0,0,1,.07-2.2l2,.51a2.57,2.57,0,0,0-.19,1.31,3.1,3.1,0,0,0,.53,1.4,3.38,3.38,0,0,0,.88,1,2.29,2.29,0,0,0,.89.41,1.87,1.87,0,0,0,.82,0,2.09,2.09,0,0,0,.64-.26,1.76,1.76,0,0,0,.85-1.16,4.1,4.1,0,0,0-.06-1.47,16,16,0,0,0-.45-1.66,6.58,6.58,0,0,1-.35-1.72,3.82,3.82,0,0,1,.25-1.67,3.38,3.38,0,0,1,1.36-1.5,4.16,4.16,0,0,1,1.71-.66,4,4,0,0,1,1.68.12,4.53,4.53,0,0,1,1.53.81,5.7,5.7,0,0,1,1.27,1.4,6.68,6.68,0,0,1,1,2.36,4.14,4.14,0,0,1-.17,2.37Z"/><rect class="cls-8" x="623.6" y="140.5" width="13.79" height="1.87" transform="translate(3.53 297.8) rotate(-26.65)"/><polygon class="cls-8" points="621.53 138.62 618.54 130.24 620.19 129.65 622.55 136.27 626.42 134.89 624.23 128.73 625.88 128.14 628.07 134.3 632.23 132.82 629.76 125.87 631.41 125.28 634.51 133.99 621.53 138.62"/><polygon class="cls-8" points="617.04 124.79 616.66 122.37 626.68 113.12 626.68 113.08 615.48 114.83 615.19 112.98 628.81 110.85 629.18 113.2 619.17 122.53 619.17 122.57 630.37 120.82 630.66 122.66 617.04 124.79"/><polygon class="cls-8" points="616.81 104 616.68 108.43 614.92 108.38 615.26 97.64 617.01 97.69 616.87 102.13 628.9 102.5 628.84 104.37 616.81 104"/><path class="cls-8" d="M615.76,93.36l.88-4.77a5.67,5.67,0,0,1,.75-2.08,3.61,3.61,0,0,1,1.14-1.16,3.24,3.24,0,0,1,1.35-.46,5,5,0,0,1,1.35,0,3.6,3.6,0,0,1,2.18,1.32,3.58,3.58,0,0,1,.63,1.21,3.72,3.72,0,0,1,.16,1.46l6.89-2.71-.42,2.3-6.61,2.35-.38,2,6,1.1-.34,1.84Zm6.31-.74.45-2.41a7.91,7.91,0,0,0,.11-1.08,3,3,0,0,0-.14-1,1.9,1.9,0,0,0-.54-.78,2.24,2.24,0,0,0-1.08-.45,2.11,2.11,0,0,0-1.16,0,1.75,1.75,0,0,0-.79.54,2.85,2.85,0,0,0-.48.88,6.44,6.44,0,0,0-.29,1l-.44,2.42Z"/><path class="cls-8" d="M620.33,75.21l.6-1.59,15-.69-.77,2-3.67.1-2.3,6.15,2.71,2.47-.76,2Zm9.37-.07-6.83.19,0,0,5,4.66Z"/><path class="cls-9" d="M628.6,58.21,631,54.86a9,9,0,0,1,1.2-1.38,4.59,4.59,0,0,1,1.39-.9,3.21,3.21,0,0,1,1.57-.21,3.71,3.71,0,0,1,1.71.71,3.75,3.75,0,0,1,1.28,1.42,3.39,3.39,0,0,1,.33,1.57,4.65,4.65,0,0,1-.35,1.55,7.16,7.16,0,0,1-.73,1.35l-1.59,2.26,5.07,3.56-.94,1.34Zm5.92,2.15,1.58-2.26a3.4,3.4,0,0,0,.7-2,2,2,0,0,0-1-1.62,2,2,0,0,0-1.86-.36,3.39,3.39,0,0,0-1.6,1.32l-1.58,2.26Z"/><polygon class="cls-9" points="636.92 47.2 638.04 46.02 646.95 54.45 651.28 49.87 652.39 50.91 646.93 56.68 636.92 47.2"/><path class="cls-9" d="M649,35.89l1.22-.94,13,7.39-1.52,1.16-3.17-1.84-5.48,4.19.93,3.55-1.47,1.13Zm1.86,1.22,0,0,1.84,7.12,4.47-3.42Z"/><polygon class="cls-9" points="665.8 27.14 661.82 29.35 667.76 40.08 666.33 40.87 660.39 30.14 656.4 32.35 655.67 31.02 665.07 25.81 665.8 27.14"/><rect class="cls-9" x="671.27" y="23.53" width="1.64" height="13.78" transform="translate(38.91 257.82) rotate(-22.35)"/><polygon class="cls-9" points="675.48 21.62 677.48 21.11 688.04 30.24 688.08 30.23 685.26 19.13 686.84 18.73 690.24 32.09 688.24 32.6 677.68 23.47 677.64 23.48 680.46 34.57 678.88 34.98 675.48 21.62"/><path class="cls-9" d="M703.7,25.84a8,8,0,0,1-.17,2.15,4.89,4.89,0,0,1-.8,1.83,4.32,4.32,0,0,1-1.54,1.31,6.55,6.55,0,0,1-4.82.26,4.43,4.43,0,0,1-1.67-1.14,5.18,5.18,0,0,1-1-1.73,8,8,0,0,1-.39-2.12l-.46-8.52,1.63-.09.45,8.29a7,7,0,0,0,.26,1.6,3.87,3.87,0,0,0,.66,1.35,2.83,2.83,0,0,0,1.14.9,3.53,3.53,0,0,0,1.73.27,3.75,3.75,0,0,0,1.69-.45,3,3,0,0,0,1-1,3.89,3.89,0,0,0,.5-1.41,7.34,7.34,0,0,0,.09-1.63l-.44-8.28,1.63-.09Z"/><polygon class="cls-9" points="709.47 17.44 711.87 17.81 714.82 29.21 714.85 29.22 721.18 19.27 723.53 19.64 721.39 33.26 719.78 33 721.57 21.58 721.53 21.57 714.86 32.23 713.87 32.08 710.78 19.89 710.74 19.88 708.95 31.31 707.33 31.05 709.47 17.44"/><path class="cls-9" d="M725,31.25l6.69-2.66c.34-.14.69-.31,1-.5a1.59,1.59,0,0,0,.76-.89,1.3,1.3,0,0,0-.09-1.2,1.84,1.84,0,0,0-1-.79,1.63,1.63,0,0,0-1.37,0,2.09,2.09,0,0,0-.91,1L727.49,25a4.91,4.91,0,0,1,1.06-1.59,3.94,3.94,0,0,1,1.43-.87,4.44,4.44,0,0,1,1.69-.22,6.69,6.69,0,0,1,1.85.4,5.68,5.68,0,0,1,1.55.86,4.11,4.11,0,0,1,1.07,1.22,3.61,3.61,0,0,1,.43,1.54,4.35,4.35,0,0,1-.3,1.82,5.45,5.45,0,0,1-.55,1.08A4,4,0,0,1,735,30a4.74,4.74,0,0,1-.82.56c-.29.15-.6.29-.92.42L728.11,33l5.74,2.12L733,37.48l-9-3.33Z"/><path class="cls-9" d="M738,32.21a14.55,14.55,0,0,1,1.42-2.06,7.22,7.22,0,0,1,1.82-1.61,4.64,4.64,0,0,1,2.2-.7,4.47,4.47,0,0,1,2.52.67,4.54,4.54,0,0,1,1.89,1.81,4.84,4.84,0,0,1,.54,2.24,7.59,7.59,0,0,1-.43,2.39,14.78,14.78,0,0,1-1,2.28,14.55,14.55,0,0,1-1.42,2.06,7.06,7.06,0,0,1-1.82,1.61,4.6,4.6,0,0,1-2.19.7,4.5,4.5,0,0,1-2.53-.67,4.6,4.6,0,0,1-1.89-1.81,4.84,4.84,0,0,1-.54-2.24,7.34,7.34,0,0,1,.44-2.39,13.86,13.86,0,0,1,1-2.28m2.55,1.43c-.18.32-.38.7-.6,1.16a6.86,6.86,0,0,0-.49,1.4,3.12,3.12,0,0,0,0,1.36,1.59,1.59,0,0,0,.84,1,1.63,1.63,0,0,0,1.31.18,3.22,3.22,0,0,0,1.16-.71,6.64,6.64,0,0,0,.94-1.15c.28-.42.5-.79.68-1.11s.38-.71.6-1.16a6.86,6.86,0,0,0,.49-1.4,3.12,3.12,0,0,0,0-1.36,1.79,1.79,0,0,0-2.14-1.21,3.1,3.1,0,0,0-1.15.71,6.25,6.25,0,0,0-.95,1.15c-.28.42-.5.79-.68,1.11"/><path class="cls-9" d="M751.29,33.11l-.8-.58.3-.42,2.11,1.51-.31.43-.8-.58-1.61,2.24-.5-.37Zm2.12.88.77.55-.75,2.56h0l2.18-1.52.77.55-1.91,2.66-.51-.36,1.6-2.22h0l-2.38,1.66-.4-.29.82-2.78h0L752,37l-.51-.36Z"/><path class="cls-8" d="M761.82,104.28A57.81,57.81,0,1,1,704,46.48a57.81,57.81,0,0,1,57.81,57.8"/><polygon class="cls-9" points="784.41 59.54 786.24 65.05 772.75 73.58 772.77 73.65 789.06 73.56 790.62 78.26 777.11 88.03 777.13 88.09 793.5 86.94 795.19 92.06 770.04 92.96 768.55 88.46 782.74 78.14 782.72 78.08 765.17 78.29 763.74 73.95 784.41 59.54"/><path class="cls-9" d="M794.32,109.17l-.33,4.39-24.88,8.66.45-6,5.26-1.69.71-9.36-4.95-2.39.44-5.86Zm-7.16,1.51-7.27-3.49-.44,5.88Z"/><path class="cls-9" d="M790.55,132.17l-3.65,8.61a16.85,16.85,0,0,1-1.7,3.08,8.31,8.31,0,0,1-2.23,2.2,6,6,0,0,1-2.85.94,7.6,7.6,0,0,1-3.53-.7,7.09,7.09,0,0,1-3.49-2.93,6,6,0,0,1-.57-4.47l-11.79,1.67,2.49-5.87,10.87-.88,1-2.42-8.89-3.77,2.09-4.9Zm-11.28,1L778,136.05c-.18.44-.37.91-.54,1.42a4.61,4.61,0,0,0-.29,1.45,2.6,2.6,0,0,0,.32,1.31,2.45,2.45,0,0,0,1.25,1,2.51,2.51,0,0,0,1.49.23,2.62,2.62,0,0,0,1.15-.55,4.36,4.36,0,0,0,.88-1.08,10.8,10.8,0,0,0,.67-1.31l1.36-3.2Z"/><path class="cls-9" d="M778.27,157l-6.07,7.12a16.09,16.09,0,0,1-2.54,2.43,8.23,8.23,0,0,1-2.79,1.43,6,6,0,0,1-3,.05,7.68,7.68,0,0,1-3.16-1.73,7.09,7.09,0,0,1-2.45-3.84,6,6,0,0,1,.8-4.43l-11.75-1.94,4.13-4.86,10.63,2.42,1.7-2-7.35-6.26,3.45-4Zm-11.07-2.43-2,2.39c-.31.36-.63.76-.95,1.19a4.77,4.77,0,0,0-.71,1.3,2.29,2.29,0,0,0,.81,2.66,2.33,2.33,0,0,0,2.62.48,4.36,4.36,0,0,0,1.16-.76,10.19,10.19,0,0,0,1-1l2.25-2.65Z"/><path class="cls-9" d="M752.11,181.46l-3.77,2.27-21.46-15.29,5.15-3.09,4.42,3.31,8-4.83-.91-5.43,5-3Zm-5.38-5-1.35-7.94-5.06,3Z"/><polygon class="cls-9" points="730.49 192.22 723.37 193.48 710.34 178.73 710.27 178.74 713.19 195.28 707.95 196.2 703.74 172.41 710.6 171.2 723.97 186.3 724.04 186.29 721.05 169.35 726.29 168.43 730.49 192.22"/><polygon class="cls-9" points="693.07 190.33 699.88 191.35 699.19 196 680.29 193.18 680.99 188.52 687.8 189.54 690.68 170.3 695.95 171.09 693.07 190.33"/><polygon class="cls-9" points="673.09 175.66 675.46 192.05 669.46 189.25 668.64 178.9 659.9 184.8 654.18 182.13 668.26 173.41 672.62 164.07 677.44 166.32 673.09 175.66"/></g><path class="cls-10" d="M594.17,195.45a11.87,11.87,0,0,1-1.37,13.93,13.25,13.25,0,0,1-2.8,2.41,12.6,12.6,0,0,1-3.31,1.55l-.08-.51a14.2,14.2,0,0,0,3.09-1.51,13,13,0,0,0,2.75-2.36,15.4,15.4,0,0,0,1.77-2.76,9.37,9.37,0,0,0,1-4c-.06-.34-.22-.53-.48-.56a2.08,2.08,0,0,0-.94.17,8.73,8.73,0,0,0-1.16.56,6.07,6.07,0,0,1-1.12.52,4,4,0,0,1-2,.43,5.16,5.16,0,0,1-5.25-5.25,5,5,0,0,1,1.51-3.65,5.09,5.09,0,0,1,3.74-1.51v-.08A5.16,5.16,0,0,1,594.17,195.45Z"/><path class="cls-10" d="M566.48,174v20.3q0,4.73,1.72,6.54c1.15,1.2,3.18,1.8,6.11,1.8H577v.69H547v-.69a33.48,33.48,0,0,0,4.9-.3,7,7,0,0,0,3.18-1.2,4.91,4.91,0,0,0,1.72-2.58,14.94,14.94,0,0,0,.52-4.35V174L550,160.58q-3-5.46-4.94-9.07L542,145.92l-1.59-3c-.34-.66-.56-1.07-.64-1.25a1.52,1.52,0,0,0-.22-.34,10.31,10.31,0,0,0-3-3.44,13.49,13.49,0,0,0-3.61-1.89,17,17,0,0,0-3.27-.78c-1-.11-1.66-.17-2.06-.17v-.51h26.75v.51h-1.47c-.63.06-1.34.16-2.15.3a5.5,5.5,0,0,0-2.06.78,2.76,2.76,0,0,0-1.16,1.54,3.5,3.5,0,0,0,.64,2.63l18,33,13.24-24.16a34.74,34.74,0,0,0,2.63-5.94,11.31,11.31,0,0,0,.6-4,4.16,4.16,0,0,0-.82-2.36,4.25,4.25,0,0,0-1.59-1.2,6.08,6.08,0,0,0-1.81-.48c-.6-.05-1.07-.08-1.42-.08v-.6h23v.6h-.34a18.31,18.31,0,0,0-3.1.47,20.69,20.69,0,0,0-5.07,1.94,29.55,29.55,0,0,0-5.94,4.21,26.73,26.73,0,0,0-5.59,7.4Z"/><path class="cls-10" d="M521.16,152.45v-.17c-.46-1.78-1-3.62-1.55-5.55a19.45,19.45,0,0,0-2.54-5.37,13.91,13.91,0,0,0-4.55-4.21,17.09,17.09,0,0,0-7.53-2.07h-.77q-3.8.34-5.29,2.11t-1.51,6.23v50.83a16.67,16.67,0,0,0,.39,3.91,5.51,5.51,0,0,0,1.29,2.54,5.59,5.59,0,0,0,2.37,1.42,13.9,13.9,0,0,0,3.61.56h2.66v.6H477.81v-.6a34.52,34.52,0,0,0,4.95-.3,6.43,6.43,0,0,0,3.18-1.25,5.28,5.28,0,0,0,1.68-2.58,15.16,15.16,0,0,0,.52-4.39V143.51a16.66,16.66,0,0,0-.39-4,5.47,5.47,0,0,0-1.29-2.49,5.25,5.25,0,0,0-2.37-1.38,19,19,0,0,0-3.61-.6H480a16.78,16.78,0,0,0-7.49,2.07,14.53,14.53,0,0,0-4.55,4.21,18.74,18.74,0,0,0-2.58,5.37c-.58,1.93-1.07,3.77-1.47,5.55v.17h-.6V134.39h58.48v18.06Z"/><path class="cls-10" d="M456.66,134.65v.6h-1.29a22.83,22.83,0,0,0-3.66.39,15.94,15.94,0,0,0-4.42,1.46,10.88,10.88,0,0,0-3.75,3.14,8.8,8.8,0,0,0-1.59,5.51v57.7h-.68L390.7,140.16v52.11a8.93,8.93,0,0,0,1.59,5.59A10.83,10.83,0,0,0,396,201a15.68,15.68,0,0,0,4.43,1.46,22.83,22.83,0,0,0,3.65.39h1.29v.6H375.3v-.6h1.29a22.83,22.83,0,0,0,3.66-.39,15.78,15.78,0,0,0,4.43-1.46,10.83,10.83,0,0,0,3.74-3.14,8.93,8.93,0,0,0,1.59-5.59V143.34q0-2.07-.09-3.57a5,5,0,0,0-.77-2.54,3.93,3.93,0,0,0-2.28-1.5,16.81,16.81,0,0,0-4.6-.48H379.6v-.6H398l43.26,53.75V145.75a8.8,8.8,0,0,0-1.6-5.51,10.85,10.85,0,0,0-3.74-3.14,16,16,0,0,0-4.43-1.46,22.72,22.72,0,0,0-3.65-.39h-1.29v-.6h30.1Z"/><path class="cls-10" d="M300.31,202.68l1.51-.18a10.3,10.3,0,0,0,3.35-1.16,17.25,17.25,0,0,0,4.08-3.05,16.54,16.54,0,0,0,3.7-5.93l23.14-57.79h.68l23.05,57.62a37.83,37.83,0,0,0,2.84,5.8,11.64,11.64,0,0,0,2.58,3,5.78,5.78,0,0,0,2.62,1.2c.89.15,1.91.3,3.06.48v.6H342.71v-.6c2.06-.12,3.83-.25,5.29-.39a6,6,0,0,0,3.31-1.16,3.4,3.4,0,0,0,.94-3,23.43,23.43,0,0,0-1.71-6.07l-6.37-16h-24l-6.54,16.25a8.25,8.25,0,0,0-.73,4.34,5.83,5.83,0,0,0,1.33,2.93,7.16,7.16,0,0,0,2.54,1.8,15.73,15.73,0,0,0,2.92.95,14.36,14.36,0,0,0,2.45.34l1.12.05v.6h-23Zm31.91-56.59-11.78,29.33h23.47Z"/><path class="cls-10" d="M227,203.45v-.6H227a34.27,34.27,0,0,0,4.94-.3,6.5,6.5,0,0,0,3.19-1.25,5.26,5.26,0,0,0,1.67-2.58,14.82,14.82,0,0,0,.52-4.39V143.68c0-3.15-.56-5.32-1.68-6.49s-3.11-1.85-6-2H227v-.52h32.77a35.42,35.42,0,0,1,10,1.29,22.24,22.24,0,0,1,6.88,3.7,14.55,14.55,0,0,1,3.91,5.37,17.58,17.58,0,0,1,1.33,6.93q0,7.74-5.24,12.3a20.76,20.76,0,0,1-6.88,3.69,18.1,18.1,0,0,1-4,.95c-1.41.17-2.88.32-4.43.43a13,13,0,0,1,3.82,1.81,19.41,19.41,0,0,1,4.61,4.73l16.16,22.44a8.79,8.79,0,0,0,2.88,2.54A17.18,17.18,0,0,0,292,202.2a12.56,12.56,0,0,0,2.8.56c.8.06,1.29.09,1.46.09h.09v.6h-17.2l-21-29.07a21.14,21.14,0,0,0-2.36-2.71,10.09,10.09,0,0,0-2.07-1.5,7.13,7.13,0,0,0-1.93-.69,11.49,11.49,0,0,0-2-.17h-3.18v25.11a17.21,17.21,0,0,0,.38,4,5.47,5.47,0,0,0,1.29,2.49,5.55,5.55,0,0,0,2.37,1.42,13.55,13.55,0,0,0,3.61.56H257v.6H227Zm19.7-34.66H259a12.34,12.34,0,0,0,7.23-2.15,13.22,13.22,0,0,0,1.93-1.76,14.6,14.6,0,0,0,1.85-2.54,20.57,20.57,0,0,0,1.63-4.68,25.66,25.66,0,0,0,.61-5.72q0-7.4-3.19-11.87a11.64,11.64,0,0,0-10.06-4.9h-5.59a11,11,0,0,0-3.18.69,5.36,5.36,0,0,0-2.11,1.46,5.65,5.65,0,0,0-1.16,2.49,17.78,17.78,0,0,0-.34,3.79v25.19Z"/><path class="cls-10" d="M153.77,203.45v-.6h.08a34.52,34.52,0,0,0,5-.3A6.43,6.43,0,0,0,162,201.3a5.35,5.35,0,0,0,1.68-2.58,15.21,15.21,0,0,0,.51-4.39V143.68c0-3.15-.56-5.32-1.67-6.49s-3.11-1.85-6-2h-2.75v-.52h32.76a35.37,35.37,0,0,1,10,1.29,22.24,22.24,0,0,1,6.88,3.7A14.55,14.55,0,0,1,207.3,145a17.58,17.58,0,0,1,1.34,6.93q0,7.74-5.25,12.3a20.76,20.76,0,0,1-6.88,3.69,18,18,0,0,1-4,.95c-1.41.17-2.88.32-4.43.43a13,13,0,0,1,3.83,1.81,19.4,19.4,0,0,1,4.6,4.73l16.17,22.44a8.59,8.59,0,0,0,2.88,2.54,16.91,16.91,0,0,0,3.27,1.37,12.6,12.6,0,0,0,2.79.56c.8.06,1.29.09,1.46.09h.09v.6H206l-21-29.07a20.37,20.37,0,0,0-2.37-2.71,10.33,10.33,0,0,0-2.06-1.5,7.19,7.19,0,0,0-1.94-.69,11.49,11.49,0,0,0-2-.17h-3.18v25.11a16.6,16.6,0,0,0,.39,4,5.11,5.11,0,0,0,3.65,3.91,13.63,13.63,0,0,0,3.62.56h2.66v.6h-30Zm19.69-34.66h12.39a12.28,12.28,0,0,0,7.22-2.15,13.22,13.22,0,0,0,1.93-1.76,14.6,14.6,0,0,0,1.85-2.54,20.57,20.57,0,0,0,1.64-4.68,25.68,25.68,0,0,0,.6-5.72q0-7.4-3.18-11.87a11.65,11.65,0,0,0-10.06-4.9h-5.59a11,11,0,0,0-3.19.69,5.26,5.26,0,0,0-2.1,1.46,5.44,5.44,0,0,0-1.16,2.49,17.72,17.72,0,0,0-.35,3.79v25.19Z"/><path class="cls-10" d="M79.29,202.68l1.51-.18a10.3,10.3,0,0,0,3.35-1.16,17.49,17.49,0,0,0,4.09-3.05,16.67,16.67,0,0,0,3.69-5.93l23.14-57.79h.69l23,57.62a38.79,38.79,0,0,0,2.84,5.8,11.64,11.64,0,0,0,2.58,3,5.81,5.81,0,0,0,2.63,1.2c.88.15,1.9.3,3.05.48v.6H121.69v-.6c2.06-.12,3.83-.25,5.29-.39a6,6,0,0,0,3.31-1.16,3.43,3.43,0,0,0,1-3,24,24,0,0,0-1.72-6.07l-6.37-16h-24l-6.54,16.25a8.25,8.25,0,0,0-.73,4.34,5.83,5.83,0,0,0,1.33,2.93,7.16,7.16,0,0,0,2.54,1.8,15.58,15.58,0,0,0,2.93.95,14.1,14.1,0,0,0,2.45.34l1.11.05v.6h-23Zm31.91-56.59L99.42,175.42h23.47Z"/><path class="cls-10" d="M93,135.17h-.43a14.14,14.14,0,0,0-2.37.3,12,12,0,0,0-3.48,1.33,13.8,13.8,0,0,0-3.66,3,14.72,14.72,0,0,0-2.79,5.55l-17,57.88h-.6l-17-57.19L28.9,203.28h-.69l-17.2-58-.35-1.12A20.49,20.49,0,0,0,8.47,139,7.71,7.71,0,0,0,6,136.46a6.7,6.7,0,0,0-2.8-.91c-1-.08-2-.21-3.09-.38H0v-.6H28.21v.6H28c-1.49,0-2.9,0-4.21.13a5.84,5.84,0,0,0-3.19,1,4.11,4.11,0,0,0-1.46,2.92,14.58,14.58,0,0,0,.95,5.81l12.64,43,12.64-43a.93.93,0,0,1-.17-.48.79.79,0,0,0-.09-.38A20.14,20.14,0,0,0,42.87,139a7.71,7.71,0,0,0-2.49-2.53,6.77,6.77,0,0,0-2.84-.91c-1-.08-2-.21-3-.38H34.4v-.6H62.61v.6h-.26c-1.49,0-2.88,0-4.17.08a5.77,5.77,0,0,0-3.18,1,4,4,0,0,0-1.51,2.93,15.1,15.1,0,0,0,.95,5.89l12.64,43,13.07-44.72q.78-2.84-.3-4.43A7.09,7.09,0,0,0,77,136.46a11.61,11.61,0,0,0-3.74-1.08c-1.29-.14-2.22-.21-2.8-.21h-.51v-.6H93Z"/><path class="cls-8" d="M163.77,116.39q2.49-4.74,5-9.68a45.89,45.89,0,0,1,5.87-8.94c.33-.42.75-.92,1.25-1.5a9.19,9.19,0,0,1,1.63-1.5,5.38,5.38,0,0,1,1.93-.88,3.91,3.91,0,0,1,2.32.25c1.25.59,2.16,1.88,2.75,3.88s1.08,4,1.5,6c.16.92.35,1.87.56,2.87s.44,2,.69,3a20.34,20.34,0,0,0,1,2.82q.61,1.44,1.5,1.68a2.06,2.06,0,0,0,1.87-.43,14.36,14.36,0,0,1,1.5-1.07c.5-.41,1-.77,1.38-1.06a9.66,9.66,0,0,0,1.25-1.06,54.19,54.19,0,0,0,5.25-5.25,63,63,0,0,1,5.25-5.38,20.85,20.85,0,0,1,2.18-1.43,3.21,3.21,0,0,1,1.5-.44c.46,0,.73.29.82.87s-.19.92-.82,1.25a6.38,6.38,0,0,0-1.43,1A30.5,30.5,0,0,0,205,105c-1.17,1.37-2.42,2.77-3.75,4.18-.67.67-1.32,1.3-1.94,1.88s-1.27,1.21-1.94,1.87q-1.62,1.64-3.5,3.19a7.36,7.36,0,0,1-4.87,1.56l-.57-.25a1.87,1.87,0,0,0-.68-.12,7.72,7.72,0,0,1-3.07-3.88,40.24,40.24,0,0,1-1.56-5.31c-.42-1.87-.81-3.75-1.19-5.62a17.31,17.31,0,0,0-1.81-5.07,7.44,7.44,0,0,0-3.25,2.82,38.94,38.94,0,0,1-2.5,3.56,58.2,58.2,0,0,0-4.25,7.75q-1.87,4.13-3.62,8.5a7.49,7.49,0,0,0-.88,1.94,22.85,22.85,0,0,1-.87,2.31,6.52,6.52,0,0,1-1.32,1.94,2.3,2.3,0,0,1-2.18.56,2.06,2.06,0,0,1-1.69-1.31,7.88,7.88,0,0,1-.69-2.75,31,31,0,0,1-.06-3.38c0-1.21.1-2.31.19-3.31q.49-6,1.37-11.69a71.11,71.11,0,0,1,2.38-10.44c.33-.91.62-1.75.87-2.5a1.76,1.76,0,0,1,1.63-1.25,1.42,1.42,0,0,1,1.56.69,3.65,3.65,0,0,1,.37,1.94,13.66,13.66,0,0,1-.37,2.44c-.21.87-.36,1.6-.44,2.18q-.87,4.76-1.5,9.5T163.77,116.39Z"/><path class="cls-8" d="M216.76,94.14a9.76,9.76,0,0,1,6.69,2.63,12.08,12.08,0,0,1,3.06,6.37q4-.75,8.32-1.68c2.87-.63,5.68-1.27,8.43-1.94a8.33,8.33,0,0,0,1.25-.44,11.07,11.07,0,0,1,1.57-.5,4.62,4.62,0,0,1,1.43-.12,1,1,0,0,1,.88.56.77.77,0,0,1-.25,1,5.79,5.79,0,0,1-1.25.69,9.43,9.43,0,0,1-1.63.5c-.58.12-1,.23-1.25.31-2.66.83-5.48,1.56-8.43,2.19s-5.9,1.23-8.82,1.81a25.93,25.93,0,0,1-1.06,9.06,31.27,31.27,0,0,1-3.44,7.69,38.81,38.81,0,0,1-4.81,6,13.86,13.86,0,0,1-6.56,3.75H209a5,5,0,0,1-2.12-.94,19,19,0,0,1-1.63-1.44,11,11,0,0,1-1.93-5.43,32,32,0,0,1,.06-6.63,60.13,60.13,0,0,1,1.12-6.75q.75-3.31,1.38-5.94a4.9,4.9,0,0,1-.06-4.5,9.93,9.93,0,0,1,2.43-3.25,19.6,19.6,0,0,0,.94-2.62,22.41,22.41,0,0,1,1.06-2.88,8.81,8.81,0,0,1,1.57-2.37,3.15,3.15,0,0,1,2.43-1,2.44,2.44,0,0,1,2.5,1.81A6.68,6.68,0,0,1,216.76,94.14Zm-6,13q-.62,3.63-1.56,7.82a31.35,31.35,0,0,0-.69,8.56,11.53,11.53,0,0,0,.44,2.12,3.13,3.13,0,0,0,1.19,1.63,9.67,9.67,0,0,0,5.75-3q2.13-2.37,4-4.88a48.87,48.87,0,0,0,3-6.06,15.07,15.07,0,0,0,1-7.31,56.78,56.78,0,0,1-6.38.94A50.74,50.74,0,0,1,210.76,107.14Zm5.5-10.37a4,4,0,0,0-.25,1.44.83.83,0,0,1-.75.93,2,2,0,0,1-.56-.06,2.91,2.91,0,0,1-.44-.19,2.26,2.26,0,0,1-.12-1.75,5.36,5.36,0,0,0-.94,1.63c-.21.58-.39,1.21-.56,1.87a20,20,0,0,0-.63,2c-.16.67-.33,1.34-.5,2,2.34,0,4.5-.08,6.5-.25s4-.41,5.88-.75a10,10,0,0,0-2.31-4.93Q219.89,96.9,216.26,96.77Z"/><path class="cls-8" d="M253.51,81.64q10.75-.37,22.38-1.12a165.12,165.12,0,0,1,23.12.12c.42,0,.88,0,1.38.07a1.08,1.08,0,0,1,1,.68c-.09.67-.4,1-.94,1a7.75,7.75,0,0,1-1.44-.12,225.5,225.5,0,0,0-23.12.19q-11.5.69-22.63,1.31-1.74,10.24-3.18,20.87a153.86,153.86,0,0,0-1.32,22.25c0,1.09,0,2.3.13,3.63a25.17,25.17,0,0,0,.5,3.75c.16.92.44,2,.81,3.37s.94,2.05,1.69,2.13a1.65,1.65,0,0,0,1.31-.38,12.05,12.05,0,0,0,1.38-1.18,15.34,15.34,0,0,0,1.25-1.44c.37-.5.64-.88.81-1.13a121.89,121.89,0,0,0,8.94-13.31q3.93-6.81,8.31-14.19,1.13-2,2.37-4.12c.84-1.42,1.75-2.83,2.75-4.25a12.76,12.76,0,0,1,1.13-1.44,1.11,1.11,0,0,1,1.25-.44c.66.34.79.86.37,1.57a15.84,15.84,0,0,1-1,1.56q-3.12,5.25-5.87,10.62c-1.84,3.59-3.79,7.13-5.88,10.63-1.16,1.92-2.31,3.85-3.43,5.81s-2.32,3.9-3.57,5.81-2.54,3.8-3.87,5.63a13.45,13.45,0,0,1-5.13,4.25,6.79,6.79,0,0,1-2.62,0,7.73,7.73,0,0,1-4.31-4.69,33.42,33.42,0,0,1-1.69-7.06,53.42,53.42,0,0,1-.63-8.31c0-2.88.09-5.69.25-8.44q.63-8.37,1.69-16.19c.71-5.2,1.56-10.19,2.56-14.94q-5.74.26-11.68.88t-12.07.87c-.5,0-1.06,0-1.68.07s-1-.27-1.07-.94a.89.89,0,0,1,1-1,10,10,0,0,0,1.75-.13q5.88-.37,12-1T248.64,82q.75-2.62,1.69-6.19a50.42,50.42,0,0,1,2.18-6.56,9.61,9.61,0,0,1,.94-2.06A2,2,0,0,1,255.14,66a1.31,1.31,0,0,1,1.19.5,1.93,1.93,0,0,1,.25,1.19,11.32,11.32,0,0,1-.25,1.43c-.13.5-.23,1-.32,1.38q-.62,2.74-1.25,5.69T253.51,81.64Z"/><path class="cls-8" d="M310.51,119.64a1.58,1.58,0,0,0,.56-.62c.21-.33.4-.63.57-.88q2.12-2.74,4.31-5.43c1.46-1.79,2.89-3.65,4.31-5.57a50.44,50.44,0,0,0,3.88-4.37,20.66,20.66,0,0,1,4.37-4.13l1.56-1.25a1.37,1.37,0,0,1,1.94.13.91.91,0,0,1-.25,1.12q-.5.38-.87.63a48.26,48.26,0,0,0-5.38,5.5q-2.5,3-4.87,6-2.76,3.49-5.38,7.06T310,125q-.63,8.88-1.69,17.69t-2.43,17.18a140.18,140.18,0,0,1-3.57,15.82A43,43,0,0,1,296,189a9.56,9.56,0,0,1-1.62,1.5,8.63,8.63,0,0,1-2.25,1.19,7.79,7.79,0,0,1-2.57.43,5,5,0,0,1-2.56-.75,8.72,8.72,0,0,1-2.75-3.25,18.47,18.47,0,0,1-1.5-4.43,23.18,23.18,0,0,1-.44-5.13,43.21,43.21,0,0,1,.44-5.19,61.15,61.15,0,0,1,2.13-9.5,74.77,74.77,0,0,1,3.12-8.25A95.24,95.24,0,0,1,296,140.46q4.56-7.07,9.31-13.57.25-4.62,1-10.87a102.82,102.82,0,0,0,.75-12.25q0-.87-.12-2.19a15.7,15.7,0,0,1-.07-2.44,7.4,7.4,0,0,1,.38-2,1.42,1.42,0,0,1,1.19-1,2.08,2.08,0,0,1,1.5,1.75c.25,1,.45,1.92.62,2.75a52.37,52.37,0,0,1,.44,9.44C310.82,113.54,310.68,116.73,310.51,119.64Zm-6.12,13.5q-3.63,5.51-7.32,11.63A94.47,94.47,0,0,0,290.51,158a70.38,70.38,0,0,0-2.5,7,56.26,56.26,0,0,0-1.75,8.12c-.16,1.25-.29,2.71-.37,4.38a27.74,27.74,0,0,0,.12,4.62,18.4,18.4,0,0,0,1.13,3.63,4.1,4.1,0,0,0,2.62,2.37,4.48,4.48,0,0,0,2.63-1.68,14,14,0,0,0,1.62-2.69,14.32,14.32,0,0,0,1.44-3c.37-1.08.73-2.17,1.06-3.25a119.21,119.21,0,0,0,5-21.44q1.64-11.43,3-23.19c.09,0,.13,0,.13-.06s0-.06-.13-.06S304.39,132.89,304.39,133.14Zm3.12-59.87a1.3,1.3,0,0,1,1.56.25A2.36,2.36,0,0,1,309.7,75a1.86,1.86,0,0,1-.5,1.43,1.63,1.63,0,0,1-1.69.38,2.76,2.76,0,0,1-1.25-1,2.82,2.82,0,0,1,0-1.63c.17-.16.34-.33.5-.5A1.65,1.65,0,0,1,307.51,73.27Z"/><path class="cls-8" d="M331.14,116.52a2.31,2.31,0,0,0,1.06-.94c.29-.46.56-.89.81-1.31.92-1.17,1.81-2.42,2.69-3.75s1.77-2.58,2.69-3.75c.58-.92,1.16-1.79,1.75-2.63a25.29,25.29,0,0,1,1.87-2.37,19.06,19.06,0,0,0,2.13-2.25,3.33,3.33,0,0,1,3-1.13,3.15,3.15,0,0,1,2.18,1.07,7.3,7.3,0,0,1,1.32,2.25,18,18,0,0,1,.81,2.93c.21,1.09.39,2.09.56,3s.38,1.74.63,2.69.54,1.9.87,2.81.71,1.69,1.13,2.57a2.58,2.58,0,0,0,1.75,1.56,2.47,2.47,0,0,0,1.81-.19A11.1,11.1,0,0,0,360,116a13.51,13.51,0,0,0,1.63-1.38l1.12-1.12a23.73,23.73,0,0,0,2.5-2.63c.75-.91,1.58-1.83,2.5-2.75,1.17-1.41,2.36-2.81,3.56-4.18s2.4-2.82,3.57-4.32a9.38,9.38,0,0,0,1-1.62,1.48,1.48,0,0,1,1.62-.88,1.46,1.46,0,0,1,.44,1.94,11.77,11.77,0,0,1-1.06,1.69c-.42.58-.84,1.15-1.25,1.69l-1.13,1.43q-2.62,3.14-5.5,6.75a50.75,50.75,0,0,1-6.12,6.5,28.3,28.3,0,0,1-3.57,2.57,5.23,5.23,0,0,1-4.81.06,8.48,8.48,0,0,1-2.94-3.44,23.89,23.89,0,0,1-1.68-4.69q-.63-2.49-1.19-5.12a18.52,18.52,0,0,0-1.69-4.75,7.06,7.06,0,0,0-2.31,2c-.63.83-1.27,1.71-1.94,2.62s-1.27,1.82-1.81,2.69-1.11,1.77-1.69,2.69c-1.17,1.83-2.29,3.67-3.37,5.5a12,12,0,0,1-4.5,4.37,3.46,3.46,0,0,1-2.32-.25,5.21,5.21,0,0,1-1.56-1.25,16.62,16.62,0,0,1-1-5.25,51.51,51.51,0,0,1,.13-6.18q.24-3.19.75-6.25t1-5.69c.08-.58.16-1.23.25-1.94a11.77,11.77,0,0,1,.43-2.06,7.2,7.2,0,0,1,.75-1.69,1.7,1.7,0,0,1,1.19-.81,1.38,1.38,0,0,1,1.13.19,3.29,3.29,0,0,1,.62.68,6.87,6.87,0,0,1,.13,3.44,13.4,13.4,0,0,0-.25,3.69c-.42,2.83-.77,5.75-1.07,8.75S331.14,113.19,331.14,116.52Z"/><path class="cls-8" d="M382,97.89a10.49,10.49,0,0,0-3.75,3,12.45,12.45,0,0,0-1.56,2,4.09,4.09,0,0,0-.69,2.63,4.42,4.42,0,0,0,1.38,2.44c.75.71,1.41,1.35,2,1.93l1.93,1.94a17.77,17.77,0,0,1,1.69,1.94q3.12-2.25,5.94-4.69a56.41,56.41,0,0,1,6.06-4.56,46.59,46.59,0,0,1,4.69-3.13c1.71-1,3.48-2,5.31-2.87l1.75-.88a1.71,1.71,0,0,1,1.88.13,1.29,1.29,0,0,1-.13,1,1.5,1.5,0,0,1-.75.56l-1,.38a1.5,1.5,0,0,0-.75.56,34.47,34.47,0,0,0-5.06,2.81c-1.54,1-3.11,2.06-4.69,3.06q-6,4.5-11.62,9.38a40.21,40.21,0,0,1,3.06,5.87,18.39,18.39,0,0,1,1.31,7.13,20.7,20.7,0,0,1-1.25,8A23,23,0,0,1,384,143a27.8,27.8,0,0,1-5.37,4.75,11.74,11.74,0,0,1-7.25,2.12,8.68,8.68,0,0,1-2.88-.62,10.54,10.54,0,0,1-2.12-1.25,12.67,12.67,0,0,1-2-2.88,9.35,9.35,0,0,1-.88-3.62,13.71,13.71,0,0,1,1.63-8,42.85,42.85,0,0,1,4.12-6.25,53.36,53.36,0,0,1,4.94-5.44c1.71-1.62,3.39-3.14,5.06-4.56a15.07,15.07,0,0,0-2-2.31q-1.12-1.06-2.25-2.19a21,21,0,0,1-2.06-2.38,9.63,9.63,0,0,1-1.44-2.75,6.51,6.51,0,0,1,.06-5.06A20.7,20.7,0,0,1,374,98.52c.84-.92,1.65-1.73,2.44-2.44a11.5,11.5,0,0,1,2.81-1.81,12.75,12.75,0,0,1,1.88-.38,3.58,3.58,0,0,1,1.87.25,2.82,2.82,0,0,0,.69.69,2.08,2.08,0,0,1,.69.94,4.09,4.09,0,0,1,.06,2.37c-.21.92-.52,1.38-.94,1.38-.58.08-.92-.08-1-.5A2.74,2.74,0,0,0,382,97.89Zm-1.62,21.63q-2.13,1.76-4.25,3.87A56.77,56.77,0,0,0,372,128q-1.12,1.38-2.31,3.06a18.69,18.69,0,0,0-2,3.69,17.88,17.88,0,0,0-1.13,4.19,10.34,10.34,0,0,0,.44,4.56,8.76,8.76,0,0,0,1.63,1.69,3.77,3.77,0,0,0,2.37.68,8.69,8.69,0,0,0,5.06-1.93A21.6,21.6,0,0,0,380,140a17.13,17.13,0,0,0,2.44-4.75,21.62,21.62,0,0,0,1.12-5.56,17.74,17.74,0,0,0-.5-5.57,13.14,13.14,0,0,0-2.31-4.87c0-.08,0-.13-.12-.13C380.47,119.31,380.39,119.44,380.39,119.52Zm-13.25,31.12c0,.09.08.05.25-.12C367.39,150.6,367.3,150.64,367.14,150.64Z"/><path class="cls-8" d="M414.14,81.64q10.74-.37,22.37-1.12a165.27,165.27,0,0,1,23.13.12c.41,0,.87,0,1.37.07a1.08,1.08,0,0,1,1,.68c-.08.67-.39,1-.94,1a7.56,7.56,0,0,1-1.43-.12,225.72,225.72,0,0,0-23.13.19q-11.5.69-22.62,1.31Q412.14,94,410.7,104.64a152.49,152.49,0,0,0-1.31,22.25q0,1.64.12,3.63a25.17,25.17,0,0,0,.5,3.75c.17.92.44,2,.81,3.37s.94,2.05,1.69,2.13a1.63,1.63,0,0,0,1.31-.38,12.05,12.05,0,0,0,1.38-1.18,14,14,0,0,0,1.25-1.44c.37-.5.64-.88.81-1.13a121.89,121.89,0,0,0,8.94-13.31q3.93-6.81,8.31-14.19,1.13-2,2.38-4.12c.83-1.42,1.75-2.83,2.75-4.25a11.62,11.62,0,0,1,1.12-1.44,1.11,1.11,0,0,1,1.25-.44c.67.34.79.86.38,1.57a18,18,0,0,1-1,1.56q-3.13,5.25-5.88,10.62t-5.87,10.63c-1.17,1.92-2.32,3.85-3.44,5.81s-2.31,3.9-3.56,5.81-2.55,3.8-3.88,5.63a13.41,13.41,0,0,1-5.12,4.25,6.84,6.84,0,0,1-2.63,0,7.76,7.76,0,0,1-4.31-4.69A34.7,34.7,0,0,1,405,132a54.69,54.69,0,0,1-.62-8.31q0-4.32.25-8.44c.41-5.58,1-11,1.68-16.19s1.57-10.19,2.57-14.94q-5.76.26-11.69.88t-12.06.87c-.5,0-1.07,0-1.69.07s-1-.27-1.06-.94a.88.88,0,0,1,1-1,10.08,10.08,0,0,0,1.75-.13q5.87-.37,12-1T409.26,82Q410,79.4,411,75.83a48.94,48.94,0,0,1,2.19-6.56,9.5,9.5,0,0,1,.93-2.06A2,2,0,0,1,415.76,66a1.31,1.31,0,0,1,1.19.5,1.86,1.86,0,0,1,.25,1.19,9.77,9.77,0,0,1-.25,1.43c-.13.5-.23,1-.31,1.38q-.63,2.74-1.25,5.69T414.14,81.64Z"/><path class="cls-8" d="M484,95.39q-2.37,3.14-4.62,6.75t-4.5,7c-1.09,1.59-2.21,3.3-3.38,5.13a25.48,25.48,0,0,1-4,4.87,8.8,8.8,0,0,1-1.75,1.57,2.72,2.72,0,0,1-2.37.31,3.39,3.39,0,0,1-1.75-2.75A38.77,38.77,0,0,1,464,107.39a50,50,0,0,1,4.44-9.25c.58-.91,1.22-1.83,1.93-2.75a6.92,6.92,0,0,1,2.32-2,3.56,3.56,0,0,1,4.18.19q1.81,1.44,1.32,4.56a6.9,6.9,0,0,0,1.43-2c.54-1,1.13-2,1.75-3.06a21.23,21.23,0,0,1,2-2.81,3.54,3.54,0,0,1,2.19-1.38,2.91,2.91,0,0,1,.88.13l.75.25a5.8,5.8,0,0,1,1.25,2.37c-.17,5-.5,9.74-1,14.19s-.88,9.19-1.13,14.19v2.25c0,.92,0,1.83-.12,2.75a14.06,14.06,0,0,1-.44,2.44c-.21.71-.56,1.06-1.06,1.06a1.41,1.41,0,0,1-1.32-.81,6.2,6.2,0,0,1-.62-2,15.07,15.07,0,0,1-.19-2.44,13.25,13.25,0,0,0-.12-2,69.59,69.59,0,0,1,.25-13.25Q483.39,101.53,484,95.39Zm-9,.25a.11.11,0,0,0-.12-.12,3.36,3.36,0,0,0-.69.31,3.09,3.09,0,0,1-.69.31,26.33,26.33,0,0,0-3.12,4.44,51.69,51.69,0,0,0-2.5,5.06q-1,2.63-1.94,5.57a27.25,27.25,0,0,0-1.19,6.31,43.8,43.8,0,0,0,6.31-8.06q2.82-4.56,5.69-8.94a5,5,0,0,1-.62-2.69A2.15,2.15,0,0,0,475,95.64Z"/><path class="cls-10" d="M108.58,86.83a1.61,1.61,0,0,1-.55,1.25,1.74,1.74,0,0,1-1.2.5,1.78,1.78,0,0,1-1.2-.5,1.72,1.72,0,0,1,0-2.5,1.77,1.77,0,0,1,1.2-.49,1.73,1.73,0,0,1,1.2.49A1.62,1.62,0,0,1,108.58,86.83ZM108,110.37h-2.4v-17H108Z"/><path class="cls-10" d="M122.6,95.55h-4.91v10a5.08,5.08,0,0,0,.19,1.54,2.28,2.28,0,0,0,.5.93,1.78,1.78,0,0,0,.79.45,3.44,3.44,0,0,0,1,.13,4.82,4.82,0,0,0,1.28-.18,5.48,5.48,0,0,0,1.19-.48l.11,2.22a7.69,7.69,0,0,1-3.23.62,6,6,0,0,1-1.43-.18,3.48,3.48,0,0,1-1.37-.69,3.75,3.75,0,0,1-1-1.38,5.53,5.53,0,0,1-.4-2.29V95.55h-3.6V93.37h3.6V88.58h2.39v4.79h4.91Z"/><path class="cls-10" d="M127.68,93.19h-2.39l2.43-8.54h2.94Z"/><path class="cls-10" d="M140.33,97.4a4.48,4.48,0,0,0-1.46-1.67,3.83,3.83,0,0,0-2.21-.62,5.49,5.49,0,0,0-1.26.15,4.11,4.11,0,0,0-1.14.45,2.58,2.58,0,0,0-.82.79,2.11,2.11,0,0,0-.31,1.16A1.91,1.91,0,0,0,134,99.4a8.29,8.29,0,0,0,2.51.95l2.43.58a5.74,5.74,0,0,1,3,1.61,4.2,4.2,0,0,1,1.18,3,4.62,4.62,0,0,1-2.05,4,6.63,6.63,0,0,1-2.13.93,10.49,10.49,0,0,1-2.43.29,8.86,8.86,0,0,1-3.65-.75,6.69,6.69,0,0,1-2.89-2.56l2.07-1.42a5.71,5.71,0,0,0,1.83,1.86,4.9,4.9,0,0,0,2.64.69,6.52,6.52,0,0,0,1.45-.17,3.9,3.9,0,0,0,1.29-.5,2.77,2.77,0,0,0,.91-.89,2.36,2.36,0,0,0,.34-1.28,2,2,0,0,0-.94-1.83,8.17,8.17,0,0,0-2.29-.89l-2.32-.54c-.29-.08-.69-.2-1.18-.37a5.51,5.51,0,0,1-1.46-.76,4.44,4.44,0,0,1-1.21-1.33,3.7,3.7,0,0,1-.51-2,4.75,4.75,0,0,1,.52-2.29,4.48,4.48,0,0,1,1.42-1.6,6.68,6.68,0,0,1,2-.93,9,9,0,0,1,2.32-.31,8.11,8.11,0,0,1,3.31.69A4.89,4.89,0,0,1,142.47,96Z"/><path class="cls-8" d="M303.15,240.83a1.67,1.67,0,0,1-1.44-.12,3.47,3.47,0,0,1-.93-.94,6.1,6.1,0,0,1-.63-1.25,4.76,4.76,0,0,0-.62-1.19,9.75,9.75,0,0,0-4.25,4.06,30.34,30.34,0,0,0-2.63,5.94,28.17,28.17,0,0,0-.87,3.44,24.27,24.27,0,0,0-.44,3.87,12.9,12.9,0,0,0,.37,3.63,4.17,4.17,0,0,0,1.82,2.56,10.35,10.35,0,0,0,5.62-2.12,53.87,53.87,0,0,1,4.38-3.25q4.37-3.26,8.5-6.69l8.37-6.94c.67-.5,1.36-1,2.06-1.62a25.87,25.87,0,0,1,2.19-1.63,4.84,4.84,0,0,1,1.06-.75q.69-.37,1.32-.75a11.67,11.67,0,0,0,1.31-.62.83.83,0,0,1,1.19.37c.25.67.14,1.13-.32,1.38a5.31,5.31,0,0,0-1.18.87c-1.17.84-2.27,1.69-3.32,2.56l-3.18,2.69q-4.63,3.88-9.19,8.31a101.57,101.57,0,0,1-9.69,8.32A38.08,38.08,0,0,1,297.9,264a7.86,7.86,0,0,1-6.12.44,6.38,6.38,0,0,1-3.19-3.57,16.59,16.59,0,0,1-1.06-5.37,24.18,24.18,0,0,1,.5-6,32.3,32.3,0,0,1,1.62-5.56,23.42,23.42,0,0,1,6.88-9.88,10.64,10.64,0,0,0,1-.44,4.58,4.58,0,0,1,1-.31q.12,0,.12-.06s0-.06.13-.06h1.12a4.27,4.27,0,0,1,1,.12,4.73,4.73,0,0,1,2.75,3.63,9.91,9.91,0,0,0,0,2.18A1.78,1.78,0,0,1,303.15,240.83Z"/><path class="cls-8" d="M336.28,233.58a9.71,9.71,0,0,1,6.68,2.63,12.09,12.09,0,0,1,3.07,6.37q4-.75,8.31-1.69c2.87-.62,5.69-1.27,8.44-1.93a8.74,8.74,0,0,0,1.25-.44,9.15,9.15,0,0,1,1.56-.5,4.4,4.4,0,0,1,1.44-.13,1,1,0,0,1,.87.57.77.77,0,0,1-.25,1,5.39,5.39,0,0,1-1.25.68,8.76,8.76,0,0,1-1.62.5c-.59.13-1,.24-1.25.32q-4,1.24-8.44,2.18T346.28,245a26.23,26.23,0,0,1-1.07,9.06,31.8,31.8,0,0,1-3.43,7.69,39.47,39.47,0,0,1-4.82,6,13.86,13.86,0,0,1-6.56,3.75h-1.87a5,5,0,0,1-2.13-.94,18.87,18.87,0,0,1-1.62-1.44,10.87,10.87,0,0,1-1.94-5.44,31.94,31.94,0,0,1,.06-6.62,60.15,60.15,0,0,1,1.13-6.75q.75-3.32,1.37-5.94a4.9,4.9,0,0,1-.06-4.5,9.81,9.81,0,0,1,2.44-3.25,21.18,21.18,0,0,0,.93-2.62,21,21,0,0,1,1.07-2.88,8.56,8.56,0,0,1,1.56-2.37,3.17,3.17,0,0,1,2.44-1,2.44,2.44,0,0,1,2.5,1.81A6.84,6.84,0,0,1,336.28,233.58Zm-6,13q-.63,3.63-1.57,7.81A31.06,31.06,0,0,0,328,263a10.76,10.76,0,0,0,.43,2.12,3.13,3.13,0,0,0,1.19,1.63,9.67,9.67,0,0,0,5.75-3c1.42-1.59,2.75-3.21,4-4.88a48.87,48.87,0,0,0,3-6.06,15.09,15.09,0,0,0,1-7.31,54.44,54.44,0,0,1-6.37.93A50.74,50.74,0,0,1,330.28,246.58Zm5.5-10.37a3.73,3.73,0,0,0-.25,1.43.83.83,0,0,1-.75.94,2.05,2.05,0,0,1-.57-.06,2.48,2.48,0,0,1-.43-.19,2.25,2.25,0,0,1-.13-1.75,5.24,5.24,0,0,0-.94,1.63c-.21.58-.39,1.21-.56,1.87a17.62,17.62,0,0,0-.62,2c-.17.67-.34,1.34-.5,2q3.5,0,6.5-.25c2-.16,4-.41,5.87-.75a10,10,0,0,0-2.31-4.94C340,236.94,338.19,236.29,335.78,236.21Z"/><path class="cls-8" d="M386.77,256.46a8.73,8.73,0,0,0,2.07-2.38c.54-.91,1.1-1.83,1.68-2.75s1.15-1.83,1.69-2.75,1.06-1.83,1.56-2.75a29.36,29.36,0,0,0,1.75-2.5c.59-.91,1.21-1.83,1.88-2.75.42-.58.83-1.19,1.25-1.81a7.55,7.55,0,0,1,1.44-1.63,3.87,3.87,0,0,1,1.81-.87,4,4,0,0,1,2.25.31,5.42,5.42,0,0,1,1.44,3.06,32.73,32.73,0,0,1,.37,4.07c0,1.41.11,2.83.19,4.25a9.18,9.18,0,0,0,.87,3.62,7.16,7.16,0,0,0,2.57-2.19l2.06-2.81c.67-1,1.31-2,1.94-3.06a20.88,20.88,0,0,0,1.56-3.19,8,8,0,0,0,1.06-2.19c.29-.87,1-1.22,2.06-1.06a2.12,2.12,0,0,1-.12,2.31,5.66,5.66,0,0,0-.88,2.32c-.41.75-.79,1.48-1.12,2.18s-.67,1.44-1,2.19a24.35,24.35,0,0,0-2.5,3.75,12.76,12.76,0,0,1-2.88,3.63,4.41,4.41,0,0,1-1.56,1,4.15,4.15,0,0,1-2.31.12,4.45,4.45,0,0,1-2.31-2.31,12.84,12.84,0,0,1-.94-3.63,35.6,35.6,0,0,1-.25-4.37A23.36,23.36,0,0,0,402,240a2.28,2.28,0,0,0-1.06.93,13.7,13.7,0,0,1-.94,1.32c-.91,1.25-1.81,2.58-2.68,4s-1.69,2.83-2.44,4.25a38.28,38.28,0,0,0-3.31,5.56,10.34,10.34,0,0,1-4.32,4.56,5.57,5.57,0,0,0-.87.06,2.56,2.56,0,0,1-1-.06,8.06,8.06,0,0,1-1.25-.62,11.24,11.24,0,0,1-1.69-5.69c-.12-2.29-.19-4.65-.19-7.06s0-4.83-.12-7.25-.21-4.71-.38-6.88a70.66,70.66,0,0,0-4.62,10.75q-2,5.88-3.88,12.25c-.83,3-1.6,6.09-2.31,9.25s-1.48,6.42-2.31,9.75c-.17.75-.33,1.5-.5,2.25a10.17,10.17,0,0,1-.69,2.06,4.45,4.45,0,0,1-1.19,1.57,3.69,3.69,0,0,1-2,.75,2.55,2.55,0,0,1-2.25-1.82,20.81,20.81,0,0,1-.75-3.31,60.51,60.51,0,0,1,0-10.94q.51-5.81,1.13-11.06T363.9,244q.87-5.31,2-10.19.38-1.5.81-3.12a2.42,2.42,0,0,1,2.19-1.88,1.86,1.86,0,0,1,1.44.25,2.5,2.5,0,0,1,.68,1,6.09,6.09,0,0,1-.12,2.75,6.25,6.25,0,0,0-.13,2.75,9.2,9.2,0,0,0,.5,2.13,3.27,3.27,0,0,1,.13,2,.86.86,0,0,1-.81.5,1.27,1.27,0,0,1-.94-.38q-1,6.38-1.88,12.63t-1.25,13.25q2.13-7.24,4.5-15.13t5.25-15c.25-.58.59-1.39,1-2.44a15,15,0,0,1,1.57-2.93,7.29,7.29,0,0,1,2.12-2.13,2.59,2.59,0,0,1,2.69,0,3.34,3.34,0,0,1,1.69,2,16,16,0,0,1,.81,3.38,29.18,29.18,0,0,1,.25,3.93q0,2.07.12,3.69a61.85,61.85,0,0,1,0,7.94A37.5,37.5,0,0,0,386.77,256.46Z"/><path class="cls-8" d="M437.52,256.46a8.73,8.73,0,0,0,2.07-2.38c.54-.91,1.1-1.83,1.68-2.75s1.15-1.83,1.69-2.75,1.06-1.83,1.56-2.75a29.36,29.36,0,0,0,1.75-2.5c.59-.91,1.21-1.83,1.88-2.75.41-.58.83-1.19,1.25-1.81a7.29,7.29,0,0,1,1.44-1.63,3.87,3.87,0,0,1,1.81-.87,4,4,0,0,1,2.25.31,5.42,5.42,0,0,1,1.44,3.06,32.73,32.73,0,0,1,.37,4.07c0,1.41.1,2.83.19,4.25a9.18,9.18,0,0,0,.87,3.62,7.16,7.16,0,0,0,2.57-2.19l2.06-2.81c.66-1,1.31-2,1.94-3.06a20.88,20.88,0,0,0,1.56-3.19,8.27,8.27,0,0,0,1.06-2.19c.29-.87,1-1.22,2.06-1.06a2.12,2.12,0,0,1-.12,2.31,5.66,5.66,0,0,0-.88,2.32c-.41.75-.79,1.48-1.12,2.18s-.67,1.44-1,2.19a23.65,23.65,0,0,0-2.5,3.75,12.94,12.94,0,0,1-2.88,3.63,4.41,4.41,0,0,1-1.56,1,4.16,4.16,0,0,1-2.31.12,4.42,4.42,0,0,1-2.31-2.31,12.52,12.52,0,0,1-.94-3.63,35.6,35.6,0,0,1-.25-4.37,23.36,23.36,0,0,0-.38-4.31,2.28,2.28,0,0,0-1.06.93,13.7,13.7,0,0,1-.94,1.32c-.91,1.25-1.81,2.58-2.68,4s-1.69,2.83-2.44,4.25a38.28,38.28,0,0,0-3.31,5.56,10.34,10.34,0,0,1-4.32,4.56,5.57,5.57,0,0,0-.87.06,2.55,2.55,0,0,1-1-.06,7.64,7.64,0,0,1-1.25-.62,11.24,11.24,0,0,1-1.69-5.69c-.12-2.29-.19-4.65-.19-7.06s0-4.83-.12-7.25-.21-4.71-.38-6.88a70.66,70.66,0,0,0-4.62,10.75q-2,5.88-3.88,12.25c-.83,3-1.6,6.09-2.31,9.25s-1.48,6.42-2.31,9.75c-.17.75-.34,1.5-.5,2.25a10.17,10.17,0,0,1-.69,2.06A4.45,4.45,0,0,1,417,281a3.69,3.69,0,0,1-2,.75,2.55,2.55,0,0,1-2.25-1.82,20.81,20.81,0,0,1-.75-3.31,60.51,60.51,0,0,1,0-10.94q.51-5.81,1.13-11.06t1.5-10.56q.87-5.31,2-10.19.38-1.5.81-3.12a2.42,2.42,0,0,1,2.19-1.88,1.87,1.87,0,0,1,1.44.25,2.5,2.5,0,0,1,.68,1,6.09,6.09,0,0,1-.12,2.75,6.25,6.25,0,0,0-.13,2.75,9.2,9.2,0,0,0,.5,2.13,3.35,3.35,0,0,1,.13,2,.86.86,0,0,1-.81.5,1.27,1.27,0,0,1-.94-.38q-1,6.38-1.88,12.63t-1.25,13.25q2.13-7.24,4.5-15.13t5.25-15c.25-.58.59-1.39,1-2.44a15,15,0,0,1,1.57-2.93,7.29,7.29,0,0,1,2.12-2.13,2.59,2.59,0,0,1,2.69,0,3.34,3.34,0,0,1,1.69,2,16,16,0,0,1,.81,3.38,30.92,30.92,0,0,1,.25,3.93q0,2.07.12,3.69a61.85,61.85,0,0,1,0,7.94A37.5,37.5,0,0,0,437.52,256.46Z"/><path class="cls-8" d="M468.9,236.58a1.87,1.87,0,0,1,.43,1.38q-.06.75-.06,1.62c-.08,1.42-.1,3-.06,4.63s.06,3.29.06,4.87,0,3.13-.06,4.63a5.4,5.4,0,0,1-1.31,3.62h-1a4,4,0,0,1-.94-1.94,19.46,19.46,0,0,1-.44-2.81c-.08-1.83-.1-3.75-.06-5.75a53.66,53.66,0,0,1,.44-5.87c.08-.5.17-1.08.25-1.75a6.9,6.9,0,0,1,.43-1.75,2.08,2.08,0,0,1,.88-1.07A1.48,1.48,0,0,1,468.9,236.58Zm.62-24.25a2.85,2.85,0,0,1-1,2,1.34,1.34,0,0,1-1.44-.25,2.1,2.1,0,0,1-.5-1.19,1.53,1.53,0,0,1,.38-1.18,1.57,1.57,0,0,1,1.44-.38C469.06,211.67,469.44,212,469.52,212.33Z"/><path class="cls-8" d="M487.15,221.08q10.74-.37,22.37-1.12a165.27,165.27,0,0,1,23.13.12c.41,0,.87,0,1.37.06a1.11,1.11,0,0,1,1,.69c-.08.67-.39,1-.94,1a7.56,7.56,0,0,1-1.43-.12,228.61,228.61,0,0,0-23.13.18q-11.5.69-22.62,1.32-1.75,10.24-3.19,20.87a152.49,152.49,0,0,0-1.31,22.25c0,1.09,0,2.29.12,3.63a25.17,25.17,0,0,0,.5,3.75c.17.91.44,2,.81,3.37s.94,2,1.69,2.13a1.67,1.67,0,0,0,1.31-.38,11.25,11.25,0,0,0,1.38-1.19,12.93,12.93,0,0,0,1.25-1.43c.37-.5.64-.88.81-1.13a122.86,122.86,0,0,0,8.94-13.31q3.93-6.81,8.31-14.19,1.13-2,2.38-4.12t2.75-4.25a11.62,11.62,0,0,1,1.12-1.44,1.1,1.1,0,0,1,1.25-.44c.67.34.79.86.38,1.56s-.75,1.23-1,1.57q-3.14,5.25-5.88,10.62t-5.87,10.63q-1.75,2.87-3.44,5.81c-1.13,2-2.31,3.9-3.56,5.81s-2.55,3.79-3.88,5.63a13.41,13.41,0,0,1-5.12,4.25,7.26,7.26,0,0,1-2.63,0,7.76,7.76,0,0,1-4.31-4.69,34.86,34.86,0,0,1-1.69-7.06,54.73,54.73,0,0,1-.62-8.32q0-4.31.25-8.43c.41-5.59,1-11,1.68-16.19s1.57-10.19,2.57-14.94q-5.76.25-11.69.88t-12.06.87c-.5,0-1.07,0-1.69.06s-1-.27-1.06-.93a.88.88,0,0,1,1-1,10.08,10.08,0,0,0,1.75-.13q5.87-.37,12-1c4.08-.41,8.12-.71,12.12-.87.5-1.75,1.06-3.82,1.69-6.19a48.47,48.47,0,0,1,2.19-6.56,9.55,9.55,0,0,1,.93-2.07,2,2,0,0,1,1.69-1.18,1.29,1.29,0,0,1,1.19.5,1.85,1.85,0,0,1,.25,1.18,9.9,9.9,0,0,1-.25,1.44c-.13.5-.23,1-.31,1.38-.42,1.83-.84,3.73-1.25,5.68S487.56,219.42,487.15,221.08Z"/><path class="cls-8" d="M535,256.46a8.7,8.7,0,0,0,2.06-2.38c.54-.91,1.11-1.83,1.69-2.75s1.15-1.83,1.69-2.75,1.06-1.83,1.56-2.75c.58-.75,1.17-1.58,1.75-2.5s1.21-1.83,1.88-2.75c.41-.58.83-1.19,1.25-1.81a7.51,7.51,0,0,1,1.43-1.63,4,4,0,0,1,1.82-.87,4,4,0,0,1,2.25.31,5.42,5.42,0,0,1,1.43,3.06,30.89,30.89,0,0,1,.38,4.07c0,1.41.1,2.83.19,4.25a9.18,9.18,0,0,0,.87,3.62,7.13,7.13,0,0,0,2.56-2.19c.71-.95,1.4-1.89,2.07-2.81s1.31-2,1.93-3.06a20.06,20.06,0,0,0,1.57-3.19,8.27,8.27,0,0,0,1.06-2.19c.29-.87,1-1.22,2.06-1.06a2.12,2.12,0,0,1-.12,2.31,5.52,5.52,0,0,0-.88,2.32c-.42.75-.79,1.48-1.12,2.18s-.67,1.44-1,2.19a23.65,23.65,0,0,0-2.5,3.75,13.12,13.12,0,0,1-2.88,3.63,4.6,4.6,0,0,1-1.56,1,4.16,4.16,0,0,1-2.31.12,4.47,4.47,0,0,1-2.32-2.31,12.85,12.85,0,0,1-.93-3.63,35.6,35.6,0,0,1-.25-4.37,23.36,23.36,0,0,0-.38-4.31,2.23,2.23,0,0,0-1.06.93,15.7,15.7,0,0,1-.94,1.32c-.92,1.25-1.81,2.58-2.69,4s-1.68,2.83-2.43,4.25a39.26,39.26,0,0,0-3.32,5.56,10.27,10.27,0,0,1-4.31,4.56,5.57,5.57,0,0,0-.87.06,2.55,2.55,0,0,1-1-.06,7.64,7.64,0,0,1-1.25-.62,11.15,11.15,0,0,1-1.69-5.69c-.13-2.29-.19-4.65-.19-7.06s0-4.83-.12-7.25-.21-4.71-.38-6.88a70.66,70.66,0,0,0-4.62,10.75q-2,5.88-3.88,12.25c-.83,3-1.6,6.09-2.31,9.25s-1.48,6.42-2.31,9.75c-.17.75-.34,1.5-.5,2.25a10.17,10.17,0,0,1-.69,2.06,4.45,4.45,0,0,1-1.19,1.57,3.69,3.69,0,0,1-2,.75,2.55,2.55,0,0,1-2.25-1.82,20.81,20.81,0,0,1-.75-3.31,60.51,60.51,0,0,1,0-10.94q.51-5.81,1.13-11.06t1.5-10.56q.87-5.31,2-10.19.38-1.5.81-3.12a2.42,2.42,0,0,1,2.19-1.88,1.84,1.84,0,0,1,1.43.25,2.52,2.52,0,0,1,.69,1,6.09,6.09,0,0,1-.12,2.75,6.11,6.11,0,0,0-.13,2.75,8.72,8.72,0,0,0,.5,2.13,3.35,3.35,0,0,1,.13,2,.86.86,0,0,1-.82.5,1.27,1.27,0,0,1-.93-.38q-1,6.38-1.88,12.63t-1.25,13.25q2.13-7.24,4.5-15.13t5.25-15c.25-.58.58-1.39,1-2.44a15.5,15.5,0,0,1,1.56-2.93,7.44,7.44,0,0,1,2.13-2.13,2.59,2.59,0,0,1,2.69,0,3.3,3.3,0,0,1,1.68,2,15.35,15.35,0,0,1,.82,3.38,30.92,30.92,0,0,1,.25,3.93q0,2.07.12,3.69a61.85,61.85,0,0,1,0,7.94A36.76,36.76,0,0,0,535,256.46Z"/><path class="cls-8" d="M565.9,243.83a24.23,24.23,0,0,0-1.63,4.56,21.33,21.33,0,0,0-.75,5.5,9.38,9.38,0,0,0,1.13,4.69,4.43,4.43,0,0,0,4,2.13,12.38,12.38,0,0,0,6.18-1.38,57.4,57.4,0,0,0,5.07-2.87q2.49-1.75,4.68-3.44t3.94-3.31a68.74,68.74,0,0,0,6.19-5.38c2-1.91,3.89-3.87,5.81-5.87a3.08,3.08,0,0,0,.81-1,11.91,11.91,0,0,1,.94-1.38,6.64,6.64,0,0,1,1.06-1.06,1,1,0,0,1,1.19-.06c.58.25.71.75.38,1.5a9.09,9.09,0,0,1-.88,1.62,4.63,4.63,0,0,1-.75,1.38c-.33.42-.67.87-1,1.37a92.89,92.89,0,0,1-6.56,6.88q-3.44,3.25-7.06,6.5a51.47,51.47,0,0,1-10.5,7.5,26.4,26.4,0,0,1-3.13,1.43,17.34,17.34,0,0,1-3.62,1,16.22,16.22,0,0,1-3.82.19,7.54,7.54,0,0,1-3.56-1.12,5.72,5.72,0,0,1-1.31-1.19l-1.19-1.44a11.83,11.83,0,0,1-1.56-5.31,23.87,23.87,0,0,1,.37-5.94,36.85,36.85,0,0,1,1.57-5.75,35.09,35.09,0,0,1,2-4.62,51.32,51.32,0,0,1,5-7.38,14.63,14.63,0,0,1,7.62-4.75,6,6,0,0,1,4.19,1.13c1,.83,1.48,2.16,1.31,4a8.21,8.21,0,0,1-1.5,3.75,24.24,24.24,0,0,1-2.62,3.12,28.4,28.4,0,0,1-4.94,3.94A10.29,10.29,0,0,1,565.9,243.83Zm11.62-13.37A12.94,12.94,0,0,0,570.9,235a45.28,45.28,0,0,0-4.25,6.94,7.82,7.82,0,0,0,4.62-1.25,33,33,0,0,0,3.25-2.63q1.38-1.5,2.88-3a5.38,5.38,0,0,0,1.37-4.25A1.37,1.37,0,0,0,577.52,230.46Z"/><path class="cls-8" d="M602.27,255.83q2.51-4.74,5-9.69a46.28,46.28,0,0,1,5.87-8.93c.34-.42.75-.92,1.25-1.5a8.8,8.8,0,0,1,1.63-1.5,5.43,5.43,0,0,1,1.94-.88,3.88,3.88,0,0,1,2.31.25q1.88.88,2.75,3.88t1.5,6c.17.92.35,1.87.56,2.87s.44,2,.69,3a19.77,19.77,0,0,0,1,2.81c.42,1,.92,1.53,1.5,1.69a2.06,2.06,0,0,0,1.87-.44c.59-.45,1.09-.81,1.5-1.06.5-.41,1-.77,1.38-1.06a9.79,9.79,0,0,0,1.25-1.06,52,52,0,0,0,5.25-5.25,61.55,61.55,0,0,1,5.25-5.38,23,23,0,0,1,2.19-1.44,3.19,3.19,0,0,1,1.5-.43c.45,0,.73.29.81.87s-.19.92-.81,1.25a6.25,6.25,0,0,0-1.44,1,32,32,0,0,0-3.5,3.56q-1.75,2.07-3.75,4.19c-.67.67-1.31,1.3-1.94,1.88s-1.27,1.21-1.94,1.87q-1.62,1.63-3.5,3.19a7.36,7.36,0,0,1-4.87,1.56l-.56-.25a1.92,1.92,0,0,0-.69-.12,7.65,7.65,0,0,1-3.06-3.88,39.2,39.2,0,0,1-1.57-5.31c-.41-1.88-.81-3.75-1.18-5.63a17.36,17.36,0,0,0-1.82-5.06,7.54,7.54,0,0,0-3.25,2.81,39.06,39.06,0,0,1-2.5,3.57,57.59,57.59,0,0,0-4.25,7.75q-1.87,4.13-3.62,8.5a7.75,7.75,0,0,0-.88,1.93,22.15,22.15,0,0,1-.87,2.32,6.27,6.27,0,0,1-1.31,1.93,2.3,2.3,0,0,1-2.19.57,2.09,2.09,0,0,1-1.69-1.32,8,8,0,0,1-.69-2.75,30.77,30.77,0,0,1-.06-3.37c0-1.21.11-2.31.19-3.31q.5-6,1.37-11.69a71.11,71.11,0,0,1,2.38-10.44c.33-.91.62-1.75.87-2.5a1.77,1.77,0,0,1,1.63-1.25,1.42,1.42,0,0,1,1.56.69,3.63,3.63,0,0,1,.38,1.94,14.45,14.45,0,0,1-.38,2.43c-.21.88-.35,1.61-.44,2.19q-.87,4.75-1.5,9.5C603,249.5,602.6,252.67,602.27,255.83Z"/><path class="cls-8" d="M654,221.08q10.74-.37,22.37-1.12a165.27,165.27,0,0,1,23.13.12c.41,0,.87,0,1.37.06a1.11,1.11,0,0,1,1,.69c-.08.67-.39,1-.94,1a7.56,7.56,0,0,1-1.43-.12,228.61,228.61,0,0,0-23.13.18q-11.5.69-22.62,1.32-1.75,10.24-3.19,20.87a152.49,152.49,0,0,0-1.31,22.25c0,1.09,0,2.29.12,3.63a25.17,25.17,0,0,0,.5,3.75c.17.91.44,2,.81,3.37s.94,2,1.69,2.13a1.67,1.67,0,0,0,1.31-.38,11.25,11.25,0,0,0,1.38-1.19,12.93,12.93,0,0,0,1.25-1.43c.37-.5.64-.88.81-1.13a122.86,122.86,0,0,0,8.94-13.31q3.93-6.81,8.31-14.19,1.13-2,2.38-4.12t2.75-4.25a11.62,11.62,0,0,1,1.12-1.44,1.1,1.1,0,0,1,1.25-.44c.67.34.79.86.38,1.56s-.75,1.23-1,1.57q-3.13,5.25-5.88,10.62t-5.87,10.63q-1.75,2.87-3.44,5.81c-1.13,2-2.31,3.9-3.56,5.81s-2.55,3.79-3.88,5.63a13.41,13.41,0,0,1-5.12,4.25,7.26,7.26,0,0,1-2.63,0,7.76,7.76,0,0,1-4.31-4.69,34.86,34.86,0,0,1-1.69-7.06,54.73,54.73,0,0,1-.62-8.32q0-4.31.25-8.43.63-8.39,1.68-16.19t2.57-14.94q-5.74.25-11.69.88t-12.06.87c-.5,0-1.07,0-1.69.06s-1-.27-1.06-.93a.88.88,0,0,1,1-1,10,10,0,0,0,1.75-.13q5.88-.37,12-1c4.08-.41,8.12-.71,12.12-.87.5-1.75,1.06-3.82,1.69-6.19a48.47,48.47,0,0,1,2.19-6.56,9.55,9.55,0,0,1,.93-2.07,2,2,0,0,1,1.69-1.18,1.29,1.29,0,0,1,1.19.5,1.85,1.85,0,0,1,.25,1.18,9.9,9.9,0,0,1-.25,1.44c-.13.5-.23,1-.31,1.38-.42,1.83-.84,3.73-1.25,5.68S654.43,219.42,654,221.08Z"/><path class="cls-10" d="M215.13,226.27a1.61,1.61,0,0,1-.54,1.25,1.71,1.71,0,0,1-2.4,0,1.61,1.61,0,0,1-.54-1.25,1.63,1.63,0,0,1,.54-1.26,1.71,1.71,0,0,1,2.4,0A1.63,1.63,0,0,1,215.13,226.27Zm-.54,23.54h-2.4v-17h2.4Z"/><path class="cls-10" d="M229.16,235h-4.91v10a5.54,5.54,0,0,0,.18,1.55,2.07,2.07,0,0,0,.51.92,1.82,1.82,0,0,0,.78.46,4,4,0,0,0,1,.12,4.75,4.75,0,0,0,1.27-.18,5.36,5.36,0,0,0,1.2-.47l.11,2.22a7.69,7.69,0,0,1-3.23.61,6.17,6.17,0,0,1-1.44-.18,3.38,3.38,0,0,1-1.36-.69,3.89,3.89,0,0,1-1-1.38,5.63,5.63,0,0,1-.4-2.29V235h-3.59v-2.18h3.59V228h2.4v4.8h4.91Z"/><path class="cls-10" d="M234.24,232.62h-2.4l2.44-8.53h2.94Z"/><path class="cls-10" d="M246.88,236.84a4.37,4.37,0,0,0-1.45-1.67,3.84,3.84,0,0,0-2.22-.62,5.4,5.4,0,0,0-1.25.15,3.58,3.58,0,0,0-1.14.45,2.66,2.66,0,0,0-.82.78,2.05,2.05,0,0,0-.31,1.16,1.94,1.94,0,0,0,.84,1.75,8.08,8.08,0,0,0,2.5.94l2.44.58a5.86,5.86,0,0,1,3,1.62,4.2,4.2,0,0,1,1.18,3,4.81,4.81,0,0,1-.56,2.38,5,5,0,0,1-1.49,1.64,6.4,6.4,0,0,1-2.13.92,10,10,0,0,1-2.43.29,8.86,8.86,0,0,1-3.65-.74,6.75,6.75,0,0,1-2.89-2.56l2.07-1.42a5.61,5.61,0,0,0,1.83,1.86,5,5,0,0,0,2.64.68,6.57,6.57,0,0,0,1.45-.16,4.35,4.35,0,0,0,1.29-.51,2.77,2.77,0,0,0,.91-.89,2.3,2.3,0,0,0,.34-1.27,2,2,0,0,0-.94-1.83,7.87,7.87,0,0,0-2.29-.89l-2.33-.55c-.29-.07-.68-.19-1.18-.36a5.94,5.94,0,0,1-1.45-.76,4.74,4.74,0,0,1-1.22-1.33,3.76,3.76,0,0,1-.5-2,4.74,4.74,0,0,1,.52-2.28,4.39,4.39,0,0,1,1.42-1.6,6.34,6.34,0,0,1,2-.93,8.54,8.54,0,0,1,2.32-.31,8,8,0,0,1,3.31.69,4.92,4.92,0,0,1,2.36,2.36Z"/><path class="cls-10" d="M274.35,239.38V239c0-2.93-1.46-4.4-4.36-4.4a7.53,7.53,0,0,0-5.2,2l-1.45-1.71q2.4-2.47,7.19-2.47a7.84,7.84,0,0,1,2.38.36,5.31,5.31,0,0,1,3.33,3,6.49,6.49,0,0,1,.51,2.69V246c0,.66,0,1.34.09,2.06s.12,1.3.2,1.76h-2.33a12.52,12.52,0,0,1-.16-1.35q-.06-.72-.06-1.41h-.07a6.47,6.47,0,0,1-2.49,2.45,7.48,7.48,0,0,1-3.5.74,7.91,7.91,0,0,1-2.18-.3,5.42,5.42,0,0,1-1.87-.95,4.6,4.6,0,0,1-1.31-1.56,4.53,4.53,0,0,1-.49-2.16,4.62,4.62,0,0,1,1.07-3.25,6.53,6.53,0,0,1,2.69-1.77,13.13,13.13,0,0,1,3.45-.72q1.83-.15,3.36-.15Zm-1.24,2c-.6,0-1.36,0-2.27.09a13.68,13.68,0,0,0-2.61.44,5.87,5.87,0,0,0-2.15,1.07,2.46,2.46,0,0,0-.89,2,2.84,2.84,0,0,0,.35,1.44,3,3,0,0,0,.92,1,4.1,4.1,0,0,0,1.29.54,6.36,6.36,0,0,0,1.44.16,5.47,5.47,0,0,0,2.27-.43,4.71,4.71,0,0,0,1.62-1.18,4.89,4.89,0,0,0,1-1.75,7.29,7.29,0,0,0,.31-2.12v-1.24Z"/></g></g></svg>