<svg xmlns="http://www.w3.org/2000/svg" viewBox="0 0 674.46 148.76"><defs><style>.cls-1{fill:none;stroke:#ff8300;}.cls-2{fill:#153a49;}.cls-3{fill:#ff8300;}</style></defs><g id="Layer_2" data-name="Layer 2"><g id="Layer_1-2" data-name="Layer 1"><line class="cls-1" x1="199.27" y1="130.19" x2="463.27" y2="130.19"/><path class="cls-2" d="M131.27,32.32a34.44,34.44,0,0,1,2.24-12.56,30.73,30.73,0,0,1,6-10.32,26.7,26.7,0,0,1,8.8-6.88,24.78,24.78,0,0,1,11-2.56h4.64a24.63,24.63,0,0,1,10.88,2.56,26.56,26.56,0,0,1,9,6.88,34.49,34.49,0,0,1,6.08,10.32A36.36,36.36,0,0,1,192,32.32a35.91,35.91,0,0,1-2.16,12.56,34.49,34.49,0,0,1-6.08,10.32,26.56,26.56,0,0,1-9,6.88,24.63,24.63,0,0,1-10.88,2.56h-4.64a24.78,24.78,0,0,1-11-2.56,26.7,26.7,0,0,1-8.8-6.88,30.73,30.73,0,0,1-6-10.32A34.44,34.44,0,0,1,131.27,32.32Zm8.72,0a48.87,48.87,0,0,0,1.48,12.24,33.77,33.77,0,0,0,4.44,10.24,17.28,17.28,0,0,0,2.64,3.44A20.67,20.67,0,0,0,153.39,62a37.47,37.47,0,0,0,3.8,1.8l1.52.32a8.26,8.26,0,0,0,1.68.16h2.4a7.17,7.17,0,0,0,1.6-.16c.48-.11,1-.21,1.6-.32.91-.37,2.14-1,3.72-1.8a22.25,22.25,0,0,0,4.92-3.72c.42-.48.87-1,1.32-1.6s.89-1.2,1.32-1.84a34.59,34.59,0,0,0,4.48-10.24,48,48,0,0,0,1.52-12.24,48,48,0,0,0-1.52-12.24,34.59,34.59,0,0,0-4.48-10.24C176.84,9.2,176.4,8.59,176,8s-.9-1.12-1.32-1.6a22.25,22.25,0,0,0-4.92-3.72c-1.58-.83-2.81-1.43-3.72-1.8L164.39.6a9.74,9.74,0,0,0-1.6-.12h-2.4a13,13,0,0,0-3.2.4,37.47,37.47,0,0,0-3.8,1.8,20.67,20.67,0,0,0-4.84,3.72,15.87,15.87,0,0,0-1.4,1.6,16,16,0,0,0-1.24,1.84,33.77,33.77,0,0,0-4.44,10.24A48.87,48.87,0,0,0,140,32.32Z"/><path class="cls-2" d="M195.91,64.88v-.56a31.44,31.44,0,0,0,4.6-.28,6.3,6.3,0,0,0,3-1.16,4.8,4.8,0,0,0,1.6-2.4,14,14,0,0,0,.48-4.08V9.28c0-2.93-.52-4.95-1.56-6s-2.9-1.72-5.56-1.88h-2.56V.88h30.4a32.4,32.4,0,0,1,9.28,1.2A18.53,18.53,0,0,1,242,5.52a13.57,13.57,0,0,1,3.64,5A16.43,16.43,0,0,1,246.87,17,14.4,14.4,0,0,1,242,28.4a17.26,17.26,0,0,1-6.4,3.44,29.66,29.66,0,0,1-9.28,1.28H214.15V56.48a15.58,15.58,0,0,0,.36,3.68A4.71,4.71,0,0,0,218,63.8a13.15,13.15,0,0,0,3.4.52h2.48l-.08.08v.48H195.91Zm18.24-32.24h11.52a11.65,11.65,0,0,0,6.8-2,13.12,13.12,0,0,0,1.8-1.64,11.33,11.33,0,0,0,1.64-2.36,17.52,17.52,0,0,0,1.6-4.36,24,24,0,0,0,.56-5.32q0-6.89-3-11a10.92,10.92,0,0,0-9.44-4.56h-5.12c-2.4.27-4.07.93-5,2s-1.4,3-1.4,5.84V32.64Z"/><path class="cls-2" d="M305.51,17.44v-.16q-.64-2.48-1.44-5.16a18.48,18.48,0,0,0-2.36-5,13.15,13.15,0,0,0-4.24-3.92,15.81,15.81,0,0,0-7-1.92h-.72c-2.35.21-4,.87-4.92,2s-1.4,3-1.4,5.8V56.32a15.69,15.69,0,0,0,.36,3.64,4.72,4.72,0,0,0,3.4,3.68,12.62,12.62,0,0,0,3.36.52H293v.56H265.19v-.56a31.54,31.54,0,0,0,4.6-.28,6,6,0,0,0,3-1.16,4.94,4.94,0,0,0,1.56-2.4,14,14,0,0,0,.48-4.08V9.12a15.58,15.58,0,0,0-.36-3.68,5.08,5.08,0,0,0-1.2-2.32A4.9,4.9,0,0,0,271,1.84a17,17,0,0,0-3.36-.56h-.48a15.51,15.51,0,0,0-7,1.92A13.58,13.58,0,0,0,256,7.12a17.47,17.47,0,0,0-2.4,5q-.81,2.69-1.36,5.16v.16h-.56V.64h54.4v16.8Z"/><path class="cls-2" d="M317.31,64a6.3,6.3,0,0,0,3-1.16,4.87,4.87,0,0,0,1.6-2.4,14,14,0,0,0,.48-4.08V9.28c0-2.93-.52-4.95-1.56-6s-2.9-1.72-5.56-1.88h-2.56V.88h27.84v.4h0v.08h-3.2c-2.4.27-4.07.93-5,2s-1.4,3-1.4,5.84V56.48a15.58,15.58,0,0,0,.36,3.68,4.71,4.71,0,0,0,3.44,3.64,13.15,13.15,0,0,0,3.4.52h2.48v.56H312.71v-.56A31.54,31.54,0,0,0,317.31,64Z"/><path class="cls-2" d="M345.75,32.32A34.24,34.24,0,0,1,348,19.76a30.73,30.73,0,0,1,6-10.32,26.7,26.7,0,0,1,8.8-6.88,24.78,24.78,0,0,1,11-2.56h4.64a24.63,24.63,0,0,1,10.88,2.56,26.56,26.56,0,0,1,9,6.88,34.7,34.7,0,0,1,6.08,10.32,36.36,36.36,0,0,1,2.16,12.56,35.91,35.91,0,0,1-2.16,12.56,34.7,34.7,0,0,1-6.08,10.32,26.56,26.56,0,0,1-9,6.88,24.63,24.63,0,0,1-10.88,2.56h-4.64a24.78,24.78,0,0,1-11-2.56A26.7,26.7,0,0,1,354,55.2a30.73,30.73,0,0,1-6-10.32A34.24,34.24,0,0,1,345.75,32.32Zm8.72,0A48.87,48.87,0,0,0,356,44.56a33.28,33.28,0,0,0,4.44,10.24A17.28,17.28,0,0,0,363,58.24,20.47,20.47,0,0,0,367.87,62a37.47,37.47,0,0,0,3.8,1.8l1.52.32a8.26,8.26,0,0,0,1.68.16h2.4a7.23,7.23,0,0,0,1.6-.16c.48-.11,1-.21,1.6-.32q1.35-.55,3.72-1.8a22.25,22.25,0,0,0,4.92-3.72c.42-.48.86-1,1.32-1.6s.89-1.2,1.32-1.84a34.59,34.59,0,0,0,4.48-10.24,48,48,0,0,0,1.52-12.24,48,48,0,0,0-1.52-12.24,34.59,34.59,0,0,0-4.48-10.24c-.43-.64-.87-1.25-1.32-1.84s-.9-1.12-1.32-1.6a22.25,22.25,0,0,0-4.92-3.72q-2.37-1.25-3.72-1.8L378.87.6a9.83,9.83,0,0,0-1.6-.12h-2.4a12.93,12.93,0,0,0-3.2.4,37.47,37.47,0,0,0-3.8,1.8A20.47,20.47,0,0,0,363,6.4a15.87,15.87,0,0,0-1.4,1.6,16,16,0,0,0-1.24,1.84A33.28,33.28,0,0,0,356,20.08,48.87,48.87,0,0,0,354.47,32.32Z"/><path class="cls-2" d="M482.47.88v.56h-1.2a21.25,21.25,0,0,0-3.4.36,14.45,14.45,0,0,0-4.12,1.36,10,10,0,0,0-3.48,2.92,8.15,8.15,0,0,0-1.48,5.12V64.88h-.64L421.11,6V54.48a8.28,8.28,0,0,0,1.48,5.2,10,10,0,0,0,3.48,2.92A14.45,14.45,0,0,0,430.19,64a21.25,21.25,0,0,0,3.4.36h1.2v.56h-28v-.56H408a21.48,21.48,0,0,0,3.4-.36,14.66,14.66,0,0,0,4.12-1.36A10.15,10.15,0,0,0,419,59.68a8.34,8.34,0,0,0,1.48-5.2V9c0-1.28,0-2.39-.08-3.32a4.8,4.8,0,0,0-.72-2.36,3.71,3.71,0,0,0-2.12-1.4,16.08,16.08,0,0,0-4.28-.44h-2.48V.88h17.12l40.24,50V11.2a8.22,8.22,0,0,0-1.48-5.12,10.15,10.15,0,0,0-3.48-2.92,14.66,14.66,0,0,0-4.12-1.36,21.48,21.48,0,0,0-3.4-.36h-1.2V.88h28Z"/><path class="cls-2" d="M488.7,44.56h.64a20,20,0,0,0,.4,3.72,29.5,29.5,0,0,0,1.12,4.08,24.75,24.75,0,0,0,1.76,3.88,11.42,11.42,0,0,0,2.32,3,19.45,19.45,0,0,0,5.76,3.48A19.78,19.78,0,0,0,507.51,64h.71a22.1,22.1,0,0,0,6.8-1.36,13,13,0,0,0,5.44-4.56,11.77,11.77,0,0,0,2.12-6.36,12.36,12.36,0,0,0-1.88-6.8,15.86,15.86,0,0,0-6.56-5.8l-10.08-5.2a29.81,29.81,0,0,1-8-5.64,19.13,19.13,0,0,1-4.2-6.32,14.08,14.08,0,0,1-.92-6.44,15.21,15.21,0,0,1,1.92-6,17.63,17.63,0,0,1,4.28-5,21.77,21.77,0,0,1,6.12-3.44,14.29,14.29,0,0,1,3.2-.88A22.12,22.12,0,0,1,509.74,0a19.32,19.32,0,0,1,7.2,1.36c.86.32,1.76.64,2.72,1a10.87,10.87,0,0,0,2.88.56,5.93,5.93,0,0,0,2.72-.48A5.08,5.08,0,0,0,527.51.24h.55V17.6h-.64a12.83,12.83,0,0,0-.52-3.52,19.32,19.32,0,0,0-1.39-3.56,22.43,22.43,0,0,0-2-3.2,19,19,0,0,0-2.25-2.52A15.91,15.91,0,0,0,516,1.64,18,18,0,0,0,509.74.56a20.16,20.16,0,0,0-2.76.2,16.58,16.58,0,0,0-2.68.6,11.51,11.51,0,0,0-5.72,3.84,8.19,8.19,0,0,0-1.68,6.08,14.24,14.24,0,0,0,3.56,7.32q3.21,3.88,10,7.72l9.2,4.72a23.26,23.26,0,0,1,7,5.48,16.75,16.75,0,0,1,3.52,6.6,14.18,14.18,0,0,1,.08,6.88,14.79,14.79,0,0,1-3.32,6.36,21.5,21.5,0,0,1-6.68,5,31.25,31.25,0,0,1-10,2.92h.16l-1.16.12c-.34,0-.7,0-1.08,0h-.8a18.32,18.32,0,0,1-7-1.36v0a6.63,6.63,0,0,1-.8-.32,14.59,14.59,0,0,0-5.28-1.24,6.77,6.77,0,0,0-3.08.64,3.43,3.43,0,0,0-1.48,1.44q-.39.84-.48,1.08v.08h-.56Z"/><path class="cls-3" d="M24,96.23q3.8-4.11,7.44-8.65t7.36-9l2.39-3A4.43,4.43,0,0,0,42.42,74a1.41,1.41,0,0,1,1.86-.6.84.84,0,0,1-.11,1.15,2.93,2.93,0,0,0-.69.85q-4.9,6.6-9.95,12.85T23.17,100.83q-1.59,9.3-3.64,18.25a66,66,0,0,1-5.86,16.15q-1.29,2.29-2.75,4.45a11.92,11.92,0,0,1-3.75,3.55,14.83,14.83,0,0,1-1.64.5,5,5,0,0,1-2,0,5,5,0,0,1-2.94-3,12,12,0,0,1-.6-4.75,26.11,26.11,0,0,1,.85-5.25A37.58,37.58,0,0,1,2.38,126a50,50,0,0,1,2.4-5.1q1.29-2.4,2.39-4.4a93.73,93.73,0,0,1,6-8.5q3.15-4,6.44-7.8,1.41-7.41,2.71-14.8t2.1-15.3a2.16,2.16,0,0,0-1,1,10,10,0,0,1-.94,1.35,39.71,39.71,0,0,0-3.16,4.5q-1.44,2.4-2.94,4.75c-1,1.56-2.06,3.08-3.15,4.55a25.34,25.34,0,0,1-3.75,4,2.08,2.08,0,0,0-.81.3,2.25,2.25,0,0,1-.79.3H6.78a3.62,3.62,0,0,1-2.4-1.75,9.56,9.56,0,0,1-1.25-3.4,16.61,16.61,0,0,1-.21-4.15,23,23,0,0,1,.65-4.1,6.08,6.08,0,0,1,.75-1.9,1.53,1.53,0,0,1,1.56-.8.93.93,0,0,1,.94.7,4.77,4.77,0,0,1,.25,1.65,12.84,12.84,0,0,1-.15,2,13,13,0,0,0-.14,1.85c0,1.2,0,2.4,0,3.6a6.38,6.38,0,0,0,.75,3,13.3,13.3,0,0,0,4.85-4.35q1.86-2.76,4-5.35a29.31,29.31,0,0,1,1.9-2.65c.66-.84,1.29-1.72,1.89-2.65a10,10,0,0,0,2-2.65,4.3,4.3,0,0,1,2.4-2.15c.6-.2,1.1.06,1.5.8a5.35,5.35,0,0,1,.56,3.25c-.1,1.43-.19,2.71-.25,3.85-.34,3.46-.71,7.05-1.1,10.75S24.44,93.36,24,96.23ZM8.07,121a55.81,55.81,0,0,0-3,6.5,28.88,28.88,0,0,0-1.79,7.8,17.37,17.37,0,0,0,0,2.7,2.78,2.78,0,0,0,1.29,2.2,7.33,7.33,0,0,0,3.21-2.75,44.06,44.06,0,0,0,2.2-3.85,67.47,67.47,0,0,0,5-13.35q1.89-7.26,3.5-14.55a.09.09,0,0,0-.1-.1q-2.71,3.5-5.35,7.3A80.52,80.52,0,0,0,8.07,121Z"/><path class="cls-3" d="M48,72.83a7.74,7.74,0,0,1,5.35,2.1A9.56,9.56,0,0,1,55.77,80c2.14-.4,4.35-.85,6.65-1.35s4.55-1,6.75-1.55a8.81,8.81,0,0,0,1-.35,7.59,7.59,0,0,1,1.25-.4,3.42,3.42,0,0,1,1.15-.1.79.79,0,0,1,.7.45.61.61,0,0,1-.2.8,4.63,4.63,0,0,1-1,.55,7.92,7.92,0,0,1-1.3.4,10.07,10.07,0,0,0-1,.25c-2.13.66-4.38,1.25-6.75,1.75s-4.71,1-7.05,1.45a20.79,20.79,0,0,1-.85,7.25,25.06,25.06,0,0,1-2.75,6.15,31.28,31.28,0,0,1-3.85,4.8,11.13,11.13,0,0,1-5.25,3h-1.5a4.19,4.19,0,0,1-1.7-.75,16.15,16.15,0,0,1-1.3-1.15,8.83,8.83,0,0,1-1.55-4.35,26.16,26.16,0,0,1,.05-5.3,47.51,47.51,0,0,1,.9-5.4c.4-1.77.77-3.35,1.1-4.75a4,4,0,0,1-.05-3.6,7.83,7.83,0,0,1,2-2.6,15.76,15.76,0,0,0,.75-2.1,18.46,18.46,0,0,1,.85-2.3A7,7,0,0,1,44,68.93a2.53,2.53,0,0,1,1.95-.8,2,2,0,0,1,2,1.45A5.29,5.29,0,0,1,48,72.83Zm-4.8,10.4q-.49,2.89-1.25,6.25a24.84,24.84,0,0,0-.55,6.85,10,10,0,0,0,.35,1.7,2.56,2.56,0,0,0,1,1.3,7.75,7.75,0,0,0,4.6-2.4c1.14-1.27,2.2-2.57,3.2-3.9a38.43,38.43,0,0,0,2.4-4.85,12,12,0,0,0,.8-5.85,47.27,47.27,0,0,1-5.1.75A44.27,44.27,0,0,1,43.17,83.23Zm4.4-8.3a3.11,3.11,0,0,0-.2,1.15.67.67,0,0,1-.6.75,1.64,1.64,0,0,1-.45,0L46,76.63a1.84,1.84,0,0,1-.1-1.4,4.36,4.36,0,0,0-.75,1.3q-.24.69-.45,1.5a15.56,15.56,0,0,0-.5,1.6c-.13.53-.26,1.06-.4,1.6,1.87,0,3.6-.07,5.2-.2s3.17-.34,4.7-.6a7.88,7.88,0,0,0-1.85-4A5.8,5.8,0,0,0,47.57,74.93Z"/><path class="cls-3" d="M73.47,90.73a1.84,1.84,0,0,0,.85-.75c.24-.37.45-.72.65-1,.74-.94,1.45-1.94,2.15-3s1.42-2.07,2.15-3c.47-.74.94-1.44,1.4-2.1a21.61,21.61,0,0,1,1.5-1.9,15.35,15.35,0,0,0,1.7-1.8,2.66,2.66,0,0,1,2.4-.9,2.47,2.47,0,0,1,1.75.85,5.69,5.69,0,0,1,1,1.8,13.1,13.1,0,0,1,.65,2.35q.25,1.29.45,2.4c.14.66.3,1.38.5,2.15s.44,1.51.7,2.25.57,1.35.9,2a2.09,2.09,0,0,0,1.4,1.25,2.06,2.06,0,0,0,1.45-.15,9.64,9.64,0,0,0,1.45-.85,10.64,10.64,0,0,0,1.3-1.1l.9-.9a19.66,19.66,0,0,0,2-2.1,28.64,28.64,0,0,1,2-2.2c.94-1.14,1.89-2.25,2.85-3.35s1.92-2.25,2.85-3.45a7.16,7.16,0,0,0,.8-1.3,1.18,1.18,0,0,1,1.3-.7,1.15,1.15,0,0,1,.35,1.55,9.17,9.17,0,0,1-.85,1.35c-.33.46-.66.91-1,1.35l-.9,1.15c-1.4,1.66-2.86,3.46-4.4,5.4a40.56,40.56,0,0,1-4.9,5.2,23.08,23.08,0,0,1-2.85,2,4.2,4.2,0,0,1-3.85,0,6.88,6.88,0,0,1-2.35-2.75,20.32,20.32,0,0,1-1.35-3.75c-.33-1.34-.65-2.7-1-4.1a14.59,14.59,0,0,0-1.35-3.8,5.69,5.69,0,0,0-1.85,1.6c-.5.66-1,1.36-1.55,2.1s-1,1.45-1.45,2.15-.88,1.41-1.35,2.15q-1.39,2.19-2.7,4.4a9.53,9.53,0,0,1-3.6,3.5,2.86,2.86,0,0,1-1.85-.2,4.28,4.28,0,0,1-1.25-1,13.35,13.35,0,0,1-.8-4.2,43.5,43.5,0,0,1,.1-5c.14-1.7.34-3.37.6-5s.54-3.15.8-4.55c.07-.47.14-1,.2-1.55a9.86,9.86,0,0,1,.35-1.65,5.68,5.68,0,0,1,.6-1.35,1.34,1.34,0,0,1,1-.65,1.06,1.06,0,0,1,.9.15,2.35,2.35,0,0,1,.5.55,5.41,5.41,0,0,1,.1,2.75,11.17,11.17,0,0,0-.2,2.95c-.33,2.26-.61,4.6-.85,7S73.47,88.06,73.47,90.73Z"/><path class="cls-3" d="M139.47,78.63a1.35,1.35,0,0,1-1.15-.1,2.68,2.68,0,0,1-.75-.75,4.67,4.67,0,0,1-.5-1,3.41,3.41,0,0,0-.5-1,7.75,7.75,0,0,0-3.4,3.25,23.75,23.75,0,0,0-2.1,4.75,22.82,22.82,0,0,0-.7,2.75,20.29,20.29,0,0,0-.35,3.1,10.46,10.46,0,0,0,.3,2.9,3.36,3.36,0,0,0,1.45,2,8.31,8.31,0,0,0,4.5-1.7,41.14,41.14,0,0,1,3.5-2.6q3.49-2.61,6.8-5.35t6.7-5.55c.53-.4,1.08-.84,1.65-1.3a21.4,21.4,0,0,1,1.75-1.3,3.66,3.66,0,0,1,.85-.6q.55-.3,1-.6c.33-.14.68-.3,1.05-.5s.68-.1.95.3.12.9-.25,1.1a4,4,0,0,0-.95.7c-.93.66-1.82,1.35-2.65,2l-2.55,2.15q-3.71,3.09-7.35,6.65a83.75,83.75,0,0,1-7.75,6.65,30.72,30.72,0,0,1-3.8,2.45,6.32,6.32,0,0,1-4.9.35,5.12,5.12,0,0,1-2.55-2.85,13.64,13.64,0,0,1-.85-4.3,20.22,20.22,0,0,1,.4-4.8,26.61,26.61,0,0,1,1.3-4.45,18.74,18.74,0,0,1,5.5-7.9c.33-.14.6-.25.8-.35a3,3,0,0,1,.8-.25c.07,0,.1,0,.1,0s0,0,.1,0h.9a3.13,3.13,0,0,1,.8.1,3.76,3.76,0,0,1,2.2,2.9,7.3,7.3,0,0,0,0,1.75A1.43,1.43,0,0,1,139.47,78.63Z"/><path class="cls-3" d="M171.67,73.83q-1.9,2.49-3.7,5.4t-3.6,5.6q-1.31,1.89-2.7,4.1a20.68,20.68,0,0,1-3.2,3.9,7.35,7.35,0,0,1-1.4,1.25,2.21,2.21,0,0,1-1.9.25,2.74,2.74,0,0,1-1.4-2.2,31.06,31.06,0,0,1,1.85-8.7,40.76,40.76,0,0,1,3.55-7.4c.47-.74,1-1.47,1.55-2.2a5.36,5.36,0,0,1,1.85-1.6,2.85,2.85,0,0,1,3.35.15c1,.76,1.32,2,1.05,3.65a5.52,5.52,0,0,0,1.15-1.6c.43-.8.9-1.62,1.4-2.45a15.76,15.76,0,0,1,1.6-2.25,2.75,2.75,0,0,1,1.75-1.1,2.11,2.11,0,0,1,.7.1l.6.2a4.6,4.6,0,0,1,1,1.9q-.19,6-.8,11.35t-.9,11.35v1.8c0,.73,0,1.46-.1,2.2a10.32,10.32,0,0,1-.35,2c-.17.56-.45.85-.85.85a1.13,1.13,0,0,1-1-.65,5.2,5.2,0,0,1-.5-1.6,12.61,12.61,0,0,1-.15-2,9.74,9.74,0,0,0-.1-1.6,55.83,55.83,0,0,1,.2-10.6Q171.17,78.72,171.67,73.83Zm-7.2.2c0-.07,0-.1-.1-.1a2.5,2.5,0,0,0-.55.25,3.07,3.07,0,0,1-.55.25,20.88,20.88,0,0,0-2.5,3.55,42.31,42.31,0,0,0-2,4c-.53,1.4-1.05,2.88-1.55,4.45a22.17,22.17,0,0,0-.95,5,35.25,35.25,0,0,0,5-6.45q2.25-3.66,4.55-7.15a4.07,4.07,0,0,1-.5-2.15A1.7,1.7,0,0,0,164.47,74Z"/><path class="cls-3" d="M185.27,90.63c1.33-2.54,2.67-5.12,4-7.75a36.39,36.39,0,0,1,4.7-7.15c.27-.34.6-.74,1-1.2a7,7,0,0,1,1.3-1.2,4.19,4.19,0,0,1,1.55-.7,3,3,0,0,1,1.85.2,4.56,4.56,0,0,1,2.2,3.1q.7,2.4,1.2,4.8c.13.73.28,1.5.45,2.3s.35,1.6.55,2.4a17.43,17.43,0,0,0,.8,2.25,2.16,2.16,0,0,0,1.2,1.35,1.7,1.7,0,0,0,1.5-.35,12.34,12.34,0,0,1,1.2-.85c.4-.34.77-.62,1.1-.85a8.38,8.38,0,0,0,1-.85,43.81,43.81,0,0,0,4.2-4.2,51.3,51.3,0,0,1,4.2-4.3A15.16,15.16,0,0,1,221,76.48a2.47,2.47,0,0,1,1.2-.35c.37,0,.58.23.65.7s-.15.73-.65,1a4.67,4.67,0,0,0-1.15.8,25.31,25.31,0,0,0-2.8,2.85c-.93,1.1-1.93,2.21-3,3.35-.53.53-1.05,1-1.55,1.5s-1,1-1.55,1.5c-.87.86-1.8,1.71-2.8,2.55a5.91,5.91,0,0,1-3.9,1.25,3.18,3.18,0,0,0-.45-.2,1.42,1.42,0,0,0-.55-.1,6.21,6.21,0,0,1-2.45-3.1A31.44,31.44,0,0,1,200.77,84c-.33-1.5-.65-3-1-4.5a13.8,13.8,0,0,0-1.45-4,5.92,5.92,0,0,0-2.6,2.25,34.29,34.29,0,0,1-2,2.85,45.53,45.53,0,0,0-3.4,6.2c-1,2.2-2,4.46-2.9,6.8a5.92,5.92,0,0,0-.7,1.55,17.15,17.15,0,0,1-.7,1.85,5.3,5.3,0,0,1-1,1.55,1.87,1.87,0,0,1-1.75.45,1.67,1.67,0,0,1-1.35-1.05,6.41,6.41,0,0,1-.55-2.2,26.35,26.35,0,0,1-.05-2.7c0-1,.09-1.85.15-2.65q.41-4.8,1.1-9.35a56.21,56.21,0,0,1,1.9-8.35c.27-.74.5-1.4.7-2a1.39,1.39,0,0,1,1.3-1,1.12,1.12,0,0,1,1.25.55,2.93,2.93,0,0,1,.3,1.55,10.54,10.54,0,0,1-.3,2c-.17.7-.28,1.28-.35,1.75q-.7,3.79-1.2,7.6T185.27,90.63Z"/><path class="cls-3" d="M259.37,53.23c-.33.2-.57.15-.7-.15a2.15,2.15,0,0,0-.4-.65,6,6,0,0,0-1.15-.85,2.35,2.35,0,0,0-1.75-.25,2.87,2.87,0,0,0-1.9,1.75c-.53,1-1,1.91-1.3,2.65a53.52,53.52,0,0,0-2.85,8.6q-1.15,4.69-1.95,9.2,4-1.5,8.5-3.3a60.34,60.34,0,0,1,9.5-2.9,39.06,39.06,0,0,1,4.95-.75,11.42,11.42,0,0,1,4.95.55c.33.13.7.3,1.1.5a1,1,0,0,1,.5,1.1,1.65,1.65,0,0,1-1.8.3,7.16,7.16,0,0,0-2.1-.5,11.58,11.58,0,0,0-3.9.25c-1.27.3-2.5.61-3.7,1s-2.35.68-3.45,1-2.12.75-3.05,1.15a66,66,0,0,0-6.3,2.45q-3,1.35-5.9,2.85c-.33,2.06-.63,4.2-.9,6.4s-.53,4.46-.8,6.8c-.07.73-.15,1.48-.25,2.25a10,10,0,0,0-.05,2.25,8.23,8.23,0,0,0,.4,1.65,16.2,16.2,0,0,1,.5,1.65,64,64,0,0,1,1.6,18.9c0,.73,0,1.48-.1,2.25a10.16,10.16,0,0,1-.4,2.1,3.76,3.76,0,0,1-.9,1.55,2.16,2.16,0,0,1-1.6.6,2,2,0,0,1-1.45-.55,3.74,3.74,0,0,1-.85-1.35,9.22,9.22,0,0,1-.45-1.7c-.1-.6-.18-1.17-.25-1.7a59.19,59.19,0,0,1-.85-9.55q0-4.95.25-10c.07-.67.15-1.34.25-2a7.19,7.19,0,0,0,.05-1.9,4.36,4.36,0,0,0-.55-1.6c-.3-.54-.58-1.07-.85-1.6a14.64,14.64,0,0,0-1.75-2.9l-2.05-2.6q-.49-.6-1-1.35a2.71,2.71,0,0,1-.55-1.65,2.91,2.91,0,0,1,.4-1.5,6.18,6.18,0,0,1,1-1.3,7.67,7.67,0,0,1,1.3-1c.47-.3.87-.59,1.2-.85.93-.6,1.82-1.12,2.65-1.55l2.75-1.45q.9-4.91,2.35-10.05A81.94,81.94,0,0,1,249,55.93a27.58,27.58,0,0,1,2.15-3.9,6.86,6.86,0,0,1,3.25-2.7c0,.06.07,0,.2-.1a3.56,3.56,0,0,1,2.3.45c.53.36,1.07.75,1.6,1.15a7,7,0,0,0,.85,1.1A.93.93,0,0,1,259.37,53.23ZM237.67,83a26.12,26.12,0,0,1,2.05,2.3,20.35,20.35,0,0,1,1.75,2.6c.2-1.4.38-2.82.55-4.25s.38-2.82.65-4.15l-.1-.1c-.87.6-1.73,1.16-2.6,1.7A10.31,10.31,0,0,0,237.67,83Z"/><path class="cls-3" d="M267.37,81a19.31,19.31,0,0,0-1.3,3.65,17,17,0,0,0-.6,4.4,7.54,7.54,0,0,0,.9,3.75,3.57,3.57,0,0,0,3.2,1.7,10,10,0,0,0,4.95-1.1,46,46,0,0,0,4.05-2.3c1.33-.94,2.58-1.85,3.75-2.75s2.22-1.79,3.15-2.65a57.75,57.75,0,0,0,4.95-4.3c1.57-1.54,3.12-3.1,4.65-4.7a2.48,2.48,0,0,0,.65-.8,8.16,8.16,0,0,1,.75-1.1,4.88,4.88,0,0,1,.85-.85.77.77,0,0,1,.95,0q.71.3.3,1.2a7.48,7.48,0,0,1-.7,1.3,3.48,3.48,0,0,1-.6,1.1c-.27.33-.53.7-.8,1.1q-2.5,2.9-5.25,5.5c-1.83,1.73-3.72,3.46-5.65,5.2a40.84,40.84,0,0,1-8.4,6,22.75,22.75,0,0,1-2.5,1.15,15,15,0,0,1-2.9.8,14.09,14.09,0,0,1-3,.15,6.21,6.21,0,0,1-2.85-.9,5,5,0,0,1-1.05-1l-.95-1.15a9.66,9.66,0,0,1-1.25-4.25,19.08,19.08,0,0,1,.3-4.75,29.33,29.33,0,0,1,1.25-4.6,28.88,28.88,0,0,1,1.6-3.7,41,41,0,0,1,4-5.9,11.7,11.7,0,0,1,6.1-3.8,4.79,4.79,0,0,1,3.35.9,3.43,3.43,0,0,1,1,3.2,6.47,6.47,0,0,1-1.2,3A21.15,21.15,0,0,1,277,77a22.58,22.58,0,0,1-4,3.15A8.25,8.25,0,0,1,267.37,81Zm9.3-10.7a10.35,10.35,0,0,0-5.3,3.65,36.56,36.56,0,0,0-3.4,5.55,6.28,6.28,0,0,0,3.7-1,29,29,0,0,0,2.6-2.1c.73-.8,1.5-1.6,2.3-2.4a4.3,4.3,0,0,0,1.1-3.4A1.07,1.07,0,0,0,276.67,70.33Z"/><path class="cls-3" d="M296.27,81a19.31,19.31,0,0,0-1.3,3.65,17,17,0,0,0-.6,4.4,7.54,7.54,0,0,0,.9,3.75,3.56,3.56,0,0,0,3.2,1.7,10,10,0,0,0,4.95-1.1q2.34-1.2,4.05-2.3c1.33-.94,2.58-1.85,3.75-2.75s2.21-1.79,3.15-2.65a57.75,57.75,0,0,0,4.95-4.3c1.56-1.54,3.11-3.1,4.65-4.7a2.62,2.62,0,0,0,.65-.8,8.16,8.16,0,0,1,.75-1.1,4.56,4.56,0,0,1,.85-.85.77.77,0,0,1,.95,0q.69.3.3,1.2a7.48,7.48,0,0,1-.7,1.3,3.93,3.93,0,0,1-.6,1.1,12.52,12.52,0,0,0-.8,1.1q-2.5,2.9-5.25,5.5t-5.65,5.2a41.39,41.39,0,0,1-8.4,6,23.64,23.64,0,0,1-2.5,1.15,15.19,15.19,0,0,1-2.9.8,14.09,14.09,0,0,1-3.05.15,6.13,6.13,0,0,1-2.85-.9,5,5,0,0,1-1-1l-1-1.15a9.66,9.66,0,0,1-1.25-4.25,19.08,19.08,0,0,1,.3-4.75,29.33,29.33,0,0,1,1.25-4.6,28.88,28.88,0,0,1,1.6-3.7,41,41,0,0,1,4-5.9,11.66,11.66,0,0,1,6.1-3.8,4.8,4.8,0,0,1,3.35.9,3.43,3.43,0,0,1,1.05,3.2,6.7,6.7,0,0,1-1.2,3,21.15,21.15,0,0,1-2.1,2.5,22.58,22.58,0,0,1-3.95,3.15A8.26,8.26,0,0,1,296.27,81Zm9.3-10.7a10.31,10.31,0,0,0-5.3,3.65,36.56,36.56,0,0,0-3.4,5.55,6.3,6.3,0,0,0,3.7-1,29,29,0,0,0,2.6-2.1c.73-.8,1.5-1.6,2.3-2.4a4.34,4.34,0,0,0,1.1-3.4A1.07,1.07,0,0,0,305.57,70.33Z"/><path class="cls-3" d="M329.07,35.23l.1-.1a1.62,1.62,0,0,1,1.8,1.3,10.64,10.64,0,0,1,.3,2.4,44.77,44.77,0,0,1-.35,8.15q-.56,3.95-.95,7.75-.51,5.19-1,10.55c-.34,3.56-.64,7.15-.9,10.75q-.6,9.5-1.3,19a176.85,176.85,0,0,0-.3,20,10.92,10.92,0,0,0,.1,1.4,13.89,13.89,0,0,1,.1,1.55,4.35,4.35,0,0,1-.2,1.35.79.79,0,0,1-.8.6,1.42,1.42,0,0,1-1.75-1.2,15.11,15.11,0,0,1-.45-2.6,31,31,0,0,1-.25-3.1q-.06-1.5-.15-2.7c.06-2,.06-4,0-6s-.07-3.85,0-5.65q.09-14.5,1.2-27.55t2.8-26.15l.6-5.1a21.85,21.85,0,0,0,.25-2.45,3.27,3.27,0,0,1,.85-2.15Z"/><path class="cls-3" d="M376.47,93.53q2.89-3.51,5.75-7.25A78.13,78.13,0,0,1,388.47,79c.73-.74,1.5-1.49,2.3-2.25a4.85,4.85,0,0,1,2.9-1.35,1.38,1.38,0,0,1,.75.7,1.2,1.2,0,0,1-.05,1.1.92.92,0,0,1-.65.2.9.9,0,0,1-.65-.2,83.2,83.2,0,0,0-9.15,10.1q-4.16,5.4-8.15,11.1-1.61,10.59-4.1,20.75a125.11,125.11,0,0,1-6.3,19,26.43,26.43,0,0,1-1.25,2.7c-.5.93-1,1.86-1.55,2.8q-.51.9-1.05,1.8a10.6,10.6,0,0,1-1.2,1.6,5.42,5.42,0,0,1-1.6,1.15,5.25,5.25,0,0,1-2.25.45c0,.06-.07,0-.2-.1a1.71,1.71,0,0,1-.65-.3,3.48,3.48,0,0,0-.65-.4,1.55,1.55,0,0,0-.5-.6,9.8,9.8,0,0,1-.8-3.5,19.49,19.49,0,0,1,.15-3.75,31.77,31.77,0,0,1,.7-3.65c.3-1.2.58-2.3.85-3.3.66-2.2,1.4-4.32,2.2-6.35s1.6-4,2.4-5.85a155.18,155.18,0,0,1,12.2-21.3q.49-3.21.95-6.7c.3-2.34.51-4.7.65-7.1s.31-4.8.35-7.4a23.12,23.12,0,0,0-.85-6.9,2.14,2.14,0,0,0-1.2,1c-.34.5-.67,1-1,1.35a17.35,17.35,0,0,1,1,2.7,6.22,6.22,0,0,0,.6,1.4,1.18,1.18,0,0,1,0,1.3c-.54.2-.92.11-1.15-.25a3.37,3.37,0,0,0-.75-.85c-.2-.34-.42-.67-.65-1a4.75,4.75,0,0,1-.55-1,31.85,31.85,0,0,0-2.7,4c-.8,1.4-1.67,2.76-2.6,4.1-.4.53-.89,1.25-1.45,2.15a16.3,16.3,0,0,1-1.95,2.5,7,7,0,0,1-2.35,1.65,2.91,2.91,0,0,1-2.75-.5,4.22,4.22,0,0,1-.9-2.45,12.25,12.25,0,0,1,.15-3,16.79,16.79,0,0,1,.75-2.95,25.73,25.73,0,0,1,1-2.55,26.21,26.21,0,0,1,1.8-3.55,14.73,14.73,0,0,1,2.2-2.85,9.83,9.83,0,0,1,1.5-1.2,6.73,6.73,0,0,1,2-.9,6.29,6.29,0,0,1,2.25-.2,4.92,4.92,0,0,1,2.15.7,5.36,5.36,0,0,0,1.15-1.1,7.5,7.5,0,0,1,1.2-1.25,3.88,3.88,0,0,1,1.5-.8,3.06,3.06,0,0,1,2,.15,3.7,3.7,0,0,1,.8.55,3.83,3.83,0,0,1,.6.65,6.34,6.34,0,0,1,1.05,2.25,16,16,0,0,1,.45,2.9c.06,1,.1,2.11.1,3.25s0,2.23-.1,3.3q-.21,3.5-.4,6.7C376.83,89.86,376.67,91.79,376.47,93.53Zm-18.1,40.2c-.54,1.73-1,3.56-1.4,5.5a14,14,0,0,0,.1,6,9.31,9.31,0,0,0,2.9-3.65q1.09-2.36,2.1-4.55a94.77,94.77,0,0,0,5.3-14.85q2.1-7.86,3.8-16.35c0-.07,0-.07-.1,0q-3.7,6.39-7.1,13.2A81,81,0,0,0,358.37,133.73Zm4.7-58.5a20.05,20.05,0,0,0-3.15,5,22.62,22.62,0,0,0-1.75,6.45,27.8,27.8,0,0,0,4.55-6.1q1.95-3.51,4.15-6.7a2.62,2.62,0,0,0-2.2.3C364.13,74.53,363.6,74.89,363.07,75.23Z"/><path class="cls-3" d="M399.77,72.83a7.78,7.78,0,0,1,5.35,2.1,9.63,9.63,0,0,1,2.45,5.1q3.19-.6,6.65-1.35T421,77.13a9.55,9.55,0,0,0,1-.35,7.29,7.29,0,0,1,1.25-.4,3.38,3.38,0,0,1,1.15-.1.81.81,0,0,1,.7.45.63.63,0,0,1-.2.8,4.88,4.88,0,0,1-1,.55,8.23,8.23,0,0,1-1.3.4,9.37,9.37,0,0,0-1,.25c-2.14.66-4.39,1.25-6.75,1.75s-4.72,1-7.05,1.45a21,21,0,0,1-.85,7.25,25.44,25.44,0,0,1-2.75,6.15,32.53,32.53,0,0,1-3.85,4.8,11.22,11.22,0,0,1-5.25,3h-1.5a4.07,4.07,0,0,1-1.7-.75,14.59,14.59,0,0,1-1.3-1.15A8.64,8.64,0,0,1,389,96.88a25.45,25.45,0,0,1,.05-5.3,47.51,47.51,0,0,1,.9-5.4c.4-1.77.76-3.35,1.1-4.75a3.92,3.92,0,0,1-.05-3.6,7.57,7.57,0,0,1,2-2.6,19.19,19.19,0,0,0,.75-2.1,15.75,15.75,0,0,1,.85-2.3,6.74,6.74,0,0,1,1.25-1.9,2.53,2.53,0,0,1,1.95-.8,2,2,0,0,1,2,1.45A5.44,5.44,0,0,1,399.77,72.83ZM395,83.23c-.34,1.93-.75,4-1.25,6.25a24.46,24.46,0,0,0-.55,6.85,8.4,8.4,0,0,0,.35,1.7,2.45,2.45,0,0,0,1,1.3,7.81,7.81,0,0,0,4.6-2.4q1.69-1.91,3.2-3.9a41.34,41.34,0,0,0,2.4-4.85,12.15,12.15,0,0,0,.8-5.85,47.27,47.27,0,0,1-5.1.75A44.27,44.27,0,0,1,395,83.23Zm4.4-8.3a2.92,2.92,0,0,0-.2,1.15.67.67,0,0,1-.6.75,1.64,1.64,0,0,1-.45,0l-.35-.15a1.8,1.8,0,0,1-.1-1.4,4,4,0,0,0-.75,1.3,13.33,13.33,0,0,0-.45,1.5,13.43,13.43,0,0,0-.5,1.6c-.14.53-.27,1.06-.4,1.6,1.86,0,3.6-.07,5.2-.2s3.16-.34,4.7-.6a8,8,0,0,0-1.85-4A5.81,5.81,0,0,0,399.37,74.93Z"/><path class="cls-3" d="M430.16,72.83a7.74,7.74,0,0,1,5.35,2.1A9.56,9.56,0,0,1,438,80c2.14-.4,4.35-.85,6.65-1.35s4.55-1,6.75-1.55a8.81,8.81,0,0,0,1-.35,7.59,7.59,0,0,1,1.25-.4,3.42,3.42,0,0,1,1.15-.1.79.79,0,0,1,.7.45.61.61,0,0,1-.2.8,4.63,4.63,0,0,1-1,.55,7.92,7.92,0,0,1-1.3.4,10.07,10.07,0,0,0-1,.25c-2.13.66-4.38,1.25-6.75,1.75s-4.71,1-7,1.45a20.79,20.79,0,0,1-.85,7.25,25.06,25.06,0,0,1-2.75,6.15,31.28,31.28,0,0,1-3.85,4.8,11.13,11.13,0,0,1-5.25,3H424a4.19,4.19,0,0,1-1.7-.75,16.15,16.15,0,0,1-1.3-1.15,8.83,8.83,0,0,1-1.55-4.35,26.16,26.16,0,0,1,0-5.3,47.51,47.51,0,0,1,.9-5.4c.4-1.77.77-3.35,1.1-4.75a4,4,0,0,1,0-3.6,7.83,7.83,0,0,1,1.95-2.6,15.76,15.76,0,0,0,.75-2.1,18.46,18.46,0,0,1,.85-2.3,7,7,0,0,1,1.25-1.9,2.53,2.53,0,0,1,2-.8,2,2,0,0,1,2,1.45A5.29,5.29,0,0,1,430.16,72.83Zm-4.8,10.4q-.5,2.89-1.25,6.25a24.84,24.84,0,0,0-.55,6.85,10,10,0,0,0,.35,1.7,2.56,2.56,0,0,0,.95,1.3,7.75,7.75,0,0,0,4.6-2.4c1.14-1.27,2.2-2.57,3.2-3.9a38.43,38.43,0,0,0,2.4-4.85,12,12,0,0,0,.8-5.85,47.27,47.27,0,0,1-5.1.75A44.27,44.27,0,0,1,425.36,83.23Zm4.4-8.3a3.11,3.11,0,0,0-.2,1.15.67.67,0,0,1-.6.75,1.64,1.64,0,0,1-.45,0l-.35-.15a1.84,1.84,0,0,1-.1-1.4,4.36,4.36,0,0,0-.75,1.3q-.24.69-.45,1.5a15.56,15.56,0,0,0-.5,1.6c-.13.53-.26,1.06-.4,1.6,1.87,0,3.6-.07,5.2-.2s3.17-.34,4.7-.6a7.88,7.88,0,0,0-1.85-4A5.8,5.8,0,0,0,429.76,74.93Z"/><path class="cls-3" d="M469.56,46.33a1.27,1.27,0,0,1,1,1,4.7,4.7,0,0,1,.05,1.85,17.94,17.94,0,0,1-.45,2.15,15.88,15.88,0,0,0-.4,1.8q-.79,4.4-1.55,9.25t-1.15,9.9q-.39,5-.35,10.2a69.84,69.84,0,0,0,.85,10.15,22.57,22.57,0,0,0,.6,2.9,8.15,8.15,0,0,0,1.2,2.5,6.46,6.46,0,0,0,2.7-2.3c.67-1,1.37-2,2.1-2.9a72.59,72.59,0,0,0,4.55-8,84.13,84.13,0,0,1,4.45-8,11.46,11.46,0,0,0,.95-1.6,1.34,1.34,0,0,1,1.45-.8,1.2,1.2,0,0,1,.2,1.6,14.79,14.79,0,0,1-.9,1.6c-.73,1.6-1.53,3.21-2.4,4.85s-1.7,3.21-2.5,4.75q-1.69,3.19-3.35,6.45a25.45,25.45,0,0,1-3.95,5.75,12.56,12.56,0,0,0-1.5,1.1,2.81,2.81,0,0,1-1.9.6,3.16,3.16,0,0,1-1.9-.85,6.44,6.44,0,0,1-1.3-1.75,11,11,0,0,1-.8-2.2c-.2-.8-.36-1.57-.5-2.3a49.42,49.42,0,0,1-.8-6.65q-.19-3.55-.15-7.1t.35-7q.3-3.45.7-6.45-.9,2.1-1.75,4.3c-.56,1.46-1.15,2.93-1.75,4.4a3.05,3.05,0,0,1,.35.7l.35.9a11,11,0,0,1,.3,1.6,2.38,2.38,0,0,1-.2,1.4,1,1,0,0,1-1.15-.35,3.52,3.52,0,0,0-.85-1c-.93,2.4-1.85,4.91-2.75,7.55a51.11,51.11,0,0,1-3.15,7.35,20.11,20.11,0,0,1-1.4,2.2,2.67,2.67,0,0,1-2.3,1.1,1.64,1.64,0,0,1-.9-.4,6.22,6.22,0,0,0-.7-.6,7.73,7.73,0,0,1-.7-4.25,37.72,37.72,0,0,1,.7-4.85,56.76,56.76,0,0,1,1.6-5.6,18.21,18.21,0,0,1,2.6-4.9,9.3,9.3,0,0,1,2.4-2.5,3.91,3.91,0,0,1,3.7-.4q2.31-5.2,4.4-11.55t4-12.45c.27-.74.5-1.42.7-2.05A1.55,1.55,0,0,1,469.56,46.33Zm-11.8,30.3a3.69,3.69,0,0,0-1.65,1.2,12.19,12.19,0,0,0-1.25,1.8,26.39,26.39,0,0,0-2.4,6.1,40.17,40.17,0,0,0-1.2,6.9,40.07,40.07,0,0,0,3.3-6.8q1.41-3.7,2.7-7.2c.14-.34.29-.67.45-1a1.49,1.49,0,0,0,.15-1Z"/><path class="cls-3" d="M518.66,73.83q-1.9,2.49-3.7,5.4t-3.6,5.6q-1.31,1.89-2.7,4.1a20.68,20.68,0,0,1-3.2,3.9,7.67,7.67,0,0,1-1.4,1.25,2.21,2.21,0,0,1-1.9.25,2.74,2.74,0,0,1-1.4-2.2,31.06,31.06,0,0,1,1.85-8.7,40.76,40.76,0,0,1,3.55-7.4c.47-.74,1-1.47,1.55-2.2a5.36,5.36,0,0,1,1.85-1.6,2.85,2.85,0,0,1,3.35.15c1,.76,1.32,2,1.05,3.65a5.52,5.52,0,0,0,1.15-1.6c.43-.8.9-1.62,1.4-2.45a15.76,15.76,0,0,1,1.6-2.25,2.75,2.75,0,0,1,1.75-1.1,2.11,2.11,0,0,1,.7.1l.6.2a4.6,4.6,0,0,1,1,1.9q-.2,6-.8,11.35t-.9,11.35v1.8c0,.73,0,1.46-.1,2.2a10.32,10.32,0,0,1-.35,2c-.17.56-.45.85-.85.85a1.13,1.13,0,0,1-1-.65,5.2,5.2,0,0,1-.5-1.6,12.61,12.61,0,0,1-.15-2,9.74,9.74,0,0,0-.1-1.6,55.83,55.83,0,0,1,.2-10.6Q518.16,78.72,518.66,73.83Zm-7.2.2c0-.07,0-.1-.1-.1a2.5,2.5,0,0,0-.55.25,3.07,3.07,0,0,1-.55.25,20.88,20.88,0,0,0-2.5,3.55,42.31,42.31,0,0,0-2,4c-.53,1.4-1.05,2.88-1.55,4.45a22.17,22.17,0,0,0-.95,5,35.25,35.25,0,0,0,5.05-6.45q2.25-3.66,4.55-7.15a4.07,4.07,0,0,1-.5-2.15A1.7,1.7,0,0,0,511.46,74Z"/><path class="cls-3" d="M548.06,84.53a47.12,47.12,0,0,1,6.15-4.4,75,75,0,0,1,7-3.8c.27-.14.63-.3,1.1-.5s.77,0,.9.5a1,1,0,0,1-.75,1.1c-.57.2-1,.33-1.25.4-.4.26-.78.5-1.15.7s-.72.4-1.05.6a55.71,55.71,0,0,0-6.5,4.1,63.33,63.33,0,0,0-5.8,4.8c-.47,1.13-1,2.26-1.55,3.4s-1.18,2.23-1.85,3.3-1.33,2.11-2,3.15a12.86,12.86,0,0,1-2.4,2.75,8.8,8.8,0,0,1-1.15.75,2.67,2.67,0,0,1-1.55.25.51.51,0,0,0-.35-.2.56.56,0,0,1-.35-.2,2.58,2.58,0,0,1-.25-2.35,10.64,10.64,0,0,1,1.05-2,10.84,10.84,0,0,1,1.2-1.9,19.47,19.47,0,0,0,1.2-1.7l2.75-3.35c.9-1.1,1.85-2.19,2.85-3.25.33-1.07.68-2.14,1-3.2a11.67,11.67,0,0,0,.55-3.8,7.67,7.67,0,0,0-3.05,2.45l-2.45,3.25a72.45,72.45,0,0,0-5.1,9.55,39.14,39.14,0,0,0-3.1,12,4.4,4.4,0,0,1-.8,2.3c-.4.46-1,.46-1.9,0a5.34,5.34,0,0,1-.85-2.8c0-1.07-.05-2.14-.05-3.2s-.08-2.29,0-3.45.09-2.32.15-3.45q.4-10.11,1.6-19.3a72.15,72.15,0,0,1,4.1-16.7q.3-.6.6-1.35a8.71,8.71,0,0,1,.7-1.4,2.45,2.45,0,0,1,1-.95,1.72,1.72,0,0,1,1.5.1c-.13.6-.3,1.3-.5,2.1s-.37,1.43-.5,1.9v-.4a22.62,22.62,0,0,0-1.1,3.8c-.27,1.33-.57,2.7-.9,4.1a107.61,107.61,0,0,0-1.85,13.2q-.55,6.9-1,14,1.2-2.91,2.45-5.65a31,31,0,0,1,3-5.15,29.42,29.42,0,0,1,3.5-4.7c.67-.67,1.37-1.34,2.1-2a5,5,0,0,1,2.9-1.2,2.05,2.05,0,0,1,1.8,1,5.26,5.26,0,0,1,.6,2.1,8.92,8.92,0,0,1-.15,2.5Zm-8.8,11.1a9.19,9.19,0,0,0-1.7,3.2,32.35,32.35,0,0,0,4-6.1Z"/><path class="cls-3" d="M569.26,72.83a7.76,7.76,0,0,1,5.35,2.1,9.63,9.63,0,0,1,2.45,5.1q3.2-.6,6.65-1.35t6.75-1.55a8.81,8.81,0,0,0,1-.35,7.59,7.59,0,0,1,1.25-.4,3.4,3.4,0,0,1,1.15-.1.81.81,0,0,1,.7.45.62.62,0,0,1-.2.8,4.88,4.88,0,0,1-1,.55,7.92,7.92,0,0,1-1.3.4,9.37,9.37,0,0,0-1,.25c-2.14.66-4.39,1.25-6.75,1.75s-4.72,1-7,1.45a21,21,0,0,1-.85,7.25,25.44,25.44,0,0,1-2.75,6.15,31.89,31.89,0,0,1-3.85,4.8,11.13,11.13,0,0,1-5.25,3h-1.5a4.13,4.13,0,0,1-1.7-.75,14.59,14.59,0,0,1-1.3-1.15,8.74,8.74,0,0,1-1.55-4.35,25.45,25.45,0,0,1,0-5.3,47.51,47.51,0,0,1,.9-5.4c.4-1.77.77-3.35,1.1-4.75a3.92,3.92,0,0,1,0-3.6,7.83,7.83,0,0,1,2-2.6,15.76,15.76,0,0,0,.75-2.1,17,17,0,0,1,.85-2.3,6.74,6.74,0,0,1,1.25-1.9,2.53,2.53,0,0,1,2-.8,2,2,0,0,1,2,1.45A5.44,5.44,0,0,1,569.26,72.83Zm-4.8,10.4q-.5,2.89-1.25,6.25a24.84,24.84,0,0,0-.55,6.85A9.14,9.14,0,0,0,563,98a2.45,2.45,0,0,0,1,1.3,7.81,7.81,0,0,0,4.6-2.4q1.7-1.91,3.2-3.9a39.83,39.83,0,0,0,2.4-4.85,12.15,12.15,0,0,0,.8-5.85,47.27,47.27,0,0,1-5.1.75A44.27,44.27,0,0,1,564.46,83.23Zm4.4-8.3a3.11,3.11,0,0,0-.2,1.15.67.67,0,0,1-.6.75,1.64,1.64,0,0,1-.45,0l-.35-.15a1.84,1.84,0,0,1-.1-1.4,4.36,4.36,0,0,0-.75,1.3A13.33,13.33,0,0,0,566,78a13.43,13.43,0,0,0-.5,1.6c-.13.53-.27,1.06-.4,1.6,1.86,0,3.6-.07,5.2-.2s3.16-.34,4.7-.6a7.88,7.88,0,0,0-1.85-4A5.81,5.81,0,0,0,568.86,74.93Z"/><path class="cls-3" d="M594.76,90.73a2,2,0,0,0,.85-.75l.65-1c.73-.94,1.45-1.94,2.15-3s1.41-2.07,2.15-3c.46-.74.93-1.44,1.4-2.1a18.42,18.42,0,0,1,1.5-1.9,16.24,16.24,0,0,0,1.7-1.8,2.64,2.64,0,0,1,2.4-.9,2.51,2.51,0,0,1,1.75.85,6.1,6.1,0,0,1,1.05,1.8,15,15,0,0,1,.65,2.35l.45,2.4c.13.66.3,1.38.5,2.15s.43,1.51.7,2.25.56,1.35.9,2a2.07,2.07,0,0,0,2.85,1.1,10.16,10.16,0,0,0,1.45-.85,11.45,11.45,0,0,0,1.3-1.1l.9-.9a20.71,20.71,0,0,0,2-2.1,26.72,26.72,0,0,1,2-2.2c.93-1.14,1.88-2.25,2.85-3.35s1.91-2.25,2.85-3.45a8.49,8.49,0,0,0,.8-1.3,1,1,0,1,1,1.65.85,10.09,10.09,0,0,1-.85,1.35l-1,1.35-.9,1.15q-2.1,2.49-4.4,5.4a42,42,0,0,1-4.9,5.2,24.7,24.7,0,0,1-2.85,2,4.2,4.2,0,0,1-3.85,0,6.8,6.8,0,0,1-2.35-2.75,19,19,0,0,1-1.35-3.75c-.34-1.34-.65-2.7-1-4.1a14.59,14.59,0,0,0-1.35-3.8,5.59,5.59,0,0,0-1.85,1.6c-.5.66-1,1.36-1.55,2.1s-1,1.45-1.45,2.15l-1.35,2.15q-1.41,2.19-2.7,4.4a9.68,9.68,0,0,1-3.6,3.5,2.85,2.85,0,0,1-1.85-.2,4.15,4.15,0,0,1-1.25-1,13.07,13.07,0,0,1-.8-4.2,41.31,41.31,0,0,1,.1-5c.13-1.7.33-3.37.6-5s.53-3.15.8-4.55c.07-.47.13-1,.2-1.55a9,9,0,0,1,.35-1.65,5,5,0,0,1,.6-1.35,1.32,1.32,0,0,1,.95-.65,1.06,1.06,0,0,1,.9.15,2.6,2.6,0,0,1,.5.55,5.53,5.53,0,0,1,.1,2.75,10.76,10.76,0,0,0-.2,2.95c-.34,2.26-.62,4.6-.85,7S594.76,88.06,594.76,90.73Z"/><path class="cls-3" d="M636.16,62.83q8.6-.3,17.9-.9a131.25,131.25,0,0,1,18.5.1,11,11,0,0,1,1.1,0,.85.85,0,0,1,.8.55c-.07.53-.32.8-.75.8a6.39,6.39,0,0,1-1.15-.1,178.23,178.23,0,0,0-18.5.15L636,64.53q-1.41,8.19-2.55,16.7a121.88,121.88,0,0,0-1,17.8c0,.86,0,1.83.1,2.9a19.76,19.76,0,0,0,.4,3c.13.73.35,1.63.65,2.7s.75,1.63,1.35,1.7a1.39,1.39,0,0,0,1-.3,11.43,11.43,0,0,0,1.1-1,11.93,11.93,0,0,0,1-1.15c.3-.4.51-.7.65-.9a99.08,99.08,0,0,0,7.15-10.65Q649,89.92,652.46,84c.6-1.07,1.23-2.17,1.9-3.3s1.4-2.27,2.2-3.4a8.13,8.13,0,0,1,.9-1.15c.33-.37.66-.49,1-.35.53.26.63.68.3,1.25s-.6,1-.8,1.25q-2.51,4.2-4.7,8.5t-4.7,8.5c-.94,1.53-1.85,3.08-2.75,4.65s-1.85,3.11-2.85,4.65-2,3-3.1,4.5a10.86,10.86,0,0,1-4.1,3.4,5.7,5.7,0,0,1-2.1,0,6.22,6.22,0,0,1-3.45-3.75,27.94,27.94,0,0,1-1.35-5.65,43.52,43.52,0,0,1-.5-6.65c0-2.3.06-4.55.2-6.75q.5-6.7,1.35-13t2.05-12c-3.07.13-6.18.36-9.35.7s-6.38.56-9.65.7c-.4,0-.85,0-1.35,0a.74.74,0,0,1-.85-.75.71.71,0,0,1,.8-.8,9.47,9.47,0,0,0,1.4-.1q4.69-.3,9.6-.8t9.7-.7q.6-2.1,1.35-5a39.86,39.86,0,0,1,1.75-5.25,7.15,7.15,0,0,1,.75-1.65,1.55,1.55,0,0,1,1.35-1,1,1,0,0,1,.95.4,1.54,1.54,0,0,1,.2,1,8.69,8.69,0,0,1-.2,1.15c-.1.4-.19.76-.25,1.1-.34,1.46-.67,3-1,4.55S636.49,61.49,636.16,62.83Z"/></g></g></svg>