<svg xmlns="http://www.w3.org/2000/svg" viewBox="0 0 232.46 91.09"><defs><style>.cls-1{fill:#53575a;}.cls-2{fill:#ff8300;}</style></defs><g id="Layer_2" data-name="Layer 2"><g id="Layer_1-2" data-name="Layer 1"><path class="cls-1" d="M63.32,90.35a4.69,4.69,0,0,0,2.2-.86,3.49,3.49,0,0,0,1.19-1.79,10.27,10.27,0,0,0,.36-3v-35a11.49,11.49,0,0,0-.27-2.74,3.71,3.71,0,0,0-.89-1.72,3.62,3.62,0,0,0-1.67-1,13.8,13.8,0,0,0-2.52-.41H59.87v-.48H97.59V55.93h-.42v-.12c-.31-1.3-.68-2.66-1.1-4.07a12.11,12.11,0,0,0-1.93-3.87A10,10,0,0,0,90.57,45a13,13,0,0,0-5.95-1.16H73.44V66.94h8.5a7,7,0,0,0,4-1.13,7.1,7.1,0,0,0,2.17-2.44,8.77,8.77,0,0,0,.92-2.62A12.49,12.49,0,0,0,89.26,59v-.18h.36v16.6h-.36v-.18a14.14,14.14,0,0,0-.21-1.73,8.26,8.26,0,0,0-1-2.67,6.77,6.77,0,0,0-6.45-3.51H73.44V84.73a12.25,12.25,0,0,0,.26,2.71,3.51,3.51,0,0,0,2.56,2.73,9.82,9.82,0,0,0,2.53.39h1.85V91H59.93v-.42A22.86,22.86,0,0,0,63.32,90.35Z"/><path class="cls-1" d="M130.61,90.08a14.21,14.21,0,0,0,3.48-1.54,13.23,13.23,0,0,0,2.65-2.18,17.48,17.48,0,0,0,2-2.52,20.54,20.54,0,0,0,2.68-6.91h.41l-1.72,14.16H100.74v-.41a23.49,23.49,0,0,0,3.42-.21,4.76,4.76,0,0,0,2.24-.86,3.62,3.62,0,0,0,1.19-1.79,10.66,10.66,0,0,0,.35-3V50.46a2.19,2.19,0,0,0,0-.36,2.16,2.16,0,0,1,0-.35c0-2.19-.38-3.68-1.16-4.5s-2.15-1.27-4.13-1.39h-1.91V43.5H138.4V56H138v-.06c-.32-1.31-.69-2.67-1.1-4.1a12.29,12.29,0,0,0-1.94-3.9A10,10,0,0,0,131.38,45a13,13,0,0,0-5.95-1.16H114.25V67.12h8.51a6.82,6.82,0,0,0,4-1.16,7.92,7.92,0,0,0,3.13-5.09,16.58,16.58,0,0,0,.17-1.66V59h.42v16.6h-.42v-.18c0-.28-.06-.86-.17-1.73a7.72,7.72,0,0,0-1-2.7,7.32,7.32,0,0,0-2.29-2.47,7.12,7.12,0,0,0-4.19-1.07h-8.21v16.3a6.3,6.3,0,0,1,.06,1.07,11.4,11.4,0,0,0,.27,2.73,3.66,3.66,0,0,0,.89,1.73,3.79,3.79,0,0,0,1.63,1,9.44,9.44,0,0,0,2.5.39h6.61A15.06,15.06,0,0,0,130.61,90.08Z"/><path class="cls-1" d="M176.36,90.08a14.21,14.21,0,0,0,3.48-1.54,13.23,13.23,0,0,0,2.65-2.18,17.48,17.48,0,0,0,2-2.52,20.54,20.54,0,0,0,2.68-6.91h.41l-1.72,14.16H146.49v-.41a23.49,23.49,0,0,0,3.42-.21,4.76,4.76,0,0,0,2.24-.86,3.62,3.62,0,0,0,1.19-1.79,10.66,10.66,0,0,0,.35-3V50.46a2.19,2.19,0,0,0,0-.36,2.16,2.16,0,0,1,0-.35c0-2.19-.38-3.68-1.16-4.5s-2.15-1.27-4.13-1.39h-1.91V43.5h37.72V56h-.41v-.06c-.32-1.31-.69-2.67-1.1-4.1a12.29,12.29,0,0,0-1.94-3.9A10,10,0,0,0,177.13,45a13,13,0,0,0-5.95-1.16H160V67.12h8.51a6.82,6.82,0,0,0,4-1.16,7.92,7.92,0,0,0,3.13-5.09,13.93,13.93,0,0,0,.17-1.66V59h.42v16.6h-.42v-.18a15.24,15.24,0,0,0-.17-1.73,7.72,7.72,0,0,0-1-2.7,7.32,7.32,0,0,0-2.29-2.47,7.12,7.12,0,0,0-4.19-1.07H160v16.3a6.3,6.3,0,0,1,.06,1.07,11.4,11.4,0,0,0,.27,2.73,3.66,3.66,0,0,0,.89,1.73,3.83,3.83,0,0,0,1.64,1,9.29,9.29,0,0,0,2.49.39H172A15.06,15.06,0,0,0,176.36,90.08Z"/><path class="cls-1" d="M230.38,91.09H192v-.41a22.86,22.86,0,0,0,3.39-.21,4.73,4.73,0,0,0,2.2-.86,3.62,3.62,0,0,0,1.19-1.79,10.27,10.27,0,0,0,.36-3v-35c0-2.19-.4-3.68-1.19-4.5s-2.19-1.27-4.17-1.39H192V43.5h20.7v.3h0v.06h-2.44a7.92,7.92,0,0,0-2.2.47,3.86,3.86,0,0,0-1.46,1,4,4,0,0,0-.8,1.73,12.18,12.18,0,0,0-.24,2.62V84.85a11.4,11.4,0,0,0,.27,2.73,3.51,3.51,0,0,0,2.53,2.71,9.52,9.52,0,0,0,2.56.39h5.95a15.06,15.06,0,0,0,4.4-.6,14.21,14.21,0,0,0,3.48-1.54,13.23,13.23,0,0,0,2.65-2.18,18.22,18.22,0,0,0,2-2.52,21.5,21.5,0,0,0,2.74-6.91h.41l-1.72,14.16Z"/><path class="cls-2" d="M8.26,28.65a5.92,5.92,0,0,1,4.06,1.6,7.26,7.26,0,0,1,1.86,3.87q2.43-.45,5.06-1c1.75-.38,3.46-.78,5.13-1.18a5.55,5.55,0,0,0,.76-.27,5.84,5.84,0,0,1,.95-.3,2.76,2.76,0,0,1,.87-.08.63.63,0,0,1,.53.34.47.47,0,0,1-.15.61,3.81,3.81,0,0,1-.76.42,4.78,4.78,0,0,1-1,.3c-.35.08-.61.14-.76.19q-2.43.76-5.13,1.33l-5.35,1.11a16,16,0,0,1-.65,5.51,19.36,19.36,0,0,1-2.09,4.67A24,24,0,0,1,8.67,49.4a8.48,8.48,0,0,1-4,2.28H3.54a3,3,0,0,1-1.29-.57,11.94,11.94,0,0,1-1-.88,6.63,6.63,0,0,1-1.17-3.3,19.43,19.43,0,0,1,0-4,36.91,36.91,0,0,1,.69-4.1c.3-1.35.58-2.55.83-3.61a3,3,0,0,1,0-2.74,6,6,0,0,1,1.48-2,13,13,0,0,0,.57-1.59,12.55,12.55,0,0,1,.64-1.75,5.3,5.3,0,0,1,1-1.44,1.94,1.94,0,0,1,1.49-.61,1.49,1.49,0,0,1,1.52,1.1A4.15,4.15,0,0,1,8.26,28.65Zm-3.65,7.9C4.35,38,4,39.61,3.66,41.3a18.9,18.9,0,0,0-.42,5.21,6.4,6.4,0,0,0,.27,1.29,1.79,1.79,0,0,0,.72,1A5.83,5.83,0,0,0,7.72,47c.86-1,1.68-1.95,2.44-3A30.77,30.77,0,0,0,12,40.32a9.22,9.22,0,0,0,.61-4.45,36.48,36.48,0,0,1-3.88.57A29.56,29.56,0,0,1,4.61,36.55ZM8,30.25a2.33,2.33,0,0,0-.15.87.51.51,0,0,1-.46.57,1,1,0,0,1-.34,0l-.26-.11a1.36,1.36,0,0,1-.08-1.07,3.53,3.53,0,0,0-.57,1,11.74,11.74,0,0,0-.34,1.14,11.41,11.41,0,0,0-.38,1.22L5.06,35q2.13,0,4-.15t3.57-.45a6.08,6.08,0,0,0-1.41-3A4.45,4.45,0,0,0,8,30.25Z"/><path class="cls-2" d="M27.33,47.35q2-4.71,4.26-9.05a24.1,24.1,0,0,1,5.92-7.37l.73-.3a8.18,8.18,0,0,1,.79-.31,2.54,2.54,0,0,1,2.28.69,4,4,0,0,1,1,2.09,7,7,0,0,1,0,2.62,9.59,9.59,0,0,1-.72,2.35,21.17,21.17,0,0,0,2.89-1.9c.91-.7,1.87-1.39,2.89-2.05l2.16-1.52,2.24-1.52a5.47,5.47,0,0,0,.84-.42.75.75,0,0,1,.91.12.7.7,0,0,1-.23,1c-.35.25-.65.48-.91.68q-3.19,2.2-6.15,4.45T40.1,41.34a24,24,0,0,1-1.83,2.85,22.83,22.83,0,0,1-2.2,2.55c-.3.25-.67.59-1.1,1s-.88.84-1.33,1.22a11.14,11.14,0,0,1-1.48,1,4.07,4.07,0,0,1-1.56.53q-1.68.23-1.83-1.14a1.82,1.82,0,0,1,.42-1.6,15.17,15.17,0,0,1,1.1-1.06c.41-.41.78-.76,1.11-1.07s.67-.6,1-.91A24.48,24.48,0,0,0,34.85,43a23.58,23.58,0,0,1,2.44-1.79c.35-.56.72-1.2,1.1-1.94a23.71,23.71,0,0,0,1-2.24l.35-1.22A9.31,9.31,0,0,0,40,34.43a4.31,4.31,0,0,0,0-1.3,1.91,1.91,0,0,0-.57-1.06,4.14,4.14,0,0,0-2.66,1.25c-.71.74-1.34,1.46-1.9,2.17a33.76,33.76,0,0,0-3.8,6.12,66.09,66.09,0,0,0-2.88,7c-.21.51-.4,1-.57,1.48a9.59,9.59,0,0,0-.42,1.48A16.2,16.2,0,0,0,27,54.38c0,1,0,2-.08,2.92l-.3,5.78q-.15,2.88-.38,5.85c-.05.46-.09.92-.11,1.4a10.26,10.26,0,0,1-.16,1.34,2.73,2.73,0,0,1-.45,1.1,2,2,0,0,1-.95.72h-.23a1.27,1.27,0,0,1-1.18-1.25C23,71.5,23,70.78,23,70.07a36.79,36.79,0,0,1,.11-4.37c.13-1.39.29-2.8.5-4.22.1-.66.22-1.32.38-2s.27-1.32.38-2a33.29,33.29,0,0,0,.22-3.91c0-1.35.05-2.63.16-3.84.2-3.24.39-6.44.57-9.58s.36-6.36.57-9.65V29.3A10.91,10.91,0,0,1,26,28a2.93,2.93,0,0,1,.34-1.07.94.94,0,0,1,.88-.45.9.9,0,0,1,.87.57,4,4,0,0,1,.34,1.36,9.42,9.42,0,0,1,0,1.68c-.05.58-.07,1.07-.07,1.48q-.32,3.95-.57,7.94T27.33,47.35Z"/><path class="cls-2" d="M56.74,21.05q6.54-.23,13.6-.68a99.92,99.92,0,0,1,14.06.07c.26,0,.54,0,.84,0a.69.69,0,0,1,.61.42c0,.41-.24.61-.57.61a4.63,4.63,0,0,1-.88-.08,140.18,140.18,0,0,0-14.06.11q-7,.42-13.75.8Q55.53,28.58,54.65,35a93.93,93.93,0,0,0-.8,13.53c0,.66,0,1.4.08,2.21a15.72,15.72,0,0,0,.3,2.28c.1.55.27,1.24.5,2.05s.57,1.24,1,1.29a1,1,0,0,0,.8-.23,6.72,6.72,0,0,0,.84-.72,10.29,10.29,0,0,0,.76-.87l.49-.69a72.36,72.36,0,0,0,5.43-8.09q2.4-4.14,5.06-8.63c.45-.81.93-1.64,1.44-2.51s1.07-1.72,1.67-2.58a8,8,0,0,1,.69-.87.66.66,0,0,1,.76-.27c.4.2.48.52.23.95s-.46.75-.61.95q-1.91,3.2-3.57,6.46t-3.58,6.46c-.71,1.17-1.4,2.34-2.09,3.53s-1.4,2.37-2.16,3.54-1.55,2.3-2.36,3.42a8.22,8.22,0,0,1-3.11,2.58,4.3,4.3,0,0,1-1.6,0A4.71,4.71,0,0,1,52.22,56a21.35,21.35,0,0,1-1-4.29,33.17,33.17,0,0,1-.38-5.06q0-2.61.15-5.13.39-5.09,1-9.84t1.56-9.08q-3.49.15-7.11.53c-2.4.26-4.85.43-7.33.54l-1,0c-.38,0-.59-.16-.64-.57a.53.53,0,0,1,.61-.6,6.64,6.64,0,0,0,1.06-.08q3.57-.23,7.29-.61c2.49-.25,4.94-.43,7.38-.53.3-1.06.64-2.32,1-3.76a31.08,31.08,0,0,1,1.33-4,5.73,5.73,0,0,1,.57-1.26,1.2,1.2,0,0,1,1-.72.78.78,0,0,1,.72.31,1.07,1.07,0,0,1,.15.72,4.67,4.67,0,0,1-.15.87c-.08.31-.14.58-.19.84-.25,1.11-.51,2.27-.76,3.46S57,20,56.74,21.05Z"/><path class="cls-2" d="M74.07,30.47a1.16,1.16,0,0,1,.26.84q0,.45,0,1c-.06.86-.07,1.8,0,2.81s0,2,0,3,0,1.9,0,2.82a3.3,3.3,0,0,1-.8,2.2h-.61a2.5,2.5,0,0,1-.57-1.18A13.93,13.93,0,0,1,72,40.2c0-1.11-.06-2.28,0-3.49a32.25,32.25,0,0,1,.26-3.58c.05-.3.1-.65.16-1.06A4.33,4.33,0,0,1,72.66,31a1.31,1.31,0,0,1,.53-.65A.89.89,0,0,1,74.07,30.47Zm.38-14.74A1.78,1.78,0,0,1,73.84,17q-.61.15-.87-.15a1.3,1.3,0,0,1-.31-.73.94.94,0,0,1,.23-.72,1,1,0,0,1,.87-.23C74.17,15.33,74.4,15.53,74.45,15.73Z"/><path class="cls-2" d="M93.52,42.56a5.29,5.29,0,0,0,1.26-1.45c.33-.55.67-1.11,1-1.67s.7-1.11,1-1.67.64-1.11,1-1.67.71-1,1.06-1.52.74-1.12,1.14-1.67c.26-.36.51-.73.76-1.11a4.6,4.6,0,0,1,.88-1,2.37,2.37,0,0,1,1.1-.54,2.56,2.56,0,0,1,1.37.19,3.37,3.37,0,0,1,.87,1.87,19.18,19.18,0,0,1,.23,2.47c0,.86.06,1.72.11,2.58a5.65,5.65,0,0,0,.53,2.2,4.21,4.21,0,0,0,1.56-1.33l1.26-1.71q.6-.9,1.17-1.86a12,12,0,0,0,1-1.94,4.71,4.71,0,0,0,.65-1.33c.18-.53.59-.74,1.25-.64a1.28,1.28,0,0,1-.07,1.4,3.28,3.28,0,0,0-.53,1.41c-.26.46-.49.9-.69,1.33l-.61,1.33a15.79,15.79,0,0,0-1.52,2.28,7.74,7.74,0,0,1-1.74,2.2,2.73,2.73,0,0,1-1,.61,2.59,2.59,0,0,1-1.41.08A2.73,2.73,0,0,1,103.74,40a8,8,0,0,1-.57-2.2,22.44,22.44,0,0,1-.15-2.66,13.52,13.52,0,0,0-.23-2.62,1.34,1.34,0,0,0-.64.57,9.37,9.37,0,0,1-.57.79c-.56.76-1.1,1.58-1.64,2.44s-1,1.72-1.48,2.58a23.35,23.35,0,0,0-2,3.38,6.34,6.34,0,0,1-2.62,2.78,4.27,4.27,0,0,0-.54,0,1.59,1.59,0,0,1-.6,0,4.9,4.9,0,0,1-.76-.38,6.86,6.86,0,0,1-1-3.46c-.08-1.39-.11-2.83-.11-4.3s0-2.93-.08-4.4-.13-2.86-.23-4.18a43,43,0,0,0-2.81,6.53c-.81,2.38-1.6,4.87-2.36,7.45-.5,1.82-1,3.7-1.4,5.62s-.9,3.91-1.41,5.93l-.3,1.37a5.74,5.74,0,0,1-.42,1.25,2.75,2.75,0,0,1-.72,1,2.16,2.16,0,0,1-1.22.46,1.55,1.55,0,0,1-1.37-1.1,12.67,12.67,0,0,1-.45-2,36.89,36.89,0,0,1,0-6.65q.3-3.53.68-6.72c.26-2.13.56-4.27.92-6.42s.75-4.22,1.21-6.2c.15-.61.32-1.24.49-1.9a1.5,1.5,0,0,1,1.33-1.14,1.1,1.1,0,0,1,.88.16,1.58,1.58,0,0,1,.42.6,3.77,3.77,0,0,1-.08,1.67,3.82,3.82,0,0,0-.08,1.68,5.52,5.52,0,0,0,.31,1.29,1.93,1.93,0,0,1,.07,1.21.5.5,0,0,1-.49.31.78.78,0,0,1-.57-.23Q82.5,36.32,82,40.13c-.35,2.53-.61,5.22-.76,8Q82.5,43.77,84,39t3.19-9.12l.61-1.49a9.22,9.22,0,0,1,1-1.78A4.4,4.4,0,0,1,90,25.31a1.54,1.54,0,0,1,1.63,0,2,2,0,0,1,1,1.21,9.2,9.2,0,0,1,.49,2.05,18.4,18.4,0,0,1,.15,2.4c0,.83,0,1.58.08,2.24a38.91,38.91,0,0,1,0,4.83A22.62,22.62,0,0,0,93.52,42.56Z"/><path class="cls-2" d="M121.11,29.41q-1.44,1.9-2.81,4.1t-2.74,4.26c-.66,1-1.34,2-2,3.12a15.66,15.66,0,0,1-2.43,3,5.43,5.43,0,0,1-1.07.95,1.65,1.65,0,0,1-1.44.19,2,2,0,0,1-1.06-1.67,23.55,23.55,0,0,1,1.4-6.61,31,31,0,0,1,2.7-5.63c.35-.55.75-1.11,1.18-1.67a4.26,4.26,0,0,1,1.4-1.22,2.19,2.19,0,0,1,2.55.12,2.74,2.74,0,0,1,.8,2.77,4.27,4.27,0,0,0,.87-1.21c.33-.61.68-1.23,1.07-1.87a12.38,12.38,0,0,1,1.21-1.71,2.14,2.14,0,0,1,1.33-.83,1.44,1.44,0,0,1,.53.08l.46.15a3.44,3.44,0,0,1,.76,1.44c-.1,3-.31,5.92-.61,8.63s-.53,5.58-.68,8.62v1.37c0,.56,0,1.12-.08,1.67a7.39,7.39,0,0,1-.27,1.48c-.12.43-.34.65-.64.65a.85.85,0,0,1-.8-.49,3.89,3.89,0,0,1-.38-1.22,10.2,10.2,0,0,1-.11-1.48,7.81,7.81,0,0,0-.08-1.22,43.15,43.15,0,0,1,.15-8C120.58,34.45,120.85,31.89,121.11,29.41Zm-5.47.15s0-.07-.08-.07a2,2,0,0,0-.42.19,2,2,0,0,1-.42.19,16.43,16.43,0,0,0-1.9,2.69c-.55,1-1.06,2-1.52,3.08s-.79,2.19-1.17,3.38a16.65,16.65,0,0,0-.72,3.84,27.08,27.08,0,0,0,3.83-4.9q1.71-2.77,3.46-5.43a3.11,3.11,0,0,1-.38-1.64A1.31,1.31,0,0,0,115.64,29.56Z"/><path class="cls-2" d="M134.26.08l.07-.08a1.23,1.23,0,0,1,1.37,1,8.24,8.24,0,0,1,.23,1.82,33.42,33.42,0,0,1-.27,6.2q-.42,3-.72,5.89c-.25,2.63-.51,5.3-.76,8s-.48,5.44-.68,8.17q-.47,7.23-1,14.4a135.11,135.11,0,0,0-.23,15.17,9,9,0,0,0,.08,1.06,9.57,9.57,0,0,1,.07,1.18,3.22,3.22,0,0,1-.15,1,.59.59,0,0,1-.61.46,1.08,1.08,0,0,1-1.33-.91,13.27,13.27,0,0,1-.34-2c-.1-.81-.16-1.59-.19-2.35s-.06-1.45-.11-2.06c.05-1.52.05-3,0-4.52s0-2.92,0-4.29q.08-11,.91-20.94t2.13-19.87l.45-3.88a14.29,14.29,0,0,0,.19-1.86A2.52,2.52,0,0,1,134,.08Z"/></g></g></svg>