<svg xmlns="http://www.w3.org/2000/svg" xmlns:xlink="http://www.w3.org/1999/xlink" viewBox="0 0 243.67 100.09"><defs><style>.cls-1,.cls-5,.cls-6{fill:none;}.cls-2{clip-path:url(#clip-path);}.cls-3{fill:#53575a;}.cls-4{fill:#ff8300;}.cls-5,.cls-6{stroke:#ff8300;stroke-miterlimit:10;}.cls-5{stroke-width:0.54px;}.cls-6{stroke-width:1.08px;}</style><clipPath id="clip-path" transform="translate(0 0)"><rect class="cls-1" width="243.67" height="100.09"/></clipPath></defs><g id="Layer_2" data-name="Layer 2"><g id="Layer_1-2" data-name="Layer 1"><g class="cls-2"><path class="cls-3" d="M105,74.2a13.91,13.91,0,0,1-2.93-4.27,17.87,17.87,0,0,1-1.34-5.74,30.52,30.52,0,0,1-.12-6.41,29.46,29.46,0,0,1,.45-2.92c.45-1.69.79-3.48,1.24-5.17a70.45,70.45,0,0,1,2-6.86c1.35-4.38,3.15-8.54,4.84-12.82.78-2.13,1.91-4.16,2.92-6.29s2.14-4.16,3.37-6.3a85.9,85.9,0,0,1,5.4-8.54,32.31,32.31,0,0,1,2.36-3.15,21.58,21.58,0,0,1,3.26-3.15c.9-.56,1.46-1.35,2.36-1.8a4.62,4.62,0,0,0,.79-.45,3.18,3.18,0,0,1,4.16,1.13,8.59,8.59,0,0,1,1.69,6.29,38.17,38.17,0,0,1-1.8,7c-.56,1.58-1.24,3.15-1.8,4.73a59.25,59.25,0,0,1-4.84,10.11c-1.46,2.59-3,5.06-4.72,7.54a1.15,1.15,0,0,0-.45.56,5.32,5.32,0,0,1-1.68,2.14l-.34.33a9.48,9.48,0,0,1-1.13,1,3.58,3.58,0,0,0-1.23,1.92,1,1,0,0,1-.56.9,14.44,14.44,0,0,1-1.24,1.23c-.45-.22-.45-.22-.9.34-.11.11-.23.22-.34.22h.11l-.33.34-.34.34c-.11,0-.23.11-.34.22h.11a1.74,1.74,0,0,0-.89.57,1.36,1.36,0,0,0-.9.67c-.34.11-.57.11-.79.34s-.23.33-.11.56a1.38,1.38,0,0,1-1.46-.23,1.8,1.8,0,0,1-.57-1.12c-.11-.22.23-.45.34-.56a29.55,29.55,0,0,0,5.62-5c1.46-1.8,3-3.6,4.5-5.39a74.07,74.07,0,0,0,6.86-9.9c.9-1.69,1.91-3.37,2.7-5.17a110.34,110.34,0,0,0,4.49-12,10.05,10.05,0,0,0,.79-4,3.49,3.49,0,0,0-.11-1.12,2.47,2.47,0,0,0-1.46-1.69,4.84,4.84,0,0,1-1.13-.45c-.34-.34-.79-.22-1.12.22-.12.12,0,.23.11.34A4.57,4.57,0,0,1,128,4.15c-.22,0-.33.23-.56.45l-2.36,3a6.16,6.16,0,0,0-1,1.91l-.34.34v.34a8.32,8.32,0,0,0-1.57,1.91c-1.46,2.81-3,5.51-4.61,8.32a11.38,11.38,0,0,0-1.35,3.93,3.92,3.92,0,0,1-1.35,2.7,1.83,1.83,0,0,0-.56,2.14,2.51,2.51,0,0,0-.9,1.68v.34a5,5,0,0,1-.9,1.69c-.11,0,0,.11,0,.22s.22-.11.34-.11a3,3,0,0,1-.79,1.69,6.33,6.33,0,0,0-1.69,3.59c0,.23-.22.45-.22.57.33.9-.34,1.57-.45,2.36a.24.24,0,0,1-.23.22.71.71,0,0,0-.22.79c.22.56.22.9-.34,1.24a1.72,1.72,0,0,0-.79,1.34c-.11,1-.22,2-.33,2.93a12.26,12.26,0,0,1-.68,3,5.57,5.57,0,0,0-.56,2.36,6.25,6.25,0,0,1-.23,1.47,17.14,17.14,0,0,0-1,4.72,39.12,39.12,0,0,0,0,9.55,10,10,0,0,0,.9,3.15c.45,1,.79,1.13,1.91,1a12.84,12.84,0,0,0,4.5-1.69c.9-.45,1.8-1,2.59-1.46a9.18,9.18,0,0,1,2.36-1.24,6.34,6.34,0,0,1-1.35,1.12,6.06,6.06,0,0,0-1.91,1.47.37.37,0,0,1-.23.11.34.34,0,0,0-.11.22c.11,0,.11,0,.11-.11s.11-.11.23-.22a3.71,3.71,0,0,0,1.57-.57,72.81,72.81,0,0,0,7.31-5.62,2.51,2.51,0,0,0,.9-1.23,3.17,3.17,0,0,0,1.8-1.13l4.38-4c1.35-1.12,1.35-2.92,2.59-4.16.34-.33.56-.78,1-1a3.85,3.85,0,0,1-.67,1.69,1.65,1.65,0,0,0-.45,1c-.12.11-.23.23-.34.34s.34.67.22.78h.12l-.34.34L132,58c-1.91,1.8-3.93,3.71-6,5.51-.22.22-.33.45-.56.67s-.22.23-.34.34h.12c-.12.11-.23.11-.34.22s-.23.23-.34.34a1.76,1.76,0,0,0-1.12.9l-.34.34v-.11l-.34.33a3.18,3.18,0,0,0-1.46,1.24c-.11.11-.22.23-.34.23a2.88,2.88,0,0,0-1.12.89c-.11.12-.23.23-.34.34a1.76,1.76,0,0,0-1.12.9,2,2,0,0,0-1.24.9,4,4,0,0,0-.9.56c-.11.12-.11.23-.22.34h-.12l.34-.34a1.5,1.5,0,0,0,.9-.56h.56a24,24,0,0,1-6.41,4.16,7.16,7.16,0,0,1-2.24.56,5.42,5.42,0,0,1-4-1.57m5.62-35.87a.21.21,0,0,1-.34,0Zm.79,8.32c.22-.11.22-.33.45-.56,0-.11.11-.22.22-.34,0,.12-.11.23-.22.34l-.68.34c-.56.22-.9.67-.56.79s.56-.23.79-.57M111,73.08c.11-.12.33-.12.56-.23a2.49,2.49,0,0,0,.56-.34c-.22.11-.34.23-.56.23l-.68.34v.11Zm.56-24.63c-.23.11-.34.23-.56.34a2.28,2.28,0,0,1,.56-.34M111.2,37l.11.12h-.11Zm.68,10.91h.56a1.53,1.53,0,0,1-.9.56c.11-.22.22-.33.34-.56m.9-.56h.56a1.53,1.53,0,0,1-.9.56c.11-.22.22-.34.34-.56m.56-16.42v0ZM113.67,47l-.33.34.33-.34m0-.34h-.11c.11-.11.23-.22.34-.22l.34-.34.33-.34h-.11c.11,0,.23-.11.34-.22h.56A4.34,4.34,0,0,1,113.67,47Zm.57-17.54v0Zm1.46,16.08-.34.34.34-.34m5.62,20.46a19.49,19.49,0,0,1-3.82,3,11.19,11.19,0,0,1,3.82-3m-3.26,5.06c-.11.12-.22.23-.22.34h-.12c.12-.11.23-.22.34-.34m0-30.91c.11,0,.22-.12.34-.23s.22-.22.22-.34a5.85,5.85,0,0,0,.68-.9.24.24,0,0,1,.22-.22,1.94,1.94,0,0,0,.56-.9c.12-.11.23-.23.34-.34l.34-.33-.34.33c-.11.11-.11.23-.22.34a1.7,1.7,0,0,0-.68.9.24.24,0,0,1-.22.22c-.23.34-.45.68-.57.9l-.33.34c-.12.11-.23.23-.34.34a.24.24,0,0,0-.22.22c0-.11.11-.22.22-.33m.34,30.69c-.12,0-.23.11-.34.22.11-.11.22-.22.34-.22m0-.34H119a2.11,2.11,0,0,1-.56.23ZM119,41.59c-.11.12-.23.23-.23.34h-.11l.34-.34m.34,28.22-.34.34.34-.34m.22-.22-.22.22h-.12c.12-.11.23-.22.34-.22m0-.34h.34l-.34.34Zm.68-29.12h0Zm-.34,28.78v0Zm.34-29.11v0ZM121.1,68h.22c-.11.11-.22.22-.22.33Zm1.46-3.27a2.36,2.36,0,0,1-1.24.9,3.75,3.75,0,0,1,1.24-.9m-1.24,3v0Zm1.12-.67c.12,0,.23-.12.34-.23h.11l-.33.34Zm0,0,.12.11Zm.34-2.59a.24.24,0,0,1-.22.22l.22-.22m.34-.34c-.11.12-.23.23-.34.34.11-.11.23-.22.34-.34m-.23,2.7c0-.11-.11-.22-.11-.34h.34c-.11.12-.23.23-.34.34Zm.57-3-.34.33.34-.33m-.34,2.47h.34c-.12,0-.23.11-.34.22Zm4.27-5.85a20.78,20.78,0,0,1-2.25,2.25c-.45.45-.9.68-1.12,1.13h-.56a22.68,22.68,0,0,1,3.93-3.38m-3.93,5.74v0Zm.22-56.33H124l-.34.34Zm.34-.34v0Zm.9,55.54h0Zm0-.34h.34l-.34.34Zm.34-.22h.22c-.11.11-.11.11-.22.11Zm.22-.34v0ZM126,3.93l.34-.34c.11-.11.22-.11.34-.22a6.8,6.8,0,0,0,2-1.46,2.69,2.69,0,0,0-2,1.46c-.12.11-.23.22-.34.22s-.22.23-.22.34l-.34.34c.11-.12.22-.23.22-.34m1.8,56.1c-.11.12-.11.23-.34.34.12-.11.23-.22.34-.34m.34-.33v.11c-.11,0-.23.11-.34.22l.34-.33m0,0c.11,0,.22-.12.34-.23-.12.11-.23.23-.34.34Zm2.25-2.14a4,4,0,0,1-1.91,1.91,7.69,7.69,0,0,1,1.91-1.91m1.12-1.12c0-.12.11-.12.23-.23-.12.11-.23.23-.23.34Zm.45-.57c-.11.12-.22.23-.22.34h-.12c.12-.11.23-.22.34-.34m.34-.22c-.11,0-.23.11-.34.22.11-.11.23-.22.34-.22m0,2.36h0Zm0-2.47a.25.25,0,0,0,.22-.23h.12c-.12.11-.23.23-.34.34Zm0,2.13h.34c-.12.11-.23.23-.34.34Zm.56-2.7c-.11.12-.22.23-.22.34h-.12c.12-.11.23-.22.34-.34m-.22,2.36h.22l-.22.23Zm.22-4.16c-.11.23.68.79.56.9.12-.22-.67-.67-.56-.9m.9.23v0Z" transform="translate(0 0)"/><path class="cls-3" d="M128,66.78a9.67,9.67,0,0,1-1.12-2.47,7.44,7.44,0,0,1,.11-2.7,43.16,43.16,0,0,1,3.15-8.55,6,6,0,0,1,.9-1.68,1.1,1.1,0,0,1,1.8,0c.22.22.56.45.78.67a2.85,2.85,0,0,1,.45,2.7c-.56,1.12-1,2.25-1.46,3.37a.21.21,0,0,0-.33,0v0h.33c-.45,1.69-.9,3.49-1.46,5.17a5.82,5.82,0,0,0-.22,1.46c.11.34.33.68.67.68s.68-.11.9-.11c.56-.11,1-.23,1.46-.34a6,6,0,0,0,3-1.24c1.12-.78,2.36-1.8,3.48-2.7.79-.56,1.46-1.23,2.25-1.91,1.35-1.23,2.59-2.47,3.94-3.59,1.57-1.35,3.14-2.93,4.61-4.39.11-.11.22-.22.33-.22a.75.75,0,0,1,1.13.11,8.53,8.53,0,0,0,1,1.23,2.51,2.51,0,0,1,.34,1.8.41.41,0,0,0-.12.34,15.65,15.65,0,0,0-1.46,5,17.28,17.28,0,0,0-.11,3.37c0,.45.23.68.79.79a6.21,6.21,0,0,0,2-.34,49.87,49.87,0,0,0,5.74-2.25c.11-.11.33-.11.45-.22,1.79-1.24,3.82-2.14,5.73-3.38a23.92,23.92,0,0,0,2.81-1.91c.22-.11.34-.33.56-.45s.56-.11.68.12a4.08,4.08,0,0,0,.78,1.12.86.86,0,0,1,.34.79,1.92,1.92,0,0,0,.11.78,4.26,4.26,0,0,1-1.46,1.69l-4.05,2.7a3.83,3.83,0,0,0-1.35,1,27.4,27.4,0,0,0-4,2.14,11.56,11.56,0,0,1-2.7,1.23l-1.35.68a6.21,6.21,0,0,1-5.28-.23A4.66,4.66,0,0,1,150,65a15.56,15.56,0,0,1-1.35-4.05,3.62,3.62,0,0,0-.22-.9c0-.22-.45-.33-.68-.11a3,3,0,0,0-.67.56,81.73,81.73,0,0,1-6.52,6c-.34.34-.57.56-.9.9h-.34a10.8,10.8,0,0,1-3.15,1.8,10.38,10.38,0,0,1-3.26.56,5.72,5.72,0,0,1-5-2.92m8.77-1.24h.34a.87.87,0,0,1,.56-.22,2.49,2.49,0,0,1,.56-.34c.12-.11.23-.23.34-.34a.87.87,0,0,1,.56-.22c.12-.11.23-.23.23-.34s.22-.23.34-.34v-.22l.33-.68c.12-.11.23-.11.23-.22a1.4,1.4,0,0,0,.9-.68c.11,0,.22-.11.33-.22s.23-.23.34-.34.11-.22.23-.34a1.6,1.6,0,0,0,1.23-1A2.86,2.86,0,0,0,142,61.16l-.23.22c-.11.11-.22.23-.34.34l-.33.34a1.29,1.29,0,0,0-.79.56c-.11.11-.22.22-.34.22a2.53,2.53,0,0,0-1.23.9c-1,.45-1.91,1-2.93,1.58-.45.22-.78.56-1.23.78a6.5,6.5,0,0,0,2.13-.56m-.33,2.36a3.81,3.81,0,0,0,2.13-.78,19.72,19.72,0,0,0,3-2.25,6.14,6.14,0,0,0,1.68-1.69c.12-.11.23-.11.34-.22s.11-.12.11-.23c0,.11-.11.11-.22.11s-.11.23-.23.34-.45.11-.56.23a59.73,59.73,0,0,1-6.07,4.38.38.38,0,0,1-.22.11v0Zm.67-2.36h0Zm1.12-.9V65h-.56a2.28,2.28,0,0,0,.56-.34m-.56.34v0Zm.9-.67v.33h-.34l.34-.33m.56.11.34-.34v-.34a1,1,0,0,1-.56.11,2,2,0,0,1-.45.57Zm.57-.9v.22h-.34c.11-.11.22-.22.34-.22m0,3.82h0Zm8-8.32h.11c-.45.23-.79.45-.9.9.23-.34.56-.56.79-.9m1.91-4.5h0Zm7.65,9.79a.9.9,0,0,0,.56-.23c.33-.11.56-.23.9-.34a1.6,1.6,0,0,1,.67-.22,2.49,2.49,0,0,1,.56-.34c.23-.11.34-.22.57-.34a.87.87,0,0,0,.56-.22l.67-.34a3.27,3.27,0,0,1,.56-.34v.12c.23-.12.34-.23.57-.34a2.49,2.49,0,0,0,.56-.34L164,61a1.93,1.93,0,0,0,.57-.22l.33-.34a.89.89,0,0,1,.56-.22c.23-.11.34-.23.57-.34a2.17,2.17,0,0,0,.56-.34c.11-.11.22-.22.34-.22a2.49,2.49,0,0,0,.56-.34v-.56h.9v-.68h.67c0,.12.12.12.23.12v-.34h-.23a1.6,1.6,0,0,1-.67.22c-.11.12-.11.23-.23.34l-.67.34a2.3,2.3,0,0,0-1.46.9.9.9,0,0,0-.57.22,3.26,3.26,0,0,0-1.57.9,2.49,2.49,0,0,1-.56.34,3.13,3.13,0,0,0-1.35.45c-1.91.9-3.71,1.69-5.62,2.58-.34.12-.68.12-.9.46.34.33.67.11,1.12.11a.89.89,0,0,1,.57-.11m0,.11h0Zm1.91,1.35c3.14-1.46,6.18-3.15,9.22-4.95A7,7,0,0,0,170,59.36a2.28,2.28,0,0,0,.56-.34c.12,0,.12-.11.12-.22h-.23c-.22.11-.34.33-.56.45s-.67.33-1,.56a54.4,54.4,0,0,1-6.07,3.48c-1.46.79-2.93,1.46-4.5,2.25-.34.23-.79.23-1.12.79a4.92,4.92,0,0,0,1.91-.56m-.45-2.14c-.12,0,0-.11,0-.11v.11Zm.11-.22a.85.85,0,0,0,.56.11.85.85,0,0,1-.56-.11M164,61.16v-.34h-.56a.43.43,0,0,1-.11.34Zm-.67-.12v0Zm.67-.45a5.29,5.29,0,0,0,.57-.11v.34H164Zm.9-.11h0Zm.56-.9h.57v.34h-.57Zm0,.34v0Zm1.24-.56h-.67v.22h.67Zm.23,0h0Zm.56-.68v0Zm.67-.56h.23v.34h-.23Zm1.13-.56h-.23v.34h.23Zm3,.22v0Z" transform="translate(0 0)"/><path class="cls-3" d="M159.32,84.54v-.22a2.94,2.94,0,0,1,.23-3,55.14,55.14,0,0,1,3.93-6.41c1.91-2.58,3.83-5.17,5.62-7.75a1.8,1.8,0,0,0,.45-1.8,22.73,22.73,0,0,1-.11-9.11,60.93,60.93,0,0,1,2-9,5.1,5.1,0,0,1,.67-1.69c.22-.34.67-.45.9,0a2.89,2.89,0,0,1,.9,2.14,5.46,5.46,0,0,1,0,1.34c-.23,2.59-.45,5.18-.68,7.76-.11,1.24-.22,2.36-.22,3.6a2.88,2.88,0,0,0,.11.9.28.28,0,0,0,.45.11,3.05,3.05,0,0,0,.68-.56c1.68-2,3.37-4,5.17-6a70.41,70.41,0,0,1,5.73-5.73,8.2,8.2,0,0,1,2.14-1.35c.67-.23.9-.23,1.24.33.56.79.56,1,0,1.8-.23.34-.57.57-.79.9a13.82,13.82,0,0,0-1.58,1.91A12.54,12.54,0,0,1,185,54.07v.34a3.53,3.53,0,0,0-1.69,1.46v-.11c-.11.11-.22.23-.34.34a5,5,0,0,0-1.23,1.46A7.5,7.5,0,0,1,180,60c-.79.79-1.46,1.58-2.25,2.48a13.41,13.41,0,0,0-2,2.47c-.23.22-.56.45-.79.67h-.34a1.75,1.75,0,0,0-.33.45c-.68,1.47-.34,1.92,1.12,2.36a7.79,7.79,0,0,0,3.26,0,16.33,16.33,0,0,0,6.52-3,71.29,71.29,0,0,0,6-4.39c1.13-.9,2-1.91,6.07-5.17a38.55,38.55,0,0,0,4.39-5.28c.22-.34.45-.68.9-.68s.67.57.78,1.13a2.11,2.11,0,0,1-.11,1.46,10.49,10.49,0,0,1-1,1.91c-.23.23-.34.45-.56.68a10.56,10.56,0,0,0-2.36,2.69c-.12.12-.12.23-.23.34s-.22.23-.34.34-.22.11-.33.22V59c-.79.68-1.58,1.24.22-.45A7.12,7.12,0,0,1,196,61.16a8.83,8.83,0,0,1-1.47,1.46,11.88,11.88,0,0,1-2.13,2c-1.35,1.13-2.7,2.36-4,3.49A29,29,0,0,1,182.48,72c-.11.11-.22.22-.33.22a6.51,6.51,0,0,1-4.73,1.13A9.15,9.15,0,0,1,173,71.39a5.35,5.35,0,0,0-.79-.79,1.17,1.17,0,0,0-1.35-.11A2.91,2.91,0,0,0,169.55,72a12.39,12.39,0,0,1-2.13,3.26c-.45.68-.9,1.35-1.35,2.14a14.51,14.51,0,0,1-1.58,2.36,28.23,28.23,0,0,0-1.91,2.92,8.8,8.8,0,0,1-.9,1.35,2.17,2.17,0,0,1-1.57,1c-.56.23-.67.11-.79-.45M175,65.65h0Zm6,4.16a2.3,2.3,0,0,0,1.69-.67c.56-.9,1.46-1.24,2.13-2-.22.11-.45.11-.67.22l-4.05,2a.42.42,0,0,0-.23.12.11.11,0,0,0-.11.11.42.42,0,0,0,.34.11c0,.11.11.11.22.11a.69.69,0,0,0,.68,0m-.11-.33a.4.4,0,0,0,.11.33h-.68a2.6,2.6,0,0,0,.57-.33m3.59.56a2.49,2.49,0,0,0,1.47-.9,4,4,0,0,0-1.47.9,35.35,35.35,0,0,0-3.59,1.57c-.23.12-.34.23-.23.34a.42.42,0,0,0,.34.11,7.29,7.29,0,0,0,3.48-2m-3.48-.56h0Zm2.36-13.38h0Zm0-.34v0ZM185,54.07v0Zm3.93,10.35c.11-.12.23-.12.23-.23s-.12.11-.23.23l-.33.33.33-.33m6-5.06c.11,0,.11-.11.23-.23-.12.12-.23.12-.34.23s-.11.22-.23.34l.34-.34m3.49-.68c.11-.11.22-.22.33-.22s.23-.23.34-.34.11-.22.23-.34a.53.53,0,0,1-.12.9c-.22.23-.45.23-.78.34Zm3.37-3.59-.11.11Z" transform="translate(0 0)"/><path class="cls-3" d="M197.32,68.69A11.05,11.05,0,0,1,196,61.16a18.71,18.71,0,0,1,2.24-7,15.58,15.58,0,0,1,4.28-5.06,13,13,0,0,1,3.93-2.59,4.12,4.12,0,0,1,2-.45,2,2,0,0,1,1.68.79,5.34,5.34,0,0,1,1.24,5.84,8.69,8.69,0,0,1-4.95,5.4V57.9c.11-.12.23-.23.34-.34-.11.11-.23.22-.34.34a4.48,4.48,0,0,0-2,1.12,2.88,2.88,0,0,0-1.46.68h.78a1.56,1.56,0,0,1-1,.56c-.34.11-.67.22-1.12.33a1.94,1.94,0,0,0-1.91,1.69,3.54,3.54,0,0,1-.34,1v-.11c0,.56-.11,1.12-.11,1.69V66c.11,1.13.45,1.35,1.35,1.35a8,8,0,0,0,1.79-.34c2.59-1,5.18-1.91,7.31-3.82l1-.67a86,86,0,0,0,8.21-6.19,12.2,12.2,0,0,1,2.36-1.8h.23v.34a1.59,1.59,0,0,0-.34.45c-.22.11-.56.34-.34.56s.34-.11.57-.22a4.49,4.49,0,0,1,.78-.45.39.39,0,0,0,.23.11.35.35,0,0,1,.11.23,1.15,1.15,0,0,1-.45.78,9.54,9.54,0,0,0-1.69,1.91v-.11l-.33.34h.11a5.53,5.53,0,0,0-2.14,1.8l-.34.33h.12c-.12.12-.23.23-.34.23a3.32,3.32,0,0,0-1.57,1.24H216a14.58,14.58,0,0,0-4.27,3.26,2.13,2.13,0,0,0-1.13.9l-.34.33a6.34,6.34,0,0,0-2.13,1.35c-1.35.68-2.59,1.24-3.94,1.91a.37.37,0,0,0-.11.23c0,.11.11.11.23.11h.45a14.07,14.07,0,0,0,3.59-2,5.4,5.4,0,0,0,1.91-1.69c.12,0,.23-.11.34-.22a2.43,2.43,0,0,0,1.24-.79c.45-.23,1-.45,1.46-.68-.22.45-.67.68-1,1-1.35,1-2.59,2-3.94,2.92a14.13,14.13,0,0,1-5.06,2.47,5.39,5.39,0,0,1-6-2.47m5.4-11.36a14.23,14.23,0,0,0,4.72-3.48,14.61,14.61,0,0,0,1.91-3.15,1.55,1.55,0,0,0,.12-.67c0-.45-.23-.68-.45-.68a3.08,3.08,0,0,0-1.69.56,15.27,15.27,0,0,0-2.58,2.14A13.94,13.94,0,0,0,201.93,56l-.33,1c0,.33.22.67.56.56a.87.87,0,0,1,.56-.23m3.71-1.23c.11-.12.23-.23.34-.34s.22-.11.22-.22h.12c-.12.11-.23.22-.34.22s-.23.22-.34.34c-1.57.67-2.92,1.8-4.61,2.36a.38.38,0,0,1-.11.22c.11.12.11.12.22.12a8.89,8.89,0,0,0,4.5-2.7m-2.92,12.14h.56c.23-.11.45-.11.56-.22l.68-.34a2.49,2.49,0,0,1,.56-.34v.11c.22-.11.34-.22.56-.33a2.63,2.63,0,0,0,.56-.34.9.9,0,0,0,.9-.56,8.8,8.8,0,0,0,2.7-1.8v-.57a1.69,1.69,0,0,0,.9-.67c.11,0,.23-.11.34-.22a2.54,2.54,0,0,0,2-1.47l.34-.33a4.08,4.08,0,0,0,.9-.57c.11-.11.22-.11.34-.22s.11-.11.22-.23a.41.41,0,0,0-.34.12c-.11.11-.11.22-.22.33a1.56,1.56,0,0,0-.9.57l-.34.33a5.22,5.22,0,0,0-2,1.47l-.34.33a1.63,1.63,0,0,0-.9.56c-.11.12-.22.23-.34.23a16.53,16.53,0,0,0-3.26,2,32.25,32.25,0,0,0-4.38,2.14Zm.56,0h0Zm.23-9.11c.45-.11.9-.22,1.23-.33a2.81,2.81,0,0,1-1.8.9l.57-.57m1.91-.67-.68.34Zm.22-.23c-.11.12-.22.12-.22.23h-.12c.12-.11.23-.23.34-.23m0-10.79c.34.11.56.22.9,0,0-.11,0-.22.11-.22a.33.33,0,0,0-.22-.12.87.87,0,0,0-.79.45h-.11ZM208.34,49c.12-.11.23-.22.12-.33a.21.21,0,0,0-.34,0,1.43,1.43,0,0,0-1.24,1c.45-.23.9-.45,1.46-.68M207,66.67c.12,0,.12.11,0,.11Zm3.26-2.59h.34v.34c-.11-.12-.22-.23-.34-.34m4.16-.23a4.11,4.11,0,0,1-1.12.9,1.52,1.52,0,0,1,1.12-.9m.34-.33-.34.33.34-.33m.34-.23c-.11,0-.23.12-.34.23.11-.11.23-.23.34-.23m.9-1.23h.56a3.94,3.94,0,0,1-1.35,1.12c.23-.45.56-.67.79-1.12m.9-.34c-.11.11-.23.22-.34.34.11-.12.23-.23.34-.34m.56-.9c.11,0,.22-.11.34-.23h-.12l.34-.33h.56a3.42,3.42,0,0,1-1.68,1.35c.11-.23.34-.45.56-.79m1.46-3.26c.11-.11.23-.23.34-.23s.11-.22.22-.33l.34-.34-.34.34c0,.11-.11.22-.22.33s-.23.23-.34.23c-1.24.56-2.25,1.46-1.8,1.46.79-.11,1.24-.79,1.8-1.46m0,2.36-.34.34.34-.34m.34-.22c-.11.11-.23.22-.34.22.11-.11.23-.11.34-.22m.22-.34c-.11.11-.11.22-.22.34h-.11l.33-.34m.68-.23a1.67,1.67,0,0,0-.68.23,1.67,1.67,0,0,1,.68-.23m0-.67H220l.33-.34c.45.56,0,.68-.22.9Z" transform="translate(0 0)"/><rect class="cls-4" x="89.41" y="39.91" width="0.32" height="37.25"/><rect class="cls-5" x="89.41" y="39.91" width="0.31" height="37.25"/><path class="cls-4" d="M24.88,59.32A12,12,0,0,1,12.71,71.39a12.09,12.09,0,1,1,0-24.17,12,12,0,0,1,12.17,12.1m-1.62,0A10.42,10.42,0,0,0,12.71,48.63a10.68,10.68,0,0,0,0,21.35A10.41,10.41,0,0,0,23.26,59.32" transform="translate(0 0)"/><path class="cls-6" d="M24.88,59.32A12,12,0,0,1,12.71,71.39a12.09,12.09,0,1,1,0-24.17A12,12,0,0,1,24.88,59.32Zm-1.62,0A10.42,10.42,0,0,0,12.71,48.63a10.68,10.68,0,0,0,0,21.35A10.41,10.41,0,0,0,23.26,59.32Z" transform="translate(0 0)"/><path class="cls-4" d="M30.09,59.85V71H28.55V47.54H36c3.83,0,6.86,2.11,6.86,6.12S40.05,59.85,36,59.85Zm0-1.41h6c3.07,0,5.14-1.79,5.14-4.75s-2-4.75-5.38-4.75H30.09Z" transform="translate(0 0)"/><path class="cls-6" d="M30.09,59.85V71H28.55V47.54H36c3.83,0,6.86,2.11,6.86,6.12S40.05,59.85,36,59.85Zm0-1.41h6c3.07,0,5.14-1.79,5.14-4.75s-2-4.75-5.38-4.75H30.09Z" transform="translate(0 0)"/><path class="cls-4" d="M47,47.54V62.21c0,2.21.1,3.66,1,5.06a6.85,6.85,0,0,0,10.91,0c.88-1.4,1-2.85,1-5.06V47.54h1.55V62.21c0,2.56-.14,4.25-1.33,6a7.74,7.74,0,0,1-6.65,3.17,7.74,7.74,0,0,1-6.65-3.17c-1.2-1.76-1.34-3.45-1.34-6V47.54Z" transform="translate(0 0)"/><path class="cls-6" d="M47,47.54V62.21c0,2.21.1,3.66,1,5.06a6.85,6.85,0,0,0,10.91,0c.88-1.4,1-2.85,1-5.06V47.54h1.55V62.21c0,2.56-.14,4.25-1.33,6a7.74,7.74,0,0,1-6.65,3.17,7.74,7.74,0,0,1-6.65-3.17c-1.2-1.76-1.34-3.45-1.34-6V47.54Z" transform="translate(0 0)"/><path class="cls-4" d="M75.31,51.51a5,5,0,0,0-4.61-2.88A4.17,4.17,0,0,0,66.33,53c0,2.53,1.76,3.38,4.12,4.54A33.29,33.29,0,0,1,75.13,60a5.16,5.16,0,0,1,2.5,4.54,7,7,0,0,1-7.32,6.86,6.69,6.69,0,0,1-5.45-2.46,7.85,7.85,0,0,1-1.52-2.57l1.34-.63A8.42,8.42,0,0,0,66,68a5.65,5.65,0,0,0,4.4,2A5.46,5.46,0,0,0,76,64.56a4.12,4.12,0,0,0-2.29-3.69c-.67-.39-2-1.09-4-2-2.33-1.13-3.49-1.76-4.3-3.1a5.1,5.1,0,0,1-.73-2.67,5.7,5.7,0,0,1,6-5.84,6.3,6.3,0,0,1,5.7,3.34Z" transform="translate(0 0)"/><path class="cls-6" d="M75.31,51.51a5,5,0,0,0-4.61-2.88A4.17,4.17,0,0,0,66.33,53c0,2.53,1.76,3.38,4.12,4.54A33.29,33.29,0,0,1,75.13,60a5.16,5.16,0,0,1,2.5,4.54,7,7,0,0,1-7.32,6.86,6.69,6.69,0,0,1-5.45-2.46,7.85,7.85,0,0,1-1.52-2.57l1.34-.63A8.42,8.42,0,0,0,66,68a5.65,5.65,0,0,0,4.4,2A5.46,5.46,0,0,0,76,64.56a4.12,4.12,0,0,0-2.29-3.69c-.67-.39-2-1.09-4-2-2.33-1.13-3.49-1.76-4.3-3.1a5.1,5.1,0,0,1-.73-2.67,5.7,5.7,0,0,1,6-5.84,6.3,6.3,0,0,1,5.7,3.34Z" transform="translate(0 0)"/><path class="cls-3" d="M169.79,78.06h.84v.83a1.3,1.3,0,0,1,1.3-.9v.89h-.05c-.74,0-1.25.49-1.25,1.46v1.4h-.84Z" transform="translate(0 0)"/><path class="cls-3" d="M172.87,79.92h0a2,2,0,0,1,3.92,0h0a1.93,1.93,0,0,1-2,1.92,1.9,1.9,0,0,1-1.95-1.91m3.08,0h0a1.14,1.14,0,0,0-1.13-1.19,1.11,1.11,0,0,0-1.11,1.18h0a1.14,1.14,0,0,0,1.12,1.18A1.11,1.11,0,0,0,176,79.92" transform="translate(0 0)"/><path class="cls-3" d="M178.13,80.4V78.06H179v2.09c0,.58.29.89.79.89a.81.81,0,0,0,.83-.9V78.06h.85v3.68h-.85v-.57a1.32,1.32,0,0,1-1.15.65,1.27,1.27,0,0,1-1.31-1.42" transform="translate(0 0)"/><path class="cls-3" d="M183,78.06h.85v.57A1.34,1.34,0,0,1,185,78a1.26,1.26,0,0,1,1.31,1.41v2.35h-.85V79.65c0-.57-.28-.9-.78-.9a.82.82,0,0,0-.83.92v2.07H183Z" transform="translate(0 0)"/><path class="cls-3" d="M187.68,79.91h0A1.77,1.77,0,0,1,189.39,78a1.54,1.54,0,0,1,1.26.65v-2h.84v5.09h-.84v-.61a1.49,1.49,0,0,1-1.26.69,1.77,1.77,0,0,1-1.71-1.91m3,0h0a1.1,1.1,0,0,0-1.07-1.18,1.08,1.08,0,0,0-1.06,1.18h0a1.1,1.1,0,0,0,1.06,1.18,1.11,1.11,0,0,0,1.07-1.18" transform="translate(0 0)"/><path class="cls-3" d="M195.69,82.43l.31-.63a2.46,2.46,0,0,0,1.31.39,1,1,0,0,0,1.17-1.13v-.29a1.54,1.54,0,0,1-1.3.68,1.65,1.65,0,0,1-1.67-1.72v0A1.65,1.65,0,0,1,197.18,78a1.58,1.58,0,0,1,1.29.62v-.55h.84V81a1.92,1.92,0,0,1-.46,1.39,2.1,2.1,0,0,1-1.51.49,3.13,3.13,0,0,1-1.65-.44m2.8-2.71h0a1,1,0,0,0-1.09-1,1,1,0,0,0-1,1h0a1,1,0,0,0,1,1,1,1,0,0,0,1.09-1" transform="translate(0 0)"/><path class="cls-3" d="M200.7,79.92v0A1.83,1.83,0,0,1,202.5,78a1.78,1.78,0,0,1,1.76,2c0,.07,0,.15,0,.23h-2.71a1,1,0,0,0,1.06.94,1.36,1.36,0,0,0,1-.44l.49.44a1.92,1.92,0,0,1-3.39-1.22m2.73-.28a1,1,0,0,0-.94-1,1,1,0,0,0-1,1Z" transform="translate(0 0)"/><rect class="cls-3" x="205.69" y="76.66" width="0.84" height="5.09"/><path class="cls-3" d="M210.8,76.7h.9v.8h-.9Zm0,1.36h.84v3.68h-.84Z" transform="translate(0 0)"/><path class="cls-3" d="M213.3,78.06h.85v.56a1.32,1.32,0,0,1,1.12-.64,1.16,1.16,0,0,1,1.1.65,1.47,1.47,0,0,1,1.24-.65,1.24,1.24,0,0,1,1.29,1.41v2.35h-.84V79.65c0-.58-.27-.9-.75-.9s-.78.32-.78.92v2.07h-.85v-2.1c0-.57-.28-.89-.74-.89s-.79.35-.79.92v2.07h-.85Z" transform="translate(0 0)"/><path class="cls-3" d="M220.45,78.06h.85v.62a1.46,1.46,0,0,1,1.25-.7,1.77,1.77,0,0,1,1.71,1.92h0a1.76,1.76,0,0,1-1.71,1.91,1.49,1.49,0,0,1-1.25-.65v1.69h-.85Zm3,1.85h0a1.09,1.09,0,0,0-1.05-1.18,1.11,1.11,0,0,0-1.08,1.18h0a1.12,1.12,0,0,0,1.08,1.18,1.08,1.08,0,0,0,1.05-1.18" transform="translate(0 0)"/><rect class="cls-3" x="225.71" y="76.66" width="0.84" height="5.09"/><path class="cls-3" d="M227.94,80.68h0c0-.8.62-1.19,1.52-1.19a3.11,3.11,0,0,1,1,.16v-.09c0-.53-.32-.8-.92-.8a2.53,2.53,0,0,0-1.05.23l-.22-.67a3.13,3.13,0,0,1,1.38-.3,1.62,1.62,0,0,1,1.22.42,1.48,1.48,0,0,1,.4,1.13v2.18h-.82v-.46a1.5,1.5,0,0,1-1.2.54,1.17,1.17,0,0,1-1.3-1.14m2.52-.26v-.25a2.22,2.22,0,0,0-.84-.15c-.54,0-.86.23-.86.61v0c0,.35.31.56.72.56s1-.32,1-.79" transform="translate(0 0)"/><path class="cls-3" d="M232.8,78.06h.84v.57a1.35,1.35,0,0,1,1.15-.65,1.26,1.26,0,0,1,1.31,1.41v2.35h-.84V79.65c0-.57-.29-.9-.79-.9a.82.82,0,0,0-.83.92v2.07h-.84Z" transform="translate(0 0)"/><path class="cls-3" d="M237.82,80.72V78.79h-.46v-.73h.46v-1h.85v1h1v.73h-1v1.8c0,.33.16.46.45.46a1.14,1.14,0,0,0,.52-.12v.69a1.45,1.45,0,0,1-.76.19,1,1,0,0,1-1.06-1.09" transform="translate(0 0)"/><path class="cls-3" d="M240.74,81.26l.38-.57a2.06,2.06,0,0,0,1.2.45c.37,0,.58-.15.58-.39v0c0-.28-.39-.38-.83-.51s-1.15-.38-1.15-1.09h0A1.17,1.17,0,0,1,242.23,78a2.56,2.56,0,0,1,1.36.42l-.34.6a2.08,2.08,0,0,0-1-.35c-.33,0-.51.15-.51.36h0c0,.28.4.39.83.53s1.14.41,1.14,1.07v0c0,.77-.6,1.15-1.37,1.15a2.6,2.6,0,0,1-1.56-.55" transform="translate(0 0)"/><path class="cls-3" d="M179.4,97.36a2.22,2.22,0,0,0,2.44,1.9c1.43,0,2.24-.68,2.24-1.8s-1-1.39-2.53-1.89c-1.84-.57-2.71-1.3-2.71-2.73,0-1.88,1.45-3.19,3.71-3.19a6.14,6.14,0,0,1,2.69.67l-.6,1.8h-.21a1.83,1.83,0,0,0-2.05-1.62,1.72,1.72,0,0,0-1.94,1.66c0,1.12.95,1.3,2.48,1.78,1.88.58,2.78,1.18,2.78,2.79,0,2-1.52,3.34-4.11,3.34a7,7,0,0,1-2.92-.62c.17-.69.36-1.39.54-2.09Z" transform="translate(0 0)"/><path class="cls-3" d="M188.74,93.83a39.25,39.25,0,0,0-.14-3.93,5.12,5.12,0,0,0,1,.09,5.42,5.42,0,0,0,1.06-.09,30.78,30.78,0,0,0-.15,3.67c0,2.61,0,4.7.15,6.25a6.34,6.34,0,0,0-1.06-.1,6,6,0,0,0-1,.1c.1-1.22.14-3.21.14-6" transform="translate(0 0)"/><path class="cls-3" d="M196.61,93.92c1,0,2.34,0,4,0,0-.19,0-.42,0-.6,0-1.74-1-2.82-2.38-2.82-1.56,0-2.51,1.2-2.65,3.46Zm-1.06,1c0,2.74,1.27,4.25,3.4,4.25a3.71,3.71,0,0,0,3-1.33l.27.07a9,9,0,0,0-.16,1.2,7,7,0,0,1-3.65,1c-3.1,0-5-1.91-5-5.07s1.89-5.37,4.81-5.37c2.73,0,4.37,1.68,4.37,4.54,0,.21,0,.41,0,.62-1.56,0-3-.08-4.46-.08-.91,0-1.78,0-2.63,0Z" transform="translate(0 0)"/><path class="cls-3" d="M205.35,93.86a36.5,36.5,0,0,0-.14-4,5.44,5.44,0,0,0,2,0c0,.58,0,1.16-.07,1.78a4,4,0,0,1,3.55-2,3.27,3.27,0,0,1,2.5,1,3.68,3.68,0,0,1,.64,2.61v3c0,1,0,2.13.09,3.48a5.87,5.87,0,0,0-1-.1,6,6,0,0,0-1,.1c.08-1.8.14-3.35.14-4.64V94.12a3.87,3.87,0,0,0-.47-2.4,2.19,2.19,0,0,0-1.77-.78c-1.84,0-2.58,1.36-2.58,4.14,0,1.61,0,3.19.1,4.74a5.78,5.78,0,0,0-1-.1,6,6,0,0,0-1,.1c.12-1.3.14-3.29.14-6" transform="translate(0 0)"/><path class="cls-3" d="M217.33,89.26c0-.27,0-.78-.08-1.55a8.3,8.3,0,0,0,2.09-.95,18.92,18.92,0,0,0-.2,2.34v1a14,14,0,0,0,2.25-.17,4.38,4.38,0,0,0,0,.52,4.92,4.92,0,0,0,0,.52,14.91,14.91,0,0,0-1.9-.12h-.37L219,95.89v.49c0,1.89.27,2.76,1.68,2.76a5.67,5.67,0,0,0,.93-.11v.71a5.63,5.63,0,0,1-1.86.33c-1.78,0-2.57-.93-2.57-2.92,0-.83.06-1.91.08-3.23Z" transform="translate(0 0)"/><path class="cls-3" d="M224.43,93.26a25.07,25.07,0,0,0-.16-3.36,5.73,5.73,0,0,0,1.09.09,5.56,5.56,0,0,0,1.08-.09,12.73,12.73,0,0,0-.16,1.84V92a3.54,3.54,0,0,1,3.25-2.31,3.86,3.86,0,0,1,.47,0,7.61,7.61,0,0,0-.08,1,8.94,8.94,0,0,0,.08,1,6.65,6.65,0,0,0-1.38-.22,2.14,2.14,0,0,0-1.62.7,3.35,3.35,0,0,0-.76,2.52v2.16c0,.85,0,1.84.12,3a6.34,6.34,0,0,0-1.06-.1,6,6,0,0,0-1,.1c.14-1.06.16-3.25.16-6.56" transform="translate(0 0)"/><path class="cls-3" d="M236.2,94.83c-1.89.35-2.78,1-2.78,2.21a1.64,1.64,0,0,0,1.68,1.83,2.22,2.22,0,0,0,2.34-2.38V94.58Zm-1.91,5.26a2.65,2.65,0,0,1-2.86-2.71c0-2,1.06-2.57,3.38-3.09l1.88-.41c.58-.13.81-.4.81-1.06a2.16,2.16,0,0,0-2.34-2.34,2.54,2.54,0,0,0-2.49,1.64l-.43-.17.1-1.11a4.71,4.71,0,0,1,3.34-1.23c2.59,0,3.52,1,3.52,3.29v4.91c0,.85.08,1.18.89,1.18.06,0,.25,0,.6,0v.44a4.75,4.75,0,0,1-1.89.51c-.82,0-1.24-.43-1.36-1.38a4,4,0,0,1-3.15,1.55" transform="translate(0 0)"/><path class="cls-4" d="M189.67,85a1.09,1.09,0,0,1,1.2,1.18,1,1,0,0,1-1.11,1.1,1.14,1.14,0,1,1-.09-2.28" transform="translate(0 0)"/><path class="cls-3" d="M242.68,99.23h.08c.11,0,.19,0,.19-.11s0-.13-.17-.13h-.1Zm0,.46h-.19v-.81a2.16,2.16,0,0,1,.31,0,.41.41,0,0,1,.28.07.19.19,0,0,1,.09.17.21.21,0,0,1-.17.19h0a.23.23,0,0,1,.14.2.8.8,0,0,0,.06.2H243a.68.68,0,0,1-.06-.2.15.15,0,0,0-.17-.12h-.09Zm-.5-.42a.62.62,0,0,0,.63.64.61.61,0,0,0,.62-.64.63.63,0,1,0-1.25,0m1.46,0a.82.82,0,0,1-.83.81.81.81,0,1,1,0-1.62.81.81,0,0,1,.83.81" transform="translate(0 0)"/><path class="cls-3" d="M169.77,91.45V87.59h.44v1.49a1.15,1.15,0,0,1,.94-.5c.74,0,1.24.58,1.24,1.47s-.51,1.47-1.24,1.47a1.16,1.16,0,0,1-.94-.49v.42Zm1.28-.32c.56,0,.89-.46.89-1.08s-.33-1.08-.89-1.08a1,1,0,0,0-.84.45v1.27a1,1,0,0,0,.84.44" transform="translate(0 0)"/><path class="cls-3" d="M173,92.15a.67.67,0,0,0,.24,0,.4.4,0,0,0,.42-.29l.18-.42-1.17-2.83h.48l.92,2.3.93-2.3h.47L174.08,92a.82.82,0,0,1-.82.56,1,1,0,0,1-.31,0Z" transform="translate(0 0)"/><path class="cls-4" d="M82.1,50.56a2.14,2.14,0,0,1-1.6.67,2.12,2.12,0,0,1-1.59-.67,2.26,2.26,0,1,1,3.19,0m-3-3A1.86,1.86,0,0,0,78.57,49a1.89,1.89,0,0,0,.56,1.39,1.86,1.86,0,0,0,1.37.57,2,2,0,1,0-1.37-3.33m1.33.12a1.91,1.91,0,0,1,.68.09.63.63,0,0,1,.38.63.54.54,0,0,1-.24.49.85.85,0,0,1-.36.12.62.62,0,0,1,.43.24.67.67,0,0,1,.13.39v.18a1.09,1.09,0,0,0,0,.18.31.31,0,0,0,0,.13v0h-.4s0,0,0,0v-.3c0-.29-.07-.48-.23-.57a1,1,0,0,0-.49-.08H80v1h-.44V47.71Zm.47.39A1.15,1.15,0,0,0,80.4,48H80v.9h.39a1.4,1.4,0,0,0,.42,0,.39.39,0,0,0,.26-.39.4.4,0,0,0-.17-.37" transform="translate(0 0)"/><path class="cls-3" d="M222.66,46.93v-.4h2v.4h-.78v2h-.47v-2Zm3.12-.4.61,1.71.61-1.71h.68v2.38h-.44V47l-.66,1.92h-.38L225.54,47v1.92h-.44V46.53Z" transform="translate(0 0)"/></g></g></g></svg>