<svg xmlns="http://www.w3.org/2000/svg" xmlns:xlink="http://www.w3.org/1999/xlink" viewBox="0 0 239.71 61.38"><defs><style>.cls-1,.cls-5,.cls-6{fill:none;}.cls-2{clip-path:url(#clip-path);}.cls-3{fill:#53575a;}.cls-4{fill:#ff8300;}.cls-5,.cls-6{stroke:#ff8300;stroke-miterlimit:10;}.cls-5{stroke-width:0.54px;}.cls-6{stroke-width:1.08px;}.cls-7{fill:#636466;}.cls-8{fill:#f7941d;}.cls-9{clip-path:url(#clip-path-3);}</style><clipPath id="clip-path" transform="translate(0 0)"><rect class="cls-1" width="240.65" height="61.38"/></clipPath><clipPath id="clip-path-3" transform="translate(0 0)"><rect class="cls-1" width="240.65" height="61.38"/></clipPath></defs><g id="Layer_2" data-name="Layer 2"><g id="Layer_1-2" data-name="Layer 1"><g class="cls-2"><path class="cls-3" d="M104.88,31.11a3.21,3.21,0,0,1-.9-.78c-1.12-1.8-2.13-3.6-2-5.74a18.44,18.44,0,0,1,1-5.51,31.61,31.61,0,0,1,6.3-11A15.2,15.2,0,0,1,115,3.46a9,9,0,0,1,2.48-.79,2.84,2.84,0,0,1,2.47.9,3.13,3.13,0,0,1,.45,4.16c-.34.45-.45,1-.9,1.35s-.67.22-.79-.11a1.6,1.6,0,0,1-.22-1.24,7.42,7.42,0,0,0,.45-1.46.54.54,0,0,0-.56-.57,5.22,5.22,0,0,0-2.25,1A18.35,18.35,0,0,0,113,9.53c-1,1.23-2,2.47-3.15,3.71a13.2,13.2,0,0,0-2.47,4.83,3.13,3.13,0,0,1-.45,1.46,1.75,1.75,0,0,0-.34.45c0,.34.23.23.34.12a4.1,4.1,0,0,1-.34,1.12,2.81,2.81,0,0,0-1,2.25c-.11.45-.23,1-.34,1.57v.34c.68.67.34,1.57.68,2.36a.74.74,0,0,0,.67.45,5.76,5.76,0,0,0,1.35-.22,23.81,23.81,0,0,0,4.83-2.37c1.47-1.12,3-2,4.5-3.14,2-1.58,3.94-3.15,5.85-4.73a7.18,7.18,0,0,1,2.25-1.46,6.65,6.65,0,0,1-.9,1.46,2.67,2.67,0,0,0-1.35.9c-2.81,2.36-5.74,4.73-8.66,7a4.29,4.29,0,0,0-1.57,1.24,2.65,2.65,0,0,0-1.46,1,.9.9,0,0,0-.57.23,2.17,2.17,0,0,0-.56.34h.79l.67-.34a.9.9,0,0,1,.56-.23,1.69,1.69,0,0,0,.9-.67,3.87,3.87,0,0,0,1.47-.9c2.92-2,5.5-4.39,8.2-6.63a12.71,12.71,0,0,0,1.58-1.92,2.94,2.94,0,0,0,1.57-1c.68-.56,1.24-1.12,1.8-1.68a1.85,1.85,0,0,1,.56-.45c.11-.23.34-.12.56,0a.33.33,0,0,1,.12.45c0,.22-.12.33-.12.56a4.27,4.27,0,0,0-1.12.9c-2,1.68-3.93,3.48-5.85,5.28a1.82,1.82,0,0,0-.78,1,2.64,2.64,0,0,0-1.8,1.47,1.71,1.71,0,0,0-1.13.67l-1.68,1.35a35.45,35.45,0,0,1-7,4.5c-.12,0-.34.11-.23.33A8.15,8.15,0,0,0,112.3,30a9.27,9.27,0,0,1,1.8-1,9.54,9.54,0,0,1-4.94,2.81,4.77,4.77,0,0,1-4.28-.68m1.24-7.87s0,.12-.11.12c.11,0,.11-.12.11-.12m0,.12h0Zm.79-3.83v0Zm3.93,8.55c.12.11.12.22.23.34h-.23Zm.57-.23c.11,0,.22.12.33.23-.11-.11-.22-.23-.33-.23M113,27a.24.24,0,0,0,.22.23A.24.24,0,0,1,113,27m1.35-19.67c.11,0,.22-.11.34-.23l.33-.33a1.56,1.56,0,0,0,.9-.57,2.47,2.47,0,0,0,1.69-.9h.34V5.14c-.12-.11-.23,0-.34.11a2.53,2.53,0,0,0-1.8.9,2.09,2.09,0,0,0-.79.57l-.33.33-.34.34c-.11,0-.11.11-.23.23.12-.12.12-.23.23-.34m0,21.47c-.11,0-.11.12-.23.23a.26.26,0,0,1,.23-.23m.9-.67c-.23.34-.45.56-.79.56.34-.22.45-.45.79-.56m0-23.39h.34c.45-.22,1-.45,1.46-.67.22,0,.33-.11.22-.34a.28.28,0,0,0-.45-.11,3,3,0,0,0-1.57.79,2.5,2.5,0,0,1-.56.33Zm0-.33.34.33h-.34Zm.34,23.49c-.12.12-.23.12-.34.23.11-.11.22-.23.34-.23m.89-.67a2.81,2.81,0,0,1-.67.56c.23-.22.45-.34.67-.56m.23-.23a.24.24,0,0,1-.23.23c.12-.11.12-.23.23-.23m.34-.33-.34.33.34-.33m.9-.57a1.62,1.62,0,0,1-.9.57,2.43,2.43,0,0,1,.9-.57m.33-.33-.33.33.33-.33m.23-.23c-.11,0-.11.11-.23.23a.25.25,0,0,1,.23-.23m.9-1.23h.67a4.72,4.72,0,0,1-1.46,1.12,2.54,2.54,0,0,0,.79-1.12m.9-.34c-.12.11-.23.22-.23.34H120c.11-.12.22-.23.34-.34m.9-1.13h.56a3.74,3.74,0,0,1-1.46,1.13,3,3,0,0,0,.9-1.13m.9-.33-.34.33.34-.33m.33-.34-.33.34.33-.34m.23-.23a.24.24,0,0,1-.23.23c0-.11.12-.11.23-.23m1.46-1.23a2.66,2.66,0,0,1-1.46,1.23,5.12,5.12,0,0,1,1.46-1.23m.34-.23c-.11.12-.23.23-.34.23.11-.11.23-.11.34-.23m.33-.33-.33.33.33-.33m.23-.34h.11l-.34.34c.12-.12.12-.23.23-.34m.34-.23c-.12.12-.23.12-.23.23H125c.11-.11.22-.11.34-.23m2.25-5.62h.22v.34a11,11,0,0,1-2.47,2,14.89,14.89,0,0,1,2.25-2.36m-1.92,5.29-.33.33.33-.33m.23-.34c0,.11-.11.22-.23.34.12-.12.12-.23.23-.34m.34-.23c-.12.12-.23.12-.34.23.11-.11.22-.23.34-.23m.33-.33-.33.33.33-.33m.23-.34c0,.11-.11.22-.23.34.12-.12.12-.23.23-.34m.34-.23c-.12.12-.23.23-.34.23.11-.11.22-.11.34-.23m.33-.33-.33.33.33-.33m1.46-1.8v0Z" transform="translate(0 0)"/><path class="cls-3" d="M124.34,27.4a9.88,9.88,0,0,1-1.13-2.47,7.44,7.44,0,0,1,.11-2.7,43.06,43.06,0,0,1,3.15-8.54,6.17,6.17,0,0,1,.9-1.69,1.11,1.11,0,0,1,1.8,0c.22.23.56.45.79.67a2.9,2.9,0,0,1,.45,2.7c-.57,1.13-1,2.25-1.47,3.38a.2.2,0,0,0-.33,0v0h.33c-.45,1.68-.89,3.48-1.46,5.17a5.82,5.82,0,0,0-.22,1.46c.11.34.34.68.67.68s.68-.12.9-.12c.56-.11,1-.22,1.46-.34a6,6,0,0,0,3-1.23c1.12-.79,2.36-1.8,3.48-2.7.79-.56,1.47-1.24,2.25-1.91,1.35-1.24,2.59-2.47,3.94-3.6,1.57-1.35,3.15-2.92,4.61-4.38.11-.12.22-.23.34-.23a.75.75,0,0,1,1.12.11,9.17,9.17,0,0,0,1,1.24,2.49,2.49,0,0,1,.34,1.8.41.41,0,0,0-.11.34A15.69,15.69,0,0,0,148.84,20a17.38,17.38,0,0,0-.11,3.38c0,.45.23.67.79.78a6.47,6.47,0,0,0,2-.33,51.77,51.77,0,0,0,5.74-2.25c.11-.12.34-.12.45-.23,1.8-1.23,3.82-2.13,5.73-3.37a25.21,25.21,0,0,0,2.81-1.91c.23-.11.34-.34.56-.45s.57-.11.68.11a3.77,3.77,0,0,0,.79,1.12.91.91,0,0,1,.33.79,1.82,1.82,0,0,0,.12.79,4.29,4.29,0,0,1-1.47,1.69l-4,2.69a3.9,3.9,0,0,0-1.35,1,27.44,27.44,0,0,0-4,2.13,12,12,0,0,1-2.7,1.24l-1.35.67a6.17,6.17,0,0,1-5.28-.22,4.68,4.68,0,0,1-2.14-2,15.74,15.74,0,0,1-1.35-4,3.52,3.52,0,0,0-.22-.9c0-.23-.45-.34-.68-.12a3.08,3.08,0,0,0-.67.57,81.9,81.9,0,0,1-6.52,6c-.34.33-.57.56-.9.9h-.34a11,11,0,0,1-3.15,1.8,10.62,10.62,0,0,1-3.26.56,5.74,5.74,0,0,1-4.94-2.93m8.76-1.23h.34a.87.87,0,0,1,.56-.23,3,3,0,0,1,.57-.34l.33-.33a.85.85,0,0,1,.57-.23c.11-.11.22-.22.22-.33l.34-.34v-.23l.33-.67c.12-.11.23-.11.23-.23a1.39,1.39,0,0,0,.9-.67c.11,0,.22-.11.34-.23l.33-.33c.12-.12.12-.23.23-.34a1.63,1.63,0,0,0,1.24-1,2.9,2.9,0,0,0-1.24,1.12l-.23.23-.33.33-.34.34a1.33,1.33,0,0,0-.79.56c-.11.12-.22.23-.34.23a2.51,2.51,0,0,0-1.23.9c-1,.45-1.91,1-2.92,1.57-.45.23-.79.56-1.24.79a6.69,6.69,0,0,0,2.13-.56m-.33,2.36a3.82,3.82,0,0,0,2.13-.79,18.65,18.65,0,0,0,3-2.25,6.14,6.14,0,0,0,1.69-1.68c.11-.12.22-.12.33-.23s.12-.11.12-.22c0,.11-.12.11-.23.11s-.11.22-.22.34-.45.11-.57.22A59.81,59.81,0,0,1,133,28.42a.38.38,0,0,1-.22.11v0Zm.67-2.36h0Zm1.13-.9v.33H134a2.6,2.6,0,0,0,.57-.33m-.57.33v0Zm.9-.67v.34h-.33l.33-.34m.57.11.33-.33v-.34a1,1,0,0,1-.56.11,1.73,1.73,0,0,1-.45.56Zm.56-.9v.23h-.34c.11-.11.23-.23.34-.23M136,28h0Zm8-8.32h.11a1.44,1.44,0,0,0-.9.89c.23-.33.57-.56.79-.89m1.91-4.5h0Zm7.65,9.78a.87.87,0,0,0,.56-.22c.34-.12.56-.23.9-.34a1.62,1.62,0,0,1,.67-.23,2.6,2.6,0,0,1,.57-.33c.22-.12.33-.23.56-.34a.82.82,0,0,0,.56-.23l.67-.33a2.25,2.25,0,0,1,.57-.34v.11c.22-.11.33-.22.56-.34a2.5,2.5,0,0,0,.56-.33l.68-.34a1.81,1.81,0,0,0,.56-.23l.33-.33a.9.9,0,0,1,.57-.23c.22-.11.33-.22.56-.34a2.5,2.5,0,0,0,.56-.33c.11-.11.23-.23.34-.23a2.5,2.5,0,0,0,.56-.33v-.57h.9v-.67h.67c0,.11.12.11.23.11v-.34h-.23a1.45,1.45,0,0,1-.67.23c-.11.11-.11.22-.22.34l-.68.33a2.34,2.34,0,0,0-1.46.9.85.85,0,0,0-.56.23,3.17,3.17,0,0,0-1.58.9,2.29,2.29,0,0,1-.56.33,3.27,3.27,0,0,0-1.35.45c-1.91.9-3.71,1.69-5.62,2.59-.34.11-.67.11-.9.45.34.34.68.11,1.13.11a.84.84,0,0,1,.56-.11m0,.11h0Zm1.91,1.35a103.89,103.89,0,0,0,9.22-4.95A6.56,6.56,0,0,0,166.38,20a2.6,2.6,0,0,0,.57-.33c.11,0,.11-.12.11-.23h-.23c-.22.11-.33.34-.56.45s-.67.34-1,.56a52.93,52.93,0,0,1-6.07,3.49c-1.46.79-2.92,1.46-4.5,2.25-.34.22-.79.22-1.12.78a4.71,4.71,0,0,0,1.91-.56M155,24.26c-.11,0,0-.12,0-.12v.12Zm.11-.23a.85.85,0,0,0,.56.11.85.85,0,0,1-.56-.11m5.29-2.25v-.34h-.57a.41.41,0,0,1-.11.34Zm-.68-.11v0Zm.68-.45a5,5,0,0,0,.56-.11v.33h-.56Zm.89-.11h0Zm.57-.9h.56v.33h-.56Zm0,.33v0Zm1.23-.56h-.67v.23h.67Zm.23,0h0Zm.56-.67v0Zm.68-.56h.22v.33h-.22Zm1.12-.57h-.23v.34h.23Zm3,.23v0Z" transform="translate(0 0)"/><path class="cls-3" d="M163.91,31.34c-.34,0-.56-.34-.67-.68a5,5,0,0,0-.68-1.8,3.18,3.18,0,0,1-.11-2q1.19-5.4,2.36-10.79c.34-2.14.79-4.27,1.13-6.41a9.43,9.43,0,0,1,.45-1.46c.11-.34.45-.34.67-.12a2.89,2.89,0,0,1,1.35,2c0,.79.11,1.69.11,2.47v3.6c0,.45-.22,1,.23,1.24s.78-.23,1.12-.45a26,26,0,0,1,5.51-3.6c1.12-.56,2.14-1.35,3.26-1.91a18.49,18.49,0,0,1,3.71-1.69,11.4,11.4,0,0,1,1.8-.34,1.91,1.91,0,0,1,1.69,2.48c0,.11-.23.22-.34.22a1.64,1.64,0,0,1-.68-.22c0-.11,0-.34-.22-.34a2.22,2.22,0,0,0-.9.11,33.14,33.14,0,0,0-4.83,2.59c-.12.11-.23.22-.34.34h.11a6.35,6.35,0,0,0-3.26,2.13h.56l-.11-.11a6.31,6.31,0,0,1-2,1.8,18.9,18.9,0,0,0-3.71,3.71A18,18,0,0,0,167,29.88c-.11.33-.11.78-.23,1.12a1.37,1.37,0,0,1-1.91.9,4,4,0,0,0-.9-.56m11.92-14.73a1.6,1.6,0,0,0,.67-.22,2.5,2.5,0,0,0-.56.33Zm1-.56-.34.34.34-.34m.56-.23c-.22.12-.45.12-.56.23h-.11a1.62,1.62,0,0,1,.67-.23m.23-.33c0,.11-.11.22-.23.33.12-.11.12-.22.23-.33m.67-.34-.67.34Zm.34-.56h-.11c.11-.12.22-.23.34-.34h.9a2.3,2.3,0,0,1-1.47.9,2.17,2.17,0,0,0,.34-.56m1.69-.57h.11a1.53,1.53,0,0,1-.67.23c.22-.11.44-.11.56-.23m.11,0c.11-.33.45-.45.79-.67a1.76,1.76,0,0,1-.9.67Zm1.46-.9a1.49,1.49,0,0,1-.67.23c.22-.11.45-.11.67-.23m.56-2.13h.23a2.18,2.18,0,0,0,1.68-.79c-.67-.45-1.12.11-1.68.23-.23.11-.34.22-.56.33V11Zm-.33-.23c.11.12.22.12.33.23h-.33Zm1.23,1.8h0Zm.56-.33a2.29,2.29,0,0,1-.56.33c.23-.11.34-.22.56-.33m.9-.34a9.26,9.26,0,0,1-.9.34c.34-.12.57-.23.9-.34" transform="translate(0 0)"/><path class="cls-3" d="M188.65,30.78a21.64,21.64,0,0,1-1.35-2,3.5,3.5,0,0,1-.56-2.58l.33-4.73c.34-2.13.57-4.27.9-6.29.45-2.36,1-4.61,1.46-7,.12-.45.23-1,.79-1.13s.79.34,1.13.68A4,4,0,0,1,192.58,10a11.72,11.72,0,0,1,.11,3.48c-.33,2.81-.56,5.51-.78,8.32a2.58,2.58,0,0,0,0,1.35c0,.23.45.45.67.34a3.8,3.8,0,0,0,1-.9c1.13-1.46,2.14-2.92,3.26-4.39s1.8-2.92,2.93-4.27a17.45,17.45,0,0,0,1.23-1.8c1.47-2.36,3-4.61,4.39-6.86.79-1.23,1.46-2.58,2.14-3.82a4.25,4.25,0,0,1,.56-1c.33-.56.78-.56,1.23,0,.12,0,.12.11.23.23,1,.78.9,1.79.56,2.81-.11.22-.34.56-.45.78a.58.58,0,0,1-.22.45,10.69,10.69,0,0,0-.79,2.25c-.23.79-1.12,1.12-1.24,2a.43.43,0,0,0-.11.23c-.67,1.24-1.35,2.59-2,3.93a4.77,4.77,0,0,1-.79,1.24,13.31,13.31,0,0,0-1.69,3,12.46,12.46,0,0,1-2.25,3.71,5.44,5.44,0,0,0-1.23,2.25,1.87,1.87,0,0,1-.9,1.46,1.41,1.41,0,0,0-.79,1v.34c-.11.22-.22.33-.34.56h-.22c-.11.11-.23.22-.34.34a2.24,2.24,0,0,0-.9,1.12l-.33.34-2,2c-.22.23-.34.34-.56.56a2.16,2.16,0,0,1-1.8.9,3.74,3.74,0,0,1-2.47-1.23m4-.45a4.23,4.23,0,0,0,1.35-1.8A7,7,0,0,0,192.36,30a.21.21,0,0,0,0,.34c.11.11.33,0,.33,0m.45,1.12c.12,0,.23-.11.34-.22l-.34.33Zm0,0v0Zm.68-.56-.34.34c.11-.12.11-.23.34-.34m.22-.23c-.11.12-.22.12-.22.23h-.11c.11-.11.22-.23.33-.23m0-.11c.12,0,.23-.11.34-.22l-.34.33Zm.57-.56c0,.11-.12.22-.23.34.11-.12.11-.23.23-.34m.33-.23c-.11.12-.22.12-.33.23.11-.11.22-.23.33-.23m.34-.33-.34.33.34-.33m.23-.34h.11l-.34.34c.11-.12.11-.23.23-.34m0-.56.33-.34h.34a4.9,4.9,0,0,1-.56.79c0-.11-.11-.23-.11-.45m.89-.56a.24.24,0,0,1-.22.22c0-.11.11-.11.22-.22m.68-.9h0Zm0-.34h.22c-.11.11-.22.22-.22.34Zm.56-.9v0Z" transform="translate(0 0)"/><path class="cls-3" d="M209.56,29.31a11,11,0,0,1-1.35-7.53,18.85,18.85,0,0,1,2.25-7,15.53,15.53,0,0,1,4.27-5.06,13.24,13.24,0,0,1,3.94-2.58,4.05,4.05,0,0,1,2-.45,2,2,0,0,1,1.69.78,5.37,5.37,0,0,1,1.23,5.85,8.73,8.73,0,0,1-4.94,5.4v-.23l.34-.34-.34.34a4.53,4.53,0,0,0-2,1.13,2.91,2.91,0,0,0-1.46.67H216a1.5,1.5,0,0,1-1,.56,11.21,11.21,0,0,1-1.13.34,1.93,1.93,0,0,0-1.91,1.69,3.44,3.44,0,0,1-.34,1v-.11c0,.56-.11,1.12-.11,1.68v1.13c.11,1.12.45,1.35,1.35,1.35a9.29,9.29,0,0,0,1.8-.34c2.59-1,5.17-1.91,7.31-3.82l1-.68A89,89,0,0,0,231.15,17a11.53,11.53,0,0,1,2.36-1.8h.22v.34a1.45,1.45,0,0,0-.33.45c-.23.11-.57.33-.34.56s.34-.12.56-.23a6,6,0,0,1,.79-.45.38.38,0,0,0,.22.12.33.33,0,0,1,.12.22,1.17,1.17,0,0,1-.45.79,9,9,0,0,0-1.69,1.91v-.11l-.34.33h.11a5.59,5.59,0,0,0-2.13,1.8l-.34.34H230c-.11.11-.22.22-.33.22a3.42,3.42,0,0,0-1.58,1.24h.11A15,15,0,0,0,224,25.94a2.11,2.11,0,0,0-1.12.9l-.34.34a6.22,6.22,0,0,0-2.14,1.35c-1.34.67-2.58,1.23-3.93,1.91a.34.34,0,0,0-.11.22c0,.12.11.12.22.12H217a14.29,14.29,0,0,0,3.6-2,5.56,5.56,0,0,0,1.91-1.68c.11,0,.23-.12.34-.23a2.3,2.3,0,0,0,1.23-.79c.45-.22,1-.45,1.47-.67-.23.45-.68.67-1,1-1.34,1-2.58,2-3.93,2.92a14.07,14.07,0,0,1-5.06,2.48,5.4,5.4,0,0,1-6-2.48M215,18a14.26,14.26,0,0,0,4.72-3.49,14.54,14.54,0,0,0,1.91-3.14,1.75,1.75,0,0,0,.11-.68c0-.45-.22-.67-.45-.67a3,3,0,0,0-1.68.56A15.67,15.67,0,0,0,217,12.67a14.3,14.3,0,0,0-2.81,3.94c-.11.34-.22.67-.34,1s.23.68.57.56A.85.85,0,0,1,215,18m3.71-1.24.34-.34c.11-.11.22-.11.22-.22h.11c-.11.11-.22.22-.33.22l-.34.34c-1.58.68-2.93,1.8-4.61,2.36a.39.39,0,0,1-.11.23c.11.11.11.11.22.11a8.86,8.86,0,0,0,4.5-2.7m-2.93,12.14h.57c.22-.11.45-.11.56-.22l.67-.34a2.6,2.6,0,0,1,.57-.33v.11c.22-.11.33-.23.56-.34a2.17,2.17,0,0,0,.56-.34.88.88,0,0,0,.9-.56,8.74,8.74,0,0,0,2.7-1.8v-.56a1.78,1.78,0,0,0,.9-.67c.11,0,.22-.12.33-.23a2.54,2.54,0,0,0,2-1.46c.11-.11.22-.23.34-.34a4.26,4.26,0,0,0,.9-.56c.11-.11.22-.11.33-.22s.12-.12.23-.23a.42.42,0,0,0-.34.11c-.11.12-.11.23-.22.34a1.5,1.5,0,0,0-.9.56c-.12.11-.23.23-.34.34a5.33,5.33,0,0,0-2,1.46l-.33.34a1.5,1.5,0,0,0-.9.56c-.11.11-.23.23-.34.23a15.14,15.14,0,0,0-3.26,2,31.63,31.63,0,0,0-4.38,2.13Zm.57,0h0Zm.22-9.1c.45-.11.9-.23,1.24-.34a2.79,2.79,0,0,1-1.8.9l.56-.56m1.91-.68-.67.34Zm.23-.22c-.11.11-.23.11-.23.22h-.11c.11-.11.23-.22.34-.22m0-10.8c.34.12.56.23.9,0,0-.11,0-.22.11-.22a.34.34,0,0,0-.22-.11.84.84,0,0,0-.79.45h-.11Zm1.91,1.58c.11-.11.22-.23.11-.34a.22.22,0,0,0-.34,0,1.42,1.42,0,0,0-1.23,1c.45-.22.9-.45,1.46-.67m-1.35,17.65c.11,0,.11.11,0,.11Zm3.26-2.58h.34V25l-.34-.33m4.16-.23a4.48,4.48,0,0,1-1.12.9,1.48,1.48,0,0,1,1.12-.9m.34-.34-.34.34.34-.34m.34-.22c-.12,0-.23.11-.34.22.11-.11.22-.22.34-.22m.89-1.24h.57a4.1,4.1,0,0,1-1.35,1.13c.22-.45.56-.68.78-1.13m.9-.34-.33.34.33-.34m.57-.9c.11,0,.22-.11.33-.22h-.11l.34-.34h.56a3.35,3.35,0,0,1-1.69,1.35c.12-.22.34-.45.57-.79m1.46-3.26c.11-.11.22-.22.33-.22s.12-.23.23-.34l.34-.34-.34.34c0,.11-.11.23-.23.34s-.22.22-.33.22c-1.24.57-2.25,1.47-1.8,1.47.79-.12,1.24-.79,1.8-1.47m0,2.36-.34.34.34-.34m.33-.22c-.11.11-.22.22-.33.22.11-.11.22-.11.33-.22m.23-.34c-.11.12-.11.23-.23.34h-.11l.34-.34m.67-.22a1.6,1.6,0,0,0-.67.22,1.6,1.6,0,0,1,.67-.22m0-.68h-.11l.34-.33c.45.56,0,.67-.23.9Z" transform="translate(0 0)"/></g><path class="cls-3" d="M155.21,41.41a1.69,1.69,0,0,0,.81.24c.45,0,.66-.22.66-.5s-.18-.46-.63-.62c-.61-.22-.89-.55-.89-1a1,1,0,0,1,1.16-1,1.71,1.71,0,0,1,.83.21l-.15.45a1.29,1.29,0,0,0-.69-.2c-.37,0-.57.21-.57.46s.2.41.64.57c.59.23.89.52.89,1s-.46,1-1.26,1a1.93,1.93,0,0,1-.95-.23Z" transform="translate(0 0)"/><path class="cls-3" d="M158.58,37.08h.62v2.11h0a1.07,1.07,0,0,1,.44-.43,1.22,1.22,0,0,1,.63-.18c.45,0,1.18.28,1.18,1.44v2h-.62V40.09c0-.54-.2-1-.78-1a.89.89,0,0,0-.82.61.91.91,0,0,0,0,.3v2h-.62Z" transform="translate(0 0)"/><path class="cls-3" d="M164.84,42l-.05-.42h0a1.27,1.27,0,0,1-1,.5,1,1,0,0,1-1-1c0-.82.72-1.26,2-1.25v-.07A.7.7,0,0,0,164,39a1.65,1.65,0,0,0-.88.26l-.14-.41a2.13,2.13,0,0,1,1.11-.3c1,0,1.28.71,1.28,1.38v1.26a4.87,4.87,0,0,0,.06.81Zm-.09-1.72c-.67,0-1.43.11-1.43.76a.55.55,0,0,0,.58.59.85.85,0,0,0,.82-.57.63.63,0,0,0,0-.19Z" transform="translate(0 0)"/><path class="cls-3" d="M166.86,39.76c0-.43,0-.78,0-1.1h.55l0,.58h0a1.32,1.32,0,0,1,1.2-.66,1.53,1.53,0,0,1,1.43,1.72,1.6,1.6,0,0,1-1.54,1.81,1.19,1.19,0,0,1-1-.53h0v1.83h-.61Zm.61.9a1,1,0,0,0,0,.25.94.94,0,0,0,.92.72c.65,0,1-.53,1-1.31s-.35-1.25-1-1.25a1,1,0,0,0-.93.76,1.09,1.09,0,0,0,0,.25Z" transform="translate(0 0)"/><path class="cls-3" d="M171.7,40.46a1.08,1.08,0,0,0,1.16,1.17,2.18,2.18,0,0,0,.93-.18l.1.44a2.64,2.64,0,0,1-1.12.21,1.56,1.56,0,0,1-1.66-1.7,1.64,1.64,0,0,1,1.58-1.82,1.43,1.43,0,0,1,1.4,1.59c0,.13,0,.22,0,.29Zm1.8-.44a.88.88,0,0,0-.85-1,1,1,0,0,0-1,1Z" transform="translate(0 0)"/><path class="cls-3" d="M178.29,37.08v4.08c0,.3,0,.64,0,.87h-.55l0-.58h0a1.27,1.27,0,0,1-1.16.66,1.54,1.54,0,0,1-1.44-1.72,1.61,1.61,0,0,1,1.52-1.81,1.12,1.12,0,0,1,1,.52h0v-2Zm-.61,3a1.22,1.22,0,0,0,0-.26.91.91,0,0,0-.89-.71c-.63,0-1,.56-1,1.31s.34,1.24,1,1.24a.92.92,0,0,0,.9-.73,1,1,0,0,0,0-.26Z" transform="translate(0 0)"/><path class="cls-3" d="M184.75,38.66c0,.24,0,.51,0,.93v1.95a2,2,0,0,1-.48,1.55,1.82,1.82,0,0,1-1.23.4,2.19,2.19,0,0,1-1.12-.28l.15-.47a1.94,1.94,0,0,0,1,.27c.63,0,1.09-.33,1.09-1.18v-.38h0A1.2,1.2,0,0,1,183,42a1.51,1.51,0,0,1-1.43-1.65,1.62,1.62,0,0,1,1.52-1.79,1.13,1.13,0,0,1,1,.59h0l0-.51ZM184.11,40a.83.83,0,0,0,0-.28.89.89,0,0,0-.86-.65c-.58,0-1,.5-1,1.28s.33,1.21,1,1.21a.91.91,0,0,0,.85-.63,1.17,1.17,0,0,0,0-.32Z" transform="translate(0 0)"/><path class="cls-3" d="M186.61,40.46a1.08,1.08,0,0,0,1.16,1.17,2.18,2.18,0,0,0,.93-.18l.1.44a2.64,2.64,0,0,1-1.12.21A1.56,1.56,0,0,1,186,40.4a1.64,1.64,0,0,1,1.58-1.82,1.43,1.43,0,0,1,1.4,1.59c0,.13,0,.22,0,.29Zm1.8-.44a.88.88,0,0,0-.85-1,1,1,0,0,0-.95,1Z" transform="translate(0 0)"/><path class="cls-3" d="M190.29,37.08h.61v5h-.61Z" transform="translate(0 0)"/><path class="cls-3" d="M195.14,37.71a.36.36,0,0,1-.39.38.38.38,0,0,1,0-.76A.35.35,0,0,1,195.14,37.71ZM194.46,42V38.66h.61V42Z" transform="translate(0 0)"/><path class="cls-3" d="M196.62,39.57c0-.35,0-.63,0-.91h.54l0,.54h0a1.15,1.15,0,0,1,1.06-.62,1,1,0,0,1,.95.68h0a1.26,1.26,0,0,1,.37-.44,1.18,1.18,0,0,1,.75-.24c.44,0,1.11.29,1.11,1.47v2h-.6V40.12c0-.65-.24-1-.73-1a.8.8,0,0,0-.73.56,1,1,0,0,0,0,.31V42h-.6V40c0-.54-.24-.93-.7-.93a.83.83,0,0,0-.76.62.73.73,0,0,0-.05.3v2h-.6Z" transform="translate(0 0)"/><path class="cls-3" d="M203,39.76c0-.43,0-.78,0-1.1h.55l0,.58h0a1.33,1.33,0,0,1,1.2-.66,1.53,1.53,0,0,1,1.43,1.72,1.6,1.6,0,0,1-1.54,1.81,1.21,1.21,0,0,1-1-.53h0v1.83H203Zm.61.9a1,1,0,0,0,0,.25.94.94,0,0,0,.92.72c.65,0,1-.53,1-1.31s-.35-1.25-1-1.25a1,1,0,0,0-.93.76,1.09,1.09,0,0,0,0,.25Z" transform="translate(0 0)"/><path class="cls-3" d="M207.45,37.08h.61v5h-.61Z" transform="translate(0 0)"/><path class="cls-3" d="M211.49,42l-.05-.42h0a1.27,1.27,0,0,1-1,.5,1,1,0,0,1-1-1c0-.82.72-1.26,2-1.25v-.07a.7.7,0,0,0-.76-.79,1.63,1.63,0,0,0-.88.26l-.14-.41a2.1,2.1,0,0,1,1.11-.3c1,0,1.28.71,1.28,1.38v1.26a4,4,0,0,0,.06.81Zm-.09-1.72c-.67,0-1.43.11-1.43.76a.54.54,0,0,0,.58.59.82.82,0,0,0,.81-.57.65.65,0,0,0,0-.19Z" transform="translate(0 0)"/><path class="cls-3" d="M213.51,39.57c0-.35,0-.63,0-.91H214l0,.56h0a1.25,1.25,0,0,1,1.12-.64c.47,0,1.19.28,1.19,1.44v2h-.61V40.09c0-.55-.2-1-.78-1a.88.88,0,0,0-.83.63,1.11,1.11,0,0,0,0,.28v2h-.61Z" transform="translate(0 0)"/><path class="cls-3" d="M218.64,37.69v1h.88v.47h-.88V41c0,.41.12.65.46.65a1.33,1.33,0,0,0,.35,0l0,.46a1.5,1.5,0,0,1-.54.08.86.86,0,0,1-.67-.26A1.26,1.26,0,0,1,218,41V39.13h-.53v-.47H218v-.81Z" transform="translate(0 0)"/><path class="cls-3" d="M220.65,41.41a1.69,1.69,0,0,0,.81.24c.44,0,.65-.22.65-.5s-.17-.46-.62-.62c-.61-.22-.9-.55-.9-1a1,1,0,0,1,1.17-1,1.71,1.71,0,0,1,.83.21l-.15.45a1.3,1.3,0,0,0-.7-.2c-.36,0-.56.21-.56.46s.2.41.64.57c.59.23.89.52.89,1s-.46,1-1.27,1a1.86,1.86,0,0,1-.94-.23Z" transform="translate(0 0)"/><rect class="cls-4" x="89.41" y="0.53" width="0.32" height="37.25"/><rect class="cls-5" x="89.41" y="0.53" width="0.31" height="37.25"/><g class="cls-2"><path class="cls-4" d="M24.88,20A12,12,0,0,1,12.71,32,12,12,0,0,1,.54,20,12,12,0,0,1,12.71,7.84,12,12,0,0,1,24.88,20m-1.62,0A10.42,10.42,0,0,0,12.71,9.25,10.42,10.42,0,0,0,2.16,20,10.41,10.41,0,0,0,12.71,30.61,10.41,10.41,0,0,0,23.26,20" transform="translate(0 0)"/><path class="cls-6" d="M24.88,20A12,12,0,0,1,12.71,32,12,12,0,0,1,.54,20,12,12,0,0,1,12.71,7.84,12,12,0,0,1,24.88,20Zm-1.62,0A10.42,10.42,0,0,0,12.71,9.25,10.42,10.42,0,0,0,2.16,20,10.41,10.41,0,0,0,12.71,30.61,10.41,10.41,0,0,0,23.26,20Z" transform="translate(0 0)"/><path class="cls-4" d="M30.09,20.48V31.63H28.55V8.16H36c3.83,0,6.86,2.11,6.86,6.12s-2.78,6.2-6.83,6.2Zm0-1.41h6c3.06,0,5.14-1.8,5.14-4.75s-2-4.75-5.38-4.75H30.09Z" transform="translate(0 0)"/><path class="cls-6" d="M30.09,20.48V31.63H28.55V8.16H36c3.83,0,6.86,2.11,6.86,6.12s-2.78,6.2-6.83,6.2Zm0-1.41h6c3.06,0,5.14-1.8,5.14-4.75s-2-4.75-5.38-4.75H30.09Z" transform="translate(0 0)"/><path class="cls-4" d="M47,8.16V22.83c0,2.22.1,3.66,1,5.07a6.85,6.85,0,0,0,10.91,0c.88-1.41,1-2.85,1-5.07V8.16h1.55V22.83c0,2.57-.14,4.26-1.34,6A7.71,7.71,0,0,1,53.45,32a7.71,7.71,0,0,1-6.64-3.16c-1.2-1.76-1.34-3.45-1.34-6V8.16Z" transform="translate(0 0)"/><path class="cls-6" d="M47,8.16V22.83c0,2.22.1,3.66,1,5.07a6.85,6.85,0,0,0,10.91,0c.88-1.41,1-2.85,1-5.07V8.16h1.55V22.83c0,2.57-.14,4.26-1.34,6A7.71,7.71,0,0,1,53.45,32a7.71,7.71,0,0,1-6.64-3.16c-1.2-1.76-1.34-3.45-1.34-6V8.16Z" transform="translate(0 0)"/><path class="cls-4" d="M75.3,12.14a5,5,0,0,0-4.6-2.89,4.18,4.18,0,0,0-4.37,4.36c0,2.54,1.76,3.38,4.12,4.54a34.39,34.39,0,0,1,4.68,2.46,5.18,5.18,0,0,1,2.5,4.54A7,7,0,0,1,70.31,32a6.69,6.69,0,0,1-5.45-2.46A7.58,7.58,0,0,1,63.34,27l1.34-.63A7.87,7.87,0,0,0,66,28.6a5.63,5.63,0,0,0,4.39,2A5.46,5.46,0,0,0,76,25.19a4.11,4.11,0,0,0-2.29-3.69c-.67-.39-2-1.1-4-2.05-2.33-1.12-3.49-1.76-4.3-3.09a5.1,5.1,0,0,1-.73-2.67,5.7,5.7,0,0,1,6-5.85,6.29,6.29,0,0,1,5.7,3.35Z" transform="translate(0 0)"/><path class="cls-6" d="M75.3,12.14a5,5,0,0,0-4.6-2.89,4.18,4.18,0,0,0-4.37,4.36c0,2.54,1.76,3.38,4.12,4.54a34.39,34.39,0,0,1,4.68,2.46,5.18,5.18,0,0,1,2.5,4.54A7,7,0,0,1,70.31,32a6.69,6.69,0,0,1-5.45-2.46A7.58,7.58,0,0,1,63.34,27l1.34-.63A7.87,7.87,0,0,0,66,28.6a5.63,5.63,0,0,0,4.39,2A5.46,5.46,0,0,0,76,25.19a4.11,4.11,0,0,0-2.29-3.69c-.67-.39-2-1.1-4-2.05-2.33-1.12-3.49-1.76-4.3-3.09a5.1,5.1,0,0,1-.73-2.67,5.7,5.7,0,0,1,6-5.85,6.29,6.29,0,0,1,5.7,3.35Z" transform="translate(0 0)"/><path class="cls-7" d="M165.89,58.4a2.43,2.43,0,0,0,2.66,2.08c1.56,0,2.44-.75,2.44-2s-1.06-1.51-2.75-2.05c-2-.63-3-1.42-3-3,0-2,1.57-3.46,4-3.46a6.66,6.66,0,0,1,2.93.72c-.21.61-.43,1.26-.66,2h-.22A2,2,0,0,0,169.14,51a1.88,1.88,0,0,0-2.12,1.8c0,1.22,1,1.42,2.7,1.94,2.05.63,3,1.28,3,3,0,2.2-1.64,3.62-4.46,3.62a7.38,7.38,0,0,1-3.17-.67c.18-.75.38-1.51.58-2.28Z" transform="translate(0 0)"/><path class="cls-7" d="M176.05,54.57a39.87,39.87,0,0,0-.16-4.27,6.22,6.22,0,0,0,1.13.09,6.37,6.37,0,0,0,1.15-.09,33.86,33.86,0,0,0-.16,4c0,2.84.05,5.12.16,6.8A7.46,7.46,0,0,0,177,61a7.32,7.32,0,0,0-1.13.11c.12-1.32.16-3.49.16-6.51" transform="translate(0 0)"/><path class="cls-7" d="M184.61,54.66c1.11,0,2.55,0,4.35,0,0-.2,0-.45,0-.65,0-1.9-1.06-3.07-2.6-3.07s-2.72,1.31-2.88,3.76Zm-1.15,1.13c0,3,1.38,4.62,3.7,4.62A4.06,4.06,0,0,0,190.45,59l.29.06a9,9,0,0,0-.18,1.31,7.5,7.5,0,0,1-4,1c-3.37,0-5.38-2.08-5.38-5.52s2-5.83,5.23-5.83c3,0,4.75,1.82,4.75,4.93,0,.22,0,.45,0,.67-1.69,0-3.31-.09-4.85-.09-1,0-1.93,0-2.86.05Z" transform="translate(0 0)"/><path class="cls-7" d="M194.12,54.6a37.57,37.57,0,0,0-.16-4.3,5.73,5.73,0,0,0,1.09.09,5.45,5.45,0,0,0,1-.09c0,.63,0,1.26-.06,1.93a4.38,4.38,0,0,1,3.85-2.2,3.59,3.59,0,0,1,2.73,1.12,4,4,0,0,1,.69,2.84V57.3c0,1.06,0,2.32.09,3.78a6.83,6.83,0,0,0-1.1-.11,7.32,7.32,0,0,0-1.13.11c.09-2,.16-3.64.16-5V54.89a4.1,4.1,0,0,0-.52-2.61,2.34,2.34,0,0,0-1.91-.86c-2,0-2.82,1.49-2.82,4.51,0,1.75,0,3.47.12,5.15a7.07,7.07,0,0,0-1.11-.11,7.32,7.32,0,0,0-1.13.11c.14-1.41.16-3.58.16-6.48" transform="translate(0 0)"/><path class="cls-7" d="M207.15,49.6c0-.29,0-.86-.09-1.69a8.59,8.59,0,0,0,2.28-1,19.93,19.93,0,0,0-.23,2.55v1.06a16.8,16.8,0,0,0,2.46-.18,3.33,3.33,0,0,0,0,.56,3.75,3.75,0,0,0,0,.56,15.87,15.87,0,0,0-2.07-.13h-.41L209,56.8v.54c0,2.06.29,3,1.82,3a6.62,6.62,0,0,0,1-.11V61a6.08,6.08,0,0,1-2,.36c-1.94,0-2.79-1-2.79-3.17,0-.9.06-2.07.09-3.51Z" transform="translate(0 0)"/><path class="cls-7" d="M214.87,53.94a26.26,26.26,0,0,0-.18-3.64,6.93,6.93,0,0,0,1.2.09,6.66,6.66,0,0,0,1.17-.09,13.59,13.59,0,0,0-.18,2v.27c.88-1.71,2-2.52,3.53-2.52a4.7,4.7,0,0,1,.52,0,9.09,9.09,0,0,0-.09,1.06,10.62,10.62,0,0,0,.09,1.1,7.44,7.44,0,0,0-1.51-.24,2.34,2.34,0,0,0-1.75.76,3.64,3.64,0,0,0-.84,2.75v2.34c0,.92,0,2,.14,3.24a7.46,7.46,0,0,0-1.15-.11,7.32,7.32,0,0,0-1.13.11c.16-1.14.18-3.53.18-7.14" transform="translate(0 0)"/><path class="cls-7" d="M227.67,55.66c-2,.38-3,1.1-3,2.41a1.78,1.78,0,0,0,1.82,2A2.41,2.41,0,0,0,229,57.46V55.39Zm-2.08,5.72a2.88,2.88,0,0,1-3.1-3c0-2.19,1.14-2.8,3.67-3.36l2.05-.45c.63-.14.88-.43.88-1.15a2.34,2.34,0,0,0-2.55-2.54,2.75,2.75,0,0,0-2.7,1.78l-.48-.19.12-1.21A5.11,5.11,0,0,1,227.1,50c2.82,0,3.83,1.11,3.83,3.58V58.9c0,.92.09,1.28,1,1.28.07,0,.27,0,.65,0v.47a5.11,5.11,0,0,1-2.05.57c-.9,0-1.35-.48-1.48-1.51a4.4,4.4,0,0,1-3.43,1.69" transform="translate(0 0)"/><path class="cls-8" d="M177.07,44.94a1.19,1.19,0,0,1,1.3,1.29,1.12,1.12,0,0,1-1.21,1.19,1.24,1.24,0,1,1-.09-2.48" transform="translate(0 0)"/><path class="cls-7" d="M234.71,60.44h.1c.11,0,.21,0,.21-.12s-.06-.14-.19-.14h-.12Zm0,.5h-.21v-.88a2.68,2.68,0,0,1,.34,0,.52.52,0,0,1,.31.07.23.23,0,0,1,.09.19.22.22,0,0,1-.19.21h0c.09,0,.13.1.16.21a1.56,1.56,0,0,0,.06.22h-.21a.69.69,0,0,1-.07-.22c0-.09-.07-.13-.18-.13h-.1Zm-.54-.46a.68.68,0,1,0,.67-.7.69.69,0,0,0-.67.7m1.58,0a.91.91,0,1,1-.9-.88.89.89,0,0,1,.9.88" transform="translate(0 0)"/></g><path class="cls-7" d="M155.42,52V47.79h.48V49.4a1.26,1.26,0,0,1,1-.53,1.41,1.41,0,0,1,1.35,1.59c0,1-.56,1.59-1.35,1.59a1.27,1.27,0,0,1-1-.52V52Zm1.38-.35c.62,0,1-.49,1-1.17s-.36-1.17-1-1.17a1.1,1.1,0,0,0-.9.49v1.37A1.09,1.09,0,0,0,156.8,51.63Z" transform="translate(0 0)"/><path class="cls-7" d="M159,52.74a.75.75,0,0,0,.26,0,.44.44,0,0,0,.45-.32l.2-.46-1.27-3.07h.51l1,2.49,1-2.49h.51l-1.52,3.65a.91.91,0,0,1-.89.62,2,2,0,0,1-.35,0Z" transform="translate(0 0)"/><g class="cls-9"><path class="cls-3" d="M234.69,7.55v-.4h2v.4h-.78v2h-.47v-2Zm3.12-.4.61,1.71L239,7.15h.68V9.54h-.44V7.62l-.66,1.92h-.38l-.66-1.92V9.54h-.44V7.15Z" transform="translate(0 0)"/></g></g></g></svg>