<svg xmlns="http://www.w3.org/2000/svg" viewBox="0 0 394.04 41.1"><defs><style>.cls-1{fill:#616365;}</style></defs><g id="Layer_2" data-name="Layer 2"><g id="Layer_1-2" data-name="Layer 1"><path class="cls-1" d="M33.24,6a17,17,0,0,0-5.68-4.37A15.87,15.87,0,0,0,20.65,0h-2.9a16,16,0,0,0-7,1.62A17.24,17.24,0,0,0,5.21,6a19.55,19.55,0,0,0-3.79,6.53A21.84,21.84,0,0,0,0,20.45a22,22,0,0,0,1.41,7.93,19.55,19.55,0,0,0,3.8,6.53,17,17,0,0,0,5.58,4.36,15.79,15.79,0,0,0,7,1.63h2.9a15.84,15.84,0,0,0,6.91-1.62,17,17,0,0,0,5.68-4.37,21.71,21.71,0,0,0,3.84-6.52,22.72,22.72,0,0,0,1.37-7.94,23,23,0,0,0-1.37-7.94A21.71,21.71,0,0,0,33.24,6ZM14.19,38.75a12.47,12.47,0,0,1-3-2.28,10.23,10.23,0,0,1-.86-1,11.29,11.29,0,0,1-.76-1.14A20.66,20.66,0,0,1,6.87,28,30.47,30.47,0,0,1,6,20.45a30.47,30.47,0,0,1,.92-7.59A20.6,20.6,0,0,1,9.62,6.53a9.22,9.22,0,0,1,.75-1.13,11.85,11.85,0,0,1,.86-1,12.47,12.47,0,0,1,3-2.28A25.52,25.52,0,0,1,16.51,1,8.11,8.11,0,0,1,18.45.8H20a5.69,5.69,0,0,1,1,.07l.94.16c.56.23,1.34.61,2.31,1.12a13.23,13.23,0,0,1,3,2.27c.26.29.54.62.82,1s.55.75.81,1.14a21.2,21.2,0,0,1,2.77,6.32,30.06,30.06,0,0,1,.94,7.59A30.06,30.06,0,0,1,31.56,28a21.46,21.46,0,0,1-2.77,6.32c-.26.4-.54.78-.81,1.14s-.55.68-.8,1a13.52,13.52,0,0,1-3,2.28c-1,.51-1.75.89-2.25,1.1l-1,.21a4.58,4.58,0,0,1-.95.09h-1.5a4.58,4.58,0,0,1-1-.1l-.91-.18A24.87,24.87,0,0,1,14.19,38.75Z"/><path class="cls-1" d="M67,1.3h1c.49,0,1.17.12,2,.25a8.81,8.81,0,0,1,2.48.78A6.17,6.17,0,0,1,74.61,4,4.71,4.71,0,0,1,75.55,7v21.9a9.82,9.82,0,0,1-1.12,4.64,10.27,10.27,0,0,1-2.93,3.56,15,15,0,0,1-5.41,2.66,11.66,11.66,0,0,1-5.73.12,9.38,9.38,0,0,1-4.21-2.31,10.47,10.47,0,0,1-2.61-4.15A16.22,16.22,0,0,1,52.65,28V4.29A3.27,3.27,0,0,1,53.7,2.1a4.77,4.77,0,0,1,2.55-.8h2.3V1.2H59l-.4-.4V.4H40.6v.9h1.84a5.61,5.61,0,0,1,3.11.82A3.42,3.42,0,0,1,46.6,4.65V28.3a12.08,12.08,0,0,0,1.15,5.41,12.27,12.27,0,0,0,3.29,4,15.08,15.08,0,0,0,4.63,2.49,17.55,17.55,0,0,0,5.53.86h.3a18.83,18.83,0,0,0,5.73-.86A15.24,15.24,0,0,0,72,37.74a11.9,11.9,0,0,0,3.26-4,10.94,10.94,0,0,0,1.13-4.89V7.2a4.89,4.89,0,0,1,.87-3,6.43,6.43,0,0,1,2.12-1.78,8.24,8.24,0,0,1,2.5-.82c.85-.13,1.55-.22,2.06-.25h1V.45H67Z"/><path class="cls-1" d="M129.55,40.2l-.83-.05a7.72,7.72,0,0,1-1.57-.31,9.68,9.68,0,0,1-1.86-.79,4.81,4.81,0,0,1-1.59-1.4l-9.4-13a11.64,11.64,0,0,0-2.74-2.81,13,13,0,0,0-1.21-.69c.49,0,1-.09,1.46-.15a10.65,10.65,0,0,0,2.37-.56,12.31,12.31,0,0,0,4.08-2.2,9.28,9.28,0,0,0,3.14-7.34,10.44,10.44,0,0,0-.8-4.12,8.69,8.69,0,0,0-2.34-3.23,13.4,13.4,0,0,0-4.09-2.19A21,21,0,0,0,108.3.55H89v.8h1.83a4.93,4.93,0,0,1,3.31,1.1c.61.63.91,1.84.91,3.6V35.5A8.5,8.5,0,0,1,94.76,38a2.82,2.82,0,0,1-.89,1.39,3.65,3.65,0,0,1-1.73.67,20.77,20.77,0,0,1-2.89.17H89v.85h18V40.2h-1.79a7.82,7.82,0,0,1-2-.31,2.72,2.72,0,0,1-2-2.1,9.24,9.24,0,0,1-.22-2.24V21.2h1.6a5.63,5.63,0,0,1,1.1.1,3.84,3.84,0,0,1,1.06.37,5.82,5.82,0,0,1,1.15.84,11.89,11.89,0,0,1,1.34,1.54l12.27,17h10.38v-.6l0-.25ZM101,6a10.78,10.78,0,0,1,.19-2.15,3.27,3.27,0,0,1,.62-1.34,3,3,0,0,1,1.13-.78,6.38,6.38,0,0,1,1.76-.38h3.25a6.55,6.55,0,0,1,5.65,2.75,11.5,11.5,0,0,1,1.8,6.75,15.27,15.27,0,0,1-.34,3.27,11.6,11.6,0,0,1-.93,2.65,8.6,8.6,0,0,1-1,1.44,7.78,7.78,0,0,1-1.08,1,7,7,0,0,1-4.06,1.21h-7Z"/><path class="cls-1" d="M181.81,23.25a12.55,12.55,0,0,0-4.6-2.19c-.63-.17-1.31-.31-2-.43a6,6,0,0,0-.61-.09c.28-.07.55-.16.81-.25a11.2,11.2,0,0,0,2.23-.92,13.07,13.07,0,0,0,1.86-1.28,9.22,9.22,0,0,0,3.14-7.29,9.3,9.3,0,0,0-3.13-7.34,11.07,11.07,0,0,0-4.1-2.25A18.22,18.22,0,0,0,172.66.6a23.34,23.34,0,0,0-3.11-.2H150.3v.9h1.83a10.14,10.14,0,0,1,2.05.34,2.6,2.6,0,0,1,1.23.73,3,3,0,0,1,.67,1.34A9.24,9.24,0,0,1,156.3,6a2.72,2.72,0,0,0,0,.65V35.4a8.62,8.62,0,0,1-.29,2.48,2.73,2.73,0,0,1-.91,1.37,3.72,3.72,0,0,1-1.76.68,20.5,20.5,0,0,1-2.84.17h-.25V41h20.3a23.75,23.75,0,0,0,6.61-.81A12.15,12.15,0,0,0,181.8,38a2.72,2.72,0,0,0,.56-.51c.27-.24.55-.49.82-.76a4.48,4.48,0,0,0,.74-1,9.34,9.34,0,0,0,1.43-5.08A8.92,8.92,0,0,0,181.81,23.25ZM176.6,10.8a12.56,12.56,0,0,1-1.27,5.92,8.13,8.13,0,0,1-1,1.41,7.54,7.54,0,0,1-1.06,1,7.1,7.1,0,0,1-4.11,1.16h-7V5.9A5.5,5.5,0,0,1,163,2.44,4.32,4.32,0,0,1,166,1.3h3.2A6.46,6.46,0,0,1,174.8,4,11.61,11.61,0,0,1,176.6,10.8Zm-12.2,29a2.69,2.69,0,0,1-2-2.12,9.34,9.34,0,0,1-.22-2.22V21.1h8a7.68,7.68,0,0,1,6.4,2.76,10.56,10.56,0,0,1,2.05,6.74,10.36,10.36,0,0,1-2,6.74h0a7.62,7.62,0,0,1-6.4,2.75h-3.74A8.21,8.21,0,0,1,164.4,39.79Z"/><path class="cls-1" d="M227,40.2l-.83-.05a7.72,7.72,0,0,1-1.57-.31,9.68,9.68,0,0,1-1.86-.79,4.81,4.81,0,0,1-1.59-1.4l-9.4-13A11.64,11.64,0,0,0,209,21.79a13,13,0,0,0-1.21-.69c.49,0,1-.09,1.45-.15a10.61,10.61,0,0,0,2.38-.56,12.31,12.31,0,0,0,4.08-2.2,9.28,9.28,0,0,0,3.14-7.34,10.44,10.44,0,0,0-.8-4.12,8.69,8.69,0,0,0-2.34-3.23,13.4,13.4,0,0,0-4.09-2.19A21.1,21.1,0,0,0,205.7.55H186.4v.8h1.83a4.93,4.93,0,0,1,3.31,1.1c.6.63.91,1.84.91,3.6V35.5a8.5,8.5,0,0,1-.29,2.47,2.82,2.82,0,0,1-.89,1.39,3.65,3.65,0,0,1-1.73.67,20.77,20.77,0,0,1-2.89.17h-.25v.85h17.95V40.2h-1.79a7.82,7.82,0,0,1-2-.31,3.06,3.06,0,0,1-1.28-.76,3.09,3.09,0,0,1-.68-1.34,9.24,9.24,0,0,1-.22-2.24V21.2H200a5.63,5.63,0,0,1,1.1.1,3.84,3.84,0,0,1,1.06.37,5.82,5.82,0,0,1,1.15.84,11.89,11.89,0,0,1,1.34,1.54L216.8,41l.07.1h10.38v-.6l-.05-.25ZM198.35,6a10.08,10.08,0,0,1,.19-2.15,3.27,3.27,0,0,1,.62-1.34,3,3,0,0,1,1.13-.78,6.3,6.3,0,0,1,1.76-.38h3.25a6.53,6.53,0,0,1,5.64,2.75,11.43,11.43,0,0,1,1.81,6.75,14.64,14.64,0,0,1-.35,3.27,11.6,11.6,0,0,1-.92,2.65,8.6,8.6,0,0,1-1,1.44,7.78,7.78,0,0,1-1.08,1,7,7,0,0,1-4.06,1.21h-7Z"/><path class="cls-1" d="M268.61,39.83a3.31,3.31,0,0,1-1.41-.65,6.67,6.67,0,0,1-1.44-1.69,22,22,0,0,1-1.63-3.33L250.73.66,250.67.5h-.74L236.42,34.26a9.64,9.64,0,0,1-2.09,3.36A10.36,10.36,0,0,1,232,39.35a5.73,5.73,0,0,1-1.87.65l-.85.1h-.24V41H242.9V40.1h-.25l-.64,0a9.35,9.35,0,0,1-1.38-.2,8.84,8.84,0,0,1-1.66-.53,4,4,0,0,1-1.38-1,3.08,3.08,0,0,1-.72-1.58,4.6,4.6,0,0,1,.41-2.39L241,25.1h13.61l3.64,9.14a13.76,13.76,0,0,1,1,3.45,1.76,1.76,0,0,1-.46,1.57,3.28,3.28,0,0,1-1.79.62c-.85.08-1.88.15-3.06.22h-.24V41h16.9v-.82l-.21,0ZM241.37,24.25l6.48-16.13,6.43,16.13Z"/><path class="cls-1" d="M302.45,1.4h1a12.78,12.78,0,0,1,2.08.22,8.92,8.92,0,0,1,2.51.83,6.2,6.2,0,0,1,2.09,1.75A5,5,0,0,1,311,7.25V31.34L286.29.64l-.07-.09H275.15V1.4H277a10,10,0,0,1,2.6.26,2.08,2.08,0,0,1,1.19.78,2.66,2.66,0,0,1,.41,1.35c0,.59.05,1.28.05,2.06V34.3a5,5,0,0,1-.88,3.1,6.17,6.17,0,0,1-2.08,1.75,9.25,9.25,0,0,1-2.51.83,12.78,12.78,0,0,1-2.08.22h-1v.85h18V40.2h-1a12.88,12.88,0,0,1-2.09-.22,9.3,9.3,0,0,1-2.5-.83A6.2,6.2,0,0,1,283,37.4a5,5,0,0,1-.87-3.1V4.71L311.05,41l.08.09h.77V7.25a4.89,4.89,0,0,1,.87-3,6.1,6.1,0,0,1,2.09-1.75,8.92,8.92,0,0,1,2.51-.83,12.67,12.67,0,0,1,2.08-.22h1V.55h-18Z"/><path class="cls-1" d="M358.68,6.48a17.86,17.86,0,0,0-6-4.36A18.83,18.83,0,0,0,344.9.55H323.15v.8h1.78a5.11,5.11,0,0,1,3.34,1.1c.62.63.93,1.84.93,3.6V35.5a8.5,8.5,0,0,1-.29,2.47,2.67,2.67,0,0,1-.92,1.38,3.64,3.64,0,0,1-1.73.68,19.93,19.93,0,0,1-2.81.17h-.25v.85h21.7a19.77,19.77,0,0,0,7.75-1.57,17.48,17.48,0,0,0,6-4.41,19.48,19.48,0,0,0,3.88-6.46,22.64,22.64,0,0,0,1.34-7.81A22.9,22.9,0,0,0,362.56,13,19.47,19.47,0,0,0,358.68,6.48ZM337.23,39.89a2.88,2.88,0,0,1-1.25-.76,3.07,3.07,0,0,1-.66-1.34,9.24,9.24,0,0,1-.22-2.24,4,4,0,0,0,0-.5c0-.14,0-.28,0-.4V6a10.08,10.08,0,0,1,.19-2.15,3.15,3.15,0,0,1,.62-1.34A3,3,0,0,1,337,1.73a6.22,6.22,0,0,1,1.76-.38h5.54a11.57,11.57,0,0,1,5.23,1.51,14.33,14.33,0,0,1,2.33,1.77,15.67,15.67,0,0,1,2,2.36,21,21,0,0,1,2.92,6.23,27,27,0,0,1,1,7.58,26.56,26.56,0,0,1-1,7.53,21.68,21.68,0,0,1-2.92,6.23,15.12,15.12,0,0,1-2,2.36,13.84,13.84,0,0,1-2.33,1.76,11.6,11.6,0,0,1-5.67,1.52h-4.54A8,8,0,0,1,337.23,39.89Z"/><path class="cls-1" d="M393.74,27.14a10.67,10.67,0,0,0-2.25-4.22,14.66,14.66,0,0,0-4.43-3.49l-5.74-2.95a22.35,22.35,0,0,1-6.18-4.76A8.77,8.77,0,0,1,373,7.27a4.93,4.93,0,0,1,1-3.62,7,7,0,0,1,3.45-2.31A10.6,10.6,0,0,1,379.06,1a11.23,11.23,0,0,1,5.5.54,9.92,9.92,0,0,1,3.22,1.92A13.56,13.56,0,0,1,389.15,5a13.82,13.82,0,0,1,1.23,2,12.31,12.31,0,0,1,.85,2.18,7.87,7.87,0,0,1,.32,2.13v.25h.9V.15h-.74l-.08.12a2.93,2.93,0,0,1-1.28,1.25,3.46,3.46,0,0,1-1.59.28A6.31,6.31,0,0,1,387,1.46L385.34.87A12.36,12.36,0,0,0,380.75,0a14.38,14.38,0,0,0-2.09.15,9.24,9.24,0,0,0-2.05.57,13.7,13.7,0,0,0-3.89,2.19A11.12,11.12,0,0,0,370,6.08a9.67,9.67,0,0,0-1.23,3.85,8.9,8.9,0,0,0,.59,4.13,12.25,12.25,0,0,0,2.68,4,18.58,18.58,0,0,0,5.06,3.57l6.3,3.25a9.74,9.74,0,0,1,4,3.53,7.52,7.52,0,0,1,1.14,4.12,7.19,7.19,0,0,1-1.28,3.84A7.92,7.92,0,0,1,384,39.17a13.68,13.68,0,0,1-4.16.83h-.45a12,12,0,0,1-4.16-.81,11.76,11.76,0,0,1-3.53-2.13,6.48,6.48,0,0,1-1.39-1.78,14.81,14.81,0,0,1-1.09-2.39,19.54,19.54,0,0,1-.69-2.51,12.21,12.21,0,0,1-.24-2.28l-.05-.25h-.85V41h.6l.25,0v-.21l.27-.61a2,2,0,0,1,.82-.79A4.07,4.07,0,0,1,371.1,39a8.48,8.48,0,0,1,3.18.74c.14.07.32.14.53.22a11.89,11.89,0,0,0,4.44.86h.5q.36,0,.69,0c.22,0,.47,0,.74-.07v0a19.53,19.53,0,0,0,6.23-1.83,13.89,13.89,0,0,0,4.25-3.21,9.56,9.56,0,0,0,2.13-4.08A9.18,9.18,0,0,0,393.74,27.14Z"/></g></g></svg>