<svg xmlns="http://www.w3.org/2000/svg" viewBox="0 0 441.45 188.55"><defs><style>.cls-1{fill:#53575a;}.cls-2{fill:#ff8300;}</style></defs><g id="Layer_2" data-name="Layer 2"><g id="Layer_1-2" data-name="Layer 1"><path class="cls-1" d="M11.66,52.71v-.45A26.12,26.12,0,0,0,15.4,52a5.06,5.06,0,0,0,2.44-.94,3.9,3.9,0,0,0,1.3-2,11.37,11.37,0,0,0,.39-3.32V7.54q0-3.57-1.27-4.91T13.74,1.1H11.66V.71h24.7a26.27,26.27,0,0,1,7.54,1,15,15,0,0,1,5.2,2.79,11,11,0,0,1,3,4.07,13.25,13.25,0,0,1,1,5.23,11.65,11.65,0,0,1-4,9.29,13.87,13.87,0,0,1-5.2,2.8,24.08,24.08,0,0,1-7.54,1H26.48v19a12.36,12.36,0,0,0,.3,3,4.14,4.14,0,0,0,1,1.89,4.3,4.3,0,0,0,1.82,1.07,10.55,10.55,0,0,0,2.76.42h2l-.07.06v.39H11.66ZM26.48,26.52h9.36a9.46,9.46,0,0,0,5.53-1.62,10.35,10.35,0,0,0,1.46-1.34,9.11,9.11,0,0,0,1.33-1.91,13.81,13.81,0,0,0,1.3-3.55,18.89,18.89,0,0,0,.46-4.32q0-5.59-2.41-9A8.86,8.86,0,0,0,35.84,1.1H31.68a6.17,6.17,0,0,0-4.06,1.63c-.76.87-1.14,2.45-1.14,4.75v19Z"/><path class="cls-1" d="M47.48,52.13,48.62,52a7.89,7.89,0,0,0,2.53-.88,13.3,13.3,0,0,0,3.09-2.31A12.66,12.66,0,0,0,57,44.33L74.52.65H75L92.46,44.2a28.66,28.66,0,0,0,2.14,4.39,8.79,8.79,0,0,0,2,2.27,4.41,4.41,0,0,0,2,.91l2.3.36v.45H79.52v-.45c1.56-.09,2.9-.18,4-.29A4.45,4.45,0,0,0,86,51a2.56,2.56,0,0,0,.72-2.31,18,18,0,0,0-1.3-4.58L80.63,32H62.49L57.55,44.27A6.23,6.23,0,0,0,57,47.55a4.35,4.35,0,0,0,1,2.21,5.32,5.32,0,0,0,1.92,1.36,11.15,11.15,0,0,0,2.21.72A11.31,11.31,0,0,0,64,52.1l.84,0v.45H47.48ZM71.59,9.36l-8.9,22.16H80.43Z"/><path class="cls-1" d="M103.77,52.71v-.45h.06a26.12,26.12,0,0,0,3.74-.23,4.87,4.87,0,0,0,2.41-.94,4,4,0,0,0,1.26-2,11.37,11.37,0,0,0,.39-3.32V7.54q0-3.57-1.26-4.91c-.85-.89-2.35-1.4-4.52-1.53h-2.08V.71h24.76a26.71,26.71,0,0,1,7.54,1,16.68,16.68,0,0,1,5.2,2.79,11,11,0,0,1,3,4.07,13.25,13.25,0,0,1,1,5.23,11.65,11.65,0,0,1-4,9.29,15.34,15.34,0,0,1-5.2,2.8,12.93,12.93,0,0,1-3,.71c-1.06.13-2.18.24-3.35.33a10,10,0,0,1,2.9,1.36,14.86,14.86,0,0,1,3.47,3.58l12.22,17a6.51,6.51,0,0,0,2.18,1.92,13.07,13.07,0,0,0,2.47,1,9.78,9.78,0,0,0,2.11.42c.61.05,1,.07,1.11.07h.06v.45h-13l-15.86-22a15.29,15.29,0,0,0-1.78-2.05A7.84,7.84,0,0,0,124,27.56a5.3,5.3,0,0,0-1.47-.52,8,8,0,0,0-1.49-.13h-2.41v19a12.36,12.36,0,0,0,.3,3,4.14,4.14,0,0,0,1,1.89,4.31,4.31,0,0,0,1.79,1.07,10.18,10.18,0,0,0,2.73.42h2v.45H103.77Zm14.88-26.19H128a9.35,9.35,0,0,0,5.46-1.62,10.38,10.38,0,0,0,1.47-1.34,11.62,11.62,0,0,0,1.39-1.91,15.92,15.92,0,0,0,1.24-3.55,19.49,19.49,0,0,0,.45-4.32,15.17,15.17,0,0,0-2.4-9A8.81,8.81,0,0,0,128,1.1h-4.22a8.82,8.82,0,0,0-2.41.52,4,4,0,0,0-1.59,1.11,4.33,4.33,0,0,0-.88,1.88,13.78,13.78,0,0,0-.26,2.87v19Z"/><path class="cls-1" d="M199.9,14.17V14c-.34-1.34-.73-2.74-1.17-4.19a15,15,0,0,0-1.91-4.07,10.82,10.82,0,0,0-3.45-3.18A12.82,12.82,0,0,0,187.68,1h-.58a5.75,5.75,0,0,0-4,1.59Q182,4,182,7.34V45.76a12.44,12.44,0,0,0,.3,3,4.07,4.07,0,0,0,1,1.91A4.22,4.22,0,0,0,185,51.71a10.11,10.11,0,0,0,2.73.42h2v.45H167.14v-.45a26.12,26.12,0,0,0,3.74-.23,4.87,4.87,0,0,0,2.41-.94,4,4,0,0,0,1.26-2,11.37,11.37,0,0,0,.39-3.32V7.41a12.42,12.42,0,0,0-.29-3,4.14,4.14,0,0,0-1-1.89,4,4,0,0,0-1.79-1A13.77,13.77,0,0,0,169.16,1h-.39a12.61,12.61,0,0,0-5.66,1.56,11.21,11.21,0,0,0-3.44,3.18,14.27,14.27,0,0,0-1.95,4.07c-.43,1.45-.8,2.85-1.11,4.19v.13h-.45V.52h44.2V14.17Z"/><path class="cls-1" d="M266.53.71v.46h-1a18,18,0,0,0-2.76.29,12.22,12.22,0,0,0-3.35,1.11,8.14,8.14,0,0,0-2.82,2.37,6.59,6.59,0,0,0-1.21,4.16V52.71h-.52L216.67,4.88V44.27a6.7,6.7,0,0,0,1.21,4.22,8.14,8.14,0,0,0,2.82,2.37A12.22,12.22,0,0,0,224.05,52a18,18,0,0,0,2.76.29h1v.45H205v-.45h1a17.93,17.93,0,0,0,2.77-.29,12.15,12.15,0,0,0,3.34-1.11A8.08,8.08,0,0,0,215,48.49a6.76,6.76,0,0,0,1.2-4.22v-37q0-1.56-.06-2.7a3.78,3.78,0,0,0-.59-1.91,3,3,0,0,0-1.72-1.14,12.82,12.82,0,0,0-3.48-.36h-2V.71H222.2l32.69,40.63V9.1a6.65,6.65,0,0,0-1.2-4.16,8.08,8.08,0,0,0-2.83-2.37,12.15,12.15,0,0,0-3.34-1.11,17.93,17.93,0,0,0-2.77-.29h-1V.71h22.75Z"/><path class="cls-1" d="M303.64,51.61a15.81,15.81,0,0,0,3.81-1.69,14.35,14.35,0,0,0,2.89-2.37,18.87,18.87,0,0,0,2.14-2.77,22.34,22.34,0,0,0,2.93-7.53h.45L314,52.71H271v-.45a26.12,26.12,0,0,0,3.74-.23,5.06,5.06,0,0,0,2.44-.94,4,4,0,0,0,1.3-2,11.37,11.37,0,0,0,.39-3.32V8.32a1.72,1.72,0,0,0,0-.39,2.56,2.56,0,0,1,0-.39q0-3.57-1.27-4.91c-.84-.89-2.35-1.4-4.51-1.53H271V.71h41.21V14.36h-.46V14.3c-.34-1.43-.74-2.92-1.2-4.49a13.43,13.43,0,0,0-2.11-4.25,11.21,11.21,0,0,0-3.9-3.19A14.37,14.37,0,0,0,298,1.1H285.77V26.52h9.29a7.43,7.43,0,0,0,4.39-1.27,8.64,8.64,0,0,0,3.41-5.56,16.62,16.62,0,0,0,.2-1.81v-.2h.45V35.81h-.45v-.19a18.73,18.73,0,0,0-.2-1.89,8.58,8.58,0,0,0-1-2.95,8.16,8.16,0,0,0-2.5-2.7,7.84,7.84,0,0,0-4.58-1.17h-9V44.72a7.62,7.62,0,0,1,.06,1.17,13,13,0,0,0,.29,3,4.15,4.15,0,0,0,1,1.89,4.24,4.24,0,0,0,1.79,1.07,10,10,0,0,0,2.73.42h7.21A16.66,16.66,0,0,0,303.64,51.61Z"/><path class="cls-1" d="M320,52.71v-.45H320a26.22,26.22,0,0,0,3.74-.23,4.79,4.79,0,0,0,2.4-.94,4,4,0,0,0,1.27-2,11.37,11.37,0,0,0,.39-3.32V7.54q0-3.57-1.27-4.91c-.84-.89-2.35-1.4-4.51-1.53H320V.71h24.76a26.71,26.71,0,0,1,7.54,1,16.79,16.79,0,0,1,5.2,2.79,11,11,0,0,1,3,4.07,13.25,13.25,0,0,1,1,5.23,11.68,11.68,0,0,1-4,9.29,15.44,15.44,0,0,1-5.2,2.8,12.93,12.93,0,0,1-3,.71c-1.06.13-2.18.24-3.35.33a9.87,9.87,0,0,1,2.89,1.36,14.87,14.87,0,0,1,3.48,3.58l12.22,17a6.42,6.42,0,0,0,2.18,1.92,12.81,12.81,0,0,0,2.47,1,9.67,9.67,0,0,0,2.11.42c.61.05,1,.07,1.11.07h.06v.45h-13l-15.86-22a14.59,14.59,0,0,0-1.79-2.05,7.31,7.31,0,0,0-1.56-1.14,5.13,5.13,0,0,0-1.46-.52,8,8,0,0,0-1.49-.13h-2.41v19a13,13,0,0,0,.29,3,4.15,4.15,0,0,0,1,1.89,4.24,4.24,0,0,0,1.79,1.07,10,10,0,0,0,2.73.42h2v.45H320Zm14.88-26.19h9.36a9.35,9.35,0,0,0,5.46-1.62,9.83,9.83,0,0,0,1.46-1.34,11.09,11.09,0,0,0,1.4-1.91,16.44,16.44,0,0,0,1.24-3.55,19.49,19.49,0,0,0,.45-4.32,15.17,15.17,0,0,0-2.4-9A8.83,8.83,0,0,0,344.2,1.1H340a8.74,8.74,0,0,0-2.41.52A4,4,0,0,0,336,2.73a4.22,4.22,0,0,0-.88,1.88,13.78,13.78,0,0,0-.26,2.87v19Z"/><path class="cls-1" d="M376.9,36.21h.52a15.62,15.62,0,0,0,.32,3,24,24,0,0,0,.91,3.31,19.55,19.55,0,0,0,1.43,3.15A9,9,0,0,0,382,48.1a15.5,15.5,0,0,0,4.68,2.83A16.08,16.08,0,0,0,392.17,52h.59a18.24,18.24,0,0,0,5.52-1.1,10.66,10.66,0,0,0,4.42-3.71A9.59,9.59,0,0,0,404.42,42a10,10,0,0,0-1.52-5.52,13,13,0,0,0-5.33-4.72l-8.19-4.22a24,24,0,0,1-6.5-4.58,15.53,15.53,0,0,1-3.42-5.14,11.24,11.24,0,0,1-.74-5.23,12.11,12.11,0,0,1,1.56-4.88,14.18,14.18,0,0,1,3.47-4,17.44,17.44,0,0,1,5-2.8,11.34,11.34,0,0,1,2.6-.72A17.82,17.82,0,0,1,394,0a15.87,15.87,0,0,1,5.85,1.1c.7.26,1.43.52,2.21.78a8.44,8.44,0,0,0,2.34.46A4.86,4.86,0,0,0,406.6,2,4.12,4.12,0,0,0,408.42.19h.46V14.3h-.52a10.24,10.24,0,0,0-.43-2.86,15.89,15.89,0,0,0-1.13-2.89A17.55,17.55,0,0,0,405.17,6a15.71,15.71,0,0,0-1.82-2.05,13.08,13.08,0,0,0-4.29-2.57A14.76,14.76,0,0,0,394,.46a15.54,15.54,0,0,0-2.24.16,14.75,14.75,0,0,0-2.18.48,9.33,9.33,0,0,0-4.65,3.13,6.63,6.63,0,0,0-1.36,4.94,11.49,11.49,0,0,0,2.89,5.94,28.84,28.84,0,0,0,8.13,6.27l7.47,3.84a19,19,0,0,1,5.66,4.45A13.69,13.69,0,0,1,410.57,35a11.75,11.75,0,0,1,.06,5.59,11.9,11.9,0,0,1-2.7,5.17,17.62,17.62,0,0,1-5.42,4.1,25.44,25.44,0,0,1-8.13,2.37h.13l-.94.1c-.28,0-.57,0-.88,0H392a14.85,14.85,0,0,1-5.65-1.11v0a3.81,3.81,0,0,1-.65-.26,12,12,0,0,0-4.29-1,5.4,5.4,0,0,0-2.51.52,2.72,2.72,0,0,0-1.2,1.17,9.46,9.46,0,0,0-.39.87v.07h-.45Z"/><path class="cls-1" d="M0,66.85a1.73,1.73,0,0,1,.52-1.28,1.73,1.73,0,0,1,1.28-.52,1.73,1.73,0,0,1,1.28.52,1.84,1.84,0,0,1,0,2.56,1.73,1.73,0,0,1-1.28.52,1.73,1.73,0,0,1-1.28-.52A1.73,1.73,0,0,1,0,66.85Zm.6,7.32H3V92.65H.6Z"/><path class="cls-1" d="M10.6,79.37c0-.35,0-.77,0-1.26s-.05-1-.06-1.5,0-1-.06-1.42,0-.78,0-1h2.4c0,.69,0,1.36.06,2a6.31,6.31,0,0,0,.1,1.24h.12a6.48,6.48,0,0,1,2.4-2.62,7,7,0,0,1,3.92-1.1,7.94,7.94,0,0,1,3.52.68,5.64,5.64,0,0,1,2.14,1.78,6.67,6.67,0,0,1,1.08,2.54,14.5,14.5,0,0,1,.3,3v11H24V81.77a12,12,0,0,0-.2-2.18,5.75,5.75,0,0,0-.7-1.9,3.61,3.61,0,0,0-1.4-1.34,4.83,4.83,0,0,0-2.34-.5,6.77,6.77,0,0,0-2.5.46,5.33,5.33,0,0,0-2,1.4,6.78,6.78,0,0,0-1.36,2.36,10.16,10.16,0,0,0-.5,3.34v9.24H10.6Z"/><path class="cls-1" d="M44.6,66.85a1.78,1.78,0,1,1,.52,1.28A1.73,1.73,0,0,1,44.6,66.85Zm.6,7.32h2.4V92.65H45.2Z"/><path class="cls-1" d="M55.2,79.37c0-.35,0-.77,0-1.26s0-1-.06-1.5,0-1-.06-1.42,0-.78,0-1h2.4c0,.69.05,1.36.06,2a5.59,5.59,0,0,0,.1,1.24h.12a6.48,6.48,0,0,1,2.4-2.62A7,7,0,0,1,64,73.69a7.94,7.94,0,0,1,3.52.68,5.72,5.72,0,0,1,2.14,1.78,6.67,6.67,0,0,1,1.08,2.54,14.5,14.5,0,0,1,.3,3v11h-2.4V81.77a12,12,0,0,0-.2-2.18,5.75,5.75,0,0,0-.7-1.9,3.61,3.61,0,0,0-1.4-1.34,4.83,4.83,0,0,0-2.34-.5,6.77,6.77,0,0,0-2.5.46,5.33,5.33,0,0,0-2,1.4,6.78,6.78,0,0,0-1.36,2.36,10.16,10.16,0,0,0-.5,3.34v9.24H55.2Z"/><path class="cls-1" d="M75.6,74.17h2.72l6.16,15.88,6-15.88h2.44L85.64,92.65H83.16Z"/><path class="cls-1" d="M113.8,89.17a8.09,8.09,0,0,1-3.46,3,11.06,11.06,0,0,1-4.54.92,9.88,9.88,0,0,1-3.84-.72,8.61,8.61,0,0,1-3-2,8.82,8.82,0,0,1-1.9-3.08,11.27,11.27,0,0,1-.66-3.94,10.61,10.61,0,0,1,.68-3.84A9.13,9.13,0,0,1,99,76.47a8.94,8.94,0,0,1,2.92-2,9.18,9.18,0,0,1,3.72-.74,9,9,0,0,1,3.74.74,8.15,8.15,0,0,1,2.72,2,8.26,8.26,0,0,1,1.66,2.78,9.36,9.36,0,0,1,.56,3.16V84H98.84a8.21,8.21,0,0,0,.3,1.94,6.94,6.94,0,0,0,3.24,4.22,6.71,6.71,0,0,0,3.46.8,7.68,7.68,0,0,0,3.56-.88,6.42,6.42,0,0,0,2.64-2.4ZM112,81.85a5.49,5.49,0,0,0-.5-2.32,6.26,6.26,0,0,0-3.4-3.2,6.58,6.58,0,0,0-2.5-.48,6.15,6.15,0,0,0-3.26.8,7.24,7.24,0,0,0-3.14,3.86,5.48,5.48,0,0,0-.32,1.34Z"/><path class="cls-1" d="M120.48,79.37c0-.35,0-.77,0-1.26s0-1-.06-1.5,0-1-.06-1.42,0-.78,0-1h2.4c0,.69,0,1.36.06,2a6.31,6.31,0,0,0,.1,1.24H123a6.48,6.48,0,0,1,2.4-2.62,7,7,0,0,1,3.92-1.1,7.94,7.94,0,0,1,3.52.68,5.64,5.64,0,0,1,2.14,1.78A6.67,6.67,0,0,1,136,78.69a14.5,14.5,0,0,1,.3,3v11h-2.4V81.77a12,12,0,0,0-.2-2.18,5.75,5.75,0,0,0-.7-1.9,3.61,3.61,0,0,0-1.4-1.34,4.83,4.83,0,0,0-2.34-.5,6.77,6.77,0,0,0-2.5.46,5.33,5.33,0,0,0-2,1.4,6.78,6.78,0,0,0-1.36,2.36,10.16,10.16,0,0,0-.5,3.34v9.24h-2.4Z"/><path class="cls-1" d="M152.52,76.33h-5.28v12a2.6,2.6,0,0,0,.68,1.92,2.55,2.55,0,0,0,1.88.68,5.57,5.57,0,0,0,1.38-.18,8.46,8.46,0,0,0,1.34-.46l.2,2.16a13.06,13.06,0,0,1-1.56.44,7.4,7.4,0,0,1-1.56.2,5.81,5.81,0,0,1-2.2-.38,3.83,3.83,0,0,1-1.48-1,4.06,4.06,0,0,1-.82-1.5,6.48,6.48,0,0,1-.26-1.86v-12h-4V74.17h4V68.85h2.4v5.32h5.28Z"/><path class="cls-1" d="M156.56,83.41a10.33,10.33,0,0,1,.72-3.9,9.21,9.21,0,0,1,2-3.08,8.82,8.82,0,0,1,3.08-2,10.43,10.43,0,0,1,3.92-.72,10.33,10.33,0,0,1,3.9.72,9.05,9.05,0,0,1,5.1,5.1,10.92,10.92,0,0,1,0,7.8,9.05,9.05,0,0,1-5.1,5.1,10.33,10.33,0,0,1-3.9.72,10.43,10.43,0,0,1-3.92-.72,8.82,8.82,0,0,1-3.08-2,9.21,9.21,0,0,1-2-3.08A10.33,10.33,0,0,1,156.56,83.41Zm2.4,0a8.41,8.41,0,0,0,.5,2.94,6.82,6.82,0,0,0,1.46,2.4,7,7,0,0,0,2.32,1.62,8,8,0,0,0,6.08,0,7.12,7.12,0,0,0,2.32-1.62,7,7,0,0,0,1.46-2.4,8.89,8.89,0,0,0,0-5.88,7,7,0,0,0-1.46-2.4,7.12,7.12,0,0,0-2.32-1.62,8,8,0,0,0-6.08,0,7,7,0,0,0-2.32,1.62,6.82,6.82,0,0,0-1.46,2.4A8.41,8.41,0,0,0,159,83.41Z"/><path class="cls-1" d="M182.12,79.37c0-.35,0-.77,0-1.26s-.05-1-.06-1.5,0-1-.06-1.42,0-.78,0-1h2.4c0,.69,0,1.36.06,2a5.59,5.59,0,0,0,.1,1.24,8.16,8.16,0,0,1,2.36-2.68,5.87,5.87,0,0,1,3.52-1,4,4,0,0,1,.7.06l.7.14-.28,2.36a2.83,2.83,0,0,0-.92-.16,6.74,6.74,0,0,0-2.7.5A5,5,0,0,0,186,78a5.68,5.68,0,0,0-1.1,2.06,8.66,8.66,0,0,0-.36,2.54V92.65h-2.4Z"/><path class="cls-1" d="M201.4,98.37a6.93,6.93,0,0,1-1.88,2.84,4.74,4.74,0,0,1-3.2,1,6.94,6.94,0,0,1-1.2-.1,10.34,10.34,0,0,1-1.16-.26l.24-2.24c.34.11.7.21,1.06.3a4.48,4.48,0,0,0,1.1.14,2.29,2.29,0,0,0,1.14-.28,3.14,3.14,0,0,0,.86-.72,5.1,5.1,0,0,0,.62-1c.17-.36.32-.73.46-1.1l1.68-4.28L193.6,74.17h2.68l6.12,15.56,6-15.56h2.56Z"/><path class="cls-2" d="M111,129.77a7.11,7.11,0,0,0,1.68-1.94c.44-.75.9-1.49,1.38-2.24s.93-1.5,1.37-2.25.87-1.49,1.28-2.24,1-1.29,1.43-2,1-1.5,1.53-2.25c.34-.47.67-1,1-1.47a6,6,0,0,1,1.17-1.33,3.14,3.14,0,0,1,1.48-.71,3.23,3.23,0,0,1,1.83.25,4.38,4.38,0,0,1,1.18,2.5,24.82,24.82,0,0,1,.3,3.32c0,1.15.09,2.31.16,3.46a7.37,7.37,0,0,0,.71,3,5.83,5.83,0,0,0,2.09-1.78c.58-.78,1.14-1.55,1.68-2.3s1.07-1.65,1.58-2.5a16.48,16.48,0,0,0,1.28-2.6,6.71,6.71,0,0,0,.87-1.78q.34-1.08,1.68-.87a1.74,1.74,0,0,1-.1,1.89,4.45,4.45,0,0,0-.72,1.88c-.34.62-.64,1.21-.91,1.79s-.55,1.17-.82,1.78a20.27,20.27,0,0,0-2,3.06,10.35,10.35,0,0,1-2.35,3,3.81,3.81,0,0,1-1.27.82,3.43,3.43,0,0,1-1.89.1,3.71,3.71,0,0,1-1.89-1.89,10.33,10.33,0,0,1-.76-3,28.88,28.88,0,0,1-.2-3.57,19.34,19.34,0,0,0-.31-3.51,1.85,1.85,0,0,0-.87.76c-.24.37-.49.73-.76,1.07-.75,1-1.48,2.11-2.2,3.26s-1.37,2.32-2,3.47a30.93,30.93,0,0,0-2.71,4.54,8.46,8.46,0,0,1-3.52,3.73,3.76,3.76,0,0,0-.71.05,2.73,2.73,0,0,1-.82-.05,7,7,0,0,1-1-.52,9.14,9.14,0,0,1-1.37-4.64c-.11-1.87-.16-3.79-.16-5.76s0-3.94-.1-5.91-.17-3.85-.3-5.62a58,58,0,0,0-3.78,8.78c-1.09,3.19-2.14,6.53-3.16,10q-1,3.67-1.89,7.55t-1.88,8c-.14.61-.28,1.22-.41,1.83a8.82,8.82,0,0,1-.56,1.69,3.62,3.62,0,0,1-1,1.27,3,3,0,0,1-1.63.61,2.06,2.06,0,0,1-1.84-1.48,16.13,16.13,0,0,1-.61-2.7,49.17,49.17,0,0,1,0-8.92c.27-3.17.58-6.17.91-9s.75-5.73,1.23-8.62,1-5.66,1.63-8.31l.66-2.55a2,2,0,0,1,1.79-1.53,1.51,1.51,0,0,1,1.17.2,2,2,0,0,1,.56.82,4.86,4.86,0,0,1-.1,2.24,5,5,0,0,0-.1,2.24,6.92,6.92,0,0,0,.41,1.74,2.76,2.76,0,0,1,.1,1.63.7.7,0,0,1-.66.41,1,1,0,0,1-.77-.31c-.54,3.47-1,6.91-1.53,10.3s-.81,7-1,10.82q1.74-5.92,3.67-12.34t4.29-12.25q.3-.7.81-2a12.55,12.55,0,0,1,1.28-2.4,5.81,5.81,0,0,1,1.73-1.73,2.12,2.12,0,0,1,2.2,0,2.65,2.65,0,0,1,1.37,1.63,12.44,12.44,0,0,1,.67,2.75,25.37,25.37,0,0,1,.2,3.21c0,1.13,0,2.13.1,3a50,50,0,0,1,0,6.48A29.13,29.13,0,0,0,111,129.77Z"/><path class="cls-2" d="M148,112.12q-1.94,2.55-3.77,5.51c-1.23,2-2.45,3.88-3.68,5.71q-1.32,1.95-2.75,4.18a20.56,20.56,0,0,1-3.26,4,7.31,7.31,0,0,1-1.43,1.28,2.23,2.23,0,0,1-1.94.25,2.76,2.76,0,0,1-1.43-2.24,31.85,31.85,0,0,1,1.89-8.87,40.47,40.47,0,0,1,3.62-7.55c.48-.75,1-1.5,1.58-2.25a5.69,5.69,0,0,1,1.89-1.63,2.92,2.92,0,0,1,3.42.15c1,.79,1.34,2,1.07,3.73a5.53,5.53,0,0,0,1.17-1.64c.44-.81.92-1.64,1.43-2.49a17.06,17.06,0,0,1,1.63-2.3,2.84,2.84,0,0,1,1.78-1.12,2.24,2.24,0,0,1,.72.1l.61.2a4.67,4.67,0,0,1,1,1.94q-.21,6.12-.82,11.58t-.91,11.58v1.83c0,.75,0,1.5-.11,2.25a9.87,9.87,0,0,1-.35,2c-.17.57-.46.86-.87.86a1.15,1.15,0,0,1-1.07-.66,5,5,0,0,1-.51-1.63,13,13,0,0,1-.15-2,10,10,0,0,0-.11-1.63,57.32,57.32,0,0,1,.21-10.82Q147.5,117.13,148,112.12Zm-7.34.21c0-.07,0-.1-.11-.1a2.58,2.58,0,0,0-.56.25,2.38,2.38,0,0,1-.56.25,21.8,21.8,0,0,0-2.55,3.63,40.62,40.62,0,0,0-2,4.13q-.81,2.15-1.58,4.54a22.4,22.4,0,0,0-1,5.15,35.88,35.88,0,0,0,5.15-6.58q2.3-3.72,4.64-7.29a4.14,4.14,0,0,1-.51-2.2A1.73,1.73,0,0,0,140.66,112.33Z"/><path class="cls-2" d="M161.87,129.26q2-3.87,4.08-7.91a37.69,37.69,0,0,1,4.8-7.29c.27-.34.61-.75,1-1.22a7.25,7.25,0,0,1,1.32-1.23,4.52,4.52,0,0,1,1.58-.71,3.1,3.1,0,0,1,1.89.2,4.64,4.64,0,0,1,2.24,3.17q.72,2.45,1.23,4.89c.13.75.29,1.53.46,2.35s.35,1.63.56,2.45a16.59,16.59,0,0,0,.81,2.29,2.2,2.2,0,0,0,1.23,1.38,1.74,1.74,0,0,0,1.53-.36,13.54,13.54,0,0,1,1.22-.87c.41-.34.78-.63,1.12-.86a7.88,7.88,0,0,0,1-.87,42.29,42.29,0,0,0,4.29-4.28,51.77,51.77,0,0,1,4.28-4.39,15.66,15.66,0,0,1,1.79-1.17,2.59,2.59,0,0,1,1.22-.36c.37,0,.6.24.66.71s-.15.75-.66,1a5.22,5.22,0,0,0-1.17.82,24.74,24.74,0,0,0-2.86,2.91q-1.42,1.68-3.06,3.41c-.54.55-1.07,1.06-1.58,1.53s-1,1-1.58,1.53c-.88.89-1.84,1.75-2.86,2.6a6,6,0,0,1-4,1.28,4,4,0,0,0-.46-.2,1.47,1.47,0,0,0-.56-.11,6.22,6.22,0,0,1-2.5-3.16,32.2,32.2,0,0,1-1.28-4.33c-.34-1.53-.66-3.06-1-4.59a14.12,14.12,0,0,0-1.48-4.14,6.11,6.11,0,0,0-2.65,2.3,30.62,30.62,0,0,1-2,2.91,47.33,47.33,0,0,0-3.47,6.32c-1,2.24-2,4.56-2.95,6.94a6,6,0,0,0-.72,1.58,17.87,17.87,0,0,1-.71,1.89,5.31,5.31,0,0,1-1.07,1.58,1.93,1.93,0,0,1-1.79.46,1.68,1.68,0,0,1-1.37-1.08,6.3,6.3,0,0,1-.57-2.24,27.29,27.29,0,0,1,0-2.75c0-1,.09-1.89.16-2.71q.41-4.89,1.12-9.53a55.74,55.74,0,0,1,1.94-8.52c.27-.75.51-1.43.71-2a1.43,1.43,0,0,1,1.33-1,1.15,1.15,0,0,1,1.27.56,3,3,0,0,1,.31,1.58,12,12,0,0,1-.31,2c-.17.71-.29,1.31-.36,1.78-.47,2.59-.88,5.17-1.22,7.76S162.14,126.68,161.87,129.26Z"/><path class="cls-2" d="M210.93,112.12q-1.94,2.55-3.77,5.51c-1.22,2-2.45,3.88-3.67,5.71q-1.34,1.95-2.76,4.18a20.56,20.56,0,0,1-3.26,4,7,7,0,0,1-1.43,1.28,2.23,2.23,0,0,1-1.94.25,2.79,2.79,0,0,1-1.43-2.24,31.85,31.85,0,0,1,1.89-8.87,41.11,41.11,0,0,1,3.62-7.55c.48-.75,1-1.5,1.58-2.25a5.69,5.69,0,0,1,1.89-1.63,2.92,2.92,0,0,1,3.42.15c1,.79,1.34,2,1.07,3.73a5.53,5.53,0,0,0,1.17-1.64c.44-.81.92-1.64,1.43-2.49a17.06,17.06,0,0,1,1.63-2.3,2.83,2.83,0,0,1,1.79-1.12,2.17,2.17,0,0,1,.71.1l.61.2a4.67,4.67,0,0,1,1,1.94c-.13,4.08-.41,7.94-.81,11.58s-.72,7.5-.92,11.58v1.83c0,.75,0,1.5-.1,2.25a10.59,10.59,0,0,1-.36,2c-.17.57-.46.86-.87.86a1.16,1.16,0,0,1-1.07-.66,5,5,0,0,1-.51-1.63,13,13,0,0,1-.15-2,11.47,11.47,0,0,0-.1-1.63,56.5,56.5,0,0,1,.2-10.82Q210.43,117.13,210.93,112.12Zm-7.34.21a.09.09,0,0,0-.1-.1,2.21,2.21,0,0,0-.56.25,2.58,2.58,0,0,1-.56.25,20.69,20.69,0,0,0-2.55,3.63,40.62,40.62,0,0,0-2,4.13q-.83,2.15-1.59,4.54a21.88,21.88,0,0,0-1,5.15,36.32,36.32,0,0,0,5.15-6.58c1.53-2.48,3.07-4.91,4.64-7.29a4.14,4.14,0,0,1-.51-2.2A1.73,1.73,0,0,0,203.59,112.33Z"/><path class="cls-2" d="M241.84,132.22q3-3.57,5.86-7.4a81.29,81.29,0,0,1,6.38-7.39c.75-.75,1.53-1.52,2.34-2.3a5.08,5.08,0,0,1,3-1.38,1.46,1.46,0,0,1,.77.72,1.21,1.21,0,0,1,0,1.12.91.91,0,0,1-.67.2.9.9,0,0,1-.66-.2,86.51,86.51,0,0,0-9.33,10.3q-4.23,5.51-8.32,11.32-1.62,10.81-4.18,21.17a126.79,126.79,0,0,1-6.42,19.43,24.61,24.61,0,0,1-1.28,2.75c-.51,1-1,1.91-1.58,2.86-.34.61-.7,1.23-1.07,1.84a10.34,10.34,0,0,1-1.22,1.63,5.36,5.36,0,0,1-1.64,1.17,5.23,5.23,0,0,1-2.29.46c0,.07-.07,0-.2-.1a1.67,1.67,0,0,1-.67-.31,3.81,3.81,0,0,0-.66-.4,1.57,1.57,0,0,0-.51-.62,10.14,10.14,0,0,1-.82-3.57,21.13,21.13,0,0,1,.16-3.82,33,33,0,0,1,.71-3.72c.31-1.23.6-2.35.87-3.37q1-3.36,2.24-6.48c.82-2.07,1.63-4.06,2.45-6a158.74,158.74,0,0,1,12.44-21.73c.34-2.18.67-4.45,1-6.84s.53-4.79.66-7.24.33-4.89.36-7.55a23.31,23.31,0,0,0-.86-7,2.19,2.19,0,0,0-1.23,1,16.27,16.27,0,0,1-1,1.37,17.15,17.15,0,0,1,1,2.76,7,7,0,0,0,.61,1.43,1.18,1.18,0,0,1,0,1.32c-.54.2-.93.12-1.17-.25a3.16,3.16,0,0,0-.76-.87c-.21-.34-.43-.68-.67-1a5.16,5.16,0,0,1-.56-1,32,32,0,0,0-2.75,4.08q-1.23,2.15-2.65,4.18c-.41.55-.91,1.28-1.48,2.19a16.47,16.47,0,0,1-2,2.55,6.82,6.82,0,0,1-2.4,1.69,2.94,2.94,0,0,1-2.8-.51,4.37,4.37,0,0,1-.92-2.5,12.75,12.75,0,0,1,.15-3,18.73,18.73,0,0,1,.77-3c.34-1,.68-1.85,1-2.6a27.23,27.23,0,0,1,1.83-3.62,15.37,15.37,0,0,1,2.25-2.91,9.29,9.29,0,0,1,1.53-1.22,6.75,6.75,0,0,1,2-.92,6.52,6.52,0,0,1,2.29-.21,5.07,5.07,0,0,1,2.19.72,5.34,5.34,0,0,0,1.18-1.12,8.73,8.73,0,0,1,1.22-1.28,4.17,4.17,0,0,1,1.53-.81,3.18,3.18,0,0,1,2,.15,4.28,4.28,0,0,1,.82.56,3.92,3.92,0,0,1,.61.66,6.45,6.45,0,0,1,1.07,2.3,15.81,15.81,0,0,1,.46,3c.06,1,.1,2.16.1,3.31s0,2.28-.1,3.37q-.21,3.57-.41,6.83T241.84,132.22Zm-18.46,41c-.55,1.77-1,3.64-1.43,5.61a14.39,14.39,0,0,0,.1,6.12,9.28,9.28,0,0,0,3-3.72q1.13-2.4,2.14-4.64a95.85,95.85,0,0,0,5.41-15.15q2.15-8,3.87-16.68c0-.06,0-.06-.1,0q-3.78,6.53-7.24,13.47A83.17,83.17,0,0,0,223.38,173.22Zm4.79-59.67a21.05,21.05,0,0,0-3.21,5,23.44,23.44,0,0,0-1.79,6.58,27.79,27.79,0,0,0,4.64-6.22q2-3.57,4.24-6.84a2.7,2.7,0,0,0-2.25.31C229.26,112.84,228.71,113.21,228.17,113.55Z"/><path class="cls-2" d="M259.59,119.47a19.77,19.77,0,0,0-1.33,3.72,17.31,17.31,0,0,0-.61,4.49,7.56,7.56,0,0,0,.92,3.82,3.62,3.62,0,0,0,3.26,1.74,10.12,10.12,0,0,0,5.05-1.12c1.6-.82,3-1.6,4.13-2.35,1.36-1,2.63-1.89,3.83-2.81s2.26-1.81,3.21-2.7a56.8,56.8,0,0,0,5.05-4.38c1.59-1.57,3.18-3.17,4.74-4.8a2.56,2.56,0,0,0,.66-.81,9.71,9.71,0,0,1,.77-1.13,5,5,0,0,1,.87-.86.77.77,0,0,1,1,0c.48.2.58.61.31,1.22a7.34,7.34,0,0,1-.71,1.32,3.57,3.57,0,0,1-.62,1.13c-.27.34-.54.71-.81,1.12a76.91,76.91,0,0,1-5.36,5.61q-2.81,2.66-5.76,5.3a41.46,41.46,0,0,1-8.57,6.12,23.63,23.63,0,0,1-2.55,1.18,14.89,14.89,0,0,1-3,.81,13.42,13.42,0,0,1-3.11.15,6.15,6.15,0,0,1-2.9-.91,4.73,4.73,0,0,1-1.07-1c-.31-.37-.63-.77-1-1.17a9.77,9.77,0,0,1-1.28-4.34,19.33,19.33,0,0,1,.31-4.84,29.5,29.5,0,0,1,1.27-4.7,31.54,31.54,0,0,1,1.63-3.77,43.49,43.49,0,0,1,4.08-6,11.93,11.93,0,0,1,6.23-3.87,4.9,4.9,0,0,1,3.41.91,3.49,3.49,0,0,1,1.07,3.27,6.53,6.53,0,0,1-1.22,3.06,20.3,20.3,0,0,1-2.14,2.55,23.48,23.48,0,0,1-4,3.21A8.37,8.37,0,0,1,259.59,119.47Zm9.48-10.92a10.55,10.55,0,0,0-5.4,3.73,36.73,36.73,0,0,0-3.47,5.66,6.35,6.35,0,0,0,3.77-1,27.25,27.25,0,0,0,2.65-2.15c.75-.81,1.53-1.63,2.35-2.44a4.37,4.37,0,0,0,1.12-3.47A1.13,1.13,0,0,0,269.07,108.55Z"/><path class="cls-2" d="M305.28,129.77a6.94,6.94,0,0,0,1.68-1.94c.45-.75.9-1.49,1.38-2.24s.94-1.5,1.38-2.25.86-1.49,1.27-2.24.95-1.29,1.43-2,1-1.5,1.53-2.25q.51-.7,1-1.47a6.27,6.27,0,0,1,1.17-1.33,3,3,0,0,1,3.32-.46,4.44,4.44,0,0,1,1.17,2.5,26.55,26.55,0,0,1,.31,3.32c0,1.15.08,2.31.15,3.46a7.72,7.72,0,0,0,.71,3,5.86,5.86,0,0,0,2.1-1.78l1.68-2.3c.54-.81,1.07-1.65,1.58-2.5a17.39,17.39,0,0,0,1.28-2.6,7,7,0,0,0,.86-1.78A1.33,1.33,0,0,1,331,114a1.76,1.76,0,0,1-.11,1.89,4.42,4.42,0,0,0-.71,1.88c-.34.62-.65,1.21-.92,1.79s-.54,1.17-.81,1.78a18.87,18.87,0,0,0-2,3.06,10.7,10.7,0,0,1-2.35,3,3.86,3.86,0,0,1-1.28.82,3.4,3.4,0,0,1-1.88.1,3.63,3.63,0,0,1-1.89-1.89,10.33,10.33,0,0,1-.76-3,28.81,28.81,0,0,1-.21-3.57,18.49,18.49,0,0,0-.31-3.51,1.83,1.83,0,0,0-.86.76c-.24.37-.5.73-.77,1.07-.75,1-1.48,2.11-2.19,3.26s-1.38,2.32-2,3.47a31.78,31.78,0,0,0-2.7,4.54,8.51,8.51,0,0,1-3.52,3.73,3.94,3.94,0,0,0-.72.05,2.67,2.67,0,0,1-.81-.05,7,7,0,0,1-1-.52,9.05,9.05,0,0,1-1.38-4.64q-.15-2.81-.15-5.76c0-2,0-3.94-.1-5.91s-.17-3.85-.31-5.62a57,57,0,0,0-3.77,8.78c-1.09,3.19-2.14,6.53-3.17,10-.68,2.45-1.3,5-1.88,7.55s-1.21,5.24-1.89,8c-.14.61-.27,1.22-.41,1.83a7.62,7.62,0,0,1-.56,1.69,3.62,3.62,0,0,1-1,1.27,2.93,2.93,0,0,1-1.63.61,2.08,2.08,0,0,1-1.84-1.48,17.18,17.18,0,0,1-.61-2.7,49.17,49.17,0,0,1,0-8.92c.28-3.17.58-6.17.92-9s.75-5.73,1.23-8.62,1-5.66,1.63-8.31q.3-1.23.66-2.55a2,2,0,0,1,1.79-1.53,1.51,1.51,0,0,1,1.17.2,2.13,2.13,0,0,1,.56.82,5.15,5.15,0,0,1-.1,2.24,5,5,0,0,0-.11,2.24,7.38,7.38,0,0,0,.41,1.74,2.69,2.69,0,0,1,.11,1.63.7.7,0,0,1-.67.41,1,1,0,0,1-.76-.31c-.55,3.47-1.06,6.91-1.53,10.3s-.82,7-1,10.82q1.73-5.92,3.67-12.34t4.28-12.25c.21-.47.48-1.13.82-2a12.51,12.51,0,0,1,1.27-2.4,5.84,5.84,0,0,1,1.74-1.73,2.1,2.1,0,0,1,2.19,0,2.7,2.7,0,0,1,1.38,1.63,13,13,0,0,1,.66,2.75,23.64,23.64,0,0,1,.2,3.21c0,1.13,0,2.13.11,3a53.86,53.86,0,0,1,0,6.48A29.84,29.84,0,0,0,305.28,129.77Z"/><path class="cls-2" d="M330.47,119.47a20.57,20.57,0,0,0-1.32,3.72,17.31,17.31,0,0,0-.61,4.49,7.66,7.66,0,0,0,.91,3.82,3.63,3.63,0,0,0,3.27,1.74,10.15,10.15,0,0,0,5-1.12q2.39-1.23,4.13-2.35,2-1.43,3.82-2.81c1.19-.91,2.26-1.81,3.22-2.7a56.67,56.67,0,0,0,5-4.38q2.4-2.35,4.75-4.8a2.56,2.56,0,0,0,.66-.81,8.61,8.61,0,0,1,.77-1.13,5.38,5.38,0,0,1,.86-.86.78.78,0,0,1,1,0c.48.2.58.61.31,1.22a7.25,7.25,0,0,1-.72,1.32,3.54,3.54,0,0,1-.61,1.13c-.27.34-.54.71-.81,1.12a76.91,76.91,0,0,1-5.36,5.61q-2.81,2.66-5.76,5.3a41.46,41.46,0,0,1-8.57,6.12,23.63,23.63,0,0,1-2.55,1.18,14.89,14.89,0,0,1-3,.81,13.44,13.44,0,0,1-3.11.15,6.18,6.18,0,0,1-2.91-.91,5.19,5.19,0,0,1-1.07-1c-.3-.37-.63-.77-1-1.17a9.89,9.89,0,0,1-1.27-4.34,19.8,19.8,0,0,1,.3-4.84,30.62,30.62,0,0,1,1.28-4.7,30,30,0,0,1,1.63-3.77,42.63,42.63,0,0,1,4.08-6,11.94,11.94,0,0,1,6.22-3.87,4.91,4.91,0,0,1,3.42.91,3.49,3.49,0,0,1,1.07,3.27,6.64,6.64,0,0,1-1.22,3.06,21.18,21.18,0,0,1-2.14,2.55,23.48,23.48,0,0,1-4,3.21A8.41,8.41,0,0,1,330.47,119.47ZM340,108.55a10.58,10.58,0,0,0-5.41,3.73,38.36,38.36,0,0,0-3.47,5.66,6.36,6.36,0,0,0,3.78-1,27.25,27.25,0,0,0,2.65-2.15c.75-.81,1.53-1.63,2.35-2.44a4.41,4.41,0,0,0,1.12-3.47A1.13,1.13,0,0,0,340,108.55Z"/><path class="cls-2" d="M360.15,129.26q2-3.87,4.08-7.91a37.69,37.69,0,0,1,4.8-7.29c.27-.34.61-.75,1-1.22a7.59,7.59,0,0,1,1.32-1.23,4.57,4.57,0,0,1,1.59-.71,3.07,3.07,0,0,1,1.88.2,4.68,4.68,0,0,1,2.25,3.17q.71,2.45,1.22,4.89c.14.75.29,1.53.46,2.35s.36,1.63.56,2.45a15.45,15.45,0,0,0,.82,2.29c.34.78.74,1.24,1.22,1.38a1.74,1.74,0,0,0,1.53-.36c.48-.37.88-.66,1.22-.87a13.09,13.09,0,0,1,1.13-.86,9.49,9.49,0,0,0,1-.87,43.22,43.22,0,0,0,4.28-4.28,51.77,51.77,0,0,1,4.28-4.39,16.59,16.59,0,0,1,1.79-1.17,2.59,2.59,0,0,1,1.22-.36c.38,0,.6.24.67.71s-.16.75-.67,1a5.22,5.22,0,0,0-1.17.82,25.55,25.55,0,0,0-2.86,2.91q-1.43,1.68-3.06,3.41c-.54.55-1.07,1.06-1.58,1.53s-1,1-1.58,1.53c-.88.89-1.83,1.75-2.85,2.6a6,6,0,0,1-4,1.28,4,4,0,0,0-.46-.2,1.47,1.47,0,0,0-.56-.11,6.22,6.22,0,0,1-2.5-3.16,32.2,32.2,0,0,1-1.28-4.33q-.51-2.3-1-4.59a14.72,14.72,0,0,0-1.48-4.14,6.13,6.13,0,0,0-2.66,2.3,30.62,30.62,0,0,1-2,2.91,47.28,47.28,0,0,0-3.46,6.32c-1,2.24-2,4.56-3,6.94a6,6,0,0,0-.72,1.58,17.87,17.87,0,0,1-.71,1.89,5.31,5.31,0,0,1-1.07,1.58,1.92,1.92,0,0,1-1.79.46,1.68,1.68,0,0,1-1.37-1.08,6.1,6.1,0,0,1-.56-2.24,24.52,24.52,0,0,1-.06-2.75c0-1,.09-1.89.16-2.71q.41-4.89,1.12-9.53a57,57,0,0,1,1.94-8.52c.27-.75.51-1.43.71-2a1.44,1.44,0,0,1,1.33-1,1.15,1.15,0,0,1,1.27.56A3,3,0,0,1,363,110a12,12,0,0,1-.31,2,17.61,17.61,0,0,0-.35,1.78c-.48,2.59-.89,5.17-1.23,7.76S360.42,126.68,360.15,129.26Z"/><path class="cls-2" d="M402.38,100.9q8.78-.3,18.26-.92a135,135,0,0,1,18.87.11c.34,0,.71,0,1.12,0a.88.88,0,0,1,.82.56c-.07.54-.33.82-.77.82a5.82,5.82,0,0,1-1.17-.11,182.58,182.58,0,0,0-18.87.16q-9.39.56-18.46,1.07-1.44,8.35-2.6,17a123.94,123.94,0,0,0-1.07,18.16c0,.88,0,1.87.1,3a19.32,19.32,0,0,0,.41,3.06c.13.74.35,1.66.66,2.75s.76,1.66,1.38,1.73a1.36,1.36,0,0,0,1.07-.3,11.9,11.9,0,0,0,1.12-1,13.77,13.77,0,0,0,1-1.17l.66-.92a99.16,99.16,0,0,0,7.29-10.87q3.22-5.55,6.79-11.57c.61-1.09,1.25-2.21,1.94-3.37s1.42-2.31,2.24-3.47a10.05,10.05,0,0,1,.92-1.17.91.91,0,0,1,1-.36c.54.28.64.7.3,1.28s-.61,1-.81,1.27q-2.55,4.29-4.8,8.67T415,134.05q-1.42,2.35-2.81,4.75c-.91,1.59-1.88,3.18-2.9,4.74s-2.08,3.09-3.16,4.59A11.07,11.07,0,0,1,402,151.6a5.92,5.92,0,0,1-2.14,0,6.36,6.36,0,0,1-3.52-3.83,28.19,28.19,0,0,1-1.37-5.76,44,44,0,0,1-.51-6.78c0-2.35.06-4.65.2-6.89q.51-6.82,1.38-13.21t2.09-12.19q-4.69.21-9.54.72t-9.84.71c-.41,0-.87,0-1.38,0s-.8-.22-.87-.76a.73.73,0,0,1,.82-.82,8.66,8.66,0,0,0,1.43-.1c3.19-.2,6.46-.48,9.79-.82s6.63-.57,9.89-.71q.62-2.14,1.38-5a39.44,39.44,0,0,1,1.79-5.35,7.62,7.62,0,0,1,.76-1.69,1.62,1.62,0,0,1,1.38-1,1.07,1.07,0,0,1,1,.41,1.55,1.55,0,0,1,.2,1,7.55,7.55,0,0,1-.2,1.17c-.11.41-.19.79-.26,1.13-.34,1.49-.68,3-1,4.64S402.72,99.54,402.38,100.9Z"/></g></g></svg>