<svg xmlns="http://www.w3.org/2000/svg" xmlns:xlink="http://www.w3.org/1999/xlink" viewBox="0 0 300.02 93.75"><defs><style>.cls-1{fill:none;}.cls-2{fill:#53575a;}.cls-3{fill:#ff8300;}.cls-4{clip-path:url(#clip-path);}</style><clipPath id="clip-path" transform="translate(-459.67 -1070.92)"><rect class="cls-1" width="1220" height="2000"/></clipPath></defs><g id="Layer_2" data-name="Layer 2"><g id="Layer_1-2" data-name="Layer 1"><path class="cls-2" d="M523.15,1125.53v-.14c-.36-1.36-.75-2.78-1.19-4.25a15,15,0,0,0-2-4.13,10.82,10.82,0,0,0-3.5-3.23,13.14,13.14,0,0,0-5.77-1.59h-.6a5.9,5.9,0,0,0-4.06,1.62c-.77.9-1.15,2.5-1.15,4.79v39a12.74,12.74,0,0,0,.3,3,4,4,0,0,0,1,2,4.15,4.15,0,0,0,1.81,1.09,10.4,10.4,0,0,0,2.77.43h2.05v.46h-23v-.46a27,27,0,0,0,3.8-.23,5,5,0,0,0,2.44-1,4,4,0,0,0,1.28-2,11.28,11.28,0,0,0,.4-3.36v-38.88a12.66,12.66,0,0,0-.3-3,3.79,3.79,0,0,0-2.8-3,14,14,0,0,0-2.77-.47h-.4a12.89,12.89,0,0,0-5.74,1.59,11.35,11.35,0,0,0-3.5,3.23,14.56,14.56,0,0,0-2,4.13c-.44,1.47-.81,2.89-1.12,4.25v.14h-.46v-13.86h44.88v13.86Z" transform="translate(-459.67 -1070.92)"/><path class="cls-2" d="M562.08,1111.73h23v.33l.07.07h-.07v.06h-2.64a6.25,6.25,0,0,0-4.12,1.65c-.77.88-1.16,2.49-1.16,4.82v38.94a13.14,13.14,0,0,0,.3,3.07,3.86,3.86,0,0,0,2.84,3,11.22,11.22,0,0,0,2.8.43h2v.46h-23v-.46a25.45,25.45,0,0,0,3.8-.24,5.14,5.14,0,0,0,2.47-1,4,4,0,0,0,1.32-2,11.35,11.35,0,0,0,.4-3.37v-19.2H543.41v19.2a13.77,13.77,0,0,0,.29,3.07,4.24,4.24,0,0,0,1,1.95,4.34,4.34,0,0,0,1.85,1.09,11.31,11.31,0,0,0,2.81.43h2v.46h-23v-.46a25.3,25.3,0,0,0,3.79-.24,5.18,5.18,0,0,0,2.48-1,4.09,4.09,0,0,0,1.32-2,11.74,11.74,0,0,0,.39-3.37v-38.87a12.81,12.81,0,0,0-.29-3,4.41,4.41,0,0,0-1-1.94,3.84,3.84,0,0,0-1.85-1.09,14.75,14.75,0,0,0-2.81-.47h-2.11v-.46h23v.33l.06.07h-.06v.06h-2.71a9,9,0,0,0-2.44.53,4.24,4.24,0,0,0-1.62,1.12,4.39,4.39,0,0,0-.89,1.92,13.36,13.36,0,0,0-.26,2.9v19.27h26.66v-19.2q0-3.63-1.29-5c-.85-.91-2.38-1.42-4.58-1.56h-2.12Z" transform="translate(-459.67 -1070.92)"/><path class="cls-2" d="M588,1164.66v-.46H588a27,27,0,0,0,3.8-.23,4.86,4.86,0,0,0,2.44-1,4.09,4.09,0,0,0,1.29-2,11.62,11.62,0,0,0,.39-3.36v-38.88q0-3.63-1.29-5t-4.58-1.55H588v-.4H613.1a27.21,27.21,0,0,1,7.66,1,17,17,0,0,1,5.28,2.84,11.17,11.17,0,0,1,3,4.13,13.44,13.44,0,0,1,1,5.31,11.87,11.87,0,0,1-4,9.44,16,16,0,0,1-5.28,2.84,13.89,13.89,0,0,1-3.07.72c-1.08.13-2.21.24-3.4.33a9.85,9.85,0,0,1,2.94,1.39,15.1,15.1,0,0,1,3.53,3.63l12.41,17.22a6.51,6.51,0,0,0,2.21,2,13.17,13.17,0,0,0,2.5,1.06,10.85,10.85,0,0,0,2.15.43l1.12.06h.07v.46H628l-16.11-22.3a15.11,15.11,0,0,0-1.81-2.08,7.58,7.58,0,0,0-1.59-1.16,5.4,5.4,0,0,0-1.48-.53,9.35,9.35,0,0,0-1.52-.13h-2.44v19.27a12.69,12.69,0,0,0,.3,3,4.1,4.1,0,0,0,1,1.91,4.15,4.15,0,0,0,1.81,1.09,10.4,10.4,0,0,0,2.77.43h2v.46H588Zm15.11-26.59h9.5a9.49,9.49,0,0,0,5.55-1.65,10.65,10.65,0,0,0,1.48-1.36,11.44,11.44,0,0,0,1.42-1.94,16.19,16.19,0,0,0,1.26-3.6,20.12,20.12,0,0,0,.46-4.39,15.4,15.4,0,0,0-2.45-9.11,8.92,8.92,0,0,0-7.72-3.76h-4.29a8.67,8.67,0,0,0-2.44.53,4.13,4.13,0,0,0-1.62,1.12,4.41,4.41,0,0,0-.89,1.91,14.13,14.13,0,0,0-.26,2.91v19.34Z" transform="translate(-459.67 -1070.92)"/><path class="cls-2" d="M678.31,1163.54a16,16,0,0,0,3.86-1.71,14.9,14.9,0,0,0,2.94-2.41,20.22,20.22,0,0,0,2.18-2.81,22.65,22.65,0,0,0,3-7.65h.47l-1.92,15.7H645.18v-.46A26.88,26.88,0,0,0,649,1164a5.09,5.09,0,0,0,2.48-1,4,4,0,0,0,1.32-2,11.62,11.62,0,0,0,.39-3.36v-38.08a2.6,2.6,0,0,0,0-.4,2.6,2.6,0,0,1,0-.4q0-3.63-1.29-5t-4.59-1.55h-2.11v-.4H687v13.86h-.47v-.06c-.35-1.45-.76-3-1.22-4.56a13.64,13.64,0,0,0-2.14-4.32,11.14,11.14,0,0,0-4-3.23,14.48,14.48,0,0,0-6.6-1.29H660.16v25.81h9.44a7.61,7.61,0,0,0,4.45-1.29,8.79,8.79,0,0,0,3.47-5.64,17.26,17.26,0,0,0,.2-1.85v-.2h.46v18.41h-.46v-.19a19,19,0,0,0-.2-1.92,8.6,8.6,0,0,0-1.06-3,8.31,8.31,0,0,0-2.54-2.74,8,8,0,0,0-4.65-1.19h-9.11v18.09a7.32,7.32,0,0,1,.07,1.18,12.76,12.76,0,0,0,.29,3,3.91,3.91,0,0,0,2.81,3,10.4,10.4,0,0,0,2.77.43h7.33A16.8,16.8,0,0,0,678.31,1163.54Z" transform="translate(-459.67 -1070.92)"/><path class="cls-2" d="M729.06,1163.54a15.87,15.87,0,0,0,3.86-1.71,14.35,14.35,0,0,0,2.94-2.41,19.49,19.49,0,0,0,2.18-2.81,22.46,22.46,0,0,0,3-7.65h.46l-1.91,15.7H695.93v-.46a27,27,0,0,0,3.8-.23,5.09,5.09,0,0,0,2.47-1,3.87,3.87,0,0,0,1.32-2,11.24,11.24,0,0,0,.4-3.36v-38.08a1.75,1.75,0,0,0,0-.4,2.6,2.6,0,0,1,0-.4q0-3.63-1.29-5t-4.58-1.55h-2.11v-.4h41.84v13.86h-.46v-.06c-.36-1.45-.76-3-1.22-4.56a13.67,13.67,0,0,0-2.15-4.32,11.14,11.14,0,0,0-4-3.23,14.46,14.46,0,0,0-6.6-1.29H710.91v25.81h9.44a7.64,7.64,0,0,0,4.46-1.29,8.8,8.8,0,0,0,2.44-2.74,8.64,8.64,0,0,0,1-2.9,17.26,17.26,0,0,0,.2-1.85v-.2h.46v18.41h-.46v-.19a19,19,0,0,0-.2-1.92,8.4,8.4,0,0,0-1.06-3,8.2,8.2,0,0,0-2.54-2.74,8,8,0,0,0-4.65-1.19h-9.11v18.09a6.29,6.29,0,0,1,.07,1.18,12.69,12.69,0,0,0,.3,3,4,4,0,0,0,1,1.91,4.15,4.15,0,0,0,1.81,1.09,10.4,10.4,0,0,0,2.77.43h7.33A16.8,16.8,0,0,0,729.06,1163.54Z" transform="translate(-459.67 -1070.92)"/><path class="cls-3" d="M530.57,1111q2.2-5.27,4.76-10.11a27,27,0,0,1,6.63-8.25c.28-.11.55-.22.81-.34s.55-.22.89-.34a2.89,2.89,0,0,1,2.55.77,4.56,4.56,0,0,1,1.1,2.34,7.83,7.83,0,0,1,0,2.93,11.51,11.51,0,0,1-.81,2.63,24,24,0,0,0,3.23-2.12c1-.79,2.1-1.56,3.23-2.3.8-.56,1.6-1.13,2.43-1.7l2.5-1.7a6.19,6.19,0,0,0,.94-.46.83.83,0,0,1,1,.12.78.78,0,0,1-.26,1.11c-.39.28-.73.54-1,.76q-3.57,2.48-6.88,5t-6.8,5a27.1,27.1,0,0,1-2,3.19,25.24,25.24,0,0,1-2.47,2.84c-.34.29-.75.67-1.23,1.15s-1,.94-1.49,1.36a11.3,11.3,0,0,1-1.65,1.15,4.33,4.33,0,0,1-1.75.59c-1.24.17-1.92-.25-2-1.27a2.06,2.06,0,0,1,.47-1.79c.43-.45.84-.85,1.23-1.19s.87-.85,1.24-1.19.75-.68,1.14-1a26.41,26.41,0,0,0,2.72-2,27.62,27.62,0,0,1,2.72-2c.4-.62.81-1.35,1.24-2.17s.8-1.66,1.14-2.51c.12-.39.24-.85.39-1.36a9.16,9.16,0,0,0,.29-1.53,4.59,4.59,0,0,0,0-1.44,2.22,2.22,0,0,0-.64-1.19,4.57,4.57,0,0,0-3,1.4,32.13,32.13,0,0,0-2.13,2.42,37.62,37.62,0,0,0-4.25,6.85,74.07,74.07,0,0,0-3.23,7.86c-.22.57-.44,1.12-.63,1.66a10.68,10.68,0,0,0-.47,1.65,18,18,0,0,0-.26,3.11c0,1.1,0,2.19-.08,3.27-.11,2.15-.23,4.3-.34,6.46s-.26,4.33-.43,6.54c0,.51-.09,1-.12,1.58a12.57,12.57,0,0,1-.17,1.48,3.32,3.32,0,0,1-.51,1.24,2.24,2.24,0,0,1-1.07.8h-.25a1.43,1.43,0,0,1-1.32-1.4c-.08-.82-.13-1.63-.13-2.42a41.21,41.21,0,0,1,.13-4.89c.14-1.56.33-3.13.55-4.72.12-.73.26-1.47.43-2.21s.31-1.47.42-2.21a36.52,36.52,0,0,0,.26-4.37c0-1.5.06-2.94.17-4.3q.35-5.43.64-10.71t.63-10.79v-1.4a11.36,11.36,0,0,1,.09-1.49,3.15,3.15,0,0,1,.38-1.19,1.05,1.05,0,0,1,1-.51,1,1,0,0,1,1,.64,4.9,4.9,0,0,1,.38,1.53,11.67,11.67,0,0,1,0,1.87q-.09,1-.09,1.65c-.22,3-.44,5.91-.63,8.89S530.68,1108.06,530.57,1111Z" transform="translate(-459.67 -1070.92)"/><path class="cls-3" d="M569.16,1090.89q-1.62,2.13-3.15,4.59c-1,1.65-2,3.23-3.06,4.76-.73,1.08-1.5,2.24-2.29,3.49a17.34,17.34,0,0,1-2.72,3.31,6.1,6.1,0,0,1-1.19,1.07,1.87,1.87,0,0,1-1.62.21,2.31,2.31,0,0,1-1.19-1.87,26.29,26.29,0,0,1,1.58-7.4,34.71,34.71,0,0,1,3-6.29c.4-.62.84-1.24,1.32-1.87a4.81,4.81,0,0,1,1.57-1.36,2.45,2.45,0,0,1,2.85.13,3,3,0,0,1,.89,3.1,4.47,4.47,0,0,0,1-1.36c.37-.68.77-1.37,1.19-2.08a15,15,0,0,1,1.36-1.91,2.37,2.37,0,0,1,1.49-.94,1.78,1.78,0,0,1,.59.09l.51.17a3.83,3.83,0,0,1,.85,1.61q-.17,5.1-.68,9.65t-.76,9.65v1.53c0,.62,0,1.25-.09,1.87a8.39,8.39,0,0,1-.29,1.66c-.15.48-.39.72-.73.72a1,1,0,0,1-.89-.55,4.11,4.11,0,0,1-.42-1.36,10.05,10.05,0,0,1-.13-1.66,8.14,8.14,0,0,0-.09-1.36,48.27,48.27,0,0,1,.17-9C568.56,1096.53,568.88,1093.67,569.16,1090.89Zm-6.12.17s0-.08-.09-.08a2.78,2.78,0,0,0-.46.21,2,2,0,0,1-.47.21,19,19,0,0,0-2.13,3,36.63,36.63,0,0,0-1.7,3.44c-.45,1.19-.89,2.46-1.31,3.79a18.13,18.13,0,0,0-.81,4.29,29.56,29.56,0,0,0,4.29-5.48c1.28-2.07,2.56-4.1,3.87-6.08a3.35,3.35,0,0,1-.43-1.83A1.46,1.46,0,0,0,563,1091.06Z" transform="translate(-459.67 -1070.92)"/><path class="cls-3" d="M584.71,1081.54q7.32-.26,15.22-.76a112.93,112.93,0,0,1,15.72.08c.29,0,.6,0,.94.05a.73.73,0,0,1,.68.46c-.06.46-.27.68-.64.68a4.86,4.86,0,0,1-1-.08,152.52,152.52,0,0,0-15.72.13c-5.22.31-10.34.61-15.39.89q-1.18,7-2.16,14.19a104.21,104.21,0,0,0-.9,15.13c0,.74,0,1.56.09,2.47a16.37,16.37,0,0,0,.34,2.55c.11.62.3,1.39.55,2.29s.64,1.39,1.15,1.45a1.14,1.14,0,0,0,.89-.26,8.18,8.18,0,0,0,.94-.8,11,11,0,0,0,.85-1c.25-.34.44-.6.55-.77a83.71,83.71,0,0,0,6.08-9q2.67-4.64,5.65-9.65c.51-.9,1-1.84,1.61-2.8s1.19-1.93,1.87-2.89a9,9,0,0,1,.77-1,.75.75,0,0,1,.85-.3c.45.23.54.59.25,1.07a12.15,12.15,0,0,1-.68,1.06q-2.12,3.57-4,7.22t-4,7.23q-1.18,1.95-2.33,3.95t-2.43,4c-.85,1.31-1.72,2.58-2.63,3.83a9.19,9.19,0,0,1-3.49,2.89,4.84,4.84,0,0,1-1.78,0,5.23,5.23,0,0,1-2.93-3.19,23.39,23.39,0,0,1-1.15-4.8,37,37,0,0,1-.43-5.65c0-2,.06-3.87.17-5.74q.43-5.7,1.15-11t1.74-10.16q-3.9.18-7.94.6t-8.21.59c-.34,0-.72,0-1.14,0a.63.63,0,0,1-.73-.64.6.6,0,0,1,.68-.68,6.87,6.87,0,0,0,1.19-.09c2.67-.17,5.39-.39,8.16-.68s5.53-.48,8.25-.59c.34-1.19.72-2.59,1.15-4.21a34.79,34.79,0,0,1,1.48-4.46,6.85,6.85,0,0,1,.64-1.4,1.34,1.34,0,0,1,1.15-.81.89.89,0,0,1,.81.34,1.35,1.35,0,0,1,.17.81,7.34,7.34,0,0,1-.17,1c-.09.34-.16.66-.22.94-.28,1.25-.56,2.54-.85,3.87S585,1080.41,584.71,1081.54Z" transform="translate(-459.67 -1070.92)"/><path class="cls-3" d="M604.09,1092.08a1.28,1.28,0,0,1,.3.94c0,.34,0,.71,0,1.1-.06,1-.07,2,0,3.15s0,2.24,0,3.31,0,2.13,0,3.15a3.66,3.66,0,0,1-.9,2.46h-.68a2.72,2.72,0,0,1-.63-1.31,13.78,13.78,0,0,1-.3-1.92c-.06-1.24-.07-2.55,0-3.91a37.08,37.08,0,0,1,.29-4c.06-.34.12-.74.17-1.19a4.81,4.81,0,0,1,.3-1.19,1.37,1.37,0,0,1,.6-.72A1,1,0,0,1,604.09,1092.08Zm.43-16.49a2,2,0,0,1-.68,1.36.9.9,0,0,1-1-.17,1.35,1.35,0,0,1-.34-.8,1,1,0,0,1,.26-.81,1.05,1.05,0,0,1,1-.26C604.21,1075.14,604.46,1075.37,604.52,1075.59Z" transform="translate(-459.67 -1070.92)"/><path class="cls-3" d="M612.34,1097a16.57,16.57,0,0,0-1.11,3.11,14.44,14.44,0,0,0-.51,3.74,6.35,6.35,0,0,0,.77,3.18,3,3,0,0,0,2.72,1.45,8.4,8.4,0,0,0,4.21-.94c1.33-.68,2.47-1.33,3.44-2,1.13-.79,2.19-1.57,3.19-2.34s1.88-1.51,2.67-2.25a44.33,44.33,0,0,0,4.21-3.66q2-1.95,4-4a2.07,2.07,0,0,0,.56-.68,8.1,8.1,0,0,1,.63-.94,4.5,4.5,0,0,1,.73-.72.65.65,0,0,1,.8,0c.4.17.48.51.26,1a5.91,5.91,0,0,1-.6,1.1,2.87,2.87,0,0,1-.51.94c-.22.28-.45.59-.68.93a59.89,59.89,0,0,1-4.46,4.68c-1.56,1.47-3.16,2.95-4.8,4.42a35.24,35.24,0,0,1-7.14,5.1,18.62,18.62,0,0,1-2.13,1,12.11,12.11,0,0,1-2.46.68,11.2,11.2,0,0,1-2.59.12,5.18,5.18,0,0,1-2.43-.76,4.29,4.29,0,0,1-.89-.81c-.25-.31-.52-.64-.81-1a8.22,8.22,0,0,1-1.06-3.61,16.25,16.25,0,0,1,.26-4,24.7,24.7,0,0,1,1.06-3.91,25.06,25.06,0,0,1,1.36-3.14,35.33,35.33,0,0,1,3.4-5,10,10,0,0,1,5.18-3.23,4.13,4.13,0,0,1,2.85.77,2.89,2.89,0,0,1,.89,2.72,5.42,5.42,0,0,1-1,2.55,16.47,16.47,0,0,1-1.78,2.12,18.84,18.84,0,0,1-3.36,2.68A6.93,6.93,0,0,1,612.34,1097Zm7.9-9.09a8.81,8.81,0,0,0-4.5,3.1,31.31,31.31,0,0,0-2.89,4.72,5.26,5.26,0,0,0,3.14-.85,22.09,22.09,0,0,0,2.21-1.79c.63-.68,1.28-1.36,2-2a3.64,3.64,0,0,0,.93-2.89A.92.92,0,0,0,620.24,1087.92Z" transform="translate(-459.67 -1070.92)"/><path class="cls-3" d="M637.07,1105.17c1.13-2.15,2.27-4.34,3.4-6.58a31,31,0,0,1,4-6.08c.22-.28.51-.62.85-1a5.85,5.85,0,0,1,1.1-1,4,4,0,0,1,1.32-.6,2.66,2.66,0,0,1,1.57.17,3.91,3.91,0,0,1,1.87,2.64q.6,2,1,4.08c.11.62.24,1.27.38,2s.3,1.36.47,2a14.27,14.27,0,0,0,.68,1.92q.42,1,1,1.14a1.41,1.41,0,0,0,1.28-.29,9.35,9.35,0,0,1,1-.73q.51-.42.93-.72a6.78,6.78,0,0,0,.85-.72,35.38,35.38,0,0,0,3.57-3.57,43.73,43.73,0,0,1,3.57-3.66,14.12,14.12,0,0,1,1.49-1,2.17,2.17,0,0,1,1-.3c.31,0,.49.2.55.59s-.13.63-.55.85a4.45,4.45,0,0,0-1,.68,22.06,22.06,0,0,0-2.38,2.43c-.79.93-1.64,1.88-2.55,2.84-.45.46-.89.88-1.32,1.28s-.86.82-1.31,1.27c-.74.74-1.53,1.46-2.38,2.17a5,5,0,0,1-3.32,1.06l-.38-.17a1.4,1.4,0,0,0-.47-.08,5.19,5.19,0,0,1-2.08-2.64,25.37,25.37,0,0,1-1.06-3.61c-.29-1.27-.56-2.55-.81-3.82a12.15,12.15,0,0,0-1.23-3.45,5.09,5.09,0,0,0-2.21,1.92,27.2,27.2,0,0,1-1.7,2.42,38.62,38.62,0,0,0-2.89,5.27c-.85,1.87-1.68,3.8-2.47,5.78a5.1,5.1,0,0,0-.59,1.32,14.12,14.12,0,0,1-.6,1.57,4.38,4.38,0,0,1-.89,1.32,1.58,1.58,0,0,1-1.49.38,1.42,1.42,0,0,1-1.15-.89,5.3,5.3,0,0,1-.46-1.87,21.41,21.41,0,0,1,0-2.3c0-.82.08-1.57.13-2.25q.35-4.08.94-8a47,47,0,0,1,1.61-7.1c.23-.62.43-1.19.6-1.7a1.18,1.18,0,0,1,1.1-.85,1,1,0,0,1,1.06.47,2.43,2.43,0,0,1,.26,1.32,9.93,9.93,0,0,1-.26,1.66,15,15,0,0,0-.29,1.48q-.6,3.24-1,6.46C637.55,1100.87,637.3,1103,637.07,1105.17Z" transform="translate(-459.67 -1070.92)"/><path class="cls-3" d="M672.26,1081.54q7.31-.26,15.22-.76a112.93,112.93,0,0,1,15.72.08c.28,0,.6,0,.94.05a.74.74,0,0,1,.68.46c-.06.46-.27.68-.64.68a4.79,4.79,0,0,1-1-.08,152.52,152.52,0,0,0-15.72.13q-7.83.47-15.39.89-1.19,7-2.17,14.19a104.24,104.24,0,0,0-.89,15.13c0,.74,0,1.56.09,2.47a16.37,16.37,0,0,0,.34,2.55,22.77,22.77,0,0,0,.55,2.29c.25.91.64,1.39,1.15,1.45a1.14,1.14,0,0,0,.89-.26,7.36,7.36,0,0,0,.93-.8,9.61,9.61,0,0,0,.85-1c.26-.34.44-.6.56-.77a82.17,82.17,0,0,0,6.07-9q2.68-4.64,5.66-9.65c.51-.9,1-1.84,1.61-2.8s1.19-1.93,1.87-2.89a7.89,7.89,0,0,1,.77-1,.75.75,0,0,1,.85-.3c.45.23.53.59.25,1.07a12.15,12.15,0,0,1-.68,1.06q-2.13,3.57-4,7.22t-4,7.23q-1.18,1.95-2.34,3.95t-2.42,4c-.85,1.31-1.73,2.58-2.63,3.83a9.19,9.19,0,0,1-3.49,2.89,4.84,4.84,0,0,1-1.78,0,5.28,5.28,0,0,1-2.94-3.19,23.38,23.38,0,0,1-1.14-4.8,35.75,35.75,0,0,1-.43-5.65c0-2,.06-3.87.17-5.74q.42-5.7,1.15-11t1.74-10.16c-2.61.12-5.25.32-8,.6s-5.42.48-8.2.59c-.34,0-.72,0-1.15,0s-.66-.19-.72-.64a.6.6,0,0,1,.68-.68,6.87,6.87,0,0,0,1.19-.09c2.67-.17,5.38-.39,8.16-.68s5.53-.48,8.25-.59c.34-1.19.72-2.59,1.14-4.21a34.77,34.77,0,0,1,1.49-4.46,6.34,6.34,0,0,1,.64-1.4,1.34,1.34,0,0,1,1.15-.81.86.86,0,0,1,.8.34,1.28,1.28,0,0,1,.17.81,6,6,0,0,1-.17,1c-.08.34-.15.66-.21.94-.28,1.25-.57,2.54-.85,3.87S672.54,1080.41,672.26,1081.54Z" transform="translate(-459.67 -1070.92)"/><g class="cls-4"><path class="cls-3" d="M459.67,1137.19a4.74,4.74,0,1,0,4.74-4.74,4.74,4.74,0,0,0-4.74,4.74" transform="translate(-459.67 -1070.92)"/><path class="cls-3" d="M750.22,1137.19a4.74,4.74,0,1,0,4.74-4.74,4.74,4.74,0,0,0-4.74,4.74" transform="translate(-459.67 -1070.92)"/></g></g></g></svg>