<svg xmlns="http://www.w3.org/2000/svg" xmlns:xlink="http://www.w3.org/1999/xlink" viewBox="0 0 217.02 93.61"><defs><style>.cls-1{fill:none;}.cls-2{fill:#53575a;}.cls-3{fill:#ff8300;}.cls-4{clip-path:url(#clip-path);}</style><clipPath id="clip-path" transform="translate(-501.67 -552.85)"><rect class="cls-1" width="1220" height="2000"/></clipPath></defs><g id="Layer_2" data-name="Layer 2"><g id="Layer_1-2" data-name="Layer 1"><path class="cls-2" d="M567.75,607.46v-.13c-.36-1.37-.75-2.78-1.19-4.26a15,15,0,0,0-1.95-4.12,10.73,10.73,0,0,0-3.5-3.24,13,13,0,0,0-5.77-1.58h-.59a5.79,5.79,0,0,0-4.06,1.62c-.77.9-1.16,2.49-1.16,4.78v39a12.8,12.8,0,0,0,.3,3,4.29,4.29,0,0,0,1,2,4.35,4.35,0,0,0,1.81,1.09,10.51,10.51,0,0,0,2.78.42h2v.47h-23V646a25.6,25.6,0,0,0,3.8-.23,5,5,0,0,0,2.44-.95,4.18,4.18,0,0,0,1.29-2,11.74,11.74,0,0,0,.39-3.37V600.6a13.3,13.3,0,0,0-.29-3,4.19,4.19,0,0,0-1-1.91,4,4,0,0,0-1.82-1.06,14.09,14.09,0,0,0-2.77-.46h-.4a12.8,12.8,0,0,0-5.74,1.58,11.26,11.26,0,0,0-3.5,3.24,14.5,14.5,0,0,0-2,4.12c-.44,1.48-.81,2.89-1.12,4.26v.13h-.46V593.6h44.88v13.86Z" transform="translate(-501.67 -552.85)"/><path class="cls-2" d="M644.44,594.19h-.33a10.51,10.51,0,0,0-1.82.24,9.15,9.15,0,0,0-2.67,1,10.41,10.41,0,0,0-2.8,2.34,11.12,11.12,0,0,0-2.15,4.26L621.6,646.47h-.46l-13.07-43.89-12.8,43.89h-.53L581.54,602l-.26-.86a15.46,15.46,0,0,0-1.69-4,6,6,0,0,0-1.91-2,5.27,5.27,0,0,0-2.15-.69c-.74-.06-1.54-.16-2.37-.3h-.07v-.46h21.65v.46h-.2c-1.14,0-2.22,0-3.23.1a4.43,4.43,0,0,0-2.44.8,3.17,3.17,0,0,0-1.13,2.24,11.2,11.2,0,0,0,.73,4.45l9.7,33,9.7-33a.72.72,0,0,1-.13-.36.73.73,0,0,0-.06-.3,15.46,15.46,0,0,0-1.69-4,6,6,0,0,0-1.91-2,5.31,5.31,0,0,0-2.18-.69q-1.15-.09-2.34-.3h-.07v-.46h21.65v.46h-.2c-1.14,0-2.21,0-3.2.07a4.39,4.39,0,0,0-2.44.76,3.12,3.12,0,0,0-1.16,2.24,11.6,11.6,0,0,0,.73,4.52l9.7,33,10-34.32a4,4,0,0,0-.23-3.39,5.36,5.36,0,0,0-2.21-1.89,9.15,9.15,0,0,0-2.87-.82c-1-.11-1.7-.17-2.14-.17h-.4v-.46h17.69Z" transform="translate(-501.67 -552.85)"/><path class="cls-2" d="M648.13,619.74A28.44,28.44,0,0,1,650,609.37a25.53,25.53,0,0,1,4.95-8.51,22.19,22.19,0,0,1,7.26-5.68,20.62,20.62,0,0,1,9-2.11h3.83a20.49,20.49,0,0,1,9,2.11,22,22,0,0,1,7.39,5.68,28.55,28.55,0,0,1,5,8.51,30.21,30.21,0,0,1,1.78,10.37,29.82,29.82,0,0,1-1.78,10.36,28.43,28.43,0,0,1-5,8.51,21.88,21.88,0,0,1-7.39,5.68,20.36,20.36,0,0,1-9,2.11h-3.83a20.48,20.48,0,0,1-9-2.11,22.19,22.19,0,0,1-7.26-5.68A25.43,25.43,0,0,1,650,630.1,28.39,28.39,0,0,1,648.13,619.74Zm7.2,0a40.08,40.08,0,0,0,1.22,10.09,27.49,27.49,0,0,0,3.66,8.45,14.39,14.39,0,0,0,1,1.52,13.84,13.84,0,0,0,1.16,1.32,16.83,16.83,0,0,0,4,3.07,31.25,31.25,0,0,0,3.14,1.48l1.25.27a6.91,6.91,0,0,0,1.39.13h2a6,6,0,0,0,1.32-.13q.59-.13,1.32-.27c.75-.3,1.77-.8,3.07-1.48a18.36,18.36,0,0,0,4.06-3.07c.35-.4.71-.83,1.08-1.32s.74-1,1.09-1.52a28.3,28.3,0,0,0,3.7-8.45,41.39,41.39,0,0,0,0-20.19,28.3,28.3,0,0,0-3.7-8.45c-.35-.53-.71-1-1.09-1.52s-.73-.92-1.08-1.32a18.68,18.68,0,0,0-4.06-3.07c-1.3-.68-2.32-1.17-3.07-1.48l-1.32-.23a7.7,7.7,0,0,0-1.32-.1h-2a10.85,10.85,0,0,0-2.64.33,33.67,33.67,0,0,0-3.14,1.48,17.1,17.1,0,0,0-4,3.07,15.18,15.18,0,0,0-1.16,1.32,15.5,15.5,0,0,0-1,1.52,27.49,27.49,0,0,0-3.66,8.45A40.16,40.16,0,0,0,655.33,619.74Z" transform="translate(-501.67 -552.85)"/><path class="cls-3" d="M530.75,592.89q2.22-5.26,4.76-10.12a27,27,0,0,1,6.63-8.24c.29-.11.56-.23.81-.34s.55-.23.89-.34a2.87,2.87,0,0,1,2.55.76A4.65,4.65,0,0,1,547.5,577a8,8,0,0,1,0,2.93,11.77,11.77,0,0,1-.81,2.64,23.71,23.71,0,0,0,3.23-2.13c1-.79,2.09-1.55,3.23-2.29.79-.57,1.6-1.13,2.42-1.7s1.66-1.13,2.51-1.7a6.77,6.77,0,0,0,.93-.47.83.83,0,0,1,1,.13.78.78,0,0,1-.25,1.1c-.4.29-.74.54-1,.77q-3.57,2.46-6.89,5c-2.21,1.67-4.47,3.33-6.8,5a26.4,26.4,0,0,1-4.5,6c-.34.28-.75.67-1.23,1.15s-1,.93-1.49,1.36a11.58,11.58,0,0,1-1.66,1.14,4.47,4.47,0,0,1-1.74.6c-1.25.17-1.93-.26-2-1.28a2,2,0,0,1,.47-1.78,15,15,0,0,1,1.23-1.19c.45-.45.86-.85,1.23-1.19s.75-.68,1.15-1a27.62,27.62,0,0,0,2.72-2,28.05,28.05,0,0,1,2.72-2c.39-.62.81-1.34,1.23-2.16a27,27,0,0,0,1.15-2.51l.38-1.36a10.34,10.34,0,0,0,.3-1.53,5.36,5.36,0,0,0,0-1.45,2.29,2.29,0,0,0-.64-1.19,4.68,4.68,0,0,0-3,1.41,31.91,31.91,0,0,0-2.12,2.42,37.33,37.33,0,0,0-4.25,6.84,73.7,73.7,0,0,0-3.23,7.86c-.23.57-.44,1.12-.64,1.66a11.67,11.67,0,0,0-.47,1.66,17.86,17.86,0,0,0-.25,3.1q0,1.66-.09,3.27-.16,3.24-.34,6.46t-.42,6.55c-.06.51-.1,1-.13,1.57a10.91,10.91,0,0,1-.17,1.49,3,3,0,0,1-.51,1.23,2.17,2.17,0,0,1-1.06.81h-.26a1.42,1.42,0,0,1-1.31-1.4,22.38,22.38,0,0,1-.13-2.43,39,39,0,0,1,.13-4.88c.14-1.56.32-3.14.55-4.72.11-.74.25-1.48.42-2.21s.32-1.48.43-2.21a36.84,36.84,0,0,0,.25-4.38c0-1.5.06-2.93.17-4.29q.35-5.45.64-10.71t.64-10.8v-1.4a13.68,13.68,0,0,1,.08-1.49,3.15,3.15,0,0,1,.39-1.19,1.12,1.12,0,0,1,1.95.13,4.52,4.52,0,0,1,.38,1.53,9.73,9.73,0,0,1,0,1.87c-.05.65-.08,1.21-.08,1.66q-.35,4.42-.64,8.88C531,587.07,530.87,590,530.75,592.89Z" transform="translate(-501.67 -552.85)"/><path class="cls-3" d="M569.34,572.83q-1.61,2.13-3.14,4.59t-3.06,4.76c-.74,1.08-1.5,2.24-2.3,3.48a17,17,0,0,1-2.72,3.32,5.78,5.78,0,0,1-1.19,1.06,1.85,1.85,0,0,1-1.61.21,2.3,2.3,0,0,1-1.19-1.87A26.21,26.21,0,0,1,555.7,581a34.4,34.4,0,0,1,3-6.29,21.38,21.38,0,0,1,1.32-1.87,4.6,4.6,0,0,1,1.57-1.36,2.43,2.43,0,0,1,2.85.13,3.06,3.06,0,0,1,.89,3.1,4.79,4.79,0,0,0,1-1.36c.36-.68.76-1.37,1.19-2.08a13.39,13.39,0,0,1,1.36-1.92,2.38,2.38,0,0,1,1.48-.93,2.13,2.13,0,0,1,.6.08l.51.17a3.93,3.93,0,0,1,.85,1.62c-.12,3.4-.34,6.62-.68,9.65s-.6,6.24-.77,9.64v1.53c0,.63,0,1.25-.08,1.87a9,9,0,0,1-.3,1.66q-.21.72-.72.72a.94.94,0,0,1-.89-.55,4.35,4.35,0,0,1-.43-1.36,11.27,11.27,0,0,1-.13-1.66,9.72,9.72,0,0,0-.08-1.36,47.43,47.43,0,0,1,.17-9Q568.92,577,569.34,572.83Zm-6.12.17c0-.06,0-.09-.08-.09a2.26,2.26,0,0,0-.47.22,2.9,2.9,0,0,1-.47.21,17.91,17.91,0,0,0-2.12,3,33.31,33.31,0,0,0-1.7,3.44q-.68,1.79-1.32,3.78a19.19,19.19,0,0,0-.81,4.29,29.69,29.69,0,0,0,4.3-5.48c1.27-2.07,2.56-4.09,3.86-6.08a3.43,3.43,0,0,1-.42-1.82A1.46,1.46,0,0,0,563.22,573Z" transform="translate(-501.67 -552.85)"/><path class="cls-3" d="M584.9,563.48q7.3-.26,15.21-.77a111.56,111.56,0,0,1,15.73.09c.28,0,.59,0,.93,0a.74.74,0,0,1,.68.47c-.05.45-.27.68-.63.68a4.74,4.74,0,0,1-1-.09,155.61,155.61,0,0,0-15.73.13q-7.82.47-15.38.89-1.2,7-2.17,14.2a104.24,104.24,0,0,0-.89,15.13c0,.74,0,1.56.08,2.46a17.67,17.67,0,0,0,.34,2.55c.12.63.3,1.39.56,2.3s.63,1.39,1.14,1.44a1.15,1.15,0,0,0,.9-.25,8.41,8.41,0,0,0,.93-.81,8.64,8.64,0,0,0,.85-1c.26-.34.44-.59.55-.76a81.81,81.81,0,0,0,6.08-9.05q2.68-4.64,5.65-9.65c.51-.91,1-1.84,1.62-2.81s1.19-1.92,1.87-2.89a7.71,7.71,0,0,1,.76-1c.29-.31.57-.41.85-.3.46.23.54.58.26,1.06s-.51.84-.68,1.06q-2.13,3.57-4,7.23c-1.24,2.44-2.58,4.84-4,7.22-.8,1.31-1.57,2.63-2.34,4s-1.57,2.65-2.42,4-1.73,2.58-2.64,3.82a9.07,9.07,0,0,1-3.48,2.89,4.49,4.49,0,0,1-1.79,0,5.27,5.27,0,0,1-2.93-3.18,23.48,23.48,0,0,1-1.15-4.81,36.89,36.89,0,0,1-.42-5.65c0-2,.06-3.87.17-5.74q.42-5.69,1.15-11t1.74-10.16q-3.92.17-8,.59t-8.2.6c-.34,0-.72,0-1.15,0s-.66-.18-.72-.64a.6.6,0,0,1,.68-.68,7,7,0,0,0,1.19-.08q4-.25,8.16-.68c2.78-.28,5.52-.48,8.24-.6.34-1.19.73-2.59,1.15-4.2a34.42,34.42,0,0,1,1.49-4.47,6.09,6.09,0,0,1,.64-1.4,1.34,1.34,0,0,1,1.14-.81.89.89,0,0,1,.81.34,1.28,1.28,0,0,1,.17.81,6.11,6.11,0,0,1-.17,1c-.08.34-.16.65-.21.93-.29,1.25-.57,2.54-.85,3.87S585.18,562.35,584.9,563.48Z" transform="translate(-501.67 -552.85)"/><path class="cls-3" d="M604.28,574a1.34,1.34,0,0,1,.3.93c0,.34-.05.71-.05,1.11,0,1-.07,2,0,3.14s0,2.24,0,3.32,0,2.12,0,3.14a3.73,3.73,0,0,1-.89,2.47h-.68a2.63,2.63,0,0,1-.64-1.32,13.4,13.4,0,0,1-.3-1.91c-.05-1.25-.07-2.55,0-3.91a37.44,37.44,0,0,1,.3-4c0-.34.11-.73.17-1.19a4.07,4.07,0,0,1,.3-1.19,1.4,1.4,0,0,1,.59-.72A1,1,0,0,1,604.28,574Zm.42-16.49a1.93,1.93,0,0,1-.68,1.36c-.45.11-.78.06-1-.17a1.34,1.34,0,0,1-.34-.81,1,1,0,0,1,.25-.81,1.06,1.06,0,0,1,1-.25C604.39,557.08,604.65,557.3,604.7,557.53Z" transform="translate(-501.67 -552.85)"/><path class="cls-3" d="M612.52,579a17.24,17.24,0,0,0-1.1,3.1,14.5,14.5,0,0,0-.51,3.74,6.41,6.41,0,0,0,.76,3.19,3,3,0,0,0,2.72,1.44,8.35,8.35,0,0,0,4.21-.93,37.26,37.26,0,0,0,3.44-2c1.14-.79,2.2-1.57,3.19-2.33s1.88-1.52,2.68-2.26a48.49,48.49,0,0,0,4.21-3.65c1.33-1.3,2.64-2.64,4-4a2.07,2.07,0,0,0,.55-.68,7.24,7.24,0,0,1,.64-.93A4.45,4.45,0,0,1,638,573a.66.66,0,0,1,.81-.05c.39.17.48.51.25,1a5.9,5.9,0,0,1-.59,1.11,3.24,3.24,0,0,1-.51.93c-.23.29-.46.6-.68.94a63.74,63.74,0,0,1-4.47,4.67q-2.32,2.22-4.8,4.42a34.69,34.69,0,0,1-7.14,5.1,18.43,18.43,0,0,1-2.12,1,12.38,12.38,0,0,1-2.47.68,11.18,11.18,0,0,1-2.59.13,5.12,5.12,0,0,1-2.42-.77,3.78,3.78,0,0,1-.89-.8l-.81-1a8,8,0,0,1-1.06-3.61,16.24,16.24,0,0,1,.25-4,25.82,25.82,0,0,1,1.06-3.91,26.13,26.13,0,0,1,1.36-3.15,36.08,36.08,0,0,1,3.4-5,10,10,0,0,1,5.19-3.23,4.13,4.13,0,0,1,2.85.76,3,3,0,0,1,.89,2.72,5.63,5.63,0,0,1-1,2.55,16,16,0,0,1-1.79,2.13,19.6,19.6,0,0,1-3.35,2.68A7.06,7.06,0,0,1,612.52,579Zm7.91-9.1a8.85,8.85,0,0,0-4.51,3.11,31.52,31.52,0,0,0-2.89,4.71,5.29,5.29,0,0,0,3.15-.85,23.21,23.21,0,0,0,2.21-1.78q.93-1,2-2a3.68,3.68,0,0,0,.94-2.89A.93.93,0,0,0,620.43,569.85Z" transform="translate(-501.67 -552.85)"/><path class="cls-3" d="M637.26,587.11q1.69-3.23,3.4-6.59a31.31,31.31,0,0,1,4-6.08l.85-1a6.65,6.65,0,0,1,1.11-1,3.62,3.62,0,0,1,1.31-.59,2.62,2.62,0,0,1,1.58.17,3.88,3.88,0,0,1,1.87,2.63q.58,2,1,4.08c.11.63.24,1.28.38,2s.3,1.36.47,2a13.32,13.32,0,0,0,.68,1.91c.28.65.62,1,1,1.15a1.43,1.43,0,0,0,1.27-.3,11.38,11.38,0,0,1,1-.72c.34-.28.65-.52.94-.72a6.77,6.77,0,0,0,.85-.73,35.38,35.38,0,0,0,3.57-3.57,42.09,42.09,0,0,1,3.57-3.65,14.61,14.61,0,0,1,1.48-1,2.17,2.17,0,0,1,1-.3c.31,0,.5.2.56.6s-.13.62-.56.85a4.05,4.05,0,0,0-1,.68,21.06,21.06,0,0,0-2.38,2.42q-1.2,1.41-2.55,2.85c-.46.45-.9.88-1.32,1.27s-.87.83-1.32,1.28c-.74.74-1.53,1.46-2.38,2.17a5,5,0,0,1-3.31,1.06l-.39-.17a1.14,1.14,0,0,0-.46-.09,5.22,5.22,0,0,1-2.09-2.63,27.18,27.18,0,0,1-1.06-3.61c-.28-1.28-.55-2.55-.81-3.83a11.61,11.61,0,0,0-1.23-3.44,5.06,5.06,0,0,0-2.21,1.91,27.2,27.2,0,0,1-1.7,2.42,39.22,39.22,0,0,0-2.89,5.27q-1.27,2.81-2.46,5.78a5.09,5.09,0,0,0-.6,1.32,16.36,16.36,0,0,1-.59,1.57,4.41,4.41,0,0,1-.9,1.32,1.55,1.55,0,0,1-1.48.38,1.39,1.39,0,0,1-1.15-.89,5.3,5.3,0,0,1-.47-1.87,21.34,21.34,0,0,1,0-2.29c0-.82.07-1.58.13-2.26.22-2.72.54-5.36.93-7.94a48,48,0,0,1,1.62-7.1c.22-.62.42-1.19.59-1.7a1.2,1.2,0,0,1,1.11-.85,1,1,0,0,1,1.06.47,2.39,2.39,0,0,1,.25,1.31,9.7,9.7,0,0,1-.25,1.66c-.14.6-.24,1.09-.3,1.49-.4,2.15-.74,4.31-1,6.46S637.48,585,637.26,587.11Z" transform="translate(-501.67 -552.85)"/><path class="cls-3" d="M672.45,563.48q7.31-.26,15.21-.77a111.56,111.56,0,0,1,15.73.09c.28,0,.59,0,.93,0a.74.74,0,0,1,.68.47c-.06.45-.27.68-.64.68a4.64,4.64,0,0,1-1-.09,155.59,155.59,0,0,0-15.73.13q-7.81.47-15.38.89-1.2,7-2.17,14.2a104.24,104.24,0,0,0-.89,15.13c0,.74,0,1.56.08,2.46a17.67,17.67,0,0,0,.34,2.55c.11.63.3,1.39.55,2.3s.64,1.39,1.15,1.44a1.13,1.13,0,0,0,.89-.25,8.47,8.47,0,0,0,.94-.81,9.78,9.78,0,0,0,.85-1c.25-.34.44-.59.55-.76a83.23,83.23,0,0,0,6.08-9.05q2.67-4.64,5.65-9.65c.51-.91,1.05-1.84,1.62-2.81s1.19-1.92,1.87-2.89a7.71,7.71,0,0,1,.76-1,.75.75,0,0,1,.85-.3c.45.23.54.58.26,1.06s-.51.84-.68,1.06q-2.13,3.57-4,7.23c-1.25,2.44-2.58,4.84-4,7.22q-1.2,2-2.34,4c-.77,1.33-1.57,2.65-2.42,4s-1.73,2.58-2.64,3.82a9.14,9.14,0,0,1-3.48,2.89,4.49,4.49,0,0,1-1.79,0,5.24,5.24,0,0,1-2.93-3.18,23.48,23.48,0,0,1-1.15-4.81,36.89,36.89,0,0,1-.42-5.65c0-2,0-3.87.17-5.74q.42-5.69,1.14-11c.48-3.54,1.07-6.93,1.75-10.16q-3.92.17-8,.59c-2.69.29-5.43.49-8.2.6-.34,0-.73,0-1.15,0s-.67-.18-.72-.64a.6.6,0,0,1,.68-.68,7,7,0,0,0,1.19-.08q4-.25,8.16-.68t8.24-.6c.34-1.19.72-2.59,1.15-4.2a33,33,0,0,1,1.49-4.47,6.45,6.45,0,0,1,.63-1.4,1.35,1.35,0,0,1,1.15-.81.89.89,0,0,1,.81.34,1.28,1.28,0,0,1,.17.81,7.47,7.47,0,0,1-.17,1q-.14.51-.21.93c-.29,1.25-.57,2.54-.85,3.87S672.73,562.35,672.45,563.48Z" transform="translate(-501.67 -552.85)"/><g class="cls-4"><path class="cls-3" d="M501.67,618.12a4.74,4.74,0,1,0,4.74-4.74,4.74,4.74,0,0,0-4.74,4.74" transform="translate(-501.67 -552.85)"/><path class="cls-3" d="M709.22,618.12a4.74,4.74,0,1,0,4.74-4.74,4.74,4.74,0,0,0-4.74,4.74" transform="translate(-501.67 -552.85)"/></g></g></g></svg>