<svg xmlns="http://www.w3.org/2000/svg" viewBox="0 0 444.9 102.15"><defs><style>.cls-1{fill:#53575a;}.cls-2{fill:#ff8300;}</style></defs><g id="Layer_2" data-name="Layer 2"><g id="Layer_1-2" data-name="Layer 1"><path class="cls-1" d="M52.78,100.79l-1.08-.06a9.58,9.58,0,0,1-2-.41,11.75,11.75,0,0,1-2.4-1,6.15,6.15,0,0,1-2.05-1.8L33,80.54a15.26,15.26,0,0,0-3.58-3.67,13.6,13.6,0,0,0-1.39-.8c.57,0,1.14-.11,1.68-.18a13.9,13.9,0,0,0,3.1-.73,16.11,16.11,0,0,0,5.33-2.87,12.12,12.12,0,0,0,4.1-9.59,13.65,13.65,0,0,0-1-5.38,11.44,11.44,0,0,0-3.07-4.22,17.51,17.51,0,0,0-5.33-2.86,27.18,27.18,0,0,0-7.65-1H0v1.16H2.44c2.06.12,3.49.6,4.26,1.41s1.17,2.37,1.17,4.64V94.75a10.88,10.88,0,0,1-.38,3.19,3.57,3.57,0,0,1-1.14,1.77,4.52,4.52,0,0,1-2.22.86,25.72,25.72,0,0,1-3.74.22H0V102H23.46v-1.23H21.07a10.22,10.22,0,0,1-2.63-.41,3.74,3.74,0,0,1-1.62-1,3.66,3.66,0,0,1-.88-1.71,12.19,12.19,0,0,1-.28-2.9V76.22h2a8.16,8.16,0,0,1,1.42.12,4.66,4.66,0,0,1,1.35.48,7.15,7.15,0,0,1,1.48,1.08,15.67,15.67,0,0,1,1.74,2l16,22.13H53.23v-.84l-.07-.39ZM32.57,51a16.48,16.48,0,0,1,5.07,2.72,10.55,10.55,0,0,1,2.85,3.92,12.92,12.92,0,0,1,1,5.08,11.34,11.34,0,0,1-3.83,9,15.25,15.25,0,0,1-5.08,2.73,13.28,13.28,0,0,1-2.94.69c-.53.07-1.08.13-1.64.18a9.49,9.49,0,0,0,2.34-1.17,10.6,10.6,0,0,0,1.52-1.39,11.46,11.46,0,0,0,1.45-2,15.79,15.79,0,0,0,1.27-3.63A19.75,19.75,0,0,0,35,62.7a15.62,15.62,0,0,0-2.48-9.19A8.85,8.85,0,0,0,28,50.15,22.73,22.73,0,0,1,32.57,51ZM15.15,53.45a14.4,14.4,0,0,0-.27,2.95V94.81a13.05,13.05,0,0,0,.31,3.08A4.45,4.45,0,0,0,16.26,100a4.53,4.53,0,0,0,1.95,1.17,4.38,4.38,0,0,0,.43.13H4.71a4.92,4.92,0,0,0,2.13-.94,4.37,4.37,0,0,0,1.39-2.13,11.85,11.85,0,0,0,.41-3.43V56.46c0-2.51-.45-4.2-1.38-5.17A5,5,0,0,0,4.94,50H18.33l-.47.17a4.4,4.4,0,0,0-1.74,1.21A4.56,4.56,0,0,0,15.15,53.45Zm.51,21.61V56.4a12.88,12.88,0,0,1,.25-2.78,3.46,3.46,0,0,1,2.23-2.72,8.42,8.42,0,0,1,2.27-.49h4.22A8.37,8.37,0,0,1,31.92,54a14.86,14.86,0,0,1,2.33,8.75,18.84,18.84,0,0,1-.44,4.24,15.83,15.83,0,0,1-1.19,3.43,10.91,10.91,0,0,1-1.35,1.85,10,10,0,0,1-1.4,1.28,9,9,0,0,1-5.24,1.56ZM40,101.25,24.29,79.43a15.94,15.94,0,0,0-1.84-2.1,7.65,7.65,0,0,0-1.64-1.19,4.82,4.82,0,0,0-.7-.31h4.61l1.51.37A9.51,9.51,0,0,1,29,77.52,14.59,14.59,0,0,1,32.38,81L44.6,98a6.87,6.87,0,0,0,2.31,2,12.91,12.91,0,0,0,2.54,1.07c.23.07.47.14.69.19Z"/><path class="cls-1" d="M100.76,86.09a21.84,21.84,0,0,1-2.88,7.41,19.36,19.36,0,0,1-2.1,2.71A13.88,13.88,0,0,1,93,98.51a15,15,0,0,1-3.71,1.65h0a16.3,16.3,0,0,1-4.7.63h-7.2a10.22,10.22,0,0,1-2.63-.41,3.78,3.78,0,0,1-1.62-1,3.71,3.71,0,0,1-.88-1.71,12.19,12.19,0,0,1-.28-2.9,6.56,6.56,0,0,0-.07-1.17V76.22h8.58a7.55,7.55,0,0,1,4.37,1.1,7.76,7.76,0,0,1,2.38,2.56,8.39,8.39,0,0,1,1,2.83c.12.93.19,1.55.19,1.83v.58h1.23V66.21H88.4v.59c0,.28-.07.87-.19,1.76a8.33,8.33,0,0,1-1,2.73A8.12,8.12,0,0,1,85,73.87a7.26,7.26,0,0,1-4.16,1.19H71.88V50.41H83.71A13.9,13.9,0,0,1,90,51.64a10.74,10.74,0,0,1,3.77,3.07,13.09,13.09,0,0,1,2,4.13c.45,1.54.85,3,1.18,4.45v.38h1.23V49.25h-42v1.16h2.44c2.06.12,3.49.6,4.26,1.41s1.16,2.37,1.16,4.64a3.42,3.42,0,0,0,0,.45,1.84,1.84,0,0,1,0,.33V94.75a11.23,11.23,0,0,1-.37,3.19,3.59,3.59,0,0,1-1.17,1.77,4.76,4.76,0,0,1-2.26.86,25.39,25.39,0,0,1-3.68.22h-.39V102h43.7l2-16.24h-1.21ZM85.41,74.48a9,9,0,0,0,2.51-2.82,9.68,9.68,0,0,0,.93-2.37V82a9.47,9.47,0,0,0-1-2.46,8.61,8.61,0,0,0-2.62-2.82,6.53,6.53,0,0,0-2.62-1A6.67,6.67,0,0,0,85.41,74.48ZM97.5,50V61.91c-.27-1.07-.58-2.16-.9-3.28a13.73,13.73,0,0,0-2.18-4.38,11.47,11.47,0,0,0-4-3.3A11,11,0,0,0,87.7,50ZM61,101.25a5.12,5.12,0,0,0,2.15-.94,4.24,4.24,0,0,0,1.43-2.13A11.8,11.8,0,0,0,65,94.75V57.24a2.45,2.45,0,0,0,0-.46,1.67,1.67,0,0,1,0-.32c0-2.51-.45-4.2-1.38-5.17A5,5,0,0,0,61.23,50h9.88v43.7a7.67,7.67,0,0,1,0,1.09,13.05,13.05,0,0,0,.31,3.08A4.45,4.45,0,0,0,72.55,100a4.53,4.53,0,0,0,2,1.17,4.38,4.38,0,0,0,.43.13Zm38.36,0H88.06c.49-.1,1-.21,1.42-.35a16,16,0,0,0,3.9-1.73,15.17,15.17,0,0,0,3-2.44,20.39,20.39,0,0,0,2.19-2.82,22.14,22.14,0,0,0,2.35-5.2Z"/><path class="cls-1" d="M138.42,78.35a19.36,19.36,0,0,0-5.78-4.55L125.18,70a28.71,28.71,0,0,1-8-6.18,11.21,11.21,0,0,1-2.8-5.74,6.31,6.31,0,0,1,1.28-4.67,9,9,0,0,1,4.46-3,15.27,15.27,0,0,1,2.12-.47,14.46,14.46,0,0,1,7.12.7,12.71,12.71,0,0,1,4.16,2.48,16.42,16.42,0,0,1,1.78,2,18.13,18.13,0,0,1,1.59,2.54A16.29,16.29,0,0,1,138,60.47a10.16,10.16,0,0,1,.4,2.75v.39h1.3V48.73h-1.06l-.12.19a3.73,3.73,0,0,1-1.64,1.6,4.39,4.39,0,0,1-2,.36,8.47,8.47,0,0,1-2.24-.44c-.78-.26-1.51-.52-2.19-.77a16.26,16.26,0,0,0-6-1.13,18.77,18.77,0,0,0-2.73.19,12.52,12.52,0,0,0-2.67.74,17.87,17.87,0,0,0-5.08,2.86,14.38,14.38,0,0,0-3.57,4.13,12.34,12.34,0,0,0-1.61,5,11.73,11.73,0,0,0,.77,5.41A15.83,15.83,0,0,0,113,72.17a24.68,24.68,0,0,0,6.6,4.65l8.19,4.23A12.63,12.63,0,0,1,133,85.61a9.78,9.78,0,0,1,1.47,5.32,9.42,9.42,0,0,1-1.65,5,10.41,10.41,0,0,1-4.24,3.56,17.88,17.88,0,0,1-5.39,1.08h-.58a16.09,16.09,0,0,1-5.39-1.05,15.34,15.34,0,0,1-4.57-2.76,8.85,8.85,0,0,1-1.8-2.3,18.91,18.91,0,0,1-1.4-3.1,24.75,24.75,0,0,1-.9-3.26,15.41,15.41,0,0,1-.31-2.94l-.07-.39h-1.23V102h.85l.38-.07v-.32c0-.14.17-.4.35-.78a2.33,2.33,0,0,1,1-1,5,5,0,0,1,2.33-.48,12,12,0,0,1,4.11,1,4.88,4.88,0,0,0,.69.28,15.35,15.35,0,0,0,5.79,1.13h.65a8.77,8.77,0,0,0,.9,0c.29,0,.61,0,1-.1h0a26,26,0,0,0,8.12-2.4A18,18,0,0,0,138.64,95a12.55,12.55,0,0,0,2.78-5.34,12,12,0,0,0-.07-5.77A14,14,0,0,0,138.42,78.35Zm-6.08-27.18a9.67,9.67,0,0,0,2.44.48,5.24,5.24,0,0,0,2.39-.43,4.2,4.2,0,0,0,1.73-1.5V61c-.05-.25-.11-.49-.18-.74a16.08,16.08,0,0,0-1.17-3,17.4,17.4,0,0,0-1.66-2.65A16.64,16.64,0,0,0,134,52.53a13.15,13.15,0,0,0-2-1.45ZM111.85,98.55a5.84,5.84,0,0,0-2.68.57,3.14,3.14,0,0,0-1.36,1.34l-.11.24V87.79c0,.14,0,.29.08.43a24.83,24.83,0,0,0,.92,3.37,20.84,20.84,0,0,0,1.46,3.22,9.45,9.45,0,0,0,2,2.5,15.52,15.52,0,0,0,2.18,1.61A8.49,8.49,0,0,0,111.85,98.55Zm28.82-9.09a11.77,11.77,0,0,1-2.61,5,17.23,17.23,0,0,1-5.31,4,21.1,21.1,0,0,1-2.93,1.21,10.93,10.93,0,0,0,3.61-3.34A10.08,10.08,0,0,0,135.22,91a10.47,10.47,0,0,0-1.58-5.74,13.39,13.39,0,0,0-5.48-4.86L120,76.14a23.57,23.57,0,0,1-6.39-4.51,15.15,15.15,0,0,1-3.33-5,11,11,0,0,1-.73-5.05A11.81,11.81,0,0,1,111,56.85a13.62,13.62,0,0,1,3.38-3.92,14.46,14.46,0,0,1,1.8-1.26A8.63,8.63,0,0,0,115,52.91a7,7,0,0,0-1.44,5.22,11.88,11.88,0,0,0,3,6.15,29.3,29.3,0,0,0,8.24,6.37l7.47,3.83a18.65,18.65,0,0,1,5.54,4.36,13.29,13.29,0,0,1,2.79,5.21A11.25,11.25,0,0,1,140.67,89.46Z"/><path class="cls-1" d="M188.72,56.34a22.18,22.18,0,0,0-7.4-5.69,20.59,20.59,0,0,0-9-2.11h-3.77a20.71,20.71,0,0,0-9.07,2.11,22.33,22.33,0,0,0-7.28,5.69,25.46,25.46,0,0,0-4.94,8.5,29.87,29.87,0,0,0,0,20.67A25.6,25.6,0,0,0,152.19,94a22.19,22.19,0,0,0,7.28,5.69,20.69,20.69,0,0,0,9.07,2.12h3.77a20.53,20.53,0,0,0,9-2.12A22,22,0,0,0,188.72,94a28.47,28.47,0,0,0,5-8.5,29.71,29.71,0,0,0,1.78-10.34,30.12,30.12,0,0,0-1.78-10.34A28.47,28.47,0,0,0,188.72,56.34ZM159.8,99a21.37,21.37,0,0,1-7-5.49,24.75,24.75,0,0,1-4.8-8.27,29.1,29.1,0,0,1,0-20.15,24.76,24.76,0,0,1,4.81-8.26,21.4,21.4,0,0,1,7-5.49,20.31,20.31,0,0,1,6.53-1.92c-.74.31-1.66.76-2.75,1.33a16.8,16.8,0,0,0-4,3.09,11.82,11.82,0,0,0-1.17,1.34,13.43,13.43,0,0,0-1,1.51,27.79,27.79,0,0,0-3.66,8.44,42.26,42.26,0,0,0,0,20.08,27.68,27.68,0,0,0,3.65,8.42,14.33,14.33,0,0,0,1,1.54,12.63,12.63,0,0,0,1.17,1.33,16.8,16.8,0,0,0,4,3.09c1.08.57,2,1,2.76,1.33A19.87,19.87,0,0,1,159.8,99Zm12.82,1.6a5.67,5.67,0,0,1-1.22.12h-2a6.65,6.65,0,0,1-1.29-.12l-1.17-.24a32.57,32.57,0,0,1-3.05-1.45,16.27,16.27,0,0,1-3.84-3,13.6,13.6,0,0,1-1.1-1.26,14.19,14.19,0,0,1-1-1.48,26.94,26.94,0,0,1-3.55-8.2,41.36,41.36,0,0,1,0-19.7A27,27,0,0,1,158,57.11a12.71,12.71,0,0,1,1-1.45,12.55,12.55,0,0,1,1.1-1.27,16.27,16.27,0,0,1,3.84-3,31.37,31.37,0,0,1,3-1.43,10.27,10.27,0,0,1,2.51-.31h2a7.85,7.85,0,0,1,1.24.09l1.21.2c.73.3,1.73.79,3,1.45a17.37,17.37,0,0,1,3.89,2.94c.34.38.69.81,1.06,1.28s.71,1,1.05,1.47a27.47,27.47,0,0,1,3.59,8.2,40.37,40.37,0,0,1,0,19.7,27.47,27.47,0,0,1-3.59,8.2c-.34.51-.69,1-1.05,1.48s-.72.89-1,1.25a17.42,17.42,0,0,1-3.91,3c-1.26.67-2.27,1.15-2.91,1.43C173.45,100.43,173,100.52,172.62,100.61ZM193,85.25a27.9,27.9,0,0,1-4.87,8.27A21.33,21.33,0,0,1,181,99a20.19,20.19,0,0,1-6.47,1.92c.7-.31,1.6-.75,2.69-1.33a18.14,18.14,0,0,0,4.11-3.1c.35-.4.71-.84,1.09-1.32s.73-1,1.09-1.52a28.59,28.59,0,0,0,3.69-8.44,41.27,41.27,0,0,0,0-20.08,28.21,28.21,0,0,0-3.7-8.44c-.35-.53-.71-1-1.08-1.51s-.74-.93-1.11-1.35a18.09,18.09,0,0,0-4.09-3.08c-1.07-.57-2-1-2.71-1.33A20.23,20.23,0,0,1,181,51.35a21.29,21.29,0,0,1,7.15,5.49A27.72,27.72,0,0,1,193,65.11a29.27,29.27,0,0,1,1.73,10.07A28.87,28.87,0,0,1,193,85.25Z"/><path class="cls-1" d="M232.5,50.35h1.34c.63,0,1.51.15,2.63.32a11.36,11.36,0,0,1,3.21,1,8.31,8.31,0,0,1,2.73,2.18,6.05,6.05,0,0,1,1.21,3.78V86.1a12.5,12.5,0,0,1-1.46,6,13,13,0,0,1-3.79,4.62,19.58,19.58,0,0,1-7,3.44,15.14,15.14,0,0,1-7.42.16,12.27,12.27,0,0,1-5.45-3A13.44,13.44,0,0,1,215.12,92a21.09,21.09,0,0,1-1.15-7V54.18a4.21,4.21,0,0,1,1.36-2.81,6.13,6.13,0,0,1,3.27-1h3v-.16l.55,0-.55-.55v-.54H198.18v1.29h2.45a7.3,7.3,0,0,1,4,1A4.38,4.38,0,0,1,206,54.64V85.39a15.66,15.66,0,0,0,1.51,7.06,15.91,15.91,0,0,0,4.29,5.26,19.43,19.43,0,0,0,6,3.25,22.58,22.58,0,0,0,7.2,1.13h.39a24.33,24.33,0,0,0,7.47-1.13,19.87,19.87,0,0,0,6.23-3.25,15.7,15.7,0,0,0,4.27-5.23,14.35,14.35,0,0,0,1.46-6.38V58A6.29,6.29,0,0,1,246,54a8.1,8.1,0,0,1,2.73-2.3,10.55,10.55,0,0,1,3.23-1.06c1.11-.17,2-.28,2.67-.32H256V49.12H232.5Zm-14.44,49.88a18.58,18.58,0,0,1-5.79-3.12,15,15,0,0,1-4.09-5,14.79,14.79,0,0,1-1.43-6.71V54.61a5.09,5.09,0,0,0-1.64-3.82,5.54,5.54,0,0,0-2.31-1h14.14a5.5,5.5,0,0,0-2.1.93,5,5,0,0,0-1.64,3.36V84.93a21.84,21.84,0,0,0,1.19,7.28A14.35,14.35,0,0,0,218,97.88a13.06,13.06,0,0,0,5.79,3.19,11.93,11.93,0,0,0,1.19.24A21.75,21.75,0,0,1,218.06,100.23ZM251.9,49.89h-.09a11.46,11.46,0,0,0-3.46,1.15,8.65,8.65,0,0,0-3,2.51,6.06,6.06,0,0,0-1.12,2.58A6.1,6.1,0,0,0,243,53.35,8.9,8.9,0,0,0,240,51a12,12,0,0,0-3.42-1.08H251.9Z"/><path class="cls-1" d="M313.81,100.79l-1.07-.06a9.58,9.58,0,0,1-2-.41,11.52,11.52,0,0,1-2.4-1,6.15,6.15,0,0,1-2.05-1.8L294,80.54a15.26,15.26,0,0,0-3.58-3.67,13.6,13.6,0,0,0-1.39-.8c.57,0,1.14-.11,1.68-.18a13.9,13.9,0,0,0,3.1-.73,16.21,16.21,0,0,0,5.33-2.87,12.12,12.12,0,0,0,4.1-9.59,13.65,13.65,0,0,0-1-5.38,11.44,11.44,0,0,0-3.07-4.22,17.51,17.51,0,0,0-5.33-2.86,27.18,27.18,0,0,0-7.65-1H261v1.16h2.44c2.06.12,3.49.6,4.26,1.41s1.16,2.37,1.16,4.64V94.75a10.93,10.93,0,0,1-.37,3.19,3.64,3.64,0,0,1-1.14,1.77,4.56,4.56,0,0,1-2.22.86,25.77,25.77,0,0,1-3.75.22H261V102h23.45v-1.23h-2.38a10.22,10.22,0,0,1-2.63-.41,3.43,3.43,0,0,1-2.5-2.68,12.12,12.12,0,0,1-.29-2.9V76.22h2a8.28,8.28,0,0,1,1.43.12,4.77,4.77,0,0,1,1.35.48A7.15,7.15,0,0,1,283,77.9a15.67,15.67,0,0,1,1.74,2l16,22.13h13.58v-.84l-.06-.39ZM293.61,51a16.48,16.48,0,0,1,5.07,2.72,10.66,10.66,0,0,1,2.85,3.92,12.92,12.92,0,0,1,1,5.08,11.34,11.34,0,0,1-3.83,9,15.35,15.35,0,0,1-5.08,2.73,13.28,13.28,0,0,1-2.94.69c-.54.07-1.08.13-1.64.18a9.49,9.49,0,0,0,2.34-1.17,10.6,10.6,0,0,0,1.52-1.39,11.46,11.46,0,0,0,1.45-2,16.28,16.28,0,0,0,1.27-3.63,19.77,19.77,0,0,0,.46-4.41,15.62,15.62,0,0,0-2.47-9.19,8.85,8.85,0,0,0-4.53-3.36A22.87,22.87,0,0,1,293.61,51Zm-17.42,2.47a13.73,13.73,0,0,0-.27,2.95V94.81a13.05,13.05,0,0,0,.31,3.08A4.45,4.45,0,0,0,277.3,100a4.56,4.56,0,0,0,1.94,1.17l.44.13H265.75a4.88,4.88,0,0,0,2.12-.94,4.39,4.39,0,0,0,1.4-2.13,11.89,11.89,0,0,0,.4-3.43V56.46c0-2.51-.44-4.2-1.37-5.17A5,5,0,0,0,266,50h13.39a4.24,4.24,0,0,0-.47.17,4.43,4.43,0,0,0-1.75,1.21A4.66,4.66,0,0,0,276.19,53.45Zm.5,21.61V56.4a13.54,13.54,0,0,1,.25-2.78,3.93,3.93,0,0,1,.8-1.72,3.8,3.8,0,0,1,1.44-1,8.34,8.34,0,0,1,2.26-.49h4.23A8.38,8.38,0,0,1,293,54a14.86,14.86,0,0,1,2.33,8.75,19.44,19.44,0,0,1-.44,4.24,15.83,15.83,0,0,1-1.19,3.43,10.91,10.91,0,0,1-1.35,1.85,10,10,0,0,1-1.4,1.28,9,9,0,0,1-5.24,1.56Zm24.39,26.19L285.33,79.43a15.94,15.94,0,0,0-1.84-2.1,7.91,7.91,0,0,0-1.64-1.19,5.35,5.35,0,0,0-.7-.31h4.61l1.5.37A9.44,9.44,0,0,1,290,77.52,14.59,14.59,0,0,1,293.42,81l12.22,17a6.84,6.84,0,0,0,2.3,2,13.24,13.24,0,0,0,2.55,1.07c.23.07.46.14.69.19Z"/><path class="cls-1" d="M353.8,50.21a2.94,2.94,0,0,1-1.33,2,5,5,0,0,1-2.71.59,13.1,13.1,0,0,1-5.14-1.58c-.31-.18-.62-.33-.91-.47l-.83-.38-.1-.12h-.16l-.18-.12h-.08a16.69,16.69,0,0,0-6.45-1.23,21.41,21.41,0,0,0-13,4.56,27.9,27.9,0,0,0-3.39,3.23,27,27,0,0,0-5,8.45,29.58,29.58,0,0,0-1.84,10v.7h0a29.58,29.58,0,0,0,1.84,10,27,27,0,0,0,5,8.44,23.19,23.19,0,0,0,7.34,5.68,20,20,0,0,0,9.07,2.12,16.18,16.18,0,0,0,6.46-1.26,18.66,18.66,0,0,0,5.71-3.73,21.88,21.88,0,0,0,4.3-6.28A30.32,30.32,0,0,0,355,82.06l.05-.38-1.21-.17-.06.37a43.61,43.61,0,0,1-1,4.51,23.82,23.82,0,0,1-1.47,4,28.72,28.72,0,0,1-1.83,3.24,13.7,13.7,0,0,1-2.26,2.64A15.64,15.64,0,0,1,342,99.78a14,14,0,0,1-2.51.76c-.83.17-1.7.3-2.55.39a13.89,13.89,0,0,1-1.55-.1,6.06,6.06,0,0,1-1.44-.34,17.53,17.53,0,0,1-2.55-1.18,17,17,0,0,1-3.1-2.24,24.79,24.79,0,0,1-5.59-9,34.88,34.88,0,0,1-2.16-12.47,36.78,36.78,0,0,1,1.32-9.94,29.83,29.83,0,0,1,3.56-8.11,18.32,18.32,0,0,1,5.22-5.42,11.29,11.29,0,0,1,6.26-2,15.92,15.92,0,0,1,10.42,4.7,20.29,20.29,0,0,1,2.26,2.71,23.19,23.19,0,0,1,1.88,3.22,31,31,0,0,1,1.45,4,33,33,0,0,1,.93,4.49l0,.34H355V49.9h-1.15Zm-23.62,1.25a18.84,18.84,0,0,0-5.44,5.64,30.16,30.16,0,0,0-3.66,8.32,37.49,37.49,0,0,0-1.35,10.15,35.56,35.56,0,0,0,2.21,12.75,25.55,25.55,0,0,0,5.79,9.31A17.33,17.33,0,0,0,331,100a19.06,19.06,0,0,0,2.66,1.23l.14,0a19.25,19.25,0,0,1-6.6-1.93,22.36,22.36,0,0,1-7.1-5.5,26.23,26.23,0,0,1-4.87-8.2,30.13,30.13,0,0,1-1.34-4.94,28.65,28.65,0,0,1-.45-4.76l.26,0v-.77h-.26a28.53,28.53,0,0,1,.45-4.75,30,30,0,0,1,1.34-4.93,25.8,25.8,0,0,1,8.17-11.34,18.85,18.85,0,0,1,3.8-2.36,19,19,0,0,1,6.55-1.93A12.82,12.82,0,0,0,330.18,51.46Zm24.07,15.78c-.18-.93-.4-1.84-.64-2.7a32.3,32.3,0,0,0-1.49-4.09,24.22,24.22,0,0,0-1.95-3.33,21,21,0,0,0-2.35-2.82,16.93,16.93,0,0,0-1.88-1.62,10.84,10.84,0,0,0,3.82.92,5.6,5.6,0,0,0,3.12-.71,3.42,3.42,0,0,0,1.37-1.56Z"/><path class="cls-1" d="M403.92,86.09A22,22,0,0,1,401,93.5a19.36,19.36,0,0,1-2.1,2.71,13.88,13.88,0,0,1-2.81,2.3,15.17,15.17,0,0,1-3.71,1.65h0a16.3,16.3,0,0,1-4.7.63h-7.2a10.22,10.22,0,0,1-2.63-.41,3.88,3.88,0,0,1-1.63-1,3.8,3.8,0,0,1-.88-1.71,12.73,12.73,0,0,1-.28-2.9,6.93,6.93,0,0,0-.06-1.17V76.22h8.58a7.49,7.49,0,0,1,4.36,1.1,7.8,7.8,0,0,1,2.39,2.56,8.39,8.39,0,0,1,1,2.83c.12.93.19,1.55.19,1.83v.58h1.22V66.21h-1.22v.59c0,.28-.07.87-.19,1.76a8.33,8.33,0,0,1-1,2.73,8,8,0,0,1-2.3,2.58A7.2,7.2,0,0,1,384,75.06H375V50.41h11.83a13.9,13.9,0,0,1,6.33,1.23A10.61,10.61,0,0,1,397,54.71,12.91,12.91,0,0,1,399,58.84c.44,1.54.85,3,1.18,4.45v.38h1.23V49.25h-42v1.16h2.44c2.06.12,3.49.6,4.26,1.41s1.16,2.37,1.16,4.64a2.28,2.28,0,0,0,0,.45,1.84,1.84,0,0,1,0,.33V94.75a11.23,11.23,0,0,1-.37,3.19,3.54,3.54,0,0,1-1.18,1.77,4.68,4.68,0,0,1-2.25.86,25.39,25.39,0,0,1-3.68.22h-.39V102h43.7l2-16.24H404ZM388.57,74.48a9,9,0,0,0,2.51-2.82,9.68,9.68,0,0,0,.93-2.37V82a9.17,9.17,0,0,0-1-2.46,8.47,8.47,0,0,0-2.61-2.82,6.59,6.59,0,0,0-2.62-1A6.67,6.67,0,0,0,388.57,74.48ZM400.66,50V61.91c-.28-1.07-.58-2.16-.9-3.28a13.73,13.73,0,0,0-2.18-4.38,11.47,11.47,0,0,0-4-3.3,11,11,0,0,0-2.7-.93Zm-36.5,51.23a5.12,5.12,0,0,0,2.15-.94,4.24,4.24,0,0,0,1.43-2.13,11.8,11.8,0,0,0,.41-3.43V57.24a2.45,2.45,0,0,0,0-.46,1.66,1.66,0,0,1,0-.32c0-2.51-.45-4.2-1.37-5.17A5,5,0,0,0,364.39,50h9.88v43.7a7.67,7.67,0,0,1,.05,1.09,12.54,12.54,0,0,0,.31,3.08,4.23,4.23,0,0,0,3,3.23l.44.13Zm38.36,0h-11.3c.49-.1,1-.21,1.42-.35a16,16,0,0,0,3.9-1.73,15.17,15.17,0,0,0,3-2.44,19.56,19.56,0,0,0,2.18-2.82,21.77,21.77,0,0,0,2.36-5.2Z"/><path class="cls-1" d="M444.51,83.86a14,14,0,0,0-2.94-5.51,19.19,19.19,0,0,0-5.77-4.55L428.34,70a28.71,28.71,0,0,1-8-6.18,11.24,11.24,0,0,1-2.81-5.74,6.32,6.32,0,0,1,1.29-4.67,9,9,0,0,1,4.46-3,15.46,15.46,0,0,1,2.11-.47,14.49,14.49,0,0,1,7.13.7,12.71,12.71,0,0,1,4.16,2.48A17.18,17.18,0,0,1,440,57.64a14.84,14.84,0,0,1,1.11,2.83,9.81,9.81,0,0,1,.41,2.75v.39h1.29V48.73h-1.06l-.11.19a3.79,3.79,0,0,1-1.64,1.6,4.41,4.41,0,0,1-2,.36,8.55,8.55,0,0,1-2.24-.44c-.77-.26-1.5-.52-2.19-.77a16.22,16.22,0,0,0-6-1.13,18.73,18.73,0,0,0-2.72.19,12.76,12.76,0,0,0-2.68.74,18.15,18.15,0,0,0-5.08,2.86,14.69,14.69,0,0,0-3.57,4.13,12.65,12.65,0,0,0-1.61,5,11.87,11.87,0,0,0,.77,5.41,16,16,0,0,0,3.5,5.27,24.36,24.36,0,0,0,6.6,4.65L431,81.05a12.69,12.69,0,0,1,5.18,4.56,9.87,9.87,0,0,1,1.47,5.32,9.34,9.34,0,0,1-1.66,5,10.38,10.38,0,0,1-4.23,3.56,17.88,17.88,0,0,1-5.39,1.08h-.58a16,16,0,0,1-5.39-1.05,15.21,15.21,0,0,1-4.57-2.76,8.85,8.85,0,0,1-1.8-2.3,18.91,18.91,0,0,1-1.4-3.1,22,22,0,0,1-.9-3.26,15.48,15.48,0,0,1-.32-2.94l-.06-.39h-1.23V102h.84l.39-.07v-.32c.05-.14.17-.4.35-.78a2.33,2.33,0,0,1,1-1,5,5,0,0,1,2.33-.48,11.93,11.93,0,0,1,4.1,1,5.64,5.64,0,0,0,.7.28,15.3,15.3,0,0,0,5.78,1.13h.65a8.84,8.84,0,0,0,.91,0c.29,0,.61,0,1-.1h0a26,26,0,0,0,8.12-2.4A18,18,0,0,0,441.8,95a12.55,12.55,0,0,0,2.78-5.34A12.11,12.11,0,0,0,444.51,83.86Zm-9-32.69a9.59,9.59,0,0,0,2.44.48,5.27,5.27,0,0,0,2.39-.43,4.2,4.2,0,0,0,1.73-1.5V61c-.05-.25-.11-.49-.18-.74a16.08,16.08,0,0,0-1.17-3,17.4,17.4,0,0,0-1.66-2.65,16.64,16.64,0,0,0-1.87-2.11,13.69,13.69,0,0,0-1.95-1.45ZM415,98.55a5.81,5.81,0,0,0-2.68.57,3.17,3.17,0,0,0-1.37,1.34c0,.09-.07.17-.11.24V87.79c0,.14.06.29.08.43a23.51,23.51,0,0,0,.93,3.37,19.94,19.94,0,0,0,1.46,3.22,9.63,9.63,0,0,0,2,2.5,16.22,16.22,0,0,0,2.19,1.61A8.59,8.59,0,0,0,415,98.55Zm28.82-9.09a11.68,11.68,0,0,1-2.62,5,17,17,0,0,1-5.31,4A20.46,20.46,0,0,1,433,99.67a11,11,0,0,0,3.61-3.34A10.16,10.16,0,0,0,438.38,91a10.47,10.47,0,0,0-1.58-5.74,13.43,13.43,0,0,0-5.49-4.86l-8.19-4.22a23.57,23.57,0,0,1-6.39-4.51,15,15,0,0,1-3.33-5,10.86,10.86,0,0,1-.73-5.05,12,12,0,0,1,1.51-4.72,13.82,13.82,0,0,1,3.39-3.92,15.13,15.13,0,0,1,1.79-1.26,9.14,9.14,0,0,0-1.17,1.24,7,7,0,0,0-1.44,5.22,11.94,11.94,0,0,0,3,6.15A29.52,29.52,0,0,0,428,70.65l7.47,3.83A18.65,18.65,0,0,1,441,78.84a13.26,13.26,0,0,1,2.78,5.21A11.38,11.38,0,0,1,443.83,89.46Z"/><path class="cls-1" d="M.39,101.64v-.46H.45A24.83,24.83,0,0,0,4.19,101a4.79,4.79,0,0,0,2.4-.94,4,4,0,0,0,1.27-2,11.34,11.34,0,0,0,.39-3.31V56.46q0-3.57-1.27-4.91c-.84-.88-2.35-1.39-4.51-1.52H.39v-.39H25.15a26.73,26.73,0,0,1,7.54,1,16.6,16.6,0,0,1,5.2,2.8,10.93,10.93,0,0,1,3,4.06,13.25,13.25,0,0,1,1,5.23,11.71,11.71,0,0,1-4,9.3,15.6,15.6,0,0,1-5.2,2.79,13.46,13.46,0,0,1-3,.72c-1.06.13-2.18.23-3.35.32a9.67,9.67,0,0,1,2.89,1.37,14.79,14.79,0,0,1,3.48,3.57l12.22,17a6.5,6.5,0,0,0,2.18,1.91,12.21,12.21,0,0,0,2.47,1,10.39,10.39,0,0,0,2.11.43l1.11.06h.06v.46h-13L24,79.67a15.27,15.27,0,0,0-1.79-2,7.31,7.31,0,0,0-1.56-1.14A5.24,5.24,0,0,0,19.17,76a8,8,0,0,0-1.49-.13H15.27v19a13,13,0,0,0,.29,3,4.15,4.15,0,0,0,1,1.89,4.24,4.24,0,0,0,1.79,1.07,10,10,0,0,0,2.73.42h2v.46H.39Zm14.88-26.2h9.36a9.35,9.35,0,0,0,5.46-1.62,9.78,9.78,0,0,0,1.46-1.34A11.09,11.09,0,0,0,33,70.57,16.07,16.07,0,0,0,34.19,67a19.49,19.49,0,0,0,.45-4.32,15.17,15.17,0,0,0-2.4-9A8.82,8.82,0,0,0,24.63,50H20.41a8.39,8.39,0,0,0-2.41.52,4,4,0,0,0-1.59,1.1,4.26,4.26,0,0,0-.88,1.89,13.61,13.61,0,0,0-.26,2.86v19Z"/><path class="cls-1" d="M89.37,100.53a15.56,15.56,0,0,0,3.8-1.69,14.14,14.14,0,0,0,2.9-2.37,20.09,20.09,0,0,0,2.14-2.76,22.17,22.17,0,0,0,2.92-7.54h.46l-1.88,15.47h-43v-.46a24.83,24.83,0,0,0,3.74-.23,5.06,5.06,0,0,0,2.44-.94,3.89,3.89,0,0,0,1.29-2,11.34,11.34,0,0,0,.39-3.31V57.24a2.56,2.56,0,0,0,0-.39,2.56,2.56,0,0,1,0-.39q0-3.57-1.27-4.91T58.75,50H56.67v-.39H97.88V63.29h-.45v-.07c-.35-1.43-.75-2.92-1.2-4.48a13.48,13.48,0,0,0-2.11-4.26,11.16,11.16,0,0,0-3.91-3.19A14.32,14.32,0,0,0,83.71,50H71.5V75.44h9.29a7.36,7.36,0,0,0,4.39-1.27,8.5,8.5,0,0,0,2.4-2.69,8.64,8.64,0,0,0,1-2.86,16.71,16.71,0,0,0,.2-1.82v-.2h.45V84.74h-.45v-.2a18.35,18.35,0,0,0-.2-1.88,8.56,8.56,0,0,0-1-3,8.16,8.16,0,0,0-2.5-2.7,7.85,7.85,0,0,0-4.59-1.17h-9V93.64a7.62,7.62,0,0,1,.06,1.17,13,13,0,0,0,.29,3,4.15,4.15,0,0,0,1,1.89,4.24,4.24,0,0,0,1.79,1.07,10,10,0,0,0,2.72.42h7.22A16.66,16.66,0,0,0,89.37,100.53Z"/><path class="cls-1" d="M107.31,85.13h.52a15.61,15.61,0,0,0,.33,3,22.66,22.66,0,0,0,.91,3.31,19.19,19.19,0,0,0,1.43,3.16,9.24,9.24,0,0,0,1.88,2.4,15.75,15.75,0,0,0,4.68,2.83,16.13,16.13,0,0,0,5.52,1.07h.59a18.06,18.06,0,0,0,5.53-1.1,10.72,10.72,0,0,0,4.42-3.71,9.73,9.73,0,0,0,1.72-5.17,10.15,10.15,0,0,0-1.53-5.52A12.91,12.91,0,0,0,128,80.71l-8.19-4.23a24,24,0,0,1-6.5-4.58,15.49,15.49,0,0,1-3.41-5.14,11.38,11.38,0,0,1-.75-5.23,12,12,0,0,1,1.56-4.87,14.27,14.27,0,0,1,3.48-4,17.62,17.62,0,0,1,5-2.8,11.45,11.45,0,0,1,2.6-.71,18,18,0,0,1,2.67-.2A15.67,15.67,0,0,1,130.25,50c.7.26,1.44.52,2.21.78a9,9,0,0,0,2.35.45,4.9,4.9,0,0,0,2.21-.39,4.08,4.08,0,0,0,1.81-1.75h.46v14.1h-.52a10.59,10.59,0,0,0-.42-2.86,15.23,15.23,0,0,0-1.14-2.89,17.55,17.55,0,0,0-1.63-2.6,15.69,15.69,0,0,0-1.81-2,13.19,13.19,0,0,0-4.29-2.57,14.84,14.84,0,0,0-5.07-.87,15.68,15.68,0,0,0-2.25.16A13.46,13.46,0,0,0,120,50a9.3,9.3,0,0,0-4.65,3.12A6.65,6.65,0,0,0,114,58.09a11.52,11.52,0,0,0,2.9,5.94A28.74,28.74,0,0,0,125,70.31l7.47,3.83a18.87,18.87,0,0,1,5.66,4.45A13.72,13.72,0,0,1,141,84a11.49,11.49,0,0,1,.06,5.59,12,12,0,0,1-2.69,5.16,17.63,17.63,0,0,1-5.43,4.1,25.28,25.28,0,0,1-8.13,2.37h.14l-1,.1q-.42,0-.87,0h-.65a15,15,0,0,1-5.66-1.1v0a6.71,6.71,0,0,1-.65-.26,11.84,11.84,0,0,0-4.29-1,5.36,5.36,0,0,0-2.5.52,2.62,2.62,0,0,0-1.2,1.17,8.14,8.14,0,0,0-.39.88v.06h-.46Z"/><path class="cls-1" d="M145.79,75.18A28,28,0,0,1,147.61,65a25.13,25.13,0,0,1,4.87-8.39A21.89,21.89,0,0,1,159.63,51a20.14,20.14,0,0,1,8.91-2.08h3.77A20,20,0,0,1,181.15,51a21.58,21.58,0,0,1,7.28,5.59A28.15,28.15,0,0,1,193.37,65a30.63,30.63,0,0,1,0,20.41,28.22,28.22,0,0,1-4.94,8.38,21.58,21.58,0,0,1-7.28,5.59,20,20,0,0,1-8.84,2.08h-3.77a20.14,20.14,0,0,1-8.91-2.08,21.89,21.89,0,0,1-7.15-5.59,25.08,25.08,0,0,1-4.87-8.38A28,28,0,0,1,145.79,75.18Zm7.08,0a39.49,39.49,0,0,0,1.21,9.95,27.34,27.34,0,0,0,3.6,8.32,15,15,0,0,0,1,1.49,13.41,13.41,0,0,0,1.14,1.3,16.57,16.57,0,0,0,3.93,3,32.15,32.15,0,0,0,3.09,1.47l1.23.26a7.58,7.58,0,0,0,1.37.13h2a6.43,6.43,0,0,0,1.3-.13c.39-.09.82-.18,1.3-.26.74-.31,1.74-.79,3-1.47a17.87,17.87,0,0,0,4-3c.35-.39.7-.82,1.07-1.3s.73-1,1.07-1.49a27.65,27.65,0,0,0,3.64-8.32,40.5,40.5,0,0,0,0-19.89,27.54,27.54,0,0,0-3.64-8.32c-.34-.52-.7-1-1.07-1.5s-.72-.91-1.07-1.3a17.87,17.87,0,0,0-4-3c-1.28-.67-2.28-1.16-3-1.46l-1.3-.23a7.39,7.39,0,0,0-1.3-.1h-2a10.47,10.47,0,0,0-2.6.33,31.64,31.64,0,0,0-3.09,1.46,16.57,16.57,0,0,0-3.93,3,13.41,13.41,0,0,0-1.14,1.3,15.13,15.13,0,0,0-1,1.5,27.23,27.23,0,0,0-3.6,8.32A39.41,39.41,0,0,0,152.87,75.18Z"/><path class="cls-1" d="M232.89,49.51h22.68V50h-1q-1,.06-2.73.33a11.06,11.06,0,0,0-3.35,1.1,8.42,8.42,0,0,0-2.86,2.41,6.63,6.63,0,0,0-1.2,4.16V86.1A13.88,13.88,0,0,1,243,92.31a15.14,15.14,0,0,1-4.16,5.1,19.53,19.53,0,0,1-6.11,3.19,24.16,24.16,0,0,1-7.35,1.1H225a22.43,22.43,0,0,1-7.08-1.1A19.1,19.1,0,0,1,212,97.41a15.5,15.5,0,0,1-4.19-5.13,15.31,15.31,0,0,1-1.46-6.89V54.64a4.7,4.7,0,0,0-1.5-3.54A7.53,7.53,0,0,0,200.65,50h-2.08v-.52h22.68v.33l.07.06h-.07V50h-2.66a6.56,6.56,0,0,0-3.51,1.11,4.55,4.55,0,0,0-1.5,3V84.93a21.32,21.32,0,0,0,1.17,7.15,14,14,0,0,0,3.48,5.53,12.62,12.62,0,0,0,5.62,3.08,15.43,15.43,0,0,0,7.61-.16A19.59,19.59,0,0,0,238.61,97a13.54,13.54,0,0,0,3.9-4.74A13,13,0,0,0,244,86.1V57.63a6.35,6.35,0,0,0-1.3-4,8.27,8.27,0,0,0-2.86-2.27,11.56,11.56,0,0,0-3.31-1q-1.69-.27-2.67-.33h-1Z"/><path class="cls-1" d="M261.42,101.64v-.46h.07a24.83,24.83,0,0,0,3.74-.23,4.83,4.83,0,0,0,2.4-.94,4,4,0,0,0,1.27-2,11.34,11.34,0,0,0,.39-3.31V56.46q0-3.57-1.27-4.91T263.5,50h-2.08v-.39h24.77a26.78,26.78,0,0,1,7.54,1,16.6,16.6,0,0,1,5.2,2.8,11,11,0,0,1,3,4.06,13.25,13.25,0,0,1,1,5.23,11.71,11.71,0,0,1-4,9.3,15.6,15.6,0,0,1-5.2,2.79,13.46,13.46,0,0,1-3,.72c-1.07.13-2.18.23-3.35.32a9.78,9.78,0,0,1,2.89,1.37,14.79,14.79,0,0,1,3.48,3.57l12.22,17a6.4,6.4,0,0,0,2.18,1.91,12,12,0,0,0,2.47,1,10.39,10.39,0,0,0,2.11.43l1.1.06h.07v.46h-13L285,79.67a15.27,15.27,0,0,0-1.79-2,7.31,7.31,0,0,0-1.56-1.14,5.35,5.35,0,0,0-1.46-.52,8.13,8.13,0,0,0-1.5-.13h-2.4v19a13,13,0,0,0,.29,3,4.15,4.15,0,0,0,1,1.89,4.27,4.27,0,0,0,1.78,1.07,10.18,10.18,0,0,0,2.73.42h2v.46H261.42Zm14.89-26.2h9.36a9.35,9.35,0,0,0,5.46-1.62,10.29,10.29,0,0,0,1.46-1.34,11.65,11.65,0,0,0,1.4-1.91A15.57,15.57,0,0,0,295.22,67a18.89,18.89,0,0,0,.46-4.32q0-5.6-2.41-9a8.79,8.79,0,0,0-7.6-3.7h-4.23a8.39,8.39,0,0,0-2.4.52,4,4,0,0,0-1.59,1.1,4.15,4.15,0,0,0-.88,1.89,13,13,0,0,0-.26,2.86v19Z"/><path class="cls-1" d="M313.29,75.57v-.06H313a28.74,28.74,0,0,1,.46-5.2,30,30,0,0,1,1.36-5A26.57,26.57,0,0,1,319.79,57a27.11,27.11,0,0,1,3.35-3.18A18.85,18.85,0,0,1,327,51.39a19.58,19.58,0,0,1,8.9-2.08,16.08,16.08,0,0,1,6.37,1.24h.07a.38.38,0,0,0,.26.13l.06.06.88.39c.28.13.57.28.88.46a13.44,13.44,0,0,0,5.33,1.62,5.33,5.33,0,0,0,2.92-.65,3.32,3.32,0,0,0,1.5-2.27h.45V69.2h-.45a32.66,32.66,0,0,0-.94-4.55,30.82,30.82,0,0,0-1.47-4,23.45,23.45,0,0,0-1.91-3.28,21.09,21.09,0,0,0-2.31-2.76,16.64,16.64,0,0,0-5.46-3.64,16.94,16.94,0,0,0-5.2-1.17,11.6,11.6,0,0,0-6.5,2,18.58,18.58,0,0,0-5.33,5.53,30,30,0,0,0-3.61,8.22,36.68,36.68,0,0,0-1.33,10,35,35,0,0,0,2.18,12.61A25.21,25.21,0,0,0,328,97.35a18,18,0,0,0,5.79,3.51,6.7,6.7,0,0,0,1.53.35,12.34,12.34,0,0,0,1.59.1,26.37,26.37,0,0,0,2.63-.39,14.47,14.47,0,0,0,2.57-.78,15.92,15.92,0,0,0,5.39-3.64,13.72,13.72,0,0,0,2.31-2.7,27.13,27.13,0,0,0,1.85-3.28,23.26,23.26,0,0,0,1.5-4,44.38,44.38,0,0,0,1-4.55l.46.07A29.75,29.75,0,0,1,352,90.72a21.25,21.25,0,0,1-4.22,6.17,18.4,18.4,0,0,1-5.59,3.64,15.82,15.82,0,0,1-6.31,1.24,19.71,19.71,0,0,1-8.9-2.08,22.85,22.85,0,0,1-7.22-5.59,26.69,26.69,0,0,1-4.94-8.32,30,30,0,0,1-1.36-5,28.74,28.74,0,0,1-.46-5.2Z"/><path class="cls-1" d="M392.53,100.53a15.56,15.56,0,0,0,3.8-1.69,13.81,13.81,0,0,0,2.89-2.37,19.42,19.42,0,0,0,2.15-2.76,22.38,22.38,0,0,0,2.92-7.54h.46l-1.89,15.47h-43v-.46a24.83,24.83,0,0,0,3.74-.23,5,5,0,0,0,2.43-.94,3.9,3.9,0,0,0,1.3-2,11.34,11.34,0,0,0,.39-3.31V57.24a2.56,2.56,0,0,0,0-.39,2.56,2.56,0,0,1,0-.39q0-3.57-1.27-4.91T361.91,50h-2.08v-.39H401V63.29h-.45v-.07c-.35-1.43-.75-2.92-1.2-4.48a13.29,13.29,0,0,0-2.12-4.26,11,11,0,0,0-3.9-3.19,14.32,14.32,0,0,0-6.5-1.26H374.65V75.44H384a7.38,7.38,0,0,0,4.39-1.27,8.5,8.5,0,0,0,2.4-2.69,8.64,8.64,0,0,0,1-2.86,15.84,15.84,0,0,0,.19-1.82v-.2h.46V84.74h-.46v-.2a17.34,17.34,0,0,0-.19-1.88,8.56,8.56,0,0,0-1-3,8.27,8.27,0,0,0-2.5-2.7,7.87,7.87,0,0,0-4.59-1.17h-9V93.64a6.23,6.23,0,0,1,.07,1.17,13,13,0,0,0,.29,3,4.15,4.15,0,0,0,1,1.89,4.27,4.27,0,0,0,1.78,1.07,10.18,10.18,0,0,0,2.73.42h7.22A16.71,16.71,0,0,0,392.53,100.53Z"/><path class="cls-1" d="M410.47,85.13H411a15.54,15.54,0,0,0,.32,3,24,24,0,0,0,.91,3.31,20.06,20.06,0,0,0,1.43,3.16,9.05,9.05,0,0,0,1.89,2.4,15.5,15.5,0,0,0,4.68,2.83,16.08,16.08,0,0,0,5.52,1.07h.59a17.94,17.94,0,0,0,5.52-1.1,10.66,10.66,0,0,0,4.42-3.71A9.66,9.66,0,0,0,438,90.94a10.15,10.15,0,0,0-1.53-5.52,13,13,0,0,0-5.33-4.71L423,76.48a24,24,0,0,1-6.5-4.58A15.34,15.34,0,0,1,413,66.76a11.12,11.12,0,0,1-.75-5.23,12,12,0,0,1,1.56-4.87,14,14,0,0,1,3.48-4,17.49,17.49,0,0,1,5-2.8,11.31,11.31,0,0,1,2.6-.71,17.81,17.81,0,0,1,2.66-.2A15.68,15.68,0,0,1,433.41,50c.7.26,1.43.52,2.21.78a8.8,8.8,0,0,0,2.34.45,4.86,4.86,0,0,0,2.21-.39A4.1,4.1,0,0,0,442,49.12h.46v14.1h-.52a10.24,10.24,0,0,0-.43-2.86,15.89,15.89,0,0,0-1.13-2.89,17.55,17.55,0,0,0-1.63-2.6,15.71,15.71,0,0,0-1.82-2,13,13,0,0,0-4.29-2.57,14.76,14.76,0,0,0-5.07-.87,15.64,15.64,0,0,0-2.24.16,13.59,13.59,0,0,0-2.18.49,9.31,9.31,0,0,0-4.64,3.12,6.61,6.61,0,0,0-1.37,4.94A11.57,11.57,0,0,0,420,64a28.66,28.66,0,0,0,8.13,6.28l7.47,3.83a19,19,0,0,1,5.66,4.45A13.72,13.72,0,0,1,444.14,84a11.74,11.74,0,0,1,.06,5.59,11.92,11.92,0,0,1-2.7,5.16,17.47,17.47,0,0,1-5.42,4.1,25.36,25.36,0,0,1-8.13,2.37h.13l-.94.1c-.28,0-.57,0-.88,0h-.65a15,15,0,0,1-5.65-1.1v0a6.71,6.71,0,0,1-.65-.26,11.84,11.84,0,0,0-4.29-1,5.4,5.4,0,0,0-2.51.52,2.72,2.72,0,0,0-1.2,1.17,8.14,8.14,0,0,0-.39.88v.06h-.45Z"/><path class="cls-2" d="M22.45,42.39q2.34-5.58,5-10.71a28.52,28.52,0,0,1,7-8.73l.85-.36c.27-.12.59-.24,1-.36A3,3,0,0,1,39,23a4.87,4.87,0,0,1,1.17,2.48,8.32,8.32,0,0,1,0,3.1,12.27,12.27,0,0,1-.85,2.79,25.86,25.86,0,0,0,3.42-2.25q1.62-1.26,3.42-2.43c.84-.6,1.69-1.2,2.56-1.8s1.76-1.2,2.66-1.8a7.51,7.51,0,0,0,1-.49.87.87,0,0,1,1.08.13.83.83,0,0,1-.27,1.17q-.63.45-1.08.81Q48.28,27.36,44.77,30t-7.2,5.26a29.52,29.52,0,0,1-2.16,3.38,27.17,27.17,0,0,1-2.61,3c-.36.3-.8.71-1.31,1.22s-1,1-1.57,1.44a13,13,0,0,1-1.76,1.21,4.64,4.64,0,0,1-1.84.63q-2,.27-2.16-1.35a2.14,2.14,0,0,1,.49-1.89A16.74,16.74,0,0,1,26,41.67c.48-.48.91-.9,1.3-1.26s.8-.72,1.22-1.08a29.63,29.63,0,0,0,2.88-2.11,29.71,29.71,0,0,1,2.88-2.12c.42-.66.85-1.42,1.3-2.29s.86-1.76,1.22-2.66c.12-.42.25-.9.4-1.44a10.31,10.31,0,0,0,.32-1.62,5.17,5.17,0,0,0,0-1.53,2.36,2.36,0,0,0-.67-1.26,4.88,4.88,0,0,0-3.15,1.49,33.54,33.54,0,0,0-2.25,2.56,39.67,39.67,0,0,0-4.5,7.25,77.67,77.67,0,0,0-3.42,8.32c-.24.6-.47,1.19-.68,1.76a11.64,11.64,0,0,0-.49,1.75A18.89,18.89,0,0,0,22,50.72c0,1.17,0,2.32-.09,3.46L21.55,61q-.18,3.42-.45,6.93C21,68.49,21,69,21,69.62a12.11,12.11,0,0,1-.18,1.57,3.44,3.44,0,0,1-.54,1.31,2.35,2.35,0,0,1-1.12.85h-.27a1.51,1.51,0,0,1-1.4-1.48,25.13,25.13,0,0,1-.13-2.57,41.9,41.9,0,0,1,.13-5.18c.15-1.65.35-3.31.59-5q.18-1.17.45-2.34t.45-2.34a39,39,0,0,0,.27-4.64c0-1.58.06-3.1.18-4.54q.36-5.76.67-11.34t.68-11.43V21a12.83,12.83,0,0,1,.09-1.58,3.28,3.28,0,0,1,.4-1.26,1.11,1.11,0,0,1,1-.54,1.07,1.07,0,0,1,1,.67,5.06,5.06,0,0,1,.41,1.63,10.9,10.9,0,0,1,0,2c-.06.69-.09,1.27-.09,1.75q-.36,4.68-.68,9.41T22.45,42.39Z"/><path class="cls-2" d="M63.31,21.15Q61.6,23.4,60,26t-3.24,5q-1.17,1.71-2.43,3.69a18.35,18.35,0,0,1-2.88,3.51,6.52,6.52,0,0,1-1.26,1.13,2,2,0,0,1-1.71.22,2.44,2.44,0,0,1-1.26-2,27.84,27.84,0,0,1,1.66-7.83,36.19,36.19,0,0,1,3.2-6.66c.42-.66.88-1.32,1.39-2a4.94,4.94,0,0,1,1.67-1.44,2.56,2.56,0,0,1,3,.14,3.22,3.22,0,0,1,.95,3.28,4.93,4.93,0,0,0,1-1.44c.39-.72.81-1.45,1.26-2.2a15.23,15.23,0,0,1,1.44-2,2.51,2.51,0,0,1,1.58-1,2,2,0,0,1,.63.09l.54.18a4.12,4.12,0,0,1,.9,1.71q-.18,5.4-.72,10.22t-.81,10.21V40.5q0,1-.09,2a9.24,9.24,0,0,1-.32,1.76c-.15.51-.4.76-.76.76a1,1,0,0,1-.95-.58A4.52,4.52,0,0,1,62.36,43a11.3,11.3,0,0,1-.13-1.76,9.15,9.15,0,0,0-.09-1.44,50.51,50.51,0,0,1,.18-9.54Q62.86,25.56,63.31,21.15Zm-6.48.18a.08.08,0,0,0-.09-.09,2.54,2.54,0,0,0-.5.23,2.43,2.43,0,0,1-.49.22,19.08,19.08,0,0,0-2.25,3.2,37.3,37.3,0,0,0-1.8,3.64c-.48,1.26-1,2.6-1.4,4a19.65,19.65,0,0,0-.85,4.54A31.33,31.33,0,0,0,54,31.27c1.35-2.18,2.72-4.33,4.1-6.43a3.6,3.6,0,0,1-.45-1.93A1.54,1.54,0,0,0,56.83,21.33Z"/><path class="cls-2" d="M79.78,11.25q7.74-.27,16.11-.81a118.57,118.57,0,0,1,16.65.09c.3,0,.63,0,1,.05a.77.77,0,0,1,.72.49c-.06.48-.29.72-.68.72a5.26,5.26,0,0,1-1-.09,165,165,0,0,0-16.65.13q-8.28.51-16.29.95-1.26,7.38-2.3,15a110.6,110.6,0,0,0-.94,16q0,1.17.09,2.61a18.36,18.36,0,0,0,.36,2.7c.12.66.31,1.47.58,2.43s.68,1.47,1.22,1.53a1.18,1.18,0,0,0,.94-.27,9.35,9.35,0,0,0,1-.85,10.8,10.8,0,0,0,.9-1c.27-.36.47-.63.59-.81a86.76,86.76,0,0,0,6.43-9.59q2.83-4.89,6-10.21.81-1.44,1.71-3t2-3.06a8.72,8.72,0,0,1,.81-1,.79.79,0,0,1,.9-.32c.48.24.57.62.27,1.13a12.77,12.77,0,0,1-.72,1.12Q97.15,29,95.17,32.85T90.94,40.5q-1.26,2.07-2.48,4.19T85.9,48.87q-1.35,2.07-2.79,4.05A9.65,9.65,0,0,1,79.42,56a5,5,0,0,1-1.89,0,5.6,5.6,0,0,1-3.11-3.38,24.5,24.5,0,0,1-1.21-5.08,38.76,38.76,0,0,1-.45-6q0-3.1.18-6.08.45-6,1.21-11.65T76,13.05q-4.14.18-8.42.63t-8.68.63c-.36,0-.77,0-1.22,0s-.7-.19-.76-.67a.64.64,0,0,1,.72-.72,7.75,7.75,0,0,0,1.26-.09q4.23-.27,8.64-.72t8.73-.63c.36-1.26.76-2.75,1.21-4.46a36.24,36.24,0,0,1,1.58-4.72A7,7,0,0,1,79.73.85,1.44,1.44,0,0,1,81,0a.92.92,0,0,1,.85.36,1.36,1.36,0,0,1,.18.86,6.76,6.76,0,0,1-.18,1c-.09.36-.16.69-.22,1-.3,1.32-.6,2.69-.9,4.09S80.08,10.05,79.78,11.25Z"/><path class="cls-2" d="M100.3,22.41a1.35,1.35,0,0,1,.31,1c0,.36,0,.75,0,1.17-.06,1-.08,2.13,0,3.33s0,2.37,0,3.51,0,2.25,0,3.33a3.9,3.9,0,0,1-.94,2.61h-.72A2.92,2.92,0,0,1,98.18,36a13.72,13.72,0,0,1-.31-2c-.06-1.32-.08-2.7-.05-4.14a39,39,0,0,1,.32-4.23q.09-.54.18-1.26A4.84,4.84,0,0,1,98.63,23a1.54,1.54,0,0,1,.63-.77A1.08,1.08,0,0,1,100.3,22.41ZM100.75,5A2.05,2.05,0,0,1,100,6.39a1,1,0,0,1-1-.18,1.45,1.45,0,0,1-.36-.86,1.1,1.1,0,0,1,.27-.85,1.13,1.13,0,0,1,1-.27Q100.66,4.59,100.75,5Z"/><path class="cls-2" d="M109,27.63a17.48,17.48,0,0,0-1.17,3.29,15.33,15.33,0,0,0-.54,4,6.75,6.75,0,0,0,.81,3.37A3.19,3.19,0,0,0,111,39.78a8.87,8.87,0,0,0,4.45-1,41.71,41.71,0,0,0,3.65-2.07c1.2-.84,2.32-1.66,3.37-2.47s2-1.61,2.84-2.39A49.53,49.53,0,0,0,129.77,28q2.11-2.07,4.19-4.23a2.2,2.2,0,0,0,.58-.72,8.2,8.2,0,0,1,.68-1,4.55,4.55,0,0,1,.76-.76.71.71,0,0,1,.86-.05q.63.27.27,1.08a6.42,6.42,0,0,1-.63,1.17,3.19,3.19,0,0,1-.54,1q-.36.45-.72,1a67.16,67.16,0,0,1-4.73,5q-2.48,2.34-5.08,4.68a36.92,36.92,0,0,1-7.56,5.4,19.91,19.91,0,0,1-2.25,1,12.93,12.93,0,0,1-2.61.72,12,12,0,0,1-2.75.13,5.48,5.48,0,0,1-2.56-.81,4.29,4.29,0,0,1-1-.85l-.85-1a8.6,8.6,0,0,1-1.13-3.82,17.22,17.22,0,0,1,.27-4.28,28,28,0,0,1,2.57-7.47,37.44,37.44,0,0,1,3.6-5.31,10.54,10.54,0,0,1,5.49-3.42,4.33,4.33,0,0,1,3,.81,3.09,3.09,0,0,1,1,2.88,5.84,5.84,0,0,1-1.08,2.7A17.82,17.82,0,0,1,117.67,24a20.28,20.28,0,0,1-3.56,2.84A7.39,7.39,0,0,1,109,27.63ZM117.4,18a9.34,9.34,0,0,0-4.77,3.29,32.6,32.6,0,0,0-3.06,5,5.61,5.61,0,0,0,3.33-.9,24.72,24.72,0,0,0,2.34-1.89q1-1.08,2.07-2.16a3.87,3.87,0,0,0,1-3.06A1,1,0,0,0,117.4,18Z"/><path class="cls-2" d="M135.22,36.27c1.2-2.28,2.4-4.6,3.6-7a33.42,33.42,0,0,1,4.23-6.43q.36-.45.9-1.08a6.58,6.58,0,0,1,1.17-1.08,3.9,3.9,0,0,1,1.39-.63,2.76,2.76,0,0,1,1.67.18,4.1,4.1,0,0,1,2,2.79q.63,2.16,1.08,4.32c.12.66.25,1.35.4,2.07s.32,1.44.5,2.16a15,15,0,0,0,.72,2,1.91,1.91,0,0,0,1.08,1.21,1.5,1.5,0,0,0,1.35-.31,11.06,11.06,0,0,1,1.08-.77c.36-.3.69-.55,1-.76a6.84,6.84,0,0,0,.9-.77A37.46,37.46,0,0,0,162,28.44a45.69,45.69,0,0,1,3.78-3.87,14.81,14.81,0,0,1,1.57-1,2.32,2.32,0,0,1,1.08-.32c.33,0,.53.21.59.63s-.14.66-.59.9a4.35,4.35,0,0,0-1,.72A22,22,0,0,0,164.92,28c-.84,1-1.74,2-2.7,3-.48.48-.95.93-1.4,1.35s-.91.87-1.39,1.35c-.78.78-1.62,1.55-2.52,2.29a5.25,5.25,0,0,1-3.51,1.13L153,37a1.3,1.3,0,0,0-.49-.09,5.54,5.54,0,0,1-2.21-2.79,28.4,28.4,0,0,1-1.12-3.82c-.3-1.35-.59-2.71-.86-4.05a12.53,12.53,0,0,0-1.3-3.65,5.36,5.36,0,0,0-2.34,2,28.3,28.3,0,0,1-1.8,2.56,41.49,41.49,0,0,0-3.06,5.58q-1.35,3-2.61,6.12a5.65,5.65,0,0,0-.63,1.39,15.13,15.13,0,0,1-.63,1.67,4.45,4.45,0,0,1-.95,1.39,1.64,1.64,0,0,1-1.57.41,1.49,1.49,0,0,1-1.22-1,5.54,5.54,0,0,1-.49-2,21.06,21.06,0,0,1-.05-2.42c0-.87.08-1.67.14-2.39.24-2.88.57-5.68,1-8.42a50.69,50.69,0,0,1,1.71-7.51q.36-1,.63-1.8a1.26,1.26,0,0,1,1.17-.9,1,1,0,0,1,1.12.5,2.57,2.57,0,0,1,.27,1.39,10.07,10.07,0,0,1-.27,1.76c-.15.63-.25,1.15-.31,1.57Q136.48,26,136,29.43T135.22,36.27Z"/><path class="cls-2" d="M172.47,11.25q7.74-.27,16.11-.81a118.56,118.56,0,0,1,16.65.09c.3,0,.63,0,1,.05a.77.77,0,0,1,.72.49c-.06.48-.28.72-.67.72a5.37,5.37,0,0,1-1-.09,165,165,0,0,0-16.65.13q-8.28.51-16.29.95-1.26,7.38-2.29,15a110.57,110.57,0,0,0-.95,16q0,1.17.09,2.61a19.81,19.81,0,0,0,.36,2.7c.12.66.32,1.47.59,2.43s.67,1.47,1.21,1.53a1.2,1.2,0,0,0,.95-.27,9.35,9.35,0,0,0,1-.85,10.8,10.8,0,0,0,.9-1c.27-.36.46-.63.58-.81a86.86,86.86,0,0,0,6.44-9.59q2.84-4.89,6-10.21.81-1.44,1.71-3t2-3.06a8.72,8.72,0,0,1,.81-1,.79.79,0,0,1,.9-.32c.48.24.57.62.27,1.13a12.77,12.77,0,0,1-.72,1.12q-2.25,3.78-4.23,7.65t-4.23,7.65q-1.26,2.07-2.47,4.19c-.81,1.41-1.66,2.8-2.57,4.18s-1.83,2.73-2.79,4.05A9.65,9.65,0,0,1,172.11,56a5,5,0,0,1-1.89,0,5.58,5.58,0,0,1-3.1-3.38,25.15,25.15,0,0,1-1.22-5.08,40.06,40.06,0,0,1-.44-6q0-3.1.17-6.08.47-6,1.22-11.65t1.84-10.76c-2.75.12-5.56.33-8.41.63s-5.74.51-8.69.63c-.36,0-.76,0-1.21,0s-.71-.19-.77-.67a.64.64,0,0,1,.72-.72,7.67,7.67,0,0,0,1.26-.09q4.24-.27,8.64-.72t8.73-.63c.37-1.26.77-2.75,1.22-4.46a36.25,36.25,0,0,1,1.57-4.72,7.12,7.12,0,0,1,.68-1.49A1.43,1.43,0,0,1,173.64,0a.94.94,0,0,1,.86.36,1.36,1.36,0,0,1,.18.86,6.76,6.76,0,0,1-.18,1c-.09.36-.17.69-.23,1-.3,1.32-.6,2.69-.89,4.09S172.77,10.05,172.47,11.25Z"/><path class="cls-2" d="M255.54,23a7.41,7.41,0,0,0-2.7,2.16,8.93,8.93,0,0,0-1.12,1.44,2.91,2.91,0,0,0-.5,1.89,3.17,3.17,0,0,0,1,1.76c.54.51,1,1,1.44,1.39l1.4,1.4a12.94,12.94,0,0,1,1.21,1.39q2.25-1.62,4.28-3.37a39.16,39.16,0,0,1,4.36-3.29,33.05,33.05,0,0,1,3.38-2.25c1.23-.72,2.5-1.41,3.82-2.07l1.26-.63a1.23,1.23,0,0,1,1.35.09.93.93,0,0,1-.09.72,1.09,1.09,0,0,1-.54.41l-.72.27a1.07,1.07,0,0,0-.54.4,24.85,24.85,0,0,0-3.64,2c-1.11.75-2.24,1.48-3.38,2.2q-4.32,3.24-8.37,6.75a28.22,28.22,0,0,1,2.21,4.23,13.15,13.15,0,0,1,.94,5.13,14.9,14.9,0,0,1-.9,5.76,16.45,16.45,0,0,1-2.7,4.68,19.91,19.91,0,0,1-3.87,3.42,8.48,8.48,0,0,1-5.22,1.53,6.24,6.24,0,0,1-2.07-.45,7.87,7.87,0,0,1-1.53-.9A9.2,9.2,0,0,1,242.85,57a6.68,6.68,0,0,1-.63-2.61,9.91,9.91,0,0,1,1.17-5.76,30.79,30.79,0,0,1,3-4.5,36.58,36.58,0,0,1,3.56-3.91q1.85-1.75,3.64-3.29a10.79,10.79,0,0,0-1.44-1.66c-.54-.51-1.08-1-1.62-1.58A15.91,15.91,0,0,1,249,32a6.94,6.94,0,0,1-1-2,4.63,4.63,0,0,1,.05-3.64,14.56,14.56,0,0,1,1.75-2.93,24.08,24.08,0,0,1,1.76-1.75,8.08,8.08,0,0,1,2-1.31,9,9,0,0,1,1.35-.27,2.56,2.56,0,0,1,1.35.18,2,2,0,0,0,.5.5,1.45,1.45,0,0,1,.49.67,3,3,0,0,1,.05,1.71c-.15.66-.38,1-.68,1s-.66-.06-.72-.36A2,2,0,0,0,255.54,23Zm-1.17,15.57q-1.53,1.26-3.06,2.79a40.34,40.34,0,0,0-3,3.33c-.54.66-1.09,1.4-1.66,2.21a13.24,13.24,0,0,0-1.44,2.65,12.69,12.69,0,0,0-.81,3,7.35,7.35,0,0,0,.31,3.28A6.81,6.81,0,0,0,245.91,57a2.76,2.76,0,0,0,1.71.49,6.34,6.34,0,0,0,3.65-1.39,16.16,16.16,0,0,0,2.83-2.84,12.24,12.24,0,0,0,1.76-3.42,15.53,15.53,0,0,0,.81-4,12.88,12.88,0,0,0-.36-4,9.51,9.51,0,0,0-1.67-3.51.08.08,0,0,0-.09-.09Q254.37,38.43,254.37,38.52Zm-9.54,22.41q0,.09.18-.09Q245,60.93,244.83,60.93Z"/><path class="cls-2" d="M275.16,36.36a1.63,1.63,0,0,0,.77-.67c.21-.33.4-.65.58-.95.66-.84,1.31-1.74,1.94-2.7s1.27-1.86,1.93-2.7q.63-1,1.26-1.89A18.79,18.79,0,0,1,283,25.74a13.15,13.15,0,0,0,1.53-1.62,2.39,2.39,0,0,1,2.16-.81,2.24,2.24,0,0,1,1.58.77,5.12,5.12,0,0,1,.94,1.62,12.59,12.59,0,0,1,.59,2.11c.15.78.28,1.5.4,2.16s.27,1.25.45,1.94.39,1.36.63,2,.51,1.22.81,1.84a1.87,1.87,0,0,0,2.57,1A8.22,8.22,0,0,0,296,36a9.28,9.28,0,0,0,1.17-1l.81-.81a17.72,17.72,0,0,0,1.8-1.89q.81-1,1.8-2c.84-1,1.7-2,2.57-3s1.72-2,2.56-3.1a6.64,6.64,0,0,0,.72-1.17,1.07,1.07,0,0,1,1.17-.63,1.05,1.05,0,0,1,.32,1.4A7.78,7.78,0,0,1,308.1,25c-.3.42-.6.83-.9,1.22l-.81,1q-1.89,2.25-4,4.86A36.54,36.54,0,0,1,298,36.81a20.7,20.7,0,0,1-2.56,1.85,3.78,3.78,0,0,1-3.47,0,6.08,6.08,0,0,1-2.11-2.47,17.37,17.37,0,0,1-1.22-3.38c-.3-1.2-.58-2.43-.85-3.69a13.17,13.17,0,0,0-1.22-3.42,5.11,5.11,0,0,0-1.66,1.44c-.45.6-.92,1.23-1.4,1.89s-.91,1.31-1.3,1.94-.8,1.27-1.22,1.93q-1.26,2-2.43,4a8.6,8.6,0,0,1-3.24,3.15,2.5,2.5,0,0,1-1.66-.18,3.75,3.75,0,0,1-1.13-.9,11.77,11.77,0,0,1-.72-3.78,37.09,37.09,0,0,1,.09-4.45q.18-2.29.54-4.5c.24-1.47.48-2.84.72-4.1.06-.42.12-.88.18-1.39a8.23,8.23,0,0,1,.32-1.49,5.32,5.32,0,0,1,.54-1.22,1.24,1.24,0,0,1,.85-.58,1,1,0,0,1,.81.14,2.3,2.3,0,0,1,.45.49,4.9,4.9,0,0,1,.09,2.47,9.88,9.88,0,0,0-.18,2.66q-.45,3.06-.76,6.3T275.16,36.36Z"/><path class="cls-2" d="M321.51,20.07a13.36,13.36,0,0,0-4.18,4.32Q315.76,27,314,29.61l-1.44,2.88a25.94,25.94,0,0,0-1.26,3,15.37,15.37,0,0,0-1.35,2.93,3.24,3.24,0,0,1-2.16,2.11h-.81a2.21,2.21,0,0,1-.76-.49,4,4,0,0,1-.59-.77,29.08,29.08,0,0,1-.13-3.69c0-1.32.09-2.65.18-4s.24-2.66.45-4,.43-2.47.67-3.55a12.15,12.15,0,0,1,.54-2,1.72,1.72,0,0,1,1.44-1.17,1.12,1.12,0,0,1,1,.81,4.81,4.81,0,0,1,.18,1.66,15.63,15.63,0,0,1-.23,2,10.37,10.37,0,0,0-.18,1.67c-.12,1.2-.22,2.28-.31,3.24s-.2,1.86-.32,2.7q1.53-2.52,3.69-5.67A56.35,56.35,0,0,1,317,21.6a21.33,21.33,0,0,1,1.58-1.75,6.3,6.3,0,0,1,1.84-1.31,2.65,2.65,0,0,1,1.67,0,1.38,1.38,0,0,1,1,1q.18,1.08-.54,1.17A1,1,0,0,1,321.51,20.07Z"/><path class="cls-2" d="M341.49,38.88q2.61-3.15,5.18-6.53a71.05,71.05,0,0,1,5.62-6.52c.66-.66,1.35-1.33,2.07-2A4.42,4.42,0,0,1,357,22.59a1.27,1.27,0,0,1,.68.63,1.06,1.06,0,0,1,0,1,.79.79,0,0,1-.58.18.82.82,0,0,1-.59-.18,76.07,76.07,0,0,0-8.23,9.09q-3.74,4.86-7.34,10-1.44,9.54-3.69,18.68a111.81,111.81,0,0,1-5.67,17.14,21.48,21.48,0,0,1-1.12,2.43c-.45.84-.92,1.68-1.4,2.52-.3.54-.61,1.08-.94,1.62A9,9,0,0,1,327,87.12a4.5,4.5,0,0,1-3.47,1.44q0,.09-.18-.09a1.49,1.49,0,0,1-.58-.27,3.38,3.38,0,0,0-.59-.36,1.47,1.47,0,0,0-.45-.54,9,9,0,0,1-.72-3.15,18.11,18.11,0,0,1,.14-3.38,30.13,30.13,0,0,1,.63-3.28c.27-1.08.52-2.07.76-3,.6-2,1.26-3.89,2-5.71s1.44-3.59,2.16-5.27a140.33,140.33,0,0,1,11-19.17q.45-2.88.86-6t.58-6.39q.27-3.15.32-6.66a20.7,20.7,0,0,0-.77-6.21,2,2,0,0,0-1.08.86,14.1,14.1,0,0,1-.9,1.21,15.17,15.17,0,0,1,.9,2.43,5.7,5.7,0,0,0,.54,1.26,1,1,0,0,1,0,1.17c-.48.18-.82.11-1-.22a2.9,2.9,0,0,0-.68-.77c-.18-.3-.37-.6-.58-.9a4.5,4.5,0,0,1-.5-.9,29.11,29.11,0,0,0-2.43,3.6q-1.08,1.89-2.34,3.69c-.36.48-.79,1.13-1.3,1.94a14.2,14.2,0,0,1-1.76,2.25,6,6,0,0,1-2.11,1.48,2.61,2.61,0,0,1-2.48-.45,3.85,3.85,0,0,1-.81-2.21,11.34,11.34,0,0,1,.14-2.65,16.33,16.33,0,0,1,.67-2.65c.3-.87.6-1.64.9-2.3a24.42,24.42,0,0,1,1.62-3.19,13.54,13.54,0,0,1,2-2.57,8.85,8.85,0,0,1,1.35-1.08,6.12,6.12,0,0,1,1.8-.81,5.77,5.77,0,0,1,2-.18,4.45,4.45,0,0,1,1.93.63,4.56,4.56,0,0,0,1-1,8.27,8.27,0,0,1,1.08-1.13,3.8,3.8,0,0,1,1.35-.71,2.77,2.77,0,0,1,1.75.13,3.47,3.47,0,0,1,.72.5,3.09,3.09,0,0,1,.54.58,5.49,5.49,0,0,1,.95,2,14.22,14.22,0,0,1,.4,2.62c.06.93.09,1.9.09,2.92s0,2-.09,3q-.18,3.15-.36,6T341.49,38.88ZM325.2,75.06q-.72,2.34-1.26,5a12.64,12.64,0,0,0,.09,5.4,8.28,8.28,0,0,0,2.61-3.29c.66-1.41,1.29-2.77,1.89-4.09a85.08,85.08,0,0,0,4.77-13.36q1.89-7.08,3.42-14.72,0-.09-.09,0-3.33,5.76-6.39,11.88A73.74,73.74,0,0,0,325.2,75.06Zm4.23-52.65a18.47,18.47,0,0,0-2.83,4.46,20.68,20.68,0,0,0-1.58,5.8,24.73,24.73,0,0,0,4.1-5.49q1.75-3.15,3.73-6a2.37,2.37,0,0,0-2,.27Q330.15,22,329.43,22.41Z"/><path class="cls-2" d="M357.15,27.63A17.48,17.48,0,0,0,356,30.92a15.33,15.33,0,0,0-.54,4,6.75,6.75,0,0,0,.81,3.37,3.19,3.19,0,0,0,2.88,1.53,8.93,8.93,0,0,0,4.46-1,41.41,41.41,0,0,0,3.64-2.07c1.2-.84,2.33-1.66,3.38-2.47s2-1.61,2.83-2.39A49.66,49.66,0,0,0,377.9,28c1.4-1.38,2.8-2.79,4.18-4.23a2.21,2.21,0,0,0,.59-.72,8.15,8.15,0,0,1,.67-1,4.6,4.6,0,0,1,.77-.76.69.69,0,0,1,.85-.05q.63.27.27,1.08a6.42,6.42,0,0,1-.63,1.17,3.19,3.19,0,0,1-.54,1q-.36.45-.72,1a67,67,0,0,1-4.72,5c-1.66,1.56-3.35,3.12-5.09,4.68A36.92,36.92,0,0,1,366,40.5a19.91,19.91,0,0,1-2.25,1,12.93,12.93,0,0,1-2.61.72,11.94,11.94,0,0,1-2.74.13,5.48,5.48,0,0,1-2.57-.81,4.24,4.24,0,0,1-.94-.85l-.86-1a8.59,8.59,0,0,1-1.12-3.82,17.22,17.22,0,0,1,.27-4.28,27.52,27.52,0,0,1,2.56-7.47,37.44,37.44,0,0,1,3.6-5.31,10.54,10.54,0,0,1,5.49-3.42,4.37,4.37,0,0,1,3,.81,3.08,3.08,0,0,1,.94,2.88,5.84,5.84,0,0,1-1.08,2.7A17.82,17.82,0,0,1,365.79,24a20.21,20.21,0,0,1-3.55,2.84A7.43,7.43,0,0,1,357.15,27.63ZM365.52,18a9.34,9.34,0,0,0-4.77,3.29,32.6,32.6,0,0,0-3.06,5,5.61,5.61,0,0,0,3.33-.9,24.72,24.72,0,0,0,2.34-1.89q1-1.08,2.07-2.16a3.87,3.87,0,0,0,1-3.06A1,1,0,0,0,365.52,18Z"/><path class="cls-2" d="M388.47,20.25a7,7,0,0,1,4.81,1.89,8.7,8.7,0,0,1,2.21,4.59q2.88-.54,6-1.21c2.07-.46,4.1-.92,6.08-1.4a6.49,6.49,0,0,0,.9-.31,7,7,0,0,1,1.12-.36,3.29,3.29,0,0,1,1-.1.76.76,0,0,1,.63.41.56.56,0,0,1-.18.72,4.18,4.18,0,0,1-.9.5,5.91,5.91,0,0,1-1.17.35c-.42.1-.72.17-.9.23q-2.88.9-6.08,1.58c-2.13.44-4.24.88-6.34,1.3A18.87,18.87,0,0,1,394.9,35a22.74,22.74,0,0,1-2.47,5.53A28.43,28.43,0,0,1,389,44.82a9.93,9.93,0,0,1-4.72,2.7h-1.35a3.56,3.56,0,0,1-1.53-.67,13.12,13.12,0,0,1-1.17-1,7.94,7.94,0,0,1-1.4-3.91,24,24,0,0,1,0-4.78,43.42,43.42,0,0,1,.81-4.85c.36-1.59.69-3,1-4.28a3.53,3.53,0,0,1-.05-3.24,7,7,0,0,1,1.76-2.34,15.12,15.12,0,0,0,.67-1.89,15.46,15.46,0,0,1,.77-2.07,6.25,6.25,0,0,1,1.12-1.71,2.31,2.31,0,0,1,1.76-.72,1.76,1.76,0,0,1,1.8,1.31A4.84,4.84,0,0,1,388.47,20.25Zm-4.32,9.36q-.45,2.61-1.13,5.63a22.23,22.23,0,0,0-.49,6.16,8.13,8.13,0,0,0,.31,1.53,2.23,2.23,0,0,0,.86,1.17,6.94,6.94,0,0,0,4.14-2.16q1.53-1.71,2.88-3.51a34.21,34.21,0,0,0,2.16-4.37,10.85,10.85,0,0,0,.72-5.26,41.07,41.07,0,0,1-4.59.68A37.57,37.57,0,0,1,384.15,29.61Zm4-7.47a2.8,2.8,0,0,0-.18,1,.6.6,0,0,1-.54.67,1.44,1.44,0,0,1-.41,0,2.56,2.56,0,0,1-.31-.14,1.64,1.64,0,0,1-.09-1.26,3.85,3.85,0,0,0-.68,1.17c-.15.42-.28.87-.4,1.35a13.26,13.26,0,0,0-.45,1.44l-.36,1.44q2.52,0,4.68-.18t4.23-.54a7.14,7.14,0,0,0-1.67-3.55A5.25,5.25,0,0,0,388.11,22.14Z"/><path class="cls-2" d="M410.7,36.27c1.2-2.28,2.4-4.6,3.6-7a33.42,33.42,0,0,1,4.23-6.43q.36-.45.9-1.08a6.58,6.58,0,0,1,1.17-1.08,3.9,3.9,0,0,1,1.39-.63,2.76,2.76,0,0,1,1.67.18,4.1,4.1,0,0,1,2,2.79q.63,2.16,1.08,4.32c.12.66.25,1.35.4,2.07s.32,1.44.5,2.16a15,15,0,0,0,.72,2,1.91,1.91,0,0,0,1.08,1.21,1.5,1.5,0,0,0,1.35-.31,11.06,11.06,0,0,1,1.08-.77c.36-.3.69-.55,1-.76a6.84,6.84,0,0,0,.9-.77,37.46,37.46,0,0,0,3.78-3.78,45.69,45.69,0,0,1,3.78-3.87,14.81,14.81,0,0,1,1.57-1,2.32,2.32,0,0,1,1.08-.32c.33,0,.53.21.59.63s-.14.66-.59.9a4.35,4.35,0,0,0-1,.72A22,22,0,0,0,440.4,28c-.84,1-1.74,2-2.7,3-.48.48-.95.93-1.4,1.35s-.91.87-1.39,1.35c-.78.78-1.62,1.55-2.52,2.29a5.25,5.25,0,0,1-3.51,1.13l-.41-.18a1.3,1.3,0,0,0-.49-.09,5.54,5.54,0,0,1-2.21-2.79,28.4,28.4,0,0,1-1.12-3.82c-.3-1.35-.59-2.71-.86-4.05a12.53,12.53,0,0,0-1.3-3.65,5.36,5.36,0,0,0-2.34,2,28.3,28.3,0,0,1-1.8,2.56,41.49,41.49,0,0,0-3.06,5.58q-1.35,3-2.61,6.12a5.65,5.65,0,0,0-.63,1.39,15.13,15.13,0,0,1-.63,1.67,4.45,4.45,0,0,1-.95,1.39,1.64,1.64,0,0,1-1.57.41,1.49,1.49,0,0,1-1.22-1,5.54,5.54,0,0,1-.49-2,21.06,21.06,0,0,1-.05-2.42c0-.87.08-1.67.14-2.39.24-2.88.57-5.68,1-8.42A50.69,50.69,0,0,1,410,20.07q.36-1,.63-1.8a1.26,1.26,0,0,1,1.17-.9,1,1,0,0,1,1.12.5,2.57,2.57,0,0,1,.27,1.39A10.07,10.07,0,0,1,412.9,21c-.15.63-.25,1.15-.31,1.57Q412,26,411.51,29.43T410.7,36.27Z"/></g></g></svg>