<svg xmlns="http://www.w3.org/2000/svg" viewBox="0 0 632.68 176.6"><defs><style>.cls-1{fill:none;stroke:#ff8300;}.cls-2{fill:#53575a;}.cls-3{fill:#ff8300;}</style></defs><g id="Layer_2" data-name="Layer 2"><g id="Layer_1-2" data-name="Layer 1"><line class="cls-1" x1="632.18" x2="632.18" y2="168.57"/><path class="cls-2" d="M31.7,109.78v-.6a34.52,34.52,0,0,0,4.95-.3,6.7,6.7,0,0,0,3.22-1.25,5.08,5.08,0,0,0,1.72-2.58,14.79,14.79,0,0,0,.52-4.38V50q0-4.73-1.68-6.49c-1.12-1.17-3.11-1.85-6-2H31.7V41H64.38a34.83,34.83,0,0,1,10,1.29A19.91,19.91,0,0,1,81.24,46a14.51,14.51,0,0,1,3.91,5.38,17.5,17.5,0,0,1,1.34,6.92q0,7.74-5.25,12.3a18.62,18.62,0,0,1-6.88,3.7,32,32,0,0,1-10,1.37H51.31v25.11a16.6,16.6,0,0,0,.39,4,5.06,5.06,0,0,0,3.7,3.91,14.08,14.08,0,0,0,3.65.56h2.67l-.09.09v.51H31.7ZM51.31,75.12H63.7A12.54,12.54,0,0,0,71,73a13.33,13.33,0,0,0,1.93-1.77,11.53,11.53,0,0,0,1.76-2.54A18.09,18.09,0,0,0,76.42,64,25.66,25.66,0,0,0,77,58.27q0-7.4-3.19-11.87-3.53-4.9-10.14-4.9H58.19c-2.58.29-4.37,1-5.37,2.15s-1.51,3.24-1.51,6.28V75.12Z"/><path class="cls-2" d="M79,109l1.51-.17a10.54,10.54,0,0,0,3.35-1.16A17.85,17.85,0,0,0,88,104.62a16.82,16.82,0,0,0,3.7-5.93L114.78,40.9h.69l23.05,57.62a37.48,37.48,0,0,0,2.83,5.8,11.64,11.64,0,0,0,2.58,3,6,6,0,0,0,2.63,1.21l3.05.47v.6H121.4V109c2.07-.11,3.83-.24,5.29-.39a5.92,5.92,0,0,0,3.31-1.16,3.4,3.4,0,0,0,.95-3,23.8,23.8,0,0,0-1.72-6.06l-6.37-16h-24L92.33,98.6A8.37,8.37,0,0,0,91.6,103a5.73,5.73,0,0,0,1.34,2.92,7.06,7.06,0,0,0,2.53,1.81,15.52,15.52,0,0,0,2.93.94,15.28,15.28,0,0,0,2.45.35l1.12,0v.6H79Zm31.91-56.59L99.13,81.75h23.48Z"/><path class="cls-2" d="M202.67,58.79v-.18c-.46-1.77-1-3.62-1.55-5.54a19.77,19.77,0,0,0-2.53-5.38A14,14,0,0,0,194,43.48a17,17,0,0,0-7.53-2.07h-.77c-2.52.23-4.29.94-5.29,2.11s-1.5,3.25-1.5,6.23v50.83a16.73,16.73,0,0,0,.38,3.91,5.07,5.07,0,0,0,3.66,4,13.55,13.55,0,0,0,3.61.56h2.66v.6H159.33V109a34.37,34.37,0,0,0,4.94-.3,6.43,6.43,0,0,0,3.18-1.25,5.21,5.21,0,0,0,1.68-2.58,15.13,15.13,0,0,0,.52-4.38V49.84a16.57,16.57,0,0,0-.39-4,5.46,5.46,0,0,0-1.29-2.5A5.15,5.15,0,0,0,165.6,42a18.07,18.07,0,0,0-3.61-.61h-.51A16.78,16.78,0,0,0,154,43.48a14.53,14.53,0,0,0-4.55,4.21,18.8,18.8,0,0,0-2.58,5.38c-.58,1.92-1.06,3.77-1.46,5.54v.18h-.61V40.73h58.48V58.79Z"/><path class="cls-2" d="M215.35,108.88a6.74,6.74,0,0,0,3.23-1.25,5.14,5.14,0,0,0,1.72-2.58,15.13,15.13,0,0,0,.52-4.38V50q0-4.73-1.68-6.49c-1.12-1.17-3.11-1.85-6-2h-2.75V41h29.93v.43h0v.09H236.9c-2.58.29-4.37,1-5.38,2.15s-1.5,3.24-1.5,6.28v50.82a16.6,16.6,0,0,0,.39,4,5.29,5.29,0,0,0,1.29,2.49,5.49,5.49,0,0,0,2.4,1.42,14.16,14.16,0,0,0,3.66.56h2.66v.6h-30v-.6A34.27,34.27,0,0,0,215.35,108.88Z"/><path class="cls-2" d="M289.7,108.32a20.5,20.5,0,0,0,5-2.24,18.8,18.8,0,0,0,3.83-3.13,26.51,26.51,0,0,0,2.84-3.66,29.64,29.64,0,0,0,3.87-10h.6l-2.49,20.46H246.53v-.6a34.27,34.27,0,0,0,4.94-.3,6.74,6.74,0,0,0,3.23-1.25,5.14,5.14,0,0,0,1.72-2.58,15.13,15.13,0,0,0,.52-4.38V51a2.94,2.94,0,0,0-.05-.51,3,3,0,0,1,0-.52q0-4.73-1.68-6.49c-1.12-1.17-3.11-1.85-6-2h-2.76V41H301V59h-.6V59q-.69-2.84-1.6-5.94A17.56,17.56,0,0,0,296,47.39a14.51,14.51,0,0,0-5.16-4.21,18.88,18.88,0,0,0-8.6-1.68H266.05V75.12h12.3a9.77,9.77,0,0,0,5.8-1.67,11.22,11.22,0,0,0,3.19-3.57,11.45,11.45,0,0,0,1.33-3.78,22.31,22.31,0,0,0,.26-2.41v-.26h.6v24h-.6v-.25a24.24,24.24,0,0,0-.26-2.5,11.15,11.15,0,0,0-1.38-3.91A10.72,10.72,0,0,0,284,77.19a10.37,10.37,0,0,0-6.06-1.55H266.05V99.21a8.71,8.71,0,0,1,.09,1.54,17.21,17.21,0,0,0,.38,4,5.47,5.47,0,0,0,1.29,2.49,5.55,5.55,0,0,0,2.37,1.42,13.55,13.55,0,0,0,3.61.56h9.55A21.65,21.65,0,0,0,289.7,108.32Z"/><path class="cls-2" d="M391.78,41v.6h-1.29a22.83,22.83,0,0,0-3.65.39,16,16,0,0,0-4.43,1.46,10.94,10.94,0,0,0-3.74,3.14,8.82,8.82,0,0,0-1.59,5.51v57.7h-.69L325.82,46.49V98.6a8.91,8.91,0,0,0,1.59,5.59,10.72,10.72,0,0,0,3.74,3.14,15.47,15.47,0,0,0,4.43,1.46,22.83,22.83,0,0,0,3.66.39h1.29v.6h-30.1v-.6h1.29a22.83,22.83,0,0,0,3.65-.39,15.37,15.37,0,0,0,4.43-1.46,10.72,10.72,0,0,0,3.74-3.14,8.91,8.91,0,0,0,1.59-5.59V49.67c0-1.38,0-2.57-.08-3.57a5,5,0,0,0-.78-2.54,4,4,0,0,0-2.28-1.5,16.81,16.81,0,0,0-4.6-.48h-2.66V41h18.4l43.26,53.75V52.08a8.82,8.82,0,0,0-1.59-5.51,10.94,10.94,0,0,0-3.74-3.14A16.11,16.11,0,0,0,366.63,42a22.83,22.83,0,0,0-3.66-.39h-1.29V41h30.1Z"/><path class="cls-2" d="M456.28,58.79v-.18c-.46-1.77-1-3.62-1.55-5.54a19.77,19.77,0,0,0-2.53-5.38,14,14,0,0,0-4.56-4.21,17,17,0,0,0-7.53-2.07h-.77c-2.52.23-4.29.94-5.29,2.11s-1.5,3.25-1.5,6.23v50.83a16.73,16.73,0,0,0,.38,3.91,5.07,5.07,0,0,0,3.66,4,13.55,13.55,0,0,0,3.61.56h2.67v.6H412.94V109a34.37,34.37,0,0,0,4.94-.3,6.43,6.43,0,0,0,3.18-1.25,5.21,5.21,0,0,0,1.68-2.58,14.79,14.79,0,0,0,.52-4.38V49.84a16.57,16.57,0,0,0-.39-4,5.46,5.46,0,0,0-1.29-2.5A5.17,5.17,0,0,0,419.22,42a18.31,18.31,0,0,0-3.62-.61h-.51a16.7,16.7,0,0,0-7.48,2.07,14.46,14.46,0,0,0-4.56,4.21,18.8,18.8,0,0,0-2.58,5.38c-.58,1.92-1.06,3.77-1.46,5.54v.18h-.61V40.73h58.48V58.79Z"/><path class="cls-3" d="M413.94,91.6a10.27,10.27,0,0,0-3.75,3,12.45,12.45,0,0,0-1.56,2,4.07,4.07,0,0,0-.69,2.63,4.39,4.39,0,0,0,1.38,2.43c.75.71,1.41,1.36,2,1.94l1.93,1.94a16.88,16.88,0,0,1,1.69,1.94c2.08-1.5,4.06-3.07,5.94-4.69a53.89,53.89,0,0,1,6.06-4.56,45,45,0,0,1,4.69-3.13q2.56-1.5,5.31-2.87l1.75-.88a1.71,1.71,0,0,1,1.88.13,1.3,1.3,0,0,1-.13,1,1.55,1.55,0,0,1-.75.56l-1,.37a1.57,1.57,0,0,0-.75.57,34.47,34.47,0,0,0-5.06,2.81c-1.54,1-3.11,2.06-4.69,3.06q-6,4.5-11.62,9.38a40.21,40.21,0,0,1,3.06,5.87,18.35,18.35,0,0,1,1.31,7.13,20.73,20.73,0,0,1-1.25,8,23.14,23.14,0,0,1-3.75,6.5,28.13,28.13,0,0,1-5.37,4.75,11.81,11.81,0,0,1-7.25,2.12,8.68,8.68,0,0,1-2.88-.62,11,11,0,0,1-2.12-1.25,12.67,12.67,0,0,1-2-2.88,9.22,9.22,0,0,1-.88-3.62,13.69,13.69,0,0,1,1.63-8,42.05,42.05,0,0,1,4.12-6.25,51.22,51.22,0,0,1,4.94-5.44c1.71-1.63,3.39-3.15,5.06-4.56a14.68,14.68,0,0,0-2-2.32c-.75-.7-1.5-1.43-2.25-2.18a22,22,0,0,1-2.06-2.38,9.38,9.38,0,0,1-1.44-2.75,6.46,6.46,0,0,1,.06-5.06,20,20,0,0,1,2.44-4.06,33,33,0,0,1,2.44-2.44A11.22,11.22,0,0,1,411.19,88a11.57,11.57,0,0,1,1.88-.38,3.58,3.58,0,0,1,1.87.25,2.82,2.82,0,0,0,.69.69,2.08,2.08,0,0,1,.69.94,4.08,4.08,0,0,1,.06,2.37c-.21.92-.52,1.38-.94,1.38-.58.08-.92-.09-1-.5A2.69,2.69,0,0,0,413.94,91.6Zm-1.62,21.63a57.61,57.61,0,0,0-8.38,8.5q-1.12,1.36-2.31,3.06a18.15,18.15,0,0,0-2,3.69,17.8,17.8,0,0,0-1.13,4.18,10.39,10.39,0,0,0,.44,4.57,9,9,0,0,0,1.63,1.68,3.71,3.71,0,0,0,2.37.69,8.66,8.66,0,0,0,5.06-1.94,22.2,22.2,0,0,0,3.94-3.93,17.27,17.27,0,0,0,2.44-4.75,21.69,21.69,0,0,0,1.12-5.57,17.68,17.68,0,0,0-.5-5.56,13.22,13.22,0,0,0-2.31-4.87c0-.09,0-.13-.12-.13C412.4,113,412.32,113.14,412.32,113.23Zm-13.25,31.12c0,.08.08,0,.25-.12C399.32,144.31,399.23,144.35,399.07,144.35Z"/><path class="cls-3" d="M454.44,89.1q-2.37,3.12-4.62,6.75t-4.5,7c-1.09,1.58-2.21,3.29-3.38,5.13a25.79,25.79,0,0,1-4,4.87,8.76,8.76,0,0,1-1.75,1.56,2.72,2.72,0,0,1-2.37.32,3.4,3.4,0,0,1-1.75-2.75,38.77,38.77,0,0,1,2.31-10.88,50,50,0,0,1,4.44-9.25c.58-.92,1.22-1.83,1.93-2.75a6.81,6.81,0,0,1,2.32-2,3.56,3.56,0,0,1,4.18.19q1.81,1.44,1.32,4.56a6.9,6.9,0,0,0,1.43-2c.54-1,1.13-2,1.75-3.06a21.23,21.23,0,0,1,2-2.81,3.45,3.45,0,0,1,2.19-1.38,2.63,2.63,0,0,1,.88.13l.75.25a5.8,5.8,0,0,1,1.25,2.37q-.26,7.5-1,14.19t-1.13,14.19V116c0,.91,0,1.83-.12,2.75a13.06,13.06,0,0,1-.44,2.43c-.21.71-.56,1.07-1.06,1.07a1.4,1.4,0,0,1-1.32-.82,6.12,6.12,0,0,1-.62-2,14.94,14.94,0,0,1-.19-2.43,13.16,13.16,0,0,0-.12-2,69.59,69.59,0,0,1,.25-13.25Q453.82,95.22,454.44,89.1Zm-9,.25a.11.11,0,0,0-.12-.12,3.09,3.09,0,0,0-.69.31,3.62,3.62,0,0,1-.69.31,25.55,25.55,0,0,0-3.12,4.44,50.6,50.6,0,0,0-2.5,5.06c-.67,1.75-1.32,3.61-1.94,5.56a27.34,27.34,0,0,0-1.19,6.32,43.87,43.87,0,0,0,6.31-8.07q2.82-4.56,5.69-8.93a5,5,0,0,1-.62-2.69A2.13,2.13,0,0,0,445.44,89.35Z"/><path class="cls-3" d="M490.82,63.35c-.42.25-.71.19-.88-.19a2.84,2.84,0,0,0-.5-.81A7.26,7.26,0,0,0,488,61.29a2.92,2.92,0,0,0-2.18-.31,3.6,3.6,0,0,0-2.38,2.18c-.67,1.3-1.21,2.4-1.62,3.32a66.08,66.08,0,0,0-3.57,10.75q-1.44,5.86-2.43,11.5,5-1.87,10.62-4.13A75,75,0,0,1,498.32,81,51.54,51.54,0,0,1,504.5,80a14.42,14.42,0,0,1,6.19.69c.42.16.88.37,1.38.62a1.22,1.22,0,0,1,.62,1.38,2,2,0,0,1-2.25.37,9.28,9.28,0,0,0-2.62-.62,14.47,14.47,0,0,0-4.88.31c-1.58.37-3.12.77-4.62,1.19s-2.94.85-4.32,1.31-2.64.94-3.81,1.44a80.43,80.43,0,0,0-7.87,3.06q-3.75,1.68-7.38,3.56-.63,3.87-1.12,8t-1,8.5c-.09.92-.19,1.86-.32,2.81a13.36,13.36,0,0,0-.06,2.82,9.78,9.78,0,0,0,.5,2.06c.25.71.46,1.39.63,2.06a80.14,80.14,0,0,1,2,23.63c0,.91-.05,1.85-.13,2.81a12,12,0,0,1-.5,2.62,4.69,4.69,0,0,1-1.12,1.94,2.71,2.71,0,0,1-2,.75,2.47,2.47,0,0,1-1.82-.69,4.82,4.82,0,0,1-1.06-1.68,11.09,11.09,0,0,1-.56-2.13c-.13-.75-.23-1.46-.31-2.12A74.66,74.66,0,0,1,467,132.79q-.06-6.19.32-12.56c.08-.84.18-1.67.31-2.5a9.59,9.59,0,0,0,.06-2.38,5.31,5.31,0,0,0-.69-2c-.37-.67-.73-1.33-1.06-2a18.17,18.17,0,0,0-2.19-3.62l-2.56-3.25c-.42-.5-.85-1.07-1.31-1.69a3.41,3.41,0,0,1-.69-2.06,3.75,3.75,0,0,1,.5-1.88,7.64,7.64,0,0,1,1.25-1.62,9.81,9.81,0,0,1,1.63-1.32c.58-.37,1.08-.73,1.5-1.06,1.16-.75,2.27-1.39,3.31-1.94s2.19-1.14,3.44-1.81q1.13-6.12,2.93-12.56a102.87,102.87,0,0,1,4.07-11.81,34.78,34.78,0,0,1,2.68-4.88,8.59,8.59,0,0,1,4.07-3.37c0,.08.08,0,.25-.13a4.57,4.57,0,0,1,2.87.56c.67.46,1.33.94,2,1.44a8.53,8.53,0,0,0,1.06,1.38A1.17,1.17,0,0,1,490.82,63.35ZM463.69,100.6a33,33,0,0,1,2.56,2.88,25.28,25.28,0,0,1,2.19,3.25q.38-2.62.69-5.32c.21-1.79.48-3.52.81-5.18l-.12-.13c-1.09.75-2.17,1.46-3.25,2.13A12.74,12.74,0,0,0,463.69,100.6Z"/><path class="cls-3" d="M500.82,98.1a24.23,24.23,0,0,0-1.63,4.56,21.33,21.33,0,0,0-.75,5.5,9.38,9.38,0,0,0,1.13,4.69,4.45,4.45,0,0,0,4,2.13,12.38,12.38,0,0,0,6.18-1.38q2.94-1.5,5.07-2.87,2.49-1.76,4.68-3.44t3.94-3.31a68.74,68.74,0,0,0,6.19-5.38c2-1.92,3.89-3.87,5.81-5.87a3.08,3.08,0,0,0,.81-1,11.91,11.91,0,0,1,.94-1.38,6.25,6.25,0,0,1,1.06-1.06,1,1,0,0,1,1.19-.06c.58.25.71.75.38,1.5a9.09,9.09,0,0,1-.88,1.62,4.63,4.63,0,0,1-.75,1.38c-.33.41-.67.87-1,1.37a92.89,92.89,0,0,1-6.56,6.88q-3.43,3.24-7.06,6.5a51.47,51.47,0,0,1-10.5,7.5,26.4,26.4,0,0,1-3.13,1.43,17.34,17.34,0,0,1-3.62,1,16.77,16.77,0,0,1-3.82.19,7.65,7.65,0,0,1-3.56-1.12,6,6,0,0,1-1.31-1.19l-1.19-1.44a11.83,11.83,0,0,1-1.56-5.31,23.87,23.87,0,0,1,.37-5.94,36.55,36.55,0,0,1,1.57-5.75,35.09,35.09,0,0,1,2-4.62,51.32,51.32,0,0,1,5-7.38,14.63,14.63,0,0,1,7.62-4.75,6,6,0,0,1,4.19,1.13c1,.83,1.48,2.16,1.31,4a8.21,8.21,0,0,1-1.5,3.75,25.69,25.69,0,0,1-2.62,3.12A28.4,28.4,0,0,1,507.88,97,10.29,10.29,0,0,1,500.82,98.1Zm11.62-13.37a12.88,12.88,0,0,0-6.62,4.56,45.28,45.28,0,0,0-4.25,6.94A7.82,7.82,0,0,0,506.19,95a34.47,34.47,0,0,0,3.25-2.63q1.38-1.5,2.88-3a5.39,5.39,0,0,0,1.37-4.25A1.34,1.34,0,0,0,512.44,84.73Z"/><path class="cls-3" d="M543.06,75.35q10.76-.37,22.38-1.12a165.12,165.12,0,0,1,23.12.12q.63,0,1.38.06a1.09,1.09,0,0,1,1,.69c-.09.67-.4,1-.94,1a7.75,7.75,0,0,1-1.44-.12,225.51,225.51,0,0,0-23.12.18q-11.51.69-22.63,1.32-1.74,10.24-3.18,20.87a153.78,153.78,0,0,0-1.32,22.25c0,1.08,0,2.29.13,3.63a25.17,25.17,0,0,0,.5,3.75c.16.91.44,2,.81,3.37s.94,2,1.69,2.13a1.69,1.69,0,0,0,1.31-.38,11.25,11.25,0,0,0,1.38-1.19,15.23,15.23,0,0,0,1.25-1.43c.37-.5.64-.88.81-1.13A122.86,122.86,0,0,0,555.13,116q3.93-6.81,8.31-14.19c.75-1.33,1.54-2.71,2.37-4.12s1.75-2.84,2.75-4.25A12.76,12.76,0,0,1,569.69,92a1.08,1.08,0,0,1,1.25-.44c.66.33.79.86.37,1.56a17.64,17.64,0,0,1-1,1.57q-3.12,5.25-5.87,10.62c-1.84,3.58-3.79,7.13-5.88,10.63-1.16,1.91-2.31,3.85-3.43,5.81s-2.32,3.89-3.57,5.81-2.54,3.79-3.87,5.63a13.45,13.45,0,0,1-5.13,4.25,7.21,7.21,0,0,1-2.62,0,7.73,7.73,0,0,1-4.31-4.69,34.2,34.2,0,0,1-1.69-7.06,53.46,53.46,0,0,1-.63-8.32c0-2.87.09-5.68.25-8.43q.63-8.39,1.69-16.19t2.56-14.94q-5.74.25-11.68.88t-12.07.87q-.75,0-1.68.06c-.63,0-1-.27-1.07-.93a.89.89,0,0,1,1-1,11.08,11.08,0,0,0,1.75-.13q5.88-.37,12-1t12.13-.87c.5-1.75,1.06-3.82,1.69-6.19A49.92,49.92,0,0,1,542.06,63a9.65,9.65,0,0,1,.94-2.07,2,2,0,0,1,1.69-1.18,1.29,1.29,0,0,1,1.19.5,1.91,1.91,0,0,1,.25,1.18,11.46,11.46,0,0,1-.25,1.44c-.13.5-.23,1-.32,1.38-.41,1.83-.83,3.73-1.25,5.68S543.48,73.68,543.06,75.35Z"/><path class="cls-3" d="M594.06,117.1q4.76-5.13,9.32-10.81T612.56,95l3-3.75a5.56,5.56,0,0,0,1.57-1.88,1.75,1.75,0,0,1,2.31-.75,1.05,1.05,0,0,1-.13,1.44,3.73,3.73,0,0,0-.87,1.06q-6.13,8.25-12.44,16.06t-12.94,15.69q-2,11.63-4.56,22.81a82.88,82.88,0,0,1-7.31,20.19c-1.09,1.92-2.23,3.77-3.44,5.56a15,15,0,0,1-4.69,4.44,17,17,0,0,1-2.06.63,5,5,0,0,1-6.12-3.82,15,15,0,0,1-.75-5.93,33,33,0,0,1,1.06-6.57,51.26,51.26,0,0,1,1.87-5.81,65.8,65.8,0,0,1,3-6.37l3-5.5a119.41,119.41,0,0,1,7.44-10.63q3.94-5,8.06-9.75,1.76-9.25,3.38-18.5t2.62-19.12a2.65,2.65,0,0,0-1.18,1.18,14.33,14.33,0,0,1-1.19,1.69A50,50,0,0,0,588.25,93q-1.82,3-3.69,5.93t-3.93,5.69a31.7,31.7,0,0,1-4.69,5,2.65,2.65,0,0,0-1,.38,2.91,2.91,0,0,1-1,.37h-1.38a4.49,4.49,0,0,1-3-2.19,11.87,11.87,0,0,1-1.56-4.25,21.43,21.43,0,0,1-.25-5.18,28.38,28.38,0,0,1,.81-5.13,7.3,7.3,0,0,1,.94-2.37,1.9,1.9,0,0,1,1.94-1,1.18,1.18,0,0,1,1.19.87,6.33,6.33,0,0,1,.31,2.06,16.87,16.87,0,0,1-.19,2.5,17.56,17.56,0,0,0-.19,2.32c0,1.5,0,3,.07,4.5a7.81,7.81,0,0,0,.93,3.75,16.76,16.76,0,0,0,6.07-5.44q2.31-3.44,4.93-6.69a37.22,37.22,0,0,1,2.38-3.31c.83-1,1.62-2.15,2.37-3.31a12.54,12.54,0,0,0,2.5-3.32,5.33,5.33,0,0,1,3-2.68c.75-.25,1.38.08,1.88,1a6.79,6.79,0,0,1,.69,4.06c-.13,1.79-.23,3.39-.32,4.81q-.62,6.5-1.37,13.44T594.06,117.1Zm-19.87,31a65.73,65.73,0,0,0-3.75,8.13,36,36,0,0,0-2.25,9.75,23.68,23.68,0,0,0,0,3.37,3.44,3.44,0,0,0,1.62,2.75,9.15,9.15,0,0,0,4-3.44,48.28,48.28,0,0,0,2.75-4.81,82.75,82.75,0,0,0,6.25-16.69q2.38-9.06,4.38-18.18c0-.09,0-.13-.13-.13q-3.37,4.38-6.68,9.13A98.82,98.82,0,0,0,574.19,148.1Z"/><path class="cls-2" d="M12.16,25.79c0,.73,0,1.38,0,1.95s0,1.11,0,1.6,0,.95.08,1.38.08.85.15,1.28H10.66a13.62,13.62,0,0,1-.2-2.4H10.4a5.44,5.44,0,0,1-2.06,2.11,6.49,6.49,0,0,1-3.12.67,7.53,7.53,0,0,1-1.89-.24,5,5,0,0,1-1.67-.76A4.25,4.25,0,0,1,.46,30,4.1,4.1,0,0,1,0,28a4,4,0,0,1,.86-2.69A5.55,5.55,0,0,1,3,23.82a10.27,10.27,0,0,1,2.69-.64c1-.09,1.79-.14,2.51-.14h2.24v-.9a3.13,3.13,0,0,0-1.18-2.75,5.09,5.09,0,0,0-3-.83,6.78,6.78,0,0,0-4.51,1.66L.64,18.91a6.84,6.84,0,0,1,2.62-1.55,9.51,9.51,0,0,1,3-.53,6.7,6.7,0,0,1,4.29,1.27,4.87,4.87,0,0,1,1.6,4.08ZM8.32,24.58A16.26,16.26,0,0,0,6,24.74a7.79,7.79,0,0,0-2,.54,4,4,0,0,0-1.46,1,2.4,2.4,0,0,0-.54,1.6,2.38,2.38,0,0,0,.3,1.2A2.76,2.76,0,0,0,3,30a3.91,3.91,0,0,0,1.07.51,4.06,4.06,0,0,0,1.2.18,6.16,6.16,0,0,0,2.53-.45A4.27,4.27,0,0,0,9.39,29a4,4,0,0,0,.82-1.63,7.65,7.65,0,0,0,.22-1.84v-1Z"/><path class="cls-2" d="M39.2,29.82a6.74,6.74,0,0,1-5.44,2.56,8.47,8.47,0,0,1-3.14-.57,7.08,7.08,0,0,1-2.46-1.62,7.37,7.37,0,0,1-1.6-2.46,8.68,8.68,0,0,1,0-6.24A7.52,7.52,0,0,1,28.16,19a7.06,7.06,0,0,1,2.46-1.61,8.28,8.28,0,0,1,3.14-.58,6.92,6.92,0,0,1,3,.67,7.91,7.91,0,0,1,2.48,1.89l-1.53,1.15a6.88,6.88,0,0,0-1.83-1.45,4.49,4.49,0,0,0-2.14-.53,5.92,5.92,0,0,0-2.43.48,5.5,5.5,0,0,0-3,3.22,7.1,7.1,0,0,0,0,4.7,5.51,5.51,0,0,0,1.17,1.92,5.66,5.66,0,0,0,1.86,1.3,5.92,5.92,0,0,0,2.43.48A4.52,4.52,0,0,0,36,30.1a5.81,5.81,0,0,0,1.75-1.49Z"/><path class="cls-2" d="M42,24.61a8.33,8.33,0,0,1,.57-3.12A7.68,7.68,0,0,1,44.19,19a7.1,7.1,0,0,1,2.47-1.61,8.22,8.22,0,0,1,3.13-.58,8.14,8.14,0,0,1,3.12.58A7.15,7.15,0,0,1,57,21.49a8.68,8.68,0,0,1,0,6.24,7.25,7.25,0,0,1-1.61,2.46,7.41,7.41,0,0,1-2.47,1.62,8.33,8.33,0,0,1-3.12.57,8.42,8.42,0,0,1-3.13-.57,7.12,7.12,0,0,1-2.47-1.62,7.53,7.53,0,0,1-1.6-2.46A8.33,8.33,0,0,1,42,24.61Zm1.92,0A7,7,0,0,0,44.33,27a5.51,5.51,0,0,0,1.17,1.92,5.76,5.76,0,0,0,1.86,1.3,6.39,6.39,0,0,0,4.86,0,5.66,5.66,0,0,0,1.86-1.3A5.51,5.51,0,0,0,55.25,27a7.1,7.1,0,0,0,0-4.7,5.5,5.5,0,0,0-3-3.22,6.39,6.39,0,0,0-4.86,0,5.62,5.62,0,0,0-1.86,1.3,5.51,5.51,0,0,0-1.17,1.92A7,7,0,0,0,43.94,24.61Z"/><path class="cls-2" d="M62.46,21.38c0-.28,0-.62,0-1s0-.8,0-1.2,0-.79-.05-1.14,0-.62,0-.81h1.92c0,.55,0,1.08,0,1.6a5.19,5.19,0,0,0,.08,1h.1a5.16,5.16,0,0,1,1.92-2.1,5.62,5.62,0,0,1,3.13-.88,5,5,0,0,1,2.69.75A4.29,4.29,0,0,1,74,20a4.78,4.78,0,0,1,2.1-2.43A6,6,0,0,1,79,16.83a6.18,6.18,0,0,1,2.82.55A4.38,4.38,0,0,1,83.5,18.8a5.3,5.3,0,0,1,.87,2,11.62,11.62,0,0,1,.24,2.37V32H82.69V23.3a10.08,10.08,0,0,0-.16-1.75A4.92,4.92,0,0,0,82,20,3,3,0,0,0,80.85,19a3.83,3.83,0,0,0-1.88-.4,4.37,4.37,0,0,0-2.2.5,3.85,3.85,0,0,0-1.36,1.26A5.31,5.31,0,0,0,74.7,22a7.52,7.52,0,0,0-.21,1.7V32H72.57V23.1a6.33,6.33,0,0,0-.75-3.29,2.52,2.52,0,0,0-2.32-1.25,5.38,5.38,0,0,0-2,.37,4.26,4.26,0,0,0-1.63,1.12,5.43,5.43,0,0,0-1.09,1.89,8.16,8.16,0,0,0-.4,2.67V32H62.46Z"/><path class="cls-2" d="M90.37,21.38c0-.28,0-.62,0-1s0-.8,0-1.2,0-.79-.05-1.14,0-.62,0-.81h1.92c0,.55,0,1.08,0,1.6a6.24,6.24,0,0,0,.08,1h.1a5.16,5.16,0,0,1,1.92-2.1,5.66,5.66,0,0,1,3.14-.88,5,5,0,0,1,2.68.75A4.25,4.25,0,0,1,101.85,20,4.78,4.78,0,0,1,104,17.6a6,6,0,0,1,2.93-.77,6.16,6.16,0,0,1,2.81.55,4.49,4.49,0,0,1,1.72,1.42,5.45,5.45,0,0,1,.86,2,11.62,11.62,0,0,1,.24,2.37V32h-1.92V23.3a9.19,9.19,0,0,0-.16-1.75,4.68,4.68,0,0,0-.56-1.52A3,3,0,0,0,108.75,19a3.79,3.79,0,0,0-1.87-.4,4.41,4.41,0,0,0-2.21.5,3.85,3.85,0,0,0-1.36,1.26,5.29,5.29,0,0,0-.7,1.66,7.52,7.52,0,0,0-.21,1.7V32h-1.92V23.1a6.33,6.33,0,0,0-.75-3.29,2.53,2.53,0,0,0-2.32-1.25,5.34,5.34,0,0,0-2,.37,4.29,4.29,0,0,0-1.64,1.12,5.42,5.42,0,0,0-1.08,1.89,7.9,7.9,0,0,0-.4,2.67V32H90.37Z"/><path class="cls-2" d="M118.11,11.36a1.43,1.43,0,0,1,1.44-1.44,1.36,1.36,0,0,1,1,.42,1.37,1.37,0,0,1,.42,1,1.43,1.43,0,0,1-1.44,1.44,1.37,1.37,0,0,1-1-.42A1.36,1.36,0,0,1,118.11,11.36Zm.48,5.86h1.92V32h-1.92Z"/><path class="cls-2" d="M133.82,18.94H129.6v9.64a1.89,1.89,0,0,0,2.05,2.08,4.22,4.22,0,0,0,1.1-.15,6.44,6.44,0,0,0,1.07-.37l.16,1.73a9.57,9.57,0,0,1-1.25.35,5.47,5.47,0,0,1-1.24.16,4.63,4.63,0,0,1-1.76-.3,3,3,0,0,1-1.19-.82,3,3,0,0,1-.65-1.2,5,5,0,0,1-.21-1.48V18.94h-3.2V17.22h3.2V13h1.92v4.26h4.22Z"/><path class="cls-2" d="M137.85,21.38c0-.28,0-.62,0-1s0-.8,0-1.2,0-.79,0-1.14,0-.62,0-.81h1.92c0,.55,0,1.08,0,1.6a5.19,5.19,0,0,0,.08,1h.1a5.16,5.16,0,0,1,1.92-2.1,5.62,5.62,0,0,1,3.13-.88,5,5,0,0,1,2.69.75A4.29,4.29,0,0,1,149.34,20a4.78,4.78,0,0,1,2.1-2.43,6,6,0,0,1,2.93-.77,6.16,6.16,0,0,1,2.81.55,4.38,4.38,0,0,1,1.71,1.42,5.3,5.3,0,0,1,.87,2A11.62,11.62,0,0,1,160,23.2V32h-1.92V23.3a10.08,10.08,0,0,0-.16-1.75,4.92,4.92,0,0,0-.56-1.52A3,3,0,0,0,156.24,19a3.81,3.81,0,0,0-1.87-.4,4.38,4.38,0,0,0-2.21.5,3.85,3.85,0,0,0-1.36,1.26,5.31,5.31,0,0,0-.71,1.66,8.09,8.09,0,0,0-.2,1.7V32H148V23.1a6.33,6.33,0,0,0-.76-3.29,2.52,2.52,0,0,0-2.32-1.25,5.38,5.38,0,0,0-2,.37,4.26,4.26,0,0,0-1.63,1.12,5.43,5.43,0,0,0-1.09,1.89,8.16,8.16,0,0,0-.4,2.67V32h-1.92Z"/><path class="cls-2" d="M178.81,29.22a6.46,6.46,0,0,1-2.76,2.43,8.83,8.83,0,0,1-3.64.73,8,8,0,0,1-3.07-.57A6.9,6.9,0,0,1,167,30.19a7.18,7.18,0,0,1-1.52-2.46,9.05,9.05,0,0,1-.52-3.15,8.56,8.56,0,0,1,.54-3.08,7.32,7.32,0,0,1,3.87-4.08,7.41,7.41,0,0,1,3-.59,7.19,7.19,0,0,1,3,.59,6.45,6.45,0,0,1,3.5,3.8,7.36,7.36,0,0,1,.45,2.52v1.35H166.85a6.6,6.6,0,0,0,.24,1.55A5.58,5.58,0,0,0,169.68,30a5.38,5.38,0,0,0,2.77.64,6.13,6.13,0,0,0,2.84-.71A5.2,5.2,0,0,0,177.41,28Zm-1.47-5.86a4.35,4.35,0,0,0-.4-1.86A5.11,5.11,0,0,0,175.85,20a5.25,5.25,0,0,0-3.63-1.42,4.9,4.9,0,0,0-2.61.64A5.76,5.76,0,0,0,168,20.67a5.87,5.87,0,0,0-.87,1.62,4.2,4.2,0,0,0-.25,1.07Z"/><path class="cls-2" d="M184.16,21.38c0-.28,0-.62,0-1s0-.8,0-1.2,0-.79-.05-1.14,0-.62,0-.81h1.92c0,.55,0,1.08.05,1.6a4.45,4.45,0,0,0,.08,1h.09a5.3,5.3,0,0,1,1.92-2.1,5.66,5.66,0,0,1,3.14-.88,6.16,6.16,0,0,1,2.81.55,4.49,4.49,0,0,1,1.72,1.42,5.45,5.45,0,0,1,.86,2,11.62,11.62,0,0,1,.24,2.37V32h-1.92V23.3a9.19,9.19,0,0,0-.16-1.75,4.68,4.68,0,0,0-.56-1.52A3,3,0,0,0,193.07,19a3.79,3.79,0,0,0-1.87-.4,5.34,5.34,0,0,0-2,.37,4.29,4.29,0,0,0-1.64,1.12,5.42,5.42,0,0,0-1.08,1.89,7.9,7.9,0,0,0-.4,2.67V32h-1.92Z"/><path class="cls-2" d="M209.82,18.94H205.6v9.64a1.89,1.89,0,0,0,2.05,2.08,4.22,4.22,0,0,0,1.1-.15,6.44,6.44,0,0,0,1.07-.37l.16,1.73a9.57,9.57,0,0,1-1.25.35,5.47,5.47,0,0,1-1.24.16,4.63,4.63,0,0,1-1.76-.3,3,3,0,0,1-1.19-.82,3,3,0,0,1-.65-1.2,5,5,0,0,1-.21-1.48V18.94h-3.2V17.22h3.2V13h1.92v4.26h4.22Z"/><path class="cls-2" d="M230,18.94h-4.22v9.64a1.89,1.89,0,0,0,2.05,2.08,4.22,4.22,0,0,0,1.1-.15,6.14,6.14,0,0,0,1.07-.37l.17,1.73a10,10,0,0,1-1.25.35,5.55,5.55,0,0,1-1.25.16,4.66,4.66,0,0,1-1.76-.3,2.94,2.94,0,0,1-1.18-.82,3.19,3.19,0,0,1-.66-1.2,5,5,0,0,1-.21-1.48V18.94h-3.2V17.22h3.2V13h1.92v4.26H230Z"/><path class="cls-2" d="M233.24,24.61a8.33,8.33,0,0,1,.58-3.12,7.52,7.52,0,0,1,1.6-2.47,7.06,7.06,0,0,1,2.46-1.61,8.28,8.28,0,0,1,3.14-.58,8.14,8.14,0,0,1,3.12.58,7.22,7.22,0,0,1,4.08,4.08,8.68,8.68,0,0,1,0,6.24,7.13,7.13,0,0,1-1.62,2.46,7.27,7.27,0,0,1-2.46,1.62,8.33,8.33,0,0,1-3.12.57,8.47,8.47,0,0,1-3.14-.57,7.08,7.08,0,0,1-2.46-1.62,7.37,7.37,0,0,1-1.6-2.46A8.33,8.33,0,0,1,233.24,24.61Zm1.92,0a7,7,0,0,0,.4,2.35,5.51,5.51,0,0,0,1.17,1.92,5.66,5.66,0,0,0,1.86,1.3,6.39,6.39,0,0,0,4.86,0,5.66,5.66,0,0,0,1.86-1.3A5.51,5.51,0,0,0,246.48,27a7.1,7.1,0,0,0,0-4.7,5.5,5.5,0,0,0-3-3.22,6.39,6.39,0,0,0-4.86,0,5.5,5.5,0,0,0-3,3.22A7,7,0,0,0,235.16,24.61Z"/></g></g></svg>