<svg xmlns="http://www.w3.org/2000/svg" viewBox="0 0 444.16 101.77"><defs><style>.cls-1{fill:#53575a;}.cls-2{fill:#ff8300;}</style></defs><g id="Layer_2" data-name="Layer 2"><g id="Layer_1-2" data-name="Layer 1"><path class="cls-1" d="M0,101.64v-.46H.06A24.74,24.74,0,0,0,3.8,101,4.87,4.87,0,0,0,6.21,100a4,4,0,0,0,1.26-2,11.34,11.34,0,0,0,.39-3.31V56.46q0-3.57-1.26-4.91c-.85-.88-2.35-1.39-4.52-1.52H0v-.39H24.76a26.73,26.73,0,0,1,7.54,1,16.49,16.49,0,0,1,5.2,2.8,10.93,10.93,0,0,1,3,4.06,13.25,13.25,0,0,1,1,5.23,11.68,11.68,0,0,1-4,9.3,15.5,15.5,0,0,1-5.2,2.79,13.46,13.46,0,0,1-3,.72c-1.06.13-2.18.23-3.35.32a9.71,9.71,0,0,1,2.9,1.37,14.6,14.6,0,0,1,3.47,3.57l12.22,17a6.59,6.59,0,0,0,2.18,1.91,12.45,12.45,0,0,0,2.47,1,10.53,10.53,0,0,0,2.11.43l1.11.06h.06v.46h-13l-15.86-22a15.29,15.29,0,0,0-1.78-2,7.31,7.31,0,0,0-1.56-1.14A5.3,5.3,0,0,0,18.78,76a8,8,0,0,0-1.49-.13H14.88v19a12.36,12.36,0,0,0,.3,3,4.14,4.14,0,0,0,1,1.89,4.31,4.31,0,0,0,1.79,1.07,10.18,10.18,0,0,0,2.73.42h2v.46H0Zm14.88-26.2h9.36a9.35,9.35,0,0,0,5.46-1.62,9.81,9.81,0,0,0,1.47-1.34,11.06,11.06,0,0,0,1.39-1.91A15.57,15.57,0,0,0,33.8,67a19.49,19.49,0,0,0,.45-4.32,15.17,15.17,0,0,0-2.4-9A8.81,8.81,0,0,0,24.24,50H20a8.46,8.46,0,0,0-2.41.52A4,4,0,0,0,16,51.65a4.37,4.37,0,0,0-.88,1.89,13.61,13.61,0,0,0-.26,2.86v19Z"/><path class="cls-1" d="M89,100.53a15.81,15.81,0,0,0,3.81-1.69,14.07,14.07,0,0,0,2.89-2.37,19.34,19.34,0,0,0,2.14-2.76,22.18,22.18,0,0,0,2.93-7.54h.45l-1.88,15.47h-43v-.46a24.74,24.74,0,0,0,3.74-.23,5.06,5.06,0,0,0,2.44-.94,3.9,3.9,0,0,0,1.3-2,11.34,11.34,0,0,0,.39-3.31V57.24a2.56,2.56,0,0,0,0-.39,2.58,2.58,0,0,1,0-.39q0-3.57-1.26-4.91c-.85-.88-2.35-1.39-4.52-1.52H56.29v-.39H97.5V63.29H97v-.07c-.34-1.43-.74-2.92-1.2-4.48a13.27,13.27,0,0,0-2.11-4.26,11,11,0,0,0-3.9-3.19A14.35,14.35,0,0,0,83.33,50H71.11V75.44H80.4a7.34,7.34,0,0,0,4.39-1.27,8.48,8.48,0,0,0,3.41-5.55,16.71,16.71,0,0,0,.2-1.82v-.2h.45V84.74H88.4v-.2a18.35,18.35,0,0,0-.2-1.88,8.36,8.36,0,0,0-1-3,8.06,8.06,0,0,0-2.5-2.7,7.82,7.82,0,0,0-4.58-1.17h-9V93.64a7.62,7.62,0,0,1,.06,1.17,12.36,12.36,0,0,0,.3,3,4.14,4.14,0,0,0,1,1.89,4.31,4.31,0,0,0,1.79,1.07,10.18,10.18,0,0,0,2.73.42h7.21A16.66,16.66,0,0,0,89,100.53Z"/><path class="cls-1" d="M106.92,85.13h.52a15.61,15.61,0,0,0,.33,3,24,24,0,0,0,.91,3.31,20.06,20.06,0,0,0,1.43,3.16A9.24,9.24,0,0,0,112,97a15.75,15.75,0,0,0,4.68,2.83,16.18,16.18,0,0,0,5.53,1.07h.58a18,18,0,0,0,5.53-1.1,10.66,10.66,0,0,0,4.42-3.71,9.65,9.65,0,0,0,1.72-5.17,10,10,0,0,0-1.53-5.52,12.91,12.91,0,0,0-5.33-4.71l-8.19-4.23a24.16,24.16,0,0,1-6.5-4.58,15.49,15.49,0,0,1-3.41-5.14,11.38,11.38,0,0,1-.75-5.23,12.33,12.33,0,0,1,1.56-4.87,14.27,14.27,0,0,1,3.48-4,17.62,17.62,0,0,1,5-2.8,11.59,11.59,0,0,1,2.6-.71,18,18,0,0,1,2.67-.2A15.68,15.68,0,0,1,129.87,50c.69.26,1.43.52,2.21.78a8.8,8.8,0,0,0,2.34.45,4.86,4.86,0,0,0,2.21-.39,4.15,4.15,0,0,0,1.82-1.75h.45v14.1h-.52a10.59,10.59,0,0,0-.42-2.86,15.23,15.23,0,0,0-1.14-2.89,16.71,16.71,0,0,0-1.62-2.6,15.71,15.71,0,0,0-1.82-2,13.19,13.19,0,0,0-4.29-2.57,14.76,14.76,0,0,0-5.07-.87,15.44,15.44,0,0,0-2.24.16,13.59,13.59,0,0,0-2.18.49A9.38,9.38,0,0,0,115,53.15a6.64,6.64,0,0,0-1.36,4.94A11.49,11.49,0,0,0,116.48,64a28.74,28.74,0,0,0,8.12,6.28l7.48,3.83a18.94,18.94,0,0,1,5.65,4.45A13.6,13.6,0,0,1,140.59,84a11.62,11.62,0,0,1,.07,5.59,11.92,11.92,0,0,1-2.7,5.16,17.4,17.4,0,0,1-5.43,4.1,25.3,25.3,0,0,1-8.12,2.37h.13l-.94.1c-.29,0-.58,0-.88,0h-.65a15.09,15.09,0,0,1-5.66-1.1v0c-.26-.09-.47-.18-.65-.26a11.75,11.75,0,0,0-4.29-1,5.39,5.39,0,0,0-2.5.52,2.72,2.72,0,0,0-1.2,1.17,8.14,8.14,0,0,0-.39.88v.06h-.46Z"/><path class="cls-1" d="M145.4,75.18A28,28,0,0,1,147.22,65a25.15,25.15,0,0,1,4.88-8.39A21.68,21.68,0,0,1,159.25,51a20.13,20.13,0,0,1,8.9-2.08h3.77A20,20,0,0,1,180.76,51,21.48,21.48,0,0,1,188,56.59,27.73,27.73,0,0,1,193,65a30.47,30.47,0,0,1,0,20.41A27.8,27.8,0,0,1,188,93.77a21.48,21.48,0,0,1-7.28,5.59,20,20,0,0,1-8.84,2.08h-3.77a20.13,20.13,0,0,1-8.9-2.08,21.68,21.68,0,0,1-7.15-5.59,25.11,25.11,0,0,1-4.88-8.38A28,28,0,0,1,145.4,75.18Zm7.09,0a40,40,0,0,0,1.2,9.95,27.11,27.11,0,0,0,3.61,8.32,13.45,13.45,0,0,0,1,1.49,12.12,12.12,0,0,0,1.13,1.3,16.8,16.8,0,0,0,3.94,3,31.07,31.07,0,0,0,3.08,1.47l1.24.26a7.47,7.47,0,0,0,1.36.13H171a6.43,6.43,0,0,0,1.3-.13c.39-.09.83-.18,1.3-.26.74-.31,1.75-.79,3-1.47a17.83,17.83,0,0,0,4-3c.35-.39.71-.82,1.08-1.3s.72-1,1.07-1.49a28.16,28.16,0,0,0,3.64-8.32,40.82,40.82,0,0,0,0-19.89,28,28,0,0,0-3.64-8.32c-.35-.52-.71-1-1.07-1.5s-.73-.91-1.08-1.3a17.83,17.83,0,0,0-4-3c-1.28-.67-2.29-1.16-3-1.46l-1.3-.23a7.39,7.39,0,0,0-1.3-.1h-1.95a10.59,10.59,0,0,0-2.6.33,30.6,30.6,0,0,0-3.08,1.46,16.8,16.8,0,0,0-3.94,3,12.12,12.12,0,0,0-1.13,1.3,13.57,13.57,0,0,0-1,1.5,27,27,0,0,0-3.61,8.32A39.87,39.87,0,0,0,152.49,75.18Z"/><path class="cls-1" d="M232.5,49.51h22.69V50h-1q-1,.06-2.73.33a10.92,10.92,0,0,0-3.34,1.1,8.46,8.46,0,0,0-2.87,2.41,6.63,6.63,0,0,0-1.2,4.16V86.1a13.75,13.75,0,0,1-1.43,6.21,15.14,15.14,0,0,1-4.16,5.1,19.42,19.42,0,0,1-6.11,3.19,24,24,0,0,1-7.34,1.1h-.39a22.45,22.45,0,0,1-7.09-1.1,18.94,18.94,0,0,1-5.91-3.19,15.38,15.38,0,0,1-4.19-5.13A15.18,15.18,0,0,1,206,85.39V54.64a4.73,4.73,0,0,0-1.49-3.54A7.59,7.59,0,0,0,200.26,50h-2.08v-.52h22.69v.33l.06.06h-.06V50H218.2a6.56,6.56,0,0,0-3.51,1.11,4.5,4.5,0,0,0-1.49,3V84.93a21.32,21.32,0,0,0,1.17,7.15,14,14,0,0,0,3.48,5.53,12.57,12.57,0,0,0,5.62,3.08,15.39,15.39,0,0,0,7.6-.16A19.51,19.51,0,0,0,238.22,97a13.44,13.44,0,0,0,3.9-4.74,12.9,12.9,0,0,0,1.5-6.18V57.63a6.47,6.47,0,0,0-1.3-4,8.46,8.46,0,0,0-2.86-2.27,11.72,11.72,0,0,0-3.32-1c-1.12-.18-2-.29-2.66-.33h-1Z"/><path class="cls-1" d="M261,101.64v-.46h.06a24.74,24.74,0,0,0,3.74-.23,4.87,4.87,0,0,0,2.41-.94,4,4,0,0,0,1.26-2,11.34,11.34,0,0,0,.39-3.31V56.46q0-3.57-1.26-4.91T263.12,50H261v-.39H285.8a26.73,26.73,0,0,1,7.54,1,16.49,16.49,0,0,1,5.2,2.8,10.93,10.93,0,0,1,3,4.06,13.25,13.25,0,0,1,1,5.23,11.68,11.68,0,0,1-4,9.3,15.5,15.5,0,0,1-5.2,2.79,13.46,13.46,0,0,1-3,.72c-1.06.13-2.18.23-3.35.32a9.82,9.82,0,0,1,2.9,1.37,14.6,14.6,0,0,1,3.47,3.57l12.22,17a6.59,6.59,0,0,0,2.18,1.91,12.45,12.45,0,0,0,2.47,1,10.53,10.53,0,0,0,2.11.43l1.11.06h.06v.46h-13l-15.86-22a15.29,15.29,0,0,0-1.78-2,7.84,7.84,0,0,0-1.56-1.14,5.3,5.3,0,0,0-1.47-.52,8,8,0,0,0-1.49-.13h-2.41v19a12.36,12.36,0,0,0,.3,3,4.14,4.14,0,0,0,1,1.89,4.31,4.31,0,0,0,1.79,1.07,10,10,0,0,0,2.73.42h2v.46H261Zm14.88-26.2h9.36a9.35,9.35,0,0,0,5.46-1.62,9.81,9.81,0,0,0,1.47-1.34,11.62,11.62,0,0,0,1.39-1.91A16.07,16.07,0,0,0,294.84,67a19.49,19.49,0,0,0,.45-4.32,15.17,15.17,0,0,0-2.4-9,8.81,8.81,0,0,0-7.61-3.7h-4.22a8.39,8.39,0,0,0-2.41.52,4,4,0,0,0-1.59,1.1,4.37,4.37,0,0,0-.88,1.89,13.61,13.61,0,0,0-.26,2.86v19Z"/><path class="cls-1" d="M312.91,75.57v-.06h-.26a29.67,29.67,0,0,1,.45-5.2,30,30,0,0,1,1.37-5,26,26,0,0,1,8.29-11.5,19.05,19.05,0,0,1,3.86-2.41,19.62,19.62,0,0,1,8.91-2.08,16.12,16.12,0,0,1,6.37,1.24H342a.43.43,0,0,0,.26.13l.07.06.88.39a9.26,9.26,0,0,1,.87.46,13.49,13.49,0,0,0,5.33,1.62,5.37,5.37,0,0,0,2.93-.65,3.28,3.28,0,0,0,1.49-2.27h.46V69.2h-.46a31.28,31.28,0,0,0-.94-4.55,30.81,30.81,0,0,0-1.46-4,23.5,23.5,0,0,0-1.92-3.28,19.63,19.63,0,0,0-2.31-2.76,16.64,16.64,0,0,0-5.46-3.64,16.81,16.81,0,0,0-5.2-1.17,11.65,11.65,0,0,0-6.5,2,18.71,18.71,0,0,0-5.33,5.53,30,30,0,0,0-3.6,8.22,36.68,36.68,0,0,0-1.34,10,35.22,35.22,0,0,0,2.18,12.61,25.22,25.22,0,0,0,5.69,9.17,17.77,17.77,0,0,0,3.18,2.3,18.26,18.26,0,0,0,2.6,1.21,6.83,6.83,0,0,0,1.53.35,12.34,12.34,0,0,0,1.59.1q1.37-.14,2.64-.39a14.38,14.38,0,0,0,2.56-.78,16.06,16.06,0,0,0,5.4-3.64,14.43,14.43,0,0,0,2.31-2.7,28.55,28.55,0,0,0,1.85-3.28,24.09,24.09,0,0,0,1.49-4,44.34,44.34,0,0,0,1-4.55l.45.07a29.75,29.75,0,0,1-2.53,8.71,21.47,21.47,0,0,1-4.23,6.17,18.28,18.28,0,0,1-5.59,3.64,15.77,15.77,0,0,1-6.3,1.24,19.75,19.75,0,0,1-8.91-2.08,22.81,22.81,0,0,1-7.21-5.59,26.5,26.5,0,0,1-4.94-8.32,30,30,0,0,1-1.37-5,29.67,29.67,0,0,1-.45-5.2Z"/><path class="cls-1" d="M392.14,100.53a15.56,15.56,0,0,0,3.8-1.69,14.14,14.14,0,0,0,2.9-2.37A20.09,20.09,0,0,0,401,93.71a22.39,22.39,0,0,0,2.93-7.54h.45l-1.88,15.47h-43v-.46a24.83,24.83,0,0,0,3.74-.23,5.06,5.06,0,0,0,2.44-.94,4,4,0,0,0,1.3-2,11.34,11.34,0,0,0,.39-3.31V57.24a1.72,1.72,0,0,0,0-.39,2.56,2.56,0,0,1,0-.39q0-3.57-1.27-4.91c-.84-.88-2.35-1.39-4.51-1.52h-2.08v-.39h41.21V63.29h-.46v-.07c-.35-1.43-.75-2.92-1.2-4.48a13.48,13.48,0,0,0-2.11-4.26,11.21,11.21,0,0,0-3.9-3.19,14.38,14.38,0,0,0-6.5-1.26H374.27V75.44h9.29A7.36,7.36,0,0,0,388,74.17a8.59,8.59,0,0,0,3.41-5.55,16.71,16.71,0,0,0,.2-1.82v-.2H392V84.74h-.45v-.2a18.35,18.35,0,0,0-.2-1.88,8.56,8.56,0,0,0-1-3,8.16,8.16,0,0,0-2.5-2.7,7.84,7.84,0,0,0-4.58-1.17h-9V93.64a7.62,7.62,0,0,1,.06,1.17,13,13,0,0,0,.29,3,4.15,4.15,0,0,0,1,1.89,4.24,4.24,0,0,0,1.79,1.07,10,10,0,0,0,2.73.42h7.21A16.66,16.66,0,0,0,392.14,100.53Z"/><path class="cls-1" d="M410.08,85.13h.52a15.61,15.61,0,0,0,.33,3,22.66,22.66,0,0,0,.91,3.31,19.19,19.19,0,0,0,1.43,3.16,9.24,9.24,0,0,0,1.88,2.4,15.75,15.75,0,0,0,4.68,2.83,16.14,16.14,0,0,0,5.53,1.07h.58a18.06,18.06,0,0,0,5.53-1.1,10.72,10.72,0,0,0,4.42-3.71,9.73,9.73,0,0,0,1.72-5.17,10.15,10.15,0,0,0-1.53-5.52,12.91,12.91,0,0,0-5.33-4.71l-8.19-4.23a24,24,0,0,1-6.5-4.58,15.49,15.49,0,0,1-3.41-5.14,11.38,11.38,0,0,1-.75-5.23,12.17,12.17,0,0,1,1.56-4.87,14.27,14.27,0,0,1,3.48-4,17.62,17.62,0,0,1,5-2.8,11.59,11.59,0,0,1,2.6-.71,18,18,0,0,1,2.67-.2A15.76,15.76,0,0,1,433,50c.69.26,1.43.52,2.21.78a8.8,8.8,0,0,0,2.34.45,4.88,4.88,0,0,0,2.21-.39,4.15,4.15,0,0,0,1.82-1.75h.45v14.1h-.52a10.59,10.59,0,0,0-.42-2.86A15.23,15.23,0,0,0,440,57.47a17.5,17.5,0,0,0-1.62-2.6,16.48,16.48,0,0,0-1.82-2,13.19,13.19,0,0,0-4.29-2.57,14.84,14.84,0,0,0-5.07-.87,15.44,15.44,0,0,0-2.24.16,13.59,13.59,0,0,0-2.18.49,9.3,9.3,0,0,0-4.65,3.12,6.65,6.65,0,0,0-1.37,4.94,11.52,11.52,0,0,0,2.9,5.94,28.74,28.74,0,0,0,8.12,6.28l7.48,3.83a18.94,18.94,0,0,1,5.65,4.45A13.72,13.72,0,0,1,443.75,84a11.62,11.62,0,0,1,.07,5.59,12.13,12.13,0,0,1-2.7,5.16,17.63,17.63,0,0,1-5.43,4.1,25.3,25.3,0,0,1-8.12,2.37h.13c-.35,0-.66.08-.95.1s-.57,0-.87,0h-.65a15.09,15.09,0,0,1-5.66-1.1v0c-.26-.09-.47-.18-.65-.26a11.75,11.75,0,0,0-4.29-1,5.36,5.36,0,0,0-2.5.52,2.62,2.62,0,0,0-1.2,1.17,8.14,8.14,0,0,0-.39.88v.06h-.46Z"/><path class="cls-2" d="M22.06,42.39q2.34-5.58,5-10.71a28.52,28.52,0,0,1,7-8.73l.86-.36c.27-.12.58-.24.94-.36a3,3,0,0,1,2.7.81,4.87,4.87,0,0,1,1.17,2.48,8.31,8.31,0,0,1,0,3.1,12.26,12.26,0,0,1-.86,2.79,25.86,25.86,0,0,0,3.42-2.25q1.62-1.26,3.42-2.43c.84-.6,1.7-1.2,2.57-1.8s1.75-1.2,2.65-1.8a7.51,7.51,0,0,0,1-.49.87.87,0,0,1,1.08.13.83.83,0,0,1-.27,1.17q-.63.45-1.08.81Q47.89,27.36,44.38,30t-7.2,5.26A29.52,29.52,0,0,1,35,38.66a27.17,27.17,0,0,1-2.61,3c-.36.3-.79.71-1.3,1.22s-1,1-1.58,1.44a12.92,12.92,0,0,1-1.75,1.21,4.68,4.68,0,0,1-1.85.63q-2,.27-2.16-1.35a2.14,2.14,0,0,1,.5-1.89,16.71,16.71,0,0,1,1.3-1.26c.48-.48.92-.9,1.31-1.26s.79-.72,1.21-1.08A29.63,29.63,0,0,0,31,37.22a29.71,29.71,0,0,1,2.88-2.12c.42-.66.86-1.42,1.31-2.29s.85-1.76,1.21-2.66c.12-.42.26-.9.41-1.44a10.27,10.27,0,0,0,.31-1.62,5.18,5.18,0,0,0,0-1.53,2.37,2.37,0,0,0-.68-1.26,4.88,4.88,0,0,0-3.15,1.49A33.54,33.54,0,0,0,31,28.35a39.67,39.67,0,0,0-4.5,7.25,77.67,77.67,0,0,0-3.42,8.32c-.24.6-.46,1.19-.67,1.76a11.67,11.67,0,0,0-.5,1.75,18.89,18.89,0,0,0-.27,3.29c0,1.17,0,2.32-.09,3.46L21.16,61Q21,64.44,20.71,68c-.06.54-.1,1.09-.13,1.66a11.87,11.87,0,0,1-.18,1.58,3.44,3.44,0,0,1-.54,1.31,2.38,2.38,0,0,1-1.13.85h-.27a1.5,1.5,0,0,1-1.39-1.49,24.85,24.85,0,0,1-.14-2.56,41.85,41.85,0,0,1,.14-5.18c.15-1.65.34-3.31.58-5q.18-1.17.45-2.34t.45-2.34a39,39,0,0,0,.27-4.64c0-1.58.06-3.1.18-4.54q.36-5.76.68-11.34t.67-11.43V21a12.83,12.83,0,0,1,.09-1.58,3.28,3.28,0,0,1,.41-1.26,1.1,1.1,0,0,1,1-.54,1.09,1.09,0,0,1,1,.67,5.06,5.06,0,0,1,.4,1.63,10.9,10.9,0,0,1,0,2c-.06.69-.09,1.27-.09,1.75q-.36,4.68-.67,9.41T22.06,42.39Z"/><path class="cls-2" d="M62.92,21.15Q61.21,23.4,59.59,26t-3.24,5q-1.17,1.71-2.43,3.69A18.35,18.35,0,0,1,51,38.25a6.52,6.52,0,0,1-1.26,1.13,2,2,0,0,1-1.71.22,2.44,2.44,0,0,1-1.26-2,27.85,27.85,0,0,1,1.67-7.83,36.19,36.19,0,0,1,3.19-6.66c.42-.66.89-1.32,1.4-2a4.91,4.91,0,0,1,1.66-1.44,2.58,2.58,0,0,1,3,.14,3.22,3.22,0,0,1,.94,3.28,4.92,4.92,0,0,0,1-1.44c.39-.72.81-1.45,1.26-2.2a15.23,15.23,0,0,1,1.44-2,2.49,2.49,0,0,1,1.57-1,2,2,0,0,1,.63.09l.54.18a4.12,4.12,0,0,1,.9,1.71q-.18,5.4-.72,10.22t-.81,10.21V40.5q0,1-.09,2a9.28,9.28,0,0,1-.31,1.76c-.15.51-.41.76-.77.76a1,1,0,0,1-.94-.58A4.52,4.52,0,0,1,62,43a11.3,11.3,0,0,1-.14-1.76,9.15,9.15,0,0,0-.09-1.44,50.51,50.51,0,0,1,.18-9.54Q62.47,25.56,62.92,21.15Zm-6.48.18a.08.08,0,0,0-.09-.09,2.45,2.45,0,0,0-.49.23,2.52,2.52,0,0,1-.5.22,19.08,19.08,0,0,0-2.25,3.2,37.3,37.3,0,0,0-1.8,3.64c-.48,1.26-.94,2.6-1.39,4a19.65,19.65,0,0,0-.86,4.54,31.37,31.37,0,0,0,4.55-5.81c1.35-2.18,2.71-4.33,4.09-6.43a3.6,3.6,0,0,1-.45-1.93A1.54,1.54,0,0,0,56.44,21.33Z"/><path class="cls-2" d="M79.39,11.25q7.74-.27,16.11-.81a118.57,118.57,0,0,1,16.65.09c.3,0,.63,0,1,.05a.77.77,0,0,1,.72.49c-.06.48-.28.72-.67.72a5.37,5.37,0,0,1-1-.09,165,165,0,0,0-16.65.13q-8.28.51-16.29.95-1.26,7.38-2.29,15a110.57,110.57,0,0,0-1,16q0,1.17.09,2.61a18.36,18.36,0,0,0,.36,2.7c.12.66.32,1.47.59,2.43s.67,1.47,1.21,1.53a1.2,1.2,0,0,0,1-.27,9.35,9.35,0,0,0,1-.85,10.8,10.8,0,0,0,.9-1c.27-.36.46-.63.58-.81a86.86,86.86,0,0,0,6.44-9.59q2.83-4.89,6-10.21.81-1.44,1.71-3t2-3.06a8.72,8.72,0,0,1,.81-1,.79.79,0,0,1,.9-.32c.48.24.57.62.27,1.13A12.77,12.77,0,0,1,99,25.2Q96.76,29,94.78,32.85T90.55,40.5q-1.26,2.07-2.47,4.19t-2.57,4.18q-1.35,2.07-2.79,4.05A9.65,9.65,0,0,1,79,56a5,5,0,0,1-1.89,0A5.58,5.58,0,0,1,74,52.6a24.5,24.5,0,0,1-1.22-5.08,38.76,38.76,0,0,1-.45-6q0-3.1.18-6.08.45-6,1.22-11.65t1.84-10.76q-4.14.18-8.41.63t-8.69.63c-.36,0-.76,0-1.21,0s-.71-.19-.77-.67a.64.64,0,0,1,.72-.72,7.75,7.75,0,0,0,1.26-.09q4.23-.27,8.64-.72t8.73-.63c.36-1.26.77-2.75,1.22-4.46a36.25,36.25,0,0,1,1.57-4.72A7.12,7.12,0,0,1,79.35.85,1.43,1.43,0,0,1,80.56,0a.94.94,0,0,1,.86.36,1.36,1.36,0,0,1,.18.86,6.76,6.76,0,0,1-.18,1c-.09.36-.17.69-.23,1-.3,1.32-.6,2.69-.9,4.09S79.69,10.05,79.39,11.25Z"/><path class="cls-2" d="M99.91,22.41a1.36,1.36,0,0,1,.32,1c0,.36,0,.75,0,1.17-.06,1-.07,2.13,0,3.33s0,2.37,0,3.51,0,2.25,0,3.33a3.9,3.9,0,0,1-1,2.61h-.72A2.91,2.91,0,0,1,97.8,36a13.69,13.69,0,0,1-.32-2c-.06-1.32-.07-2.7,0-4.14a39,39,0,0,1,.31-4.23q.09-.54.18-1.26A4.83,4.83,0,0,1,98.25,23a1.54,1.54,0,0,1,.63-.77A1.06,1.06,0,0,1,99.91,22.41ZM100.36,5a2.05,2.05,0,0,1-.72,1.44,1,1,0,0,1-1-.18,1.45,1.45,0,0,1-.36-.86,1.1,1.1,0,0,1,.27-.85,1.11,1.11,0,0,1,1-.27Q100.27,4.59,100.36,5Z"/><path class="cls-2" d="M108.64,27.63a17.48,17.48,0,0,0-1.17,3.29,15.33,15.33,0,0,0-.54,4,6.75,6.75,0,0,0,.81,3.37,3.19,3.19,0,0,0,2.88,1.53,8.91,8.91,0,0,0,4.46-1,41.41,41.41,0,0,0,3.64-2.07c1.2-.84,2.33-1.66,3.38-2.47s2-1.61,2.83-2.39A49.66,49.66,0,0,0,129.39,28q2.12-2.07,4.18-4.23a2.21,2.21,0,0,0,.59-.72,8.15,8.15,0,0,1,.67-1,4.6,4.6,0,0,1,.77-.76.69.69,0,0,1,.85-.05q.63.27.27,1.08a6.42,6.42,0,0,1-.63,1.17,3.19,3.19,0,0,1-.54,1q-.36.45-.72,1a67,67,0,0,1-4.72,5q-2.48,2.34-5.09,4.68a36.92,36.92,0,0,1-7.56,5.4,19.91,19.91,0,0,1-2.25,1,12.93,12.93,0,0,1-2.61.72,11.92,11.92,0,0,1-2.74.13,5.51,5.51,0,0,1-2.57-.81,4.24,4.24,0,0,1-.94-.85l-.86-1a8.59,8.59,0,0,1-1.12-3.82,17.22,17.22,0,0,1,.27-4.28,27.52,27.52,0,0,1,2.56-7.47,37.44,37.44,0,0,1,3.6-5.31,10.54,10.54,0,0,1,5.49-3.42,4.36,4.36,0,0,1,3,.81,3.08,3.08,0,0,1,.94,2.88,5.84,5.84,0,0,1-1.08,2.7A17.82,17.82,0,0,1,117.28,24a20.21,20.21,0,0,1-3.55,2.84A7.42,7.42,0,0,1,108.64,27.63ZM117,18a9.34,9.34,0,0,0-4.77,3.29,32.6,32.6,0,0,0-3.06,5,5.61,5.61,0,0,0,3.33-.9,24.72,24.72,0,0,0,2.34-1.89q1-1.08,2.07-2.16a3.87,3.87,0,0,0,1-3.06A1,1,0,0,0,117,18Z"/><path class="cls-2" d="M134.83,36.27c1.2-2.28,2.4-4.6,3.6-7a33.42,33.42,0,0,1,4.23-6.43q.36-.45.9-1.08a6.58,6.58,0,0,1,1.17-1.08,3.94,3.94,0,0,1,1.4-.63,2.73,2.73,0,0,1,1.66.18,4.1,4.1,0,0,1,2,2.79q.63,2.16,1.08,4.32c.12.66.25,1.35.41,2.07s.31,1.44.49,2.16a15,15,0,0,0,.72,2,1.91,1.91,0,0,0,1.08,1.21,1.5,1.5,0,0,0,1.35-.31,11.06,11.06,0,0,1,1.08-.77c.36-.3.69-.55,1-.76a6.84,6.84,0,0,0,.9-.77,37.46,37.46,0,0,0,3.78-3.78,45.69,45.69,0,0,1,3.78-3.87,13.8,13.8,0,0,1,1.58-1,2.32,2.32,0,0,1,1.08-.32c.32,0,.52.21.58.63s-.13.66-.58.9a4.44,4.44,0,0,0-1,.72A22,22,0,0,0,164.53,28c-.84,1-1.74,2-2.7,3-.48.48-.94.93-1.39,1.35s-.92.87-1.4,1.35c-.78.78-1.62,1.55-2.52,2.29A5.25,5.25,0,0,1,153,37.17l-.4-.18a1.35,1.35,0,0,0-.5-.09,5.53,5.53,0,0,1-2.2-2.79,28.41,28.41,0,0,1-1.13-3.82c-.3-1.35-.58-2.71-.85-4.05a12.54,12.54,0,0,0-1.31-3.65,5.36,5.36,0,0,0-2.34,2,28.3,28.3,0,0,1-1.8,2.56,41.49,41.49,0,0,0-3.06,5.58q-1.35,3-2.61,6.12a5.65,5.65,0,0,0-.63,1.39,15.13,15.13,0,0,1-.63,1.67,4.43,4.43,0,0,1-.94,1.39,1.66,1.66,0,0,1-1.58.41,1.47,1.47,0,0,1-1.21-1,5.54,5.54,0,0,1-.5-2,21.18,21.18,0,0,1,0-2.42c0-.87.07-1.67.13-2.39.24-2.88.57-5.68,1-8.42a50.69,50.69,0,0,1,1.71-7.51q.36-1,.63-1.8a1.26,1.26,0,0,1,1.17-.9,1,1,0,0,1,1.13.5,2.67,2.67,0,0,1,.27,1.39A12.4,12.4,0,0,1,137,21c-.15.63-.26,1.15-.32,1.57q-.63,3.42-1.08,6.84T134.83,36.27Z"/><path class="cls-2" d="M172.09,11.25q7.74-.27,16.11-.81a118.57,118.57,0,0,1,16.65.09c.3,0,.63,0,1,.05a.77.77,0,0,1,.72.49c-.06.48-.29.72-.68.72a5.26,5.26,0,0,1-1-.09,165,165,0,0,0-16.65.13q-8.28.51-16.29.95-1.26,7.38-2.3,15a110.6,110.6,0,0,0-.94,16q0,1.17.09,2.61a18.36,18.36,0,0,0,.36,2.7c.12.66.32,1.47.59,2.43s.67,1.47,1.21,1.53a1.18,1.18,0,0,0,.94-.27,9.35,9.35,0,0,0,1-.85,10.8,10.8,0,0,0,.9-1c.27-.36.47-.63.59-.81a86.76,86.76,0,0,0,6.43-9.59q2.85-4.89,6-10.21.81-1.44,1.71-3t2-3.06a8.72,8.72,0,0,1,.81-1,.79.79,0,0,1,.9-.32c.48.24.57.62.27,1.13a12.77,12.77,0,0,1-.72,1.12q-2.25,3.78-4.23,7.65t-4.23,7.65q-1.26,2.07-2.48,4.19t-2.56,4.18q-1.35,2.07-2.79,4.05A9.65,9.65,0,0,1,171.73,56a5,5,0,0,1-1.89,0,5.6,5.6,0,0,1-3.11-3.38,25.15,25.15,0,0,1-1.21-5.08,38.76,38.76,0,0,1-.45-6q0-3.1.18-6.08.45-6,1.21-11.65t1.85-10.76q-4.14.18-8.41.63t-8.69.63c-.36,0-.77,0-1.21,0s-.71-.19-.77-.67A.64.64,0,0,1,150,13a7.75,7.75,0,0,0,1.26-.09q4.23-.27,8.64-.72t8.73-.63c.36-1.26.76-2.75,1.21-4.46a37.8,37.8,0,0,1,1.58-4.72A7,7,0,0,1,172,.85,1.44,1.44,0,0,1,173.26,0a.92.92,0,0,1,.85.36,1.36,1.36,0,0,1,.18.86,5.72,5.72,0,0,1-.18,1c-.09.36-.16.69-.22,1-.3,1.32-.6,2.69-.9,4.09S172.39,10.05,172.09,11.25Z"/><path class="cls-2" d="M255.16,23a7.41,7.41,0,0,0-2.7,2.16,8.93,8.93,0,0,0-1.13,1.44,2.9,2.9,0,0,0-.49,1.89,3.17,3.17,0,0,0,1,1.76c.54.51,1,1,1.44,1.39l1.39,1.4a13.05,13.05,0,0,1,1.22,1.39q2.25-1.62,4.27-3.37a39.29,39.29,0,0,1,4.37-3.29,32.88,32.88,0,0,1,3.37-2.25c1.23-.72,2.51-1.41,3.83-2.07l1.26-.63a1.23,1.23,0,0,1,1.35.09.93.93,0,0,1-.09.72,1.09,1.09,0,0,1-.54.41l-.72.27a1.07,1.07,0,0,0-.54.4,25,25,0,0,0-3.65,2c-1.11.75-2.23,1.48-3.37,2.2q-4.32,3.24-8.37,6.75a28.18,28.18,0,0,1,2.2,4.23A13.14,13.14,0,0,1,260.2,45a14.9,14.9,0,0,1-.9,5.76,16.45,16.45,0,0,1-2.7,4.68,19.91,19.91,0,0,1-3.87,3.42,8.48,8.48,0,0,1-5.22,1.53,6.24,6.24,0,0,1-2.07-.45,7.87,7.87,0,0,1-1.53-.9A9.2,9.2,0,0,1,242.47,57a6.68,6.68,0,0,1-.63-2.61A9.91,9.91,0,0,1,243,48.6a30.79,30.79,0,0,1,3-4.5,36.51,36.51,0,0,1,3.55-3.91q1.84-1.75,3.65-3.29a10.79,10.79,0,0,0-1.44-1.66c-.54-.51-1.08-1-1.62-1.58A16,16,0,0,1,248.63,32a6.92,6.92,0,0,1-1-2,4.63,4.63,0,0,1,0-3.64,14.58,14.58,0,0,1,1.76-2.93,24,24,0,0,1,1.75-1.75,8.15,8.15,0,0,1,2-1.31,9,9,0,0,1,1.35-.27,2.56,2.56,0,0,1,1.35.18,1.93,1.93,0,0,0,.49.5,1.46,1.46,0,0,1,.5.67,3,3,0,0,1,0,1.71c-.15.66-.37,1-.67,1s-.66-.06-.72-.36A2,2,0,0,0,255.16,23ZM254,38.52q-1.53,1.26-3.06,2.79a40.34,40.34,0,0,0-3,3.33c-.54.66-1.1,1.4-1.67,2.21a13.24,13.24,0,0,0-1.44,2.65,12.69,12.69,0,0,0-.81,3,7.36,7.36,0,0,0,.32,3.28A6.81,6.81,0,0,0,245.53,57a2.76,2.76,0,0,0,1.71.49,6.31,6.31,0,0,0,3.64-1.39,16.23,16.23,0,0,0,2.84-2.84,12.22,12.22,0,0,0,1.75-3.42,15.53,15.53,0,0,0,.81-4,12.88,12.88,0,0,0-.36-4,9.49,9.49,0,0,0-1.66-3.51.08.08,0,0,0-.09-.09Q254,38.43,254,38.52Zm-9.54,22.41q0,.09.18-.09Q244.63,60.93,244.45,60.93Z"/><path class="cls-2" d="M274.78,36.36a1.61,1.61,0,0,0,.76-.67c.21-.33.41-.65.59-.95.66-.84,1.3-1.74,1.93-2.7s1.28-1.86,1.94-2.7q.63-1,1.26-1.89a18.79,18.79,0,0,1,1.35-1.71,13.15,13.15,0,0,0,1.53-1.62,2.39,2.39,0,0,1,2.16-.81,2.22,2.22,0,0,1,1.57.77,5.13,5.13,0,0,1,.95,1.62,12.62,12.62,0,0,1,.58,2.11c.15.78.29,1.5.41,2.16s.27,1.25.45,1.94.39,1.36.63,2,.51,1.22.81,1.84A1.84,1.84,0,0,0,293,36.9a1.81,1.81,0,0,0,1.3-.13,8.31,8.31,0,0,0,1.31-.77,9.28,9.28,0,0,0,1.17-1l.81-.81a17.72,17.72,0,0,0,1.8-1.89q.81-1,1.8-2c.84-1,1.69-2,2.56-3s1.73-2,2.57-3.1A6.64,6.64,0,0,0,307,23a1.07,1.07,0,0,1,1.17-.63,1.05,1.05,0,0,1,.31,1.4,7.82,7.82,0,0,1-.76,1.21c-.3.42-.6.83-.9,1.22l-.81,1q-1.89,2.25-4,4.86a36.54,36.54,0,0,1-4.41,4.68,20.83,20.83,0,0,1-2.57,1.85,3.76,3.76,0,0,1-3.46,0,6.1,6.1,0,0,1-2.12-2.47,17.35,17.35,0,0,1-1.21-3.38c-.3-1.2-.59-2.43-.86-3.69a13.16,13.16,0,0,0-1.21-3.42,5.14,5.14,0,0,0-1.67,1.44c-.45.6-.91,1.23-1.39,1.89s-.92,1.31-1.31,1.94l-1.21,1.93q-1.26,2-2.43,4A8.6,8.6,0,0,1,275,40.05a2.53,2.53,0,0,1-1.67-.18,3.7,3.7,0,0,1-1.12-.9,11.77,11.77,0,0,1-.72-3.78,37.09,37.09,0,0,1,.09-4.45q.18-2.29.54-4.5c.24-1.47.48-2.84.72-4.1.06-.42.12-.88.18-1.39a8.21,8.21,0,0,1,.31-1.49,5.32,5.32,0,0,1,.54-1.22,1.25,1.25,0,0,1,.86-.58,1,1,0,0,1,.81.14,2.3,2.3,0,0,1,.45.49,4.9,4.9,0,0,1,.09,2.47,9.88,9.88,0,0,0-.18,2.66q-.45,3.06-.77,6.3T274.78,36.36Z"/><path class="cls-2" d="M321.13,20.07a13.39,13.39,0,0,0-4.19,4.32q-1.57,2.61-3.37,5.22l-1.44,2.88a25.94,25.94,0,0,0-1.26,3,15.37,15.37,0,0,0-1.35,2.93,3.24,3.24,0,0,1-2.16,2.11h-.81a2.26,2.26,0,0,1-.77-.49,4,4,0,0,1-.58-.77,29,29,0,0,1-.14-3.69c0-1.32.09-2.65.18-4s.24-2.66.45-4,.44-2.47.68-3.55a12.15,12.15,0,0,1,.54-2,1.72,1.72,0,0,1,1.44-1.17,1.11,1.11,0,0,1,1,.81,4.81,4.81,0,0,1,.18,1.66,15.57,15.57,0,0,1-.22,2,10.37,10.37,0,0,0-.18,1.67c-.12,1.2-.23,2.28-.32,3.24s-.19,1.86-.31,2.7q1.53-2.52,3.69-5.67a56.35,56.35,0,0,1,4.41-5.67,21.18,21.18,0,0,1,1.57-1.75,6.34,6.34,0,0,1,1.85-1.31,2.62,2.62,0,0,1,1.66,0,1.4,1.4,0,0,1,1,1q.18,1.08-.54,1.17A1,1,0,0,1,321.13,20.07Z"/><path class="cls-2" d="M341.11,38.88q2.61-3.15,5.17-6.53a71.18,71.18,0,0,1,5.63-6.52c.66-.66,1.35-1.33,2.07-2a4.39,4.39,0,0,1,2.61-1.22,1.25,1.25,0,0,1,.67.63,1.06,1.06,0,0,1,0,1,.82.82,0,0,1-.59.18.79.79,0,0,1-.58-.18,76.15,76.15,0,0,0-8.24,9.09q-3.74,4.86-7.33,10Q339,52.83,336.79,62a111.81,111.81,0,0,1-5.67,17.14A23.55,23.55,0,0,1,330,81.54c-.45.84-.91,1.68-1.39,2.52-.3.54-.62,1.08-1,1.62a9,9,0,0,1-1.08,1.44,4.59,4.59,0,0,1-3.46,1.44q0,.09-.18-.09a1.54,1.54,0,0,1-.59-.27,3.26,3.26,0,0,0-.58-.36,1.47,1.47,0,0,0-.45-.54,9,9,0,0,1-.72-3.15,18.11,18.11,0,0,1,.13-3.38,30.13,30.13,0,0,1,.63-3.28c.27-1.08.53-2.07.77-3,.6-2,1.26-3.89,2-5.71s1.44-3.59,2.16-5.27a140.33,140.33,0,0,1,11-19.17q.45-2.88.85-6t.59-6.39q.27-3.15.31-6.66a20.72,20.72,0,0,0-.76-6.21,2,2,0,0,0-1.08.86,14.1,14.1,0,0,1-.9,1.21,15.17,15.17,0,0,1,.9,2.43,5.7,5.7,0,0,0,.54,1.26,1,1,0,0,1,0,1.17c-.48.18-.83.11-1-.22A2.88,2.88,0,0,0,336,25c-.18-.3-.38-.6-.59-.9a4.44,4.44,0,0,1-.49-.9,29.11,29.11,0,0,0-2.43,3.6q-1.08,1.89-2.34,3.69c-.36.48-.8,1.13-1.31,1.94a14.14,14.14,0,0,1-1.75,2.25A6.06,6.06,0,0,1,325,36.18a2.59,2.59,0,0,1-2.47-.45,3.85,3.85,0,0,1-.81-2.21,11.33,11.33,0,0,1,.13-2.65,16.36,16.36,0,0,1,.68-2.65c.3-.87.6-1.64.9-2.3A24.42,24.42,0,0,1,325,22.73a13.54,13.54,0,0,1,2-2.57,8.85,8.85,0,0,1,1.35-1.08,6.12,6.12,0,0,1,1.8-.81,5.72,5.72,0,0,1,2-.18,4.49,4.49,0,0,1,1.94.63,4.53,4.53,0,0,0,1-1,8.27,8.27,0,0,1,1.08-1.13,3.8,3.8,0,0,1,1.35-.71,2.8,2.8,0,0,1,1.76.13,3.47,3.47,0,0,1,.72.5,3.09,3.09,0,0,1,.54.58,5.64,5.64,0,0,1,.94,2,14.21,14.21,0,0,1,.41,2.62c.06.93.09,1.9.09,2.92s0,2-.09,3q-.18,3.15-.36,6T341.11,38.88ZM324.82,75.06q-.72,2.34-1.26,5a12.64,12.64,0,0,0,.09,5.4,8.32,8.32,0,0,0,2.61-3.28c.66-1.42,1.29-2.78,1.89-4.1a85.08,85.08,0,0,0,4.77-13.36q1.89-7.08,3.42-14.72,0-.09-.09,0-3.33,5.76-6.39,11.88A73.74,73.74,0,0,0,324.82,75.06Zm4.23-52.65a18.5,18.5,0,0,0-2.84,4.46,20.68,20.68,0,0,0-1.57,5.8,24.7,24.7,0,0,0,4.09-5.49q1.75-3.15,3.74-6a2.37,2.37,0,0,0-2,.27Q329.77,22,329.05,22.41Z"/><path class="cls-2" d="M356.77,27.63a17.48,17.48,0,0,0-1.17,3.29,15.33,15.33,0,0,0-.54,4,6.75,6.75,0,0,0,.81,3.37,3.18,3.18,0,0,0,2.88,1.53,8.87,8.87,0,0,0,4.45-1c1.41-.72,2.62-1.41,3.65-2.07,1.2-.84,2.32-1.66,3.37-2.47s2-1.61,2.84-2.39A51,51,0,0,0,377.51,28c1.41-1.38,2.8-2.79,4.19-4.23a2.2,2.2,0,0,0,.58-.72,8.2,8.2,0,0,1,.68-1,4.2,4.2,0,0,1,.76-.76.7.7,0,0,1,.86-.05q.62.27.27,1.08a7.11,7.11,0,0,1-.63,1.17,3.66,3.66,0,0,1-.54,1,11.52,11.52,0,0,0-.72,1c-1.51,1.74-3.08,3.39-4.73,5s-3.34,3.12-5.08,4.68a37.48,37.48,0,0,1-7.56,5.4,20.76,20.76,0,0,1-2.25,1,13.11,13.11,0,0,1-2.61.72,12,12,0,0,1-2.75.13,5.44,5.44,0,0,1-2.56-.81,4.29,4.29,0,0,1-.95-.85l-.85-1a8.6,8.6,0,0,1-1.13-3.82,17.22,17.22,0,0,1,.27-4.28,28,28,0,0,1,2.57-7.47,36.62,36.62,0,0,1,3.6-5.31,10.5,10.5,0,0,1,5.49-3.42,4.33,4.33,0,0,1,3,.81,3.11,3.11,0,0,1,.95,2.88,6.06,6.06,0,0,1-1.08,2.7A19.67,19.67,0,0,1,365.41,24a20.28,20.28,0,0,1-3.56,2.84A7.4,7.4,0,0,1,356.77,27.63ZM365.14,18a9.3,9.3,0,0,0-4.77,3.29,32.6,32.6,0,0,0-3.06,5,5.63,5.63,0,0,0,3.33-.9A24.72,24.72,0,0,0,363,23.49q1-1.08,2.07-2.16a3.91,3.91,0,0,0,1-3.06A1,1,0,0,0,365.14,18Z"/><path class="cls-2" d="M388.08,20.25a7,7,0,0,1,4.82,1.89,8.69,8.69,0,0,1,2.2,4.59q2.88-.54,6-1.21c2.07-.46,4.09-.92,6.07-1.4a6.49,6.49,0,0,0,.9-.31,7.09,7.09,0,0,1,1.13-.36,3.23,3.23,0,0,1,1-.1.76.76,0,0,1,.63.41.56.56,0,0,1-.18.72,4.18,4.18,0,0,1-.9.5,5.91,5.91,0,0,1-1.17.35c-.42.1-.72.17-.9.23q-2.88.9-6.07,1.58l-6.35,1.3a18.87,18.87,0,0,1-.76,6.53A22.75,22.75,0,0,1,392,40.5a28.37,28.37,0,0,1-3.46,4.32,10,10,0,0,1-4.73,2.7H382.5a3.61,3.61,0,0,1-1.53-.67,14.69,14.69,0,0,1-1.17-1,7.84,7.84,0,0,1-1.39-3.91,23.21,23.21,0,0,1,0-4.78,43.42,43.42,0,0,1,.81-4.85c.36-1.59.69-3,1-4.28a3.53,3.53,0,0,1,0-3.24A7,7,0,0,1,382,22.41a15,15,0,0,0,.68-1.89,15.43,15.43,0,0,1,.76-2.07,6.28,6.28,0,0,1,1.13-1.71,2.28,2.28,0,0,1,1.75-.72,1.76,1.76,0,0,1,1.8,1.31A4.84,4.84,0,0,1,388.08,20.25Zm-4.32,9.36q-.45,2.61-1.12,5.63a22.23,22.23,0,0,0-.5,6.16,8.13,8.13,0,0,0,.32,1.53,2.21,2.21,0,0,0,.85,1.17,6.94,6.94,0,0,0,4.14-2.16q1.53-1.71,2.88-3.51a34.21,34.21,0,0,0,2.16-4.37,10.85,10.85,0,0,0,.72-5.26,41.07,41.07,0,0,1-4.59.68A37.57,37.57,0,0,1,383.76,29.61Zm4-7.47a2.8,2.8,0,0,0-.18,1,.6.6,0,0,1-.54.67,1.36,1.36,0,0,1-.4,0l-.32-.14a1.64,1.64,0,0,1-.09-1.26,3.82,3.82,0,0,0-.67,1.17c-.15.42-.29.87-.41,1.35a13.26,13.26,0,0,0-.45,1.44l-.36,1.44q2.52,0,4.68-.18t4.23-.54a7.13,7.13,0,0,0-1.66-3.55A5.28,5.28,0,0,0,387.72,22.14Z"/><path class="cls-2" d="M410.31,36.27c1.2-2.28,2.4-4.6,3.6-7a33.42,33.42,0,0,1,4.23-6.43q.36-.45.9-1.08a6.58,6.58,0,0,1,1.17-1.08,3.94,3.94,0,0,1,1.4-.63,2.73,2.73,0,0,1,1.66.18,4.1,4.1,0,0,1,2,2.79q.63,2.16,1.08,4.32c.12.66.26,1.35.41,2.07s.31,1.44.49,2.16a15,15,0,0,0,.72,2A1.91,1.91,0,0,0,429,34.83a1.5,1.5,0,0,0,1.35-.31,11.06,11.06,0,0,1,1.08-.77c.36-.3.69-.55,1-.76a6.84,6.84,0,0,0,.9-.77,37.46,37.46,0,0,0,3.78-3.78,45.69,45.69,0,0,1,3.78-3.87,14.74,14.74,0,0,1,1.58-1,2.32,2.32,0,0,1,1.08-.32c.33,0,.52.21.58.63s-.13.66-.58.9a4.44,4.44,0,0,0-1,.72A22,22,0,0,0,440,28c-.84,1-1.74,2-2.7,3-.48.48-.94.93-1.39,1.35s-.92.87-1.4,1.35c-.78.78-1.62,1.55-2.52,2.29a5.25,5.25,0,0,1-3.51,1.13l-.4-.18a1.35,1.35,0,0,0-.5-.09,5.53,5.53,0,0,1-2.2-2.79,28.41,28.41,0,0,1-1.13-3.82c-.3-1.35-.58-2.71-.85-4.05a12.54,12.54,0,0,0-1.31-3.65,5.36,5.36,0,0,0-2.34,2,28.3,28.3,0,0,1-1.8,2.56,41.49,41.49,0,0,0-3.06,5.58q-1.35,3-2.61,6.12a5.65,5.65,0,0,0-.63,1.39,15.13,15.13,0,0,1-.63,1.67,4.43,4.43,0,0,1-.94,1.39,1.66,1.66,0,0,1-1.58.41,1.47,1.47,0,0,1-1.21-1,5.54,5.54,0,0,1-.5-2,21.18,21.18,0,0,1,0-2.42c0-.87.07-1.67.13-2.39.24-2.88.57-5.68,1-8.42a50.69,50.69,0,0,1,1.71-7.51q.36-1,.63-1.8a1.26,1.26,0,0,1,1.17-.9,1,1,0,0,1,1.13.5,2.57,2.57,0,0,1,.27,1.39,10.07,10.07,0,0,1-.27,1.76c-.15.63-.26,1.15-.32,1.57q-.63,3.42-1.08,6.84T410.31,36.27Z"/><path class="cls-1" d="M211,33.44c0,.45,0,.86,0,1.22s0,.69,0,1,0,.59.05.86.05.53.09.8H210a8.6,8.6,0,0,1-.12-1.5h0a3.35,3.35,0,0,1-1.29,1.32,4,4,0,0,1-2,.42,4.71,4.71,0,0,1-1.18-.15,3.1,3.1,0,0,1-1-.48,2.47,2.47,0,0,1-.75-.85,2.61,2.61,0,0,1-.29-1.26,2.46,2.46,0,0,1,.54-1.68,3.41,3.41,0,0,1,1.33-.93,6.25,6.25,0,0,1,1.68-.4c.6-.06,1.12-.09,1.57-.09h1.4v-.56a1.94,1.94,0,0,0-.74-1.72,3.12,3.12,0,0,0-1.86-.52,4.26,4.26,0,0,0-2.82,1l-.7-.82a4.26,4.26,0,0,1,1.64-1,5.87,5.87,0,0,1,1.88-.33,4.17,4.17,0,0,1,2.68.79,3.05,3.05,0,0,1,1,2.55Zm-2.4-.76a10.08,10.08,0,0,0-1.47.1,5.32,5.32,0,0,0-1.28.34,2.37,2.37,0,0,0-.91.64,1.61,1.61,0,0,0-.15,1.75,1.7,1.7,0,0,0,.49.54,2.18,2.18,0,0,0,.67.32,2.78,2.78,0,0,0,.75.11,3.79,3.79,0,0,0,1.58-.28,2.61,2.61,0,0,0,1-.73,2.46,2.46,0,0,0,.51-1,4.47,4.47,0,0,0,.14-1.15v-.62Z"/><path class="cls-1" d="M213.79,30.68c0-.17,0-.38,0-.63l0-.75c0-.25,0-.49,0-.71s0-.39,0-.51h1.2c0,.35,0,.68,0,1a3.11,3.11,0,0,0,.05.62H215a3.24,3.24,0,0,1,1.2-1.31,3.46,3.46,0,0,1,2-.55,3.89,3.89,0,0,1,1.76.34,2.86,2.86,0,0,1,1.07.89,3.37,3.37,0,0,1,.54,1.27,7.21,7.21,0,0,1,.15,1.48v5.5h-1.2V31.88a5.6,5.6,0,0,0-.1-1.09,2.7,2.7,0,0,0-.35-.95,1.81,1.81,0,0,0-.7-.67,2.36,2.36,0,0,0-1.17-.25,3.47,3.47,0,0,0-1.25.23,2.74,2.74,0,0,0-1,.7,3.55,3.55,0,0,0-.68,1.18A5.2,5.2,0,0,0,215,32.7v4.62h-1.2Z"/><path class="cls-1" d="M232.61,35.7h0a3,3,0,0,1-.7.83,4.13,4.13,0,0,1-.91.58,4.45,4.45,0,0,1-1,.34,5.53,5.53,0,0,1-1.06.11,5.25,5.25,0,0,1-2-.36,4.53,4.53,0,0,1-1.54-1,4.61,4.61,0,0,1-1-1.54,5.46,5.46,0,0,1,0-3.9,4.61,4.61,0,0,1,1-1.54,4.53,4.53,0,0,1,1.54-1,5.25,5.25,0,0,1,2-.36,5.53,5.53,0,0,1,1.06.11,4.45,4.45,0,0,1,1,.34,4.13,4.13,0,0,1,.91.58,3,3,0,0,1,.7.83h0V22.2h1.2V37.32h-1.2Zm.12-3a3.65,3.65,0,0,0-.3-1.47,3.71,3.71,0,0,0-.82-1.2,3.83,3.83,0,0,0-1.22-.81,4,4,0,0,0-3,0,3.56,3.56,0,0,0-1.16.81,3.49,3.49,0,0,0-.73,1.2,4.45,4.45,0,0,0,0,2.94,3.49,3.49,0,0,0,.73,1.2,3.56,3.56,0,0,0,1.16.81,4,4,0,0,0,3,0,3.83,3.83,0,0,0,1.22-.81,3.71,3.71,0,0,0,.82-1.2A3.65,3.65,0,0,0,232.73,32.7Z"/></g></g></svg>