<svg xmlns="http://www.w3.org/2000/svg" viewBox="0 0 444.13 96.88"><defs><style>.cls-1{fill:#53575a;}.cls-2{fill:#ff8300;}</style></defs><g id="Layer_2" data-name="Layer 2"><g id="Layer_1-2" data-name="Layer 1"><path class="cls-1" d="M0,96.75v-.46H.06a24.74,24.74,0,0,0,3.74-.23,4.87,4.87,0,0,0,2.41-.94,4,4,0,0,0,1.26-2,11.29,11.29,0,0,0,.4-3.31V51.57c0-2.38-.43-4-1.27-4.91s-2.35-1.39-4.52-1.52H0v-.39H24.76a26.73,26.73,0,0,1,7.54,1,16.49,16.49,0,0,1,5.2,2.8,10.93,10.93,0,0,1,3,4.06,13.29,13.29,0,0,1,1,5.23,11.68,11.68,0,0,1-4,9.3,15.5,15.5,0,0,1-5.2,2.79,13.46,13.46,0,0,1-3,.72c-1.06.13-2.18.24-3.35.32a9.82,9.82,0,0,1,2.9,1.37,14.6,14.6,0,0,1,3.47,3.57l12.22,17a6.59,6.59,0,0,0,2.18,1.91,12.45,12.45,0,0,0,2.47,1,10.47,10.47,0,0,0,2.12.43l1.1.06h.07v.46h-13l-15.87-22a15.29,15.29,0,0,0-1.78-2,7.57,7.57,0,0,0-1.56-1.14,5.35,5.35,0,0,0-1.46-.52,9.1,9.1,0,0,0-1.5-.13H14.88v19a12.3,12.3,0,0,0,.3,3,4.14,4.14,0,0,0,1,1.89,4.31,4.31,0,0,0,1.79,1.07,10.18,10.18,0,0,0,2.73.42h2v.46H0Zm14.88-26.2h9.37a9.38,9.38,0,0,0,5.46-1.62,10.29,10.29,0,0,0,1.46-1.34,11.06,11.06,0,0,0,1.39-1.91,15.57,15.57,0,0,0,1.24-3.55,19.49,19.49,0,0,0,.45-4.32,15.21,15.21,0,0,0-2.4-9,8.8,8.8,0,0,0-7.6-3.7H20a8.31,8.31,0,0,0-2.4.52,4,4,0,0,0-1.6,1.1,4.37,4.37,0,0,0-.88,1.89,13.61,13.61,0,0,0-.26,2.86v19Z"/><path class="cls-1" d="M89,95.64A15.43,15.43,0,0,0,92.79,94a14.07,14.07,0,0,0,2.89-2.37,19.34,19.34,0,0,0,2.14-2.76,22.18,22.18,0,0,0,2.93-7.54h.45L99.32,96.75h-43v-.46a24.74,24.74,0,0,0,3.74-.23,5.06,5.06,0,0,0,2.44-.94,3.82,3.82,0,0,0,1.3-2,11.34,11.34,0,0,0,.39-3.31V52.35a2.56,2.56,0,0,0,0-.39,1.72,1.72,0,0,1,0-.39q0-3.57-1.26-4.91c-.85-.88-2.35-1.39-4.52-1.52H56.29v-.39H97.5V58.4H97v-.07c-.34-1.43-.74-2.92-1.2-4.48a13.27,13.27,0,0,0-2.11-4.26,11,11,0,0,0-3.9-3.19,14.35,14.35,0,0,0-6.5-1.26H71.11V70.55H80.4a7.34,7.34,0,0,0,4.39-1.27,8.48,8.48,0,0,0,3.41-5.55,16.71,16.71,0,0,0,.2-1.82v-.2h.45V79.85H88.4v-.2a18.35,18.35,0,0,0-.2-1.88,8.36,8.36,0,0,0-1-3,8.06,8.06,0,0,0-2.5-2.7,7.82,7.82,0,0,0-4.58-1.17h-9V88.75a7.62,7.62,0,0,1,.06,1.17,12.3,12.3,0,0,0,.3,3,4.14,4.14,0,0,0,1,1.89,4.31,4.31,0,0,0,1.79,1.07,10.18,10.18,0,0,0,2.73.42h7.21A16.32,16.32,0,0,0,89,95.64Z"/><path class="cls-1" d="M106.92,80.24h.52a15.61,15.61,0,0,0,.33,3,24,24,0,0,0,.91,3.31,20.06,20.06,0,0,0,1.43,3.16,9.07,9.07,0,0,0,1.88,2.4A15.54,15.54,0,0,0,116.67,95,16.18,16.18,0,0,0,122.2,96h.58a17.71,17.71,0,0,0,5.53-1.1,10.59,10.59,0,0,0,4.42-3.71,9.65,9.65,0,0,0,1.72-5.17,10,10,0,0,0-1.53-5.52,12.91,12.91,0,0,0-5.33-4.71l-8.19-4.23A23.94,23.94,0,0,1,112.9,67a15.49,15.49,0,0,1-3.41-5.14,11.36,11.36,0,0,1-.75-5.23,12.33,12.33,0,0,1,1.56-4.87,14.27,14.27,0,0,1,3.48-4,17.87,17.87,0,0,1,5-2.8,12.14,12.14,0,0,1,2.6-.71A18,18,0,0,1,124,44a15.68,15.68,0,0,1,5.85,1.11c.69.26,1.43.52,2.21.78a8.8,8.8,0,0,0,2.34.45,4.6,4.6,0,0,0,2.21-.39,4.15,4.15,0,0,0,1.82-1.75h.45v14.1h-.52a10.59,10.59,0,0,0-.42-2.86,15.5,15.5,0,0,0-1.14-2.89A16.71,16.71,0,0,0,135.2,50a16.4,16.4,0,0,0-1.82-2,13.36,13.36,0,0,0-4.29-2.57,14.76,14.76,0,0,0-5.07-.87,15.54,15.54,0,0,0-2.24.16,13.59,13.59,0,0,0-2.18.49A9.38,9.38,0,0,0,115,48.26a6.64,6.64,0,0,0-1.36,4.94,11.49,11.49,0,0,0,2.89,5.94,28.74,28.74,0,0,0,8.12,6.28l7.48,3.83a18.94,18.94,0,0,1,5.65,4.45,13.47,13.47,0,0,1,2.86,5.37,11.62,11.62,0,0,1,.07,5.59,11.92,11.92,0,0,1-2.7,5.16,17.4,17.4,0,0,1-5.43,4.1,25.3,25.3,0,0,1-8.12,2.37h.13c-.35,0-.66.08-.94.1s-.58,0-.88,0h-.65a15,15,0,0,1-5.65-1.1v0a7,7,0,0,1-.66-.26,11.75,11.75,0,0,0-4.29-1,5.39,5.39,0,0,0-2.5.52,2.72,2.72,0,0,0-1.2,1.17,8.14,8.14,0,0,0-.39.88v.06h-.46Z"/><path class="cls-1" d="M145.4,70.29a28,28,0,0,1,1.82-10.2,25.15,25.15,0,0,1,4.88-8.39,21.68,21.68,0,0,1,7.15-5.59,20.27,20.27,0,0,1,8.9-2.08h3.77a20.11,20.11,0,0,1,8.84,2.08A21.61,21.61,0,0,1,188,51.7,27.73,27.73,0,0,1,193,60.09a30.47,30.47,0,0,1,0,20.41A27.68,27.68,0,0,1,188,88.88a21.48,21.48,0,0,1-7.28,5.59,20,20,0,0,1-8.84,2.08h-3.77a20.13,20.13,0,0,1-8.9-2.08,21.55,21.55,0,0,1-7.15-5.59,25.11,25.11,0,0,1-4.88-8.38A28,28,0,0,1,145.4,70.29Zm7.09,0a40,40,0,0,0,1.2,9.95,27.11,27.11,0,0,0,3.61,8.32,12.58,12.58,0,0,0,1,1.49,12.12,12.12,0,0,0,1.13,1.3,16.54,16.54,0,0,0,3.94,3,31.07,31.07,0,0,0,3.08,1.47l1.24.26a7.47,7.47,0,0,0,1.36.13H171a6.43,6.43,0,0,0,1.3-.13c.39-.09.83-.18,1.3-.26.74-.31,1.75-.79,3-1.47a17.53,17.53,0,0,0,4-3c.35-.39.71-.82,1.08-1.3s.72-1,1.07-1.49a28.16,28.16,0,0,0,3.64-8.32,40.82,40.82,0,0,0,0-19.89A28,28,0,0,0,182.78,52c-.35-.52-.71-1-1.07-1.5s-.73-.91-1.08-1.3a17.83,17.83,0,0,0-4-3c-1.28-.67-2.29-1.16-3-1.46l-1.3-.23a7.39,7.39,0,0,0-1.3-.1h-1.95a10.59,10.59,0,0,0-2.6.33,30.6,30.6,0,0,0-3.08,1.46,16.8,16.8,0,0,0-3.94,3,13.17,13.17,0,0,0-1.13,1.3,13.57,13.57,0,0,0-1,1.5,27,27,0,0,0-3.61,8.32A39.87,39.87,0,0,0,152.49,70.29Z"/><path class="cls-1" d="M232.5,44.62h22.69v.45h-1c-.69,0-1.6.15-2.73.33a11,11,0,0,0-3.34,1.1,8.44,8.44,0,0,0-2.86,2.41,6.57,6.57,0,0,0-1.21,4.16V81.21a13.75,13.75,0,0,1-1.43,6.21,15.14,15.14,0,0,1-4.16,5.1,19.42,19.42,0,0,1-6.11,3.19,24,24,0,0,1-7.34,1.1h-.39a22.45,22.45,0,0,1-7.09-1.1,18.94,18.94,0,0,1-5.91-3.19,15.38,15.38,0,0,1-4.19-5.13A15.18,15.18,0,0,1,206,80.5V49.75a4.73,4.73,0,0,0-1.49-3.54,7.59,7.59,0,0,0-4.23-1.14h-2.08v-.52h22.69v.33l.06.06h-.06v.13H218.2a6.56,6.56,0,0,0-3.51,1.11,4.5,4.5,0,0,0-1.49,3V80a21.32,21.32,0,0,0,1.17,7.15,14,14,0,0,0,3.48,5.53,12.57,12.57,0,0,0,5.62,3.08,15.27,15.27,0,0,0,7.6-.16,19.51,19.51,0,0,0,7.15-3.51,13.35,13.35,0,0,0,3.9-4.74,12.87,12.87,0,0,0,1.5-6.18V52.74a6.47,6.47,0,0,0-1.3-4,8.58,8.58,0,0,0-2.86-2.27,11.72,11.72,0,0,0-3.32-1c-1.12-.18-2-.28-2.66-.33h-1Z"/><path class="cls-1" d="M261.1,96.75v-.46h.07a24.83,24.83,0,0,0,3.74-.23,4.83,4.83,0,0,0,2.4-.94,3.9,3.9,0,0,0,1.27-2,11.34,11.34,0,0,0,.39-3.31V51.57q0-3.57-1.27-4.91t-4.52-1.52H261.1v-.39h24.77a26.78,26.78,0,0,1,7.54,1,16.6,16.6,0,0,1,5.2,2.8,11,11,0,0,1,3,4.06,13.29,13.29,0,0,1,1,5.23,11.71,11.71,0,0,1-4,9.3,15.6,15.6,0,0,1-5.2,2.79,13.46,13.46,0,0,1-3,.72c-1.07.13-2.18.24-3.35.32a9.78,9.78,0,0,1,2.89,1.37,14.79,14.79,0,0,1,3.48,3.57l12.22,17a6.4,6.4,0,0,0,2.18,1.91,12,12,0,0,0,2.47,1,10.39,10.39,0,0,0,2.11.43l1.1.06h.07v.46h-13l-15.86-22a15.27,15.27,0,0,0-1.79-2,7.31,7.31,0,0,0-1.56-1.14,5.35,5.35,0,0,0-1.46-.52,9.1,9.1,0,0,0-1.5-.13H276v19a12.89,12.89,0,0,0,.29,3,4.15,4.15,0,0,0,1,1.89A4.27,4.27,0,0,0,279,95.87a10.18,10.18,0,0,0,2.73.42h2v.46H261.1ZM276,70.55h9.36a9.35,9.35,0,0,0,5.46-1.62,10.29,10.29,0,0,0,1.46-1.34,11.65,11.65,0,0,0,1.4-1.91,15.57,15.57,0,0,0,1.23-3.55,18.89,18.89,0,0,0,.46-4.32,15.14,15.14,0,0,0-2.41-9,8.79,8.79,0,0,0-7.6-3.7h-4.23a8.39,8.39,0,0,0-2.4.52,4.08,4.08,0,0,0-1.59,1.1,4.15,4.15,0,0,0-.88,1.89,13,13,0,0,0-.26,2.86v19Z"/><path class="cls-1" d="M312.91,70.68v-.06h-.26a29.67,29.67,0,0,1,.45-5.2,30,30,0,0,1,1.37-5,26.5,26.5,0,0,1,4.94-8.32,27,27,0,0,1,3.34-3.18,19.4,19.4,0,0,1,3.87-2.41,19.75,19.75,0,0,1,8.91-2.08,16.12,16.12,0,0,1,6.37,1.24H342a.43.43,0,0,0,.26.13l.07.06.88.39a9.26,9.26,0,0,1,.87.46,13.44,13.44,0,0,0,5.33,1.62,5.28,5.28,0,0,0,2.93-.65,3.26,3.26,0,0,0,1.49-2.27h.46V64.31h-.46a31.28,31.28,0,0,0-.94-4.55,30.81,30.81,0,0,0-1.46-4,23.5,23.5,0,0,0-1.92-3.28,20.33,20.33,0,0,0-2.31-2.76,16.64,16.64,0,0,0-5.46-3.64,16.81,16.81,0,0,0-5.2-1.17,11.65,11.65,0,0,0-6.5,2,18.83,18.83,0,0,0-5.33,5.53,30,30,0,0,0-3.6,8.22,36.68,36.68,0,0,0-1.34,10,35.18,35.18,0,0,0,2.18,12.61,25.14,25.14,0,0,0,5.69,9.17,17.77,17.77,0,0,0,3.18,2.3,18.26,18.26,0,0,0,2.6,1.21,6.83,6.83,0,0,0,1.53.35,12.34,12.34,0,0,0,1.59.1,21.6,21.6,0,0,0,2.63-.39,14.47,14.47,0,0,0,2.57-.78,16.06,16.06,0,0,0,5.4-3.64,14.43,14.43,0,0,0,2.31-2.7,28.55,28.55,0,0,0,1.85-3.28,23.77,23.77,0,0,0,1.49-4,43.77,43.77,0,0,0,1-4.55l.45.07a29.75,29.75,0,0,1-2.53,8.71A21.47,21.47,0,0,1,347.42,92a18.1,18.1,0,0,1-5.59,3.64,15.6,15.6,0,0,1-6.3,1.24,19.75,19.75,0,0,1-8.91-2.08,22.81,22.81,0,0,1-7.21-5.59,26.5,26.5,0,0,1-4.94-8.32,30,30,0,0,1-1.37-5,29.67,29.67,0,0,1-.45-5.2Z"/><path class="cls-1" d="M392.14,95.64A15.43,15.43,0,0,0,396,94a14.35,14.35,0,0,0,2.89-2.37A19.34,19.34,0,0,0,401,88.82a22.39,22.39,0,0,0,2.93-7.54h.45l-1.88,15.47h-43v-.46a24.74,24.74,0,0,0,3.74-.23,5.06,5.06,0,0,0,2.44-.94,3.88,3.88,0,0,0,1.3-2,11.34,11.34,0,0,0,.39-3.31V52.35a1.72,1.72,0,0,0,0-.39,2.56,2.56,0,0,1,0-.39q0-3.57-1.27-4.91c-.84-.88-2.35-1.39-4.51-1.52h-2.08v-.39h41.21V58.4h-.46v-.07c-.34-1.43-.74-2.92-1.2-4.48a13.48,13.48,0,0,0-2.11-4.26A11.21,11.21,0,0,0,393,46.4a14.38,14.38,0,0,0-6.5-1.26H374.27V70.55h9.29A7.36,7.36,0,0,0,388,69.28a8.59,8.59,0,0,0,3.41-5.55,16.71,16.71,0,0,0,.2-1.82v-.2H392V79.85h-.45v-.2a18.35,18.35,0,0,0-.2-1.88,8.56,8.56,0,0,0-1-3,8.16,8.16,0,0,0-2.5-2.7,7.84,7.84,0,0,0-4.58-1.17h-9V88.75a7.62,7.62,0,0,1,.06,1.17,12.89,12.89,0,0,0,.29,3,4.15,4.15,0,0,0,1,1.89,4.24,4.24,0,0,0,1.79,1.07,10,10,0,0,0,2.73.42h7.21A16.32,16.32,0,0,0,392.14,95.64Z"/><path class="cls-1" d="M410.08,80.24h.52a15.61,15.61,0,0,0,.33,3,22.66,22.66,0,0,0,.91,3.31,19.19,19.19,0,0,0,1.43,3.16,9.07,9.07,0,0,0,1.88,2.4A15.54,15.54,0,0,0,419.83,95,16.14,16.14,0,0,0,425.36,96h.58a17.77,17.77,0,0,0,5.53-1.1,10.65,10.65,0,0,0,4.42-3.71,9.73,9.73,0,0,0,1.72-5.17,10.15,10.15,0,0,0-1.53-5.52,12.91,12.91,0,0,0-5.33-4.71l-8.19-4.23a23.78,23.78,0,0,1-6.5-4.58,15.49,15.49,0,0,1-3.41-5.14,11.36,11.36,0,0,1-.75-5.23,12,12,0,0,1,1.56-4.87,14.27,14.27,0,0,1,3.48-4,17.87,17.87,0,0,1,5-2.8,12,12,0,0,1,2.6-.71,18,18,0,0,1,2.67-.2A15.76,15.76,0,0,1,433,45.14c.69.26,1.43.52,2.21.78a8.8,8.8,0,0,0,2.34.45,4.63,4.63,0,0,0,2.21-.39,4.15,4.15,0,0,0,1.82-1.75h.45v14.1h-.52a10.59,10.59,0,0,0-.42-2.86A15.5,15.5,0,0,0,440,52.58a18.37,18.37,0,0,0-1.62-2.6,17.24,17.24,0,0,0-1.82-2,13.36,13.36,0,0,0-4.29-2.57,14.84,14.84,0,0,0-5.07-.87,15.68,15.68,0,0,0-2.25.16,13.71,13.71,0,0,0-2.17.49,9.3,9.3,0,0,0-4.65,3.12,6.65,6.65,0,0,0-1.37,4.94,11.52,11.52,0,0,0,2.9,5.94,28.74,28.74,0,0,0,8.12,6.28l7.48,3.83a18.94,18.94,0,0,1,5.65,4.45,13.72,13.72,0,0,1,2.86,5.37,11.62,11.62,0,0,1,.07,5.59,12.13,12.13,0,0,1-2.7,5.16,17.63,17.63,0,0,1-5.43,4.1,25.3,25.3,0,0,1-8.12,2.37h.13c-.35,0-.66.08-.95.1s-.57,0-.87,0h-.65a15.09,15.09,0,0,1-5.66-1.1v0a6.71,6.71,0,0,1-.65-.26,11.84,11.84,0,0,0-4.29-1,5.36,5.36,0,0,0-2.5.52,2.62,2.62,0,0,0-1.2,1.17,8.14,8.14,0,0,0-.39.88v.06h-.46Z"/><path class="cls-2" d="M127.31,48Q130,41.72,133,35.9A32.42,32.42,0,0,1,141,26c.34-.14.67-.27,1-.41s.67-.27,1.07-.41a3.45,3.45,0,0,1,3.06.92,5.55,5.55,0,0,1,1.33,2.81,9.5,9.5,0,0,1-.05,3.52,13.88,13.88,0,0,1-1,3.16,30.17,30.17,0,0,0,3.88-2.55q1.83-1.42,3.87-2.76c1-.67,1.92-1.36,2.91-2s2-1.36,3-2a7.77,7.77,0,0,0,1.12-.56,1,1,0,0,1,1.22.16.93.93,0,0,1-.3,1.32c-.48.34-.89.65-1.23.92q-4.28,3-8.26,6t-8.16,6A32.09,32.09,0,0,1,142,43.81a31.41,31.41,0,0,1-3,3.42c-.41.34-.91.8-1.48,1.37s-1.18,1.13-1.79,1.64a13.47,13.47,0,0,1-2,1.37,5.27,5.27,0,0,1-2.09.72c-1.49.2-2.31-.31-2.45-1.53a2.46,2.46,0,0,1,.56-2.15,19.1,19.1,0,0,1,1.48-1.42c.55-.55,1-1,1.48-1.43s.9-.82,1.38-1.23a32.92,32.92,0,0,0,3.26-2.39,33.58,33.58,0,0,1,3.27-2.4c.47-.75,1-1.61,1.48-2.6a32.41,32.41,0,0,0,1.37-3c.14-.47.29-1,.46-1.63a12,12,0,0,0,.36-1.84,5.83,5.83,0,0,0-.05-1.73,2.65,2.65,0,0,0-.77-1.43A5.61,5.61,0,0,0,140,29.22q-1.42,1.49-2.55,2.91a45.2,45.2,0,0,0-5.1,8.21,89,89,0,0,0-3.87,9.44c-.27.68-.53,1.34-.77,2a13.54,13.54,0,0,0-.56,2,21.93,21.93,0,0,0-.3,3.73c0,1.32,0,2.63-.11,3.92-.13,2.59-.27,5.17-.4,7.76s-.31,5.2-.51,7.85c-.07.61-.12,1.24-.16,1.89a13.24,13.24,0,0,1-.2,1.78,3.81,3.81,0,0,1-.61,1.48,2.62,2.62,0,0,1-1.28,1h-.3a1.72,1.72,0,0,1-1.59-1.68,29,29,0,0,1-.15-2.91,48.86,48.86,0,0,1,.15-5.86c.18-1.88.4-3.76.67-5.67.14-.88.3-1.76.51-2.65s.37-1.77.51-2.65a44.91,44.91,0,0,0,.3-5.25c0-1.8.07-3.52.21-5.15q.41-6.53.76-12.86t.77-13V23.82a14.19,14.19,0,0,1,.1-1.79,3.76,3.76,0,0,1,.46-1.43A1.27,1.27,0,0,1,127.1,20a1.22,1.22,0,0,1,1.18.77,5.58,5.58,0,0,1,.45,1.83,12.08,12.08,0,0,1,0,2.25c-.06.78-.1,1.44-.1,2-.27,3.53-.53,7.09-.76,10.66S127.44,44.57,127.31,48Z"/><path class="cls-2" d="M173.61,24q-1.94,2.55-3.77,5.51c-1.22,2-2.45,3.87-3.67,5.71-.89,1.29-1.8,2.69-2.76,4.18a20.87,20.87,0,0,1-3.26,4,7,7,0,0,1-1.43,1.27,2.23,2.23,0,0,1-1.94.26,2.77,2.77,0,0,1-1.42-2.24,31.62,31.62,0,0,1,1.88-8.88,41.75,41.75,0,0,1,3.62-7.55c.48-.74,1-1.49,1.58-2.24a5.58,5.58,0,0,1,1.89-1.63,2.92,2.92,0,0,1,3.42.15c1,.78,1.34,2,1.07,3.72A5.45,5.45,0,0,0,170,24.58c.44-.81.92-1.65,1.43-2.5a16.94,16.94,0,0,1,1.63-2.29,2.82,2.82,0,0,1,1.79-1.12,2.17,2.17,0,0,1,.71.1l.61.2a4.67,4.67,0,0,1,1,1.94Q177,27,176.37,32.49t-.92,11.57V45.9c0,.75,0,1.5-.1,2.24a10.44,10.44,0,0,1-.36,2q-.26.87-.87.87a1.16,1.16,0,0,1-1.07-.66,5,5,0,0,1-.51-1.63,13,13,0,0,1-.15-2,11.63,11.63,0,0,0-.1-1.64,57.23,57.23,0,0,1,.2-10.81C172.9,30.74,173.27,27.3,173.61,24Zm-7.34.2a.09.09,0,0,0-.1-.1,2.89,2.89,0,0,0-.56.26,2.58,2.58,0,0,1-.56.25,21,21,0,0,0-2.55,3.62,42.8,42.8,0,0,0-2,4.13c-.55,1.43-1.08,3-1.58,4.54a22.07,22.07,0,0,0-1,5.15,35.9,35.9,0,0,0,5.15-6.57c1.53-2.49,3.07-4.92,4.64-7.3a4.08,4.08,0,0,1-.51-2.19A1.76,1.76,0,0,0,166.27,24.17Z"/><path class="cls-2" d="M192.28,12.75q8.78-.3,18.26-.92a135,135,0,0,1,18.87.1c.34,0,.71,0,1.12.06a.88.88,0,0,1,.82.56c-.07.54-.33.81-.77.81a5.87,5.87,0,0,1-1.17-.1,185.41,185.41,0,0,0-18.87.15q-9.39.57-18.46,1.07-1.44,8.37-2.61,17a125.29,125.29,0,0,0-1.07,18.15c0,.89,0,1.88.11,3a20.24,20.24,0,0,0,.4,3.06c.14.75.36,1.67.67,2.76s.76,1.66,1.37,1.73a1.32,1.32,0,0,0,1.07-.31,9.62,9.62,0,0,0,1.13-1,12.49,12.49,0,0,0,1-1.18c.3-.41.52-.71.66-.92A98.1,98.1,0,0,0,202.12,46q3.21-5.55,6.79-11.58c.61-1.08,1.25-2.2,1.93-3.36s1.43-2.31,2.25-3.47a9.27,9.27,0,0,1,.92-1.17c.34-.38.67-.5,1-.36.54.27.64.7.3,1.28s-.61,1-.81,1.27q-2.55,4.29-4.8,8.67t-4.79,8.67c-1,1.57-1.89,3.15-2.81,4.74s-1.88,3.18-2.9,4.75-2.08,3.09-3.17,4.59a10.92,10.92,0,0,1-4.18,3.46,5.5,5.5,0,0,1-2.14,0,6.31,6.31,0,0,1-3.52-3.82,28.87,28.87,0,0,1-1.38-5.76,44,44,0,0,1-.51-6.79c0-2.34.07-4.64.21-6.88Q185,33.35,185.91,27T188,14.79c-3.13.14-6.31.37-9.54.71s-6.51.58-9.84.72c-.41,0-.87,0-1.38.05a.76.76,0,0,1-.87-.77.72.72,0,0,1,.82-.81,9.91,9.91,0,0,0,1.43-.1c3.19-.21,6.46-.48,9.79-.82s6.63-.58,9.89-.71q.62-2.14,1.38-5.05a41.05,41.05,0,0,1,1.78-5.36A7.89,7.89,0,0,1,192.23,1a1.6,1.6,0,0,1,1.38-1,1.08,1.08,0,0,1,1,.41,1.6,1.6,0,0,1,.2,1,9,9,0,0,1-.2,1.17c-.11.41-.19.78-.26,1.12-.34,1.5-.68,3.05-1,4.64S192.62,11.39,192.28,12.75Z"/><path class="cls-2" d="M215.53,25.4a1.52,1.52,0,0,1,.36,1.12c0,.41,0,.85,0,1.33-.07,1.15-.09,2.41-.05,3.77s.05,2.69.05,4,0,2.55-.05,3.77a4.45,4.45,0,0,1-1.07,3h-.82a3.29,3.29,0,0,1-.76-1.58,15.61,15.61,0,0,1-.36-2.3c-.07-1.49-.08-3.06-.05-4.69a41.66,41.66,0,0,1,.36-4.79c.07-.41.13-.88.2-1.43a5.64,5.64,0,0,1,.36-1.43,1.68,1.68,0,0,1,.71-.86A1.17,1.17,0,0,1,215.53,25.4ZM216,5.61a2.27,2.27,0,0,1-.81,1.63,1.09,1.09,0,0,1-1.17-.2,1.63,1.63,0,0,1-.41-1,1.25,1.25,0,0,1,.3-1,1.3,1.3,0,0,1,1.18-.31C215.67,5.07,216,5.34,216,5.61Z"/><path class="cls-2" d="M225.43,31.31A20.17,20.17,0,0,0,224.1,35a17.26,17.26,0,0,0-.61,4.49,7.69,7.69,0,0,0,.92,3.82,3.59,3.59,0,0,0,3.26,1.73A10,10,0,0,0,232.72,44a44.11,44.11,0,0,0,4.13-2.34c1.36-1,2.64-1.89,3.83-2.81s2.26-1.82,3.21-2.7a55.32,55.32,0,0,0,5.05-4.39q2.4-2.34,4.74-4.79a2.5,2.5,0,0,0,.67-.82,8.44,8.44,0,0,1,.76-1.12,5.11,5.11,0,0,1,.87-.87.81.81,0,0,1,1-.05c.47.21.57.61.3,1.23a7.34,7.34,0,0,1-.71,1.32,3.7,3.7,0,0,1-.61,1.12c-.28.35-.55.72-.82,1.13a76.91,76.91,0,0,1-5.36,5.61C247.88,36.25,246,38,244,39.78a42.22,42.22,0,0,1-8.57,6.12,21.15,21.15,0,0,1-2.55,1.17,14.18,14.18,0,0,1-3,.82,13.44,13.44,0,0,1-3.11.15,6.05,6.05,0,0,1-2.91-.92,4.69,4.69,0,0,1-1.07-1l-1-1.18a9.81,9.81,0,0,1-1.28-4.33,19.41,19.41,0,0,1,.31-4.85,30.79,30.79,0,0,1,1.27-4.69,29.9,29.9,0,0,1,1.64-3.77,41.25,41.25,0,0,1,4.08-6,11.91,11.91,0,0,1,6.22-3.88,5,5,0,0,1,3.42.92,3.51,3.51,0,0,1,1.07,3.26,6.66,6.66,0,0,1-1.23,3.06,19,19,0,0,1-2.14,2.55,22.7,22.7,0,0,1-4,3.22A8.32,8.32,0,0,1,225.43,31.31Zm9.48-10.91a10.59,10.59,0,0,0-5.4,3.72A38,38,0,0,0,226,29.78a6.35,6.35,0,0,0,3.77-1,25.91,25.91,0,0,0,2.66-2.14c.74-.81,1.53-1.63,2.34-2.45a4.35,4.35,0,0,0,1.12-3.46A1.1,1.1,0,0,0,234.91,20.4Z"/><path class="cls-2" d="M255.11,41.11q2-3.88,4.08-7.91A38.12,38.12,0,0,1,264,25.91q.4-.51,1-1.23a7.61,7.61,0,0,1,1.33-1.22,4.27,4.27,0,0,1,1.58-.71,3.1,3.1,0,0,1,1.89.2A4.67,4.67,0,0,1,272,26.11c.48,1.63.88,3.27,1.22,4.9.14.75.29,1.53.46,2.34s.36,1.64.57,2.45a16.25,16.25,0,0,0,.81,2.3c.34.78.75,1.24,1.23,1.37a1.68,1.68,0,0,0,1.52-.35,11.32,11.32,0,0,1,1.23-.87c.41-.34.78-.63,1.12-.87a7.06,7.06,0,0,0,1-.86,42.26,42.26,0,0,0,4.28-4.29,51.83,51.83,0,0,1,4.29-4.38,17.07,17.07,0,0,1,1.78-1.18,2.72,2.72,0,0,1,1.23-.35c.37,0,.59.24.66.71s-.15.75-.66,1a5.22,5.22,0,0,0-1.18.82,25.36,25.36,0,0,0-2.85,2.9c-.95,1.13-2,2.26-3.06,3.42-.55.55-1.07,1.06-1.58,1.53s-1,1-1.58,1.53c-.89.88-1.84,1.75-2.86,2.6a6,6,0,0,1-4,1.28c-.13-.07-.29-.14-.46-.21a1.64,1.64,0,0,0-.56-.1,6.31,6.31,0,0,1-2.5-3.16,32.35,32.35,0,0,1-1.27-4.34c-.34-1.53-.66-3.06-1-4.59a14.35,14.35,0,0,0-1.48-4.13,6,6,0,0,0-2.65,2.3,31.82,31.82,0,0,1-2,2.9,47.45,47.45,0,0,0-3.47,6.33q-1.53,3.36-3,6.93a6.24,6.24,0,0,0-.71,1.59,17.77,17.77,0,0,1-.72,1.88,5.18,5.18,0,0,1-1.07,1.58,1.85,1.85,0,0,1-1.78.46,1.68,1.68,0,0,1-1.38-1.07,6.52,6.52,0,0,1-.56-2.24,24.76,24.76,0,0,1,0-2.76q.06-1.47.15-2.7.42-4.89,1.12-9.54a58.37,58.37,0,0,1,1.94-8.51q.41-1.12.72-2a1.4,1.4,0,0,1,1.32-1,1.16,1.16,0,0,1,1.28.56,2.86,2.86,0,0,1,.3,1.58,11.06,11.06,0,0,1-.3,2c-.17.71-.29,1.31-.36,1.78-.48,2.59-.88,5.17-1.22,7.75S255.38,38.52,255.11,41.11Z"/><path class="cls-2" d="M297.34,12.75q8.76-.3,18.25-.92a135,135,0,0,1,18.87.1c.34,0,.72,0,1.13.06a.87.87,0,0,1,.81.56c-.07.54-.32.81-.76.81a5.9,5.9,0,0,1-1.18-.1,185.46,185.46,0,0,0-18.87.15q-9.37.57-18.46,1.07-1.42,8.37-2.6,17a125.29,125.29,0,0,0-1.07,18.15c0,.89,0,1.88.1,3a21.56,21.56,0,0,0,.41,3.06q.21,1.13.66,2.76c.31,1.08.77,1.66,1.38,1.73a1.32,1.32,0,0,0,1.07-.31,9.56,9.56,0,0,0,1.12-1,10.13,10.13,0,0,0,1-1.18c.31-.41.53-.71.67-.92A98.1,98.1,0,0,0,307.18,46q3.21-5.55,6.78-11.58c.61-1.08,1.26-2.2,1.94-3.36s1.43-2.31,2.24-3.47a10.29,10.29,0,0,1,.92-1.17q.51-.57,1-.36c.55.27.65.7.31,1.28a13.88,13.88,0,0,1-.82,1.27q-2.55,4.29-4.79,8.67T310,45.9q-1.43,2.35-2.8,4.74t-2.91,4.75q-1.53,2.34-3.16,4.59a10.92,10.92,0,0,1-4.18,3.46,5.5,5.5,0,0,1-2.14,0,6.29,6.29,0,0,1-3.52-3.82,27.56,27.56,0,0,1-1.38-5.76,44,44,0,0,1-.51-6.79c0-2.34.07-4.64.2-6.88.35-4.56.8-9,1.38-13.21s1.28-8.31,2.09-12.19c-3.12.14-6.3.37-9.53.71s-6.52.58-9.85.72c-.41,0-.86,0-1.37.05a.76.76,0,0,1-.87-.77.72.72,0,0,1,.81-.81,9.8,9.8,0,0,0,1.43-.1q4.8-.31,9.79-.82c3.34-.34,6.63-.58,9.9-.71Q294,10.92,294.74,8a41.05,41.05,0,0,1,1.78-5.36A7.89,7.89,0,0,1,297.29,1a1.6,1.6,0,0,1,1.37-1,1.06,1.06,0,0,1,1,.41,1.54,1.54,0,0,1,.21,1,9.06,9.06,0,0,1-.21,1.17c-.1.41-.19.78-.25,1.12-.34,1.5-.68,3.05-1,4.64S297.68,11.39,297.34,12.75Z"/></g></g></svg>