<svg xmlns="http://www.w3.org/2000/svg" viewBox="0 0 214.02 93.74"><defs><style>.cls-1{fill:#53575a;}.cls-2{fill:#ff8300;}</style></defs><g id="Layer_2" data-name="Layer 2"><g id="Layer_1-2" data-name="Layer 1"><path class="cls-1" d="M24.49,66.88a28.18,28.18,0,0,1,1.85-10.36A25.14,25.14,0,0,1,31.28,48a22.13,22.13,0,0,1,7.27-5.68,20.42,20.42,0,0,1,9-2.11h3.83a20.31,20.31,0,0,1,9,2.11A21.79,21.79,0,0,1,67.78,48a28.43,28.43,0,0,1,5,8.51,30,30,0,0,1,1.78,10.36A29.55,29.55,0,0,1,72.8,77.24a28.6,28.6,0,0,1-5,8.52,21.88,21.88,0,0,1-7.39,5.67,20.33,20.33,0,0,1-9,2.12H47.59a20.43,20.43,0,0,1-9-2.12,22,22,0,0,1-7.27-5.67,25.28,25.28,0,0,1-4.94-8.52A28.14,28.14,0,0,1,24.49,66.88Zm7.19,0A40.63,40.63,0,0,0,32.9,77a27.86,27.86,0,0,0,3.67,8.45,12.61,12.61,0,0,0,1,1.52,15.11,15.11,0,0,0,1.15,1.32,17.35,17.35,0,0,0,4,3.07,32.53,32.53,0,0,0,3.13,1.48c.4.09.81.18,1.26.26a6.79,6.79,0,0,0,1.38.14h2a5.94,5.94,0,0,0,1.32-.14l1.32-.26c.75-.31,1.77-.8,3.07-1.48a18.44,18.44,0,0,0,4.06-3.07c.35-.4.71-.84,1.09-1.32s.73-1,1.09-1.52A28.39,28.39,0,0,0,66.13,77a41.11,41.11,0,0,0,0-20.2,28.33,28.33,0,0,0-3.69-8.44c-.36-.53-.72-1-1.09-1.52s-.74-.93-1.09-1.32a17.84,17.84,0,0,0-4.06-3.07c-1.3-.68-2.32-1.18-3.07-1.49l-1.32-.23a8.76,8.76,0,0,0-1.32-.1h-2a10.85,10.85,0,0,0-2.64.33,33.05,33.05,0,0,0-3.13,1.49,16.8,16.8,0,0,0-4,3.07,12.66,12.66,0,0,0-1.15,1.32,11.86,11.86,0,0,0-1,1.52,27.8,27.8,0,0,0-3.67,8.44A40.68,40.68,0,0,0,31.68,66.88Z"/><path class="cls-1" d="M137.28,40.94v.47h-1a18.38,18.38,0,0,0-2.8.29,12.15,12.15,0,0,0-3.4,1.13,8.29,8.29,0,0,0-2.87,2.4A6.73,6.73,0,0,0,126,49.46V93.74h-.52L86.66,45.17v40a6.86,6.86,0,0,0,1.22,4.29,8.22,8.22,0,0,0,2.87,2.41A12.15,12.15,0,0,0,94.15,93a18.5,18.5,0,0,0,2.8.29h1v.46H74.84v-.46h1A18.49,18.49,0,0,0,78.64,93,12.25,12.25,0,0,0,82,91.86a8.31,8.31,0,0,0,2.87-2.41,6.86,6.86,0,0,0,1.22-4.29V47.61c0-1.06,0-2-.07-2.74a3.84,3.84,0,0,0-.59-1.95,3,3,0,0,0-1.75-1.15,13.18,13.18,0,0,0-3.53-.36h-2v-.47H92.27l33.2,41.25V49.46a6.73,6.73,0,0,0-1.23-4.23,8.29,8.29,0,0,0-2.87-2.4A12.19,12.19,0,0,0,118,41.7a18.61,18.61,0,0,0-2.81-.29h-1v-.47h23.1Z"/><path class="cls-1" d="M175,92.62a16,16,0,0,0,3.86-1.71,14.55,14.55,0,0,0,2.93-2.41,18.81,18.81,0,0,0,2.18-2.81,22.46,22.46,0,0,0,3-7.65h.46l-1.91,15.7H141.83v-.46a25.51,25.51,0,0,0,3.8-.23,5.05,5.05,0,0,0,2.47-1,3.87,3.87,0,0,0,1.32-2,11.24,11.24,0,0,0,.4-3.36V48.67a2.6,2.6,0,0,0,0-.4,1.75,1.75,0,0,1,0-.4c0-2.41-.43-4.08-1.28-5s-2.39-1.42-4.59-1.55h-2.11v-.4h41.84V54.8h-.46v-.06c-.35-1.45-.76-3-1.22-4.56a13.46,13.46,0,0,0-2.15-4.32,11.07,11.07,0,0,0-4-3.23,14.46,14.46,0,0,0-6.6-1.29h-12.4V67.15h9.43a7.62,7.62,0,0,0,4.46-1.29,8.72,8.72,0,0,0,3.46-5.64,14.89,14.89,0,0,0,.2-1.85v-.2h.46V76.58h-.46v-.19a16.35,16.35,0,0,0-.2-1.92,8.57,8.57,0,0,0-1-3,8.31,8.31,0,0,0-2.54-2.74,8,8,0,0,0-4.66-1.19h-9.1V85.63a7.68,7.68,0,0,1,.06,1.18,12.69,12.69,0,0,0,.3,3,3.92,3.92,0,0,0,2.8,3,10.08,10.08,0,0,0,2.78.43h7.32A16.87,16.87,0,0,0,175,92.62Z"/><path class="cls-2" d="M26.9,40q2.21-5.28,4.76-10.12a26.84,26.84,0,0,1,6.63-8.24c.28-.12.55-.23.8-.35s.56-.22.9-.33a2.86,2.86,0,0,1,2.55.76,4.64,4.64,0,0,1,1.1,2.34,7.83,7.83,0,0,1,0,2.93,11.77,11.77,0,0,1-.81,2.64A25.74,25.74,0,0,0,46,27.54c1-.79,2.1-1.56,3.23-2.29.79-.57,1.6-1.14,2.42-1.71s1.66-1.13,2.51-1.69a8.21,8.21,0,0,0,.94-.47.82.82,0,0,1,1,.13.78.78,0,0,1-.26,1.1c-.4.28-.74.54-1,.77q-3.57,2.46-6.88,5t-6.8,5a30,30,0,0,1-2,3.19,25.24,25.24,0,0,1-2.47,2.84c-.34.29-.75.67-1.23,1.15s-1,.94-1.49,1.36A10.88,10.88,0,0,1,32.29,43a4.24,4.24,0,0,1-1.74.59c-1.25.18-1.93-.25-2-1.27A2,2,0,0,1,29,40.54a16.83,16.83,0,0,1,1.23-1.19c.45-.45.86-.84,1.23-1.18s.75-.68,1.15-1a29.34,29.34,0,0,0,2.72-2,27.62,27.62,0,0,1,2.72-2c.4-.62.81-1.35,1.23-2.17a26.78,26.78,0,0,0,1.15-2.5l.38-1.36a10.46,10.46,0,0,0,.3-1.54,4.92,4.92,0,0,0,0-1.44A2.29,2.29,0,0,0,40.41,23a4.57,4.57,0,0,0-3,1.4,28.48,28.48,0,0,0-2.13,2.43,37.2,37.2,0,0,0-4.25,6.84,72,72,0,0,0-3.23,7.86c-.23.57-.44,1.12-.64,1.66a10.64,10.64,0,0,0-.46,1.65,18,18,0,0,0-.26,3.11c0,1.1,0,2.19-.08,3.27-.12,2.15-.23,4.31-.34,6.46s-.26,4.34-.43,6.55c-.05.51-.1,1-.13,1.57a9.54,9.54,0,0,1-.17,1.49,3,3,0,0,1-.51,1.23,2.18,2.18,0,0,1-1.06.81H23.5a1.43,1.43,0,0,1-1.32-1.41,22.2,22.2,0,0,1-.13-2.42,41.21,41.21,0,0,1,.13-4.89c.14-1.56.33-3.13.55-4.71.12-.74.26-1.48.43-2.21s.31-1.48.42-2.21a36.82,36.82,0,0,0,.26-4.38c0-1.5.05-2.93.17-4.29.22-3.63.44-7.2.63-10.72s.42-7.11.64-10.79v-1.4a11.36,11.36,0,0,1,.09-1.49,3,3,0,0,1,.38-1.19,1,1,0,0,1,1-.51,1,1,0,0,1,1,.64,4.63,4.63,0,0,1,.39,1.53,11.67,11.67,0,0,1,0,1.87q-.09,1-.09,1.65-.34,4.42-.64,8.89C27.16,34.21,27,37.15,26.9,40Z"/><path class="cls-2" d="M65.49,20q-1.62,2.11-3.15,4.58c-1,1.65-2,3.23-3.06,4.77-.74,1.07-1.5,2.23-2.29,3.48a17.34,17.34,0,0,1-2.72,3.31,6.1,6.1,0,0,1-1.19,1.07,1.88,1.88,0,0,1-1.62.21,2.31,2.31,0,0,1-1.19-1.87,26.56,26.56,0,0,1,1.57-7.39,34.4,34.4,0,0,1,3-6.29c.4-.63.84-1.25,1.32-1.87a4.49,4.49,0,0,1,1.57-1.36,2.43,2.43,0,0,1,2.85.12,3.06,3.06,0,0,1,.89,3.11,4.79,4.79,0,0,0,1-1.36c.37-.68.76-1.38,1.19-2.09A14.1,14.1,0,0,1,65,16.49a2.31,2.31,0,0,1,1.49-.93,1.79,1.79,0,0,1,.59.08l.51.17a3.93,3.93,0,0,1,.85,1.62q-.17,5.1-.68,9.64T67,36.72v1.53c0,.62,0,1.25-.09,1.87a9.15,9.15,0,0,1-.3,1.66q-.21.72-.72.72A1,1,0,0,1,65,42a4.35,4.35,0,0,1-.43-1.36,11.28,11.28,0,0,1-.12-1.66,8.14,8.14,0,0,0-.09-1.36,47.43,47.43,0,0,1,.17-9Q65.06,24.14,65.49,20Zm-6.12.17a.08.08,0,0,0-.09-.09,2.9,2.9,0,0,0-.47.21,2.17,2.17,0,0,1-.46.22,17.32,17.32,0,0,0-2.13,3A36.81,36.81,0,0,0,54.52,27q-.68,1.79-1.32,3.78A18.65,18.65,0,0,0,52.4,35a30.43,30.43,0,0,0,4.29-5.48q1.91-3.11,3.87-6.08a3.35,3.35,0,0,1-.43-1.83A1.44,1.44,0,0,0,59.37,20.15Z"/><path class="cls-2" d="M81,10.62q7.3-.24,15.22-.76A111.41,111.41,0,0,1,112,10c.28,0,.6,0,.94,0a.73.73,0,0,1,.68.47c-.06.45-.27.68-.64.68a4.74,4.74,0,0,1-1-.09,152.52,152.52,0,0,0-15.72.13q-7.83.46-15.39.89-1.19,7-2.17,14.2a104.07,104.07,0,0,0-.89,15.13q0,1.1.09,2.46a16.37,16.37,0,0,0,.34,2.55,23.54,23.54,0,0,0,.55,2.3c.25.9.64,1.38,1.15,1.44a1.13,1.13,0,0,0,.89-.25,8.41,8.41,0,0,0,.93-.81,8.64,8.64,0,0,0,.85-1c.26-.34.44-.59.56-.76a83.24,83.24,0,0,0,6.07-9.06q2.69-4.63,5.66-9.64c.51-.91,1-1.85,1.61-2.81S97.7,23.91,98.38,23a7.89,7.89,0,0,1,.77-1,.73.73,0,0,1,.85-.29c.45.22.53.58.25,1.06a12.15,12.15,0,0,1-.68,1.06q-2.13,3.57-4,7.23t-4,7.22q-1.18,1.95-2.34,4t-2.42,4q-1.27,2-2.63,3.82a9.1,9.1,0,0,1-3.49,2.89,4.84,4.84,0,0,1-1.78,0A5.28,5.28,0,0,1,76,49.68a23.38,23.38,0,0,1-1.14-4.8,35.75,35.75,0,0,1-.43-5.65c0-2,.06-3.87.17-5.74q.44-5.7,1.15-11t1.74-10.15q-3.9.16-8,.59t-8.2.6c-.34,0-.72,0-1.15,0s-.66-.19-.72-.64a.6.6,0,0,1,.68-.68,8.15,8.15,0,0,0,1.19-.08q4-.25,8.16-.68t8.25-.6c.34-1.19.72-2.59,1.14-4.21a34.77,34.77,0,0,1,1.49-4.46A6.34,6.34,0,0,1,81,.81,1.34,1.34,0,0,1,82.15,0a.86.86,0,0,1,.8.34,1.28,1.28,0,0,1,.17.81,5.82,5.82,0,0,1-.17,1c-.08.35-.15.66-.21.94-.28,1.25-.57,2.54-.85,3.87S81.32,9.49,81,10.62Z"/><path class="cls-2" d="M100.42,21.17a1.25,1.25,0,0,1,.3.93c0,.34,0,.71,0,1.11,0,1-.07,2,0,3.14s0,2.24,0,3.32,0,2.12,0,3.14a3.7,3.7,0,0,1-.89,2.47h-.68A2.81,2.81,0,0,1,98.42,34,12.28,12.28,0,0,1,98.13,32c-.06-1.24-.08-2.54,0-3.9a37.24,37.24,0,0,1,.3-4c.06-.34.11-.74.17-1.19a4.81,4.81,0,0,1,.3-1.19,1.4,1.4,0,0,1,.59-.72A1,1,0,0,1,100.42,21.17Zm.42-16.49A2,2,0,0,1,100.17,6a.94.94,0,0,1-1-.17,1.41,1.41,0,0,1-.34-.81,1,1,0,0,1,.25-.81,1,1,0,0,1,1-.25C100.53,4.22,100.79,4.45,100.84,4.68Z"/><path class="cls-2" d="M108.66,26.1a17,17,0,0,0-1.1,3.1,14.44,14.44,0,0,0-.51,3.74,6.35,6.35,0,0,0,.77,3.18,3,3,0,0,0,2.71,1.45,8.46,8.46,0,0,0,4.21-.93c1.33-.68,2.48-1.34,3.45-2q1.69-1.18,3.18-2.34c1-.76,1.89-1.51,2.68-2.25a47,47,0,0,0,4.21-3.65q2-2,4-4a2.07,2.07,0,0,0,.55-.68,7.24,7.24,0,0,1,.64-.93,4.53,4.53,0,0,1,.72-.73.66.66,0,0,1,.81,0c.4.17.48.51.26,1a6.44,6.44,0,0,1-.6,1.11,2.82,2.82,0,0,1-.51.93c-.23.28-.45.6-.68.94a63.61,63.61,0,0,1-4.46,4.67c-1.56,1.47-3.16,2.95-4.8,4.42a35,35,0,0,1-7.15,5.1,18.43,18.43,0,0,1-2.12,1,12.2,12.2,0,0,1-2.47.68,11.72,11.72,0,0,1-2.59.13,5.27,5.27,0,0,1-2.42-.77,4.05,4.05,0,0,1-.89-.81l-.81-1a8.17,8.17,0,0,1-1.06-3.62,16.27,16.27,0,0,1,.25-4,25.69,25.69,0,0,1,1.06-3.9,24.53,24.53,0,0,1,1.37-3.15,34.61,34.61,0,0,1,3.39-5,10,10,0,0,1,5.19-3.23,4.08,4.08,0,0,1,2.85.76,2.94,2.94,0,0,1,.89,2.72,5.42,5.42,0,0,1-1,2.55,17.35,17.35,0,0,1-1.79,2.13,18.37,18.37,0,0,1-3.35,2.67A7,7,0,0,1,108.66,26.1Zm7.91-9.1a8.77,8.77,0,0,0-4.5,3.1,31.31,31.31,0,0,0-2.89,4.72,5.26,5.26,0,0,0,3.14-.85,24.88,24.88,0,0,0,2.21-1.78c.62-.68,1.28-1.36,2-2a3.69,3.69,0,0,0,.93-2.89A.91.91,0,0,0,116.57,17Z"/><path class="cls-2" d="M133.4,34.26c1.13-2.16,2.26-4.35,3.4-6.59a31,31,0,0,1,4-6.08l.85-1a5.9,5.9,0,0,1,1.11-1,3.59,3.59,0,0,1,1.32-.59,2.58,2.58,0,0,1,1.57.16,3.91,3.91,0,0,1,1.87,2.64q.59,2,1,4.08c.11.62.24,1.28.38,1.95s.3,1.37.47,2a13,13,0,0,0,.68,1.92,1.83,1.83,0,0,0,1,1.15,1.42,1.42,0,0,0,1.27-.3,9.63,9.63,0,0,1,1-.72,11.65,11.65,0,0,1,.94-.73,7.58,7.58,0,0,0,.85-.72,35.38,35.38,0,0,0,3.57-3.57,40.72,40.72,0,0,1,3.57-3.65,13,13,0,0,1,1.49-1,2.11,2.11,0,0,1,1-.3c.31,0,.49.2.55.6s-.13.62-.55.85a3.69,3.69,0,0,0-1,.68,20.28,20.28,0,0,0-2.38,2.42q-1.2,1.39-2.55,2.85c-.46.45-.89.87-1.32,1.27s-.86.82-1.32,1.28c-.73.73-1.53,1.45-2.38,2.16a5,5,0,0,1-3.31,1.06l-.38-.16a1.23,1.23,0,0,0-.47-.09,5.15,5.15,0,0,1-2.08-2.63,27.33,27.33,0,0,1-1.07-3.62c-.28-1.27-.55-2.55-.8-3.82a11.86,11.86,0,0,0-1.24-3.45,5.14,5.14,0,0,0-2.21,1.92,25.27,25.27,0,0,1-1.7,2.42,39.73,39.73,0,0,0-2.89,5.27q-1.28,2.81-2.46,5.78a5.09,5.09,0,0,0-.6,1.32,16.36,16.36,0,0,1-.59,1.57,4.57,4.57,0,0,1-.89,1.32,1.59,1.59,0,0,1-1.49.38,1.42,1.42,0,0,1-1.15-.89,5.52,5.52,0,0,1-.47-1.87,21.53,21.53,0,0,1,0-2.3c0-.82.07-1.57.13-2.25q.35-4.08.93-7.95A47.82,47.82,0,0,1,132.72,19c.22-.63.42-1.19.59-1.7a1.18,1.18,0,0,1,1.11-.85,1,1,0,0,1,1.06.46,2.52,2.52,0,0,1,.26,1.32,9.93,9.93,0,0,1-.26,1.66c-.14.59-.24,1.09-.3,1.48q-.59,3.24-1,6.46C133.88,30,133.62,32.1,133.4,34.26Z"/><path class="cls-2" d="M168.59,10.62q7.31-.24,15.21-.76a111.56,111.56,0,0,1,15.73.09c.28,0,.59,0,.93,0a.72.72,0,0,1,.68.47c0,.45-.27.68-.63.68a4.74,4.74,0,0,1-1-.09,152.74,152.74,0,0,0-15.73.13q-7.81.46-15.38.89-1.2,7-2.17,14.2a104.07,104.07,0,0,0-.89,15.13c0,.73,0,1.55.08,2.46a17.67,17.67,0,0,0,.34,2.55c.12.62.3,1.39.56,2.3s.63,1.38,1.14,1.44a1.15,1.15,0,0,0,.9-.25,8.41,8.41,0,0,0,.93-.81,9.78,9.78,0,0,0,.85-1c.26-.34.44-.59.55-.76a81.92,81.92,0,0,0,6.08-9.06q2.67-4.63,5.65-9.64c.51-.91,1.05-1.85,1.62-2.81s1.19-1.93,1.87-2.89a7.8,7.8,0,0,1,.76-1c.29-.31.57-.41.85-.29.46.22.54.58.26,1.06s-.51.83-.68,1.06q-2.13,3.57-4,7.23c-1.24,2.43-2.58,4.84-4,7.22-.8,1.3-1.57,2.62-2.34,4s-1.57,2.65-2.42,4-1.73,2.57-2.64,3.82a9.07,9.07,0,0,1-3.48,2.89,4.89,4.89,0,0,1-1.79,0,5.29,5.29,0,0,1-2.93-3.19,23.39,23.39,0,0,1-1.15-4.8,37,37,0,0,1-.42-5.65c0-2,.06-3.87.17-5.74q.42-5.7,1.15-11T165,12.33q-3.92.16-8,.59t-8.2.6c-.34,0-.72,0-1.15,0s-.66-.19-.72-.64a.6.6,0,0,1,.68-.68,8.25,8.25,0,0,0,1.19-.08q4-.25,8.16-.68c2.78-.29,5.52-.49,8.24-.6.34-1.19.73-2.59,1.15-4.21a34.77,34.77,0,0,1,1.49-4.46,5.91,5.91,0,0,1,.64-1.4A1.34,1.34,0,0,1,169.69,0a.87.87,0,0,1,.81.34,1.28,1.28,0,0,1,.17.81,5.82,5.82,0,0,1-.17,1c-.08.35-.16.66-.21.94-.29,1.25-.57,2.54-.85,3.87S168.87,9.49,168.59,10.62Z"/><path class="cls-2" d="M0,67.27a4.74,4.74,0,1,0,4.74-4.74A4.74,4.74,0,0,0,0,67.27"/><path class="cls-2" d="M204.54,67.27a4.74,4.74,0,1,0,4.74-4.74,4.74,4.74,0,0,0-4.74,4.74"/></g></g></svg>