<svg xmlns="http://www.w3.org/2000/svg" viewBox="0 0 217.02 93.74"><defs><style>.cls-1{fill:#53575a;}.cls-2{fill:#ff8300;}</style></defs><g id="Layer_2" data-name="Layer 2"><g id="Layer_1-2" data-name="Layer 1"><path class="cls-1" d="M26.67,66.88a28.39,28.39,0,0,1,1.85-10.36A25.33,25.33,0,0,1,33.47,48a22.09,22.09,0,0,1,7.26-5.68,20.45,20.45,0,0,1,9-2.11H53.6a20.36,20.36,0,0,1,9,2.11A21.88,21.88,0,0,1,70,48a28.19,28.19,0,0,1,5,8.51,30,30,0,0,1,1.79,10.36A29.56,29.56,0,0,1,75,77.24a28.36,28.36,0,0,1-5,8.52,22,22,0,0,1-7.39,5.67,20.37,20.37,0,0,1-9,2.12H49.77a20.46,20.46,0,0,1-9-2.12,21.93,21.93,0,0,1-7.26-5.67,25.47,25.47,0,0,1-4.95-8.52A28.35,28.35,0,0,1,26.67,66.88Zm7.2,0A40.16,40.16,0,0,0,35.09,77a27.6,27.6,0,0,0,3.66,8.45,15.5,15.5,0,0,0,1,1.52,15.18,15.18,0,0,0,1.16,1.32,17.1,17.1,0,0,0,4,3.07,32.51,32.51,0,0,0,3.14,1.48c.39.09.81.18,1.25.26a6.89,6.89,0,0,0,1.39.14h2A6,6,0,0,0,54,93.08l1.32-.26c.74-.31,1.77-.8,3.06-1.48a18.44,18.44,0,0,0,4.06-3.07c.36-.4.72-.84,1.09-1.32s.74-1,1.09-1.52A28.41,28.41,0,0,0,68.32,77a41.43,41.43,0,0,0,0-20.2,28.35,28.35,0,0,0-3.7-8.44c-.35-.53-.71-1-1.09-1.52s-.73-.93-1.09-1.32a17.84,17.84,0,0,0-4.06-3.07c-1.29-.68-2.32-1.18-3.06-1.49L54,40.71a8.86,8.86,0,0,0-1.32-.1h-2a10.85,10.85,0,0,0-2.64.33,33,33,0,0,0-3.14,1.49,16.57,16.57,0,0,0-4,3.07,12.71,12.71,0,0,0-1.16,1.32,14.39,14.39,0,0,0-1,1.52,27.54,27.54,0,0,0-3.66,8.44A40.22,40.22,0,0,0,33.87,66.88Z"/><path class="cls-1" d="M139.46,40.94v.47h-1a18.5,18.5,0,0,0-2.8.29,12.15,12.15,0,0,0-3.4,1.13,8.29,8.29,0,0,0-2.87,2.4,6.79,6.79,0,0,0-1.22,4.23V93.74h-.53L88.84,45.17v40a6.86,6.86,0,0,0,1.22,4.29,8.34,8.34,0,0,0,2.88,2.41A12.08,12.08,0,0,0,96.33,93a18.49,18.49,0,0,0,2.81.29h1v.46H77v-.46h1a18.38,18.38,0,0,0,2.8-.29,12.15,12.15,0,0,0,3.4-1.13,8.22,8.22,0,0,0,2.87-2.41,6.8,6.8,0,0,0,1.23-4.29V47.61c0-1.06,0-2-.07-2.74a3.94,3.94,0,0,0-.59-1.95,3.11,3.11,0,0,0-1.75-1.15,13.28,13.28,0,0,0-3.53-.36h-2v-.47H94.45l33.2,41.25V49.46a6.79,6.79,0,0,0-1.22-4.23,8.39,8.39,0,0,0-2.87-2.4,12.15,12.15,0,0,0-3.4-1.13,18.5,18.5,0,0,0-2.8-.29h-1v-.47h23.1Z"/><path class="cls-1" d="M177.15,92.62A16,16,0,0,0,181,90.91,14.9,14.9,0,0,0,184,88.5a20.22,20.22,0,0,0,2.18-2.81,22.87,22.87,0,0,0,3-7.65h.46l-1.91,15.7H144v-.46a25.45,25.45,0,0,0,3.79-.23,5.09,5.09,0,0,0,2.48-1,4,4,0,0,0,1.32-2,11.62,11.62,0,0,0,.39-3.36V48.67a2.6,2.6,0,0,0,0-.4,2.6,2.6,0,0,1,0-.4c0-2.41-.43-4.08-1.29-5s-2.39-1.42-4.58-1.55H144v-.4H185.8V54.8h-.47v-.06c-.35-1.45-.75-3-1.22-4.56A13.44,13.44,0,0,0,182,45.86a11.24,11.24,0,0,0-4-3.23,14.46,14.46,0,0,0-6.6-1.29H159V67.15h9.44a7.59,7.59,0,0,0,4.45-1.29,8.68,8.68,0,0,0,3.47-5.64,17.26,17.26,0,0,0,.2-1.85v-.2H177V76.58h-.46v-.19a19,19,0,0,0-.2-1.92,8.6,8.6,0,0,0-1.06-3,8.31,8.31,0,0,0-2.54-2.74,8,8,0,0,0-4.65-1.19H159V85.63a7.32,7.32,0,0,1,.07,1.18,13.3,13.3,0,0,0,.29,3,4.19,4.19,0,0,0,1,1.91,4.25,4.25,0,0,0,1.82,1.09,10,10,0,0,0,2.77.43h7.33A16.8,16.8,0,0,0,177.15,92.62Z"/><path class="cls-2" d="M27.58,40q2.21-5.28,4.76-10.12A26.84,26.84,0,0,1,39,21.68l.81-.35c.25-.11.55-.22.89-.33a2.86,2.86,0,0,1,2.55.76,4.57,4.57,0,0,1,1.11,2.34,7.83,7.83,0,0,1,0,2.93,11.78,11.78,0,0,1-.8,2.64,25.74,25.74,0,0,0,3.23-2.13c1-.79,2.09-1.56,3.23-2.29.79-.57,1.6-1.14,2.42-1.71s1.66-1.13,2.51-1.69a8.14,8.14,0,0,0,.93-.47.82.82,0,0,1,1,.13.78.78,0,0,1-.25,1.1c-.4.28-.74.54-1,.77q-3.57,2.46-6.89,5t-6.8,5a27.1,27.1,0,0,1-2,3.19,26.2,26.2,0,0,1-2.46,2.84c-.34.29-.76.67-1.24,1.15s-1,.94-1.48,1.36A11.39,11.39,0,0,1,33,43a4.34,4.34,0,0,1-1.74.59c-1.25.18-1.93-.25-2-1.27a2,2,0,0,1,.46-1.79c.43-.45.84-.84,1.24-1.19s.86-.84,1.23-1.18.75-.68,1.15-1a29.34,29.34,0,0,0,2.72-2,26.48,26.48,0,0,1,2.72-2c.39-.62.8-1.35,1.23-2.17s.81-1.65,1.15-2.5l.38-1.36a10.46,10.46,0,0,0,.3-1.54,4.91,4.91,0,0,0-.05-1.44A2.2,2.2,0,0,0,41.1,23a4.6,4.6,0,0,0-3,1.4A30.15,30.15,0,0,0,36,26.78a36.67,36.67,0,0,0-4.25,6.84,72,72,0,0,0-3.23,7.86c-.23.57-.44,1.12-.64,1.66a10.68,10.68,0,0,0-.47,1.65,18,18,0,0,0-.25,3.11q0,1.65-.09,3.27c-.11,2.15-.23,4.31-.34,6.46s-.25,4.34-.42,6.55c-.06.51-.1,1-.13,1.57A12.75,12.75,0,0,1,26,67.24a3.35,3.35,0,0,1-.51,1.23,2.28,2.28,0,0,1-1.06.81h-.26a1.44,1.44,0,0,1-1.32-1.41c-.08-.82-.12-1.63-.12-2.42a39.24,39.24,0,0,1,.12-4.89c.15-1.56.33-3.13.56-4.71.11-.74.25-1.48.42-2.21s.31-1.48.43-2.21a36.84,36.84,0,0,0,.25-4.38c0-1.5.06-2.93.17-4.29Q25,37.32,25.33,32T26,21.25v-1.4a11.45,11.45,0,0,1,.08-1.49,3.33,3.33,0,0,1,.38-1.19,1.05,1.05,0,0,1,1-.51,1,1,0,0,1,1,.64,4.63,4.63,0,0,1,.38,1.53,9.73,9.73,0,0,1,0,1.87c-.06.65-.08,1.2-.08,1.65q-.35,4.42-.64,8.89C27.85,34.21,27.69,37.15,27.58,40Z"/><path class="cls-2" d="M66.17,20c-1.08,1.41-2.12,2.94-3.14,4.58S61,27.79,60,29.33c-.74,1.07-1.51,2.23-2.3,3.48A17,17,0,0,1,55,36.12a6.1,6.1,0,0,1-1.19,1.07,1.85,1.85,0,0,1-1.61.21A2.29,2.29,0,0,1,51,35.53a26.21,26.21,0,0,1,1.57-7.39,33.76,33.76,0,0,1,3-6.29A21.88,21.88,0,0,1,56.86,20a4.52,4.52,0,0,1,1.58-1.36,2.42,2.42,0,0,1,2.84.12,3.08,3.08,0,0,1,.9,3.11,4.81,4.81,0,0,0,1-1.36c.37-.68.77-1.38,1.19-2.09a15,15,0,0,1,1.36-1.91,2.31,2.31,0,0,1,1.49-.93,1.82,1.82,0,0,1,.6.08l.51.17a3.93,3.93,0,0,1,.85,1.62c-.12,3.4-.34,6.61-.68,9.64s-.6,6.25-.77,9.65v1.53c0,.62,0,1.25-.08,1.87a9.15,9.15,0,0,1-.3,1.66q-.21.72-.72.72a1,1,0,0,1-.9-.55,4.11,4.11,0,0,1-.42-1.36,10.05,10.05,0,0,1-.13-1.66,9.62,9.62,0,0,0-.08-1.36,47.43,47.43,0,0,1,.17-9Q65.75,24.14,66.17,20Zm-6.12.17c0-.06,0-.09-.08-.09a2.9,2.9,0,0,0-.47.21,2.26,2.26,0,0,1-.47.22,17.82,17.82,0,0,0-2.12,3A34.51,34.51,0,0,0,55.21,27q-.69,1.79-1.32,3.78A18.13,18.13,0,0,0,53.08,35a29.56,29.56,0,0,0,4.29-5.48q1.92-3.11,3.87-6.08a3.44,3.44,0,0,1-.42-1.83A1.44,1.44,0,0,0,60.05,20.15Z"/><path class="cls-2" d="M81.73,10.62q7.3-.24,15.21-.76a111.56,111.56,0,0,1,15.73.09c.28,0,.59,0,.93,0a.72.72,0,0,1,.68.47c-.06.45-.27.68-.64.68a4.64,4.64,0,0,1-1-.09,152.71,152.71,0,0,0-15.73.13q-7.81.46-15.38.89-1.2,7-2.17,14.2A104.07,104.07,0,0,0,78.5,41.4c0,.73,0,1.55.08,2.46a17.67,17.67,0,0,0,.34,2.55c.11.62.3,1.39.55,2.3s.64,1.38,1.15,1.44a1.13,1.13,0,0,0,.89-.25,8.47,8.47,0,0,0,.94-.81,9.78,9.78,0,0,0,.85-1c.25-.34.44-.59.55-.76a83.35,83.35,0,0,0,6.08-9.06q2.67-4.63,5.65-9.64c.51-.91,1-1.85,1.62-2.81s1.19-1.93,1.87-2.89a7.8,7.8,0,0,1,.76-1,.73.73,0,0,1,.85-.29c.45.22.54.58.26,1.06s-.51.83-.68,1.06q-2.13,3.57-4,7.23t-4,7.22q-1.2,1.95-2.34,4c-.77,1.33-1.57,2.65-2.42,4S85.78,48.73,84.87,50a9.14,9.14,0,0,1-3.48,2.89,4.89,4.89,0,0,1-1.79,0,5.26,5.26,0,0,1-2.93-3.19,23.39,23.39,0,0,1-1.15-4.8,37,37,0,0,1-.42-5.65c0-2,.05-3.87.17-5.74q.42-5.7,1.14-11c.48-3.54,1.07-6.92,1.75-10.15q-3.91.16-8,.59c-2.69.28-5.43.48-8.2.6-.34,0-.73,0-1.15,0a.62.62,0,0,1-.72-.64.6.6,0,0,1,.68-.68A8.25,8.25,0,0,0,62,12.16q4-.25,8.16-.68t8.24-.6c.34-1.19.72-2.59,1.15-4.21a33.29,33.29,0,0,1,1.49-4.46,6.25,6.25,0,0,1,.63-1.4A1.35,1.35,0,0,1,82.83,0a.87.87,0,0,1,.81.34,1.28,1.28,0,0,1,.17.81,7.06,7.06,0,0,1-.17,1c-.09.35-.16.66-.21.94-.29,1.25-.57,2.54-.85,3.87S82,9.49,81.73,10.62Z"/><path class="cls-2" d="M101.1,21.17a1.25,1.25,0,0,1,.3.93c0,.34,0,.71,0,1.11-.06,1-.07,2,0,3.14s0,2.24,0,3.32,0,2.12,0,3.14a3.71,3.71,0,0,1-.9,2.47h-.68A2.81,2.81,0,0,1,99.11,34a13.55,13.55,0,0,1-.3-1.92c-.06-1.24-.07-2.54,0-3.9a37.26,37.26,0,0,1,.29-4c.06-.34.12-.74.17-1.19a4.81,4.81,0,0,1,.3-1.19,1.37,1.37,0,0,1,.6-.72A1,1,0,0,1,101.1,21.17Zm.43-16.49A2,2,0,0,1,100.85,6a1,1,0,0,1-1-.17,1.41,1.41,0,0,1-.34-.81,1,1,0,0,1,.26-.81,1,1,0,0,1,1-.25C101.22,4.22,101.47,4.45,101.53,4.68Z"/><path class="cls-2" d="M109.35,26.1a16.18,16.18,0,0,0-1.11,3.1,14.44,14.44,0,0,0-.51,3.74,6.35,6.35,0,0,0,.77,3.18,3,3,0,0,0,2.72,1.45,8.48,8.48,0,0,0,4.21-.93c1.33-.68,2.47-1.34,3.44-2,1.13-.79,2.2-1.57,3.19-2.34s1.88-1.51,2.67-2.25a45.69,45.69,0,0,0,4.21-3.65q2-2,3.95-4a2.07,2.07,0,0,0,.56-.68,8.38,8.38,0,0,1,.63-.93,4.2,4.2,0,0,1,.73-.73.65.65,0,0,1,.8,0c.4.17.49.51.26,1a6.44,6.44,0,0,1-.6,1.11,2.82,2.82,0,0,1-.51.93c-.22.28-.45.6-.68.94a61.58,61.58,0,0,1-4.46,4.67c-1.56,1.47-3.16,2.95-4.8,4.42a34.69,34.69,0,0,1-7.14,5.1,17.86,17.86,0,0,1-2.13,1,12.11,12.11,0,0,1-2.46.68,11.79,11.79,0,0,1-2.59.13,5.31,5.31,0,0,1-2.43-.77,4.29,4.29,0,0,1-.89-.81c-.25-.31-.52-.63-.81-1a8.3,8.3,0,0,1-1.06-3.62,16.28,16.28,0,0,1,.26-4,26.3,26.3,0,0,1,2.42-7,34.66,34.66,0,0,1,3.4-5,9.93,9.93,0,0,1,5.18-3.23,4.08,4.08,0,0,1,2.85.76,2.89,2.89,0,0,1,.89,2.72,5.42,5.42,0,0,1-1,2.55,17.3,17.3,0,0,1-1.78,2.13,18.78,18.78,0,0,1-3.36,2.67A7,7,0,0,1,109.35,26.1Zm7.9-9.1a8.85,8.85,0,0,0-4.5,3.1,31.31,31.31,0,0,0-2.89,4.72A5.26,5.26,0,0,0,113,24a23.52,23.52,0,0,0,2.21-1.78c.63-.68,1.28-1.36,2-2a3.65,3.65,0,0,0,.93-2.89A.9.9,0,0,0,117.25,17Z"/><path class="cls-2" d="M134.08,34.26c1.14-2.16,2.27-4.35,3.4-6.59a31.51,31.51,0,0,1,4-6.08c.22-.28.51-.62.85-1a6.17,6.17,0,0,1,1.1-1,3.74,3.74,0,0,1,1.32-.59,2.57,2.57,0,0,1,1.57.16,3.88,3.88,0,0,1,1.87,2.64q.6,2,1,4.08c.12.62.24,1.28.39,1.95s.29,1.37.46,2a14.27,14.27,0,0,0,.68,1.92,1.88,1.88,0,0,0,1,1.15,1.44,1.44,0,0,0,1.28-.3,7.94,7.94,0,0,1,1-.72c.34-.29.65-.53.93-.73a6.13,6.13,0,0,0,.85-.72,33.42,33.42,0,0,0,3.57-3.57A43.64,43.64,0,0,1,163,23.21a14,14,0,0,1,1.49-1,2.17,2.17,0,0,1,1-.3c.31,0,.5.2.55.6s-.12.62-.55.85a4.06,4.06,0,0,0-1,.68,21.92,21.92,0,0,0-2.38,2.42q-1.19,1.39-2.55,2.85c-.45.45-.89.87-1.31,1.27s-.87.82-1.32,1.28c-.74.73-1.53,1.45-2.38,2.16a5,5,0,0,1-3.32,1.06l-.38-.16a1.19,1.19,0,0,0-.47-.09,5.26,5.26,0,0,1-2.08-2.63,27.33,27.33,0,0,1-1.06-3.62c-.29-1.27-.55-2.55-.81-3.82a11.85,11.85,0,0,0-1.23-3.45A5.09,5.09,0,0,0,143,23.25a27.2,27.2,0,0,1-1.7,2.42,38.62,38.62,0,0,0-2.89,5.27q-1.28,2.81-2.47,5.78a5.46,5.46,0,0,0-.59,1.32,14.12,14.12,0,0,1-.6,1.57,4.21,4.21,0,0,1-.89,1.32,1.58,1.58,0,0,1-1.49.38,1.39,1.39,0,0,1-1.14-.89,5.09,5.09,0,0,1-.47-1.87,19.19,19.19,0,0,1,0-2.3c0-.82.07-1.57.12-2.25q.35-4.08.94-7.95A47.85,47.85,0,0,1,133.4,19c.23-.63.43-1.19.6-1.7a1.18,1.18,0,0,1,1.1-.85,1,1,0,0,1,1.07.46,2.52,2.52,0,0,1,.25,1.32,9.85,9.85,0,0,1-.25,1.66,12.91,12.91,0,0,0-.3,1.48q-.6,3.24-1,6.46C134.56,30,134.31,32.1,134.08,34.26Z"/><path class="cls-2" d="M169.27,10.62q7.32-.24,15.22-.76a111.41,111.41,0,0,1,15.72.09c.29,0,.6,0,.94,0a.73.73,0,0,1,.68.47c-.06.45-.27.68-.64.68a4.81,4.81,0,0,1-1-.09,152.52,152.52,0,0,0-15.72.13c-5.22.31-10.34.61-15.39.89q-1.18,7-2.16,14.2A102.66,102.66,0,0,0,166,41.4q0,1.1.09,2.46a16.37,16.37,0,0,0,.34,2.55c.11.62.3,1.39.55,2.3s.64,1.38,1.15,1.44a1.13,1.13,0,0,0,.89-.25,8.41,8.41,0,0,0,.93-.81,8.74,8.74,0,0,0,.86-1l.55-.76a84.82,84.82,0,0,0,6.08-9.06q2.67-4.63,5.65-9.64c.51-.91,1.05-1.85,1.61-2.81s1.19-1.93,1.87-2.89a7.89,7.89,0,0,1,.77-1,.73.73,0,0,1,.85-.29c.45.22.54.58.25,1.06a12.15,12.15,0,0,1-.68,1.06c-1.41,2.38-2.75,4.79-4,7.23s-2.58,4.84-4,7.22q-1.19,1.95-2.33,4t-2.43,4q-1.28,2-2.63,3.82a9.1,9.1,0,0,1-3.49,2.89,4.84,4.84,0,0,1-1.78,0,5.28,5.28,0,0,1-2.94-3.19,23.38,23.38,0,0,1-1.14-4.8,35.75,35.75,0,0,1-.43-5.65c0-2,.06-3.87.17-5.74q.44-5.7,1.15-11t1.74-10.15q-3.9.16-7.95.59t-8.2.6c-.34,0-.72,0-1.15,0s-.66-.19-.72-.64a.6.6,0,0,1,.68-.68,8.15,8.15,0,0,0,1.19-.08q4-.25,8.16-.68t8.25-.6c.34-1.19.72-2.59,1.15-4.21a33.3,33.3,0,0,1,1.48-4.46,6.85,6.85,0,0,1,.64-1.4A1.34,1.34,0,0,1,170.38,0a.89.89,0,0,1,.81.34,1.35,1.35,0,0,1,.17.81,7.06,7.06,0,0,1-.17,1c-.09.35-.16.66-.22.94-.28,1.25-.57,2.54-.85,3.87S169.56,9.49,169.27,10.62Z"/><path class="cls-2" d="M0,49.27a4.74,4.74,0,1,0,4.74-4.74A4.74,4.74,0,0,0,0,49.27"/><path class="cls-2" d="M207.54,49.27a4.74,4.74,0,1,0,4.74-4.74,4.74,4.74,0,0,0-4.74,4.74"/></g></g></svg>