<svg xmlns="http://www.w3.org/2000/svg" viewBox="0 0 619.67 166.73"><defs><style>.cls-1{fill:#53575a;}.cls-2{fill:#ff8300;}</style></defs><g id="Layer_2" data-name="Layer 2"><g id="Layer_1-2" data-name="Layer 1"><g id="Layer_1-2-2" data-name="Layer 1-2"><path class="cls-1" d="M31.71,99.86v-.6a34.26,34.26,0,0,0,4.95-.3,6.76,6.76,0,0,0,3.22-1.25,5.19,5.19,0,0,0,1.72-2.58,15.06,15.06,0,0,0,.52-4.38V40.08c0-3.15-.56-5.32-1.68-6.49s-3.11-1.85-6-2H31.71v-.51H64.39a34.9,34.9,0,0,1,10,1.29,19.9,19.9,0,0,1,6.86,3.71,14.59,14.59,0,0,1,3.91,5.38,17.66,17.66,0,0,1,1.34,6.92q0,7.74-5.25,12.3a18.62,18.62,0,0,1-6.88,3.7,32,32,0,0,1-10,1.37H51.32V90.86a15.84,15.84,0,0,0,.39,4,5,5,0,0,0,3.7,3.91,14,14,0,0,0,3.65.56h2.67l-.09.09v.51H31.71ZM51.32,65.2H63.71A12.49,12.49,0,0,0,71,63.08a14.07,14.07,0,0,0,1.93-1.77,11.76,11.76,0,0,0,1.76-2.54,18.24,18.24,0,0,0,1.73-4.69A26.22,26.22,0,0,0,77,48.35q0-7.4-3.19-11.87a11.74,11.74,0,0,0-10.14-4.9H58.2c-2.58.29-4.37,1-5.37,2.15S51.32,37,51.32,40Z"/><path class="cls-1" d="M79,99.08l1.51-.17a10.59,10.59,0,0,0,3.35-1.16,17.93,17.93,0,0,0,4.14-3,17,17,0,0,0,3.7-5.93L114.79,31h.69l23,57.62a37,37,0,0,0,2.83,5.8,11.57,11.57,0,0,0,2.58,3,5.93,5.93,0,0,0,2.63,1.21l3.05.47v.6H121.41v-.6c2.07-.11,3.83-.24,5.29-.39A6,6,0,0,0,130,97.53a3.42,3.42,0,0,0,1-3,24.42,24.42,0,0,0-1.72-6.06l-6.37-16h-24L92.34,88.68a8.32,8.32,0,0,0-.73,4.4A5.65,5.65,0,0,0,93,96a7,7,0,0,0,2.53,1.81,15.64,15.64,0,0,0,2.93.94,15.38,15.38,0,0,0,2.45.35H102v.6H79Zm31.91-56.59L99.14,71.83h23.48Z"/><path class="cls-1" d="M202.68,48.87v-.18c-.46-1.77-1-3.62-1.55-5.54a20.22,20.22,0,0,0-2.53-5.38A14.11,14.11,0,0,0,194,33.56a17.16,17.16,0,0,0-7.53-2.07h-.77c-2.52.23-4.29.94-5.29,2.11s-1.5,3.25-1.5,6.23V90.66a16.58,16.58,0,0,0,.38,3.91,5,5,0,0,0,3.66,4,13.33,13.33,0,0,0,3.61.56h2.66v.6H159.34v-.65a34,34,0,0,0,4.94-.3,6.39,6.39,0,0,0,3.18-1.25A5.27,5.27,0,0,0,169.14,95a15.41,15.41,0,0,0,.52-4.38V39.92a16.81,16.81,0,0,0-.39-4,5.55,5.55,0,0,0-1.29-2.5,5.25,5.25,0,0,0-2.37-1.34,18.41,18.41,0,0,0-3.61-.61h-.51A16.73,16.73,0,0,0,154,33.56a14.43,14.43,0,0,0-4.55,4.21,18.29,18.29,0,0,0-2.58,5.38c-.58,1.92-1.06,3.77-1.46,5.54v.18h-.61V30.81h58.48V48.87Z"/><path class="cls-1" d="M215.36,99a6.8,6.8,0,0,0,3.23-1.25,5.19,5.19,0,0,0,1.72-2.58,15.41,15.41,0,0,0,.52-4.38V40.08c0-3.15-.56-5.32-1.68-6.49s-3.11-1.85-6-2H210.4v-.51h29.93v.43h0v.09h-3.42c-2.58.29-4.37,1-5.38,2.15S230,37,230,40V90.85a15.84,15.84,0,0,0,.39,4,5.19,5.19,0,0,0,1.29,2.49,5.49,5.49,0,0,0,2.4,1.42,14.17,14.17,0,0,0,3.66.56h2.66v.6h-30v-.6A34,34,0,0,0,215.36,99Z"/><path class="cls-1" d="M289.71,98.4a20.58,20.58,0,0,0,5-2.24A19.14,19.14,0,0,0,298.54,93a26.53,26.53,0,0,0,2.84-3.66,30,30,0,0,0,3.87-10h.6l-2.49,20.46H246.54v-.6a34,34,0,0,0,4.94-.3,6.8,6.8,0,0,0,3.23-1.25,5.19,5.19,0,0,0,1.72-2.58,15.41,15.41,0,0,0,.52-4.38V41.08a4.4,4.4,0,0,0-.05-.51,2.26,2.26,0,0,1,0-.52c0-3.15-.56-5.32-1.68-6.49s-3.11-1.85-6-2h-2.76v-.48H301v18h-.6c-.46-1.89-1-3.87-1.6-5.94a18,18,0,0,0-2.8-5.67,14.62,14.62,0,0,0-5.16-4.21,18.9,18.9,0,0,0-8.6-1.68H266.06V65.2h12.3a9.81,9.81,0,0,0,5.8-1.67A11.37,11.37,0,0,0,287.35,60a11.52,11.52,0,0,0,1.33-3.78c.13-.8.21-1.6.26-2.41v-.26h.6v24h-.6v-.25c-.05-.84-.13-1.67-.26-2.5a11.35,11.35,0,0,0-1.38-3.91A10.85,10.85,0,0,0,284,67.27,10.37,10.37,0,0,0,278,65.72H266.06V89.29a10,10,0,0,1,.09,1.54,16.8,16.8,0,0,0,.38,4,5.37,5.37,0,0,0,1.29,2.49,5.48,5.48,0,0,0,2.37,1.42,13.33,13.33,0,0,0,3.61.56h9.55A21.78,21.78,0,0,0,289.71,98.4Z"/><path class="cls-1" d="M391.79,31.08v.6H390.5a22.27,22.27,0,0,0-3.65.39,16,16,0,0,0-4.43,1.46,10.92,10.92,0,0,0-3.74,3.14,8.81,8.81,0,0,0-1.59,5.51v57.7h-.69L325.83,36.57V88.68a8.9,8.9,0,0,0,1.59,5.59,10.52,10.52,0,0,0,3.74,3.14,15.28,15.28,0,0,0,4.43,1.46,22.39,22.39,0,0,0,3.66.39h1.29v.6h-30.1v-.6h1.29a22.5,22.5,0,0,0,3.65-.39,15.48,15.48,0,0,0,4.43-1.46,10.7,10.7,0,0,0,3.74-3.14,9,9,0,0,0,1.59-5.59V39.75c0-1.38,0-2.57-.08-3.57a5.08,5.08,0,0,0-.78-2.54,4.06,4.06,0,0,0-2.28-1.5,17,17,0,0,0-4.6-.48h-2.66v-.58h18.4L376.4,84.83V42.16a8.94,8.94,0,0,0-1.59-5.51,11.11,11.11,0,0,0-3.74-3.14,16.17,16.17,0,0,0-4.43-1.43,22.62,22.62,0,0,0-3.66-.39h-1.29v-.61Z"/><path class="cls-1" d="M456.29,48.87v-.18c-.46-1.77-1-3.62-1.55-5.54a19.91,19.91,0,0,0-2.53-5.38,14,14,0,0,0-4.56-4.21,17.16,17.16,0,0,0-7.53-2.07h-.77c-2.52.23-4.29.94-5.29,2.11s-1.5,3.25-1.5,6.23V90.66a16.58,16.58,0,0,0,.38,3.91,5,5,0,0,0,3.66,4,13.33,13.33,0,0,0,3.61.56h2.67v.6H413v-.65a34,34,0,0,0,4.94-.3,6.39,6.39,0,0,0,3.18-1.25A5.27,5.27,0,0,0,422.75,95a15.06,15.06,0,0,0,.52-4.38V39.92a16.81,16.81,0,0,0-.39-4,5.55,5.55,0,0,0-1.29-2.5,5.22,5.22,0,0,0-2.36-1.34,18.63,18.63,0,0,0-3.62-.61h-.51a16.58,16.58,0,0,0-7.48,2.07,14.35,14.35,0,0,0-4.56,4.21,18.29,18.29,0,0,0-2.58,5.38c-.58,1.92-1.06,3.77-1.46,5.54v.18h-.61v-18h58.48V48.87Z"/><path class="cls-2" d="M414,81.68a10.25,10.25,0,0,0-3.75,3,12.08,12.08,0,0,0-1.56,2,4,4,0,0,0-.69,2.63,4.33,4.33,0,0,0,1.38,2.43c.75.71,1.41,1.36,2,1.94l1.93,1.94A17.4,17.4,0,0,1,415,97.56c2.08-1.5,4.06-3.07,5.94-4.69A53.92,53.92,0,0,1,427,88.31a43.47,43.47,0,0,1,4.69-3.13q2.55-1.5,5.31-2.87l1.75-.88a1.7,1.7,0,0,1,1.88.13,1.34,1.34,0,0,1-.13,1,1.54,1.54,0,0,1-.75.56l-1,.37a1.53,1.53,0,0,0-.75.57,33.29,33.29,0,0,0-5.06,2.81c-1.54,1-3.11,2.06-4.69,3.06q-6,4.5-11.62,9.38a41.39,41.39,0,0,1,3.06,5.87,18.52,18.52,0,0,1,1.31,7.13,21,21,0,0,1-1.25,8,23.29,23.29,0,0,1-3.75,6.5,28.22,28.22,0,0,1-5.37,4.75,11.8,11.8,0,0,1-7.25,2.12,8.59,8.59,0,0,1-2.88-.62,10.94,10.94,0,0,1-2.12-1.25,12.48,12.48,0,0,1-2-2.88,9.09,9.09,0,0,1-.88-3.62,13.6,13.6,0,0,1,1.63-8,41.65,41.65,0,0,1,4.12-6.25,49.9,49.9,0,0,1,4.94-5.44c1.71-1.63,3.39-3.15,5.06-4.56a15.29,15.29,0,0,0-2-2.32c-.75-.7-1.5-1.43-2.25-2.18a20.2,20.2,0,0,1-2.06-2.38,9.27,9.27,0,0,1-1.44-2.75,6.44,6.44,0,0,1,.06-5.06A19,19,0,0,1,406,82.31a31.21,31.21,0,0,1,2.44-2.44,11,11,0,0,1,2.81-1.79,10.8,10.8,0,0,1,1.88-.38A3.53,3.53,0,0,1,415,78a2.66,2.66,0,0,0,.69.69,2.16,2.16,0,0,1,.69.94,4.16,4.16,0,0,1,.06,2.37c-.21.92-.52,1.38-.94,1.38-.58.08-.92-.09-1-.5A2.83,2.83,0,0,0,414,81.68Zm-1.62,21.63a57.56,57.56,0,0,0-8.38,8.5q-1.12,1.36-2.31,3.06a18,18,0,0,0-2,3.69,17.36,17.36,0,0,0-1.13,4.18,10.26,10.26,0,0,0,.44,4.57,8.64,8.64,0,0,0,1.63,1.68,3.69,3.69,0,0,0,2.37.69,8.69,8.69,0,0,0,5.06-1.94,22.55,22.55,0,0,0,3.94-3.93,17.67,17.67,0,0,0,2.44-4.75,22,22,0,0,0,1.12-5.57,18,18,0,0,0-.5-5.56,13.42,13.42,0,0,0-2.31-4.87c0-.09,0-.13-.12-.13A.62.62,0,0,0,412.33,103.31Zm-13.25,31.12c0,.08.08,0,.25-.12,0,.08-.09.12-.25.12Z"/><path class="cls-2" d="M454.45,79.18q-2.37,3.12-4.62,6.75t-4.5,7c-1.09,1.58-2.21,3.29-3.38,5.13a26,26,0,0,1-4,4.87,8.93,8.93,0,0,1-1.75,1.56,2.7,2.7,0,0,1-2.37.32,3.38,3.38,0,0,1-1.75-2.75,38.64,38.64,0,0,1,2.31-10.88,48.86,48.86,0,0,1,4.44-9.25c.58-.92,1.22-1.83,1.93-2.75a6.78,6.78,0,0,1,2.32-2,3.56,3.56,0,0,1,4.18.19q1.8,1.44,1.32,4.56a7.1,7.1,0,0,0,1.43-2c.54-1,1.13-2,1.75-3.06a19.64,19.64,0,0,1,2-2.81A3.41,3.41,0,0,1,456,72.68a2.68,2.68,0,0,1,.88.13l.75.25a5.89,5.89,0,0,1,1.25,2.37q-.27,7.5-1,14.19t-1.13,14.19v2.27a21.17,21.17,0,0,1-.12,2.75,13.32,13.32,0,0,1-.44,2.43c-.21.71-.56,1.07-1.06,1.07a1.4,1.4,0,0,1-1.32-.82,6.12,6.12,0,0,1-.62-2,14.14,14.14,0,0,1-.19-2.43,13.34,13.34,0,0,0-.12-2,69,69,0,0,1,.25-13.25Q453.83,85.31,454.45,79.18Zm-9,.25a.12.12,0,0,0-.1-.12h0a2.69,2.69,0,0,0-.69.31,3.55,3.55,0,0,1-.69.31,24.83,24.83,0,0,0-3.12,4.44,48.49,48.49,0,0,0-2.5,5.06C437.66,91.18,437,93,436.39,95a26.62,26.62,0,0,0-1.19,6.32,44.07,44.07,0,0,0,6.31-8.07q2.82-4.56,5.69-8.93a5,5,0,0,1-.62-2.69A2.15,2.15,0,0,0,445.45,79.43Z"/><path class="cls-2" d="M490.83,53.43c-.42.25-.71.19-.88-.19a2.81,2.81,0,0,0-.5-.81A7.42,7.42,0,0,0,488,51.37a3,3,0,0,0-2.18-.31,3.58,3.58,0,0,0-2.38,2.18c-.67,1.3-1.21,2.4-1.62,3.32a65.46,65.46,0,0,0-3.57,10.75q-1.44,5.86-2.43,11.5,5-1.87,10.62-4.13a74.3,74.3,0,0,1,11.88-3.6,51.32,51.32,0,0,1,6.18-1,14.47,14.47,0,0,1,6.19.69c.42.16.88.37,1.38.62a1.23,1.23,0,0,1,.62,1.38,2,2,0,0,1-2.25.37,9.53,9.53,0,0,0-2.62-.62,14.54,14.54,0,0,0-4.88.31c-1.58.37-3.12.77-4.62,1.19s-2.94.85-4.32,1.31-2.64.94-3.81,1.44a78.12,78.12,0,0,0-7.87,3.06q-3.75,1.68-7.38,3.56c-.42,2.58-.8,5.25-1.12,8s-.66,5.59-1,8.5c-.09.92-.19,1.86-.32,2.81a13.3,13.3,0,0,0-.06,2.82,9.24,9.24,0,0,0,.5,2.06c.25.71.46,1.39.63,2.06a80.6,80.6,0,0,1,2,23.63c0,.91-.05,1.85-.13,2.81a12.25,12.25,0,0,1-.5,2.62,4.85,4.85,0,0,1-1.12,1.94,2.75,2.75,0,0,1-2,.75,2.45,2.45,0,0,1-1.82-.69A4.7,4.7,0,0,1,469,139a10.44,10.44,0,0,1-.56-2.13c-.13-.75-.23-1.46-.31-2.12a73,73,0,0,1-1.07-11.9q-.06-6.2.32-12.56c.08-.84.18-1.67.31-2.5a10.53,10.53,0,0,0,.06-2.38,5.41,5.41,0,0,0-.69-2c-.37-.67-.73-1.33-1.06-2a18.76,18.76,0,0,0-2.19-3.62l-2.56-3.25c-.42-.5-.85-1.07-1.31-1.69a3.34,3.34,0,0,1-.69-2.06,3.65,3.65,0,0,1,.5-1.88A7.54,7.54,0,0,1,461,87.31,9.42,9.42,0,0,1,462.58,86c.58-.37,1.08-.73,1.5-1.06,1.16-.75,2.27-1.39,3.31-1.94s2.19-1.14,3.44-1.81q1.13-6.12,2.93-12.56a100.38,100.38,0,0,1,4.07-11.81,33.51,33.51,0,0,1,2.68-4.88,8.56,8.56,0,0,1,4.07-3.37c0,.08.08,0,.25-.13a4.56,4.56,0,0,1,2.87.56c.67.46,1.33.94,2,1.44a7.91,7.91,0,0,0,1.06,1.38A1.18,1.18,0,0,1,490.83,53.43ZM463.7,90.68a35.08,35.08,0,0,1,2.56,2.88,26.4,26.4,0,0,1,2.19,3.25q.38-2.62.69-5.32c.21-1.79.48-3.52.81-5.18l-.12-.13c-1.09.75-2.17,1.46-3.25,2.13A12.19,12.19,0,0,0,463.7,90.68Z"/><path class="cls-2" d="M500.83,88.18a23.17,23.17,0,0,0-1.63,4.56,20.84,20.84,0,0,0-.75,5.5,9.35,9.35,0,0,0,1.13,4.69,4.44,4.44,0,0,0,4,2.13,12.42,12.42,0,0,0,6.18-1.38q2.94-1.5,5.07-2.87,2.49-1.75,4.68-3.44t3.94-3.31a70.15,70.15,0,0,0,6.19-5.38c2-1.92,3.89-3.87,5.81-5.87a3.16,3.16,0,0,0,.81-1,11.58,11.58,0,0,1,.94-1.38,5.91,5.91,0,0,1,1.06-1.06,1,1,0,0,1,1.19-.06c.58.25.71.75.38,1.5a9.75,9.75,0,0,1-.88,1.62,4.74,4.74,0,0,1-.75,1.38c-.33.41-.67.87-1,1.37a94.7,94.7,0,0,1-6.56,6.88q-3.43,3.24-7.06,6.5a51.76,51.76,0,0,1-10.5,7.5,28.42,28.42,0,0,1-3.13,1.43,17.69,17.69,0,0,1-3.62,1,16.89,16.89,0,0,1-3.82.19,7.57,7.57,0,0,1-3.56-1.12,5.72,5.72,0,0,1-1.31-1.19l-1.19-1.44a11.69,11.69,0,0,1-1.56-5.31,23.21,23.21,0,0,1,.37-5.94,35.69,35.69,0,0,1,1.57-5.75,33.73,33.73,0,0,1,2-4.62,50.37,50.37,0,0,1,5-7.38,14.62,14.62,0,0,1,7.62-4.75,6,6,0,0,1,4.19,1.13,4.37,4.37,0,0,1,1.31,4,8.26,8.26,0,0,1-1.5,3.75,26.07,26.07,0,0,1-2.62,3.12,28.55,28.55,0,0,1-4.94,3.9A10.28,10.28,0,0,1,500.83,88.18Zm11.62-13.37a12.81,12.81,0,0,0-6.62,4.56,44,44,0,0,0-4.25,6.94,7.87,7.87,0,0,0,4.62-1.23,35.57,35.57,0,0,0,3.25-2.63q1.38-1.5,2.88-3a5.45,5.45,0,0,0,1.37-4.25A1.34,1.34,0,0,0,512.45,74.81Z"/><path class="cls-2" d="M543.07,65.43q10.75-.37,22.38-1.12a165.19,165.19,0,0,1,23.12.12q.63,0,1.38.06a1.11,1.11,0,0,1,1,.69c-.09.67-.4,1-.94,1a7.64,7.64,0,0,1-1.44-.12,222.85,222.85,0,0,0-23.12.18q-11.52.69-22.63,1.32-1.74,10.25-3.18,20.87a153.3,153.3,0,0,0-1.32,22.25c0,1.08,0,2.29.13,3.63a23.79,23.79,0,0,0,.5,3.75c.16.91.44,2,.81,3.37s.94,2,1.69,2.13a1.69,1.69,0,0,0,1.31-.38,12,12,0,0,0,1.38-1.19,17.06,17.06,0,0,0,1.25-1.43c.37-.5.64-.88.81-1.13a124.73,124.73,0,0,0,8.94-13.35q3.93-6.81,8.31-14.19c.75-1.33,1.54-2.71,2.37-4.12s1.75-2.84,2.75-4.25a11.19,11.19,0,0,1,1.13-1.44,1.08,1.08,0,0,1,1.25-.44c.66.33.79.86.37,1.56-.31.54-.64,1.06-1,1.57Q567.2,90,564.45,95.39c-1.84,3.58-3.79,7.13-5.88,10.63-1.16,1.91-2.31,3.85-3.43,5.81s-2.32,3.89-3.57,5.81-2.54,3.79-3.87,5.63a13.55,13.55,0,0,1-5.13,4.25,7.21,7.21,0,0,1-2.62,0,7.69,7.69,0,0,1-4.31-4.69,33.63,33.63,0,0,1-1.69-7.06,52.61,52.61,0,0,1-.63-8.32c0-2.87.09-5.68.25-8.43q.63-8.38,1.69-16.19t2.56-14.94q-5.75.26-11.68.88t-12.07.87q-.75,0-1.68.06a.94.94,0,0,1-1.07-.93.88.88,0,0,1,.76-1h.24a11.45,11.45,0,0,0,1.75-.13q5.88-.37,12-1t12.13-.87c.5-1.75,1.06-3.82,1.69-6.19a48.16,48.16,0,0,1,2.18-6.5A9.41,9.41,0,0,1,543,51a2,2,0,0,1,1.69-1.18,1.29,1.29,0,0,1,1.19.5,2,2,0,0,1,.25,1.18,14,14,0,0,1-.25,1.44c-.13.5-.23,1-.32,1.38-.41,1.83-.83,3.73-1.25,5.68S543.49,63.76,543.07,65.43Z"/><path class="cls-2" d="M594.07,107.18q4.75-5.13,9.32-10.81t9.18-11.29l3-3.75a5.61,5.61,0,0,0,1.57-1.88,1.75,1.75,0,0,1,2.31-.75,1.07,1.07,0,0,1-.13,1.44,3.68,3.68,0,0,0-.87,1.06Q612.32,89.45,606,97.26T593.07,113q-2,11.63-4.56,22.81A83.25,83.25,0,0,1,581.2,156c-1.09,1.92-2.23,3.77-3.44,5.56a15.17,15.17,0,0,1-4.69,4.44,19.49,19.49,0,0,1-2.06.63,5,5,0,0,1-6.08-3.62,1.42,1.42,0,0,1,0-.2,14.74,14.74,0,0,1-.75-5.93,32.5,32.5,0,0,1,1.06-6.57,49.74,49.74,0,0,1,1.87-5.81,62.65,62.65,0,0,1,3-6.37l3-5.5A116.39,116.39,0,0,1,580.51,122q3.93-5,8.06-9.75,1.75-9.26,3.38-18.5t2.62-19.12a2.64,2.64,0,0,0-1.18,1.18,15.53,15.53,0,0,1-1.19,1.69,48.58,48.58,0,0,0-3.94,5.63q-1.83,3-3.69,5.93t-3.93,5.69a32.2,32.2,0,0,1-4.69,5,2.7,2.7,0,0,0-1,.38,3,3,0,0,1-1,.37h-1.38a4.46,4.46,0,0,1-3-2.19A11.78,11.78,0,0,1,568,94a20.91,20.91,0,0,1-.25-5.18,27.82,27.82,0,0,1,.81-5.13,7.26,7.26,0,0,1,.94-2.37,1.89,1.89,0,0,1,1.94-1,1.19,1.19,0,0,1,1.19.87,6.51,6.51,0,0,1,.31,2.06,19,19,0,0,1-.19,2.5,16.37,16.37,0,0,0-.19,2.32c0,1.5,0,3,.07,4.5a7.78,7.78,0,0,0,.93,3.75,16.79,16.79,0,0,0,6.07-5.44q2.31-3.44,4.93-6.69A35.07,35.07,0,0,1,587,80.89a34.94,34.94,0,0,0,2.37-3.31,12.71,12.71,0,0,0,2.5-3.32,5.31,5.31,0,0,1,3-2.68c.75-.25,1.38.08,1.88,1a6.87,6.87,0,0,1,.69,4.06c-.13,1.79-.23,3.39-.32,4.81q-.63,6.49-1.37,13.44T594.07,107.18Zm-19.87,31a64.27,64.27,0,0,0-3.75,8.13,35.91,35.91,0,0,0-2.25,9.75,23.69,23.69,0,0,0,0,3.37,3.42,3.42,0,0,0,1.62,2.75,9.22,9.22,0,0,0,4-3.44,51.92,51.92,0,0,0,2.75-4.81,83.46,83.46,0,0,0,6.25-16.69q2.37-9.06,4.38-18.18c0-.09,0-.13-.13-.13q-3.37,4.38-6.68,9.13A97.11,97.11,0,0,0,574.2,138.18Z"/><path class="cls-1" d="M12.17,15.87v3.55a7.65,7.65,0,0,0,.08,1.38c.08.43.08.85.15,1.28H10.67a12.89,12.89,0,0,1-.2-2.4h-.06a5.49,5.49,0,0,1-2.06,2.11,6.51,6.51,0,0,1-3.12.67,7.48,7.48,0,0,1-1.89-.24,5.06,5.06,0,0,1-1.67-.76,4.18,4.18,0,0,1-1.2-1.38,4,4,0,0,1-.46-2,4,4,0,0,1,.86-2.69A5.45,5.45,0,0,1,3,13.9a10.25,10.25,0,0,1,2.69-.64c1-.09,1.79-.14,2.51-.14h2.24v-.9A3.16,3.16,0,0,0,9.27,9.47a5.14,5.14,0,0,0-3-.83A6.73,6.73,0,0,0,1.76,10.3L.65,9A6.71,6.71,0,0,1,3.27,7.44a9.24,9.24,0,0,1,3-.53,6.74,6.74,0,0,1,4.29,1.27,4.9,4.9,0,0,1,1.6,4.08ZM8.33,14.66A16.24,16.24,0,0,0,6,14.82a7.59,7.59,0,0,0-2,.54,3.89,3.89,0,0,0-1.46,1A2.39,2.39,0,0,0,2,18a2.3,2.3,0,0,0,.3,1.2,2.62,2.62,0,0,0,.7.92,3.64,3.64,0,0,0,1.07.51,4,4,0,0,0,1.2.18,6.13,6.13,0,0,0,2.53-.45A4.38,4.38,0,0,0,9.4,19.08a4.12,4.12,0,0,0,.82-1.63,8.12,8.12,0,0,0,.22-1.84v-1Z"/><path class="cls-1" d="M39.21,19.9a6.75,6.75,0,0,1-5.44,2.56,8.4,8.4,0,0,1-3.14-.57,6.9,6.9,0,0,1-2.46-1.62,7.16,7.16,0,0,1-1.6-2.46,8.61,8.61,0,0,1,0-6.24,7.38,7.38,0,0,1,1.6-2.49,7,7,0,0,1,2.46-1.61,8.18,8.18,0,0,1,3.14-.58,7,7,0,0,1,3,.67,8,8,0,0,1,2.48,1.89L37.72,10.6a7.32,7.32,0,0,0-1.83-1.45,4.58,4.58,0,0,0-2.14-.53,5.92,5.92,0,0,0-2.43.48,5.47,5.47,0,0,0-3,3.22,7,7,0,0,0,0,4.7,5.43,5.43,0,0,0,1.17,1.92,5.53,5.53,0,0,0,1.86,1.3,5.92,5.92,0,0,0,2.43.48A4.59,4.59,0,0,0,36,20.18a6,6,0,0,0,1.75-1.49Z"/><path class="cls-1" d="M42,14.69a8.11,8.11,0,0,1,.57-3.12A7.59,7.59,0,0,1,44.2,9.08a7.14,7.14,0,0,1,2.47-1.61,8.71,8.71,0,0,1,6.25,0A7.18,7.18,0,0,1,57,11.57a8.72,8.72,0,0,1,0,6.24,7.22,7.22,0,0,1-4.08,4.08,8.85,8.85,0,0,1-6.25,0,7,7,0,0,1-2.47-1.62,7.41,7.41,0,0,1-1.6-2.46A8.13,8.13,0,0,1,42,14.69Zm1.92,0a6.75,6.75,0,0,0,.41,2.39A5.43,5.43,0,0,0,45.51,19a5.78,5.78,0,0,0,1.86,1.3,6.39,6.39,0,0,0,4.86,0,5.5,5.5,0,0,0,3-3.22,7.15,7.15,0,0,0,0-4.7,5.53,5.53,0,0,0-3-3.22,6.39,6.39,0,0,0-4.86,0,5.5,5.5,0,0,0-3,3.22A6.74,6.74,0,0,0,44,14.69Z"/><path class="cls-1" d="M62.47,11.46V9.26a8.33,8.33,0,0,0,0-1.14,4.29,4.29,0,0,1,0-.81h1.92v1.6a4.77,4.77,0,0,0,.08,1h.1a5.12,5.12,0,0,1,1.92-2.1,5.58,5.58,0,0,1,3.13-.88,5,5,0,0,1,2.69.75A4.32,4.32,0,0,1,74,10.08a4.72,4.72,0,0,1,2.1-2.43A6,6,0,0,1,79,6.91a6.24,6.24,0,0,1,2.82.55,4.36,4.36,0,0,1,1.68,1.42,5.42,5.42,0,0,1,.87,2,11.76,11.76,0,0,1,.24,2.37v8.83H82.7v-8.7a11.39,11.39,0,0,0-.16-1.75A5,5,0,0,0,82,10.08a3.07,3.07,0,0,0-1.15-1A3.84,3.84,0,0,0,79,8.68a4.29,4.29,0,0,0-2.2.5,3.82,3.82,0,0,0-1.36,1.26,5.2,5.2,0,0,0-.71,1.64,7,7,0,0,0-.21,1.7v8.3H72.58v-8.9a6.4,6.4,0,0,0-.75-3.29,2.54,2.54,0,0,0-2.32-1.25,5.42,5.42,0,0,0-2,.37,4.11,4.11,0,0,0-1.63,1.12A5.34,5.34,0,0,0,64.79,12a7.8,7.8,0,0,0-.4,2.67v7.39H62.47Z"/><path class="cls-1" d="M90.38,11.46V9.26a8.33,8.33,0,0,0,0-1.14,4.29,4.29,0,0,1,0-.81h1.92v1.6a5.55,5.55,0,0,0,.08,1h.1a5.12,5.12,0,0,1,1.92-2.1,5.67,5.67,0,0,1,3.14-.88,5,5,0,0,1,2.68.75,4.27,4.27,0,0,1,1.69,2.4A4.75,4.75,0,0,1,104,7.68a6,6,0,0,1,2.93-.77,6.22,6.22,0,0,1,2.81.55,4.55,4.55,0,0,1,1.72,1.42,5.57,5.57,0,0,1,.86,2,11.76,11.76,0,0,1,.24,2.37v8.83h-1.92v-8.7a10.26,10.26,0,0,0-.16-1.75,4.8,4.8,0,0,0-.56-1.52,3.05,3.05,0,0,0-1.17-1,3.81,3.81,0,0,0-1.87-.4,4.35,4.35,0,0,0-2.21.5,3.82,3.82,0,0,0-1.36,1.26,5.06,5.06,0,0,0-.7,1.66,7,7,0,0,0-.21,1.7v8.28h-1.92v-8.9a6.4,6.4,0,0,0-.75-3.29,2.54,2.54,0,0,0-2.32-1.25,5.22,5.22,0,0,0-2,.37,4.22,4.22,0,0,0-1.64,1.12A5.17,5.17,0,0,0,92.7,12a7.56,7.56,0,0,0-.4,2.67v7.39H90.38Z"/><path class="cls-1" d="M118.12,1.44A1.43,1.43,0,0,1,119.54,0h0a1.42,1.42,0,0,1,1,.42,1.38,1.38,0,0,1,.42,1,1.44,1.44,0,0,1-1.42,1.44h0a1.38,1.38,0,0,1-1-.42A1.31,1.31,0,0,1,118.12,1.44Zm.48,5.86h1.92V22.08H118.6Z"/><path class="cls-1" d="M133.83,9h-4.22v9.64a1.89,1.89,0,0,0,1.68,2.08,2.28,2.28,0,0,0,.37,0,4.11,4.11,0,0,0,1.1-.15,7.14,7.14,0,0,0,1.07-.37L134,22a11.06,11.06,0,0,1-1.25.35,5.85,5.85,0,0,1-1.24.16,4.56,4.56,0,0,1-1.76-.3,2.9,2.9,0,0,1-1.19-.82,2.93,2.93,0,0,1-.65-1.2,4.65,4.65,0,0,1-.21-1.48V9h-3.2V7.3h3.2V3.08h1.92V7.34h4.22Z"/><path class="cls-1" d="M137.86,11.46V7.31h1.92v1.6a4.77,4.77,0,0,0,.08,1h.1a5.12,5.12,0,0,1,1.92-2.1A5.58,5.58,0,0,1,145,6.93a5,5,0,0,1,2.69.75,4.32,4.32,0,0,1,1.65,2.4,4.72,4.72,0,0,1,2.1-2.43,6,6,0,0,1,2.93-.77,6.22,6.22,0,0,1,2.81.55,4.45,4.45,0,0,1,1.71,1.42,5.42,5.42,0,0,1,.87,2,12.36,12.36,0,0,1,.24,2.43v8.8h-1.92v-8.7a11.39,11.39,0,0,0-.16-1.75,5.45,5.45,0,0,0-.56-1.52,3.08,3.08,0,0,0-1.12-1,3.81,3.81,0,0,0-1.87-.4,4.35,4.35,0,0,0-2.21.5,3.82,3.82,0,0,0-1.36,1.26,5.31,5.31,0,0,0-.71,1.66,7.52,7.52,0,0,0-.2,1.7v8.28H148v-8.9a6.48,6.48,0,0,0-.76-3.29,2.54,2.54,0,0,0-2.32-1.25,5.42,5.42,0,0,0-2,.37,4.11,4.11,0,0,0-1.63,1.12A5.34,5.34,0,0,0,140.21,12a7.8,7.8,0,0,0-.4,2.67v7.39h-1.92Z"/><path class="cls-1" d="M178.82,19.3a6.55,6.55,0,0,1-2.76,2.43,8.78,8.78,0,0,1-3.64.73,8,8,0,0,1-3.07-.57A6.7,6.7,0,0,1,167,20.27a7.14,7.14,0,0,1-1.52-2.46,8.9,8.9,0,0,1-.52-3.15,8.3,8.3,0,0,1,.54-3.08,7.28,7.28,0,0,1,3.87-4.08,7.5,7.5,0,0,1,3-.59,7.21,7.21,0,0,1,3,.59,6.46,6.46,0,0,1,3.5,3.8,7.73,7.73,0,0,1,.45,2.52v1.35H166.86a5.89,5.89,0,0,0,.24,1.55,5.53,5.53,0,0,0,2.59,3.36,5.31,5.31,0,0,0,2.77.64A6.13,6.13,0,0,0,175.3,20a5.26,5.26,0,0,0,2.12-1.93Zm-1.47-5.86a4.57,4.57,0,0,0-.4-1.86,5.2,5.2,0,0,0-1.09-1.5,5.28,5.28,0,0,0-3.63-1.42,4.94,4.94,0,0,0-2.61.64A5.73,5.73,0,0,0,168,10.75a5.64,5.64,0,0,0-.87,1.62,3.88,3.88,0,0,0-.25,1.07Z"/><path class="cls-1" d="M184.17,11.46V9.26a8.33,8.33,0,0,0,0-1.14,4.29,4.29,0,0,1,0-.81H186c0,.55,0,1.08.05,1.6a3.72,3.72,0,0,0,.08,1h.09a5.25,5.25,0,0,1,1.92-2.1,5.67,5.67,0,0,1,3.14-.88,6.22,6.22,0,0,1,2.81.55,4.55,4.55,0,0,1,1.72,1.42,5.57,5.57,0,0,1,.86,2,11.76,11.76,0,0,1,.24,2.37v8.81H195v-8.7a10.26,10.26,0,0,0-.16-1.75,4.8,4.8,0,0,0-.56-1.52,3.07,3.07,0,0,0-1.23-1,3.81,3.81,0,0,0-1.87-.4,5.22,5.22,0,0,0-2,.37,4.22,4.22,0,0,0-1.64,1.12,5.17,5.17,0,0,0-1.08,1.89,7.56,7.56,0,0,0-.4,2.67v7.35h-1.92Z"/><path class="cls-1" d="M209.83,9h-4.22v9.64a1.89,1.89,0,0,0,1.68,2.08,2.28,2.28,0,0,0,.37,0,4.11,4.11,0,0,0,1.1-.15,7.14,7.14,0,0,0,1.07-.37L210,22a11.06,11.06,0,0,1-1.25.35,5.85,5.85,0,0,1-1.24.16,4.56,4.56,0,0,1-1.76-.3,2.9,2.9,0,0,1-1.19-.82,2.93,2.93,0,0,1-.65-1.2,4.65,4.65,0,0,1-.21-1.48V9h-3.2V7.3h3.2V3.08h1.92V7.34h4.22Z"/><path class="cls-1" d="M230,9h-4.22v9.64a1.89,1.89,0,0,0,1.68,2.08,2.28,2.28,0,0,0,.37,0,4.11,4.11,0,0,0,1.1-.15,6.17,6.17,0,0,0,1.07-.37l.17,1.73a11.06,11.06,0,0,1-1.25.35,5.86,5.86,0,0,1-1.25.16,4.76,4.76,0,0,1-1.76-.3,2.8,2.8,0,0,1-1.18-.82,3.15,3.15,0,0,1-.66-1.2,4.65,4.65,0,0,1-.21-1.48V9h-3.2V7.3h3.2V3.08h1.92V7.34H230Z"/><path class="cls-1" d="M233.25,14.69a8.11,8.11,0,0,1,.58-3.12,7.3,7.3,0,0,1,1.6-2.47,7,7,0,0,1,2.46-1.61,8.74,8.74,0,0,1,6.26,0,7.24,7.24,0,0,1,4.08,4.08,8.72,8.72,0,0,1,0,6.24,7.37,7.37,0,0,1-1.62,2.46,7.47,7.47,0,0,1-2.46,1.62,8.88,8.88,0,0,1-6.26,0,6.9,6.9,0,0,1-2.46-1.62,7.16,7.16,0,0,1-1.6-2.46A8.11,8.11,0,0,1,233.25,14.69Zm1.92,0a6.71,6.71,0,0,0,.4,2.35A5.43,5.43,0,0,0,236.74,19a5.53,5.53,0,0,0,1.86,1.3,6.39,6.39,0,0,0,4.86,0,5.73,5.73,0,0,0,1.86-1.3,5.56,5.56,0,0,0,1.17-1.88,7.15,7.15,0,0,0,0-4.7,5.53,5.53,0,0,0-3-3.22,6.39,6.39,0,0,0-4.86,0,5.47,5.47,0,0,0-3,3.22A6.79,6.79,0,0,0,235.17,14.69Z"/></g></g></g></svg>