<svg xmlns="http://www.w3.org/2000/svg" viewBox="0 0 463.49 160.12"><defs><style>.cls-1{fill:#53575a;}.cls-2{fill:#ff8300;}</style></defs><g id="Layer_2" data-name="Layer 2"><g id="Layer_1-2" data-name="Layer 1"><path class="cls-1" d="M167.24,160.12v-.79a45,45,0,0,0,6.44-.39,8.82,8.82,0,0,0,4.2-1.62,6.68,6.68,0,0,0,2.24-3.36,19.58,19.58,0,0,0,.67-5.72v-66q0-6.15-2.18-8.46c-1.46-1.53-4.05-2.41-7.79-2.63h-3.58v-.67h42.57a45.37,45.37,0,0,1,13,1.68,25.89,25.89,0,0,1,9,4.82,18.8,18.8,0,0,1,5.09,7,22.81,22.81,0,0,1,1.74,9q0,10.08-6.83,16a24.14,24.14,0,0,1-9,4.82,41.22,41.22,0,0,1-13,1.79h-17v32.72a21.59,21.59,0,0,0,.51,5.16,7,7,0,0,0,1.68,3.25,7.23,7.23,0,0,0,3.13,1.85,18.45,18.45,0,0,0,4.77.72h3.47l-.11.12v.67h-39ZM192.78,115h16.14a16.25,16.25,0,0,0,9.52-2.8,17.3,17.3,0,0,0,2.52-2.3,15.45,15.45,0,0,0,2.3-3.3,24,24,0,0,0,2.24-6.11,33.45,33.45,0,0,0,.79-7.45q0-9.63-4.15-15.46-4.59-6.39-13.22-6.39h-7.17q-5,.57-7,2.8c-1.3,1.5-2,4.22-2,8.18V115Z"/><path class="cls-1" d="M228.86,159.11c.08,0,.73-.07,2-.22a13.52,13.52,0,0,0,4.37-1.52,23,23,0,0,0,5.33-4,21.87,21.87,0,0,0,4.81-7.74l30.15-75.29h.89l30,75.07a49.42,49.42,0,0,0,3.7,7.56,15,15,0,0,0,3.36,3.92,7.54,7.54,0,0,0,3.42,1.57c1.15.19,2.48.4,4,.62v.78H284.1v-.78q4-.23,6.89-.5a7.72,7.72,0,0,0,4.32-1.52c1-.82,1.38-2.14,1.23-4a31,31,0,0,0-2.24-7.9L286,124.37H254.75l-8.52,21.18a10.75,10.75,0,0,0-.95,5.66A7.54,7.54,0,0,0,247,155a9.2,9.2,0,0,0,3.31,2.35,21.35,21.35,0,0,0,3.81,1.24,19,19,0,0,0,3.19.44l1.46.06v.78H228.86Zm41.57-73.73-15.35,38.21h30.59Z"/><path class="cls-1" d="M334.24,158.94a8.82,8.82,0,0,0,4.21-1.62,6.75,6.75,0,0,0,2.24-3.36,19.58,19.58,0,0,0,.67-5.72v-66q0-6.15-2.19-8.46c-1.45-1.53-4.05-2.41-7.78-2.63H327.8v-.67h39V71h0v.11h-4.49q-5,.57-7,2.8c-1.31,1.5-2,4.22-2,8.18v66.22a22.19,22.19,0,0,0,.5,5.16,7.18,7.18,0,0,0,1.68,3.25,7.27,7.27,0,0,0,3.14,1.85,18.43,18.43,0,0,0,4.76.72h3.48v.79H327.8v-.79A44.85,44.85,0,0,0,334.24,158.94Z"/><path class="cls-1" d="M373.07,160.12v-.79h.11a44.85,44.85,0,0,0,6.44-.39,8.42,8.42,0,0,0,4.15-1.62A6.79,6.79,0,0,0,386,154a19.53,19.53,0,0,0,.68-5.72v-66q0-6.15-2.19-8.46t-7.79-2.63h-3.58v-.67h42.69a46.15,46.15,0,0,1,13,1.68,28.75,28.75,0,0,1,9,4.82,18.94,18.94,0,0,1,5.1,7,22.81,22.81,0,0,1,1.74,9q0,10.08-6.84,16a26.83,26.83,0,0,1-9,4.82,23.3,23.3,0,0,1-5.21,1.23c-1.83.23-3.76.42-5.77.56a17,17,0,0,1,5,2.36,25.53,25.53,0,0,1,6,6.16l21.06,29.25a11.24,11.24,0,0,0,3.76,3.3,22,22,0,0,0,4.25,1.79,16.64,16.64,0,0,0,3.65.73c1,.08,1.68.11,1.9.11h.11v.79H441.08l-27.34-37.87a26.16,26.16,0,0,0-3.08-3.53,12.8,12.8,0,0,0-2.69-2,9.19,9.19,0,0,0-2.52-.89,14.31,14.31,0,0,0-2.58-.23h-4.14v32.72a22.19,22.19,0,0,0,.5,5.16,7.18,7.18,0,0,0,1.68,3.25,7.29,7.29,0,0,0,3.08,1.85,17.68,17.68,0,0,0,4.71.72h3.47v.79h-39.1ZM398.73,115h16.13a16.09,16.09,0,0,0,9.42-2.8,17.3,17.3,0,0,0,2.52-2.3,19.81,19.81,0,0,0,2.41-3.3,27.38,27.38,0,0,0,2.12-6.11,32.87,32.87,0,0,0,.79-7.45q0-9.63-4.15-15.46-4.59-6.39-13.11-6.39h-7.28a14.89,14.89,0,0,0-4.15.9,7,7,0,0,0-2.74,1.9,7.22,7.22,0,0,0-1.51,3.25,23.08,23.08,0,0,0-.45,4.93V115Z"/><path class="cls-2" d="M28,78.76q4.24-10.12,9.14-19.44A51.68,51.68,0,0,1,49.9,43.48c.54-.22,1.06-.44,1.55-.66s1.06-.43,1.71-.65q3.27-.33,4.9,1.47a8.89,8.89,0,0,1,2.13,4.49,15.32,15.32,0,0,1-.08,5.64,22.24,22.24,0,0,1-1.56,5.06,47.47,47.47,0,0,0,6.21-4.08q2.94-2.3,6.21-4.41,2.28-1.64,4.65-3.27t4.82-3.27a11.59,11.59,0,0,0,1.8-.9,1.59,1.59,0,0,1,2,.25,1.51,1.51,0,0,1-.49,2.12c-.76.55-1.42,1-2,1.47Q74.9,51.48,68.52,56.3T55.45,65.85A53.9,53.9,0,0,1,51.53,72a49.51,49.51,0,0,1-4.74,5.47c-.65.55-1.44,1.28-2.37,2.21s-1.87,1.79-2.86,2.61a22.49,22.49,0,0,1-3.18,2.21A8.51,8.51,0,0,1,35,85.62c-2.4.33-3.7-.49-3.92-2.45a3.87,3.87,0,0,1,.9-3.43,31.1,31.1,0,0,1,2.37-2.29q1.3-1.31,2.37-2.28c.7-.66,1.44-1.31,2.2-2a54.19,54.19,0,0,0,5.23-3.84,53,53,0,0,1,5.23-3.84q1.14-1.8,2.36-4.17A51.05,51.05,0,0,0,54,56.54c.22-.76.46-1.63.73-2.61A18,18,0,0,0,55.29,51a9.86,9.86,0,0,0-.08-2.78A4.34,4.34,0,0,0,54,45.93a8.86,8.86,0,0,0-5.72,2.69,61.51,61.51,0,0,0-4.08,4.66A71.94,71.94,0,0,0,36,66.43,139.32,139.32,0,0,0,29.8,81.54c-.43,1.09-.84,2.15-1.22,3.18a21.89,21.89,0,0,0-.9,3.19,34,34,0,0,0-.49,6c0,2.12-.06,4.22-.16,6.29l-.66,12.41q-.33,6.21-.81,12.58c-.11,1-.19,2-.25,3A21.52,21.52,0,0,1,25,131a6.07,6.07,0,0,1-1,2.37A4.12,4.12,0,0,1,22,135h-.49a2.73,2.73,0,0,1-2.53-2.69,46.34,46.34,0,0,1-.24-4.66,76,76,0,0,1,.24-9.39c.27-3,.63-6,1.06-9.07.22-1.41.49-2.83.82-4.25s.6-2.83.82-4.24a72.13,72.13,0,0,0,.49-8.41q0-4.33.32-8.25.66-10.45,1.23-20.59T24.9,42.66V40a23,23,0,0,1,.17-2.86,5.94,5.94,0,0,1,.73-2.28,2,2,0,0,1,1.88-1,2,2,0,0,1,1.88,1.22A9,9,0,0,1,30.29,38a19.67,19.67,0,0,1,0,3.6c-.11,1.25-.16,2.31-.16,3.18q-.66,8.51-1.22,17.07T28,78.76Z"/><path class="cls-2" d="M83.22,52a32.82,32.82,0,0,0-2.13,6,28,28,0,0,0-1,7.19,12.33,12.33,0,0,0,1.47,6.13c1,1.74,2.73,2.66,5.23,2.77a16.22,16.22,0,0,0,8.09-1.79,75.18,75.18,0,0,0,6.61-3.76c2.18-1.53,4.22-3,6.13-4.49s3.62-2.92,5.14-4.33a88.56,88.56,0,0,0,8.09-7q3.84-3.75,7.6-7.67a4.16,4.16,0,0,0,1.06-1.31,16.18,16.18,0,0,1,1.22-1.8,9.13,9.13,0,0,1,1.39-1.39,1.28,1.28,0,0,1,1.55-.08c.76.33.93,1,.49,2A11.4,11.4,0,0,1,133,44.46a5.9,5.9,0,0,1-1,1.79c-.44.55-.87,1.15-1.31,1.8a121.46,121.46,0,0,1-8.57,9q-4.5,4.26-9.23,8.5a67.54,67.54,0,0,1-13.72,9.8,36.81,36.81,0,0,1-4.09,1.88,23.16,23.16,0,0,1-4.73,1.3,21.3,21.3,0,0,1-5,.25,10,10,0,0,1-4.65-1.47,7.72,7.72,0,0,1-1.72-1.55c-.49-.6-1-1.23-1.55-1.88a15.56,15.56,0,0,1-2-6.94A31.34,31.34,0,0,1,76,59.16,50.3,50.3,0,0,1,80.6,45.6,67.9,67.9,0,0,1,87.14,36a19.13,19.13,0,0,1,10-6.21,8,8,0,0,1,5.48,1.47c1.36,1.09,1.93,2.84,1.71,5.23a10.6,10.6,0,0,1-2,4.9,32.09,32.09,0,0,1-3.43,4.09,36.69,36.69,0,0,1-6.45,5.14Q88.92,52.79,83.22,52ZM98.41,34.49a17,17,0,0,0-8.66,6,59.83,59.83,0,0,0-5.55,9.07,10.16,10.16,0,0,0,6-1.63,44.47,44.47,0,0,0,4.25-3.43q1.8-2,3.76-3.92A7.06,7.06,0,0,0,100,35,1.77,1.77,0,0,0,98.41,34.49Z"/><path class="cls-2" d="M154.93,38.25a24.31,24.31,0,0,0-7.6,7.84q-2.87,4.74-6.12,9.47l-2.62,5.23a46.56,46.56,0,0,0-2.28,5.39,28.34,28.34,0,0,0-2.46,5.31,5.87,5.87,0,0,1-3.92,3.84h-1.47a4.13,4.13,0,0,1-1.38-.9A7.17,7.17,0,0,1,126,73a55.13,55.13,0,0,1-.24-6.7c.06-2.39.16-4.81.33-7.26s.43-4.85.81-7.19.79-4.49,1.23-6.45a21.9,21.9,0,0,1,1-3.6,3.11,3.11,0,0,1,2.61-2.12,2,2,0,0,1,1.88,1.47,8.89,8.89,0,0,1,.33,3,29.72,29.72,0,0,1-.41,3.59,18.54,18.54,0,0,0-.33,3q-.33,3.27-.57,5.88c-.16,1.74-.36,3.37-.57,4.9q2.77-4.57,6.7-10.29a102.35,102.35,0,0,1,8-10.29,38.28,38.28,0,0,1,2.86-3.19A11.54,11.54,0,0,1,153,35.47a4.73,4.73,0,0,1,3,0,2.55,2.55,0,0,1,1.88,1.8c.21,1.31-.11,2-1,2.12A1.8,1.8,0,0,1,154.93,38.25Z"/><path class="cls-2" d="M189.23,6.56c-.55.33-.93.24-1.15-.25a3.41,3.41,0,0,0-.65-1.06,10.17,10.17,0,0,0-1.88-1.39,3.88,3.88,0,0,0-2.86-.4c-1.2.21-2.23,1.17-3.1,2.85s-1.58,3.14-2.12,4.33a85.71,85.71,0,0,0-4.66,14.05q-1.87,7.68-3.18,15,6.52-2.46,13.88-5.39A99.05,99.05,0,0,1,199,29.59a68.76,68.76,0,0,1,8.08-1.22,19,19,0,0,1,8.09.89c.54.22,1.14.49,1.8.82a1.59,1.59,0,0,1,.81,1.8,2.67,2.67,0,0,1-2.94.49,12,12,0,0,0-3.43-.82,19.11,19.11,0,0,0-6.37.41q-3.1.74-6,1.55t-5.64,1.72q-2.69.9-5,1.87-5.39,1.8-10.29,4t-9.64,4.65c-.54,3.38-1,6.86-1.47,10.46s-.87,7.29-1.3,11.1c-.11,1.2-.25,2.43-.41,3.68a16.25,16.25,0,0,0-.08,3.68,12.08,12.08,0,0,0,.65,2.69c.33.93.6,1.83.82,2.7q3.42,13.23,2.61,30.87c0,1.2-.06,2.42-.16,3.67a15.7,15.7,0,0,1-.66,3.43,6,6,0,0,1-1.47,2.54,3.53,3.53,0,0,1-2.61,1,3.2,3.2,0,0,1-2.37-.9,6.17,6.17,0,0,1-1.39-2.21,15,15,0,0,1-.73-2.77c-.17-1-.3-1.91-.41-2.78a97.41,97.41,0,0,1-1.39-15.6q-.08-8.08.41-16.42c.11-1.08.24-2.17.41-3.26a12.12,12.12,0,0,0,.08-3.11,7.13,7.13,0,0,0-.9-2.61c-.49-.87-1-1.74-1.39-2.61a23.51,23.51,0,0,0-2.86-4.74l-3.35-4.25c-.54-.65-1.11-1.39-1.71-2.2a4.47,4.47,0,0,1-.9-2.7,4.91,4.91,0,0,1,.65-2.45,10,10,0,0,1,1.64-2.12,12.38,12.38,0,0,1,2.12-1.72,22.18,22.18,0,0,0,2-1.39q2.29-1.47,4.33-2.53c1.36-.71,2.86-1.49,4.49-2.37q1.47-8,3.84-16.41A134.24,134.24,0,0,1,172.24,11a45.76,45.76,0,0,1,3.51-6.37A11.24,11.24,0,0,1,181.06.19c0,.11.11,0,.33-.17a5.92,5.92,0,0,1,3.75.74c.87.6,1.75,1.22,2.62,1.88a11.57,11.57,0,0,0,1.39,1.8A1.54,1.54,0,0,1,189.23,6.56ZM153.78,55.24A43.61,43.61,0,0,1,157.13,59,33.91,33.91,0,0,1,160,63.24q.49-3.43.9-6.94T162,49.52l-.16-.16q-2.13,1.47-4.25,2.77A17.45,17.45,0,0,0,153.78,55.24Z"/><path class="cls-2" d="M202.3,52a32.08,32.08,0,0,0-2.13,6,28,28,0,0,0-1,7.19,12.33,12.33,0,0,0,1.47,6.13q1.47,2.61,5.23,2.77A16.22,16.22,0,0,0,214,72.23c2.55-1.31,4.76-2.56,6.61-3.76,2.18-1.53,4.22-3,6.13-4.49s3.62-2.92,5.14-4.33a89.92,89.92,0,0,0,8.09-7q3.84-3.75,7.59-7.67a4.16,4.16,0,0,0,1.07-1.31,14.92,14.92,0,0,1,1.22-1.8,8.7,8.7,0,0,1,1.39-1.39,1.28,1.28,0,0,1,1.55-.08c.76.33.93,1,.49,2a12.73,12.73,0,0,1-1.14,2.13,5.9,5.9,0,0,1-1,1.79c-.44.55-.88,1.15-1.31,1.8a119.54,119.54,0,0,1-8.58,9q-4.49,4.26-9.22,8.5a67.34,67.34,0,0,1-13.73,9.8,37.47,37.47,0,0,1-4.08,1.88,23.25,23.25,0,0,1-4.74,1.3,21.19,21.19,0,0,1-5,.25,10,10,0,0,1-4.65-1.47,7.72,7.72,0,0,1-1.72-1.55l-1.55-1.88a15.56,15.56,0,0,1-2-6.94,30.86,30.86,0,0,1,.49-7.76,50.3,50.3,0,0,1,4.65-13.56A67.9,67.9,0,0,1,206.22,36a19.09,19.09,0,0,1,10-6.21,8,8,0,0,1,5.47,1.47c1.36,1.09,1.93,2.84,1.72,5.23a10.6,10.6,0,0,1-2,4.9A32.93,32.93,0,0,1,218,45.44a36.69,36.69,0,0,1-6.45,5.14Q208,52.79,202.3,52Zm15.19-17.48a17,17,0,0,0-8.66,6,59.83,59.83,0,0,0-5.55,9.07,10.18,10.18,0,0,0,6-1.63,45.75,45.75,0,0,0,4.25-3.43c1.19-1.31,2.45-2.62,3.75-3.92a7,7,0,0,0,1.8-5.56A1.78,1.78,0,0,0,217.49,34.49Z"/><path class="cls-2" d="M261.92,48.05a2.2,2.2,0,0,1-1.88-.16,4.5,4.5,0,0,1-1.23-1.23A7.51,7.51,0,0,1,258,45a5.82,5.82,0,0,0-.82-1.55,12.62,12.62,0,0,0-5.55,5.3,39.31,39.31,0,0,0-3.43,7.76,35.76,35.76,0,0,0-1.15,4.5,33.5,33.5,0,0,0-.57,5.06,16.88,16.88,0,0,0,.49,4.74,5.43,5.43,0,0,0,2.37,3.35,13.62,13.62,0,0,0,7.35-2.78,69.93,69.93,0,0,1,5.72-4.25q5.71-4.24,11.1-8.74t10.95-9.06c.87-.66,1.77-1.36,2.69-2.13S289,45.76,290,45.11a6.17,6.17,0,0,1,1.39-1c.6-.33,1.17-.65,1.72-1a16.36,16.36,0,0,0,1.71-.82,1.08,1.08,0,0,1,1.55.49c.33.88.19,1.47-.4,1.8a7.13,7.13,0,0,0-1.56,1.14q-2.28,1.64-4.33,3.35l-4.16,3.51q-6,5.07-12,10.87a134.56,134.56,0,0,1-12.66,10.86,48.3,48.3,0,0,1-6.2,4,10.25,10.25,0,0,1-8,.57,8.33,8.33,0,0,1-4.16-4.65,22.08,22.08,0,0,1-1.39-7,32.45,32.45,0,0,1,.65-7.84,43,43,0,0,1,2.12-7.27q3.43-8.49,9-12.9c.54-.22,1-.41,1.31-.57a5,5,0,0,1,1.3-.41c.11,0,.17,0,.17-.08s0-.09.16-.09h1.47a5.42,5.42,0,0,1,1.31.17A6.17,6.17,0,0,1,262.57,43a12.33,12.33,0,0,0,0,2.85A2.34,2.34,0,0,1,261.92,48.05Z"/><path class="cls-2" d="M303.57,22.24q14.06-.49,29.24-1.47a216.08,216.08,0,0,1,30.22.16q.81,0,1.8.09a1.4,1.4,0,0,1,1.3.89c-.11.88-.51,1.31-1.22,1.31a9.55,9.55,0,0,1-1.88-.16,292.68,292.68,0,0,0-30.22.24q-15,.9-29.57,1.72Q301,38.42,299.08,52.3a200.8,200.8,0,0,0-1.72,29.07c0,1.42.06,3,.17,4.74a31.72,31.72,0,0,0,.65,4.9c.22,1.2.57,2.67,1.06,4.41s1.23,2.67,2.21,2.78a2.18,2.18,0,0,0,1.71-.49,16.55,16.55,0,0,0,1.8-1.55,17.83,17.83,0,0,0,1.63-1.88c.49-.66.85-1.15,1.06-1.47a157.87,157.87,0,0,0,11.68-17.4q5.15-8.89,10.87-18.54,1.47-2.61,3.1-5.39t3.59-5.55a16.42,16.42,0,0,1,1.47-1.88,1.43,1.43,0,0,1,1.64-.57c.87.43,1,1.11.49,2a24,24,0,0,1-1.31,2q-4.08,6.86-7.68,13.88t-7.67,13.89q-2.29,3.77-4.5,7.59t-4.65,7.6c-1.64,2.51-3.32,5-5.07,7.35a17.5,17.5,0,0,1-6.69,5.56,9.41,9.41,0,0,1-3.43,0,10.16,10.16,0,0,1-5.64-6.13,44.63,44.63,0,0,1-2.2-9.23,69.6,69.6,0,0,1-.82-10.86q0-5.64.33-11Q292,55.25,293.36,45t3.35-19.52q-7.51.33-15.27,1.14t-15.77,1.14c-.65,0-1.38,0-2.2.09a1.21,1.21,0,0,1-1.39-1.23,1.16,1.16,0,0,1,1.31-1.31,13.87,13.87,0,0,0,2.28-.16q7.68-.49,15.68-1.31t15.85-1.14c.65-2.29,1.39-5,2.21-8.09a64.7,64.7,0,0,1,2.85-8.57,12.68,12.68,0,0,1,1.23-2.7,2.58,2.58,0,0,1,2.2-1.55,1.71,1.71,0,0,1,1.56.65A2.44,2.44,0,0,1,307.57,4a12.33,12.33,0,0,1-.32,1.88c-.17.65-.31,1.25-.41,1.79-.55,2.4-1.09,4.88-1.64,7.43S304.11,20.06,303.57,22.24Z"/><path class="cls-1" d="M10.9,13.35H6v10a5.08,5.08,0,0,0,.19,1.54,2.28,2.28,0,0,0,.5.93,1.78,1.78,0,0,0,.79.45,3.44,3.44,0,0,0,1,.13,4.82,4.82,0,0,0,1.28-.18,5.48,5.48,0,0,0,1.19-.48L11,28a7.69,7.69,0,0,1-3.23.62,6,6,0,0,1-1.43-.18A3.48,3.48,0,0,1,5,27.74a3.75,3.75,0,0,1-1-1.38,5.53,5.53,0,0,1-.4-2.29V13.35H0V11.17H3.6V6.37H6v4.8H10.9Z"/><path class="cls-1" d="M14.17.71h2.39V13.89h.08a5.7,5.7,0,0,1,1-1.27,7.33,7.33,0,0,1,1.39-1A7.86,7.86,0,0,1,20.65,11a6.21,6.21,0,0,1,1.69-.24,6.2,6.2,0,0,1,4.83,1.73,7.09,7.09,0,0,1,1.56,4.92V28.17H26.34V18.76a8,8,0,0,0-1-4.34c-.66-1-1.87-1.51-3.64-1.51a8.71,8.71,0,0,0-1,.15,4.44,4.44,0,0,0-1.77.8,5.87,5.87,0,0,0-1.65,2,7.57,7.57,0,0,0-.73,3.63v8.72H14.17Z"/><path class="cls-1" d="M36,20.33a7.2,7.2,0,0,0,.61,2.39,6.42,6.42,0,0,0,1.35,2A6.61,6.61,0,0,0,39.92,26a6,6,0,0,0,2.37.47,6.08,6.08,0,0,0,3.32-.89,6.73,6.73,0,0,0,2.12-2.05L49.59,25a9.12,9.12,0,0,1-3.36,2.76,9.39,9.39,0,0,1-3.94.84,9.22,9.22,0,0,1-3.51-.67A8.28,8.28,0,0,1,36,26.06a8.68,8.68,0,0,1-1.83-2.83,9.22,9.22,0,0,1-.68-3.56,9.43,9.43,0,0,1,.66-3.56A8.58,8.58,0,0,1,36,13.28a8.3,8.3,0,0,1,2.73-1.87,8.43,8.43,0,0,1,3.38-.68,8.3,8.3,0,0,1,3.45.69,7.67,7.67,0,0,1,2.56,1.84A7.78,7.78,0,0,1,49.66,16a9.87,9.87,0,0,1,.54,3.29v1.09Zm11.55-2a5.48,5.48,0,0,0-1.45-3.94,5.42,5.42,0,0,0-4.07-1.51,5.89,5.89,0,0,0-2.26.46,6.42,6.42,0,0,0-1.9,1.21,6,6,0,0,0-1.31,1.75,4.43,4.43,0,0,0-.49,2Z"/></g></g></svg>