<svg xmlns="http://www.w3.org/2000/svg" viewBox="0 0 462.59 98.43"><defs><style>.cls-1{fill:#53575a;}.cls-2{fill:#ff8300;}</style></defs><g id="Layer_2" data-name="Layer 2"><g id="Layer_1-2" data-name="Layer 1"><path class="cls-1" d="M44.74,96.65a3.37,3.37,0,0,1-1.5-.69,7.43,7.43,0,0,1-1.57-1.85,23.74,23.74,0,0,1-1.82-3.71L24.78,52.71l-.12-.3h-1.1L8.3,90.51A10.54,10.54,0,0,1,6,94.22a11.06,11.06,0,0,1-2.56,1.92,6.51,6.51,0,0,1-2,.71L.47,97H0v1.35H16V97H15.5l-.71,0a9.1,9.1,0,0,1-1.52-.22,9.46,9.46,0,0,1-1.83-.59A4.31,4.31,0,0,1,10,95.06a3.26,3.26,0,0,1-.75-1.67,4.89,4.89,0,0,1,.45-2.58L13.8,80.48h15l4,10.16A15.31,15.31,0,0,1,34,94.47a1.79,1.79,0,0,1-.45,1.59,3.49,3.49,0,0,1-1.91.64c-.93.1-2.09.18-3.43.26l-.46,0v1.33H47.15V97L46.73,97ZM14.36,79.12l7-17.4,6.94,17.4Z"/><path class="cls-1" d="M77.63,77.69a17,17,0,0,0-5-4l-6.45-3.31a24.53,24.53,0,0,1-6.9-5.31,9.51,9.51,0,0,1-2.39-4.89,5.2,5.2,0,0,1,1.08-3.93,7.64,7.64,0,0,1,3.78-2.54,11.38,11.38,0,0,1,1.81-.4,12.51,12.51,0,0,1,6.1.59,11,11,0,0,1,3.55,2.12,13.1,13.1,0,0,1,1.51,1.71,14.6,14.6,0,0,1,1.37,2.18,14.3,14.3,0,0,1,1,2.42,8.6,8.6,0,0,1,.34,2.34v.48h1.42V52H77.61l-.14.24a3.16,3.16,0,0,1-1.36,1.32,3.71,3.71,0,0,1-1.69.3,7.51,7.51,0,0,1-1.9-.37c-.67-.22-1.3-.45-1.89-.67a14.31,14.31,0,0,0-5.24-1A15.28,15.28,0,0,0,63,52a10,10,0,0,0-2.35.64,16,16,0,0,0-4.44,2.5,12.58,12.58,0,0,0-3.12,3.62,10.93,10.93,0,0,0-1.41,4.41,10.35,10.35,0,0,0,.67,4.75,13.83,13.83,0,0,0,3.06,4.6,20.91,20.91,0,0,0,5.75,4.06l7.08,3.66a10.69,10.69,0,0,1,4.42,3.89,8.31,8.31,0,0,1,1.26,4.52,7.92,7.92,0,0,1-1.41,4.22,8.72,8.72,0,0,1-3.59,3,15.12,15.12,0,0,1-4.61.92h-.5a13.16,13.16,0,0,1-8.52-3.25,7.3,7.3,0,0,1-1.53-2A16.78,16.78,0,0,1,52.57,89a20.85,20.85,0,0,1-.77-2.8,13.3,13.3,0,0,1-.27-2.52l-.05-.49H50.12v15.2H51l.49-.06v-.39a5.24,5.24,0,0,1,.29-.64,1.87,1.87,0,0,1,.84-.8,4.31,4.31,0,0,1,1.94-.39,10,10,0,0,1,3.48.82,5,5,0,0,0,.62.25,13.52,13.52,0,0,0,5.06,1h.56c.27,0,.54,0,.79,0s.53,0,.84-.08v0A22.36,22.36,0,0,0,73,95.93a15.7,15.7,0,0,0,4.84-3.66,10.89,10.89,0,0,0,2.44-4.68,10.61,10.61,0,0,0-.06-5.07A12.23,12.23,0,0,0,77.63,77.69Z"/><path class="cls-1" d="M111.83,77.69a17,17,0,0,0-5-4l-6.45-3.31a24.53,24.53,0,0,1-6.9-5.31A9.61,9.61,0,0,1,91,60.21a5.25,5.25,0,0,1,1.09-3.93,7.6,7.6,0,0,1,3.78-2.54,11.38,11.38,0,0,1,1.81-.4,12.51,12.51,0,0,1,6.1.59,11,11,0,0,1,3.55,2.12,13.1,13.1,0,0,1,1.51,1.71,14.6,14.6,0,0,1,1.37,2.18,13.46,13.46,0,0,1,.94,2.42,8.25,8.25,0,0,1,.35,2.34v.48H113V52h-1.15l-.14.24a3.16,3.16,0,0,1-1.36,1.32,3.73,3.73,0,0,1-1.69.3,7.51,7.51,0,0,1-1.9-.37c-.67-.22-1.3-.45-1.89-.67a14.31,14.31,0,0,0-5.24-1,15.28,15.28,0,0,0-2.37.18,10,10,0,0,0-2.35.64,15.91,15.91,0,0,0-4.44,2.5,12.58,12.58,0,0,0-3.12,3.62,10.93,10.93,0,0,0-1.41,4.41,10.35,10.35,0,0,0,.67,4.75,13.83,13.83,0,0,0,3.06,4.6,20.91,20.91,0,0,0,5.75,4.06l7.08,3.66a10.69,10.69,0,0,1,4.42,3.89,8.31,8.31,0,0,1,1.26,4.52,7.92,7.92,0,0,1-1.41,4.22,8.72,8.72,0,0,1-3.59,3,15.12,15.12,0,0,1-4.62.92H98a13.21,13.21,0,0,1-8.53-3.25,7.48,7.48,0,0,1-1.52-2A15.93,15.93,0,0,1,86.77,89a20.85,20.85,0,0,1-.77-2.8,13.3,13.3,0,0,1-.27-2.52l0-.49H84.32v15.2h.87l.49-.06v-.39a5.24,5.24,0,0,1,.29-.64,1.87,1.87,0,0,1,.84-.8,4.31,4.31,0,0,1,1.94-.39,10,10,0,0,1,3.48.82,5.43,5.43,0,0,0,.61.25,13.57,13.57,0,0,0,5.07,1h.56c.27,0,.54,0,.79,0s.53,0,.84-.08v0a22.36,22.36,0,0,0,7.08-2.08A15.7,15.7,0,0,0,112,92.27a10.89,10.89,0,0,0,2.44-4.68,10.61,10.61,0,0,0-.06-5.07A12.36,12.36,0,0,0,111.83,77.69Z"/><path class="cls-1" d="M156.44,84.46A19,19,0,0,1,154,90.82a15.41,15.41,0,0,1-1.8,2.32,11.8,11.8,0,0,1-2.41,2,13.17,13.17,0,0,1-3.17,1.41,13.92,13.92,0,0,1-4,.54h-6.23a8.73,8.73,0,0,1-2.23-.34A2.87,2.87,0,0,1,132,94.51,10.5,10.5,0,0,1,131.8,92a5.18,5.18,0,0,0-.06-1V76.09H139a6.38,6.38,0,0,1,3.69.93,6.66,6.66,0,0,1,2,2.17,7,7,0,0,1,.85,2.39,15.47,15.47,0,0,1,.16,1.57v.65h1.36V67.14h-1.36v.65a13.85,13.85,0,0,1-.16,1.51,7,7,0,0,1-.82,2.31,6.85,6.85,0,0,1-1.95,2.18,5.93,5.93,0,0,1-3.51,1h-7.56v-21h10.1a11.84,11.84,0,0,1,5.4,1.05,9.14,9.14,0,0,1,3.21,2.61A11,11,0,0,1,152.2,61c.39,1.32.73,2.62,1,3.81v.48h1.36V52.46H118v1.3h2.26a5.42,5.42,0,0,1,3.59,1.18c.64.67,1,2,1,3.91a3,3,0,0,0,0,.42,1.07,1.07,0,0,1,0,.25V92a9.31,9.31,0,0,1-.32,2.72,2.91,2.91,0,0,1-1,1.46,4,4,0,0,1-1.88.72,23.22,23.22,0,0,1-3.17.19H118v1.36H156.1l1.75-14.36h-1.33Z"/><path class="cls-1" d="M189.29,77.69a17,17,0,0,0-5-4l-6.45-3.31a24.62,24.62,0,0,1-6.89-5.31,9.53,9.53,0,0,1-2.4-4.89,5.25,5.25,0,0,1,1.08-3.93,7.67,7.67,0,0,1,3.79-2.54,11.38,11.38,0,0,1,1.81-.4,12.47,12.47,0,0,1,6.09.59,10.92,10.92,0,0,1,3.55,2.12,13.9,13.9,0,0,1,1.52,1.71,15.41,15.41,0,0,1,1.36,2.18,12.8,12.8,0,0,1,1,2.42A8.63,8.63,0,0,1,189,64.7v.48h1.41V52h-1.15l-.14.24a3.14,3.14,0,0,1-1.35,1.32,3.75,3.75,0,0,1-1.7.3,7.53,7.53,0,0,1-1.89-.37c-.67-.22-1.31-.45-1.89-.67a14.35,14.35,0,0,0-5.24-1,15.5,15.5,0,0,0-2.38.18,10.28,10.28,0,0,0-2.35.64,16,16,0,0,0-4.43,2.5,12.78,12.78,0,0,0-3.13,3.62,11.09,11.09,0,0,0-1.41,4.41,10.23,10.23,0,0,0,.68,4.75,14,14,0,0,0,3.05,4.6,21.22,21.22,0,0,0,5.75,4.06l7.09,3.66a10.82,10.82,0,0,1,4.42,3.89,8.21,8.21,0,0,1,1.25,4.52,7.9,7.9,0,0,1-1.4,4.22,8.81,8.81,0,0,1-3.6,3,15,15,0,0,1-4.61.92h-.5A13.21,13.21,0,0,1,167,93.59a7.5,7.5,0,0,1-1.53-2,16.74,16.74,0,0,1-1.2-2.65,19.46,19.46,0,0,1-.77-2.8,13.3,13.3,0,0,1-.27-2.52l-.06-.49h-1.36v15.2h.88l.48-.06v-.39c.05-.13.15-.34.29-.64a1.92,1.92,0,0,1,.84-.8,4.35,4.35,0,0,1,1.94-.39,10,10,0,0,1,3.49.82,4.75,4.75,0,0,0,.61.25,13.52,13.52,0,0,0,5.06,1h.56c.28,0,.54,0,.8,0s.53,0,.84-.08v0a22.52,22.52,0,0,0,7.08-2.08,15.94,15.94,0,0,0,4.84-3.66,10.89,10.89,0,0,0,2.44-4.68,10.61,10.61,0,0,0-.06-5.07A12.49,12.49,0,0,0,189.29,77.69Z"/><path class="cls-1" d="M223.49,77.69a17,17,0,0,0-5.05-4L212,70.41a24.83,24.83,0,0,1-6.9-5.31,9.59,9.59,0,0,1-2.39-4.89,5.25,5.25,0,0,1,1.08-3.93,7.62,7.62,0,0,1,3.79-2.54,11.5,11.5,0,0,1,1.8-.4,12.5,12.5,0,0,1,6.1.59A10.92,10.92,0,0,1,219,56.05a13.9,13.9,0,0,1,1.52,1.71,15.41,15.41,0,0,1,1.36,2.18,12.8,12.8,0,0,1,.95,2.42,8.63,8.63,0,0,1,.35,2.34v.48h1.41V52h-1.15l-.14.24A3.14,3.14,0,0,1,222,53.57a3.75,3.75,0,0,1-1.7.3,7.53,7.53,0,0,1-1.89-.37c-.67-.22-1.31-.45-1.89-.67a14.35,14.35,0,0,0-5.24-1,15.5,15.5,0,0,0-2.38.18,10.14,10.14,0,0,0-2.35.64,16,16,0,0,0-4.43,2.5A12.78,12.78,0,0,0,199,58.78a11.09,11.09,0,0,0-1.41,4.41,10.23,10.23,0,0,0,.68,4.75,14,14,0,0,0,3.05,4.6A21.07,21.07,0,0,0,207,76.6l7.09,3.66a10.82,10.82,0,0,1,4.42,3.89,8.29,8.29,0,0,1,1.25,4.52,7.9,7.9,0,0,1-1.4,4.22,8.81,8.81,0,0,1-3.6,3,15.06,15.06,0,0,1-4.61.92h-.5a13.35,13.35,0,0,1-4.61-.89,13.17,13.17,0,0,1-3.91-2.36,7.5,7.5,0,0,1-1.53-2,15.89,15.89,0,0,1-1.2-2.65,19.46,19.46,0,0,1-.77-2.8,13.3,13.3,0,0,1-.27-2.52l-.06-.49H196v15.2h.88l.48-.06v-.39c0-.13.15-.34.29-.64a1.92,1.92,0,0,1,.84-.8,4.35,4.35,0,0,1,1.94-.39,10,10,0,0,1,3.49.82,4.21,4.21,0,0,0,.61.25,13.52,13.52,0,0,0,5.06,1h.56c.28,0,.54,0,.8,0s.53,0,.84-.08v0a22.52,22.52,0,0,0,7.08-2.08,15.94,15.94,0,0,0,4.84-3.66,11,11,0,0,0,2.44-4.68,10.61,10.61,0,0,0-.06-5.07A12.49,12.49,0,0,0,223.49,77.69Z"/><path class="cls-1" d="M281.05,96c-.72-.71-1.09-2.06-1.09-4V58.74a6.54,6.54,0,0,1,.88-3.92A3.86,3.86,0,0,1,284,53.76h2.73V52.41H274L259.17,80.82,244.41,52.66l-.13-.25H231.75v1.35H234a6.54,6.54,0,0,1,2.74.46,2.82,2.82,0,0,1,1.31,1.18,4.16,4.16,0,0,1,.47,1.84c0,.78.06,1.62.06,2.51V90.57a5.44,5.44,0,0,1-.94,3.37,7.34,7.34,0,0,1-2.3,2,8.47,8.47,0,0,1-2.74.93,17.25,17.25,0,0,1-2.31.22H229v1.3h20.6v-1.3H248.2a17.09,17.09,0,0,1-2.26-.22,8.66,8.66,0,0,1-2.77-.94,7.14,7.14,0,0,1-2.32-2,5.44,5.44,0,0,1-.94-3.37V59.22l15.6,29.59h1L273,57.25v.55q0,2,0,4.65V91.92a9.71,9.71,0,0,1-.32,2.76,2.68,2.68,0,0,1-1,1.44,4.43,4.43,0,0,1-1.88.73h0a19.21,19.21,0,0,1-3.12.22h-.48v1.3h20.54v-1.3h-2.23A4.88,4.88,0,0,1,281.05,96Z"/><path class="cls-1" d="M327.83,84.46a18.79,18.79,0,0,1-2.46,6.36,16.17,16.17,0,0,1-1.81,2.32,12,12,0,0,1-2.4,2A13.42,13.42,0,0,1,318,96.53a13.87,13.87,0,0,1-4,.54h-6.23a8.88,8.88,0,0,1-2.23-.34,2.87,2.87,0,0,1-2.07-2.22,10.44,10.44,0,0,1-.24-2.47,6.62,6.62,0,0,0-.05-1V76.09h7.28a6.37,6.37,0,0,1,3.68.93,6.81,6.81,0,0,1,2,2.17,7,7,0,0,1,.84,2.39,15.75,15.75,0,0,1,.16,1.57v.65h1.36V67.14h-1.36v.65A13.85,13.85,0,0,1,317,69.3a7,7,0,0,1-2.77,4.49,5.92,5.92,0,0,1-3.5,1h-7.56v-21h10.09a11.84,11.84,0,0,1,5.4,1.05,9.14,9.14,0,0,1,3.21,2.61A11,11,0,0,1,323.59,61c.39,1.33.74,2.63,1,3.81v.48H326V52.46H289.35v1.3h2.25a5.4,5.4,0,0,1,3.59,1.18c.64.67,1,2,1,3.91a2,2,0,0,0,0,.42,2.11,2.11,0,0,1,0,.25V92a9.31,9.31,0,0,1-.32,2.72,2.85,2.85,0,0,1-1,1.46,4,4,0,0,1-1.88.72,23.22,23.22,0,0,1-3.17.19h-.48v1.36h38.09l1.75-14.36h-1.33Z"/><path class="cls-1" d="M364.78,53.82h1.32a14,14,0,0,1,2.31.25,9.73,9.73,0,0,1,2.76.91,6.7,6.7,0,0,1,2.29,1.91,5.35,5.35,0,0,1,.94,3.31V86.73L347,52.64l-.15-.18H334.06v1.36h2.23a10.87,10.87,0,0,1,2.87.29,2.17,2.17,0,0,1,1.23.79,2.77,2.77,0,0,1,.42,1.42c0,.65.06,1.41.06,2.3v32a5.43,5.43,0,0,1-.94,3.36,6.59,6.59,0,0,1-2.28,1.92,10,10,0,0,1-2.76.91,15.25,15.25,0,0,1-2.31.25h-1.33v1.36H351.9V97.07h-1.32a15.13,15.13,0,0,1-2.31-.25,9.94,9.94,0,0,1-2.76-.91A6.5,6.5,0,0,1,343.23,94a5.37,5.37,0,0,1-.94-3.36V57.92L374.5,98.24l.15.19h1.16V60.2a5.33,5.33,0,0,1,.94-3.31A6.66,6.66,0,0,1,379,55a9.73,9.73,0,0,1,2.76-.91,14,14,0,0,1,2.31-.25h1.33V52.46H364.78Z"/><path class="cls-1" d="M388.79,65.07h1.36v-.54c.26-1.12.57-2.32.94-3.55a12.1,12.1,0,0,1,1.62-3.38A9.17,9.17,0,0,1,395.55,55a10.41,10.41,0,0,1,4.64-1.28h.3a11.07,11.07,0,0,1,2.26.37,2.9,2.9,0,0,1,1.34.77,3.18,3.18,0,0,1,.72,1.42,10.39,10.39,0,0,1,.24,2.47V91.87a9.77,9.77,0,0,1-.31,2.72,2.92,2.92,0,0,1-.95,1.46,3.61,3.61,0,0,1-1.84.71,21.55,21.55,0,0,1-3.17.2h-.48v1.35h20.54V97h-2.21a8.34,8.34,0,0,1-2.23-.35,3.22,3.22,0,0,1-1.35-.8,3.15,3.15,0,0,1-.72-1.44,10.61,10.61,0,0,1-.24-2.45V58.68c0-1.82.29-3.09.87-3.76a4.49,4.49,0,0,1,3.09-1.21h.47A10.65,10.65,0,0,1,421.23,55a8.81,8.81,0,0,1,2.83,2.61,12.48,12.48,0,0,1,1.6,3.38c.36,1.24.7,2.43,1,3.56v.53H428V52.29H388.79Z"/><path class="cls-1" d="M462.25,82.52a12.49,12.49,0,0,0-2.57-4.83,17,17,0,0,0-5.05-4l-6.45-3.31a24.62,24.62,0,0,1-6.89-5.31,9.53,9.53,0,0,1-2.4-4.89A5.25,5.25,0,0,1,440,56.28a7.67,7.67,0,0,1,3.79-2.54,11.38,11.38,0,0,1,1.81-.4,12.46,12.46,0,0,1,6.09.59,10.92,10.92,0,0,1,3.55,2.12,13.9,13.9,0,0,1,1.52,1.71,15.07,15.07,0,0,1,1.36,2.18,12.29,12.29,0,0,1,1,2.42,8.63,8.63,0,0,1,.35,2.34v.48h1.41V52h-1.15l-.14.24a3.14,3.14,0,0,1-1.35,1.32,3.61,3.61,0,0,1-1.69.3,7.51,7.51,0,0,1-1.9-.37c-.67-.22-1.3-.45-1.89-.67a14.35,14.35,0,0,0-5.24-1,15.5,15.5,0,0,0-2.38.18,10.07,10.07,0,0,0-2.34.64,15.91,15.91,0,0,0-4.44,2.5,12.78,12.78,0,0,0-3.13,3.62,11.14,11.14,0,0,0-1.41,4.41,10.23,10.23,0,0,0,.68,4.75,14,14,0,0,0,3.05,4.6,21.35,21.35,0,0,0,5.76,4.06l7.08,3.66a10.82,10.82,0,0,1,4.42,3.89A8.31,8.31,0,0,1,456,88.67a8,8,0,0,1-1.41,4.22,8.81,8.81,0,0,1-3.6,3,15,15,0,0,1-4.61.92h-.49a13.36,13.36,0,0,1-4.62-.89,13.09,13.09,0,0,1-3.91-2.36,7.5,7.5,0,0,1-1.53-2,16.74,16.74,0,0,1-1.2-2.65,19.46,19.46,0,0,1-.77-2.8,13.3,13.3,0,0,1-.27-2.52l-.06-.49h-1.36v15.2H433l.48-.06v-.39c.05-.13.15-.34.29-.64a1.92,1.92,0,0,1,.84-.8,4.35,4.35,0,0,1,1.94-.39,10,10,0,0,1,3.49.82,4.75,4.75,0,0,0,.61.25,13.52,13.52,0,0,0,5.06,1h.56c.28,0,.54,0,.8,0s.53,0,.84-.08v0A22.52,22.52,0,0,0,455,95.93a15.94,15.94,0,0,0,4.84-3.66,10.89,10.89,0,0,0,2.44-4.68A10.61,10.61,0,0,0,462.25,82.52Z"/><path class="cls-2" d="M142.92,41.21c1.52-3.61,3.15-7.09,4.9-10.41a27.75,27.75,0,0,1,6.83-8.49c.29-.11.56-.23.83-.35s.56-.23.92-.35a3,3,0,0,1,2.62.79,4.8,4.8,0,0,1,1.14,2.41,8,8,0,0,1,0,3,11.66,11.66,0,0,1-.83,2.72,24.52,24.52,0,0,0,3.33-2.19c1-.82,2.15-1.6,3.32-2.36.82-.59,1.65-1.17,2.5-1.75s1.7-1.17,2.58-1.75a8.56,8.56,0,0,0,1-.48.84.84,0,0,1,1.05.13.81.81,0,0,1-.26,1.13c-.41.3-.76.56-1,.79q-3.68,2.54-7.09,5.12t-7,5.12a27.82,27.82,0,0,1-2.1,3.28A26.78,26.78,0,0,1,153,40.51c-.35.3-.77.69-1.27,1.18a18.24,18.24,0,0,1-1.53,1.4,11.42,11.42,0,0,1-1.7,1.18,4.66,4.66,0,0,1-1.8.62q-1.92.26-2.1-1.32a2.09,2.09,0,0,1,.48-1.83,15.93,15.93,0,0,1,1.27-1.23c.47-.46.89-.87,1.27-1.22s.77-.7,1.18-1a28.07,28.07,0,0,0,2.8-2.06,31.09,31.09,0,0,1,2.8-2.06c.41-.64.83-1.38,1.27-2.23a27.26,27.26,0,0,0,1.18-2.58l.4-1.4a10.85,10.85,0,0,0,.3-1.57,4.91,4.91,0,0,0,0-1.49,2.36,2.36,0,0,0-.66-1.23,4.75,4.75,0,0,0-3.06,1.45q-1.23,1.28-2.19,2.49a38.35,38.35,0,0,0-4.37,7.05,73.45,73.45,0,0,0-3.33,8.09c-.23.58-.45,1.15-.65,1.71a11,11,0,0,0-.49,1.7,18.94,18.94,0,0,0-.26,3.2c0,1.13,0,2.26-.08,3.36L142,59.32c-.11,2.22-.26,4.47-.43,6.74-.06.53-.1,1.07-.13,1.62a11.47,11.47,0,0,1-.18,1.53,3.31,3.31,0,0,1-.52,1.27,2.25,2.25,0,0,1-1.1.83h-.26a1.47,1.47,0,0,1-1.36-1.44c-.08-.85-.13-1.68-.13-2.49a43.73,43.73,0,0,1,.13-5c.15-1.6.34-3.22.57-4.85.12-.76.27-1.52.44-2.28s.32-1.52.44-2.27a38.92,38.92,0,0,0,.26-4.51c0-1.54.06-3,.17-4.42.24-3.73.46-7.41.66-11s.42-7.32.66-11.11V20.43a14.45,14.45,0,0,1,.08-1.53,3.13,3.13,0,0,1,.4-1.23,1.06,1.06,0,0,1,1-.52,1,1,0,0,1,1,.66,4.87,4.87,0,0,1,.4,1.57,12.43,12.43,0,0,1,0,1.93c-.06.67-.09,1.24-.09,1.7-.24,3-.46,6.08-.66,9.15S143,38.24,142.92,41.21Z"/><path class="cls-2" d="M185.62,19.51a13.05,13.05,0,0,0-4.07,4.2c-1,1.69-2.11,3.39-3.28,5.08l-1.4,2.8a23.88,23.88,0,0,0-1.23,2.89,15,15,0,0,0-1.31,2.84,3.18,3.18,0,0,1-2.1,2.06h-.79a2.22,2.22,0,0,1-.74-.49,4.11,4.11,0,0,1-.57-.74,29.37,29.37,0,0,1-.13-3.59c0-1.28.09-2.58.18-3.89s.23-2.6.43-3.85.43-2.41.66-3.46a12.44,12.44,0,0,1,.52-1.92,1.7,1.7,0,0,1,1.4-1.14,1.09,1.09,0,0,1,1,.79,4.79,4.79,0,0,1,.18,1.62,17.14,17.14,0,0,1-.22,1.92,9.64,9.64,0,0,0-.18,1.62q-.18,1.76-.3,3.15c-.09.93-.19,1.81-.31,2.62,1-1.63,2.19-3.46,3.59-5.51A55.76,55.76,0,0,1,181.24,21a22,22,0,0,1,1.54-1.71A6.32,6.32,0,0,1,184.57,18a2.64,2.64,0,0,1,1.62,0,1.35,1.35,0,0,1,1,1c.12.7-.05,1.08-.52,1.13A1,1,0,0,1,185.62,19.51Z"/><path class="cls-2" d="M200.41,20.56q-1.66,2.19-3.24,4.73T194,30.19c-.76,1.11-1.55,2.3-2.36,3.58a17.76,17.76,0,0,1-2.8,3.42,6.15,6.15,0,0,1-1.23,1.09,1.93,1.93,0,0,1-1.66.22,2.39,2.39,0,0,1-1.23-1.93A27.42,27.42,0,0,1,186.36,29a35.09,35.09,0,0,1,3.11-6.47c.41-.64.86-1.28,1.35-1.93a5,5,0,0,1,1.62-1.4,2.51,2.51,0,0,1,2.93.13,3.13,3.13,0,0,1,.92,3.2,4.93,4.93,0,0,0,1-1.4c.38-.7.79-1.42,1.22-2.15a15.13,15.13,0,0,1,1.4-2,2.44,2.44,0,0,1,1.54-1,1.91,1.91,0,0,1,.61.09l.52.17a4.11,4.11,0,0,1,.88,1.67q-.18,5.25-.7,9.93T202,37.8v1.58q0,1-.09,1.92a9.75,9.75,0,0,1-.3,1.71c-.15.49-.4.74-.75.74a1,1,0,0,1-.92-.57,4.28,4.28,0,0,1-.43-1.4,10.58,10.58,0,0,1-.13-1.71,8.68,8.68,0,0,0-.09-1.4,48.5,48.5,0,0,1,.17-9.27Q200,24.86,200.41,20.56Zm-6.3.18a.08.08,0,0,0-.09-.09,2.12,2.12,0,0,0-.48.22,2.62,2.62,0,0,1-.48.22,18.35,18.35,0,0,0-2.19,3.1,35.45,35.45,0,0,0-1.75,3.55c-.47,1.22-.92,2.52-1.36,3.89a19.24,19.24,0,0,0-.83,4.42,30.64,30.64,0,0,0,4.42-5.64q2-3.19,4-6.26a3.53,3.53,0,0,1-.44-1.88A1.49,1.49,0,0,0,194.11,20.74Z"/><path class="cls-2" d="M218.78,24.76a1.15,1.15,0,0,1-1-.09,2.24,2.24,0,0,1-.65-.65,4,4,0,0,1-.44-.88,3.26,3.26,0,0,0-.44-.83,6.83,6.83,0,0,0-3,2.85,21.14,21.14,0,0,0-1.84,4.15,18.74,18.74,0,0,0-.61,2.41,16.67,16.67,0,0,0-.31,2.71,9.05,9.05,0,0,0,.26,2.54A2.92,2.92,0,0,0,212,38.76,7.19,7.19,0,0,0,216,37.27c1-.81,2-1.57,3.06-2.27,2-1.52,4-3.08,6-4.68s3.88-3.22,5.87-4.86q.69-.53,1.44-1.14c.49-.4,1-.78,1.53-1.13a3.37,3.37,0,0,1,.74-.53c.32-.17.63-.35.92-.52a8.41,8.41,0,0,0,.92-.44.57.57,0,0,1,.83.26c.18.47.11.79-.22,1a4.08,4.08,0,0,0-.83.62c-.81.58-1.59,1.18-2.32,1.79l-2.23,1.88q-3.24,2.71-6.43,5.82a72.66,72.66,0,0,1-6.78,5.82A26,26,0,0,1,215.11,41a5.45,5.45,0,0,1-4.29.31,4.48,4.48,0,0,1-2.23-2.49,11.81,11.81,0,0,1-.75-3.77,17.79,17.79,0,0,1,.35-4.2A23.48,23.48,0,0,1,209.33,27,16.5,16.5,0,0,1,214.14,20c.29-.12.53-.22.7-.31a2.9,2.9,0,0,1,.7-.22c.06,0,.09,0,.09,0s0,0,.09,0h.79a3.44,3.44,0,0,1,.7.09,3.31,3.31,0,0,1,1.92,2.54,6.52,6.52,0,0,0,0,1.53A1.24,1.24,0,0,1,218.78,24.76Z"/><path class="cls-2" d="M241.09,10.94q7.53-.27,15.67-.79a114.92,114.92,0,0,1,16.18.09c.29,0,.62,0,1,0a.76.76,0,0,1,.7.48c-.06.47-.28.7-.66.7a6,6,0,0,1-1-.08,155.81,155.81,0,0,0-16.18.13q-8.06.48-15.84.91-1.23,7.19-2.23,14.62a107.38,107.38,0,0,0-.92,15.57c0,.76,0,1.61.09,2.54a16.1,16.1,0,0,0,.35,2.62,24,24,0,0,0,.56,2.37c.27.93.66,1.43,1.19,1.48a1.15,1.15,0,0,0,.91-.26,8,8,0,0,0,1-.83,8.29,8.29,0,0,0,.87-1c.27-.35.45-.61.57-.78a85.76,85.76,0,0,0,6.26-9.32q2.75-4.77,5.82-9.93c.52-.93,1.08-1.9,1.66-2.89s1.22-2,1.92-3a9.37,9.37,0,0,1,.79-1,.78.78,0,0,1,.88-.31c.46.24.55.6.26,1.1s-.53.86-.7,1.09q-2.19,3.67-4.11,7.44c-1.29,2.51-2.66,5-4.12,7.44-.81,1.34-1.62,2.69-2.4,4.06s-1.62,2.73-2.5,4.07-1.78,2.66-2.71,3.94a9.28,9.28,0,0,1-3.59,3,4.69,4.69,0,0,1-1.83,0,5.39,5.39,0,0,1-3-3.28,23.32,23.32,0,0,1-1.18-4.94,36.72,36.72,0,0,1-.44-5.82q0-3,.17-5.9.45-5.86,1.18-11.34t1.8-10.45q-4,.18-8.18.61c-2.77.29-5.59.5-8.45.61-.35,0-.74,0-1.18.05s-.68-.19-.74-.66a.62.62,0,0,1,.7-.7,7.24,7.24,0,0,0,1.22-.09c2.75-.17,5.55-.41,8.4-.7s5.69-.49,8.49-.61c.35-1.22.74-2.67,1.18-4.33a36.46,36.46,0,0,1,1.53-4.6,7.2,7.2,0,0,1,.66-1.44A1.38,1.38,0,0,1,242.23,0a.9.9,0,0,1,.83.35,1.27,1.27,0,0,1,.18.83,6.52,6.52,0,0,1-.18,1c-.08.35-.16.67-.22,1-.29,1.28-.58,2.61-.87,4S241.38,9.77,241.09,10.94Z"/><path class="cls-2" d="M261,21.79a1.33,1.33,0,0,1,.31,1c0,.35,0,.73,0,1.14-.06,1-.08,2.07-.05,3.23s.05,2.31.05,3.42,0,2.19-.05,3.23a3.77,3.77,0,0,1-.92,2.54h-.7A2.75,2.75,0,0,1,259,35a13.09,13.09,0,0,1-.31-2c-.06-1.28-.07-2.63,0-4a39.34,39.34,0,0,1,.3-4.11q.09-.53.18-1.23a5.07,5.07,0,0,1,.3-1.22,1.41,1.41,0,0,1,.62-.74A1,1,0,0,1,261,21.79Zm.44-17a2,2,0,0,1-.7,1.4,1,1,0,0,1-1-.17,1.45,1.45,0,0,1-.35-.83,1.08,1.08,0,0,1,.27-.83,1.08,1.08,0,0,1,1-.27C261.16,4.35,261.42,4.58,261.48,4.81Z"/><path class="cls-2" d="M276.18,24.76a1.15,1.15,0,0,1-1-.09,2.24,2.24,0,0,1-.65-.65,4,4,0,0,1-.44-.88,3.26,3.26,0,0,0-.44-.83,6.78,6.78,0,0,0-3,2.85,21.14,21.14,0,0,0-1.84,4.15,18.74,18.74,0,0,0-.61,2.41,16.67,16.67,0,0,0-.31,2.71,9.05,9.05,0,0,0,.26,2.54,2.92,2.92,0,0,0,1.27,1.79,7.22,7.22,0,0,0,3.94-1.49c1-.81,2-1.57,3.06-2.27,2-1.52,4-3.08,5.95-4.68l5.86-4.86c.47-.35.95-.73,1.45-1.14a18.86,18.86,0,0,1,1.53-1.13,3.15,3.15,0,0,1,.74-.53c.32-.17.63-.35.92-.52a8.41,8.41,0,0,0,.92-.44.57.57,0,0,1,.83.26c.18.47.1.79-.22,1a3.82,3.82,0,0,0-.83.62c-.82.58-1.59,1.18-2.32,1.79L289,27.21q-3.24,2.71-6.43,5.82a72.66,72.66,0,0,1-6.78,5.82A25.44,25.44,0,0,1,272.5,41a5.42,5.42,0,0,1-4.28.31A4.48,4.48,0,0,1,266,38.81a11.81,11.81,0,0,1-.75-3.77,17.79,17.79,0,0,1,.35-4.2A22.55,22.55,0,0,1,266.73,27,16.41,16.41,0,0,1,271.54,20c.29-.12.53-.22.7-.31a2.9,2.9,0,0,1,.7-.22c.06,0,.09,0,.09,0s0,0,.09,0h.78a2.61,2.61,0,0,1,2.63,2.63,6.52,6.52,0,0,0,0,1.53A1.24,1.24,0,0,1,276.18,24.76Z"/><path class="cls-2" d="M294.2,26.86a17.83,17.83,0,0,0-1.13,3.2,14.87,14.87,0,0,0-.53,3.85,6.55,6.55,0,0,0,.79,3.28,3.08,3.08,0,0,0,2.8,1.48,8.61,8.61,0,0,0,4.33-1,40.63,40.63,0,0,0,3.54-2c1.17-.82,2.26-1.62,3.29-2.41S309.22,31.73,310,31a47,47,0,0,0,4.33-3.77q2.06-2,4.07-4.11a2.07,2.07,0,0,0,.57-.7,6.77,6.77,0,0,1,.66-1,4.78,4.78,0,0,1,.74-.75.69.69,0,0,1,.83,0c.41.17.5.52.26,1.05a5.87,5.87,0,0,1-.61,1.14,3.19,3.19,0,0,1-.52,1,10.83,10.83,0,0,0-.7,1,61.64,61.64,0,0,1-4.6,4.81q-2.4,2.28-4.94,4.55a35.83,35.83,0,0,1-7.35,5.26,18.91,18.91,0,0,1-2.19,1,12.25,12.25,0,0,1-2.54.7,11.23,11.23,0,0,1-2.66.13,5.34,5.34,0,0,1-2.5-.79,4,4,0,0,1-.92-.83l-.83-1a8.45,8.45,0,0,1-1.09-3.72,16.73,16.73,0,0,1,.26-4.16,25.81,25.81,0,0,1,1.09-4,26.23,26.23,0,0,1,1.4-3.24,36.18,36.18,0,0,1,3.5-5.16A10.26,10.26,0,0,1,301.64,15a4.22,4.22,0,0,1,2.93.79,3,3,0,0,1,.92,2.8,5.72,5.72,0,0,1-1.05,2.62,16.12,16.12,0,0,1-1.84,2.19,19.9,19.9,0,0,1-3.45,2.76A7.21,7.21,0,0,1,294.2,26.86Zm8.14-9.36a9.13,9.13,0,0,0-4.64,3.19,32.64,32.64,0,0,0-3,4.86,5.43,5.43,0,0,0,3.24-.88,24.5,24.5,0,0,0,2.27-1.83q1-1.05,2-2.1a3.8,3.8,0,0,0,1-3A1,1,0,0,0,302.34,17.5Z"/></g></g></svg>