<svg xmlns="http://www.w3.org/2000/svg" viewBox="0 0 368.08 112.02"><defs><style>.cls-1{fill:none;stroke:#53575a;stroke-miterlimit:7.26;stroke-width:0.77px;}.cls-2{fill:#153a49;}.cls-3{fill:#ff8300;}</style></defs><g id="Layer_2" data-name="Layer 2"><g id="Layer_1-2" data-name="Layer 1"><path class="cls-1" d="M.39,95.06H.91a15.64,15.64,0,0,0,.32,3,24,24,0,0,0,.91,3.31,19.55,19.55,0,0,0,1.43,3.15A9.13,9.13,0,0,0,5.45,107a15.88,15.88,0,0,0,4.69,2.83,16.08,16.08,0,0,0,5.52,1.07h.58a18,18,0,0,0,5.53-1.11,10.57,10.57,0,0,0,4.42-3.7,9.68,9.68,0,0,0,1.72-5.17,10,10,0,0,0-1.52-5.52,12.92,12.92,0,0,0-5.33-4.72l-8.2-4.22a24.54,24.54,0,0,1-6.5-4.58A15.49,15.49,0,0,1,3,76.7a11.38,11.38,0,0,1-.75-5.23,12.28,12.28,0,0,1,1.57-4.88,14.21,14.21,0,0,1,3.47-4,17.52,17.52,0,0,1,5-2.79,11.34,11.34,0,0,1,2.6-.72,17.82,17.82,0,0,1,2.66-.19A15.87,15.87,0,0,1,23.33,60c.69.26,1.43.52,2.21.78a8.82,8.82,0,0,0,2.34.46,4.86,4.86,0,0,0,2.21-.39,4.12,4.12,0,0,0,1.82-1.76h.45V73.16h-.51a10.62,10.62,0,0,0-.43-2.86,15.23,15.23,0,0,0-1.14-2.89,16.25,16.25,0,0,0-1.62-2.6,15.08,15.08,0,0,0-1.82-2.05,13.19,13.19,0,0,0-4.29-2.57,14.77,14.77,0,0,0-5.07-.88,15.57,15.57,0,0,0-2.24.17,13.58,13.58,0,0,0-2.18.48,9.38,9.38,0,0,0-4.65,3.12A6.66,6.66,0,0,0,7.05,68a11.48,11.48,0,0,0,2.89,6,28.84,28.84,0,0,0,8.13,6.27l7.47,3.84a19,19,0,0,1,5.66,4.45,13.69,13.69,0,0,1,2.86,5.36,11.75,11.75,0,0,1,.06,5.59,11.9,11.9,0,0,1-2.7,5.17,17.55,17.55,0,0,1-5.43,4.1,25.55,25.55,0,0,1-8.12,2.37H18l-.94.1c-.28,0-.58,0-.88,0h-.65a14.85,14.85,0,0,1-5.65-1.11v0a3.5,3.5,0,0,1-.65-.26,11.79,11.79,0,0,0-4.29-1,5.4,5.4,0,0,0-2.51.52,2.72,2.72,0,0,0-1.2,1.17,8.34,8.34,0,0,0-.39.87v.07H.39Z"/><path class="cls-1" d="M72.86,59.44H95.54v.46h-1c-.69,0-1.6.15-2.73.32a11.38,11.38,0,0,0-3.35,1.11,8.39,8.39,0,0,0-2.86,2.4,6.65,6.65,0,0,0-1.2,4.16V96A13.88,13.88,0,0,1,83,102.25a15.23,15.23,0,0,1-4.16,5.1,19.31,19.31,0,0,1-6.11,3.18,23.86,23.86,0,0,1-7.35,1.11H65a22.16,22.16,0,0,1-7.08-1.11A18.87,18.87,0,0,1,52,107.35a15.53,15.53,0,0,1-4.19-5.14,15.28,15.28,0,0,1-1.46-6.89V64.58A4.7,4.7,0,0,0,44.84,61a7.45,7.45,0,0,0-4.22-1.14H38.54v-.52H61.22v.32l.07.07h-.07v.13H58.56A6.65,6.65,0,0,0,55.05,61a4.6,4.6,0,0,0-1.5,3.06V94.87A21.32,21.32,0,0,0,54.72,102a13.87,13.87,0,0,0,3.48,5.52,12.54,12.54,0,0,0,5.62,3.09,15.43,15.43,0,0,0,7.61-.16A19.59,19.59,0,0,0,78.58,107a13.38,13.38,0,0,0,3.9-4.75A12.82,12.82,0,0,0,84,96V67.57a6.35,6.35,0,0,0-1.3-4,8.3,8.3,0,0,0-2.86-2.28,11.89,11.89,0,0,0-3.31-1c-1.13-.17-2-.28-2.67-.32h-1Z"/><path class="cls-1" d="M101.33,111.57v-.45h.06a26.12,26.12,0,0,0,3.74-.23,4.87,4.87,0,0,0,2.41-.94,4,4,0,0,0,1.26-2,11.32,11.32,0,0,0,.4-3.32V66.4c0-2.38-.43-4-1.27-4.91s-2.35-1.4-4.52-1.53h-2.08v-.39h24.76a26.71,26.71,0,0,1,7.54,1,16.68,16.68,0,0,1,5.2,2.79,11,11,0,0,1,3,4.07,13.25,13.25,0,0,1,1,5.23,11.65,11.65,0,0,1-4,9.29,15.51,15.51,0,0,1-5.2,2.8,13.45,13.45,0,0,1-3,.71c-1.06.13-2.18.24-3.35.33a10,10,0,0,1,2.9,1.36,14.86,14.86,0,0,1,3.47,3.58l12.22,17a6.51,6.51,0,0,0,2.18,1.92,13.07,13.07,0,0,0,2.47,1,9.78,9.78,0,0,0,2.11.42c.61,0,1,.07,1.11.07h.06v.45h-13l-15.86-22a15.12,15.12,0,0,0-1.78-2,7.84,7.84,0,0,0-1.56-1.14,5.3,5.3,0,0,0-1.47-.52,8,8,0,0,0-1.49-.13h-2.41v19a12.36,12.36,0,0,0,.3,3,4.06,4.06,0,0,0,1,1.88,4.22,4.22,0,0,0,1.79,1.08,10.59,10.59,0,0,0,2.73.42h2v.45H101.33Zm14.88-26.19h9.36A9.27,9.27,0,0,0,131,83.75a9.71,9.71,0,0,0,1.47-1.33,11.3,11.3,0,0,0,1.39-1.92A15.66,15.66,0,0,0,135.13,77a19.49,19.49,0,0,0,.45-4.32,15.17,15.17,0,0,0-2.4-9A8.81,8.81,0,0,0,125.57,60h-4.22a8.66,8.66,0,0,0-2.4.52,4,4,0,0,0-1.6,1.11,4.33,4.33,0,0,0-.88,1.88,13.68,13.68,0,0,0-.26,2.86v19Z"/><path class="cls-1" d="M155.8,85.44a28.76,28.76,0,0,1,1.82-10.2,27.87,27.87,0,0,1,4.94-8.32,22.45,22.45,0,0,1,7.28-5.66,20.14,20.14,0,0,1,8.84-2.08,17.59,17.59,0,0,1,6.37,1.24l.13.06.26.13c.3.13.59.27.88.43s.57.29.87.42a13.5,13.5,0,0,0,5.37,1.62,5.31,5.31,0,0,0,2.95-.65,3.3,3.3,0,0,0,1.5-2.27h.39V79.07H197a30.21,30.21,0,0,0-2.47-8.58,21.19,21.19,0,0,0-4.23-6,17.59,17.59,0,0,0-5.39-3.58,15.85,15.85,0,0,0-5.2-1.23v.06a11.76,11.76,0,0,0-6.57,2,18.67,18.67,0,0,0-5.33,5.52,29.45,29.45,0,0,0-3.57,8.19,37.14,37.14,0,0,0-1.3,10,36,36,0,0,0,2.14,12.65,23.77,23.77,0,0,0,5.72,9.13,16.61,16.61,0,0,0,3.12,2.31,19.23,19.23,0,0,0,2.6,1.2,10.64,10.64,0,0,0,3.19.45,14.37,14.37,0,0,0,5.13-1.1,20.86,20.86,0,0,0,4.16-2.47c.18-.17.44-.45.78-.81a7.91,7.91,0,0,0,1-1.43,10,10,0,0,0,.91-2.12,9.22,9.22,0,0,0,.39-2.79v-6a3.35,3.35,0,0,0-.68-2.24,4,4,0,0,0-1.82-1.2,9.85,9.85,0,0,0-2.7-.46c-1,0-2.14-.06-3.31-.06v-.52h20.8v.52c-1,0-1.83,0-2.5.06a5.06,5.06,0,0,0-1.66.36,1.8,1.8,0,0,0-.94.94,4.29,4.29,0,0,0-.3,1.76V108h-.45a3.79,3.79,0,0,0-3-1.07,12.83,12.83,0,0,0-3.7.81c-1.33.48-2.71,1.05-4.16,1.72a28.12,28.12,0,0,1-4.33,1.59,18.94,18.94,0,0,1-4.74.59,19.68,19.68,0,0,1-8.84-2,24.87,24.87,0,0,1-3.9-2.4,19.86,19.86,0,0,1-3.38-3.25,27.87,27.87,0,0,1-4.94-8.32,30.4,30.4,0,0,1-1.37-5A29.63,29.63,0,0,1,155.8,85.44Z"/><path class="cls-1" d="M241.47,110.47a15.56,15.56,0,0,0,3.8-1.69,14.13,14.13,0,0,0,2.89-2.37,19,19,0,0,0,2.15-2.77,22.09,22.09,0,0,0,2.92-7.54h.46l-1.89,15.47h-43v-.45a26.22,26.22,0,0,0,3.74-.23A5,5,0,0,0,215,110a3.9,3.9,0,0,0,1.3-2,11.37,11.37,0,0,0,.39-3.32V67.18a2.56,2.56,0,0,0,0-.39,2.56,2.56,0,0,1,0-.39q0-3.57-1.27-4.91T210.85,60h-2.08v-.39H250V73.22h-.45v-.06c-.35-1.43-.75-2.93-1.2-4.49a13.14,13.14,0,0,0-2.12-4.25,11,11,0,0,0-3.9-3.19,14.31,14.31,0,0,0-6.5-1.27H223.59V85.38h9.3a7.45,7.45,0,0,0,4.39-1.27,8.43,8.43,0,0,0,2.4-2.7,8.56,8.56,0,0,0,1-2.86,15.63,15.63,0,0,0,.19-1.82v-.19h.46V94.67h-.46v-.19a17.68,17.68,0,0,0-.19-1.89,8.51,8.51,0,0,0-1-3,8.27,8.27,0,0,0-2.5-2.7,7.87,7.87,0,0,0-4.59-1.17h-9v17.81a6.23,6.23,0,0,1,.07,1.17,13,13,0,0,0,.29,3,4.07,4.07,0,0,0,1,1.88,4.18,4.18,0,0,0,1.78,1.08,10.59,10.59,0,0,0,2.73.42h7.22A16.71,16.71,0,0,0,241.47,110.47Z"/><path class="cls-1" d="M257.65,111.57v-.45h.07a26.22,26.22,0,0,0,3.74-.23,4.83,4.83,0,0,0,2.4-.94,4,4,0,0,0,1.27-2,11.37,11.37,0,0,0,.39-3.32V66.4q0-3.57-1.27-4.91T259.73,60h-2.08v-.39h24.77a26.71,26.71,0,0,1,7.54,1,16.79,16.79,0,0,1,5.2,2.79,11.08,11.08,0,0,1,3,4.07,13.25,13.25,0,0,1,1,5.23,11.67,11.67,0,0,1-4,9.29,15.61,15.61,0,0,1-5.2,2.8,13.45,13.45,0,0,1-3,.71c-1.07.13-2.18.24-3.35.33a10,10,0,0,1,2.89,1.36A15.06,15.06,0,0,1,290,90.71l12.22,17a6.33,6.33,0,0,0,2.18,1.92,12.55,12.55,0,0,0,2.47,1,9.67,9.67,0,0,0,2.11.42c.6,0,1,.07,1.1.07h.07v.45h-13l-15.86-22a15.1,15.1,0,0,0-1.79-2,7.31,7.31,0,0,0-1.56-1.14,5.35,5.35,0,0,0-1.46-.52,8.13,8.13,0,0,0-1.5-.13h-2.4v19a13,13,0,0,0,.29,3,4.07,4.07,0,0,0,1,1.88,4.18,4.18,0,0,0,1.78,1.08,10.59,10.59,0,0,0,2.73.42h2v.45H257.65Zm14.89-26.19h9.36a9.29,9.29,0,0,0,5.46-1.63,10.17,10.17,0,0,0,1.46-1.33,11.33,11.33,0,0,0,1.4-1.92A15.65,15.65,0,0,0,291.45,77a18.89,18.89,0,0,0,.46-4.32q0-5.6-2.41-9A8.8,8.8,0,0,0,281.9,60h-4.23a8.74,8.74,0,0,0-2.4.52,4,4,0,0,0-1.59,1.11,4.11,4.11,0,0,0-.88,1.88,13,13,0,0,0-.26,2.86v19Z"/><path class="cls-1" d="M342.35,89.28v15.34q0,3.57,1.3,4.94c.86.91,2.4,1.36,4.61,1.36h2v.52H327.59v-.52a25.65,25.65,0,0,0,3.71-.22,5.41,5.41,0,0,0,2.4-.91,3.74,3.74,0,0,0,1.3-2,11.47,11.47,0,0,0,.39-3.29V89.28q-3.24-6-5.49-10.11t-3.74-6.86l-2.3-4.22c-.55-1-.95-1.75-1.21-2.24s-.42-.82-.48-.95a1.15,1.15,0,0,0-.17-.26,7.78,7.78,0,0,0-2.27-2.6A10.55,10.55,0,0,0,317,60.61a13.11,13.11,0,0,0-2.47-.58A14.68,14.68,0,0,0,313,59.9v-.39h20.21v.39h-1.1c-.48,0-1,.12-1.63.23a4.15,4.15,0,0,0-1.56.58,2.06,2.06,0,0,0-.87,1.17,2.61,2.61,0,0,0,.48,2l13.59,25,10-18.26a26.06,26.06,0,0,0,2-4.49,8.43,8.43,0,0,0,.46-3,3.18,3.18,0,0,0-.62-1.78,3.15,3.15,0,0,0-1.2-.91,4.35,4.35,0,0,0-1.37-.36c-.45,0-.81-.07-1.07-.07v-.45H367.7V60h-.26a13.29,13.29,0,0,0-2.34.36,16,16,0,0,0-3.84,1.46A22.19,22.19,0,0,0,356.78,65a20.24,20.24,0,0,0-4.23,5.59Z"/><path class="cls-2" d="M.39,95.06H.91a15.64,15.64,0,0,0,.32,3,24,24,0,0,0,.91,3.31,19.55,19.55,0,0,0,1.43,3.15A9.13,9.13,0,0,0,5.45,107a15.88,15.88,0,0,0,4.69,2.83,16.08,16.08,0,0,0,5.52,1.07h.58a18,18,0,0,0,5.53-1.11,10.57,10.57,0,0,0,4.42-3.7,9.68,9.68,0,0,0,1.72-5.17,10,10,0,0,0-1.52-5.52,12.92,12.92,0,0,0-5.33-4.72l-8.2-4.22a24.54,24.54,0,0,1-6.5-4.58A15.49,15.49,0,0,1,3,76.7a11.38,11.38,0,0,1-.75-5.23,12.28,12.28,0,0,1,1.57-4.88,14.21,14.21,0,0,1,3.47-4,17.52,17.52,0,0,1,5-2.79,11.34,11.34,0,0,1,2.6-.72,17.82,17.82,0,0,1,2.66-.19A15.87,15.87,0,0,1,23.33,60c.69.26,1.43.52,2.21.78a8.82,8.82,0,0,0,2.34.46,4.86,4.86,0,0,0,2.21-.39,4.12,4.12,0,0,0,1.82-1.76h.45V73.16h-.51a10.62,10.62,0,0,0-.43-2.86,15.23,15.23,0,0,0-1.14-2.89,16.25,16.25,0,0,0-1.62-2.6,15.08,15.08,0,0,0-1.82-2.05,13.19,13.19,0,0,0-4.29-2.57,14.77,14.77,0,0,0-5.07-.88,15.57,15.57,0,0,0-2.24.17,13.58,13.58,0,0,0-2.18.48,9.38,9.38,0,0,0-4.65,3.12A6.66,6.66,0,0,0,7.05,68a11.48,11.48,0,0,0,2.89,6,28.84,28.84,0,0,0,8.13,6.27l7.47,3.84a19,19,0,0,1,5.66,4.45,13.69,13.69,0,0,1,2.86,5.36,11.75,11.75,0,0,1,.06,5.59,11.9,11.9,0,0,1-2.7,5.17,17.55,17.55,0,0,1-5.43,4.1,25.55,25.55,0,0,1-8.12,2.37H18l-.94.1c-.28,0-.58,0-.88,0h-.65a14.85,14.85,0,0,1-5.65-1.11v0a3.5,3.5,0,0,1-.65-.26,11.79,11.79,0,0,0-4.29-1,5.4,5.4,0,0,0-2.51.52,2.72,2.72,0,0,0-1.2,1.17,8.34,8.34,0,0,0-.39.87v.07H.39Z"/><path class="cls-2" d="M72.86,59.44H95.54v.46h-1c-.69,0-1.6.15-2.73.32a11.38,11.38,0,0,0-3.35,1.11,8.39,8.39,0,0,0-2.86,2.4,6.65,6.65,0,0,0-1.2,4.16V96A13.88,13.88,0,0,1,83,102.25a15.23,15.23,0,0,1-4.16,5.1,19.31,19.31,0,0,1-6.11,3.18,23.86,23.86,0,0,1-7.35,1.11H65a22.16,22.16,0,0,1-7.08-1.11A18.87,18.87,0,0,1,52,107.35a15.53,15.53,0,0,1-4.19-5.14,15.28,15.28,0,0,1-1.46-6.89V64.58A4.7,4.7,0,0,0,44.84,61a7.45,7.45,0,0,0-4.22-1.14H38.54v-.52H61.22v.32l.07.07h-.07v.13H58.56A6.65,6.65,0,0,0,55.05,61a4.6,4.6,0,0,0-1.5,3.06V94.87A21.32,21.32,0,0,0,54.72,102a13.87,13.87,0,0,0,3.48,5.52,12.54,12.54,0,0,0,5.62,3.09,15.43,15.43,0,0,0,7.61-.16A19.59,19.59,0,0,0,78.58,107a13.38,13.38,0,0,0,3.9-4.75A12.82,12.82,0,0,0,84,96V67.57a6.35,6.35,0,0,0-1.3-4,8.3,8.3,0,0,0-2.86-2.28,11.89,11.89,0,0,0-3.31-1c-1.13-.17-2-.28-2.67-.32h-1Z"/><path class="cls-2" d="M101.33,111.57v-.45h.06a26.12,26.12,0,0,0,3.74-.23,4.87,4.87,0,0,0,2.41-.94,4,4,0,0,0,1.26-2,11.32,11.32,0,0,0,.4-3.32V66.4c0-2.38-.43-4-1.27-4.91s-2.35-1.4-4.52-1.53h-2.08v-.39h24.76a26.71,26.71,0,0,1,7.54,1,16.68,16.68,0,0,1,5.2,2.79,11,11,0,0,1,3,4.07,13.25,13.25,0,0,1,1,5.23,11.65,11.65,0,0,1-4,9.29,15.51,15.51,0,0,1-5.2,2.8,13.45,13.45,0,0,1-3,.71c-1.06.13-2.18.24-3.35.33a10,10,0,0,1,2.9,1.36,14.86,14.86,0,0,1,3.47,3.58l12.22,17a6.51,6.51,0,0,0,2.18,1.92,13.07,13.07,0,0,0,2.47,1,9.78,9.78,0,0,0,2.11.42c.61,0,1,.07,1.11.07h.06v.45h-13l-15.86-22a15.12,15.12,0,0,0-1.78-2,7.84,7.84,0,0,0-1.56-1.14,5.3,5.3,0,0,0-1.47-.52,8,8,0,0,0-1.49-.13h-2.41v19a12.36,12.36,0,0,0,.3,3,4.06,4.06,0,0,0,1,1.88,4.22,4.22,0,0,0,1.79,1.08,10.59,10.59,0,0,0,2.73.42h2v.45H101.33Zm14.88-26.19h9.36A9.27,9.27,0,0,0,131,83.75a9.71,9.71,0,0,0,1.47-1.33,11.3,11.3,0,0,0,1.39-1.92A15.66,15.66,0,0,0,135.13,77a19.49,19.49,0,0,0,.45-4.32,15.17,15.17,0,0,0-2.4-9A8.81,8.81,0,0,0,125.57,60h-4.22a8.66,8.66,0,0,0-2.4.52,4,4,0,0,0-1.6,1.11,4.33,4.33,0,0,0-.88,1.88,13.68,13.68,0,0,0-.26,2.86v19Z"/><path class="cls-2" d="M155.8,85.44a28.76,28.76,0,0,1,1.82-10.2,27.87,27.87,0,0,1,4.94-8.32,22.45,22.45,0,0,1,7.28-5.66,20.14,20.14,0,0,1,8.84-2.08,17.59,17.59,0,0,1,6.37,1.24l.13.06.26.13c.3.13.59.27.88.43s.57.29.87.42a13.5,13.5,0,0,0,5.37,1.62,5.31,5.31,0,0,0,2.95-.65,3.3,3.3,0,0,0,1.5-2.27h.39V79.07H197a30.21,30.21,0,0,0-2.47-8.58,21.19,21.19,0,0,0-4.23-6,17.59,17.59,0,0,0-5.39-3.58,15.85,15.85,0,0,0-5.2-1.23v.06a11.76,11.76,0,0,0-6.57,2,18.67,18.67,0,0,0-5.33,5.52,29.45,29.45,0,0,0-3.57,8.19,37.14,37.14,0,0,0-1.3,10,36,36,0,0,0,2.14,12.65,23.77,23.77,0,0,0,5.72,9.13,16.61,16.61,0,0,0,3.12,2.31,19.23,19.23,0,0,0,2.6,1.2,10.64,10.64,0,0,0,3.19.45,14.37,14.37,0,0,0,5.13-1.1,20.86,20.86,0,0,0,4.16-2.47c.18-.17.44-.45.78-.81a7.91,7.91,0,0,0,1-1.43,10,10,0,0,0,.91-2.12,9.22,9.22,0,0,0,.39-2.79v-6a3.35,3.35,0,0,0-.68-2.24,4,4,0,0,0-1.82-1.2,9.85,9.85,0,0,0-2.7-.46c-1,0-2.14-.06-3.31-.06v-.52h20.8v.52c-1,0-1.83,0-2.5.06a5.06,5.06,0,0,0-1.66.36,1.8,1.8,0,0,0-.94.94,4.29,4.29,0,0,0-.3,1.76V108h-.45a3.79,3.79,0,0,0-3-1.07,12.83,12.83,0,0,0-3.7.81c-1.33.48-2.71,1.05-4.16,1.72a28.12,28.12,0,0,1-4.33,1.59,18.94,18.94,0,0,1-4.74.59,19.68,19.68,0,0,1-8.84-2,24.87,24.87,0,0,1-3.9-2.4,19.86,19.86,0,0,1-3.38-3.25,27.87,27.87,0,0,1-4.94-8.32,30.4,30.4,0,0,1-1.37-5A29.63,29.63,0,0,1,155.8,85.44Z"/><path class="cls-2" d="M241.47,110.47a15.56,15.56,0,0,0,3.8-1.69,14.13,14.13,0,0,0,2.89-2.37,19,19,0,0,0,2.15-2.77,22.09,22.09,0,0,0,2.92-7.54h.46l-1.89,15.47h-43v-.45a26.22,26.22,0,0,0,3.74-.23A5,5,0,0,0,215,110a3.9,3.9,0,0,0,1.3-2,11.37,11.37,0,0,0,.39-3.32V67.18a2.56,2.56,0,0,0,0-.39,2.56,2.56,0,0,1,0-.39q0-3.57-1.27-4.91T210.85,60h-2.08v-.39H250V73.22h-.45v-.06c-.35-1.43-.75-2.93-1.2-4.49a13.14,13.14,0,0,0-2.12-4.25,11,11,0,0,0-3.9-3.19,14.31,14.31,0,0,0-6.5-1.27H223.59V85.38h9.3a7.45,7.45,0,0,0,4.39-1.27,8.43,8.43,0,0,0,2.4-2.7,8.56,8.56,0,0,0,1-2.86,15.63,15.63,0,0,0,.19-1.82v-.19h.46V94.67h-.46v-.19a17.68,17.68,0,0,0-.19-1.89,8.51,8.51,0,0,0-1-3,8.27,8.27,0,0,0-2.5-2.7,7.87,7.87,0,0,0-4.59-1.17h-9v17.81a6.23,6.23,0,0,1,.07,1.17,13,13,0,0,0,.29,3,4.07,4.07,0,0,0,1,1.88,4.18,4.18,0,0,0,1.78,1.08,10.59,10.59,0,0,0,2.73.42h7.22A16.71,16.71,0,0,0,241.47,110.47Z"/><path class="cls-2" d="M257.65,111.57v-.45h.07a26.22,26.22,0,0,0,3.74-.23,4.83,4.83,0,0,0,2.4-.94,4,4,0,0,0,1.27-2,11.37,11.37,0,0,0,.39-3.32V66.4q0-3.57-1.27-4.91T259.73,60h-2.08v-.39h24.77a26.71,26.71,0,0,1,7.54,1,16.79,16.79,0,0,1,5.2,2.79,11.08,11.08,0,0,1,3,4.07,13.25,13.25,0,0,1,1,5.23,11.67,11.67,0,0,1-4,9.29,15.61,15.61,0,0,1-5.2,2.8,13.45,13.45,0,0,1-3,.71c-1.07.13-2.18.24-3.35.33a10,10,0,0,1,2.89,1.36A15.06,15.06,0,0,1,290,90.71l12.22,17a6.33,6.33,0,0,0,2.18,1.92,12.55,12.55,0,0,0,2.47,1,9.67,9.67,0,0,0,2.11.42c.6,0,1,.07,1.1.07h.07v.45h-13l-15.86-22a15.1,15.1,0,0,0-1.79-2,7.31,7.31,0,0,0-1.56-1.14,5.35,5.35,0,0,0-1.46-.52,8.13,8.13,0,0,0-1.5-.13h-2.4v19a13,13,0,0,0,.29,3,4.07,4.07,0,0,0,1,1.88,4.18,4.18,0,0,0,1.78,1.08,10.59,10.59,0,0,0,2.73.42h2v.45H257.65Zm14.89-26.19h9.36a9.29,9.29,0,0,0,5.46-1.63,10.17,10.17,0,0,0,1.46-1.33,11.33,11.33,0,0,0,1.4-1.92A15.65,15.65,0,0,0,291.45,77a18.89,18.89,0,0,0,.46-4.32q0-5.6-2.41-9A8.8,8.8,0,0,0,281.9,60h-4.23a8.74,8.74,0,0,0-2.4.52,4,4,0,0,0-1.59,1.11,4.11,4.11,0,0,0-.88,1.88,13,13,0,0,0-.26,2.86v19Z"/><path class="cls-2" d="M342.35,89.28v15.34q0,3.57,1.3,4.94c.86.91,2.4,1.36,4.61,1.36h2v.52H327.59v-.52a25.65,25.65,0,0,0,3.71-.22,5.41,5.41,0,0,0,2.4-.91,3.74,3.74,0,0,0,1.3-2,11.47,11.47,0,0,0,.39-3.29V89.28q-3.24-6-5.49-10.11t-3.74-6.86l-2.3-4.22c-.55-1-.95-1.75-1.21-2.24s-.42-.82-.48-.95a1.15,1.15,0,0,0-.17-.26,7.78,7.78,0,0,0-2.27-2.6A10.55,10.55,0,0,0,317,60.61a13.11,13.11,0,0,0-2.47-.58A14.68,14.68,0,0,0,313,59.9v-.39h20.21v.39h-1.1c-.48,0-1,.12-1.63.23a4.15,4.15,0,0,0-1.56.58,2.06,2.06,0,0,0-.87,1.17,2.61,2.61,0,0,0,.48,2l13.59,25,10-18.26a26.06,26.06,0,0,0,2-4.49,8.43,8.43,0,0,0,.46-3,3.18,3.18,0,0,0-.62-1.78,3.15,3.15,0,0,0-1.2-.91,4.35,4.35,0,0,0-1.37-.36c-.45,0-.81-.07-1.07-.07v-.45H367.7V60h-.26a13.29,13.29,0,0,0-2.34.36,16,16,0,0,0-3.84,1.46A22.19,22.19,0,0,0,356.78,65a20.24,20.24,0,0,0-4.23,5.59Z"/><path class="cls-3" d="M11.06,49.18Q13.7,42.85,16.77,37a32.42,32.42,0,0,1,8-9.89c.34-.14.67-.27,1-.41s.67-.27,1.07-.41a3.45,3.45,0,0,1,3.06.92,5.51,5.51,0,0,1,1.33,2.8,9.5,9.5,0,0,1,0,3.52,14,14,0,0,1-1,3.17A30.17,30.17,0,0,0,34,34.19c1.22-1,2.51-1.87,3.87-2.76q1.42-1,2.91-2c1-.68,2-1.36,3-2a7.77,7.77,0,0,0,1.12-.56,1,1,0,0,1,1.22.15,1,1,0,0,1-.3,1.33c-.48.34-.89.65-1.23.92q-4.28,3-8.26,6t-8.16,6A32.92,32.92,0,0,1,25.74,45a30.4,30.4,0,0,1-2.95,3.41c-.41.34-.91.8-1.48,1.38s-1.18,1.12-1.79,1.63a13.52,13.52,0,0,1-2,1.38,5.1,5.1,0,0,1-2.09.71c-1.49.21-2.31-.3-2.45-1.53a2.45,2.45,0,0,1,.56-2.14c.51-.54,1-1,1.48-1.43s1-1,1.48-1.42.9-.82,1.38-1.23a33,33,0,0,0,3.26-2.4,33.5,33.5,0,0,1,3.27-2.39c.47-.75,1-1.62,1.48-2.6a32.41,32.41,0,0,0,1.37-3c.14-.48.29-1,.46-1.63a12.19,12.19,0,0,0,.36-1.84A5.83,5.83,0,0,0,28,30.11a2.65,2.65,0,0,0-.77-1.43,5.56,5.56,0,0,0-3.57,1.68q-1.43,1.49-2.55,2.91a44.86,44.86,0,0,0-5.1,8.21,88.79,88.79,0,0,0-3.87,9.43c-.27.68-.53,1.35-.77,2a13.67,13.67,0,0,0-.56,2,21.9,21.9,0,0,0-.3,3.72c0,1.33,0,2.64-.11,3.93-.13,2.58-.27,5.17-.4,7.75s-.31,5.21-.51,7.86c-.07.61-.12,1.24-.16,1.88a13.4,13.4,0,0,1-.2,1.79,3.87,3.87,0,0,1-.61,1.48,2.68,2.68,0,0,1-1.28,1H7a1.72,1.72,0,0,1-1.59-1.69,28.61,28.61,0,0,1-.15-2.9,49.08,49.08,0,0,1,.15-5.87q.27-2.81.67-5.66c.14-.88.3-1.77.51-2.65s.37-1.77.51-2.65a45,45,0,0,0,.3-5.26c0-1.8.07-3.51.21-5.15q.41-6.52.76-12.85t.77-13V25a14,14,0,0,1,.1-1.78,3.76,3.76,0,0,1,.46-1.43,1.25,1.25,0,0,1,1.17-.61,1.21,1.21,0,0,1,1.18.76,5.91,5.91,0,0,1,.45,1.84,12,12,0,0,1,0,2.24c-.07.79-.1,1.45-.1,2-.27,3.54-.53,7.09-.76,10.66S11.19,45.71,11.06,49.18Z"/><path class="cls-3" d="M60.83,23.88a15.29,15.29,0,0,0-4.74,4.9q-1.79,3-3.83,5.92c-.54,1.08-1.09,2.17-1.63,3.26a30.41,30.41,0,0,0-1.43,3.37,17.57,17.57,0,0,0-1.53,3.31A3.68,3.68,0,0,1,45.22,47h-.91a2.61,2.61,0,0,1-.87-.56,4.32,4.32,0,0,1-.66-.87,32.85,32.85,0,0,1-.16-4.18c0-1.5.11-3,.21-4.54s.27-3,.51-4.49.49-2.8.76-4a14.34,14.34,0,0,1,.61-2.24,2,2,0,0,1,1.64-1.33,1.27,1.27,0,0,1,1.17.92,5.31,5.31,0,0,1,.2,1.89,18.49,18.49,0,0,1-.25,2.24,11.22,11.22,0,0,0-.21,1.89c-.13,1.36-.25,2.58-.35,3.67s-.22,2.11-.36,3.06c1.16-1.9,2.55-4,4.18-6.43a63,63,0,0,1,5-6.42,23.46,23.46,0,0,1,1.79-2,7,7,0,0,1,2.09-1.48,3,3,0,0,1,1.88,0,1.58,1.58,0,0,1,1.18,1.12c.13.82-.07,1.26-.62,1.33A1.12,1.12,0,0,1,60.83,23.88Z"/><path class="cls-3" d="M66.24,32.45a19.77,19.77,0,0,0-1.33,3.72,17.31,17.31,0,0,0-.61,4.49,7.59,7.59,0,0,0,.92,3.83,3.6,3.6,0,0,0,3.26,1.73,10,10,0,0,0,5-1.12c1.6-.82,3-1.6,4.13-2.35,1.36-1,2.63-1.88,3.83-2.8s2.25-1.82,3.21-2.7a56.91,56.91,0,0,0,5-4.39q2.39-2.34,4.74-4.79a2.63,2.63,0,0,0,.66-.82,9.57,9.57,0,0,1,.77-1.12,5.46,5.46,0,0,1,.86-.87.8.8,0,0,1,1-.05c.48.2.58.61.31,1.22a7.16,7.16,0,0,1-.71,1.33,3.73,3.73,0,0,1-.62,1.12c-.27.34-.54.72-.81,1.12a73.05,73.05,0,0,1-5.36,5.61q-2.81,2.66-5.76,5.31A42.22,42.22,0,0,1,76.23,47a21.89,21.89,0,0,1-2.55,1.17,14.91,14.91,0,0,1-3,.82,13.42,13.42,0,0,1-3.11.15,6.16,6.16,0,0,1-2.9-.92,4.75,4.75,0,0,1-1.08-1l-1-1.17a9.73,9.73,0,0,1-1.28-4.34,19.36,19.36,0,0,1,.31-4.84A29.38,29.38,0,0,1,63,32.25a31.06,31.06,0,0,1,1.63-3.78,43.38,43.38,0,0,1,4.08-6,11.94,11.94,0,0,1,6.23-3.88,4.9,4.9,0,0,1,3.41.92,3.48,3.48,0,0,1,1.07,3.26,6.53,6.53,0,0,1-1.22,3.06A20.3,20.3,0,0,1,76,28.37a22.55,22.55,0,0,1-4,3.21A8.38,8.38,0,0,1,66.24,32.45Zm9.48-10.91a10.59,10.59,0,0,0-5.4,3.72,36.73,36.73,0,0,0-3.47,5.66,6.35,6.35,0,0,0,3.77-1,27.18,27.18,0,0,0,2.65-2.14c.75-.82,1.53-1.63,2.35-2.45a4.36,4.36,0,0,0,1.12-3.47A1.1,1.1,0,0,0,75.72,21.54Z"/><path class="cls-3" d="M96.32,49.18Q99,42.85,102,37A32.42,32.42,0,0,1,110,27.15c.34-.14.67-.27,1-.41s.66-.27,1.07-.41a3.45,3.45,0,0,1,3.06.92,5.6,5.6,0,0,1,1.33,2.8,9.71,9.71,0,0,1,0,3.52,14,14,0,0,1-1,3.17,29.38,29.38,0,0,0,3.87-2.55c1.23-1,2.52-1.87,3.88-2.76q1.42-1,2.91-2c1-.68,2-1.36,3-2a7.77,7.77,0,0,0,1.12-.56,1,1,0,0,1,1.22.15,1,1,0,0,1-.3,1.33c-.48.34-.89.65-1.23.92q-4.27,3-8.26,6t-8.16,6A32.92,32.92,0,0,1,111,45a29.5,29.5,0,0,1-3,3.41c-.4.34-.9.8-1.48,1.38s-1.17,1.12-1.78,1.63a13.52,13.52,0,0,1-2,1.38,5.1,5.1,0,0,1-2.09.71c-1.5.21-2.31-.3-2.45-1.53a2.42,2.42,0,0,1,.56-2.14c.51-.54,1-1,1.48-1.43s1-1,1.48-1.42.9-.82,1.38-1.23a33,33,0,0,0,3.26-2.4,33.5,33.5,0,0,1,3.27-2.39c.47-.75,1-1.62,1.47-2.6a32.51,32.51,0,0,0,1.38-3c.14-.48.29-1,.46-1.63a12.19,12.19,0,0,0,.36-1.84,5.83,5.83,0,0,0,0-1.73,2.72,2.72,0,0,0-.77-1.43A5.51,5.51,0,0,0,109,30.36q-1.43,1.49-2.55,2.91a44.86,44.86,0,0,0-5.1,8.21,86.74,86.74,0,0,0-3.87,9.43c-.28.68-.53,1.35-.77,2a13.67,13.67,0,0,0-.56,2,21.87,21.87,0,0,0-.31,3.72c0,1.33,0,2.64-.1,3.93-.14,2.58-.27,5.17-.41,7.75s-.3,5.21-.51,7.86c-.06.61-.11,1.24-.15,1.88a13.4,13.4,0,0,1-.2,1.79,3.74,3.74,0,0,1-.62,1.48,2.61,2.61,0,0,1-1.27,1h-.31a1.72,1.72,0,0,1-1.58-1.69,28.61,28.61,0,0,1-.15-2.9,47.08,47.08,0,0,1,.15-5.87c.17-1.87.4-3.76.67-5.66.13-.88.3-1.77.51-2.65s.37-1.77.51-2.65a45,45,0,0,0,.3-5.26c0-1.8.07-3.51.21-5.15q.4-6.52.76-12.85t.77-13V25a14,14,0,0,1,.1-1.78A3.76,3.76,0,0,1,95,21.74a1.23,1.23,0,0,1,1.17-.61,1.21,1.21,0,0,1,1.17.76,5.64,5.64,0,0,1,.46,1.84,12,12,0,0,1,0,2.24c-.07.79-.1,1.45-.1,2-.27,3.54-.53,7.09-.76,10.66S96.46,45.71,96.32,49.18Z"/><path class="cls-3" d="M142.63,25.11c-1.29,1.7-2.55,3.53-3.77,5.51s-2.45,3.87-3.67,5.71q-1.33,1.94-2.76,4.18a20.87,20.87,0,0,1-3.26,4,7.6,7.6,0,0,1-1.43,1.27,2.23,2.23,0,0,1-1.94.26,2.78,2.78,0,0,1-1.43-2.25,31.92,31.92,0,0,1,1.89-8.87,41.43,41.43,0,0,1,3.62-7.55c.48-.75,1-1.49,1.58-2.24a5.58,5.58,0,0,1,1.89-1.63,2.92,2.92,0,0,1,3.42.15c1,.78,1.34,2,1.07,3.72A5.59,5.59,0,0,0,139,25.72c.44-.82.92-1.65,1.43-2.5a16.94,16.94,0,0,1,1.63-2.29,2.85,2.85,0,0,1,1.79-1.13,2.16,2.16,0,0,1,.71.11l.61.2a4.61,4.61,0,0,1,1,1.94c-.13,4.08-.41,7.94-.81,11.57s-.72,7.5-.92,11.58V47c0,.75,0,1.49-.1,2.24a10.59,10.59,0,0,1-.36,2q-.25.87-.87.87a1.15,1.15,0,0,1-1.07-.67,5,5,0,0,1-.51-1.63,12.94,12.94,0,0,1-.15-2,11.47,11.47,0,0,0-.1-1.63,56.41,56.41,0,0,1,.2-10.81Q142.13,30.1,142.63,25.11Zm-7.34.2a.09.09,0,0,0-.1-.1,3,3,0,0,0-.57.25,2.4,2.4,0,0,1-.56.26,21.71,21.71,0,0,0-2.55,3.62c-.74,1.33-1.42,2.7-2,4.13s-1.07,2.94-1.58,4.54a22.6,22.6,0,0,0-1,5.15,35.22,35.22,0,0,0,5.15-6.58c1.54-2.48,3.08-4.91,4.65-7.29a4,4,0,0,1-.51-2.19A1.75,1.75,0,0,0,135.29,25.31Z"/><path class="cls-3" d="M171.6,23.88a15.29,15.29,0,0,0-4.74,4.9q-1.79,3-3.83,5.92c-.54,1.08-1.09,2.17-1.63,3.26A30.41,30.41,0,0,0,160,41.33a17.57,17.57,0,0,0-1.53,3.31A3.68,3.68,0,0,1,156,47h-.91a2.61,2.61,0,0,1-.87-.56,4.32,4.32,0,0,1-.66-.87,32.85,32.85,0,0,1-.16-4.18c0-1.5.1-3,.21-4.54s.27-3,.51-4.49.49-2.8.76-4a14.34,14.34,0,0,1,.61-2.24,2,2,0,0,1,1.64-1.33,1.27,1.27,0,0,1,1.17.92,5.31,5.31,0,0,1,.2,1.89,18.49,18.49,0,0,1-.25,2.24,11.22,11.22,0,0,0-.21,1.89c-.13,1.36-.25,2.58-.35,3.67s-.22,2.11-.36,3.06c1.16-1.9,2.55-4,4.18-6.43a63,63,0,0,1,5-6.42,25.15,25.15,0,0,1,1.78-2,7.13,7.13,0,0,1,2.1-1.48,3,3,0,0,1,1.88,0,1.58,1.58,0,0,1,1.18,1.12c.13.82-.07,1.26-.62,1.33A1.12,1.12,0,0,1,171.6,23.88Z"/><path class="cls-3" d="M177.41,26.53a1.6,1.6,0,0,1,.36,1.13c0,.41-.05.85-.05,1.32-.07,1.16-.09,2.42-.05,3.78s.05,2.68.05,4,0,2.54-.05,3.77a4.47,4.47,0,0,1-1.07,3h-.82a3.29,3.29,0,0,1-.76-1.58,15.82,15.82,0,0,1-.36-2.3c-.07-1.49-.09-3.06,0-4.69a44.05,44.05,0,0,1,.35-4.79c.07-.41.14-.89.21-1.43a5.53,5.53,0,0,1,.36-1.43,1.66,1.66,0,0,1,.71-.87A1.17,1.17,0,0,1,177.41,26.53Zm.51-19.78a2.37,2.37,0,0,1-.81,1.63,1.11,1.11,0,0,1-1.18-.2,1.72,1.72,0,0,1-.4-1,1.2,1.2,0,0,1,.3-1A1.26,1.26,0,0,1,177,5.93C177.55,6.2,177.85,6.48,177.92,6.75Z"/><path class="cls-3" d="M187.51,42.24q2-3.87,4.08-7.9a37.51,37.51,0,0,1,4.79-7.29l1-1.23a7.61,7.61,0,0,1,1.33-1.22,4.46,4.46,0,0,1,1.58-.72,3.18,3.18,0,0,1,1.89.21,4.62,4.62,0,0,1,2.24,3.16c.48,1.63.88,3.26,1.23,4.9.13.74.28,1.53.45,2.34s.36,1.63.57,2.45a16.14,16.14,0,0,0,.81,2.29q.51,1.19,1.23,1.38a1.68,1.68,0,0,0,1.53-.36,11.49,11.49,0,0,1,1.22-.86c.41-.34.78-.63,1.12-.87a7.88,7.88,0,0,0,1-.87,42.29,42.29,0,0,0,4.29-4.28A50.28,50.28,0,0,1,222.19,29,17.17,17.17,0,0,1,224,27.81a2.56,2.56,0,0,1,1.22-.36q.56,0,.66.72t-.66,1A4.91,4.91,0,0,0,224,30a25.53,25.53,0,0,0-2.86,2.91q-1.42,1.68-3.06,3.42c-.54.54-1.07,1.05-1.58,1.53s-1,1-1.58,1.53c-.89.88-1.84,1.75-2.86,2.6a6,6,0,0,1-4,1.27l-.45-.2a1.52,1.52,0,0,0-.57-.1,6.29,6.29,0,0,1-2.49-3.16,31,31,0,0,1-1.28-4.34c-.34-1.53-.66-3.06-1-4.59a14.24,14.24,0,0,0-1.48-4.13A6,6,0,0,0,198.22,29a30.62,30.62,0,0,1-2,2.91,46.84,46.84,0,0,0-3.47,6.33c-1,2.24-2,4.55-3,6.93a6.32,6.32,0,0,0-.71,1.58,17.09,17.09,0,0,1-.71,1.89,5.21,5.21,0,0,1-1.08,1.58,1.88,1.88,0,0,1-1.78.46,1.7,1.7,0,0,1-1.38-1.07,6.58,6.58,0,0,1-.56-2.25,24.58,24.58,0,0,1-.05-2.75c0-1,.09-1.89.15-2.7.28-3.27.65-6.44,1.13-9.54a57.56,57.56,0,0,1,1.93-8.52q.41-1.11.72-2a1.42,1.42,0,0,1,1.32-1,1.18,1.18,0,0,1,1.28.56,3,3,0,0,1,.31,1.59,11.85,11.85,0,0,1-.31,2c-.17.72-.29,1.31-.36,1.79-.47,2.58-.88,5.17-1.22,7.75S187.78,39.66,187.51,42.24Z"/><path class="cls-3" d="M242,45.2q3-3.57,5.86-7.39a81.4,81.4,0,0,1,6.38-7.4c.74-.75,1.53-1.51,2.34-2.29a5,5,0,0,1,3-1.38,1.44,1.44,0,0,1,.77.71,1.23,1.23,0,0,1-.05,1.13,1,1,0,0,1-.67.2.93.93,0,0,1-.66-.2,85.74,85.74,0,0,0-9.33,10.3q-4.25,5.5-8.32,11.32Q239.64,61,237.08,71.36a127.28,127.28,0,0,1-6.42,19.44,26.54,26.54,0,0,1-1.28,2.75c-.51,1-1,1.9-1.58,2.86-.34.61-.7,1.22-1.07,1.83a9.93,9.93,0,0,1-1.23,1.63,5.22,5.22,0,0,1-1.63,1.18,5.37,5.37,0,0,1-2.29.46c0,.06-.07,0-.21-.11a1.83,1.83,0,0,1-.66-.3,3.28,3.28,0,0,0-.66-.41,1.7,1.7,0,0,0-.51-.61,10.14,10.14,0,0,1-.82-3.57,22.16,22.16,0,0,1,.15-3.83,33,33,0,0,1,.72-3.72c.3-1.22.59-2.35.87-3.37.68-2.24,1.42-4.4,2.24-6.47s1.63-4.07,2.45-6a158.74,158.74,0,0,1,12.44-21.73q.51-3.26,1-6.83t.66-7.24q.32-3.57.36-7.55a23.36,23.36,0,0,0-.87-7,2.25,2.25,0,0,0-1.22,1,16.51,16.51,0,0,1-1,1.38,17.35,17.35,0,0,1,1,2.75,6.28,6.28,0,0,0,.61,1.43,1.19,1.19,0,0,1,0,1.33c-.54.2-.93.11-1.17-.26a3.51,3.51,0,0,0-.77-.87q-.3-.51-.66-1a4.69,4.69,0,0,1-.56-1,33.5,33.5,0,0,0-2.75,4.08c-.82,1.43-1.7,2.83-2.66,4.19-.4.54-.9,1.27-1.48,2.19a15.82,15.82,0,0,1-2,2.55,6.91,6.91,0,0,1-2.4,1.68,3,3,0,0,1-2.81-.51,4.33,4.33,0,0,1-.91-2.5,12.78,12.78,0,0,1,.15-3,18.69,18.69,0,0,1,.76-3c.34-1,.68-1.85,1-2.6a28.52,28.52,0,0,1,1.84-3.62A15.35,15.35,0,0,1,226,24a10.24,10.24,0,0,1,1.53-1.23,7.12,7.12,0,0,1,2-.92,6.59,6.59,0,0,1,2.3-.2,5.19,5.19,0,0,1,2.19.71,5.12,5.12,0,0,0,1.18-1.12A8.65,8.65,0,0,1,236.42,20a4,4,0,0,1,1.53-.82,3.18,3.18,0,0,1,2,.15,4.37,4.37,0,0,1,.81.56,3.69,3.69,0,0,1,.62.67,6.32,6.32,0,0,1,1.07,2.29,16.82,16.82,0,0,1,.46,3c.06,1.06.1,2.16.1,3.32s0,2.27-.1,3.36q-.21,3.57-.41,6.83T242,45.2Zm-18.46,41c-.55,1.76-1,3.63-1.43,5.61a14.23,14.23,0,0,0,.1,6.12,9.47,9.47,0,0,0,3-3.73c.75-1.6,1.46-3.14,2.14-4.64a96.86,96.86,0,0,0,5.41-15.15q2.13-8,3.87-16.67c0-.07,0-.07-.1,0q-3.78,6.53-7.24,13.46A82.25,82.25,0,0,0,223.52,86.21Zm4.79-59.68a21.05,21.05,0,0,0-3.21,5,23.63,23.63,0,0,0-1.79,6.58A27.57,27.57,0,0,0,228,31.94q2-3.57,4.24-6.83a2.7,2.7,0,0,0-2.25.3C229.4,25.82,228.85,26.2,228.31,26.53Z"/><path class="cls-3" d="M298.07,4.1c-.34.2-.57.15-.71-.16a2.36,2.36,0,0,0-.41-.66,6.32,6.32,0,0,0-1.17-.87A2.45,2.45,0,0,0,294,2.16a2.94,2.94,0,0,0-1.93,1.78c-.55,1.06-1,2-1.33,2.71a54.31,54.31,0,0,0-2.91,8.77q-1.17,4.78-2,9.38c2.72-1,5.62-2.14,8.67-3.36a61.5,61.5,0,0,1,9.7-3,42.41,42.41,0,0,1,5-.77,11.88,11.88,0,0,1,5.05.56c.34.14.72.31,1.12.51a1,1,0,0,1,.51,1.13,1.66,1.66,0,0,1-1.83.3A7.78,7.78,0,0,0,312,19.7a12,12,0,0,0-4,.26c-1.29.3-2.55.63-3.77,1s-2.4.69-3.52,1.07-2.16.76-3.11,1.17a67.67,67.67,0,0,0-6.43,2.5c-2,.92-4.05,1.88-6,2.91-.34,2.1-.65,4.28-.92,6.52s-.54,4.56-.81,6.94c-.07.75-.16,1.51-.26,2.29a10.46,10.46,0,0,0-.05,2.3,7.75,7.75,0,0,0,.41,1.68c.2.58.37,1.14.51,1.69a65.06,65.06,0,0,1,1.63,19.27c0,.75,0,1.52-.1,2.3a10.42,10.42,0,0,1-.41,2.14,3.74,3.74,0,0,1-.92,1.58,2.19,2.19,0,0,1-1.63.61,2,2,0,0,1-1.48-.56,3.76,3.76,0,0,1-.86-1.37,8.89,8.89,0,0,1-.46-1.74c-.11-.61-.19-1.19-.26-1.73a61.56,61.56,0,0,1-.87-9.74q0-5.05.26-10.25c.07-.68.15-1.36.25-2a7.07,7.07,0,0,0,.05-1.94,4.17,4.17,0,0,0-.56-1.63c-.3-.55-.59-1.09-.86-1.64a15.57,15.57,0,0,0-1.79-3l-2.09-2.65c-.34-.4-.7-.86-1.07-1.37a2.81,2.81,0,0,1-.56-1.69,3.08,3.08,0,0,1,.41-1.53,6.32,6.32,0,0,1,1-1.32A7.83,7.83,0,0,1,275,30.67q.72-.47,1.23-.87c.95-.61,1.85-1.14,2.7-1.58l2.8-1.48q.93-5,2.4-10.25a83.32,83.32,0,0,1,3.32-9.64,28.23,28.23,0,0,1,2.19-4A7,7,0,0,1,293,.12c0,.07.06,0,.2-.1a3.71,3.71,0,0,1,2.35.45c.54.38,1.08.77,1.63,1.18A7.17,7.17,0,0,0,298,2.77,1,1,0,0,1,298.07,4.1ZM275.94,34.49A25.64,25.64,0,0,1,278,36.84a21.17,21.17,0,0,1,1.79,2.65c.2-1.43.39-2.87.56-4.34s.39-2.87.66-4.23l-.1-.1c-.88.61-1.77,1.19-2.65,1.73A10.8,10.8,0,0,0,275.94,34.49Z"/><path class="cls-3" d="M312.25,24.09a7.93,7.93,0,0,1,5.46,2.14,9.86,9.86,0,0,1,2.5,5.2q3.27-.62,6.78-1.38c2.35-.51,4.64-1,6.89-1.58a6.54,6.54,0,0,0,1-.35,7.84,7.84,0,0,1,1.27-.41,3.55,3.55,0,0,1,1.18-.1.81.81,0,0,1,.71.46.62.62,0,0,1-.2.81,4.87,4.87,0,0,1-1,.56,7.65,7.65,0,0,1-1.33.41,8.86,8.86,0,0,0-1,.26c-2.18.68-4.47,1.27-6.89,1.78s-4.81,1-7.19,1.48a21.32,21.32,0,0,1-.86,7.39A26,26,0,0,1,316.74,47a31.54,31.54,0,0,1-3.93,4.89A11.17,11.17,0,0,1,307.46,55h-1.53a4,4,0,0,1-1.73-.76,13.81,13.81,0,0,1-1.33-1.18,8.92,8.92,0,0,1-1.58-4.43,26.52,26.52,0,0,1,0-5.41,48,48,0,0,1,.92-5.51c.41-1.8.78-3.41,1.12-4.84a4,4,0,0,1-.05-3.67,8,8,0,0,1,2-2.66,17.4,17.4,0,0,0,.76-2.14,18.14,18.14,0,0,1,.87-2.34,7,7,0,0,1,1.27-1.94,2.65,2.65,0,0,1,2-.82,2,2,0,0,1,2,1.48A5.52,5.52,0,0,1,312.25,24.09ZM307.36,34.7q-.51,3-1.28,6.37a25.5,25.5,0,0,0-.56,7,9.3,9.3,0,0,0,.36,1.73,2.48,2.48,0,0,0,1,1.33,7.89,7.89,0,0,0,4.69-2.45c1.16-1.29,2.24-2.62,3.26-4a38,38,0,0,0,2.45-4.95,12.34,12.34,0,0,0,.82-6,46.71,46.71,0,0,1-5.2.76A44.15,44.15,0,0,1,307.36,34.7Zm4.49-8.47a3.05,3.05,0,0,0-.21,1.17.68.68,0,0,1-.61.77,1.72,1.72,0,0,1-.46-.05l-.36-.16a1.85,1.85,0,0,1-.1-1.43,4.44,4.44,0,0,0-.76,1.33,15.31,15.31,0,0,0-.46,1.53,13.26,13.26,0,0,0-.51,1.63L308,32.66c1.9,0,3.67-.07,5.3-.21s3.23-.34,4.8-.61a8.11,8.11,0,0,0-1.89-4A6,6,0,0,0,311.85,26.23Z"/><path class="cls-3" d="M352.54,23.88a15.29,15.29,0,0,0-4.74,4.9q-1.79,3-3.83,5.92L342.34,38a30.41,30.41,0,0,0-1.43,3.37,17.57,17.57,0,0,0-1.53,3.31,3.66,3.66,0,0,1-2.44,2.4H336a2.61,2.61,0,0,1-.87-.56,4.32,4.32,0,0,1-.66-.87,32.85,32.85,0,0,1-.16-4.18c0-1.5.11-3,.21-4.54s.27-3,.51-4.49.49-2.8.76-4a14.39,14.39,0,0,1,.62-2.24,2,2,0,0,1,1.63-1.33,1.27,1.27,0,0,1,1.17.92,5.31,5.31,0,0,1,.2,1.89,16.68,16.68,0,0,1-.25,2.24,11,11,0,0,0-.2,1.89c-.14,1.36-.26,2.58-.36,3.67s-.22,2.11-.36,3.06c1.16-1.9,2.55-4,4.18-6.43a64.49,64.49,0,0,1,5-6.42,25.31,25.31,0,0,1,1.79-2,7,7,0,0,1,2.09-1.48,3,3,0,0,1,1.88,0,1.58,1.58,0,0,1,1.18,1.12c.13.82-.07,1.26-.61,1.33A1.13,1.13,0,0,1,352.54,23.88Z"/></g></g></svg>