<svg xmlns="http://www.w3.org/2000/svg" viewBox="0 0 808.35 101.1"><defs><style>.cls-1{fill:#616365;}</style></defs><g id="Layer_2" data-name="Layer 2"><g id="Layer_1-2" data-name="Layer 1"><path class="cls-1" d="M29.21,3.51a11.79,11.79,0,0,0-4.09-2.2A20.74,20.74,0,0,0,19.25.55H0v.8H1.83a4.93,4.93,0,0,1,3.31,1.1c.61.63.91,1.84.91,3.6V35.5A8.5,8.5,0,0,1,5.76,38a2.71,2.71,0,0,1-.91,1.38A3.72,3.72,0,0,1,3.09,40a20.5,20.5,0,0,1-2.84.17H0v.85H17.9V40.6l.35-.4H16.16a8.21,8.21,0,0,1-2.06-.31,3,3,0,0,1-1.29-.76,3,3,0,0,1-.69-1.34,9.24,9.24,0,0,1-.22-2.24V21.2h7.35a18.81,18.81,0,0,0,5.88-.81,11.05,11.05,0,0,0,4.08-2.2,9.28,9.28,0,0,0,3.14-7.34,10.44,10.44,0,0,0-.8-4.12A8.58,8.58,0,0,0,29.21,3.51ZM11.9,6a5.5,5.5,0,0,1,.81-3.49,4.58,4.58,0,0,1,2.94-1.16h3.2a6.6,6.6,0,0,1,5.7,2.75,11.5,11.5,0,0,1,1.8,6.75A15.27,15.27,0,0,1,26,14.12a10.71,10.71,0,0,1-1,2.66,6.69,6.69,0,0,1-1,1.43,7.78,7.78,0,0,1-1.08,1,7.07,7.07,0,0,1-4.11,1.21h-7Z"/><path class="cls-1" d="M47.2,21.2a5.63,5.63,0,0,1,1.1.1,3.84,3.84,0,0,1,1.06.37,5.82,5.82,0,0,1,1.15.84,11.89,11.89,0,0,1,1.34,1.54l12.27,17H74.5v-.6l0-.25H74.2l-.83-.05a7.72,7.72,0,0,1-1.57-.31,9.68,9.68,0,0,1-1.86-.79,4.81,4.81,0,0,1-1.59-1.4L59,24.6a11.64,11.64,0,0,0-2.74-2.81A13,13,0,0,0,55,21.1c.49,0,1-.09,1.46-.15a10.65,10.65,0,0,0,2.37-.56,12.31,12.31,0,0,0,4.08-2.2,9.28,9.28,0,0,0,3.14-7.34,10.44,10.44,0,0,0-.8-4.12A8.69,8.69,0,0,0,62.91,3.5a13.4,13.4,0,0,0-4.09-2.19A21,21,0,0,0,53,.55H33.65v.8h1.83a4.93,4.93,0,0,1,3.31,1.1c.61.63.91,1.84.91,3.6V35.5A8.5,8.5,0,0,1,39.41,38a2.82,2.82,0,0,1-.89,1.39,3.65,3.65,0,0,1-1.73.67,20.77,20.77,0,0,1-2.89.17h-.25v.85h18V40.2H49.81a7.82,7.82,0,0,1-2-.31,2.72,2.72,0,0,1-2-2.1,9.24,9.24,0,0,1-.22-2.24V21.2ZM60,10.85a15.27,15.27,0,0,1-.34,3.27,11.6,11.6,0,0,1-.93,2.65,8.6,8.6,0,0,1-1,1.44,7.78,7.78,0,0,1-1.08,1,7,7,0,0,1-4.06,1.21H45.6V6a10.78,10.78,0,0,1,.19-2.15,3.27,3.27,0,0,1,.62-1.34,3,3,0,0,1,1.13-.78,6.38,6.38,0,0,1,1.76-.38h3.25A6.55,6.55,0,0,1,58.2,4.1,11.5,11.5,0,0,1,60,10.85Z"/><path class="cls-1" d="M87.44,39.27a15.79,15.79,0,0,0,7,1.63h2.9a15.84,15.84,0,0,0,6.91-1.62,17.09,17.09,0,0,0,5.68-4.37,21.71,21.71,0,0,0,3.84-6.52,22.72,22.72,0,0,0,1.37-7.94,23,23,0,0,0-1.37-7.94A21.71,21.71,0,0,0,109.89,6a17,17,0,0,0-5.68-4.37A15.87,15.87,0,0,0,97.3,0H94.4a16,16,0,0,0-7,1.62A17.14,17.14,0,0,0,81.86,6a19.55,19.55,0,0,0-3.79,6.53,21.84,21.84,0,0,0-1.42,7.94,22,22,0,0,0,1.41,7.93,19.55,19.55,0,0,0,3.8,6.53A17,17,0,0,0,87.44,39.27ZM100.81,2.15a13.23,13.23,0,0,1,3,2.27c.26.29.54.62.82,1s.55.75.81,1.14a21.46,21.46,0,0,1,2.77,6.32,30.06,30.06,0,0,1,.94,7.59,30.06,30.06,0,0,1-.94,7.59,21.46,21.46,0,0,1-2.77,6.32c-.26.4-.54.78-.81,1.14s-.55.68-.8,1a13.52,13.52,0,0,1-3,2.28c-1,.51-1.75.89-2.26,1.1l-1,.21a4.41,4.41,0,0,1-.94.09H95.1a4.58,4.58,0,0,1-1-.1l-.91-.18a24.87,24.87,0,0,1-2.35-1.12,12.47,12.47,0,0,1-3-2.28,10.23,10.23,0,0,1-.86-1,11.29,11.29,0,0,1-.76-1.14A20.66,20.66,0,0,1,83.52,28a30.47,30.47,0,0,1-.92-7.59,30.47,30.47,0,0,1,.92-7.59,20.36,20.36,0,0,1,2.75-6.33A9.22,9.22,0,0,1,87,5.4a11.85,11.85,0,0,1,.86-1,12.47,12.47,0,0,1,3-2.28A25.52,25.52,0,0,1,93.16,1,8.11,8.11,0,0,1,95.1.8h1.5a5.69,5.69,0,0,1,1,.07L98.5,1C99.06,1.26,99.84,1.64,100.81,2.15Z"/><path class="cls-1" d="M151.92,33.74a10.94,10.94,0,0,0,1.13-4.89V7.2a4.89,4.89,0,0,1,.87-3A6.43,6.43,0,0,1,156,2.37a8.24,8.24,0,0,1,2.5-.82c.85-.13,1.55-.22,2.06-.25h1V.45H143.65V1.3h1c.49,0,1.17.12,2,.25a8.81,8.81,0,0,1,2.48.78A6.17,6.17,0,0,1,151.26,4,4.71,4.71,0,0,1,152.2,7v21.9a9.82,9.82,0,0,1-1.12,4.64,10.27,10.27,0,0,1-2.93,3.56,15,15,0,0,1-5.41,2.66,11.66,11.66,0,0,1-5.73.12,9.38,9.38,0,0,1-4.21-2.31,10.47,10.47,0,0,1-2.61-4.15A16.22,16.22,0,0,1,129.3,28V4.29a3.27,3.27,0,0,1,1-2.19,4.77,4.77,0,0,1,2.55-.8h2.3V1.2h.4l-.4-.4V.4H117.25v.9h1.84a5.61,5.61,0,0,1,3.11.82,3.42,3.42,0,0,1,1,2.53V28.3a12.08,12.08,0,0,0,1.15,5.41,12.27,12.27,0,0,0,3.29,4,15.08,15.08,0,0,0,4.63,2.49,17.55,17.55,0,0,0,5.53.86h.3a18.83,18.83,0,0,0,5.73-.86,15.24,15.24,0,0,0,4.78-2.5A11.9,11.9,0,0,0,151.92,33.74Z"/><path class="cls-1" d="M169.22,2.45c.62.63.93,1.84.93,3.6V35.5a8.5,8.5,0,0,1-.29,2.47,2.71,2.71,0,0,1-.91,1.38,3.72,3.72,0,0,1-1.74.68,19.83,19.83,0,0,1-2.81.17h-.25v.85h21.7a19.73,19.73,0,0,0,7.75-1.57,17.48,17.48,0,0,0,6-4.41,19.31,19.31,0,0,0,3.88-6.46,22.64,22.64,0,0,0,1.34-7.81A22.94,22.94,0,0,0,203.51,13a19.3,19.3,0,0,0-3.88-6.48,17.86,17.86,0,0,0-6-4.36A18.83,18.83,0,0,0,185.85.55H164.1v.8h1.78A5.11,5.11,0,0,1,169.22,2.45ZM194.84,7a21,21,0,0,1,2.92,6.23,27,27,0,0,1,1,7.58,26.56,26.56,0,0,1-1,7.53,21.68,21.68,0,0,1-2.92,6.23,15.12,15.12,0,0,1-2,2.36,13.84,13.84,0,0,1-2.33,1.76,11.54,11.54,0,0,1-5.67,1.52h-4.54a8,8,0,0,1-2.08-.31,2.88,2.88,0,0,1-1.25-.76,3.07,3.07,0,0,1-.66-1.34,9.24,9.24,0,0,1-.22-2.24,4,4,0,0,0,0-.5c0-.14,0-.28,0-.4V6a10.08,10.08,0,0,1,.19-2.15,3.27,3.27,0,0,1,.62-1.34,3,3,0,0,1,1.13-.78,6.38,6.38,0,0,1,1.76-.38h5.54a11.53,11.53,0,0,1,5.23,1.51,13.91,13.91,0,0,1,2.33,1.77A15.12,15.12,0,0,1,194.84,7Z"/><path class="cls-1" d="M212.72,2.45c.62.63.93,1.84.93,3.6V35.5a8.5,8.5,0,0,1-.29,2.47,2.67,2.67,0,0,1-.92,1.38,3.64,3.64,0,0,1-1.73.68,19.83,19.83,0,0,1-2.81.17h-.25v.85h33l1.51-12.4h-.83l0,.2A17.69,17.69,0,0,1,239,34.57a16.31,16.31,0,0,1-1.62,2.09,11,11,0,0,1-2.18,1.78,11.69,11.69,0,0,1-2.86,1.27,12.36,12.36,0,0,1-3.63.49h-5a8,8,0,0,1-2.08-.31,3.12,3.12,0,0,1-1.28-.76,3.09,3.09,0,0,1-.68-1.34,9.24,9.24,0,0,1-.22-2.24V6a10.08,10.08,0,0,1,.19-2.15,3.15,3.15,0,0,1,.62-1.34,3,3,0,0,1,1.13-.78,6.3,6.3,0,0,1,1.76-.38h2.05l.25-.05V.55H207.6v.8h1.78A5.11,5.11,0,0,1,212.72,2.45Z"/><path class="cls-1" d="M266.8,1.35h.25c.19,0,.46,0,.8,0a3.63,3.63,0,0,1,1,.25,2.3,2.3,0,0,1,.83.64,2.21,2.21,0,0,1,.42,1.23,6.26,6.26,0,0,1-.35,2.21,19.12,19.12,0,0,1-1.5,3.4l-7.48,13.65L250.52,4a1.84,1.84,0,0,1-.36-1.32,1.36,1.36,0,0,1,.58-.77,3.11,3.11,0,0,1,1.1-.41c.46-.08.88-.14,1.21-.17h1.1V.5H238.1v.8h.25a10.73,10.73,0,0,1,1.17.1,8.9,8.9,0,0,1,1.85.44,7.62,7.62,0,0,1,2,1.06,5.83,5.83,0,0,1,1.68,1.92l0,0a1,1,0,0,1,.08.14l.38.73.92,1.73,1.78,3.25c.77,1.4,1.72,3.16,2.87,5.27l4.2,7.72V35.4a8.64,8.64,0,0,1-.29,2.45,2.56,2.56,0,0,1-.91,1.37,3.78,3.78,0,0,1-1.74.66,19.83,19.83,0,0,1-2.81.17h-.25V41h18v-.9h-1.8a4.63,4.63,0,0,1-3.37-1c-.62-.65-.93-1.87-.93-3.63V23.71L269,9.37a15.09,15.09,0,0,1,3.2-4.23,17,17,0,0,1,3.39-2.42,12.2,12.2,0,0,1,2.89-1.1,10.34,10.34,0,0,1,1.75-.27h.45V.5H266.8Z"/><path class="cls-1" d="M340.05,9.25v26.2a8.83,8.83,0,0,1-.29,2.5,2.56,2.56,0,0,1-.91,1.37,3.9,3.9,0,0,1-1.74.68h0a16.92,16.92,0,0,1-2.81.2h-.25V41H352v-.8h-1.8a4.53,4.53,0,0,1-3.23-1c-.68-.67-1-1.91-1-3.7V6a5.89,5.89,0,0,1,.82-3.59,3.58,3.58,0,0,1,2.93-1h2.25V.5h-11L327.6,26,314.32.63,314.25.5H303.4v.85h1.85a6,6,0,0,1,2.51.42A2.7,2.7,0,0,1,309,2.9a3.79,3.79,0,0,1,.45,1.71c0,.7.05,1.46.05,2.24v27.4a5,5,0,0,1-.87,3.1,6.64,6.64,0,0,1-2.1,1.8A7.36,7.36,0,0,1,304,40a15.06,15.06,0,0,1-2.09.2h-1V41H318.9v-.8h-1a14.88,14.88,0,0,1-2-.2,7.59,7.59,0,0,1-2.52-.85,6.62,6.62,0,0,1-2.12-1.8,5,5,0,0,1-.87-3.1V5.66L324.45,32.5h.7L340.09,3.89c0,.34,0,.75,0,1.23C340.06,6.27,340.05,7.65,340.05,9.25Z"/><path class="cls-1" d="M367.8,40.1h-.25l-.64,0a9.65,9.65,0,0,1-1.39-.2,9,9,0,0,1-1.65-.53,4,4,0,0,1-1.38-1,3.08,3.08,0,0,1-.72-1.58,4.6,4.6,0,0,1,.41-2.39l3.74-9.29h13.61l3.64,9.14a14.09,14.09,0,0,1,1,3.45,1.76,1.76,0,0,1-.46,1.57,3.31,3.31,0,0,1-1.79.62c-.85.08-1.88.15-3.07.22h-.23V41h16.9v-.82l-.21,0-1.78-.27a3.26,3.26,0,0,1-1.41-.65,6.67,6.67,0,0,1-1.44-1.69A22,22,0,0,1,389,34.16L375.63.66,375.57.5h-.74L361.32,34.26a9.64,9.64,0,0,1-2.09,3.36,10.36,10.36,0,0,1-2.32,1.73A5.73,5.73,0,0,1,355,40l-.85.1H354V41H367.8Zm-1.53-15.85,6.48-16.13,6.43,16.13Z"/><path class="cls-1" d="M445.35.55h-18V1.4h1a12.78,12.78,0,0,1,2.08.22,8.92,8.92,0,0,1,2.51.83A6.17,6.17,0,0,1,435,4.2a4.89,4.89,0,0,1,.88,3.05V31.34L411.19.64l-.07-.09H400.05V1.4h1.8a10,10,0,0,1,2.6.26,2.08,2.08,0,0,1,1.19.78,2.66,2.66,0,0,1,.41,1.35c0,.59.05,1.28.05,2.06V34.3a5,5,0,0,1-.88,3.1,6.17,6.17,0,0,1-2.08,1.75,8.92,8.92,0,0,1-2.51.83,12.89,12.89,0,0,1-2.08.22h-1v.85h18V40.2h-1a12.88,12.88,0,0,1-2.09-.22,9.3,9.3,0,0,1-2.5-.83,6.1,6.1,0,0,1-2.09-1.75,5,5,0,0,1-.87-3.1V4.71L436,41l.08.09h.77V7.25a4.89,4.89,0,0,1,.87-3,6.2,6.2,0,0,1,2.09-1.75,8.92,8.92,0,0,1,2.51-.83,12.67,12.67,0,0,1,2.08-.22h1Z"/><path class="cls-1" d="M483.55,7.2a4.89,4.89,0,0,1,.87-3,6.33,6.33,0,0,1,2.12-1.78,8.24,8.24,0,0,1,2.5-.82c.85-.13,1.55-.22,2.06-.25h1V.45h-18V1.3h1c.49,0,1.17.12,2,.25a8.81,8.81,0,0,1,2.48.78A6.17,6.17,0,0,1,481.76,4,4.71,4.71,0,0,1,482.7,7v21.9a9.71,9.71,0,0,1-1.13,4.64,10.05,10.05,0,0,1-2.93,3.56,14.84,14.84,0,0,1-5.4,2.66,11.66,11.66,0,0,1-5.73.12,9.38,9.38,0,0,1-4.21-2.31,10.6,10.6,0,0,1-2.62-4.15A16.47,16.47,0,0,1,459.8,28V4.29a3.32,3.32,0,0,1,1.06-2.19,4.74,4.74,0,0,1,2.55-.8h2.3V1.2h.4l-.4-.4V.4H447.75v.9h1.84a5.54,5.54,0,0,1,3.1.82,3.42,3.42,0,0,1,1.06,2.53V28.3a12.08,12.08,0,0,0,1.15,5.41,12.27,12.27,0,0,0,3.29,4,15.29,15.29,0,0,0,4.63,2.49,17.5,17.5,0,0,0,5.53.86h.3a18.71,18.71,0,0,0,5.72-.86,15,15,0,0,0,4.78-2.5,11.81,11.81,0,0,0,3.27-4,10.94,10.94,0,0,0,1.13-4.89Z"/><path class="cls-1" d="M498,1.64a2.76,2.76,0,0,1,1.29.73A3,3,0,0,1,500,3.71,9.77,9.77,0,0,1,500.2,6V35.4a8.67,8.67,0,0,1-.29,2.48,2.68,2.68,0,0,1-.92,1.37,3.64,3.64,0,0,1-1.73.68h0a19.93,19.93,0,0,1-2.81.17h-.25V41h17.9V40.1h-1.79a8.21,8.21,0,0,1-2.06-.31A3.07,3.07,0,0,1,507,39a3,3,0,0,1-.68-1.36,9.34,9.34,0,0,1-.22-2.22V21.1h6.65a5.41,5.41,0,0,1,5.2,2.82,7.12,7.12,0,0,1,.78,2.17,12.65,12.65,0,0,1,.17,1.41v.4h.8V13.45h-.8v.4a11.23,11.23,0,0,1-.17,1.41,7.51,7.51,0,0,1-.75,2.12,5.8,5.8,0,0,1-1.76,2,5.57,5.57,0,0,1-3.22.9h-6.9V1.3h9.15a10.75,10.75,0,0,1,4.88,1A8.39,8.39,0,0,1,523,4.62a10.18,10.18,0,0,1,1.58,3.18c.35,1.16.66,2.31.92,3.35v.35h.85V.4h-32.2v.9h1.78A10.49,10.49,0,0,1,498,1.64Z"/><path class="cls-1" d="M535.2,40.1l-.64,0a9.65,9.65,0,0,1-1.39-.2,9,9,0,0,1-1.65-.53,4,4,0,0,1-1.39-1,3.16,3.16,0,0,1-.71-1.58,4.6,4.6,0,0,1,.41-2.39l3.74-9.29h13.61l3.63,9.14a13.88,13.88,0,0,1,1,3.45,1.76,1.76,0,0,1-.46,1.57,3.31,3.31,0,0,1-1.79.62c-.85.08-1.88.15-3.07.22h-.23V41h16.9v-.82l-.22,0-1.77-.27a3.26,3.26,0,0,1-1.41-.65,6.48,6.48,0,0,1-1.44-1.69,22,22,0,0,1-1.63-3.33L543.28.66,543.22.5h-.74L529,34.26a9.36,9.36,0,0,1-2.09,3.36,10.11,10.11,0,0,1-2.31,1.73,5.73,5.73,0,0,1-1.87.65l-.85.1h-.24V41h13.85V40.1Zm-1.28-15.85L540.4,8.12l6.43,16.13Z"/><path class="cls-1" d="M585.69,40.18a14.32,14.32,0,0,0,4.38-2.85,16.66,16.66,0,0,0,3.3-4.82,23.36,23.36,0,0,0,2-6.77l0-.25-.84-.12,0,.24c-.2,1.22-.45,2.39-.74,3.47a18.23,18.23,0,0,1-1.14,3.06,21.37,21.37,0,0,1-1.41,2.5,10.31,10.31,0,0,1-1.74,2,12.27,12.27,0,0,1-4.07,2.75,11.48,11.48,0,0,1-1.93.59,18,18,0,0,1-2,.29,9.89,9.89,0,0,1-1.2-.07,5.09,5.09,0,0,1-1.12-.27,13.32,13.32,0,0,1-2-.9,13.64,13.64,0,0,1-2.4-1.74,19.09,19.09,0,0,1-4.31-7,26.71,26.71,0,0,1-1.66-9.61,28.35,28.35,0,0,1,1-7.66,22.78,22.78,0,0,1,2.75-6.25,14,14,0,0,1,4-4.18,8.74,8.74,0,0,1,4.85-1.51,12.27,12.27,0,0,1,8,3.63,15.74,15.74,0,0,1,1.75,2.09,17.32,17.32,0,0,1,1.45,2.48,23.14,23.14,0,0,1,1.11,3.07,25.48,25.48,0,0,1,.72,3.46l0,.22h.82v-15h-.81l0,.2a2.27,2.27,0,0,1-1,1.59,3.84,3.84,0,0,1-2.11.46,10,10,0,0,1-4-1.22l-.69-.36-.64-.28L586,1.32h-.11l-.12-.07h0a12.84,12.84,0,0,0-5-.95,16.41,16.41,0,0,0-10,3.5,21.79,21.79,0,0,0-2.61,2.48,20.9,20.9,0,0,0-3.85,6.48,22.78,22.78,0,0,0-1.06,3.9,23,23,0,0,0-.35,3.84V21h0a23,23,0,0,0,.35,3.84,22.78,22.78,0,0,0,1.06,3.9,20.55,20.55,0,0,0,3.85,6.47,17.65,17.65,0,0,0,5.62,4.36,15.43,15.43,0,0,0,7,1.63A12.44,12.44,0,0,0,585.69,40.18Z"/><path class="cls-1" d="M601,11.15V11.1c.23-1,.52-2.1.85-3.2a10.64,10.64,0,0,1,1.46-3.06,8.34,8.34,0,0,1,2.58-2.38,9.55,9.55,0,0,1,4.22-1.16h.28a9.91,9.91,0,0,1,2,.34,2.79,2.79,0,0,1,1.27.73,3,3,0,0,1,.69,1.34A9.77,9.77,0,0,1,614.55,6V35.4a8.67,8.67,0,0,1-.29,2.48,2.92,2.92,0,0,1-.9,1.38,3.57,3.57,0,0,1-1.73.67,20.34,20.34,0,0,1-2.83.17h-.25V41h17.9V40.1h-1.79a8,8,0,0,1-2-.31,3.08,3.08,0,0,1-1.27-.76,3,3,0,0,1-.69-1.36,10,10,0,0,1-.21-2.22V5.9a5.5,5.5,0,0,1,.81-3.46,4.25,4.25,0,0,1,2.89-1.14h.43a9.74,9.74,0,0,1,4.26,1.16,8,8,0,0,1,2.57,2.38,11.16,11.16,0,0,1,1.45,3.06c.32,1.09.62,2.16.89,3.18v.32h.85V.4H600.1v11H601Z"/><path class="cls-1" d="M664.05,1.3h1c.49,0,1.17.12,2,.25a8.81,8.81,0,0,1,2.48.78A6.23,6.23,0,0,1,671.65,4a4.72,4.72,0,0,1,1,2.94v21.9a9.71,9.71,0,0,1-1.13,4.64,10.16,10.16,0,0,1-2.93,3.56,15,15,0,0,1-5.4,2.66,11.66,11.66,0,0,1-5.73.12,9.47,9.47,0,0,1-4.22-2.31,10.58,10.58,0,0,1-2.61-4.15,16.22,16.22,0,0,1-.89-5.42V4.29a3.27,3.27,0,0,1,1.06-2.19,4.74,4.74,0,0,1,2.55-.8h2.3V1.2H656L655.6.8V.4h-18v.9h1.83a5.58,5.58,0,0,1,3.11.82,3.42,3.42,0,0,1,1.06,2.53V28.3a12,12,0,0,0,1.15,5.41,12.27,12.27,0,0,0,3.29,4,15.18,15.18,0,0,0,4.63,2.49,17.46,17.46,0,0,0,5.53.86h.3a18.76,18.76,0,0,0,5.72-.86,15,15,0,0,0,4.78-2.5,12.05,12.05,0,0,0,3.27-4,10.93,10.93,0,0,0,1.12-4.89V7.2a4.89,4.89,0,0,1,.88-3,6.4,6.4,0,0,1,2.11-1.78,8.42,8.42,0,0,1,2.5-.82c.86-.13,1.56-.22,2.07-.25h1V.45h-18Z"/><path class="cls-1" d="M704,40.2h-1.79a7.9,7.9,0,0,1-2-.31,3.08,3.08,0,0,1-1.27-.76,3,3,0,0,1-.69-1.34,9.84,9.84,0,0,1-.21-2.24V21.2h1.6a5.63,5.63,0,0,1,1.1.1,4,4,0,0,1,1.06.37,5.51,5.51,0,0,1,1.14.84,10.53,10.53,0,0,1,1.34,1.54L716.44,41l.08.1H726.9v-.6l0-.25h-.25l-.84-.05a8,8,0,0,1-1.57-.31,9.6,9.6,0,0,1-1.85-.79,4.71,4.71,0,0,1-1.59-1.4l-9.4-13a11.83,11.83,0,0,0-2.74-2.81,11.93,11.93,0,0,0-1.22-.69c.5,0,1-.09,1.46-.15a10.87,10.87,0,0,0,2.38-.56,12.31,12.31,0,0,0,4.08-2.2,9.28,9.28,0,0,0,3.14-7.34,10.44,10.44,0,0,0-.8-4.12A8.83,8.83,0,0,0,715.3,3.5a13.46,13.46,0,0,0-4.08-2.19,21.1,21.1,0,0,0-5.87-.76h-19.3v.8h1.83a5,5,0,0,1,3.31,1.1c.6.63.91,1.84.91,3.6V35.5a8.5,8.5,0,0,1-.29,2.47,2.91,2.91,0,0,1-.9,1.39,3.57,3.57,0,0,1-1.73.67,20.61,20.61,0,0,1-2.88.17h-.25v.85h18Zm8.4-29.35a14.64,14.64,0,0,1-.35,3.27,12.1,12.1,0,0,1-.92,2.65,8.6,8.6,0,0,1-1,1.44,7.29,7.29,0,0,1-1.09,1,6.94,6.94,0,0,1-4,1.21h-7V6a10.08,10.08,0,0,1,.19-2.15,3,3,0,0,1,.62-1.34,3,3,0,0,1,1.13-.78,6.22,6.22,0,0,1,1.76-.38H705a6.54,6.54,0,0,1,5.64,2.75A11.43,11.43,0,0,1,712.4,10.85Z"/><path class="cls-1" d="M763.55,28.85a17,17,0,0,1-2.22,5.72,15.28,15.28,0,0,1-1.62,2.09,10.64,10.64,0,0,1-2.17,1.78,11.6,11.6,0,0,1-2.87,1.27,12.34,12.34,0,0,1-3.62.49h-5.54a7.9,7.9,0,0,1-2-.31,3.08,3.08,0,0,1-1.27-.76,3,3,0,0,1-.69-1.34,9.84,9.84,0,0,1-.21-2.24,5.47,5.47,0,0,0,0-.9V21.2h6.65a5.88,5.88,0,0,1,3.38.85,6.23,6.23,0,0,1,1.85,2,6.58,6.58,0,0,1,.77,2.18,14.11,14.11,0,0,1,.15,1.42v.4h.85V13.6h-.85V14a12.47,12.47,0,0,1-.15,1.36,6.4,6.4,0,0,1-2.53,4.12,5.5,5.5,0,0,1-3.22.92h-6.9v-19h9.15a10.75,10.75,0,0,1,4.88.95,8.26,8.26,0,0,1,2.91,2.37,10,10,0,0,1,1.59,3.2c.34,1.17.65,2.33.92,3.43v.25h.85V.55h-32.2v.8h1.83a5,5,0,0,1,3.31,1.1c.6.63.91,1.84.91,3.6a1.94,1.94,0,0,0,0,.34,1.15,1.15,0,0,1,0,.26V35.5a8.5,8.5,0,0,1-.29,2.47,2.73,2.73,0,0,1-.92,1.38,3.67,3.67,0,0,1-1.76.68,20.34,20.34,0,0,1-2.83.17h-.25v.85h33.52l1.51-12.4h-.84Z"/><path class="cls-1" d="M807,13a19.63,19.63,0,0,0-3.88-6.48,18.06,18.06,0,0,0-6-4.36A18.86,18.86,0,0,0,789.35.55H767.6v.8h1.78a5.14,5.14,0,0,1,3.34,1.1c.61.63.93,1.84.93,3.6V35.5a8.5,8.5,0,0,1-.29,2.47,2.73,2.73,0,0,1-.92,1.38,3.64,3.64,0,0,1-1.73.68,19.93,19.93,0,0,1-2.81.17h-.25v.85h21.7a19.81,19.81,0,0,0,7.75-1.57,17.66,17.66,0,0,0,6-4.41A19.48,19.48,0,0,0,807,28.61a22.64,22.64,0,0,0,1.34-7.81A22.9,22.9,0,0,0,807,13ZM781.67,39.89a2.84,2.84,0,0,1-1.24-.76,3.07,3.07,0,0,1-.67-1.34,9.84,9.84,0,0,1-.21-2.24,4,4,0,0,0,0-.5,2.82,2.82,0,0,1,0-.4V6a10.08,10.08,0,0,1,.19-2.15,3,3,0,0,1,.62-1.34,3,3,0,0,1,1.13-.78,6.22,6.22,0,0,1,1.76-.38h5.53A11.57,11.57,0,0,1,794,2.86a14.33,14.33,0,0,1,2.33,1.77,15.67,15.67,0,0,1,2,2.36,21,21,0,0,1,2.92,6.23,27,27,0,0,1,1,7.58,26.56,26.56,0,0,1-1,7.53,21.68,21.68,0,0,1-2.92,6.23,15.67,15.67,0,0,1-2,2.36A14.26,14.26,0,0,1,794,38.68a11.6,11.6,0,0,1-5.67,1.52h-4.54A8,8,0,0,1,781.67,39.89Z"/><path class="cls-1" d="M72.28,99.89a3.07,3.07,0,0,1-1.3-.76,3,3,0,0,1-.69-1.34,9.84,9.84,0,0,1-.21-2.24V66a5.5,5.5,0,0,1,.81-3.49,4.55,4.55,0,0,1,2.94-1.16h2l.25-.05v-.75H58.18v.8H60a5,5,0,0,1,3.31,1.1c.6.63.91,1.84.91,3.6V95.5A8.5,8.5,0,0,1,63.94,98,2.73,2.73,0,0,1,63,99.35a3.67,3.67,0,0,1-1.76.68h0a20.34,20.34,0,0,1-2.83.17h-.25v.85H76.13v-.85H74.34A8.14,8.14,0,0,1,72.28,99.89Z"/><path class="cls-1" d="M108.48,61.4h1a12.89,12.89,0,0,1,2.08.22,8.86,8.86,0,0,1,2.5.83,6.1,6.1,0,0,1,2.09,1.75,4.89,4.89,0,0,1,.88,3V91.34L92.32,60.64l-.08-.09H81.18v.85H83a10,10,0,0,1,2.6.26,2.15,2.15,0,0,1,1.19.78,2.76,2.76,0,0,1,.41,1.35c0,.58,0,1.28,0,2.06V94.3a5,5,0,0,1-.88,3.1,6.1,6.1,0,0,1-2.09,1.75,8.86,8.86,0,0,1-2.5.83,12.89,12.89,0,0,1-2.08.22h-1v.85h18v-.85h-1a12.88,12.88,0,0,1-2.09-.22,8.86,8.86,0,0,1-2.5-.83A6.1,6.1,0,0,1,89,97.4a5,5,0,0,1-.88-3.1V64.71l29,36.25.08.09h.77V67.25a4.89,4.89,0,0,1,.87-3,6.1,6.1,0,0,1,2.09-1.75,8.86,8.86,0,0,1,2.5-.83,12.88,12.88,0,0,1,2.09-.22h1v-.85h-18Z"/><path class="cls-1" d="M147.92,71.4h.85v-.3c.23-1,.51-2.1.84-3.2a10.94,10.94,0,0,1,1.47-3.06,8.42,8.42,0,0,1,2.57-2.38,9.64,9.64,0,0,1,4.23-1.16h.27a9.9,9.9,0,0,1,2,.34,2.79,2.79,0,0,1,1.27.73,3,3,0,0,1,.69,1.34,9.77,9.77,0,0,1,.22,2.24V95.4a8.62,8.62,0,0,1-.29,2.48,2.92,2.92,0,0,1-.9,1.38,3.57,3.57,0,0,1-1.73.67,20.39,20.39,0,0,1-2.84.17h-.24V101h17.89v-.85h-1.79a8,8,0,0,1-2-.31,3.08,3.08,0,0,1-1.27-.76,3,3,0,0,1-.69-1.36,9.89,9.89,0,0,1-.22-2.22V65.9a5.49,5.49,0,0,1,.82-3.46A4.22,4.22,0,0,1,172,61.3h.44a9.78,9.78,0,0,1,4.26,1.16,8,8,0,0,1,2.57,2.38,11.16,11.16,0,0,1,1.45,3.06c.32,1.09.62,2.16.88,3.18v.32h.85v-11h-34.5Z"/><path class="cls-1" d="M223.79,62.46a4.52,4.52,0,0,1,2.93-1.16h2l.25,0h.41l-.41-.4v-.4h-17.9v.85h1.84a5,5,0,0,1,3.31,1.1c.6.63.9,1.84.9,3.6V80.3h-19.7V66a10,10,0,0,1,.2-2.15,2.7,2.7,0,0,1,1.75-2.12,6.23,6.23,0,0,1,1.75-.38h2l.25,0h.41l-.41-.4v-.4H185.47v.85h1.83a10.48,10.48,0,0,1,2.08.34,2.66,2.66,0,0,1,1.28.75,3.12,3.12,0,0,1,.7,1.37,9.84,9.84,0,0,1,.21,2.24V95.45a8.55,8.55,0,0,1-.28,2.47,2.79,2.79,0,0,1-.92,1.38,3.67,3.67,0,0,1-1.76.68,20.39,20.39,0,0,1-2.84.17h-.25V101h17.95v-.85h-1.79a8.29,8.29,0,0,1-2.06-.31,3,3,0,0,1-1.29-.76,2.92,2.92,0,0,1-.69-1.36,10.18,10.18,0,0,1-.22-2.27V81.15h19.7v14.3a8.55,8.55,0,0,1-.28,2.47,2.79,2.79,0,0,1-.92,1.38,3.67,3.67,0,0,1-1.76.68,20.39,20.39,0,0,1-2.84.17h-.25V101h18v-.85h-1.79a8.29,8.29,0,0,1-2.06-.31,3,3,0,0,1-1.29-.76,2.92,2.92,0,0,1-.69-1.36,10.18,10.18,0,0,1-.22-2.27V66A5.49,5.49,0,0,1,223.79,62.46Z"/><path class="cls-1" d="M265.63,88.85a17,17,0,0,1-2.22,5.72,14.7,14.7,0,0,1-1.62,2.09,11.21,11.21,0,0,1-2.17,1.78,11.77,11.77,0,0,1-2.87,1.27h0a12.36,12.36,0,0,1-3.63.49h-5.54a7.89,7.89,0,0,1-2-.31,3.08,3.08,0,0,1-1.27-.76,3,3,0,0,1-.69-1.34,9.77,9.77,0,0,1-.22-2.24,4.44,4.44,0,0,0-.05-.9V81.2H250a5.86,5.86,0,0,1,3.38.85,6.15,6.15,0,0,1,1.86,2,6.58,6.58,0,0,1,.77,2.18c.09.72.14,1.2.14,1.42v.4H257V73.6h-.85V74c0,.22-.05.68-.14,1.36a6.4,6.4,0,0,1-2.53,4.12,5.51,5.51,0,0,1-3.23.92h-6.9V61.35h9.15a10.77,10.77,0,0,1,4.89.95,8.26,8.26,0,0,1,2.91,2.37,10,10,0,0,1,1.59,3.2c.34,1.18.65,2.34.91,3.43v.25h.85v-11h-32.2v.8h1.84a5,5,0,0,1,3.31,1.1c.6.63.9,1.84.9,3.6a2,2,0,0,0,0,.34,1.14,1.14,0,0,1,0,.26V95.5a8.55,8.55,0,0,1-.28,2.47,2.79,2.79,0,0,1-.92,1.38,3.67,3.67,0,0,1-1.76.68,20.39,20.39,0,0,1-2.84.17h-.25v.85H265l1.51-12.4h-.84Z"/><path class="cls-1" d="M313.87,61.3h1c.48,0,1.17.12,2,.25a8.91,8.91,0,0,1,2.48.78A6.23,6.23,0,0,1,321.48,64a4.71,4.71,0,0,1,.94,2.94v21.9a9.7,9.7,0,0,1-1.12,4.64,10.16,10.16,0,0,1-2.93,3.56A15,15,0,0,1,313,99.71a11.62,11.62,0,0,1-5.72.12A9.47,9.47,0,0,1,303,97.52a10.47,10.47,0,0,1-2.61-4.15,16.22,16.22,0,0,1-.89-5.42V64.29a3.27,3.27,0,0,1,1.06-2.19,4.74,4.74,0,0,1,2.54-.8h2.3v-.1h.4l-.4-.4v-.4H287.47v.9h1.84a5.58,5.58,0,0,1,3.11.82,3.38,3.38,0,0,1,1.05,2.53V88.3a12.08,12.08,0,0,0,1.15,5.41,12.43,12.43,0,0,0,3.3,4,15,15,0,0,0,4.62,2.49,17.55,17.55,0,0,0,5.53.86h.3a18.78,18.78,0,0,0,5.73-.86,15.13,15.13,0,0,0,4.78-2.5,12.05,12.05,0,0,0,3.27-4,10.93,10.93,0,0,0,1.12-4.89V67.2a4.89,4.89,0,0,1,.88-3,6.4,6.4,0,0,1,2.11-1.78,8.42,8.42,0,0,1,2.5-.82c.86-.13,1.56-.22,2.06-.25h1v-.85H313.87Z"/><path class="cls-1" d="M363.87,61.4h1a12.88,12.88,0,0,1,2.09.22,9,9,0,0,1,2.5.83,6.1,6.1,0,0,1,2.09,1.75,4.89,4.89,0,0,1,.87,3V91.34l-24.7-30.7-.08-.09H336.57v.85h1.8a10.11,10.11,0,0,1,2.61.26,2.15,2.15,0,0,1,1.19.78,2.66,2.66,0,0,1,.4,1.35c0,.58.05,1.28.05,2.06V94.3a5,5,0,0,1-.87,3.1,6.1,6.1,0,0,1-2.09,1.75,9,9,0,0,1-2.5.83,12.88,12.88,0,0,1-2.09.22h-1v.85h18v-.85h-1A12.89,12.89,0,0,1,349,100a8.86,8.86,0,0,1-2.5-.83,6.1,6.1,0,0,1-2.09-1.75,5,5,0,0,1-.88-3.1V64.71l29,36.25.07.09h.77V67.25a4.89,4.89,0,0,1,.88-3,6.1,6.1,0,0,1,2.09-1.75,8.86,8.86,0,0,1,2.5-.83,12.89,12.89,0,0,1,2.08-.22h1v-.85h-18Z"/><path class="cls-1" d="M399,99.89a3,3,0,0,1-1.29-.76,3,3,0,0,1-.69-1.34,9.77,9.77,0,0,1-.22-2.24V66a5.49,5.49,0,0,1,.82-3.49,4.52,4.52,0,0,1,2.93-1.16h2l.25-.05v-.75h-17.9v.8h1.84a5,5,0,0,1,3.31,1.1c.6.63.9,1.84.9,3.6V95.5a8.55,8.55,0,0,1-.28,2.47,2.79,2.79,0,0,1-.92,1.38A3.67,3.67,0,0,1,388,100h0a20.39,20.39,0,0,1-2.84.17h-.25v.85h17.95v-.85H401A8.29,8.29,0,0,1,399,99.89Z"/><path class="cls-1" d="M406.27,71.4h.85v-.3c.23-1,.51-2.1.84-3.2a10.94,10.94,0,0,1,1.47-3.06A8.42,8.42,0,0,1,412,62.46a9.59,9.59,0,0,1,4.22-1.16h.28a9.9,9.9,0,0,1,2.05.34,2.84,2.84,0,0,1,1.27.73,3,3,0,0,1,.69,1.34,9.84,9.84,0,0,1,.21,2.24V95.4a8.72,8.72,0,0,1-.28,2.48,2.92,2.92,0,0,1-.9,1.38,3.57,3.57,0,0,1-1.73.67,20.39,20.39,0,0,1-2.84.17h-.25V101h17.9v-.85h-1.79a7.89,7.89,0,0,1-2-.31,3.08,3.08,0,0,1-1.27-.76,3,3,0,0,1-.69-1.36,9.89,9.89,0,0,1-.22-2.22V65.9a5.49,5.49,0,0,1,.82-3.46,4.2,4.2,0,0,1,2.88-1.14h.43A9.79,9.79,0,0,1,435,62.46a8,8,0,0,1,2.57,2.38A11.14,11.14,0,0,1,439,67.9c.33,1.09.63,2.16.89,3.18v.32h.85v-11h-34.5Z"/><path class="cls-1" d="M479.33,88.85a17,17,0,0,1-2.22,5.72,15.28,15.28,0,0,1-1.62,2.09,11,11,0,0,1-2.18,1.78,11.52,11.52,0,0,1-2.86,1.27,12.36,12.36,0,0,1-3.63.49h-5.54a7.89,7.89,0,0,1-2-.31,3.08,3.08,0,0,1-1.27-.76,3,3,0,0,1-.69-1.34,9.77,9.77,0,0,1-.22-2.24,5.47,5.47,0,0,0-.05-.9V81.2h6.65a5.86,5.86,0,0,1,3.38.85,6,6,0,0,1,1.85,2,6.16,6.16,0,0,1,.77,2.18,11.33,11.33,0,0,1,.15,1.42v.4h.85V73.6h-.85V74a11.1,11.1,0,0,1-.14,1.36,6.4,6.4,0,0,1-2.53,4.12,5.51,5.51,0,0,1-3.23.92H457V61.35h9.15a10.8,10.8,0,0,1,4.89.95A8.44,8.44,0,0,1,474,64.67a10,10,0,0,1,1.59,3.2c.34,1.17.65,2.33.91,3.43v.25h.85v-11h-32.2v.8H447a5,5,0,0,1,3.31,1.1c.6.63.9,1.84.9,3.6a2,2,0,0,0,0,.34,1.14,1.14,0,0,1,0,.26V95.5a8.17,8.17,0,0,1-.29,2.47,2.71,2.71,0,0,1-.91,1.38,3.67,3.67,0,0,1-1.76.68,20.39,20.39,0,0,1-2.84.17h-.25v.85h33.52l1.51-12.4h-.83Z"/><path class="cls-1" d="M518.91,66.48a18,18,0,0,0-6-4.36,18.83,18.83,0,0,0-7.75-1.57H483.37v.8h1.79a5.1,5.1,0,0,1,3.33,1.1c.62.63.93,1.84.93,3.6V95.5a8.5,8.5,0,0,1-.29,2.47,2.71,2.71,0,0,1-.91,1.38,3.68,3.68,0,0,1-1.74.68,19.83,19.83,0,0,1-2.81.17h-.25v.85h21.7a19.73,19.73,0,0,0,7.75-1.57,17.61,17.61,0,0,0,6-4.41,19.45,19.45,0,0,0,3.87-6.46,22.64,22.64,0,0,0,1.34-7.81A22.9,22.9,0,0,0,522.78,73,19.44,19.44,0,0,0,518.91,66.48ZM517,88.33a21.93,21.93,0,0,1-2.91,6.23,15.67,15.67,0,0,1-2,2.36,14.7,14.7,0,0,1-2.33,1.76,11.6,11.6,0,0,1-5.68,1.52h-4.54a8,8,0,0,1-2.08-.31,2.84,2.84,0,0,1-1.24-.76,3,3,0,0,1-.67-1.34,9.77,9.77,0,0,1-.22-2.24c0-.18,0-.34,0-.5a2.91,2.91,0,0,1,0-.4V66a10,10,0,0,1,.2-2.15,3,3,0,0,1,.62-1.34,2.89,2.89,0,0,1,1.12-.78,6.38,6.38,0,0,1,1.76-.38h5.54a11.5,11.5,0,0,1,5.23,1.51,14.4,14.4,0,0,1,2.34,1.77,15.67,15.67,0,0,1,2,2.36A21.19,21.19,0,0,1,517,73.22a27,27,0,0,1,1,7.58A26.56,26.56,0,0,1,517,88.33Z"/><path class="cls-1" d="M569.81,82.92a14.74,14.74,0,0,0-4.42-3.49l-5.74-3a22.26,22.26,0,0,1-6.19-4.76,8.66,8.66,0,0,1-2.16-4.45,4.88,4.88,0,0,1,1-3.62,7,7,0,0,1,3.46-2.31,10.21,10.21,0,0,1,1.63-.37,11.27,11.27,0,0,1,5.51.54,10,10,0,0,1,3.21,1.92A11.88,11.88,0,0,1,567.47,65a13,13,0,0,1,1.23,2,11.62,11.62,0,0,1,.86,2.18,7.84,7.84,0,0,1,.31,2.13v.25h.9V60.15H570l-.07.12a3,3,0,0,1-1.29,1.25,3.39,3.39,0,0,1-1.58.28,6.31,6.31,0,0,1-1.74-.34l-1.69-.59a12.32,12.32,0,0,0-4.59-.87,14.38,14.38,0,0,0-2.09.15,9,9,0,0,0-2,.57,13.62,13.62,0,0,0-3.9,2.19,10.92,10.92,0,0,0-2.73,3.17,9.53,9.53,0,0,0-1.24,3.85,9,9,0,0,0,.59,4.13,12.25,12.25,0,0,0,2.68,4,18.64,18.64,0,0,0,5.07,3.57l6.3,3.25a9.81,9.81,0,0,1,4,3.53,7.6,7.6,0,0,1,1.14,4.12,7.21,7.21,0,0,1-1.29,3.84,7.92,7.92,0,0,1-3.28,2.76,13.61,13.61,0,0,1-4.16.83h-.44a12,12,0,0,1-4.17-.81A11.72,11.72,0,0,1,550,97.06a6.7,6.7,0,0,1-1.4-1.78,14.77,14.77,0,0,1-1.08-2.39,16.76,16.76,0,0,1-.69-2.51,11.48,11.48,0,0,1-.25-2.28l-.05-.25h-.85V101h.6l.25,0v-.21c0-.1.13-.3.28-.61a1.9,1.9,0,0,1,.82-.79,4,4,0,0,1,1.81-.36,8.56,8.56,0,0,1,3.18.74c.14.07.31.14.52.22a11.93,11.93,0,0,0,4.44.86h.5c.24,0,.47,0,.7,0s.46,0,.73-.07v0a19.53,19.53,0,0,0,6.23-1.83A14.07,14.07,0,0,0,570,95.64a9.54,9.54,0,0,0,2.12-4.08,9.06,9.06,0,0,0-.05-4.42A10.67,10.67,0,0,0,569.81,82.92Z"/><path class="cls-1" d="M609.67,71.08v.32h.85v-11H576v11h.85v-.3c.24-1,.52-2.1.85-3.2a10.67,10.67,0,0,1,1.47-3.06,8.42,8.42,0,0,1,2.57-2.38A9.59,9.59,0,0,1,586,61.3h.28a9.9,9.9,0,0,1,2,.34,2.75,2.75,0,0,1,1.26.73,3,3,0,0,1,.69,1.34,9.24,9.24,0,0,1,.22,2.24V95.4a8.67,8.67,0,0,1-.29,2.48,2.84,2.84,0,0,1-.89,1.38,3.61,3.61,0,0,1-1.73.67,20.5,20.5,0,0,1-2.84.17h-.25V101h17.9v-.85h-1.79a7.89,7.89,0,0,1-2-.31,3,3,0,0,1-1.27-.76,3,3,0,0,1-.69-1.36,9.34,9.34,0,0,1-.22-2.22V65.9a5.49,5.49,0,0,1,.82-3.46,4.2,4.2,0,0,1,2.88-1.14h.43a9.83,9.83,0,0,1,4.27,1.16,8.09,8.09,0,0,1,2.57,2.38,11.14,11.14,0,0,1,1.44,3.06C609.11,69,609.41,70.06,609.67,71.08Z"/><path class="cls-1" d="M647.44,99.83a3.3,3.3,0,0,1-1.42-.65,6.67,6.67,0,0,1-1.44-1.69A22,22,0,0,1,643,94.16l-13.4-33.5-.06-.16h-.74L615.24,94.26a9.5,9.5,0,0,1-2.09,3.36,9.93,9.93,0,0,1-2.32,1.73A5.76,5.76,0,0,1,609,100l-.85.1h-.25V101h13.85v-.85h-.25l-.64,0a9.35,9.35,0,0,1-1.38-.2,9.07,9.07,0,0,1-1.66-.53,4,4,0,0,1-1.38-1,3.08,3.08,0,0,1-.72-1.58,4.6,4.6,0,0,1,.41-2.39l3.74-9.29h13.61l3.64,9.14a13.34,13.34,0,0,1,1,3.45,1.76,1.76,0,0,1-.46,1.57,3.25,3.25,0,0,1-1.79.62c-.84.08-1.88.15-3.06.22h-.24V101h16.9v-.82l-.21,0ZM620.19,84.25l6.48-16.13,6.43,16.13Z"/><path class="cls-1" d="M646.07,71.4h.85v-.3c.24-1,.52-2.1.85-3.2a10.67,10.67,0,0,1,1.47-3.06,8.31,8.31,0,0,1,2.57-2.38A9.59,9.59,0,0,1,656,61.3h.28a9.9,9.9,0,0,1,2.05.34,2.75,2.75,0,0,1,1.26.73,3,3,0,0,1,.69,1.34,9.24,9.24,0,0,1,.22,2.24V95.4a8.67,8.67,0,0,1-.29,2.48,2.84,2.84,0,0,1-.89,1.38,3.61,3.61,0,0,1-1.73.67,20.5,20.5,0,0,1-2.84.17h-.25V101h17.9v-.85h-1.79a7.89,7.89,0,0,1-2-.31,3,3,0,0,1-1.27-.76,3,3,0,0,1-.69-1.36,9.34,9.34,0,0,1-.22-2.22V65.9a5.42,5.42,0,0,1,.82-3.46,4.2,4.2,0,0,1,2.88-1.14h.43a9.83,9.83,0,0,1,4.27,1.16,8.09,8.09,0,0,1,2.57,2.38,11.14,11.14,0,0,1,1.44,3.06c.33,1.09.63,2.16.89,3.18v.32h.85v-11h-34.5Z"/><path class="cls-1" d="M719.18,88.85A17.2,17.2,0,0,1,717,94.57a16.11,16.11,0,0,1-1.62,2.09,11,11,0,0,1-2.18,1.78,11.52,11.52,0,0,1-2.86,1.27,12.36,12.36,0,0,1-3.63.49h-5.54a7.82,7.82,0,0,1-2-.31,2.72,2.72,0,0,1-2-2.1,9.24,9.24,0,0,1-.22-2.24,5.47,5.47,0,0,0,0-.9V81.2h6.65a5.86,5.86,0,0,1,3.38.85,6,6,0,0,1,1.85,2,6.16,6.16,0,0,1,.77,2.18,11.33,11.33,0,0,1,.15,1.42v.4h.85V73.6h-.85V74a10.1,10.1,0,0,1-.15,1.36,6.26,6.26,0,0,1-.74,2.12,6.42,6.42,0,0,1-1.79,2,5.47,5.47,0,0,1-3.22.92h-6.9V61.35H706a10.8,10.8,0,0,1,4.89.95,8.44,8.44,0,0,1,2.91,2.37,10,10,0,0,1,1.58,3.2c.35,1.17.66,2.33.92,3.43v.25h.85v-11H685v.8h1.84a4.92,4.92,0,0,1,3.3,1.1c.61.63.91,1.84.91,3.6a2,2,0,0,0,0,.34,2.28,2.28,0,0,1,0,.26V95.5a8.5,8.5,0,0,1-.29,2.47,2.71,2.71,0,0,1-.91,1.38,3.72,3.72,0,0,1-1.76.68,20.5,20.5,0,0,1-2.84.17H685v.85h33.52l1.51-12.4h-.83Z"/><path class="cls-1" d="M748.06,82.92a14.66,14.66,0,0,0-4.43-3.49l-5.74-3a22.35,22.35,0,0,1-6.18-4.76,8.77,8.77,0,0,1-2.17-4.45,4.93,4.93,0,0,1,1-3.62A7,7,0,0,1,734,61.34a10.6,10.6,0,0,1,1.64-.37,11.22,11.22,0,0,1,5.5.54,9.92,9.92,0,0,1,3.22,1.92A12.66,12.66,0,0,1,745.72,65a13,13,0,0,1,1.23,2,12.31,12.31,0,0,1,.85,2.18,7.87,7.87,0,0,1,.32,2.13v.25h.9V60.15h-.74l-.08.12a2.88,2.88,0,0,1-1.28,1.25,3.46,3.46,0,0,1-1.59.28,6.31,6.31,0,0,1-1.73-.34l-1.69-.59a12.36,12.36,0,0,0-4.59-.87,14.38,14.38,0,0,0-2.09.15,9.24,9.24,0,0,0-2.05.57,13.7,13.7,0,0,0-3.89,2.19,11.12,11.12,0,0,0-2.74,3.17,9.67,9.67,0,0,0-1.23,3.85,8.9,8.9,0,0,0,.59,4.13,12.25,12.25,0,0,0,2.68,4,18.64,18.64,0,0,0,5.07,3.57L740,84.92a9.74,9.74,0,0,1,4,3.53,7.52,7.52,0,0,1,1.14,4.12,7.11,7.11,0,0,1-1.28,3.84,7.92,7.92,0,0,1-3.28,2.76,13.68,13.68,0,0,1-4.16.83h-.44a12,12,0,0,1-4.17-.81,11.76,11.76,0,0,1-3.53-2.13,6.48,6.48,0,0,1-1.39-1.78,14,14,0,0,1-1.08-2.39,18.1,18.1,0,0,1-.7-2.51,12.21,12.21,0,0,1-.24-2.28l-.05-.25h-.85V101h.6l.25,0v-.21c0-.1.13-.3.28-.61a1.85,1.85,0,0,1,.82-.79,4,4,0,0,1,1.8-.36,8.57,8.57,0,0,1,3.19.74c.14.07.31.14.52.22a11.89,11.89,0,0,0,4.44.86h.5q.36,0,.69,0c.22,0,.47,0,.74-.07v0A19.53,19.53,0,0,0,744,98.85a13.89,13.89,0,0,0,4.25-3.21,9.45,9.45,0,0,0,2.13-4.08,9.18,9.18,0,0,0-.05-4.42A10.67,10.67,0,0,0,748.06,82.92Z"/></g></g></svg>