<svg xmlns="http://www.w3.org/2000/svg" xmlns:xlink="http://www.w3.org/1999/xlink" viewBox="0 0 388.89 152.23"><defs><style>.cls-1{fill:none;}.cls-2{clip-path:url(#clip-path);}.cls-3{fill:#f1827e;}.cls-4{fill:#f2827d;}.cls-5{fill:#fff;stroke:#f2827d;stroke-miterlimit:1.88;stroke-width:0.94px;}</style><clipPath id="clip-path"><rect class="cls-1" x="176.36" y="62.34" width="212.53" height="47.04"/></clipPath></defs><g id="Layer_2" data-name="Layer 2"><g id="Layer_1-2" data-name="Layer 1"><g class="cls-2"><path d="M228,103.78a16.92,16.92,0,0,1-12.86,5.63c-9.35,0-16.4-6.44-16.4-16.29,0-8.72,5.95-16.33,15.27-16.33,8.64,0,14.8,7.29,14.8,16a14.1,14.1,0,0,1-.21,2.41H206.93a8.24,8.24,0,0,0,8.46,7.44,11.09,11.09,0,0,0,7.9-3.65ZM220.21,89a6.27,6.27,0,0,0-6.2-5.49A6.81,6.81,0,0,0,207.28,89Zm51.36-26h8.15v45.62h-8.15Zm24.91,46.26a21.6,21.6,0,0,1-12.4-4.07L288,99.42a13.39,13.39,0,0,0,8.58,3c2.4,0,4.14-1.17,4.14-2.8,0-2-2.59-2.9-5.56-3.93-4.29-1.49-9.6-3.29-9.6-9.18a8.53,8.53,0,0,1,3.65-7,13.73,13.73,0,0,1,8.25-2.62,19.43,19.43,0,0,1,10.42,3l-3.79,5.84a10.86,10.86,0,0,0-6-2.09c-2.62,0-4.39,1.06-4.39,2.66s2.19,2.37,5,3.29c4.54,1.49,10.2,3.37,10.2,10a8.37,8.37,0,0,1-3.72,7,14.89,14.89,0,0,1-8.67,2.59m32.41,0c-9.6,0-16.3-6.62-16.3-16.15,0-9.25,6.48-16.23,15.13-16.23,8.22,0,14.66,7,14.66,15.91a11.65,11.65,0,0,1-.18,2.27H320.46v.14a8.31,8.31,0,0,0,8.6,7.54,11.36,11.36,0,0,0,7.9-3.54l4.61,4.6a17,17,0,0,1-12.68,5.46m-1.17-25.86a7,7,0,0,0-6.87,5.6v.14h13.21V89a6.34,6.34,0,0,0-6.34-5.6M347.52,63h8.15v45.62h-8.15Zm14.84,45.62V76.15c0-4.78,1-7.9,3.33-10.13a13.72,13.72,0,0,1,9.67-3.65,18.71,18.71,0,0,1,4.82.53l-1.24,6.91a10.8,10.8,0,0,0-2.41-.28,6,6,0,0,0-4.82,1.84c-.74.95-1.2,2.12-1.2,5.06v1.1h9.7v6.84h-9.67V108.6Zm-186-31.06h8.15v31.06h-8.15ZM192.26,88a5.53,5.53,0,1,1,5.53-5.53A5.53,5.53,0,0,1,192.26,88m55.93,21.32A15.71,15.71,0,0,1,236.47,104a16.64,16.64,0,0,1-4-10.91c0-9.07,6.7-16.23,15.23-16.23a14.1,14.1,0,0,1,9.07,3.16l.21.17V77.53h7.83V108.6h-7.79v-2.69l-.21.17a12.82,12.82,0,0,1-8.65,3.19m.57-7.47H249v0a8.31,8.31,0,0,0,7.83-8.61c0-4.88-3.43-8.6-8-8.71h-.32c-4.57.11-8,3.83-8,8.71a8.27,8.27,0,0,0,7.83,8.61Z"/><path class="cls-3" d="M383.37,109.27a5.53,5.53,0,1,1,5.52-5.53,5.54,5.54,0,0,1-5.52,5.53"/></g><path d="M180.71,57.39l-3.64-14.3h1.86L181,52.47c.22,1,.42,2,.58,2.92.35-1.53.56-2.41.62-2.64l2.61-9.66H187l2,7.24a40.38,40.38,0,0,1,1.07,5.06c.17-.9.4-1.94.68-3.11l2.16-9.19h1.82L191,57.39h-1.75l-2.9-10.9c-.24-.91-.39-1.47-.43-1.67-.14.65-.28,1.21-.4,1.67l-2.91,10.9Z"/><path d="M195.87,50.43a8,8,0,0,1,1.83-5.58,6.13,6.13,0,0,1,4.74-2,6.38,6.38,0,0,1,3.43.94,6.11,6.11,0,0,1,2.33,2.64,8.94,8.94,0,0,1,.8,3.84,8.59,8.59,0,0,1-.85,3.89,5.85,5.85,0,0,1-2.38,2.6,6.63,6.63,0,0,1-3.34.89A6.26,6.26,0,0,1,196.65,54,8.44,8.44,0,0,1,195.87,50.43Zm1.87,0a5.87,5.87,0,0,0,1.33,4.07,4.52,4.52,0,0,0,6.73,0,6.24,6.24,0,0,0,1.32-4.26,7.58,7.58,0,0,0-.56-3,4.49,4.49,0,0,0-1.66-2,4.35,4.35,0,0,0-2.45-.72,4.52,4.52,0,0,0-3.32,1.39C198.2,46.77,197.74,48.3,197.74,50.46Z"/><path d="M211.37,57.39V43.09h6.09a8,8,0,0,1,2.79.38,3.14,3.14,0,0,1,1.52,1.37,4.17,4.17,0,0,1,.57,2.15,3.69,3.69,0,0,1-.94,2.57,4.7,4.7,0,0,1-2.92,1.32,4.76,4.76,0,0,1,1.09.72,9.42,9.42,0,0,1,1.51,1.9l2.39,3.89h-2.29l-1.81-3a23.37,23.37,0,0,0-1.32-2,4.06,4.06,0,0,0-.92-1,2.68,2.68,0,0,0-.83-.38,4.8,4.8,0,0,0-1-.07h-2.11v6.35Zm1.81-8h3.91a5.63,5.63,0,0,0,1.95-.27,2.12,2.12,0,0,0,1.07-.85,2.46,2.46,0,0,0,.36-1.29,2.16,2.16,0,0,0-.71-1.67,3.23,3.23,0,0,0-2.23-.65h-4.35Z"/><path d="M228.34,57.39V44.78h-4.52V43.09H234.7v1.69h-4.54V57.39Z"/><path d="M236.62,57.39V43.09h1.82V49h7.13V43.09h1.82v14.3h-1.82V50.65h-7.13v6.74Z"/><path d="M256.06,57.39V43.09h1.81v14.3Z"/><path d="M264.57,57.39V44.78H260V43.09h10.89v1.69h-4.54V57.39Z"/><path d="M277.81,57.39V43.09h6.08a8,8,0,0,1,2.8.38,3.14,3.14,0,0,1,1.52,1.37,4.17,4.17,0,0,1,.57,2.15,3.69,3.69,0,0,1-.94,2.57,4.7,4.7,0,0,1-2.92,1.32,4.76,4.76,0,0,1,1.09.72,9.78,9.78,0,0,1,1.51,1.9l2.39,3.89h-2.29l-1.82-3c-.53-.86-1-1.52-1.31-2a4.06,4.06,0,0,0-.92-1,2.68,2.68,0,0,0-.83-.38,4.8,4.8,0,0,0-1-.07h-2.11v6.35Zm1.81-8h3.91a5.63,5.63,0,0,0,2-.27,2.06,2.06,0,0,0,1.06-.85,2.39,2.39,0,0,0,.37-1.29,2.2,2.2,0,0,0-.71-1.67,3.23,3.23,0,0,0-2.23-.65h-4.35Z"/><path d="M290.12,57.39l5.28-14.3h2L303,57.39H300.9l-1.6-4.33h-5.74l-1.51,4.33Zm4-5.87h4.66l-1.43-4c-.44-1.21-.77-2.19-1-3a17.81,17.81,0,0,1-.74,2.73Z"/><path d="M306.5,57.39V44.78H302V43.09h10.89v1.69h-4.54V57.39Z"/><path d="M315,57.39V43.09h1.82v14.3Z"/><path d="M320,57.39V43.09h1.87l7.21,11.23V43.09h1.74v14.3H329l-7.21-11.24V57.39Z"/><path d="M340.33,51.78V50.1h5.82V55.4a10.23,10.23,0,0,1-2.77,1.67,7.78,7.78,0,0,1-2.92.57,7.43,7.43,0,0,1-3.67-.91,5.79,5.79,0,0,1-2.5-2.61,8.49,8.49,0,0,1-.84-3.81,9.32,9.32,0,0,1,.83-3.9,5.74,5.74,0,0,1,2.42-2.69,7.34,7.34,0,0,1,3.62-.87,6.82,6.82,0,0,1,2.69.5,4.35,4.35,0,0,1,1.89,1.4,6.33,6.33,0,0,1,1,2.34l-1.64.47a5.21,5.21,0,0,0-.77-1.72,3.08,3.08,0,0,0-1.31-1,4.66,4.66,0,0,0-1.89-.38,5.39,5.39,0,0,0-2.15.4,3.94,3.94,0,0,0-1.47,1,5.17,5.17,0,0,0-.87,1.41,7.8,7.8,0,0,0-.52,2.88,7.24,7.24,0,0,0,.63,3.2,4.11,4.11,0,0,0,1.84,1.91,5.49,5.49,0,0,0,2.57.63,6,6,0,0,0,2.3-.47,6.26,6.26,0,0,0,1.71-1V51.78Z"/><path d="M353.6,50.43a7.94,7.94,0,0,1,1.84-5.58,6.12,6.12,0,0,1,4.74-2,6.38,6.38,0,0,1,3.43.94,6.09,6.09,0,0,1,2.32,2.64,9.52,9.52,0,0,1,0,7.73,5.87,5.87,0,0,1-2.39,2.6,6.59,6.59,0,0,1-3.33.89,6.33,6.33,0,0,1-3.47-1A6.16,6.16,0,0,1,354.39,54,8.3,8.3,0,0,1,353.6,50.43Zm1.88,0a5.87,5.87,0,0,0,1.33,4.07,4.52,4.52,0,0,0,6.73,0,6.24,6.24,0,0,0,1.32-4.26,7.58,7.58,0,0,0-.57-3,4.47,4.47,0,0,0-1.65-2,4.37,4.37,0,0,0-2.45-.72,4.5,4.5,0,0,0-3.32,1.39C355.94,46.77,355.48,48.3,355.48,50.46Z"/><path d="M369.06,57.39V43.09h1.86l7.21,11.23V43.09h1.75v14.3H378L370.8,46.15V57.39Z"/><path class="cls-4" d="M76.11,152.23A76.12,76.12,0,1,0,0,76.11a76.12,76.12,0,0,0,76.11,76.12"/><path class="cls-5" d="M32,101.29c-5.73,0-8.83-2.48-8.83-5.63,0-2.28,1.5-3.88,4.24-3.88,3.35,0,3.56,2.27,4.18,5.17.26,1.24.83,2.06,2.27,2.06C38,99,41.6,91.83,42.48,83.1l-.2-.1A9.72,9.72,0,0,1,34,87c-5.33,0-9.87-4.14-9.87-11.06,0-5.27,3.31-12.19,13.74-12.19,7,0,12.87,5.42,12.87,15.34C50.7,91.42,42.07,101.29,32,101.29Zm5.69-35.5c-4.45,0-5.07,6.15-5.07,9.92,0,5.22,1.71,8.06,4.91,8.06,2.48,0,5.12-2.43,5.12-9C42.64,68.94,40.05,65.79,37.68,65.79Z"/><path class="cls-5" d="M67.7,96.69c-6.87,0-12.45-2.38-12.45-8,0-3.62,3.15-6.36,6.4-7.9v-.06c-3.67-2.06-5.06-4.49-5.06-8,0-5.48,4.55-9.3,12.24-9.3,7,0,11.63,3.3,11.47,7.49-.1,3.51-2.89,5.53-5.32,6.61v.05c4.34,1.86,6.62,4.7,6.62,8.74C81.6,92.81,76,96.69,67.7,96.69Zm1.24-13a54,54,0,0,1-5.43-2,7.79,7.79,0,0,0-2.84,6.56c0,3.61,2.58,6.2,7.54,6.35,4.24.16,7.5-2,7.6-5.06C75.91,86.67,73.69,85.32,68.94,83.72Zm-.11-18.19c-3.87-.15-6.45,1.76-6.56,4.34-.1,2.74,2.64,4.09,6.2,5.33,1.55.51,3.67,1.18,4.6,1.6a7.48,7.48,0,0,0,2-5.38C75,68.22,73.33,65.69,68.83,65.53Z"/><path class="cls-5" d="M95.7,81.24c-5.16,0-9.09-3.46-9.09-8.73a9.07,9.07,0,0,1,9.09-8.73,8.56,8.56,0,0,1,8.89,8.57A9.09,9.09,0,0,1,95.7,81.24Zm-.15-15.76c-2,0-2.84,2.69-2.84,6.82,0,4.55.67,7.24,2.94,7.24,1.91,0,2.84-2.48,2.84-7S97.82,65.48,95.55,65.48Zm1.14,35.65-2.54-1.39L117.3,59.9l2.64,1.4Zm22-4.6c-5.17,0-9.1-3.46-9.1-8.73a9.08,9.08,0,0,1,9.1-8.73,8.56,8.56,0,0,1,8.88,8.58A9.09,9.09,0,0,1,118.7,96.53Zm-.16-15.75c-2,0-2.84,2.68-2.84,6.82,0,4.54.67,7.23,2.94,7.23,1.92,0,2.85-2.48,2.85-7S120.81,80.78,118.54,80.78Z"/></g></g></svg>