<svg xmlns="http://www.w3.org/2000/svg" viewBox="0 0 289.77 98.75"><defs><style>.cls-1{fill:#153a49;}.cls-2{fill:#ff8300;}</style></defs><g id="Layer_2" data-name="Layer 2"><g id="Layer_1-2" data-name="Layer 1"><path class="cls-1" d="M0,82.24H.52a16.36,16.36,0,0,0,.32,3,24,24,0,0,0,.91,3.31,20.06,20.06,0,0,0,1.43,3.16,9.3,9.3,0,0,0,1.89,2.4A15.54,15.54,0,0,0,9.75,97,16.08,16.08,0,0,0,15.27,98h.59a17.65,17.65,0,0,0,5.52-1.1,10.53,10.53,0,0,0,4.42-3.71,9.66,9.66,0,0,0,1.73-5.17A10.15,10.15,0,0,0,26,82.53a12.91,12.91,0,0,0-5.33-4.71l-8.19-4.23A23.78,23.78,0,0,1,6,69a15.49,15.49,0,0,1-3.41-5.14,11.36,11.36,0,0,1-.75-5.23,12,12,0,0,1,1.56-4.87,14.12,14.12,0,0,1,3.48-4,17.87,17.87,0,0,1,5-2.8,12,12,0,0,1,2.6-.71,17.91,17.91,0,0,1,2.66-.2,15.68,15.68,0,0,1,5.85,1.11c.7.26,1.44.52,2.21.78a8.8,8.8,0,0,0,2.34.45A4.6,4.6,0,0,0,29.7,48a4.1,4.1,0,0,0,1.82-1.75H32v14.1h-.52A10.59,10.59,0,0,0,31,57.47a16.22,16.22,0,0,0-1.14-2.89A17.55,17.55,0,0,0,28.27,52a15.64,15.64,0,0,0-1.82-2,13.15,13.15,0,0,0-4.29-2.57,14.76,14.76,0,0,0-5.07-.87,15.64,15.64,0,0,0-2.24.16,13.83,13.83,0,0,0-2.18.49A9.31,9.31,0,0,0,8,50.26,6.65,6.65,0,0,0,6.66,55.2a11.57,11.57,0,0,0,2.89,5.94,29,29,0,0,0,8.13,6.28l7.47,3.83a19,19,0,0,1,5.66,4.45,13.72,13.72,0,0,1,2.86,5.37,11.49,11.49,0,0,1,.06,5.59A12,12,0,0,1,31,91.82a17.63,17.63,0,0,1-5.43,4.1,25.28,25.28,0,0,1-8.13,2.37h.13c-.34,0-.66.08-.94.1s-.57,0-.88,0h-.65a15,15,0,0,1-5.65-1.1v0a6.71,6.71,0,0,1-.65-.26,11.84,11.84,0,0,0-4.29-1,5.36,5.36,0,0,0-2.5.52A2.69,2.69,0,0,0,.84,97.74c-.21.45-.34.75-.39.88v.06H0Z"/><path class="cls-1" d="M35.88,98.16,37,98a7.65,7.65,0,0,0,2.53-.88,13,13,0,0,0,3.09-2.3,12.71,12.71,0,0,0,2.79-4.49L62.92,46.68h.52L80.86,90.23A28.66,28.66,0,0,0,83,94.62a8.62,8.62,0,0,0,2,2.27,4.3,4.3,0,0,0,2,.91l2.3.36v.46H67.92v-.46c1.56-.08,2.9-.18,4-.29a4.45,4.45,0,0,0,2.5-.88,2.54,2.54,0,0,0,.72-2.31,18.09,18.09,0,0,0-1.3-4.58L69,78H50.89L46,90.3a6.25,6.25,0,0,0-.55,3.28,4.35,4.35,0,0,0,1,2.21,5.32,5.32,0,0,0,1.92,1.36,11.15,11.15,0,0,0,2.21.72,11.31,11.31,0,0,0,1.85.26l.84,0v.46H35.88ZM60,55.39l-8.9,22.17H68.83Z"/><path class="cls-1" d="M96.07,97.93a5,5,0,0,0,2.4-.94A3.82,3.82,0,0,0,99.77,95a11.34,11.34,0,0,0,.39-3.31V53.44a12.42,12.42,0,0,0-.29-3,4.06,4.06,0,0,0-1-1.88,3.94,3.94,0,0,0-1.82-1,14.36,14.36,0,0,0-2.77-.46h-2v-.52h41.21V60.33h-.46V60.2c-.34-1.43-.74-2.91-1.2-4.45a13.32,13.32,0,0,0-2.11-4.23,11.1,11.1,0,0,0-3.9-3.18,14.24,14.24,0,0,0-6.5-1.27H107.12V72.36h9.29a7.63,7.63,0,0,0,4.39-1.24,7.88,7.88,0,0,0,2.37-2.66,9.65,9.65,0,0,0,1-2.86,14.13,14.13,0,0,0,.23-1.89v-.19h.39V81.65h-.39v-.19a16,16,0,0,0-.23-1.89,9.1,9.1,0,0,0-1-2.92,7.39,7.39,0,0,0-7-3.84h-9v19a13,13,0,0,0,.29,3,4.17,4.17,0,0,0,1,1.92,4.24,4.24,0,0,0,1.82,1.07,10.48,10.48,0,0,0,2.76.42h2v.46H92.36v-.46A24.14,24.14,0,0,0,96.07,97.93Z"/><path class="cls-1" d="M169.58,97.64A15.43,15.43,0,0,0,173.39,96a14.35,14.35,0,0,0,2.89-2.37,19.34,19.34,0,0,0,2.14-2.76,22.39,22.39,0,0,0,2.93-7.54h.45l-1.88,15.47H137v-.46a24.74,24.74,0,0,0,3.74-.23,5.06,5.06,0,0,0,2.44-.94,3.88,3.88,0,0,0,1.3-2,11.34,11.34,0,0,0,.39-3.31V54.35a2.56,2.56,0,0,0,0-.39,1.72,1.72,0,0,1,0-.39q0-3.57-1.26-4.91T139,47.14h-2.08v-.39H178.1V60.4h-.46v-.07c-.34-1.43-.74-2.92-1.2-4.48a13.27,13.27,0,0,0-2.11-4.26,11.21,11.21,0,0,0-3.9-3.19,14.38,14.38,0,0,0-6.5-1.26H151.71V72.55H161a7.34,7.34,0,0,0,4.39-1.27,8.48,8.48,0,0,0,3.41-5.55,16.71,16.71,0,0,0,.2-1.82v-.2h.45V81.85H169v-.2a18.35,18.35,0,0,0-.2-1.88,8.36,8.36,0,0,0-1-3,8.06,8.06,0,0,0-2.5-2.7,7.82,7.82,0,0,0-4.58-1.17h-9V90.75a7.62,7.62,0,0,1,.06,1.17,12.3,12.3,0,0,0,.3,3,4.14,4.14,0,0,0,1,1.89,4.31,4.31,0,0,0,1.79,1.07,10,10,0,0,0,2.73.42h7.21A16.32,16.32,0,0,0,169.58,97.64Z"/><path class="cls-1" d="M230.16,60.2v-.13c-.34-1.34-.73-2.74-1.17-4.19a14.8,14.8,0,0,0-1.91-4.06,10.73,10.73,0,0,0-3.45-3.19,13.09,13.09,0,0,0-5.69-1.56h-.58a5.84,5.84,0,0,0-4,1.59c-.76.89-1.14,2.46-1.14,4.72V91.79a12.44,12.44,0,0,0,.3,3,4.16,4.16,0,0,0,1,1.92,4.31,4.31,0,0,0,1.79,1.07,10,10,0,0,0,2.73.42h2v.46H197.4v-.46a24.74,24.74,0,0,0,3.74-.23,4.87,4.87,0,0,0,2.41-.94A4,4,0,0,0,204.81,95a11.34,11.34,0,0,0,.39-3.31V53.44a13,13,0,0,0-.29-3,4.06,4.06,0,0,0-1-1.88,3.93,3.93,0,0,0-1.79-1,13.77,13.77,0,0,0-2.73-.46H199a12.87,12.87,0,0,0-5.66,1.56,11,11,0,0,0-3.44,3.19,14.08,14.08,0,0,0-2,4.06c-.44,1.45-.8,2.85-1.11,4.19v.13h-.45V46.55h44.2V60.2Z"/><path class="cls-1" d="M264.42,76.45V91.79c0,2.39.43,4,1.3,4.94s2.4,1.37,4.61,1.37h2v.52H249.66V98.1a25.57,25.57,0,0,0,3.71-.23,5.34,5.34,0,0,0,2.4-.91,3.74,3.74,0,0,0,1.3-1.95,11.44,11.44,0,0,0,.39-3.28V76.45q-3.25-6-5.49-10.11c-1.5-2.75-2.74-5-3.74-6.85s-1.76-3.23-2.31-4.23-.94-1.74-1.2-2.24l-.49-.94a1,1,0,0,0-.16-.26,7.8,7.8,0,0,0-2.27-2.6,10.25,10.25,0,0,0-2.73-1.43,12.46,12.46,0,0,0-2.47-.59c-.74-.08-1.26-.13-1.56-.13v-.39h20.21v.39h-1.1c-.48,0-1,.12-1.63.23a4.19,4.19,0,0,0-1.56.58,2.19,2.19,0,0,0-.88,1.17,2.66,2.66,0,0,0,.49,2l13.59,25,10-18.27a26,26,0,0,0,2-4.48,8.19,8.19,0,0,0,.45-3,3.14,3.14,0,0,0-.61-1.79,3.2,3.2,0,0,0-1.21-.91,4.58,4.58,0,0,0-1.36-.36c-.46,0-.81-.06-1.07-.06v-.46h17.42v.46h-.26a14,14,0,0,0-2.34.35A15.63,15.63,0,0,0,283.33,49a22.11,22.11,0,0,0-4.48,3.18,20.24,20.24,0,0,0-4.23,5.59Z"/><path class="cls-2" d="M44.73,48q2.66-6.32,5.71-12.14a32.31,32.31,0,0,1,8-9.89l1-.41c.3-.13.66-.27,1.07-.41a3.45,3.45,0,0,1,3.06.92,5.53,5.53,0,0,1,1.32,2.81,9.29,9.29,0,0,1,0,3.52,13.88,13.88,0,0,1-1,3.16,29.49,29.49,0,0,0,3.88-2.55c1.22-.95,2.52-1.87,3.88-2.76l2.9-2c1-.67,2-1.36,3-2a7.29,7.29,0,0,0,1.12-.56,1,1,0,0,1,1.23.16.94.94,0,0,1-.31,1.32c-.47.34-.88.65-1.22.92Q74,31,70,34t-8.16,6a33.4,33.4,0,0,1-2.45,3.83,31.51,31.51,0,0,1-3,3.42c-.41.34-.9.8-1.48,1.37s-1.17,1.13-1.78,1.64a14.61,14.61,0,0,1-2,1.37,5.33,5.33,0,0,1-2.09.72c-1.5.2-2.32-.31-2.45-1.53a2.43,2.43,0,0,1,.56-2.15,17.46,17.46,0,0,1,1.48-1.42c.54-.55,1-1,1.48-1.43s.9-.82,1.37-1.23a31.93,31.93,0,0,0,3.27-2.39,34.69,34.69,0,0,1,3.26-2.4c.48-.75,1-1.61,1.48-2.6s1-2,1.38-3l.46-1.63a10.84,10.84,0,0,0,.35-1.84,5.52,5.52,0,0,0,0-1.73A2.64,2.64,0,0,0,61,27.54a5.56,5.56,0,0,0-3.57,1.68Q56,30.71,54.83,32.13a45.2,45.2,0,0,0-5.1,8.21,89,89,0,0,0-3.88,9.44c-.27.68-.52,1.34-.76,2a12.4,12.4,0,0,0-.56,2,20.93,20.93,0,0,0-.31,3.73c0,1.32,0,2.63-.1,3.92-.14,2.59-.27,5.17-.41,7.76s-.31,5.2-.51,7.85q-.11.92-.15,1.89a13.18,13.18,0,0,1-.21,1.78,3.66,3.66,0,0,1-.61,1.48,2.59,2.59,0,0,1-1.27,1h-.31a1.71,1.71,0,0,1-1.58-1.68,29,29,0,0,1-.15-2.91,46.86,46.86,0,0,1,.15-5.86c.17-1.88.39-3.76.66-5.67.14-.88.31-1.76.51-2.65s.38-1.77.51-2.65a42.81,42.81,0,0,0,.31-5.25c0-1.8.07-3.52.2-5.15q.42-6.53.77-12.86t.76-13V23.82a16.35,16.35,0,0,1,.1-1.79,4,4,0,0,1,.46-1.43A1.27,1.27,0,0,1,44.53,20a1.22,1.22,0,0,1,1.17.77,5.58,5.58,0,0,1,.46,1.83,12.08,12.08,0,0,1,0,2.25c-.07.78-.1,1.44-.1,2-.28,3.53-.53,7.09-.77,10.66S44.87,44.57,44.73,48Z"/><path class="cls-2" d="M91,24q-1.94,2.55-3.78,5.51t-3.67,5.71c-.88,1.29-1.8,2.69-2.75,4.18a20.54,20.54,0,0,1-3.27,4,6.93,6.93,0,0,1-1.42,1.27,2.23,2.23,0,0,1-1.94.26,2.76,2.76,0,0,1-1.43-2.24,31.29,31.29,0,0,1,1.89-8.88,41.09,41.09,0,0,1,3.62-7.55c.47-.74,1-1.49,1.58-2.24a5.58,5.58,0,0,1,1.89-1.63,2.91,2.91,0,0,1,3.41.15c1,.78,1.35,2,1.07,3.72a5.62,5.62,0,0,0,1.18-1.63c.44-.81.91-1.65,1.43-2.5a16.1,16.1,0,0,1,1.63-2.29,2.77,2.77,0,0,1,1.78-1.12,2.28,2.28,0,0,1,.72.1l.61.2a4.67,4.67,0,0,1,1,1.94Q94.4,27,93.79,32.49t-.92,11.57V45.9c0,.75,0,1.5-.1,2.24a11.34,11.34,0,0,1-.35,2c-.18.58-.46.87-.87.87a1.14,1.14,0,0,1-1.07-.66A5,5,0,0,1,90,48.71a13,13,0,0,1-.16-2,10.29,10.29,0,0,0-.1-1.64,57.23,57.23,0,0,1,.21-10.81C90.32,30.74,90.7,27.3,91,24Zm-7.35.2a.09.09,0,0,0-.1-.1,3.2,3.2,0,0,0-.56.26,2.58,2.58,0,0,1-.56.25,22.13,22.13,0,0,0-2.55,3.62,42.8,42.8,0,0,0-2,4.13c-.54,1.43-1.07,3-1.58,4.54a22.6,22.6,0,0,0-1,5.15,35.9,35.9,0,0,0,5.15-6.57q2.3-3.74,4.64-7.3A4.08,4.08,0,0,1,84.61,26,1.74,1.74,0,0,0,83.69,24.17Z"/><path class="cls-2" d="M109.7,12.75q8.77-.3,18.26-.92a135,135,0,0,1,18.87.1c.34,0,.72,0,1.12.06a.88.88,0,0,1,.82.56c-.07.54-.32.81-.76.81a5.9,5.9,0,0,1-1.18-.1,185.46,185.46,0,0,0-18.87.15q-9.37.57-18.46,1.07-1.43,8.37-2.6,17a125.29,125.29,0,0,0-1.07,18.15c0,.89,0,1.88.1,3a20.2,20.2,0,0,0,.41,3.06c.13.75.36,1.67.66,2.76s.77,1.66,1.38,1.73a1.32,1.32,0,0,0,1.07-.31,9.56,9.56,0,0,0,1.12-1,11.19,11.19,0,0,0,1-1.18c.31-.41.53-.71.66-.92A98.21,98.21,0,0,0,119.55,46q3.21-5.55,6.78-11.58c.61-1.08,1.26-2.2,1.94-3.36s1.43-2.31,2.24-3.47a9.27,9.27,0,0,1,.92-1.17q.51-.57,1-.36c.54.27.65.7.31,1.28s-.62,1-.82,1.27q-2.55,4.29-4.79,8.67t-4.8,8.67q-1.42,2.35-2.8,4.74t-2.91,4.75c-1,1.56-2.08,3.09-3.16,4.59a10.92,10.92,0,0,1-4.18,3.46,5.55,5.55,0,0,1-2.15,0,6.27,6.27,0,0,1-3.51-3.82,27.56,27.56,0,0,1-1.38-5.76,44,44,0,0,1-.51-6.79c0-2.34.07-4.64.2-6.88q.51-6.84,1.38-13.21t2.09-12.19c-3.13.14-6.31.37-9.54.71s-6.51.58-9.84.72c-.41,0-.87,0-1.38.05a.74.74,0,0,1-.86-.77.72.72,0,0,1,.81-.81,9.8,9.8,0,0,0,1.43-.1q4.8-.31,9.79-.82t9.9-.71q.6-2.14,1.37-5.05a41,41,0,0,1,1.79-5.36A7.78,7.78,0,0,1,109.65,1,1.61,1.61,0,0,1,111,0a1.07,1.07,0,0,1,1,.41,1.47,1.47,0,0,1,.2,1,7.55,7.55,0,0,1-.2,1.17c-.1.41-.19.78-.26,1.12-.34,1.5-.68,3.05-1,4.64S110,11.39,109.7,12.75Z"/><path class="cls-2" d="M133,25.4a1.56,1.56,0,0,1,.36,1.12c0,.41,0,.85,0,1.33-.07,1.15-.09,2.41-.06,3.77s.06,2.69.06,4,0,2.55-.06,3.77a4.4,4.4,0,0,1-1.07,3h-.81a3.29,3.29,0,0,1-.77-1.58,14.41,14.41,0,0,1-.35-2.3c-.07-1.49-.09-3.06-.06-4.69a46.7,46.7,0,0,1,.36-4.79c.07-.41.14-.88.21-1.43a5.26,5.26,0,0,1,.35-1.43,1.65,1.65,0,0,1,.72-.86A1.18,1.18,0,0,1,133,25.4Zm.51-19.79a2.32,2.32,0,0,1-.82,1.63,1.1,1.1,0,0,1-1.17-.2,1.7,1.7,0,0,1-.41-1,1.26,1.26,0,0,1,.31-1,1.29,1.29,0,0,1,1.17-.31C133.1,5.07,133.4,5.34,133.47,5.61Z"/><path class="cls-2" d="M142.85,31.31A21,21,0,0,0,141.53,35a17.26,17.26,0,0,0-.61,4.49,7.68,7.68,0,0,0,.91,3.82,3.61,3.61,0,0,0,3.27,1.73A10,10,0,0,0,150.15,44a46.85,46.85,0,0,0,4.13-2.34c1.36-1,2.63-1.89,3.82-2.81s2.26-1.82,3.22-2.7a55.2,55.2,0,0,0,5-4.39q2.4-2.34,4.75-4.79a2.63,2.63,0,0,0,.66-.82,8.49,8.49,0,0,1,.77-1.12,5.46,5.46,0,0,1,.86-.87.81.81,0,0,1,1-.05c.48.21.58.61.31,1.23a6.68,6.68,0,0,1-.72,1.32,3.5,3.5,0,0,1-.61,1.12c-.27.35-.54.72-.81,1.13-1.71,2-3.49,3.84-5.36,5.61s-3.79,3.53-5.76,5.3a42.22,42.22,0,0,1-8.57,6.12,21.89,21.89,0,0,1-2.55,1.17,14.27,14.27,0,0,1-3,.82,13.44,13.44,0,0,1-3.11.15,6.12,6.12,0,0,1-2.91-.92,5.15,5.15,0,0,1-1.07-1c-.3-.38-.63-.77-1-1.18A9.8,9.8,0,0,1,138,40.65a19.88,19.88,0,0,1,.3-4.85,30.81,30.81,0,0,1,1.28-4.69,30,30,0,0,1,1.63-3.77,42.9,42.9,0,0,1,4.08-6,12,12,0,0,1,6.22-3.88,5,5,0,0,1,3.42.92A3.48,3.48,0,0,1,156,21.62a6.64,6.64,0,0,1-1.22,3.06,19.73,19.73,0,0,1-2.14,2.55,23.07,23.07,0,0,1-4,3.22A8.36,8.36,0,0,1,142.85,31.31Zm9.49-10.91a10.62,10.62,0,0,0-5.41,3.72,38,38,0,0,0-3.46,5.66,6.35,6.35,0,0,0,3.77-1,25.77,25.77,0,0,0,2.65-2.14c.75-.81,1.53-1.63,2.35-2.45a4.39,4.39,0,0,0,1.12-3.46A1.1,1.1,0,0,0,152.34,20.4Z"/><path class="cls-2" d="M172.53,41.11q2-3.88,4.08-7.91a37.69,37.69,0,0,1,4.8-7.29q.41-.51,1-1.23a7.93,7.93,0,0,1,1.32-1.22,4.42,4.42,0,0,1,1.58-.71,3.1,3.1,0,0,1,1.89.2,4.68,4.68,0,0,1,2.25,3.16c.47,1.63.88,3.27,1.22,4.9.14.75.29,1.53.46,2.34s.36,1.64.56,2.45a16.33,16.33,0,0,0,.82,2.3c.34.78.74,1.24,1.22,1.37a1.7,1.7,0,0,0,1.53-.35,10.43,10.43,0,0,1,1.22-.87c.41-.34.79-.63,1.13-.87a7.06,7.06,0,0,0,1-.86,42.26,42.26,0,0,0,4.28-4.29,51.68,51.68,0,0,1,4.28-4.38A17,17,0,0,1,209,26.67a2.68,2.68,0,0,1,1.22-.35c.38,0,.6.24.67.71s-.16.75-.67,1a4.91,4.91,0,0,0-1.17.82,26.26,26.26,0,0,0-2.86,2.9c-.95,1.13-2,2.26-3.06,3.42-.54.55-1.07,1.06-1.58,1.53s-1,1-1.58,1.53c-.88.88-1.83,1.75-2.85,2.6a6,6,0,0,1-4,1.28l-.46-.21a1.69,1.69,0,0,0-.56-.1,6.26,6.26,0,0,1-2.5-3.16,32.35,32.35,0,0,1-1.28-4.34q-.51-2.3-1-4.59a14.35,14.35,0,0,0-1.48-4.13,6.13,6.13,0,0,0-2.66,2.3,31.82,31.82,0,0,1-2,2.9,47.4,47.4,0,0,0-3.46,6.33q-1.53,3.36-3,6.93a6.59,6.59,0,0,0-.72,1.59,17.71,17.71,0,0,1-.71,1.88,5.18,5.18,0,0,1-1.07,1.58,1.87,1.87,0,0,1-1.79.46,1.66,1.66,0,0,1-1.37-1.07,6.1,6.1,0,0,1-.56-2.24,22.56,22.56,0,0,1-.05-2.76q0-1.47.15-2.7c.27-3.26.65-6.44,1.12-9.54a57.09,57.09,0,0,1,1.94-8.51c.27-.75.51-1.43.71-2a1.42,1.42,0,0,1,1.33-1,1.15,1.15,0,0,1,1.27.56,3,3,0,0,1,.31,1.58,12.12,12.12,0,0,1-.31,2,17.61,17.61,0,0,0-.35,1.78q-.72,3.88-1.23,7.75C173.11,35.94,172.81,38.52,172.53,41.11Z"/><path class="cls-2" d="M214.76,12.75q8.78-.3,18.26-.92a135,135,0,0,1,18.87.1c.34,0,.71,0,1.12.06a.88.88,0,0,1,.82.56c-.07.54-.33.81-.77.81a5.87,5.87,0,0,1-1.17-.1,185.41,185.41,0,0,0-18.87.15q-9.39.57-18.46,1.07-1.44,8.37-2.6,17a125.26,125.26,0,0,0-1.08,18.15c0,.89,0,1.88.11,3a19,19,0,0,0,.41,3.06,27.71,27.71,0,0,0,.66,2.76c.3,1.08.76,1.66,1.37,1.73a1.34,1.34,0,0,0,1.08-.31,10.45,10.45,0,0,0,1.12-1,12.49,12.49,0,0,0,1-1.18c.3-.41.52-.71.66-.92A98.1,98.1,0,0,0,224.6,46q3.22-5.55,6.79-11.58c.61-1.08,1.25-2.2,1.93-3.36s1.43-2.31,2.25-3.47a9.27,9.27,0,0,1,.92-1.17q.51-.57,1-.36c.54.27.64.7.3,1.28s-.61,1-.81,1.27q-2.55,4.29-4.8,8.67t-4.79,8.67q-1.42,2.35-2.81,4.74t-2.9,4.75q-1.53,2.34-3.17,4.59a10.85,10.85,0,0,1-4.18,3.46,5.5,5.5,0,0,1-2.14,0,6.31,6.31,0,0,1-3.52-3.82,28.87,28.87,0,0,1-1.38-5.76,45.27,45.27,0,0,1-.51-6.79c0-2.34.07-4.64.21-6.88q.51-6.84,1.38-13.21t2.09-12.19c-3.13.14-6.31.37-9.54.71s-6.51.58-9.84.72c-.41,0-.87,0-1.38.05a.76.76,0,0,1-.87-.77.72.72,0,0,1,.82-.81,9.91,9.91,0,0,0,1.43-.1c3.19-.21,6.46-.48,9.79-.82s6.63-.58,9.89-.71q.61-2.14,1.38-5.05a41.05,41.05,0,0,1,1.78-5.36A8.42,8.42,0,0,1,214.71,1a1.6,1.6,0,0,1,1.38-1,1.07,1.07,0,0,1,1,.41,1.6,1.6,0,0,1,.2,1,9,9,0,0,1-.2,1.17c-.11.41-.19.78-.26,1.12-.34,1.5-.68,3.05-1,4.64S215.1,11.39,214.76,12.75Z"/></g></g></svg>