<svg xmlns="http://www.w3.org/2000/svg" viewBox="0 0 544.19 200.77"><defs><style>.cls-1{fill:#53575a;}.cls-2{fill:none;stroke:#ff8300;}.cls-3{fill:#ff8300;}</style></defs><g id="Layer_2" data-name="Layer 2"><g id="Layer_1-2" data-name="Layer 1"><path class="cls-1" d="M12.16,194.18c0,.72,0,1.37,0,1.95s0,1.11,0,1.6,0,1,.08,1.37.08.86.15,1.28H10.66a13.53,13.53,0,0,1-.2-2.4H10.4a5.47,5.47,0,0,1-2.06,2.12,6.61,6.61,0,0,1-3.12.67,7.53,7.53,0,0,1-1.89-.24,5,5,0,0,1-1.67-.77,4.15,4.15,0,0,1-1.2-1.36,4.08,4.08,0,0,1-.46-2,4,4,0,0,1,.86-2.69A5.43,5.43,0,0,1,3,192.21a9.89,9.89,0,0,1,2.69-.64,24.37,24.37,0,0,1,2.51-.15h2.24v-.89a3.14,3.14,0,0,0-1.18-2.76,5.09,5.09,0,0,0-3-.83,6.74,6.74,0,0,0-4.51,1.67L.64,187.3a6.85,6.85,0,0,1,2.62-1.56,9.49,9.49,0,0,1,3-.52,6.76,6.76,0,0,1,4.29,1.26,4.87,4.87,0,0,1,1.6,4.08ZM8.32,193a16.26,16.26,0,0,0-2.35.16,8.65,8.65,0,0,0-2,.54,3.88,3.88,0,0,0-1.46,1,2.6,2.6,0,0,0-.24,2.8,2.72,2.72,0,0,0,.79.86,3.41,3.41,0,0,0,1.07.51,4.06,4.06,0,0,0,1.2.18,6.16,6.16,0,0,0,2.53-.45,4.27,4.27,0,0,0,1.58-1.17,4,4,0,0,0,.82-1.63,7.65,7.65,0,0,0,.22-1.84v-1Z"/><path class="cls-1" d="M18,196.61a4.17,4.17,0,0,0,1.79,1.81,5.35,5.35,0,0,0,2.5.62,4,4,0,0,0,1.22-.19,3.67,3.67,0,0,0,1.08-.55,3,3,0,0,0,.79-.84,2.18,2.18,0,0,0,.3-1.14,1.86,1.86,0,0,0-.65-1.54,5.11,5.11,0,0,0-1.62-.8,20,20,0,0,0-2.11-.49,9,9,0,0,1-2.11-.64,4.63,4.63,0,0,1-1.62-1.2,3.25,3.25,0,0,1-.66-2.18,3.83,3.83,0,0,1,.45-1.89,4.13,4.13,0,0,1,1.17-1.32,4.89,4.89,0,0,1,1.62-.79,6.55,6.55,0,0,1,1.82-.25,6.84,6.84,0,0,1,3.15.67A4.65,4.65,0,0,1,27.14,188l-1.73,1a4.16,4.16,0,0,0-1.36-1.55,3.91,3.91,0,0,0-2.13-.53,4.14,4.14,0,0,0-1.07.16,3.87,3.87,0,0,0-1,.45,2.52,2.52,0,0,0-.75.74,1.73,1.73,0,0,0-.31,1,1.7,1.7,0,0,0,.66,1.47,5.29,5.29,0,0,0,1.62.76,20.29,20.29,0,0,0,2.11.46,9,9,0,0,1,2.11.62,4.42,4.42,0,0,1,1.62,1.25,3.68,3.68,0,0,1,.65,2.32,4.31,4.31,0,0,1-.43,2,4.2,4.2,0,0,1-1.18,1.43,5.45,5.45,0,0,1-1.72.86,7,7,0,0,1-2,.29A8.27,8.27,0,0,1,18.7,200a5.31,5.31,0,0,1-2.44-2.27Z"/><path class="cls-1" d="M32.19,196.61A4.17,4.17,0,0,0,34,198.42a5.35,5.35,0,0,0,2.5.62,4,4,0,0,0,1.22-.19,3.67,3.67,0,0,0,1.08-.55,3,3,0,0,0,.79-.84,2.18,2.18,0,0,0,.3-1.14,1.86,1.86,0,0,0-.65-1.54,5.11,5.11,0,0,0-1.62-.8,20,20,0,0,0-2.11-.49,9,9,0,0,1-2.11-.64,4.63,4.63,0,0,1-1.62-1.2,3.25,3.25,0,0,1-.66-2.18,3.83,3.83,0,0,1,.45-1.89,4.13,4.13,0,0,1,1.17-1.32,4.89,4.89,0,0,1,1.62-.79,6.55,6.55,0,0,1,1.82-.25,6.84,6.84,0,0,1,3.15.67A4.7,4.7,0,0,1,41.38,188l-1.73,1a4.16,4.16,0,0,0-1.36-1.55,3.91,3.91,0,0,0-2.13-.53,4.14,4.14,0,0,0-1.07.16,3.87,3.87,0,0,0-1,.45,2.52,2.52,0,0,0-.75.74,1.73,1.73,0,0,0-.31,1,1.7,1.7,0,0,0,.66,1.47,5.29,5.29,0,0,0,1.62.76,20.29,20.29,0,0,0,2.11.46,9,9,0,0,1,2.11.62,4.42,4.42,0,0,1,1.62,1.25,3.68,3.68,0,0,1,.65,2.32,4.31,4.31,0,0,1-.43,2,4.2,4.2,0,0,1-1.18,1.43,5.45,5.45,0,0,1-1.72.86,7,7,0,0,1-2,.29,8.27,8.27,0,0,1-3.51-.74,5.31,5.31,0,0,1-2.44-2.27Z"/><path class="cls-1" d="M45.57,193a8.33,8.33,0,0,1,.57-3.12,7.53,7.53,0,0,1,1.6-2.46,7.22,7.22,0,0,1,2.47-1.62,8.42,8.42,0,0,1,3.13-.57,8.33,8.33,0,0,1,3.12.57,7.41,7.41,0,0,1,2.47,1.62,7.25,7.25,0,0,1,1.61,2.46,8.68,8.68,0,0,1,0,6.24,7.15,7.15,0,0,1-4.08,4.08,8.14,8.14,0,0,1-3.12.58,8.22,8.22,0,0,1-3.13-.58,7.19,7.19,0,0,1-2.47-1.61,7.68,7.68,0,0,1-1.6-2.47A8.33,8.33,0,0,1,45.57,193Zm1.92,0a6.75,6.75,0,0,0,.4,2.35,5.23,5.23,0,0,0,1.17,1.92,5.57,5.57,0,0,0,1.85,1.3,6.42,6.42,0,0,0,4.87,0,5.57,5.57,0,0,0,1.85-1.3,5.51,5.51,0,0,0,1.17-1.92,7.1,7.1,0,0,0,0-4.7,5.51,5.51,0,0,0-1.17-1.92,5.72,5.72,0,0,0-1.85-1.3,6.42,6.42,0,0,0-4.87,0,5.72,5.72,0,0,0-1.85,1.3,5.23,5.23,0,0,0-1.17,1.92A6.79,6.79,0,0,0,47.49,193Z"/><path class="cls-1" d="M78.43,198.21A6.88,6.88,0,0,1,76,200.14a7.08,7.08,0,0,1-3,.63,8.22,8.22,0,0,1-3.13-.58,7.1,7.1,0,0,1-2.47-1.61,7.68,7.68,0,0,1-1.6-2.47,8.82,8.82,0,0,1,0-6.24,7.53,7.53,0,0,1,1.6-2.46,7.12,7.12,0,0,1,2.47-1.62,8.42,8.42,0,0,1,3.13-.57,6.86,6.86,0,0,1,3,.67,8.11,8.11,0,0,1,2.48,1.88L77,188.93a6.69,6.69,0,0,0-1.82-1.46,4.56,4.56,0,0,0-2.15-.53,6,6,0,0,0-2.43.48,5.76,5.76,0,0,0-1.86,1.3,5.34,5.34,0,0,0-1.16,1.92,7.1,7.1,0,0,0,0,4.7,5.34,5.34,0,0,0,1.16,1.92,5.62,5.62,0,0,0,1.86,1.3A6,6,0,0,0,73,199a4.58,4.58,0,0,0,2.23-.56A5.76,5.76,0,0,0,77,197Z"/><path class="cls-1" d="M81.92,179.74a1.42,1.42,0,0,1,.41-1,1.4,1.4,0,0,1,1-.42,1.37,1.37,0,0,1,1,.42,1.46,1.46,0,0,1,0,2.05,1.4,1.4,0,0,1-1,.41,1.4,1.4,0,0,1-1.44-1.44Zm.48,5.86h1.92v14.78H82.4Z"/><path class="cls-1" d="M101.89,194.18c0,.72,0,1.37,0,1.95s0,1.11,0,1.6,0,1,.08,1.37.08.86.14,1.28h-1.79a13.58,13.58,0,0,1-.19-2.4h-.06a5.49,5.49,0,0,1-2.07,2.12,6.55,6.55,0,0,1-3.12.67,7.53,7.53,0,0,1-1.89-.24,5,5,0,0,1-1.66-.77,4.15,4.15,0,0,1-1.2-1.36,4.08,4.08,0,0,1-.46-2,4,4,0,0,1,.86-2.69,5.43,5.43,0,0,1,2.13-1.48,9.89,9.89,0,0,1,2.69-.64,24.22,24.22,0,0,1,2.51-.15h2.24v-.89A3.15,3.15,0,0,0,99,187.77a5.06,5.06,0,0,0-3-.83,6.74,6.74,0,0,0-4.51,1.67l-1.12-1.31A6.78,6.78,0,0,1,93,185.74a9.49,9.49,0,0,1,3-.52,6.76,6.76,0,0,1,4.29,1.26,4.9,4.9,0,0,1,1.6,4.08ZM98.05,193a16.5,16.5,0,0,0-2.36.16,8.56,8.56,0,0,0-2,.54,3.81,3.81,0,0,0-1.46,1,2.6,2.6,0,0,0-.24,2.8,2.58,2.58,0,0,0,.78.86,3.36,3.36,0,0,0,1.08.51A4.06,4.06,0,0,0,95,199a6.11,6.11,0,0,0,2.52-.45,4.31,4.31,0,0,0,1.59-1.17,4.1,4.1,0,0,0,.81-1.63,7.66,7.66,0,0,0,.23-1.84v-1Z"/><path class="cls-1" d="M114.85,187.33h-4.23V197a2.07,2.07,0,0,0,.55,1.54,2,2,0,0,0,1.5.54,4.67,4.67,0,0,0,1.1-.14,7.63,7.63,0,0,0,1.08-.37l.16,1.73c-.37.12-.78.24-1.25.35a6.19,6.19,0,0,1-1.25.16,4.47,4.47,0,0,1-1.76-.31,3,3,0,0,1-1.18-.81,3.19,3.19,0,0,1-.66-1.2,5.11,5.11,0,0,1-.21-1.49v-9.63h-3.2V185.6h3.2v-4.26h1.92v4.26h4.23Z"/><path class="cls-1" d="M132,197.6A6.48,6.48,0,0,1,129.2,200a8.82,8.82,0,0,1-3.63.74,7.83,7.83,0,0,1-3.08-.58,6.93,6.93,0,0,1-2.36-1.61,7,7,0,0,1-1.52-2.47,8.83,8.83,0,0,1-.53-3.15,8.5,8.5,0,0,1,.54-3.07,7.28,7.28,0,0,1,1.54-2.45,7.14,7.14,0,0,1,5.31-2.22,7,7,0,0,1,3,.59,6.49,6.49,0,0,1,2.18,1.57A6.77,6.77,0,0,1,132,189.6a7.61,7.61,0,0,1,.44,2.53v1.34H120a6.52,6.52,0,0,0,.24,1.55,5.36,5.36,0,0,0,.88,1.84,5.56,5.56,0,0,0,1.71,1.54,5.31,5.31,0,0,0,2.77.64,6.19,6.19,0,0,0,2.85-.7,5.18,5.18,0,0,0,2.11-1.92Zm-1.48-5.86a4.27,4.27,0,0,0-.4-1.85,5,5,0,0,0-1.08-1.52,5,5,0,0,0-1.64-1,5.17,5.17,0,0,0-2-.39,4.93,4.93,0,0,0-2.6.64,5.56,5.56,0,0,0-1.65,1.48,5.69,5.69,0,0,0-.87,1.61,4.2,4.2,0,0,0-.25,1.07Z"/><path class="cls-1" d="M150.27,197.79h-.06a5.15,5.15,0,0,1-1.12,1.33,7.22,7.22,0,0,1-1.46.93,7.59,7.59,0,0,1-1.65.54,8.51,8.51,0,0,1-4.83-.4,7.06,7.06,0,0,1-2.46-1.61,7.36,7.36,0,0,1-1.6-2.47,8.68,8.68,0,0,1,0-6.24,7.22,7.22,0,0,1,1.6-2.46,7.08,7.08,0,0,1,2.46-1.62,8.47,8.47,0,0,1,3.14-.57,8.21,8.21,0,0,1,1.69.17,7.11,7.11,0,0,1,1.65.55,6.77,6.77,0,0,1,1.46.92,5.32,5.32,0,0,1,1.12,1.33h.06v-12h1.92v24.19h-1.92Zm.19-4.8a5.85,5.85,0,0,0-.48-2.35,6,6,0,0,0-1.31-1.92,6.4,6.4,0,0,0-1.95-1.3,6.13,6.13,0,0,0-2.43-.48,6,6,0,0,0-2.44.48,5.72,5.72,0,0,0-1.85,1.3,5.51,5.51,0,0,0-1.17,1.92,7.1,7.1,0,0,0,0,4.7,5.51,5.51,0,0,0,1.17,1.92,5.57,5.57,0,0,0,1.85,1.3,6,6,0,0,0,2.44.48,6.13,6.13,0,0,0,2.43-.48,6.22,6.22,0,0,0,1.95-1.3,6,6,0,0,0,1.31-1.92A5.81,5.81,0,0,0,150.46,193Z"/><path class="cls-1" d="M164.35,185.6h2.11L170.05,198h.06l4.13-12.38h1.82L180.45,198h.06L184,185.6h1.92l-4.35,14.78h-2l-4.41-12.09h-.07L171,200.38h-2Z"/><path class="cls-1" d="M189.44,179.74a1.42,1.42,0,0,1,.41-1,1.45,1.45,0,0,1,2.05,2.05,1.44,1.44,0,0,1-2.46-1Zm.48,5.86h1.92v14.78h-1.92Z"/><path class="cls-1" d="M205.15,187.33h-4.22V197a2.11,2.11,0,0,0,.54,1.54,2,2,0,0,0,1.5.54,4.75,4.75,0,0,0,1.11-.14,7.5,7.5,0,0,0,1.07-.37l.16,1.73c-.36.12-.78.24-1.25.35a6.11,6.11,0,0,1-1.25.16,4.47,4.47,0,0,1-1.76-.31,3.1,3.1,0,0,1-1.18-.81,3.19,3.19,0,0,1-.66-1.2A5.11,5.11,0,0,1,199,197v-9.63h-3.2V185.6H199v-4.26h1.92v4.26h4.22Z"/><path class="cls-1" d="M209.21,176.19h1.92v12h.07a5.08,5.08,0,0,1,1.92-2.09,5.55,5.55,0,0,1,3.13-.88,6.38,6.38,0,0,1,2.82.54,4.63,4.63,0,0,1,1.71,1.42,5.51,5.51,0,0,1,.87,2,12.19,12.19,0,0,1,.23,2.36v8.8H220v-8.7a9,9,0,0,0-.16-1.74,4.31,4.31,0,0,0-.56-1.52,2.91,2.91,0,0,0-1.12-1.08,3.87,3.87,0,0,0-1.87-.4,5.59,5.59,0,0,0-2,.37,4.37,4.37,0,0,0-1.63,1.12,5.43,5.43,0,0,0-1.09,1.89,8.24,8.24,0,0,0-.4,2.67v7.39h-1.92Z"/><path class="cls-1" d="M236.19,176.19h1.92v12h.06a5.11,5.11,0,0,1,1.12-1.33,6.77,6.77,0,0,1,1.46-.92,7.11,7.11,0,0,1,1.65-.55,8.21,8.21,0,0,1,1.69-.17,8.33,8.33,0,0,1,3.12.57,7.41,7.41,0,0,1,2.47,1.62,7.25,7.25,0,0,1,1.61,2.46,8.68,8.68,0,0,1,0,6.24,7.15,7.15,0,0,1-4.08,4.08,8.14,8.14,0,0,1-3.12.58,8.24,8.24,0,0,1-1.69-.18,7.59,7.59,0,0,1-1.65-.54,7.22,7.22,0,0,1-1.46-.93,5,5,0,0,1-1.12-1.33h-.06v2.59h-1.92Zm1.73,16.8a6,6,0,0,0,1.79,4.27,6.17,6.17,0,0,0,4.38,1.78,5.92,5.92,0,0,0,2.43-.48,5.5,5.5,0,0,0,3-3.22,7.1,7.1,0,0,0,0-4.7,5.51,5.51,0,0,0-1.17-1.92,5.66,5.66,0,0,0-1.86-1.3,5.92,5.92,0,0,0-2.43-.48,6.13,6.13,0,0,0-2.43.48,6.28,6.28,0,0,0-1.95,1.3,6,6,0,0,0-1.79,4.27Z"/><path class="cls-1" d="M256.8,189.76c0-.28,0-.61,0-1s0-.79,0-1.2,0-.78-.05-1.13,0-.63,0-.82h1.92c0,.55,0,1.09,0,1.6a4.91,4.91,0,0,0,.09,1,6.49,6.49,0,0,1,1.88-2.14,4.66,4.66,0,0,1,2.82-.83,3.43,3.43,0,0,1,.56,0l.56.12-.23,1.88a2.42,2.42,0,0,0-.73-.12,5.3,5.3,0,0,0-2.16.4,4,4,0,0,0-1.51,1.1,4.84,4.84,0,0,0-.88,1.65,7,7,0,0,0-.28,2v8.06H256.8Z"/><path class="cls-1" d="M280.54,197.6a6.48,6.48,0,0,1-2.77,2.43,8.82,8.82,0,0,1-3.63.74,7.78,7.78,0,0,1-3.07-.58,6.87,6.87,0,0,1-2.37-1.61,7.17,7.17,0,0,1-1.52-2.47,9.05,9.05,0,0,1-.53-3.15,8.29,8.29,0,0,1,.55-3.07,7.26,7.26,0,0,1,1.53-2.45,7.61,7.61,0,0,1,8.31-1.63,6.55,6.55,0,0,1,3.5,3.79,7.38,7.38,0,0,1,.45,2.53v1.34H268.57a6.52,6.52,0,0,0,.24,1.55,5.55,5.55,0,0,0,.88,1.84,5.68,5.68,0,0,0,1.71,1.54,5.33,5.33,0,0,0,2.77.64,6.19,6.19,0,0,0,2.85-.7,5.11,5.11,0,0,0,2.11-1.92Zm-1.47-5.86a4.27,4.27,0,0,0-.4-1.85,5,5,0,0,0-2.72-2.56,5.2,5.2,0,0,0-2-.39,5,5,0,0,0-2.61.64,5.82,5.82,0,0,0-1.65,1.48,5.9,5.9,0,0,0-.86,1.61,4.37,4.37,0,0,0-.26,1.07Z"/><path class="cls-1" d="M297.4,194.18c0,.72,0,1.37,0,1.95s0,1.11.05,1.6,0,1,.08,1.37.08.86.14,1.28H295.9a13.58,13.58,0,0,1-.19-2.4h-.07a5.4,5.4,0,0,1-2.06,2.12,6.55,6.55,0,0,1-3.12.67,7.53,7.53,0,0,1-1.89-.24,5,5,0,0,1-1.66-.77,4.15,4.15,0,0,1-1.2-1.36,4.08,4.08,0,0,1-.47-2,4,4,0,0,1,.87-2.69,5.29,5.29,0,0,1,2.13-1.48,9.82,9.82,0,0,1,2.68-.64,24.39,24.39,0,0,1,2.52-.15h2.24v-.89a3.15,3.15,0,0,0-1.19-2.76,5.08,5.08,0,0,0-3-.83,6.78,6.78,0,0,0-4.52,1.67l-1.12-1.31a6.9,6.9,0,0,1,2.63-1.56,9.44,9.44,0,0,1,3-.52,6.71,6.71,0,0,1,4.28,1.26,4.87,4.87,0,0,1,1.6,4.08ZM293.56,193a16.36,16.36,0,0,0-2.35.16,8.78,8.78,0,0,0-2,.54,3.84,3.84,0,0,0-1.45,1,2.55,2.55,0,0,0-.24,2.8,2.58,2.58,0,0,0,.78.86,3.41,3.41,0,0,0,1.07.51,4.16,4.16,0,0,0,1.2.18,6.13,6.13,0,0,0,2.53-.45,4.39,4.39,0,0,0,1.59-1.17,4.1,4.1,0,0,0,.81-1.63,7.66,7.66,0,0,0,.23-1.84v-1Z"/><path class="cls-1" d="M303.2,196.61a4.12,4.12,0,0,0,1.79,1.81,5.34,5.34,0,0,0,2.49.62,4,4,0,0,0,1.22-.19,3.61,3.61,0,0,0,1.09-.55,2.84,2.84,0,0,0,.78-.84,2.1,2.1,0,0,0,.31-1.14,1.83,1.83,0,0,0-.66-1.54,5.11,5.11,0,0,0-1.62-.8,20,20,0,0,0-2.11-.49,9,9,0,0,1-2.11-.64,4.63,4.63,0,0,1-1.62-1.2,3.3,3.3,0,0,1-.65-2.18,3.83,3.83,0,0,1,.45-1.89,4.1,4.1,0,0,1,1.16-1.32,4.89,4.89,0,0,1,1.62-.79,6.66,6.66,0,0,1,1.82-.25,6.91,6.91,0,0,1,3.16.67,4.68,4.68,0,0,1,2.06,2.11l-1.73,1a4,4,0,0,0-1.36-1.55,3.86,3.86,0,0,0-2.13-.53,4.21,4.21,0,0,0-1.07.16,4,4,0,0,0-1,.45,2.78,2.78,0,0,0-.75.74,1.8,1.8,0,0,0-.3,1,1.72,1.72,0,0,0,.65,1.47,5.29,5.29,0,0,0,1.62.76,20.29,20.29,0,0,0,2.11.46,9,9,0,0,1,2.11.62,4.42,4.42,0,0,1,1.62,1.25,3.62,3.62,0,0,1,.66,2.32,4.31,4.31,0,0,1-.44,2,4.08,4.08,0,0,1-1.18,1.43,5.29,5.29,0,0,1-1.71.86,7,7,0,0,1-2,.29A8.19,8.19,0,0,1,304,200a5.33,5.33,0,0,1-2.45-2.27Z"/><path class="cls-1" d="M324.67,187.33h-4.23V197a2.07,2.07,0,0,0,.55,1.54,2,2,0,0,0,1.5.54,4.82,4.82,0,0,0,1.11-.14,7.5,7.5,0,0,0,1.07-.37l.16,1.73c-.37.12-.78.24-1.25.35a6.19,6.19,0,0,1-1.25.16,4.47,4.47,0,0,1-1.76-.31,3.1,3.1,0,0,1-1.18-.81,3.19,3.19,0,0,1-.66-1.2,5.11,5.11,0,0,1-.21-1.49v-9.63h-3.2V185.6h3.2v-4.26h1.92v4.26h4.23Z"/><path class="cls-1" d="M337.69,189.76c0-.28,0-.61,0-1s0-.79-.05-1.2,0-.78-.05-1.13,0-.63,0-.82h1.92c0,.55,0,1.09.05,1.6a5.19,5.19,0,0,0,.08,1,6.52,6.52,0,0,1,1.89-2.14,4.63,4.63,0,0,1,2.81-.83,3.36,3.36,0,0,1,.56,0l.56.12-.22,1.88a2.48,2.48,0,0,0-.74-.12,5.3,5.3,0,0,0-2.16.4,4,4,0,0,0-1.5,1.1,4.52,4.52,0,0,0-.88,1.65,7,7,0,0,0-.29,2v8.06h-1.92Z"/><path class="cls-1" d="M361.44,197.6a6.48,6.48,0,0,1-2.77,2.43,8.82,8.82,0,0,1-3.63.74,7.79,7.79,0,0,1-3.08-.58,6.93,6.93,0,0,1-2.36-1.61,7,7,0,0,1-1.52-2.47,8.83,8.83,0,0,1-.53-3.15,8.5,8.5,0,0,1,.54-3.07,7.28,7.28,0,0,1,1.54-2.45,7.14,7.14,0,0,1,5.31-2.22,7,7,0,0,1,3,.59,6.59,6.59,0,0,1,2.18,1.57,6.77,6.77,0,0,1,1.33,2.22,7.61,7.61,0,0,1,.44,2.53v1.34H349.47a6.52,6.52,0,0,0,.24,1.55,5.36,5.36,0,0,0,.88,1.84,5.45,5.45,0,0,0,1.71,1.54,5.31,5.31,0,0,0,2.77.64,6.19,6.19,0,0,0,2.85-.7,5.18,5.18,0,0,0,2.11-1.92ZM360,191.74a4.27,4.27,0,0,0-.4-1.85,5,5,0,0,0-1.08-1.52,5,5,0,0,0-1.64-1,5.17,5.17,0,0,0-2-.39,4.93,4.93,0,0,0-2.6.64,5.56,5.56,0,0,0-1.65,1.48,5.69,5.69,0,0,0-.87,1.61,4.2,4.2,0,0,0-.25,1.07Z"/><path class="cls-1" d="M379.2,198.21a6.91,6.91,0,0,1-2.47,1.93,7.08,7.08,0,0,1-3,.63,8.22,8.22,0,0,1-3.13-.58,7.06,7.06,0,0,1-2.46-1.61,7.54,7.54,0,0,1-1.61-2.47,8.82,8.82,0,0,1,0-6.24,7.4,7.4,0,0,1,1.61-2.46,7.08,7.08,0,0,1,2.46-1.62,8.42,8.42,0,0,1,3.13-.57,6.86,6.86,0,0,1,3,.67,8,8,0,0,1,2.48,1.88l-1.54,1.16a6.54,6.54,0,0,0-1.82-1.46,4.53,4.53,0,0,0-2.15-.53,6,6,0,0,0-2.43.48,5.72,5.72,0,0,0-1.85,1.3,5.51,5.51,0,0,0-1.17,1.92,7.1,7.1,0,0,0,0,4.7,5.51,5.51,0,0,0,1.17,1.92,5.57,5.57,0,0,0,1.85,1.3,6,6,0,0,0,2.43.48,4.53,4.53,0,0,0,2.23-.56,5.76,5.76,0,0,0,1.74-1.49Z"/><path class="cls-1" d="M382,193a8.14,8.14,0,0,1,.58-3.12,7.22,7.22,0,0,1,1.6-2.46,7.08,7.08,0,0,1,2.46-1.62,8.47,8.47,0,0,1,3.14-.57,8.33,8.33,0,0,1,3.12.57,7.27,7.27,0,0,1,2.46,1.62,7.42,7.42,0,0,1,1.62,2.46,8.82,8.82,0,0,1,0,6.24,7.57,7.57,0,0,1-1.62,2.47,7.25,7.25,0,0,1-2.46,1.61,8.14,8.14,0,0,1-3.12.58,8.28,8.28,0,0,1-3.14-.58,7.06,7.06,0,0,1-2.46-1.61,7.36,7.36,0,0,1-1.6-2.47A8.14,8.14,0,0,1,382,193Zm1.92,0a6.75,6.75,0,0,0,.4,2.35,5.5,5.5,0,0,0,3,3.22,5.92,5.92,0,0,0,2.43.48,6,6,0,0,0,2.43-.48,5.72,5.72,0,0,0,1.86-1.3,5.34,5.34,0,0,0,1.16-1.92,7.1,7.1,0,0,0,0-4.7,5.34,5.34,0,0,0-1.16-1.92,5.88,5.88,0,0,0-1.86-1.3,6,6,0,0,0-2.43-.48,5.92,5.92,0,0,0-2.43.48,5.66,5.66,0,0,0-1.86,1.3,5.51,5.51,0,0,0-1.17,1.92A6.79,6.79,0,0,0,383.93,193Z"/><path class="cls-1" d="M402.49,189.76c0-.28,0-.61,0-1s0-.79,0-1.2,0-.78-.05-1.13,0-.63,0-.82h1.92c0,.55,0,1.09.05,1.6a5.19,5.19,0,0,0,.08,1h.09a5.21,5.21,0,0,1,1.92-2.09,5.6,5.6,0,0,1,3.14-.88,6.38,6.38,0,0,1,2.82.54,4.63,4.63,0,0,1,1.71,1.42,5.49,5.49,0,0,1,.86,2,11.45,11.45,0,0,1,.24,2.36v8.8h-1.92v-8.7a9,9,0,0,0-.16-1.74,4.31,4.31,0,0,0-.56-1.52,2.91,2.91,0,0,0-1.12-1.08,3.9,3.9,0,0,0-1.87-.4,5.59,5.59,0,0,0-2,.37,4.37,4.37,0,0,0-1.63,1.12,5.43,5.43,0,0,0-1.09,1.89,8,8,0,0,0-.4,2.67v7.39h-1.92Z"/><path class="cls-1" d="M421,196.61a4.12,4.12,0,0,0,1.79,1.81,5.34,5.34,0,0,0,2.49.62,4,4,0,0,0,1.22-.19,3.73,3.73,0,0,0,1.09-.55,2.84,2.84,0,0,0,.78-.84,2.19,2.19,0,0,0,.31-1.14,1.83,1.83,0,0,0-.66-1.54,5.11,5.11,0,0,0-1.62-.8,20,20,0,0,0-2.11-.49,9,9,0,0,1-2.11-.64,4.63,4.63,0,0,1-1.62-1.2,3.3,3.3,0,0,1-.65-2.18,3.83,3.83,0,0,1,.45-1.89,4,4,0,0,1,1.16-1.32,4.89,4.89,0,0,1,1.62-.79,6.61,6.61,0,0,1,1.82-.25,6.91,6.91,0,0,1,3.16.67,4.68,4.68,0,0,1,2.06,2.11l-1.73,1a4,4,0,0,0-1.36-1.55,3.86,3.86,0,0,0-2.13-.53,4.14,4.14,0,0,0-1.07.16,4,4,0,0,0-1,.45,2.52,2.52,0,0,0-.75.74,1.8,1.8,0,0,0-.3,1,1.72,1.72,0,0,0,.65,1.47,5.29,5.29,0,0,0,1.62.76,20.29,20.29,0,0,0,2.11.46,9,9,0,0,1,2.11.62,4.42,4.42,0,0,1,1.62,1.25,3.62,3.62,0,0,1,.66,2.32,4.31,4.31,0,0,1-.44,2,4.2,4.2,0,0,1-1.18,1.43,5.29,5.29,0,0,1-1.71.86,7,7,0,0,1-2,.29,8.19,8.19,0,0,1-3.5-.74,5.29,5.29,0,0,1-2.45-2.27Z"/><path class="cls-1" d="M442.43,187.33H438.2V197a2.07,2.07,0,0,0,.55,1.54,2,2,0,0,0,1.5.54,4.67,4.67,0,0,0,1.1-.14,7.63,7.63,0,0,0,1.08-.37l.16,1.73c-.37.12-.78.24-1.25.35a6.19,6.19,0,0,1-1.25.16,4.47,4.47,0,0,1-1.76-.31,3.1,3.1,0,0,1-1.18-.81,3.19,3.19,0,0,1-.66-1.2,5.11,5.11,0,0,1-.21-1.49v-9.63h-3.2V185.6h3.2v-4.26h1.92v4.26h4.23Z"/><path class="cls-1" d="M446.49,189.76c0-.28,0-.61,0-1s0-.79,0-1.2,0-.78-.05-1.13,0-.63,0-.82h1.92c0,.55,0,1.09.05,1.6a5.19,5.19,0,0,0,.08,1,6.52,6.52,0,0,1,1.89-2.14,4.61,4.61,0,0,1,2.81-.83,3.43,3.43,0,0,1,.56,0l.56.12-.22,1.88a2.48,2.48,0,0,0-.74-.12,5.3,5.3,0,0,0-2.16.4,3.91,3.91,0,0,0-1.5,1.1,4.52,4.52,0,0,0-.88,1.65,7,7,0,0,0-.29,2v8.06h-1.92Z"/><path class="cls-1" d="M470.3,196.22c0,.28,0,.62,0,1s0,.8.05,1.2,0,.79.05,1.14,0,.62,0,.81h-1.92c0-.55,0-1.08-.05-1.6a5.19,5.19,0,0,0-.08-1h-.1a5.16,5.16,0,0,1-1.92,2.1,5.62,5.62,0,0,1-3.13.88,6.28,6.28,0,0,1-2.83-.55,4.38,4.38,0,0,1-1.73-1.42,5.13,5.13,0,0,1-.85-2,12.37,12.37,0,0,1-.22-2.37v-8.8h1.92v8.7a9.19,9.19,0,0,0,.16,1.75,4.46,4.46,0,0,0,.56,1.52,2.89,2.89,0,0,0,1.12,1.07,3.79,3.79,0,0,0,1.87.4,5.38,5.38,0,0,0,2-.37,4.26,4.26,0,0,0,1.63-1.12,5.43,5.43,0,0,0,1.09-1.89,7.9,7.9,0,0,0,.4-2.67V185.6h1.92Z"/><path class="cls-1" d="M488.6,198.21a6.8,6.8,0,0,1-2.46,1.93,7.08,7.08,0,0,1-3,.63,8.22,8.22,0,0,1-3.13-.58,7.19,7.19,0,0,1-2.47-1.61,7.68,7.68,0,0,1-1.6-2.47,8.82,8.82,0,0,1,0-6.24,7.53,7.53,0,0,1,1.6-2.46,7.22,7.22,0,0,1,2.47-1.62,8.42,8.42,0,0,1,3.13-.57,6.86,6.86,0,0,1,3,.67,8.11,8.11,0,0,1,2.48,1.88l-1.54,1.16a6.54,6.54,0,0,0-1.82-1.46,4.56,4.56,0,0,0-2.15-.53,6,6,0,0,0-2.43.48,5.76,5.76,0,0,0-1.86,1.3,5.34,5.34,0,0,0-1.16,1.92,7.1,7.1,0,0,0,0,4.7,5.34,5.34,0,0,0,1.16,1.92,5.62,5.62,0,0,0,1.86,1.3,6,6,0,0,0,2.43.48,4.58,4.58,0,0,0,2.23-.56,5.76,5.76,0,0,0,1.74-1.49Z"/><path class="cls-1" d="M499.48,187.33h-4.22V197a2.11,2.11,0,0,0,.54,1.54,2.05,2.05,0,0,0,1.51.54,4.67,4.67,0,0,0,1.1-.14,7.5,7.5,0,0,0,1.07-.37l.16,1.73c-.36.12-.78.24-1.25.35a6.11,6.11,0,0,1-1.24.16,4.43,4.43,0,0,1-1.76-.31,3,3,0,0,1-1.84-2,5.11,5.11,0,0,1-.21-1.49v-9.63h-3.2V185.6h3.2v-4.26h1.92v4.26h4.22Z"/><path class="cls-1" d="M503.39,179.74a1.38,1.38,0,0,1,.41-1,1.45,1.45,0,0,1,2.05,2.05,1.49,1.49,0,0,1-2.05,0A1.39,1.39,0,0,1,503.39,179.74Zm.48,5.86h1.92v14.78h-1.92Z"/><path class="cls-1" d="M511,193a8.33,8.33,0,0,1,.58-3.12,7.37,7.37,0,0,1,1.6-2.46,7.08,7.08,0,0,1,2.46-1.62,8.47,8.47,0,0,1,3.14-.57,8.33,8.33,0,0,1,3.12.57,7.27,7.27,0,0,1,2.46,1.62,7.13,7.13,0,0,1,1.62,2.46,8.68,8.68,0,0,1,0,6.24,7.22,7.22,0,0,1-4.08,4.08,8.14,8.14,0,0,1-3.12.58,8.28,8.28,0,0,1-3.14-.58,7.06,7.06,0,0,1-2.46-1.61,7.52,7.52,0,0,1-1.6-2.47A8.33,8.33,0,0,1,511,193Zm1.92,0a7,7,0,0,0,.4,2.35,5.5,5.5,0,0,0,3,3.22,6.39,6.39,0,0,0,4.86,0,5.5,5.5,0,0,0,3-3.22,7.1,7.1,0,0,0,0-4.7,5.51,5.51,0,0,0-1.17-1.92,5.66,5.66,0,0,0-1.86-1.3,6.39,6.39,0,0,0-4.86,0,5.66,5.66,0,0,0-1.86,1.3,5.51,5.51,0,0,0-1.17,1.92A7,7,0,0,0,513,193Z"/><path class="cls-1" d="M531.51,189.76c0-.28,0-.61,0-1s0-.79-.05-1.2,0-.78,0-1.13,0-.63,0-.82h1.92c0,.55,0,1.09.05,1.6a5.19,5.19,0,0,0,.08,1h.1a5.08,5.08,0,0,1,1.92-2.09,5.55,5.55,0,0,1,3.13-.88,6.35,6.35,0,0,1,2.82.54,4.55,4.55,0,0,1,1.71,1.42,5.35,5.35,0,0,1,.87,2,11.45,11.45,0,0,1,.24,2.36v8.8h-1.93v-8.7a9.88,9.88,0,0,0-.15-1.74,4.53,4.53,0,0,0-.57-1.52,2.84,2.84,0,0,0-1.12-1.08,3.87,3.87,0,0,0-1.87-.4,5.59,5.59,0,0,0-2,.37,4.37,4.37,0,0,0-1.63,1.12,5.43,5.43,0,0,0-1.09,1.89,8.24,8.24,0,0,0-.4,2.67v7.39h-1.92Z"/><line class="cls-2" x1="140.57" y1="157.39" x2="404.57" y2="157.39"/><path class="cls-1" d="M68.51,103.25v-.6h.09a34.27,34.27,0,0,0,4.94-.3,6.5,6.5,0,0,0,3.19-1.25,5.26,5.26,0,0,0,1.67-2.58,14.82,14.82,0,0,0,.52-4.39V43.48c0-3.15-.56-5.32-1.68-6.49s-3.11-1.85-6-2H68.51v-.51h32.77a35.42,35.42,0,0,1,10,1.29,22,22,0,0,1,6.88,3.7,14.55,14.55,0,0,1,3.91,5.37,17.53,17.53,0,0,1,1.33,6.92q0,7.74-5.24,12.3a20.77,20.77,0,0,1-6.88,3.7,18.68,18.68,0,0,1-4,1c-1.41.17-2.88.31-4.43.43a12.93,12.93,0,0,1,3.82,1.8,19.79,19.79,0,0,1,4.61,4.73l16.16,22.45a8.9,8.9,0,0,0,2.88,2.54,17.18,17.18,0,0,0,3.27,1.37,13.16,13.16,0,0,0,2.8.56c.8.06,1.29.09,1.46.09h.09v.6h-17.2l-21-29.07a20.47,20.47,0,0,0-2.36-2.71A9.72,9.72,0,0,0,95.3,70a6.52,6.52,0,0,0-1.93-.69,10.58,10.58,0,0,0-2-.17H88.21V94.22a17.17,17.17,0,0,0,.38,4,5.46,5.46,0,0,0,1.29,2.5,5.65,5.65,0,0,0,2.37,1.42,14,14,0,0,0,3.61.56h2.67v.6h-30Zm19.7-34.66h12.38a12.41,12.41,0,0,0,7.23-2.15,13.22,13.22,0,0,0,1.93-1.76,14.6,14.6,0,0,0,1.85-2.54,20.83,20.83,0,0,0,1.63-4.69,25.54,25.54,0,0,0,.61-5.72q0-7.4-3.19-11.86A11.64,11.64,0,0,0,100.59,35H95a11.76,11.76,0,0,0-3.18.69,5.47,5.47,0,0,0-2.11,1.46,5.75,5.75,0,0,0-1.16,2.5,17.68,17.68,0,0,0-.34,3.78v25.2Z"/><path class="cls-1" d="M186.25,101.79a20.88,20.88,0,0,0,5-2.24,18.84,18.84,0,0,0,3.83-3.14,25.77,25.77,0,0,0,2.83-3.65,29.28,29.28,0,0,0,3.87-10h.61l-2.5,20.47H143.08v-.6a34.46,34.46,0,0,0,4.94-.3,6.78,6.78,0,0,0,3.23-1.25A5.2,5.2,0,0,0,153,98.52a15.21,15.21,0,0,0,.51-4.39V44.51a3.12,3.12,0,0,0,0-.52,2.92,2.92,0,0,1,0-.51c0-3.15-.56-5.32-1.68-6.49s-3.11-1.85-6-2H143v-.51h54.52V52.51h-.6v-.09q-.69-2.84-1.59-5.93a17.46,17.46,0,0,0-2.79-5.63,14.82,14.82,0,0,0-5.16-4.22,18.88,18.88,0,0,0-8.6-1.68H162.6V68.59h12.3a9.79,9.79,0,0,0,5.8-1.68,11.18,11.18,0,0,0,3.18-3.57,11.41,11.41,0,0,0,1.34-3.78,21.2,21.2,0,0,0,.25-2.41v-.26h.61v24h-.61v-.26a23.38,23.38,0,0,0-.25-2.49,11.62,11.62,0,0,0-1.38-3.92,11,11,0,0,0-3.31-3.57,10.37,10.37,0,0,0-6.06-1.54H162.6V92.67a10.39,10.39,0,0,1,.08,1.55,16.57,16.57,0,0,0,.39,4,5.46,5.46,0,0,0,1.29,2.5,5.59,5.59,0,0,0,2.37,1.42,13.9,13.9,0,0,0,3.61.56h9.54A22.06,22.06,0,0,0,186.25,101.79Z"/><path class="cls-1" d="M269.15,93.1a29.6,29.6,0,0,1-10.23,7.48,33.29,33.29,0,0,1-13.16,2.67H208.87v-.6a33.58,33.58,0,0,0,4.9-.3A6.67,6.67,0,0,0,217,101.1a5.14,5.14,0,0,0,1.72-2.58,15.16,15.16,0,0,0,.52-4.39V43.48c0-3.15-.58-5.32-1.72-6.49s-3.16-1.85-6-2h-2.67v-.51h37a31.87,31.87,0,0,1,13.16,2.66,30.16,30.16,0,0,1,10.23,7.4,32.72,32.72,0,0,1,6.58,11,40,40,0,0,1,0,26.62A32.89,32.89,0,0,1,269.15,93.1ZM253.93,100a24.15,24.15,0,0,0,4.08-3.1,26.56,26.56,0,0,0,3.57-4.12,38,38,0,0,0,5.08-10.84,46,46,0,0,0,1.8-13.07,46.91,46.91,0,0,0-1.8-13.16,36.52,36.52,0,0,0-5.08-10.84A26.56,26.56,0,0,0,258,40.73a24.15,24.15,0,0,0-4.08-3.1,20.16,20.16,0,0,0-9.2-2.67h-9.55a11.76,11.76,0,0,0-3.18.69,5.47,5.47,0,0,0-2.11,1.46,5.75,5.75,0,0,0-1.16,2.5,17.68,17.68,0,0,0-.34,3.78V92.67a6.29,6.29,0,0,0,0,.73,7.15,7.15,0,0,1,0,.82,16.57,16.57,0,0,0,.39,4,5.61,5.61,0,0,0,1.25,2.5,5.23,5.23,0,0,0,2.32,1.42,14.29,14.29,0,0,0,3.7.56H244A20.33,20.33,0,0,0,253.93,100Z"/><path class="cls-1" d="M328.49,34.28h30v.6h-1.29c-.91.06-2.12.2-3.61.43a14.87,14.87,0,0,0-4.43,1.46A11.25,11.25,0,0,0,345.39,40a8.8,8.8,0,0,0-1.59,5.51V82.69a18.3,18.3,0,0,1-1.89,8.22,20.27,20.27,0,0,1-5.51,6.75,25.78,25.78,0,0,1-8.08,4.21,31.49,31.49,0,0,1-9.72,1.46h-.52a29.29,29.29,0,0,1-9.37-1.46,25.26,25.26,0,0,1-7.83-4.21,20.61,20.61,0,0,1-5.54-6.8,20.12,20.12,0,0,1-1.94-9.11V41.07q-.25-3.36-2-4.69c-1.14-.88-3-1.39-5.59-1.5h-2.75v-.69h30v.43l.08.09h-.08v.17h-3.53a8.71,8.71,0,0,0-4.64,1.46,6,6,0,0,0-2,4V81.15a28.06,28.06,0,0,0,1.55,9.46,18.38,18.38,0,0,0,4.6,7.31,16.62,16.62,0,0,0,7.44,4.08,20.42,20.42,0,0,0,10.06-.21,26.16,26.16,0,0,0,9.46-4.65,17.67,17.67,0,0,0,5.16-6.28,17,17,0,0,0,2-8.17V45a8.5,8.5,0,0,0-1.72-5.34,11.33,11.33,0,0,0-3.79-3,15.77,15.77,0,0,0-4.38-1.37c-1.49-.23-2.67-.37-3.53-.43h-1.29Z"/><path class="cls-1" d="M358.08,68.76v-.08h-.35a39,39,0,0,1,.6-6.88,38.35,38.35,0,0,1,1.81-6.63,34.89,34.89,0,0,1,6.53-11A36.65,36.65,0,0,1,371.1,40a25.76,25.76,0,0,1,5.12-3.18A26.05,26.05,0,0,1,388,34a21.44,21.44,0,0,1,8.43,1.63h.09a.46.46,0,0,0,.34.17l.09.09,1.16.52c.37.17.76.37,1.16.6q4.47,2.14,7.05,2.15a7.07,7.07,0,0,0,3.87-.86,4.41,4.41,0,0,0,2-3h.6v25h-.6a42.14,42.14,0,0,0-1.25-6A40.77,40.77,0,0,0,409,49a30.85,30.85,0,0,0-2.54-4.34A27.66,27.66,0,0,0,403.4,41a21.65,21.65,0,0,0-14.11-6.36,15.34,15.34,0,0,0-8.6,2.67,24.57,24.57,0,0,0-7.05,7.31,39.4,39.4,0,0,0-4.77,10.88,48.37,48.37,0,0,0-1.77,13.28A46.38,46.38,0,0,0,370,85.45a33.38,33.38,0,0,0,7.52,12.12,23.74,23.74,0,0,0,4.21,3.06,25.87,25.87,0,0,0,3.45,1.59,9,9,0,0,0,2,.47,16.67,16.67,0,0,0,2.1.13,34,34,0,0,0,3.49-.52,19.83,19.83,0,0,0,3.39-1,21.22,21.22,0,0,0,7.14-4.82,18.43,18.43,0,0,0,3.05-3.56,36.34,36.34,0,0,0,2.45-4.35,29.89,29.89,0,0,0,2-5.33,56.37,56.37,0,0,0,1.29-6l.6.09a39.2,39.2,0,0,1-3.35,11.52A28.19,28.19,0,0,1,403.74,97a24.29,24.29,0,0,1-7.4,4.82,20.79,20.79,0,0,1-8.34,1.63,26.05,26.05,0,0,1-11.78-2.75,30.12,30.12,0,0,1-9.55-7.4,34.83,34.83,0,0,1-6.53-11,38,38,0,0,1-1.81-6.62,39,39,0,0,1-.6-6.88Z"/><path class="cls-1" d="M462.91,101.79a20.88,20.88,0,0,0,5-2.24,18.84,18.84,0,0,0,3.83-3.14,25.77,25.77,0,0,0,2.83-3.65,29.28,29.28,0,0,0,3.87-10h.61l-2.5,20.47H419.74v-.6a34.46,34.46,0,0,0,4.94-.3,6.78,6.78,0,0,0,3.23-1.25,5.2,5.2,0,0,0,1.72-2.58,15.21,15.21,0,0,0,.51-4.39V44.51a3.12,3.12,0,0,0,0-.52,2.92,2.92,0,0,1,0-.51c0-3.15-.56-5.32-1.68-6.49s-3.11-1.85-6-2h-2.75v-.51h54.52V52.51h-.6v-.09q-.69-2.84-1.59-5.93a17.46,17.46,0,0,0-2.79-5.63A14.82,14.82,0,0,0,464,36.64a18.88,18.88,0,0,0-8.6-1.68H439.26V68.59h12.3a9.77,9.77,0,0,0,5.8-1.68,11.18,11.18,0,0,0,3.18-3.57,11.41,11.41,0,0,0,1.34-3.78,21.2,21.2,0,0,0,.25-2.41v-.26h.61v24h-.61v-.26a23.38,23.38,0,0,0-.25-2.49,11.62,11.62,0,0,0-1.38-3.92,11,11,0,0,0-3.31-3.57,10.37,10.37,0,0,0-6.06-1.54H439.26V92.67a10.39,10.39,0,0,1,.08,1.55,16.57,16.57,0,0,0,.39,4,5.46,5.46,0,0,0,1.29,2.5,5.59,5.59,0,0,0,2.37,1.42,13.9,13.9,0,0,0,3.61.56h9.54A22.06,22.06,0,0,0,462.91,101.79Z"/><path class="cls-3" d="M412.45,107.9a18.72,18.72,0,0,0-5.82,6c-1.45,2.42-3,4.84-4.68,7.25l-2,4a35.76,35.76,0,0,0-1.75,4.13,21.23,21.23,0,0,0-1.88,4.06,4.5,4.5,0,0,1-3,2.94H392.2a3.29,3.29,0,0,1-1.07-.69,5.68,5.68,0,0,1-.81-1.06,42,42,0,0,1-.19-5.13c.05-1.83.13-3.69.25-5.56s.34-3.71.63-5.5.61-3.44.94-4.94a17.87,17.87,0,0,1,.75-2.75,2.39,2.39,0,0,1,2-1.62,1.53,1.53,0,0,1,1.43,1.12,6.46,6.46,0,0,1,.25,2.31,21.05,21.05,0,0,1-.31,2.75,13.84,13.84,0,0,0-.25,2.32c-.17,1.66-.31,3.16-.44,4.5s-.27,2.58-.43,3.75q2.12-3.51,5.12-7.88A77.62,77.62,0,0,1,406.2,110a27.42,27.42,0,0,1,2.18-2.44,8.74,8.74,0,0,1,2.57-1.81,3.65,3.65,0,0,1,2.31,0,2,2,0,0,1,1.44,1.37c.16,1-.09,1.54-.75,1.63A1.38,1.38,0,0,1,412.45,107.9Z"/><path class="cls-3" d="M419.57,111.15a1.93,1.93,0,0,1,.44,1.38c-.05.5-.06,1-.06,1.62-.09,1.42-.11,3-.07,4.63s.07,3.29.07,4.87,0,3.13-.07,4.63a5.4,5.4,0,0,1-1.31,3.62h-1a4,4,0,0,1-.94-1.94,19.49,19.49,0,0,1-.43-2.81c-.09-1.83-.11-3.75-.07-5.75a56.06,56.06,0,0,1,.44-5.87c.08-.5.17-1.09.25-1.75a6.49,6.49,0,0,1,.44-1.75,2.11,2.11,0,0,1,.87-1.07A1.48,1.48,0,0,1,419.57,111.15Zm.63-24.25a2.85,2.85,0,0,1-1,2,1.34,1.34,0,0,1-1.44-.25,2,2,0,0,1-.5-1.19,1.52,1.52,0,0,1,.37-1.18,1.55,1.55,0,0,1,1.44-.38C419.74,86.24,420.11,86.57,420.2,86.9Z"/><path class="cls-3" d="M437,111.9a10.32,10.32,0,0,0-3.75,3,12.45,12.45,0,0,0-1.57,2,4,4,0,0,0-.68,2.63,4.32,4.32,0,0,0,1.37,2.43c.75.71,1.42,1.36,2,1.94l1.94,1.94a17.91,17.91,0,0,1,1.69,1.94c2.08-1.5,4.06-3.07,5.93-4.69a54.94,54.94,0,0,1,6.07-4.56,43.75,43.75,0,0,1,4.68-3.13q2.56-1.5,5.32-2.87l1.75-.88a1.7,1.7,0,0,1,1.87.13,1.35,1.35,0,0,1-.12,1,1.55,1.55,0,0,1-.75.56l-1,.37a1.48,1.48,0,0,0-.75.57,34.08,34.08,0,0,0-5.07,2.81q-2.31,1.56-4.68,3.06-6,4.5-11.63,9.38a38.35,38.35,0,0,1,3.06,5.87,18.2,18.2,0,0,1,1.32,7.13,20.92,20.92,0,0,1-1.25,8A23.14,23.14,0,0,1,439,157a27.91,27.91,0,0,1-5.38,4.75,11.79,11.79,0,0,1-7.25,2.12,8.62,8.62,0,0,1-2.87-.62,11.42,11.42,0,0,1-2.13-1.25,13,13,0,0,1-2-2.88,9.23,9.23,0,0,1-.87-3.62,13.77,13.77,0,0,1,1.62-8,42.06,42.06,0,0,1,4.13-6.25,52.26,52.26,0,0,1,4.93-5.44q2.56-2.44,5.07-4.56a15.22,15.22,0,0,0-2-2.32c-.75-.7-1.5-1.43-2.25-2.18a22.2,22.2,0,0,1-2.07-2.38,9.6,9.6,0,0,1-1.43-2.75,6.42,6.42,0,0,1,.06-5.06,20,20,0,0,1,2.44-4.06,33,33,0,0,1,2.43-2.44,11.1,11.1,0,0,1,2.82-1.81,12.61,12.61,0,0,1,1.87-.38,3.61,3.61,0,0,1,1.88.25,2.61,2.61,0,0,0,.68.69,2.08,2.08,0,0,1,.69.94,4.08,4.08,0,0,1,.06,2.37q-.31,1.38-.93,1.38c-.59.08-.92-.09-1-.5A2.88,2.88,0,0,0,437,111.9Zm-1.63,21.63c-1.42,1.16-2.83,2.46-4.25,3.87A54.88,54.88,0,0,0,427,142c-.75.91-1.52,1.93-2.32,3.06a18.65,18.65,0,0,0-2,3.69,17.91,17.91,0,0,0-1.12,4.18,10.24,10.24,0,0,0,.44,4.57,9,9,0,0,0,1.62,1.68,3.74,3.74,0,0,0,2.38.69A8.66,8.66,0,0,0,431,158,22.21,22.21,0,0,0,435,154a17,17,0,0,0,2.43-4.75,21.71,21.71,0,0,0,1.13-5.57,18.32,18.32,0,0,0-.5-5.56,13.22,13.22,0,0,0-2.31-4.87.12.12,0,0,0-.13-.13C435.4,133.32,435.32,133.44,435.32,133.53Zm-13.25,31.12c0,.08.08,0,.25-.12C422.32,164.61,422.24,164.65,422.07,164.65Z"/><path class="cls-3" d="M464.82,120.15q2.25-2,4.44-4.31A58.36,58.36,0,0,1,474,111.4c.58-.5,1.18-1,1.81-1.44a3.1,3.1,0,0,1,2.19-.56,2.46,2.46,0,0,1,1.37,1.13,3.94,3.94,0,0,1-1.25,2.68c-.75.71-1.46,1.4-2.12,2.07q-2.88,2.86-5.94,5.87a72.32,72.32,0,0,0-5.69,6.25,14.41,14.41,0,0,0-.25,2.63c0,.83,0,1.71-.12,2.62a21.69,21.69,0,0,0,5.93.19,33.14,33.14,0,0,0,5.44-1.06,37,37,0,0,0,5-1.82q2.37-1.05,4.5-2.06a75.79,75.79,0,0,0,8.63-4.5q4.13-2.49,8.12-5,1.88-1.37,3.81-2.69l3.94-2.68a2.69,2.69,0,0,0,1.5-.75,1,1,0,0,1,1.5,0,1.14,1.14,0,0,1-.37,1.5,5.45,5.45,0,0,0-1.25,1.12c-1.25,1.09-2.55,2.11-3.88,3.06s-2.71,1.9-4.12,2.82c-1.84,1.33-3.69,2.56-5.57,3.68s-3.81,2.28-5.81,3.44a64.83,64.83,0,0,0-6.06,3.06,62.8,62.8,0,0,1-6.25,3.13,38.16,38.16,0,0,1-7,2.25,28.17,28.17,0,0,1-8.31.44q-.26,3.24-.32,6.56t.07,6.56a1.27,1.27,0,0,0,.81.31.75.75,0,0,1,.69.44,5.56,5.56,0,0,1,.18,3.38,2.46,2.46,0,0,1-2.18,2,3.09,3.09,0,0,1-1.69-1.25,7.15,7.15,0,0,1-.88-2.13A14,14,0,0,1,460,150c0-1-.11-1.89-.19-2.81-.17-1.83-.25-3.75-.25-5.75v-5.87c-.58-.67-1.12-1.34-1.62-2a3.6,3.6,0,0,1-.5-2.75,6.69,6.69,0,0,1,1.12-2.88q.87-1.25,1.5-2.25Q461.2,110.9,463.2,97t5-27c.25-1.17.56-2.5.93-4s1.07-2.34,2.07-2.5a1.48,1.48,0,0,1,1.37.31,8.1,8.1,0,0,1,.75,1.06,29.89,29.89,0,0,1-1,6.75q-.87,3.25-1.5,6.5-2,10.13-3.5,20.63T464.82,120.15Z"/><path class="cls-3" d="M515.57,111.9a10.49,10.49,0,0,0-3.75,3,12.45,12.45,0,0,0-1.56,2,4,4,0,0,0-.69,2.63A4.39,4.39,0,0,0,511,122c.75.71,1.41,1.36,2,1.94l1.93,1.94a16.88,16.88,0,0,1,1.69,1.94c2.08-1.5,4.06-3.07,5.94-4.69a53.89,53.89,0,0,1,6.06-4.56,45,45,0,0,1,4.69-3.13c1.7-1,3.48-2,5.31-2.87l1.75-.88a1.71,1.71,0,0,1,1.88.13,1.3,1.3,0,0,1-.13,1,1.55,1.55,0,0,1-.75.56l-1,.37a1.57,1.57,0,0,0-.75.57,34.47,34.47,0,0,0-5.06,2.81q-2.32,1.56-4.69,3.06-6,4.5-11.62,9.38a40.21,40.21,0,0,1,3.06,5.87,18.39,18.39,0,0,1,1.31,7.13,20.73,20.73,0,0,1-1.25,8,23.14,23.14,0,0,1-3.75,6.5,28.13,28.13,0,0,1-5.37,4.75A11.81,11.81,0,0,1,505,163.9a8.68,8.68,0,0,1-2.88-.62A11,11,0,0,1,500,162a12.67,12.67,0,0,1-2-2.88,9.22,9.22,0,0,1-.88-3.62,13.69,13.69,0,0,1,1.63-8,42.05,42.05,0,0,1,4.12-6.25,51.22,51.22,0,0,1,4.94-5.44q2.55-2.44,5.06-4.56a14.68,14.68,0,0,0-2-2.32c-.75-.7-1.5-1.43-2.25-2.18a21,21,0,0,1-2.06-2.38,9.38,9.38,0,0,1-1.44-2.75,6.46,6.46,0,0,1,.06-5.06,20,20,0,0,1,2.44-4.06,33,33,0,0,1,2.44-2.44,11.22,11.22,0,0,1,2.81-1.81,12.75,12.75,0,0,1,1.88-.38,3.58,3.58,0,0,1,1.87.25,2.66,2.66,0,0,0,.69.69,2.08,2.08,0,0,1,.69.94,4.17,4.17,0,0,1,.06,2.37c-.21.92-.52,1.38-.94,1.38-.58.08-.92-.09-1-.5A2.74,2.74,0,0,0,515.57,111.9ZM514,133.53c-1.42,1.16-2.84,2.46-4.25,3.87a55,55,0,0,0-4.13,4.63q-1.12,1.36-2.31,3.06a18.15,18.15,0,0,0-2,3.69,17.93,17.93,0,0,0-1.13,4.18,10.39,10.39,0,0,0,.44,4.57,8.7,8.7,0,0,0,1.63,1.68,3.71,3.71,0,0,0,2.37.69,8.66,8.66,0,0,0,5.06-1.94,21.88,21.88,0,0,0,3.94-3.93,17.27,17.27,0,0,0,2.44-4.75,21.69,21.69,0,0,0,1.12-5.57,17.71,17.71,0,0,0-.5-5.56,13.22,13.22,0,0,0-2.31-4.87c0-.09,0-.13-.12-.13C514,133.32,514,133.44,514,133.53ZM500.7,164.65c0,.08.08,0,.25-.12C501,164.61,500.86,164.65,500.7,164.65Z"/><path class="cls-1" d="M211.93,125.16h-4.22v9.63a2.11,2.11,0,0,0,.54,1.54,2.07,2.07,0,0,0,1.51.54,4.67,4.67,0,0,0,1.1-.14,7.5,7.5,0,0,0,1.07-.37l.16,1.73a11.9,11.9,0,0,1-1.24.35,5.55,5.55,0,0,1-1.25.16,4.63,4.63,0,0,1-1.76-.3,3.27,3.27,0,0,1-1.19-.82,3.17,3.17,0,0,1-.65-1.2,5.11,5.11,0,0,1-.21-1.49v-9.63h-3.2v-1.73h3.2v-4.25h1.92v4.25h4.22ZM216,114H218v12H218a5.21,5.21,0,0,1,1.92-2.09,5.58,5.58,0,0,1,3.14-.88,6.38,6.38,0,0,1,2.82.54A4.56,4.56,0,0,1,227.6,125a5.38,5.38,0,0,1,.86,2,11.55,11.55,0,0,1,.24,2.37v8.8h-1.92v-8.71a9,9,0,0,0-.16-1.74,4.6,4.6,0,0,0-.56-1.52,2.88,2.88,0,0,0-1.12-1.07,3.79,3.79,0,0,0-1.87-.4,5.58,5.58,0,0,0-2,.36,4.37,4.37,0,0,0-1.63,1.12,5.43,5.43,0,0,0-1.09,1.89,8,8,0,0,0-.4,2.67v7.4H216Zm31.49,21.41a6.48,6.48,0,0,1-2.77,2.43,8.82,8.82,0,0,1-3.63.74,7.74,7.74,0,0,1-3.07-.58,6.87,6.87,0,0,1-2.37-1.61,7.17,7.17,0,0,1-1.52-2.47,9.05,9.05,0,0,1-.53-3.15,8.5,8.5,0,0,1,.54-3.07,7.44,7.44,0,0,1,1.54-2.45,7.18,7.18,0,0,1,5.31-2.22,7,7,0,0,1,3,.59,6.49,6.49,0,0,1,2.18,1.57,6.61,6.61,0,0,1,1.33,2.22A7.42,7.42,0,0,1,248,130v1.34H235.55a6.45,6.45,0,0,0,.24,1.55,5.49,5.49,0,0,0,.88,1.85,5.79,5.79,0,0,0,1.71,1.53,5.33,5.33,0,0,0,2.77.64,6.19,6.19,0,0,0,2.85-.7,5.18,5.18,0,0,0,2.11-1.92Zm-1.47-5.85a4.47,4.47,0,0,0-.4-1.86,5,5,0,0,0-1.09-1.52,5.28,5.28,0,0,0-1.63-1,5.2,5.2,0,0,0-2-.38,4.85,4.85,0,0,0-2.61.64,5.4,5.4,0,0,0-1.65,1.47,5.64,5.64,0,0,0-.86,1.61,4,4,0,0,0-.26,1.08Zm16.89-4.42h-3.07v-1.73h3.07V118.6a5.82,5.82,0,0,1,.43-2.38,4.51,4.51,0,0,1,1.08-1.52,3.64,3.64,0,0,1,1.42-.82,5.08,5.08,0,0,1,1.49-.24,5.62,5.62,0,0,1,2.21.38l-.39,1.67a3.82,3.82,0,0,0-1.73-.32c-1.72,0-2.59,1.31-2.59,3.93v4.13h3.46v1.73h-3.46v13.06h-1.92Zm7.68-7.58a1.4,1.4,0,0,1,.42-1,1.36,1.36,0,0,1,1-.41,1.39,1.39,0,0,1,1,.41,1.49,1.49,0,0,1,0,2,1.4,1.4,0,0,1-1,.42,1.37,1.37,0,0,1-1-.42A1.39,1.39,0,0,1,270.62,117.58Zm.48,5.85H273v14.79H271.1Zm8,4.16c0-.28,0-.61,0-1s0-.79-.05-1.2,0-.78,0-1.13,0-.63,0-.82h1.92c0,.56,0,1.09.05,1.6a5.19,5.19,0,0,0,.08,1h.1a5.08,5.08,0,0,1,1.92-2.09,5.55,5.55,0,0,1,3.13-.88,6.38,6.38,0,0,1,2.82.54,4.56,4.56,0,0,1,1.71,1.43,5.22,5.22,0,0,1,.86,2,11.55,11.55,0,0,1,.24,2.37v8.8h-1.92v-8.71a9,9,0,0,0-.16-1.74,4.39,4.39,0,0,0-.56-1.52,2.82,2.82,0,0,0-1.12-1.07,3.79,3.79,0,0,0-1.87-.4,5.58,5.58,0,0,0-2,.36,4.37,4.37,0,0,0-1.63,1.12,5.43,5.43,0,0,0-1.09,1.89,8,8,0,0,0-.4,2.67v7.4H279.1ZM309,132c0,.72,0,1.37,0,2s0,1.11,0,1.6,0,.95.08,1.38.08.85.14,1.28h-1.79a13.74,13.74,0,0,1-.19-2.4h-.07a5.37,5.37,0,0,1-2.06,2.11,6.44,6.44,0,0,1-3.12.67,7.53,7.53,0,0,1-1.89-.24,5,5,0,0,1-1.66-.77,3.85,3.85,0,0,1-1.2-1.36,4.06,4.06,0,0,1-.47-2,3.92,3.92,0,0,1,.87-2.69,5.34,5.34,0,0,1,2.12-1.49,10.37,10.37,0,0,1,2.69-.64,24.1,24.1,0,0,1,2.51-.14h2.24v-.9a3.11,3.11,0,0,0-1.18-2.75,5,5,0,0,0-3-.83,6.75,6.75,0,0,0-4.51,1.66l-1.12-1.31a6.75,6.75,0,0,1,2.63-1.55,9.14,9.14,0,0,1,3-.53,6.74,6.74,0,0,1,4.29,1.26,4.87,4.87,0,0,1,1.6,4.08Zm-3.84-1.22a16.36,16.36,0,0,0-2.35.16,8.2,8.2,0,0,0-2.05.55,3.65,3.65,0,0,0-1.45,1,2.36,2.36,0,0,0-.55,1.6,2.28,2.28,0,0,0,.31,1.2,2.58,2.58,0,0,0,.78.86,3.67,3.67,0,0,0,1.07.52,4.52,4.52,0,0,0,1.2.17,6.13,6.13,0,0,0,2.53-.45,4.25,4.25,0,0,0,1.58-1.16,4,4,0,0,0,.82-1.64,7.59,7.59,0,0,0,.22-1.84v-1Zm9.6-3.2c0-.28,0-.61,0-1s0-.79-.05-1.2,0-.78-.05-1.13,0-.63,0-.82h1.92c0,.56,0,1.09,0,1.6a5.19,5.19,0,0,0,.08,1h.1a5.08,5.08,0,0,1,1.92-2.09,5.55,5.55,0,0,1,3.13-.88,6.38,6.38,0,0,1,2.82.54,4.56,4.56,0,0,1,1.71,1.43,5.22,5.22,0,0,1,.86,2,11.55,11.55,0,0,1,.24,2.37v8.8h-1.92v-8.71a9,9,0,0,0-.16-1.74,4.39,4.39,0,0,0-.56-1.52,2.82,2.82,0,0,0-1.12-1.07,3.79,3.79,0,0,0-1.87-.4,5.58,5.58,0,0,0-2,.36,4.37,4.37,0,0,0-1.63,1.12,5.43,5.43,0,0,0-1.09,1.89,8,8,0,0,0-.4,2.67v7.4h-1.92ZM345.6,136a7.06,7.06,0,0,1-2.47,1.94,7.18,7.18,0,0,1-3,.62A8.28,8.28,0,0,1,337,138a7.06,7.06,0,0,1-2.46-1.61,7.36,7.36,0,0,1-1.6-2.47,8.68,8.68,0,0,1,0-6.24,7.19,7.19,0,0,1,4.06-4.08,8.47,8.47,0,0,1,3.14-.57,6.82,6.82,0,0,1,3,.67,7.91,7.91,0,0,1,2.48,1.89l-1.53,1.15a6.92,6.92,0,0,0-1.83-1.46,4.48,4.48,0,0,0-2.14-.52,5.92,5.92,0,0,0-2.43.48,5.45,5.45,0,0,0-3,3.21,7.13,7.13,0,0,0,0,4.71,5.52,5.52,0,0,0,3,3.21,5.92,5.92,0,0,0,2.43.48,4.52,4.52,0,0,0,2.22-.56,5.91,5.91,0,0,0,1.75-1.49Zm3.49-18.46a1.42,1.42,0,1,1,.41,1A1.39,1.39,0,0,1,349.09,117.58Zm.48,5.85h1.92v14.79h-1.92ZM369.05,132c0,.72,0,1.37,0,2s0,1.11.05,1.6.05.95.08,1.38.08.85.14,1.28h-1.79a13.74,13.74,0,0,1-.19-2.4h-.07a5.37,5.37,0,0,1-2.06,2.11,6.44,6.44,0,0,1-3.12.67,7.53,7.53,0,0,1-1.89-.24,5,5,0,0,1-1.66-.77,4,4,0,0,1-1.67-3.37,3.92,3.92,0,0,1,.87-2.69,5.31,5.31,0,0,1,2.13-1.49,10.2,10.2,0,0,1,2.68-.64,24.14,24.14,0,0,1,2.52-.14h2.24v-.9a3.12,3.12,0,0,0-1.19-2.75,5,5,0,0,0-3-.83,6.77,6.77,0,0,0-4.52,1.66l-1.12-1.31a6.75,6.75,0,0,1,2.63-1.55,9.19,9.19,0,0,1,3-.53,6.71,6.71,0,0,1,4.28,1.26,4.87,4.87,0,0,1,1.6,4.08Zm-3.84-1.22a16.36,16.36,0,0,0-2.35.16,8.2,8.2,0,0,0-2.05.55,3.72,3.72,0,0,0-1.45,1,2.41,2.41,0,0,0-.55,1.6,2.38,2.38,0,0,0,.31,1.2,2.58,2.58,0,0,0,.78.86,3.67,3.67,0,0,0,1.07.52,4.52,4.52,0,0,0,1.2.17,6.13,6.13,0,0,0,2.53-.45,4.37,4.37,0,0,0,1.59-1.16,4.14,4.14,0,0,0,.81-1.64,7.6,7.6,0,0,0,.23-1.84v-1ZM375.13,114h1.92v24.2h-1.92Z"/><path class="cls-1" d="M67.1,1.54h2.18l9.53,22.65H76.45l-2.47-6H62l-2.56,6H57.21Zm1,2.3L62.81,16.26h10.4Z"/><path class="cls-1" d="M81.25,0h1.92V24.19H81.25Z"/><path class="cls-1" d="M88.35,0h1.92V24.19H88.35Z"/><path class="cls-1" d="M94.27,16.8a8.14,8.14,0,0,1,.58-3.12,7.22,7.22,0,0,1,1.6-2.46A6.94,6.94,0,0,1,98.91,9.6,8.43,8.43,0,0,1,102.05,9a8.33,8.33,0,0,1,3.12.58,7.22,7.22,0,0,1,2.46,1.62,7.42,7.42,0,0,1,1.62,2.46,8.33,8.33,0,0,1,.57,3.12,8.33,8.33,0,0,1-.57,3.12,7.42,7.42,0,0,1-1.62,2.46A7.22,7.22,0,0,1,105.17,24a8.33,8.33,0,0,1-3.12.58A8.43,8.43,0,0,1,98.91,24a6.94,6.94,0,0,1-2.46-1.62,7.22,7.22,0,0,1-1.6-2.46A8.14,8.14,0,0,1,94.27,16.8Zm1.92,0a6.75,6.75,0,0,0,.4,2.35,5.51,5.51,0,0,0,1.17,1.92,5.57,5.57,0,0,0,1.85,1.3,6.42,6.42,0,0,0,4.87,0,5.57,5.57,0,0,0,1.85-1.3,5.36,5.36,0,0,0,1.17-1.92,7.1,7.1,0,0,0,0-4.7,5.36,5.36,0,0,0-1.17-1.92,5.57,5.57,0,0,0-1.85-1.3,6.42,6.42,0,0,0-4.87,0,5.57,5.57,0,0,0-1.85,1.3,5.51,5.51,0,0,0-1.17,1.92A6.75,6.75,0,0,0,96.19,16.8Z"/><path class="cls-1" d="M119.49,12.29,111.74,1.54h2.5l6.53,9.21,6.43-9.21h2.53l-7.68,10.75,8.41,11.9h-2.62L120.67,14,113.5,24.19H111Z"/><path class="cls-1" d="M131.17,22l8.51-9c.38-.38.76-.79,1.15-1.23a12.46,12.46,0,0,0,1-1.38,7.16,7.16,0,0,0,.75-1.52,5.11,5.11,0,0,0,.29-1.73A3.92,3.92,0,0,0,141.63,4a4.7,4.7,0,0,0-3.23-1.12,4.47,4.47,0,0,0-3,1,4.72,4.72,0,0,0-1.57,2.69l-2.24-.22A6.09,6.09,0,0,1,134,2.45a7.59,7.59,0,0,1,4.48-1.3,7.93,7.93,0,0,1,2.5.4,6.65,6.65,0,0,1,2.08,1.14,5.27,5.27,0,0,1,1.42,1.81A5.34,5.34,0,0,1,145,6.94a7.14,7.14,0,0,1-.4,2.44,10.25,10.25,0,0,1-1.06,2.12,12.35,12.35,0,0,1-1.5,1.91c-.56.6-1.14,1.19-1.71,1.79l-7.07,7.26h11.9v1.73h-14Z"/><path class="cls-1" d="M156,3.55a1.42,1.42,0,0,1,.41-1,1.45,1.45,0,0,1,2.47,1,1.4,1.4,0,0,1-.42,1,1.44,1.44,0,0,1-2.46-1Zm.48,5.86h1.92V24.19h-1.92Z"/><path class="cls-1" d="M163.26,20.42a4.1,4.1,0,0,0,1.79,1.8,5.24,5.24,0,0,0,2.5.63,4.24,4.24,0,0,0,1.21-.19,3.61,3.61,0,0,0,1.09-.55,3,3,0,0,0,.79-.85,2.15,2.15,0,0,0,.3-1.13,1.83,1.83,0,0,0-.66-1.54,4.76,4.76,0,0,0-1.61-.8,20.61,20.61,0,0,0-2.11-.49,9.55,9.55,0,0,1-2.12-.64,4.6,4.6,0,0,1-1.61-1.2,3.26,3.26,0,0,1-.66-2.18,3.8,3.8,0,0,1,.45-1.89,4.27,4.27,0,0,1,1.17-1.33,5.12,5.12,0,0,1,1.61-.78A6.69,6.69,0,0,1,167.23,9a6.87,6.87,0,0,1,3.15.68,4.58,4.58,0,0,1,2.06,2.11l-1.72,1a4.16,4.16,0,0,0-1.36-1.55,3.91,3.91,0,0,0-2.13-.53,4.14,4.14,0,0,0-1.07.16,3.87,3.87,0,0,0-1,.45,2.52,2.52,0,0,0-.75.74,1.73,1.73,0,0,0-.31,1,1.7,1.7,0,0,0,.66,1.47,5,5,0,0,0,1.61.75,18.11,18.11,0,0,0,2.12.47,8.64,8.64,0,0,1,2.11.62,4.31,4.31,0,0,1,1.61,1.25,3.6,3.6,0,0,1,.66,2.32,4.31,4.31,0,0,1-.43,2,4,4,0,0,1-1.19,1.42,5.12,5.12,0,0,1-1.71.87,7,7,0,0,1-2,.29,8.27,8.27,0,0,1-3.51-.74,5.38,5.38,0,0,1-2.45-2.27Z"/><path class="cls-1" d="M196.83,21.6h-.07a5.11,5.11,0,0,1-1.12,1.33,6.89,6.89,0,0,1-1.45.93,7.59,7.59,0,0,1-1.65.54,8.33,8.33,0,0,1-1.7.18,8.42,8.42,0,0,1-3.13-.58,7.07,7.07,0,0,1-2.47-1.62,7.53,7.53,0,0,1-1.6-2.46,8.33,8.33,0,0,1-.57-3.12,8.33,8.33,0,0,1,.57-3.12,7.53,7.53,0,0,1,1.6-2.46,7.07,7.07,0,0,1,2.47-1.62A8.42,8.42,0,0,1,190.84,9a8.33,8.33,0,0,1,1.7.18,7.59,7.59,0,0,1,1.65.54,6.89,6.89,0,0,1,1.45.93A5.11,5.11,0,0,1,196.76,12h.07V0h1.92V24.19h-1.92Zm.19-4.8a5.81,5.81,0,0,0-.48-2.35,6,6,0,0,0-1.31-1.92,6.34,6.34,0,0,0-1.95-1.3,6.14,6.14,0,0,0-2.44-.48,6,6,0,0,0-2.43.48,5.57,5.57,0,0,0-1.85,1.3,5.23,5.23,0,0,0-1.17,1.92,7.1,7.1,0,0,0,0,4.7,5.23,5.23,0,0,0,1.17,1.92,5.57,5.57,0,0,0,1.85,1.3,6,6,0,0,0,2.43.48,6.14,6.14,0,0,0,2.44-.48,6.34,6.34,0,0,0,1.95-1.3,6,6,0,0,0,1.31-1.92A5.81,5.81,0,0,0,197,16.8Z"/><path class="cls-1" d="M215.9,21.41a6.48,6.48,0,0,1-2.77,2.43,8.82,8.82,0,0,1-3.63.74,7.92,7.92,0,0,1-3.07-.58,6.76,6.76,0,0,1-2.37-1.62,7,7,0,0,1-1.52-2.46,9.05,9.05,0,0,1-.53-3.15,8.26,8.26,0,0,1,.55-3.07,7.26,7.26,0,0,1,1.53-2.45,7,7,0,0,1,2.34-1.63,7.2,7.2,0,0,1,3-.6,7.11,7.11,0,0,1,3,.6,6.52,6.52,0,0,1,2.17,1.56,6.65,6.65,0,0,1,1.33,2.23,7.38,7.38,0,0,1,.45,2.53v1.34H203.93a6.52,6.52,0,0,0,.24,1.55,5.45,5.45,0,0,0,.88,1.84,5.68,5.68,0,0,0,1.71,1.54,5.43,5.43,0,0,0,2.77.64,6.2,6.2,0,0,0,2.85-.71,5.11,5.11,0,0,0,2.11-1.92Zm-1.47-5.86a4.42,4.42,0,0,0-.4-1.85,4.87,4.87,0,0,0-1.09-1.52,5,5,0,0,0-1.63-1,5.2,5.2,0,0,0-2-.39,5,5,0,0,0-2.61.64,5.94,5.94,0,0,0-1.65,1.47,6.1,6.1,0,0,0-.86,1.62,4.37,4.37,0,0,0-.26,1.07Z"/><path class="cls-1" d="M220,20.42a4,4,0,0,0,1.79,1.8,5.24,5.24,0,0,0,2.5.63,4.24,4.24,0,0,0,1.21-.19,3.61,3.61,0,0,0,1.09-.55,2.87,2.87,0,0,0,.78-.85,2.06,2.06,0,0,0,.31-1.13,1.83,1.83,0,0,0-.66-1.54,4.86,4.86,0,0,0-1.61-.8,20.22,20.22,0,0,0-2.12-.49,9.63,9.63,0,0,1-2.11-.64,4.51,4.51,0,0,1-1.61-1.2,3.26,3.26,0,0,1-.66-2.18,3.8,3.8,0,0,1,.45-1.89,4.27,4.27,0,0,1,1.17-1.33,5,5,0,0,1,1.61-.78A6.69,6.69,0,0,1,224,9a6.9,6.9,0,0,1,3.15.68,4.63,4.63,0,0,1,2.06,2.11l-1.73,1a4,4,0,0,0-1.36-1.55,3.85,3.85,0,0,0-2.12-.53,4.22,4.22,0,0,0-1.08.16,3.81,3.81,0,0,0-1,.45,2.68,2.68,0,0,0-.76.74,1.8,1.8,0,0,0-.3,1,1.7,1.7,0,0,0,.66,1.47,4.9,4.9,0,0,0,1.61.75,18.39,18.39,0,0,0,2.11.47,8.59,8.59,0,0,1,2.12.62A4.39,4.39,0,0,1,229,17.68a3.6,3.6,0,0,1,.66,2.32,4.44,4.44,0,0,1-.43,2A4.1,4.1,0,0,1,228,23.42a5.12,5.12,0,0,1-1.71.87,7,7,0,0,1-2,.29,8.22,8.22,0,0,1-3.5-.74,5.33,5.33,0,0,1-2.45-2.27Z"/><path class="cls-1" d="M232.83,3.55a1.42,1.42,0,0,1,.41-1,1.45,1.45,0,0,1,2.47,1,1.4,1.4,0,0,1-.42,1,1.44,1.44,0,0,1-2.46-1Zm.48,5.86h1.92V24.19h-1.92Z"/><path class="cls-1" d="M254.91,23.23a10.55,10.55,0,0,1-.8,4.45,7,7,0,0,1-2,2.62,6.58,6.58,0,0,1-2.58,1.25,10.75,10.75,0,0,1-2.49.32,11.47,11.47,0,0,1-2.2-.21,11.09,11.09,0,0,1-2-.6,8.62,8.62,0,0,1-1.74-1,6.52,6.52,0,0,1-1.36-1.31l1.5-1.41a6.13,6.13,0,0,0,2.56,2.11,8,8,0,0,0,3.27.67,7,7,0,0,0,2.48-.38,5,5,0,0,0,1.66-1,4.58,4.58,0,0,0,1-1.37,7.27,7.27,0,0,0,.55-1.51,9.57,9.57,0,0,0,.21-1.42c0-.45,0-.81,0-1.09V21.31h-.07a5.79,5.79,0,0,1-2.25,2.11,6.88,6.88,0,0,1-3.35.77,7.88,7.88,0,0,1-3.07-.59A7.77,7.77,0,0,1,241.74,22a7.91,7.91,0,0,1-1.7-2.42,7.3,7.3,0,0,1,0-5.89,7.82,7.82,0,0,1,1.7-2.4,8.3,8.3,0,0,1,2.51-1.63A7.9,7.9,0,0,1,247.32,9a7,7,0,0,1,3.35.77,5.86,5.86,0,0,1,2.25,2.11H253V9.41h1.92Zm-1.86-6.62a5.68,5.68,0,0,0-.46-2.29,6.14,6.14,0,0,0-1.25-1.86,5.88,5.88,0,0,0-1.86-1.24,5.79,5.79,0,0,0-4.57,0,5.88,5.88,0,0,0-1.86,1.24,6.14,6.14,0,0,0-1.25,1.86,5.93,5.93,0,0,0,0,4.58,6,6,0,0,0,1.25,1.85A5.91,5.91,0,0,0,244.91,22a5.91,5.91,0,0,0,4.57,0,5.91,5.91,0,0,0,1.86-1.25,6,6,0,0,0,1.25-1.85A5.71,5.71,0,0,0,253.05,16.61Z"/><path class="cls-1" d="M259,13.57c0-.28,0-.61,0-1s0-.79-.05-1.2,0-.78-.05-1.14,0-.62,0-.81h1.92c0,.55,0,1.09,0,1.6a5.19,5.19,0,0,0,.08,1h.1a5.16,5.16,0,0,1,1.92-2.1A5.62,5.62,0,0,1,266,9a6.38,6.38,0,0,1,2.82.55A4.63,4.63,0,0,1,270.54,11a5.36,5.36,0,0,1,.86,2,11.62,11.62,0,0,1,.24,2.37v8.8h-1.92v-8.7a9.19,9.19,0,0,0-.16-1.75,4.46,4.46,0,0,0-.56-1.52,3,3,0,0,0-1.12-1.07,3.9,3.9,0,0,0-1.87-.4,5.59,5.59,0,0,0-2,.37,4.37,4.37,0,0,0-1.63,1.12,5.43,5.43,0,0,0-1.09,1.89,8,8,0,0,0-.4,2.67v7.39H259Z"/><path class="cls-1" d="M289.21,21.41a6.48,6.48,0,0,1-2.77,2.43,8.82,8.82,0,0,1-3.63.74,8,8,0,0,1-3.07-.58,6.76,6.76,0,0,1-2.37-1.62,7,7,0,0,1-1.52-2.46,9.05,9.05,0,0,1-.53-3.15,8.26,8.26,0,0,1,.55-3.07,7.26,7.26,0,0,1,1.53-2.45,7,7,0,0,1,2.34-1.63,7.2,7.2,0,0,1,3-.6,7.08,7.08,0,0,1,3,.6,6.42,6.42,0,0,1,2.17,1.56,6.65,6.65,0,0,1,1.33,2.23,7.38,7.38,0,0,1,.45,2.53v1.34H277.24a6.52,6.52,0,0,0,.24,1.55,5.55,5.55,0,0,0,2.6,3.38,5.37,5.37,0,0,0,2.76.64,6.2,6.2,0,0,0,2.85-.71,5.11,5.11,0,0,0,2.11-1.92Zm-1.47-5.86a4.27,4.27,0,0,0-.4-1.85,4.87,4.87,0,0,0-1.09-1.52,5,5,0,0,0-1.63-1,5.2,5.2,0,0,0-2-.39,5,5,0,0,0-2.61.64,5.94,5.94,0,0,0-1.65,1.47,6.1,6.1,0,0,0-.86,1.62,4.37,4.37,0,0,0-.26,1.07Z"/><path class="cls-1" d="M306.24,21.6h-.07a5.11,5.11,0,0,1-1.12,1.33,7,7,0,0,1-1.46.93,7.69,7.69,0,0,1-1.64.54,8.33,8.33,0,0,1-1.7.18,8.42,8.42,0,0,1-3.13-.58,7,7,0,0,1-2.47-1.62,7.53,7.53,0,0,1-1.6-2.46,8.68,8.68,0,0,1,0-6.24,7.53,7.53,0,0,1,1.6-2.46,7,7,0,0,1,2.47-1.62A8.42,8.42,0,0,1,300.25,9a8.33,8.33,0,0,1,1.7.18,7.69,7.69,0,0,1,1.64.54,7,7,0,0,1,1.46.93A5.11,5.11,0,0,1,306.17,12h.07V0h1.92V24.19h-1.92Zm.19-4.8a5.81,5.81,0,0,0-.48-2.35,5.88,5.88,0,0,0-1.32-1.92,6.17,6.17,0,0,0-4.38-1.78,6,6,0,0,0-2.43.48,5.5,5.5,0,0,0-3,3.22,7.28,7.28,0,0,0,0,4.7,5.5,5.5,0,0,0,3,3.22,6,6,0,0,0,2.43.48,6.17,6.17,0,0,0,4.38-1.78A5.88,5.88,0,0,0,306,19.15,5.81,5.81,0,0,0,306.43,16.8Z"/><path class="cls-1" d="M327.16,11.14h-4.22v9.63a2.07,2.07,0,0,0,.54,1.53,2,2,0,0,0,1.51.55,4.22,4.22,0,0,0,1.1-.15,6.41,6.41,0,0,0,1.07-.36l.16,1.72a11.33,11.33,0,0,1-1.25.36,6.11,6.11,0,0,1-1.24.16,4.62,4.62,0,0,1-1.76-.31,3.14,3.14,0,0,1-1.19-.81,3.19,3.19,0,0,1-.65-1.2,5.11,5.11,0,0,1-.21-1.49V11.14h-3.2V9.41H321V5.15h1.92V9.41h4.22Z"/><path class="cls-1" d="M329.11,16.8a8.33,8.33,0,0,1,.58-3.12,7.53,7.53,0,0,1,1.6-2.46,6.94,6.94,0,0,1,2.46-1.62A8.47,8.47,0,0,1,336.89,9,8.33,8.33,0,0,1,340,9.6a7.3,7.3,0,0,1,4.08,4.08,8.68,8.68,0,0,1,0,6.24A7.3,7.3,0,0,1,340,24a8.33,8.33,0,0,1-3.12.58,8.47,8.47,0,0,1-3.14-.58,6.94,6.94,0,0,1-2.46-1.62,7.53,7.53,0,0,1-1.6-2.46A8.33,8.33,0,0,1,329.11,16.8Zm1.93,0a7,7,0,0,0,.39,2.35,5.5,5.5,0,0,0,3,3.22,6.39,6.39,0,0,0,4.86,0,5.5,5.5,0,0,0,3-3.22,7.1,7.1,0,0,0,0-4.7,5.5,5.5,0,0,0-3-3.22,6.39,6.39,0,0,0-4.86,0,5.5,5.5,0,0,0-3,3.22A7,7,0,0,0,331,16.8Z"/></g></g></svg>