<svg xmlns="http://www.w3.org/2000/svg" viewBox="0 0 135 135"><defs><style>.cls-1{fill:#949698;}.cls-2{fill:#53575a;}.cls-3{fill:#fff;}.cls-4{fill:none;stroke:#ff8300;stroke-miterlimit:10;stroke-width:1.92px;}.cls-5{fill:#ff8300;}</style></defs><g id="Layer_2" data-name="Layer 2"><g id="Layer_1-2" data-name="Layer 1"><path class="cls-1" d="M135,67.5A67.5,67.5,0,1,1,67.5,0,67.5,67.5,0,0,1,135,67.5"/><path class="cls-2" d="M73.5,134.74A67.51,67.51,0,0,0,135,67.5L72.24,21.2l6.87,38.85L77,89.52s-21.14,5-22.42,5-29.93,6.23-29.93,6.23Z"/><path class="cls-3" d="M66.75,100.48q-19.24,0-38.49,0A6.14,6.14,0,0,1,23.91,99a6.77,6.77,0,0,1-2-3.89,10.39,10.39,0,0,1,1.42-7.4c4.52-7.68,9-15.41,13.45-23.12L53.31,36,60.83,23.1a5.77,5.77,0,0,1,3.58-2.55A7.57,7.57,0,0,1,71.6,21.9a4.84,4.84,0,0,1,1.1,1.32q8.85,15.17,17.68,30.35Q100,70.15,109.66,86.72a20.21,20.21,0,0,1,1.56,2.94,9.31,9.31,0,0,1-.21,7.46,5.46,5.46,0,0,1-4.88,3.28c-1.19.08-2.39.08-3.58.08Z"/><path class="cls-4" d="M66.75,100.48q-19.24,0-38.49,0A6.14,6.14,0,0,1,23.91,99a6.77,6.77,0,0,1-2-3.89,10.39,10.39,0,0,1,1.42-7.4c4.52-7.68,9-15.41,13.45-23.12L53.31,36,60.83,23.1a5.77,5.77,0,0,1,3.58-2.55A7.57,7.57,0,0,1,71.6,21.9a4.84,4.84,0,0,1,1.1,1.32q8.85,15.17,17.68,30.35Q100,70.15,109.66,86.72a20.21,20.21,0,0,1,1.56,2.94,9.31,9.31,0,0,1-.21,7.46,5.46,5.46,0,0,1-4.88,3.28c-1.19.08-2.39.08-3.58.08Z"/><path class="cls-5" d="M66.93,72.61c1,0,2,0,2.94,0,.32,0,.48,0,.5-.43s.12-.92.18-1.39c.2-1.49.41-3,.61-4.49s.39-3,.59-4.49c.23-1.69.46-3.39.7-5.08s.5-3.49.77-5.23a18.24,18.24,0,0,0,.28-5.16,5.63,5.63,0,0,0-3.06-4.49,7.69,7.69,0,0,0-5.12-.67A6,6,0,0,0,61.91,43a6.53,6.53,0,0,0-1.56,5.16c.16,2,.52,4.09.79,6.13.21,1.54.41,3.09.62,4.65s.39,3,.59,4.57.41,3.1.61,4.65c.19,1.36.39,2.72.55,4.09,0,.33.18.35.44.35,1,0,2,0,3,0"/><path class="cls-5" d="M67,76.61c-.42,0-.87,0-1.32.13a6.64,6.64,0,0,0-1.16.32,6.48,6.48,0,0,0-3.09,10.15,7.22,7.22,0,0,0,9.92,1.23,6.34,6.34,0,0,0,1.83-8.28A6.89,6.89,0,0,0,67,76.61"/></g></g></svg>