<svg xmlns="http://www.w3.org/2000/svg" viewBox="0 0 135 135"><defs><style>.cls-1{fill:#949698;}.cls-2{fill:#ff8300;}.cls-3{fill:#53575a;}.cls-4{fill:none;stroke:#fff;stroke-miterlimit:10;stroke-width:1.2px;}.cls-5{fill:#fff;}</style></defs><g id="Layer_2" data-name="Layer 2"><g id="Layer_1-2" data-name="Layer 1"><path class="cls-1" d="M135,67.5A67.5,67.5,0,1,1,67.5,0,67.5,67.5,0,0,1,135,67.5"/><path class="cls-2" d="M89.75,34.55s-5.43-6-15.82-.15S58.87,52.62,57.36,56.24,46.81,74.77,43.65,79.29s-8.73,18.23-4.07,24.56,13.3,1.94,14.77.9C56.47,103.24,67,92.3,68.61,90.19s12-14.57,14.56-17.78,8.34-12.65,9.64-17.58,2.91-14.76-3.06-20.28"/><path class="cls-3" d="M134.25,57.42A68.33,68.33,0,0,1,135,67.5,67.5,67.5,0,0,1,67.5,135l-27-19.43L45.28,107l7.93-1.45s-7.09-5-7.21-5.76,5.77-2.58,5.89-2.76,4.68-4.86,4.68-5S68.34,78.85,68.34,78.67s16-21.14,16-21.14l2.41-9.13-1.44-6.24,8.89,6.49-2.65-12,6.13-4.2,1-.72Z"/><path class="cls-1" d="M85.2,43.18c-.58-.58-6.91-4.13-11.86,2.33-5.8,7.56-11.64,18.87-13.89,21.72A135.94,135.94,0,0,0,50.36,81c-2.13,4-8.65,13.54-4.54,17.88,1.8,1.9,8.11-2.95,10.54-6.54,1.16-1.73,11.9-13.75,13.18-15.44s4.19-5.66,6.2-8.24S81.63,62,83.83,58.25c2.06-3.52,4.54-11.9,1.37-15.07"/><path class="cls-4" d="M85.2,43.18c-.58-.58-6.91-4.13-11.86,2.33-5.8,7.56-11.64,18.87-13.89,21.72A135.94,135.94,0,0,0,50.36,81c-2.13,4-8.65,13.54-4.54,17.88,1.8,1.9,8.11-2.95,10.54-6.54,1.16-1.73,11.9-13.75,13.18-15.44s4.19-5.66,6.2-8.24S81.63,62,83.83,58.25C85.89,54.73,88.37,46.35,85.2,43.18Z"/><path class="cls-5" d="M76.71,49.55c.4-.47,2.18-2.47,3.87-1.37s.73,3.39.15,4.37-3.17,4-3.74,4.74-3.23,4.12-3.7,4.75a28,28,0,0,1-2.67,3c-.6.48-1.53,1.52-2.42.88s0-2.93.49-3.73,4.5-6.79,5.07-7.89,2.95-4.72,2.95-4.72"/><path class="cls-5" d="M57.17,78.39c.28-.34,1.52-1.77,2.71-1s.64,2.65.37,3.41A16,16,0,0,1,58,84.42c-.46.44-2.25,2.77-2.75,3.24s-1.5,1.39-1.93,1.73-1.44.84-2.07.37,0-1.82.28-2.4,3.09-4.83,3.49-5.62,2.19-3.35,2.19-3.35"/><polygon class="cls-3" points="84.44 32.79 91.52 36.69 99.09 31.95 99.09 31.95 86.6 24.02 84.44 32.79"/><polygon class="cls-3" points="76.63 33.39 76.63 33.39 79.87 32.67 85.4 30.75 76.27 24.74 76.63 33.39"/><polygon class="cls-3" points="70.5 29.91 70.5 29.91 72.18 35.31 73.75 35.07 76.27 33.99 70.5 29.91"/><polygon class="cls-3" points="30.81 97.47 30.81 97.47 36.45 101.91 36.45 101.91 38.55 100.77 37.59 96.69 30.81 97.47"/><polygon class="cls-3" points="29.67 92 29.67 92 35.31 96.45 35.31 96.45 38.85 95.67 36.45 91.22 29.67 92"/><polygon class="cls-3" points="38.8 90.5 40.35 87.08 40.35 87.08 37.11 84.38 30.63 84.14 38.8 90.5"/><polygon class="cls-3" points="37.41 101.67 28.11 103.65 28.11 103.66 41.38 114.16 44.62 107.92 44.62 107.92 37.41 101.67"/><path class="cls-5" d="M103.11,42.25l-8.43.84a16.47,16.47,0,0,0-1.88-5.72l5.87-4.06A1,1,0,0,0,98.9,32a.94.94,0,0,0-1.33-.24l-5.84,4a12.31,12.31,0,0,0-1.38-1.53h0l2.32-3.67a1,1,0,0,0-1.62-1l-2.23,3.52a11.68,11.68,0,0,0-3.2-1.38L87.11,25a1,1,0,0,0-.72-1.15,1,1,0,0,0-1.15.73l-1.5,6.75a14.73,14.73,0,0,0-5.8.63l-1-6.42a1,1,0,1,0-1.9.3l1.06,6.79a23.48,23.48,0,0,0-2.63,1.29c-.19.1-.35.22-.53.32L71,30.43a1,1,0,1,0-1.71.88l2,4q-.87.6-1.68,1.26l-5.38-3.85a1,1,0,0,0-1.12,1.56l5,3.58a35,35,0,0,0-3.58,3.87l-6.32-3.45A1,1,0,0,0,57.32,40l6.06,3.31c-.81,1.12-1.54,2.23-2.2,3.33l-3-2.05a1,1,0,0,0-1.34.25,1,1,0,0,0,.26,1.34l3.13,2.13c-.39.7-.73,1.37-1.06,2l-6.58-1.91a1,1,0,0,0-1.19.65,1,1,0,0,0,.65,1.2l6.28,1.82c-.6,1.3-1.07,2.43-1.43,3.31l-7-2.4a1,1,0,1,0-.62,1.82l6.88,2.34c-.57,1.14-1.45,2.74-2.5,4.59L46,58.17a1,1,0,0,0-1.27.47,1,1,0,0,0,.46,1.27l7.49,3.46c-.86,1.49-1.8,3.06-2.74,4.62l-4.69-2.67A1,1,0,1,0,44.27,67l4.64,2.65c-.88,1.45-1.75,2.85-2.57,4.15L38.2,69.72a1,1,0,1,0-.85,1.72l8,4c-.6.94-1.15,1.78-1.62,2.49L38,75.75a.94.94,0,0,0-1.23.56,1,1,0,0,0,.56,1.24l5.3,2a35.29,35.29,0,0,0-2.54,5l-8.71-2.21a1,1,0,0,0-.47,1.87l8.46,2.14a40.49,40.49,0,0,0-1.39,4.41l-.15.62-7.37-1a1,1,0,0,0-1.09.81,1,1,0,0,0,.82,1.09l7.26,1A24.41,24.41,0,0,0,37.08,96l-5.64-.2a1,1,0,0,0-1,.93,1,1,0,0,0,.93,1l5.67.2a14.53,14.53,0,0,0,.39,3l-8.94.88a.94.94,0,0,0-.86,1,1,1,0,0,0,.95.87h.1l9.38-.91a8.3,8.3,0,0,0,.94,1.63c0,.07.1.11.15.18l-3.25,3.15a1,1,0,0,0,0,1.36,1,1,0,0,0,.69.3,1,1,0,0,0,.67-.28L40.47,106a8.53,8.53,0,0,0,3.31,1.76l-3.64,6.51a1,1,0,0,0,.36,1.3.9.9,0,0,0,.47.13,1,1,0,0,0,.84-.49l4-7.11.74,0c.29,0,.57,0,.85,0l-.07,3.11a1,1,0,0,0,.93,1h0a1,1,0,0,0,1-.94l.09-3.43a18.51,18.51,0,0,0,4-1.34l.39,5a1,1,0,0,0,1,.89h.07a1,1,0,0,0,.88-1l-.46-5.93c.62-.47,1.7-1.47,3-2.74l3,3.94A1,1,0,0,0,62,107a1,1,0,0,0,.59-.2,1,1,0,0,0,.17-1.35l-3.17-4.13L62,98.87l3.72,4.77a1,1,0,0,0,.76.37,1,1,0,0,0,.59-.2,1,1,0,0,0,.16-1.35l-3.88-5c1.12-1.16,2.19-2.29,3.13-3.3l3.24,3a1,1,0,0,0,.65.25A1,1,0,0,0,71,95.75l-3.24-3c.78-.87,1.36-1.54,1.66-1.93.15-.2.4-.51.71-.89L73,92.57a1,1,0,0,0,.65.25,1,1,0,0,0,.71-.31,1,1,0,0,0-.06-1.36l-3-2.69,2.89-3.52L79,90.12a1,1,0,0,0,1.41-1.31l-5-5.36.65-.79,2.67-3.22,4.3,3.94a1,1,0,0,0,.65.25,1,1,0,0,0,.71-.31A1,1,0,0,0,84.38,82L80,78c1.22-1.48,2.3-2.79,3.09-3.78l4.7,3.11a1,1,0,0,0,.53.15,1,1,0,0,0,.81-.43,1,1,0,0,0-.27-1.33l-4.58-3c.67-.9,1.49-2.09,2.36-3.45l6,3.41a.9.9,0,0,0,.47.13,1,1,0,0,0,.84-.48,1,1,0,0,0-.36-1.32l-5.93-3.37c.81-1.33,1.63-2.75,2.41-4.17l5.52,3.5a1,1,0,0,0,1-1.63L91,61.69c.46-.9.89-1.78,1.27-2.63L97.5,60.9a.86.86,0,0,0,.32.05,1,1,0,0,0,.31-1.87L93,57.28a18.41,18.41,0,0,0,.65-1.94c.15-.58.31-1.23.46-1.91l5.78,1.4.22,0a1,1,0,0,0,.23-1.9l-5.88-1.42A29.51,29.51,0,0,0,94.87,45l8.44-.85a1,1,0,1,0-.2-1.91M74.63,81.43c-3.06,3.71-5.95,7.2-6.75,8.25-1.52,2-11.9,12.8-14,14.28-.08.06-8.79,5.49-13.35-.68a7.51,7.51,0,0,1-.84-1.49.32.32,0,0,0,0-.13.88.88,0,0,0-.27-.55C37.38,94.58,42.06,83.6,44.61,80c3.18-4.55,12.19-19.41,13.73-23.11l.24-.58C60.3,52.1,64.87,41,74.41,35.6a16.58,16.58,0,0,1,8.11-2.44A8.94,8.94,0,0,1,89,35.56l.06.06c5.5,5.08,4.1,14.23,2.77,19.23-1.24,4.7-6.88,13.9-9.42,17.14-1.26,1.61-4.55,5.59-7.74,9.44"/></g></g></svg>