<svg xmlns="http://www.w3.org/2000/svg" xmlns:xlink="http://www.w3.org/1999/xlink" viewBox="0 0 135 135"><defs><style>.cls-1{fill:none;}.cls-2{fill:#949698;}.cls-3{fill:#53575a;}.cls-4{fill:#fff;}.cls-5{fill:#ff8300;}.cls-6{clip-path:url(#clip-path);}.cls-7{fill:#737678;}</style><clipPath id="clip-path"><path class="cls-1" d="M63.71,47.38V97.73a31.45,31.45,0,0,0,3.78.23A30.47,30.47,0,0,0,90.38,47.38Z"/></clipPath></defs><g id="Layer_2" data-name="Layer 2"><g id="Layer_1-2" data-name="Layer 1"><path class="cls-2" d="M135,67.53A67.5,67.5,0,1,1,67.53,0,67.5,67.5,0,0,1,135,67.53"/><path class="cls-3" d="M134.36,58.15a69.16,69.16,0,0,1,.64,9.38,67.52,67.52,0,0,1-55.15,66.34l-40.11-29,27,.85L100,89.38l5.9-30L96.58,38.57l-1.2-8.35Z"/><path class="cls-4" d="M114.07,67.49A46.58,46.58,0,1,1,67.49,20.91a46.57,46.57,0,0,1,46.58,46.58"/><path class="cls-5" d="M67.49,20.92a46.59,46.59,0,0,1,42.92,28.44L67.49,67.5Z"/><path class="cls-2" d="M98,67.49A30.47,30.47,0,1,1,67.49,37,30.48,30.48,0,0,1,98,67.49"/><polygon class="cls-3" points="66.15 76.84 56.84 78.82 68.45 87.91 71.01 81.19 71.01 81.18 66.15 76.84"/><polygon class="cls-3" points="52.76 72.66 58.69 77.02 64.13 67.18 64.13 67.16 62.61 60.69 52.76 72.66"/><g class="cls-6"><path class="cls-7" d="M63.71,88.13l23.81,17.15s16.25-15.37,16.25-15.77S105.19,72,105.19,72L71,47.38S64.05,56,64.37,56s7.29,4.89,7.29,4.89l-3.13,20.5Z"/></g><path class="cls-3" d="M72,63.81h.85a.36.36,0,0,1,.36.19l3.54,5.31c.61.9,1.21,1.81,1.82,2.72a2.29,2.29,0,0,0,1.77,1.09,2.31,2.31,0,0,0,2.1-3.67l-6.11-9.18a7.77,7.77,0,0,0-1-1.22,4.8,4.8,0,0,0-3.47-1.43c-3,0-6,0-9.07,0a4.55,4.55,0,0,0-3,1.09,7.35,7.35,0,0,0-1.4,1.6Q55.79,64.16,53.24,68l-1,1.46a2.3,2.3,0,0,0-.43,1.2A2.35,2.35,0,0,0,53.37,73a2.3,2.3,0,0,0,2.69-.84l.13-.2L61,64.76c.18-.27.36-.54.53-.81a.26.26,0,0,1,.26-.14h.75l.18,0v.23c0,.92,0,1.83,0,2.75a.83.83,0,0,1-.11.4l-5.78,9.58a2.82,2.82,0,0,0-.23.46,1.44,1.44,0,0,0,.28,1.53,1.51,1.51,0,0,0,1.2.54h4.6v.26q0,3.14,0,6.27a3.15,3.15,0,0,0,.1.81,2.72,2.72,0,0,0,2.61,2c1.29,0,2.59,0,3.88,0a3.15,3.15,0,0,0,.44,0,2.76,2.76,0,0,0,2.23-2.17,3.49,3.49,0,0,0,0-.65v-6.2a2.35,2.35,0,0,1,0-.26h4.67a1.55,1.55,0,0,0,1.52-1.71,1.85,1.85,0,0,0-.28-.75l-5.82-9.65a.83.83,0,0,1-.1-.38v-3Zm-4.71-7a5.42,5.42,0,1,0,0-10.84,5.46,5.46,0,0,0-5.41,5.45,5.4,5.4,0,0,0,5.36,5.39"/><path class="cls-5" d="M72,63.81v3a.64.64,0,0,0,.1.38c2,3.22,3.88,6.43,5.82,9.65a1.79,1.79,0,0,1,.28.75,1.57,1.57,0,0,1-1.52,1.72c-1,0-2,0-3,0H72a2.44,2.44,0,0,0,0,.26v6.2a3.49,3.49,0,0,1,0,.65A2.76,2.76,0,0,1,69.7,88.6a2.12,2.12,0,0,1-.44,0H65.38a2.71,2.71,0,0,1-2.61-2,3.18,3.18,0,0,1-.1-.82q0-3.12,0-6.26v-.26h-4.6a1.51,1.51,0,0,1-1.21-.54,1.45,1.45,0,0,1-.27-1.53,1.68,1.68,0,0,1,.24-.46q2.88-4.8,5.77-9.58a.83.83,0,0,0,.11-.4c0-.92,0-1.83,0-2.75v-.23l-.17,0h-.75a.26.26,0,0,0-.26.14c-.17.27-.35.54-.53.81L56.19,72l-.13.2a2.32,2.32,0,0,1-2.69.84,2.37,2.37,0,0,1-1.54-2.33,2.4,2.4,0,0,1,.44-1.2l1-1.46q2.55-3.86,5.11-7.69a7.1,7.1,0,0,1,1.4-1.6,4.54,4.54,0,0,1,3-1.09c3,0,6,0,9.07,0a4.8,4.8,0,0,1,3.47,1.43,7.77,7.77,0,0,1,1,1.22l6.11,9.18a2.31,2.31,0,0,1-2.1,3.67A2.29,2.29,0,0,1,78.55,72c-.61-.91-1.22-1.81-1.82-2.72L73.19,64a.36.36,0,0,0-.36-.19H72"/><path class="cls-5" d="M67.27,56.82a5.4,5.4,0,0,1-5.36-5.39,5.43,5.43,0,1,1,10.85,0,5.4,5.4,0,0,1-5.49,5.42"/></g></g></svg>