<svg xmlns="http://www.w3.org/2000/svg" viewBox="0 0 448.47 170.42"><defs><style>.cls-1{fill:#fff;}.cls-2{fill:#ff8300;}</style></defs><g id="Layer_2" data-name="Layer 2"><g id="Layer_1-2" data-name="Layer 1"><path class="cls-1" d="M0,170.33v-.6H.09a34.37,34.37,0,0,0,4.94-.3,6.33,6.33,0,0,0,3.18-1.25,5.21,5.21,0,0,0,1.68-2.58,15.08,15.08,0,0,0,.52-4.38V110.56q0-4.73-1.68-6.49c-1.12-1.17-3.11-1.85-6-2H0v-.52H32.77a35.34,35.34,0,0,1,10,1.29,22.13,22.13,0,0,1,6.88,3.7,14.53,14.53,0,0,1,3.92,5.38,17.67,17.67,0,0,1,1.33,6.92q0,7.74-5.25,12.3a20.67,20.67,0,0,1-6.88,3.7,17.83,17.83,0,0,1-4,.94c-1.4.17-2.88.32-4.43.43A12.91,12.91,0,0,1,38.14,138a19.41,19.41,0,0,1,4.6,4.73l16.17,22.44a8.59,8.59,0,0,0,2.88,2.54,17.92,17.92,0,0,0,3.27,1.38,13.86,13.86,0,0,0,2.79.56l1.47.08h.08v.6H52.2l-21-29.06a19.75,19.75,0,0,0-2.37-2.71,9.86,9.86,0,0,0-2.06-1.51,7.19,7.19,0,0,0-1.94-.69,11.46,11.46,0,0,0-2-.17H19.69V161.3a16.6,16.6,0,0,0,.39,4,5.47,5.47,0,0,0,1.29,2.49,5.4,5.4,0,0,0,2.37,1.42,13.16,13.16,0,0,0,3.61.56H30v.6H0Zm19.69-34.65H32.08a12.36,12.36,0,0,0,7.22-2.15,13.37,13.37,0,0,0,1.94-1.77,15,15,0,0,0,1.85-2.53,21.33,21.33,0,0,0,1.63-4.69,25.68,25.68,0,0,0,.6-5.72q0-7.39-3.18-11.87a11.65,11.65,0,0,0-10.06-4.9H26.49a11.39,11.39,0,0,0-3.18.69,5.29,5.29,0,0,0-2.11,1.46A5.55,5.55,0,0,0,20,106.69a17.78,17.78,0,0,0-.35,3.79v25.2Z"/><path class="cls-1" d="M117.73,168.87a20.7,20.7,0,0,0,5-2.23,18.9,18.9,0,0,0,3.83-3.14,25.76,25.76,0,0,0,2.84-3.66,29.64,29.64,0,0,0,3.87-10h.6l-2.49,20.46H74.56v-.6a34.52,34.52,0,0,0,5-.3,6.65,6.65,0,0,0,3.22-1.25,5.14,5.14,0,0,0,1.72-2.58,14.75,14.75,0,0,0,.52-4.38V111.6a3,3,0,0,0,0-.52,4.38,4.38,0,0,1,0-.52q0-4.73-1.67-6.49c-1.12-1.17-3.12-1.85-6-2H74.48v-.52H129v18.06h-.6v-.08q-.69-2.83-1.59-5.94a17.58,17.58,0,0,0-2.8-5.63,14.62,14.62,0,0,0-5.16-4.21,18.85,18.85,0,0,0-8.6-1.68H94.08v33.63h12.3a9.87,9.87,0,0,0,5.81-1.68,11.3,11.3,0,0,0,3.18-3.57,11.45,11.45,0,0,0,1.33-3.78,22.31,22.31,0,0,0,.26-2.41V124h.6v24H117v-.25a24.52,24.52,0,0,0-.26-2.5,11.33,11.33,0,0,0-1.37-3.91,10.76,10.76,0,0,0-3.32-3.57,10.37,10.37,0,0,0-6.06-1.55H94.08v23.57a8.71,8.71,0,0,1,.09,1.54,16.6,16.6,0,0,0,.39,4,5.11,5.11,0,0,0,3.65,3.91,13.22,13.22,0,0,0,3.61.56h9.55A21.65,21.65,0,0,0,117.73,168.87Z"/><path class="cls-1" d="M141.47,148.49h.69a20.69,20.69,0,0,0,.43,4,31.53,31.53,0,0,0,1.2,4.39,27.11,27.11,0,0,0,1.89,4.17,12,12,0,0,0,2.5,3.18,20.78,20.78,0,0,0,6.19,3.74,21.4,21.4,0,0,0,7.31,1.42h.77a23.81,23.81,0,0,0,7.31-1.46,14,14,0,0,0,5.85-4.91,12.88,12.88,0,0,0,2.28-6.83,13.32,13.32,0,0,0-2-7.31,17,17,0,0,0-7.05-6.24L158,137.05a31.63,31.63,0,0,1-8.6-6.06,20.33,20.33,0,0,1-4.51-6.8,14.93,14.93,0,0,1-1-6.92,16.07,16.07,0,0,1,2.06-6.45,19,19,0,0,1,4.6-5.33,23.49,23.49,0,0,1,6.58-3.7,15.2,15.2,0,0,1,3.44-.94,22.74,22.74,0,0,1,3.53-.26,21,21,0,0,1,7.74,1.46c.91.34,1.89.69,2.92,1a11.34,11.34,0,0,0,3.1.6,6.29,6.29,0,0,0,2.92-.51,5.48,5.48,0,0,0,2.41-2.32h.6v18.66h-.69a14,14,0,0,0-.55-3.79A21.52,21.52,0,0,0,181,111.9a23.46,23.46,0,0,0-2.15-3.44,20.61,20.61,0,0,0-2.41-2.71,17.22,17.22,0,0,0-5.67-3.4,19.56,19.56,0,0,0-6.71-1.16,20,20,0,0,0-3,.22,17.74,17.74,0,0,0-2.88.64,12.36,12.36,0,0,0-6.15,4.13,8.79,8.79,0,0,0-1.8,6.53c.25,2.47,1.53,5.09,3.82,7.87s5.88,5.55,10.75,8.3l9.89,5.08a24.79,24.79,0,0,1,7.48,5.89,17.94,17.94,0,0,1,3.79,7.09,15.31,15.31,0,0,1,.08,7.4,15.9,15.9,0,0,1-3.56,6.83,23.31,23.31,0,0,1-7.19,5.42,33.53,33.53,0,0,1-10.75,3.14h.18c-.46.06-.88.1-1.25.13s-.76,0-1.16,0h-.86a19.62,19.62,0,0,1-7.48-1.46v0a5.92,5.92,0,0,1-.86-.34,15.72,15.72,0,0,0-5.68-1.33,7.11,7.11,0,0,0-3.31.68,3.56,3.56,0,0,0-1.59,1.55c-.29.6-.46,1-.52,1.16v.09h-.6Z"/><path class="cls-1" d="M237.44,101.36h30v.6h-1.29c-.92.06-2.12.21-3.61.43a14.53,14.53,0,0,0-4.43,1.47,11.05,11.05,0,0,0-3.79,3.18,8.77,8.77,0,0,0-1.59,5.5v37.24a18.29,18.29,0,0,1-1.89,8.21,20.14,20.14,0,0,1-5.5,6.75,26,26,0,0,1-8.09,4.22,31.75,31.75,0,0,1-9.72,1.46H227a29.52,29.52,0,0,1-9.37-1.46,25.06,25.06,0,0,1-7.83-4.22,20.38,20.38,0,0,1-5.55-6.79,20.16,20.16,0,0,1-1.93-9.12V108.16c-.18-2.24-.83-3.8-2-4.69s-3-1.39-5.59-1.51H192v-.68h30v.43l.09.08h-.09V102h-3.53a8.71,8.71,0,0,0-4.64,1.47,6,6,0,0,0-2,4v40.76a28.23,28.23,0,0,0,1.55,9.46,18.42,18.42,0,0,0,4.6,7.31,16.85,16.85,0,0,0,7.44,4.09,20.43,20.43,0,0,0,10.06-.22,25.9,25.9,0,0,0,9.46-4.64,17.76,17.76,0,0,0,5.16-6.28,17,17,0,0,0,2-8.17V112.11a8.49,8.49,0,0,0-1.72-5.33,11.17,11.17,0,0,0-3.78-3,15.64,15.64,0,0,0-4.39-1.38c-1.49-.22-2.67-.37-3.53-.43h-1.29Z"/><path class="cls-1" d="M328.17,170.33H272.71v-.6a33.58,33.58,0,0,0,4.9-.3,6.57,6.57,0,0,0,3.18-1.25,5.14,5.14,0,0,0,1.72-2.58,15.08,15.08,0,0,0,.52-4.38V110.56c0-3.15-.58-5.31-1.72-6.49s-3.16-1.85-6-2h-2.67v-.52h29.93V102h0v.09H299a11.39,11.39,0,0,0-3.18.69,5.36,5.36,0,0,0-2.11,1.46,5.65,5.65,0,0,0-1.16,2.49,17.85,17.85,0,0,0-.34,3.79V161.3a17.21,17.21,0,0,0,.38,4,5.1,5.1,0,0,0,3.66,3.91,13.48,13.48,0,0,0,3.7.56h8.6a21.65,21.65,0,0,0,6.36-.86,20.87,20.87,0,0,0,5-2.23,19.18,19.18,0,0,0,3.83-3.14,26.51,26.51,0,0,0,2.84-3.66,30.83,30.83,0,0,0,3.95-10h.61l-2.5,20.46Z"/><path class="cls-1" d="M395,119.34v-.18q-.69-2.66-1.55-5.54a19.64,19.64,0,0,0-2.54-5.38,14.16,14.16,0,0,0-4.56-4.21,17,17,0,0,0-7.52-2.07h-.78c-2.52.23-4.28.94-5.28,2.11s-1.51,3.26-1.51,6.24v50.82a16.67,16.67,0,0,0,.39,3.91,5.46,5.46,0,0,0,1.29,2.54A5.52,5.52,0,0,0,375.3,169a13.63,13.63,0,0,0,3.62.56h2.66v.6H351.65v-.6a34.52,34.52,0,0,0,5-.3,6.47,6.47,0,0,0,3.18-1.25,5.35,5.35,0,0,0,1.68-2.58,15.18,15.18,0,0,0,.51-4.38V110.39a17.17,17.17,0,0,0-.38-4,5.46,5.46,0,0,0-1.29-2.5,5.2,5.2,0,0,0-2.37-1.37,18.2,18.2,0,0,0-3.61-.61h-.52a16.74,16.74,0,0,0-7.48,2.07,14.8,14.8,0,0,0-4.56,4.21,19.47,19.47,0,0,0-2.58,5.38q-.85,2.88-1.46,5.54v.18h-.6V101.28H395.6v18.06Z"/><path class="cls-1" d="M403.42,148.49h.69a20.69,20.69,0,0,0,.43,4,31.59,31.59,0,0,0,1.21,4.39,25.33,25.33,0,0,0,1.89,4.17,11.81,11.81,0,0,0,2.49,3.18,20.9,20.9,0,0,0,6.19,3.74,21.45,21.45,0,0,0,7.31,1.42h.78a23.87,23.87,0,0,0,7.31-1.46,14.09,14.09,0,0,0,5.85-4.91,12.78,12.78,0,0,0,2.27-6.83,13.23,13.23,0,0,0-2-7.31,17,17,0,0,0-7.05-6.24l-10.83-5.59a31.47,31.47,0,0,1-8.6-6.06,20.37,20.37,0,0,1-4.52-6.8,14.93,14.93,0,0,1-1-6.92,16.09,16.09,0,0,1,2.07-6.45,18.84,18.84,0,0,1,4.6-5.33,23.35,23.35,0,0,1,6.58-3.7,15.06,15.06,0,0,1,3.44-.94,22.61,22.61,0,0,1,3.52-.26,20.91,20.91,0,0,1,7.74,1.46c.92.34,1.89.69,2.93,1a11.27,11.27,0,0,0,3.09.6,6.33,6.33,0,0,0,2.93-.51,5.47,5.47,0,0,0,2.4-2.32h.61v18.66h-.69a14,14,0,0,0-.56-3.79A20.79,20.79,0,0,0,443,111.9a22.64,22.64,0,0,0-2.15-3.44,20.58,20.58,0,0,0-2.4-2.71,17.37,17.37,0,0,0-5.68-3.4,19.52,19.52,0,0,0-6.71-1.16,20,20,0,0,0-3,.22,17.63,17.63,0,0,0-2.89.64,12.44,12.44,0,0,0-6.15,4.13,8.79,8.79,0,0,0-1.8,6.53c.26,2.47,1.53,5.09,3.83,7.87s5.87,5.55,10.75,8.3l9.89,5.08a24.91,24.91,0,0,1,7.48,5.89,18,18,0,0,1,3.78,7.09,15.44,15.44,0,0,1,.09,7.4,16,16,0,0,1-3.57,6.83,23.26,23.26,0,0,1-7.18,5.42,33.61,33.61,0,0,1-10.75,3.14h.17c-.46.06-.87.1-1.25.13s-.76,0-1.16,0h-.86a19.66,19.66,0,0,1-7.48-1.46v0a7,7,0,0,1-.86-.34,15.63,15.63,0,0,0-5.68-1.33,7.14,7.14,0,0,0-3.31.68,3.66,3.66,0,0,0-1.59,1.55,10.52,10.52,0,0,0-.51,1.16v.09h-.61Z"/><path class="cls-1" d="M4.83,41.77h.6a18.13,18.13,0,0,0,.37,3.49,27.29,27.29,0,0,0,1,3.83A23,23,0,0,0,8.5,52.73a10.5,10.5,0,0,0,2.18,2.77,17.92,17.92,0,0,0,5.4,3.26A18.51,18.51,0,0,0,22.45,60h.68a20.62,20.62,0,0,0,6.37-1.27,12.24,12.24,0,0,0,5.1-4.28,11.23,11.23,0,0,0,2-6,11.7,11.7,0,0,0-1.76-6.38,15,15,0,0,0-6.15-5.44L19.23,31.8a27.61,27.61,0,0,1-7.5-5.29,17.79,17.79,0,0,1-3.94-5.92,13,13,0,0,1-.86-6,14.1,14.1,0,0,1,1.8-5.63,16.47,16.47,0,0,1,4-4.65,20.34,20.34,0,0,1,5.74-3.22,13.41,13.41,0,0,1,3-.82A20.63,20.63,0,0,1,24.55,0,18.39,18.39,0,0,1,31.3,1.27q1.2.47,2.55.9a9.94,9.94,0,0,0,2.7.53,5.51,5.51,0,0,0,2.55-.45,4.75,4.75,0,0,0,2.1-2h.53V16.5h-.6a12.33,12.33,0,0,0-.49-3.3,18.67,18.67,0,0,0-1.31-3.34,20.78,20.78,0,0,0-1.88-3,18.53,18.53,0,0,0-2.1-2.36,15,15,0,0,0-5-3,16.82,16.82,0,0,0-5.85-1A19.15,19.15,0,0,0,22,.71a18,18,0,0,0-2.51.56,10.76,10.76,0,0,0-5.36,3.61,7.67,7.67,0,0,0-1.58,5.7,13.36,13.36,0,0,0,3.34,6.86,33.49,33.49,0,0,0,9.38,7.23l8.62,4.43a21.75,21.75,0,0,1,6.53,5.14,15.75,15.75,0,0,1,3.3,6.18,13.45,13.45,0,0,1,.07,6.46,13.94,13.94,0,0,1-3.11,6,20.36,20.36,0,0,1-6.26,4.72A29.28,29.28,0,0,1,25,60.3h.15c-.4.05-.76.09-1.09.11s-.66,0-1,0H22.3a17,17,0,0,1-6.52-1.28v0a4.72,4.72,0,0,1-.75-.29,13.88,13.88,0,0,0-4.95-1.17,6.43,6.43,0,0,0-2.89.6A3.18,3.18,0,0,0,5.8,59.66c-.25.53-.4.86-.45,1v.08H4.83Z"/><path class="cls-1" d="M46.23,60.15,47.54,60a9.16,9.16,0,0,0,2.92-1A15.81,15.81,0,0,0,54,56.33a14.71,14.71,0,0,0,3.22-5.18L77.43.75H78L98.13,51a32.82,32.82,0,0,0,2.47,5.06,10.21,10.21,0,0,0,2.25,2.63,5.2,5.2,0,0,0,2.29,1.05l2.66.41v.52H83.2v-.52c1.8-.1,3.34-.21,4.61-.34a5.15,5.15,0,0,0,2.89-1,3,3,0,0,0,.83-2.66A21,21,0,0,0,90,50.85l-5.55-14H63.55l-5.7,14.18a7.25,7.25,0,0,0-.64,3.78,5,5,0,0,0,1.17,2.55A6.12,6.12,0,0,0,60.59,59a13.45,13.45,0,0,0,2.55.82,12.11,12.11,0,0,0,2.14.3l1,0v.52h-20ZM74.05,10.8,63.78,36.38H84.25Z"/><path class="cls-1" d="M115.68,59.89a5.87,5.87,0,0,0,2.77-1.09,4.49,4.49,0,0,0,1.5-2.25,13.07,13.07,0,0,0,.45-3.82V8.55a14.31,14.31,0,0,0-.34-3.45,4.81,4.81,0,0,0-1.12-2.18,4.69,4.69,0,0,0-2.1-1.19,16.64,16.64,0,0,0-3.19-.53h-2.32V.6h47.55V16.5h-.53v-.15q-.6-2.48-1.39-5.14a15.45,15.45,0,0,0-2.43-4.87A12.94,12.94,0,0,0,150,2.66a16.6,16.6,0,0,0-7.5-1.46h-14.1V30.38h10.72A8.73,8.73,0,0,0,144.21,29,9,9,0,0,0,147,25.88a11.09,11.09,0,0,0,1.16-3.3,15.63,15.63,0,0,0,.27-2.18v-.23h.45V41.1h-.45v-.22a17.35,17.35,0,0,0-.27-2.18,10.3,10.3,0,0,0-1.2-3.37,8.53,8.53,0,0,0-8.13-4.43H128.43V52.8a15,15,0,0,0,.33,3.41A4.42,4.42,0,0,0,132,59.66a12.09,12.09,0,0,0,3.19.49h2.32v.52H111.4v-.52A30.06,30.06,0,0,0,115.68,59.89Z"/><path class="cls-1" d="M200.5,59.55a18.18,18.18,0,0,0,4.39-1.95,16.68,16.68,0,0,0,3.34-2.74,22.2,22.2,0,0,0,2.47-3.19A25.85,25.85,0,0,0,214.08,43h.52l-2.18,17.85H162.85V60.3a30.61,30.61,0,0,0,4.31-.26A6,6,0,0,0,170,59a4.63,4.63,0,0,0,1.5-2.25,13.12,13.12,0,0,0,.44-3.82V9.6a3.4,3.4,0,0,0,0-.45,2.28,2.28,0,0,1,0-.45q0-4.12-1.46-5.66t-5.22-1.77h-2.39V.83h47.55V16.58h-.53V16.5c-.4-1.65-.86-3.38-1.39-5.17A15.4,15.4,0,0,0,206,6.41a12.73,12.73,0,0,0-4.5-3.67A16.43,16.43,0,0,0,194,1.27h-14.1V30.6H190.6a8.59,8.59,0,0,0,5.06-1.46A9.78,9.78,0,0,0,198.44,26a9.94,9.94,0,0,0,1.16-3.29,19.21,19.21,0,0,0,.23-2.11V20.4h.52V41.33h-.52V41.1a21.48,21.48,0,0,0-.23-2.18,9.92,9.92,0,0,0-1.2-3.41,9.42,9.42,0,0,0-2.89-3.11,9,9,0,0,0-5.28-1.35H179.88V51.6A9.57,9.57,0,0,1,180,53a14.31,14.31,0,0,0,.34,3.45,4.39,4.39,0,0,0,3.19,3.41,11.69,11.69,0,0,0,3.14.49H195A19.11,19.11,0,0,0,200.5,59.55Z"/><path class="cls-1" d="M219.33,60.83V60.3h.07a30.61,30.61,0,0,0,4.31-.26A5.7,5.7,0,0,0,226.49,59,4.63,4.63,0,0,0,228,56.7a13.07,13.07,0,0,0,.45-3.82V8.7q0-4.12-1.46-5.66t-5.22-1.77h-2.39V.83H247.9A30.86,30.86,0,0,1,256.6,2a19.46,19.46,0,0,1,6,3.22A12.76,12.76,0,0,1,266,9.86a15.23,15.23,0,0,1,1.16,6,13.46,13.46,0,0,1-4.57,10.72,17.87,17.87,0,0,1-6,3.23,15.73,15.73,0,0,1-3.49.82c-1.22.16-2.51.28-3.86.38a11.6,11.6,0,0,1,3.34,1.57,17.39,17.39,0,0,1,4,4.13l14.1,19.58a7.64,7.64,0,0,0,2.51,2.21,16.12,16.12,0,0,0,2.85,1.2,12.07,12.07,0,0,0,2.44.49c.7.05,1.12.07,1.28.07h.07v.53h-15l-18.3-25.35a18.39,18.39,0,0,0-2.06-2.37,9,9,0,0,0-1.8-1.31,6,6,0,0,0-1.69-.6,9.57,9.57,0,0,0-1.72-.15H236.5V53a14.31,14.31,0,0,0,.34,3.45A4.39,4.39,0,0,0,240,59.81a11.62,11.62,0,0,0,3.14.49h2.33v.53H219.33ZM236.5,30.6h10.8a10.77,10.77,0,0,0,6.3-1.87,12.23,12.23,0,0,0,1.69-1.54A13.41,13.41,0,0,0,256.9,25a19.06,19.06,0,0,0,1.43-4.09,23,23,0,0,0,.52-5q0-6.45-2.77-10.35a10.19,10.19,0,0,0-8.78-4.28h-4.88a10.27,10.27,0,0,0-2.77.61,4.6,4.6,0,0,0-1.84,1.27,4.91,4.91,0,0,0-1,2.18,15.44,15.44,0,0,0-.3,3.29v22Z"/><path class="cls-1" d="M288.46,56.24a6.77,6.77,0,0,1-.79,7.94,7.27,7.27,0,0,1-1.59,1.37,7.13,7.13,0,0,1-1.88.88l-.05-.29a8.15,8.15,0,0,0,1.76-.86,7.19,7.19,0,0,0,1.57-1.34,9.78,9.78,0,0,0,1-1.57,5.35,5.35,0,0,0,.57-2.31c0-.19-.13-.3-.27-.31a1.13,1.13,0,0,0-.54.09,5,5,0,0,0-.66.32,4.45,4.45,0,0,1-.64.3,2.37,2.37,0,0,1-1.13.24,2.86,2.86,0,0,1-2.13-.86,2.9,2.9,0,0,1-.86-2.13,2.85,2.85,0,0,1,.86-2.08,2.9,2.9,0,0,1,2.13-.86v-.05A2.94,2.94,0,0,1,288.46,56.24Z"/><path class="cls-2" d="M62.74,92.84a7.56,7.56,0,0,0,1.76-2c.46-.78.93-1.56,1.43-2.34s1-1.55,1.43-2.33.91-1.56,1.33-2.34,1-1.35,1.49-2.13,1-1.55,1.59-2.33c.36-.5.71-1,1.07-1.54a6.31,6.31,0,0,1,1.22-1.39,3.4,3.4,0,0,1,1.54-.74,3.36,3.36,0,0,1,1.91.27,4.56,4.56,0,0,1,1.22,2.6A26.94,26.94,0,0,1,79.05,82c0,1.21.09,2.41.16,3.62A8,8,0,0,0,80,88.7a6.15,6.15,0,0,0,2.18-1.86l1.76-2.39c.56-.85,1.11-1.72,1.64-2.61a17.43,17.43,0,0,0,1.33-2.71,7,7,0,0,0,.9-1.86,1.4,1.4,0,0,1,1.76-.9,1.81,1.81,0,0,1-.11,2,4.71,4.71,0,0,0-.74,2q-.54,1-1,1.86c-.28.61-.57,1.22-.85,1.86a19.8,19.8,0,0,0-2.12,3.19,11.06,11.06,0,0,1-2.45,3.08,3.67,3.67,0,0,1-1.33.85,3.58,3.58,0,0,1-2,.11,3.83,3.83,0,0,1-2-2,10.76,10.76,0,0,1-.79-3.08A29.31,29.31,0,0,1,76,82.48a19.18,19.18,0,0,0-.32-3.66,1.93,1.93,0,0,0-.9.79,12.64,12.64,0,0,1-.8,1.12c-.78,1.06-1.54,2.19-2.28,3.4s-1.43,2.41-2.07,3.61a34.53,34.53,0,0,0-2.82,4.73,8.85,8.85,0,0,1-3.66,3.88,4.22,4.22,0,0,0-.75.05,2.37,2.37,0,0,1-.85-.05,7.49,7.49,0,0,1-1.06-.53A9.47,9.47,0,0,1,59.08,91q-.16-2.92-.16-6t-.11-6.16q-.11-3.09-.32-5.85a59.41,59.41,0,0,0-3.93,9.14q-1.7,5-3.29,10.41-1.07,3.83-2,7.86c-.6,2.7-1.26,5.46-2,8.29-.15.64-.29,1.28-.43,1.91a8.86,8.86,0,0,1-.58,1.76,4,4,0,0,1-1,1.33,3.1,3.1,0,0,1-1.7.63,2.16,2.16,0,0,1-1.92-1.54,17.23,17.23,0,0,1-.63-2.81,49.77,49.77,0,0,1,0-9.3c.28-3.29.6-6.43,1-9.4s.78-6,1.28-9,1.06-5.9,1.7-8.66c.21-.85.44-1.74.69-2.66a2.06,2.06,0,0,1,1.86-1.59,1.58,1.58,0,0,1,1.22.21,2.11,2.11,0,0,1,.58.85,5.15,5.15,0,0,1-.1,2.34,5.3,5.3,0,0,0-.11,2.34,7.07,7.07,0,0,0,.43,1.8,2.84,2.84,0,0,1,.1,1.7A.71.71,0,0,1,49,79a1.07,1.07,0,0,1-.79-.32q-.86,5.42-1.6,10.73T45.53,100.7q1.8-6.15,3.82-12.85T53.82,75.1c.21-.5.49-1.19.85-2.08A12.41,12.41,0,0,1,56,70.53a6.33,6.33,0,0,1,1.8-1.81,2.23,2.23,0,0,1,2.29,0,2.85,2.85,0,0,1,1.43,1.7,13,13,0,0,1,.69,2.87,25.63,25.63,0,0,1,.21,3.35c0,1.17,0,2.21.11,3.13a54.27,54.27,0,0,1,0,6.75A31.55,31.55,0,0,0,62.74,92.84Z"/><path class="cls-2" d="M95.25,73.4a8.26,8.26,0,0,1,5.69,2.23,10.19,10.19,0,0,1,2.6,5.42c2.27-.43,4.62-.91,7.07-1.44s4.83-1.08,7.17-1.64a7.42,7.42,0,0,0,1.06-.38,8.57,8.57,0,0,1,1.33-.42,3.86,3.86,0,0,1,1.22-.11.88.88,0,0,1,.74.48.65.65,0,0,1-.21.85,4.54,4.54,0,0,1-1.06.58,8.24,8.24,0,0,1-1.38.43c-.5.11-.85.2-1.06.27q-3.4,1-7.18,1.85c-2.51.54-5,1-7.49,1.55a22.38,22.38,0,0,1-.9,7.7,26.9,26.9,0,0,1-2.92,6.53,33.25,33.25,0,0,1-4.09,5.1,11.82,11.82,0,0,1-5.58,3.19H88.67a4.22,4.22,0,0,1-1.81-.8,13.51,13.51,0,0,1-1.38-1.22A9.28,9.28,0,0,1,83.83,99a28,28,0,0,1,0-5.63,54.11,54.11,0,0,1,1-5.74c.43-1.87.82-3.56,1.17-5A4.16,4.16,0,0,1,86,78.71,8.21,8.21,0,0,1,88,76a18.82,18.82,0,0,0,.8-2.23,16.63,16.63,0,0,1,.9-2.45,7.38,7.38,0,0,1,1.33-2,2.73,2.73,0,0,1,2.07-.85,2.07,2.07,0,0,1,2.12,1.54A5.66,5.66,0,0,1,95.25,73.4Zm-5.1,11q-.53,3.08-1.32,6.64a26,26,0,0,0-.59,7.28,10.06,10.06,0,0,0,.37,1.8,2.64,2.64,0,0,0,1,1.38A8.15,8.15,0,0,0,94.51,99c1.2-1.34,2.34-2.72,3.4-4.14a41.87,41.87,0,0,0,2.55-5.15,12.89,12.89,0,0,0,.85-6.22,47.94,47.94,0,0,1-5.42.8A45.81,45.81,0,0,1,90.15,84.45Zm4.68-8.82a3.28,3.28,0,0,0-.21,1.22.72.72,0,0,1-.64.8,1.48,1.48,0,0,1-.48-.06,1.59,1.59,0,0,1-.37-.16A1.92,1.92,0,0,1,93,76a4.34,4.34,0,0,0-.79,1.38,15.71,15.71,0,0,0-.48,1.59,16.56,16.56,0,0,0-.53,1.7c-.15.57-.29,1.14-.43,1.7,2,0,3.83-.07,5.53-.21s3.36-.35,5-.64a8.49,8.49,0,0,0-2-4.2A6.22,6.22,0,0,0,94.83,75.63Z"/><path class="cls-2" d="M137.22,73.18a15.92,15.92,0,0,0-4.94,5.1c-1.24,2.06-2.57,4.11-4,6.17-.56,1.13-1.13,2.26-1.7,3.4a30.84,30.84,0,0,0-1.48,3.5,18.54,18.54,0,0,0-1.6,3.46A3.79,3.79,0,0,1,121,97.3H120a2.58,2.58,0,0,1-.91-.58,5.59,5.59,0,0,1-.69-.9,35.72,35.72,0,0,1-.16-4.36c0-1.56.11-3.14.22-4.73a46.94,46.94,0,0,1,.53-4.67c.25-1.53.51-2.93.79-4.2a15.67,15.67,0,0,1,.64-2.34,2,2,0,0,1,1.7-1.38,1.3,1.3,0,0,1,1.22,1,5.69,5.69,0,0,1,.22,2,20,20,0,0,1-.27,2.34,12.14,12.14,0,0,0-.21,2c-.14,1.41-.27,2.69-.37,3.82s-.23,2.2-.38,3.19c1.21-2,2.66-4.22,4.36-6.7A67.27,67.27,0,0,1,131.91,75a22.27,22.27,0,0,1,1.86-2.07A7.37,7.37,0,0,1,136,71.38a3.13,3.13,0,0,1,2,0,1.63,1.63,0,0,1,1.22,1.17q.21,1.28-.63,1.38A1.18,1.18,0,0,1,137.22,73.18Z"/><path class="cls-2" d="M142.85,82.11A20.06,20.06,0,0,0,141.47,86a17.85,17.85,0,0,0-.64,4.67,8,8,0,0,0,1,4,3.76,3.76,0,0,0,3.4,1.8,10.53,10.53,0,0,0,5.26-1.17q2.49-1.27,4.3-2.44c1.42-1,2.74-2,4-2.92s2.36-1.9,3.35-2.82a57,57,0,0,0,5.26-4.57c1.66-1.62,3.31-3.29,4.94-5a2.59,2.59,0,0,0,.69-.85,10,10,0,0,1,.8-1.17,5.47,5.47,0,0,1,.9-.9.81.81,0,0,1,1-.05c.5.21.6.63.32,1.27a7.35,7.35,0,0,1-.74,1.38,3.92,3.92,0,0,1-.64,1.17,14.16,14.16,0,0,0-.85,1.17,79.07,79.07,0,0,1-5.58,5.84q-2.92,2.77-6,5.53a43.47,43.47,0,0,1-8.93,6.37,21.28,21.28,0,0,1-2.65,1.22,15,15,0,0,1-3.08.86,14.1,14.1,0,0,1-3.25.15,6.43,6.43,0,0,1-3-1,4.91,4.91,0,0,1-1.12-1c-.32-.39-.65-.8-1-1.22a10.23,10.23,0,0,1-1.33-4.52,20.56,20.56,0,0,1,.32-5,32.87,32.87,0,0,1,3-8.81,43.34,43.34,0,0,1,4.25-6.27,12.41,12.41,0,0,1,6.48-4,5.13,5.13,0,0,1,3.56,1,3.63,3.63,0,0,1,1.12,3.4,7,7,0,0,1-1.28,3.18,20.62,20.62,0,0,1-2.23,2.66,23.86,23.86,0,0,1-4.2,3.35A8.79,8.79,0,0,1,142.85,82.11Zm9.88-11.37a11,11,0,0,0-5.63,3.88,38.08,38.08,0,0,0-3.61,5.9,6.6,6.6,0,0,0,3.93-1.07,28,28,0,0,0,2.76-2.23c.78-.85,1.6-1.7,2.44-2.55a4.57,4.57,0,0,0,1.17-3.61A1.15,1.15,0,0,0,152.73,70.74Z"/><path class="cls-2" d="M213.82,85.83a51.08,51.08,0,0,1,6.54-4.68,80.79,80.79,0,0,1,7.49-4c.28-.15.67-.32,1.17-.54s.81,0,.95.54a1,1,0,0,1-.79,1.16c-.61.22-1.05.36-1.33.43-.43.28-.83.53-1.22.74l-1.12.64a61.12,61.12,0,0,0-6.91,4.36,70,70,0,0,0-6.16,5.1c-.49,1.2-1,2.41-1.64,3.61s-1.26,2.37-2,3.51-1.42,2.25-2.12,3.34a13.42,13.42,0,0,1-2.55,2.92,8.16,8.16,0,0,1-1.23.8,2.74,2.74,0,0,1-1.64.27.64.64,0,0,0-.38-.22.59.59,0,0,1-.37-.21,2.77,2.77,0,0,1-.26-2.5,11.6,11.6,0,0,1,1.11-2.17,12.27,12.27,0,0,1,1.28-2,21.87,21.87,0,0,0,1.27-1.81c1-1.2,2-2.39,2.92-3.56s2-2.32,3-3.45c.36-1.13.73-2.27,1.12-3.4a12.45,12.45,0,0,0,.58-4,8.37,8.37,0,0,0-3.24,2.6c-.89,1.17-1.75,2.33-2.6,3.46a77.69,77.69,0,0,0-5.42,10.14,41.44,41.44,0,0,0-3.29,12.7,4.84,4.84,0,0,1-.85,2.45c-.43.49-1.1.49-2,0a5.6,5.6,0,0,1-.91-3c0-1.13,0-2.27,0-3.4s-.09-2.42-.05-3.67.09-2.46.16-3.66q.42-10.73,1.7-20.51A76.8,76.8,0,0,1,199.37,60a15.36,15.36,0,0,0,.64-1.44,9.73,9.73,0,0,1,.74-1.48,2.65,2.65,0,0,1,1.07-1,1.85,1.85,0,0,1,1.59.1c-.14.64-.32,1.39-.53,2.24s-.39,1.52-.53,2V60a23.35,23.35,0,0,0-1.17,4c-.28,1.41-.6,2.87-1,4.35a114.81,114.81,0,0,0-2,14q-.58,7.33-1.12,14.87,1.28-3.08,2.61-6a32.32,32.32,0,0,1,3.13-5.47,31.33,31.33,0,0,1,3.72-5c.71-.7,1.45-1.41,2.23-2.12a5.38,5.38,0,0,1,3.08-1.28,2.22,2.22,0,0,1,1.91,1.07,5.34,5.34,0,0,1,.64,2.23,9.62,9.62,0,0,1-.16,2.65C214.12,84.31,214,85.12,213.82,85.83Zm-9.35,11.79a9.81,9.81,0,0,0-1.8,3.4,34.77,34.77,0,0,0,4.25-6.48Z"/><path class="cls-2" d="M230.08,82.11A20.06,20.06,0,0,0,228.7,86a17.85,17.85,0,0,0-.64,4.67,8,8,0,0,0,1,4,3.76,3.76,0,0,0,3.4,1.8,10.53,10.53,0,0,0,5.26-1.17q2.49-1.27,4.3-2.44,2.11-1.49,4-2.92t3.35-2.82a58.36,58.36,0,0,0,5.26-4.57c1.66-1.62,3.31-3.29,4.94-5a2.59,2.59,0,0,0,.69-.85,10,10,0,0,1,.8-1.17,5.47,5.47,0,0,1,.9-.9.81.81,0,0,1,1-.05c.49.21.6.63.32,1.27a7.26,7.26,0,0,1-.75,1.38,3.68,3.68,0,0,1-.63,1.17,14.16,14.16,0,0,0-.85,1.17,79.07,79.07,0,0,1-5.58,5.84q-2.92,2.77-6,5.53a43.47,43.47,0,0,1-8.93,6.37,20.79,20.79,0,0,1-2.66,1.22,14.65,14.65,0,0,1-3.08.86,14,14,0,0,1-3.24.15,6.43,6.43,0,0,1-3-1,5.08,5.08,0,0,1-1.11-1l-1-1.22A10.23,10.23,0,0,1,225,91.83a20.56,20.56,0,0,1,.32-5,32.87,32.87,0,0,1,3-8.81,43.34,43.34,0,0,1,4.25-6.27,12.41,12.41,0,0,1,6.48-4,5.13,5.13,0,0,1,3.56,1,3.65,3.65,0,0,1,1.12,3.4,7,7,0,0,1-1.28,3.18,20.62,20.62,0,0,1-2.23,2.66,24.62,24.62,0,0,1-4.2,3.35A8.79,8.79,0,0,1,230.08,82.11ZM240,70.74a11,11,0,0,0-5.63,3.88,38.08,38.08,0,0,0-3.61,5.9,6.64,6.64,0,0,0,3.93-1.07,28,28,0,0,0,2.76-2.23c.78-.85,1.59-1.7,2.44-2.55A4.57,4.57,0,0,0,241,71.06,1.16,1.16,0,0,0,240,70.74Z"/><path class="cls-2" d="M273.11,74.46q-2,2.66-3.93,5.74c-1.28,2-2.55,4-3.83,6-.92,1.34-1.88,2.8-2.87,4.35a21.59,21.59,0,0,1-3.4,4.15A7.3,7.3,0,0,1,257.59,96a2.31,2.31,0,0,1-2,.27,2.87,2.87,0,0,1-1.49-2.34,33.05,33.05,0,0,1,2-9.24,42.26,42.26,0,0,1,3.78-7.86c.49-.78,1-1.56,1.64-2.34a5.74,5.74,0,0,1,2-1.7,3,3,0,0,1,3.56.16c1,.81,1.4,2.11,1.11,3.88a6,6,0,0,0,1.23-1.7c.46-.85,1-1.72,1.48-2.61a18.45,18.45,0,0,1,1.7-2.39,3,3,0,0,1,1.86-1.17,2.42,2.42,0,0,1,.75.11l.63.21a4.93,4.93,0,0,1,1.07,2q-.22,6.38-.85,12.06t-1,12.06V97.3c0,.78,0,1.56-.11,2.34a10.52,10.52,0,0,1-.37,2.07c-.18.6-.48.91-.9.91a1.19,1.19,0,0,1-1.12-.7,5.32,5.32,0,0,1-.53-1.7,14,14,0,0,1-.16-2.07,11.14,11.14,0,0,0-.1-1.7,58.65,58.65,0,0,1,.21-11.26Q272.57,79.67,273.11,74.46Zm-7.65.21c0-.07,0-.1-.11-.1a2.56,2.56,0,0,0-.58.26,2.66,2.66,0,0,1-.59.27,21.92,21.92,0,0,0-2.65,3.77,44.07,44.07,0,0,0-2.13,4.3c-.57,1.49-1.11,3.07-1.65,4.73a23.14,23.14,0,0,0-1,5.37,37.44,37.44,0,0,0,5.36-6.86q2.38-3.87,4.84-7.59a4.24,4.24,0,0,1-.54-2.29A1.82,1.82,0,0,0,265.46,74.67Z"/><path class="cls-2" d="M288.41,92.42a2,2,0,0,0,.9-.8c.25-.39.48-.76.69-1.12.78-1,1.54-2,2.29-3.18s1.5-2.2,2.28-3.19c.49-.78,1-1.52,1.49-2.23a20.77,20.77,0,0,1,1.59-2A16.48,16.48,0,0,0,299.46,78,2.81,2.81,0,0,1,302,77a2.67,2.67,0,0,1,1.86.9A6.27,6.27,0,0,1,305,79.82a14.83,14.83,0,0,1,.69,2.5q.27,1.38.48,2.55c.14.71.32,1.47.53,2.29s.46,1.61.75,2.39.6,1.43.95,2.17a2.18,2.18,0,0,0,1.49,1.33,2.1,2.1,0,0,0,1.54-.16A8.59,8.59,0,0,0,313,92a9.7,9.7,0,0,0,1.38-1.17l1-.95a20.21,20.21,0,0,0,2.12-2.24c.64-.77,1.35-1.55,2.13-2.33,1-1.21,2-2.39,3-3.56s2-2.39,3-3.67a7.54,7.54,0,0,0,.86-1.38,1.25,1.25,0,0,1,1.38-.74,1.23,1.23,0,0,1,.37,1.64,8.87,8.87,0,0,1-.91,1.44c-.35.49-.7,1-1.06,1.43s-.67.87-1,1.22q-2.23,2.67-4.68,5.74A43,43,0,0,1,315.4,93a25.39,25.39,0,0,1-3,2.17,4.42,4.42,0,0,1-4.09.06,7.15,7.15,0,0,1-2.5-2.92,21,21,0,0,1-1.44-4c-.35-1.41-.69-2.87-1-4.35a15.44,15.44,0,0,0-1.44-4,5.93,5.93,0,0,0-2,1.7c-.54.71-1.09,1.45-1.65,2.23s-1.08,1.54-1.54,2.28-.94,1.51-1.44,2.29q-1.49,2.34-2.86,4.67a10.21,10.21,0,0,1-3.83,3.72,3,3,0,0,1-2-.21,4.35,4.35,0,0,1-1.32-1.06,13.83,13.83,0,0,1-.85-4.47,44.41,44.41,0,0,1,.1-5.26c.15-1.8.36-3.57.64-5.31s.57-3.34.85-4.83q.1-.75.21-1.65a10.27,10.27,0,0,1,.37-1.75,6,6,0,0,1,.64-1.44,1.48,1.48,0,0,1,1-.69,1.2,1.2,0,0,1,1,.16,2.67,2.67,0,0,1,.53.59,5.85,5.85,0,0,1,.11,2.92,11.32,11.32,0,0,0-.22,3.13q-.53,3.61-.9,7.44T288.41,92.42Z"/><path class="cls-2" d="M332.4,62.77q9.14-.32,19-1a140.16,140.16,0,0,1,19.66.1c.35,0,.74,0,1.17,0a.94.94,0,0,1,.85.59c-.07.57-.34.85-.8.85a6.27,6.27,0,0,1-1.22-.11,192.28,192.28,0,0,0-19.66.16q-9.77.59-19.23,1.12-1.49,8.72-2.71,17.74a131.37,131.37,0,0,0-1.11,18.91c0,.93,0,2,.1,3.09a21.81,21.81,0,0,0,.43,3.18c.14.78.37,1.74.69,2.87s.8,1.74,1.43,1.81a1.43,1.43,0,0,0,1.12-.32,9.57,9.57,0,0,0,1.17-1,12,12,0,0,0,1.06-1.22q.48-.64.69-1a103.53,103.53,0,0,0,7.6-11.31q3.35-5.79,7.06-12.06c.64-1.14,1.31-2.3,2-3.51s1.49-2.41,2.34-3.61A9.19,9.19,0,0,1,355,77a.93.93,0,0,1,1.06-.38c.57.29.67.73.32,1.33a15.72,15.72,0,0,1-.85,1.33q-2.65,4.47-5,9t-5,9c-1,1.63-2,3.28-2.92,4.94s-2,3.32-3,4.94-2.16,3.23-3.29,4.79a11.53,11.53,0,0,1-4.36,3.61,6,6,0,0,1-2.23,0,6.62,6.62,0,0,1-3.67-4,28.92,28.92,0,0,1-1.43-6,46.28,46.28,0,0,1-.53-7.07q0-3.66.21-7.17.54-7.11,1.43-13.76c.61-4.42,1.33-8.66,2.18-12.69-3.25.14-6.57.39-9.93.74s-6.78.6-10.25.74q-.64,0-1.44.06a.78.78,0,0,1-.9-.8.75.75,0,0,1,.85-.85,8.24,8.24,0,0,0,1.49-.11q5-.32,10.2-.85t10.3-.74c.43-1.49.9-3.24,1.44-5.26a44,44,0,0,1,1.85-5.58,8.54,8.54,0,0,1,.8-1.75,1.69,1.69,0,0,1,1.44-1,1.1,1.1,0,0,1,1,.43,1.65,1.65,0,0,1,.21,1,9.9,9.9,0,0,1-.21,1.23q-.17.63-.27,1.17c-.35,1.55-.71,3.17-1.06,4.83S332.75,61.36,332.4,62.77Z"/><path class="cls-2" d="M356.62,76a1.59,1.59,0,0,1,.37,1.17c0,.42-.05.88-.05,1.38-.07,1.2-.09,2.51-.05,3.93s.05,2.8.05,4.14,0,2.66-.05,3.93a4.59,4.59,0,0,1-1.12,3.08h-.85a3.45,3.45,0,0,1-.8-1.64,17.09,17.09,0,0,1-.37-2.39c-.07-1.56-.09-3.19-.05-4.89a45.22,45.22,0,0,1,.37-5c.07-.43.14-.92.21-1.49a6,6,0,0,1,.37-1.49,1.75,1.75,0,0,1,.75-.9A1.2,1.2,0,0,1,356.62,76Zm.53-20.62a2.39,2.39,0,0,1-.85,1.7,1.12,1.12,0,0,1-1.22-.21,1.74,1.74,0,0,1-.43-1,1.35,1.35,0,0,1,.32-1,1.33,1.33,0,0,1,1.22-.32C356.76,54.77,357.08,55.05,357.15,55.33Z"/><path class="cls-2" d="M390.18,52.57c-.36.21-.61.16-.75-.16a2.29,2.29,0,0,0-.42-.69,6.89,6.89,0,0,0-1.22-.9,2.55,2.55,0,0,0-1.86-.27,3.08,3.08,0,0,0-2,1.86q-.86,1.65-1.38,2.82a55.33,55.33,0,0,0-3,9.14c-.82,3.33-1.51,6.58-2.07,9.77q4.24-1.59,9-3.51a65.08,65.08,0,0,1,10.09-3.08,43.83,43.83,0,0,1,5.26-.79,12.22,12.22,0,0,1,5.26.58c.35.14.74.32,1.17.53a1,1,0,0,1,.53,1.17,1.73,1.73,0,0,1-1.91.32,8,8,0,0,0-2.23-.53,12.52,12.52,0,0,0-4.15.26c-1.34.32-2.65.66-3.93,1s-2.5.73-3.66,1.12-2.25.8-3.24,1.22q-3.51,1.17-6.7,2.6t-6.27,3c-.35,2.2-.67,4.46-.95,6.8s-.57,4.75-.85,7.23c-.07.78-.16,1.57-.27,2.39a10.65,10.65,0,0,0-.05,2.39,8.38,8.38,0,0,0,.42,1.75,17.15,17.15,0,0,1,.53,1.75,67.69,67.69,0,0,1,1.7,20.09c0,.77,0,1.57-.1,2.39a10,10,0,0,1-.43,2.23,4,4,0,0,1-.95,1.64,2.3,2.3,0,0,1-1.7.64,2.07,2.07,0,0,1-1.54-.58,4.07,4.07,0,0,1-.91-1.44,10.11,10.11,0,0,1-.48-1.8c-.1-.64-.19-1.24-.26-1.81a61.9,61.9,0,0,1-.9-10.15q-.06-5.25.26-10.67.1-1.07.27-2.13a8.12,8.12,0,0,0,0-2,4.84,4.84,0,0,0-.58-1.7c-.32-.56-.62-1.13-.91-1.7a15.23,15.23,0,0,0-1.86-3.08L365,87.53c-.36-.43-.73-.91-1.12-1.44a2.87,2.87,0,0,1-.58-1.75,3.15,3.15,0,0,1,.42-1.59,6.35,6.35,0,0,1,1.06-1.38,8.57,8.57,0,0,1,1.38-1.12,15.17,15.17,0,0,0,1.28-.9c1-.64,1.93-1.19,2.81-1.65l2.93-1.54c.63-3.47,1.47-7,2.49-10.68a87,87,0,0,1,3.46-10,28,28,0,0,1,2.28-4.14,7.37,7.37,0,0,1,3.45-2.87c0,.07.07,0,.22-.11a3.83,3.83,0,0,1,2.44.48c.57.39,1.13.8,1.7,1.22a6.82,6.82,0,0,0,.9,1.17A1,1,0,0,1,390.18,52.57ZM367.12,84.23a27.88,27.88,0,0,1,2.18,2.45,22.94,22.94,0,0,1,1.86,2.76c.21-1.49.41-3,.58-4.52s.41-3,.69-4.4l-.1-.11c-.92.64-1.84,1.24-2.77,1.81A11.32,11.32,0,0,0,367.12,84.23Z"/><path class="cls-2" d="M399.74,92.42a2,2,0,0,0,.9-.8c.25-.39.48-.76.69-1.12.78-1,1.54-2,2.29-3.18s1.5-2.2,2.28-3.19c.5-.78,1-1.52,1.49-2.23a22.43,22.43,0,0,1,1.59-2A16.48,16.48,0,0,0,410.79,78a2.83,2.83,0,0,1,2.55-1,2.67,2.67,0,0,1,1.86.9,6.27,6.27,0,0,1,1.11,1.91,13.94,13.94,0,0,1,.69,2.5q.27,1.38.48,2.55c.14.71.32,1.47.53,2.29s.46,1.61.75,2.39.6,1.43.95,2.17a2.18,2.18,0,0,0,1.49,1.33,2.1,2.1,0,0,0,1.54-.16,8.59,8.59,0,0,0,1.54-.9,10.37,10.37,0,0,0,1.39-1.17l.95-.95a21.3,21.3,0,0,0,2.13-2.24c.63-.77,1.34-1.55,2.12-2.33,1-1.21,2-2.39,3-3.56s2-2.39,3-3.67a8.15,8.15,0,0,0,.85-1.38,1.25,1.25,0,0,1,1.38-.74,1.23,1.23,0,0,1,.37,1.64,9.67,9.67,0,0,1-.9,1.44c-.36.49-.71,1-1.07,1.43s-.67.87-.95,1.22q-2.24,2.67-4.68,5.74a43,43,0,0,1-5.2,5.53,23.87,23.87,0,0,1-3,2.17,4.42,4.42,0,0,1-4.09.06,7.22,7.22,0,0,1-2.5-2.92,20.28,20.28,0,0,1-1.43-4c-.36-1.41-.69-2.87-1-4.35a15.44,15.44,0,0,0-1.44-4,5.93,5.93,0,0,0-2,1.7l-1.65,2.23c-.57.78-1.08,1.54-1.54,2.28s-.94,1.51-1.43,2.29c-1,1.56-1.95,3.12-2.87,4.67A10.14,10.14,0,0,1,400,96.77a3,3,0,0,1-2-.21,4.39,4.39,0,0,1-1.33-1.06,13.83,13.83,0,0,1-.85-4.47,42.42,42.42,0,0,1,.11-5.26q.21-2.7.63-5.31c.29-1.73.57-3.34.85-4.83q.11-.75.21-1.65a10.29,10.29,0,0,1,.38-1.75,6,6,0,0,1,.63-1.44,1.48,1.48,0,0,1,1-.69,1.19,1.19,0,0,1,1,.16,2.67,2.67,0,0,1,.53.59,5.85,5.85,0,0,1,.11,2.92A11.32,11.32,0,0,0,401,76.9q-.52,3.61-.9,7.44T399.74,92.42Z"/><path class="cls-2" d="M442.67,33.45l.1-.11a1.72,1.72,0,0,1,1.91,1.38,11,11,0,0,1,.32,2.55,46.71,46.71,0,0,1-.37,8.66c-.39,2.8-.73,5.54-1,8.24q-.53,5.52-1.06,11.21t-1,11.42q-.63,10.1-1.38,20.13a189.4,189.4,0,0,0-.32,21.2,12.6,12.6,0,0,0,.11,1.49,13.23,13.23,0,0,1,.1,1.64,4.64,4.64,0,0,1-.21,1.44.83.83,0,0,1-.85.63,1.5,1.5,0,0,1-1.86-1.27,19.56,19.56,0,0,1-.48-2.76c-.14-1.14-.22-2.23-.26-3.3s-.09-2-.16-2.87q.1-3.18,0-6.32t0-6q.1-15.4,1.27-29.27t3-27.79l.64-5.42a20.08,20.08,0,0,0,.26-2.6,3.54,3.54,0,0,1,.91-2.28Z"/></g></g></svg>