<svg xmlns="http://www.w3.org/2000/svg" viewBox="0 0 496 496"><defs><style>.cls-1{fill:#f58320;}</style></defs><g id="Layer_2" data-name="Layer 2"><g id="Layer_1-2" data-name="Layer 1"><path class="cls-1" d="M248,496c137,0,248-111,248-248S385,0,248,0,0,111,0,248,111,496,248,496ZM32,248C32,129.3,128.1,32,248,32c118.7,0,216,96.1,216,216,0,118.7-96.1,216-216,216C129.3,464,32,367.9,32,248Zm224.5-86.6,115,115.1a12,12,0,0,1,0,17l-7.1,7.1a12,12,0,0,1-17,0L248,201l-99.5,99.5a12,12,0,0,1-17,0l-7.1-7.1a12,12,0,0,1,0-17l115-115.1A12.22,12.22,0,0,1,256.5,161.4Z"/></g></g></svg>