<svg xmlns="http://www.w3.org/2000/svg" viewBox="0 0 217.23 50.53"><defs><style>.cls-1{fill:#ff8300;}.cls-2{fill:#53575a;}</style></defs><g id="artwork"><path class="cls-1" d="M219.18,358.67a3.67,3.67,0,0,1,4,3.95,3.47,3.47,0,0,1-3.74,3.67c-2.56,0-4.15-1.52-4.15-3.74a3.74,3.74,0,0,1,3.87-3.88" transform="translate(-182.39 -358.67)"/><path class="cls-2" d="M396.43,406.34h.3c.35,0,.63-.11.63-.39s-.18-.42-.58-.42a2.13,2.13,0,0,0-.35,0Zm0,1.52h-.63v-2.71a7.72,7.72,0,0,1,1-.08,1.44,1.44,0,0,1,.92.21.68.68,0,0,1,.28.58.7.7,0,0,1-.56.65v0c.27.08.4.3.48.66a2.32,2.32,0,0,0,.2.66h-.66a2.42,2.42,0,0,1-.22-.66c0-.28-.21-.41-.56-.41h-.29Zm-1.67-1.4a2.11,2.11,0,0,0,2.11,2.16,2.08,2.08,0,0,0,2.07-2.15,2.09,2.09,0,1,0-4.18,0m4.87,0a2.79,2.79,0,1,1-2.76-2.71,2.72,2.72,0,0,1,2.76,2.71" transform="translate(-182.39 -358.67)"/><path class="cls-2" d="M216.06,388.29a128.58,128.58,0,0,0-.48-13.15,19.23,19.23,0,0,0,3.46.28,19.93,19.93,0,0,0,3.53-.28,107,107,0,0,0-.48,12.25c0,8.73.14,15.72.48,20.92A20,20,0,0,0,219,408a19.33,19.33,0,0,0-3.46.35c.34-4.09.48-10.74.48-20" transform="translate(-182.39 -358.67)"/><path class="cls-2" d="M242.38,388.57c3.4,0,7.83-.07,13.37-.14a19.39,19.39,0,0,0,.14-2c0-5.81-3.25-9.41-8-9.41-5.19,0-8.38,4-8.86,11.56ZM238.85,392c0,9.14,4.23,14.2,11.36,14.2,4.36,0,8-1.67,10.11-4.43l.9.21a27.77,27.77,0,0,0-.55,4,23.15,23.15,0,0,1-12.19,3.19c-10.39,0-16.56-6.37-16.56-17,0-10.87,6.31-17.93,16.08-17.93,9.14,0,14.61,5.61,14.61,15.16a20.75,20.75,0,0,1-.07,2.08c-5.19-.14-10.18-.28-14.89-.28-3.05,0-6,.07-8.8.14Z" transform="translate(-182.39 -358.67)"/><path class="cls-2" d="M271.62,388.36a116.2,116.2,0,0,0-.49-13.22,17.9,17.9,0,0,0,3.33.28,17.41,17.41,0,0,0,3.25-.28c-.06,1.94-.13,3.88-.2,5.95a13.49,13.49,0,0,1,11.84-6.78,11,11,0,0,1,8.39,3.46c2.07,2.49,2.14,5.19,2.14,8.72v10.18c0,3.26,0,7.13.28,11.64a18.68,18.68,0,0,0-3.4-.35,19.43,19.43,0,0,0-3.46.35c.28-6,.48-11.22.48-15.52v-3.53c0-3.6-.13-6.16-1.59-8a7.18,7.18,0,0,0-5.89-2.62c-6.16,0-8.65,4.56-8.65,13.84,0,5.4.13,10.66.34,15.86a18.48,18.48,0,0,0-3.39-.35,19.44,19.44,0,0,0-3.47.35c.42-4.37.49-11,.49-19.95" transform="translate(-182.39 -358.67)"/><path class="cls-2" d="M311.68,373c0-.9-.07-2.63-.27-5.2a27.45,27.45,0,0,0,7-3.18,60.86,60.86,0,0,0-.7,7.82v3.26a49.56,49.56,0,0,0,7.55-.56,13.51,13.51,0,0,0-.13,1.73,15.53,15.53,0,0,0,.13,1.74,47.77,47.77,0,0,0-6.37-.42h-1.24l-.35,17v1.66c0,6.3.9,9.21,5.61,9.21a23.06,23.06,0,0,0,3.11-.34V408a19.14,19.14,0,0,1-6.23,1.11c-6,0-8.59-3.12-8.59-9.77,0-2.77.21-6.37.28-10.8Z" transform="translate(-182.39 -358.67)"/><path class="cls-2" d="M335.42,386.35a81.43,81.43,0,0,0-.55-11.21,21.53,21.53,0,0,0,3.67.28,20.8,20.8,0,0,0,3.6-.28,41.54,41.54,0,0,0-.55,6.16v.83c2.7-5.26,6.16-7.75,10.87-7.75a12.63,12.63,0,0,1,1.59.07,24.57,24.57,0,0,0-.27,3.26,28.45,28.45,0,0,0,.27,3.38,21.89,21.89,0,0,0-4.64-.76,7.27,7.27,0,0,0-5.4,2.35c-2.42,2.7-2.56,5.41-2.56,8.45v7.2q0,4.26.41,10a20,20,0,0,0-3.53-.35,19.33,19.33,0,0,0-3.46.35c.48-3.54.55-10.88.55-22" transform="translate(-182.39 -358.67)"/><path class="cls-2" d="M374.76,391.62c-6.3,1.17-9.28,3.39-9.28,7.41,0,3.74,2.22,6.09,5.61,6.09,4.5,0,7.83-2.91,7.83-8v-6.36Zm-6.37,17.59c-5.75,0-9.56-3.74-9.56-9.07,0-6.72,3.53-8.59,11.29-10.33l6.3-1.38c1.94-.41,2.7-1.32,2.7-3.53,0-4.91-3-7.82-7.82-7.82a8.49,8.49,0,0,0-8.32,5.47l-1.45-.56.35-3.73A15.74,15.74,0,0,1,373,374.17c8.66,0,11.77,3.4,11.77,11v16.41c0,2.84.28,4,3,4,.21,0,.84-.07,2-.07v1.45a15.74,15.74,0,0,1-6.3,1.74c-2.77,0-4.16-1.46-4.57-4.65a13.43,13.43,0,0,1-10.53,5.2" transform="translate(-182.39 -358.67)"/><path class="cls-2" d="M184.82,400.08c1,4.37,3.6,6.38,8.18,6.38,4.78,0,7.48-2.29,7.48-6,0-4.16-3.25-4.64-8.45-6.31-6.17-1.94-9.08-4.36-9.08-9.14,0-6.3,4.85-10.67,12.4-10.67a20.7,20.7,0,0,1,9,2.22c-.62,1.87-1.31,3.87-2,6h-.69c-.56-3.53-2.91-5.4-6.86-5.4s-6.51,2.29-6.51,5.54c0,3.74,3.18,4.36,8.31,5.95,6.31,1.95,9.29,4,9.29,9.36,0,6.79-5.06,11.16-13.72,11.16a22.85,22.85,0,0,1-9.78-2.08c.56-2.29,1.18-4.64,1.81-7Z" transform="translate(-182.39 -358.67)"/></g></svg>