<svg xmlns="http://www.w3.org/2000/svg" viewBox="0 0 179.21 147.99"><defs><style>.cls-1{fill:#ff8300;}.cls-2{fill:#eb008b;}.cls-3{fill:#53575a;}</style></defs><g id="Layer_2" data-name="Layer 2"><g id="Layer_1-2" data-name="Layer 1"><path class="cls-1" d="M54.49,10.23a3.21,3.21,0,1,1-2.63-3.71,3.21,3.21,0,0,1,2.63,3.71"/><path class="cls-1" d="M78.16,3.75A3.21,3.21,0,1,1,75.54.05a3.2,3.2,0,0,1,2.62,3.7"/><path class="cls-1" d="M100.32,3.75A3.21,3.21,0,1,1,97.7.05a3.2,3.2,0,0,1,2.62,3.7"/><path class="cls-1" d="M121.77,11.2a3.21,3.21,0,1,1-2.63-3.7,3.22,3.22,0,0,1,2.63,3.7"/><path class="cls-1" d="M141.73,26a3.21,3.21,0,1,1-2.62-3.7,3.21,3.21,0,0,1,2.62,3.7"/><path class="cls-2" d="M141.11,123a3.21,3.21,0,1,1-2.63-3.71,3.21,3.21,0,0,1,2.63,3.71"/><path class="cls-2" d="M121.14,137.86a3.21,3.21,0,1,1-2.62-3.7,3.2,3.2,0,0,1,2.62,3.7"/><path class="cls-2" d="M99.7,145.32a3.21,3.21,0,1,1-2.62-3.71,3.21,3.21,0,0,1,2.62,3.71"/><path class="cls-2" d="M77.54,145.32a3.21,3.21,0,1,1-2.62-3.71,3.21,3.21,0,0,1,2.62,3.71"/><path class="cls-2" d="M53.86,138.84a3.21,3.21,0,1,1-2.62-3.7,3.19,3.19,0,0,1,2.62,3.7"/><path class="cls-2" d="M33.32,123a3.21,3.21,0,1,1-2.62-3.71A3.19,3.19,0,0,1,33.32,123"/><path class="cls-1" d="M33.67,32.12A3.21,3.21,0,1,1,31,28.41a3.22,3.22,0,0,1,2.63,3.71"/><polygon class="cls-3" points="2.3 83.68 15.58 83.68 15.58 86.99 5.96 86.99 5.96 92.4 15.03 92.4 15.03 95.72 5.96 95.72 5.96 104.26 2.3 104.26 2.3 83.68"/><path class="cls-3" d="M35.47,96.7a8.39,8.39,0,0,1-.64,3.36,7.41,7.41,0,0,1-1.74,2.55,7.85,7.85,0,0,1-2.62,1.61,9.75,9.75,0,0,1-6.57,0,7.89,7.89,0,0,1-2.63-1.61,7.14,7.14,0,0,1-1.74-2.55,8.56,8.56,0,0,1-.63-3.36v-13h3.66V96.59a5.67,5.67,0,0,0,.24,1.58,4.42,4.42,0,0,0,.77,1.53A4.18,4.18,0,0,0,25,100.85a4.81,4.81,0,0,0,2.2.45,4.8,4.8,0,0,0,2.19-.45,4.22,4.22,0,0,0,1.43-1.15,4.79,4.79,0,0,0,.77-1.53,6,6,0,0,0,.23-1.58V83.68h3.66Z"/><polygon class="cls-3" points="39.98 83.68 43.64 83.68 43.64 100.95 52.39 100.95 52.39 104.26 39.98 104.26 39.98 83.68"/><polygon class="cls-3" points="55.07 83.68 58.73 83.68 58.73 100.95 67.49 100.95 67.49 104.26 55.07 104.26 55.07 83.68"/><path class="cls-3" d="M96.21,101a8,8,0,0,1-1.29,1.48,8.3,8.3,0,0,1-1.76,1.21,10.28,10.28,0,0,1-2.14.8,10,10,0,0,1-2.42.28,10.82,10.82,0,0,1-4.26-.81,10.15,10.15,0,0,1-5.66-5.67,12,12,0,0,1,0-8.66A10.15,10.15,0,0,1,84.34,84a10.82,10.82,0,0,1,4.26-.82,10.45,10.45,0,0,1,3.83.76,7.73,7.73,0,0,1,3.29,2.5l-1.83,1.37a5.22,5.22,0,0,0-.88-1,6.56,6.56,0,0,0-1.26-.88,7.61,7.61,0,0,0-1.53-.6,5.68,5.68,0,0,0-1.62-.24,8.4,8.4,0,0,0-3.55.73,7.81,7.81,0,0,0-2.66,2,8.38,8.38,0,0,0-1.67,2.83,10,10,0,0,0,0,6.78,8.38,8.38,0,0,0,1.67,2.83,7.81,7.81,0,0,0,2.66,2,8.4,8.4,0,0,0,3.55.73,8.77,8.77,0,0,0,1.61-.15,7.12,7.12,0,0,0,1.57-.49,6,6,0,0,0,1.45-1,6.61,6.61,0,0,0,1.27-1.5Z"/><rect class="cls-3" x="99.73" y="83.68" width="2.09" height="20.59"/><path class="cls-3" d="M109.5,92.78h3.72a8.52,8.52,0,0,0,2.37-.29,4.55,4.55,0,0,0,1.56-.77,2.74,2.74,0,0,0,.84-1.14,3.87,3.87,0,0,0,0-2.79,2.9,2.9,0,0,0-.84-1.15,4.22,4.22,0,0,0-1.56-.77,9,9,0,0,0-2.37-.27H109.5Zm0,11.48h-2.09V83.68h6.34a8.06,8.06,0,0,1,5,1.36,4.82,4.82,0,0,1,1.82,4.13,5.14,5.14,0,0,1-1.35,3.62,5.79,5.79,0,0,1-3.91,1.7l5.93,9.77h-2.56L113,94.69H109.5Z"/><path class="cls-3" d="M141.6,101a8.4,8.4,0,0,1-1.29,1.48,8.56,8.56,0,0,1-1.76,1.21,10.28,10.28,0,0,1-2.14.8,10,10,0,0,1-2.43.28,10.89,10.89,0,0,1-4.26-.81,10.4,10.4,0,0,1-3.4-2.25,10.28,10.28,0,0,1-2.25-3.42,11.84,11.84,0,0,1,0-8.66,10.28,10.28,0,0,1,2.25-3.42,10.4,10.4,0,0,1,3.4-2.25,10.89,10.89,0,0,1,4.26-.82,10.5,10.5,0,0,1,3.84.76,7.79,7.79,0,0,1,3.29,2.5l-1.83,1.37a5.22,5.22,0,0,0-.88-1,6.89,6.89,0,0,0-1.26-.88,7.85,7.85,0,0,0-1.53-.6,5.69,5.69,0,0,0-1.63-.24,8.36,8.36,0,0,0-3.54.73,8,8,0,0,0-2.67,2,8.72,8.72,0,0,0-1.67,2.83,10.2,10.2,0,0,0,0,6.78,8.72,8.72,0,0,0,1.67,2.83,8,8,0,0,0,2.67,2,8.36,8.36,0,0,0,3.54.73,8.8,8.8,0,0,0,1.62-.15,7.12,7.12,0,0,0,1.57-.49,6.24,6.24,0,0,0,1.45-1,6.61,6.61,0,0,0,1.27-1.5Z"/><polygon class="cls-3" points="147.21 102.34 156.81 102.34 156.81 104.26 145.12 104.26 145.12 83.68 147.21 83.68 147.21 102.34"/><polygon class="cls-3" points="161.75 102.34 172.77 102.34 172.77 104.26 159.66 104.26 159.66 83.68 172.42 83.68 172.42 85.6 161.75 85.6 161.75 92.6 171.73 92.6 171.73 94.52 161.75 94.52 161.75 102.34"/><path class="cls-3" d="M2,62.68C2.87,66.3,5,68,8.77,68c4,0,6.19-1.89,6.19-5,0-3.44-2.69-3.84-7-5.22C2.87,56.15.46,54.14.46,50.19c0-5.21,4-8.82,10.26-8.82a17.1,17.1,0,0,1,7.45,1.83c-.51,1.55-1.09,3.21-1.66,5h-.57c-.46-2.92-2.41-4.46-5.68-4.46s-5.39,1.89-5.39,4.57c0,3.1,2.64,3.62,6.89,4.93C17,54.83,19.43,56.5,19.43,61c0,5.62-4.18,9.23-11.35,9.23A18.89,18.89,0,0,1,0,68.47c.46-1.89,1-3.84,1.49-5.79Z"/><path class="cls-3" d="M27.86,52.94a103.33,103.33,0,0,0-.4-10.88,16.34,16.34,0,0,0,2.87.23,16.91,16.91,0,0,0,2.92-.23,87.75,87.75,0,0,0-.4,10.13c0,7.23.11,13,.4,17.32a16.06,16.06,0,0,0-2.92-.29,15.52,15.52,0,0,0-2.87.29c.29-3.38.4-8.89.4-16.57"/><path class="cls-3" d="M49.64,53.17c2.82,0,6.49-.06,11.08-.11.05-.52.11-1.16.11-1.67,0-4.81-2.69-7.79-6.6-7.79-4.29,0-6.93,3.32-7.33,9.57ZM46.72,56c0,7.57,3.5,11.76,9.41,11.76a10.33,10.33,0,0,0,8.37-3.67l.74.17a25,25,0,0,0-.46,3.33,19.26,19.26,0,0,1-10.09,2.63c-8.6,0-13.7-5.27-13.7-14,0-9,5.22-14.84,13.31-14.84,7.56,0,12.09,4.64,12.09,12.54a16.67,16.67,0,0,1-.06,1.73C62,55.52,57.9,55.4,54,55.4c-2.53,0-4.94.06-7.29.12Z"/><path class="cls-3" d="M73.85,53a97.58,97.58,0,0,0-.4-11,14.27,14.27,0,0,0,2.75.24,13.93,13.93,0,0,0,2.69-.24c0,1.61-.11,3.21-.17,4.93a11.18,11.18,0,0,1,9.81-5.61,9.08,9.08,0,0,1,6.94,2.86c1.71,2.06,1.77,4.3,1.77,7.22v8.42c0,2.7,0,5.91.23,9.64a14.89,14.89,0,0,0-2.81-.29,15.61,15.61,0,0,0-2.87.29c.23-5,.4-9.29.4-12.85V53.74c0-3-.11-5.1-1.31-6.65A6,6,0,0,0,86,44.92c-5.1,0-7.16,3.78-7.16,11.46,0,4.47.11,8.83.29,13.13a15,15,0,0,0-2.81-.29,15.43,15.43,0,0,0-2.87.29c.34-3.62.4-9.12.4-16.51"/><path class="cls-3" d="M107,40.28c0-.75-.05-2.18-.22-4.3a22.82,22.82,0,0,0,5.79-2.64,51.55,51.55,0,0,0-.58,6.48v2.7a42.53,42.53,0,0,0,6.26-.46,9.19,9.19,0,0,0-.12,1.43,10.47,10.47,0,0,0,.12,1.43,40,40,0,0,0-5.28-.34h-1l-.29,14V60c0,5.22.74,7.63,4.65,7.63a18.5,18.5,0,0,0,2.57-.29v2a15.79,15.79,0,0,1-5.16.91c-4.93,0-7.1-2.57-7.1-8.08,0-2.29.17-5.27.22-8.94Z"/><path class="cls-3" d="M126.66,51.33a68,68,0,0,0-.45-9.27,18.19,18.19,0,0,0,3,.23,17.72,17.72,0,0,0,3-.23,33.12,33.12,0,0,0-.46,5.09v.69c2.23-4.35,5.1-6.41,9-6.41a12.19,12.19,0,0,1,1.32,0,19.64,19.64,0,0,0-.24,2.7,22.85,22.85,0,0,0,.24,2.8,18.17,18.17,0,0,0-3.84-.63,6,6,0,0,0-4.48,1.95c-2,2.23-2.12,4.47-2.12,7v6c0,2.35.12,5.1.34,8.26a16.06,16.06,0,0,0-2.92-.29,15.41,15.41,0,0,0-2.86.29c.4-2.93.45-9,.45-18.18"/><path class="cls-3" d="M159.23,55.69c-5.22,1-7.69,2.81-7.69,6.13,0,3.1,1.84,5.05,4.65,5.05,3.72,0,6.48-2.41,6.48-6.6V55ZM154,70.25c-4.76,0-7.91-3.1-7.91-7.51,0-5.56,2.92-7.11,9.34-8.54l5.22-1.15c1.61-.34,2.24-1.09,2.24-2.92,0-4.07-2.47-6.47-6.48-6.47a7,7,0,0,0-6.88,4.52l-1.21-.46.29-3.09a13,13,0,0,1,9.23-3.38c7.17,0,9.75,2.81,9.75,9.11V63.94c0,2.36.23,3.27,2.46,3.27.17,0,.69-.06,1.66-.06v1.21a12.94,12.94,0,0,1-5.21,1.43c-2.29,0-3.44-1.2-3.78-3.84a11.16,11.16,0,0,1-8.72,4.3"/><path class="cls-3" d="M176.58,68h.24c.29,0,.52-.09.52-.32s-.15-.35-.48-.35a1.37,1.37,0,0,0-.28,0Zm0,1.26H176V67a5.69,5.69,0,0,1,.86-.07,1.19,1.19,0,0,1,.77.18.55.55,0,0,1,.23.48.57.57,0,0,1-.46.53v0a.62.62,0,0,1,.39.54,1.91,1.91,0,0,0,.17.55h-.55a1.7,1.7,0,0,1-.18-.55c0-.23-.17-.34-.46-.34h-.25Zm-1.38-1.16a1.74,1.74,0,0,0,1.75,1.79,1.72,1.72,0,0,0,1.71-1.78,1.73,1.73,0,1,0-3.46,0m4,0a2.3,2.3,0,1,1-2.28-2.24,2.26,2.26,0,0,1,2.28,2.24"/></g></g></svg>