<svg xmlns="http://www.w3.org/2000/svg" xmlns:xlink="http://www.w3.org/1999/xlink" viewBox="0 0 270.2 71.02"><defs><style>.cls-1{fill:none;}.cls-2{fill:#53575a;}.cls-3{clip-path:url(#clip-path);}.cls-4{fill:#ff8300;}</style><clipPath id="clip-path" transform="translate(0 0)"><rect class="cls-1" width="270.2" height="38.11"/></clipPath></defs><g id="Layer_2" data-name="Layer 2"><g id="Layer_1-2" data-name="Layer 1"><rect class="cls-2" x="173.88" y="12.59" width="0.21" height="24.23"/><g class="cls-3"><path class="cls-4" d="M28.07,0a2.8,2.8,0,0,1,3.07,3,2.66,2.66,0,0,1-2.86,2.8c-2,0-3.17-1.16-3.17-2.85a2.86,2.86,0,0,1,3-3" transform="translate(0 0)"/><path class="cls-2" d="M163.31,36.37h.23c.26,0,.48-.09.48-.3s-.14-.32-.44-.32a.82.82,0,0,0-.27,0Zm0,1.16h-.48V35.46a6.56,6.56,0,0,1,.79-.06,1.13,1.13,0,0,1,.71.16.51.51,0,0,1,.21.44.53.53,0,0,1-.42.5v0c.2.06.3.23.36.5a1.74,1.74,0,0,0,.15.51h-.5A1.92,1.92,0,0,1,164,37c0-.21-.16-.31-.42-.31h-.23ZM162,36.46a1.6,1.6,0,1,0,1.58-1.65A1.61,1.61,0,0,0,162,36.46m3.71,0a2.12,2.12,0,1,1-2.1-2.07,2.08,2.08,0,0,1,2.1,2.07" transform="translate(0 0)"/><path class="cls-2" d="M25.69,22.59a96,96,0,0,0-.37-10,14.7,14.7,0,0,0,2.64.22,15.37,15.37,0,0,0,2.7-.22,80.89,80.89,0,0,0-.37,9.35c0,6.66.1,12,.37,16A15.45,15.45,0,0,0,28,37.6a14.78,14.78,0,0,0-2.64.27c.26-3.12.37-8.2.37-15.28" transform="translate(0 0)"/><path class="cls-2" d="M45.77,22.81c2.59,0,6-.06,10.2-.11.05-.47.11-1.06.11-1.53C56.08,16.73,53.59,14,50,14c-4,0-6.39,3.06-6.77,8.82Zm-2.69,2.64c0,7,3.22,10.83,8.66,10.83a9.53,9.53,0,0,0,7.72-3.38l.69.16a21.83,21.83,0,0,0-.43,3.07,17.72,17.72,0,0,1-9.3,2.43c-7.93,0-12.63-4.87-12.63-13,0-8.3,4.81-13.68,12.26-13.68,7,0,11.15,4.28,11.15,11.56,0,.53,0,1.06-.05,1.59-4-.11-7.77-.21-11.36-.21-2.33,0-4.55.05-6.71.1Z" transform="translate(0 0)"/><path class="cls-2" d="M68.08,22.65a89.64,89.64,0,0,0-.37-10.09,13.62,13.62,0,0,0,2.54.22,13.36,13.36,0,0,0,2.48-.22c0,1.48-.1,3-.16,4.54a10.31,10.31,0,0,1,9-5.17A8.39,8.39,0,0,1,88,14.57c1.58,1.9,1.63,4,1.63,6.65V29c0,2.49,0,5.44.21,8.88a14.14,14.14,0,0,0-2.59-.27,14.87,14.87,0,0,0-2.64.27c.21-4.6.37-8.56.37-11.84v-2.7c0-2.74-.1-4.7-1.21-6.12a5.49,5.49,0,0,0-4.5-2c-4.7,0-6.6,3.48-6.6,10.56,0,4.12.1,8.14.26,12.1a14.14,14.14,0,0,0-2.59-.27,14.87,14.87,0,0,0-2.64.27c.32-3.33.37-8.4.37-15.22" transform="translate(0 0)"/><path class="cls-2" d="M98.65,10.93c0-.69-.05-2-.21-4a20.66,20.66,0,0,0,5.34-2.43,47.12,47.12,0,0,0-.53,6V13a37.55,37.55,0,0,0,5.76-.43,9.27,9.27,0,0,0-.11,1.32,10.66,10.66,0,0,0,.11,1.33,37.19,37.19,0,0,0-4.86-.32h-1l-.27,12.94v1.26c0,4.81.69,7,4.28,7a16.68,16.68,0,0,0,2.38-.27v1.8a14.63,14.63,0,0,1-4.76.84c-4.54,0-6.55-2.37-6.55-7.45,0-2.11.16-4.86.21-8.24Z" transform="translate(0 0)"/><path class="cls-2" d="M116.76,21.12a62.15,62.15,0,0,0-.42-8.56,16.43,16.43,0,0,0,2.8.22,15.94,15.94,0,0,0,2.75-.22,30.39,30.39,0,0,0-.42,4.7v.63c2-4,4.7-5.91,8.29-5.91A8.73,8.73,0,0,1,131,12a18,18,0,0,0-.22,2.48A21.06,21.06,0,0,0,131,17.1a16.65,16.65,0,0,0-3.54-.58,5.57,5.57,0,0,0-4.13,1.8c-1.84,2.06-2,4.12-2,6.44v5.5c0,2.16.11,4.7.31,7.61A15.24,15.24,0,0,0,119,37.6a14.78,14.78,0,0,0-2.64.27c.37-2.7.42-8.3.42-16.75" transform="translate(0 0)"/><path class="cls-2" d="M146.78,25.13c-4.81.9-7.08,2.59-7.08,5.66,0,2.85,1.69,4.65,4.27,4.65a5.66,5.66,0,0,0,6-6.08V24.5Zm-4.87,13.43c-4.38,0-7.29-2.86-7.29-6.93,0-5.12,2.7-6.55,8.61-7.87L148,22.71c1.48-.32,2.07-1,2.07-2.7,0-3.75-2.28-6-6-6a6.47,6.47,0,0,0-6.35,4.17l-1.11-.43.27-2.84a12,12,0,0,1,8.51-3.12c6.6,0,9,2.6,9,8.4V32.74c0,2.17.21,3,2.27,3,.16,0,.64-.06,1.53-.06v1.11a11.94,11.94,0,0,1-4.8,1.32c-2.12,0-3.18-1.11-3.49-3.54a10.28,10.28,0,0,1-8,4" transform="translate(0 0)"/><path class="cls-2" d="M1.85,31.59c.79,3.33,2.75,4.87,6.24,4.87,3.65,0,5.71-1.75,5.71-4.6,0-3.18-2.48-3.55-6.45-4.82-4.71-1.48-6.93-3.33-6.93-7,0-4.81,3.7-8.14,9.47-8.14a15.84,15.84,0,0,1,6.87,1.69c-.47,1.43-1,3-1.53,4.6H14.7c-.42-2.7-2.22-4.12-5.23-4.12s-5,1.74-5,4.22c0,2.85,2.43,3.33,6.34,4.55,4.81,1.48,7.09,3,7.09,7.13,0,5.19-3.86,8.52-10.47,8.52A17.42,17.42,0,0,1,0,36.93c.42-1.74.9-3.54,1.38-5.34Z" transform="translate(0 0)"/><path class="cls-4" d="M208.57,24.16a13.18,13.18,0,1,1-13.18-13.11,13,13,0,0,1,13.18,13.11m-1.75,0a11.43,11.43,0,1,0-22.85,0,11.43,11.43,0,1,0,22.85,0" transform="translate(0 0)"/><path class="cls-4" d="M214.22,24.73V36.8h-1.68V11.4h8c4.15,0,7.43,2.28,7.43,6.63s-3,6.7-7.39,6.7Zm0-1.52h6.47c3.32,0,5.56-1.95,5.56-5.15s-2.13-5.14-5.82-5.14h-6.21Z" transform="translate(0 0)"/><path class="cls-4" d="M232.54,11.4V27.28c0,2.4.12,4,1.07,5.49a7.42,7.42,0,0,0,11.81,0c1-1.53,1.06-3.09,1.06-5.49V11.4h1.68V27.28c0,2.78-.15,4.61-1.45,6.52a9.29,9.29,0,0,1-14.4,0c-1.29-1.91-1.44-3.74-1.44-6.52V11.4Z" transform="translate(0 0)"/><path class="cls-4" d="M263.17,15.7a5.42,5.42,0,0,0-5-3.12,4.51,4.51,0,0,0-4.72,4.72c0,2.74,1.9,3.66,4.45,4.92A36.48,36.48,0,0,1,263,24.88a5.6,5.6,0,0,1,2.7,4.92c0,4.26-3.58,7.42-7.92,7.42a7.25,7.25,0,0,1-5.9-2.66,8.44,8.44,0,0,1-1.64-2.78l1.45-.69A8.8,8.8,0,0,0,253,33.53a6.1,6.1,0,0,0,4.76,2.17,5.9,5.9,0,0,0,6.13-5.87,4.48,4.48,0,0,0-2.47-4c-.73-.41-2.21-1.18-4.31-2.2-2.51-1.22-3.77-1.91-4.65-3.36a5.45,5.45,0,0,1-.8-2.89,6.17,6.17,0,0,1,6.52-6.33,6.82,6.82,0,0,1,6.17,3.62Z" transform="translate(0 0)"/><path class="cls-4" d="M269.57,15.42a2.09,2.09,0,0,1-1.54.64,2.06,2.06,0,0,1-1.54-.64,2.11,2.11,0,0,1-.63-1.54A2.19,2.19,0,0,1,268,11.71a2.18,2.18,0,0,1,1.54,3.71m-2.86-2.86a1.77,1.77,0,0,0-.55,1.32A1.88,1.88,0,0,0,268,15.77a1.78,1.78,0,0,0,1.32-.56,1.82,1.82,0,0,0,.54-1.33A1.86,1.86,0,0,0,268,12a1.77,1.77,0,0,0-1.32.55m1.27.12a1.79,1.79,0,0,1,.66.09.59.59,0,0,1,.37.6.52.52,0,0,1-.24.47.84.84,0,0,1-.34.12.56.56,0,0,1,.41.23.72.72,0,0,1,.13.37v.35c0,.07,0,.11,0,.13l0,0h-.39v0s0,0,0,0v-.27a.59.59,0,0,0-.23-.55,1,1,0,0,0-.47-.07h-.33v.94h-.42V12.68Zm.46.38a1.11,1.11,0,0,0-.51-.09h-.36v.86H268a1.3,1.3,0,0,0,.4-.05.37.37,0,0,0,.25-.37.35.35,0,0,0-.16-.35" transform="translate(0 0)"/></g><path class="cls-2" d="M29.5,64.49a3.13,3.13,0,0,0,1.23,1.22,3.58,3.58,0,0,0,1.72.4,3.52,3.52,0,0,0,1.13-.18,2.79,2.79,0,0,0,.91-.51,2.33,2.33,0,0,0,.85-1.84,2.06,2.06,0,0,0-.28-1.1,2.19,2.19,0,0,0-.76-.72,5.16,5.16,0,0,0-1.06-.48c-.39-.14-.8-.27-1.22-.4s-.82-.29-1.22-.46a4.29,4.29,0,0,1-1.06-.66,2.92,2.92,0,0,1-.75-1,3.62,3.62,0,0,1-.28-1.52A3.19,3.19,0,0,1,30,54.58a3.92,3.92,0,0,1,1.32-.67,5.3,5.3,0,0,1,1.56-.23,5,5,0,0,1,2,.37,3.79,3.79,0,0,1,1.56,1.25l-1,.74a3.07,3.07,0,0,0-1.06-.95,3.13,3.13,0,0,0-1.45-.32,4.13,4.13,0,0,0-1.11.15,2.89,2.89,0,0,0-.91.46,2.19,2.19,0,0,0-.87,1.83,2.11,2.11,0,0,0,.49,1.48,3.56,3.56,0,0,0,1.23.81,12.5,12.5,0,0,0,1.6.53,7.81,7.81,0,0,1,1.6.61,3.48,3.48,0,0,1,1.23,1.06,3.23,3.23,0,0,1,.49,1.88,3.47,3.47,0,0,1-.33,1.55,3.29,3.29,0,0,1-.88,1.13,3.71,3.71,0,0,1-1.28.7,4.82,4.82,0,0,1-1.51.24,6,6,0,0,1-2.35-.45,4.26,4.26,0,0,1-1.83-1.49Z" transform="translate(0 0)"/><path class="cls-2" d="M38.5,55.15a.78.78,0,0,1,.24-.58.77.77,0,0,1,.58-.24.82.82,0,0,1,.82.82.77.77,0,0,1-.24.58.78.78,0,0,1-.58.24.82.82,0,0,1-.82-.82Zm.27,3.33h1.09v8.39H38.77Z" transform="translate(0 0)"/><path class="cls-2" d="M42.79,53.13h1.09V66.87H42.79Z" transform="translate(0 0)"/><path class="cls-2" d="M46.55,55.15a.78.78,0,0,1,.24-.58.77.77,0,0,1,.58-.24.78.78,0,0,1,.58.24.78.78,0,0,1,.23.58.76.76,0,0,1-.23.58.78.78,0,0,1-.58.24.82.82,0,0,1-.82-.82Zm.27,3.33h1.09v8.39H46.82Z" transform="translate(0 0)"/><path class="cls-2" d="M57.69,65.64a4,4,0,0,1-1.4,1.1,4.12,4.12,0,0,1-1.69.35,4.7,4.7,0,0,1-1.78-.33,4,4,0,0,1-1.4-.91,4.29,4.29,0,0,1-.91-1.4,4.94,4.94,0,0,1,0-3.55,4.29,4.29,0,0,1,.91-1.4,4,4,0,0,1,1.4-.91,4.7,4.7,0,0,1,1.78-.33,4,4,0,0,1,1.72.38,4.79,4.79,0,0,1,1.41,1.07l-.88.66a3.8,3.8,0,0,0-1-.83,2.56,2.56,0,0,0-1.22-.3,3.4,3.4,0,0,0-1.38.27,3.32,3.32,0,0,0-1.06.74,3.1,3.1,0,0,0-.66,1.09,4,4,0,0,0,0,2.67,3.1,3.1,0,0,0,.66,1.09,3.48,3.48,0,0,0,1.06.74,3.4,3.4,0,0,0,1.38.27,2.56,2.56,0,0,0,1.26-.32,3.31,3.31,0,0,0,1-.84Z" transform="translate(0 0)"/><path class="cls-2" d="M58.58,62.67a4.65,4.65,0,0,1,.33-1.77,4.26,4.26,0,0,1,.9-1.4,4,4,0,0,1,1.4-.91A4.74,4.74,0,0,1,63,58.26a4.66,4.66,0,0,1,1.78.33,4,4,0,0,1,2.31,2.31,4.94,4.94,0,0,1,0,3.55,4,4,0,0,1-2.31,2.31,4.66,4.66,0,0,1-1.78.33,4.74,4.74,0,0,1-1.78-.33,4,4,0,0,1-1.4-.91,4.26,4.26,0,0,1-.9-1.4A4.66,4.66,0,0,1,58.58,62.67Zm1.09,0A3.7,3.7,0,0,0,59.9,64a3.1,3.1,0,0,0,.66,1.09,3.32,3.32,0,0,0,1,.74,3.69,3.69,0,0,0,2.77,0,3.32,3.32,0,0,0,1.05-.74A3.1,3.1,0,0,0,66.09,64a4,4,0,0,0,0-2.67,3.1,3.1,0,0,0-.66-1.09,3.17,3.17,0,0,0-1.05-.74,3.69,3.69,0,0,0-2.77,0,3.17,3.17,0,0,0-1,.74,3.1,3.1,0,0,0-.66,1.09A3.68,3.68,0,0,0,59.67,62.67Z" transform="translate(0 0)"/><path class="cls-2" d="M69.48,60.84c0-.16,0-.35,0-.57s0-.45,0-.68,0-.45,0-.65,0-.35,0-.46h1.09l0,.91a2.86,2.86,0,0,0,0,.56h.06a2.93,2.93,0,0,1,1.09-1.19,3.2,3.2,0,0,1,1.78-.5,3.54,3.54,0,0,1,1.6.31,2.5,2.5,0,0,1,1,.81,2.91,2.91,0,0,1,.49,1.15,6.72,6.72,0,0,1,.14,1.35v5H75.59V61.93a5.36,5.36,0,0,0-.09-1,2.6,2.6,0,0,0-.32-.86,1.57,1.57,0,0,0-.64-.61,2.16,2.16,0,0,0-1.06-.23,3.12,3.12,0,0,0-1.14.21,2.43,2.43,0,0,0-.92.64,3,3,0,0,0-.62,1.07,4.57,4.57,0,0,0-.23,1.51v4.2H69.48Z" transform="translate(0 0)"/><path class="cls-2" d="M86.64,65.29a3.71,3.71,0,0,1-1.58,1.38,5,5,0,0,1-2.06.42,4.42,4.42,0,0,1-1.74-.33,3.93,3.93,0,0,1-1.35-.91,4.17,4.17,0,0,1-.86-1.4,5.13,5.13,0,0,1-.3-1.79,4.77,4.77,0,0,1,.31-1.75,4.25,4.25,0,0,1,.87-1.39,4.12,4.12,0,0,1,1.33-.92A4.05,4.05,0,0,1,83,58.26a4,4,0,0,1,1.7.34,3.61,3.61,0,0,1,1.23.89,3.7,3.7,0,0,1,.76,1.26,4.18,4.18,0,0,1,.25,1.43V63h-7a3.82,3.82,0,0,0,.14.88,2.93,2.93,0,0,0,.5,1,3.19,3.19,0,0,0,1,.88,3,3,0,0,0,1.57.36,3.47,3.47,0,0,0,1.62-.4,3,3,0,0,0,1.2-1.09ZM85.8,62a2.52,2.52,0,0,0-.23-1.06,2.75,2.75,0,0,0-.61-.86,2.89,2.89,0,0,0-.93-.59,2.93,2.93,0,0,0-1.14-.22,2.82,2.82,0,0,0-1.48.36,3.31,3.31,0,0,0-.93.84,3.06,3.06,0,0,0-.49.92,2.3,2.3,0,0,0-.15.61Z" transform="translate(0 0)"/><path class="cls-2" d="M104.26,66a8.64,8.64,0,0,1-2.33.9,12,12,0,0,1-2.46.26,7.09,7.09,0,0,1-2.7-.5,6,6,0,0,1-2.1-1.4,6.31,6.31,0,0,1-1.36-2.14,7.62,7.62,0,0,1,0-5.43,6.37,6.37,0,0,1,1.36-2.13,6.16,6.16,0,0,1,2.1-1.41,6.91,6.91,0,0,1,2.7-.51,6.22,6.22,0,0,1,4.63,1.78l-.87.91a4.21,4.21,0,0,0-1.65-1.15,6,6,0,0,0-1-.33,5,5,0,0,0-1.07-.12,5.71,5.71,0,0,0-2.27.44,5.12,5.12,0,0,0-2.8,3A6.35,6.35,0,0,0,94,60.44a6.26,6.26,0,0,0,.39,2.23,5.06,5.06,0,0,0,1.09,1.8,5,5,0,0,0,1.71,1.2,5.71,5.71,0,0,0,2.27.44,11.9,11.9,0,0,0,1.94-.16,4.93,4.93,0,0,0,1.65-.6V61H100V59.93h4.29Z" transform="translate(0 0)"/><path class="cls-2" d="M114.55,65.29A3.75,3.75,0,0,1,113,66.67a5,5,0,0,1-2.07.42,4.42,4.42,0,0,1-1.74-.33,3.79,3.79,0,0,1-1.34-.91,4,4,0,0,1-.87-1.4,5.13,5.13,0,0,1-.3-1.79,4.77,4.77,0,0,1,.31-1.75,4.42,4.42,0,0,1,.87-1.39,4.12,4.12,0,0,1,1.33-.92,4.05,4.05,0,0,1,1.69-.34,4,4,0,0,1,1.7.34,3.61,3.61,0,0,1,1.23.89,3.7,3.7,0,0,1,.76,1.26,4.18,4.18,0,0,1,.25,1.43V63h-7a3.82,3.82,0,0,0,.14.88,3.11,3.11,0,0,0,.5,1,3.19,3.19,0,0,0,1,.88,3.07,3.07,0,0,0,1.57.36,3.47,3.47,0,0,0,1.62-.4,3,3,0,0,0,1.2-1.09ZM113.71,62a2.52,2.52,0,0,0-.22-1.06,3,3,0,0,0-.62-.86,2.79,2.79,0,0,0-.93-.59,2.88,2.88,0,0,0-1.13-.22,2.83,2.83,0,0,0-1.49.36,3.31,3.31,0,0,0-.93.84,3.06,3.06,0,0,0-.49.92,2.3,2.3,0,0,0-.15.61Z" transform="translate(0 0)"/><path class="cls-2" d="M117.06,53.13h1.09V66.87h-1.09Z" transform="translate(0 0)"/><path class="cls-2" d="M125.58,54h3.71a10.61,10.61,0,0,1,1.47.11,3.5,3.5,0,0,1,1.33.5,2.75,2.75,0,0,1,1,1,3.55,3.55,0,0,1,.37,1.75,2.62,2.62,0,0,1-.58,1.71,2.88,2.88,0,0,1-1.73,1v0a3.54,3.54,0,0,1,1.16.3,2.77,2.77,0,0,1,.91.66,2.72,2.72,0,0,1,.59,1,3.94,3.94,0,0,1-.21,3,3.25,3.25,0,0,1-1.08,1.1,4.06,4.06,0,0,1-1.4.55,8,8,0,0,1-1.4.14h-4.11Zm1.2,5.56h2.49a4.24,4.24,0,0,0,1.51-.23,2.66,2.66,0,0,0,.9-.55,1.68,1.68,0,0,0,.44-.7,2.59,2.59,0,0,0,.11-.69,2.43,2.43,0,0,0-.23-1.11,1.77,1.77,0,0,0-.61-.71,2.3,2.3,0,0,0-.89-.37,4.62,4.62,0,0,0-1.07-.11h-2.65Zm0,6.21h2.74a4.69,4.69,0,0,0,1.7-.25,2.54,2.54,0,0,0,1-.64,2,2,0,0,0,.47-.81,3.24,3.24,0,0,0,.11-.77,2.58,2.58,0,0,0-.27-1.22,2.36,2.36,0,0,0-.71-.82,2.83,2.83,0,0,0-1-.47,4.71,4.71,0,0,0-1.12-.14h-2.92Z" transform="translate(0 0)"/><path class="cls-2" d="M136.37,60.84c0-.16,0-.35,0-.57s0-.45,0-.68,0-.45,0-.65,0-.35,0-.46h1.09l0,.91a2.61,2.61,0,0,0,0,.56,3.61,3.61,0,0,1,1.07-1.22,2.68,2.68,0,0,1,1.6-.47,1.55,1.55,0,0,1,.31,0c.11,0,.21,0,.32.06l-.12,1.07a1.32,1.32,0,0,0-.42-.07,3.07,3.07,0,0,0-1.23.23,2.34,2.34,0,0,0-.85.62,2.58,2.58,0,0,0-.5.94,3.9,3.9,0,0,0-.17,1.15v4.58h-1.09Z" transform="translate(0 0)"/><path class="cls-2" d="M149.17,65.29a3.71,3.71,0,0,1-1.58,1.38,5,5,0,0,1-2.06.42,4.42,4.42,0,0,1-1.74-.33,3.93,3.93,0,0,1-1.35-.91,4.17,4.17,0,0,1-.86-1.4,5.13,5.13,0,0,1-.3-1.79,4.77,4.77,0,0,1,.31-1.75,4.25,4.25,0,0,1,.87-1.39,4.12,4.12,0,0,1,1.33-.92,4.05,4.05,0,0,1,1.69-.34,4,4,0,0,1,1.7.34,3.61,3.61,0,0,1,1.23.89,3.7,3.7,0,0,1,.76,1.26,4.18,4.18,0,0,1,.25,1.43V63h-7a3.82,3.82,0,0,0,.14.88,2.93,2.93,0,0,0,.5,1,3.19,3.19,0,0,0,1,.88,3,3,0,0,0,1.57.36,3.47,3.47,0,0,0,1.62-.4,3,3,0,0,0,1.2-1.09ZM148.33,62a2.52,2.52,0,0,0-.23-1.06,2.75,2.75,0,0,0-.61-.86,2.79,2.79,0,0,0-.93-.59,2.93,2.93,0,0,0-1.14-.22,2.82,2.82,0,0,0-1.48.36,3.31,3.31,0,0,0-.93.84,3.06,3.06,0,0,0-.49.92,2.3,2.3,0,0,0-.15.61Z" transform="translate(0 0)"/><path class="cls-2" d="M158,63.35v1.11c0,.32,0,.63,0,.9s0,.54,0,.79,0,.48.08.72h-1a8.05,8.05,0,0,1-.11-1.36h0a3.16,3.16,0,0,1-1.18,1.2,3.68,3.68,0,0,1-1.77.38A3.88,3.88,0,0,1,153,67a2.7,2.7,0,0,1-.94-.43,2.44,2.44,0,0,1-.69-.77,2.41,2.41,0,0,1-.26-1.15,2.25,2.25,0,0,1,.49-1.53,3.14,3.14,0,0,1,1.21-.84,5.52,5.52,0,0,1,1.53-.36,13,13,0,0,1,1.42-.09H157v-.5a1.79,1.79,0,0,0-.67-1.57,2.9,2.9,0,0,0-1.69-.47,3.83,3.83,0,0,0-2.56.95l-.64-.75a3.88,3.88,0,0,1,1.49-.88,5.41,5.41,0,0,1,1.71-.3,3.83,3.83,0,0,1,2.44.72,2.79,2.79,0,0,1,.91,2.31Zm-2.18-.69a9.62,9.62,0,0,0-1.34.09,4.38,4.38,0,0,0-1.16.31,2.13,2.13,0,0,0-.83.58,1.32,1.32,0,0,0-.31.91,1.4,1.4,0,0,0,.17.68,1.63,1.63,0,0,0,.45.49,2,2,0,0,0,.61.29,2.24,2.24,0,0,0,.68.1,3.45,3.45,0,0,0,1.43-.26,2.32,2.32,0,0,0,1.37-1.59,4.55,4.55,0,0,0,.12-1v-.56Z" transform="translate(0 0)"/><path class="cls-2" d="M160.58,64.73a2.29,2.29,0,0,0,1,1,2.93,2.93,0,0,0,1.41.36,2.37,2.37,0,0,0,.69-.11,2.12,2.12,0,0,0,.62-.31,1.72,1.72,0,0,0,.45-.48,1.26,1.26,0,0,0,.17-.65,1.07,1.07,0,0,0-.37-.87,2.93,2.93,0,0,0-.92-.45,10.67,10.67,0,0,0-1.2-.28,4.81,4.81,0,0,1-1.2-.37,2.6,2.6,0,0,1-.92-.68,1.83,1.83,0,0,1-.37-1.23,2.18,2.18,0,0,1,.25-1.08,2.3,2.3,0,0,1,.67-.75,2.92,2.92,0,0,1,.92-.45,4.19,4.19,0,0,1,2.82.24,2.67,2.67,0,0,1,1.17,1.2l-1,.58a2.23,2.23,0,0,0-.77-.88,2.19,2.19,0,0,0-1.21-.3,2.25,2.25,0,0,0-.61.09,2.12,2.12,0,0,0-.57.26,1.4,1.4,0,0,0-.43.41,1.06,1.06,0,0,0-.17.58,1,1,0,0,0,.37.84,2.9,2.9,0,0,0,.92.43,10.85,10.85,0,0,0,1.2.26,4.42,4.42,0,0,1,1.2.36,2.54,2.54,0,0,1,.92.7,2.12,2.12,0,0,1,.37,1.32,2.4,2.4,0,0,1-.25,1.14,2.28,2.28,0,0,1-.67.81,3.16,3.16,0,0,1-1,.49,4,4,0,0,1-1.15.16,4.59,4.59,0,0,1-2-.42,3,3,0,0,1-1.4-1.29Z" transform="translate(0 0)"/><path class="cls-2" d="M172.06,59.46h-2.4v5.47a1.21,1.21,0,0,0,.31.87,1.15,1.15,0,0,0,.86.31,2.7,2.7,0,0,0,.62-.08,4.84,4.84,0,0,0,.61-.21l.09,1a6.32,6.32,0,0,1-.71.2,3.2,3.2,0,0,1-.7.09,2.72,2.72,0,0,1-1-.17,1.73,1.73,0,0,1-1.05-1.15,2.84,2.84,0,0,1-.12-.84V59.46h-1.81v-1h1.81V56.06h1.09v2.42h2.4Z" transform="translate(0 0)"/><path class="cls-2" d="M178.35,54h1.2V66.87h-1.2Z" transform="translate(0 0)"/><path class="cls-2" d="M182.42,60.84c0-.16,0-.35,0-.57l0-.68c0-.23,0-.45,0-.65s0-.35,0-.46h1.09l0,.91a2.86,2.86,0,0,0,0,.56h.06a2.93,2.93,0,0,1,1.09-1.19,3.2,3.2,0,0,1,1.78-.5,2.77,2.77,0,0,1,1.52.43,2.36,2.36,0,0,1,1,1.39,2.76,2.76,0,0,1,1.19-1.38,3.34,3.34,0,0,1,1.67-.44,3.56,3.56,0,0,1,1.6.31,2.5,2.5,0,0,1,1,.81,3.06,3.06,0,0,1,.49,1.15,6.72,6.72,0,0,1,.14,1.35v5h-1.1V61.93a5.36,5.36,0,0,0-.09-1,2.59,2.59,0,0,0-.31-.86,1.7,1.7,0,0,0-.64-.61,2.19,2.19,0,0,0-1.06-.23,2.5,2.5,0,0,0-1.26.28,2.32,2.32,0,0,0-.77.72,3,3,0,0,0-.4.94,4.28,4.28,0,0,0-.12,1v4.72h-1.09V61.82a3.65,3.65,0,0,0-.42-1.87,1.45,1.45,0,0,0-1.32-.71,3.12,3.12,0,0,0-1.14.21,2.47,2.47,0,0,0-.93.64,3.16,3.16,0,0,0-.61,1.07,4.57,4.57,0,0,0-.23,1.51v4.2h-1.09Z" transform="translate(0 0)"/><path class="cls-2" d="M197.32,58.48h1.09V60h0a3.08,3.08,0,0,1,.63-.76,4,4,0,0,1,.83-.52,4.32,4.32,0,0,1,.94-.31,4.47,4.47,0,0,1,1-.1,4.65,4.65,0,0,1,1.77.33,4,4,0,0,1,1.4.91,4.31,4.31,0,0,1,.92,1.4,4.94,4.94,0,0,1,0,3.55,4.31,4.31,0,0,1-.92,1.4,4,4,0,0,1-1.4.91,4.65,4.65,0,0,1-1.77.33,4.47,4.47,0,0,1-1-.1,4.32,4.32,0,0,1-.94-.31,3.65,3.65,0,0,1-.83-.53,2.86,2.86,0,0,1-.63-.75h0V71h-1.09Zm1,4.19a3.19,3.19,0,0,0,.28,1.34,3.45,3.45,0,0,0,.74,1.09,3.72,3.72,0,0,0,1.11.74,3.47,3.47,0,0,0,1.38.27,3.4,3.4,0,0,0,1.38-.27,3.32,3.32,0,0,0,1.05-.74,3,3,0,0,0,.67-1.09,4,4,0,0,0,0-2.67,3,3,0,0,0-.67-1.09,3.17,3.17,0,0,0-1.05-.74,3.4,3.4,0,0,0-1.38-.27,3.47,3.47,0,0,0-1.38.27,3.54,3.54,0,0,0-1.11.74,3.45,3.45,0,0,0-.74,1.09A3.17,3.17,0,0,0,198.3,62.67Z" transform="translate(0 0)"/><path class="cls-2" d="M208.48,53.13h1.09V66.87h-1.09Z" transform="translate(0 0)"/><path class="cls-2" d="M218.84,63.35c0,.41,0,.78,0,1.11s0,.63,0,.9,0,.54,0,.79,0,.48.08.72h-1a8.05,8.05,0,0,1-.11-1.36h0a3.16,3.16,0,0,1-1.18,1.2,3.68,3.68,0,0,1-1.77.38,3.88,3.88,0,0,1-1.07-.14,2.7,2.7,0,0,1-.94-.43,2.44,2.44,0,0,1-.69-.77,2.41,2.41,0,0,1-.26-1.15,2.25,2.25,0,0,1,.49-1.53,3.14,3.14,0,0,1,1.21-.84,5.52,5.52,0,0,1,1.53-.36,13,13,0,0,1,1.42-.09h1.27v-.5a1.79,1.79,0,0,0-.67-1.57,2.9,2.9,0,0,0-1.69-.47,3.83,3.83,0,0,0-2.56.95l-.64-.75a3.88,3.88,0,0,1,1.49-.88,5.41,5.41,0,0,1,1.71-.3,3.83,3.83,0,0,1,2.44.72,2.79,2.79,0,0,1,.91,2.31Zm-2.18-.69a9.62,9.62,0,0,0-1.34.09,4.38,4.38,0,0,0-1.16.31,2.13,2.13,0,0,0-.83.58,1.32,1.32,0,0,0-.31.91,1.4,1.4,0,0,0,.17.68,1.63,1.63,0,0,0,.45.49,2,2,0,0,0,.61.29,2.24,2.24,0,0,0,.68.1,3.45,3.45,0,0,0,1.43-.26,2.32,2.32,0,0,0,1.37-1.59,4.55,4.55,0,0,0,.12-1v-.56Z" transform="translate(0 0)"/><path class="cls-2" d="M221.38,60.84c0-.16,0-.35,0-.57s0-.45,0-.68,0-.45,0-.65,0-.35,0-.46h1.09l0,.91a2.86,2.86,0,0,0,0,.56h.06a2.93,2.93,0,0,1,1.09-1.19,3.2,3.2,0,0,1,1.78-.5,3.54,3.54,0,0,1,1.6.31,2.5,2.5,0,0,1,1,.81,2.91,2.91,0,0,1,.49,1.15,6.72,6.72,0,0,1,.14,1.35v5h-1.09V61.93a5.36,5.36,0,0,0-.09-1,2.6,2.6,0,0,0-.32-.86,1.63,1.63,0,0,0-.64-.61,2.19,2.19,0,0,0-1.06-.23,3.12,3.12,0,0,0-1.14.21,2.43,2.43,0,0,0-.92.64,3,3,0,0,0-.62,1.07,4.57,4.57,0,0,0-.23,1.51v4.2h-1.09Z" transform="translate(0 0)"/><path class="cls-2" d="M235.23,59.46h-2.4v5.47a1.17,1.17,0,0,0,.31.87,1.13,1.13,0,0,0,.85.31,2.72,2.72,0,0,0,.63-.08,6.26,6.26,0,0,0,.61-.21l.09,1a7,7,0,0,1-.71.2,3.28,3.28,0,0,1-.71.09,2.72,2.72,0,0,1-1-.17,1.76,1.76,0,0,1-.67-.47,1.8,1.8,0,0,1-.37-.68,2.84,2.84,0,0,1-.12-.84V59.46h-1.82v-1h1.82V56.06h1.09v2.42h2.4Z" transform="translate(0 0)"/><path class="cls-2" d="M236.85,64.73a2.27,2.27,0,0,0,1,1,3,3,0,0,0,1.42.36A2.37,2.37,0,0,0,240,66a2.12,2.12,0,0,0,.62-.31,1.55,1.55,0,0,0,.44-.48,1.18,1.18,0,0,0,.18-.65,1.05,1.05,0,0,0-.38-.87,2.77,2.77,0,0,0-.91-.45,11.81,11.81,0,0,0-1.2-.28,4.81,4.81,0,0,1-1.2-.37,2.51,2.51,0,0,1-.92-.68,1.83,1.83,0,0,1-.37-1.23,2.18,2.18,0,0,1,.25-1.08,2.38,2.38,0,0,1,.66-.75,3,3,0,0,1,.92-.45,4.07,4.07,0,0,1,1-.14,4,4,0,0,1,1.79.38,2.67,2.67,0,0,1,1.17,1.2l-1,.58a2.31,2.31,0,0,0-.77-.88,2.41,2.41,0,0,0-1.82-.21,2.12,2.12,0,0,0-.57.26,1.4,1.4,0,0,0-.43.41,1.06,1.06,0,0,0-.17.58,1,1,0,0,0,.37.84,2.8,2.8,0,0,0,.92.43,10.85,10.85,0,0,0,1.2.26,4.65,4.65,0,0,1,1.2.36,2.42,2.42,0,0,1,.91.7,2.05,2.05,0,0,1,.38,1.32,2.36,2.36,0,0,1-.92,2,3.28,3.28,0,0,1-1,.49,4,4,0,0,1-1.15.16,4.67,4.67,0,0,1-2-.42,3,3,0,0,1-1.39-1.29Z" transform="translate(0 0)"/></g></g></svg>