<svg xmlns="http://www.w3.org/2000/svg" viewBox="0 0 270.2 71.02"><defs><style>.cls-1{fill:#53575a;}.cls-2{fill:#ff8300;}</style></defs><g id="Layer_2" data-name="Layer 2"><g id="Layer_1-2" data-name="Layer 1"><rect class="cls-1" x="173.88" y="12.59" width="0.21" height="24.23"/><path class="cls-2" d="M28.07,0a2.8,2.8,0,0,1,3.07,3,2.66,2.66,0,0,1-2.86,2.8c-2,0-3.17-1.16-3.17-2.85a2.86,2.86,0,0,1,3-3"/><path class="cls-1" d="M163.31,36.37h.23c.26,0,.48-.09.48-.3s-.14-.32-.44-.32a1.25,1.25,0,0,0-.27,0Zm0,1.16h-.48V35.46a6.58,6.58,0,0,1,.8-.06,1.09,1.09,0,0,1,.7.16.52.52,0,0,1,.22.44.54.54,0,0,1-.43.5v0c.2.07.3.23.36.51a2.91,2.91,0,0,0,.15.5h-.5A1.69,1.69,0,0,1,164,37c0-.22-.17-.32-.43-.32h-.23ZM162,36.46a1.61,1.61,0,0,0,1.61,1.65,1.58,1.58,0,0,0,1.58-1.64,1.6,1.6,0,1,0-3.19,0m3.72,0a2.13,2.13,0,1,1-2.11-2.07,2.09,2.09,0,0,1,2.11,2.07"/><path class="cls-1" d="M25.69,22.6a95.76,95.76,0,0,0-.37-10,15.75,15.75,0,0,0,2.64.21,16.38,16.38,0,0,0,2.7-.21,80.63,80.63,0,0,0-.37,9.34c0,6.66.1,12,.37,16A15.45,15.45,0,0,0,28,37.6a14.87,14.87,0,0,0-2.64.27c.26-3.12.37-8.19.37-15.27"/><path class="cls-1" d="M45.77,22.81c2.59,0,6,0,10.2-.11.05-.47.11-1.05.11-1.53C56.08,16.73,53.6,14,50,14c-4,0-6.39,3.06-6.77,8.82Zm-2.69,2.64c0,7,3.22,10.83,8.66,10.83a9.53,9.53,0,0,0,7.72-3.38l.69.16a21.83,21.83,0,0,0-.43,3.07,17.72,17.72,0,0,1-9.3,2.43c-7.92,0-12.63-4.86-12.63-13,0-8.3,4.81-13.68,12.27-13.68,7,0,11.14,4.28,11.14,11.57,0,.53,0,1.05-.05,1.58-4-.11-7.77-.21-11.36-.21-2.33,0-4.55.06-6.71.1Z"/><path class="cls-1" d="M68.08,22.65a89.37,89.37,0,0,0-.37-10.08,13.68,13.68,0,0,0,2.54.21,13.33,13.33,0,0,0,2.48-.21c0,1.48-.1,2.95-.16,4.53a10.31,10.31,0,0,1,9-5.17A8.39,8.39,0,0,1,88,14.57c1.58,1.9,1.63,4,1.63,6.65V29c0,2.49,0,5.44.21,8.88a14.13,14.13,0,0,0-2.59-.26,14.85,14.85,0,0,0-2.64.26c.21-4.6.37-8.56.37-11.84V23.34c0-2.75-.1-4.71-1.21-6.13a5.49,5.49,0,0,0-4.5-2c-4.7,0-6.6,3.48-6.6,10.56,0,4.12.1,8.14.26,12.1a14.13,14.13,0,0,0-2.59-.26,14.85,14.85,0,0,0-2.64.26c.32-3.33.37-8.4.37-15.22"/><path class="cls-1" d="M98.65,10.93c0-.69-.05-2-.21-4a21,21,0,0,0,5.34-2.44,47.09,47.09,0,0,0-.53,6V13a38.92,38.92,0,0,0,5.76-.42,9,9,0,0,0-.11,1.32,10.67,10.67,0,0,0,.11,1.32,37.08,37.08,0,0,0-4.86-.32h-1l-.27,12.94V29.1c0,4.81.69,7,4.29,7a16.72,16.72,0,0,0,2.37-.27v1.8a14.63,14.63,0,0,1-4.76.84c-4.54,0-6.55-2.37-6.55-7.45,0-2.11.16-4.86.21-8.24Z"/><path class="cls-1" d="M116.76,21.12a61.93,61.93,0,0,0-.42-8.55,17.6,17.6,0,0,0,2.8.21,17,17,0,0,0,2.75-.21,30.17,30.17,0,0,0-.42,4.69v.64c2.06-4,4.7-5.92,8.29-5.92A8.73,8.73,0,0,1,131,12a18.16,18.16,0,0,0-.21,2.48A21,21,0,0,0,131,17.1a16.56,16.56,0,0,0-3.54-.58,5.53,5.53,0,0,0-4.12,1.8c-1.85,2.06-2,4.12-2,6.45v5.49c0,2.17.11,4.7.32,7.61a15.45,15.45,0,0,0-2.7-.27,14.78,14.78,0,0,0-2.64.27c.37-2.7.42-8.3.42-16.75"/><path class="cls-1" d="M146.78,25.13c-4.81.9-7.08,2.59-7.08,5.66,0,2.85,1.69,4.65,4.27,4.65a5.66,5.66,0,0,0,6-6.08V24.5Zm-4.86,13.43c-4.39,0-7.3-2.86-7.3-6.92,0-5.13,2.7-6.56,8.62-7.88l4.81-1.05c1.47-.32,2.06-1,2.06-2.7,0-3.75-2.28-6-6-6a6.47,6.47,0,0,0-6.35,4.16l-1.11-.42.27-2.85a12,12,0,0,1,8.51-3.11c6.6,0,9,2.59,9,8.39V32.74c0,2.17.21,3,2.27,3,.16,0,.64-.06,1.53-.06v1.11a11.93,11.93,0,0,1-4.8,1.33c-2.12,0-3.17-1.11-3.49-3.55a10.28,10.28,0,0,1-8,4"/><path class="cls-1" d="M1.85,31.59c.79,3.33,2.75,4.87,6.24,4.87,3.65,0,5.71-1.75,5.71-4.6,0-3.17-2.48-3.54-6.45-4.82-4.71-1.47-6.93-3.32-6.93-7,0-4.81,3.7-8.14,9.47-8.14a15.84,15.84,0,0,1,6.87,1.69c-.47,1.43-1,3-1.53,4.6H14.7c-.42-2.69-2.22-4.12-5.23-4.12s-5,1.74-5,4.22c0,2.86,2.43,3.33,6.34,4.55,4.81,1.48,7.09,3,7.09,7.14,0,5.18-3.86,8.51-10.47,8.51A17.42,17.42,0,0,1,0,36.93c.42-1.74.9-3.54,1.38-5.34Z"/><path class="cls-2" d="M208.58,24.16a13.18,13.18,0,1,1-13.18-13.1,13,13,0,0,1,13.18,13.1m-1.76,0a11.43,11.43,0,1,0-22.85,0,11.43,11.43,0,1,0,22.85,0"/><path class="cls-2" d="M214.22,24.73V36.81h-1.68V11.4h8c4.15,0,7.43,2.29,7.43,6.63s-3,6.7-7.39,6.7Zm0-1.52h6.47c3.32,0,5.56-1.94,5.56-5.14s-2.13-5.15-5.82-5.15h-6.21Z"/><path class="cls-2" d="M232.54,11.4V27.28c0,2.4.12,4,1.07,5.49a7.42,7.42,0,0,0,11.81,0c1-1.52,1.06-3.09,1.06-5.49V11.4h1.68V27.28c0,2.78-.15,4.61-1.45,6.52a9.27,9.27,0,0,1-14.4,0c-1.29-1.91-1.44-3.74-1.44-6.52V11.4Z"/><path class="cls-2" d="M263.17,15.7a5.43,5.43,0,0,0-5-3.12,4.51,4.51,0,0,0-4.72,4.72c0,2.75,1.9,3.66,4.45,4.92A36.48,36.48,0,0,1,263,24.88a5.61,5.61,0,0,1,2.7,4.92c0,4.26-3.58,7.43-7.92,7.43a7.25,7.25,0,0,1-5.9-2.67,8.34,8.34,0,0,1-1.64-2.78l1.45-.69A8.8,8.8,0,0,0,253,33.53a6.1,6.1,0,0,0,4.76,2.17,5.9,5.9,0,0,0,6.13-5.86,4.46,4.46,0,0,0-2.47-4c-.73-.42-2.21-1.18-4.31-2.21-2.51-1.22-3.77-1.91-4.65-3.36a5.45,5.45,0,0,1-.8-2.89,6.17,6.17,0,0,1,6.52-6.32,6.82,6.82,0,0,1,6.17,3.62Z"/><path class="cls-2" d="M269.57,15.42a2.17,2.17,0,0,1-3.71-1.54,2.05,2.05,0,0,1,.64-1.53,2.09,2.09,0,0,1,1.53-.64,2.13,2.13,0,0,1,1.54.64,2.08,2.08,0,0,1,.63,1.53,2.11,2.11,0,0,1-.63,1.54m-2.86-2.86a1.8,1.8,0,0,0-.55,1.32A1.86,1.86,0,0,0,268,15.77a1.8,1.8,0,0,0,1.32-.55,1.88,1.88,0,0,0,0-2.66,1.86,1.86,0,0,0-2.64,0m1.28.12a1.76,1.76,0,0,1,.65.09.59.59,0,0,1,.37.6.52.52,0,0,1-.24.47.71.71,0,0,1-.34.12.6.6,0,0,1,.41.23.64.64,0,0,1,.13.37v.35a.49.49,0,0,0,0,.13v0h-.39v-.32a.57.57,0,0,0-.23-.54.9.9,0,0,0-.47-.08h-.33v.94h-.42V12.68Zm.45.38a1.08,1.08,0,0,0-.51-.09h-.36v.86H268a1,1,0,0,0,.4-.05.37.37,0,0,0,.25-.37.35.35,0,0,0-.16-.35"/><path class="cls-1" d="M29.51,64.49a3,3,0,0,0,1.22,1.22,3.58,3.58,0,0,0,1.72.4,3.52,3.52,0,0,0,1.13-.18,2.79,2.79,0,0,0,.91-.51,2.33,2.33,0,0,0,.85-1.83,2.07,2.07,0,0,0-.28-1.11,2.28,2.28,0,0,0-.76-.72,5.16,5.16,0,0,0-1.06-.48c-.39-.14-.8-.27-1.22-.4s-.82-.29-1.22-.46a4.29,4.29,0,0,1-1.06-.66,3,3,0,0,1-.75-1,3.62,3.62,0,0,1-.28-1.52A3.19,3.19,0,0,1,30,54.58a3.92,3.92,0,0,1,1.32-.67,5.35,5.35,0,0,1,1.56-.23,5.21,5.21,0,0,1,2,.37,3.79,3.79,0,0,1,1.56,1.25l-1,.74a3.07,3.07,0,0,0-1.06-.95,3.13,3.13,0,0,0-1.45-.32,3.66,3.66,0,0,0-1.1.16,2.64,2.64,0,0,0-.92.45,2.3,2.3,0,0,0-.63.75,2.32,2.32,0,0,0-.23,1.08,2.07,2.07,0,0,0,.49,1.48,3.45,3.45,0,0,0,1.22.82,13.06,13.06,0,0,0,1.6.52,7.81,7.81,0,0,1,1.6.61,3.58,3.58,0,0,1,1.23,1.06,3.26,3.26,0,0,1,.49,1.89,3.41,3.41,0,0,1-1.21,2.68,4.07,4.07,0,0,1-1.28.7,5.12,5.12,0,0,1-1.51.23,6.13,6.13,0,0,1-2.34-.44,4.32,4.32,0,0,1-1.84-1.5Z"/><path class="cls-1" d="M38.5,55.15a.78.78,0,0,1,.24-.58.76.76,0,0,1,.58-.23.78.78,0,0,1,.58.23.78.78,0,0,1,.24.58.77.77,0,0,1-.24.58.78.78,0,0,1-.58.24.82.82,0,0,1-.82-.82Zm.27,3.33h1.09v8.39H38.77Z"/><path class="cls-1" d="M42.79,53.14h1.09V66.87H42.79Z"/><path class="cls-1" d="M46.55,55.15a.78.78,0,0,1,.24-.58.76.76,0,0,1,.58-.23.78.78,0,0,1,.58.23.78.78,0,0,1,.24.58.77.77,0,0,1-.24.58.78.78,0,0,1-.58.24.82.82,0,0,1-.82-.82Zm.27,3.33h1.09v8.39H46.82Z"/><path class="cls-1" d="M57.69,65.64a3.93,3.93,0,0,1-1.4,1.1,4.12,4.12,0,0,1-1.69.35,4.94,4.94,0,0,1-1.78-.32,4.11,4.11,0,0,1-1.4-.92,4.29,4.29,0,0,1-.91-1.4,4.94,4.94,0,0,1,0-3.55,4.24,4.24,0,0,1,.91-1.39,4,4,0,0,1,1.4-.92,4.74,4.74,0,0,1,1.78-.33,4,4,0,0,1,1.72.38,4.67,4.67,0,0,1,1.41,1.07l-.88.66a3.8,3.8,0,0,0-1-.83,2.56,2.56,0,0,0-1.22-.3,3.4,3.4,0,0,0-1.38.27,3.32,3.32,0,0,0-1,.74,3,3,0,0,0-.67,1.09,4.16,4.16,0,0,0,0,2.67,3,3,0,0,0,.67,1.09,3.17,3.17,0,0,0,1,.74,3.4,3.4,0,0,0,1.38.27,2.46,2.46,0,0,0,1.26-.32,3.19,3.19,0,0,0,1-.84Z"/><path class="cls-1" d="M58.58,62.68a4.66,4.66,0,0,1,.33-1.78,4.09,4.09,0,0,1,.91-1.39,3.93,3.93,0,0,1,1.39-.92A4.75,4.75,0,0,1,63,58.26a4.65,4.65,0,0,1,1.77.33,4.16,4.16,0,0,1,1.4.92,4.09,4.09,0,0,1,.91,1.39,4.94,4.94,0,0,1,0,3.55,4.13,4.13,0,0,1-.91,1.4,4.31,4.31,0,0,1-1.4.92,4.84,4.84,0,0,1-1.77.32,5,5,0,0,1-1.79-.32,4.07,4.07,0,0,1-1.39-.92,4.13,4.13,0,0,1-.91-1.4A4.65,4.65,0,0,1,58.58,62.68Zm1.09,0A3.91,3.91,0,0,0,59.9,64a3.1,3.1,0,0,0,.66,1.09,3.17,3.17,0,0,0,1,.74,3.69,3.69,0,0,0,2.77,0,3.17,3.17,0,0,0,1.05-.74A3.1,3.1,0,0,0,66.09,64a4,4,0,0,0,0-2.67,3.1,3.1,0,0,0-.66-1.09,3.32,3.32,0,0,0-1.05-.74,3.69,3.69,0,0,0-2.77,0,3.32,3.32,0,0,0-1,.74,3.1,3.1,0,0,0-.66,1.09A3.93,3.93,0,0,0,59.67,62.68Z"/><path class="cls-1" d="M69.48,60.84c0-.16,0-.35,0-.57s0-.45,0-.68,0-.45,0-.65,0-.35,0-.46h1.09c0,.31,0,.62,0,.91a2.53,2.53,0,0,0,0,.56h0a2.93,2.93,0,0,1,1.09-1.19,3.2,3.2,0,0,1,1.78-.5,3.51,3.51,0,0,1,1.6.31,2.6,2.6,0,0,1,1,.81,3,3,0,0,1,.49,1.15,6.72,6.72,0,0,1,.14,1.35v5H75.59V61.93a5.36,5.36,0,0,0-.09-1,2.6,2.6,0,0,0-.32-.86,1.57,1.57,0,0,0-.64-.61,2.16,2.16,0,0,0-1.06-.23,3,3,0,0,0-1.13.21,2.39,2.39,0,0,0-.93.64,3,3,0,0,0-.62,1.07,4.63,4.63,0,0,0-.23,1.52v4.19H69.48Z"/><path class="cls-1" d="M86.64,65.29a3.62,3.62,0,0,1-1.57,1.38,5,5,0,0,1-2.07.42,4.61,4.61,0,0,1-1.74-.32,4.1,4.1,0,0,1-1.35-.92,4.17,4.17,0,0,1-.86-1.4,5.13,5.13,0,0,1-.3-1.79,4.77,4.77,0,0,1,.31-1.75,4.42,4.42,0,0,1,.87-1.39,4.12,4.12,0,0,1,1.33-.92A4.05,4.05,0,0,1,83,58.26a4,4,0,0,1,1.7.34,3.61,3.61,0,0,1,1.23.89,3.7,3.7,0,0,1,.76,1.26,4.2,4.2,0,0,1,.25,1.44V63h-7a3.82,3.82,0,0,0,.14.88,3,3,0,0,0,.5,1,3.16,3.16,0,0,0,1,.87,3,3,0,0,0,1.57.36,3.47,3.47,0,0,0,1.62-.4,2.89,2.89,0,0,0,1.2-1.09ZM85.8,62a2.38,2.38,0,0,0-.23-1.06,2.87,2.87,0,0,0-.61-.86,3,3,0,0,0-2.07-.81,2.73,2.73,0,0,0-1.48.37,3.29,3.29,0,0,0-.93.83,3.18,3.18,0,0,0-.49.92,2.4,2.4,0,0,0-.15.61Z"/><path class="cls-1" d="M104.26,66a8.64,8.64,0,0,1-2.33.9,12,12,0,0,1-2.46.26,7,7,0,0,1-2.7-.5,6,6,0,0,1-2.1-1.4,6.31,6.31,0,0,1-1.36-2.14,7.77,7.77,0,0,1,0-5.43,6.37,6.37,0,0,1,1.36-2.13,6.16,6.16,0,0,1,2.1-1.41,7,7,0,0,1,2.7-.51,6.25,6.25,0,0,1,4.63,1.78l-.87.91a3.77,3.77,0,0,0-.72-.64,4.62,4.62,0,0,0-.93-.51,6,6,0,0,0-1-.33,4.94,4.94,0,0,0-1.07-.12,5.71,5.71,0,0,0-2.27.44,5,5,0,0,0-1.71,1.2,5.14,5.14,0,0,0-1.09,1.8,6.76,6.76,0,0,0,0,4.47,5.14,5.14,0,0,0,1.09,1.8,5.27,5.27,0,0,0,1.71,1.2,5.71,5.71,0,0,0,2.27.43,10.8,10.8,0,0,0,1.94-.16,4.93,4.93,0,0,0,1.65-.6V61H100V59.93h4.28Z"/><path class="cls-1" d="M114.55,65.29A3.56,3.56,0,0,1,113,66.67a5,5,0,0,1-2.07.42,4.61,4.61,0,0,1-1.74-.32,4,4,0,0,1-1.34-.92,4,4,0,0,1-.87-1.4,5.13,5.13,0,0,1-.3-1.79,5,5,0,0,1,.31-1.75,4.42,4.42,0,0,1,.87-1.39,4.12,4.12,0,0,1,1.33-.92,4.05,4.05,0,0,1,1.69-.34,4,4,0,0,1,1.7.34,3.75,3.75,0,0,1,1.24.89,3.83,3.83,0,0,1,.75,1.26,4.2,4.2,0,0,1,.25,1.44V63h-7a3.82,3.82,0,0,0,.14.88,3.15,3.15,0,0,0,.5,1,3.28,3.28,0,0,0,1,.87,3.07,3.07,0,0,0,1.57.36,3.47,3.47,0,0,0,1.62-.4,2.89,2.89,0,0,0,1.2-1.09ZM113.71,62a2.52,2.52,0,0,0-.22-1.06,3.09,3.09,0,0,0-.62-.86,3,3,0,0,0-.93-.59,2.88,2.88,0,0,0-1.13-.22,2.69,2.69,0,0,0-1.48.37,3.2,3.2,0,0,0-.94.83,3.45,3.45,0,0,0-.49.92,2.4,2.4,0,0,0-.15.61Z"/><path class="cls-1" d="M117.06,53.14h1.09V66.87h-1.09Z"/><path class="cls-1" d="M125.58,54h3.71a9.3,9.3,0,0,1,1.47.12,3.43,3.43,0,0,1,1.33.49,2.83,2.83,0,0,1,1,1,3.59,3.59,0,0,1,.37,1.76,2.66,2.66,0,0,1-.58,1.71,2.89,2.89,0,0,1-1.73,1v0a3.66,3.66,0,0,1,1.17.3,3,3,0,0,1,.9.66,2.67,2.67,0,0,1,.59,1,3.55,3.55,0,0,1,.21,1.24,3.43,3.43,0,0,1-.42,1.8,3.25,3.25,0,0,1-1.08,1.1,4.09,4.09,0,0,1-1.39.55,7.31,7.31,0,0,1-1.41.14h-4.11Zm1.2,5.56h2.49a4.24,4.24,0,0,0,1.51-.23,2.66,2.66,0,0,0,.91-.55,1.69,1.69,0,0,0,.43-.7,2.59,2.59,0,0,0,.11-.68,2.35,2.35,0,0,0-.23-1.12,1.84,1.84,0,0,0-.61-.71,2.46,2.46,0,0,0-.89-.37,5.17,5.17,0,0,0-1.07-.11h-2.65Zm0,6.21h2.74a4.69,4.69,0,0,0,1.7-.25,2.54,2.54,0,0,0,1-.64,2,2,0,0,0,.47-.81,3.24,3.24,0,0,0,.11-.77,2.52,2.52,0,0,0-.27-1.21,2.4,2.4,0,0,0-.71-.83,2.81,2.81,0,0,0-1-.46,4.26,4.26,0,0,0-1.12-.15h-2.92Z"/><path class="cls-1" d="M136.37,60.84c0-.16,0-.35,0-.57s0-.45,0-.68,0-.45,0-.65,0-.35,0-.46h1.09c0,.31,0,.62,0,.91a2.53,2.53,0,0,0,0,.56,3.61,3.61,0,0,1,1.07-1.22,2.68,2.68,0,0,1,1.6-.47,1.73,1.73,0,0,1,.32,0l.31.06-.12,1.07a1.67,1.67,0,0,0-.42-.07,3.1,3.1,0,0,0-1.23.23,2.25,2.25,0,0,0-.85.63,2.46,2.46,0,0,0-.5.93,3.9,3.9,0,0,0-.17,1.15v4.58h-1.09Z"/><path class="cls-1" d="M149.17,65.29a3.62,3.62,0,0,1-1.57,1.38,5,5,0,0,1-2.07.42,4.61,4.61,0,0,1-1.74-.32,4.1,4.1,0,0,1-1.35-.92,4.17,4.17,0,0,1-.86-1.4,5.13,5.13,0,0,1-.3-1.79,4.77,4.77,0,0,1,.31-1.75,4.42,4.42,0,0,1,.87-1.39,4.12,4.12,0,0,1,1.33-.92,4.05,4.05,0,0,1,1.69-.34,4,4,0,0,1,1.7.34,3.61,3.61,0,0,1,1.23.89,3.7,3.7,0,0,1,.76,1.26,4.2,4.2,0,0,1,.25,1.44V63h-7a3.82,3.82,0,0,0,.14.88,3,3,0,0,0,.5,1,3.16,3.16,0,0,0,1,.87,3.07,3.07,0,0,0,1.57.36,3.47,3.47,0,0,0,1.62-.4,2.89,2.89,0,0,0,1.2-1.09ZM148.33,62a2.38,2.38,0,0,0-.23-1.06,2.87,2.87,0,0,0-.61-.86,3,3,0,0,0-2.07-.81,2.73,2.73,0,0,0-1.48.37,3.29,3.29,0,0,0-.93.83,3.18,3.18,0,0,0-.49.92,2.4,2.4,0,0,0-.15.61Z"/><path class="cls-1" d="M158,63.35c0,.41,0,.78,0,1.11s0,.63,0,.91,0,.54,0,.78,0,.48.08.72h-1a8.05,8.05,0,0,1-.11-1.36h0a3.07,3.07,0,0,1-1.17,1.2,3.64,3.64,0,0,1-1.78.38A4.29,4.29,0,0,1,153,67a2.8,2.8,0,0,1-.94-.44,2.26,2.26,0,0,1-.95-1.92,2.21,2.21,0,0,1,.49-1.52,3.06,3.06,0,0,1,1.21-.85,5.52,5.52,0,0,1,1.53-.36,12.77,12.77,0,0,1,1.42-.08H157v-.51a1.79,1.79,0,0,0-.68-1.57,2.88,2.88,0,0,0-1.69-.47,3.83,3.83,0,0,0-2.56.95l-.64-.75a3.85,3.85,0,0,1,1.5-.88,5.3,5.3,0,0,1,1.7-.3,3.83,3.83,0,0,1,2.44.72A2.8,2.8,0,0,1,158,61.3Zm-2.18-.69a9.73,9.73,0,0,0-1.34.09,4.38,4.38,0,0,0-1.16.31,2.13,2.13,0,0,0-.83.58,1.47,1.47,0,0,0-.14,1.59,1.63,1.63,0,0,0,.45.49,2,2,0,0,0,.61.29,2.24,2.24,0,0,0,.68.1,3.54,3.54,0,0,0,1.44-.25,2.35,2.35,0,0,0,.89-.67,2.3,2.3,0,0,0,.47-.92,4.71,4.71,0,0,0,.13-1v-.56Z"/><path class="cls-1" d="M160.58,64.73a2.36,2.36,0,0,0,1,1,3,3,0,0,0,1.41.35,2.37,2.37,0,0,0,.69-.11,1.9,1.9,0,0,0,.62-.31,1.72,1.72,0,0,0,.45-.48,1.25,1.25,0,0,0,.17-.64,1.05,1.05,0,0,0-.37-.88,2.93,2.93,0,0,0-.92-.45,10.67,10.67,0,0,0-1.2-.28,5.27,5.27,0,0,1-1.2-.36,2.75,2.75,0,0,1-.92-.69,1.88,1.88,0,0,1-.37-1.23,2.15,2.15,0,0,1,.26-1.07,2.32,2.32,0,0,1,.66-.76,2.7,2.7,0,0,1,.92-.44,3.62,3.62,0,0,1,1-.15,4,4,0,0,1,1.79.38,2.67,2.67,0,0,1,1.17,1.2l-1,.58a2.3,2.3,0,0,0-.77-.88,2.19,2.19,0,0,0-1.21-.3,2.25,2.25,0,0,0-.61.09,2.12,2.12,0,0,0-.57.26,1.56,1.56,0,0,0-.43.42,1,1,0,0,0-.17.58,1,1,0,0,0,.37.83,2.9,2.9,0,0,0,.92.43,10.85,10.85,0,0,0,1.2.26,4.81,4.81,0,0,1,1.2.36,2.46,2.46,0,0,1,.92.71,2,2,0,0,1,.37,1.31,2.52,2.52,0,0,1-.24,1.14,2.42,2.42,0,0,1-.68.81,3,3,0,0,1-1,.49,3.88,3.88,0,0,1-1.14.16,4.64,4.64,0,0,1-2-.42,2.9,2.9,0,0,1-1.39-1.29Z"/><path class="cls-1" d="M172.06,59.46h-2.39v5.47a1.18,1.18,0,0,0,.3.87,1.16,1.16,0,0,0,.86.31,2.86,2.86,0,0,0,.63-.08,3,3,0,0,0,.6-.21l.09,1a6.75,6.75,0,0,1-.7.2,3.35,3.35,0,0,1-.71.09,2.52,2.52,0,0,1-1-.17,1.67,1.67,0,0,1-.67-.46,1.86,1.86,0,0,1-.38-.69,2.84,2.84,0,0,1-.12-.84V59.46h-1.81v-1h1.81V56.06h1.1v2.42h2.39Z"/><path class="cls-1" d="M178.35,54h1.2V66.87h-1.2Z"/><path class="cls-1" d="M182.42,60.84c0-.16,0-.35,0-.57s0-.45,0-.68,0-.45,0-.65,0-.35,0-.46h1.09c0,.31,0,.62,0,.91a2.78,2.78,0,0,0,0,.56h.06a2.93,2.93,0,0,1,1.09-1.19,3.2,3.2,0,0,1,1.78-.5,2.83,2.83,0,0,1,1.53.43,2.38,2.38,0,0,1,1,1.39,2.73,2.73,0,0,1,1.2-1.38,3.38,3.38,0,0,1,1.66-.44,3.56,3.56,0,0,1,1.6.31,2.68,2.68,0,0,1,1,.81,3.13,3.13,0,0,1,.49,1.15,6.72,6.72,0,0,1,.14,1.35v5h-1.09V61.93a4.62,4.62,0,0,0-.1-1,2.59,2.59,0,0,0-.31-.86,1.63,1.63,0,0,0-.64-.61,2.19,2.19,0,0,0-1.06-.23,2.61,2.61,0,0,0-1.26.28,2.32,2.32,0,0,0-.77.72,3,3,0,0,0-.4.95,4.2,4.2,0,0,0-.12,1v4.72h-1.09V61.82a3.65,3.65,0,0,0-.42-1.87,1.45,1.45,0,0,0-1.32-.71,3.12,3.12,0,0,0-1.14.21,2.43,2.43,0,0,0-.92.64,3,3,0,0,0-.62,1.07,4.63,4.63,0,0,0-.23,1.52v4.19h-1.09Z"/><path class="cls-1" d="M197.32,58.48h1.09V60h0a2.71,2.71,0,0,1,.64-.75,3.39,3.39,0,0,1,.82-.53,4.32,4.32,0,0,1,.94-.31,4.82,4.82,0,0,1,2.73.23,4.06,4.06,0,0,1,1.4.92,4.12,4.12,0,0,1,.92,1.39,4.94,4.94,0,0,1,0,3.55,4.16,4.16,0,0,1-.92,1.4,4.21,4.21,0,0,1-1.4.92,4.84,4.84,0,0,1-1.77.32,4.61,4.61,0,0,1-1-.1,3.84,3.84,0,0,1-.94-.31,3.67,3.67,0,0,1-.82-.52,2.91,2.91,0,0,1-.64-.76h0V71h-1.09Zm1,4.2a3.17,3.17,0,0,0,.28,1.33,3.45,3.45,0,0,0,.74,1.09,3.66,3.66,0,0,0,1.11.74,3.47,3.47,0,0,0,1.38.27,3.4,3.4,0,0,0,1.38-.27,3.21,3.21,0,0,0,1.06-.74,3.1,3.1,0,0,0,.66-1.09,4,4,0,0,0,0-2.67,3.1,3.1,0,0,0-.66-1.09,3.36,3.36,0,0,0-1.06-.74,3.4,3.4,0,0,0-1.38-.27,3.47,3.47,0,0,0-1.38.27,3.85,3.85,0,0,0-1.11.74,3.45,3.45,0,0,0-.74,1.09A3.19,3.19,0,0,0,198.3,62.68Z"/><path class="cls-1" d="M208.48,53.14h1.09V66.87h-1.09Z"/><path class="cls-1" d="M218.84,63.35c0,.41,0,.78,0,1.11s0,.63,0,.91,0,.54,0,.78,0,.48.08.72h-1a8.05,8.05,0,0,1-.11-1.36h0a3.07,3.07,0,0,1-1.17,1.2,3.64,3.64,0,0,1-1.78.38,4.29,4.29,0,0,1-1.07-.13,2.8,2.8,0,0,1-.94-.44,2.26,2.26,0,0,1-.95-1.92,2.26,2.26,0,0,1,.49-1.52,3.06,3.06,0,0,1,1.21-.85,5.52,5.52,0,0,1,1.53-.36,12.77,12.77,0,0,1,1.42-.08h1.28v-.51a1.79,1.79,0,0,0-.68-1.57,2.88,2.88,0,0,0-1.69-.47,3.83,3.83,0,0,0-2.56.95l-.63-.75a3.74,3.74,0,0,1,1.49-.88,5.3,5.3,0,0,1,1.7-.3,3.83,3.83,0,0,1,2.44.72,2.8,2.8,0,0,1,.91,2.32Zm-2.18-.69a9.73,9.73,0,0,0-1.34.09,4.38,4.38,0,0,0-1.16.31,2.13,2.13,0,0,0-.83.58,1.47,1.47,0,0,0-.14,1.59,1.63,1.63,0,0,0,.45.49,2,2,0,0,0,.61.29,2.24,2.24,0,0,0,.68.1,3.54,3.54,0,0,0,1.44-.25,2.47,2.47,0,0,0,.9-.67,2.42,2.42,0,0,0,.46-.92,4.71,4.71,0,0,0,.13-1v-.56Z"/><path class="cls-1" d="M221.38,60.84c0-.16,0-.35,0-.57s0-.45,0-.68,0-.45,0-.65,0-.35,0-.46h1.09c0,.31,0,.62,0,.91a2.78,2.78,0,0,0,0,.56h.06a2.93,2.93,0,0,1,1.09-1.19,3.2,3.2,0,0,1,1.78-.5,3.54,3.54,0,0,1,1.6.31,2.6,2.6,0,0,1,1,.81,3,3,0,0,1,.49,1.15,6.72,6.72,0,0,1,.14,1.35v5h-1.09V61.93a5.36,5.36,0,0,0-.09-1,2.6,2.6,0,0,0-.32-.86,1.57,1.57,0,0,0-.64-.61,2.16,2.16,0,0,0-1.06-.23,3.12,3.12,0,0,0-1.14.21,2.43,2.43,0,0,0-.92.64,3,3,0,0,0-.62,1.07,4.63,4.63,0,0,0-.23,1.52v4.19h-1.09Z"/><path class="cls-1" d="M235.23,59.46h-2.4v5.47A1.07,1.07,0,0,0,234,66.11a2.72,2.72,0,0,0,.63-.08,3.14,3.14,0,0,0,.61-.21l.09,1a7,7,0,0,1-.71.2,3.28,3.28,0,0,1-.71.09,2.56,2.56,0,0,1-1-.17,1.74,1.74,0,0,1-.67-.46,1.84,1.84,0,0,1-.37-.69,2.84,2.84,0,0,1-.12-.84V59.46h-1.82v-1h1.82V56.06h1.09v2.42h2.4Z"/><path class="cls-1" d="M236.85,64.73a2.39,2.39,0,0,0,1,1,3.07,3.07,0,0,0,1.42.35A2.37,2.37,0,0,0,240,66a1.9,1.9,0,0,0,.62-.31,1.55,1.55,0,0,0,.44-.48,1.17,1.17,0,0,0,.18-.64,1.08,1.08,0,0,0-.37-.88,2.93,2.93,0,0,0-.92-.45,11.81,11.81,0,0,0-1.2-.28,5.27,5.27,0,0,1-1.2-.36,2.75,2.75,0,0,1-.92-.69,1.83,1.83,0,0,1-.37-1.23,2.14,2.14,0,0,1,.25-1.07,2.23,2.23,0,0,1,.67-.76,2.65,2.65,0,0,1,.91-.44,3.68,3.68,0,0,1,1-.15,4,4,0,0,1,1.79.38,2.72,2.72,0,0,1,1.17,1.2l-1,.58a2.38,2.38,0,0,0-.77-.88,2.19,2.19,0,0,0-1.21-.3,2.25,2.25,0,0,0-.61.09,2.12,2.12,0,0,0-.57.26,1.56,1.56,0,0,0-.43.42,1,1,0,0,0-.17.58,1,1,0,0,0,.37.83,2.9,2.9,0,0,0,.92.43,10.85,10.85,0,0,0,1.2.26,5.08,5.08,0,0,1,1.2.36,2.46,2.46,0,0,1,.92.71,2.08,2.08,0,0,1,.37,1.31,2.36,2.36,0,0,1-.92,2,3,3,0,0,1-1,.49,4,4,0,0,1-1.15.16,4.67,4.67,0,0,1-2-.42,2.94,2.94,0,0,1-1.39-1.29Z"/></g></g></svg>