<svg xmlns="http://www.w3.org/2000/svg" viewBox="0 0 270.2 67.2"><defs><style>.cls-1{fill:#53575a;}.cls-2{fill:#ff8300;}</style></defs><g id="Layer_2" data-name="Layer 2"><g id="Layer_1-2" data-name="Layer 1"><rect class="cls-1" x="173.88" y="12.59" width="0.2" height="24.23"/><path class="cls-2" d="M28.07,0a2.8,2.8,0,0,1,3.07,3,2.66,2.66,0,0,1-2.86,2.8c-2,0-3.17-1.16-3.17-2.85a2.86,2.86,0,0,1,3-3"/><path class="cls-1" d="M163.31,36.37h.23c.26,0,.48-.09.48-.3s-.14-.32-.44-.32a1.25,1.25,0,0,0-.27,0Zm0,1.16h-.48V35.46a6.58,6.58,0,0,1,.8-.06,1.09,1.09,0,0,1,.7.16.52.52,0,0,1,.22.44.54.54,0,0,1-.43.5v0c.2.07.3.23.36.51a2.91,2.91,0,0,0,.15.5h-.5A1.69,1.69,0,0,1,164,37c0-.22-.17-.32-.43-.32h-.23ZM162,36.46a1.61,1.61,0,0,0,1.61,1.65,1.58,1.58,0,0,0,1.58-1.64,1.6,1.6,0,1,0-3.19,0m3.72,0a2.13,2.13,0,1,1-2.11-2.07,2.09,2.09,0,0,1,2.11,2.07"/><path class="cls-1" d="M25.69,22.6a95.76,95.76,0,0,0-.37-10,15.75,15.75,0,0,0,2.64.21,16.38,16.38,0,0,0,2.7-.21,80.63,80.63,0,0,0-.37,9.34c0,6.66.1,12,.37,16A15.45,15.45,0,0,0,28,37.6a14.87,14.87,0,0,0-2.64.27c.26-3.12.37-8.19.37-15.27"/><path class="cls-1" d="M45.77,22.81c2.59,0,6,0,10.2-.11.05-.47.11-1.05.11-1.53C56.08,16.73,53.6,14,50,14c-4,0-6.39,3.06-6.77,8.82Zm-2.69,2.64c0,7,3.22,10.83,8.66,10.83a9.53,9.53,0,0,0,7.72-3.38l.69.16a21.83,21.83,0,0,0-.43,3.07,17.72,17.72,0,0,1-9.3,2.43c-7.92,0-12.63-4.86-12.63-13,0-8.3,4.81-13.68,12.27-13.68,7,0,11.14,4.28,11.14,11.57,0,.53,0,1.05-.05,1.58-4-.11-7.77-.21-11.36-.21-2.33,0-4.55.06-6.71.1Z"/><path class="cls-1" d="M68.08,22.65a89.37,89.37,0,0,0-.37-10.08,13.68,13.68,0,0,0,2.54.21,13.33,13.33,0,0,0,2.48-.21c0,1.48-.1,2.95-.16,4.53a10.31,10.31,0,0,1,9-5.17A8.39,8.39,0,0,1,88,14.57c1.58,1.9,1.63,4,1.63,6.65V29c0,2.49,0,5.44.21,8.88a14.13,14.13,0,0,0-2.59-.26,14.85,14.85,0,0,0-2.64.26c.21-4.6.37-8.56.37-11.84V23.34c0-2.75-.1-4.71-1.21-6.13a5.49,5.49,0,0,0-4.5-2c-4.7,0-6.6,3.48-6.6,10.56,0,4.12.1,8.14.26,12.1a14.13,14.13,0,0,0-2.59-.26,14.85,14.85,0,0,0-2.64.26c.32-3.33.37-8.4.37-15.22"/><path class="cls-1" d="M98.65,10.93c0-.69-.05-2-.21-4a21,21,0,0,0,5.34-2.44,47.09,47.09,0,0,0-.53,6V13a38.92,38.92,0,0,0,5.76-.42,9,9,0,0,0-.11,1.32,10.67,10.67,0,0,0,.11,1.32,37.08,37.08,0,0,0-4.86-.32h-1l-.27,12.94V29.1c0,4.81.69,7,4.29,7a16.72,16.72,0,0,0,2.37-.27v1.8a14.63,14.63,0,0,1-4.76.84c-4.54,0-6.55-2.37-6.55-7.45,0-2.11.16-4.86.21-8.24Z"/><path class="cls-1" d="M116.76,21.12a61.93,61.93,0,0,0-.42-8.55,17.6,17.6,0,0,0,2.8.21,17,17,0,0,0,2.75-.21,30.17,30.17,0,0,0-.42,4.69v.64c2.06-4,4.7-5.92,8.29-5.92A8.73,8.73,0,0,1,131,12a18.16,18.16,0,0,0-.21,2.48A21,21,0,0,0,131,17.1a16.56,16.56,0,0,0-3.54-.58,5.53,5.53,0,0,0-4.12,1.8c-1.85,2.06-2,4.12-2,6.45v5.49c0,2.17.11,4.7.32,7.61a15.45,15.45,0,0,0-2.7-.27,14.78,14.78,0,0,0-2.64.27c.37-2.7.42-8.3.42-16.75"/><path class="cls-1" d="M146.78,25.13c-4.81.9-7.08,2.59-7.08,5.66,0,2.85,1.69,4.65,4.27,4.65a5.66,5.66,0,0,0,6-6.08V24.5Zm-4.86,13.43c-4.39,0-7.3-2.86-7.3-6.92,0-5.13,2.7-6.56,8.62-7.88l4.81-1.05c1.47-.32,2.06-1,2.06-2.7,0-3.75-2.28-6-6-6a6.47,6.47,0,0,0-6.35,4.16l-1.11-.42.27-2.85a12,12,0,0,1,8.51-3.11c6.6,0,9,2.59,9,8.39V32.74c0,2.17.21,3,2.27,3,.16,0,.64-.06,1.53-.06v1.11a11.93,11.93,0,0,1-4.8,1.33c-2.12,0-3.17-1.11-3.49-3.55a10.28,10.28,0,0,1-8,4"/><path class="cls-1" d="M1.85,31.59c.79,3.33,2.75,4.87,6.24,4.87,3.65,0,5.71-1.75,5.71-4.6,0-3.17-2.48-3.54-6.45-4.82-4.71-1.47-6.93-3.32-6.93-7,0-4.81,3.7-8.14,9.47-8.14a15.84,15.84,0,0,1,6.87,1.69c-.47,1.43-1,3-1.53,4.6H14.7c-.42-2.69-2.22-4.12-5.23-4.12s-5,1.74-5,4.22c0,2.86,2.43,3.33,6.34,4.55,4.81,1.48,7.09,3,7.09,7.14,0,5.18-3.86,8.51-10.47,8.51A17.42,17.42,0,0,1,0,36.93c.42-1.74.9-3.54,1.38-5.34Z"/><path class="cls-2" d="M208.58,24.16a13.18,13.18,0,1,1-13.18-13.1,13,13,0,0,1,13.18,13.1m-1.76,0a11.43,11.43,0,1,0-22.85,0,11.43,11.43,0,1,0,22.85,0"/><path class="cls-2" d="M214.22,24.73V36.81h-1.68V11.4h8c4.15,0,7.43,2.29,7.43,6.63s-3,6.7-7.39,6.7Zm0-1.52h6.47c3.32,0,5.56-1.94,5.56-5.14s-2.13-5.15-5.82-5.15h-6.21Z"/><path class="cls-2" d="M232.54,11.4V27.28c0,2.4.12,4,1.07,5.49a7.42,7.42,0,0,0,11.81,0c1-1.52,1.06-3.09,1.06-5.49V11.4h1.68V27.28c0,2.78-.15,4.61-1.45,6.52a9.27,9.27,0,0,1-14.4,0c-1.29-1.91-1.44-3.74-1.44-6.52V11.4Z"/><path class="cls-2" d="M263.17,15.7a5.43,5.43,0,0,0-5-3.12,4.51,4.51,0,0,0-4.72,4.72c0,2.75,1.9,3.66,4.45,4.92A36.48,36.48,0,0,1,263,24.88a5.61,5.61,0,0,1,2.7,4.92c0,4.26-3.58,7.43-7.92,7.43a7.25,7.25,0,0,1-5.9-2.67,8.34,8.34,0,0,1-1.64-2.78l1.45-.69A8.8,8.8,0,0,0,253,33.53a6.1,6.1,0,0,0,4.76,2.17,5.9,5.9,0,0,0,6.13-5.86,4.46,4.46,0,0,0-2.47-4c-.73-.42-2.21-1.18-4.31-2.21-2.51-1.22-3.77-1.91-4.65-3.36a5.45,5.45,0,0,1-.8-2.89,6.17,6.17,0,0,1,6.52-6.32,6.82,6.82,0,0,1,6.17,3.62Z"/><path class="cls-2" d="M269.57,15.42a2.17,2.17,0,0,1-3.71-1.54,2.05,2.05,0,0,1,.64-1.53,2.09,2.09,0,0,1,1.53-.64,2.13,2.13,0,0,1,1.54.64,2.08,2.08,0,0,1,.63,1.53,2.11,2.11,0,0,1-.63,1.54m-2.86-2.86a1.8,1.8,0,0,0-.55,1.32A1.86,1.86,0,0,0,268,15.77a1.8,1.8,0,0,0,1.32-.55,1.88,1.88,0,0,0,0-2.66,1.86,1.86,0,0,0-2.64,0m1.28.12a1.76,1.76,0,0,1,.65.09.59.59,0,0,1,.37.6.52.52,0,0,1-.24.47.71.71,0,0,1-.34.12.6.6,0,0,1,.41.23.64.64,0,0,1,.13.37v.35a.49.49,0,0,0,0,.13v0h-.39v-.32a.57.57,0,0,0-.23-.54.9.9,0,0,0-.47-.08h-.33v.94h-.42V12.68Zm.45.38a1.08,1.08,0,0,0-.51-.09h-.36v.86H268a1,1,0,0,0,.4-.05.37.37,0,0,0,.25-.37.35.35,0,0,0-.16-.35"/><path class="cls-1" d="M22.84,54h3.7a9.33,9.33,0,0,1,1.48.12,3.49,3.49,0,0,1,1.33.49,2.81,2.81,0,0,1,1,1,3.59,3.59,0,0,1,.38,1.76,2.67,2.67,0,0,1-.59,1.71,2.86,2.86,0,0,1-1.72,1v0a3.6,3.6,0,0,1,1.16.3,3,3,0,0,1,.91.66A3,3,0,0,1,31,62a3.55,3.55,0,0,1,.21,1.24,3.33,3.33,0,0,1-.43,1.8,3.14,3.14,0,0,1-1.07,1.1,4.14,4.14,0,0,1-1.4.55,7.16,7.16,0,0,1-1.41.14h-4.1ZM24,59.57h2.48A4.21,4.21,0,0,0,28,59.34a2.56,2.56,0,0,0,.91-.55,1.62,1.62,0,0,0,.44-.7,2.59,2.59,0,0,0,.11-.68,2.48,2.48,0,0,0-.23-1.12,1.84,1.84,0,0,0-.61-.71,2.46,2.46,0,0,0-.89-.37,5.32,5.32,0,0,0-1.07-.11H24Zm0,6.21h2.74a4.73,4.73,0,0,0,1.7-.25,2.54,2.54,0,0,0,1-.64,2,2,0,0,0,.46-.81,2.84,2.84,0,0,0,.12-.77,2.52,2.52,0,0,0-.27-1.21,2.4,2.4,0,0,0-.71-.83,2.81,2.81,0,0,0-1-.46A4.26,4.26,0,0,0,27,60.66H24Z"/><path class="cls-1" d="M33.94,54h3.38L38,54a6.63,6.63,0,0,1,.94.11,5.24,5.24,0,0,1,1,.29,2.69,2.69,0,0,1,.94.58,3.06,3.06,0,0,1,.7,1,3.36,3.36,0,0,1,.27,1.42,3.28,3.28,0,0,1-.32,1.53,3.06,3.06,0,0,1-.8,1,3.25,3.25,0,0,1-1.06.55,7.34,7.34,0,0,1-1.11.26l3.74,6.17H41l-3.62-6.1H35.14v6.1h-1.2Zm1.2,5.67h2.54a4.18,4.18,0,0,0,1.54-.24,2.64,2.64,0,0,0,.92-.58,2,2,0,0,0,.44-.74,2.28,2.28,0,0,0,0-1.46,2,2,0,0,0-.44-.74,2.51,2.51,0,0,0-.92-.58,4.18,4.18,0,0,0-1.54-.24H35.14Z"/><path class="cls-1" d="M44.37,54h7.87V55.1H45.57v4.58h6.25v1.09H45.57v5h7v1.09H44.37Z"/><path class="cls-1" d="M58.74,54H60l5.41,12.86H64.05l-1.4-3.41H55.84l-1.46,3.41H53.13Zm.57,1.31-3,7h5.9Z"/><path class="cls-1" d="M67.25,64.49a3,3,0,0,0,1.22,1.22,3.61,3.61,0,0,0,1.72.4,3.48,3.48,0,0,0,1.13-.18,2.94,2.94,0,0,0,.92-.51,2.36,2.36,0,0,0,.84-1.83,2,2,0,0,0-.28-1.11,2.28,2.28,0,0,0-.76-.72A4.93,4.93,0,0,0,71,61.28c-.39-.14-.8-.27-1.22-.4s-.82-.29-1.21-.46a4.17,4.17,0,0,1-1.07-.66,3,3,0,0,1-.75-1,3.62,3.62,0,0,1-.28-1.52,3.19,3.19,0,0,1,1.24-2.63A3.92,3.92,0,0,1,69,53.91a5.4,5.4,0,0,1,1.56-.23,5.22,5.22,0,0,1,2,.37,3.76,3.76,0,0,1,1.55,1.25L73,56A3,3,0,0,0,72,55.09a3.09,3.09,0,0,0-1.44-.32,3.68,3.68,0,0,0-1.11.16,2.72,2.72,0,0,0-.92.45,2.3,2.3,0,0,0-.63.75,2.45,2.45,0,0,0-.23,1.08,2.07,2.07,0,0,0,.49,1.48,3.54,3.54,0,0,0,1.22.82A13.64,13.64,0,0,0,71,60a7.81,7.81,0,0,1,1.6.61,3.58,3.58,0,0,1,1.23,1.06,3.19,3.19,0,0,1,.49,1.89,3.41,3.41,0,0,1-1.21,2.68,4.07,4.07,0,0,1-1.28.7,5.07,5.07,0,0,1-1.51.23,6.13,6.13,0,0,1-2.34-.44,4.32,4.32,0,0,1-1.84-1.5Z"/><path class="cls-1" d="M79.5,55.1H75.1V54h10V55.1h-4.4V66.87H79.5Z"/><path class="cls-1" d="M91.11,54h3.38l.69,0a6.8,6.8,0,0,1,.94.11,5.24,5.24,0,0,1,1,.29,2.79,2.79,0,0,1,.94.58,2.89,2.89,0,0,1,.69,1,3.21,3.21,0,0,1,.28,1.42,3.28,3.28,0,0,1-.32,1.53,3.06,3.06,0,0,1-.8,1,3.35,3.35,0,0,1-1.06.55,7.34,7.34,0,0,1-1.11.26l3.74,6.17H98.16l-3.62-6.1H92.31v6.1h-1.2Zm1.2,5.67h2.54a4.18,4.18,0,0,0,1.54-.24,2.51,2.51,0,0,0,.91-.58,1.87,1.87,0,0,0,.45-.74,2.28,2.28,0,0,0,0-1.46,1.87,1.87,0,0,0-.45-.74,2.38,2.38,0,0,0-.91-.58,4.18,4.18,0,0,0-1.54-.24H92.31Z"/><path class="cls-1" d="M101.54,54h7.87V55.1h-6.67v4.58H109v1.09h-6.25v5h7v1.09h-8.16Z"/><path class="cls-1" d="M122.56,64.86a5.5,5.5,0,0,1-2.14,1.8,6.43,6.43,0,0,1-2.64.54,6.89,6.89,0,0,1-2.69-.5,6,6,0,0,1-2.1-1.4,6.34,6.34,0,0,1-1.37-2.14,7.77,7.77,0,0,1,0-5.43A6.39,6.39,0,0,1,113,55.6a6.16,6.16,0,0,1,2.1-1.41,6.9,6.9,0,0,1,2.69-.51,6.4,6.4,0,0,1,2.45.47,4.79,4.79,0,0,1,2,1.55l-1,.82a3.58,3.58,0,0,0-1.54-1.33,4.62,4.62,0,0,0-1.92-.42,5.66,5.66,0,0,0-2.26.44,5.12,5.12,0,0,0-1.72,1.2,5.46,5.46,0,0,0-1.09,1.8,6.76,6.76,0,0,0,0,4.47,5.07,5.07,0,0,0,2.81,3,5.66,5.66,0,0,0,2.26.43,4.57,4.57,0,0,0,1-.12,5,5,0,0,0,1-.36,4.69,4.69,0,0,0,1-.62,4.09,4.09,0,0,0,.8-.9Z"/><path class="cls-1" d="M123.58,60.44a7.26,7.26,0,0,1,.49-2.71,6.53,6.53,0,0,1,1.36-2.13,6.36,6.36,0,0,1,2.1-1.41,7.4,7.4,0,0,1,5.4,0A6.16,6.16,0,0,1,135,55.6a6.53,6.53,0,0,1,1.36,2.13,7.77,7.77,0,0,1,0,5.43A6.47,6.47,0,0,1,135,65.3a6,6,0,0,1-2.1,1.4,7.54,7.54,0,0,1-5.4,0,6.19,6.19,0,0,1-2.1-1.4,6.47,6.47,0,0,1-1.36-2.14A7.31,7.31,0,0,1,123.58,60.44Zm1.2,0a6.54,6.54,0,0,0,.38,2.24,5.46,5.46,0,0,0,1.09,1.8,5.32,5.32,0,0,0,1.72,1.2,6.15,6.15,0,0,0,4.52,0,5.21,5.21,0,0,0,1.72-1.2,5.3,5.3,0,0,0,1.09-1.8,6.76,6.76,0,0,0,0-4.47,5.3,5.3,0,0,0-1.09-1.8,4.93,4.93,0,0,0-1.72-1.2,6,6,0,0,0-4.52,0,5,5,0,0,0-1.72,1.2,5.46,5.46,0,0,0-1.09,1.8A6.49,6.49,0,0,0,124.78,60.44Z"/><path class="cls-1" d="M139.23,54h1.54l7.83,11.27h0V54h1.2V66.87H148.3l-7.84-11.26h0V66.87h-1.2Z"/><path class="cls-1" d="M153.35,64.49a3,3,0,0,0,1.22,1.22,3.61,3.61,0,0,0,1.72.4,3.48,3.48,0,0,0,1.13-.18,2.94,2.94,0,0,0,.92-.51,2.36,2.36,0,0,0,.84-1.83,2,2,0,0,0-.28-1.11,2.28,2.28,0,0,0-.76-.72,5.16,5.16,0,0,0-1.06-.48c-.39-.14-.8-.27-1.22-.4s-.82-.29-1.21-.46a4.17,4.17,0,0,1-1.07-.66,3,3,0,0,1-.75-1,3.62,3.62,0,0,1-.28-1.52,3.19,3.19,0,0,1,1.24-2.63,3.92,3.92,0,0,1,1.32-.67,5.4,5.4,0,0,1,1.56-.23,5.26,5.26,0,0,1,2,.37,3.83,3.83,0,0,1,1.55,1.25l-1,.74a3,3,0,0,0-1.06-.95,3.12,3.12,0,0,0-1.44-.32,3.68,3.68,0,0,0-1.11.16,2.72,2.72,0,0,0-.92.45,2.3,2.3,0,0,0-.63.75,2.32,2.32,0,0,0-.23,1.08,2.07,2.07,0,0,0,.49,1.48,3.45,3.45,0,0,0,1.22.82,13.06,13.06,0,0,0,1.6.52,7.81,7.81,0,0,1,1.6.61,3.58,3.58,0,0,1,1.23,1.06,3.19,3.19,0,0,1,.49,1.89,3.41,3.41,0,0,1-1.21,2.68,4.07,4.07,0,0,1-1.28.7,5.12,5.12,0,0,1-1.51.23,6.13,6.13,0,0,1-2.34-.44,4.32,4.32,0,0,1-1.84-1.5Z"/><path class="cls-1" d="M165.59,55.1H161.2V54h10V55.1h-4.4V66.87h-1.2Z"/><path class="cls-1" d="M172.83,54h3.38l.69,0a6.8,6.8,0,0,1,.94.11,5.24,5.24,0,0,1,1,.29,2.79,2.79,0,0,1,.94.58,2.89,2.89,0,0,1,.69,1,3.36,3.36,0,0,1,.28,1.42,3.28,3.28,0,0,1-.32,1.53,3.06,3.06,0,0,1-.8,1,3.3,3.3,0,0,1-1.07.55,7,7,0,0,1-1.1.26l3.74,6.17h-1.36l-3.62-6.1H174v6.1h-1.2Zm1.2,5.67h2.54a4.18,4.18,0,0,0,1.54-.24,2.51,2.51,0,0,0,.91-.58,1.87,1.87,0,0,0,.45-.74,2.28,2.28,0,0,0,0-1.46,1.87,1.87,0,0,0-.45-.74,2.38,2.38,0,0,0-.91-.58,4.18,4.18,0,0,0-1.54-.24H174Z"/><path class="cls-1" d="M192.4,62a8,8,0,0,1-.24,2,4.53,4.53,0,0,1-.79,1.67,4,4,0,0,1-1.45,1.17,5.89,5.89,0,0,1-4.42,0,4,4,0,0,1-1.45-1.17,4.37,4.37,0,0,1-.79-1.67,8,8,0,0,1-.24-2V54h1.2v7.63a8.61,8.61,0,0,0,.13,1.47,4.36,4.36,0,0,0,.5,1.46,3.18,3.18,0,0,0,1.05,1.11,4,4,0,0,0,3.62,0,3.18,3.18,0,0,0,1-1.11,4.36,4.36,0,0,0,.5-1.46,8.61,8.61,0,0,0,.13-1.47V54h1.2Z"/><path class="cls-1" d="M205.94,64.86a5.6,5.6,0,0,1-2.15,1.8,6.41,6.41,0,0,1-2.63.54,7,7,0,0,1-2.7-.5,6,6,0,0,1-2.1-1.4A6.31,6.31,0,0,1,195,63.16a7.77,7.77,0,0,1,0-5.43,6.37,6.37,0,0,1,1.36-2.13,6.16,6.16,0,0,1,2.1-1.41,7,7,0,0,1,2.7-.51,6.39,6.39,0,0,1,2.44.47,4.73,4.73,0,0,1,2,1.55l-1,.82a3.52,3.52,0,0,0-1.54-1.33,4.61,4.61,0,0,0-1.91-.42,5.71,5.71,0,0,0-2.27.44,5,5,0,0,0-1.71,1.2,5.14,5.14,0,0,0-1.09,1.8,6.6,6.6,0,0,0,0,4.47,5.14,5.14,0,0,0,1.09,1.8,5.27,5.27,0,0,0,1.71,1.2,5.71,5.71,0,0,0,2.27.43,4.55,4.55,0,0,0,1-.12,4.85,4.85,0,0,0,1-.36,4.69,4.69,0,0,0,1-.62,3.85,3.85,0,0,0,.8-.9Z"/><path class="cls-1" d="M210.64,55.1h-4.4V54h10V55.1h-4.4V66.87h-1.2Z"/><path class="cls-1" d="M217.87,54h1.2V66.87h-1.2Z"/><path class="cls-1" d="M221.4,60.44a7.26,7.26,0,0,1,.49-2.71,6.53,6.53,0,0,1,1.36-2.13,6.26,6.26,0,0,1,2.1-1.41,7.4,7.4,0,0,1,5.4,0,6.16,6.16,0,0,1,2.1,1.41,6.53,6.53,0,0,1,1.36,2.13,7.77,7.77,0,0,1,0,5.43,6.47,6.47,0,0,1-1.36,2.14,6,6,0,0,1-2.1,1.4,7.54,7.54,0,0,1-5.4,0,6.09,6.09,0,0,1-2.1-1.4,6.47,6.47,0,0,1-1.36-2.14A7.31,7.31,0,0,1,221.4,60.44Zm1.2,0a6.54,6.54,0,0,0,.38,2.24,5.07,5.07,0,0,0,2.81,3,6.15,6.15,0,0,0,4.52,0,5.21,5.21,0,0,0,1.72-1.2,5.3,5.3,0,0,0,1.09-1.8,6.76,6.76,0,0,0,0-4.47,5.3,5.3,0,0,0-1.09-1.8,4.93,4.93,0,0,0-1.72-1.2,6,6,0,0,0-4.52,0,5,5,0,0,0-1.72,1.2,5.3,5.3,0,0,0-1.09,1.8A6.49,6.49,0,0,0,222.6,60.44Z"/><path class="cls-1" d="M237.05,54h1.54l7.83,11.27h0V54h1.2V66.87h-1.55l-7.83-11.26h0V66.87h-1.2Z"/></g></g></svg>