<svg xmlns="http://www.w3.org/2000/svg" xmlns:xlink="http://www.w3.org/1999/xlink" viewBox="0 0 263.82 71.02"><defs><style>.cls-1{fill:none;}.cls-2{clip-path:url(#clip-path);}.cls-3{fill:#ff8300;}.cls-4{fill:#fff;}</style><clipPath id="clip-path" transform="translate(0 0)"><rect class="cls-1" width="263.82" height="37.65"/></clipPath></defs><g id="Layer_2" data-name="Layer 2"><g id="Layer_1-2" data-name="Layer 1"><g class="cls-2"><path class="cls-3" d="M27.4,0a2.73,2.73,0,0,1,3,2.94,2.59,2.59,0,0,1-2.79,2.73c-1.91,0-3.09-1.13-3.09-2.78A2.79,2.79,0,0,1,27.4,0" transform="translate(0 0)"/><path class="cls-4" d="M159.45,35.51h.22c.26,0,.47-.09.47-.3s-.13-.3-.43-.3l-.26,0Zm0,1.13H159v-2a6.54,6.54,0,0,1,.78-.06,1.08,1.08,0,0,1,.69.16.53.53,0,0,1,.21.43.52.52,0,0,1-.42.48v0c.19.06.29.22.35.49a2.4,2.4,0,0,0,.15.49h-.49a1.5,1.5,0,0,1-.16-.49c0-.21-.16-.31-.42-.31h-.22Zm-1.24-1a1.57,1.57,0,0,0,1.57,1.61,1.55,1.55,0,0,0,1.54-1.6,1.56,1.56,0,1,0-3.11,0m3.63,0a2.08,2.08,0,1,1-2.06-2,2,2,0,0,1,2.06,2" transform="translate(0 0)"/><path class="cls-4" d="M25.08,22.06a94.37,94.37,0,0,0-.36-9.79,15,15,0,0,0,2.58.21,15.46,15.46,0,0,0,2.63-.21,79,79,0,0,0-.36,9.12c0,6.5.1,11.71.36,15.58a15.51,15.51,0,0,0-2.63-.25,15,15,0,0,0-2.58.25c.26-3,.36-8,.36-14.91" transform="translate(0 0)"/><path class="cls-4" d="M44.68,22.27c2.54,0,5.84-.05,10-.1.05-.47.1-1,.1-1.5,0-4.33-2.42-7-5.94-7-3.86,0-6.24,3-6.6,8.61Zm-2.62,2.58c0,6.81,3.14,10.57,8.46,10.57a9.26,9.26,0,0,0,7.53-3.3l.67.16a22.77,22.77,0,0,0-.41,3,17.25,17.25,0,0,1-9.08,2.38C41.49,37.65,36.9,32.9,36.9,25c0-8.1,4.69-13.35,12-13.35,6.81,0,10.89,4.18,10.89,11.29a13.39,13.39,0,0,1-.06,1.55c-3.86-.11-7.58-.21-11.09-.21-2.27,0-4.44,0-6.55.1Z" transform="translate(0 0)"/><path class="cls-4" d="M66.47,22.11a87.56,87.56,0,0,0-.36-9.84,13.73,13.73,0,0,0,2.47.21A13.61,13.61,0,0,0,71,12.27c-.05,1.44-.1,2.89-.15,4.43a10,10,0,0,1,8.82-5,8.16,8.16,0,0,1,6.25,2.58c1.54,1.85,1.59,3.86,1.59,6.49v7.59c0,2.42,0,5.31.21,8.67a13.58,13.58,0,0,0-2.53-.26,14.2,14.2,0,0,0-2.58.26c.21-4.5.36-8.36.36-11.56V22.78c0-2.68-.1-4.59-1.18-6a5.39,5.39,0,0,0-4.39-2c-4.59,0-6.45,3.4-6.45,10.31,0,4,.1,7.94.26,11.82a13.66,13.66,0,0,0-2.53-.26,14.11,14.11,0,0,0-2.58.26c.31-3.25.36-8.21.36-14.87" transform="translate(0 0)"/><path class="cls-4" d="M96.32,10.67c0-.67,0-2-.21-3.87a20.43,20.43,0,0,0,5.22-2.38,46.38,46.38,0,0,0-.52,5.84v2.42a37.29,37.29,0,0,0,5.63-.41,8.62,8.62,0,0,0-.11,1.29,10.06,10.06,0,0,0,.11,1.29,35.53,35.53,0,0,0-4.75-.31h-.93l-.26,12.63v1.24c0,4.69.67,6.86,4.18,6.86A17,17,0,0,0,107,35v1.75a14.17,14.17,0,0,1-4.64.82c-4.44,0-6.4-2.32-6.4-7.27,0-2.07.15-4.75.21-8Z" transform="translate(0 0)"/><path class="cls-4" d="M114,20.62a60.53,60.53,0,0,0-.41-8.35,16.74,16.74,0,0,0,2.73.21,16.26,16.26,0,0,0,2.69-.21,30,30,0,0,0-.41,4.58v.62c2-3.91,4.59-5.77,8.09-5.77a9.8,9.8,0,0,1,1.19.05,19.1,19.1,0,0,0-.21,2.43,22.33,22.33,0,0,0,.21,2.52,16.22,16.22,0,0,0-3.45-.57,5.43,5.43,0,0,0-4,1.75c-1.8,2-1.91,4-1.91,6.3v5.36c0,2.12.11,4.6.31,7.43a15.52,15.52,0,0,0-2.63-.26,15,15,0,0,0-2.58.26c.36-2.63.41-8.1.41-16.35" transform="translate(0 0)"/><path class="cls-4" d="M143.31,24.54c-4.7.88-6.92,2.53-6.92,5.52,0,2.79,1.66,4.54,4.18,4.54a5.53,5.53,0,0,0,5.84-5.93V23.92Zm-4.75,13.11c-4.28,0-7.12-2.79-7.12-6.76,0-5,2.63-6.4,8.41-7.69l4.7-1c1.44-.31,2-1,2-2.64,0-3.65-2.22-5.82-5.83-5.82a6.33,6.33,0,0,0-6.2,4.07l-1.08-.41.26-2.78a11.73,11.73,0,0,1,8.31-3c6.45,0,8.77,2.53,8.77,8.19V32c0,2.12.21,2.94,2.21,2.94.16,0,.63,0,1.5,0v1.08a11.64,11.64,0,0,1-4.69,1.29c-2.07,0-3.1-1.08-3.4-3.46a10,10,0,0,1-7.85,3.88" transform="translate(0 0)"/><path class="cls-4" d="M1.81,30.84c.77,3.26,2.68,4.75,6.09,4.75,3.56,0,5.58-1.7,5.58-4.49,0-3.09-2.43-3.45-6.3-4.7C2.58,25,.41,23.15.41,19.59c0-4.69,3.61-7.94,9.24-7.94a15.43,15.43,0,0,1,6.72,1.65c-.47,1.39-1,2.89-1.5,4.49h-.52c-.41-2.63-2.16-4-5.11-4s-4.85,1.7-4.85,4.12c0,2.78,2.37,3.25,6.19,4.44,4.7,1.44,6.92,2.94,6.92,7,0,5.05-3.77,8.31-10.22,8.31A17.1,17.1,0,0,1,0,36.06c.41-1.71.88-3.46,1.34-5.22Z" transform="translate(0 0)"/><path class="cls-3" d="M203.65,23.59a12.87,12.87,0,1,1-12.87-12.8,12.66,12.66,0,0,1,12.87,12.8m-1.71,0a11.16,11.16,0,1,0-22.32,0,11.16,11.16,0,1,0,22.32,0" transform="translate(0 0)"/><path class="cls-3" d="M209.15,24.15V35.94h-1.63V11.13h7.85c4,0,7.25,2.23,7.25,6.47s-2.94,6.55-7.22,6.55Zm0-1.49h6.33c3.23,0,5.43-1.9,5.43-5s-2.09-5-5.69-5h-6.07Z" transform="translate(0 0)"/><path class="cls-3" d="M227.05,11.13V26.64c0,2.34.11,3.87,1,5.35a7.23,7.23,0,0,0,11.53,0c.93-1.48,1-3,1-5.35V11.13h1.64V26.64c0,2.71-.15,4.5-1.42,6.36a9.07,9.07,0,0,1-14.06,0c-1.26-1.86-1.41-3.65-1.41-6.36V11.13Z" transform="translate(0 0)"/><path class="cls-3" d="M257,15.33a5.31,5.31,0,0,0-4.87-3.05,4.41,4.41,0,0,0-4.61,4.61c0,2.68,1.86,3.57,4.35,4.8a35.93,35.93,0,0,1,4.95,2.6,5.49,5.49,0,0,1,2.64,4.8c0,4.17-3.5,7.25-7.74,7.25a7.07,7.07,0,0,1-5.76-2.6,8,8,0,0,1-1.6-2.71l1.41-.67a8.66,8.66,0,0,0,1.34,2.38,6,6,0,0,0,4.65,2.12,5.77,5.77,0,0,0,6-5.73,4.38,4.38,0,0,0-2.41-3.91c-.71-.4-2.16-1.15-4.2-2.15-2.46-1.19-3.69-1.86-4.54-3.28a5.26,5.26,0,0,1-.78-2.82,6,6,0,0,1,6.36-6.18,6.65,6.65,0,0,1,6,3.54Z" transform="translate(0 0)"/><path class="cls-3" d="M263.2,15.06a2.12,2.12,0,0,1-3.62-1.51,2.1,2.1,0,0,1,2.11-2.11,2.12,2.12,0,0,1,1.51,3.62m-2.8-2.8a1.85,1.85,0,0,0,0,2.59,1.82,1.82,0,0,0,2.59,0,1.85,1.85,0,0,0,0-2.59,1.85,1.85,0,0,0-2.59,0m1.25.12a1.7,1.7,0,0,1,.64.09.57.57,0,0,1,.36.59.53.53,0,0,1-.23.46,1.06,1.06,0,0,1-.33.11.56.56,0,0,1,.4.23.65.65,0,0,1,.12.36v.17a1,1,0,0,0,0,.17.29.29,0,0,0,0,.12v0h-.38V14.4a.58.58,0,0,0-.22-.53,1,1,0,0,0-.46-.08h-.32v.92h-.41V12.38Zm.45.37a1.06,1.06,0,0,0-.5-.09h-.35v.85h.37a1,1,0,0,0,.39-.06.35.35,0,0,0,.24-.36.36.36,0,0,0-.15-.34" transform="translate(0 0)"/></g><path class="cls-4" d="M26.31,64.49a3.07,3.07,0,0,0,1.23,1.22,3.55,3.55,0,0,0,1.72.4,3.42,3.42,0,0,0,1.12-.18,2.84,2.84,0,0,0,.92-.51,2.28,2.28,0,0,0,.84-1.84,2,2,0,0,0-.28-1.1,2.16,2.16,0,0,0-.75-.72,5.42,5.42,0,0,0-1.06-.48l-1.22-.4c-.42-.14-.83-.29-1.22-.46a4.11,4.11,0,0,1-1.06-.66,2.94,2.94,0,0,1-.76-1,3.78,3.78,0,0,1-.28-1.52,3.24,3.24,0,0,1,.34-1.52,3.16,3.16,0,0,1,.91-1.11,4,4,0,0,1,1.31-.67,5.42,5.42,0,0,1,1.57-.23,5,5,0,0,1,1.95.37,3.7,3.7,0,0,1,1.55,1.25l-1,.74a3.07,3.07,0,0,0-1.06-.95,3.13,3.13,0,0,0-1.45-.32,4,4,0,0,0-1.11.15,2.94,2.94,0,0,0-.92.46,2.15,2.15,0,0,0-.62.75,2.29,2.29,0,0,0-.24,1.08,2.07,2.07,0,0,0,.49,1.48,3.56,3.56,0,0,0,1.23.81A12.5,12.5,0,0,0,30,60a8,8,0,0,1,1.6.61,3.37,3.37,0,0,1,1.22,1.06,3.16,3.16,0,0,1,.49,1.88A3.46,3.46,0,0,1,33,65.13a3.29,3.29,0,0,1-.88,1.13,3.67,3.67,0,0,1-1.29.7,4.71,4.71,0,0,1-1.5.24A6,6,0,0,1,27,66.75a4.26,4.26,0,0,1-1.83-1.49Z" transform="translate(0 0)"/><path class="cls-4" d="M35.31,55.15a.82.82,0,0,1,.23-.58.78.78,0,0,1,.58-.24.81.81,0,0,1,.59.24.82.82,0,0,1,.23.58.8.8,0,0,1-.82.82.78.78,0,0,1-.58-.24A.8.8,0,0,1,35.31,55.15Zm.27,3.33h1.09v8.39H35.58Z" transform="translate(0 0)"/><path class="cls-4" d="M39.59,53.13h1.09V66.87H39.59Z" transform="translate(0 0)"/><path class="cls-4" d="M43.36,55.15a.78.78,0,0,1,.23-.58.78.78,0,0,1,.58-.24.81.81,0,0,1,.59.24.82.82,0,0,1,.23.58.8.8,0,0,1-.82.82.78.78,0,0,1-.58-.24A.76.76,0,0,1,43.36,55.15Zm.27,3.33h1.09v8.39H43.63Z" transform="translate(0 0)"/><path class="cls-4" d="M54.5,65.64a3.83,3.83,0,0,1-3.09,1.45,4.66,4.66,0,0,1-1.78-.33,3.86,3.86,0,0,1-1.4-.91,4.29,4.29,0,0,1-.91-1.4,4.94,4.94,0,0,1,0-3.55,4.29,4.29,0,0,1,.91-1.4,3.86,3.86,0,0,1,1.4-.91,4.66,4.66,0,0,1,1.78-.33,3.93,3.93,0,0,1,1.71.38,4.55,4.55,0,0,1,1.41,1.07l-.87.66a3.7,3.7,0,0,0-1-.83,2.52,2.52,0,0,0-1.21-.3,3.4,3.4,0,0,0-1.38.27,3.1,3.1,0,0,0-1.72,1.83,4,4,0,0,0,0,2.67A3.1,3.1,0,0,0,50,65.84a3.4,3.4,0,0,0,1.38.27,2.56,2.56,0,0,0,1.26-.32,3.31,3.31,0,0,0,1-.84Z" transform="translate(0 0)"/><path class="cls-4" d="M55.39,62.68a4.66,4.66,0,0,1,.32-1.78,4.29,4.29,0,0,1,.91-1.4,4,4,0,0,1,1.4-.91,4.74,4.74,0,0,1,1.78-.33,4.65,4.65,0,0,1,1.77.33,4,4,0,0,1,1.4.91,4.16,4.16,0,0,1,.92,1.4,4.94,4.94,0,0,1,0,3.55,4.16,4.16,0,0,1-.92,1.4,4,4,0,0,1-1.4.91,4.65,4.65,0,0,1-1.77.33A4.74,4.74,0,0,1,58,66.76a4,4,0,0,1-1.4-.91,4.29,4.29,0,0,1-.91-1.4A4.64,4.64,0,0,1,55.39,62.68Zm1.09,0A3.91,3.91,0,0,0,56.7,64a3.12,3.12,0,0,0,.67,1.09,3.17,3.17,0,0,0,1.05.74,3.66,3.66,0,0,0,2.76,0,3.21,3.21,0,0,0,1.06-.74A3.1,3.1,0,0,0,62.9,64a4,4,0,0,0,0-2.67,3.1,3.1,0,0,0-.66-1.09,3.21,3.21,0,0,0-1.06-.74,3.66,3.66,0,0,0-2.76,0,3.17,3.17,0,0,0-1.05.74,3.12,3.12,0,0,0-.67,1.09A3.92,3.92,0,0,0,56.48,62.68Z" transform="translate(0 0)"/><path class="cls-4" d="M66.29,60.84c0-.16,0-.35,0-.57l0-.68c0-.23,0-.45,0-.65a4.3,4.3,0,0,1,0-.46h1.09c0,.31,0,.62,0,.91a2.86,2.86,0,0,0,0,.56h.06a2.86,2.86,0,0,1,1.09-1.19,3.18,3.18,0,0,1,1.78-.5,3.56,3.56,0,0,1,1.6.31,2.5,2.5,0,0,1,1,.81,3.06,3.06,0,0,1,.49,1.15,6.72,6.72,0,0,1,.14,1.35v5h-1.1V61.93a5.36,5.36,0,0,0-.09-1,2.59,2.59,0,0,0-.31-.86,1.7,1.7,0,0,0-.64-.61,2.19,2.19,0,0,0-1.06-.23,3.12,3.12,0,0,0-1.14.21,2.39,2.39,0,0,0-.93.64,3,3,0,0,0-.61,1.07,4.34,4.34,0,0,0-.23,1.52v4.19H66.29Z" transform="translate(0 0)"/><path class="cls-4" d="M83.44,65.29a3.63,3.63,0,0,1-1.57,1.38,5,5,0,0,1-2.06.42,4.51,4.51,0,0,1-1.75-.33,3.89,3.89,0,0,1-1.34-.91,4,4,0,0,1-.86-1.4,5.13,5.13,0,0,1-.3-1.79,4.77,4.77,0,0,1,.31-1.75,4.08,4.08,0,0,1,3.88-2.65,3.94,3.94,0,0,1,1.7.34,3.65,3.65,0,0,1,1.24.89,3.83,3.83,0,0,1,.75,1.26,4.2,4.2,0,0,1,.26,1.43V63h-7a3.73,3.73,0,0,0,.13.88,3,3,0,0,0,.5,1,3.35,3.35,0,0,0,1,.88,3,3,0,0,0,1.57.36,3.46,3.46,0,0,0,1.61-.4,2.83,2.83,0,0,0,1.2-1.09ZM82.61,62a2.52,2.52,0,0,0-.23-1.06,2.9,2.9,0,0,0-.62-.86,2.85,2.85,0,0,0-.92-.59,2.93,2.93,0,0,0-1.14-.22,2.8,2.8,0,0,0-1.48.36,3.23,3.23,0,0,0-.94.84,3.45,3.45,0,0,0-.49.92,2.61,2.61,0,0,0-.14.61Z" transform="translate(0 0)"/><path class="cls-4" d="M101.07,66a8.64,8.64,0,0,1-2.33.9,12,12,0,0,1-2.47.26,7.17,7.17,0,0,1-2.7-.5,6.05,6.05,0,0,1-2.09-1.4,6.34,6.34,0,0,1-1.37-2.14,7.77,7.77,0,0,1,0-5.43,6.39,6.39,0,0,1,1.37-2.13,6.22,6.22,0,0,1,2.09-1.41,7,7,0,0,1,2.7-.51,6.23,6.23,0,0,1,4.64,1.78l-.88.91a3.74,3.74,0,0,0-.71-.65,4.63,4.63,0,0,0-.93-.5,6,6,0,0,0-1-.33,5.1,5.1,0,0,0-1.08-.12,5.66,5.66,0,0,0-2.26.44,5.12,5.12,0,0,0-1.72,1.2,5.26,5.26,0,0,0-1.09,1.8,6.49,6.49,0,0,0-.38,2.23,6.58,6.58,0,0,0,.38,2.24,5.31,5.31,0,0,0,1.09,1.79A5.12,5.12,0,0,0,94,65.67a5.66,5.66,0,0,0,2.26.44,11,11,0,0,0,2-.16,5.09,5.09,0,0,0,1.65-.6V61H96.78V59.93h4.29Z" transform="translate(0 0)"/><path class="cls-4" d="M111.36,65.29a3.71,3.71,0,0,1-1.58,1.38,5,5,0,0,1-2.06.42,4.42,4.42,0,0,1-1.74-.33,3.93,3.93,0,0,1-1.35-.91,4.17,4.17,0,0,1-.86-1.4,5.13,5.13,0,0,1-.3-1.79,4.77,4.77,0,0,1,.31-1.75,4.1,4.1,0,0,1,3.89-2.65,4,4,0,0,1,1.7.34,3.61,3.61,0,0,1,1.23.89,3.86,3.86,0,0,1,.76,1.26,4.18,4.18,0,0,1,.25,1.43V63h-7a3.34,3.34,0,0,0,.14.88,2.85,2.85,0,0,0,.5,1,3.19,3.19,0,0,0,1,.88,3,3,0,0,0,1.57.36,3.47,3.47,0,0,0,1.62-.4,3,3,0,0,0,1.2-1.09ZM110.52,62a2.52,2.52,0,0,0-.23-1.06,2.9,2.9,0,0,0-.62-.86,2.74,2.74,0,0,0-.92-.59,2.93,2.93,0,0,0-1.14-.22,2.8,2.8,0,0,0-1.48.36,3.31,3.31,0,0,0-.93.84,3.5,3.5,0,0,0-.5.92,2.61,2.61,0,0,0-.14.61Z" transform="translate(0 0)"/><path class="cls-4" d="M113.86,53.13H115V66.87h-1.09Z" transform="translate(0 0)"/><path class="cls-4" d="M122.39,54h3.7a9.33,9.33,0,0,1,1.48.12,3.33,3.33,0,0,1,1.33.49,2.73,2.73,0,0,1,1,1,3.56,3.56,0,0,1,.38,1.76,2.67,2.67,0,0,1-.58,1.7,2.88,2.88,0,0,1-1.73,1v0a3.6,3.6,0,0,1,1.16.3,2.87,2.87,0,0,1,1.5,1.63,3.53,3.53,0,0,1,.21,1.23,3.37,3.37,0,0,1-.43,1.81,3.14,3.14,0,0,1-1.07,1.1,4.14,4.14,0,0,1-1.4.55,8,8,0,0,1-1.41.14h-4.1Zm1.2,5.56h2.48a4.21,4.21,0,0,0,1.51-.23,2.71,2.71,0,0,0,.91-.55,1.62,1.62,0,0,0,.44-.7,2.59,2.59,0,0,0,.11-.68,2.45,2.45,0,0,0-.23-1.12,1.77,1.77,0,0,0-.61-.71,2.3,2.3,0,0,0-.89-.37,4.68,4.68,0,0,0-1.07-.11h-2.65Zm0,6.21h2.74a4.73,4.73,0,0,0,1.7-.25,2.54,2.54,0,0,0,1-.64,2,2,0,0,0,.46-.81,2.84,2.84,0,0,0,.12-.77,2.58,2.58,0,0,0-.27-1.22,2.36,2.36,0,0,0-.71-.82,3,3,0,0,0-1-.47,4.71,4.71,0,0,0-1.12-.14h-2.92Z" transform="translate(0 0)"/><path class="cls-4" d="M133.18,60.84c0-.16,0-.35,0-.57l0-.68c0-.23,0-.45,0-.65s0-.35,0-.46h1.09c0,.31,0,.62,0,.91a2.86,2.86,0,0,0,0,.56,3.83,3.83,0,0,1,1.07-1.22,2.7,2.7,0,0,1,1.6-.47,1.66,1.66,0,0,1,.32,0l.32.06-.13,1.07a1.23,1.23,0,0,0-.42-.07,3,3,0,0,0-1.22.23,2.38,2.38,0,0,0-.86.62,2.74,2.74,0,0,0-.5.94,3.9,3.9,0,0,0-.16,1.15v4.58h-1.09Z" transform="translate(0 0)"/><path class="cls-4" d="M146,65.29a3.63,3.63,0,0,1-1.57,1.38,5,5,0,0,1-2.06.42,4.51,4.51,0,0,1-1.75-.33,3.79,3.79,0,0,1-1.34-.91,4,4,0,0,1-.86-1.4,5.13,5.13,0,0,1-.3-1.79,4.77,4.77,0,0,1,.31-1.75,4.08,4.08,0,0,1,3.88-2.65,3.94,3.94,0,0,1,1.7.34,3.65,3.65,0,0,1,1.24.89,3.83,3.83,0,0,1,.75,1.26,4.2,4.2,0,0,1,.26,1.43V63h-7a3.73,3.73,0,0,0,.13.88,3,3,0,0,0,.5,1,3.44,3.44,0,0,0,1,.88,3.08,3.08,0,0,0,1.58.36,3.46,3.46,0,0,0,1.61-.4,2.89,2.89,0,0,0,1.2-1.09ZM145.14,62a2.52,2.52,0,0,0-.23-1.06,2.9,2.9,0,0,0-.62-.86,2.85,2.85,0,0,0-.92-.59,2.93,2.93,0,0,0-1.14-.22,2.8,2.8,0,0,0-1.48.36,3.36,3.36,0,0,0-.94.84,3.45,3.45,0,0,0-.49.92,2.61,2.61,0,0,0-.14.61Z" transform="translate(0 0)"/><path class="cls-4" d="M154.82,63.35c0,.41,0,.78,0,1.11s0,.63,0,.9,0,.54,0,.79a5.87,5.87,0,0,0,.08.72h-1a8.05,8.05,0,0,1-.11-1.36h0a2.94,2.94,0,0,1-1.17,1.2,3.71,3.71,0,0,1-1.77.38,3.88,3.88,0,0,1-1.07-.14,2.83,2.83,0,0,1-.95-.43,2.23,2.23,0,0,1-.94-1.92,2.21,2.21,0,0,1,.49-1.52,3.06,3.06,0,0,1,1.21-.85,5.45,5.45,0,0,1,1.52-.36,13.18,13.18,0,0,1,1.43-.09h1.27v-.5a1.79,1.79,0,0,0-.67-1.57,2.9,2.9,0,0,0-1.69-.47,3.83,3.83,0,0,0-2.56.95l-.64-.75a3.88,3.88,0,0,1,1.49-.88,5.36,5.36,0,0,1,1.71-.3,3.78,3.78,0,0,1,2.43.72,2.76,2.76,0,0,1,.91,2.31Zm-2.18-.69a9.58,9.58,0,0,0-1.33.09,4.56,4.56,0,0,0-1.17.31,2.1,2.1,0,0,0-.82.58,1.32,1.32,0,0,0-.31.91,1.4,1.4,0,0,0,.17.68,1.51,1.51,0,0,0,.45.49,2.09,2.09,0,0,0,.6.29,2.35,2.35,0,0,0,.69.1,3.46,3.46,0,0,0,1.43-.25,2.42,2.42,0,0,0,.9-.67,2.16,2.16,0,0,0,.46-.92,4.19,4.19,0,0,0,.13-1v-.56Z" transform="translate(0 0)"/><path class="cls-4" d="M157.38,64.73a2.41,2.41,0,0,0,1,1,3.07,3.07,0,0,0,1.42.35,2.37,2.37,0,0,0,.69-.11,1.9,1.9,0,0,0,.62-.31,1.55,1.55,0,0,0,.44-.48,1.17,1.17,0,0,0,.18-.64,1.06,1.06,0,0,0-.38-.88,2.87,2.87,0,0,0-.91-.45,11.81,11.81,0,0,0-1.2-.28,4.81,4.81,0,0,1-1.2-.37,2.51,2.51,0,0,1-.92-.68,1.83,1.83,0,0,1-.37-1.23A2.18,2.18,0,0,1,157,59.6a2.38,2.38,0,0,1,.66-.75,3,3,0,0,1,.92-.45,4.07,4.07,0,0,1,1-.14,4,4,0,0,1,1.79.38,2.72,2.72,0,0,1,1.17,1.2l-1,.58a2.31,2.31,0,0,0-.77-.88,2.41,2.41,0,0,0-1.82-.21,2.12,2.12,0,0,0-.57.26A1.4,1.4,0,0,0,158,60a1,1,0,0,0-.17.59,1,1,0,0,0,.37.83,2.8,2.8,0,0,0,.92.43,10.85,10.85,0,0,0,1.2.26,4.65,4.65,0,0,1,1.2.36,2.42,2.42,0,0,1,.91.7,2.05,2.05,0,0,1,.38,1.32,2.52,2.52,0,0,1-.25,1.14,2.39,2.39,0,0,1-.67.81,3.28,3.28,0,0,1-1,.49,4,4,0,0,1-1.15.16,4.64,4.64,0,0,1-2-.42,3,3,0,0,1-1.39-1.29Z" transform="translate(0 0)"/><path class="cls-4" d="M168.87,59.46h-2.4v5.47a1.16,1.16,0,0,0,.31.87,1.14,1.14,0,0,0,.85.31,2.72,2.72,0,0,0,.63-.08,5.46,5.46,0,0,0,.61-.21l.09,1a7,7,0,0,1-.71.2,3.21,3.21,0,0,1-.71.09,2.75,2.75,0,0,1-1-.17,1.94,1.94,0,0,1-.67-.46,1.92,1.92,0,0,1-.37-.69,2.84,2.84,0,0,1-.12-.84V59.46h-1.82v-1h1.82V56.06h1.09v2.42h2.4Z" transform="translate(0 0)"/><path class="cls-4" d="M175.16,54h1.2V66.87h-1.2Z" transform="translate(0 0)"/><path class="cls-4" d="M179.23,60.84c0-.16,0-.35,0-.57l0-.68c0-.23,0-.45,0-.65s0-.35,0-.46h1.09c0,.31,0,.62,0,.91a3.54,3.54,0,0,0,.05.56h0a3,3,0,0,1,1.09-1.19,3.22,3.22,0,0,1,1.78-.5,2.81,2.81,0,0,1,1.53.43,2.4,2.4,0,0,1,1,1.39,2.72,2.72,0,0,1,1.19-1.38,3.3,3.3,0,0,1,1.66-.44,3.51,3.51,0,0,1,1.6.31,2.46,2.46,0,0,1,1,.81,3.23,3.23,0,0,1,.49,1.15,6.72,6.72,0,0,1,.13,1.35v5h-1.09V61.93a5.36,5.36,0,0,0-.09-1,2.6,2.6,0,0,0-.32-.86,1.61,1.61,0,0,0-.63-.61,2.23,2.23,0,0,0-1.07-.23,2.46,2.46,0,0,0-1.25.28,2.23,2.23,0,0,0-.77.72,3,3,0,0,0-.4.95,4.13,4.13,0,0,0-.12,1v4.72H185V61.82a3.55,3.55,0,0,0-.43-1.87,1.43,1.43,0,0,0-1.32-.71,3.06,3.06,0,0,0-1.13.21,2.39,2.39,0,0,0-.93.64,3.18,3.18,0,0,0-.62,1.07,4.6,4.6,0,0,0-.22,1.52v4.19h-1.09Z" transform="translate(0 0)"/><path class="cls-4" d="M194.13,58.48h1.09V60h0a2.89,2.89,0,0,1,.64-.75,3.65,3.65,0,0,1,.83-.53,4.23,4.23,0,0,1,.93-.31,4.86,4.86,0,0,1,2.74.23,4.13,4.13,0,0,1,1.4.91,4.31,4.31,0,0,1,.92,1.4,5.08,5.08,0,0,1,0,3.55,4.31,4.31,0,0,1-.92,1.4,4.13,4.13,0,0,1-1.4.91,4.86,4.86,0,0,1-2.74.23,4.23,4.23,0,0,1-.93-.31,4,4,0,0,1-.83-.52,3.12,3.12,0,0,1-.64-.76h0V71h-1.09Zm1,4.2a3.35,3.35,0,0,0,1,2.42,3.43,3.43,0,0,0,1.11.74,3.47,3.47,0,0,0,1.38.27,3.4,3.4,0,0,0,1.38-.27,3.17,3.17,0,0,0,1.05-.74,3.27,3.27,0,0,0,.67-1.09,4.16,4.16,0,0,0,0-2.67,3.27,3.27,0,0,0-.67-1.09,3.17,3.17,0,0,0-1.05-.74,3.4,3.4,0,0,0-1.38-.27,3.47,3.47,0,0,0-1.38.27,3.43,3.43,0,0,0-1.11.74,3.35,3.35,0,0,0-1,2.43Z" transform="translate(0 0)"/><path class="cls-4" d="M205.29,53.13h1.09V66.87h-1.09Z" transform="translate(0 0)"/><path class="cls-4" d="M215.64,63.35c0,.41,0,.78,0,1.11s0,.63,0,.9,0,.54,0,.79a5.87,5.87,0,0,0,.08.72h-1a8.05,8.05,0,0,1-.11-1.36h0a2.94,2.94,0,0,1-1.17,1.2,3.71,3.71,0,0,1-1.77.38,3.88,3.88,0,0,1-1.07-.14,2.83,2.83,0,0,1-.95-.43,2.23,2.23,0,0,1-.94-1.92,2.21,2.21,0,0,1,.49-1.52,3.06,3.06,0,0,1,1.21-.85,5.45,5.45,0,0,1,1.52-.36,13.18,13.18,0,0,1,1.43-.09h1.27v-.5a1.79,1.79,0,0,0-.67-1.57,2.9,2.9,0,0,0-1.69-.47,3.83,3.83,0,0,0-2.56.95l-.64-.75a3.88,3.88,0,0,1,1.49-.88,5.36,5.36,0,0,1,1.71-.3,3.83,3.83,0,0,1,2.44.72,2.78,2.78,0,0,1,.9,2.31Zm-2.18-.69a9.58,9.58,0,0,0-1.33.09,4.56,4.56,0,0,0-1.17.31,2.1,2.1,0,0,0-.82.58,1.32,1.32,0,0,0-.31.91,1.4,1.4,0,0,0,.17.68,1.51,1.51,0,0,0,.45.49,2.09,2.09,0,0,0,.6.29,2.35,2.35,0,0,0,.69.1,3.46,3.46,0,0,0,1.43-.25,2.42,2.42,0,0,0,.9-.67,2.16,2.16,0,0,0,.46-.92,4.19,4.19,0,0,0,.13-1v-.56Z" transform="translate(0 0)"/><path class="cls-4" d="M218.19,60.84c0-.16,0-.35,0-.57l0-.68c0-.23,0-.45,0-.65a4.3,4.3,0,0,1,0-.46h1.09c0,.31,0,.62,0,.91a3.54,3.54,0,0,0,0,.56h.05a3,3,0,0,1,1.1-1.19,3.18,3.18,0,0,1,1.78-.5,3.49,3.49,0,0,1,1.59.31,2.46,2.46,0,0,1,1,.81,3.06,3.06,0,0,1,.49,1.15,6.72,6.72,0,0,1,.13,1.35v5h-1.09V61.93a5.36,5.36,0,0,0-.09-1,2.4,2.4,0,0,0-.32-.86,1.61,1.61,0,0,0-.63-.61,2.19,2.19,0,0,0-1.06-.23,3.12,3.12,0,0,0-1.14.21,2.39,2.39,0,0,0-.93.64,3,3,0,0,0-.61,1.07,4.34,4.34,0,0,0-.23,1.52v4.19h-1.09Z" transform="translate(0 0)"/><path class="cls-4" d="M232,59.46h-2.39v5.47a1.16,1.16,0,0,0,.31.87,1.13,1.13,0,0,0,.85.31,2.79,2.79,0,0,0,.63-.08,5.29,5.29,0,0,0,.6-.21l.1,1c-.21.07-.45.14-.71.2a3.35,3.35,0,0,1-.71.09,2.72,2.72,0,0,1-1-.17,1.85,1.85,0,0,1-.67-.46,1.94,1.94,0,0,1-.38-.69,2.84,2.84,0,0,1-.11-.84V59.46h-1.82v-1h1.82V56.06h1.09v2.42H232Z" transform="translate(0 0)"/><path class="cls-4" d="M233.65,64.73a2.36,2.36,0,0,0,1,1,3.07,3.07,0,0,0,1.42.35,2.37,2.37,0,0,0,.69-.11,2,2,0,0,0,.62-.31,1.55,1.55,0,0,0,.44-.48,1.16,1.16,0,0,0,.17-.64,1.05,1.05,0,0,0-.37-.88,2.82,2.82,0,0,0-.92-.45,10.67,10.67,0,0,0-1.2-.28,5.09,5.09,0,0,1-1.2-.37,2.56,2.56,0,0,1-.91-.68,1.83,1.83,0,0,1-.38-1.23,2.18,2.18,0,0,1,.26-1.08,2.38,2.38,0,0,1,.66-.75,2.92,2.92,0,0,1,.92-.45,4.22,4.22,0,0,1,2.83.24,2.72,2.72,0,0,1,1.17,1.2l-1,.58a2.33,2.33,0,0,0-.78-.88,2.16,2.16,0,0,0-1.2-.3,2.2,2.2,0,0,0-.61.09,2,2,0,0,0-.58.26,1.27,1.27,0,0,0-.42.41,1,1,0,0,0-.18.59,1,1,0,0,0,.38.83,2.85,2.85,0,0,0,.91.43,12,12,0,0,0,1.2.26,4.42,4.42,0,0,1,1.2.36,2.45,2.45,0,0,1,.92.7,2.05,2.05,0,0,1,.37,1.32,2.52,2.52,0,0,1-.24,1.14,2.39,2.39,0,0,1-.67.81,3.22,3.22,0,0,1-1,.49,3.88,3.88,0,0,1-1.14.16,4.64,4.64,0,0,1-2-.42,3,3,0,0,1-1.39-1.29Z" transform="translate(0 0)"/></g></g></svg>