<svg xmlns="http://www.w3.org/2000/svg" viewBox="0 0 361.88 168.22"><defs><style>.cls-1{fill:#ff8300;}.cls-2{fill:#53575a;}.cls-3{fill:none;stroke:#ff8300;stroke-width:0.81px;}</style></defs><g id="Layer_2" data-name="Layer 2"><g id="Layer_1-2" data-name="Layer 1"><path class="cls-1" d="M0,94.52H.56a20.2,20.2,0,0,0,.35,3.6,30.31,30.31,0,0,0,1,3.95,25.83,25.83,0,0,0,1.53,3.75,10.85,10.85,0,0,0,2,2.86,16.48,16.48,0,0,0,5,3.37,15.79,15.79,0,0,0,5.92,1.28H17A17.55,17.55,0,0,0,22.92,112a11.75,11.75,0,0,0,4.73-4.41,12.44,12.44,0,0,0,1.85-6.15,13,13,0,0,0-1.64-6.58,14.4,14.4,0,0,0-5.71-5.61l-8.78-5a26.16,26.16,0,0,1-7-5.46,18.77,18.77,0,0,1-3.66-6.12A14.78,14.78,0,0,1,2,66.42a15.65,15.65,0,0,1,1.67-5.8,16.45,16.45,0,0,1,3.73-4.8,18.59,18.59,0,0,1,5.33-3.33,11.37,11.37,0,0,1,2.78-.85,18,18,0,0,1,2.86-.23,15.56,15.56,0,0,1,6.27,1.31q1.11.47,2.37.93a8.62,8.62,0,0,0,2.51.54,4.26,4.26,0,0,0,4.31-2.55h.49v16.8h-.55A13.94,13.94,0,0,0,33.26,65,19.81,19.81,0,0,0,32,61.59a21.58,21.58,0,0,0-1.74-3.1,18.59,18.59,0,0,0-1.95-2.44A13.93,13.93,0,0,0,23.75,53a14.41,14.41,0,0,0-5.43-1,15.11,15.11,0,0,0-2.4.19,14.55,14.55,0,0,0-2.34.58,10.15,10.15,0,0,0-5,3.72,8.57,8.57,0,0,0-1.46,5.88,14.38,14.38,0,0,0,3.1,7.08A31.49,31.49,0,0,0,19,76.87l8,4.57A20.72,20.72,0,0,1,33,86.74a16.94,16.94,0,0,1,3.06,6.39,15.23,15.23,0,0,1,.07,6.65,14.83,14.83,0,0,1-2.89,6.16,19.15,19.15,0,0,1-5.81,4.87,25.36,25.36,0,0,1-8.71,2.83h.14c-.37,0-.71.09-1,.11s-.62,0-.94,0h-.7a14.73,14.73,0,0,1-6.06-1.31v0a7.11,7.11,0,0,1-.7-.31A11.51,11.51,0,0,0,4.88,111a5.29,5.29,0,0,0-2.69.62A3.08,3.08,0,0,0,.91,113a9.74,9.74,0,0,0-.42,1v.08H0Z"/><path class="cls-1" d="M77.74,52.1h24.31v.55h-1c-.75.05-1.72.18-2.93.38a11.19,11.19,0,0,0-3.59,1.32,9.32,9.32,0,0,0-3.06,2.86,8.54,8.54,0,0,0-1.29,5V95.68a17.73,17.73,0,0,1-6,13.47,20.44,20.44,0,0,1-6.55,3.79,23.18,23.18,0,0,1-7.87,1.32h-.42a21.63,21.63,0,0,1-7.59-1.32,19.89,19.89,0,0,1-6.34-3.79A18.13,18.13,0,0,1,50.89,103a19.73,19.73,0,0,1-1.57-8.2V58.22c-.14-2-.68-3.42-1.6-4.22a7.47,7.47,0,0,0-4.53-1.35H41V52H65.27v.38l.07.08h-.07v.16H62.41A6.59,6.59,0,0,0,58.65,54a5.71,5.71,0,0,0-1.6,3.64V94.29a28.15,28.15,0,0,0,1.25,8.51A16.94,16.94,0,0,0,62,109.38a13.32,13.32,0,0,0,6,3.68,15,15,0,0,0,8.15-.2,20.18,20.18,0,0,0,7.66-4.18A15.74,15.74,0,0,0,88.05,103a16.67,16.67,0,0,0,1.6-7.35V61.78A8.26,8.26,0,0,0,88.26,57a9.23,9.23,0,0,0-3.07-2.71A11.75,11.75,0,0,0,81.64,53c-1.21-.2-2.16-.33-2.86-.38h-1Z"/><path class="cls-1" d="M108.39,114.18v-.54h.07a25,25,0,0,0,4-.27,4.89,4.89,0,0,0,2.58-1.13,4.77,4.77,0,0,0,1.36-2.32,14.86,14.86,0,0,0,.42-4V60.39q0-4.26-1.36-5.85t-4.84-1.82h-2.23v-.46h26.54A26.09,26.09,0,0,1,143,53.42a17.17,17.17,0,0,1,5.57,3.33,13,13,0,0,1,3.17,4.84,17.3,17.3,0,0,1,1.08,6.23q0,7-4.25,11.06A16,16,0,0,1,143,82.21a12.88,12.88,0,0,1-3.24.85c-1.14.16-2.33.29-3.59.39a9.93,9.93,0,0,1,3.1,1.63A16.8,16.8,0,0,1,143,89.33l13.1,20.21a7.22,7.22,0,0,0,2.33,2.28,13.92,13.92,0,0,0,2.65,1.24,9.93,9.93,0,0,0,2.26.5l1.19.08h.07v.54H150.67L133.68,88a17.92,17.92,0,0,0-1.92-2.44,7.91,7.91,0,0,0-1.67-1.35,5.18,5.18,0,0,0-1.57-.62,7.55,7.55,0,0,0-1.6-.16h-2.58v22.6a16.52,16.52,0,0,0,.32,3.56,5,5,0,0,0,1,2.25,4.41,4.41,0,0,0,1.92,1.27,9.69,9.69,0,0,0,2.92.51h2.16v.54H108.39Zm16-31.19h10a9.3,9.3,0,0,0,5.85-1.94,10.77,10.77,0,0,0,1.57-1.59,13.64,13.64,0,0,0,1.5-2.28A19.74,19.74,0,0,0,144.61,73a25.06,25.06,0,0,0,.49-5.14q0-6.66-2.58-10.68a9.13,9.13,0,0,0-8.15-4.42h-4.53a8.57,8.57,0,0,0-2.57.62,4.33,4.33,0,0,0-1.71,1.32,5.36,5.36,0,0,0-.94,2.24,17.42,17.42,0,0,0-.28,3.41V83Z"/><path class="cls-1" d="M171.85,113.21a5.1,5.1,0,0,0,2.58-1.12,4.71,4.71,0,0,0,1.39-2.32,14.91,14.91,0,0,0,.42-4V60.23a17.34,17.34,0,0,0-.31-3.56,5,5,0,0,0-1.05-2.24,4.18,4.18,0,0,0-1.95-1.24,13.66,13.66,0,0,0-3-.54h-2.16V52H212V68.44h-.48v-.16c-.38-1.7-.8-3.47-1.29-5.3a16.74,16.74,0,0,0-2.27-5,12.1,12.1,0,0,0-4.18-3.79,13.92,13.92,0,0,0-7-1.51h-13.1v30.1h10a7.56,7.56,0,0,0,4.71-1.47,9.07,9.07,0,0,0,2.54-3.17,12.57,12.57,0,0,0,1.08-3.4,18.61,18.61,0,0,0,.24-2.25v-.23h.42V93.82h-.42v-.23a20.48,20.48,0,0,0-.24-2.24,12,12,0,0,0-1.12-3.49,9.24,9.24,0,0,0-2.64-3.17,7.77,7.77,0,0,0-4.91-1.39h-9.62v22.6a16.71,16.71,0,0,0,.32,3.52,5,5,0,0,0,1,2.28A4.41,4.41,0,0,0,187,113a10.53,10.53,0,0,0,3,.5h2.16V114H167.88v-.54A24.47,24.47,0,0,0,171.85,113.21Z"/><path class="cls-1" d="M206.05,113.48l1.22-.15a7.92,7.92,0,0,0,2.72-1,14.74,14.74,0,0,0,3.31-2.74,15.29,15.29,0,0,0,3-5.35l18.74-52h.56L254.26,104a34.59,34.59,0,0,0,2.3,5.22,9.9,9.9,0,0,0,2.09,2.71,4.45,4.45,0,0,0,2.12,1.09l2.47.42V114H240.39v-.54c1.68-.1,3.1-.22,4.29-.35a4.45,4.45,0,0,0,2.68-1,3.3,3.3,0,0,0,.77-2.75,23.54,23.54,0,0,0-1.4-5.46l-5.15-14.39H222.14l-5.29,14.63a8.06,8.06,0,0,0-.59,3.91,5.44,5.44,0,0,0,1.08,2.63,5.7,5.7,0,0,0,2,1.62,11.5,11.5,0,0,0,2.37.85,9.92,9.92,0,0,0,2,.31l.9,0V114h-18.6ZM231.9,62.55,222.35,89h19Z"/><path class="cls-1" d="M263.87,83.14v-.08h-.28a38.21,38.21,0,0,1,.49-6.19,37.82,37.82,0,0,1,1.46-6,32.28,32.28,0,0,1,5.3-9.9,30.88,30.88,0,0,1,3.58-3.8,20.45,20.45,0,0,1,4.15-2.86,19.34,19.34,0,0,1,9.54-2.48,15.9,15.9,0,0,1,6.83,1.47H295a.36.36,0,0,0,.28.16l.07.07.94.47c.3.15.61.34.94.54A13.35,13.35,0,0,0,303,56.52a5.19,5.19,0,0,0,3.13-.78A4,4,0,0,0,307.69,53h.48V75.56h-.48a43.12,43.12,0,0,0-1-5.42,41.54,41.54,0,0,0-1.57-4.8,28.91,28.91,0,0,0-2.06-3.91,24.14,24.14,0,0,0-2.47-3.29,17.84,17.84,0,0,0-5.85-4.33,16.6,16.6,0,0,0-5.57-1.4,11.56,11.56,0,0,0-7,2.4,21.33,21.33,0,0,0-5.71,6.58,37.74,37.74,0,0,0-3.87,9.79,48.51,48.51,0,0,0-1.43,12,46,46,0,0,0,2.34,15,30.44,30.44,0,0,0,6.09,10.91,18.62,18.62,0,0,0,6.2,4.18,6.7,6.7,0,0,0,1.64.43,14.28,14.28,0,0,0,1.71.11,25.13,25.13,0,0,0,2.82-.46,15.64,15.64,0,0,0,2.75-.93,17.08,17.08,0,0,0,5.78-4.34,15.71,15.71,0,0,0,2.47-3.21,34.85,34.85,0,0,0,2-3.91,29.7,29.7,0,0,0,1.6-4.8q.63-2.55,1.05-5.41l.48.07a38.49,38.49,0,0,1-2.71,10.38,25.7,25.7,0,0,1-4.53,7.35,19.5,19.5,0,0,1-6,4.33,15.46,15.46,0,0,1-6.76,1.47,19.33,19.33,0,0,1-9.54-2.47,24.8,24.8,0,0,1-7.73-6.66,32.45,32.45,0,0,1-5.3-9.91,37.55,37.55,0,0,1-1.46-6,38.12,38.12,0,0,1-.49-6.19Z"/><path class="cls-1" d="M348.78,112.86A15.64,15.64,0,0,0,356,108a23.53,23.53,0,0,0,2.3-3.29,28.49,28.49,0,0,0,3.13-9h.49l-2,18.42H313.81v-.54a25.18,25.18,0,0,0,4-.27,5.14,5.14,0,0,0,2.61-1.13,4.68,4.68,0,0,0,1.4-2.32,15.35,15.35,0,0,0,.41-4V61.32a3.71,3.71,0,0,0,0-.47,2.38,2.38,0,0,1,0-.46q0-4.26-1.35-5.85c-.91-1-2.52-1.66-4.85-1.82h-2.22v-.46h44.16V68.51h-.49v-.07q-.56-2.56-1.29-5.35A16.43,16.43,0,0,0,353.87,58a12.21,12.21,0,0,0-4.18-3.8,14.1,14.1,0,0,0-7-1.51H329.63V83h10a7.44,7.44,0,0,0,4.7-1.51,9.94,9.94,0,0,0,2.58-3.21A11.09,11.09,0,0,0,348,74.86a21.22,21.22,0,0,0,.21-2.17v-.23h.48v21.6h-.48v-.24c0-.36-.07-1.11-.21-2.24a10.72,10.72,0,0,0-1.12-3.52,9.27,9.27,0,0,0-2.68-3.22,7.81,7.81,0,0,0-4.91-1.39h-9.61v21.21a10.16,10.16,0,0,1,.07,1.39,16.6,16.6,0,0,0,.31,3.56,5.12,5.12,0,0,0,1.05,2.25,4.32,4.32,0,0,0,1.91,1.27,9.82,9.82,0,0,0,2.93.51h7.73A16,16,0,0,0,348.78,112.86Z"/><path class="cls-2" d="M99.65,28.38a7.81,7.81,0,0,0-2.8,2.48,10.45,10.45,0,0,0-1.16,1.66,3.52,3.52,0,0,0-.51,2.17,3.69,3.69,0,0,0,1,2c.56.59,1,1.12,1.49,1.61l1.44,1.6a14.25,14.25,0,0,1,1.26,1.6q2.33-1.86,4.43-3.88a43.78,43.78,0,0,1,4.51-3.78,35.25,35.25,0,0,1,3.5-2.58q1.9-1.25,4-2.38l1.3-.73a1.17,1.17,0,0,1,1.4.11,1.13,1.13,0,0,1-.1.82,1.09,1.09,0,0,1-.56.47l-.74.31a1.09,1.09,0,0,0-.56.47,25.16,25.16,0,0,0-3.77,2.32c-1.15.87-2.32,1.71-3.49,2.54-3,2.48-5.87,5.07-8.67,7.76a33.48,33.48,0,0,1,2.28,4.87,16.4,16.4,0,0,1,1,5.9,19,19,0,0,1-.93,6.62,19.47,19.47,0,0,1-2.79,5.38,21.77,21.77,0,0,1-4,3.94,8.2,8.2,0,0,1-5.4,1.76,6,6,0,0,1-2.14-.52,8,8,0,0,1-1.59-1,10.6,10.6,0,0,1-1.49-2.38,8.41,8.41,0,0,1-.65-3,12.44,12.44,0,0,1,1.21-6.62,35.43,35.43,0,0,1,3.08-5.18,43.36,43.36,0,0,1,3.67-4.5c1.28-1.35,2.53-2.6,3.78-3.78a12.08,12.08,0,0,0-1.49-1.91c-.56-.59-1.12-1.19-1.68-1.81a19.34,19.34,0,0,1-1.54-2,8.52,8.52,0,0,1-1.07-2.28,5.91,5.91,0,0,1,.05-4.19,17.13,17.13,0,0,1,1.81-3.36c.63-.76,1.23-1.43,1.82-2a8.14,8.14,0,0,1,2.1-1.5A8.32,8.32,0,0,1,99,25.07a2.46,2.46,0,0,1,1.4.2,2.27,2.27,0,0,0,.51.57,1.81,1.81,0,0,1,.52.78,3.8,3.8,0,0,1,0,2c-.15.76-.39,1.13-.7,1.13s-.68-.06-.74-.41A2.52,2.52,0,0,0,99.65,28.38Zm-1.21,17.9q-1.59,1.45-3.17,3.21a46.8,46.8,0,0,0-3.08,3.83c-.55.76-1.13,1.61-1.72,2.54a16.29,16.29,0,0,0-1.49,3,16.59,16.59,0,0,0-.84,3.47,9.53,9.53,0,0,0,.33,3.78,7.24,7.24,0,0,0,1.21,1.39,2.58,2.58,0,0,0,1.77.57,6.11,6.11,0,0,0,3.77-1.6,17.6,17.6,0,0,0,2.94-3.26A14.85,14.85,0,0,0,100,59.33a19.37,19.37,0,0,0,.84-4.61,16.62,16.62,0,0,0-.37-4.61,11.43,11.43,0,0,0-1.73-4c0-.07,0-.11-.09-.11A.64.64,0,0,0,98.44,46.28ZM88.56,72.06c0,.06.06,0,.19-.11C88.75,72,88.69,72.06,88.56,72.06Z"/><path class="cls-2" d="M133.83,44.21a7.08,7.08,0,0,0,1.54-2q.6-1.14,1.26-2.28c.43-.76.85-1.52,1.25-2.28s.8-1.51,1.17-2.27.87-1.31,1.3-2.07.9-1.52,1.4-2.28q.47-.72.93-1.5a6.31,6.31,0,0,1,1.07-1.35,2.88,2.88,0,0,1,1.35-.72,2.75,2.75,0,0,1,1.68.26,4.63,4.63,0,0,1,1.07,2.53,27.67,27.67,0,0,1,.28,3.37c0,1.17.08,2.34.14,3.52a8.41,8.41,0,0,0,.65,3,5.57,5.57,0,0,0,1.91-1.81L152.37,36c.5-.83,1-1.67,1.44-2.54A17.14,17.14,0,0,0,155,30.86a7.12,7.12,0,0,0,.79-1.81,1.2,1.2,0,0,1,1.54-.88,1.92,1.92,0,0,1-.1,1.92,4.82,4.82,0,0,0-.65,1.91c-.31.62-.59,1.23-.84,1.81s-.49,1.19-.74,1.81a20.71,20.71,0,0,0-1.87,3.11,10.49,10.49,0,0,1-2.14,3,3.41,3.41,0,0,1-1.16.83,2.81,2.81,0,0,1-1.73.1,3.55,3.55,0,0,1-1.72-1.91,11.92,11.92,0,0,1-.7-3,34.73,34.73,0,0,1-.18-3.63,22.28,22.28,0,0,0-.28-3.57,1.81,1.81,0,0,0-.8.78c-.21.38-.45.74-.69,1.09-.69,1-1.35,2.14-2,3.31s-1.25,2.34-1.81,3.52a33.18,33.18,0,0,0-2.47,4.6,8.39,8.39,0,0,1-3.21,3.78,4.23,4.23,0,0,0-.66,0,1.8,1.8,0,0,1-.74,0,6.2,6.2,0,0,1-.93-.52,9.91,9.91,0,0,1-1.26-4.71c-.09-1.89-.14-3.84-.14-5.84s0-4-.09-6-.16-3.89-.28-5.69a61.12,61.12,0,0,0-3.45,8.9c-1,3.25-2,6.62-2.89,10.14q-.93,3.74-1.72,7.66t-1.72,8.08c-.13.62-.25,1.24-.38,1.86a8.55,8.55,0,0,1-.51,1.71,3.84,3.84,0,0,1-.88,1.29,2.6,2.6,0,0,1-1.49.62,2,2,0,0,1-1.68-1.5,19,19,0,0,1-.56-2.74,54.76,54.76,0,0,1,0-9.06q.38-4.82.84-9.16t1.12-8.74q.64-4.41,1.49-8.44c.18-.83.38-1.69.6-2.59a1.89,1.89,0,0,1,1.63-1.55,1.24,1.24,0,0,1,1.07.21,2.15,2.15,0,0,1,.52.83,5.61,5.61,0,0,1-.1,2.27,5.66,5.66,0,0,0-.09,2.28,8.2,8.2,0,0,0,.37,1.76,3,3,0,0,1,.1,1.66.64.64,0,0,1-.61.41.9.9,0,0,1-.7-.31c-.5,3.52-1,7-1.4,10.45s-.74,7.11-.93,11q1.59-6,3.36-12.52T126,26.93c.18-.48.43-1.15.74-2a13,13,0,0,1,1.17-2.43,5.69,5.69,0,0,1,1.58-1.76,1.78,1.78,0,0,1,2,0,2.69,2.69,0,0,1,1.26,1.66,14.21,14.21,0,0,1,.61,2.79,28.36,28.36,0,0,1,.18,3.26c0,1.14,0,2.16.1,3.05a60.16,60.16,0,0,1,0,6.58A33,33,0,0,0,133.83,44.21Z"/><path class="cls-2" d="M162.34,25.27a6.9,6.9,0,0,1,5,2.18,10.43,10.43,0,0,1,2.28,5.28c2-.42,4.05-.88,6.2-1.4s4.23-1,6.28-1.61a4.78,4.78,0,0,0,.93-.36,6.76,6.76,0,0,1,1.17-.41,3,3,0,0,1,1.07-.11.78.78,0,0,1,.65.47.69.69,0,0,1-.18.83,4,4,0,0,1-.94.57,6.14,6.14,0,0,1-1.21.41c-.43.11-.74.19-.93.26a63.71,63.71,0,0,1-6.29,1.81q-3.3.78-6.56,1.5A24.14,24.14,0,0,1,169,42.2a27.8,27.8,0,0,1-2.57,6.36,32.07,32.07,0,0,1-3.58,5,10.1,10.1,0,0,1-4.89,3.1h-1.4a3.4,3.4,0,0,1-1.58-.77,13.63,13.63,0,0,1-1.21-1.19,9.7,9.7,0,0,1-1.45-4.5,29.72,29.72,0,0,1,.05-5.49,51.2,51.2,0,0,1,.84-5.59q.56-2.75,1-4.92a4.48,4.48,0,0,1,0-3.72A8.15,8.15,0,0,1,156,27.76a18.78,18.78,0,0,0,.7-2.18,20.11,20.11,0,0,1,.79-2.38,7.28,7.28,0,0,1,1.17-2,2.26,2.26,0,0,1,1.81-.83,1.86,1.86,0,0,1,1.87,1.5A6.17,6.17,0,0,1,162.34,25.27ZM157.86,36c-.31,2-.69,4.16-1.16,6.47a27.89,27.89,0,0,0-.51,7.09,10.76,10.76,0,0,0,.32,1.76,2.53,2.53,0,0,0,.89,1.34,6.94,6.94,0,0,0,4.28-2.48q1.59-2,3-4a41.11,41.11,0,0,0,2.24-5,13.92,13.92,0,0,0,.75-6,39.44,39.44,0,0,1-4.76.77A33.79,33.79,0,0,1,157.86,36Zm4.1-8.59a3.59,3.59,0,0,0-.18,1.19c0,.45-.19.71-.56.77a1.13,1.13,0,0,1-.42-.05,2.18,2.18,0,0,1-.33-.15,2.08,2.08,0,0,1-.09-1.45,4.41,4.41,0,0,0-.7,1.34c-.16.49-.29,1-.42,1.56a16.93,16.93,0,0,0-.46,1.65c-.13.56-.25,1.11-.38,1.66,1.74,0,3.36-.07,4.85-.21s2.95-.34,4.38-.62a8.75,8.75,0,0,0-1.73-4.09A5.16,5.16,0,0,0,162,27.45Z"/><path class="cls-2" d="M190.65,25.27a6.93,6.93,0,0,1,5,2.18,10.61,10.61,0,0,1,2.28,5.28c2-.42,4.05-.88,6.19-1.4s4.24-1,6.29-1.61a4.78,4.78,0,0,0,.93-.36A6.48,6.48,0,0,1,212.5,29a3,3,0,0,1,1.07-.11.79.79,0,0,1,.65.47.69.69,0,0,1-.19.83,4.1,4.1,0,0,1-.93.57,6.37,6.37,0,0,1-1.21.41,9.47,9.47,0,0,0-.93.26,64.51,64.51,0,0,1-6.29,1.81q-3.3.78-6.57,1.5a23.85,23.85,0,0,1-.79,7.51,27.34,27.34,0,0,1-2.56,6.36,32.12,32.12,0,0,1-3.59,5,10,10,0,0,1-4.89,3.1h-1.39a3.48,3.48,0,0,1-1.59-.77,15.14,15.14,0,0,1-1.21-1.19,9.7,9.7,0,0,1-1.44-4.5,29.69,29.69,0,0,1,0-5.49q.28-2.85.84-5.59c.38-1.83.72-3.47,1-4.92a4.44,4.44,0,0,1-.05-3.72,8,8,0,0,1,1.82-2.69,20.92,20.92,0,0,0,.7-2.18,18.44,18.44,0,0,1,.79-2.38,7.52,7.52,0,0,1,1.16-2,2.28,2.28,0,0,1,1.82-.83,1.85,1.85,0,0,1,1.86,1.5A6.17,6.17,0,0,1,190.65,25.27ZM186.18,36q-.47,3-1.16,6.47a28.35,28.35,0,0,0-.52,7.09,9.79,9.79,0,0,0,.33,1.76,2.52,2.52,0,0,0,.88,1.34A7,7,0,0,0,190,50.22c1.05-1.31,2.05-2.66,3-4a42.7,42.7,0,0,0,2.24-5,13.77,13.77,0,0,0,.74-6,39,39,0,0,1-4.75.77A33.83,33.83,0,0,1,186.18,36Zm4.1-8.59a3.34,3.34,0,0,0-.19,1.19c0,.45-.18.71-.56.77a1.2,1.2,0,0,1-.42-.05,1.76,1.76,0,0,1-.32-.15,2,2,0,0,1-.09-1.45,4.2,4.2,0,0,0-.7,1.34,15.31,15.31,0,0,0-.42,1.56,17,17,0,0,0-.47,1.65c-.12.56-.25,1.11-.37,1.66,1.74,0,3.35-.07,4.84-.21s2.95-.34,4.38-.62a8.64,8.64,0,0,0-1.72-4.09A5.16,5.16,0,0,0,190.28,27.45Z"/><path class="cls-2" d="M218,14.92q8-.3,16.67-.93a110.07,110.07,0,0,1,17.23.11,9.68,9.68,0,0,1,1,.05.79.79,0,0,1,.74.57c-.06.55-.29.83-.7.83a4.89,4.89,0,0,1-1.07-.11,152.25,152.25,0,0,0-17.23.16q-8.57.57-16.86,1.08-1.31,8.49-2.38,17.29a140.39,140.39,0,0,0-1,18.42q0,1.35.09,3A24.1,24.1,0,0,0,215,58.5c.13.76.33,1.69.61,2.79s.7,1.69,1.26,1.76a1.12,1.12,0,0,0,1-.31,9.3,9.3,0,0,0,1-1,11.58,11.58,0,0,0,.93-1.19q.42-.63.6-.93a99.75,99.75,0,0,0,6.66-11Q230,43,233.22,36.87q.84-1.66,1.77-3.42c.62-1.17,1.3-2.34,2-3.52a10.68,10.68,0,0,1,.84-1.19q.47-.57.93-.36c.49.28.59.71.28,1.29a14.34,14.34,0,0,1-.75,1.3c-1.55,2.89-3,5.83-4.38,8.79s-2.82,5.9-4.37,8.8q-1.31,2.38-2.57,4.81c-.83,1.63-1.72,3.23-2.65,4.82s-1.89,3.14-2.89,4.65a10.22,10.22,0,0,1-3.82,3.52,4.58,4.58,0,0,1-1.95,0,6.19,6.19,0,0,1-3.22-3.88,30.46,30.46,0,0,1-1.25-5.85,49.34,49.34,0,0,1-.47-6.88q0-3.57.19-7c.31-4.63.73-9.09,1.25-13.41s1.17-8.43,1.91-12.37c-2.85.14-5.76.38-8.71.73s-5.94.59-9,.72c-.38,0-.8,0-1.26,0s-.73-.22-.79-.77.24-.83.74-.83a7.27,7.27,0,0,0,1.31-.1c2.92-.21,5.9-.48,8.94-.83s6-.59,9-.73c.38-1.44.79-3.15,1.26-5.12a45.45,45.45,0,0,1,1.63-5.43A8.34,8.34,0,0,1,218,3c.34-.65.76-1,1.26-1a.92.92,0,0,1,.88.41,1.67,1.67,0,0,1,.19,1,7.52,7.52,0,0,1-.19,1.19c-.09.42-.17.8-.23,1.14Q219.44,8,219,10.42T218,14.92Z"/><path class="cls-2" d="M239.74,49.08q1.68-5.69,3.49-11.08a100.59,100.59,0,0,1,4.15-10.35,25.36,25.36,0,0,0,1.67-3.2,3.4,3.4,0,0,1,2.43-2.18,1.85,1.85,0,0,1,2.09.68,6.66,6.66,0,0,1,1,2.58A20.35,20.35,0,0,1,255,29c0,1.21.08,2.26.14,3.16q.09,3,.28,6a9.43,9.43,0,0,0,1.3,4.71,9.69,9.69,0,0,0,3.36-3.52,40.86,40.86,0,0,1,2.7-4.24c.68-1,1.36-2,2.05-3.06s1.39-2.08,2.14-3l.93-.78c.37-.31.75-.26,1.12.16a1,1,0,0,1-.23,1.29,2.25,2.25,0,0,0-.8,1,6.22,6.22,0,0,0-.79,1.08,12,12,0,0,1-.7,1.09c-1.05,1.52-2.09,3.17-3.12,5a50.2,50.2,0,0,1-3.3,5.07,17.36,17.36,0,0,1-1.59,1.71,2.52,2.52,0,0,1-2.23.67,2.3,2.3,0,0,1-1.12-.62,4.26,4.26,0,0,1-.84-1,10.91,10.91,0,0,1-1.12-3.88c-.18-1.55-.31-3.19-.37-4.91s-.12-3.44-.19-5.13a19.09,19.09,0,0,0-.65-4.5,10.8,10.8,0,0,0-2.37,3.52q-.88,2.07-1.73,4.35-2,5.48-3.68,11.33t-3,12.26c-.19.76-.41,1.54-.66,2.33a2.68,2.68,0,0,1-1.39,1.71,1.77,1.77,0,0,1-1.17-.15,9.37,9.37,0,0,1-.79-.57,8.11,8.11,0,0,1-.74-3.68c0-1.48,0-2.88-.1-4.19a112.31,112.31,0,0,1,.28-11.95Q237,34,237.78,27.76a110.32,110.32,0,0,1,2-11Q241,11.4,242.44,6.13l.42-1.71c.15-.66.34-1.31.56-2A6.67,6.67,0,0,1,244.21.8,1.68,1.68,0,0,1,245.33,0a1.07,1.07,0,0,1,1,.31,3.11,3.11,0,0,1,.56.83,2.52,2.52,0,0,1,0,1.71,16.55,16.55,0,0,0-.52,1.91,26.55,26.55,0,0,0-.7,2.59,14,14,0,0,0-.23,2.69.58.58,0,0,1-.32.41.6.6,0,0,0-.33.42,153.19,153.19,0,0,0-3.54,17.85A167.89,167.89,0,0,0,239.74,49.08Z"/><path class="cls-2" d="M104.24,150.68H106v1.71h0a5.53,5.53,0,0,1,1.69-1.49,4.38,4.38,0,0,1,2.12-.52,5.43,5.43,0,0,1,2.28.46,5.08,5.08,0,0,1,1.76,1.3,6.07,6.07,0,0,1,1.14,2,7.8,7.8,0,0,1,0,4.93,6.23,6.23,0,0,1-1.13,2,5.11,5.11,0,0,1-1.69,1.3,4.76,4.76,0,0,1-2.08.46,4.54,4.54,0,0,1-2.51-.69,4.34,4.34,0,0,1-1.58-1.7h0v7.84h-1.77Zm1.77,5.89a5.6,5.6,0,0,0,.26,1.73,4.16,4.16,0,0,0,.76,1.39,3.73,3.73,0,0,0,1.19.93,3.73,3.73,0,0,0,3.11,0,3.73,3.73,0,0,0,1.19-.93,4.35,4.35,0,0,0,.76-1.39,5.85,5.85,0,0,0,0-3.45,4.35,4.35,0,0,0-.76-1.39,3.73,3.73,0,0,0-1.19-.93,3.73,3.73,0,0,0-3.11,0,3.73,3.73,0,0,0-1.19.93,4.16,4.16,0,0,0-.76,1.39A5.59,5.59,0,0,0,106,156.57Z"/><path class="cls-2" d="M117.58,156.57a7,7,0,0,1,.43-2.52,6,6,0,0,1,1.18-2,5.21,5.21,0,0,1,1.79-1.27,5.93,5.93,0,0,1,4.53,0,5.25,5.25,0,0,1,1.8,1.27,6.14,6.14,0,0,1,1.17,2,7,7,0,0,1,.44,2.52,6.94,6.94,0,0,1-.44,2.52,6.08,6.08,0,0,1-1.17,2,5.25,5.25,0,0,1-1.8,1.27,5.93,5.93,0,0,1-4.53,0,5.21,5.21,0,0,1-1.79-1.27,5.93,5.93,0,0,1-1.18-2A6.94,6.94,0,0,1,117.58,156.57Zm1.9,0a5.6,5.6,0,0,0,.26,1.73,4.35,4.35,0,0,0,.76,1.39,3.73,3.73,0,0,0,1.19.93,3.73,3.73,0,0,0,3.11,0,3.73,3.73,0,0,0,1.19-.93,4.16,4.16,0,0,0,.76-1.39,5.85,5.85,0,0,0,0-3.45,4.16,4.16,0,0,0-.76-1.39,3.73,3.73,0,0,0-1.19-.93,3.73,3.73,0,0,0-3.11,0,3.73,3.73,0,0,0-1.19.93,4.35,4.35,0,0,0-.76,1.39A5.59,5.59,0,0,0,119.48,156.57Z"/><path class="cls-2" d="M131.57,150.68h1.77v1.71h0a5.53,5.53,0,0,1,1.69-1.49,4.38,4.38,0,0,1,2.12-.52,5.5,5.5,0,0,1,2.28.46,5.08,5.08,0,0,1,1.76,1.3,6,6,0,0,1,1.13,2,7.62,7.62,0,0,1,0,4.93,6,6,0,0,1-1.12,2,5.11,5.11,0,0,1-1.69,1.3,4.76,4.76,0,0,1-2.08.46,4.54,4.54,0,0,1-2.51-.69,4.34,4.34,0,0,1-1.58-1.7h0v7.84h-1.77Zm1.77,5.89a5.32,5.32,0,0,0,.26,1.73,4.16,4.16,0,0,0,.76,1.39,3.73,3.73,0,0,0,1.19.93,3.73,3.73,0,0,0,3.11,0,3.84,3.84,0,0,0,1.19-.93,4.35,4.35,0,0,0,.76-1.39,5.85,5.85,0,0,0,0-3.45,4.35,4.35,0,0,0-.76-1.39,3.84,3.84,0,0,0-1.19-.93,3.73,3.73,0,0,0-3.11,0,3.73,3.73,0,0,0-1.19.93,4.16,4.16,0,0,0-.76,1.39A5.3,5.3,0,0,0,133.34,156.57Z"/><path class="cls-2" d="M154.77,159.67c0,.54,0,1.05,0,1.52s0,.9,0,1.28h-1.68c0-.32,0-.64,0-1s0-.64,0-1h0a3.32,3.32,0,0,1-.51.83,3.84,3.84,0,0,1-.78.72,3.73,3.73,0,0,1-1,.5,3.78,3.78,0,0,1-1.23.19,4.19,4.19,0,0,1-1.8-.35,3.31,3.31,0,0,1-1.26-1,4,4,0,0,1-.73-1.53,7.44,7.44,0,0,1-.24-1.95v-7.28h1.77v7.08a4,4,0,0,0,.59,2.34,2.06,2.06,0,0,0,1.83.86,3.15,3.15,0,0,0,1.49-.33,2.84,2.84,0,0,0,1-.93,4.48,4.48,0,0,0,.59-1.44,8,8,0,0,0,.19-1.84v-5.74h1.77Z"/><path class="cls-2" d="M158.29,143.42h1.76v19.05h-1.76Z"/><path class="cls-2" d="M163.43,152.19a5,5,0,0,1,1.94-1.37,6.08,6.08,0,0,1,2.28-.44,4.22,4.22,0,0,1,3.4,1.23,5.69,5.69,0,0,1,1,3.75v5.07c0,.34,0,.68,0,1s.07.69.12,1h-1.7a4.09,4.09,0,0,1-.11-.89c0-.33,0-.62,0-.87h0a4.41,4.41,0,0,1-1.4,1.48,3.67,3.67,0,0,1-2.1.58,5.1,5.1,0,0,1-1.53-.22,3.71,3.71,0,0,1-1.24-.67,3.24,3.24,0,0,1-.86-1.1,3.42,3.42,0,0,1-.31-1.51,3.48,3.48,0,0,1,.68-2.29,4,4,0,0,1,1.69-1.24,7.64,7.64,0,0,1,2.17-.5c.78-.07,1.5-.1,2.15-.1h.68v-.35a2.58,2.58,0,0,0-.69-1.95,2.74,2.74,0,0,0-1.94-.65,4.91,4.91,0,0,0-1.69.31,4.19,4.19,0,0,0-1.47,1Zm5.13,4.61a5.86,5.86,0,0,0-2.7.53,1.82,1.82,0,0,0-1,1.74,1.79,1.79,0,0,0,.67,1.57,2.79,2.79,0,0,0,1.67.47,3,3,0,0,0,1.35-.29,2.89,2.89,0,0,0,1-.77,3.24,3.24,0,0,0,.59-1.12,5.1,5.1,0,0,0,.23-1.37v-.76Z"/><path class="cls-2" d="M175.34,153.47c0-.53,0-1,0-1.51s-.05-.9-.05-1.28h1.68c0,.32,0,.64,0,1s0,.64,0,1H177a3.32,3.32,0,0,1,.51-.83,3.84,3.84,0,0,1,.78-.72,3.76,3.76,0,0,1,2.25-.69,2.17,2.17,0,0,1,.36,0,1.61,1.61,0,0,1,.36.1l-.11,2a3,3,0,0,0-.95-.15,2.59,2.59,0,0,0-2.37,1.17,6,6,0,0,0-.74,3.22v5.74h-1.77Z"/><path class="cls-2" d="M197.18,153.63a3.66,3.66,0,0,0-1.22-1.1,3.1,3.1,0,0,0-1.45-.34,3.42,3.42,0,0,0-1.57.34,3.1,3.1,0,0,0-1.12.94,4.32,4.32,0,0,0-.67,1.4,6.23,6.23,0,0,0-.23,1.7,5.57,5.57,0,0,0,.26,1.71,4.84,4.84,0,0,0,.73,1.39,3.29,3.29,0,0,0,1.12,1,3.13,3.13,0,0,0,1.48.34,3,3,0,0,0,2.69-1.46l1.32,1.38a4.6,4.6,0,0,1-1.81,1.44,5.73,5.73,0,0,1-4.45,0,4.83,4.83,0,0,1-1.74-1.29,6.14,6.14,0,0,1-1.11-2,7.67,7.67,0,0,1-.39-2.5,7.47,7.47,0,0,1,.39-2.46,5.87,5.87,0,0,1,1.13-2,5.16,5.16,0,0,1,1.73-1.3,5.28,5.28,0,0,1,2.24-.46,5.62,5.62,0,0,1,2.23.45,4.9,4.9,0,0,1,1.85,1.41Z"/><path class="cls-2" d="M200.56,143.42h1.77v8.9h0a3.07,3.07,0,0,1,.49-.7,4.23,4.23,0,0,1,.76-.61,4.49,4.49,0,0,1,1-.46,3.66,3.66,0,0,1,1.16-.17,4.19,4.19,0,0,1,1.8.35,3.31,3.31,0,0,1,1.26,1,4.2,4.2,0,0,1,.74,1.53,7.9,7.9,0,0,1,.23,1.95v7.28H208v-7.08a4.09,4.09,0,0,0-.58-2.34,2.09,2.09,0,0,0-1.84-.86,3.15,3.15,0,0,0-1.49.33,2.84,2.84,0,0,0-1,.93,4.48,4.48,0,0,0-.59,1.44,8,8,0,0,0-.19,1.84v5.74h-1.77Z"/><path class="cls-2" d="M212.56,156.57a7,7,0,0,1,.43-2.52,6.16,6.16,0,0,1,1.18-2,5.31,5.31,0,0,1,1.79-1.27,6,6,0,0,1,4.54,0,5.31,5.31,0,0,1,1.79,1.27,6.16,6.16,0,0,1,1.18,2,7.24,7.24,0,0,1,.43,2.52,7.16,7.16,0,0,1-.43,2.52,6.1,6.1,0,0,1-1.18,2,5.31,5.31,0,0,1-1.79,1.27,6,6,0,0,1-4.54,0,5.31,5.31,0,0,1-1.79-1.27,6.1,6.1,0,0,1-1.18-2A6.94,6.94,0,0,1,212.56,156.57Zm1.9,0a5.6,5.6,0,0,0,.26,1.73,4.35,4.35,0,0,0,.76,1.39,3.77,3.77,0,0,0,1.2.93,3.7,3.7,0,0,0,3.1,0,3.73,3.73,0,0,0,1.19-.93,4,4,0,0,0,.76-1.39,5.85,5.85,0,0,0,0-3.45,4,4,0,0,0-.76-1.39,3.73,3.73,0,0,0-1.19-.93,3.7,3.7,0,0,0-3.1,0,3.77,3.77,0,0,0-1.2.93,4.35,4.35,0,0,0-.76,1.39A5.59,5.59,0,0,0,214.46,156.57Z"/><path class="cls-2" d="M226.39,146.07a1.47,1.47,0,0,1,.38-1,1.19,1.19,0,0,1,1.83,0,1.59,1.59,0,0,1,0,2,1.21,1.21,0,0,1-.93.4,1.18,1.18,0,0,1-.93-.4A1.45,1.45,0,0,1,226.39,146.07Zm.41,4.61h1.77v11.79H226.8Z"/><path class="cls-2" d="M239.64,153.63a3.68,3.68,0,0,0-1.23-1.1,3.07,3.07,0,0,0-1.45-.34,3.38,3.38,0,0,0-1.56.34,3.13,3.13,0,0,0-1.13.94,4.78,4.78,0,0,0-.67,1.4,6.24,6.24,0,0,0-.22,1.7,5.57,5.57,0,0,0,.26,1.71,4.58,4.58,0,0,0,.72,1.39,3.32,3.32,0,0,0,1.13,1A3.12,3.12,0,0,0,237,161a3,3,0,0,0,2.7-1.46l1.32,1.38a4.63,4.63,0,0,1-1.82,1.44,5.7,5.7,0,0,1-4.44,0A4.83,4.83,0,0,1,233,161a5.79,5.79,0,0,1-1.11-2,7.66,7.66,0,0,1-.4-2.5,7.46,7.46,0,0,1,.4-2.46,5.85,5.85,0,0,1,1.12-2,5.2,5.2,0,0,1,1.74-1.3,5.27,5.27,0,0,1,2.23-.46,5.67,5.67,0,0,1,2.24.45,4.87,4.87,0,0,1,1.84,1.41Z"/><path class="cls-2" d="M252.5,160.33a5.52,5.52,0,0,1-2.09,1.9,6.06,6.06,0,0,1-2.63.54,5,5,0,0,1-2.25-.49,5.19,5.19,0,0,1-1.68-1.32,5.85,5.85,0,0,1-1.07-2,7.62,7.62,0,0,1-.38-2.42,7.45,7.45,0,0,1,.41-2.5,6,6,0,0,1,1.14-2,5.14,5.14,0,0,1,1.72-1.27,5.25,5.25,0,0,1,2.18-.45,4.89,4.89,0,0,1,2,.41,4.5,4.5,0,0,1,1.6,1.21,5.7,5.7,0,0,1,1,1.94,8.76,8.76,0,0,1,.36,2.61v.63h-8.57a4.5,4.5,0,0,0,.33,1.45,4.23,4.23,0,0,0,.74,1.21,3.4,3.4,0,0,0,1.06.82,3,3,0,0,0,1.34.3,3.91,3.91,0,0,0,1.95-.45,4.62,4.62,0,0,0,1.43-1.34ZM251,155.52a3.58,3.58,0,0,0-.89-2.42,3,3,0,0,0-2.31-.91,3.2,3.2,0,0,0-2.38.91,3.92,3.92,0,0,0-1.09,2.42Z"/><line class="cls-3" x1="73.81" y1="131.68" x2="287.65" y2="131.68"/></g></g></svg>