<svg xmlns="http://www.w3.org/2000/svg" viewBox="0 0 250.75 103.75"><defs><style>.cls-1{fill:none;stroke:#53575a;stroke-miterlimit:4.67;stroke-width:0.5px;}.cls-2{fill:#53575a;}.cls-3{fill:#ff8300;}</style></defs><g id="Layer_2" data-name="Layer 2"><g id="Layer_1-2" data-name="Layer 1"><path class="cls-1" d="M.25,34.23H.74A15.08,15.08,0,0,0,1,37.06a22.1,22.1,0,0,0,.85,3.11,18.48,18.48,0,0,0,1.35,3A8.35,8.35,0,0,0,5,45.39,14.55,14.55,0,0,0,9.4,48a15.11,15.11,0,0,0,5.18,1h.55a16.81,16.81,0,0,0,5.19-1,9.88,9.88,0,0,0,4.14-3.48,9,9,0,0,0,1.62-4.85,9.53,9.53,0,0,0-1.43-5.18,12.18,12.18,0,0,0-5-4.42l-7.69-4a22.38,22.38,0,0,1-6.1-4.3A14.36,14.36,0,0,1,2.66,17,10.52,10.52,0,0,1,2,12.08,11.41,11.41,0,0,1,3.42,7.51,13.12,13.12,0,0,1,6.68,3.73,16.65,16.65,0,0,1,11.35,1.1,11.1,11.1,0,0,1,13.79.43a17.11,17.11,0,0,1,2.5-.18,14.64,14.64,0,0,1,5.49,1c.65.24,1.34.48,2.07.73a8.63,8.63,0,0,0,2.2.42,4.41,4.41,0,0,0,2.07-.36A3.89,3.89,0,0,0,29.83.43h.43V13.67h-.49A10.05,10.05,0,0,0,29.38,11a15.74,15.74,0,0,0-1.07-2.71,16.74,16.74,0,0,0-1.53-2.44,15.05,15.05,0,0,0-1.71-1.92,12.28,12.28,0,0,0-4-2.41A13.77,13.77,0,0,0,16.29.67a15.07,15.07,0,0,0-2.1.16,12,12,0,0,0-2,.46A8.78,8.78,0,0,0,7.78,4.21,6.26,6.26,0,0,0,6.5,8.85a10.82,10.82,0,0,0,2.71,5.58,27.19,27.19,0,0,0,7.63,5.89l7,3.6a17.76,17.76,0,0,1,5.31,4.17,12.92,12.92,0,0,1,2.69,5,11.06,11.06,0,0,1,.06,5.24,11.29,11.29,0,0,1-2.53,4.85,16.57,16.57,0,0,1-5.1,3.85,23.92,23.92,0,0,1-7.62,2.22h.12l-.89.09c-.26,0-.54,0-.82,0h-.61a14.06,14.06,0,0,1-5.31-1v0a5.43,5.43,0,0,1-.61-.25,11.13,11.13,0,0,0-4-.94,5.05,5.05,0,0,0-2.35.49A2.54,2.54,0,0,0,1,48.77c-.2.43-.33.71-.37.83v.06H.25Z"/><path class="cls-1" d="M36.36,24.89a26.13,26.13,0,0,1,1.71-9.57,23.36,23.36,0,0,1,4.57-7.87A20.38,20.38,0,0,1,49.35,2.2,19,19,0,0,1,57.71.25h3.54a18.81,18.81,0,0,1,8.29,2,20.27,20.27,0,0,1,6.84,5.25A26.31,26.31,0,0,1,81,15.32a27.66,27.66,0,0,1,1.65,9.57A27.35,27.35,0,0,1,81,34.47a26.31,26.31,0,0,1-4.63,7.87,20.24,20.24,0,0,1-6.84,5.24,18.68,18.68,0,0,1-8.29,2H57.71a18.85,18.85,0,0,1-8.36-2,20.21,20.21,0,0,1-6.71-5.24,23.45,23.45,0,0,1-4.57-7.87A26.18,26.18,0,0,1,36.36,24.89Zm6.65,0a37.06,37.06,0,0,0,1.13,9.34A25.61,25.61,0,0,0,47.52,42a13.38,13.38,0,0,0,.95,1.41,12.78,12.78,0,0,0,1.07,1.22,15.57,15.57,0,0,0,3.69,2.83,31,31,0,0,0,2.89,1.38l1.16.24a6.7,6.7,0,0,0,1.28.12h1.83a5.67,5.67,0,0,0,1.22-.12l1.22-.24c.69-.29,1.64-.75,2.84-1.38a16.62,16.62,0,0,0,3.75-2.83c.33-.37.66-.78,1-1.22s.68-.92,1-1.41a25.92,25.92,0,0,0,3.42-7.8A36.6,36.6,0,0,0,76,24.89a36.58,36.58,0,0,0-1.16-9.33,26,26,0,0,0-3.42-7.81c-.32-.49-.66-1-1-1.4s-.68-.86-1-1.22a16.69,16.69,0,0,0-3.75-2.84c-1.2-.63-2.15-1.09-2.84-1.37L61.61.71a6.47,6.47,0,0,0-1.22-.1H58.56a10.26,10.26,0,0,0-2.44.31,28.12,28.12,0,0,0-2.89,1.37,15.63,15.63,0,0,0-3.69,2.84,10.73,10.73,0,0,0-1.07,1.22,13.25,13.25,0,0,0-.95,1.4,25.67,25.67,0,0,0-3.38,7.81A37,37,0,0,0,43,24.89Z"/><path class="cls-1" d="M86.87,25.26V25.2h-.25a27,27,0,0,1,.43-4.88,27.3,27.3,0,0,1,1.28-4.7A24.79,24.79,0,0,1,93,7.81a25.29,25.29,0,0,1,3.14-3,19.92,19.92,0,0,1,12-4.21,15.25,15.25,0,0,1,6,1.16h.06a.34.34,0,0,0,.25.13l.06.06.82.36c.27.12.54.27.83.43a12.49,12.49,0,0,0,5,1.52,4.94,4.94,0,0,0,2.74-.61,3.13,3.13,0,0,0,1.41-2.13h.42V19.28h-.42a30.39,30.39,0,0,0-.89-4.27A29,29,0,0,0,123,11.23a21.62,21.62,0,0,0-1.8-3.08A18.48,18.48,0,0,0,119,5.56a15.55,15.55,0,0,0-5.12-3.42A15.81,15.81,0,0,0,109,1a10.88,10.88,0,0,0-6.1,1.89,17.39,17.39,0,0,0-5,5.19,27.9,27.9,0,0,0-3.39,7.71,34.66,34.66,0,0,0-1.25,9.43,32.83,32.83,0,0,0,2,11.83,23.59,23.59,0,0,0,5.33,8.6,16.71,16.71,0,0,0,3,2.17A18.28,18.28,0,0,0,106.08,49a6.58,6.58,0,0,0,1.44.33,12.54,12.54,0,0,0,1.49.09,23.66,23.66,0,0,0,2.47-.36,14.37,14.37,0,0,0,2.41-.73A15.06,15.06,0,0,0,119,44.9a12.94,12.94,0,0,0,2.17-2.53,26.77,26.77,0,0,0,1.74-3.08,22.32,22.32,0,0,0,1.4-3.78,40.12,40.12,0,0,0,.91-4.27l.43.06a28,28,0,0,1-2.38,8.17,20.22,20.22,0,0,1-4,5.8A17.26,17.26,0,0,1,114,48.68a14.65,14.65,0,0,1-5.92,1.16,18.44,18.44,0,0,1-8.35-2A21.26,21.26,0,0,1,93,42.64a24.68,24.68,0,0,1-4.64-7.81,27.37,27.37,0,0,1-1.71-9.57Z"/><path class="cls-1" d="M134.17,49.08a4.73,4.73,0,0,0,2.29-.89,3.63,3.63,0,0,0,1.22-1.83,10.82,10.82,0,0,0,.36-3.11V7.32c0-2.23-.39-3.77-1.18-4.6s-2.21-1.31-4.24-1.43h-2V.92h21.23v.3h0v.07h-2.44a5.78,5.78,0,0,0-3.81,1.52c-.71.81-1.07,2.3-1.07,4.45V43.31a11.49,11.49,0,0,0,.28,2.81,3.82,3.82,0,0,0,.91,1.77,4,4,0,0,0,1.71,1,10.18,10.18,0,0,0,2.59.39H152v.43H130.66v-.43A24.74,24.74,0,0,0,134.17,49.08Z"/><path class="cls-1" d="M155.43,49.17l1.07-.12a7.37,7.37,0,0,0,2.38-.83,12.15,12.15,0,0,0,2.89-2.16,12,12,0,0,0,2.63-4.21l16.41-41h.48l16.35,40.87a26.94,26.94,0,0,0,2,4.12A8.38,8.38,0,0,0,201.48,48a4.1,4.1,0,0,0,1.86.85c.63.11,1.36.22,2.17.34v.43h-20v-.43q2.2-.12,3.75-.27a4.26,4.26,0,0,0,2.35-.83,2.41,2.41,0,0,0,.67-2.16,16.35,16.35,0,0,0-1.22-4.3l-4.51-11.35h-17l-4.64,11.53a5.85,5.85,0,0,0-.51,3.08,4,4,0,0,0,.94,2.07,5,5,0,0,0,1.8,1.28,11.36,11.36,0,0,0,2.07.68,11.16,11.16,0,0,0,1.74.24l.8,0v.43H155.43ZM178.06,9l-8.36,20.8h16.66Z"/><path class="cls-1" d="M248.33,49.72H209v-.43a24,24,0,0,0,3.47-.21,4.69,4.69,0,0,0,2.26-.89,3.56,3.56,0,0,0,1.22-1.83,10.77,10.77,0,0,0,.37-3.11V7.32c0-2.23-.41-3.77-1.22-4.6s-2.24-1.31-4.27-1.43h-1.89V.92h21.22v.3h0v.07h-2.5a8.2,8.2,0,0,0-2.25.48,3.88,3.88,0,0,0-1.5,1,3.93,3.93,0,0,0-.82,1.77,12.09,12.09,0,0,0-.25,2.68V43.31a11.49,11.49,0,0,0,.28,2.81,3.92,3.92,0,0,0,.91,1.77,4,4,0,0,0,1.68,1,10.08,10.08,0,0,0,2.62.39h6.1a15.45,15.45,0,0,0,4.52-.61,14.56,14.56,0,0,0,3.57-1.58,13.55,13.55,0,0,0,2.71-2.23,18.42,18.42,0,0,0,2-2.59A22,22,0,0,0,250,35.2h.43L248.7,49.72Z"/><path class="cls-2" d="M.25,34.23H.74A15.08,15.08,0,0,0,1,37.06a22.1,22.1,0,0,0,.85,3.11,18.48,18.48,0,0,0,1.35,3A8.35,8.35,0,0,0,5,45.39,14.55,14.55,0,0,0,9.4,48a15.11,15.11,0,0,0,5.18,1h.55a16.81,16.81,0,0,0,5.19-1,9.88,9.88,0,0,0,4.14-3.48,9,9,0,0,0,1.62-4.85,9.53,9.53,0,0,0-1.43-5.18,12.18,12.18,0,0,0-5-4.42l-7.69-4a22.38,22.38,0,0,1-6.1-4.3A14.36,14.36,0,0,1,2.66,17,10.52,10.52,0,0,1,2,12.08,11.41,11.41,0,0,1,3.42,7.51,13.12,13.12,0,0,1,6.68,3.73,16.65,16.65,0,0,1,11.35,1.1,11.1,11.1,0,0,1,13.79.43a17.11,17.11,0,0,1,2.5-.18,14.64,14.64,0,0,1,5.49,1c.65.24,1.34.48,2.07.73a8.63,8.63,0,0,0,2.2.42,4.41,4.41,0,0,0,2.07-.36A3.89,3.89,0,0,0,29.83.43h.43V13.67h-.49A10.05,10.05,0,0,0,29.38,11a15.74,15.74,0,0,0-1.07-2.71,16.74,16.74,0,0,0-1.53-2.44,15.05,15.05,0,0,0-1.71-1.92,12.28,12.28,0,0,0-4-2.41A13.77,13.77,0,0,0,16.29.67a15.07,15.07,0,0,0-2.1.16,12,12,0,0,0-2,.46A8.78,8.78,0,0,0,7.78,4.21,6.26,6.26,0,0,0,6.5,8.85a10.82,10.82,0,0,0,2.71,5.58,27.19,27.19,0,0,0,7.63,5.89l7,3.6a17.76,17.76,0,0,1,5.31,4.17,12.92,12.92,0,0,1,2.69,5,11.06,11.06,0,0,1,.06,5.24,11.29,11.29,0,0,1-2.53,4.85,16.57,16.57,0,0,1-5.1,3.85,23.92,23.92,0,0,1-7.62,2.22h.12l-.89.09c-.26,0-.54,0-.82,0h-.61a14.06,14.06,0,0,1-5.31-1v0a5.43,5.43,0,0,1-.61-.25,11.13,11.13,0,0,0-4-.94,5.05,5.05,0,0,0-2.35.49A2.54,2.54,0,0,0,1,48.77c-.2.43-.33.71-.37.83v.06H.25Z"/><path class="cls-2" d="M36.36,24.89a26.13,26.13,0,0,1,1.71-9.57,23.36,23.36,0,0,1,4.57-7.87A20.38,20.38,0,0,1,49.35,2.2,19,19,0,0,1,57.71.25h3.54a18.81,18.81,0,0,1,8.29,2,20.27,20.27,0,0,1,6.84,5.25A26.31,26.31,0,0,1,81,15.32a27.66,27.66,0,0,1,1.65,9.57A27.35,27.35,0,0,1,81,34.47a26.31,26.31,0,0,1-4.63,7.87,20.24,20.24,0,0,1-6.84,5.24,18.68,18.68,0,0,1-8.29,2H57.71a18.85,18.85,0,0,1-8.36-2,20.21,20.21,0,0,1-6.71-5.24,23.45,23.45,0,0,1-4.57-7.87A26.18,26.18,0,0,1,36.36,24.89Zm6.65,0a37.06,37.06,0,0,0,1.13,9.34A25.61,25.61,0,0,0,47.52,42a13.38,13.38,0,0,0,.95,1.41,12.78,12.78,0,0,0,1.07,1.22,15.57,15.57,0,0,0,3.69,2.83,31,31,0,0,0,2.89,1.38l1.16.24a6.7,6.7,0,0,0,1.28.12h1.83a5.67,5.67,0,0,0,1.22-.12l1.22-.24c.69-.29,1.64-.75,2.84-1.38a16.62,16.62,0,0,0,3.75-2.83c.33-.37.66-.78,1-1.22s.68-.92,1-1.41a25.92,25.92,0,0,0,3.42-7.8A36.6,36.6,0,0,0,76,24.89a36.58,36.58,0,0,0-1.16-9.33,26,26,0,0,0-3.42-7.81c-.32-.49-.66-1-1-1.4s-.68-.86-1-1.22a16.69,16.69,0,0,0-3.75-2.84c-1.2-.63-2.15-1.09-2.84-1.37L61.61.71a6.47,6.47,0,0,0-1.22-.1H58.56a10.26,10.26,0,0,0-2.44.31,28.12,28.12,0,0,0-2.89,1.37,15.63,15.63,0,0,0-3.69,2.84,10.73,10.73,0,0,0-1.07,1.22,13.25,13.25,0,0,0-.95,1.4,25.67,25.67,0,0,0-3.38,7.81A37,37,0,0,0,43,24.89Z"/><path class="cls-2" d="M86.87,25.26V25.2h-.25a27,27,0,0,1,.43-4.88,27.3,27.3,0,0,1,1.28-4.7A24.79,24.79,0,0,1,93,7.81a25.29,25.29,0,0,1,3.14-3,19.92,19.92,0,0,1,12-4.21,15.25,15.25,0,0,1,6,1.16h.06a.34.34,0,0,0,.25.13l.06.06.82.36c.27.12.54.27.83.43a12.49,12.49,0,0,0,5,1.52,4.94,4.94,0,0,0,2.74-.61,3.13,3.13,0,0,0,1.41-2.13h.42V19.28h-.42a30.39,30.39,0,0,0-.89-4.27A29,29,0,0,0,123,11.23a21.62,21.62,0,0,0-1.8-3.08A18.48,18.48,0,0,0,119,5.56a15.55,15.55,0,0,0-5.12-3.42A15.81,15.81,0,0,0,109,1a10.88,10.88,0,0,0-6.1,1.89,17.39,17.39,0,0,0-5,5.19,27.9,27.9,0,0,0-3.39,7.71,34.66,34.66,0,0,0-1.25,9.43,32.83,32.83,0,0,0,2,11.83,23.59,23.59,0,0,0,5.33,8.6,16.71,16.71,0,0,0,3,2.17A18.28,18.28,0,0,0,106.08,49a6.58,6.58,0,0,0,1.44.33,12.54,12.54,0,0,0,1.49.09,23.66,23.66,0,0,0,2.47-.36,14.37,14.37,0,0,0,2.41-.73A15.06,15.06,0,0,0,119,44.9a12.94,12.94,0,0,0,2.17-2.53,26.77,26.77,0,0,0,1.74-3.08,22.32,22.32,0,0,0,1.4-3.78,40.12,40.12,0,0,0,.91-4.27l.43.06a28,28,0,0,1-2.38,8.17,20.22,20.22,0,0,1-4,5.8A17.26,17.26,0,0,1,114,48.68a14.65,14.65,0,0,1-5.92,1.16,18.44,18.44,0,0,1-8.35-2A21.26,21.26,0,0,1,93,42.64a24.68,24.68,0,0,1-4.64-7.81,27.37,27.37,0,0,1-1.71-9.57Z"/><path class="cls-2" d="M134.17,49.08a4.73,4.73,0,0,0,2.29-.89,3.63,3.63,0,0,0,1.22-1.83,10.82,10.82,0,0,0,.36-3.11V7.32c0-2.23-.39-3.77-1.18-4.6s-2.21-1.31-4.24-1.43h-2V.92h21.23v.3h0v.07h-2.44a5.78,5.78,0,0,0-3.81,1.52c-.71.81-1.07,2.3-1.07,4.45V43.31a11.49,11.49,0,0,0,.28,2.81,3.82,3.82,0,0,0,.91,1.77,4,4,0,0,0,1.71,1,10.18,10.18,0,0,0,2.59.39H152v.43H130.66v-.43A24.74,24.74,0,0,0,134.17,49.08Z"/><path class="cls-2" d="M155.43,49.17l1.07-.12a7.37,7.37,0,0,0,2.38-.83,12.15,12.15,0,0,0,2.89-2.16,12,12,0,0,0,2.63-4.21l16.41-41h.48l16.35,40.87a26.94,26.94,0,0,0,2,4.12A8.38,8.38,0,0,0,201.48,48a4.1,4.1,0,0,0,1.86.85c.63.11,1.36.22,2.17.34v.43h-20v-.43q2.2-.12,3.75-.27a4.26,4.26,0,0,0,2.35-.83,2.41,2.41,0,0,0,.67-2.16,16.35,16.35,0,0,0-1.22-4.3l-4.51-11.35h-17l-4.64,11.53a5.85,5.85,0,0,0-.51,3.08,4,4,0,0,0,.94,2.07,5,5,0,0,0,1.8,1.28,11.36,11.36,0,0,0,2.07.68,11.16,11.16,0,0,0,1.74.24l.8,0v.43H155.43ZM178.06,9l-8.36,20.8h16.66Z"/><path class="cls-2" d="M248.33,49.72H209v-.43a24,24,0,0,0,3.47-.21,4.69,4.69,0,0,0,2.26-.89,3.56,3.56,0,0,0,1.22-1.83,10.77,10.77,0,0,0,.37-3.11V7.32c0-2.23-.41-3.77-1.22-4.6s-2.24-1.31-4.27-1.43h-1.89V.92h21.22v.3h0v.07h-2.5a8.2,8.2,0,0,0-2.25.48,3.88,3.88,0,0,0-1.5,1,3.93,3.93,0,0,0-.82,1.77,12.09,12.09,0,0,0-.25,2.68V43.31a11.49,11.49,0,0,0,.28,2.81,3.92,3.92,0,0,0,.91,1.77,4,4,0,0,0,1.68,1,10.08,10.08,0,0,0,2.62.39h6.1a15.45,15.45,0,0,0,4.52-.61,14.56,14.56,0,0,0,3.57-1.58,13.55,13.55,0,0,0,2.71-2.23,18.42,18.42,0,0,0,2-2.59A22,22,0,0,0,250,35.2h.43L248.7,49.72Z"/><path class="cls-3" d="M154.14,20.14l.1-.1A1.61,1.61,0,0,1,156,21.32a11.08,11.08,0,0,1,.29,2.37,43.79,43.79,0,0,1-.34,8.06q-.56,3.9-.94,7.65c-.33,3.43-.66,6.9-1,10.43s-.63,7.06-.89,10.62q-.59,9.39-1.28,18.72a177.39,177.39,0,0,0-.3,19.71,10.66,10.66,0,0,0,.1,1.39,13.54,13.54,0,0,1,.1,1.53,4.22,4.22,0,0,1-.2,1.33.78.78,0,0,1-.79.6,1.41,1.41,0,0,1-1.73-1.19,15.56,15.56,0,0,1-.44-2.57,30,30,0,0,1-.25-3.06q0-1.48-.15-2.67c.07-2,.07-3.93,0-5.88s-.06-3.8,0-5.58q.1-14.32,1.19-27.22t2.76-25.84l.6-5a19.26,19.26,0,0,0,.24-2.42,3.31,3.31,0,0,1,.84-2.12Z"/><path class="cls-3" d="M168.47,57.29a7.69,7.69,0,0,1,5.28,2.07,9.48,9.48,0,0,1,2.42,5c2.11-.39,4.3-.84,6.57-1.33s4.5-1,6.67-1.53a6.71,6.71,0,0,0,1-.35,8.55,8.55,0,0,1,1.24-.4,3.51,3.51,0,0,1,1.13-.09.8.8,0,0,1,.69.44.61.61,0,0,1-.19.79,4.58,4.58,0,0,1-1,.54,7.2,7.2,0,0,1-1.29.4,8.7,8.7,0,0,0-1,.25c-2.11.66-4.34,1.23-6.67,1.73s-4.66,1-7,1.43a20.75,20.75,0,0,1-.84,7.16,25,25,0,0,1-2.72,6.08,31.71,31.71,0,0,1-3.8,4.74,11,11,0,0,1-5.19,3h-1.48a3.92,3.92,0,0,1-1.68-.75,14.13,14.13,0,0,1-1.28-1.13,8.68,8.68,0,0,1-1.54-4.3,26.31,26.31,0,0,1,0-5.24,49,49,0,0,1,.89-5.33c.4-1.75.76-3.31,1.09-4.69a3.89,3.89,0,0,1-.05-3.56,7.62,7.62,0,0,1,1.93-2.57,17,17,0,0,0,.74-2.08,17.06,17.06,0,0,1,.84-2.27,7.11,7.11,0,0,1,1.23-1.88,2.56,2.56,0,0,1,1.93-.79,1.93,1.93,0,0,1,2,1.44A5.47,5.47,0,0,1,168.47,57.29Zm-4.75,10.27q-.5,2.86-1.23,6.18a24.3,24.3,0,0,0-.55,6.77,8.93,8.93,0,0,0,.35,1.68,2.44,2.44,0,0,0,.94,1.28,7.61,7.61,0,0,0,4.54-2.37c1.12-1.25,2.18-2.54,3.17-3.85a39.74,39.74,0,0,0,2.37-4.8,12.09,12.09,0,0,0,.79-5.78,43.86,43.86,0,0,1-5,.74A39.7,39.7,0,0,1,163.72,67.56Zm4.35-8.2a3.09,3.09,0,0,0-.2,1.14.66.66,0,0,1-.59.74,1.51,1.51,0,0,1-.44-.05,1.93,1.93,0,0,1-.35-.15,1.78,1.78,0,0,1-.1-1.38,4,4,0,0,0-.74,1.28,14.54,14.54,0,0,0-.44,1.49,13.14,13.14,0,0,0-.5,1.58l-.39,1.58c1.84,0,3.55-.07,5.13-.2s3.13-.33,4.65-.59a7.88,7.88,0,0,0-1.83-3.91A5.82,5.82,0,0,0,168.07,59.36Z"/><path class="cls-3" d="M193.26,57.29a2,2,0,0,1,.75,1.83c0,.82,0,1.59,0,2.32v7.31a56.55,56.55,0,0,0,.39,6.91c.46-1.11.94-2.27,1.44-3.45s1-2.41,1.53-3.66,1.05-2.35,1.58-3.51a9.75,9.75,0,0,1,2-2.91,8.8,8.8,0,0,1,1.58-.89,3.37,3.37,0,0,1,2-.2,7.16,7.16,0,0,1,1.78.59l1.68.84a9.45,9.45,0,0,0,1.83.7,6.75,6.75,0,0,0,2.22.14,6.2,6.2,0,0,0,1.93-.59l1.73-.89a2.93,2.93,0,0,0,1.18-1,1.78,1.78,0,0,1,1.38-.69,1,1,0,0,1,.2,1,2.67,2.67,0,0,1-.64,1,6.36,6.36,0,0,1-1,.79,5,5,0,0,0-.84.64,7.83,7.83,0,0,1-4.1,1.53,10.64,10.64,0,0,1-4.69-.54,6.79,6.79,0,0,1-1.68-.69,2.78,2.78,0,0,0-1.68-.4A2.3,2.3,0,0,0,202,65c-.46.88-.86,1.66-1.19,2.32s-.74,1.56-1,2.32-.61,1.53-.94,2.32-.63,1.58-.89,2.37-.56,1.65-.89,2.57c-.26.73-.59,1.53-1,2.42a2.31,2.31,0,0,1-1.68,1.53,1.83,1.83,0,0,1-2.27-1.13,11.41,11.41,0,0,1-.79-2.92,39.12,39.12,0,0,1-.45-6.57q.06-3.41.25-6.87a15.77,15.77,0,0,0,.15-1.58,15.22,15.22,0,0,1,.2-1.77,15.55,15.55,0,0,1,.34-1.59,1.72,1.72,0,0,1,.6-1c.06-.14.19-.18.39-.15A3.52,3.52,0,0,0,193.26,57.29Z"/><path class="cls-3" d="M217.37,65.39A19.64,19.64,0,0,0,216.09,69a16.59,16.59,0,0,0-.59,4.34,7.36,7.36,0,0,0,.89,3.71,3.51,3.51,0,0,0,3.16,1.68,9.84,9.84,0,0,0,4.89-1.09q2.33-1.19,4-2.27c1.32-.92,2.55-1.83,3.71-2.72s2.18-1.76,3.11-2.62a54.61,54.61,0,0,0,4.89-4.24q2.32-2.28,4.59-4.65a2.44,2.44,0,0,0,.65-.79,8.67,8.67,0,0,1,.74-1.09,5.13,5.13,0,0,1,.84-.84.78.78,0,0,1,.94-.05c.46.2.55.6.29,1.19a6.63,6.63,0,0,1-.69,1.28,3.5,3.5,0,0,1-.59,1.09,12.28,12.28,0,0,0-.79,1.09,74.13,74.13,0,0,1-5.19,5.43q-2.72,2.58-5.58,5.14a41.08,41.08,0,0,1-8.3,5.93,25.2,25.2,0,0,1-2.47,1.14,14.87,14.87,0,0,1-2.87.79,13.14,13.14,0,0,1-3,.14,6.07,6.07,0,0,1-2.82-.88,5.18,5.18,0,0,1-1-.94c-.29-.37-.6-.74-.93-1.14a9.4,9.4,0,0,1-1.24-4.2,18.6,18.6,0,0,1,.3-4.69,29,29,0,0,1,1.23-4.55,29.54,29.54,0,0,1,1.58-3.65,41.41,41.41,0,0,1,4-5.83,11.54,11.54,0,0,1,6-3.76,4.77,4.77,0,0,1,3.31.89,3.37,3.37,0,0,1,1,3.16,6.41,6.41,0,0,1-1.19,3,19.73,19.73,0,0,1-2.07,2.47,22.86,22.86,0,0,1-3.9,3.11A8.14,8.14,0,0,1,217.37,65.39Zm9.19-10.57a10.18,10.18,0,0,0-5.23,3.6A35.76,35.76,0,0,0,218,63.91a6.14,6.14,0,0,0,3.65-1,26.77,26.77,0,0,0,2.57-2.08c.73-.79,1.48-1.58,2.27-2.37a4.24,4.24,0,0,0,1.09-3.36A1.06,1.06,0,0,0,226.56,54.82Z"/></g></g></svg>