<svg xmlns="http://www.w3.org/2000/svg" viewBox="0 0 546.3 150.75"><defs><style>.cls-1{fill:#53575a;}.cls-2{fill:#ff8300;}</style></defs><g id="Layer_2" data-name="Layer 2"><g id="Layer_1-2" data-name="Layer 1"><path class="cls-1" d="M43.59,67.05h.62a18.61,18.61,0,0,0,.39,3.6,29,29,0,0,0,1.08,3.95,22.77,22.77,0,0,0,1.71,3.75,10.68,10.68,0,0,0,2.24,2.87,18.71,18.71,0,0,0,5.57,3.36,19.25,19.25,0,0,0,6.58,1.28h.7a21.1,21.1,0,0,0,6.58-1.32,12.58,12.58,0,0,0,5.26-4.41A11.56,11.56,0,0,0,76.37,74a12,12,0,0,0-1.82-6.58,15.41,15.41,0,0,0-6.34-5.61l-9.76-5a28.53,28.53,0,0,1-7.74-5.46,18.34,18.34,0,0,1-4.06-6.11A13.44,13.44,0,0,1,45.76,39a14.58,14.58,0,0,1,1.86-5.81,17.07,17.07,0,0,1,4.14-4.8A21.25,21.25,0,0,1,57.68,25a14.17,14.17,0,0,1,3.1-.85A22,22,0,0,1,64,23.94a18.77,18.77,0,0,1,7,1.32c.82.31,1.7.62,2.63.93a10.52,10.52,0,0,0,2.78.54A5.77,5.77,0,0,0,79,26.26a4.88,4.88,0,0,0,2.16-2.09h.54V41h-.61a12.37,12.37,0,0,0-.51-3.41,19,19,0,0,0-1.35-3.44A21.6,21.6,0,0,0,77.26,31a19.77,19.77,0,0,0-2.16-2.44,15.51,15.51,0,0,0-5.11-3,17.44,17.44,0,0,0-6-1.05,18.67,18.67,0,0,0-2.67.2,16.29,16.29,0,0,0-2.59.58A11.11,11.11,0,0,0,53.15,29a7.91,7.91,0,0,0-1.62,5.88A13.77,13.77,0,0,0,55,41.94a34.46,34.46,0,0,0,9.68,7.47L73.55,54a22.71,22.71,0,0,1,6.73,5.3,16.35,16.35,0,0,1,3.41,6.39,13.89,13.89,0,0,1,.07,6.66,14.16,14.16,0,0,1-3.21,6.15,21,21,0,0,1-6.46,4.88,30.33,30.33,0,0,1-9.68,2.82h.16l-1.12.12c-.34,0-.69,0-1.05,0h-.77A17.79,17.79,0,0,1,54.89,85v0a6.11,6.11,0,0,1-.77-.31A14.23,14.23,0,0,0,49,83.5a6.52,6.52,0,0,0-3,.62,3.26,3.26,0,0,0-1.43,1.39,10.12,10.12,0,0,0-.46,1v.07h-.55Z"/><path class="cls-1" d="M142.66,40.81v-.15q-.61-2.4-1.39-5A18,18,0,0,0,139,30.83a12.71,12.71,0,0,0-4.1-3.79,15.34,15.34,0,0,0-6.78-1.86h-.69q-3.4.32-4.76,1.9t-1.36,5.61V78.43a15.24,15.24,0,0,0,.35,3.52,4.92,4.92,0,0,0,1.16,2.29,5,5,0,0,0,2.13,1.27,12.37,12.37,0,0,0,3.25.51h2.4v.54H103.65V86a31.14,31.14,0,0,0,4.46-.27A5.89,5.89,0,0,0,111,84.62a4.74,4.74,0,0,0,1.51-2.32,13.56,13.56,0,0,0,.46-4V32.76a14.68,14.68,0,0,0-.35-3.56A4.84,4.84,0,0,0,111.43,27a4.71,4.71,0,0,0-2.12-1.24,16.11,16.11,0,0,0-3.26-.54h-.46A15,15,0,0,0,98.86,27a13.17,13.17,0,0,0-4.11,3.79,17.27,17.27,0,0,0-2.32,4.84q-.77,2.59-1.31,5v.15h-.55V24.56h52.64V40.81Z"/><path class="cls-1" d="M139.88,86l1.35-.16a9.35,9.35,0,0,0,3-1,16.16,16.16,0,0,0,3.68-2.75,15.11,15.11,0,0,0,3.33-5.34l20.82-52h.61l20.75,51.86A34.64,34.64,0,0,0,196,81.8a10.87,10.87,0,0,0,2.32,2.71,5.32,5.32,0,0,0,2.37,1.08l2.74.43v.54H178V86c1.85-.11,3.44-.22,4.76-.35a5.39,5.39,0,0,0,3-1,3.06,3.06,0,0,0,.85-2.74,21.45,21.45,0,0,0-1.55-5.46L179.35,62H157.76l-5.89,14.63a7.53,7.53,0,0,0-.65,3.91,5.16,5.16,0,0,0,1.2,2.63,6.39,6.39,0,0,0,2.28,1.63,14.58,14.58,0,0,0,2.63.85,14.16,14.16,0,0,0,2.21.31l1,0v.54H139.88Zm28.71-50.93L158,61.48h21.13Z"/><path class="cls-1" d="M280.59,24.79v.54h-1.16a21,21,0,0,0-3.29.35,14,14,0,0,0-4,1.32,9.58,9.58,0,0,0-3.36,2.82,7.88,7.88,0,0,0-1.44,5V86.71h-.61l-45.52-57v46.9a8,8,0,0,0,1.44,5A9.72,9.72,0,0,0,226,84.51a14.26,14.26,0,0,0,4,1.31,21,21,0,0,0,3.29.35h1.16v.54H207.37v-.54h1.16a21,21,0,0,0,3.29-.35,14.26,14.26,0,0,0,4-1.31,9.72,9.72,0,0,0,3.36-2.83,8,8,0,0,0,1.43-5v-44c0-1.24,0-2.31-.07-3.21a4.55,4.55,0,0,0-.7-2.29,3.59,3.59,0,0,0-2.05-1.35,15.55,15.55,0,0,0-4.14-.43h-2.4v-.54H227.8l38.94,48.38V34.78a7.88,7.88,0,0,0-1.44-5A9.58,9.58,0,0,0,261.94,27a14,14,0,0,0-4-1.32,21,21,0,0,0-3.29-.35H253.5v-.54h27.09Z"/><path class="cls-1" d="M339.88,77.58a26.73,26.73,0,0,1-9.21,6.73,30,30,0,0,1-11.84,2.4H285.62v-.54A30.2,30.2,0,0,0,290,85.9a6,6,0,0,0,2.87-1.12,4.65,4.65,0,0,0,1.54-2.32,13.51,13.51,0,0,0,.47-3.95V32.92q0-4.26-1.55-5.84t-5.42-1.82h-2.4v-.47h33.29a28.57,28.57,0,0,1,11.84,2.4,27.19,27.19,0,0,1,9.21,6.66,29.64,29.64,0,0,1,5.92,9.9,34.86,34.86,0,0,1,2.05,12,34.51,34.51,0,0,1-2.05,12A29.7,29.7,0,0,1,339.88,77.58Zm-13.7,6.19A21.31,21.31,0,0,0,329.85,81a23.26,23.26,0,0,0,3.22-3.71,33.93,33.93,0,0,0,4.56-9.75,41.13,41.13,0,0,0,1.63-11.77,41.82,41.82,0,0,0-1.63-11.84,32.5,32.5,0,0,0-4.56-9.75,23.34,23.34,0,0,0-3.22-3.72,21.76,21.76,0,0,0-3.67-2.78,17.9,17.9,0,0,0-8.28-2.4h-8.59a10.21,10.21,0,0,0-2.87.62,4.83,4.83,0,0,0-1.9,1.31,5.11,5.11,0,0,0-1,2.25,15.7,15.7,0,0,0-.31,3.4V77.19a5.07,5.07,0,0,0,0,.66c0,.23,0,.48,0,.73a14.71,14.71,0,0,0,.35,3.57,5.09,5.09,0,0,0,1.12,2.24,4.7,4.7,0,0,0,2.09,1.28,12.66,12.66,0,0,0,3.33.5h7A18.3,18.3,0,0,0,326.18,83.77Z"/><path class="cls-1" d="M350.25,86l1.35-.16a9.27,9.27,0,0,0,3-1,16.16,16.16,0,0,0,3.68-2.75,15.11,15.11,0,0,0,3.33-5.34l20.82-52h.62l20.74,51.86a34.64,34.64,0,0,0,2.55,5.23,10.68,10.68,0,0,0,2.33,2.71,5.28,5.28,0,0,0,2.36,1.08l2.74.43v.54H388.41V86c1.85-.11,3.44-.22,4.76-.35a5.36,5.36,0,0,0,3-1,3.06,3.06,0,0,0,.85-2.74,21.45,21.45,0,0,0-1.55-5.46L389.72,62H368.13l-5.88,14.63a7.45,7.45,0,0,0-.66,3.91,5.16,5.16,0,0,0,1.2,2.63,6.39,6.39,0,0,0,2.28,1.63,14.58,14.58,0,0,0,2.63.85,14.16,14.16,0,0,0,2.21.31l1,0v.54H350.25ZM379,35.09l-10.6,26.39h21.13Z"/><path class="cls-1" d="M417.28,86.71v-.54h.07a31.14,31.14,0,0,0,4.46-.27,5.79,5.79,0,0,0,2.86-1.12,4.74,4.74,0,0,0,1.51-2.32,13.56,13.56,0,0,0,.46-3.95V32.92q0-4.26-1.51-5.84c-1-1.06-2.8-1.67-5.38-1.82h-2.47v-.47h29.49a31.94,31.94,0,0,1,9,1.16,20.1,20.1,0,0,1,6.2,3.33,13.2,13.2,0,0,1,3.52,4.84,15.76,15.76,0,0,1,1.2,6.23,14,14,0,0,1-4.72,11.07,18.85,18.85,0,0,1-6.2,3.33,16.65,16.65,0,0,1-3.59.85c-1.27.15-2.6.28-4,.38a11.84,11.84,0,0,1,3.44,1.63,17.36,17.36,0,0,1,4.14,4.26l14.56,20.2a7.7,7.7,0,0,0,2.59,2.28,15.44,15.44,0,0,0,2.94,1.24,12,12,0,0,0,2.52.5l1.31.08h.08v.54H464.26L445.37,60.55a18.06,18.06,0,0,0-2.13-2.44,8.88,8.88,0,0,0-1.85-1.35,6.19,6.19,0,0,0-1.74-.62,10.34,10.34,0,0,0-1.78-.16H435v22.6a15.23,15.23,0,0,0,.35,3.57,4.93,4.93,0,0,0,1.16,2.24,5,5,0,0,0,2.13,1.28,12.41,12.41,0,0,0,3.25.5h2.4v.54h-27ZM435,55.52h11.15a11.06,11.06,0,0,0,6.5-1.94A11.74,11.74,0,0,0,454.39,52a13.37,13.37,0,0,0,1.66-2.29,18.58,18.58,0,0,0,1.47-4.21,22.53,22.53,0,0,0,.55-5.15q0-6.66-2.87-10.68a10.47,10.47,0,0,0-9.05-4.41h-5a10.21,10.21,0,0,0-2.87.62,4.79,4.79,0,0,0-1.89,1.31,5.12,5.12,0,0,0-1.05,2.25,15.7,15.7,0,0,0-.31,3.4V55.52Z"/><path class="cls-1" d="M538.33,77.58a26.73,26.73,0,0,1-9.21,6.73,30,30,0,0,1-11.84,2.4H484.07v-.54a30,30,0,0,0,4.41-.27,6,6,0,0,0,2.87-1.12,4.67,4.67,0,0,0,1.55-2.32,13.56,13.56,0,0,0,.46-3.95V32.92c0-2.84-.51-4.79-1.55-5.84s-2.83-1.67-5.41-1.82H484v-.47h33.28a28.57,28.57,0,0,1,11.84,2.4,27.19,27.19,0,0,1,9.21,6.66,29.64,29.64,0,0,1,5.92,9.9,34.86,34.86,0,0,1,2,12,34.51,34.51,0,0,1-2,12A29.7,29.7,0,0,1,538.33,77.58Zm-13.7,6.19A21.37,21.37,0,0,0,528.31,81a23.72,23.72,0,0,0,3.21-3.71,34.22,34.22,0,0,0,4.57-9.75,41.49,41.49,0,0,0,1.62-11.77,42.18,42.18,0,0,0-1.62-11.84,32.75,32.75,0,0,0-4.57-9.75,23.81,23.81,0,0,0-3.21-3.72,21.83,21.83,0,0,0-3.68-2.78,17.9,17.9,0,0,0-8.28-2.4h-8.59a10.21,10.21,0,0,0-2.87.62A4.79,4.79,0,0,0,503,27.19,5.12,5.12,0,0,0,502,29.44a16.36,16.36,0,0,0-.31,3.4V77.19a5.07,5.07,0,0,0,0,.66,5.74,5.74,0,0,1,0,.73,15.23,15.23,0,0,0,.35,3.57,5.09,5.09,0,0,0,1.12,2.24,4.76,4.76,0,0,0,2.09,1.28,12.72,12.72,0,0,0,3.33.5h7A18.3,18.3,0,0,0,524.63,83.77Z"/><path class="cls-1" d="M0,7.28H1.63l2.78,9.57h0L7.65,7.28H9.06l3.39,9.57h.05l2.7-9.57h1.48L13.32,18.71H11.78L8.37,9.36h0l-3.2,9.35H3.59Z"/><path class="cls-1" d="M18.41,2.75A1,1,0,0,1,18.74,2a1,1,0,0,1,.79-.33,1.11,1.11,0,0,1,1.11,1.12,1.09,1.09,0,0,1-.32.79,1.1,1.1,0,0,1-.79.32,1.07,1.07,0,0,1-.79-.32A1.06,1.06,0,0,1,18.41,2.75Zm.38,4.53h1.48V18.71H18.79Z"/><path class="cls-1" d="M29.6,8.61H26.33v7.45a1.61,1.61,0,0,0,.42,1.19,1.6,1.6,0,0,0,1.17.42,3.61,3.61,0,0,0,.85-.11,5.39,5.39,0,0,0,.83-.28l.12,1.33a8.09,8.09,0,0,1-1,.27,4.06,4.06,0,0,1-1,.13,3.52,3.52,0,0,1-1.36-.24,2.25,2.25,0,0,1-.91-.63,2.47,2.47,0,0,1-.51-.93,3.81,3.81,0,0,1-.16-1.15V8.61H22.37V7.28h2.48V4h1.48v3.3H29.6Z"/><path class="cls-1" d="M31.8,0h1.49V9.28h.05a3.92,3.92,0,0,1,1.48-1.62A4.37,4.37,0,0,1,37.25,7a4.89,4.89,0,0,1,2.18.42,3.51,3.51,0,0,1,1.32,1.1,4.34,4.34,0,0,1,.67,1.57,9.31,9.31,0,0,1,.18,1.83v6.81H40.12V12A7.53,7.53,0,0,0,40,10.63a3.7,3.7,0,0,0-.44-1.18,2.29,2.29,0,0,0-.86-.83,3.09,3.09,0,0,0-1.45-.3,4.22,4.22,0,0,0-1.55.28,3.25,3.25,0,0,0-1.26.87,3.92,3.92,0,0,0-.84,1.46A6.08,6.08,0,0,0,33.29,13v5.72H31.8Z"/><path class="cls-1" d="M60.61,17a5.38,5.38,0,0,1-1.9,1.5A5.56,5.56,0,0,1,56.4,19,6.39,6.39,0,0,1,54,18.56a5.42,5.42,0,0,1-1.91-1.25,5.56,5.56,0,0,1-1.23-1.9A6.36,6.36,0,0,1,50.39,13a6.31,6.31,0,0,1,.45-2.41A5.47,5.47,0,0,1,54,7.42,6.59,6.59,0,0,1,56.4,7a5.22,5.22,0,0,1,2.34.52A6.12,6.12,0,0,1,60.66,9l-1.19.89a5.32,5.32,0,0,0-1.41-1.13,3.48,3.48,0,0,0-1.66-.4,4.57,4.57,0,0,0-1.88.37,4.19,4.19,0,0,0-1.43,1,4.32,4.32,0,0,0-.91,1.48,5.67,5.67,0,0,0,0,3.64,4.27,4.27,0,0,0,.91,1.49,4.33,4.33,0,0,0,1.43,1,4.57,4.57,0,0,0,1.88.37,3.46,3.46,0,0,0,1.72-.43,4.5,4.5,0,0,0,1.35-1.15Z"/><path class="cls-1" d="M72.15,15.49c0,.22,0,.48,0,.78s0,.62,0,.93,0,.61,0,.88,0,.48,0,.63H70.78c0-.43,0-.84,0-1.24a4.28,4.28,0,0,0-.06-.76h-.08a4.12,4.12,0,0,1-1.48,1.62A4.4,4.4,0,0,1,66.7,19a5,5,0,0,1-2.19-.42,3.58,3.58,0,0,1-1.34-1.1,4,4,0,0,1-.65-1.58,9.16,9.16,0,0,1-.18-1.83V7.28h1.49V14A7.53,7.53,0,0,0,64,15.36a3.64,3.64,0,0,0,.44,1.17,2.15,2.15,0,0,0,.86.83,2.94,2.94,0,0,0,1.45.31,4.22,4.22,0,0,0,1.55-.28,3.4,3.4,0,0,0,1.26-.87,4.31,4.31,0,0,0,.84-1.46A6.14,6.14,0,0,0,70.66,13V7.28h1.49Z"/><path class="cls-1" d="M75.73,10.49c0-.21,0-.47,0-.78s0-.61,0-.92,0-.61,0-.88,0-.49,0-.63H77.1q0,.64,0,1.23a4.33,4.33,0,0,0,.06.77,5.11,5.11,0,0,1,1.46-1.66A3.63,3.63,0,0,1,80.83,7a2.18,2.18,0,0,1,.44,0l.43.08-.17,1.46a2,2,0,0,0-.57-.1,4.22,4.22,0,0,0-1.67.31,3.18,3.18,0,0,0-1.17.86,3.7,3.7,0,0,0-.68,1.27,5.32,5.32,0,0,0-.22,1.57v6.24H75.73Z"/><path class="cls-1" d="M83.51,10.49q0-.32,0-.78c0-.3,0-.61,0-.92s0-.61,0-.88,0-.49,0-.63h1.49c0,.43,0,.84,0,1.23a3.29,3.29,0,0,0,.07.77,5,5,0,0,1,1.46-1.66A3.6,3.6,0,0,1,88.6,7,2.12,2.12,0,0,1,89,7l.43.08L89.3,8.56a2,2,0,0,0-.57-.1,4.22,4.22,0,0,0-1.67.31,3.18,3.18,0,0,0-1.17.86,3.7,3.7,0,0,0-.68,1.27A5.32,5.32,0,0,0,85,12.47v6.24H83.51Z"/><path class="cls-1" d="M100.9,16.56a5,5,0,0,1-2.14,1.88A6.79,6.79,0,0,1,96,19a6,6,0,0,1-2.37-.45,5.19,5.19,0,0,1-1.83-1.25,5.45,5.45,0,0,1-1.18-1.9A7.06,7.06,0,0,1,90.16,13a6.58,6.58,0,0,1,.42-2.38A5.78,5.78,0,0,1,91.77,8.7a5.46,5.46,0,0,1,1.81-1.26A5.56,5.56,0,0,1,95.88,7a5.41,5.41,0,0,1,2.31.46,5.11,5.11,0,0,1,1.69,1.21,5.16,5.16,0,0,1,1,1.72,5.56,5.56,0,0,1,.35,2v1h-9.6a5.28,5.28,0,0,0,.18,1.2,4.29,4.29,0,0,0,2,2.61,4.11,4.11,0,0,0,2.14.49,4.8,4.8,0,0,0,2.2-.54,4,4,0,0,0,1.64-1.49ZM99.77,12a3.51,3.51,0,0,0-.31-1.44,3.9,3.9,0,0,0-2.11-2,4.17,4.17,0,0,0-1.54-.29,3.8,3.8,0,0,0-2,.49,4.4,4.4,0,0,0-1.94,2.39,3,3,0,0,0-.2.83Z"/><path class="cls-1" d="M104.1,10.49q0-.32,0-.78c0-.3,0-.61,0-.92s0-.61,0-.88,0-.49,0-.63h1.49c0,.43,0,.84,0,1.23a3,3,0,0,0,.06.77h.07a4,4,0,0,1,1.49-1.62A4.34,4.34,0,0,1,109.54,7a4.89,4.89,0,0,1,2.18.42A3.51,3.51,0,0,1,113,8.5a4,4,0,0,1,.67,1.57,8.61,8.61,0,0,1,.19,1.83v6.81h-1.49V12a7.53,7.53,0,0,0-.12-1.35,3.69,3.69,0,0,0-.43-1.18,2.39,2.39,0,0,0-.87-.83,3,3,0,0,0-1.45-.3A4.17,4.17,0,0,0,108,8.6a3.36,3.36,0,0,0-1.27.87,4.22,4.22,0,0,0-.84,1.46,6.33,6.33,0,0,0-.31,2.06v5.72H104.1Z"/><path class="cls-1" d="M123,8.61h-3.27v7.45a1.61,1.61,0,0,0,.42,1.19,1.57,1.57,0,0,0,1.16.42,3.69,3.69,0,0,0,.86-.11,5.78,5.78,0,0,0,.83-.28l.12,1.33a8.09,8.09,0,0,1-1,.27,4.12,4.12,0,0,1-1,.13,3.48,3.48,0,0,1-1.36-.24,2.29,2.29,0,0,1-.92-.63,2.33,2.33,0,0,1-.5-.93,3.8,3.8,0,0,1-.17-1.15V8.61h-2.47V7.28h2.47V4h1.49v3.3H123Z"/><path class="cls-2" d="M201.6,93.6a8.75,8.75,0,0,1,6,2.36,10.9,10.9,0,0,1,2.75,5.74c2.4-.45,4.9-1,7.48-1.52s5.12-1.15,7.6-1.75a7.24,7.24,0,0,0,1.12-.39,8.28,8.28,0,0,1,1.41-.45,4,4,0,0,1,1.29-.11.91.91,0,0,1,.79.5.69.69,0,0,1-.23.9,4.7,4.7,0,0,1-1.12.62,8,8,0,0,1-1.46.45c-.53.11-.9.21-1.13.28q-3.6,1.13-7.59,2c-2.66.56-5.31,1.11-7.93,1.63a23.52,23.52,0,0,1-1,8.16,28.82,28.82,0,0,1-3.09,6.92,36,36,0,0,1-4.33,5.4,12.49,12.49,0,0,1-5.91,3.37h-1.69a4.5,4.5,0,0,1-1.91-.84,16.59,16.59,0,0,1-1.46-1.29,9.84,9.84,0,0,1-1.75-4.9,29.06,29.06,0,0,1,.06-6,53.17,53.17,0,0,1,1-6.08c.45-2,.87-3.76,1.24-5.34a4.42,4.42,0,0,1-.06-4A8.74,8.74,0,0,1,194,96.3a18.91,18.91,0,0,0,.84-2.37,18,18,0,0,1,1-2.58,7.7,7.7,0,0,1,1.4-2.14,2.89,2.89,0,0,1,2.2-.9,2.2,2.2,0,0,1,2.25,1.63A6.16,6.16,0,0,1,201.6,93.6Zm-5.4,11.7q-.57,3.26-1.41,7a27.89,27.89,0,0,0-.62,7.7,10.36,10.36,0,0,0,.4,1.92,2.76,2.76,0,0,0,1.06,1.46,8.74,8.74,0,0,0,5.18-2.7q1.91-2.14,3.6-4.39a44.79,44.79,0,0,0,2.7-5.46,13.71,13.71,0,0,0,.9-6.58,50.65,50.65,0,0,1-5.74.85A49.23,49.23,0,0,1,196.2,105.3Zm5-9.34a3.41,3.41,0,0,0-.23,1.29.76.76,0,0,1-.67.85,1.6,1.6,0,0,1-.51-.06,2.9,2.9,0,0,1-.39-.17,2,2,0,0,1-.12-1.57,4.86,4.86,0,0,0-.84,1.46,16.91,16.91,0,0,0-.51,1.69,17.73,17.73,0,0,0-.56,1.8l-.45,1.8q3.15,0,5.85-.23c1.8-.15,3.56-.37,5.29-.67a9,9,0,0,0-2.08-4.45A6.59,6.59,0,0,0,201.15,96Z"/><path class="cls-2" d="M246.82,71.55c-.38.22-.64.16-.79-.17a2.43,2.43,0,0,0-.45-.73,6.94,6.94,0,0,0-1.29-1,2.67,2.67,0,0,0-2-.28,3.23,3.23,0,0,0-2.14,2c-.6,1.16-1.09,2.15-1.46,3A59.9,59.9,0,0,0,235.51,84q-1.29,5.3-2.19,10.35,4.5-1.68,9.56-3.71a67.82,67.82,0,0,1,10.69-3.26,46.3,46.3,0,0,1,5.57-.85,13.17,13.17,0,0,1,5.57.62c.37.15.79.34,1.24.57a1.08,1.08,0,0,1,.56,1.23,1.83,1.83,0,0,1-2,.34,8.22,8.22,0,0,0-2.36-.56,13.16,13.16,0,0,0-4.39.28c-1.42.34-2.81.69-4.16,1.07s-2.64.77-3.88,1.18-2.38.84-3.43,1.29q-3.72,1.24-7.09,2.76t-6.64,3.21q-.56,3.48-1,7.2t-.9,7.65c-.08.82-.17,1.67-.28,2.53a11.94,11.94,0,0,0-.06,2.53,9.39,9.39,0,0,0,.45,1.85c.23.64.41,1.26.57,1.86a72.23,72.23,0,0,1,1.8,21.26c0,.83,0,1.67-.12,2.53a10.5,10.5,0,0,1-.45,2.37,4.15,4.15,0,0,1-1,1.74,2.44,2.44,0,0,1-1.8.68,2.22,2.22,0,0,1-1.63-.62,4.38,4.38,0,0,1-1-1.52,10.49,10.49,0,0,1-.5-1.91c-.12-.68-.21-1.32-.28-1.92a66.81,66.81,0,0,1-1-10.74c0-3.71.06-7.48.28-11.31.08-.75.17-1.5.28-2.25a8.54,8.54,0,0,0,.06-2.13,5,5,0,0,0-.62-1.8q-.51-.9-1-1.8a16.27,16.27,0,0,0-2-3.27l-2.3-2.92c-.38-.45-.77-1-1.18-1.52a3.08,3.08,0,0,1-.62-1.86,3.31,3.31,0,0,1,.45-1.68,6.82,6.82,0,0,1,1.12-1.47,8.74,8.74,0,0,1,1.47-1.18c.52-.34,1-.65,1.35-.95,1.05-.68,2-1.26,3-1.75s2-1,3.09-1.63q1-5.51,2.64-11.31a93.41,93.41,0,0,1,3.66-10.63,31.4,31.4,0,0,1,2.42-4.38,7.71,7.71,0,0,1,3.66-3c0,.07.07,0,.22-.11a4,4,0,0,1,2.59.5c.6.41,1.2.85,1.8,1.3a7.89,7.89,0,0,0,.95,1.23A1.06,1.06,0,0,1,246.82,71.55Zm-24.41,33.52a31.09,31.09,0,0,1,2.3,2.59,22.59,22.59,0,0,1,2,2.92c.23-1.57.44-3.16.62-4.78s.43-3.17.73-4.67l-.11-.11c-1,.68-1.95,1.31-2.92,1.91A12,12,0,0,0,222.41,105.07Z"/><path class="cls-2" d="M289,100.12a1.54,1.54,0,0,1-1.3-.11,3.09,3.09,0,0,1-.84-.85,4.89,4.89,0,0,1-.56-1.12,4,4,0,0,0-.57-1.07,8.73,8.73,0,0,0-3.82,3.66,26.85,26.85,0,0,0-2.36,5.34,23.85,23.85,0,0,0-.79,3.09,20.83,20.83,0,0,0-.39,3.49,11.43,11.43,0,0,0,.33,3.26,3.75,3.75,0,0,0,1.63,2.31,9.34,9.34,0,0,0,5.07-1.91,47.69,47.69,0,0,1,3.93-2.93q3.95-2.93,7.65-6t7.54-6.24c.6-.45,1.22-.94,1.86-1.46a21.33,21.33,0,0,1,2-1.46,4.09,4.09,0,0,1,.95-.68c.41-.22.81-.45,1.18-.67a10.57,10.57,0,0,0,1.19-.57c.41-.22.76-.11,1.06.34.23.6.13,1-.28,1.24a4.57,4.57,0,0,0-1.07.79c-1.05.75-2,1.51-3,2.3l-2.87,2.42q-4.16,3.49-8.26,7.48a91.65,91.65,0,0,1-8.72,7.48,32.84,32.84,0,0,1-4.28,2.76,7.07,7.07,0,0,1-5.51.39,5.73,5.73,0,0,1-2.87-3.2,15.48,15.48,0,0,1-1-4.84,22.74,22.74,0,0,1,.45-5.4,29.63,29.63,0,0,1,1.47-5A21,21,0,0,1,283,94.05c.38-.15.68-.29.9-.4a4.19,4.19,0,0,1,.9-.28q.12,0,.12-.06s0,0,.11,0h1a4,4,0,0,1,.9.11,4.26,4.26,0,0,1,2.48,3.26,8.1,8.1,0,0,0,0,2A1.63,1.63,0,0,1,289,100.12Z"/><path class="cls-2" d="M325.23,94.72c-1.42,1.88-2.81,3.9-4.16,6.08s-2.7,4.27-4.05,6.3q-1.47,2.13-3,4.61a23.11,23.11,0,0,1-3.6,4.39,8.14,8.14,0,0,1-1.57,1.4,2.42,2.42,0,0,1-2.14.28,3,3,0,0,1-1.58-2.47,34.71,34.71,0,0,1,2.09-9.79,45,45,0,0,1,4-8.32c.52-.83,1.1-1.65,1.74-2.48a6.29,6.29,0,0,1,2.08-1.8,3.22,3.22,0,0,1,3.77.17q1.64,1.29,1.18,4.11a6.11,6.11,0,0,0,1.3-1.8c.49-.9,1-1.82,1.57-2.76a20.22,20.22,0,0,1,1.8-2.53,3.17,3.17,0,0,1,2-1.24,2.69,2.69,0,0,1,.79.11l.67.23a5.13,5.13,0,0,1,1.13,2.14q-.23,6.75-.9,12.76t-1,12.77v2c0,.82,0,1.65-.12,2.47a11,11,0,0,1-.39,2.2c-.19.63-.51,1-1,1a1.27,1.27,0,0,1-1.18-.73,5.61,5.61,0,0,1-.56-1.8,14.28,14.28,0,0,1-.17-2.19,12.13,12.13,0,0,0-.11-1.8,63.19,63.19,0,0,1,.22-11.93Q324.66,100.23,325.23,94.72Zm-8.1.23c0-.08,0-.12-.11-.12a3.53,3.53,0,0,0-.62.28,3,3,0,0,1-.62.29,23.56,23.56,0,0,0-2.81,4,43.88,43.88,0,0,0-2.25,4.56q-.9,2.35-1.74,5a24.24,24.24,0,0,0-1.07,5.68,39.53,39.53,0,0,0,5.68-7.25q2.54-4.11,5.12-8a4.47,4.47,0,0,1-.57-2.42A1.9,1.9,0,0,0,317.13,95Z"/><path class="cls-2" d="M357.18,93.37a16.84,16.84,0,0,0-5.23,5.4c-1.31,2.18-2.72,4.35-4.22,6.53l-1.8,3.6a32,32,0,0,0-1.57,3.71,18.74,18.74,0,0,0-1.69,3.65,4,4,0,0,1-2.7,2.65h-1a2.79,2.79,0,0,1-1-.62,4.65,4.65,0,0,1-.73-1,35.75,35.75,0,0,1-.17-4.61c0-1.65.11-3.32.23-5s.3-3.33.56-4.95.54-3.09.84-4.44a15.15,15.15,0,0,1,.68-2.47,2.16,2.16,0,0,1,1.8-1.47,1.41,1.41,0,0,1,1.29,1,6.12,6.12,0,0,1,.23,2.08,20.64,20.64,0,0,1-.29,2.47,12.67,12.67,0,0,0-.22,2.08q-.23,2.25-.39,4c-.12,1.2-.25,2.33-.4,3.38,1.28-2.1,2.81-4.46,4.61-7.09a70.35,70.35,0,0,1,5.52-7.09,25,25,0,0,1,2-2.19,7.83,7.83,0,0,1,2.3-1.63,3.22,3.22,0,0,1,2.08,0,1.75,1.75,0,0,1,1.3,1.24c.15.9-.08,1.38-.68,1.46A1.25,1.25,0,0,1,357.18,93.37Z"/><path class="cls-2" d="M363.14,102.82a22.46,22.46,0,0,0-1.46,4.11,19.07,19.07,0,0,0-.67,4.95,8.42,8.42,0,0,0,1,4.22,4,4,0,0,0,3.6,1.91,11.19,11.19,0,0,0,5.57-1.24,50.14,50.14,0,0,0,4.55-2.59q2.25-1.58,4.22-3.09c1.31-1,2.49-2,3.55-3a60.79,60.79,0,0,0,5.56-4.84c1.77-1.72,3.51-3.49,5.24-5.29a2.92,2.92,0,0,0,.73-.9,9.47,9.47,0,0,1,.84-1.23,5.45,5.45,0,0,1,1-1,.88.88,0,0,1,1.07-.06q.78.35.33,1.35a8.37,8.37,0,0,1-.78,1.47,4.11,4.11,0,0,1-.68,1.23c-.3.38-.6.79-.9,1.24a82.47,82.47,0,0,1-5.91,6.19q-3.09,2.93-6.35,5.85a46.82,46.82,0,0,1-9.45,6.75,24.84,24.84,0,0,1-2.81,1.29,15.39,15.39,0,0,1-3.27.9,14.52,14.52,0,0,1-3.43.17,6.78,6.78,0,0,1-3.2-1,5.52,5.52,0,0,1-1.19-1.07l-1.06-1.29a10.71,10.71,0,0,1-1.41-4.79,21.45,21.45,0,0,1,.34-5.34,32,32,0,0,1,1.4-5.17,33.2,33.2,0,0,1,1.8-4.17,46.44,46.44,0,0,1,4.5-6.63,13.18,13.18,0,0,1,6.87-4.28,5.42,5.42,0,0,1,3.76,1,3.85,3.85,0,0,1,1.19,3.6,7.54,7.54,0,0,1-1.35,3.38,21.53,21.53,0,0,1-2.37,2.81,25.2,25.2,0,0,1-4.44,3.54A9.19,9.19,0,0,1,363.14,102.82Zm10.47-12a11.76,11.76,0,0,0-6,4.11,41.25,41.25,0,0,0-3.82,6.24A7,7,0,0,0,368,100a31.77,31.77,0,0,0,2.93-2.36q1.23-1.35,2.58-2.7a4.87,4.87,0,0,0,1.24-3.83A1.22,1.22,0,0,0,373.61,90.78Z"/></g></g></svg>