<svg xmlns="http://www.w3.org/2000/svg" viewBox="0 0 235.55 174.38"><defs><style>.cls-1{fill:#153a49;}.cls-2{fill:#ff8300;}.cls-3{fill:#53575a;}.cls-4{fill:none;stroke:#ff8300;stroke-width:0.81px;}</style></defs><g id="Layer_2" data-name="Layer 2"><g id="Layer_1-2" data-name="Layer 1"><path class="cls-1" d="M44.72,87.68a37.9,37.9,0,0,1,2-12.56,31.8,31.8,0,0,1,5.4-10.32,24.62,24.62,0,0,1,7.92-6.88,20.52,20.52,0,0,1,9.87-2.56h4.17a20.33,20.33,0,0,1,9.79,2.56A24.35,24.35,0,0,1,92,64.8a35.56,35.56,0,0,1,5.47,10.32,39.89,39.89,0,0,1,1.94,12.56,39.4,39.4,0,0,1-1.94,12.56A35.56,35.56,0,0,1,92,110.56a24.35,24.35,0,0,1-8.07,6.88A20.33,20.33,0,0,1,74.09,120H69.92a20.52,20.52,0,0,1-9.87-2.56,24.62,24.62,0,0,1-7.92-6.88,31.8,31.8,0,0,1-5.4-10.32A37.9,37.9,0,0,1,44.72,87.68Zm7.84,0A54.09,54.09,0,0,0,53.9,99.92a35.56,35.56,0,0,0,4,10.24A18,18,0,0,0,59,112a16.51,16.51,0,0,0,1.26,1.6,19.11,19.11,0,0,0,4.35,3.72,33.43,33.43,0,0,0,3.42,1.8l1.37.32a6.79,6.79,0,0,0,1.51.16h2.16a5.82,5.82,0,0,0,1.44-.16c.44-.11.92-.21,1.44-.32a37.49,37.49,0,0,0,3.35-1.8,20.23,20.23,0,0,0,4.43-3.72c.38-.48.78-1,1.19-1.6s.8-1.2,1.19-1.84a36.49,36.49,0,0,0,4-10.24,55.36,55.36,0,0,0,0-24.48,36.49,36.49,0,0,0-4-10.24c-.39-.64-.78-1.25-1.19-1.84s-.81-1.12-1.19-1.6A20.23,20.23,0,0,0,79.31,58,37.49,37.49,0,0,0,76,56.24L74.52,56a7.9,7.9,0,0,0-1.44-.12H70.92a10.59,10.59,0,0,0-2.88.4A33.43,33.43,0,0,0,64.62,58a19.11,19.11,0,0,0-4.35,3.72A16.51,16.51,0,0,0,59,63.36a18,18,0,0,0-1.12,1.84,35.56,35.56,0,0,0-4,10.24A54.09,54.09,0,0,0,52.56,87.68Z"/><path class="cls-1" d="M167.76,56.24v.56h-1.08a17.44,17.44,0,0,0-3.06.36,12.09,12.09,0,0,0-3.7,1.36,9.43,9.43,0,0,0-3.14,2.92,8.82,8.82,0,0,0-1.33,5.12v53.68h-.57L112.54,61.36v48.48a9,9,0,0,0,1.33,5.2A9.4,9.4,0,0,0,117,118a12.24,12.24,0,0,0,3.71,1.36,17.33,17.33,0,0,0,3.06.36h1.08v.56H99.65v-.56h1.08a17.33,17.33,0,0,0,3.06-.36A12.24,12.24,0,0,0,107.5,118a9.4,9.4,0,0,0,3.13-2.92,9,9,0,0,0,1.33-5.2V64.32c0-1.28,0-2.39-.07-3.32a5,5,0,0,0-.65-2.36,3.31,3.31,0,0,0-1.9-1.4,13.12,13.12,0,0,0-3.86-.44h-2.23v-.56h15.41l36.22,50V66.56a8.82,8.82,0,0,0-1.34-5.12,9.4,9.4,0,0,0-3.13-2.92,12.24,12.24,0,0,0-3.71-1.36,17.33,17.33,0,0,0-3.06-.36h-1.08v-.56h25.2Z"/><path class="cls-1" d="M208.88,118.88a16.7,16.7,0,0,0,4.21-2.08,16.27,16.27,0,0,0,3.2-2.92,24.55,24.55,0,0,0,2.38-3.4,29.54,29.54,0,0,0,3.24-9.28h.5l-2.09,19H172.73v-.56a25.55,25.55,0,0,0,4.14-.28,5.32,5.32,0,0,0,2.7-1.16,4.91,4.91,0,0,0,1.44-2.4,15.35,15.35,0,0,0,.43-4.08V65.6a3.87,3.87,0,0,0,0-.48,2.59,2.59,0,0,1,0-.48c0-2.93-.47-5-1.4-6s-2.61-1.72-5-1.88h-2.3v-.48h45.65V73h-.51V73q-.57-2.64-1.33-5.52a16.9,16.9,0,0,0-2.34-5.24,12.72,12.72,0,0,0-4.32-3.92,14.45,14.45,0,0,0-7.2-1.56H189.07V88h10.3a7.63,7.63,0,0,0,4.86-1.56,10.28,10.28,0,0,0,2.67-3.32A11.51,11.51,0,0,0,208,79.6c.14-1.12.22-1.87.22-2.24v-.24h.5V99.44h-.5V99.2c0-.37-.08-1.15-.22-2.32a11.26,11.26,0,0,0-1.15-3.64,9.87,9.87,0,0,0-2.77-3.32A8.05,8.05,0,0,0,199,88.48h-9.94V110.4a9,9,0,0,1,.08,1.44,17.69,17.69,0,0,0,.32,3.68,5.38,5.38,0,0,0,1.08,2.32,4.5,4.5,0,0,0,2,1.32,10.39,10.39,0,0,0,3,.52h8A16.8,16.8,0,0,0,208.88,118.88Z"/><path class="cls-2" d="M13.36,25.5a7.66,7.66,0,0,0-2.7,2.4,9.7,9.7,0,0,0-1.12,1.6A3.52,3.52,0,0,0,9,31.6a3.65,3.65,0,0,0,1,1.95c.54.57,1,1.08,1.44,1.55l1.4,1.55a14.43,14.43,0,0,1,1.21,1.55q2.25-1.8,4.28-3.75a40.69,40.69,0,0,1,4.36-3.65,32.54,32.54,0,0,1,3.38-2.5q1.84-1.2,3.82-2.3l1.26-.7a1.13,1.13,0,0,1,1.35.1,1.14,1.14,0,0,1-.09.8,1.1,1.1,0,0,1-.54.45l-.72.3a1.1,1.1,0,0,0-.54.45A24.8,24.8,0,0,0,27,29.65c-1.11.83-2.24,1.65-3.38,2.45q-4.32,3.6-8.37,7.5a32.72,32.72,0,0,1,2.21,4.7A16.07,16.07,0,0,1,18.4,50a18.24,18.24,0,0,1-.9,6.4,18.86,18.86,0,0,1-2.7,5.2,20.87,20.87,0,0,1-3.87,3.8,7.86,7.86,0,0,1-5.22,1.7,5.72,5.72,0,0,1-2.07-.5,7.89,7.89,0,0,1-1.53-1A10.24,10.24,0,0,1,.67,63.3,8.12,8.12,0,0,1,0,60.4,12,12,0,0,1,1.21,54a34.94,34.94,0,0,1,3-5,40.59,40.59,0,0,1,3.56-4.35Q9.59,42.7,11.38,41a11.76,11.76,0,0,0-1.44-1.85C9.4,38.58,8.86,38,8.32,37.4a17,17,0,0,1-1.48-1.9,8.09,8.09,0,0,1-1-2.2,5.68,5.68,0,0,1,0-4A16.58,16.58,0,0,1,7.6,26c.6-.73,1.19-1.38,1.76-1.95a8,8,0,0,1,2-1.45,8.91,8.91,0,0,1,1.35-.3,2.3,2.3,0,0,1,1.35.2,2.14,2.14,0,0,0,.5.55,1.67,1.67,0,0,1,.49.75,3.64,3.64,0,0,1,0,1.9c-.15.73-.38,1.1-.68,1.1s-.66-.07-.72-.4A2.37,2.37,0,0,0,13.36,25.5ZM12.19,42.8c-1,.93-2,2-3.06,3.1a43.65,43.65,0,0,0-3,3.7c-.54.73-1.09,1.55-1.66,2.45a15.24,15.24,0,0,0-1.44,3,15.47,15.47,0,0,0-.81,3.35A9,9,0,0,0,2.56,62a7.11,7.11,0,0,0,1.17,1.35,2.49,2.49,0,0,0,1.71.55,5.92,5.92,0,0,0,3.65-1.55,17,17,0,0,0,2.83-3.15,14.2,14.2,0,0,0,1.76-3.8A19,19,0,0,0,14.49,51a15.86,15.86,0,0,0-.36-4.45,11.05,11.05,0,0,0-1.67-3.9c0-.07,0-.1-.09-.1A.55.55,0,0,0,12.19,42.8ZM2.65,67.7c0,.07.06,0,.18-.1C2.83,67.67,2.77,67.7,2.65,67.7Z"/><path class="cls-2" d="M36.49,12.5q7.74-.3,16.11-.9a106.34,106.34,0,0,1,16.65.1c.3,0,.63,0,1,.05a.78.78,0,0,1,.72.55c-.06.53-.28.8-.67.8a4.65,4.65,0,0,1-1-.1,144.4,144.4,0,0,0-16.65.15q-8.28.55-16.29,1Q35.05,22.41,34,30.9a136.37,136.37,0,0,0-1,17.8c0,.87,0,1.83.09,2.9a22.41,22.41,0,0,0,.36,3c.12.73.32,1.63.59,2.7s.67,1.63,1.21,1.7a1.1,1.1,0,0,0,1-.3,8.7,8.7,0,0,0,1-1,10.82,10.82,0,0,0,.9-1.15c.27-.4.46-.7.58-.9a99.54,99.54,0,0,0,6.44-10.65q2.84-5.44,6-11.35.81-1.61,1.71-3.3c.6-1.13,1.26-2.27,2-3.4a10,10,0,0,1,.81-1.15c.3-.37.6-.48.9-.35.48.27.57.68.27,1.25s-.54,1-.72,1.25q-2.25,4.2-4.23,8.5T47.65,45q-1.26,2.3-2.47,4.65T42.61,54.3q-1.35,2.3-2.79,4.5a9.93,9.93,0,0,1-3.69,3.4,4.63,4.63,0,0,1-1.89,0,6,6,0,0,1-3.1-3.75,30.07,30.07,0,0,1-1.22-5.65,47.69,47.69,0,0,1-.45-6.65q0-3.45.18-6.75.45-6.7,1.22-12.95T32.71,14.5c-2.76.13-5.56.37-8.41.7s-5.75.57-8.69.7c-.36,0-.76,0-1.21,0s-.71-.22-.77-.75.24-.8.72-.8a6.7,6.7,0,0,0,1.26-.1q4.23-.3,8.64-.8c2.94-.33,5.85-.57,8.73-.7q.54-2.1,1.22-5A43.58,43.58,0,0,1,35.77,2.6,7.92,7.92,0,0,1,36.45,1c.33-.63.73-.95,1.21-.95a.9.9,0,0,1,.86.4,1.63,1.63,0,0,1,.18,1,8.27,8.27,0,0,1-.18,1.15c-.09.4-.17.77-.23,1.1-.3,1.47-.6,3-.9,4.55S36.79,11.17,36.49,12.5Z"/><path class="cls-2" d="M56.65,30.7a21,21,0,0,0-1.17,3.65,18.84,18.84,0,0,0-.54,4.4,8.22,8.22,0,0,0,.81,3.75,3.13,3.13,0,0,0,2.88,1.7,8.15,8.15,0,0,0,4.46-1.1,41.29,41.29,0,0,0,3.64-2.3q1.8-1.39,3.38-2.75c1-.9,2-1.78,2.83-2.65a51.61,51.61,0,0,0,4.46-4.3q2.11-2.3,4.18-4.7a2.37,2.37,0,0,0,.59-.8,8.92,8.92,0,0,1,.67-1.1,4.92,4.92,0,0,1,.77-.85.64.64,0,0,1,.85,0q.63.3.27,1.2a7.54,7.54,0,0,1-.63,1.3,3.64,3.64,0,0,1-.54,1.1c-.24.33-.48.7-.72,1.1a71.78,71.78,0,0,1-4.72,5.5C76.47,35.53,74.77,37.27,73,39a37.28,37.28,0,0,1-7.56,6,19.58,19.58,0,0,1-2.25,1.15,11.94,11.94,0,0,1-2.61.8,10.45,10.45,0,0,1-2.74.15,5.2,5.2,0,0,1-2.57-.9,4.46,4.46,0,0,1-.94-1L53.5,44.1a10.37,10.37,0,0,1-1.12-4.25,21.16,21.16,0,0,1,.27-4.75,31.86,31.86,0,0,1,1.12-4.6,30.65,30.65,0,0,1,1.44-3.7,42.32,42.32,0,0,1,3.6-5.9,10.44,10.44,0,0,1,5.49-3.8,4,4,0,0,1,3,.9,3.65,3.65,0,0,1,.94,3.2,6.88,6.88,0,0,1-1.08,3,19.45,19.45,0,0,1-1.89,2.5,20.71,20.71,0,0,1-3.55,3.15A6.8,6.8,0,0,1,56.65,30.7ZM65,20a9.37,9.37,0,0,0-4.77,3.65,37.77,37.77,0,0,0-3.06,5.55,5.18,5.18,0,0,0,3.33-1,26.42,26.42,0,0,0,2.34-2.1q1-1.2,2.07-2.4a4.61,4.61,0,0,0,1-3.4A.9.9,0,0,0,65,20Z"/><path class="cls-2" d="M83.2,47.1q2.34-6.19,5-11.9a31.36,31.36,0,0,1,7-9.7l.86-.4a9.84,9.84,0,0,1,.94-.4,2.86,2.86,0,0,1,2.7.9,5.69,5.69,0,0,1,1.17,2.75,10.54,10.54,0,0,1,0,3.45,15.44,15.44,0,0,1-.86,3.1,25.8,25.8,0,0,0,3.42-2.5q1.62-1.39,3.42-2.7c.84-.67,1.7-1.33,2.57-2s1.75-1.33,2.65-2a7.31,7.31,0,0,0,1-.55.82.82,0,0,1,1.08.15,1,1,0,0,1-.27,1.3q-.63.49-1.08.9-3.78,2.89-7.29,5.85t-7.2,5.85A34,34,0,0,1,96.16,43a29.58,29.58,0,0,1-2.61,3.35,17.64,17.64,0,0,0-1.3,1.35c-.51.57-1,1.1-1.58,1.6a12.16,12.16,0,0,1-1.75,1.35,4.42,4.42,0,0,1-1.85.7q-2,.3-2.16-1.5a2.56,2.56,0,0,1,.5-2.1,18.28,18.28,0,0,1,1.3-1.4c.48-.53.91-1,1.31-1.4s.79-.8,1.21-1.2a30.06,30.06,0,0,0,2.88-2.35A30.06,30.06,0,0,1,95,39c.42-.73.86-1.58,1.31-2.55s.85-2,1.21-3c.12-.47.26-1,.41-1.6a14.12,14.12,0,0,0,.31-1.8,6.38,6.38,0,0,0,0-1.7,2.75,2.75,0,0,0-.68-1.4,4.66,4.66,0,0,0-3.15,1.65q-1.26,1.46-2.25,2.85a45.2,45.2,0,0,0-4.5,8,91.76,91.76,0,0,0-3.42,9.25c-.24.67-.46,1.32-.67,2a12.67,12.67,0,0,0-.5,2,23.26,23.26,0,0,0-.27,3.65c0,1.3,0,2.58-.09,3.85l-.36,7.6q-.18,3.8-.45,7.7c-.06.6-.1,1.22-.13,1.85a14.74,14.74,0,0,1-.18,1.75A4,4,0,0,1,81,80.55a2.39,2.39,0,0,1-1.13,1H79.6a1.6,1.6,0,0,1-1.39-1.65c-.09-1-.14-1.92-.14-2.85a51.53,51.53,0,0,1,.14-5.75q.23-2.75.58-5.55c.12-.87.27-1.73.45-2.6s.33-1.73.45-2.6A48,48,0,0,0,80,55.35c0-1.77.06-3.45.18-5.05q.36-6.4.68-12.6T81.49,25V23.35a15.72,15.72,0,0,1,.09-1.75A4,4,0,0,1,82,20.2a1.06,1.06,0,0,1,1-.6,1.09,1.09,0,0,1,1,.75,6,6,0,0,1,.4,1.8,13.46,13.46,0,0,1,0,2.2q-.09,1.16-.09,1.95c-.24,3.47-.47,7-.67,10.45S83.32,43.7,83.2,47.1Z"/><path class="cls-3" d="M83.6,165.62a6.15,6.15,0,0,1-2.32,2.11,6.71,6.71,0,0,1-2.92.6,5.49,5.49,0,0,1-4.37-2,6.56,6.56,0,0,1-1.19-2.18,8.51,8.51,0,0,1-.41-2.69,8.33,8.33,0,0,1,.45-2.79,6.41,6.41,0,0,1,1.26-2.18A5.68,5.68,0,0,1,76,155.06a5.89,5.89,0,0,1,2.42-.5,5.45,5.45,0,0,1,2.27.46,5,5,0,0,1,1.78,1.35,6,6,0,0,1,1.14,2.15,9.58,9.58,0,0,1,.41,2.9v.7H74.5a5.18,5.18,0,0,0,.37,1.61,4.63,4.63,0,0,0,.82,1.34,3.6,3.6,0,0,0,1.18.91,3.23,3.23,0,0,0,1.49.34,4.3,4.3,0,0,0,2.17-.51,5.11,5.11,0,0,0,1.58-1.48Zm-1.69-5.35a4,4,0,0,0-1-2.69,3.33,3.33,0,0,0-2.57-1,3.59,3.59,0,0,0-2.65,1,4.46,4.46,0,0,0-1.21,2.69Z"/><path class="cls-3" d="M90.13,160.94l-4.24-6h2.57l3.13,4.7,3-4.7h2.39l-4.06,6L97.74,168h-2.6l-3.73-5.66L87.73,168H85.29Z"/><path class="cls-3" d="M99.58,154.9h2v1.9h0a6,6,0,0,1,1.88-1.65,4.73,4.73,0,0,1,2.36-.59,6,6,0,0,1,2.53.52,5.57,5.57,0,0,1,2,1.44,6.7,6.7,0,0,1,1.26,2.18,8.42,8.42,0,0,1,0,5.49,6.92,6.92,0,0,1-1.25,2.19,5.83,5.83,0,0,1-1.87,1.44,5.42,5.42,0,0,1-2.32.51,5,5,0,0,1-2.79-.77,4.78,4.78,0,0,1-1.75-1.89h0v8.71h-2Zm2,6.55a6.23,6.23,0,0,0,.29,1.92,4.48,4.48,0,0,0,.85,1.53,4,4,0,0,0,1.32,1,4.11,4.11,0,0,0,3.45,0,4,4,0,0,0,1.32-1,4.65,4.65,0,0,0,.85-1.53,6.5,6.5,0,0,0,0-3.84,4.7,4.7,0,0,0-.85-1.54,4.17,4.17,0,0,0-1.32-1,4.21,4.21,0,0,0-3.45,0,4.17,4.17,0,0,0-1.32,1,4.52,4.52,0,0,0-.85,1.54A6.23,6.23,0,0,0,101.54,161.45Z"/><path class="cls-3" d="M114.92,156.58a5.52,5.52,0,0,1,2.16-1.53,6.78,6.78,0,0,1,2.53-.49,4.7,4.7,0,0,1,3.78,1.37,6.38,6.38,0,0,1,1.16,4.17v5.63c0,.37,0,.76,0,1.16s.07.77.13,1.11h-1.89a5,5,0,0,1-.12-1c0-.36,0-.68,0-1h0a4.89,4.89,0,0,1-1.55,1.65,4.11,4.11,0,0,1-2.33.64,5.5,5.5,0,0,1-1.7-.25,4,4,0,0,1-1.39-.74,3.56,3.56,0,0,1-.94-1.22,3.71,3.71,0,0,1-.36-1.68,3.91,3.91,0,0,1,.76-2.54,4.54,4.54,0,0,1,1.88-1.38,8.48,8.48,0,0,1,2.42-.56c.86-.07,1.66-.11,2.38-.11h.75v-.39a2.86,2.86,0,0,0-.76-2.16,3.06,3.06,0,0,0-2.16-.72,5.34,5.34,0,0,0-1.88.34,4.61,4.61,0,0,0-1.62,1.08Zm5.7,5.12a6.47,6.47,0,0,0-3,.59,2.32,2.32,0,0,0-.37,3.68,3.24,3.24,0,0,0,1.86.52,3.38,3.38,0,0,0,1.5-.32,3.33,3.33,0,0,0,1.07-.86,3.8,3.8,0,0,0,.65-1.25,5.32,5.32,0,0,0,.25-1.52v-.84Z"/><path class="cls-3" d="M128.15,158c0-.59,0-1.15-.05-1.68s0-1,0-1.42h1.87c0,.35,0,.7,0,1.06s0,.72,0,1.09H130a3.72,3.72,0,0,1,.56-.92,4.43,4.43,0,0,1,.87-.8,4.65,4.65,0,0,1,1.14-.56,4.26,4.26,0,0,1,1.36-.21,4.73,4.73,0,0,1,2,.39,3.87,3.87,0,0,1,1.4,1.09,4.64,4.64,0,0,1,.82,1.7,8.22,8.22,0,0,1,.26,2.17V168h-2v-7.87a4.49,4.49,0,0,0-.66-2.6,2.27,2.27,0,0,0-2-.95,3.53,3.53,0,0,0-1.65.36,3,3,0,0,0-1.13,1,4.67,4.67,0,0,0-.66,1.59,9.29,9.29,0,0,0-.21,2.05V168h-2Z"/><path class="cls-3" d="M142.42,164.56a5,5,0,0,0,1.27,1.28,3,3,0,0,0,1.75.48,4.2,4.2,0,0,0,.92-.11,2.66,2.66,0,0,0,.84-.37,1.93,1.93,0,0,0,.61-.63,1.73,1.73,0,0,0,.23-.91,1.59,1.59,0,0,0-.22-.86,1.85,1.85,0,0,0-.57-.58,3.12,3.12,0,0,0-.8-.38l-.93-.25q-.84-.19-1.59-.45a4.47,4.47,0,0,1-1.33-.66,3,3,0,0,1-.9-1,3.69,3.69,0,0,1,1-4.54,4.72,4.72,0,0,1,1.41-.73,5.18,5.18,0,0,1,1.62-.25,5,5,0,0,1,2.33.56,3.82,3.82,0,0,1,1.67,1.82l-1.63,1.2a3.41,3.41,0,0,0-1-1.13,2.53,2.53,0,0,0-1.5-.43,2.94,2.94,0,0,0-.82.11,2.36,2.36,0,0,0-.74.33,1.77,1.77,0,0,0-.54.58,1.44,1.44,0,0,0-.22.8,1.11,1.11,0,0,0,.24.71,2.09,2.09,0,0,0,.66.52,4.94,4.94,0,0,0,.95.39c.37.11.74.2,1.13.28a11.07,11.07,0,0,1,1.48.43,4.21,4.21,0,0,1,1.24.72,3.13,3.13,0,0,1,.83,1.12,4.7,4.7,0,0,1-.1,3.55,3.63,3.63,0,0,1-1.07,1.28,4.66,4.66,0,0,1-1.51.71,6.73,6.73,0,0,1-1.73.22,6.14,6.14,0,0,1-2.61-.51,5,5,0,0,1-2-1.92Z"/><path class="cls-3" d="M152.62,149.77a1.64,1.64,0,0,1,.42-1.12,1.28,1.28,0,0,1,1-.48,1.31,1.31,0,0,1,1,.48,1.79,1.79,0,0,1,0,2.27,1.32,1.32,0,0,1-1,.45,1.34,1.34,0,0,1-1-.45A1.69,1.69,0,0,1,152.62,149.77Zm.45,5.13h2V168h-2Z"/><path class="cls-3" d="M158.27,161.45a8,8,0,0,1,.47-2.8,6.58,6.58,0,0,1,1.32-2.17,5.7,5.7,0,0,1,2-1.42,6.33,6.33,0,0,1,2.52-.5,6.4,6.4,0,0,1,2.52.5,5.89,5.89,0,0,1,2,1.42,6.73,6.73,0,0,1,1.31,2.17,8.41,8.41,0,0,1,0,5.6,6.84,6.84,0,0,1-1.31,2.17,5.87,5.87,0,0,1-2,1.41,6.23,6.23,0,0,1-2.52.5,6.16,6.16,0,0,1-2.52-.5,5.68,5.68,0,0,1-2-1.41,6.68,6.68,0,0,1-1.32-2.17A8.06,8.06,0,0,1,158.27,161.45Zm2.11,0a6.23,6.23,0,0,0,.29,1.92,4.65,4.65,0,0,0,.85,1.53,4,4,0,0,0,1.32,1,4.11,4.11,0,0,0,3.45,0,4.07,4.07,0,0,0,1.33-1,4.63,4.63,0,0,0,.84-1.53,6.5,6.5,0,0,0,0-3.84,4.68,4.68,0,0,0-.84-1.54,4.21,4.21,0,0,0-1.33-1,4.21,4.21,0,0,0-3.45,0,4.17,4.17,0,0,0-1.32,1,4.7,4.7,0,0,0-.85,1.54A6.23,6.23,0,0,0,160.38,161.45Z"/><path class="cls-3" d="M173.92,158q0-.88-.06-1.68c0-.52-.05-1-.05-1.42h1.87c0,.35,0,.7,0,1.06s0,.72,0,1.09h.05a3.49,3.49,0,0,1,.57-.92,3.93,3.93,0,0,1,.87-.8,4.42,4.42,0,0,1,1.13-.56,4.26,4.26,0,0,1,1.36-.21,4.73,4.73,0,0,1,2,.39,3.79,3.79,0,0,1,1.4,1.09,4.49,4.49,0,0,1,.82,1.7,8.21,8.21,0,0,1,.27,2.17V168h-2v-7.87a4.57,4.57,0,0,0-.65-2.6,2.3,2.3,0,0,0-2.05-.95,3.58,3.58,0,0,0-1.65.36,3,3,0,0,0-1.13,1,5.11,5.11,0,0,0-.66,1.59,9.29,9.29,0,0,0-.21,2.05V168h-2Z"/><line class="cls-4" x1="21.71" y1="136.41" x2="235.55" y2="136.41"/></g></g></svg>