<svg xmlns="http://www.w3.org/2000/svg" xmlns:xlink="http://www.w3.org/1999/xlink" viewBox="0 0 365.39 367.72"><defs><style>.cls-1,.cls-34{fill:none;}.cls-2{fill:#bcbec0;}.cls-2,.cls-35{fill-rule:evenodd;}.cls-3{fill:#e6e7e8;}.cls-4{fill:#fff;}.cls-5{opacity:0.06;}.cls-6{clip-path:url(#clip-path);}.cls-7{clip-path:url(#clip-path-2);}.cls-8{fill:#696766;}.cls-9{opacity:0.18;}.cls-10{clip-path:url(#clip-path-3);}.cls-11{clip-path:url(#clip-path-4);}.cls-12{opacity:0.75;}.cls-12,.cls-15{isolation:isolate;}.cls-13{clip-path:url(#clip-path-5);}.cls-14{clip-path:url(#clip-path-6);}.cls-15{opacity:0.1;}.cls-16{clip-path:url(#clip-path-7);}.cls-17{clip-path:url(#clip-path-8);}.cls-18{opacity:0.4;}.cls-19{clip-path:url(#clip-path-9);}.cls-20{clip-path:url(#clip-path-10);}.cls-21{clip-path:url(#clip-path-11);}.cls-22{clip-path:url(#clip-path-12);}.cls-23{clip-path:url(#clip-path-13);}.cls-24{clip-path:url(#clip-path-14);}.cls-25{clip-path:url(#clip-path-15);}.cls-26{clip-path:url(#clip-path-16);}.cls-27{clip-path:url(#clip-path-17);}.cls-28{clip-path:url(#clip-path-18);}.cls-29{clip-path:url(#clip-path-19);}.cls-30{clip-path:url(#clip-path-20);}.cls-31{fill:#ff8300;}.cls-32{fill:#ff8d1e;}.cls-33{fill:#8b8e8f;}.cls-34{stroke:#ff8300;stroke-width:0.83px;}.cls-35{fill:#53575a;}</style><clipPath id="clip-path"><rect class="cls-1" x="314.66" y="118.8" width="37.63" height="106.65"/></clipPath><clipPath id="clip-path-2"><rect class="cls-1" x="314.66" y="118.8" width="37.63" height="106.65"/></clipPath><clipPath id="clip-path-3"><rect class="cls-1" x="295.11" y="129.05" width="20.33" height="29.63"/></clipPath><clipPath id="clip-path-4"><rect class="cls-1" x="295.11" y="129.05" width="20.33" height="29.63"/></clipPath><clipPath id="clip-path-5"><rect class="cls-1" x="295.97" y="130.64" width="17.67" height="25.41"/></clipPath><clipPath id="clip-path-6"><rect class="cls-1" x="295.97" y="130.64" width="17.67" height="25.41"/></clipPath><clipPath id="clip-path-7"><rect class="cls-1" x="281.35" y="113.25" width="47.09" height="67.31"/></clipPath><clipPath id="clip-path-8"><rect class="cls-1" x="281.35" y="113.25" width="47.09" height="67.31"/></clipPath><clipPath id="clip-path-9"><rect class="cls-1" x="281.35" y="113.27" width="47.09" height="67.3"/></clipPath><clipPath id="clip-path-10"><rect class="cls-1" x="281.35" y="113.27" width="47.09" height="67.31"/></clipPath><clipPath id="clip-path-11"><rect class="cls-1" x="147.73" y="129.99" width="40.12" height="88"/></clipPath><clipPath id="clip-path-12"><rect class="cls-1" x="147.73" y="129.99" width="40.12" height="88"/></clipPath><clipPath id="clip-path-13"><rect class="cls-1" x="141.34" y="125.58" width="30.33" height="55.56"/></clipPath><clipPath id="clip-path-14"><rect class="cls-1" x="141.34" y="125.58" width="30.33" height="55.55"/></clipPath><clipPath id="clip-path-15"><rect class="cls-1" x="141.34" y="125.57" width="30.34" height="55.55"/></clipPath><clipPath id="clip-path-16"><rect class="cls-1" x="141.34" y="125.57" width="30.34" height="55.56"/></clipPath><clipPath id="clip-path-17"><rect class="cls-1" x="150.19" y="138.58" width="13.1" height="24.47"/></clipPath><clipPath id="clip-path-18"><rect class="cls-1" x="150.19" y="138.59" width="13.1" height="24.47"/></clipPath><clipPath id="clip-path-19"><rect class="cls-1" x="150.74" y="139.93" width="11.38" height="20.97"/></clipPath><clipPath id="clip-path-20"><rect class="cls-1" x="150.74" y="139.94" width="11.38" height="20.96"/></clipPath></defs><g id="Layer_2" data-name="Layer 2"><g id="Layer_1-2" data-name="Layer 1"><path class="cls-2" d="M318.54,250.92c6.11,4.31,9.52,7.13,12.1,10.7A36.55,36.55,0,0,1,336,273.8c.51,2,.88,3.91,1.18,5.83h1.92q.26-3,.34-7c.07-3.12,0-6.65-.08-10.17.39,4,.83,8,1.25,11.32.3,2.16.56,4,.83,5.82h.72c.2-2.16.39-4.3.57-6.34.31-2.94.51-5.67.71-8.39.13,2.55.27,5.14.51,7.39s.51,4.17.79,6.09c.24-1.91.5-3.78.74-6.86s.36-7.34.54-11.61c.13,2.49.32,5,.56,7.21s.46,4.25.77,6.76c.17,1.73.39,3.7.59,5.75h.77a66.89,66.89,0,0,0,1-7.85c.24-4.16.15-9.25.19-19.29s.35-25.06.47-40.32-.13-30.82-.34-46.58-.41-31.71-.51-44.28.12-21.75.51-28.56S351,81.48,351.67,77c-1.47,1.7-3,3.38-5.35,6.52s-5.71,7.7-9,12.25c4.48-7.92,8.88-15.83,13.35-23.75-5,7-10,14-14.3,20.09s-7.9,11.37-12,17.23-8.72,12.26-12.32,16.9-6.12,7.45-8.65,10.3c1.92-3.33,3.84-6.66,6.64-11s6.47-9.59,11.13-16.18,10.11-14.49,14.89-22,8.82-14.76,12.87-21.92c-5,7.28-10.06,14.56-14.71,21.27s-9,12.91-13.31,19.08c4.34-7.13,8.73-14.27,13.07-21.47s8.59-14.52,12.93-21.84c-3.15,4.22-6.31,8.42-9.81,13.59s-7.43,11.31-11,16.78-7,10.2-11.08,16-8.88,12.61-13.74,19.85-9.75,14.84-13.42,21.35a91,91,0,0,0-7.77,17,60.26,60.26,0,0,0-2.82,14.73,59.21,59.21,0,0,0,.43,13.53,43.24,43.24,0,0,0,3,10.19,60.28,60.28,0,0,0,4.3,8.42c1.73,2.91,3.88,6.06,6,9.21a116.73,116.73,0,0,1-9.51-12.26A47.84,47.84,0,0,1,274,186a55.59,55.59,0,0,1,2.39-15.27,88.75,88.75,0,0,1,6.87-16.16c2.92-5.47,6.41-10.92,12.4-19.89s14.46-21.41,21.74-32.22,13.43-20,18.38-27.54,8.72-13.56,12.53-19.55a29.33,29.33,0,0,0-5.07,5.38c-2.39,3.1-5.91,8.15-12.56,17.93s-16.46,24.29-23.7,34.74-11.85,17-16.59,24.23a249.17,249.17,0,0,0-12.59,21.52,64.74,64.74,0,0,0-5.44,14.91,53.87,53.87,0,0,0-1.48,12.69,42.66,42.66,0,0,0,1.93,12.1,77.84,77.84,0,0,0,4.6,10.81c-1.22-2.16-2.45-4.33-3.67-6.55a27.48,27.48,0,0,1-3.3-8.51,51.61,51.61,0,0,1-.61-14.58A57.74,57.74,0,0,1,274,164a151.36,151.36,0,0,1,9.42-18.54c4.06-7,9-14.94,15.19-24.11s13.58-19.54,20.92-30.18S334,69.71,338.23,63a86.59,86.59,0,0,0,6.54-11.78C335.67,64,326.56,76.76,316.7,90.64c-9.37,13.23-19.37,27.53-27.28,39.67l-1.72,2.57c-7.8,12-13.28,21.63-16.6,29.3A58.1,58.1,0,0,0,266,181.41a41.37,41.37,0,0,0,1.77,16.72,62.2,62.2,0,0,0,10.09,18.57,104.62,104.62,0,0,0,18.38,18.09C303.73,240.74,312.49,246.56,318.54,250.92Z"/><path class="cls-2" d="M54.1,84.75c.23,4.31.44,8.62.68,19.12s.52,27.21.28,45-1,36.75-2,51.24-2.16,24.59-3.33,34.68c.26-11.68.53-23.34,1.09-36s1.42-26.26,1.82-39.91.28-27.33.43-39.69.57-23.41,1-34.46"/><path class="cls-2" d="M48,226.74c.23-2.1.43-4.18.73-9.4s.64-13.59.93-21.56.43-15.58.62-27.19.36-27.16.68-40.16.77-23.36,1.2-33.75c-.9,5.28-1.79,10.56-2.85,16.56s-2.17,12.61-3.53,18.37-2.84,10.55-4.13,15.5a139.4,139.4,0,0,0-3,14.41,74.2,74.2,0,0,0-.75,11.84,105.13,105.13,0,0,0,1.2,14.28c.89,6.06,2.36,13.83,3.83,21.6-1.28-4.51-2.59-9-3.66-14.21a144.8,144.8,0,0,1-2.43-15.95A63.09,63.09,0,0,1,37,163.21a179.35,179.35,0,0,1,3.57-18.37c1.8-7.61,4.2-17,5.8-24.09s2.44-12.14,2.87-15.56A52.91,52.91,0,0,0,49.68,98c-1.1,6.21-2.22,12.4-4.24,21.41s-4.94,20.86-7,29.65-3.13,14.53-3.36,20.48a92.27,92.27,0,0,0,1.24,17.29,134.85,134.85,0,0,0,3,13.91c1.2,4.61,2.66,9.75,3.82,13.84s2,7.18,2.77,10.26c-.3-4.63-.64-9.23-.88-14.2s-.39-10.28-.74-15.78-1-11.15-1.35-16a110,110,0,0,1-.49-12.75,90.13,90.13,0,0,1,.9-10.22c.38-2.74.76-4.55,1.12-6.36,0,7.48.07,15,.19,21s.3,10.74.62,17.31.71,15,1.11,23.55c.16-10.87.32-21.75.42-30.52s.19-15.46.08-22.38-.41-14.08-.7-21.24c-1.73,6.45-3.46,12.86-4.47,18.69a76.44,76.44,0,0,0-1,17.93c.33,6.92,1.27,15.58,2.25,24.21-1-6.88-2-13.76-2.54-19.47a87,87,0,0,1-.24-14.82,94,94,0,0,1,2.55-15.35c1.49-6.47,3.76-15,6-23.54-.27,12.29-.53,24.55-.66,36.69S48,185.74,48,196.56s0,20.5,0,30.18"/><polygon class="cls-2" points="347.62 264.44 352.91 225.49 355.59 81.07 347.62 94.5 347.62 264.44"/><path class="cls-2" d="M337.32,88.49v176c-1.17-4.2-2.34-8.41-2.85-22.52s-.44-38.19,0-62.39,1-48.51,1.57-63.71.93-21.3,1.32-27.41"/><path class="cls-2" d="M353.08,268.82c.73-8.81,1.51-17.62,1.9-29.28s.55-26.17,1.12-53.54,1.64-67.51,2.7-107.71c-.7,7.34-1.42,14.69-2.12,26.49s-1.38,28.15-2.19,52.86-1.78,57.86-2,77.82.19,26.63.63,33.36"/><path class="cls-3" d="M346,216.11s.43,10.92-2.84,14.29c0,0-5.79,7.68-8.11,6.41a9.41,9.41,0,0,1-2-2.79l7.38-14.84Z"/><path class="cls-3" d="M342.72,124.93s.83-12.52-5.47-14.7c0,0-2.71.06-3.49,2.17l.47,4.17,7.52,9.5Z"/><path class="cls-4" d="M323.08,240.45s16.12-3.65,26.61-33c0,0,8.5-24.09,1.59-57.56,0,0-7.35-32.48-19.55-38.86,0,0-9-4.73-15.48,2.21,0,0-7.62,10.76-9.66,14.4,0,0-17.55,23.32-21.42,35,0,0-3.85,8.84-4,16.76,0,0-3.78,32.38,23.47,55.1,0,0,9,8.31,18.47,5.93"/><g class="cls-5"><g class="cls-6"><g class="cls-7"><path class="cls-8" d="M340.43,220.08s26.43-32.86.37-95.88c0,0-5.12-12.18-11.24,0,0,0-21,26.54-13.14,65.21,0,0,4.22,24.33,9.25,31.26,0,0,5.51,11.06,14.76-.63"/></g></g></g><g class="cls-9"><g class="cls-10"><g class="cls-11"><path class="cls-8" d="M300.15,140.76c4.85-8,11.07-13.09,13.9-11.38s1.19,9.59-3.66,17.59-11.07,13.09-13.9,11.38-1.19-9.59,3.66-17.59"/></g></g></g><g class="cls-12"><g class="cls-13"><g class="cls-14"><path class="cls-3" d="M301,140.91c4.4-6.88,9.67-11.38,11.77-10s.23,8-4.17,14.9-9.68,11.37-11.78,10-.23-8,4.18-14.9"/></g></g></g><path class="cls-4" d="M317.32,114.28a2.16,2.16,0,0,1,1.08.29c9.13,5.06,9.71,22,9.66,27a15.55,15.55,0,0,1-.34,3.2c-4.48,18.89-22.59,29.11-22.79,29.22-6.91,4.14-12.61,6.23-17,6.23s-6-2.24-6.22-2.64c-.48-9.9,8.69-25.16,8.77-25.29,4.48-6.94,19.89-29.69,24.5-36.49a2.91,2.91,0,0,1,2.32-1.51m0-.38a3.27,3.27,0,0,0-2.62,1.67c-4.91,7.25-20.05,29.59-24.5,36.49,0,0-9.38,15.46-8.83,25.6,0,0,1.41,2.92,6.58,2.92,3.61,0,9.07-1.43,17.16-6.28,0,0,18.39-10.18,22.95-29.45a15.1,15.1,0,0,0,.37-3.27c0-5.56-.62-22.21-9.87-27.33a2.36,2.36,0,0,0-1.24-.35"/><g class="cls-15"><g class="cls-16"><g class="cls-17"><path class="cls-8" d="M328.39,143.38s1.51-26-12.13-30.12c0,0-20.71,30.51-26.06,38.79,0,0-9.38,15.46-8.83,25.6,0,0,4.09,8.42,23.75-3.36,0,0,19.31-10.69,23.27-30.91"/></g></g></g><g class="cls-18"><g class="cls-19"><g class="cls-20"><path class="cls-4" d="M316.41,113.7c12.93,4.22,11.63,29.41,11.61,29.61-3.88,19.81-22.89,30.55-23.09,30.66-6.91,4.13-12.61,6.23-17,6.23s-6-2.24-6.22-2.65c-.48-9.89,8.69-25.15,8.77-25.28,5.05-7.82,24-35.76,25.91-38.57m-.15-.43s-20.71,30.51-26.07,38.8c0,0-9.37,15.45-8.82,25.59,0,0,1.41,2.92,6.58,2.92,3.61,0,9.07-1.43,17.16-6.28,0,0,19.32-10.69,23.28-30.91,0,0,1.51-26-12.13-30.12"/></g></g></g><path class="cls-2" d="M191,92.33V261.06c-1.17-4-2.34-8.06-2.85-21.58s-.44-36.61,0-59.8,1-46.49,1.57-61.06.92-20.44,1.32-26.29"/><path class="cls-2" d="M183.78,269.22c.73-8.45,1.5-16.88,1.89-28.07s.55-25.08,1.13-51.32,1.64-64.7,2.7-103.24c-.7,7-1.42,14.08-2.12,25.39s-1.38,27-2.19,50.66-1.79,55.46-2,74.58.19,25.55.63,32"/><path class="cls-2" d="M145.45,132.17c-5.29,11-9.06,19.75-11.4,26.83a76.41,76.41,0,0,0-3.84,17.9,58.43,58.43,0,0,0,.55,15.87,75.08,75.08,0,0,0,5.7,18,97.36,97.36,0,0,0,10.91,18c4.5,6,9.79,11.95,13.45,16.35s5.73,7.21,7.24,10.72A46.53,46.53,0,0,1,171,267.68c.55,4.09.7,8,.88,11.95.25-1.57.51-3.16.76-5.23s.4-4.66.55-7.64.22-6.27.3-9.6c.1,3.79.25,7.56.4,10.76s.32,5.75.51,8.3c.3-2.94.59-5.92.85-8.69s.51-5.33.72-7.88c0,2.41,0,4.87.07,7s.19,4,.29,5.77c.22-1.79.45-3.53.7-6.45s.47-6.9.73-10.93c0,2.35,0,4.7.11,6.84s.14,4,.25,6.4.19,5.23.26,8.1c.47-3,1-6.05,1.27-9.95s.4-8.73.77-18.22,1.06-23.65,1.63-38.05,1-29.11,1.36-44,.81-30,1.17-41.83.81-20.54,1.28-26.94,1.06-10.58,1.61-14.75c-1,1.55-2,3-3.59,5.89s-3.84,7-6.07,11.1c3.08-7.25,6.1-14.5,9.17-21.75-3.35,6.33-6.75,12.67-9.64,18.25s-5.33,10.34-8.11,15.65-5.88,11.15-8.3,15.35-4.09,6.73-5.77,9.28c1.31-3,2.63-6.09,4.52-10s4.38-8.72,7.52-14.71,6.84-13.18,10.09-20,6-13.48,8.81-20c-3.4,6.62-6.8,13.25-9.94,19.34s-6.07,11.74-9,17.34c3-6.51,5.94-13,8.91-19.62s5.88-13.28,8.84-20c-2.12,3.81-4.24,7.64-6.61,12.33s-5,10.3-7.49,15.27-4.72,9.28-7.5,14.57-6,11.45-9.27,18-6.61,13.52-9.14,19.48A103.88,103.88,0,0,0,139.47,164,90.1,90.1,0,0,0,137,190.58a58.18,58.18,0,0,0,1.53,9.78,72.25,72.25,0,0,0,2.42,8.16c1,2.84,2.22,5.92,3.46,9a126.6,126.6,0,0,1-5.56-12.05,55.77,55.77,0,0,1-3-11.56,65.23,65.23,0,0,1-.85-12.37,77.66,77.66,0,0,1,2-14.28,103.73,103.73,0,0,1,4.87-14.92c2-5,4.37-10,8.43-18.15s9.79-19.48,14.72-29.33,9.09-18.18,12.46-25.08S183.39,67.41,186,62a24.74,24.74,0,0,0-3.35,4.83c-1.62,2.81-4,7.39-8.48,16.29s-11.14,22.1-16,31.6-8,15.41-11.22,22-6.47,14-8.62,19.69a79.84,79.84,0,0,0-3.9,13.81A74.44,74.44,0,0,0,133,182.11a59.35,59.35,0,0,0,.81,11.52,94.12,94.12,0,0,0,2.52,10.43c-.7-2.1-1.38-4.2-2.08-6.37a36.67,36.67,0,0,1-1.79-8.2,73.63,73.63,0,0,1,.11-13.8,74.73,74.73,0,0,1,3.18-14.92,170.67,170.67,0,0,1,6.54-17c2.78-6.4,6.14-13.66,10.34-22s9.17-17.76,14.14-27.43,9.83-19.51,12.68-25.61A99.27,99.27,0,0,0,184,57.9c-6.14,11.57-12.28,23.16-18.92,35.78-6.33,12-13.08,25-18.45,36.08"/><path class="cls-3" d="M181.93,213.72s.48,9-3.23,11.8c0,0-6.59,6.34-9.23,5.29a8.65,8.65,0,0,1-2.25-2.31l8.41-12.24Z"/><path class="cls-3" d="M179.66,135.2s1-10.33-6.22-12.13c0,0-3.07,0-4,1.79l.52,3.45,8.55,7.84Z"/><path class="cls-4" d="M168.22,230.57s10.38-3,17.13-27.22c0,0,5.48-19.89,1-47.51,0,0-4.74-26.82-12.6-32.08,0,0-5.77-3.91-10,1.84,0,0-4.9,8.87-6.22,11.88,0,0-11.3,19.26-13.8,28.88a52.91,52.91,0,0,0-2.59,13.83s-2.45,26.72,15.12,45.48c0,0,5.8,6.86,11.9,4.9"/><g class="cls-5"><g class="cls-21"><g class="cls-22"><path class="cls-8" d="M175,213.49s28.35-27.34.81-79.1c0,0-5.41-10-12,.14,0,0-22.51,22.08-14.29,53.92,0,0,4.39,20,9.73,25.7,0,0,5.82,9.06,15.74-.66"/></g></g></g><g class="cls-15"><g class="cls-23"><g class="cls-24"><path class="cls-8" d="M171.64,150.44s1-21.48-7.82-24.86c0,0-13.34,25.2-16.78,32,0,0-6,12.77-5.68,21.13,0,0,2.63,6.94,15.29-2.78a41,41,0,0,0,15-25.52"/></g></g></g><g class="cls-18"><g class="cls-25"><g class="cls-26"><path class="cls-4" d="M164,125.92c8.27,3.55,7.44,24.29,7.42,24.48a40.92,40.92,0,0,1-14.89,25.34c-4.43,3.4-8.1,5.13-10.9,5.13a4.07,4.07,0,0,1-4-2.19c-.32-8.2,5.6-20.82,5.65-21,3.25-6.43,15.39-29.35,16.7-31.81m-.12-.35s-13.35,25.19-16.79,32c0,0-6,12.77-5.68,21.12a4.31,4.31,0,0,0,4.24,2.41c2.33,0,5.84-1.18,11.07-5.19a40.78,40.78,0,0,0,15-25.51s1-21.47-7.82-24.86"/></g></g></g><g class="cls-9"><g class="cls-27"><g class="cls-28"><path class="cls-8" d="M153,149.17c3-6.7,7.06-11.38,9.12-10.47s1.3,7.08-1.68,13.78-7.06,11.38-9.11,10.46S150,155.86,153,149.17"/></g></g></g><g class="cls-12"><g class="cls-29"><g class="cls-30"><path class="cls-3" d="M153.65,149.09c2.74-5.74,6.21-9.8,7.74-9.07s.55,6-2.19,11.73-6.21,9.8-7.74,9.07-.55-6,2.19-11.73"/></g></g></g><path class="cls-4" d="M164.55,126.42a1.25,1.25,0,0,1,.71.25c5.91,4.37,6.19,18.45,6.13,22.67a12.82,12.82,0,0,1-.18,1.95,41,41,0,0,1-14.74,24.44c-4.44,3.4-8.1,5.13-10.91,5.13a4.06,4.06,0,0,1-4-2.19c-.33-8.21,5.6-20.83,5.65-20.95,2.87-5.69,12.74-24.37,15.7-30,.48-.86,1.05-1.34,1.61-1.34m0-.27c-.66,0-1.32.52-1.83,1.49-3.25,6.15-12.85,24.32-15.69,30,0,0-6,12.77-5.68,21.12a4.31,4.31,0,0,0,4.24,2.41c2.32,0,5.84-1.18,11.06-5.19a40.85,40.85,0,0,0,14.84-24.6,14.15,14.15,0,0,0,.18-2c.05-4.06-.2-18.43-6.25-22.88a1.44,1.44,0,0,0-.87-.32"/><polyline class="cls-1" points="12.66 279.98 363.02 279.98 363.02 48.85 12.66 48.85"/><polygon class="cls-31" points="172.62 28.35 6.66 28.35 6.66 56.85 7.41 56.85 7.41 29.1 172.62 29.1 172.62 28.35"/><polygon class="cls-31" points="200.7 28.35 200.7 29.1 364.64 29.1 364.64 56.85 365.39 56.85 365.39 28.35 200.7 28.35"/><path class="cls-32" d="M181.35,35.66A3.47,3.47,0,0,0,183,35a2.7,2.7,0,0,0,.9-1.35,7.86,7.86,0,0,0,.27-2.3v-22a4.82,4.82,0,0,0-.9-3.38,4.88,4.88,0,0,0-3.15-1h-.45V4.63h.81c.48,0,1.09-.09,1.84-.2a8.55,8.55,0,0,0,2.27-.65,7.23,7.23,0,0,0,2.12-1.4A5.57,5.57,0,0,0,188.19,0l.05.09V0H189V30.6c0,.12,0,.25,0,.38a3,3,0,0,1,0,.43,8.51,8.51,0,0,0,.2,2.07,2.85,2.85,0,0,0,.65,1.3,2.73,2.73,0,0,0,1.22.75,7.49,7.49,0,0,0,1.93.29h1.4v.31H178.79v-.31A16.7,16.7,0,0,0,181.35,35.66Z"/><path class="cls-33" d="M230.5,338.44h-2.19v4.47a2.61,2.61,0,0,0,.08.69,1,1,0,0,0,.23.42.87.87,0,0,0,.35.2,1.52,1.52,0,0,0,.44,0,1.87,1.87,0,0,0,.57-.08,2.33,2.33,0,0,0,.54-.21l0,1a3.42,3.42,0,0,1-1.44.28,3,3,0,0,1-.64-.08,1.56,1.56,0,0,1-.6-.31,1.65,1.65,0,0,1-.46-.62,2.45,2.45,0,0,1-.18-1v-4.78h-1.6v-1h1.6v-2.14h1.07v2.14h2.19Z"/><path class="cls-33" d="M233.84,334.55a.69.69,0,0,1-.25.56.76.76,0,0,1-.53.22.8.8,0,0,1-.54-.22.76.76,0,0,1,0-1.11.8.8,0,0,1,.54-.22.76.76,0,0,1,.53.22A.68.68,0,0,1,233.84,334.55Zm-.25,10.5h-1.07v-7.58h1.07Z"/><path class="cls-33" d="M240.51,339.27a2.06,2.06,0,0,0-.65-.75,1.73,1.73,0,0,0-1-.27,2.67,2.67,0,0,0-.56.06,1.66,1.66,0,0,0-.51.21,1,1,0,0,0-.37.34,1,1,0,0,0-.14.52.86.86,0,0,0,.38.78,3.79,3.79,0,0,0,1.11.42l1.09.26a2.59,2.59,0,0,1,1.32.72,1.86,1.86,0,0,1,.53,1.35,2.25,2.25,0,0,1-.25,1.07,2.1,2.1,0,0,1-.67.72,2.83,2.83,0,0,1-.95.42,4.84,4.84,0,0,1-1.08.13,3.84,3.84,0,0,1-1.63-.34,3,3,0,0,1-1.29-1.14l.93-.63a2.48,2.48,0,0,0,.81.83,2.23,2.23,0,0,0,1.18.3,2.94,2.94,0,0,0,.65-.07A2,2,0,0,0,240,344a1.42,1.42,0,0,0,.41-.4,1.05,1.05,0,0,0,.15-.57.88.88,0,0,0-.42-.82,3.68,3.68,0,0,0-1-.39l-1-.25a4.54,4.54,0,0,1-.52-.16,2.29,2.29,0,0,1-1.2-.93,1.67,1.67,0,0,1-.22-.9,2.19,2.19,0,0,1,.23-1,2.06,2.06,0,0,1,.63-.71,3.09,3.09,0,0,1,.9-.42,4,4,0,0,1,1-.13,3.58,3.58,0,0,1,1.47.3,2.18,2.18,0,0,1,1.06,1.06Z"/><path class="cls-33" d="M247.72,339.27a2.06,2.06,0,0,0-.65-.75,1.74,1.74,0,0,0-1-.27,2.57,2.57,0,0,0-.55.06,1.66,1.66,0,0,0-.51.21,1,1,0,0,0-.37.34,1,1,0,0,0-.14.52.86.86,0,0,0,.38.78,3.68,3.68,0,0,0,1.11.42l1.09.26a2.59,2.59,0,0,1,1.32.72,1.86,1.86,0,0,1,.53,1.35,2.15,2.15,0,0,1-.26,1.07,2,2,0,0,1-.66.72,2.93,2.93,0,0,1-1,.42,4.91,4.91,0,0,1-1.08.13,3.84,3.84,0,0,1-1.63-.34,3,3,0,0,1-1.29-1.14l.92-.63a2.6,2.6,0,0,0,.82.83,2.23,2.23,0,0,0,1.18.3,2.94,2.94,0,0,0,.65-.07,2,2,0,0,0,.57-.22,1.42,1.42,0,0,0,.41-.4,1.05,1.05,0,0,0,.15-.57.88.88,0,0,0-.42-.82,3.68,3.68,0,0,0-1-.39l-1-.25a5.27,5.27,0,0,1-.53-.16,2.34,2.34,0,0,1-.64-.34,2.08,2.08,0,0,1-.55-.59,1.67,1.67,0,0,1-.22-.9,2.19,2.19,0,0,1,.23-1,2.06,2.06,0,0,1,.63-.71,3.09,3.09,0,0,1,.9-.42,4,4,0,0,1,1-.13,3.58,3.58,0,0,1,1.47.3,2.18,2.18,0,0,1,1.06,1.06Z"/><path class="cls-33" d="M256.4,345.05c0-.2,0-.41,0-.61s0-.4,0-.6h0a2.64,2.64,0,0,1-.45.56,2.52,2.52,0,0,1-.62.45,3.29,3.29,0,0,1-.72.29,3.18,3.18,0,0,1-2.91-.66,3.21,3.21,0,0,1-.69-2.2v-4.81H252v4.2a6.08,6.08,0,0,0,.09,1.11,2.11,2.11,0,0,0,.34.82,1.37,1.37,0,0,0,.63.5,2.38,2.38,0,0,0,1,.17l.46-.06a1.81,1.81,0,0,0,.78-.36A2.5,2.5,0,0,0,256,343a3.33,3.33,0,0,0,.32-1.62v-3.89h1.07v5.91q0,.31,0,.78c0,.31,0,.61.05.89Z"/><path class="cls-33" d="M261,341.55a3.18,3.18,0,0,0,.27,1.07,2.7,2.7,0,0,0,.6.87,2.93,2.93,0,0,0,.86.57,2.66,2.66,0,0,0,1,.21,2.76,2.76,0,0,0,1.49-.39,3,3,0,0,0,.94-.92l.83.68a3.89,3.89,0,0,1-1.5,1.23,4.15,4.15,0,0,1-1.76.38,4,4,0,0,1-1.56-.3,3.68,3.68,0,0,1-1.24-.84,4,4,0,0,1-.82-1.26,4.36,4.36,0,0,1,0-3.18,3.79,3.79,0,0,1,.81-1.26,3.63,3.63,0,0,1,1.21-.83,4,4,0,0,1,3.05,0,3.54,3.54,0,0,1,1.14.82,3.42,3.42,0,0,1,.7,1.2,4.2,4.2,0,0,1,.25,1.47v.48Zm5.15-.87a2.43,2.43,0,0,0-.65-1.76,2.39,2.39,0,0,0-1.81-.67,2.71,2.71,0,0,0-1,.2,3.24,3.24,0,0,0-.85.54,2.94,2.94,0,0,0-.58.78,2,2,0,0,0-.22.91Z"/><path class="cls-33" d="M213.34,359.55a3.18,3.18,0,0,0,.27,1.07,2.7,2.7,0,0,0,.6.87,2.93,2.93,0,0,0,.86.57,2.63,2.63,0,0,0,1.05.21,2.76,2.76,0,0,0,1.49-.39,3,3,0,0,0,.94-.92l.83.68a3.89,3.89,0,0,1-1.5,1.23,4.15,4.15,0,0,1-1.76.38,4,4,0,0,1-1.56-.3,3.68,3.68,0,0,1-1.24-.84,4,4,0,0,1-.82-1.26,4.17,4.17,0,0,1-.3-1.59,4.36,4.36,0,0,1,.29-1.59,4.13,4.13,0,0,1,.81-1.26,3.78,3.78,0,0,1,2.73-1.13,3.73,3.73,0,0,1,1.53.3,3.48,3.48,0,0,1,1.15.82,3.42,3.42,0,0,1,.7,1.2,4.44,4.44,0,0,1,.24,1.47v.48Zm5.15-.87a2.43,2.43,0,0,0-.65-1.76,2.39,2.39,0,0,0-1.81-.67,2.71,2.71,0,0,0-1,.2,3.08,3.08,0,0,0-.85.54,2.74,2.74,0,0,0-.58.78,2,2,0,0,0-.22.91Z"/><path class="cls-33" d="M223.88,359l-2.75-3.53h1.46l2.1,2.84,2-2.84H228L225.39,359l3.17,4.05h-1.45l-2.55-3.32-2.44,3.32h-1.36Z"/><path class="cls-33" d="M230.06,355.47h1.06v1.26h0a2.74,2.74,0,0,1,.61-.66,4.14,4.14,0,0,1,.75-.45,3.26,3.26,0,0,1,.8-.26,3.71,3.71,0,0,1,.79-.08,4.25,4.25,0,0,1,1.62.3,3.73,3.73,0,0,1,1.28.83,4,4,0,0,1,.83,1.26,4.36,4.36,0,0,1,0,3.18,3.89,3.89,0,0,1-.83,1.26,3.75,3.75,0,0,1-1.28.84,4.25,4.25,0,0,1-1.62.3,4.5,4.5,0,0,1-.79-.08,3.74,3.74,0,0,1-.8-.26,3.69,3.69,0,0,1-.75-.46,2.57,2.57,0,0,1-.61-.66h0v5.93h-1.06Zm6.91,3.79a3.29,3.29,0,0,0-.2-1.18,2.88,2.88,0,0,0-.57-1,2.78,2.78,0,0,0-.9-.64,3,3,0,0,0-1.19-.23,3.19,3.19,0,0,0-1.22.23,2.89,2.89,0,0,0-.95.64,2.74,2.74,0,0,0-.64,1,3.1,3.1,0,0,0-.22,1.18,3.06,3.06,0,0,0,.22,1.18,2.74,2.74,0,0,0,.64,1,2.89,2.89,0,0,0,.95.64,3,3,0,0,0,1.22.23,2.87,2.87,0,0,0,1.19-.23,2.78,2.78,0,0,0,.9-.64,2.88,2.88,0,0,0,.57-1A3.25,3.25,0,0,0,237,359.26Z"/><path class="cls-33" d="M245.14,358.4v-.19a1.73,1.73,0,0,0-1.95-2,3.36,3.36,0,0,0-2.31.89l-.65-.76a4.25,4.25,0,0,1,3.21-1.1,3.45,3.45,0,0,1,1.06.16,2.44,2.44,0,0,1,.88.49,2.38,2.38,0,0,1,.6.84,2.89,2.89,0,0,1,.23,1.2v3.38c0,.29,0,.6,0,.92a6,6,0,0,0,.09.78h-1a5,5,0,0,1-.07-.6q0-.31,0-.63h0a2.82,2.82,0,0,1-1.11,1.09,3.27,3.27,0,0,1-1.56.34,3.57,3.57,0,0,1-1-.14,2.41,2.41,0,0,1-.83-.42,2.07,2.07,0,0,1-.58-.7,2,2,0,0,1-.22-1,2.06,2.06,0,0,1,.48-1.45,2.9,2.9,0,0,1,1.19-.79,6,6,0,0,1,1.54-.32c.55-.05,1.05-.07,1.5-.07Zm-.55.88c-.27,0-.61,0-1,0a6.24,6.24,0,0,0-1.16.19,2.63,2.63,0,0,0-1,.48,1.1,1.1,0,0,0-.39.89,1.29,1.29,0,0,0,.15.64,1.24,1.24,0,0,0,.41.44,1.87,1.87,0,0,0,.58.24,2.73,2.73,0,0,0,.64.07,2.43,2.43,0,0,0,1-.19,1.93,1.93,0,0,0,.72-.53,2.16,2.16,0,0,0,.43-.77,3.31,3.31,0,0,0,.14-.95v-.55Z"/><path class="cls-33" d="M250,355.47c0,.21,0,.41,0,.61s0,.4,0,.61h0a2.46,2.46,0,0,1,.45-.57,3.51,3.51,0,0,1,.62-.45,3.74,3.74,0,0,1,.72-.29,3.26,3.26,0,0,1,2.91.67,3.16,3.16,0,0,1,.7,2.19v4.81h-1.07v-4.19a3.57,3.57,0,0,0-.44-1.94,1.78,1.78,0,0,0-1.62-.67l-.46.06a2.16,2.16,0,0,0-.78.36,2.6,2.6,0,0,0-.74.87,3.45,3.45,0,0,0-.32,1.62v3.89H249v-5.91q0-.31,0-.78c0-.31,0-.61,0-.89Z"/><path class="cls-33" d="M265.9,363.05h-1.06v-1.26h0a2.57,2.57,0,0,1-.61.66,3.69,3.69,0,0,1-.75.46,3.74,3.74,0,0,1-.8.26,4.41,4.41,0,0,1-.79.08,4.25,4.25,0,0,1-1.62-.3,3.71,3.71,0,0,1-1.27-.84,3.76,3.76,0,0,1-.84-1.26,4.36,4.36,0,0,1,0-3.18,3.87,3.87,0,0,1,.84-1.26,3.68,3.68,0,0,1,1.27-.83,4.25,4.25,0,0,1,1.62-.3,3.65,3.65,0,0,1,.79.08,3.26,3.26,0,0,1,.8.26,4.14,4.14,0,0,1,.75.45,2.74,2.74,0,0,1,.61.66h0v-5.92h1.06ZM259,359.26a3.48,3.48,0,0,0,.2,1.18,2.74,2.74,0,0,0,.58,1,2.64,2.64,0,0,0,.89.64,2.87,2.87,0,0,0,1.19.23,3,3,0,0,0,2.18-.87,2.86,2.86,0,0,0,.63-1,3.06,3.06,0,0,0,.22-1.18,3.1,3.1,0,0,0-.22-1.18,2.86,2.86,0,0,0-.63-1,3,3,0,0,0-1-.64,3.18,3.18,0,0,0-1.21-.23,3,3,0,0,0-1.19.23,2.64,2.64,0,0,0-.89.64,2.74,2.74,0,0,0-.58,1A3.52,3.52,0,0,0,259,359.26Z"/><path class="cls-33" d="M269.31,359.55a3.18,3.18,0,0,0,.27,1.07,2.7,2.7,0,0,0,.6.87,2.93,2.93,0,0,0,.86.57,2.63,2.63,0,0,0,1,.21,2.76,2.76,0,0,0,1.49-.39,3,3,0,0,0,.94-.92l.83.68a3.89,3.89,0,0,1-1.5,1.23,4.15,4.15,0,0,1-1.76.38,4,4,0,0,1-1.56-.3,3.68,3.68,0,0,1-1.24-.84,4,4,0,0,1-.82-1.26,4.36,4.36,0,0,1,0-3.18,3.92,3.92,0,0,1,.8-1.26,3.94,3.94,0,0,1,4.27-.83,3.54,3.54,0,0,1,1.14.82,3.42,3.42,0,0,1,.7,1.2,4.45,4.45,0,0,1,.25,1.47v.48Zm5.15-.87a2.43,2.43,0,0,0-.65-1.76,2.39,2.39,0,0,0-1.81-.67,2.71,2.71,0,0,0-1,.2,3.24,3.24,0,0,0-.85.54,2.74,2.74,0,0,0-.58.78,2,2,0,0,0-.22.91Z"/><path class="cls-33" d="M278,357.84q0-.51,0-1c0-.35,0-.8,0-1.35H279v1.41h0a2.13,2.13,0,0,1,.32-.59,2.46,2.46,0,0,1,.51-.51,2.49,2.49,0,0,1,1.6-.5,3.12,3.12,0,0,1,.79.09l-.21,1.06a1.66,1.66,0,0,0-.61-.08,2.16,2.16,0,0,0-1.06.23,2.52,2.52,0,0,0-.73.6,2.55,2.55,0,0,0-.56,1.6v4.27H278Z"/><polyline class="cls-34" points="207.06 346.87 169.66 346.87 169.66 251.85"/><path class="cls-31" d="M206.15,349.27a2.42,2.42,0,1,0-2.41-2.41,2.41,2.41,0,0,0,2.41,2.41"/><path class="cls-31" d="M286.47,349.27a2.42,2.42,0,1,1,2.42-2.41,2.41,2.41,0,0,1-2.42,2.41"/><line class="cls-34" x1="44.32" y1="321.07" x2="44.32" y2="250.05"/><path class="cls-31" d="M44.32,323.47a2.42,2.42,0,1,1,2.42-2.41,2.41,2.41,0,0,1-2.42,2.41"/><path class="cls-33" d="M2.63,332.81H3.7v5.92h0a3,3,0,0,1,.62-.66,4.44,4.44,0,0,1,.74-.45,3.33,3.33,0,0,1,.81-.26,3.56,3.56,0,0,1,.78-.08,4.26,4.26,0,0,1,1.63.3,3.68,3.68,0,0,1,1.27.83,3.87,3.87,0,0,1,.84,1.26,4.36,4.36,0,0,1,0,3.18,3.76,3.76,0,0,1-.84,1.26,3.71,3.71,0,0,1-1.27.84,4.32,4.32,0,0,1-2.41.22,3.83,3.83,0,0,1-.81-.26,3.92,3.92,0,0,1-.74-.46,2.79,2.79,0,0,1-.62-.66h0v1.26H2.63Zm6.92,8.45a3.52,3.52,0,0,0-.2-1.18,2.9,2.9,0,0,0-.58-1,2.78,2.78,0,0,0-.9-.64,3,3,0,0,0-1.19-.23,3.14,3.14,0,0,0-1.21.23,3,3,0,0,0-1,.64,2.86,2.86,0,0,0-.63,1,3.1,3.1,0,0,0-.23,1.18,3.06,3.06,0,0,0,.23,1.18,2.86,2.86,0,0,0,.63,1,3,3,0,0,0,1,.64,3,3,0,0,0,1.21.23A2.84,2.84,0,0,0,7.87,344a2.78,2.78,0,0,0,.9-.64,2.9,2.9,0,0,0,.58-1A3.48,3.48,0,0,0,9.55,341.26Z"/><path class="cls-33" d="M13,339.84q0-.51,0-1c0-.35,0-.8,0-1.35H14v1.41h0a2.13,2.13,0,0,1,.32-.59,2.46,2.46,0,0,1,.51-.51,2.49,2.49,0,0,1,1.6-.5,3.07,3.07,0,0,1,.79.09L17,338.43a1.63,1.63,0,0,0-.61-.08,2.18,2.18,0,0,0-1.06.23,2.52,2.52,0,0,0-.73.6,2.55,2.55,0,0,0-.56,1.6v4.27H13Z"/><path class="cls-33" d="M19,341.55a3,3,0,0,0,.28,1.07,2.7,2.7,0,0,0,.6.87,2.76,2.76,0,0,0,.85.57,2.67,2.67,0,0,0,1.06.21,2.75,2.75,0,0,0,1.48-.39,3.1,3.1,0,0,0,.95-.92l.82.68a3.89,3.89,0,0,1-1.5,1.23,4.14,4.14,0,0,1-1.75.38,4,4,0,0,1-1.57-.3,3.68,3.68,0,0,1-1.24-.84,4,4,0,0,1-.81-1.26,4.43,4.43,0,0,1,0-3.18,3.79,3.79,0,0,1,.81-1.26,3.63,3.63,0,0,1,1.21-.83,4,4,0,0,1,3,0,3.54,3.54,0,0,1,1.14.82,3.6,3.6,0,0,1,.71,1.2,4.44,4.44,0,0,1,.24,1.47v.48Zm5.15-.87a2.28,2.28,0,0,0-2.46-2.43,2.71,2.71,0,0,0-1,.2,3.24,3.24,0,0,0-.85.54,2.94,2.94,0,0,0-.58.78,2.1,2.1,0,0,0-.22.91Z"/><path class="cls-33" d="M32.46,340.4v-.19a1.73,1.73,0,0,0-1.95-2,3.34,3.34,0,0,0-2.31.89l-.65-.76a4.24,4.24,0,0,1,3.2-1.1,3.47,3.47,0,0,1,1.07.16,2.44,2.44,0,0,1,.88.49,2.38,2.38,0,0,1,.6.84,2.89,2.89,0,0,1,.23,1.2v3.38c0,.29,0,.6,0,.92s0,.58.08.78h-1a5,5,0,0,1-.07-.6q0-.31,0-.63h0a2.82,2.82,0,0,1-1.11,1.09,3.27,3.27,0,0,1-1.56.34,3.57,3.57,0,0,1-1-.14,2.41,2.41,0,0,1-.83-.42,2.07,2.07,0,0,1-.58-.7,2,2,0,0,1-.22-1,2.06,2.06,0,0,1,.48-1.45,2.83,2.83,0,0,1,1.19-.79,5.94,5.94,0,0,1,1.54-.32c.55-.05,1-.07,1.5-.07Zm-.55.88c-.27,0-.61,0-1,0a6.24,6.24,0,0,0-1.16.19,2.63,2.63,0,0,0-1,.48,1.1,1.1,0,0,0-.4.89,1.19,1.19,0,0,0,.16.64,1.24,1.24,0,0,0,.41.44,1.87,1.87,0,0,0,.58.24,2.73,2.73,0,0,0,.64.07,2.46,2.46,0,0,0,1-.19,2.11,2.11,0,0,0,.72-.53,2.16,2.16,0,0,0,.43-.77,3.31,3.31,0,0,0,.14-.95v-.55Z"/><path class="cls-33" d="M40.35,339.27a2.16,2.16,0,0,0-.65-.75,1.74,1.74,0,0,0-1-.27,2.74,2.74,0,0,0-.56.06,1.66,1.66,0,0,0-.51.21,1.07,1.07,0,0,0-.36.34.88.88,0,0,0-.14.52.85.85,0,0,0,.37.78,3.76,3.76,0,0,0,1.12.42l1.08.26a2.59,2.59,0,0,1,1.32.72,1.86,1.86,0,0,1,.53,1.35,2.14,2.14,0,0,1-.25,1.07,2.18,2.18,0,0,1-.66.72,3,3,0,0,1-.95.42,5,5,0,0,1-1.09.13,3.9,3.9,0,0,1-1.63-.34,3,3,0,0,1-1.28-1.14l.92-.63a2.6,2.6,0,0,0,.82.83,2.21,2.21,0,0,0,1.17.3,2.88,2.88,0,0,0,.65-.07,2,2,0,0,0,.58-.22,1.39,1.39,0,0,0,.4-.4,1.05,1.05,0,0,0,.15-.57.88.88,0,0,0-.42-.82,3.68,3.68,0,0,0-1-.39l-1-.25a4.59,4.59,0,0,1-.53-.16,2.39,2.39,0,0,1-.65-.34,2,2,0,0,1-.54-.59,1.67,1.67,0,0,1-.23-.9,2.08,2.08,0,0,1,.24-1,1.88,1.88,0,0,1,.63-.71,2.87,2.87,0,0,1,.9-.42,3.93,3.93,0,0,1,1-.13,3.66,3.66,0,0,1,1.48.3,2.21,2.21,0,0,1,1,1.06Z"/><path class="cls-33" d="M47.47,338.44H45.29v4.47a2.25,2.25,0,0,0,.08.69,1,1,0,0,0,.22.42.94.94,0,0,0,.35.2,1.64,1.64,0,0,0,.45,0,2,2,0,0,0,.57-.08,2.25,2.25,0,0,0,.53-.21l0,1a3.49,3.49,0,0,1-1.44.28,2.87,2.87,0,0,1-.64-.08,1.61,1.61,0,0,1-.61-.31,1.63,1.63,0,0,1-.45-.62,2.45,2.45,0,0,1-.18-1v-4.78H42.61v-1h1.61v-2.14h1.07v2.14h2.18Z"/><path class="cls-33" d="M58.94,340.4v-.19a1.72,1.72,0,0,0-1.94-2,3.37,3.37,0,0,0-2.32.89l-.65-.76a4.28,4.28,0,0,1,3.21-1.1,3.4,3.4,0,0,1,1.06.16,2.26,2.26,0,0,1,1.48,1.33A2.73,2.73,0,0,1,60,340v3.38c0,.29,0,.6,0,.92s.06.58.09.78h-1c0-.18-.05-.38-.07-.6s0-.42,0-.63h0a2.86,2.86,0,0,1-1.1,1.09,3.28,3.28,0,0,1-1.57.34,3.5,3.5,0,0,1-1-.14,2.41,2.41,0,0,1-.83-.42,2,2,0,0,1-.81-1.66,2.06,2.06,0,0,1,.48-1.45,2.93,2.93,0,0,1,1.2-.79,5.85,5.85,0,0,1,1.54-.32c.54-.05,1-.07,1.5-.07Zm-.55.88c-.27,0-.61,0-1,0a6.35,6.35,0,0,0-1.17.19,2.58,2.58,0,0,0-1,.48,1.08,1.08,0,0,0-.4.89,1.29,1.29,0,0,0,.15.64,1.26,1.26,0,0,0,.42.44,1.81,1.81,0,0,0,.57.24,2.79,2.79,0,0,0,.64.07,2.4,2.4,0,0,0,1-.19,2.05,2.05,0,0,0,.73-.53,2.14,2.14,0,0,0,.42-.77,3,3,0,0,0,.14-.95v-.55Z"/><path class="cls-33" d="M66.35,338.44h-1.8v6.61H63.48v-6.61H61.87v-1h1.61V335.4a2.79,2.79,0,0,1,.7-2.15,2.58,2.58,0,0,1,1.84-.64,3.55,3.55,0,0,1,.46,0l.47.08-.2,1a2.57,2.57,0,0,0-.4-.08,2.09,2.09,0,0,0-.43,0,1.49,1.49,0,0,0-.71.15,1,1,0,0,0-.42.41,1.72,1.72,0,0,0-.19.63,4.55,4.55,0,0,0,0,.76v1.94h1.8Z"/><path class="cls-33" d="M71.85,338.44H69.67v4.47a2.25,2.25,0,0,0,.08.69A1,1,0,0,0,70,344a.94.94,0,0,0,.35.2,1.64,1.64,0,0,0,.45,0,2,2,0,0,0,.57-.08,2.25,2.25,0,0,0,.53-.21l0,1a3.49,3.49,0,0,1-1.44.28,2.87,2.87,0,0,1-.64-.08,1.61,1.61,0,0,1-.61-.31,1.63,1.63,0,0,1-.45-.62,2.45,2.45,0,0,1-.18-1v-4.78H67v-1H68.6v-2.14h1.07v2.14h2.18Z"/><path class="cls-33" d="M74.38,341.55a3,3,0,0,0,.28,1.07,2.7,2.7,0,0,0,.6.87,2.76,2.76,0,0,0,.85.57,2.67,2.67,0,0,0,1.06.21,2.75,2.75,0,0,0,1.48-.39,3.1,3.1,0,0,0,.95-.92l.82.68a3.89,3.89,0,0,1-1.5,1.23,4.14,4.14,0,0,1-1.75.38,4.07,4.07,0,0,1-1.57-.3,3.68,3.68,0,0,1-1.24-.84,4,4,0,0,1-.81-1.26,4.43,4.43,0,0,1,0-3.18,3.79,3.79,0,0,1,.81-1.26,3.63,3.63,0,0,1,1.21-.83,4,4,0,0,1,3,0,3.54,3.54,0,0,1,1.14.82,3.6,3.6,0,0,1,.71,1.2,4.44,4.44,0,0,1,.24,1.47v.48Zm5.15-.87a2.28,2.28,0,0,0-2.46-2.43,2.62,2.62,0,0,0-1,.2,2.94,2.94,0,0,0-.85.54,2.77,2.77,0,0,0-.59.78,2.1,2.1,0,0,0-.22.91Z"/><path class="cls-33" d="M83.08,339.84c0-.34,0-.68,0-1s0-.8,0-1.35h1v1.41h0a2.42,2.42,0,0,1,.32-.59,2.29,2.29,0,0,1,.52-.51,2.66,2.66,0,0,1,.69-.37,2.84,2.84,0,0,1,.9-.13,3.07,3.07,0,0,1,.79.09l-.21,1.06a1.63,1.63,0,0,0-.61-.08,2.14,2.14,0,0,0-1,.23,2.28,2.28,0,0,0-.73.6,2.26,2.26,0,0,0-.43.79,2.65,2.65,0,0,0-.14.81v4.27H83.08Z"/><path class="cls-33" d="M.08,357.16c0-.29,0-.57,0-.85L0,355.47H1.15v1.15h0a2.48,2.48,0,0,1,1.08-1,3,3,0,0,1,1.37-.34,3.83,3.83,0,0,1,.65.06,2.13,2.13,0,0,1,.68.24,2.18,2.18,0,0,1,.6.47,2.58,2.58,0,0,1,.48.8,2.5,2.5,0,0,1,1-1.15,2.83,2.83,0,0,1,1.47-.42,2.73,2.73,0,0,1,2.15.77,3.12,3.12,0,0,1,.7,2.19v4.81H10.32v-4.42a3.22,3.22,0,0,0-.41-1.77,1.66,1.66,0,0,0-1.5-.61,2.07,2.07,0,0,0-1,.23,1.87,1.87,0,0,0-.65.63,2.78,2.78,0,0,0-.37.88,4.93,4.93,0,0,0-.11,1v4H5.2v-4.42a3.22,3.22,0,0,0-.41-1.77,1.66,1.66,0,0,0-1.5-.61l-.45.06a1.87,1.87,0,0,0-.72.36,2.6,2.6,0,0,0-.67.87,3.6,3.6,0,0,0-.3,1.62v3.89H.08Z"/><path class="cls-33" d="M19.07,358.4v-.19a1.73,1.73,0,0,0-1.95-2,3.36,3.36,0,0,0-2.31.89l-.65-.76a4.25,4.25,0,0,1,3.21-1.1,3.45,3.45,0,0,1,1.06.16,2.44,2.44,0,0,1,.88.49,2.38,2.38,0,0,1,.6.84,2.89,2.89,0,0,1,.23,1.2v3.38c0,.29,0,.6,0,.92a6,6,0,0,0,.09.78h-1a5,5,0,0,1-.07-.6q0-.31,0-.63h0A2.82,2.82,0,0,1,18,362.91a3.27,3.27,0,0,1-1.56.34,3.57,3.57,0,0,1-1-.14,2.41,2.41,0,0,1-.83-.42A2.07,2.07,0,0,1,14,362a2,2,0,0,1-.22-1,2.06,2.06,0,0,1,.48-1.45,2.8,2.8,0,0,1,1.2-.79,5.86,5.86,0,0,1,1.53-.32c.55-.05,1-.07,1.5-.07Zm-.55.88c-.27,0-.61,0-1,0a6.24,6.24,0,0,0-1.16.19,2.71,2.71,0,0,0-1,.48,1.1,1.1,0,0,0-.4.89,1.29,1.29,0,0,0,.16.64,1.24,1.24,0,0,0,.41.44,1.87,1.87,0,0,0,.58.24,2.73,2.73,0,0,0,.64.07,2.43,2.43,0,0,0,1-.19,1.93,1.93,0,0,0,.72-.53,2.16,2.16,0,0,0,.43-.77,3.31,3.31,0,0,0,.14-.95v-.55Z"/><path class="cls-33" d="M27,357.27a2.16,2.16,0,0,0-.65-.75,1.74,1.74,0,0,0-1-.27,2.74,2.74,0,0,0-.56.06,1.66,1.66,0,0,0-.51.21,1.07,1.07,0,0,0-.36.34.88.88,0,0,0-.14.52.85.85,0,0,0,.37.78,3.76,3.76,0,0,0,1.12.42l1.08.26a2.67,2.67,0,0,1,1.33.72,1.86,1.86,0,0,1,.52,1.35,2.14,2.14,0,0,1-.25,1.07,2.18,2.18,0,0,1-.66.72,2.93,2.93,0,0,1-1,.42,5,5,0,0,1-1.09.13,3.9,3.9,0,0,1-1.63-.34,3,3,0,0,1-1.28-1.14l.92-.63a2.6,2.6,0,0,0,.82.83,2.21,2.21,0,0,0,1.17.3,2.88,2.88,0,0,0,.65-.07,2,2,0,0,0,.58-.22,1.39,1.39,0,0,0,.4-.4A1.05,1.05,0,0,0,27,361a.88.88,0,0,0-.42-.82,3.68,3.68,0,0,0-1-.39l-1-.25a4.59,4.59,0,0,1-.53-.16,2.39,2.39,0,0,1-.65-.34,2,2,0,0,1-.54-.59,1.67,1.67,0,0,1-.23-.9,2.08,2.08,0,0,1,.24-1,1.88,1.88,0,0,1,.63-.71,2.87,2.87,0,0,1,.9-.42,4,4,0,0,1,1-.13,3.61,3.61,0,0,1,1.47.3,2.21,2.21,0,0,1,1.05,1.06Z"/><path class="cls-33" d="M34.08,356.44H31.9v4.47a2.25,2.25,0,0,0,.08.69.94.94,0,0,0,.23.42.83.83,0,0,0,.34.2,1.64,1.64,0,0,0,.45,0,2,2,0,0,0,.57-.08,2.25,2.25,0,0,0,.53-.21l0,1a3.49,3.49,0,0,1-1.44.28,2.87,2.87,0,0,1-.64-.08,1.61,1.61,0,0,1-.61-.31,1.63,1.63,0,0,1-.45-.62,2.45,2.45,0,0,1-.18-1v-4.78H29.22v-1h1.61v-2.14H31.9v2.14h2.18Z"/><path class="cls-33" d="M36.61,359.55a3.19,3.19,0,0,0,.28,1.07,2.7,2.7,0,0,0,.6.87,2.76,2.76,0,0,0,.85.57,2.67,2.67,0,0,0,1.06.21,2.75,2.75,0,0,0,1.48-.39,3,3,0,0,0,.95-.92l.82.68a3.94,3.94,0,0,1-1.49,1.23,4.22,4.22,0,0,1-1.76.38,4.07,4.07,0,0,1-1.57-.3,3.54,3.54,0,0,1-1.23-.84,3.87,3.87,0,0,1-.82-1.26,4.43,4.43,0,0,1,0-3.18,3.79,3.79,0,0,1,.81-1.26,3.63,3.63,0,0,1,1.21-.83,4,4,0,0,1,3.05,0,3.54,3.54,0,0,1,1.14.82,3.6,3.6,0,0,1,.71,1.2,4.44,4.44,0,0,1,.24,1.47v.48Zm5.15-.87a2.28,2.28,0,0,0-2.46-2.43,2.62,2.62,0,0,0-1,.2,2.94,2.94,0,0,0-.85.54,2.77,2.77,0,0,0-.59.78,2.1,2.1,0,0,0-.22.91Z"/><path class="cls-33" d="M50.72,357.25a2.27,2.27,0,0,0-1.89-1,2.81,2.81,0,0,0-1.19.21,2.44,2.44,0,0,0-.9.63,2.72,2.72,0,0,0-.57,1,3.7,3.7,0,0,0-.2,1.21,3.66,3.66,0,0,0,.2,1.21,2.72,2.72,0,0,0,.57,1,2.44,2.44,0,0,0,.9.63,2.53,2.53,0,0,0,1.19.21A2.1,2.1,0,0,0,50,362a2.21,2.21,0,0,0,.77-.71l.88.66a3.57,3.57,0,0,1-1.28,1,3.9,3.9,0,0,1-1.49.34,4.22,4.22,0,0,1-1.67-.29,3.59,3.59,0,0,1-2.08-2.1,4.63,4.63,0,0,1-.27-1.6,4.58,4.58,0,0,1,.27-1.59,3.54,3.54,0,0,1,.81-1.28,3.73,3.73,0,0,1,1.27-.83,4.22,4.22,0,0,1,1.67-.28,3.89,3.89,0,0,1,1.49.33,3.69,3.69,0,0,1,1.28,1Z"/><path class="cls-33" d="M57.25,356.44H55.06v4.47a2.61,2.61,0,0,0,.08.69,1,1,0,0,0,.23.42.87.87,0,0,0,.35.2,1.52,1.52,0,0,0,.44,0,1.87,1.87,0,0,0,.57-.08,2.33,2.33,0,0,0,.54-.21l0,1a3.45,3.45,0,0,1-1.44.28,3,3,0,0,1-.64-.08,1.56,1.56,0,0,1-.6-.31,1.65,1.65,0,0,1-.46-.62,2.45,2.45,0,0,1-.18-1v-4.78h-1.6v-1H54v-2.14h1.07v2.14h2.19Z"/><path class="cls-33" d="M66.69,359.26a4.17,4.17,0,0,1-.3,1.59,3.74,3.74,0,0,1-.83,1.26,3.8,3.8,0,0,1-1.27.84,4.3,4.3,0,0,1-1.63.3,4.23,4.23,0,0,1-1.61-.3,3.71,3.71,0,0,1-1.27-.84,3.76,3.76,0,0,1-.84-1.26,4.36,4.36,0,0,1,0-3.18,3.87,3.87,0,0,1,.84-1.26,3.68,3.68,0,0,1,1.27-.83,4.23,4.23,0,0,1,1.61-.3,4.3,4.3,0,0,1,1.63.3,3.78,3.78,0,0,1,1.27.83,3.84,3.84,0,0,1,.83,1.26A4.17,4.17,0,0,1,66.69,359.26Zm-1.16,0a3.52,3.52,0,0,0-.2-1.18,2.9,2.9,0,0,0-.58-1,2.78,2.78,0,0,0-.9-.64,3.19,3.19,0,0,0-2.38,0,2.64,2.64,0,0,0-.89.64,3.06,3.06,0,0,0-.57,1,3.52,3.52,0,0,0-.2,1.18,3.48,3.48,0,0,0,.2,1.18,3.06,3.06,0,0,0,.57,1,2.64,2.64,0,0,0,.89.64,3.19,3.19,0,0,0,2.38,0,2.78,2.78,0,0,0,.9-.64,2.9,2.9,0,0,0,.58-1A3.48,3.48,0,0,0,65.53,359.26Z"/><path class="cls-33" d="M69,357.16c0-.29,0-.57,0-.85l-.06-.84H70v1.15h0a2.48,2.48,0,0,1,1.08-1,3,3,0,0,1,1.37-.34,4,4,0,0,1,.66.06,2.16,2.16,0,0,1,.67.24,2.38,2.38,0,0,1,.61.47,2.77,2.77,0,0,1,.47.8,2.5,2.5,0,0,1,1-1.15,2.83,2.83,0,0,1,1.47-.42,2.73,2.73,0,0,1,2.15.77,3.12,3.12,0,0,1,.7,2.19v4.81H79.2v-4.42a3.22,3.22,0,0,0-.4-1.77,1.68,1.68,0,0,0-1.51-.61,2.07,2.07,0,0,0-1,.23,2,2,0,0,0-.65.63,2.78,2.78,0,0,0-.37.88,4.93,4.93,0,0,0-.11,1v4H74.08v-4.42a3.22,3.22,0,0,0-.4-1.77,1.68,1.68,0,0,0-1.51-.61l-.45.06a1.87,1.87,0,0,0-.72.36,2.6,2.6,0,0,0-.67.87,3.6,3.6,0,0,0-.3,1.62v3.89H69Z"/><path class="cls-33" d="M85.91,361.74l2.31-6.27h1.3L85.73,365a3.94,3.94,0,0,1-.87,1.39,2,2,0,0,1-1.51.52l-.5,0a2.11,2.11,0,0,1-.49-.09l.11-1a1.73,1.73,0,0,0,.81.18,1.12,1.12,0,0,0,.89-.36,3,3,0,0,0,.57-1l.55-1.46-3.11-7.68h1.35Z"/><path class="cls-35" d="M323.26,265c2.37,4.12,3.8,9.11,4.78,14.65h3.58c-.63-6.12-1.87-11.6-4.4-16-3.39-7.67-8.35-10.34-15.86-13.48-13.52-5.67-21.51-9.79-32.77-25.89-26.75-29.83-12.5-64.37-.72-84.32,2-3.35,39.24-58.07,47.35-69.85a116.61,116.61,0,0,0,10.22-21.23h-2.92c-1.07,2.84-2.17,5.55-3.33,8-43.82,77.31-107.83,117-41,184,0,0,12.26,8.78,19.18,10.62C315.25,253.59,319.87,257.31,323.26,265Z"/><path class="cls-35" d="M159.21,265A44.93,44.93,0,0,1,164,279.63h3.59c-.64-6.12-1.87-11.6-4.41-16l-17.61-25c-12.88-17.91-31.8-58.92-1.06-122.06,4.57-9.36,10.78-19.19,15.42-29.27A218.71,218.71,0,0,0,172.3,53.67c.48-1.68,1-3.41,1.45-5.19h-3.81c-2.16,7.24-4.31,13.78-6.38,19.64A238.36,238.36,0,0,1,152.81,94a262.16,262.16,0,0,1-13.08,23.43s-36.41,66.4.34,121.28Z"/><path class="cls-35" d="M36.61,223.09a52.59,52.59,0,0,0,3.72,4.46,30.12,30.12,0,0,1,3.41,4c6.4,11.15,2.64,31.72,9.24,48.09h.08c-6.21-16.51-.27-37.85-6.68-49l-5.72-7.36c-28-40.93-1.52-110.63-1.52-110.63S44.56,99.16,47,90.07s4.85-20.54,6.15-28.56A127.49,127.49,0,0,0,54.62,48.7H54c-1.9,9.43-3.79,18.69-5.76,26.87-2.28,9.5-4.23,17.67-6.87,24.24C24.91,140.63,24.5,172.42,24.5,172.42c.71,19.44,4.88,36.81,11,48.87A11.69,11.69,0,0,0,36.61,223.09Z"/><polyline class="cls-34" points="286.47 346.87 322.87 346.87 322.87 251.85"/></g></g></svg>