<svg xmlns="http://www.w3.org/2000/svg" xmlns:xlink="http://www.w3.org/1999/xlink" viewBox="0 0 358.73 365.52"><defs><style>.cls-1,.cls-23{fill:none;}.cls-2{fill:#bcbec0;}.cls-2,.cls-26{fill-rule:evenodd;}.cls-3{fill:#e6e7e8;}.cls-4{fill:#fff;}.cls-5{opacity:0.06;}.cls-6{clip-path:url(#clip-path);}.cls-7{clip-path:url(#clip-path-2);}.cls-8{fill:#696766;}.cls-9{opacity:0.18;}.cls-10{clip-path:url(#clip-path-3);}.cls-11{clip-path:url(#clip-path-4);}.cls-12{opacity:0.75;}.cls-12,.cls-15{isolation:isolate;}.cls-13{clip-path:url(#clip-path-5);}.cls-14{clip-path:url(#clip-path-6);}.cls-15{opacity:0.1;}.cls-16{clip-path:url(#clip-path-7);}.cls-17{clip-path:url(#clip-path-8);}.cls-18{opacity:0.4;}.cls-19{clip-path:url(#clip-path-9);}.cls-20{clip-path:url(#clip-path-10);}.cls-21{fill:#ff8300;}.cls-22{fill:#ff8d1e;}.cls-23{stroke:#ff8300;stroke-width:0.83px;}.cls-24{clip-path:url(#clip-path-11);}.cls-25{fill:#8b8e8f;}.cls-26{fill:#53575a;}</style><clipPath id="clip-path" transform="translate(-21.95 -2187.15)"><rect class="cls-1" x="106.84" y="2308.82" width="37.62" height="106.65"/></clipPath><clipPath id="clip-path-2" transform="translate(-21.95 -2187.15)"><rect class="cls-1" x="106.84" y="2308.82" width="37.63" height="106.65"/></clipPath><clipPath id="clip-path-3" transform="translate(-21.95 -2187.15)"><rect class="cls-1" x="87.29" y="2319.08" width="20.33" height="29.62"/></clipPath><clipPath id="clip-path-4" transform="translate(-21.95 -2187.15)"><rect class="cls-1" x="87.29" y="2319.08" width="20.33" height="29.63"/></clipPath><clipPath id="clip-path-5" transform="translate(-21.95 -2187.15)"><rect class="cls-1" x="88.15" y="2320.67" width="17.67" height="25.4"/></clipPath><clipPath id="clip-path-6" transform="translate(-21.95 -2187.15)"><rect class="cls-1" x="88.15" y="2320.67" width="17.67" height="25.41"/></clipPath><clipPath id="clip-path-7" transform="translate(-21.95 -2187.15)"><rect class="cls-1" x="73.53" y="2303.28" width="47.09" height="67.31"/></clipPath><clipPath id="clip-path-8" transform="translate(-21.95 -2187.15)"><rect class="cls-1" x="73.53" y="2303.28" width="47.09" height="67.31"/></clipPath><clipPath id="clip-path-9" transform="translate(-21.95 -2187.15)"><rect class="cls-1" x="73.53" y="2303.29" width="47.09" height="67.31"/></clipPath><clipPath id="clip-path-10" transform="translate(-21.95 -2187.15)"><rect class="cls-1" x="73.53" y="2303.29" width="47.09" height="67.31"/></clipPath><clipPath id="clip-path-11" transform="translate(-21.95 -2187.15)"><rect class="cls-1" width="400" height="8200"/></clipPath></defs><g id="Layer_2" data-name="Layer 2"><g id="Layer_1-2" data-name="Layer 1"><path class="cls-2" d="M110.72,2440.94c6.11,4.31,9.52,7.13,12.1,10.7a36.64,36.64,0,0,1,5.32,12.18,61.92,61.92,0,0,1,1.23,6.18h1.84c.18-2.08.31-4.52.37-7.32.07-3.11,0-6.65-.08-10.16.39,4,.83,8,1.25,11.32.32,2.3.6,4.28.88,6.16h.63c.22-2.28.42-4.54.61-6.69.31-2.94.51-5.66.71-8.39.13,2.55.27,5.14.51,7.4s.51,4.16.79,6.08c.24-1.9.5-3.77.74-6.86s.36-7.33.54-11.6c.13,2.48.32,4.95.56,7.21s.46,4.24.77,6.75c.18,1.84.41,3.93.63,6.1h.67a67.47,67.47,0,0,0,1-8.19c.24-4.16.15-9.25.19-19.3s.35-25.06.47-40.31-.13-30.82-.34-46.59-.41-31.7-.51-44.27.12-21.76.51-28.57,1.09-11.26,1.72-15.71c-1.47,1.71-3,3.39-5.35,6.53s-5.71,7.69-9,12.25c4.48-7.93,8.88-15.84,13.35-23.76-5,7-10,14-14.3,20.09s-7.9,11.37-12,17.23-8.72,12.26-12.32,16.91-6.12,7.45-8.65,10.3c1.92-3.33,3.84-6.66,6.64-11s6.47-9.59,11.13-16.19,10.11-14.49,14.89-22,8.82-14.76,12.87-21.92l-14.71,21.28c-4.7,6.74-9,12.9-13.31,19.08,4.34-7.13,8.73-14.28,13.07-21.47s8.59-14.52,12.93-21.84c-3.15,4.22-6.31,8.42-9.81,13.59s-7.43,11.31-11,16.77-7,10.21-11.08,16-8.88,12.61-13.74,19.84-9.75,14.84-13.42,21.36a91,91,0,0,0-7.77,17,60.09,60.09,0,0,0-2.82,14.73,59.1,59.1,0,0,0,.43,13.52,43.1,43.1,0,0,0,3,10.19,59.74,59.74,0,0,0,4.3,8.42c1.73,2.92,3.88,6.06,6,9.22a118.84,118.84,0,0,1-9.51-12.26,47.91,47.91,0,0,1-7.5-24.94,55.53,55.53,0,0,1,2.39-15.27,88.54,88.54,0,0,1,6.87-16.17c2.92-5.46,6.41-10.92,12.4-19.89s14.46-21.4,21.74-32.21,13.43-20,18.38-27.55,8.72-13.56,12.53-19.55a29.49,29.49,0,0,0-5.07,5.39c-2.39,3.1-5.91,8.15-12.56,17.92s-16.46,24.3-23.7,34.75-11.85,17-16.59,24.22S73,2343,69.93,2349.17a64.52,64.52,0,0,0-5.44,14.9A53.93,53.93,0,0,0,63,2376.76a42.61,42.61,0,0,0,1.93,12.1,77.33,77.33,0,0,0,4.6,10.81c-1.22-2.16-2.45-4.32-3.67-6.55a27.51,27.51,0,0,1-3.3-8.5A51.61,51.61,0,0,1,62,2370a57.8,57.8,0,0,1,4.21-16,152,152,0,0,1,9.42-18.53c4.06-7,9-14.95,15.19-24.12s13.58-19.54,20.92-30.17,14.52-21.45,18.71-28.12a87.86,87.86,0,0,0,6.54-11.78c-9.1,12.73-18.21,25.5-28.07,39.39-9.37,13.22-19.37,27.53-27.28,39.66l-1.72,2.57c-7.8,12-13.28,21.63-16.6,29.3a58.16,58.16,0,0,0-5.09,19.23A41.34,41.34,0,0,0,60,2388.15a62.09,62.09,0,0,0,10.09,18.57,104.27,104.27,0,0,0,18.38,18.09C95.91,2430.76,104.67,2436.59,110.72,2440.94Z" transform="translate(-21.95 -2187.15)"/><path class="cls-2" d="M256.22,2424.81c7.48,6,16.23,11.78,22.29,16.13s9.52,7.13,12.1,10.7a36.85,36.85,0,0,1,5.32,12.18,64,64,0,0,1,1.3,6.69H299q.32-3.28.41-7.83c.07-3.11,0-6.65-.08-10.16.39,4,.84,8,1.25,11.32.35,2.5.65,4.63,1,6.67H302c.23-2.45.45-4.89.65-7.2.31-2.94.51-5.66.72-8.39.13,2.55.26,5.14.51,7.4s.51,4.16.79,6.08c.24-1.9.49-3.77.74-6.86s.36-7.33.53-11.6c.14,2.48.33,4.95.57,7.21s.45,4.24.76,6.75c.2,2,.45,4.25.68,6.61h.53a70,70,0,0,0,1.12-8.7c.24-4.16.14-9.25.18-19.3s.35-25.06.47-40.31-.13-30.82-.33-46.59-.42-31.7-.51-44.27.12-21.76.51-28.57,1.09-11.26,1.72-15.71c-1.48,1.71-3,3.39-5.36,6.53s-5.71,7.69-9,12.25c4.47-7.93,8.88-15.84,13.35-23.76-5,7-10,14-14.3,20.09s-7.9,11.37-12,17.23-8.72,12.26-12.31,16.91-6.13,7.45-8.65,10.3c1.92-3.33,3.84-6.66,6.63-11s6.47-9.59,11.13-16.19,10.12-14.49,14.9-22,8.82-14.76,12.86-21.92c-5,7.28-10.06,14.56-14.7,21.28s-9,12.9-13.31,19.08c4.34-7.13,8.73-14.28,13.07-21.47s8.59-14.52,12.93-21.84c-3.16,4.22-6.32,8.42-9.82,13.59s-7.43,11.31-11,16.77-7,10.21-11.08,16-8.87,12.61-13.74,19.84-9.74,14.84-13.41,21.36a91.13,91.13,0,0,0-7.78,17,64.68,64.68,0,0,0-2.39,28.25,42.62,42.62,0,0,0,3,10.19,58.69,58.69,0,0,0,4.3,8.42c1.73,2.92,3.88,6.06,6,9.22a118.84,118.84,0,0,1-9.51-12.26,48,48,0,0,1-7.51-24.94,55.91,55.91,0,0,1,2.39-15.27,89.31,89.31,0,0,1,6.88-16.17c2.91-5.46,6.4-10.92,12.39-19.89s14.47-21.4,21.74-32.21,13.43-20,18.39-27.55,8.71-13.56,12.53-19.55a29.09,29.09,0,0,0-5.08,5.39c-2.39,3.1-5.91,8.15-12.56,17.92s-16.46,24.3-23.7,34.75-11.84,17-16.58,24.22a248.43,248.43,0,0,0-12.6,21.53,65,65,0,0,0-5.44,14.9,54.44,54.44,0,0,0-1.47,12.69,41.91,41.91,0,0,0,1.93,12.1,76.12,76.12,0,0,0,4.59,10.81c-1.22-2.16-2.44-4.32-3.66-6.55a27.75,27.75,0,0,1-3.31-8.5,51.27,51.27,0,0,1-.6-14.58,58.12,58.12,0,0,1,4.2-16,152.23,152.23,0,0,1,9.43-18.53c4.05-7,9-14.95,15.19-24.12s13.57-19.54,20.92-30.17,14.52-21.45,18.7-28.12a88.39,88.39,0,0,0,6.55-11.78c-9.11,12.73-18.21,25.5-28.07,39.39-9.37,13.22-19.38,27.53-27.29,39.66l-1.72,2.57c-7.8,12-13.28,21.63-16.6,29.3a58.16,58.16,0,0,0-5.09,19.23,41.35,41.35,0,0,0,1.78,16.72,62,62,0,0,0,10.08,18.57A104.7,104.7,0,0,0,256.22,2424.81Z" transform="translate(-21.95 -2187.15)"/><polygon class="cls-2" points="117.84 267.31 123.13 228.37 125.82 83.94 117.84 97.37 117.84 267.31"/><path class="cls-2" d="M129.5,2278.52v176c-1.17-4.2-2.34-8.4-2.85-22.52s-.44-38.19,0-62.39,1-48.5,1.57-63.7.93-21.3,1.32-27.41" transform="translate(-21.95 -2187.15)"/><path class="cls-2" d="M145.26,2458.84c.73-8.81,1.51-17.62,1.9-29.27s.55-26.18,1.12-53.55,1.64-67.5,2.7-107.71c-.7,7.35-1.42,14.69-2.12,26.5s-1.38,28.14-2.19,52.85-1.78,57.87-2,77.82.19,26.63.63,33.36" transform="translate(-21.95 -2187.15)"/><path class="cls-3" d="M138.15,2406.13s.43,10.92-2.84,14.29c0,0-5.79,7.68-8.11,6.42a9.56,9.56,0,0,1-2-2.79l7.38-14.84Z" transform="translate(-21.95 -2187.15)"/><path class="cls-3" d="M134.9,2315s.83-12.52-5.47-14.69c0,0-2.71,0-3.49,2.16l.47,4.18,7.52,9.49Z" transform="translate(-21.95 -2187.15)"/><path class="cls-4" d="M115.26,2430.48s16.12-3.65,26.61-33c0,0,8.5-24.09,1.59-57.55,0,0-7.36-32.49-19.55-38.87,0,0-9-4.73-15.48,2.22,0,0-7.62,10.75-9.66,14.39,0,0-17.55,23.33-21.42,35,0,0-3.85,8.83-4,16.75,0,0-3.78,32.38,23.46,55.1,0,0,9,8.32,18.48,5.94" transform="translate(-21.95 -2187.15)"/><g class="cls-5"><g class="cls-6"><g class="cls-7"><path class="cls-8" d="M132.61,2410.11s26.43-32.86.37-95.88c0,0-5.12-12.19-11.24,0,0,0-21,26.53-13.14,65.21,0,0,4.22,24.33,9.25,31.26,0,0,5.51,11.05,14.76-.63" transform="translate(-21.95 -2187.15)"/></g></g></g><g class="cls-9"><g class="cls-10"><g class="cls-11"><path class="cls-8" d="M92.33,2330.79c4.85-8,11.07-13.1,13.9-11.38s1.19,9.59-3.66,17.59-11.07,13.08-13.9,11.37-1.19-9.59,3.66-17.58" transform="translate(-21.95 -2187.15)"/></g></g></g><g class="cls-12"><g class="cls-13"><g class="cls-14"><path class="cls-3" d="M93.19,2330.94c4.4-6.89,9.67-11.38,11.77-10s.23,8-4.17,14.9-9.68,11.38-11.78,10-.23-8,4.18-14.9" transform="translate(-21.95 -2187.15)"/></g></g></g><path class="cls-4" d="M109.5,2304.3a2.18,2.18,0,0,1,1.08.3c9.13,5.06,9.71,21.94,9.66,27a15.63,15.63,0,0,1-.34,3.2c-4.48,18.89-22.59,29.11-22.79,29.22-6.91,4.13-12.61,6.23-17,6.23s-6-2.25-6.22-2.65c-.48-9.9,8.69-25.15,8.77-25.28,4.48-6.95,19.89-29.7,24.5-36.49a2.93,2.93,0,0,1,2.32-1.52m0-.38a3.27,3.27,0,0,0-2.62,1.67c-4.91,7.25-20,29.6-24.5,36.5,0,0-9.38,15.46-8.83,25.6,0,0,1.41,2.91,6.58,2.91,3.61,0,9.07-1.42,17.16-6.27,0,0,18.39-10.18,22.95-29.45a15.19,15.19,0,0,0,.37-3.28c0-5.56-.62-22.21-9.87-27.33a2.36,2.36,0,0,0-1.24-.35" transform="translate(-21.95 -2187.15)"/><g class="cls-15"><g class="cls-16"><g class="cls-17"><path class="cls-8" d="M120.57,2333.4s1.51-26-12.13-30.12c0,0-20.71,30.51-26.06,38.8,0,0-9.38,15.45-8.83,25.59,0,0,4.09,8.42,23.74-3.36,0,0,19.31-10.68,23.28-30.91" transform="translate(-21.95 -2187.15)"/></g></g></g><g class="cls-18"><g class="cls-19"><g class="cls-20"><path class="cls-4" d="M108.59,2303.72c12.93,4.22,11.63,29.41,11.61,29.61-3.88,19.81-22.89,30.56-23.09,30.66-6.91,4.14-12.61,6.23-17,6.23s-6-2.24-6.22-2.64c-.48-9.9,8.69-25.15,8.77-25.29,5-7.81,24-35.76,25.91-38.57m-.15-.43s-20.71,30.51-26.07,38.8c0,0-9.37,15.46-8.82,25.6,0,0,1.41,2.91,6.58,2.91,3.61,0,9.07-1.42,17.16-6.27,0,0,19.32-10.69,23.28-30.91,0,0,1.51-26-12.13-30.13" transform="translate(-21.95 -2187.15)"/></g></g></g><polygon class="cls-2" points="285.63 267.31 290.92 228.37 293.61 83.94 285.63 97.37 285.63 267.31"/><path class="cls-2" d="M297.3,2278.52v176c-1.17-4.2-2.34-8.4-2.85-22.52s-.44-38.19,0-62.39,1-48.5,1.57-63.7.91-21.3,1.32-27.41" transform="translate(-21.95 -2187.15)"/><path class="cls-2" d="M313.05,2458.84c.72-8.81,1.5-17.62,1.89-29.27s.55-26.18,1.13-53.55,1.64-67.5,2.7-107.71c-.7,7.35-1.42,14.69-2.12,26.5s-1.39,28.14-2.19,52.85-1.79,57.87-2,77.82.19,26.63.63,33.36" transform="translate(-21.95 -2187.15)"/><path class="cls-4" d="M284.07,2430.72s16.11-3.65,26.6-33c0,0,8.5-24.09,1.6-57.55,0,0-7.36-32.49-19.55-38.87,0,0-9-4.72-15.49,2.22,0,0-7.61,10.76-9.65,14.4,0,0-17.55,23.32-21.42,35,0,0-3.86,8.83-4,16.76,0,0-3.79,32.37,23.46,55.1,0,0,9,8.32,18.48,5.93" transform="translate(-21.95 -2187.15)"/><rect class="cls-1" x="23.03" y="51.73" width="274.18" height="231.13"/><polygon class="cls-21" points="165.96 28.53 0 28.53 0 57.03 0.75 57.03 0.75 29.28 165.96 29.28 165.96 28.53"/><polygon class="cls-21" points="194.04 28.53 194.04 29.28 357.98 29.28 357.98 57.03 358.73 57.03 358.73 28.53 194.04 28.53"/><path class="cls-22" d="M197.05,2217.25l2-2,1.89-2a27.1,27.1,0,0,0,4.19-5.85,25.92,25.92,0,0,0,2.27-5.87,19.8,19.8,0,0,0,.61-5.43,14,14,0,0,0-.83-4.5,7.6,7.6,0,0,0-2-3.06,4.33,4.33,0,0,0-2.95-1.12c-.26,0-.54,0-.83,0l-.83.09a4.7,4.7,0,0,0-2.9,1.6,6.55,6.55,0,0,0-1.24,2.61,10.81,10.81,0,0,0-.25,2.81,20,20,0,0,1,0,2.16,2.17,2.17,0,0,1-2.2,2.07,1.93,1.93,0,0,1-1.44-.6,1.9,1.9,0,0,1-.54-1.47v-.27a9.68,9.68,0,0,1,3.1-6.52,10.2,10.2,0,0,1,3.27-2.07,10.36,10.36,0,0,1,3.84-.72,9.35,9.35,0,0,1,6.89,2.79,9.09,9.09,0,0,1,2.7,6.84,15.32,15.32,0,0,1-.36,2.32,11.69,11.69,0,0,1-.86,2.36,16.47,16.47,0,0,1-1.23,2.34c-.5.78-1.08,1.6-1.74,2.47a53.23,53.23,0,0,1-4.54,5.27q-2.66,2.74-5.85,5.94a23,23,0,0,1-1.71,1.71h14.31A3.61,3.61,0,0,0,211,2219a2.42,2.42,0,0,0,.72-.36,1,1,0,0,0,.36-.4c.06-.14.11-.24.14-.3v0h.36l-.86,5.49H191l3.11-3.17Z" transform="translate(-21.95 -2187.15)"/><line class="cls-23" x1="105.96" y1="318.87" x2="105.96" y2="247.85"/><g class="cls-24"><path class="cls-21" d="M127.91,2508.42a2.42,2.42,0,1,1,2.42-2.41,2.41,2.41,0,0,1-2.42,2.41" transform="translate(-21.95 -2187.15)"/></g><path class="cls-25" d="M111.65,2523.39h-2.19v4.47a2.61,2.61,0,0,0,.08.69.94.94,0,0,0,.23.41.78.78,0,0,0,.35.21,2,2,0,0,0,.44,0,1.87,1.87,0,0,0,.57-.08,2.33,2.33,0,0,0,.54-.21l0,1a3.46,3.46,0,0,1-1.44.27,2.44,2.44,0,0,1-.64-.08,1.42,1.42,0,0,1-.6-.3,1.73,1.73,0,0,1-.46-.62,2.45,2.45,0,0,1-.18-1v-4.78h-1.6v-1h1.6v-2.14h1.07v2.14h2.19Z" transform="translate(-21.95 -2187.15)"/><path class="cls-25" d="M115,2519.5a.69.69,0,0,1-.25.56.76.76,0,0,1-.53.22.8.8,0,0,1-.54-.22.71.71,0,0,1-.24-.56.74.74,0,0,1,.24-.56.85.85,0,0,1,.54-.22.81.81,0,0,1,.53.22A.72.72,0,0,1,115,2519.5Zm-.25,10.5h-1.07v-7.58h1.07Z" transform="translate(-21.95 -2187.15)"/><path class="cls-25" d="M121.66,2524.22a2,2,0,0,0-.65-.75,1.73,1.73,0,0,0-1-.27,2.67,2.67,0,0,0-.56.06,1.65,1.65,0,0,0-.51.2,1.13,1.13,0,0,0-.37.35.94.94,0,0,0-.14.52.86.86,0,0,0,.38.78,3.68,3.68,0,0,0,1.11.42l1.09.26a2.59,2.59,0,0,1,1.32.72,1.86,1.86,0,0,1,.53,1.35,2.19,2.19,0,0,1-.25,1.06,2.13,2.13,0,0,1-.67.73,2.63,2.63,0,0,1-.95.41,4.32,4.32,0,0,1-1.08.13,4,4,0,0,1-1.63-.33,3,3,0,0,1-1.29-1.14l.93-.63a2.44,2.44,0,0,0,.81.82,2.14,2.14,0,0,0,1.18.31,2.94,2.94,0,0,0,.65-.07,1.8,1.8,0,0,0,.57-.23,1.27,1.27,0,0,0,.41-.39,1.1,1.1,0,0,0,.15-.57.88.88,0,0,0-.42-.82,3.68,3.68,0,0,0-1-.4l-1-.24-.52-.16a2.53,2.53,0,0,1-.65-.34,2.23,2.23,0,0,1-.55-.59,1.72,1.72,0,0,1-.22-.9,2,2,0,0,1,.86-1.74,3.07,3.07,0,0,1,.9-.41,4,4,0,0,1,1-.14,3.58,3.58,0,0,1,1.47.31,2.2,2.2,0,0,1,1.06,1Z" transform="translate(-21.95 -2187.15)"/><path class="cls-25" d="M128.87,2524.22a2,2,0,0,0-.65-.75,1.74,1.74,0,0,0-1-.27,2.57,2.57,0,0,0-.55.06,1.65,1.65,0,0,0-.51.2,1.13,1.13,0,0,0-.37.35.94.94,0,0,0-.14.52.86.86,0,0,0,.38.78,3.68,3.68,0,0,0,1.11.42l1.09.26a2.59,2.59,0,0,1,1.32.72,1.86,1.86,0,0,1,.53,1.35,2.08,2.08,0,0,1-.26,1.06,2,2,0,0,1-.66.73,2.63,2.63,0,0,1-.95.41,4.37,4.37,0,0,1-1.08.13,4,4,0,0,1-1.63-.33,3,3,0,0,1-1.29-1.14l.92-.63a2.57,2.57,0,0,0,.82.82,2.14,2.14,0,0,0,1.18.31,2.94,2.94,0,0,0,.65-.07,1.8,1.8,0,0,0,.57-.23,1.27,1.27,0,0,0,.41-.39,1.1,1.1,0,0,0,.15-.57.88.88,0,0,0-.42-.82,3.68,3.68,0,0,0-1-.4l-1-.24-.53-.16a2.64,2.64,0,0,1-.64-.34,2.08,2.08,0,0,1-.55-.59,1.72,1.72,0,0,1-.22-.9,2.08,2.08,0,0,1,.23-1,2.19,2.19,0,0,1,.63-.72,3.07,3.07,0,0,1,.9-.41,4,4,0,0,1,1-.14,3.58,3.58,0,0,1,1.47.31,2.2,2.2,0,0,1,1.06,1Z" transform="translate(-21.95 -2187.15)"/><path class="cls-25" d="M137.54,2530c0-.21,0-.41,0-.61s0-.4,0-.6h0a2.41,2.41,0,0,1-.46.56,3.43,3.43,0,0,1-.61.45,3.74,3.74,0,0,1-.72.29,2.89,2.89,0,0,1-.76.1,2.73,2.73,0,0,1-2.15-.77,3.12,3.12,0,0,1-.7-2.19v-4.81h1.07v4.19a5.29,5.29,0,0,0,.1,1.12,2,2,0,0,0,.33.82,1.48,1.48,0,0,0,.63.5,2.46,2.46,0,0,0,1,.17l.45-.06a2,2,0,0,0,.79-.36,2.61,2.61,0,0,0,.74-.87,3.45,3.45,0,0,0,.32-1.62v-3.89h1.07v5.91c0,.21,0,.47,0,.78s0,.61.06.89Z" transform="translate(-21.95 -2187.15)"/><path class="cls-25" d="M142.14,2526.5a3.18,3.18,0,0,0,.27,1.07,2.75,2.75,0,0,0,1.46,1.44,2.66,2.66,0,0,0,1,.21,2.76,2.76,0,0,0,1.49-.39,3,3,0,0,0,.94-.92l.83.68a4.08,4.08,0,0,1-1.5,1.23,4.15,4.15,0,0,1-1.76.37,4,4,0,0,1-1.56-.3,3.65,3.65,0,0,1-1.24-.83,4.24,4.24,0,0,1-.82-4.44,3.81,3.81,0,0,1,2-2.1,4,4,0,0,1,3.05,0,3.54,3.54,0,0,1,1.14.82,3.42,3.42,0,0,1,.7,1.2,4.19,4.19,0,0,1,.25,1.46v.49Zm5.15-.87a2.43,2.43,0,0,0-.65-1.76,2.39,2.39,0,0,0-1.81-.67,2.53,2.53,0,0,0-1,.2,2.79,2.79,0,0,0-.85.54,2.94,2.94,0,0,0-.58.78,1.94,1.94,0,0,0-.22.91Z" transform="translate(-21.95 -2187.15)"/><path class="cls-25" d="M94.49,2544.5a3.18,3.18,0,0,0,.27,1.07,2.75,2.75,0,0,0,1.46,1.44,2.59,2.59,0,0,0,1,.21,2.7,2.7,0,0,0,1.48-.39,2.89,2.89,0,0,0,1-.92l.83.68a4.08,4.08,0,0,1-1.5,1.23,4.18,4.18,0,0,1-1.76.37,4,4,0,0,1-1.56-.3,3.65,3.65,0,0,1-1.24-.83,4,4,0,0,1-.82-1.26,4.17,4.17,0,0,1-.3-1.59,4.36,4.36,0,0,1,.29-1.59,4,4,0,0,1,.81-1.26,3.7,3.7,0,0,1,1.22-.84,3.77,3.77,0,0,1,1.51-.3,3.73,3.73,0,0,1,1.53.31,3.48,3.48,0,0,1,1.15.82,3.58,3.58,0,0,1,.7,1.2,4.43,4.43,0,0,1,.24,1.46v.49Zm5.15-.87a2.43,2.43,0,0,0-.65-1.76,2.39,2.39,0,0,0-1.81-.67,2.53,2.53,0,0,0-1,.2,2.68,2.68,0,0,0-.85.54,2.74,2.74,0,0,0-.58.78,1.94,1.94,0,0,0-.22.91Z" transform="translate(-21.95 -2187.15)"/><path class="cls-25" d="M105,2544l-2.75-3.53h1.46l2.1,2.83,2-2.83h1.33l-2.64,3.53,3.17,4.05h-1.45l-2.55-3.32-2.44,3.32h-1.36Z" transform="translate(-21.95 -2187.15)"/><path class="cls-25" d="M111.2,2540.42h1.07v1.26h0a2.57,2.57,0,0,1,.61-.66,4,4,0,0,1,2.33-.8,4.26,4.26,0,0,1,1.63.3,3.71,3.71,0,0,1,1.27.84,3.76,3.76,0,0,1,.84,1.26,4.36,4.36,0,0,1,0,3.18,3.87,3.87,0,0,1-.84,1.26,3.68,3.68,0,0,1-1.27.83,4.26,4.26,0,0,1-1.63.3,3.63,3.63,0,0,1-.78-.08,3.26,3.26,0,0,1-.8-.26,3.64,3.64,0,0,1-.75-.45,2.57,2.57,0,0,1-.61-.66h0v5.93H111.2Zm6.92,3.79a3.48,3.48,0,0,0-.2-1.18,2.9,2.9,0,0,0-.58-1,2.64,2.64,0,0,0-.89-.64,2.89,2.89,0,0,0-1.2-.23,3,3,0,0,0-1.21.23,3,3,0,0,0-1,.64,2.86,2.86,0,0,0-.63,1,3.06,3.06,0,0,0-.22,1.18,3.1,3.1,0,0,0,.22,1.18,2.86,2.86,0,0,0,.63,1,3,3,0,0,0,1,.64,3.18,3.18,0,0,0,1.21.23,3.06,3.06,0,0,0,1.2-.23,2.64,2.64,0,0,0,.89-.64,2.9,2.9,0,0,0,.58-1A3.52,3.52,0,0,0,118.12,2544.21Z" transform="translate(-21.95 -2187.15)"/><path class="cls-25" d="M126.29,2543.35v-.19a1.73,1.73,0,0,0-2-2,3.3,3.3,0,0,0-2.31.89l-.65-.76a4.25,4.25,0,0,1,3.21-1.11,3.46,3.46,0,0,1,1.06.17,2.3,2.3,0,0,1,.88.49,2.43,2.43,0,0,1,.6.83,3,3,0,0,1,.23,1.2v3.39c0,.29,0,.6,0,.91a6.46,6.46,0,0,0,.09.79h-1a5,5,0,0,1-.07-.6q0-.33,0-.63h0a2.82,2.82,0,0,1-1.11,1.09,3.39,3.39,0,0,1-1.56.33,3.56,3.56,0,0,1-1-.13,2.82,2.82,0,0,1-.83-.42,2.18,2.18,0,0,1-.58-.7,2,2,0,0,1-.22-1,2.11,2.11,0,0,1,.48-1.46,2.81,2.81,0,0,1,1.19-.78,5.94,5.94,0,0,1,1.54-.32c.55-.05,1-.07,1.5-.07Zm-.55.88c-.27,0-.61,0-1,0a5.51,5.51,0,0,0-1.16.19,2.48,2.48,0,0,0-1,.48,1.09,1.09,0,0,0-.4.89,1.29,1.29,0,0,0,.16.64,1.33,1.33,0,0,0,.41.44,1.87,1.87,0,0,0,.58.24,2.73,2.73,0,0,0,.64.07,2.43,2.43,0,0,0,1-.19,2.14,2.14,0,0,0,.72-.53,2.12,2.12,0,0,0,.43-.78,3.19,3.19,0,0,0,.14-.94v-.55Z" transform="translate(-21.95 -2187.15)"/><path class="cls-25" d="M131.18,2540.42c0,.2,0,.41,0,.61s0,.4,0,.6h0a2.64,2.64,0,0,1,.45-.56,3.07,3.07,0,0,1,.62-.45,3.74,3.74,0,0,1,.72-.29,2.84,2.84,0,0,1,.75-.11,2.79,2.79,0,0,1,2.16.77,3.21,3.21,0,0,1,.69,2.2V2548h-1.06v-4.2a3.56,3.56,0,0,0-.44-1.93,1.78,1.78,0,0,0-1.62-.67l-.46.06a1.87,1.87,0,0,0-.78.36,2.5,2.5,0,0,0-.74.87,3.45,3.45,0,0,0-.32,1.62V2548h-1.07v-5.91q0-.32,0-.78c0-.31,0-.61,0-.89Z" transform="translate(-21.95 -2187.15)"/><path class="cls-25" d="M147.06,2548H146v-1.26h0a2.57,2.57,0,0,1-.61.66,3.64,3.64,0,0,1-.75.45,3.26,3.26,0,0,1-.8.26,3.65,3.65,0,0,1-.79.08,4.25,4.25,0,0,1-1.62-.3,3.68,3.68,0,0,1-1.27-.83,3.87,3.87,0,0,1-.84-1.26,4.36,4.36,0,0,1,0-3.18,3.76,3.76,0,0,1,.84-1.26,3.71,3.71,0,0,1,1.27-.84,4.25,4.25,0,0,1,1.62-.3,3.71,3.71,0,0,1,2.34.8,2.57,2.57,0,0,1,.61.66h0v-5.93h1.07Zm-6.92-3.79a3.52,3.52,0,0,0,.2,1.18,2.9,2.9,0,0,0,.58,1,2.64,2.64,0,0,0,.89.64,3,3,0,0,0,1.19.23,3.18,3.18,0,0,0,1.21-.23,3.09,3.09,0,0,0,1-.64,2.86,2.86,0,0,0,.63-1,3.1,3.1,0,0,0,.22-1.18,3.06,3.06,0,0,0-.22-1.18,2.86,2.86,0,0,0-.63-1,3.09,3.09,0,0,0-1-.64,3,3,0,0,0-1.21-.23,2.87,2.87,0,0,0-1.19.23,2.64,2.64,0,0,0-.89.64,2.9,2.9,0,0,0-.58,1A3.48,3.48,0,0,0,140.14,2544.21Z" transform="translate(-21.95 -2187.15)"/><path class="cls-25" d="M150.46,2544.5a3.18,3.18,0,0,0,.27,1.07,2.75,2.75,0,0,0,1.46,1.44,2.63,2.63,0,0,0,1.05.21,2.76,2.76,0,0,0,1.49-.39,3,3,0,0,0,.94-.92l.83.68a4.08,4.08,0,0,1-1.5,1.23,4.15,4.15,0,0,1-1.76.37,4,4,0,0,1-1.56-.3,3.65,3.65,0,0,1-1.24-.83,4,4,0,0,1-1.12-2.85,4.36,4.36,0,0,1,.29-1.59,4,4,0,0,1,.81-1.26,3.88,3.88,0,0,1,4.27-.83,3.54,3.54,0,0,1,1.14.82,3.42,3.42,0,0,1,.7,1.2,4.43,4.43,0,0,1,.24,1.46v.49Zm5.15-.87a2.43,2.43,0,0,0-.65-1.76,2.39,2.39,0,0,0-1.81-.67,2.53,2.53,0,0,0-1,.2,2.68,2.68,0,0,0-.85.54,2.74,2.74,0,0,0-.58.78,1.94,1.94,0,0,0-.22.91Z" transform="translate(-21.95 -2187.15)"/><path class="cls-25" d="M159.16,2542.78q0-.5,0-1c0-.34,0-.79,0-1.34h1v1.41h0a2.13,2.13,0,0,1,.32-.59,2.54,2.54,0,0,1,1.21-.88,2.74,2.74,0,0,1,.9-.14,3.1,3.1,0,0,1,.79.1l-.21,1a1.94,1.94,0,0,0-.62-.08,2.14,2.14,0,0,0-1,.24,2.24,2.24,0,0,0-.73.6,2.49,2.49,0,0,0-.43.78,2.63,2.63,0,0,0-.13.81V2548h-1.07Z" transform="translate(-21.95 -2187.15)"/><line class="cls-23" x1="275.05" y1="318.87" x2="275.05" y2="247.85"/><g class="cls-24"><path class="cls-21" d="M297,2508.42a2.42,2.42,0,1,1,2.42-2.41,2.41,2.41,0,0,1-2.42,2.41" transform="translate(-21.95 -2187.15)"/></g><path class="cls-25" d="M275,2517.75h1.07v5.93h0a2.76,2.76,0,0,1,.61-.66,3.69,3.69,0,0,1,.75-.46,3.9,3.9,0,0,1,.8-.25,3.75,3.75,0,0,1,.79-.09,4.34,4.34,0,0,1,1.63.3,3.8,3.8,0,0,1,1.27.84,3.89,3.89,0,0,1,.83,1.26,4.36,4.36,0,0,1,0,3.18,4,4,0,0,1-.83,1.26,3.78,3.78,0,0,1-1.27.83,4.34,4.34,0,0,1-1.63.3,3.71,3.71,0,0,1-.79-.08,3.4,3.4,0,0,1-.8-.26,3.64,3.64,0,0,1-.75-.45,2.76,2.76,0,0,1-.61-.66h0V2530H275Zm6.91,8.46a3.25,3.25,0,0,0-.2-1.18,2.72,2.72,0,0,0-.57-1,2.78,2.78,0,0,0-.9-.64,2.84,2.84,0,0,0-1.19-.23,3,3,0,0,0-2.81,1.83,3.06,3.06,0,0,0-.22,1.18,3.1,3.1,0,0,0,.22,1.18,3,3,0,0,0,.64,1,3,3,0,0,0,1,.64,3.19,3.19,0,0,0,1.22.23,3,3,0,0,0,1.19-.23,2.78,2.78,0,0,0,.9-.64,2.72,2.72,0,0,0,.57-1A3.29,3.29,0,0,0,281.93,2526.21Z" transform="translate(-21.95 -2187.15)"/><path class="cls-25" d="M285.35,2524.78c0-.33,0-.67,0-1s0-.79,0-1.34h1v1.41h0a2.54,2.54,0,0,1,.84-1.1,2.53,2.53,0,0,1,.69-.37,2.83,2.83,0,0,1,.9-.14,3.18,3.18,0,0,1,.8.1l-.21,1a1.94,1.94,0,0,0-.62-.08,2.2,2.2,0,0,0-1.78.84,2.31,2.31,0,0,0-.43.78,2.65,2.65,0,0,0-.14.81V2530h-1.07Z" transform="translate(-21.95 -2187.15)"/><path class="cls-25" d="M291.39,2526.5a3.45,3.45,0,0,0,.28,1.07,2.94,2.94,0,0,0,.6.87,2.81,2.81,0,0,0,.86.57,2.59,2.59,0,0,0,1.05.21,2.72,2.72,0,0,0,1.48-.39,2.89,2.89,0,0,0,.95-.92l.83.68a4.25,4.25,0,0,1-1.5,1.23,4.18,4.18,0,0,1-1.76.37,4,4,0,0,1-1.56-.3,3.56,3.56,0,0,1-1.24-.83,4,4,0,0,1-.82-1.26,4.17,4.17,0,0,1-.3-1.59,4.36,4.36,0,0,1,.29-1.59,4,4,0,0,1,.81-1.26,3.74,3.74,0,0,1,2.72-1.14,3.75,3.75,0,0,1,1.54.31,3.48,3.48,0,0,1,1.15.82,3.58,3.58,0,0,1,.7,1.2,4.43,4.43,0,0,1,.24,1.46v.49Zm5.16-.87a2.43,2.43,0,0,0-.65-1.76,2.4,2.4,0,0,0-1.82-.67,2.48,2.48,0,0,0-1,.2,2.68,2.68,0,0,0-.85.54,2.74,2.74,0,0,0-.58.78,1.94,1.94,0,0,0-.22.91Z" transform="translate(-21.95 -2187.15)"/><path class="cls-25" d="M304.84,2525.35v-.19a1.72,1.72,0,0,0-1.94-2,3.32,3.32,0,0,0-2.32.89l-.65-.76a4.27,4.27,0,0,1,3.21-1.11,3.41,3.41,0,0,1,1.06.17,2.3,2.3,0,0,1,.88.49,2.43,2.43,0,0,1,.6.83,3,3,0,0,1,.23,1.2v3.39c0,.29,0,.6,0,.91s.06.58.09.79h-1c0-.18-.05-.38-.07-.6s0-.43,0-.63h0a2.82,2.82,0,0,1-1.11,1.09,3.33,3.33,0,0,1-1.56.33,3.49,3.49,0,0,1-1-.13,3,3,0,0,1-.84-.42,2.31,2.31,0,0,1-.58-.7,2.36,2.36,0,0,1,.26-2.42,2.91,2.91,0,0,1,1.2-.78,5.85,5.85,0,0,1,1.54-.32c.54-.05,1-.07,1.5-.07Zm-.55.88c-.27,0-.61,0-1,0a5.5,5.5,0,0,0-1.17.19,2.44,2.44,0,0,0-.95.48,1.06,1.06,0,0,0-.4.89,1.29,1.29,0,0,0,.15.64,1.26,1.26,0,0,0,.42.44,1.81,1.81,0,0,0,.57.24,2.73,2.73,0,0,0,.64.07,2.4,2.4,0,0,0,1-.19,2,2,0,0,0,.72-.53,2,2,0,0,0,.43-.78,3.19,3.19,0,0,0,.14-.94v-.55Z" transform="translate(-21.95 -2187.15)"/><path class="cls-25" d="M312.73,2524.22a2,2,0,0,0-.65-.75,1.74,1.74,0,0,0-1-.27,2.57,2.57,0,0,0-.55.06,1.81,1.81,0,0,0-.52.2,1.2,1.2,0,0,0-.36.35.94.94,0,0,0-.14.52.87.87,0,0,0,.37.78,3.87,3.87,0,0,0,1.12.42l1.09.26a2.59,2.59,0,0,1,1.32.72,1.86,1.86,0,0,1,.53,1.35,2.08,2.08,0,0,1-.26,1.06,2.11,2.11,0,0,1-.66.73,2.71,2.71,0,0,1-.95.41,4.37,4.37,0,0,1-1.08.13,4,4,0,0,1-1.63-.33,3,3,0,0,1-1.29-1.14l.92-.63a2.57,2.57,0,0,0,.82.82,2.14,2.14,0,0,0,1.18.31,2.79,2.79,0,0,0,.64-.07,1.76,1.76,0,0,0,.58-.23,1.15,1.15,0,0,0,.4-.39,1,1,0,0,0,.16-.57.88.88,0,0,0-.42-.82,3.68,3.68,0,0,0-1-.4l-1-.24-.53-.16a2.9,2.9,0,0,1-.65-.34,2.2,2.2,0,0,1-.54-.59,1.72,1.72,0,0,1-.22-.9,2.08,2.08,0,0,1,.23-1,2.19,2.19,0,0,1,.63-.72,3.07,3.07,0,0,1,.9-.41,4,4,0,0,1,1-.14,3.58,3.58,0,0,1,1.47.31,2.2,2.2,0,0,1,1.06,1Z" transform="translate(-21.95 -2187.15)"/><path class="cls-25" d="M319.86,2523.39h-2.19v4.47a2.61,2.61,0,0,0,.08.69.94.94,0,0,0,.23.41.78.78,0,0,0,.35.21,2,2,0,0,0,.44,0,1.87,1.87,0,0,0,.57-.08,2.25,2.25,0,0,0,.53-.21l.05,1a3.49,3.49,0,0,1-1.44.27,2.44,2.44,0,0,1-.64-.08,1.51,1.51,0,0,1-.61-.3,1.84,1.84,0,0,1-.45-.62,2.45,2.45,0,0,1-.18-1v-4.78H315v-1h1.6v-2.14h1.07v2.14h2.19Z" transform="translate(-21.95 -2187.15)"/><path class="cls-25" d="M271.62,2537.5a.72.72,0,0,1-.25.56.76.76,0,0,1-1.07,0,.71.71,0,0,1-.24-.56.74.74,0,0,1,.24-.56.76.76,0,0,1,1.07,0A.75.75,0,0,1,271.62,2537.5Zm-.25,10.5H270.3v-7.58h1.07Z" transform="translate(-21.95 -2187.15)"/><path class="cls-25" d="M274.27,2542.1c0-.28,0-.56,0-.84l-.06-.84h1.15v1.15h0a2.57,2.57,0,0,1,1.08-1,3.18,3.18,0,0,1,1.37-.34,4.13,4.13,0,0,1,.66.07,2.42,2.42,0,0,1,.67.23,2.68,2.68,0,0,1,.61.48,2.77,2.77,0,0,1,.47.8,2.5,2.5,0,0,1,1-1.15,3.09,3.09,0,0,1,3.62.34,3.16,3.16,0,0,1,.7,2.2V2548h-1.07v-4.42a3.22,3.22,0,0,0-.4-1.77,1.69,1.69,0,0,0-1.51-.61,2,2,0,0,0-1,.23,2,2,0,0,0-.65.62,2.83,2.83,0,0,0-.37.89,4.93,4.93,0,0,0-.11,1v4h-1.07v-4.42a3.22,3.22,0,0,0-.4-1.77,1.68,1.68,0,0,0-1.51-.61l-.45.06a1.62,1.62,0,0,0-.72.36,2.5,2.5,0,0,0-.67.87,3.6,3.6,0,0,0-.3,1.62V2548h-1.07Z" transform="translate(-21.95 -2187.15)"/><path class="cls-25" d="M288.4,2540.42h1.07v1.26h0a2.6,2.6,0,0,1,.62-.66,3.38,3.38,0,0,1,.74-.46,3.9,3.9,0,0,1,.8-.25,3.75,3.75,0,0,1,.79-.09,4.34,4.34,0,0,1,1.63.3,3.8,3.8,0,0,1,1.27.84,3.89,3.89,0,0,1,.83,1.26,4.36,4.36,0,0,1,0,3.18,4,4,0,0,1-.83,1.26,3.78,3.78,0,0,1-1.27.83,4.34,4.34,0,0,1-1.63.3,3.71,3.71,0,0,1-.79-.08,3.4,3.4,0,0,1-.8-.26,3.33,3.33,0,0,1-.74-.45,2.6,2.6,0,0,1-.62-.66h0v5.93H288.4Zm6.92,3.79a3.25,3.25,0,0,0-.21-1.18,2.72,2.72,0,0,0-.57-1,2.78,2.78,0,0,0-.9-.64,2.84,2.84,0,0,0-1.19-.23,3,3,0,0,0-1.22.23,3.12,3.12,0,0,0-1,.64,2.86,2.86,0,0,0-.63,1,2.89,2.89,0,0,0-.23,1.18,2.92,2.92,0,0,0,.23,1.18,2.86,2.86,0,0,0,.63,1,3.12,3.12,0,0,0,1,.64,3.19,3.19,0,0,0,1.22.23,3,3,0,0,0,1.19-.23,2.78,2.78,0,0,0,.9-.64,2.72,2.72,0,0,0,.57-1A3.29,3.29,0,0,0,295.32,2544.21Z" transform="translate(-21.95 -2187.15)"/><path class="cls-25" d="M299.93,2548h-1.07v-12.25h1.07Z" transform="translate(-21.95 -2187.15)"/><path class="cls-25" d="M307.69,2543.35v-.19a1.72,1.72,0,0,0-1.94-2,3.32,3.32,0,0,0-2.32.89l-.65-.76a4.27,4.27,0,0,1,3.21-1.11,3.41,3.41,0,0,1,1.06.17,2.23,2.23,0,0,1,.88.49,2.43,2.43,0,0,1,.6.83,3,3,0,0,1,.23,1.2v3.39c0,.29,0,.6,0,.91s.06.58.09.79h-1c0-.18-.05-.38-.07-.6s0-.43,0-.63h0a2.82,2.82,0,0,1-1.11,1.09,3.33,3.33,0,0,1-1.56.33,3.49,3.49,0,0,1-1-.13,3,3,0,0,1-.84-.42,2.31,2.31,0,0,1-.58-.7,2.36,2.36,0,0,1,.26-2.42,2.91,2.91,0,0,1,1.2-.78,5.85,5.85,0,0,1,1.54-.32c.54-.05,1-.07,1.5-.07Zm-.55.88c-.27,0-.61,0-1,0a5.5,5.5,0,0,0-1.17.19,2.44,2.44,0,0,0-.95.48,1.06,1.06,0,0,0-.4.89,1.29,1.29,0,0,0,.15.64,1.36,1.36,0,0,0,.42.44,1.81,1.81,0,0,0,.57.24,2.73,2.73,0,0,0,.64.07,2.4,2.4,0,0,0,1-.19,2,2,0,0,0,.72-.53,2,2,0,0,0,.43-.78,2.89,2.89,0,0,0,.14-.94v-.55Z" transform="translate(-21.95 -2187.15)"/><path class="cls-25" d="M312.58,2540.42a4.17,4.17,0,0,1,0,.61c0,.2,0,.4,0,.6h0a2.36,2.36,0,0,1,.45-.56,3,3,0,0,1,.61-.45,3.58,3.58,0,0,1,.73-.29,3.16,3.16,0,0,1,2.9.66,3.16,3.16,0,0,1,.7,2.2V2548H317v-4.2a3.56,3.56,0,0,0-.44-1.93,1.78,1.78,0,0,0-1.62-.67l-.45.06a1.9,1.9,0,0,0-.79.36,2.48,2.48,0,0,0-.73.87,3.32,3.32,0,0,0-.33,1.62V2548h-1.07v-5.91c0-.21,0-.47,0-.78s0-.61-.06-.89Z" transform="translate(-21.95 -2187.15)"/><path class="cls-25" d="M324.82,2541.39h-2.19v4.47a2.61,2.61,0,0,0,.08.69.85.85,0,0,0,.23.41.75.75,0,0,0,.34.21,2.14,2.14,0,0,0,.45,0,2,2,0,0,0,.57-.08,2.25,2.25,0,0,0,.53-.21l.05,1a3.49,3.49,0,0,1-1.44.27,2.39,2.39,0,0,1-.64-.08,1.45,1.45,0,0,1-.61-.3,1.84,1.84,0,0,1-.45-.62,2.45,2.45,0,0,1-.18-1v-4.78H320v-1h1.6v-2.14h1.07v2.14h2.19Z" transform="translate(-21.95 -2187.15)"/><path class="cls-26" d="M267.36,2441.52c7.86,2.09,12.48,5.81,15.86,13.48,2.42,4.21,3.86,9.33,4.84,15h3.56c-.62-6.26-1.86-11.86-4.44-16.36-3.38-7.66-8.35-10.34-15.86-13.48-13.52-5.67-21.51-9.79-32.76-25.89-26.75-29.82-12.51-64.36-.73-84.32,2-3.34,39.24-58.07,47.35-69.84a116.61,116.61,0,0,0,10.22-21.23h-2.91c-1.06,2.84-2.17,5.54-3.33,8-43.82,77.31-107.84,117-41,184C248.19,2430.9,260.45,2439.68,267.36,2441.52Z" transform="translate(-21.95 -2187.15)"/><path class="cls-26" d="M115.44,2455c2.49,4.34,3.94,9.63,4.92,15.51h3.53c-.6-6.47-1.84-12.25-4.49-16.87-3.39-7.66-8.35-10.34-15.86-13.48-13.52-5.67-21.51-9.79-32.77-25.89-26.75-29.82-12.5-64.36-.72-84.32,2-3.34,39.24-58.07,47.35-69.84a117.27,117.27,0,0,0,10.22-21.23h-2.91c-1.07,2.84-2.18,5.54-3.34,8-43.82,77.31-107.83,117-41,184,0,0,12.26,8.78,19.18,10.62C107.43,2443.61,112.05,2447.33,115.44,2455Z" transform="translate(-21.95 -2187.15)"/></g></g></svg>