<?xml version="1.0" encoding="utf-8"?>
<!-- Generator: Adobe Illustrator 24.2.0, SVG Export Plug-In . SVG Version: 6.00 Build 0)  -->
<svg version="1.1" id="Layer_1" xmlns="http://www.w3.org/2000/svg" xmlns:xlink="http://www.w3.org/1999/xlink" x="0px" y="0px"
	 viewBox="0 0 365.4 367.7" style="enable-background:new 0 0 365.4 367.7;" xml:space="preserve">
<style type="text/css">
	.st0{fill-rule:evenodd;clip-rule:evenodd;fill:#BCBEC0;}
	.st1{fill:#E6E7E8;}
	.st2{fill:#FFFFFF;}
	.st3{opacity:6.000000e-02;}
	.st4{fill:#696766;}
	.st5{opacity:0.18;}
	.st6{opacity:0.1;}
	.st7{opacity:0.4;}
	.st8{opacity:0.75;}
	.st9{fill:none;}
	.st10{fill:#FF8300;}
	.st11{fill:#FF8D1E;}
	.st12{fill:#8B8E8F;}
	.st13{fill:none;stroke:#FF8300;stroke-width:0.83;}
	.st14{fill-rule:evenodd;clip-rule:evenodd;fill:#53575A;}
</style>
<path class="st0" d="M318.5,250.9c6.1,4.3,9.5,7.1,12.1,10.7c2.5,3.7,4.3,7.8,5.4,12.2c0.5,2,0.9,3.9,1.2,5.8h1.9
	c0.2-2,0.3-4.3,0.3-7c0.1-3.1,0-6.6-0.1-10.2c0.4,4,0.8,8,1.2,11.3c0.3,2.2,0.6,4,0.8,5.8h0.7c0.2-2.2,0.4-4.3,0.6-6.3
	c0.3-2.9,0.5-5.7,0.7-8.4c0.1,2.5,0.3,5.1,0.5,7.4s0.5,4.2,0.8,6.1c0.2-1.9,0.5-3.8,0.7-6.9s0.4-7.3,0.5-11.6c0.1,2.5,0.3,5,0.6,7.2
	s0.5,4.2,0.8,6.8c0.2,1.7,0.4,3.7,0.6,5.8h0.8c0.5-2.6,0.8-5.2,1-7.9c0.2-4.2,0.1-9.2,0.2-19.3s0.4-25.1,0.5-40.3
	s-0.1-30.8-0.3-46.6s-0.4-31.7-0.5-44.3s0.1-21.8,0.5-28.6s1-11.2,1.6-15.7c-1.5,1.7-3,3.4-5.4,6.5s-5.7,7.7-9,12.2
	c4.5-7.9,8.9-15.8,13.4-23.8c-5,7-10,14-14.3,20.1s-7.9,11.4-12,17.2s-8.7,12.3-12.3,16.9c-3.6,4.6-6.1,7.5-8.6,10.3
	c1.9-3.3,3.8-6.7,6.6-11s6.5-9.6,11.1-16.2s10.1-14.5,14.9-22s8.8-14.8,12.9-21.9c-5,7.3-10.1,14.6-14.7,21.3s-9,12.9-13.3,19.1
	c4.3-7.1,8.7-14.3,13.1-21.5s8.6-14.5,12.9-21.8c-3.1,4.2-6.3,8.4-9.8,13.6s-7.4,11.3-11,16.8s-7,10.2-11.1,16s-8.9,12.6-13.7,19.9
	s-9.8,14.8-13.4,21.4c-3.2,5.4-5.8,11.1-7.8,17c-1.5,4.8-2.5,9.7-2.8,14.7c-0.4,4.5-0.2,9.1,0.4,13.5c0.6,3.5,1.6,6.9,3,10.2
	c1.2,2.9,2.6,5.7,4.3,8.4c1.7,2.9,3.9,6.1,6,9.2c-3.4-3.9-6.6-8-9.5-12.3c-4.7-7.4-7.3-16-7.5-24.9c0.1-5.2,0.9-10.3,2.4-15.3
	c1.8-5.6,4.1-11,6.9-16.2c2.9-5.5,6.4-10.9,12.4-19.9s14.5-21.4,21.7-32.2s13.4-20,18.4-27.5s8.7-13.6,12.5-19.5
	c-1.9,1.6-3.6,3.4-5.1,5.4c-2.4,3.1-5.9,8.2-12.6,17.9S314.2,103,307,113.4s-11.9,17-16.6,24.2c-4.6,7-8.8,14.1-12.6,21.5
	c-2.4,4.7-4.2,9.7-5.4,14.9c-1,4.2-1.5,8.4-1.5,12.7c0.1,4.1,0.7,8.2,1.9,12.1c1.3,3.7,2.8,7.3,4.6,10.8c-1.2-2.2-2.5-4.3-3.7-6.6
	c-1.6-2.6-2.7-5.5-3.3-8.5c-0.9-4.8-1.1-9.7-0.6-14.6c0.6-5.5,2-10.9,4.2-16c2.7-6.4,5.9-12.6,9.4-18.5c4.1-7,9-14.9,15.2-24.1
	s13.6-19.5,20.9-30.2S334,69.7,338.2,63c2.5-3.8,4.7-7.7,6.5-11.8c-9.1,12.8-18.2,25.5-28.1,39.4c-9.4,13.2-19.4,27.5-27.3,39.7
	l-1.7,2.6c-7.8,12-13.3,21.6-16.6,29.3c-2.8,6.1-4.5,12.6-5.1,19.2c-0.6,5.6,0,11.3,1.8,16.7c2.3,6.7,5.7,13,10.1,18.6
	c5.4,6.8,11.5,12.8,18.4,18.1C303.7,240.7,312.5,246.6,318.5,250.9z"/>
<path class="st0" d="M54.1,84.8c0.2,4.3,0.4,8.6,0.7,19.1s0.5,27.2,0.3,45s-1,36.8-2,51.2s-2.2,24.6-3.3,34.7
	c0.3-11.7,0.5-23.3,1.1-36s1.4-26.3,1.8-39.9s0.3-27.3,0.4-39.7S53.6,95.8,54.1,84.8"/>
<path class="st0" d="M48,226.7c0.2-2.1,0.4-4.2,0.7-9.4s0.6-13.6,0.9-21.6s0.4-15.6,0.6-27.2s0.4-27.2,0.7-40.2s0.8-23.4,1.2-33.8
	c-0.9,5.3-1.8,10.6-2.8,16.6s-2.2,12.6-3.5,18.4s-2.8,10.6-4.1,15.5c-1.3,4.7-2.3,9.6-3,14.4c-0.6,3.9-0.8,7.9-0.8,11.8
	c0.1,4.8,0.5,9.6,1.2,14.3c0.9,6.1,2.4,13.8,3.8,21.6c-1.3-4.5-2.6-9-3.7-14.2c-1.1-5.3-1.9-10.6-2.4-15.9
	c-0.5-4.6-0.4-9.3,0.2-13.9c0.9-6.2,2.1-12.3,3.6-18.4c1.8-7.6,4.2-17,5.8-24.1s2.4-12.1,2.9-15.6c0.3-2.4,0.5-4.8,0.4-7.2
	c-1.1,6.2-2.2,12.4-4.2,21.4s-4.9,20.9-7,29.6s-3.1,14.5-3.4,20.5c-0.1,5.8,0.3,11.6,1.2,17.3c0.8,4.7,1.8,9.3,3,13.9
	c1.2,4.6,2.7,9.8,3.8,13.8s2,7.2,2.8,10.3c-0.3-4.6-0.6-9.2-0.9-14.2s-0.4-10.3-0.7-15.8s-1-11.1-1.3-16c-0.4-4.2-0.6-8.5-0.5-12.8
	c0.1-3.4,0.4-6.8,0.9-10.2c0.4-2.7,0.8-4.6,1.1-6.4c0,7.5,0.1,15,0.2,21s0.3,10.7,0.6,17.3s0.7,15,1.1,23.6
	c0.2-10.9,0.3-21.8,0.4-30.5s0.2-15.5,0.1-22.4s-0.4-14.1-0.7-21.2c-1.7,6.4-3.5,12.9-4.5,18.7c-1,5.9-1.4,11.9-1,17.9
	c0.3,6.9,1.3,15.6,2.2,24.2c-1-6.9-2-13.8-2.5-19.5c-0.5-4.9-0.6-9.9-0.2-14.8c0.4-5.2,1.3-10.3,2.5-15.4c1.5-6.5,3.8-15,6-23.5
	c-0.3,12.3-0.5,24.5-0.7,36.7s-0.1,24.2-0.1,35S48,217.1,48,226.7"/>
<polygon class="st0" points="347.6,264.4 352.9,225.5 355.6,81.1 347.6,94.5 "/>
<path class="st0" d="M337.3,88.5v176c-1.2-4.2-2.3-8.4-2.9-22.5s-0.4-38.2,0-62.4s1-48.5,1.6-63.7S337,94.6,337.3,88.5"/>
<path class="st0" d="M353.1,268.8c0.7-8.8,1.5-17.6,1.9-29.3s0.5-26.2,1.1-53.5s1.6-67.5,2.7-107.7c-0.7,7.3-1.4,14.7-2.1,26.5
	s-1.4,28.1-2.2,52.9s-1.8,57.9-2,77.8S352.7,262.1,353.1,268.8"/>
<path class="st1" d="M346,216.1c0,0,0.4,10.9-2.8,14.3c0,0-5.8,7.7-8.1,6.4c-0.8-0.8-1.5-1.7-2-2.8l7.4-14.8L346,216.1z"/>
<path class="st1" d="M342.7,124.9c0,0,0.8-12.5-5.5-14.7c0,0-2.7,0.1-3.5,2.2l0.5,4.2l7.5,9.5L342.7,124.9z"/>
<path class="st2" d="M323.1,240.4c0,0,16.1-3.6,26.6-33c0,0,8.5-24.1,1.6-57.6c0,0-7.4-32.5-19.5-38.9c0,0-9-4.7-15.5,2.2
	c0,0-7.6,10.8-9.7,14.4c0,0-17.5,23.3-21.4,35c0,0-3.9,8.8-4,16.8c0,0-3.8,32.4,23.5,55.1C304.6,234.5,313.6,242.8,323.1,240.4"/>
<g class="st3">
	<g>
		<g>
			<g>
				<g>
					<path class="st4" d="M340.4,220.1c0,0,26.4-32.9,0.4-95.9c0,0-5.1-12.2-11.2,0c0,0-21,26.5-13.1,65.2c0,0,4.2,24.3,9.2,31.3
						C325.7,220.7,331.2,231.7,340.4,220.1"/>
				</g>
			</g>
		</g>
	</g>
</g>
<g class="st5">
	<g>
		<g>
			<g>
				<path class="st4" d="M300.1,140.8c4.9-8,11.1-13.1,13.9-11.4s1.2,9.6-3.7,17.6s-11.1,13.1-13.9,11.4S295.3,148.8,300.1,140.8"/>
			</g>
		</g>
	</g>
</g>
<path class="st2" d="M317.3,114.3c0.4,0,0.8,0.1,1.1,0.3c9.1,5.1,9.7,22,9.7,27c0,1.1-0.1,2.1-0.3,3.2
	c-4.5,18.9-22.6,29.1-22.8,29.2c-6.9,4.1-12.6,6.2-17,6.2s-6-2.2-6.2-2.6c-0.5-9.9,8.7-25.2,8.8-25.3c4.5-6.9,19.9-29.7,24.5-36.5
	C315.4,114.9,316.3,114.4,317.3,114.3 M317.3,113.9c-1.1,0.1-2.1,0.7-2.6,1.7c-4.9,7.2-20,29.6-24.5,36.5c0,0-9.4,15.5-8.8,25.6
	c0,0,1.4,2.9,6.6,2.9c3.6,0,9.1-1.4,17.2-6.3c0,0,18.4-10.2,23-29.4c0.2-1.1,0.4-2.2,0.4-3.3c0-5.6-0.6-22.2-9.9-27.3
	C318.2,114,317.7,113.9,317.3,113.9"/>
<g class="st6">
	<g>
		<g>
			<g>
				<g>
					<path class="st4" d="M328.4,143.4c0,0,1.5-26-12.1-30.1c0,0-20.7,30.5-26.1,38.8c0,0-9.4,15.5-8.8,25.6c0,0,4.1,8.4,23.8-3.4
						C305.1,174.3,324.4,163.6,328.4,143.4"/>
				</g>
			</g>
		</g>
	</g>
</g>
<g class="st7">
	<g>
		<g>
			<g>
				<g>
					<path class="st2" d="M316.4,113.7c12.9,4.2,11.6,29.4,11.6,29.6c-3.9,19.8-22.9,30.6-23.1,30.7c-6.9,4.1-12.6,6.2-17,6.2
						s-6-2.2-6.2-2.6c-0.5-9.9,8.7-25.1,8.8-25.3C295.5,144.4,314.5,116.5,316.4,113.7 M316.2,113.3c0,0-20.7,30.5-26.1,38.8
						c0,0-9.4,15.4-8.8,25.6c0,0,1.4,2.9,6.6,2.9c3.6,0,9.1-1.4,17.2-6.3c0,0,19.3-10.7,23.3-30.9
						C328.4,143.4,329.9,117.4,316.2,113.3"/>
				</g>
			</g>
		</g>
	</g>
</g>
<path class="st0" d="M191,92.3v168.7c-1.2-4-2.3-8.1-2.9-21.6s-0.4-36.6,0-59.8s1-46.5,1.6-61.1S190.6,98.2,191,92.3"/>
<path class="st0" d="M183.8,269.2c0.7-8.5,1.5-16.9,1.9-28.1s0.6-25.1,1.1-51.3s1.6-64.7,2.7-103.2c-0.7,7-1.4,14.1-2.1,25.4
	s-1.4,27-2.2,50.7s-1.8,55.5-2,74.6S183.4,262.8,183.8,269.2"/>
<path class="st0" d="M145.4,132.2c-5.3,11-9.1,19.8-11.4,26.8c-2,5.8-3.3,11.8-3.8,17.9c-0.5,5.3-0.4,10.6,0.6,15.9
	c1.1,6.2,3.1,12.3,5.7,18c3,6.4,6.6,12.4,10.9,18c4.5,6,9.8,11.9,13.4,16.4s5.7,7.2,7.2,10.7c1.5,3.8,2.5,7.8,2.9,11.8
	c0.6,4.1,0.7,8,0.9,12c0.2-1.6,0.5-3.2,0.8-5.2s0.4-4.7,0.6-7.6s0.2-6.3,0.3-9.6c0.1,3.8,0.2,7.6,0.4,10.8s0.3,5.8,0.5,8.3
	c0.3-2.9,0.6-5.9,0.9-8.7s0.5-5.3,0.7-7.9c0,2.4,0,4.9,0.1,7s0.2,4,0.3,5.8c0.2-1.8,0.4-3.5,0.7-6.5s0.5-6.9,0.7-10.9
	c0,2.4,0,4.7,0.1,6.8s0.1,4,0.2,6.4s0.2,5.2,0.3,8.1c0.5-3,1-6,1.3-10s0.4-8.7,0.8-18.2s1.1-23.6,1.6-38.1s1-29.1,1.4-44
	s0.8-30,1.2-41.8s0.8-20.5,1.3-26.9s1.1-10.6,1.6-14.8c-1,1.6-2,3-3.6,5.9s-3.8,7-6.1,11.1c3.1-7.2,6.1-14.5,9.2-21.8
	c-3.4,6.3-6.8,12.7-9.6,18.2s-5.3,10.3-8.1,15.7s-5.9,11.2-8.3,15.3c-2.4,4.2-4.1,6.7-5.8,9.3c1.3-3,2.6-6.1,4.5-10
	s4.4-8.7,7.5-14.7s6.8-13.2,10.1-20s6-13.5,8.8-20c-3.4,6.6-6.8,13.2-9.9,19.3s-6.1,11.7-9,17.3c3-6.5,5.9-13,8.9-19.6
	s5.9-13.3,8.8-20c-2.1,3.8-4.2,7.6-6.6,12.3s-5,10.3-7.5,15.3s-4.7,9.3-7.5,14.6s-6,11.4-9.3,18c-3.3,6.6-6.6,13.5-9.1,19.5
	c-2.2,5-4,10.3-5.4,15.6c-2.1,8.7-3,17.6-2.5,26.6c0.2,3.3,0.7,6.6,1.5,9.8c0.6,2.8,1.5,5.5,2.4,8.2c1,2.8,2.2,5.9,3.5,9
	c-2.1-3.9-3.9-7.9-5.6-12.1c-1.4-3.7-2.4-7.6-3-11.6c-0.7-4.1-1-8.2-0.9-12.4c0.2-4.8,0.9-9.6,2-14.3c1.2-5.1,2.9-10.1,4.9-14.9
	c2-5,4.4-10,8.4-18.1s9.8-19.5,14.7-29.3s9.1-18.2,12.5-25.1s5.9-12.4,8.5-17.8c-1.3,1.5-2.4,3.1-3.4,4.8c-1.6,2.8-4,7.4-8.5,16.3
	s-11.1,22.1-16,31.6s-8,15.4-11.2,22s-6.5,14-8.6,19.7c-1.7,4.5-3,9.1-3.9,13.8c-0.8,3.9-1.3,7.9-1.4,11.9
	c-0.1,3.9,0.2,7.7,0.8,11.5c0.6,3.5,1.5,7,2.5,10.4c-0.7-2.1-1.4-4.2-2.1-6.4c-0.9-2.7-1.5-5.4-1.8-8.2c-0.4-4.6-0.4-9.2,0.1-13.8
	c0.5-5.1,1.6-10.1,3.2-14.9c1.9-5.8,4.1-11.5,6.5-17c2.8-6.4,6.1-13.7,10.3-22s9.2-17.8,14.1-27.4s9.8-19.5,12.7-25.6
	c1.7-3.5,3.2-7.1,4.6-10.8c-6.1,11.6-12.3,23.2-18.9,35.8c-6.3,12-13.1,25-18.4,36.1"/>
<path class="st1" d="M181.9,213.7c0,0,0.5,9-3.2,11.8c0,0-6.6,6.3-9.2,5.3c-0.9-0.6-1.7-1.4-2.2-2.3l8.4-12.2L181.9,213.7z"/>
<path class="st1" d="M179.7,135.2c0,0,1-10.3-6.2-12.1c0,0-3.1,0-4,1.8l0.5,3.4l8.6,7.8L179.7,135.2z"/>
<path class="st2" d="M168.2,230.6c0,0,10.4-3,17.1-27.2c0,0,5.5-19.9,1-47.5c0,0-4.7-26.8-12.6-32.1c0,0-5.8-3.9-10,1.8
	c0,0-4.9,8.9-6.2,11.9c0,0-11.3,19.3-13.8,28.9c-1.5,4.5-2.3,9.1-2.6,13.8c0,0-2.4,26.7,15.1,45.5
	C156.3,225.7,162.1,232.5,168.2,230.6"/>
<g class="st3">
	<g>
		<g>
			<g>
				<g>
					<path class="st4" d="M175,213.5c0,0,28.4-27.3,0.8-79.1c0,0-5.4-10-12,0.1c0,0-22.5,22.1-14.3,53.9c0,0,4.4,20,9.7,25.7
						C159.2,214.2,165.1,223.2,175,213.5"/>
				</g>
			</g>
		</g>
	</g>
</g>
<g class="st6">
	<g>
		<g>
			<g>
				<g>
					<path class="st4" d="M171.6,150.4c0,0,1-21.5-7.8-24.9c0,0-13.3,25.2-16.8,32c0,0-6,12.8-5.7,21.1c0,0,2.6,6.9,15.3-2.8
						C164.7,169.6,170,160.5,171.6,150.4"/>
				</g>
			</g>
		</g>
	</g>
</g>
<g class="st7">
	<g>
		<g>
			<g>
				<g>
					<path class="st2" d="M164,125.9c8.3,3.6,7.4,24.3,7.4,24.5c-1.7,10-7,19-14.9,25.3c-4.4,3.4-8.1,5.1-10.9,5.1
						c-1.7,0.2-3.2-0.7-4-2.2c-0.3-8.2,5.6-20.8,5.6-21C150.5,151.2,162.7,128.3,164,125.9 M163.9,125.5c0,0-13.4,25.2-16.8,32
						c0,0-6,12.8-5.7,21.1c0.8,1.6,2.5,2.6,4.2,2.4c2.3,0,5.8-1.2,11.1-5.2c8-6.3,13.4-15.4,15-25.5
						C171.7,150.3,172.7,128.9,163.9,125.5"/>
				</g>
			</g>
		</g>
	</g>
</g>
<g class="st5">
	<g>
		<g>
			<g>
				<g>
					<path class="st4" d="M153,149.2c3-6.7,7.1-11.4,9.1-10.5s1.3,7.1-1.7,13.8s-7.1,11.4-9.1,10.5S150,155.9,153,149.2"/>
				</g>
			</g>
		</g>
	</g>
</g>
<g class="st8">
	<g>
		<g>
			<g>
				<g>
					<path class="st1" d="M153.6,149.1c2.7-5.7,6.2-9.8,7.7-9.1s0.6,6-2.2,11.7s-6.2,9.8-7.7,9.1S150.9,154.8,153.6,149.1"/>
				</g>
			</g>
		</g>
	</g>
</g>
<path class="st2" d="M164.6,126.4c0.3,0,0.5,0.1,0.7,0.2c5.9,4.4,6.2,18.4,6.1,22.7c0,0.7-0.1,1.3-0.2,1.9
	c-1.8,9.6-7.1,18.3-14.7,24.4c-4.4,3.4-8.1,5.1-10.9,5.1c-1.7,0.2-3.2-0.7-4-2.2c-0.3-8.2,5.6-20.8,5.6-20.9
	c2.9-5.7,12.7-24.4,15.7-30C163.4,126.9,164,126.4,164.6,126.4 M164.5,126.1c-0.7,0-1.3,0.5-1.8,1.5c-3.2,6.1-12.9,24.3-15.7,30
	c0,0-6,12.8-5.7,21.1c0.8,1.6,2.5,2.6,4.2,2.4c2.3,0,5.8-1.2,11.1-5.2c7.8-6.1,13-14.9,14.8-24.6c0.1-0.7,0.2-1.3,0.2-2
	c0.1-4.1-0.2-18.4-6.2-22.9C165.1,126.3,164.8,126.1,164.5,126.1"/>
<polyline class="st9" points="12.7,280 363,280 363,48.8 12.7,48.8 "/>
<polygon class="st10" points="172.6,28.4 6.7,28.4 6.7,56.8 7.4,56.8 7.4,29.1 172.6,29.1 "/>
<polygon class="st10" points="200.7,28.4 200.7,29.1 364.6,29.1 364.6,56.8 365.4,56.8 365.4,28.4 "/>
<path class="st11" d="M181.4,35.7c0.6-0.1,1.2-0.3,1.6-0.7c0.4-0.3,0.7-0.8,0.9-1.3c0.2-0.7,0.3-1.5,0.3-2.3v-22
	c0.1-1.2-0.2-2.4-0.9-3.4c-0.9-0.7-2-1-3.1-1h-0.4V4.6h0.8c0.5,0,1.1-0.1,1.8-0.2c0.8-0.1,1.5-0.3,2.3-0.7c0.8-0.3,1.5-0.8,2.1-1.4
	c0.7-0.7,1.2-1.5,1.5-2.4l0.1,0.1V0h0.8v30.6c0,0.1,0,0.2,0,0.4c0,0.1,0,0.3,0,0.4c0,0.7,0,1.4,0.2,2.1c0.1,0.5,0.3,0.9,0.6,1.3
	c0.3,0.4,0.8,0.6,1.2,0.8c0.6,0.2,1.3,0.3,1.9,0.3h1.4v0.3h-15.6v-0.3C179.6,35.8,180.5,35.8,181.4,35.7z"/>
<path class="st12" d="M230.5,338.4h-2.2v4.5c0,0.2,0,0.5,0.1,0.7c0,0.2,0.1,0.3,0.2,0.4c0.1,0.1,0.2,0.2,0.4,0.2c0.1,0,0.3,0,0.4,0
	c0.2,0,0.4,0,0.6-0.1c0.2,0,0.4-0.1,0.5-0.2v1c-0.5,0.2-0.9,0.3-1.4,0.3c-0.2,0-0.4,0-0.6-0.1c-0.2-0.1-0.4-0.2-0.6-0.3
	c-0.2-0.2-0.4-0.4-0.5-0.6c-0.1-0.3-0.2-0.7-0.2-1v-4.8h-1.6v-1h1.6v-2.1h1.1v2.1h2.2L230.5,338.4z"/>
<path class="st12" d="M233.8,334.5c0,0.2-0.1,0.4-0.2,0.6c-0.1,0.1-0.3,0.2-0.5,0.2c-0.2,0-0.4-0.1-0.5-0.2c-0.3-0.3-0.3-0.8,0-1.1
	c0,0,0,0,0,0c0.1-0.1,0.3-0.2,0.5-0.2c0.2,0,0.4,0.1,0.5,0.2C233.8,334.1,233.8,334.3,233.8,334.5z M233.6,345h-1.1v-7.6h1.1V345z"
	/>
<path class="st12" d="M240.5,339.3c-0.2-0.3-0.4-0.6-0.6-0.8c-0.3-0.2-0.6-0.3-1-0.3c-0.2,0-0.4,0-0.6,0.1c-0.2,0-0.4,0.1-0.5,0.2
	c-0.2,0.1-0.3,0.2-0.4,0.3c-0.1,0.2-0.1,0.3-0.1,0.5c0,0.3,0.1,0.6,0.4,0.8c0.3,0.2,0.7,0.3,1.1,0.4l1.1,0.3c0.5,0.1,1,0.4,1.3,0.7
	c0.4,0.4,0.5,0.8,0.5,1.4c0,0.4-0.1,0.7-0.2,1.1c-0.2,0.3-0.4,0.5-0.7,0.7c-0.3,0.2-0.6,0.3-0.9,0.4c-0.4,0.1-0.7,0.1-1.1,0.1
	c-0.6,0-1.1-0.1-1.6-0.3c-0.5-0.2-1-0.6-1.3-1.1l0.9-0.6c0.2,0.3,0.5,0.6,0.8,0.8c0.4,0.2,0.8,0.3,1.2,0.3c0.2,0,0.4,0,0.6-0.1
	c0.2,0,0.4-0.1,0.6-0.2c0.2-0.1,0.3-0.2,0.4-0.4c0.1-0.2,0.2-0.4,0.1-0.6c0-0.3-0.1-0.6-0.4-0.8c-0.3-0.2-0.6-0.3-1-0.4l-1-0.2
	c-0.2,0-0.4-0.1-0.5-0.2c-0.5-0.2-0.9-0.5-1.2-0.9c-0.2-0.3-0.2-0.6-0.2-0.9c0-0.3,0.1-0.7,0.2-1c0.2-0.3,0.4-0.5,0.6-0.7
	c0.3-0.2,0.6-0.3,0.9-0.4c0.3-0.1,0.7-0.1,1-0.1c0.5,0,1,0.1,1.5,0.3c0.5,0.2,0.8,0.6,1.1,1.1L240.5,339.3z"/>
<path class="st12" d="M247.7,339.3c-0.2-0.3-0.4-0.6-0.6-0.8c-0.3-0.2-0.6-0.3-1-0.3c-0.2,0-0.4,0-0.6,0.1c-0.2,0-0.4,0.1-0.5,0.2
	c-0.2,0.1-0.3,0.2-0.4,0.3c-0.1,0.2-0.1,0.3-0.1,0.5c0,0.3,0.1,0.6,0.4,0.8c0.3,0.2,0.7,0.3,1.1,0.4l1.1,0.3c0.5,0.1,1,0.4,1.3,0.7
	c0.4,0.4,0.5,0.8,0.5,1.4c0,0.4-0.1,0.7-0.3,1.1c-0.2,0.3-0.4,0.5-0.7,0.7c-0.3,0.2-0.6,0.3-1,0.4c-0.4,0.1-0.7,0.1-1.1,0.1
	c-0.6,0-1.1-0.1-1.6-0.3c-0.5-0.2-1-0.6-1.3-1.1l0.9-0.6c0.2,0.3,0.5,0.6,0.8,0.8c0.4,0.2,0.8,0.3,1.2,0.3c0.2,0,0.4,0,0.6-0.1
	c0.2,0,0.4-0.1,0.6-0.2c0.2-0.1,0.3-0.2,0.4-0.4c0.1-0.2,0.2-0.4,0.1-0.6c0-0.3-0.1-0.6-0.4-0.8c-0.3-0.2-0.6-0.3-1-0.4l-1-0.2
	c-0.2,0-0.4-0.1-0.5-0.2c-0.2-0.1-0.4-0.2-0.6-0.3c-0.2-0.2-0.4-0.4-0.6-0.6c-0.2-0.3-0.2-0.6-0.2-0.9c0-0.3,0.1-0.7,0.2-1
	c0.2-0.3,0.4-0.5,0.6-0.7c0.3-0.2,0.6-0.3,0.9-0.4c0.3-0.1,0.7-0.1,1-0.1c0.5,0,1,0.1,1.5,0.3c0.5,0.2,0.8,0.6,1.1,1.1L247.7,339.3z
	"/>
<path class="st12" d="M256.4,345c0-0.2,0-0.4,0-0.6s0-0.4,0-0.6l0,0c-0.1,0.2-0.3,0.4-0.4,0.6c-0.2,0.2-0.4,0.3-0.6,0.5
	c-0.2,0.1-0.5,0.2-0.7,0.3c-1,0.3-2.1,0-2.9-0.7c-0.5-0.6-0.7-1.4-0.7-2.2v-4.8h1v4.2c0,0.4,0,0.7,0.1,1.1c0.1,0.3,0.2,0.6,0.3,0.8
	c0.2,0.2,0.4,0.4,0.6,0.5c0.3,0.1,0.7,0.2,1,0.2l0.5-0.1c0.3-0.1,0.6-0.2,0.8-0.4c0.3-0.2,0.5-0.5,0.7-0.9c0.2-0.5,0.4-1.1,0.3-1.6
	v-3.9h1.1v5.9c0,0.2,0,0.5,0,0.8c0,0.3,0,0.6,0,0.9L256.4,345z"/>
<path class="st12" d="M261,341.5c0,0.4,0.1,0.7,0.3,1.1c0.1,0.3,0.3,0.6,0.6,0.9c0.3,0.2,0.5,0.4,0.9,0.6c0.3,0.1,0.7,0.2,1,0.2
	c0.5,0,1-0.1,1.5-0.4c0.4-0.2,0.7-0.5,0.9-0.9l0.8,0.7c-0.4,0.5-0.9,1-1.5,1.2c-0.6,0.3-1.2,0.4-1.8,0.4c-0.5,0-1.1-0.1-1.6-0.3
	c-0.5-0.2-0.9-0.5-1.2-0.8c-0.4-0.4-0.6-0.8-0.8-1.3c-0.4-1-0.4-2.2,0-3.2c0.2-0.5,0.5-0.9,0.8-1.3c0.3-0.4,0.8-0.6,1.2-0.8
	c1-0.4,2.1-0.4,3,0c0.4,0.2,0.8,0.5,1.1,0.8c0.3,0.3,0.6,0.8,0.7,1.2c0.2,0.5,0.3,1,0.2,1.5v0.5L261,341.5z M266.1,340.7
	c0-0.7-0.2-1.3-0.6-1.8c-0.5-0.5-1.1-0.7-1.8-0.7c-0.3,0-0.7,0.1-1,0.2c-0.3,0.1-0.6,0.3-0.9,0.5c-0.2,0.2-0.4,0.5-0.6,0.8
	c-0.1,0.3-0.2,0.6-0.2,0.9H266.1z"/>
<path class="st12" d="M213.3,359.5c0,0.4,0.1,0.7,0.3,1.1c0.1,0.3,0.3,0.6,0.6,0.9c0.3,0.2,0.5,0.4,0.9,0.6c0.3,0.1,0.7,0.2,1.1,0.2
	c0.5,0,1-0.1,1.5-0.4c0.4-0.2,0.7-0.5,0.9-0.9l0.8,0.7c-0.4,0.5-0.9,1-1.5,1.2c-0.6,0.3-1.2,0.4-1.8,0.4c-0.5,0-1.1-0.1-1.6-0.3
	c-0.5-0.2-0.9-0.5-1.2-0.8c-0.4-0.4-0.6-0.8-0.8-1.3c-0.2-0.5-0.3-1-0.3-1.6c0-0.5,0.1-1.1,0.3-1.6c0.2-0.5,0.5-0.9,0.8-1.3
	c0.7-0.7,1.7-1.1,2.7-1.1c0.5,0,1,0.1,1.5,0.3c0.4,0.2,0.8,0.5,1.1,0.8c0.3,0.3,0.6,0.8,0.7,1.2c0.2,0.5,0.2,1,0.2,1.5v0.5H213.3z
	 M218.5,358.7c0-0.7-0.2-1.3-0.6-1.8c-0.5-0.5-1.1-0.7-1.8-0.7c-0.3,0-0.7,0.1-1,0.2c-0.3,0.1-0.6,0.3-0.9,0.5
	c-0.2,0.2-0.4,0.5-0.6,0.8c-0.1,0.3-0.2,0.6-0.2,0.9H218.5z"/>
<path class="st12" d="M223.9,359l-2.8-3.5h1.5l2.1,2.8l2-2.8h1.3l-2.6,3.5l3.2,4h-1.4l-2.6-3.3l-2.4,3.3h-1.4L223.9,359z"/>
<path class="st12" d="M230.1,355.5h1.1v1.3l0,0c0.2-0.3,0.4-0.5,0.6-0.7c0.2-0.2,0.5-0.3,0.8-0.5c0.3-0.1,0.5-0.2,0.8-0.3
	c0.3-0.1,0.5-0.1,0.8-0.1c0.6,0,1.1,0.1,1.6,0.3c0.5,0.2,0.9,0.5,1.3,0.8c0.4,0.4,0.6,0.8,0.8,1.3c0.4,1,0.4,2.2,0,3.2
	c-0.2,0.5-0.5,0.9-0.8,1.3c-0.4,0.4-0.8,0.7-1.3,0.8c-0.5,0.2-1.1,0.3-1.6,0.3c-0.3,0-0.5,0-0.8-0.1c-0.3-0.1-0.5-0.1-0.8-0.3
	c-0.3-0.1-0.5-0.3-0.8-0.5c-0.2-0.2-0.4-0.4-0.6-0.7l0,0v5.9h-1.1V355.5z M237,359.3c0-0.4-0.1-0.8-0.2-1.2c-0.1-0.4-0.3-0.7-0.6-1
	c-0.3-0.3-0.6-0.5-0.9-0.6c-0.4-0.2-0.8-0.2-1.2-0.2c-0.4,0-0.8,0.1-1.2,0.2c-0.4,0.1-0.7,0.4-0.9,0.6c-0.3,0.3-0.5,0.6-0.6,1
	c-0.1,0.4-0.2,0.8-0.2,1.2c0,0.4,0.1,0.8,0.2,1.2c0.1,0.4,0.4,0.7,0.6,1c0.3,0.3,0.6,0.5,0.9,0.6c0.4,0.2,0.8,0.2,1.2,0.2
	c0.4,0,0.8-0.1,1.2-0.2c0.3-0.2,0.6-0.4,0.9-0.6c0.3-0.3,0.4-0.6,0.6-1C236.9,360.1,237,359.7,237,359.3L237,359.3z"/>
<path class="st12" d="M245.1,358.4v-0.2c0.2-0.9-0.5-1.8-1.4-2c-0.2,0-0.4,0-0.5,0c-0.9,0-1.7,0.3-2.3,0.9l-0.6-0.8
	c0.9-0.8,2-1.2,3.2-1.1c0.4,0,0.7,0.1,1.1,0.2c0.3,0.1,0.6,0.3,0.9,0.5c0.3,0.2,0.5,0.5,0.6,0.8c0.2,0.4,0.2,0.8,0.2,1.2v3.4
	c0,0.3,0,0.6,0,0.9c0,0.3,0,0.5,0.1,0.8h-1c0-0.2-0.1-0.4-0.1-0.6c0-0.2,0-0.4,0-0.6l0,0c-0.3,0.5-0.6,0.8-1.1,1.1
	c-0.5,0.2-1,0.4-1.6,0.3c-0.3,0-0.7,0-1-0.1c-0.3-0.1-0.6-0.2-0.8-0.4c-0.2-0.2-0.4-0.4-0.6-0.7c-0.2-0.3-0.2-0.7-0.2-1
	c0-0.5,0.1-1,0.5-1.5c0.3-0.4,0.7-0.6,1.2-0.8c0.5-0.2,1-0.3,1.5-0.3c0.6,0,1.1-0.1,1.5-0.1L245.1,358.4z M244.6,359.3
	c-0.3,0-0.6,0-1,0c-0.4,0-0.8,0.1-1.2,0.2c-0.4,0.1-0.7,0.3-1,0.5c-0.3,0.2-0.4,0.5-0.4,0.9c0,0.2,0,0.4,0.1,0.6
	c0.1,0.2,0.2,0.3,0.4,0.4c0.2,0.1,0.4,0.2,0.6,0.2c0.2,0,0.4,0.1,0.6,0.1c0.3,0,0.7-0.1,1-0.2c0.3-0.1,0.5-0.3,0.7-0.5
	c0.2-0.2,0.3-0.5,0.4-0.8c0.1-0.3,0.1-0.6,0.1-1v-0.5L244.6,359.3z"/>
<path class="st12" d="M250,355.5c0,0.2,0,0.4,0,0.6s0,0.4,0,0.6l0,0c0.1-0.2,0.3-0.4,0.4-0.6c0.2-0.2,0.4-0.3,0.6-0.5
	c0.2-0.1,0.5-0.2,0.7-0.3c1-0.3,2.1,0,2.9,0.7c0.5,0.6,0.7,1.4,0.7,2.2v4.8h-1.1v-4.2c0-0.7-0.1-1.3-0.4-1.9c-0.4-0.5-1-0.7-1.6-0.7
	l-0.5,0.1c-0.3,0.1-0.5,0.2-0.8,0.4c-0.3,0.2-0.6,0.5-0.7,0.9c-0.2,0.5-0.3,1.1-0.3,1.6v3.9h-1v-5.9c0-0.2,0-0.5,0-0.8
	c0-0.3,0-0.6,0-0.9L250,355.5z"/>
<path class="st12" d="M265.9,363h-1.1v-1.3l0,0c-0.2,0.3-0.4,0.5-0.6,0.7c-0.2,0.2-0.5,0.3-0.8,0.5c-0.3,0.1-0.5,0.2-0.8,0.3
	c-0.3,0.1-0.5,0.1-0.8,0.1c-0.6,0-1.1-0.1-1.6-0.3c-0.5-0.2-0.9-0.5-1.3-0.8c-0.4-0.4-0.6-0.8-0.8-1.3c-0.4-1-0.4-2.2,0-3.2
	c0.2-0.5,0.5-0.9,0.8-1.3c0.4-0.4,0.8-0.6,1.3-0.8c0.5-0.2,1.1-0.3,1.6-0.3c0.3,0,0.5,0,0.8,0.1c0.3,0.1,0.5,0.1,0.8,0.3
	c0.3,0.1,0.5,0.3,0.8,0.5c0.2,0.2,0.4,0.4,0.6,0.7l0,0v-5.9h1.1V363z M259,359.3c0,0.4,0.1,0.8,0.2,1.2c0.1,0.4,0.3,0.7,0.6,1
	c0.2,0.3,0.6,0.5,0.9,0.6c0.4,0.2,0.8,0.2,1.2,0.2c0.8,0,1.6-0.3,2.2-0.9c0.3-0.3,0.5-0.6,0.6-1c0.2-0.4,0.2-0.8,0.2-1.2
	c0-0.4-0.1-0.8-0.2-1.2c-0.1-0.4-0.4-0.7-0.6-1c-0.3-0.3-0.6-0.5-1-0.6c-0.4-0.2-0.8-0.2-1.2-0.2c-0.4,0-0.8,0.1-1.2,0.2
	c-0.3,0.1-0.6,0.4-0.9,0.6c-0.3,0.3-0.5,0.6-0.6,1C259,358.5,259,358.9,259,359.3z"/>
<path class="st12" d="M269.3,359.5c0,0.4,0.1,0.7,0.3,1.1c0.1,0.3,0.3,0.6,0.6,0.9c0.3,0.2,0.5,0.4,0.9,0.6c0.3,0.1,0.7,0.2,1,0.2
	c0.5,0,1-0.1,1.5-0.4c0.4-0.2,0.7-0.5,0.9-0.9l0.8,0.7c-0.4,0.5-0.9,1-1.5,1.2c-0.6,0.3-1.2,0.4-1.8,0.4c-0.5,0-1.1-0.1-1.6-0.3
	c-0.5-0.2-0.9-0.5-1.2-0.8c-0.4-0.4-0.6-0.8-0.8-1.3c-0.4-1-0.4-2.2,0-3.2c0.2-0.5,0.5-0.9,0.8-1.3c1.1-1.1,2.8-1.4,4.3-0.8
	c0.4,0.2,0.8,0.5,1.1,0.8c0.3,0.3,0.6,0.8,0.7,1.2c0.2,0.5,0.2,1,0.2,1.5v0.5L269.3,359.5z M274.5,358.7c0-0.7-0.2-1.3-0.6-1.8
	c-0.5-0.5-1.1-0.7-1.8-0.7c-0.3,0-0.7,0.1-1,0.2c-0.3,0.1-0.6,0.3-0.9,0.5c-0.2,0.2-0.4,0.5-0.6,0.8c-0.1,0.3-0.2,0.6-0.2,0.9H274.5
	z"/>
<path class="st12" d="M278,357.8c0-0.3,0-0.7,0-1c0-0.4,0-0.8,0-1.4h1v1.4l0,0c0.1-0.2,0.2-0.4,0.3-0.6c0.1-0.2,0.3-0.4,0.5-0.5
	c0.5-0.3,1-0.5,1.6-0.5c0.3,0,0.5,0,0.8,0.1l-0.2,1.1c-0.2-0.1-0.4-0.1-0.6-0.1c-0.4,0-0.7,0.1-1.1,0.2c-0.3,0.2-0.5,0.4-0.7,0.6
	c-0.4,0.5-0.6,1-0.6,1.6v4.3H278V357.8z"/>
<polyline class="st13" points="207.1,346.9 169.7,346.9 169.7,251.9 "/>
<path class="st10" d="M206.1,349.3c1.3,0,2.4-1.1,2.4-2.4c0-1.3-1.1-2.4-2.4-2.4c-1.3,0-2.4,1.1-2.4,2.4c0,0,0,0,0,0
	C203.7,348.2,204.8,349.3,206.1,349.3L206.1,349.3"/>
<path class="st10" d="M286.5,349.3c-1.3,0-2.4-1.1-2.4-2.4c0-1.3,1.1-2.4,2.4-2.4c1.3,0,2.4,1.1,2.4,2.4c0,0,0,0,0,0
	C288.9,348.2,287.8,349.3,286.5,349.3C286.5,349.3,286.5,349.3,286.5,349.3"/>
<line class="st13" x1="44.3" y1="321.1" x2="44.3" y2="250.1"/>
<path class="st10" d="M44.3,323.5c-1.3,0-2.4-1.1-2.4-2.4c0-1.3,1.1-2.4,2.4-2.4s2.4,1.1,2.4,2.4c0,0,0,0,0,0
	C46.7,322.4,45.7,323.5,44.3,323.5C44.3,323.5,44.3,323.5,44.3,323.5"/>
<path class="st12" d="M2.6,332.8h1.1v5.9l0,0c0.2-0.3,0.4-0.5,0.6-0.7c0.2-0.2,0.5-0.3,0.7-0.5c0.3-0.1,0.5-0.2,0.8-0.3
	c0.3-0.1,0.5-0.1,0.8-0.1c0.6,0,1.1,0.1,1.6,0.3c0.5,0.2,0.9,0.5,1.3,0.8c0.4,0.4,0.6,0.8,0.8,1.3c0.4,1,0.4,2.2,0,3.2
	c-0.2,0.5-0.5,0.9-0.8,1.3c-0.4,0.4-0.8,0.7-1.3,0.8c-0.8,0.3-1.6,0.4-2.4,0.2c-0.3-0.1-0.6-0.1-0.8-0.3c-0.3-0.1-0.5-0.3-0.7-0.5
	c-0.2-0.2-0.5-0.4-0.6-0.7l0,0v1.3H2.6V332.8z M9.6,341.3c0-0.4-0.1-0.8-0.2-1.2c-0.1-0.4-0.3-0.7-0.6-1c-0.3-0.3-0.6-0.5-0.9-0.6
	c-0.4-0.2-0.8-0.2-1.2-0.2c-0.4,0-0.8,0.1-1.2,0.2c-0.4,0.1-0.7,0.4-1,0.6c-0.3,0.3-0.5,0.6-0.6,1c-0.2,0.4-0.2,0.8-0.2,1.2
	c0,0.4,0.1,0.8,0.2,1.2c0.1,0.4,0.4,0.7,0.6,1c0.3,0.3,0.6,0.5,1,0.6c0.4,0.2,0.8,0.2,1.2,0.2c0.4,0,0.8-0.1,1.2-0.3
	c0.3-0.2,0.6-0.4,0.9-0.6c0.3-0.3,0.5-0.6,0.6-1C9.5,342,9.5,341.6,9.6,341.3z"/>
<path class="st12" d="M13,339.8c0-0.3,0-0.7,0-1c0-0.4,0-0.8,0-1.4h1v1.4l0,0c0.1-0.2,0.2-0.4,0.3-0.6c0.1-0.2,0.3-0.4,0.5-0.5
	c0.5-0.3,1-0.5,1.6-0.5c0.3,0,0.5,0,0.8,0.1l-0.2,1c-0.2-0.1-0.4-0.1-0.6-0.1c-0.4,0-0.7,0.1-1.1,0.2c-0.3,0.2-0.5,0.4-0.7,0.6
	c-0.4,0.5-0.6,1-0.6,1.6v4.3h-1V339.8z"/>
<path class="st12" d="M19,341.5c0,0.4,0.1,0.7,0.3,1.1c0.1,0.3,0.3,0.6,0.6,0.9c0.2,0.2,0.5,0.4,0.9,0.6c0.3,0.1,0.7,0.2,1.1,0.2
	c0.5,0,1-0.1,1.5-0.4c0.4-0.2,0.7-0.5,1-0.9l0.8,0.7c-0.4,0.5-0.9,1-1.5,1.2c-0.5,0.3-1.1,0.4-1.8,0.4c-0.5,0-1.1-0.1-1.6-0.3
	c-0.5-0.2-0.9-0.5-1.2-0.8c-0.3-0.4-0.6-0.8-0.8-1.3c-0.4-1-0.4-2.2,0-3.2c0.2-0.5,0.5-0.9,0.8-1.3c0.3-0.4,0.8-0.6,1.2-0.8
	c1-0.4,2-0.4,3,0c0.4,0.2,0.8,0.5,1.1,0.8c0.3,0.3,0.6,0.8,0.7,1.2c0.2,0.5,0.2,1,0.2,1.5v0.5L19,341.5z M24.1,340.7
	c0.1-1.3-0.9-2.3-2.1-2.4c-0.1,0-0.2,0-0.3,0c-0.3,0-0.7,0.1-1,0.2c-0.3,0.1-0.6,0.3-0.9,0.5c-0.2,0.2-0.4,0.5-0.6,0.8
	c-0.1,0.3-0.2,0.6-0.2,0.9L24.1,340.7z"/>
<path class="st12" d="M32.5,340.4v-0.2c0.2-0.9-0.5-1.8-1.4-2c-0.2,0-0.4,0-0.5,0c-0.9,0-1.7,0.3-2.3,0.9l-0.6-0.8
	c0.9-0.8,2-1.2,3.2-1.1c0.4,0,0.7,0.1,1.1,0.2c0.3,0.1,0.6,0.3,0.9,0.5c0.3,0.2,0.5,0.5,0.6,0.8c0.2,0.4,0.2,0.8,0.2,1.2v3.4
	c0,0.3,0,0.6,0,0.9s0,0.6,0.1,0.8h-1c0-0.2-0.1-0.4-0.1-0.6c0-0.2,0-0.4,0-0.6l0,0c-0.3,0.5-0.6,0.8-1.1,1.1c-0.5,0.2-1,0.4-1.6,0.3
	c-0.3,0-0.7,0-1-0.1c-0.3-0.1-0.6-0.2-0.8-0.4c-0.2-0.2-0.4-0.4-0.6-0.7c-0.2-0.3-0.2-0.7-0.2-1c0-0.5,0.1-1,0.5-1.5
	c0.3-0.4,0.7-0.6,1.2-0.8c0.5-0.2,1-0.3,1.5-0.3c0.5,0,1-0.1,1.5-0.1L32.5,340.4z M31.9,341.3c-0.3,0-0.6,0-1,0
	c-0.4,0-0.8,0.1-1.2,0.2c-0.4,0.1-0.7,0.3-1,0.5c-0.3,0.2-0.4,0.5-0.4,0.9c0,0.2,0,0.4,0.2,0.6c0.1,0.2,0.2,0.3,0.4,0.4
	c0.2,0.1,0.4,0.2,0.6,0.2c0.2,0,0.4,0.1,0.6,0.1c0.3,0,0.7-0.1,1-0.2c0.3-0.1,0.5-0.3,0.7-0.5c0.2-0.2,0.3-0.5,0.4-0.8
	c0.1-0.3,0.1-0.6,0.1-1v-0.5L31.9,341.3z"/>
<path class="st12" d="M40.3,339.3c-0.2-0.3-0.4-0.6-0.7-0.8c-0.3-0.2-0.6-0.3-1-0.3c-0.2,0-0.4,0-0.6,0.1c-0.2,0-0.4,0.1-0.5,0.2
	c-0.1,0.1-0.3,0.2-0.4,0.3c-0.1,0.2-0.1,0.3-0.1,0.5c0,0.3,0.1,0.6,0.4,0.8c0.3,0.2,0.7,0.3,1.1,0.4l1.1,0.3c0.5,0.1,1,0.4,1.3,0.7
	c0.4,0.4,0.5,0.8,0.5,1.4c0,0.4-0.1,0.7-0.2,1.1c-0.2,0.3-0.4,0.5-0.7,0.7c-0.3,0.2-0.6,0.3-1,0.4c-0.4,0.1-0.7,0.1-1.1,0.1
	c-0.6,0-1.1-0.1-1.6-0.3c-0.5-0.2-1-0.6-1.3-1.1l0.9-0.6c0.2,0.3,0.5,0.6,0.8,0.8c0.4,0.2,0.8,0.3,1.2,0.3c0.2,0,0.4,0,0.7-0.1
	c0.2,0,0.4-0.1,0.6-0.2c0.2-0.1,0.3-0.2,0.4-0.4c0.1-0.2,0.2-0.4,0.2-0.6c0-0.3-0.1-0.6-0.4-0.8c-0.3-0.2-0.6-0.3-1-0.4l-1-0.2
	c-0.2,0-0.4-0.1-0.5-0.2c-0.2-0.1-0.5-0.2-0.7-0.3c-0.2-0.2-0.4-0.4-0.5-0.6c-0.2-0.3-0.2-0.6-0.2-0.9c0-0.3,0.1-0.7,0.2-1
	c0.1-0.3,0.4-0.5,0.6-0.7c0.3-0.2,0.6-0.3,0.9-0.4c0.3-0.1,0.7-0.1,1-0.1c0.5,0,1,0.1,1.5,0.3c0.4,0.2,0.8,0.6,1,1.1L40.3,339.3z"/>
<path class="st12" d="M47.5,338.4h-2.2v4.5c0,0.2,0,0.5,0.1,0.7c0,0.2,0.1,0.3,0.2,0.4c0.1,0.1,0.2,0.2,0.3,0.2c0.1,0,0.3,0,0.5,0
	c0.2,0,0.4,0,0.6-0.1c0.2,0,0.4-0.1,0.5-0.2v1c-0.5,0.2-0.9,0.3-1.4,0.3c-0.2,0-0.4,0-0.6-0.1c-0.2-0.1-0.4-0.2-0.6-0.3
	c-0.2-0.2-0.4-0.4-0.5-0.6c-0.1-0.3-0.2-0.7-0.2-1v-4.8h-1.6v-1h1.6v-2.1h1.1v2.1h2.2V338.4z"/>
<path class="st12" d="M58.9,340.4v-0.2c0.2-0.9-0.5-1.8-1.4-2c-0.2,0-0.4,0-0.5,0c-0.9,0-1.7,0.3-2.3,0.9l-0.7-0.8
	c0.9-0.8,2-1.2,3.2-1.1c0.4,0,0.7,0.1,1.1,0.2c0.7,0.2,1.2,0.7,1.5,1.3c0.2,0.4,0.2,0.8,0.2,1.3v3.4c0,0.3,0,0.6,0,0.9
	s0.1,0.6,0.1,0.8h-1c0-0.2,0-0.4-0.1-0.6s0-0.4,0-0.6l0,0c-0.3,0.5-0.6,0.8-1.1,1.1c-0.5,0.2-1,0.4-1.6,0.3c-0.3,0-0.7,0-1-0.1
	c-0.3-0.1-0.6-0.2-0.8-0.4c-0.5-0.4-0.8-1-0.8-1.7c0-0.5,0.1-1,0.5-1.5c0.3-0.4,0.7-0.6,1.2-0.8c0.5-0.2,1-0.3,1.5-0.3
	c0.5,0,1-0.1,1.5-0.1L58.9,340.4z M58.4,341.3c-0.3,0-0.6,0-1,0c-0.4,0-0.8,0.1-1.2,0.2c-0.4,0.1-0.7,0.2-1,0.5
	c-0.3,0.2-0.4,0.5-0.4,0.9c0,0.2,0,0.4,0.2,0.6c0.1,0.2,0.2,0.3,0.4,0.4c0.2,0.1,0.4,0.2,0.6,0.2c0.2,0,0.4,0.1,0.6,0.1
	c0.3,0,0.7-0.1,1-0.2c0.3-0.1,0.5-0.3,0.7-0.5c0.2-0.2,0.3-0.5,0.4-0.8c0.1-0.3,0.1-0.6,0.1-1v-0.5L58.4,341.3z"/>
<path class="st12" d="M66.3,338.4h-1.8v6.6h-1.1v-6.6h-1.6v-1h1.6v-2c-0.1-0.8,0.2-1.6,0.7-2.1c0.5-0.4,1.2-0.7,1.8-0.6
	c0.2,0,0.3,0,0.5,0l0.5,0.1l-0.2,1c-0.1,0-0.3-0.1-0.4-0.1c-0.1,0-0.3,0-0.4,0c-0.2,0-0.5,0-0.7,0.1c-0.2,0.1-0.3,0.2-0.4,0.4
	c-0.1,0.2-0.2,0.4-0.2,0.6c0,0.3,0,0.5,0,0.8v1.9h1.8L66.3,338.4z"/>
<path class="st12" d="M71.8,338.4h-2.2v4.5c0,0.2,0,0.5,0.1,0.7c0.1,0.2,0.1,0.3,0.2,0.4c0.1,0.1,0.2,0.2,0.3,0.2c0.1,0,0.3,0,0.4,0
	c0.2,0,0.4,0,0.6-0.1c0.2,0,0.4-0.1,0.5-0.2v1c-0.5,0.2-0.9,0.3-1.4,0.3c-0.2,0-0.4,0-0.6-0.1c-0.2-0.1-0.4-0.2-0.6-0.3
	c-0.2-0.2-0.4-0.4-0.4-0.6c-0.1-0.3-0.2-0.7-0.2-1v-4.8H67v-1h1.6v-2.1h1.1v2.1h2.2V338.4z"/>
<path class="st12" d="M74.4,341.5c0,0.4,0.1,0.7,0.3,1.1c0.1,0.3,0.3,0.6,0.6,0.9c0.2,0.2,0.5,0.4,0.8,0.6c0.3,0.1,0.7,0.2,1.1,0.2
	c0.5,0,1-0.1,1.5-0.4c0.4-0.2,0.7-0.5,0.9-0.9l0.8,0.7c-0.4,0.5-0.9,1-1.5,1.2c-0.5,0.3-1.1,0.4-1.8,0.4c-0.5,0-1.1-0.1-1.6-0.3
	c-0.5-0.2-0.9-0.5-1.2-0.8c-0.3-0.4-0.6-0.8-0.8-1.3c-0.4-1-0.4-2.2,0-3.2c0.2-0.5,0.5-0.9,0.8-1.3c0.3-0.4,0.8-0.6,1.2-0.8
	c1-0.4,2-0.4,3,0c0.4,0.2,0.8,0.5,1.1,0.8c0.3,0.3,0.6,0.8,0.7,1.2c0.2,0.5,0.2,1,0.2,1.5v0.5L74.4,341.5z M79.5,340.7
	c0.1-1.3-0.9-2.3-2.1-2.4c-0.1,0-0.2,0-0.3,0c-0.3,0-0.7,0.1-1,0.2c-0.3,0.1-0.6,0.3-0.8,0.5c-0.2,0.2-0.4,0.5-0.6,0.8
	c-0.1,0.3-0.2,0.6-0.2,0.9L79.5,340.7z"/>
<path class="st12" d="M83.1,339.8c0-0.3,0-0.7,0-1s0-0.8,0-1.4h1v1.4l0,0c0.1-0.2,0.2-0.4,0.3-0.6c0.1-0.2,0.3-0.4,0.5-0.5
	c0.2-0.2,0.4-0.3,0.7-0.4c0.3-0.1,0.6-0.1,0.9-0.1c0.3,0,0.5,0,0.8,0.1l-0.2,1.1c-0.2-0.1-0.4-0.1-0.6-0.1c-0.3,0-0.7,0.1-1,0.2
	c-0.3,0.1-0.5,0.4-0.7,0.6c-0.2,0.2-0.3,0.5-0.4,0.8c-0.1,0.3-0.1,0.5-0.1,0.8v4.3h-1.1V339.8z"/>
<path class="st12" d="M0.1,357.2c0-0.3,0-0.6,0-0.9L0,355.5h1.1v1.1l0,0c0.3-0.4,0.6-0.8,1.1-1c0.4-0.2,0.9-0.3,1.4-0.3
	c0.2,0,0.4,0,0.7,0.1c0.2,0,0.5,0.1,0.7,0.2c0.2,0.1,0.4,0.3,0.6,0.5c0.2,0.2,0.4,0.5,0.5,0.8c0.2-0.5,0.6-0.9,1-1.1
	c0.4-0.3,1-0.4,1.5-0.4c0.8-0.1,1.6,0.2,2.1,0.8c0.5,0.6,0.8,1.4,0.7,2.2v4.8h-1v-4.4c0-0.6-0.1-1.2-0.4-1.8
	c-0.4-0.4-0.9-0.7-1.5-0.6c-0.3,0-0.7,0.1-1,0.2c-0.3,0.2-0.5,0.4-0.7,0.6c-0.2,0.3-0.3,0.6-0.4,0.9c-0.1,0.3-0.1,0.7-0.1,1v4H5.2
	v-4.4c0-0.6-0.1-1.2-0.4-1.8c-0.4-0.4-0.9-0.7-1.5-0.6l-0.5,0.1c-0.3,0.1-0.5,0.2-0.7,0.4c-0.3,0.2-0.5,0.5-0.7,0.9
	c-0.2,0.5-0.3,1.1-0.3,1.6v3.9H0.1V357.2z"/>
<path class="st12" d="M19.1,358.4v-0.2c0.2-0.9-0.5-1.8-1.4-2c-0.2,0-0.4,0-0.5,0c-0.9,0-1.7,0.3-2.3,0.9l-0.6-0.8
	c0.9-0.8,2-1.2,3.2-1.1c0.4,0,0.7,0.1,1.1,0.2c0.3,0.1,0.6,0.3,0.9,0.5c0.3,0.2,0.5,0.5,0.6,0.8c0.2,0.4,0.2,0.8,0.2,1.2v3.4
	c0,0.3,0,0.6,0,0.9c0,0.3,0,0.5,0.1,0.8h-1c0-0.2-0.1-0.4-0.1-0.6c0-0.2,0-0.4,0-0.6l0,0c-0.3,0.5-0.7,0.9-1.2,1.1
	c-0.5,0.2-1,0.4-1.6,0.3c-0.3,0-0.7,0-1-0.1c-0.3-0.1-0.6-0.2-0.8-0.4c-0.3-0.2-0.5-0.4-0.6-0.7c-0.2-0.3-0.2-0.7-0.2-1
	c0-0.5,0.1-1,0.5-1.5c0.3-0.4,0.7-0.6,1.2-0.8c0.5-0.2,1-0.3,1.5-0.3c0.5,0,1-0.1,1.5-0.1L19.1,358.4z M18.5,359.3c-0.3,0-0.6,0-1,0
	c-0.4,0-0.8,0.1-1.2,0.2c-0.4,0.1-0.7,0.3-1,0.5c-0.3,0.2-0.4,0.5-0.4,0.9c0,0.2,0.1,0.4,0.2,0.6c0.1,0.2,0.2,0.3,0.4,0.4
	c0.2,0.1,0.4,0.2,0.6,0.2c0.2,0,0.4,0.1,0.6,0.1c0.3,0,0.7-0.1,1-0.2c0.3-0.1,0.5-0.3,0.7-0.5c0.2-0.2,0.3-0.5,0.4-0.8
	c0.1-0.3,0.1-0.6,0.1-1v-0.5L18.5,359.3z"/>
<path class="st12" d="M27,357.3c-0.2-0.3-0.4-0.6-0.6-0.8c-0.3-0.2-0.6-0.3-1-0.3c-0.2,0-0.4,0-0.6,0.1c-0.2,0-0.4,0.1-0.5,0.2
	c-0.1,0.1-0.3,0.2-0.4,0.3c-0.1,0.2-0.1,0.3-0.1,0.5c0,0.3,0.1,0.6,0.4,0.8c0.3,0.2,0.7,0.3,1.1,0.4l1.1,0.3c0.5,0.1,1,0.4,1.3,0.7
	c0.3,0.4,0.5,0.8,0.5,1.4c0,0.4-0.1,0.7-0.2,1.1c-0.2,0.3-0.4,0.5-0.7,0.7c-0.3,0.2-0.6,0.3-1,0.4c-0.4,0.1-0.7,0.1-1.1,0.1
	c-0.6,0-1.1-0.1-1.6-0.3c-0.5-0.2-1-0.6-1.3-1.1l0.9-0.6c0.2,0.3,0.5,0.6,0.8,0.8c0.4,0.2,0.8,0.3,1.2,0.3c0.2,0,0.4,0,0.6-0.1
	c0.2,0,0.4-0.1,0.6-0.2c0.2-0.1,0.3-0.2,0.4-0.4c0.1-0.2,0.2-0.4,0.2-0.6c0-0.3-0.1-0.6-0.4-0.8c-0.3-0.2-0.6-0.3-1-0.4l-1-0.2
	c-0.2,0-0.4-0.1-0.5-0.2c-0.2-0.1-0.5-0.2-0.6-0.3c-0.2-0.2-0.4-0.4-0.5-0.6c-0.2-0.3-0.2-0.6-0.2-0.9c0-0.3,0.1-0.7,0.2-1
	c0.1-0.3,0.4-0.5,0.6-0.7c0.3-0.2,0.6-0.3,0.9-0.4c0.3-0.1,0.7-0.1,1-0.1c0.5,0,1,0.1,1.5,0.3c0.5,0.2,0.8,0.6,1,1.1L27,357.3z"/>
<path class="st12" d="M34.1,356.4h-2.2v4.5c0,0.2,0,0.5,0.1,0.7c0,0.2,0.1,0.3,0.2,0.4c0.1,0.1,0.2,0.2,0.3,0.2c0.1,0,0.3,0,0.5,0
	c0.2,0,0.4,0,0.6-0.1c0.2,0,0.4-0.1,0.5-0.2v1c-0.5,0.2-0.9,0.3-1.4,0.3c-0.2,0-0.4,0-0.6-0.1c-0.2-0.1-0.4-0.2-0.6-0.3
	c-0.2-0.2-0.4-0.4-0.5-0.6c-0.1-0.3-0.2-0.7-0.2-1v-4.8h-1.6v-1h1.6v-2.1h1.1v2.1h2.2L34.1,356.4z"/>
<path class="st12" d="M36.6,359.5c0,0.4,0.1,0.7,0.3,1.1c0.1,0.3,0.3,0.6,0.6,0.9c0.2,0.2,0.5,0.4,0.8,0.6c0.3,0.1,0.7,0.2,1.1,0.2
	c0.5,0,1-0.1,1.5-0.4c0.4-0.2,0.7-0.5,1-0.9l0.8,0.7c-0.4,0.5-0.9,1-1.5,1.2c-0.6,0.3-1.2,0.4-1.8,0.4c-0.5,0-1.1-0.1-1.6-0.3
	c-0.5-0.2-0.9-0.5-1.2-0.8c-0.4-0.4-0.6-0.8-0.8-1.3c-0.4-1-0.4-2.2,0-3.2c0.2-0.5,0.5-0.9,0.8-1.3c0.3-0.4,0.8-0.6,1.2-0.8
	c1-0.4,2.1-0.4,3,0c0.4,0.2,0.8,0.5,1.1,0.8c0.3,0.3,0.6,0.8,0.7,1.2c0.2,0.5,0.2,1,0.2,1.5v0.5L36.6,359.5z M41.8,358.7
	c0.1-1.3-0.9-2.3-2.1-2.4c-0.1,0-0.2,0-0.3,0c-0.3,0-0.7,0.1-1,0.2c-0.3,0.1-0.6,0.3-0.8,0.5c-0.2,0.2-0.4,0.5-0.6,0.8
	c-0.1,0.3-0.2,0.6-0.2,0.9L41.8,358.7z"/>
<path class="st12" d="M50.7,357.2c-0.4-0.6-1.1-1-1.9-1c-0.4,0-0.8,0.1-1.2,0.2c-0.3,0.1-0.7,0.4-0.9,0.6c-0.3,0.3-0.5,0.6-0.6,1
	c-0.1,0.4-0.2,0.8-0.2,1.2c0,0.4,0.1,0.8,0.2,1.2c0.1,0.4,0.3,0.7,0.6,1c0.2,0.3,0.6,0.5,0.9,0.6c0.4,0.2,0.8,0.2,1.2,0.2
	c0.4,0,0.8-0.1,1.2-0.3c0.3-0.2,0.6-0.4,0.8-0.7l0.9,0.7c-0.3,0.4-0.8,0.8-1.3,1c-0.5,0.2-1,0.3-1.5,0.3c-0.6,0-1.1-0.1-1.7-0.3
	c-1-0.4-1.7-1.1-2.1-2.1c-0.2-0.5-0.3-1.1-0.3-1.6c0-0.5,0.1-1.1,0.3-1.6c0.2-0.5,0.5-0.9,0.8-1.3c0.4-0.4,0.8-0.6,1.3-0.8
	c0.5-0.2,1.1-0.3,1.7-0.3c0.5,0,1,0.1,1.5,0.3c0.5,0.2,0.9,0.6,1.3,1L50.7,357.2z"/>
<path class="st12" d="M57.2,356.4h-2.2v4.5c0,0.2,0,0.5,0.1,0.7c0,0.2,0.1,0.3,0.2,0.4c0.1,0.1,0.2,0.2,0.3,0.2c0.1,0,0.3,0,0.4,0
	c0.2,0,0.4,0,0.6-0.1c0.2,0,0.4-0.1,0.5-0.2v1c-0.5,0.2-0.9,0.3-1.4,0.3c-0.2,0-0.4,0-0.6-0.1c-0.2-0.1-0.4-0.2-0.6-0.3
	c-0.2-0.2-0.4-0.4-0.5-0.6c-0.1-0.3-0.2-0.7-0.2-1v-4.8h-1.6v-1H54v-2.1h1.1v2.1h2.2L57.2,356.4z"/>
<path class="st12" d="M66.7,359.3c0,0.5-0.1,1.1-0.3,1.6c-0.2,0.5-0.5,0.9-0.8,1.3c-0.4,0.4-0.8,0.6-1.3,0.8
	c-0.5,0.2-1.1,0.3-1.6,0.3c-0.6,0-1.1-0.1-1.6-0.3c-0.5-0.2-0.9-0.5-1.3-0.8c-0.4-0.4-0.6-0.8-0.8-1.3c-0.4-1-0.4-2.2,0-3.2
	c0.2-0.5,0.5-0.9,0.8-1.3c0.4-0.4,0.8-0.6,1.3-0.8c0.5-0.2,1.1-0.3,1.6-0.3c0.6,0,1.1,0.1,1.6,0.3c0.5,0.2,0.9,0.5,1.3,0.8
	c0.4,0.4,0.6,0.8,0.8,1.3C66.6,358.2,66.7,358.7,66.7,359.3z M65.5,359.3c0-0.4-0.1-0.8-0.2-1.2c-0.1-0.4-0.3-0.7-0.6-1
	c-0.3-0.3-0.6-0.5-0.9-0.6c-0.8-0.3-1.6-0.3-2.4,0c-0.3,0.1-0.6,0.4-0.9,0.6c-0.3,0.3-0.4,0.6-0.6,1c-0.1,0.4-0.2,0.8-0.2,1.2
	c0,0.4,0.1,0.8,0.2,1.2c0.1,0.4,0.3,0.7,0.6,1c0.2,0.3,0.6,0.5,0.9,0.6c0.8,0.3,1.6,0.3,2.4,0c0.3-0.2,0.6-0.4,0.9-0.6
	c0.3-0.3,0.5-0.6,0.6-1C65.5,360.1,65.5,359.7,65.5,359.3z"/>
<path class="st12" d="M69,357.2c0-0.3,0-0.6,0-0.9l-0.1-0.8H70v1.1l0,0c0.3-0.4,0.6-0.8,1.1-1c0.4-0.2,0.9-0.3,1.4-0.3
	c0.2,0,0.4,0,0.7,0.1c0.2,0,0.5,0.1,0.7,0.2c0.2,0.1,0.4,0.3,0.6,0.5c0.2,0.2,0.4,0.5,0.5,0.8c0.2-0.5,0.6-0.9,1-1.1
	c0.4-0.3,1-0.4,1.5-0.4c0.8-0.1,1.6,0.2,2.2,0.8c0.5,0.6,0.8,1.4,0.7,2.2v4.8h-1v-4.4c0-0.6-0.1-1.2-0.4-1.8
	c-0.4-0.5-0.9-0.7-1.5-0.6c-0.3,0-0.7,0.1-1,0.2c-0.3,0.2-0.5,0.4-0.7,0.6c-0.2,0.3-0.3,0.6-0.4,0.9c-0.1,0.3-0.1,0.7-0.1,1v4h-1.1
	v-4.4c0-0.6-0.1-1.2-0.4-1.8c-0.4-0.5-0.9-0.7-1.5-0.6l-0.4,0.1c-0.3,0.1-0.5,0.2-0.7,0.4c-0.3,0.2-0.5,0.5-0.7,0.9
	c-0.2,0.5-0.3,1.1-0.3,1.6v3.9h-1V357.2z"/>
<path class="st12" d="M85.9,361.7l2.3-6.3h1.3l-3.8,9.5c-0.2,0.5-0.5,1-0.9,1.4c-0.4,0.4-1,0.6-1.5,0.5h-0.5c-0.2,0-0.3,0-0.5-0.1
	l0.1-1c0.3,0.1,0.5,0.2,0.8,0.2c0.3,0,0.7-0.1,0.9-0.4c0.3-0.3,0.4-0.6,0.6-1l0.6-1.5l-3.1-7.7h1.3L85.9,361.7z"/>
<path class="st14" d="M323.3,265c2.4,4.1,3.8,9.1,4.8,14.6h3.6c-0.6-6.1-1.9-11.6-4.4-16c-3.4-7.7-8.4-10.3-15.9-13.5
	c-13.5-5.7-21.5-9.8-32.8-25.9c-26.8-29.8-12.5-64.4-0.7-84.3c2-3.4,39.2-58.1,47.4-69.8c4.1-6.7,7.5-13.8,10.2-21.2h-2.9
	c-1.1,2.8-2.2,5.5-3.3,8c-43.8,77.3-107.8,117-41,184c0,0,12.3,8.8,19.2,10.6C315.2,253.6,319.9,257.3,323.3,265z"/>
<path class="st14" d="M159.2,265c2.4,4.6,4,9.5,4.8,14.6h3.6c-0.6-6.1-1.9-11.6-4.4-16l-17.6-25c-12.9-17.9-31.8-58.9-1.1-122.1
	c4.6-9.4,10.8-19.2,15.4-29.3c5-10.9,9.2-22.1,12.4-33.6c0.5-1.7,1-3.4,1.4-5.2h-3.8c-2.2,7.2-4.3,13.8-6.4,19.6
	c-3.1,8.8-6.7,17.5-10.8,25.9c-4,8-8.3,15.8-13.1,23.4c0,0-36.4,66.4,0.3,121.3L159.2,265z"/>
<path class="st14" d="M36.6,223.1c1.2,1.6,2.4,3,3.7,4.5c1.3,1.2,2.4,2.6,3.4,4c6.4,11.1,2.6,31.7,9.2,48.1h0.1
	c-6.2-16.5-0.3-37.9-6.7-49l-5.7-7.4c-28-40.9-1.5-110.6-1.5-110.6s5.4-13.5,7.9-22.6s4.8-20.5,6.2-28.6c0.7-4.2,1.2-8.5,1.5-12.8
	H54c-1.9,9.4-3.8,18.7-5.8,26.9C46,85.1,44,93.2,41.4,99.8c-16.5,40.8-16.9,72.6-16.9,72.6c0.7,19.4,4.9,36.8,11,48.9
	C35.8,221.9,36.2,222.5,36.6,223.1z"/>
<polyline class="st13" points="286.5,346.9 322.9,346.9 322.9,251.9 "/>
</svg>
