<svg xmlns="http://www.w3.org/2000/svg" viewBox="0 0 730.27 183.64"><defs><style>.cls-1{fill:#53575a;}.cls-2{fill:#ff8300;}</style></defs><g id="Layer_2" data-name="Layer 2"><g id="Layer_1-2" data-name="Layer 1"><path class="cls-1" d="M386.88,144c0,.72,0,1.37,0,1.95s0,1.11.05,1.6.05.95.08,1.37.08.86.14,1.28h-1.79a13.58,13.58,0,0,1-.19-2.4h-.06a5.49,5.49,0,0,1-2.07,2.12,6.55,6.55,0,0,1-3.12.67,7.53,7.53,0,0,1-1.89-.24,5,5,0,0,1-1.66-.77,4.15,4.15,0,0,1-1.2-1.36,4.08,4.08,0,0,1-.46-2,4,4,0,0,1,.86-2.69,5.35,5.35,0,0,1,2.13-1.48,9.89,9.89,0,0,1,2.69-.64,24.06,24.06,0,0,1,2.51-.15h2.24v-.89a3.15,3.15,0,0,0-1.19-2.76,5.08,5.08,0,0,0-3-.83,6.74,6.74,0,0,0-4.51,1.67l-1.12-1.31a6.78,6.78,0,0,1,2.62-1.56,9.44,9.44,0,0,1,3-.52,6.76,6.76,0,0,1,4.29,1.26,4.9,4.9,0,0,1,1.6,4.08ZM383,142.78a16.5,16.5,0,0,0-2.36.16,8.56,8.56,0,0,0-2,.54,3.81,3.81,0,0,0-1.46,1,2.6,2.6,0,0,0-.24,2.8,2.58,2.58,0,0,0,.78.86,3.36,3.36,0,0,0,1.08.51,4.06,4.06,0,0,0,1.2.18,6.11,6.11,0,0,0,2.52-.45,4.31,4.31,0,0,0,1.59-1.17,4.1,4.1,0,0,0,.81-1.63,7.66,7.66,0,0,0,.23-1.84v-1Z"/><path class="cls-1" d="M392.64,139.58c0-.28,0-.61,0-1s0-.79,0-1.2,0-.78-.05-1.13,0-.63,0-.82h1.92c0,.55,0,1.09,0,1.6a5.19,5.19,0,0,0,.08,1h.1a5.08,5.08,0,0,1,1.92-2.09,5.58,5.58,0,0,1,3.14-.88,6.31,6.31,0,0,1,2.81.54A4.47,4.47,0,0,1,404.2,137a5.35,5.35,0,0,1,.87,2,11.45,11.45,0,0,1,.24,2.36v8.8h-1.92v-8.7a10.08,10.08,0,0,0-.16-1.75,4.77,4.77,0,0,0-.56-1.51,3,3,0,0,0-1.12-1.08,3.93,3.93,0,0,0-1.87-.4,5.51,5.51,0,0,0-2,.37,4.41,4.41,0,0,0-1.64,1.12,5.27,5.27,0,0,0-1.08,1.89,8,8,0,0,0-.4,2.67v7.39h-1.92Z"/><path class="cls-1" d="M424,147.61h-.07a5,5,0,0,1-1.12,1.33,7,7,0,0,1-1.46.93,7.69,7.69,0,0,1-1.64.54,8.33,8.33,0,0,1-1.7.18,8.22,8.22,0,0,1-3.13-.58,7.1,7.1,0,0,1-2.47-1.61,7.68,7.68,0,0,1-1.6-2.47,8.68,8.68,0,0,1,0-6.24,7.53,7.53,0,0,1,1.6-2.46,7.12,7.12,0,0,1,2.47-1.62A8.42,8.42,0,0,1,418,135a8.31,8.31,0,0,1,1.7.17,7.69,7.69,0,0,1,1.64.54,7,7,0,0,1,1.46.93,5.11,5.11,0,0,1,1.12,1.33H424V126h1.92V150.2H424Zm.19-4.8a5.85,5.85,0,0,0-.48-2.35,6,6,0,0,0-1.31-1.92,6.45,6.45,0,0,0-2-1.3,6.06,6.06,0,0,0-2.43-.48,6,6,0,0,0-2.43.48,5.66,5.66,0,0,0-1.86,1.3,5.34,5.34,0,0,0-1.16,1.92,7.1,7.1,0,0,0,0,4.7,5.34,5.34,0,0,0,1.16,1.92,5.51,5.51,0,0,0,1.86,1.3,6,6,0,0,0,2.43.48,6.06,6.06,0,0,0,2.43-.48,6.27,6.27,0,0,0,2-1.3,6,6,0,0,0,1.31-1.92A5.81,5.81,0,0,0,424.19,142.81Z"/><path class="cls-1" d="M69,85.74h.69a20.61,20.61,0,0,0,.43,4,30.84,30.84,0,0,0,1.21,4.39,25.33,25.33,0,0,0,1.89,4.17,11.81,11.81,0,0,0,2.49,3.18,20.7,20.7,0,0,0,6.19,3.74,21.21,21.21,0,0,0,7.31,1.42h.78a23.58,23.58,0,0,0,7.31-1.46,14.14,14.14,0,0,0,5.85-4.9,12.78,12.78,0,0,0,2.27-6.84,13.26,13.26,0,0,0-2-7.31,17,17,0,0,0-7-6.23L85.47,74.31a31.7,31.7,0,0,1-8.6-6.07,20.33,20.33,0,0,1-4.52-6.79,15,15,0,0,1-1-6.92,16,16,0,0,1,2.07-6.45A18.59,18.59,0,0,1,78,42.74a23.32,23.32,0,0,1,6.58-3.69,15.09,15.09,0,0,1,3.44-.95,23.9,23.9,0,0,1,3.52-.26,20.91,20.91,0,0,1,7.74,1.46c.92.35,1.89.69,2.93,1a12.07,12.07,0,0,0,3.09.6,6.34,6.34,0,0,0,2.93-.52,5.41,5.41,0,0,0,2.4-2.32h.61V56.76h-.69A14,14,0,0,0,110,53a20.6,20.6,0,0,0-1.51-3.83,22.64,22.64,0,0,0-2.15-3.44A21.24,21.24,0,0,0,104,43a17.54,17.54,0,0,0-5.68-3.4,19.52,19.52,0,0,0-6.71-1.16,21.66,21.66,0,0,0-3,.22,18.86,18.86,0,0,0-2.88.64,12.44,12.44,0,0,0-6.15,4.13A8.8,8.8,0,0,0,77.77,50c.26,2.46,1.53,5.09,3.83,7.87s5.87,5.54,10.75,8.3l9.89,5.07a25.07,25.07,0,0,1,7.48,5.89,18.08,18.08,0,0,1,3.78,7.1,15.4,15.4,0,0,1,.09,7.39A16,16,0,0,1,110,98.43a23.42,23.42,0,0,1-7.18,5.42A33.86,33.86,0,0,1,92.09,107h.17l-1.25.13c-.37,0-.76,0-1.16,0H89a19.85,19.85,0,0,1-7.48-1.46v0a6.89,6.89,0,0,1-.86-.35A15.84,15.84,0,0,0,75,104a7.26,7.26,0,0,0-3.31.69,3.65,3.65,0,0,0-1.59,1.54,10.35,10.35,0,0,0-.51,1.17v.08H69Z"/><path class="cls-1" d="M179,56.59v-.17c-.46-1.78-1-3.63-1.55-5.55A19.71,19.71,0,0,0,175,45.5a14.07,14.07,0,0,0-4.56-4.22,17.18,17.18,0,0,0-7.53-2.06h-.77c-2.52.23-4.29.93-5.29,2.11s-1.5,3.25-1.5,6.23V98.39a17.35,17.35,0,0,0,.38,3.91,5,5,0,0,0,3.66,4,13.16,13.16,0,0,0,3.61.56h2.67v.61H135.69v-.61a34.27,34.27,0,0,0,4.94-.3,6.42,6.42,0,0,0,3.18-1.24,5.21,5.21,0,0,0,1.68-2.58A14.82,14.82,0,0,0,146,98.3V47.65a16.6,16.6,0,0,0-.39-4,5.47,5.47,0,0,0-1.29-2.49A5.27,5.27,0,0,0,142,39.82a17.67,17.67,0,0,0-3.62-.6h-.51a16.83,16.83,0,0,0-7.48,2.06,14.49,14.49,0,0,0-4.56,4.22,18.74,18.74,0,0,0-2.58,5.37c-.58,1.92-1.06,3.77-1.46,5.55v.17h-.61V38.53h58.48V56.59Z"/><path class="cls-1" d="M185.31,107.59V107h.09a32.92,32.92,0,0,0,4.94-.31,6.42,6.42,0,0,0,3.18-1.24,5.21,5.21,0,0,0,1.68-2.58,15.16,15.16,0,0,0,.52-4.39V47.82c0-3.15-.56-5.32-1.68-6.49s-3.11-1.85-6-2h-2.75v-.51h32.77a35.34,35.34,0,0,1,10,1.29,22,22,0,0,1,6.88,3.7,14.44,14.44,0,0,1,3.91,5.37,17.5,17.5,0,0,1,1.34,6.92q0,7.74-5.25,12.3a20.67,20.67,0,0,1-6.88,3.7,18.4,18.4,0,0,1-4,1c-1.4.17-2.88.31-4.43.43a13,13,0,0,1,3.83,1.8,19.78,19.78,0,0,1,4.6,4.73l16.17,22.45A8.56,8.56,0,0,0,247.1,105a16.62,16.62,0,0,0,3.27,1.38,13.2,13.2,0,0,0,2.79.56c.81.06,1.29.09,1.47.09h.08v.6h-17.2l-21-29.07a19.75,19.75,0,0,0-2.37-2.71,9.69,9.69,0,0,0-2.06-1.5,6.57,6.57,0,0,0-1.94-.69,10.54,10.54,0,0,0-2-.17H205V98.56a16.57,16.57,0,0,0,.39,4,5.46,5.46,0,0,0,1.29,2.5,5.59,5.59,0,0,0,2.37,1.42,13.9,13.9,0,0,0,3.61.56h2.66v.6h-30ZM205,72.93h12.39a12.36,12.36,0,0,0,7.22-2.15A13.85,13.85,0,0,0,226.55,69a15.13,15.13,0,0,0,1.85-2.54A21.33,21.33,0,0,0,230,61.79a25.62,25.62,0,0,0,.6-5.72q0-7.4-3.18-11.86a11.66,11.66,0,0,0-10.06-4.91H211.8a11.76,11.76,0,0,0-3.18.69,5.39,5.39,0,0,0-2.11,1.46,5.64,5.64,0,0,0-1.16,2.5,17.62,17.62,0,0,0-.35,3.78v25.2Z"/><path class="cls-1" d="M303,106.13a20.71,20.71,0,0,0,5-2.24,18.57,18.57,0,0,0,3.83-3.14,25.14,25.14,0,0,0,2.84-3.65,29.69,29.69,0,0,0,3.87-10h.6l-2.49,20.47H259.87V107a33,33,0,0,0,4.95-.31,6.74,6.74,0,0,0,3.22-1.24,5.14,5.14,0,0,0,1.72-2.58,14.82,14.82,0,0,0,.52-4.39V48.85a3.15,3.15,0,0,0,0-.52,4.38,4.38,0,0,1,0-.51c0-3.15-.56-5.32-1.68-6.49s-3.11-1.85-6-2h-2.75v-.51h54.52V56.85h-.6v-.09q-.69-2.84-1.59-5.93a17.84,17.84,0,0,0-2.8-5.64A14.62,14.62,0,0,0,304.16,41a18.85,18.85,0,0,0-8.6-1.68H279.39V72.93h12.3a9.87,9.87,0,0,0,5.81-1.68A11.36,11.36,0,0,0,302,63.9a22.06,22.06,0,0,0,.26-2.41v-.26h.6v24h-.6V85a24.42,24.42,0,0,0-.26-2.49,11.37,11.37,0,0,0-1.37-3.92A11,11,0,0,0,297.32,75a10.37,10.37,0,0,0-6.06-1.54H279.39V97a8.85,8.85,0,0,1,.09,1.55,16.57,16.57,0,0,0,.39,4,5.27,5.27,0,0,0,1.29,2.5,5.62,5.62,0,0,0,2.36,1.42,14,14,0,0,0,3.61.56h9.55A22,22,0,0,0,303,106.13Z"/><path class="cls-1" d="M405.21,38.79v.6h-1.29a22.61,22.61,0,0,0-3.65.39,15.68,15.68,0,0,0-4.43,1.46,10.74,10.74,0,0,0-3.74,3.14,8.71,8.71,0,0,0-1.6,5.5v57.71h-.68l-50.57-63.3V96.41a9,9,0,0,0,1.59,5.59,10.94,10.94,0,0,0,3.74,3.14A16,16,0,0,0,349,106.6a22.83,22.83,0,0,0,3.66.39H354v.6H323.85V107h1.3a22.83,22.83,0,0,0,3.65-.39,16,16,0,0,0,4.43-1.46A10.94,10.94,0,0,0,337,102a9,9,0,0,0,1.59-5.59V47.47c0-1.37,0-2.56-.08-3.57a5,5,0,0,0-.78-2.53,4,4,0,0,0-2.28-1.51,17.29,17.29,0,0,0-4.6-.47h-2.66v-.6h18.4l43.26,53.75V49.88a8.77,8.77,0,0,0-1.59-5.5,10.86,10.86,0,0,0-3.75-3.14,15.72,15.72,0,0,0-4.42-1.46,22.83,22.83,0,0,0-3.66-.39h-1.29v-.6h30.1Z"/><path class="cls-1" d="M411.57,73a38,38,0,0,1,.61-6.88,39.23,39.23,0,0,1,1.8-6.63,36.75,36.75,0,0,1,6.54-11A29.61,29.61,0,0,1,430.15,41a26.56,26.56,0,0,1,11.7-2.75,23.16,23.16,0,0,1,8.42,1.64l.18.08.34.17c.4.18.79.36,1.16.56s.76.39,1.16.56c3,1.44,5.35,2.15,7.1,2.15a7.06,7.06,0,0,0,3.91-.86,4.38,4.38,0,0,0,2-3h.51v25h-.51a39.58,39.58,0,0,0-3.27-11.35,28.19,28.19,0,0,0-5.59-8,23.17,23.17,0,0,0-7.14-4.73,21,21,0,0,0-6.88-1.64V39a15.45,15.45,0,0,0-8.68,2.67,24.48,24.48,0,0,0-7.06,7.31,39.12,39.12,0,0,0-4.73,10.83A49.63,49.63,0,0,0,421,73a47.55,47.55,0,0,0,2.84,16.72,31.38,31.38,0,0,0,7.57,12.09,21,21,0,0,0,4.13,3,23.5,23.5,0,0,0,3.44,1.59,13.86,13.86,0,0,0,4.21.6,18.84,18.84,0,0,0,6.8-1.46,27.44,27.44,0,0,0,5.5-3.27l1-1.07a11,11,0,0,0,1.38-1.89,13.31,13.31,0,0,0,1.2-2.8,12.07,12.07,0,0,0,.52-3.7v-8a4.45,4.45,0,0,0-.9-3,5.32,5.32,0,0,0-2.41-1.59,12.63,12.63,0,0,0-3.57-.61c-1.38,0-2.84-.08-4.39-.08V79H475.9v.69c-1.32,0-2.42,0-3.31.08a6.35,6.35,0,0,0-2.19.48,2.4,2.4,0,0,0-1.25,1.24,5.76,5.76,0,0,0-.39,2.33v19.09h-.6a5,5,0,0,0-3.91-1.42,17.57,17.57,0,0,0-4.9,1.07c-1.75.64-3.59,1.39-5.51,2.28a36.47,36.47,0,0,1-5.72,2.11,24.87,24.87,0,0,1-6.27.77,26.09,26.09,0,0,1-11.7-2.66,34.17,34.17,0,0,1-5.16-3.18,26.22,26.22,0,0,1-4.47-4.3,36.92,36.92,0,0,1-6.54-11,39.47,39.47,0,0,1-1.8-6.58A37.91,37.91,0,0,1,411.57,73Z"/><path class="cls-1" d="M540.4,56.59v-.17c-.46-1.78-1-3.63-1.55-5.55a19.42,19.42,0,0,0-2.53-5.37,14.07,14.07,0,0,0-4.56-4.22,17.18,17.18,0,0,0-7.53-2.06h-.77c-2.52.23-4.29.93-5.29,2.11s-1.5,3.25-1.5,6.23V98.39a16.79,16.79,0,0,0,.38,3.91,5,5,0,0,0,3.66,4,13.16,13.16,0,0,0,3.61.56H527v.61H497.06v-.61a34.37,34.37,0,0,0,4.94-.3,6.5,6.5,0,0,0,3.19-1.24,5.26,5.26,0,0,0,1.67-2.58,14.82,14.82,0,0,0,.52-4.39V47.65a16.6,16.6,0,0,0-.39-4,5.47,5.47,0,0,0-1.29-2.49,5.27,5.27,0,0,0-2.36-1.38,17.67,17.67,0,0,0-3.62-.6h-.51a16.83,16.83,0,0,0-7.48,2.06,14.49,14.49,0,0,0-4.56,4.22,18.74,18.74,0,0,0-2.58,5.37c-.58,1.92-1.06,3.77-1.46,5.55v.17h-.61V38.53H541V56.59Z"/><path class="cls-1" d="M591.14,38.62h29.93v.43l.08.08h-.08v.09h-3.44c-2.58.29-4.37,1-5.38,2.15s-1.5,3.24-1.5,6.28V98.39a17.05,17.05,0,0,0,.39,4,5.28,5.28,0,0,0,1.29,2.54,5.49,5.49,0,0,0,2.4,1.42,14.23,14.23,0,0,0,3.66.56h2.66v.6h-30v-.6a34.52,34.52,0,0,0,5-.3,6.74,6.74,0,0,0,3.22-1.25,5.14,5.14,0,0,0,1.72-2.58,15.13,15.13,0,0,0,.52-4.38v-25H566.8v25a17.05,17.05,0,0,0,.39,4,5,5,0,0,0,3.7,4,14.08,14.08,0,0,0,3.65.56h2.67v.6h-30v-.6a34.52,34.52,0,0,0,4.95-.3,6.7,6.7,0,0,0,3.22-1.25,5.08,5.08,0,0,0,1.72-2.58,14.79,14.79,0,0,0,.52-4.38V47.73a16.57,16.57,0,0,0-.39-3.95,5.57,5.57,0,0,0-1.29-2.54,5.05,5.05,0,0,0-2.4-1.42,18.6,18.6,0,0,0-3.66-.6h-2.75v-.6h30v.43l.09.08h-.09v.09H573.6a11,11,0,0,0-3.19.69,5.26,5.26,0,0,0-2.1,1.46,5.44,5.44,0,0,0-1.16,2.49,17.72,17.72,0,0,0-.35,3.79V72.76h34.75v-25c0-3.15-.56-5.32-1.68-6.49s-3.11-1.85-6-2h-2.75Z"/><path class="cls-2" d="M457.36,123.89a10.27,10.27,0,0,0-3.75,3,12.45,12.45,0,0,0-1.56,2,4.07,4.07,0,0,0-.69,2.63,4.39,4.39,0,0,0,1.38,2.43c.75.71,1.41,1.36,2,1.94l1.93,1.94a16.88,16.88,0,0,1,1.69,1.94c2.08-1.5,4.06-3.07,5.94-4.69a53.89,53.89,0,0,1,6.06-4.56,45,45,0,0,1,4.69-3.13q2.56-1.5,5.31-2.87l1.75-.88a1.71,1.71,0,0,1,1.88.13,1.3,1.3,0,0,1-.13,1,1.55,1.55,0,0,1-.75.56l-1,.37a1.57,1.57,0,0,0-.75.57,34.47,34.47,0,0,0-5.06,2.81c-1.54,1-3.11,2.06-4.69,3.06q-6,4.5-11.62,9.38a40.21,40.21,0,0,1,3.06,5.87,18.35,18.35,0,0,1,1.31,7.13,20.73,20.73,0,0,1-1.25,8,23.14,23.14,0,0,1-3.75,6.5,28.13,28.13,0,0,1-5.37,4.75,11.81,11.81,0,0,1-7.25,2.12,8.68,8.68,0,0,1-2.88-.62,11,11,0,0,1-2.12-1.25,12.67,12.67,0,0,1-2-2.88,9.4,9.4,0,0,1-.88-3.62,13.69,13.69,0,0,1,1.63-8,42.85,42.85,0,0,1,4.12-6.25,52.32,52.32,0,0,1,4.94-5.44c1.71-1.63,3.39-3.15,5.06-4.56a14.68,14.68,0,0,0-2-2.32c-.75-.7-1.5-1.43-2.25-2.18a22,22,0,0,1-2.06-2.38,9.63,9.63,0,0,1-1.44-2.75,6.51,6.51,0,0,1,.06-5.06,20.41,20.41,0,0,1,2.44-4.06c.84-.92,1.65-1.73,2.44-2.44a11.22,11.22,0,0,1,2.81-1.81,11.57,11.57,0,0,1,1.88-.38,3.58,3.58,0,0,1,1.87.25,2.82,2.82,0,0,0,.69.69,2.08,2.08,0,0,1,.69.94,4.08,4.08,0,0,1,.06,2.37c-.21.92-.52,1.38-.94,1.38-.58.08-.92-.09-1-.5A2.69,2.69,0,0,0,457.36,123.89Zm-1.62,21.63a55.36,55.36,0,0,0-4.25,3.87,56.77,56.77,0,0,0-4.13,4.63q-1.12,1.36-2.31,3.06a18.15,18.15,0,0,0-2,3.69,17.8,17.8,0,0,0-1.13,4.18,10.39,10.39,0,0,0,.44,4.57A9,9,0,0,0,444,171.2a3.71,3.71,0,0,0,2.37.69,8.64,8.64,0,0,0,5.06-1.94,21.87,21.87,0,0,0,3.94-3.93,17.27,17.27,0,0,0,2.44-4.75,21.69,21.69,0,0,0,1.12-5.57,17.68,17.68,0,0,0-.5-5.56,13.06,13.06,0,0,0-2.31-4.87c0-.09,0-.13-.12-.13C455.82,145.31,455.74,145.43,455.74,145.52Zm-13.25,31.12c0,.08.08,0,.25-.12C442.74,176.6,442.65,176.64,442.49,176.64Z"/><path class="cls-2" d="M490.74,120.14a9.71,9.71,0,0,1,6.68,2.63,12,12,0,0,1,3.07,6.37q4-.75,8.31-1.69c2.87-.62,5.69-1.27,8.44-1.93a10.19,10.19,0,0,0,1.25-.44,9.15,9.15,0,0,1,1.56-.5,4.4,4.4,0,0,1,1.44-.13,1,1,0,0,1,.87.57.77.77,0,0,1-.25,1,5.39,5.39,0,0,1-1.25.68,8.76,8.76,0,0,1-1.62.5,11.71,11.71,0,0,0-1.25.32q-4,1.24-8.44,2.18c-3,.63-5.9,1.23-8.81,1.82a26.23,26.23,0,0,1-1.07,9.06,31.8,31.8,0,0,1-3.43,7.69,39.85,39.85,0,0,1-4.82,6,13.86,13.86,0,0,1-6.56,3.75H483a5,5,0,0,1-2.13-.94,18.87,18.87,0,0,1-1.62-1.44,10.87,10.87,0,0,1-1.94-5.44,31.94,31.94,0,0,1,.06-6.62,60.15,60.15,0,0,1,1.13-6.75q.75-3.32,1.37-5.94a4.9,4.9,0,0,1-.06-4.5,9.71,9.71,0,0,1,2.44-3.25,21.18,21.18,0,0,0,.93-2.62,22.44,22.44,0,0,1,1.07-2.88,8.27,8.27,0,0,1,1.56-2.37,3.17,3.17,0,0,1,2.44-1,2.44,2.44,0,0,1,2.5,1.81A6.84,6.84,0,0,1,490.74,120.14Zm-6,13q-.63,3.63-1.57,7.81a31.06,31.06,0,0,0-.68,8.57,11.7,11.7,0,0,0,.43,2.12,3.13,3.13,0,0,0,1.19,1.63,9.67,9.67,0,0,0,5.75-3c1.42-1.59,2.75-3.21,4-4.88a48.87,48.87,0,0,0,3-6.06,15.09,15.09,0,0,0,1-7.31,56.64,56.64,0,0,1-6.37.93A52.49,52.49,0,0,1,484.74,133.14Zm5.5-10.37a3.73,3.73,0,0,0-.25,1.43.83.83,0,0,1-.75.94,2.05,2.05,0,0,1-.57-.06,3.59,3.59,0,0,1-.43-.19,2.25,2.25,0,0,1-.13-1.75,5.24,5.24,0,0,0-.94,1.63c-.2.58-.39,1.2-.56,1.87a17,17,0,0,0-.62,2c-.17.67-.34,1.33-.5,2q3.5,0,6.5-.25c2-.17,3.95-.42,5.87-.75a10,10,0,0,0-2.31-4.94C494.42,123.5,492.65,122.85,490.24,122.77Z"/><path class="cls-2" d="M541,95.64c-.41.25-.7.19-.87-.19a2.84,2.84,0,0,0-.5-.81,7.26,7.26,0,0,0-1.44-1.06,2.94,2.94,0,0,0-2.19-.31,3.6,3.6,0,0,0-2.37,2.18c-.67,1.3-1.21,2.4-1.63,3.32a67.07,67.07,0,0,0-3.56,10.75Q527,115.39,526,121q5-1.87,10.63-4.13a75.17,75.17,0,0,1,11.87-3.62,52,52,0,0,1,6.19-.94,14.42,14.42,0,0,1,6.19.69c.42.16.87.37,1.37.62a1.22,1.22,0,0,1,.63,1.38,2,2,0,0,1-2.25.37,9.27,9.27,0,0,0-2.63-.62,14.43,14.43,0,0,0-4.87.31c-1.58.37-3.13.77-4.63,1.19s-2.93.85-4.31,1.31-2.64.94-3.81,1.44a80.63,80.63,0,0,0-7.88,3.06c-2.5,1.12-5,2.31-7.37,3.56-.42,2.58-.79,5.25-1.13,8s-.66,5.58-1,8.5c-.08.92-.18,1.86-.31,2.81a13.36,13.36,0,0,0-.06,2.82,9.78,9.78,0,0,0,.5,2.06,20.67,20.67,0,0,1,.62,2.06,79.81,79.81,0,0,1,2,23.63c0,.91,0,1.85-.12,2.81a12,12,0,0,1-.5,2.62,4.7,4.7,0,0,1-1.13,1.94,2.69,2.69,0,0,1-2,.75,2.44,2.44,0,0,1-1.81-.69,4.82,4.82,0,0,1-1.06-1.68,11.09,11.09,0,0,1-.56-2.13c-.13-.75-.23-1.46-.32-2.12a75.84,75.84,0,0,1-1.06-11.94q-.06-6.2.31-12.56c.09-.84.19-1.67.32-2.5a9.59,9.59,0,0,0,.06-2.38,5.31,5.31,0,0,0-.69-2c-.37-.67-.73-1.33-1.06-2a18.17,18.17,0,0,0-2.19-3.62l-2.56-3.25c-.42-.5-.85-1.07-1.31-1.69a3.41,3.41,0,0,1-.69-2.06,3.75,3.75,0,0,1,.5-1.88,7.64,7.64,0,0,1,1.25-1.62,10.17,10.17,0,0,1,1.62-1.32,15.73,15.73,0,0,0,1.5-1.06c1.17-.75,2.28-1.39,3.32-1.94s2.18-1.14,3.43-1.81q1.13-6.12,2.94-12.56A102.9,102.9,0,0,1,528,99a34.85,34.85,0,0,1,2.69-4.88,8.61,8.61,0,0,1,4.06-3.37c0,.08.09,0,.25-.13a4.6,4.6,0,0,1,2.88.56c.67.46,1.33.94,2,1.44A8.53,8.53,0,0,0,540.92,94,1.16,1.16,0,0,1,541,95.64Zm-27.12,37.25a33,33,0,0,1,2.56,2.88,25.28,25.28,0,0,1,2.19,3.25q.38-2.62.69-5.32c.21-1.79.48-3.52.81-5.18l-.13-.13c-1.08.75-2.16,1.46-3.25,2.13A12.91,12.91,0,0,0,513.86,132.89Z"/><path class="cls-2" d="M557.11,107.64q10.75-.37,22.37-1.12a165.27,165.27,0,0,1,23.13.12c.42,0,.87,0,1.37.06a1.08,1.08,0,0,1,1,.69c-.08.67-.39,1-.93,1a7.67,7.67,0,0,1-1.44-.12,225.73,225.73,0,0,0-23.13.18q-11.49.69-22.62,1.32-1.75,10.24-3.19,20.87a153.81,153.81,0,0,0-1.31,22.25q0,1.62.12,3.63a26.56,26.56,0,0,0,.5,3.75c.17.91.44,2,.82,3.37s.93,2,1.68,2.13a1.7,1.7,0,0,0,1.32-.38,12,12,0,0,0,1.37-1.19,12.8,12.8,0,0,0,1.25-1.43c.38-.5.65-.88.81-1.13a120,120,0,0,0,8.94-13.31q3.95-6.81,8.31-14.19c.75-1.33,1.55-2.71,2.38-4.12s1.75-2.84,2.75-4.25a12.66,12.66,0,0,1,1.12-1.44c.42-.46.84-.61,1.25-.44.67.33.8.86.38,1.56s-.75,1.23-1,1.57q-3.12,5.25-5.88,10.62t-5.87,10.63c-1.17,1.91-2.31,3.85-3.44,5.81s-2.31,3.89-3.56,5.81-2.54,3.79-3.88,5.63a13.41,13.41,0,0,1-5.12,4.25,7.26,7.26,0,0,1-2.63,0,7.76,7.76,0,0,1-4.31-4.69A34.86,34.86,0,0,1,548,158a54.73,54.73,0,0,1-.62-8.32q0-4.3.25-8.43.63-8.39,1.69-16.19t2.56-14.94q-5.75.26-11.69.88c-3.95.41-8,.7-12.06.87-.5,0-1.06,0-1.69.06a.91.91,0,0,1-1.06-.93.88.88,0,0,1,1-1,11.08,11.08,0,0,0,1.75-.13q5.88-.37,12-1t12.12-.87c.5-1.75,1.07-3.82,1.69-6.19a51.43,51.43,0,0,1,2.19-6.56,9.65,9.65,0,0,1,.94-2.07A2,2,0,0,1,558.73,92a1.28,1.28,0,0,1,1.19.5,1.85,1.85,0,0,1,.25,1.18,8.71,8.71,0,0,1-.25,1.44c-.12.5-.23,1-.31,1.38-.42,1.83-.83,3.73-1.25,5.68S557.53,106,557.11,107.64Z"/><path class="cls-2" d="M585.36,142.39c1.66-3.17,3.33-6.39,5-9.69a45.52,45.52,0,0,1,5.87-8.93c.34-.42.75-.92,1.25-1.5a8.49,8.49,0,0,1,1.63-1.5,5.43,5.43,0,0,1,1.94-.88,3.81,3.81,0,0,1,2.31.25c1.25.58,2.16,1.88,2.75,3.88s1.08,4,1.5,6c.16.91.35,1.87.56,2.87s.44,2,.69,3a19.77,19.77,0,0,0,1,2.81,2.65,2.65,0,0,0,1.5,1.69,2.07,2.07,0,0,0,1.87-.44c.59-.45,1.09-.81,1.5-1.06.5-.42,1-.77,1.38-1.06a10.53,10.53,0,0,0,1.25-1.06,54.19,54.19,0,0,0,5.25-5.25,61.55,61.55,0,0,1,5.25-5.38,20.16,20.16,0,0,1,2.19-1.44,3.19,3.19,0,0,1,1.5-.43q.68,0,.81.87c.08.5-.19.92-.81,1.25a6,6,0,0,0-1.44,1,31.17,31.17,0,0,0-3.5,3.56c-1.17,1.38-2.42,2.77-3.75,4.19-.67.67-1.31,1.29-1.94,1.88s-1.27,1.2-1.94,1.87c-1.08,1.08-2.25,2.15-3.5,3.19a7.36,7.36,0,0,1-4.87,1.56l-.56-.25a1.92,1.92,0,0,0-.69-.12,7.65,7.65,0,0,1-3.06-3.88,39.64,39.64,0,0,1-1.57-5.31c-.41-1.88-.81-3.75-1.18-5.63a17.36,17.36,0,0,0-1.82-5.06,7.54,7.54,0,0,0-3.25,2.81,39.06,39.06,0,0,1-2.5,3.57,57.59,57.59,0,0,0-4.25,7.75q-1.87,4.13-3.62,8.5a7.41,7.41,0,0,0-.88,1.93,22.15,22.15,0,0,1-.87,2.32,6.45,6.45,0,0,1-1.31,1.93,2.33,2.33,0,0,1-2.19.57,2.09,2.09,0,0,1-1.69-1.32,8,8,0,0,1-.69-2.75,30.77,30.77,0,0,1-.06-3.37c0-1.21.11-2.31.19-3.31q.5-6,1.37-11.69a71.11,71.11,0,0,1,2.38-10.44c.33-.92.62-1.75.87-2.5a1.75,1.75,0,0,1,1.63-1.25,1.42,1.42,0,0,1,1.56.69,3.63,3.63,0,0,1,.38,1.94,14.45,14.45,0,0,1-.38,2.43c-.21.88-.35,1.61-.44,2.19-.58,3.17-1.08,6.33-1.5,9.5S585.69,139.22,585.36,142.39Z"/><path class="cls-2" d="M631,130.39a25,25,0,0,0-1.62,4.56,21.33,21.33,0,0,0-.75,5.5,9.38,9.38,0,0,0,1.12,4.69,4.45,4.45,0,0,0,4,2.13,12.4,12.4,0,0,0,6.19-1.38c2-1,3.64-2,5.06-2.87q2.5-1.76,4.69-3.44t3.94-3.31a70.15,70.15,0,0,0,6.19-5.38c2-1.92,3.89-3.87,5.81-5.87a3.08,3.08,0,0,0,.81-1,10.77,10.77,0,0,1,.94-1.38,6.25,6.25,0,0,1,1.06-1.06,1,1,0,0,1,1.19-.06c.58.25.7.75.37,1.5a8.57,8.57,0,0,1-.87,1.62,4.63,4.63,0,0,1-.75,1.38,15.68,15.68,0,0,0-1,1.37,95,95,0,0,1-6.56,6.88q-3.45,3.24-7.07,6.5a51.47,51.47,0,0,1-10.5,7.5,27,27,0,0,1-3.12,1.43,17.43,17.43,0,0,1-3.63,1,16.69,16.69,0,0,1-3.81.19,7.65,7.65,0,0,1-3.56-1.12,6,6,0,0,1-1.31-1.19l-1.19-1.44a11.83,11.83,0,0,1-1.56-5.31,23.87,23.87,0,0,1,.37-5.94A38.3,38.3,0,0,1,629,125.52a52.15,52.15,0,0,1,5-7.38,14.65,14.65,0,0,1,7.63-4.75,6,6,0,0,1,4.19,1.13c1,.83,1.47,2.16,1.31,4a8.21,8.21,0,0,1-1.5,3.75,25.74,25.74,0,0,1-2.63,3.12,28.33,28.33,0,0,1-4.93,3.94A10.32,10.32,0,0,1,631,130.39ZM642.61,117a12.86,12.86,0,0,0-6.63,4.56,46.08,46.08,0,0,0-4.25,6.94,7.83,7.83,0,0,0,4.63-1.25,35.8,35.8,0,0,0,3.25-2.63c.91-1,1.87-2,2.87-3a5.4,5.4,0,0,0,1.38-4.25A1.35,1.35,0,0,0,642.61,117Z"/><path class="cls-2" d="M672.36,123.89a10.11,10.11,0,0,0-3.75,3,12.45,12.45,0,0,0-1.57,2,4,4,0,0,0-.68,2.63,4.32,4.32,0,0,0,1.37,2.43c.75.71,1.42,1.36,2,1.94l1.94,1.94a17.91,17.91,0,0,1,1.69,1.94c2.08-1.5,4.06-3.07,5.93-4.69a54.94,54.94,0,0,1,6.07-4.56,43.75,43.75,0,0,1,4.68-3.13q2.57-1.5,5.32-2.87l1.75-.88a1.7,1.7,0,0,1,1.87.13,1.35,1.35,0,0,1-.12,1,1.55,1.55,0,0,1-.75.56l-1,.37a1.48,1.48,0,0,0-.75.57,34.08,34.08,0,0,0-5.07,2.81q-2.31,1.56-4.68,3.06-6,4.5-11.63,9.38a38.35,38.35,0,0,1,3.06,5.87,18.17,18.17,0,0,1,1.32,7.13,20.92,20.92,0,0,1-1.25,8,23.14,23.14,0,0,1-3.75,6.5,27.91,27.91,0,0,1-5.38,4.75,11.79,11.79,0,0,1-7.25,2.12,8.62,8.62,0,0,1-2.87-.62,11.42,11.42,0,0,1-2.13-1.25,13,13,0,0,1-2-2.88,9.23,9.23,0,0,1-.87-3.62,13.77,13.77,0,0,1,1.62-8,42.06,42.06,0,0,1,4.13-6.25,52.26,52.26,0,0,1,4.93-5.44q2.57-2.45,5.07-4.56a15.22,15.22,0,0,0-2-2.32c-.75-.7-1.5-1.43-2.25-2.18a23.21,23.21,0,0,1-2.07-2.38,9.6,9.6,0,0,1-1.43-2.75,6.42,6.42,0,0,1,.06-5.06,20,20,0,0,1,2.44-4.06,33,33,0,0,1,2.43-2.44,11.1,11.1,0,0,1,2.82-1.81,11.45,11.45,0,0,1,1.87-.38,3.61,3.61,0,0,1,1.88.25,2.61,2.61,0,0,0,.68.69,2.08,2.08,0,0,1,.69.94,4.08,4.08,0,0,1,.06,2.37q-.31,1.38-.93,1.38c-.59.08-.92-.09-1-.5A2.82,2.82,0,0,0,672.36,123.89Zm-1.63,21.63a57.29,57.29,0,0,0-4.25,3.87,54.88,54.88,0,0,0-4.12,4.63c-.75.91-1.52,1.93-2.32,3.06a18.65,18.65,0,0,0-2,3.69,17.78,17.78,0,0,0-1.12,4.18,10.24,10.24,0,0,0,.44,4.57A9.27,9.27,0,0,0,659,171.2a3.74,3.74,0,0,0,2.38.69,8.66,8.66,0,0,0,5.06-1.94,22.54,22.54,0,0,0,3.94-3.93,17,17,0,0,0,2.43-4.75,21.71,21.71,0,0,0,1.13-5.57,18,18,0,0,0-.5-5.56,13.22,13.22,0,0,0-2.31-4.87.12.12,0,0,0-.13-.13C670.81,145.31,670.73,145.43,670.73,145.52Zm-13.25,31.12c0,.08.08,0,.25-.12C657.73,176.6,657.65,176.64,657.48,176.64Z"/><path class="cls-2" d="M703.61,123.89a10.11,10.11,0,0,0-3.75,3,12.45,12.45,0,0,0-1.57,2,4,4,0,0,0-.68,2.63A4.32,4.32,0,0,0,699,134c.75.71,1.42,1.36,2,1.94l1.94,1.94a17.91,17.91,0,0,1,1.69,1.94c2.08-1.5,4.06-3.07,5.93-4.69a54.94,54.94,0,0,1,6.07-4.56,43.75,43.75,0,0,1,4.68-3.13q2.57-1.5,5.32-2.87l1.75-.88a1.7,1.7,0,0,1,1.87.13,1.35,1.35,0,0,1-.12,1,1.55,1.55,0,0,1-.75.56l-1,.37a1.48,1.48,0,0,0-.75.57,34.08,34.08,0,0,0-5.07,2.81q-2.31,1.56-4.68,3.06-6,4.5-11.63,9.38a38.35,38.35,0,0,1,3.06,5.87,18.17,18.17,0,0,1,1.32,7.13,20.92,20.92,0,0,1-1.25,8,23.14,23.14,0,0,1-3.75,6.5,27.91,27.91,0,0,1-5.38,4.75,11.79,11.79,0,0,1-7.25,2.12,8.62,8.62,0,0,1-2.87-.62A11.42,11.42,0,0,1,688,174a13,13,0,0,1-2-2.88,9.23,9.23,0,0,1-.87-3.62,13.77,13.77,0,0,1,1.62-8,42.06,42.06,0,0,1,4.13-6.25,52.26,52.26,0,0,1,4.93-5.44q2.57-2.45,5.07-4.56a15.22,15.22,0,0,0-2-2.32c-.75-.7-1.5-1.43-2.25-2.18a23.21,23.21,0,0,1-2.07-2.38,9.6,9.6,0,0,1-1.43-2.75,6.42,6.42,0,0,1,.06-5.06,20,20,0,0,1,2.44-4.06,33,33,0,0,1,2.43-2.44,11.1,11.1,0,0,1,2.82-1.81,11.45,11.45,0,0,1,1.87-.38,3.61,3.61,0,0,1,1.88.25,2.61,2.61,0,0,0,.68.69,2.08,2.08,0,0,1,.69.94,4.08,4.08,0,0,1,.06,2.37q-.31,1.38-.93,1.38c-.59.08-.92-.09-1-.5A2.82,2.82,0,0,0,703.61,123.89ZM702,145.52a57.29,57.29,0,0,0-4.25,3.87,54.88,54.88,0,0,0-4.12,4.63c-.75.91-1.52,1.93-2.32,3.06a18.65,18.65,0,0,0-2,3.69,17.78,17.78,0,0,0-1.12,4.18,10.24,10.24,0,0,0,.44,4.57,9.27,9.27,0,0,0,1.62,1.68,3.74,3.74,0,0,0,2.38.69,8.66,8.66,0,0,0,5.06-1.94,22.54,22.54,0,0,0,3.94-3.93,17,17,0,0,0,2.43-4.75,21.71,21.71,0,0,0,1.13-5.57,18,18,0,0,0-.5-5.56,13.22,13.22,0,0,0-2.31-4.87.12.12,0,0,0-.13-.13C702.06,145.31,702,145.43,702,145.52Zm-13.25,31.12c0,.08.08,0,.25-.12C689,176.6,688.9,176.64,688.73,176.64Z"/><path class="cls-1" d="M12.16,18.37c0,.72,0,1.37,0,1.95s0,1.11,0,1.6,0,.95.08,1.38.08.85.15,1.28H10.66a13.7,13.7,0,0,1-.2-2.4H10.4a5.44,5.44,0,0,1-2.06,2.11A6.49,6.49,0,0,1,5.22,25a7.53,7.53,0,0,1-1.89-.24A5,5,0,0,1,1.66,24,3.93,3.93,0,0,1,0,20.58a4,4,0,0,1,.86-2.69A5.45,5.45,0,0,1,3,16.4a10.27,10.27,0,0,1,2.69-.64,24.1,24.1,0,0,1,2.51-.14h2.24v-.9A3.11,3.11,0,0,0,9.25,12a5,5,0,0,0-3-.83A6.73,6.73,0,0,0,1.76,12.8L.64,11.49A6.84,6.84,0,0,1,3.26,9.94a9.24,9.24,0,0,1,3-.53,6.76,6.76,0,0,1,4.29,1.26,4.9,4.9,0,0,1,1.6,4.08ZM8.32,17.15A17.82,17.82,0,0,0,6,17.31a8.2,8.2,0,0,0-2,.55,3.76,3.76,0,0,0-1.46,1,2.4,2.4,0,0,0-.54,1.6,2.38,2.38,0,0,0,.3,1.2,2.72,2.72,0,0,0,.79.86,3.67,3.67,0,0,0,1.07.52,4.4,4.4,0,0,0,1.2.17,6.16,6.16,0,0,0,2.53-.45,4.14,4.14,0,0,0,1.58-1.16A4,4,0,0,0,10.21,20a7.59,7.59,0,0,0,.22-1.84v-1Z"/><path class="cls-1" d="M17.89,14c0-.27,0-.61,0-1s0-.79-.05-1.2,0-.78,0-1.13,0-.63,0-.82h1.92c0,.56,0,1.09.05,1.6a4.38,4.38,0,0,0,.08,1h.09a5.28,5.28,0,0,1,1.92-2.09,5.58,5.58,0,0,1,3.14-.88,6.31,6.31,0,0,1,2.81.54,4.51,4.51,0,0,1,1.72,1.43,5.38,5.38,0,0,1,.86,2,11.62,11.62,0,0,1,.24,2.37v8.8H28.64V15.87a9.08,9.08,0,0,0-.16-1.74,4.6,4.6,0,0,0-.56-1.52,2.88,2.88,0,0,0-1.12-1.07,3.79,3.79,0,0,0-1.87-.4,5.54,5.54,0,0,0-2,.36,4.29,4.29,0,0,0-1.63,1.12,5.46,5.46,0,0,0-1.09,1.89,8,8,0,0,0-.4,2.67v7.4H17.89Z"/><path class="cls-1" d="M44.42,17.18A8.33,8.33,0,0,1,45,14.06a7.64,7.64,0,0,1,1.6-2.46A7.27,7.27,0,0,1,49.06,10a8.42,8.42,0,0,1,3.13-.57,8.33,8.33,0,0,1,3.12.57,7.57,7.57,0,0,1,2.47,1.62,7.34,7.34,0,0,1,1.61,2.46A8.14,8.14,0,0,1,60,17.18a8.14,8.14,0,0,1-.58,3.12,7.29,7.29,0,0,1-1.61,2.47,7.39,7.39,0,0,1-2.47,1.61,8.14,8.14,0,0,1-3.12.58,8.22,8.22,0,0,1-3.13-.58,7.1,7.1,0,0,1-2.47-1.61A7.57,7.57,0,0,1,45,20.3,8.33,8.33,0,0,1,44.42,17.18Zm1.92,0a6.8,6.8,0,0,0,.4,2.36,5.52,5.52,0,0,0,1.16,1.92,5.74,5.74,0,0,0,1.86,1.29,6.39,6.39,0,0,0,4.86,0,5.63,5.63,0,0,0,1.86-1.29,5.7,5.7,0,0,0,1.17-1.92,7.13,7.13,0,0,0,0-4.71,5.7,5.7,0,0,0-1.17-1.92,5.63,5.63,0,0,0-1.86-1.29,6.39,6.39,0,0,0-4.86,0,5.74,5.74,0,0,0-1.86,1.29,5.52,5.52,0,0,0-1.16,1.92A6.79,6.79,0,0,0,46.34,17.18Z"/><path class="cls-1" d="M64.45,9.79h1.92v2.59h.06a4.91,4.91,0,0,1,1.12-1.32A6.23,6.23,0,0,1,69,10.13a7.11,7.11,0,0,1,1.65-.55,9,9,0,0,1,1.69-.17,8.33,8.33,0,0,1,3.12.57,7.57,7.57,0,0,1,2.47,1.62,7.34,7.34,0,0,1,1.61,2.46,8.14,8.14,0,0,1,.58,3.12,8.14,8.14,0,0,1-.58,3.12,7.29,7.29,0,0,1-1.61,2.47,7.39,7.39,0,0,1-2.47,1.61,8.14,8.14,0,0,1-3.12.58,8.24,8.24,0,0,1-1.69-.18A6.65,6.65,0,0,1,69,24.24a6.23,6.23,0,0,1-1.46-.93A4.81,4.81,0,0,1,66.43,22h-.06v9.89H64.45Zm1.73,7.39a5.86,5.86,0,0,0,.48,2.36A6.06,6.06,0,0,0,68,21.46a6.26,6.26,0,0,0,2,1.29,6.13,6.13,0,0,0,2.43.48,5.92,5.92,0,0,0,2.43-.48,5.63,5.63,0,0,0,1.86-1.29,5.7,5.7,0,0,0,1.17-1.92,7.13,7.13,0,0,0,0-4.71,5.7,5.7,0,0,0-1.17-1.92,5.63,5.63,0,0,0-1.86-1.29,5.92,5.92,0,0,0-2.43-.48,6.13,6.13,0,0,0-2.43.48,6.26,6.26,0,0,0-2,1.29,6.06,6.06,0,0,0-1.31,1.92A5.85,5.85,0,0,0,66.18,17.18Z"/><path class="cls-1" d="M92.29,11.52H88.06v9.63a2.06,2.06,0,0,0,.55,1.54,2,2,0,0,0,1.5.54,4.82,4.82,0,0,0,1.11-.14,7.5,7.5,0,0,0,1.07-.37l.16,1.73a12.13,12.13,0,0,1-1.25.35A5.55,5.55,0,0,1,90,25a4.66,4.66,0,0,1-1.76-.3A3.23,3.23,0,0,1,87,23.84a3.19,3.19,0,0,1-.66-1.2,5.06,5.06,0,0,1-.21-1.49V11.52h-3.2V9.79h3.2V5.54h1.92V9.79h4.23Z"/><path class="cls-1" d="M96.19,3.94a1.44,1.44,0,1,1,2.88,0,1.39,1.39,0,0,1-.42,1,1.36,1.36,0,0,1-1,.42,1.37,1.37,0,0,1-1-.42A1.39,1.39,0,0,1,96.19,3.94Zm.48,5.85h1.92V24.58H96.67Z"/><path class="cls-1" d="M104.67,14c0-.27,0-.61,0-1s0-.79,0-1.2,0-.78,0-1.13,0-.63,0-.82h1.92c0,.56,0,1.09,0,1.6a5.1,5.1,0,0,0,.08,1h.09a5.28,5.28,0,0,1,1.92-2.09,5.6,5.6,0,0,1,3.14-.88,5,5,0,0,1,2.69.75,4.26,4.26,0,0,1,1.76,2.45,4.81,4.81,0,0,1,2.09-2.43,5.92,5.92,0,0,1,2.93-.77A6.38,6.38,0,0,1,124,10a4.56,4.56,0,0,1,1.71,1.43,5.22,5.22,0,0,1,.86,2,11.62,11.62,0,0,1,.24,2.37v8.8h-1.92V15.87a9.08,9.08,0,0,0-.16-1.74,4.39,4.39,0,0,0-.56-1.52,2.82,2.82,0,0,0-1.12-1.07,3.79,3.79,0,0,0-1.87-.4,4.44,4.44,0,0,0-2.21.49,3.87,3.87,0,0,0-1.36,1.27,5.19,5.19,0,0,0-.7,1.66,7.45,7.45,0,0,0-.21,1.7v8.32h-1.92v-8.9a6.37,6.37,0,0,0-.75-3.3,2.51,2.51,0,0,0-2.32-1.24,5.58,5.58,0,0,0-2,.36,4.37,4.37,0,0,0-1.63,1.12A5.62,5.62,0,0,0,107,14.51a8,8,0,0,0-.4,2.67v7.4h-1.92Z"/><path class="cls-1" d="M144.06,18.37c0,.72,0,1.37,0,1.95s0,1.11,0,1.6,0,.95.08,1.38.08.85.14,1.28h-1.79a13.74,13.74,0,0,1-.19-2.4h-.07a5.37,5.37,0,0,1-2.06,2.11,6.44,6.44,0,0,1-3.12.67,7.53,7.53,0,0,1-1.89-.24,5,5,0,0,1-1.66-.77,4,4,0,0,1-1.67-3.37,3.94,3.94,0,0,1,.87-2.69,5.34,5.34,0,0,1,2.12-1.49,10.37,10.37,0,0,1,2.69-.64,24.1,24.1,0,0,1,2.51-.14h2.24v-.9A3.11,3.11,0,0,0,141.15,12a5,5,0,0,0-3-.83,6.75,6.75,0,0,0-4.51,1.66l-1.12-1.31a6.88,6.88,0,0,1,2.63-1.55,9.14,9.14,0,0,1,3-.53,6.72,6.72,0,0,1,4.29,1.26,4.9,4.9,0,0,1,1.6,4.08Zm-3.84-1.22a17.94,17.94,0,0,0-2.35.16,8.2,8.2,0,0,0-2.05.55,3.65,3.65,0,0,0-1.45,1,2.36,2.36,0,0,0-.55,1.6,2.28,2.28,0,0,0,.31,1.2,2.58,2.58,0,0,0,.78.86,3.67,3.67,0,0,0,1.07.52,4.52,4.52,0,0,0,1.2.17,6.13,6.13,0,0,0,2.53-.45,4.14,4.14,0,0,0,1.58-1.16,4,4,0,0,0,.82-1.64,7.59,7.59,0,0,0,.22-1.84v-1Z"/><path class="cls-1" d="M150.14.38h1.92v24.2h-1.92Z"/><path class="cls-1" d="M166.65.38h1.92v12h.07a4.91,4.91,0,0,1,1.12-1.32,6.38,6.38,0,0,1,1.45-.93,7.44,7.44,0,0,1,1.65-.55,9.07,9.07,0,0,1,1.7-.17,8.33,8.33,0,0,1,3.12.57,7.42,7.42,0,0,1,2.46,1.62,7.52,7.52,0,0,1,1.62,2.46,8.33,8.33,0,0,1,.57,3.12,8.33,8.33,0,0,1-.57,3.12,7.46,7.46,0,0,1-1.62,2.47,7.25,7.25,0,0,1-2.46,1.61,8.14,8.14,0,0,1-3.12.58,8.33,8.33,0,0,1-1.7-.18,6.93,6.93,0,0,1-1.65-.54,6.38,6.38,0,0,1-1.45-.93A4.81,4.81,0,0,1,168.64,22h-.07v2.6h-1.92Zm1.73,16.8a5.86,5.86,0,0,0,.48,2.36,6.23,6.23,0,0,0,1.31,1.92,6.42,6.42,0,0,0,2,1.29,6.06,6.06,0,0,0,2.43.48,6,6,0,0,0,2.43-.48,5.85,5.85,0,0,0,1.86-1.29A5.52,5.52,0,0,0,180,19.54a7.13,7.13,0,0,0,0-4.71,5.52,5.52,0,0,0-1.16-1.92A5.85,5.85,0,0,0,177,11.62a6,6,0,0,0-2.43-.48,6.06,6.06,0,0,0-2.43.48,6.42,6.42,0,0,0-2,1.29,6.23,6.23,0,0,0-1.31,1.92A5.85,5.85,0,0,0,168.38,17.18Z"/><path class="cls-1" d="M198.72,18.37c0,.72,0,1.37,0,1.95s0,1.11.05,1.6.05.95.08,1.38.08.85.15,1.28h-1.8a14.79,14.79,0,0,1-.19-2.4H197a5.46,5.46,0,0,1-2.07,2.11,6.44,6.44,0,0,1-3.12.67,7.4,7.4,0,0,1-1.88-.24,5,5,0,0,1-1.67-.77,3.93,3.93,0,0,1-1.66-3.37,4,4,0,0,1,.86-2.69,5.45,5.45,0,0,1,2.13-1.49,10.27,10.27,0,0,1,2.69-.64,24,24,0,0,1,2.51-.14H197v-.9A3.14,3.14,0,0,0,195.81,12a5,5,0,0,0-3-.83,6.73,6.73,0,0,0-4.51,1.66l-1.12-1.31a6.84,6.84,0,0,1,2.62-1.55,9.24,9.24,0,0,1,3-.53,6.76,6.76,0,0,1,4.29,1.26,4.93,4.93,0,0,1,1.6,4.08Zm-3.84-1.22a17.82,17.82,0,0,0-2.35.16,8.2,8.2,0,0,0-2.05.55,3.68,3.68,0,0,0-1.46,1,2.4,2.4,0,0,0-.54,1.6,2.38,2.38,0,0,0,.3,1.2,2.61,2.61,0,0,0,.79.86,3.55,3.55,0,0,0,1.07.52,4.4,4.4,0,0,0,1.2.17,6.19,6.19,0,0,0,2.53-.45A4.22,4.22,0,0,0,196,21.62a4.16,4.16,0,0,0,.82-1.64,8.12,8.12,0,0,0,.22-1.84v-1Z"/><path class="cls-1" d="M204.8.38h1.92v24.2H204.8Z"/><path class="cls-1" d="M224.28,18.37c0,.72,0,1.37,0,1.95s0,1.11,0,1.6.05.95.08,1.38.08.85.14,1.28h-1.79a13.74,13.74,0,0,1-.19-2.4h-.07a5.37,5.37,0,0,1-2.06,2.11,6.44,6.44,0,0,1-3.12.67,7.53,7.53,0,0,1-1.89-.24,5,5,0,0,1-1.66-.77,4,4,0,0,1-1.67-3.37,3.94,3.94,0,0,1,.87-2.69,5.31,5.31,0,0,1,2.13-1.49,10.29,10.29,0,0,1,2.68-.64,24.14,24.14,0,0,1,2.52-.14h2.24v-.9A3.12,3.12,0,0,0,221.37,12a5,5,0,0,0-3-.83,6.77,6.77,0,0,0-4.52,1.66l-1.12-1.31a6.88,6.88,0,0,1,2.63-1.55,9.19,9.19,0,0,1,3-.53,6.76,6.76,0,0,1,4.29,1.26,4.92,4.92,0,0,1,1.59,4.08Zm-3.84-1.22a17.94,17.94,0,0,0-2.35.16,8.31,8.31,0,0,0-2.05.55,3.72,3.72,0,0,0-1.45,1,2.41,2.41,0,0,0-.55,1.6,2.38,2.38,0,0,0,.31,1.2,2.58,2.58,0,0,0,.78.86,3.67,3.67,0,0,0,1.07.52,4.52,4.52,0,0,0,1.2.17,6.13,6.13,0,0,0,2.53-.45,4.26,4.26,0,0,0,1.59-1.16,4.14,4.14,0,0,0,.81-1.64,7.6,7.6,0,0,0,.23-1.84v-1Z"/><path class="cls-1" d="M230,14c0-.27,0-.61,0-1s0-.79,0-1.2,0-.78,0-1.13,0-.63,0-.82h1.92c0,.56,0,1.09,0,1.6a5.1,5.1,0,0,0,.08,1h.1a5.14,5.14,0,0,1,1.92-2.09,5.55,5.55,0,0,1,3.13-.88,6.35,6.35,0,0,1,2.82.54,4.48,4.48,0,0,1,1.71,1.43,5.24,5.24,0,0,1,.87,2,12.37,12.37,0,0,1,.24,2.37v8.8h-1.92V15.87a9.09,9.09,0,0,0-.17-1.74,4.39,4.39,0,0,0-.56-1.52,2.79,2.79,0,0,0-1.11-1.07,3.83,3.83,0,0,0-1.88-.4,5.58,5.58,0,0,0-2,.36,4.37,4.37,0,0,0-1.63,1.12,5.62,5.62,0,0,0-1.09,1.89,8.24,8.24,0,0,0-.4,2.67v7.4H230Z"/><path class="cls-1" d="M260.8,22.4a7,7,0,0,1-2.47,1.94,7.18,7.18,0,0,1-3,.62,8.28,8.28,0,0,1-3.14-.58,7.06,7.06,0,0,1-2.46-1.61,7.26,7.26,0,0,1-1.6-2.47,8.14,8.14,0,0,1-.58-3.12,8.14,8.14,0,0,1,.58-3.12,7.32,7.32,0,0,1,1.6-2.46A7.22,7.22,0,0,1,252.22,10a8.47,8.47,0,0,1,3.14-.57,6.85,6.85,0,0,1,3,.67A7.91,7.91,0,0,1,260.86,12l-1.53,1.15a6.92,6.92,0,0,0-1.83-1.46,4.51,4.51,0,0,0-2.14-.52,6,6,0,0,0-2.44.48,5.47,5.47,0,0,0-3,3.21,7.13,7.13,0,0,0,0,4.71,5.47,5.47,0,0,0,3,3.21,6,6,0,0,0,2.44.48,4.41,4.41,0,0,0,2.22-.56,5.91,5.91,0,0,0,1.75-1.49Z"/><path class="cls-1" d="M277.5,21.79a6.48,6.48,0,0,1-2.77,2.43,8.82,8.82,0,0,1-3.63.74,7.78,7.78,0,0,1-3.07-.58,6.87,6.87,0,0,1-2.37-1.61,7.08,7.08,0,0,1-1.52-2.47,9.05,9.05,0,0,1-.53-3.15,8.29,8.29,0,0,1,.55-3.07A7.17,7.17,0,0,1,271,9.41a7.27,7.27,0,0,1,3,.59,6.55,6.55,0,0,1,3.5,3.79,7.42,7.42,0,0,1,.45,2.53v1.34H265.53a6.6,6.6,0,0,0,.24,1.56,5.53,5.53,0,0,0,2.59,3.37,5.33,5.33,0,0,0,2.77.64,6.19,6.19,0,0,0,2.85-.7,5.11,5.11,0,0,0,2.11-1.92ZM276,15.94a4.35,4.35,0,0,0-.4-1.86,5,5,0,0,0-1.09-1.52,5.25,5.25,0,0,0-3.63-1.42,4.85,4.85,0,0,0-2.61.64,5.64,5.64,0,0,0-1.65,1.47,5.9,5.9,0,0,0-.86,1.61,4.41,4.41,0,0,0-.26,1.08Z"/><path class="cls-1" d="M291,17.18a8.33,8.33,0,0,1,.58-3.12,7.47,7.47,0,0,1,1.6-2.46A7.22,7.22,0,0,1,295.64,10a8.47,8.47,0,0,1,3.14-.57,8.33,8.33,0,0,1,3.12.57,7.42,7.42,0,0,1,2.46,1.62A7.22,7.22,0,0,1,306,14.06a8.68,8.68,0,0,1,0,6.24,7.17,7.17,0,0,1-1.62,2.47,7.25,7.25,0,0,1-2.46,1.61,8.14,8.14,0,0,1-3.12.58,8.28,8.28,0,0,1-3.14-.58,7.06,7.06,0,0,1-2.46-1.61,7.42,7.42,0,0,1-1.6-2.47A8.33,8.33,0,0,1,291,17.18Zm1.92,0a7,7,0,0,0,.4,2.36,5.7,5.7,0,0,0,1.17,1.92,5.63,5.63,0,0,0,1.86,1.29,6.39,6.39,0,0,0,4.86,0,5.63,5.63,0,0,0,1.86-1.29,5.7,5.7,0,0,0,1.17-1.92,7.13,7.13,0,0,0,0-4.71,5.7,5.7,0,0,0-1.17-1.92,5.63,5.63,0,0,0-1.86-1.29,6.39,6.39,0,0,0-4.86,0,5.63,5.63,0,0,0-1.86,1.29,5.7,5.7,0,0,0-1.17,1.92A7,7,0,0,0,292.92,17.18Z"/><path class="cls-1" d="M312.57,11.52H309.5V9.79h3.07V5A5.86,5.86,0,0,1,313,2.58a4.51,4.51,0,0,1,1.08-1.52A3.64,3.64,0,0,1,315.5.24,5.08,5.08,0,0,1,317,0a5.62,5.62,0,0,1,2.21.38l-.39,1.67a3.79,3.79,0,0,0-1.73-.32c-1.72,0-2.59,1.31-2.59,3.93V9.79H318v1.73h-3.46V24.58h-1.92Z"/></g></g></svg>