<svg xmlns="http://www.w3.org/2000/svg" viewBox="0 0 536.25 218.25"><defs><style>.cls-1{fill:#53575a;}.cls-2{fill:none;stroke:#ff8300;}.cls-3{fill:#ff8300;}</style></defs><g id="Layer_2" data-name="Layer 2"><g id="Layer_1-2" data-name="Layer 1"><path class="cls-1" d="M132.83,195.78h2.11l3.58,12.39h.07l4.13-12.39h1.82l4.38,12.39H149l3.49-12.39h1.92L150,210.57h-2l-4.42-12.1h-.06l-4.13,12.1h-2Z"/><path class="cls-1" d="M171.13,207.78a6.43,6.43,0,0,1-2.77,2.43,8.63,8.63,0,0,1-3.63.74,7.78,7.78,0,0,1-3.07-.58,6.87,6.87,0,0,1-2.37-1.61,7.08,7.08,0,0,1-1.52-2.47,9,9,0,0,1-.53-3.15,8.5,8.5,0,0,1,.55-3.07,7.17,7.17,0,0,1,6.85-4.67,7.22,7.22,0,0,1,3,.59,6.55,6.55,0,0,1,3.5,3.79,7.42,7.42,0,0,1,.45,2.53v1.34H159.16a6.6,6.6,0,0,0,.24,1.56,5.64,5.64,0,0,0,.88,1.84,5.58,5.58,0,0,0,1.72,1.53,5.27,5.27,0,0,0,2.76.64,6.16,6.16,0,0,0,2.85-.7,5.11,5.11,0,0,0,2.11-1.92Zm-1.47-5.85a4.35,4.35,0,0,0-.4-1.86,5,5,0,0,0-1.09-1.52,5.25,5.25,0,0,0-3.63-1.42,4.85,4.85,0,0,0-2.61.64,5.64,5.64,0,0,0-1.65,1.47,5.9,5.9,0,0,0-.86,1.61,4.41,4.41,0,0,0-.26,1.08Z"/><path class="cls-1" d="M177.92,187.91h2.33l-2.46,7.3H175.9Z"/><path class="cls-1" d="M183.32,195.78h2.18l4.93,12.71,4.8-12.71h2l-5.82,14.79h-2Z"/><path class="cls-1" d="M213.92,207.78a6.48,6.48,0,0,1-2.77,2.43,8.66,8.66,0,0,1-3.63.74,7.79,7.79,0,0,1-3.08-.58,6.9,6.9,0,0,1-3.88-4.08,8.79,8.79,0,0,1-.53-3.15,8.5,8.5,0,0,1,.54-3.07,7.17,7.17,0,0,1,6.85-4.67,7.19,7.19,0,0,1,3,.59,6.63,6.63,0,0,1,2.18,1.57,6.77,6.77,0,0,1,1.33,2.22,7.66,7.66,0,0,1,.44,2.53v1.34H202a6.6,6.6,0,0,0,.24,1.56,5.53,5.53,0,0,0,2.59,3.37,5.31,5.31,0,0,0,2.77.64,6.19,6.19,0,0,0,2.85-.7,5.18,5.18,0,0,0,2.11-1.92Zm-1.48-5.85a4.35,4.35,0,0,0-.4-1.86,5,5,0,0,0-1.08-1.52,5.22,5.22,0,0,0-1.64-1,5.16,5.16,0,0,0-2-.38,4.84,4.84,0,0,0-2.6.64,5.4,5.4,0,0,0-1.65,1.47,5.69,5.69,0,0,0-.87,1.61,4.24,4.24,0,0,0-.25,1.08Z"/><path class="cls-1" d="M243.1,209.61a10.53,10.53,0,0,1-.8,4.44,7,7,0,0,1-2,2.63,6.72,6.72,0,0,1-2.58,1.25A10.56,10.56,0,0,1,233,218a10.27,10.27,0,0,1-2-.61,8.16,8.16,0,0,1-1.74-1,6.77,6.77,0,0,1-1.36-1.31l1.5-1.41a6.22,6.22,0,0,0,2.56,2.12,8.25,8.25,0,0,0,3.27.67,6.9,6.9,0,0,0,2.48-.39,4.75,4.75,0,0,0,2.69-2.38,7.52,7.52,0,0,0,.54-1.5,7.6,7.6,0,0,0,.21-1.43c0-.45,0-.81,0-1.09v-2h-.06a6,6,0,0,1-2.26,2.11,7,7,0,0,1-3.34.77,7.94,7.94,0,0,1-3.08-.6,7.71,7.71,0,0,1-2.51-1.63,7.83,7.83,0,0,1-1.69-2.41,7.2,7.2,0,0,1,0-5.89,7.56,7.56,0,0,1,1.69-2.4,8.24,8.24,0,0,1,2.51-1.63,7.77,7.77,0,0,1,3.08-.61,6.84,6.84,0,0,1,3.34.77,5.88,5.88,0,0,1,2.26,2.11h.06v-2.5h1.92ZM241.24,203a5.71,5.71,0,0,0-.46-2.29,5.87,5.87,0,0,0-3.1-3.1,5.93,5.93,0,0,0-4.58,0,6,6,0,0,0-1.86,1.25,5.78,5.78,0,0,0-1.24,1.85,5.81,5.81,0,0,0,0,4.58,5.7,5.7,0,0,0,3.1,3.1,5.81,5.81,0,0,0,4.58,0,5.78,5.78,0,0,0,1.85-1.24,6,6,0,0,0,1.25-1.86A5.68,5.68,0,0,0,241.24,203Z"/><path class="cls-1" d="M247.58,203.17a8.14,8.14,0,0,1,.58-3.12,7.45,7.45,0,0,1,1.59-2.46,7.36,7.36,0,0,1,2.47-1.62,8.88,8.88,0,0,1,6.26,0,7.3,7.3,0,0,1,4.08,4.08,8.82,8.82,0,0,1,0,6.24,7.46,7.46,0,0,1-1.62,2.47,7.34,7.34,0,0,1-2.46,1.61,8.74,8.74,0,0,1-6.26,0,7.19,7.19,0,0,1-2.47-1.61,7.39,7.39,0,0,1-1.59-2.47A8.06,8.06,0,0,1,247.58,203.17Zm1.92,0a6.8,6.8,0,0,0,.4,2.36,5.47,5.47,0,0,0,3,3.21,6.42,6.42,0,0,0,4.87,0,5.7,5.7,0,0,0,1.85-1.29,5.54,5.54,0,0,0,1.17-1.92,7.13,7.13,0,0,0,0-4.71,5.54,5.54,0,0,0-1.17-1.92,5.7,5.7,0,0,0-1.85-1.29,6.42,6.42,0,0,0-4.87,0,5.47,5.47,0,0,0-3,3.21A6.79,6.79,0,0,0,249.5,203.17Z"/><path class="cls-1" d="M275.29,197.51h-4.22v9.63a2.09,2.09,0,0,0,.54,1.54,2.05,2.05,0,0,0,1.51.54,4.67,4.67,0,0,0,1.1-.14,7.5,7.5,0,0,0,1.07-.37l.16,1.73a11.45,11.45,0,0,1-1.25.35A5.47,5.47,0,0,1,273,211a4.72,4.72,0,0,1-1.77-.3,3.23,3.23,0,0,1-1.18-.82,3.19,3.19,0,0,1-.66-1.2,5.42,5.42,0,0,1-.2-1.49v-9.63H266v-1.73h3.2v-4.25h1.92v4.25h4.22Z"/><path class="cls-1" d="M292.44,215.14a5.44,5.44,0,0,1-1.5,2.27,3.74,3.74,0,0,1-2.56.84,6.22,6.22,0,0,1-1-.08q-.48-.09-.93-.21l.19-1.79.85.24a3.72,3.72,0,0,0,.88.11,1.81,1.81,0,0,0,.91-.23,2.24,2.24,0,0,0,.69-.57,4.24,4.24,0,0,0,.5-.79,6.77,6.77,0,0,0,.36-.88l1.35-3.42-6-14.85h2.15l4.89,12.45L298,195.78h2.05Z"/><path class="cls-1" d="M302.91,203.17a8.33,8.33,0,0,1,.57-3.12,7.64,7.64,0,0,1,1.6-2.46,7.36,7.36,0,0,1,2.47-1.62,8.42,8.42,0,0,1,3.13-.57,8.33,8.33,0,0,1,3.12.57,7.57,7.57,0,0,1,2.47,1.62,7.34,7.34,0,0,1,1.61,2.46,8.68,8.68,0,0,1,0,6.24,7.29,7.29,0,0,1-1.61,2.47,7.39,7.39,0,0,1-2.47,1.61,8.14,8.14,0,0,1-3.12.58,8.22,8.22,0,0,1-3.13-.58,7.19,7.19,0,0,1-2.47-1.61,7.57,7.57,0,0,1-1.6-2.47A8.25,8.25,0,0,1,302.91,203.17Zm1.92,0a6.8,6.8,0,0,0,.4,2.36,5.52,5.52,0,0,0,1.16,1.92,5.74,5.74,0,0,0,1.86,1.29,6,6,0,0,0,2.43.48,5.92,5.92,0,0,0,2.43-.48,5.63,5.63,0,0,0,1.86-1.29,5.7,5.7,0,0,0,1.17-1.92,7.13,7.13,0,0,0,0-4.71A5.7,5.7,0,0,0,315,198.9a5.63,5.63,0,0,0-1.86-1.29,5.92,5.92,0,0,0-2.43-.48,6,6,0,0,0-2.43.48,5.74,5.74,0,0,0-1.86,1.29,5.52,5.52,0,0,0-1.16,1.92A6.79,6.79,0,0,0,304.83,203.17Z"/><path class="cls-1" d="M335.9,206.41c0,.27,0,.61,0,1s0,.8.05,1.2,0,.79,0,1.14,0,.62,0,.82h-1.92c0-.56,0-1.09-.05-1.6a5.24,5.24,0,0,0-.08-1h-.1a5.1,5.1,0,0,1-1.92,2.1,5.55,5.55,0,0,1-3.13.88,6.43,6.43,0,0,1-2.83-.54A4.49,4.49,0,0,1,324.3,209a5.06,5.06,0,0,1-.85-2,12.37,12.37,0,0,1-.22-2.37v-8.8h1.92v8.71a9.08,9.08,0,0,0,.16,1.74,4.39,4.39,0,0,0,.56,1.52,2.82,2.82,0,0,0,1.12,1.07,3.79,3.79,0,0,0,1.87.4,5.38,5.38,0,0,0,2-.37,4.15,4.15,0,0,0,1.63-1.12,5.48,5.48,0,0,0,1.09-1.88,8,8,0,0,0,.4-2.68v-7.39h1.92Z"/><path class="cls-1" d="M363.16,208.39a6.83,6.83,0,0,1-2.46,1.94,7.23,7.23,0,0,1-3,.62,8.22,8.22,0,0,1-3.13-.58,7.19,7.19,0,0,1-2.47-1.61,7.57,7.57,0,0,1-1.6-2.47,8.82,8.82,0,0,1,0-6.24,7.64,7.64,0,0,1,1.6-2.46,7.36,7.36,0,0,1,2.47-1.62,8.42,8.42,0,0,1,3.13-.57,6.86,6.86,0,0,1,3,.67,8.15,8.15,0,0,1,2.48,1.89l-1.54,1.15a6.73,6.73,0,0,0-1.82-1.46,4.55,4.55,0,0,0-2.15-.52,6,6,0,0,0-2.43.48,5.74,5.74,0,0,0-1.86,1.29,5.52,5.52,0,0,0-1.16,1.92,7.13,7.13,0,0,0,0,4.71,5.52,5.52,0,0,0,1.16,1.92,5.74,5.74,0,0,0,1.86,1.29,6,6,0,0,0,2.43.48,4.48,4.48,0,0,0,2.23-.56,5.76,5.76,0,0,0,1.74-1.49Z"/><path class="cls-1" d="M366,203.17a8.33,8.33,0,0,1,.57-3.12,7.64,7.64,0,0,1,1.6-2.46,7.36,7.36,0,0,1,2.47-1.62,8.42,8.42,0,0,1,3.13-.57,8.33,8.33,0,0,1,3.12.57,7.57,7.57,0,0,1,2.47,1.62,7.34,7.34,0,0,1,1.61,2.46,8.68,8.68,0,0,1,0,6.24,7.29,7.29,0,0,1-1.61,2.47,7.39,7.39,0,0,1-2.47,1.61,8.14,8.14,0,0,1-3.12.58,8.22,8.22,0,0,1-3.13-.58,7.19,7.19,0,0,1-2.47-1.61,7.57,7.57,0,0,1-1.6-2.47A8.25,8.25,0,0,1,366,203.17Zm1.92,0a6.8,6.8,0,0,0,.4,2.36,5.4,5.4,0,0,0,1.17,1.92,5.7,5.7,0,0,0,1.85,1.29,6.42,6.42,0,0,0,4.87,0,5.47,5.47,0,0,0,3-3.21,7.13,7.13,0,0,0,0-4.71,5.47,5.47,0,0,0-3-3.21,6.42,6.42,0,0,0-4.87,0,5.7,5.7,0,0,0-1.85,1.29,5.4,5.4,0,0,0-1.17,1.92A6.79,6.79,0,0,0,367.9,203.17Z"/><path class="cls-1" d="M384.38,195.78h2.17l4.93,12.71,4.8-12.71h2l-5.82,14.79h-2Z"/><path class="cls-1" d="M415,207.78a6.48,6.48,0,0,1-2.77,2.43,8.66,8.66,0,0,1-3.63.74,7.74,7.74,0,0,1-3.07-.58,6.87,6.87,0,0,1-2.37-1.61,7.08,7.08,0,0,1-1.52-2.47,9,9,0,0,1-.53-3.15,8.29,8.29,0,0,1,.55-3.07,7.17,7.17,0,0,1,6.84-4.67,7.27,7.27,0,0,1,3,.59,6.55,6.55,0,0,1,3.5,3.79,7.42,7.42,0,0,1,.45,2.53v1.34H403a6.6,6.6,0,0,0,.24,1.56,5.45,5.45,0,0,0,.88,1.84,5.65,5.65,0,0,0,1.71,1.53,5.33,5.33,0,0,0,2.77.64,6.19,6.19,0,0,0,2.85-.7,5.11,5.11,0,0,0,2.11-1.92Zm-1.47-5.85a4.5,4.5,0,0,0-.4-1.86,5,5,0,0,0-1.09-1.52,5.25,5.25,0,0,0-3.63-1.42,4.85,4.85,0,0,0-2.61.64,5.64,5.64,0,0,0-1.65,1.47,5.9,5.9,0,0,0-.86,1.61,4.41,4.41,0,0,0-.26,1.08Z"/><path class="cls-1" d="M420.35,199.94c0-.27,0-.61,0-1s0-.79,0-1.2,0-.78,0-1.13,0-.63,0-.82h1.92c0,.56,0,1.09,0,1.6a5.1,5.1,0,0,0,.08,1,6.62,6.62,0,0,1,1.89-2.14,4.73,4.73,0,0,1,2.82-.83,2.59,2.59,0,0,1,.56,0l.56.11-.23,1.89a2.17,2.17,0,0,0-.73-.13,5.3,5.3,0,0,0-2.16.4,4.13,4.13,0,0,0-1.51,1.1,4.84,4.84,0,0,0-.88,1.65,7,7,0,0,0-.28,2v8.07h-1.92Z"/><path class="cls-1" d="M444.12,207.78a6.48,6.48,0,0,1-2.77,2.43,8.66,8.66,0,0,1-3.63.74,7.78,7.78,0,0,1-3.07-.58,6.87,6.87,0,0,1-2.37-1.61,7.08,7.08,0,0,1-1.52-2.47,9,9,0,0,1-.53-3.15,8.29,8.29,0,0,1,.55-3.07,7.17,7.17,0,0,1,6.85-4.67,7.22,7.22,0,0,1,3,.59,6.55,6.55,0,0,1,3.5,3.79,7.42,7.42,0,0,1,.45,2.53v1.34H432.15a6.6,6.6,0,0,0,.24,1.56,5.64,5.64,0,0,0,.88,1.84,5.58,5.58,0,0,0,1.72,1.53,5.27,5.27,0,0,0,2.76.64,6.19,6.19,0,0,0,2.85-.7,5.11,5.11,0,0,0,2.11-1.92Zm-1.47-5.85a4.35,4.35,0,0,0-.4-1.86,5,5,0,0,0-1.09-1.52,5.25,5.25,0,0,0-3.63-1.42,4.85,4.85,0,0,0-2.61.64,5.64,5.64,0,0,0-1.65,1.47,5.9,5.9,0,0,0-.86,1.61,4.41,4.41,0,0,0-.26,1.08Z"/><path class="cls-1" d="M462.39,208h-.06a4.81,4.81,0,0,1-1.12,1.33,6.23,6.23,0,0,1-1.46.93,6.71,6.71,0,0,1-1.64.54,8.4,8.4,0,0,1-1.7.18,8.28,8.28,0,0,1-3.14-.58,7.06,7.06,0,0,1-2.46-1.61,7.42,7.42,0,0,1-1.6-2.47,8.68,8.68,0,0,1,0-6.24,7.47,7.47,0,0,1,1.6-2.46,7.22,7.22,0,0,1,2.46-1.62,8.47,8.47,0,0,1,3.14-.57,9.16,9.16,0,0,1,1.7.17,7.19,7.19,0,0,1,1.64.55,6.23,6.23,0,0,1,1.46.93,4.91,4.91,0,0,1,1.12,1.32h.06v-12h1.92v24.2h-1.92Zm.2-4.8a5.85,5.85,0,0,0-.48-2.35,6.09,6.09,0,0,0-1.32-1.92,6.26,6.26,0,0,0-2-1.29,6.09,6.09,0,0,0-2.43-.48,5.92,5.92,0,0,0-2.43.48,5.63,5.63,0,0,0-1.86,1.29,5.7,5.7,0,0,0-1.17,1.92,7.13,7.13,0,0,0,0,4.71,5.7,5.7,0,0,0,1.17,1.92,5.63,5.63,0,0,0,1.86,1.29,5.92,5.92,0,0,0,2.43.48,6.09,6.09,0,0,0,2.43-.48,6.26,6.26,0,0,0,2-1.29,6.09,6.09,0,0,0,1.32-1.92A5.86,5.86,0,0,0,462.59,203.17Z"/><line class="cls-2" x1="165.77" y1="167.58" x2="429.77" y2="167.58"/><path class="cls-1" d="M62.05,112.32v-.09h-.34a39,39,0,0,1,.6-6.88,38.49,38.49,0,0,1,1.81-6.62,35.05,35.05,0,0,1,6.53-11,36.6,36.6,0,0,1,4.43-4.21,25.48,25.48,0,0,1,5.12-3.18A25.89,25.89,0,0,1,92,77.58a21.44,21.44,0,0,1,8.43,1.63h.08a.48.48,0,0,0,.35.17l.08.09,1.16.51c.38.18.76.38,1.17.61q4.47,2.14,7,2.15a7.07,7.07,0,0,0,3.87-.86,4.41,4.41,0,0,0,2-3h.6v25h-.6a43.26,43.26,0,0,0-1.25-6A40.26,40.26,0,0,0,113,92.54a30.25,30.25,0,0,0-2.53-4.34,27.71,27.71,0,0,0-3.06-3.66,22.06,22.06,0,0,0-7.22-4.81,22.3,22.3,0,0,0-6.88-1.55,15.39,15.39,0,0,0-8.6,2.66,24.56,24.56,0,0,0-7,7.31A40,40,0,0,0,72.84,99a48.88,48.88,0,0,0-1.76,13.29A46.51,46.51,0,0,0,74,129a33.22,33.22,0,0,0,7.53,12.13,22.81,22.81,0,0,0,4.21,3.05,24,24,0,0,0,3.44,1.59,9.31,9.31,0,0,0,2,.48,19.11,19.11,0,0,0,2.11.13,34.23,34.23,0,0,0,3.48-.52,19.93,19.93,0,0,0,3.4-1,21.22,21.22,0,0,0,7.14-4.82,18.54,18.54,0,0,0,3-3.57,35.44,35.44,0,0,0,2.45-4.34,31.51,31.51,0,0,0,2-5.33,56.37,56.37,0,0,0,1.29-6l.6.08a39.58,39.58,0,0,1-3.35,11.53,28.39,28.39,0,0,1-5.59,8.17,24.2,24.2,0,0,1-7.4,4.81A20.79,20.79,0,0,1,92,147a26,26,0,0,1-11.78-2.75,30,30,0,0,1-9.55-7.4,34.94,34.94,0,0,1-6.53-11,38.25,38.25,0,0,1-1.81-6.62,39,39,0,0,1-.6-6.88Z"/><path class="cls-1" d="M127.41,111.8a36.85,36.85,0,0,1,2.41-13.5,33,33,0,0,1,6.45-11.09,28.83,28.83,0,0,1,9.46-7.4,26.74,26.74,0,0,1,11.78-2.75h5a26.55,26.55,0,0,1,11.69,2.75,28.68,28.68,0,0,1,9.64,7.4,37.08,37.08,0,0,1,6.53,11.09,39.09,39.09,0,0,1,2.32,13.5,38.62,38.62,0,0,1-2.32,13.51,37.08,37.08,0,0,1-6.53,11.09,28.68,28.68,0,0,1-9.64,7.4,26.55,26.55,0,0,1-11.69,2.75h-5a26.74,26.74,0,0,1-11.78-2.75,28.83,28.83,0,0,1-9.46-7.4,33.12,33.12,0,0,1-6.45-11.09A36.87,36.87,0,0,1,127.41,111.8Zm9.37,0a52.26,52.26,0,0,0,1.6,13.16,36.08,36.08,0,0,0,4.77,11,17.55,17.55,0,0,0,1.33,2,18.37,18.37,0,0,0,1.51,1.72,21.87,21.87,0,0,0,5.2,4,41.52,41.52,0,0,0,4.08,1.93l1.64.35a9.48,9.48,0,0,0,1.8.17h2.58A8.22,8.22,0,0,0,163,146c.52-.12,1.09-.23,1.72-.35,1-.4,2.31-1,4-1.93a23.43,23.43,0,0,0,5.29-4c.46-.52.93-1.09,1.42-1.72s1-1.29,1.42-2a36.91,36.91,0,0,0,4.82-11,53.9,53.9,0,0,0,0-26.31,36.91,36.91,0,0,0-4.82-11c-.46-.69-.93-1.35-1.42-2s-1-1.2-1.42-1.72a23.43,23.43,0,0,0-5.29-4c-1.69-.89-3-1.53-4-1.93L163,77.7a11.23,11.23,0,0,0-1.72-.12h-2.58a14,14,0,0,0-3.44.43,41.52,41.52,0,0,0-4.08,1.93,21.87,21.87,0,0,0-5.2,4,18.37,18.37,0,0,0-1.51,1.72,17.55,17.55,0,0,0-1.33,2,36.08,36.08,0,0,0-4.77,11A52.18,52.18,0,0,0,136.78,111.8Z"/><path class="cls-1" d="M252.63,145.86a7.32,7.32,0,0,0,3.18-1.25,5,5,0,0,0,1.72-2.58,15.65,15.65,0,0,0,.51-4.43V92.54c0-2.75,0-5.12,0-7.09s0-3.29,0-3.92l-26.4,50.57H231L206,84.63v50.91a9,9,0,0,0,1.59,5.59,11.62,11.62,0,0,0,3.79,3.22,13.83,13.83,0,0,0,4.47,1.51,25.28,25.28,0,0,0,3.57.34h1.38v.52h-30v-.52h1.29a25.58,25.58,0,0,0,3.66-.34,13.46,13.46,0,0,0,4.43-1.51,11.67,11.67,0,0,0,3.74-3.22,9,9,0,0,0,1.59-5.59V88.41q0-2.05-.09-3.87a7.32,7.32,0,0,0-.81-3.14,5.06,5.06,0,0,0-2.33-2.1,10.47,10.47,0,0,0-4.51-.78H195v-.6h18l23.22,44.29,23.13-44.29h18.24v.6h-3.44c-2.58,0-4.38.63-5.38,1.89s-1.5,3.42-1.5,6.45v50.83q0,4.81,1.89,6.66c1.26,1.24,3.21,1.85,5.85,1.85h2.66v.52H247.72v-.52A29.37,29.37,0,0,0,252.63,145.86Z"/><path class="cls-1" d="M286.94,145.73a6.57,6.57,0,0,0,3.18-1.25,5.14,5.14,0,0,0,1.72-2.58,14.75,14.75,0,0,0,.52-4.38V86.86a16.57,16.57,0,0,0-.39-4,5.56,5.56,0,0,0-1.29-2.5A5.27,5.27,0,0,0,288.27,79a18.37,18.37,0,0,0-3.65-.6H282v-.69h54.53V96h-.61v-.17c-.46-1.89-1-3.86-1.59-5.89a17.56,17.56,0,0,0-2.79-5.59,14.64,14.64,0,0,0-5.16-4.22,18.89,18.89,0,0,0-8.6-1.67H301.56v33.45h12.3a10.06,10.06,0,0,0,5.8-1.63,10.39,10.39,0,0,0,3.14-3.53,13,13,0,0,0,1.34-3.78,20.19,20.19,0,0,0,.3-2.5v-.26H325v24h-.51v-.26a22.79,22.79,0,0,0-.3-2.49,12.29,12.29,0,0,0-1.38-3.87,10.55,10.55,0,0,0-3.27-3.53,10.37,10.37,0,0,0-6.06-1.55H301.56V137.6a16.77,16.77,0,0,0,.39,3.92,5.47,5.47,0,0,0,1.29,2.53,5.38,5.38,0,0,0,2.41,1.42,13.67,13.67,0,0,0,3.65.56H312v.6H282V146A33.48,33.48,0,0,0,286.94,145.73Z"/><path class="cls-1" d="M340.43,111.8a36.85,36.85,0,0,1,2.41-13.5,33,33,0,0,1,6.45-11.09,28.83,28.83,0,0,1,9.46-7.4,26.74,26.74,0,0,1,11.78-2.75h5a26.63,26.63,0,0,1,11.7,2.75,28.64,28.64,0,0,1,9.63,7.4,37.08,37.08,0,0,1,6.53,11.09,39.09,39.09,0,0,1,2.32,13.5,38.62,38.62,0,0,1-2.32,13.51,37.08,37.08,0,0,1-6.53,11.09,28.64,28.64,0,0,1-9.63,7.4,26.63,26.63,0,0,1-11.7,2.75h-5a26.74,26.74,0,0,1-11.78-2.75,28.83,28.83,0,0,1-9.46-7.4,33.12,33.12,0,0,1-6.45-11.09A36.87,36.87,0,0,1,340.43,111.8Zm9.38,0A52.27,52.27,0,0,0,351.4,125a36.08,36.08,0,0,0,4.77,11,17.55,17.55,0,0,0,1.33,2,18.37,18.37,0,0,0,1.51,1.72,21.87,21.87,0,0,0,5.2,4,40.45,40.45,0,0,0,4.09,1.93c.51.12,1.05.23,1.63.35a9.48,9.48,0,0,0,1.8.17h2.58A8.22,8.22,0,0,0,376,146c.52-.12,1.09-.23,1.73-.35,1-.4,2.3-1,4-1.93a23.43,23.43,0,0,0,5.29-4c.46-.52.93-1.09,1.42-1.72s1-1.29,1.42-2a36.91,36.91,0,0,0,4.82-11,53.9,53.9,0,0,0,0-26.31,36.91,36.91,0,0,0-4.82-11c-.46-.69-.93-1.35-1.42-2s-1-1.2-1.42-1.72a23.43,23.43,0,0,0-5.29-4c-1.69-.89-3-1.53-4-1.93L376,77.7a11.23,11.23,0,0,0-1.72-.12h-2.58a13.9,13.9,0,0,0-3.43.43,40.45,40.45,0,0,0-4.09,1.93,21.87,21.87,0,0,0-5.2,4,18.37,18.37,0,0,0-1.51,1.72,17.55,17.55,0,0,0-1.33,2,36.08,36.08,0,0,0-4.77,11A52.19,52.19,0,0,0,349.81,111.8Z"/><path class="cls-1" d="M408.37,146.81v-.61h.09a34.46,34.46,0,0,0,4.94-.3,6.42,6.42,0,0,0,3.18-1.24,5.21,5.21,0,0,0,1.68-2.58,15.16,15.16,0,0,0,.52-4.39V87c0-3.16-.56-5.32-1.68-6.5s-3.11-1.85-6-2h-2.75V78h32.77a35.34,35.34,0,0,1,10,1.29A22.21,22.21,0,0,1,458,83a14.56,14.56,0,0,1,3.91,5.38,17.5,17.5,0,0,1,1.34,6.92q0,7.74-5.25,12.3a20.67,20.67,0,0,1-6.88,3.7,17.83,17.83,0,0,1-4,.94c-1.4.18-2.88.32-4.43.43a13,13,0,0,1,3.83,1.81,19.41,19.41,0,0,1,4.6,4.73l16.17,22.45a8.56,8.56,0,0,0,2.88,2.53,17.92,17.92,0,0,0,3.27,1.38,13.86,13.86,0,0,0,2.79.56c.81.06,1.29.08,1.47.08h.08v.61h-17.2l-21-29.07a19.75,19.75,0,0,0-2.37-2.71,9.86,9.86,0,0,0-2.06-1.51,6.83,6.83,0,0,0-1.94-.68,10.54,10.54,0,0,0-2-.18h-3.19v25.12a16.57,16.57,0,0,0,.39,3.95,5.06,5.06,0,0,0,3.66,3.91,13.09,13.09,0,0,0,3.61.56h2.66v.61h-30Zm19.69-34.66h12.39a12.36,12.36,0,0,0,7.22-2.15,13.85,13.85,0,0,0,1.94-1.76,15.55,15.55,0,0,0,1.85-2.54,21.33,21.33,0,0,0,1.63-4.69,25.62,25.62,0,0,0,.6-5.72q0-7.4-3.18-11.87a11.67,11.67,0,0,0-10.06-4.9h-5.59a11.76,11.76,0,0,0-3.18.69,5.29,5.29,0,0,0-2.11,1.46,5.53,5.53,0,0,0-1.16,2.5,17.62,17.62,0,0,0-.35,3.78v25.2Z"/><path class="cls-1" d="M535.65,95.81v-.17Q535,93,534.1,90.09a19.64,19.64,0,0,0-2.54-5.38A14,14,0,0,0,527,80.5a17,17,0,0,0-7.53-2.06h-.77q-3.8.34-5.29,2.1c-1,1.18-1.51,3.26-1.51,6.24V137.6a16.77,16.77,0,0,0,.39,3.92,5.47,5.47,0,0,0,1.29,2.53,5.4,5.4,0,0,0,2.37,1.42,13.09,13.09,0,0,0,3.61.56h2.66v.6H492.31V146a34.46,34.46,0,0,0,4.94-.3,6.33,6.33,0,0,0,3.18-1.25,5.21,5.21,0,0,0,1.68-2.58,15.08,15.08,0,0,0,.52-4.38V86.86a16.57,16.57,0,0,0-.39-4,5.56,5.56,0,0,0-1.29-2.5A5.24,5.24,0,0,0,498.58,79a17.56,17.56,0,0,0-3.61-.6h-.51A16.79,16.79,0,0,0,487,80.5a14.65,14.65,0,0,0-4.55,4.21,18.92,18.92,0,0,0-2.58,5.38Q479,93,478.37,95.64v.17h-.6V77.75h58.48V95.81Z"/><path class="cls-3" d="M31.75,32.15Q42.51,31.78,54.12,31a165.26,165.26,0,0,1,23.13.12c.42,0,.87,0,1.37.06a1.1,1.1,0,0,1,1,.69c-.08.67-.39,1-.93,1a7.67,7.67,0,0,1-1.44-.12A228.61,228.61,0,0,0,54.12,33q-11.49.69-22.62,1.32-1.76,10.24-3.19,20.87A153.89,153.89,0,0,0,27,77.4Q27,79,27.12,81a28.1,28.1,0,0,0,.5,3.75c.17.92.44,2,.82,3.37s.94,2,1.68,2.13a1.7,1.7,0,0,0,1.32-.38,13.54,13.54,0,0,0,2.62-2.62c.38-.5.65-.88.82-1.13a121.31,121.31,0,0,0,8.93-13.31Q47.76,66,52.12,58.65q1.14-2,2.38-4.12c.83-1.42,1.75-2.83,2.75-4.25a11.71,11.71,0,0,1,1.13-1.44,1.09,1.09,0,0,1,1.24-.44c.67.34.8.86.38,1.56a18.5,18.5,0,0,1-1,1.57q-3.12,5.25-5.88,10.62T47.25,72.78c-1.17,1.92-2.31,3.85-3.44,5.81s-2.31,3.9-3.56,5.81S37.71,88.19,36.38,90a13.52,13.52,0,0,1-5.13,4.25,7.26,7.26,0,0,1-2.63,0,7.76,7.76,0,0,1-4.31-4.69,34.86,34.86,0,0,1-1.69-7.06A54.73,54.73,0,0,1,22,74.21q0-4.3.25-8.43.63-8.37,1.69-16.19T26.5,34.65q-5.74.26-11.69.88c-4,.42-8,.71-12.06.87-.5,0-1.06,0-1.69.06s-1-.26-1.06-.93a.88.88,0,0,1,1-1,10,10,0,0,0,1.75-.13q5.88-.37,12-1t12.13-.87c.5-1.75,1.06-3.82,1.68-6.19a51.43,51.43,0,0,1,2.19-6.56,9.88,9.88,0,0,1,.94-2.07,2,2,0,0,1,1.69-1.18,1.29,1.29,0,0,1,1.18.5,1.85,1.85,0,0,1,.25,1.18,8.71,8.71,0,0,1-.25,1.44c-.12.5-.23,1-.31,1.38-.42,1.83-.83,3.73-1.25,5.68S32.17,30.49,31.75,32.15Z"/><path class="cls-3" d="M74.25,45.9c-1.58,2.09-3.13,4.34-4.63,6.75s-3,4.75-4.5,7Q63.5,62,61.75,64.78a25.48,25.48,0,0,1-4,4.87A8.46,8.46,0,0,1,56,71.21a2.74,2.74,0,0,1-2.38.32,3.41,3.41,0,0,1-1.75-2.75A38.78,38.78,0,0,1,54.19,57.9a50.69,50.69,0,0,1,4.43-9.25c.59-.91,1.23-1.83,1.94-2.75a7,7,0,0,1,2.31-2,3.58,3.58,0,0,1,4.19.19q1.81,1.44,1.31,4.56a6.7,6.7,0,0,0,1.44-2c.54-1,1.13-2,1.75-3.06a21.23,21.23,0,0,1,2-2.81,3.54,3.54,0,0,1,2.19-1.38,2.84,2.84,0,0,1,.87.13l.75.25a5.68,5.68,0,0,1,1.25,2.37q-.24,7.5-1,14.19T76.5,70.53v2.25c0,.92,0,1.83-.13,2.75A13,13,0,0,1,75.94,78c-.21.71-.57,1.07-1.07,1.07a1.4,1.4,0,0,1-1.31-.82,6.12,6.12,0,0,1-.62-2,14.94,14.94,0,0,1-.19-2.43,11.88,11.88,0,0,0-.13-2,70.42,70.42,0,0,1,.25-13.25Q73.62,52,74.25,45.9Zm-9,.25c0-.08,0-.12-.13-.12a2.82,2.82,0,0,0-.68.31,3.62,3.62,0,0,1-.69.31,26.55,26.55,0,0,0-3.13,4.44,52.85,52.85,0,0,0-2.5,5.06c-.66,1.75-1.31,3.61-1.93,5.56A27.34,27.34,0,0,0,55,68,43.54,43.54,0,0,0,61.31,60Q64.13,55.4,67,51a5,5,0,0,1-.63-2.69A2.14,2.14,0,0,0,65.25,46.15Z"/><path class="cls-3" d="M92.87,56.65q2.25-2,4.44-4.31A60.09,60.09,0,0,1,102,47.9c.58-.5,1.19-1,1.81-1.44A3.13,3.13,0,0,1,106,45.9,2.42,2.42,0,0,1,107.37,47a3.94,3.94,0,0,1-1.25,2.68c-.75.71-1.45,1.4-2.12,2.07-1.92,1.92-3.9,3.87-5.94,5.87a74,74,0,0,0-5.69,6.25,15.45,15.45,0,0,0-.25,2.63c0,.83,0,1.71-.12,2.62a21.75,21.75,0,0,0,5.94.19,33.22,33.22,0,0,0,5.43-1.06,37,37,0,0,0,5-1.82q2.38-1,4.5-2.06a75.79,75.79,0,0,0,8.63-4.5q4.13-2.49,8.12-5,1.88-1.36,3.82-2.69t3.93-2.68a2.51,2.51,0,0,0,1.5-.75,1,1,0,0,1,1.5,0,1.13,1.13,0,0,1-.37,1.5,5.45,5.45,0,0,0-1.25,1.12,49.16,49.16,0,0,1-3.88,3.06q-2,1.44-4.12,2.82c-1.83,1.33-3.69,2.56-5.56,3.68s-3.82,2.28-5.82,3.44a66.08,66.08,0,0,0-6.06,3.06,61.74,61.74,0,0,1-6.25,3.13,37.92,37.92,0,0,1-7,2.25,28.17,28.17,0,0,1-8.31.44c-.17,2.17-.27,4.35-.31,6.56s0,4.4.06,6.56a1.32,1.32,0,0,0,.81.31c.38.05.61.19.69.44a5.48,5.48,0,0,1,.19,3.38,2.47,2.47,0,0,1-2.19,2,3.12,3.12,0,0,1-1.69-1.25,7.41,7.41,0,0,1-.87-2.13,13.21,13.21,0,0,1-.38-2.69c0-.95-.1-1.89-.19-2.81-.16-1.83-.25-3.75-.25-5.75V72C87,71.36,86.5,70.7,86,70a3.59,3.59,0,0,1-.5-2.75,6.87,6.87,0,0,1,1.12-2.88q.88-1.25,1.5-2.25,1.13-14.74,3.13-28.62t5-27c.25-1.17.56-2.5.94-4S98.25.2,99.25,0a1.5,1.5,0,0,1,1.37.31,8.1,8.1,0,0,1,.75,1.06,29.33,29.33,0,0,1-1,6.75q-.87,3.26-1.5,6.5-2,10.12-3.5,20.63T92.87,56.65Z"/><path class="cls-3" d="M138.37,54.9a25,25,0,0,0-1.62,4.56A21.33,21.33,0,0,0,136,65a9.38,9.38,0,0,0,1.12,4.69,4.42,4.42,0,0,0,4,2.13,12.4,12.4,0,0,0,6.19-1.38,55.7,55.7,0,0,0,5.06-2.87q2.5-1.75,4.69-3.44T161,60.78a68.74,68.74,0,0,0,6.19-5.38q2.92-2.86,5.81-5.87a3.08,3.08,0,0,0,.81-1,11.91,11.91,0,0,1,.94-1.38,6.64,6.64,0,0,1,1.06-1.06A1,1,0,0,1,177,46c.58.25.71.75.37,1.5a8.57,8.57,0,0,1-.87,1.62,4.63,4.63,0,0,1-.75,1.38c-.33.42-.67.87-1,1.37a92.89,92.89,0,0,1-6.56,6.88q-3.45,3.26-7.07,6.5a50.92,50.92,0,0,1-10.5,7.5,25.5,25.5,0,0,1-3.12,1.43,17.43,17.43,0,0,1-3.63,1,16.14,16.14,0,0,1-3.81.19,7.54,7.54,0,0,1-3.56-1.12,5.72,5.72,0,0,1-1.31-1.19L134,71.65a11.83,11.83,0,0,1-1.56-5.31,23.87,23.87,0,0,1,.37-5.94A38.3,38.3,0,0,1,136.37,50a52.15,52.15,0,0,1,5-7.38A14.69,14.69,0,0,1,149,37.9,6.08,6.08,0,0,1,153.19,39a4.28,4.28,0,0,1,1.31,4,8.21,8.21,0,0,1-1.5,3.75,23.51,23.51,0,0,1-2.63,3.12,28.33,28.33,0,0,1-4.93,3.94A10.32,10.32,0,0,1,138.37,54.9ZM150,41.53a13,13,0,0,0-6.63,4.56A46.08,46.08,0,0,0,139.12,53a7.83,7.83,0,0,0,4.63-1.25A33,33,0,0,0,147,49.15c.92-1,1.87-2,2.87-3a5.39,5.39,0,0,0,1.38-4.25A1.37,1.37,0,0,0,150,41.53Z"/></g></g></svg>