<svg xmlns="http://www.w3.org/2000/svg" viewBox="0 0 404.5 163.83"><defs><style>.cls-1{fill:#ff8300;}.cls-2{fill:#53575a;}.cls-3{fill:none;stroke:#ff8300;stroke-width:0.81px;}</style></defs><g id="Layer_2" data-name="Layer 2"><g id="Layer_1-2" data-name="Layer 1"><path class="cls-1" d="M0,94.67H.56a20,20,0,0,0,.35,3.6,29.92,29.92,0,0,0,1,4A24.94,24.94,0,0,0,3.41,106a11.09,11.09,0,0,0,2,2.87,16.63,16.63,0,0,0,5,3.36,15.79,15.79,0,0,0,5.92,1.28H17a17.54,17.54,0,0,0,5.92-1.31,11.87,11.87,0,0,0,4.74-4.42,12.43,12.43,0,0,0,1.84-6.15A13.05,13.05,0,0,0,27.86,95a14.47,14.47,0,0,0-5.71-5.61l-8.77-5a25.86,25.86,0,0,1-7-5.46,18.63,18.63,0,0,1-3.66-6.11A14.8,14.8,0,0,1,2,66.58a15.7,15.7,0,0,1,1.67-5.81A16.72,16.72,0,0,1,7.35,56a18.59,18.59,0,0,1,5.33-3.33,12,12,0,0,1,2.78-.85,18,18,0,0,1,2.86-.23,15.4,15.4,0,0,1,6.27,1.32q1.11.46,2.37.93a8.62,8.62,0,0,0,2.51.54,4.68,4.68,0,0,0,2.36-.47,4.61,4.61,0,0,0,2-2.09h.48v16.8h-.55a14,14,0,0,0-.46-3.41A20.11,20.11,0,0,0,32,61.74a21.58,21.58,0,0,0-1.74-3.1,18.45,18.45,0,0,0-1.95-2.43,13.63,13.63,0,0,0-4.6-3.06,14.23,14.23,0,0,0-5.43-1,15.14,15.14,0,0,0-2.4.2,13.57,13.57,0,0,0-2.34.58,10.07,10.07,0,0,0-5,3.71,8.59,8.59,0,0,0-1.46,5.88,14.45,14.45,0,0,0,3.1,7.09A31.83,31.83,0,0,0,19,77l8,4.56A20.86,20.86,0,0,1,33,86.89a16.94,16.94,0,0,1,3.06,6.39,15.27,15.27,0,0,1,.07,6.66,14.73,14.73,0,0,1-2.89,6.15A19.32,19.32,0,0,1,27.45,111a25.36,25.36,0,0,1-8.71,2.82h.14l-1,.12c-.3,0-.62,0-.94,0h-.7a14.58,14.58,0,0,1-6.06-1.32v0a5.33,5.33,0,0,1-.7-.31,11.68,11.68,0,0,0-4.59-1.2,5.39,5.39,0,0,0-2.69.62,3.13,3.13,0,0,0-1.28,1.39,8.81,8.81,0,0,0-.42,1.05v.07H0Z"/><path class="cls-1" d="M77.74,52.26h24.31v.54h-1a29.33,29.33,0,0,0-2.93.39,10.93,10.93,0,0,0-3.59,1.31,9.36,9.36,0,0,0-3.06,2.87,8.51,8.51,0,0,0-1.29,5V95.83a17.69,17.69,0,0,1-6,13.47,20.26,20.26,0,0,1-6.55,3.79,23.18,23.18,0,0,1-7.87,1.32h-.42a21.63,21.63,0,0,1-7.59-1.32,19.71,19.71,0,0,1-6.34-3.79,18.1,18.1,0,0,1-4.49-6.11A19.81,19.81,0,0,1,49.32,95V58.37c-.14-2-.67-3.42-1.6-4.22a7.47,7.47,0,0,0-4.53-1.35H41v-.62H65.27v.39l.07.07h-.07v.16H62.42a6.52,6.52,0,0,0-3.77,1.32,5.65,5.65,0,0,0-1.6,3.63V94.44A28.1,28.1,0,0,0,58.3,103,16.87,16.87,0,0,0,62,109.53a13.24,13.24,0,0,0,6,3.68,15,15,0,0,0,8.15-.19,20.45,20.45,0,0,0,7.66-4.18,15.83,15.83,0,0,0,4.18-5.65,16.72,16.72,0,0,0,1.6-7.36V61.93a8.18,8.18,0,0,0-1.39-4.8,9.34,9.34,0,0,0-3.07-2.71,11.73,11.73,0,0,0-3.55-1.23q-1.81-.31-2.85-.39H77.74Z"/><path class="cls-1" d="M108.39,114.33v-.54h.07a25.26,25.26,0,0,0,4-.27A4.88,4.88,0,0,0,115,112.4a4.82,4.82,0,0,0,1.36-2.32,14.91,14.91,0,0,0,.42-4V60.54q0-4.26-1.36-5.84c-.9-1.06-2.52-1.67-4.84-1.82h-2.23v-.47h26.54A26.09,26.09,0,0,1,143,53.57a17.53,17.53,0,0,1,5.57,3.33,13.06,13.06,0,0,1,3.17,4.84A17.3,17.3,0,0,1,152.83,68q0,7-4.25,11.07A16.35,16.35,0,0,1,143,82.37a13.79,13.79,0,0,1-3.24.85c-1.14.15-2.33.28-3.59.38a10.29,10.29,0,0,1,3.11,1.63A17.07,17.07,0,0,1,143,89.49l13.1,20.2a7.32,7.32,0,0,0,2.33,2.28,13.33,13.33,0,0,0,2.65,1.24,9.93,9.93,0,0,0,2.26.5c.65.06,1.05.08,1.19.08h.07v.54H150.67l-17-26.16a18.57,18.57,0,0,0-1.92-2.44,8.24,8.24,0,0,0-1.67-1.35,5.08,5.08,0,0,0-1.57-.62,8.27,8.27,0,0,0-1.6-.16h-2.58v22.61a16.59,16.59,0,0,0,.32,3.56,5.12,5.12,0,0,0,1,2.24,4.52,4.52,0,0,0,1.92,1.28,10.1,10.1,0,0,0,2.92.5h2.16v.54H108.39Zm16-31.19h10a9.34,9.34,0,0,0,5.86-1.93,11.82,11.82,0,0,0,1.56-1.59,13,13,0,0,0,1.5-2.29,19.65,19.65,0,0,0,1.32-4.21A25.16,25.16,0,0,0,145.1,68q0-6.66-2.58-10.68a9.15,9.15,0,0,0-8.15-4.41h-4.52a8.28,8.28,0,0,0-2.58.62,4.31,4.31,0,0,0-1.71,1.31,5.41,5.41,0,0,0-.94,2.25,18,18,0,0,0-.28,3.4V83.14Z"/><path class="cls-1" d="M171.85,113.36a5.1,5.1,0,0,0,2.58-1.12,4.66,4.66,0,0,0,1.39-2.32,14.91,14.91,0,0,0,.42-4V60.38a17.34,17.34,0,0,0-.31-3.56,5.13,5.13,0,0,0-1.05-2.24,4.18,4.18,0,0,0-1.95-1.24,13.66,13.66,0,0,0-3-.54h-2.16v-.62H212V68.59h-.48v-.16q-.56-2.55-1.29-5.3a16.5,16.5,0,0,0-2.27-5,12.1,12.1,0,0,0-4.18-3.79,13.92,13.92,0,0,0-7-1.51h-13.1V82.91h10a7.56,7.56,0,0,0,4.71-1.47,9.19,9.19,0,0,0,2.54-3.18,12.13,12.13,0,0,0,1.08-3.4,18.41,18.41,0,0,0,.24-2.25v-.23h.42V94h-.42v-.24A20.48,20.48,0,0,0,202,91.5,11.55,11.55,0,0,0,200.86,88a9.18,9.18,0,0,0-2.64-3.18,7.77,7.77,0,0,0-4.91-1.39h-9.62v22.6a16.64,16.64,0,0,0,.32,3.52,5,5,0,0,0,1,2.29,4.48,4.48,0,0,0,1.95,1.27,10.5,10.5,0,0,0,3,.51h2.16v.54H167.88v-.54A23.26,23.26,0,0,0,171.85,113.36Z"/><path class="cls-1" d="M206.05,113.64l1.22-.16a7.87,7.87,0,0,0,2.72-1,14.82,14.82,0,0,0,3.31-2.75,15.32,15.32,0,0,0,3-5.34l18.74-52h.56l18.67,51.86a34.78,34.78,0,0,0,2.3,5.23,10.22,10.22,0,0,0,2.09,2.71,4.52,4.52,0,0,0,2.12,1.08l2.47.43v.54H240.39v-.54c1.68-.11,3.1-.22,4.29-.35a4.52,4.52,0,0,0,2.68-1.05,3.29,3.29,0,0,0,.77-2.75,23.37,23.37,0,0,0-1.4-5.45l-5.15-14.4H222.14l-5.29,14.63a8.06,8.06,0,0,0-.59,3.91,5.4,5.4,0,0,0,1.08,2.63,5.73,5.73,0,0,0,2,1.63,12.11,12.11,0,0,0,2.37.85,11.6,11.6,0,0,0,2,.31l.9,0v.54h-18.6ZM231.9,62.71,222.35,89.1h19Z"/><path class="cls-1" d="M263.87,83.29v-.07h-.28a38.12,38.12,0,0,1,.49-6.19,37.55,37.55,0,0,1,1.46-6,32.34,32.34,0,0,1,5.3-9.91,30.78,30.78,0,0,1,3.58-3.79,20.5,20.5,0,0,1,4.15-2.87A19.33,19.33,0,0,1,288.11,52a15.9,15.9,0,0,1,6.83,1.47H295a.38.38,0,0,0,.28.15l.07.08.94.46c.3.16.61.34.94.54A13.35,13.35,0,0,0,303,56.67a5.27,5.27,0,0,0,3.13-.77,4,4,0,0,0,1.61-2.71h.48V75.71h-.48a43.12,43.12,0,0,0-1-5.42,41.54,41.54,0,0,0-1.57-4.8,29.52,29.52,0,0,0-2.06-3.91,24.77,24.77,0,0,0-2.47-3.29A18,18,0,0,0,294.73,54a16.59,16.59,0,0,0-5.57-1.39,11.56,11.56,0,0,0-7,2.4,21.22,21.22,0,0,0-5.71,6.58,37.6,37.6,0,0,0-3.87,9.79,48.37,48.37,0,0,0-1.43,12,46,46,0,0,0,2.34,15,30.59,30.59,0,0,0,6.09,10.91A18.78,18.78,0,0,0,283,112a18.09,18.09,0,0,0,2.78,1.43,6.7,6.7,0,0,0,1.64.43,12.51,12.51,0,0,0,1.71.12,25.13,25.13,0,0,0,2.82-.47,14.16,14.16,0,0,0,2.75-.93,17.18,17.18,0,0,0,5.78-4.33A16.28,16.28,0,0,0,303,105a34.88,34.88,0,0,0,2-3.91,30.36,30.36,0,0,0,1.6-4.8q.63-2.55,1.05-5.42l.48.08a38.41,38.41,0,0,1-2.71,10.37,25.7,25.7,0,0,1-4.53,7.35,19.7,19.7,0,0,1-6,4.34,15.46,15.46,0,0,1-6.76,1.47,19.34,19.34,0,0,1-9.54-2.48,24.8,24.8,0,0,1-7.73-6.66,32.28,32.28,0,0,1-5.3-9.9,37.82,37.82,0,0,1-1.46-6,38.34,38.34,0,0,1-.49-6.2Z"/><path class="cls-1" d="M348.79,113a16,16,0,0,0,4.07-2,15.5,15.5,0,0,0,3.1-2.82,23.53,23.53,0,0,0,2.3-3.29,28.31,28.31,0,0,0,3.13-9h.49l-2,18.42h-46v-.54a25.13,25.13,0,0,0,4-.27,5.13,5.13,0,0,0,2.61-1.12,4.72,4.72,0,0,0,1.4-2.32,15,15,0,0,0,.41-4V61.47a3.71,3.71,0,0,0,0-.47,3.57,3.57,0,0,1,0-.46q0-4.26-1.35-5.84T316,52.88h-2.23v-.47h44.16V68.67h-.49v-.08q-.56-2.55-1.29-5.34a16.38,16.38,0,0,0-2.26-5.07,12.1,12.1,0,0,0-4.18-3.79,14,14,0,0,0-7-1.51H329.63V83.14h10a7.36,7.36,0,0,0,4.7-1.51,9.74,9.74,0,0,0,2.58-3.21A11,11,0,0,0,348,75a21.11,21.11,0,0,0,.21-2.16v-.24h.49v21.6h-.49V94q0-.54-.21-2.25a10.8,10.8,0,0,0-1.12-3.52A9.33,9.33,0,0,0,344.15,85a7.75,7.75,0,0,0-4.91-1.4h-9.61v21.21a10.34,10.34,0,0,1,.07,1.4,16.67,16.67,0,0,0,.31,3.56,5.13,5.13,0,0,0,1.05,2.24,4.42,4.42,0,0,0,1.91,1.28,10.18,10.18,0,0,0,2.93.5h7.73A16.35,16.35,0,0,0,348.79,113Z"/><path class="cls-1" d="M368,94.67h.56a20,20,0,0,0,.35,3.6,29.92,29.92,0,0,0,1,4,24.94,24.94,0,0,0,1.53,3.75,11.09,11.09,0,0,0,2,2.87,16.63,16.63,0,0,0,5,3.36,15.79,15.79,0,0,0,5.92,1.28H385a17.54,17.54,0,0,0,5.92-1.31,11.87,11.87,0,0,0,4.74-4.42,12.43,12.43,0,0,0,1.84-6.15A13,13,0,0,0,395.88,95a14.56,14.56,0,0,0-5.72-5.61l-8.77-5a25.86,25.86,0,0,1-7-5.46,18.63,18.63,0,0,1-3.66-6.11,15,15,0,0,1-.8-6.23,15.7,15.7,0,0,1,1.67-5.81,16.72,16.72,0,0,1,3.73-4.8,18.73,18.73,0,0,1,5.33-3.33,11.9,11.9,0,0,1,2.79-.85,17.78,17.78,0,0,1,2.85-.23,15.4,15.4,0,0,1,6.27,1.32q1.11.46,2.37.93a8.69,8.69,0,0,0,2.51.54,4.74,4.74,0,0,0,2.37-.47,4.64,4.64,0,0,0,1.95-2.09h.48v16.8h-.55a13.53,13.53,0,0,0-.46-3.41,19.29,19.29,0,0,0-1.22-3.44,21.58,21.58,0,0,0-1.74-3.1,18.45,18.45,0,0,0-1.95-2.43,13.63,13.63,0,0,0-4.6-3.06,14.19,14.19,0,0,0-5.43-1,15.14,15.14,0,0,0-2.4.2,13.8,13.8,0,0,0-2.34.58,10.07,10.07,0,0,0-5,3.71,8.59,8.59,0,0,0-1.46,5.88,14.45,14.45,0,0,0,3.1,7.09A31.83,31.83,0,0,0,387,77l8,4.56a20.86,20.86,0,0,1,6.06,5.3,16.94,16.94,0,0,1,3.06,6.39,15.12,15.12,0,0,1,.07,6.66,14.73,14.73,0,0,1-2.89,6.15,19.32,19.32,0,0,1-5.81,4.88,25.36,25.36,0,0,1-8.71,2.82h.14l-1,.12c-.3,0-.62,0-.94,0h-.7a14.58,14.58,0,0,1-6.06-1.32v0a5.33,5.33,0,0,1-.7-.31,11.68,11.68,0,0,0-4.59-1.2,5.35,5.35,0,0,0-2.68.62,3.1,3.1,0,0,0-1.29,1.39,8.81,8.81,0,0,0-.42,1.05v.07H368Z"/><path class="cls-2" d="M101.77,17.08q8-.31,16.68-.93a110.08,110.08,0,0,1,17.23.1c.31,0,.65,0,1,.05a.82.82,0,0,1,.74.57c-.06.55-.29.83-.7.83a4.89,4.89,0,0,1-1.07-.11,152.25,152.25,0,0,0-17.23.16q-8.58.57-16.86,1.09-1.31,8.49-2.38,17.28a142.29,142.29,0,0,0-1,18.42c0,.9,0,1.9.1,3a22.31,22.31,0,0,0,.37,3.1c.12.76.33,1.69.61,2.8s.69,1.69,1.25,1.75a1.14,1.14,0,0,0,1-.31,9.25,9.25,0,0,0,1-1,11.58,11.58,0,0,0,.93-1.19q.42-.61.6-.93a100.56,100.56,0,0,0,6.66-11Q113.7,45.13,117,39q.84-1.65,1.77-3.42c.62-1.17,1.3-2.34,2-3.52a8.57,8.57,0,0,1,.84-1.19q.47-.55.93-.36c.49.28.59.71.28,1.3s-.56,1-.75,1.29q-2.33,4.35-4.38,8.8c-1.36,3-2.82,5.9-4.37,8.79q-1.31,2.38-2.57,4.82t-2.65,4.81c-.93,1.59-1.9,3.14-2.89,4.66a10.39,10.39,0,0,1-3.82,3.52,4.92,4.92,0,0,1-2,0,6.22,6.22,0,0,1-3.22-3.88A31.23,31.23,0,0,1,95,58.79a49.47,49.47,0,0,1-.46-6.88c0-2.39.06-4.71.19-7Q95.17,38,96,31.52t1.91-12.37c-2.85.14-5.76.38-8.71.72s-5.94.59-9,.73c-.37,0-.79,0-1.25,0s-.73-.23-.8-.78.25-.83.75-.83a7.08,7.08,0,0,0,1.3-.1c2.92-.21,5.9-.48,9-.83s6-.58,9-.72q.56-2.18,1.26-5.13A46.59,46.59,0,0,1,101,6.83a8.34,8.34,0,0,1,.7-1.71c.34-.65.76-1,1.26-1a.94.94,0,0,1,.88.41,1.76,1.76,0,0,1,.19,1,11.24,11.24,0,0,1-.19,1.19c-.09.41-.17.79-.23,1.14q-.47,2.27-.93,4.71C102.39,14.2,102.08,15.7,101.77,17.08Z"/><path class="cls-2" d="M122.64,35.91a21.39,21.39,0,0,0-1.21,3.78,19.61,19.61,0,0,0-.56,4.56,8.5,8.5,0,0,0,.84,3.88,3.25,3.25,0,0,0,3,1.76,8.43,8.43,0,0,0,4.61-1.14,41.35,41.35,0,0,0,3.77-2.38q1.86-1.45,3.5-2.85c1.08-.93,2.06-1.84,2.93-2.74a53.66,53.66,0,0,0,4.61-4.45q2.19-2.38,4.33-4.87a2.39,2.39,0,0,0,.61-.82,7.86,7.86,0,0,1,.7-1.14,4.53,4.53,0,0,1,.79-.88.66.66,0,0,1,.88-.05c.44.2.53.62.28,1.24a7.28,7.28,0,0,1-.65,1.34,3.57,3.57,0,0,1-.56,1.14c-.25.35-.5.73-.74,1.14q-2.34,3-4.89,5.69t-5.27,5.38a38.33,38.33,0,0,1-7.82,6.21,19.4,19.4,0,0,1-2.33,1.2,12.2,12.2,0,0,1-2.7.82,10.78,10.78,0,0,1-2.84.16,5.33,5.33,0,0,1-2.66-.93,4.84,4.84,0,0,1-1-1l-.88-1.19a10.86,10.86,0,0,1-1.17-4.4,22,22,0,0,1,.28-4.91,32.46,32.46,0,0,1,1.17-4.76,31.5,31.5,0,0,1,1.49-3.83,43.22,43.22,0,0,1,3.73-6.11,10.82,10.82,0,0,1,5.68-3.93,4.18,4.18,0,0,1,3.12.93,3.81,3.81,0,0,1,1,3.31,7.26,7.26,0,0,1-1.12,3.11,20,20,0,0,1-2,2.58A21,21,0,0,1,127.9,35,6.94,6.94,0,0,1,122.64,35.91Zm8.66-11.07a9.67,9.67,0,0,0-4.93,3.78,38.93,38.93,0,0,0-3.17,5.74,5.41,5.41,0,0,0,3.45-1,28.17,28.17,0,0,0,2.42-2.18c.68-.82,1.39-1.65,2.14-2.48a4.76,4.76,0,0,0,1-3.52A1,1,0,0,0,131.3,24.84Z"/><path class="cls-2" d="M168.47,26.5c-.5,0-.75-.28-.75-.83q-3.63,4.35-6.84,9t-6.29,9.68c.37,1.11.76,2.16,1.16,3.16a27.6,27.6,0,0,0,1.35,2.84l.8,1.35c.27.48.57,1,.88,1.4a4.07,4.07,0,0,0,1.07,1.08,2.32,2.32,0,0,0,1.35.42,1.44,1.44,0,0,0,1.31-.78,1.4,1.4,0,0,1,1.3-.77,1.44,1.44,0,0,1,1,.82,3.64,3.64,0,0,1-1.11,2.54,8,8,0,0,1-2.24,1.29,6.31,6.31,0,0,1-3.49-.93,9.28,9.28,0,0,1-2.47-2.33,20.47,20.47,0,0,1-1.82-3c-.52-1.07-1-2.09-1.53-3.05q-3.63,6.21-7.69,12.88a78.07,78.07,0,0,0-6.75,14.23,6.83,6.83,0,0,0-.37,1.09q-.2.67-.42,1.35a6.43,6.43,0,0,1-.52,1.14.72.72,0,0,1-1.39-.37,6.06,6.06,0,0,1,.18-1.45,78.89,78.89,0,0,1,3.22-8.79q1.81-4.14,3.86-8c1.37-2.55,2.78-5.06,4.24-7.51s2.9-4.95,4.33-7.5c-.37-1-.74-2.26-1.11-3.67s-.7-2.9-1-4.45-.5-3.11-.65-4.66a19.86,19.86,0,0,1,0-4.5,4.58,4.58,0,0,1,.75-2.07,3.4,3.4,0,0,0,.46-.21,3.59,3.59,0,0,1,.47-.21,1.36,1.36,0,0,1,1.54.57,3.62,3.62,0,0,1,.6,1.6,1.12,1.12,0,0,1,0,.63,1.89,1.89,0,0,0-.09.51,15.72,15.72,0,0,0,.14,3.16c.15,1.14.29,2.19.42,3.16a30.79,30.79,0,0,0,.51,3.05q.33,1.5.6,2.64Q156,37.46,159,32.86t6-8.33c.68-.83,1.49-1.72,2.42-2.69a6.71,6.71,0,0,1,2.7-1.86,1.19,1.19,0,0,1,1,.05,1.06,1.06,0,0,1,.56.77,2.19,2.19,0,0,1-.42,1.76l-1,1.35c-.31.55-.6,1-.88,1.45A7,7,0,0,1,168.47,26.5Z"/><path class="cls-2" d="M178.06,17.08q8-.31,16.68-.93a110.09,110.09,0,0,1,17.23.1c.31,0,.65,0,1,.05a.83.83,0,0,1,.75.57c-.06.55-.3.83-.7.83a4.82,4.82,0,0,1-1.07-.11,152.23,152.23,0,0,0-17.23.16q-8.58.57-16.86,1.09-1.32,8.49-2.38,17.28a142.29,142.29,0,0,0-1,18.42c0,.9,0,1.9.1,3a22.31,22.31,0,0,0,.37,3.1c.12.76.32,1.69.6,2.8s.7,1.69,1.26,1.75a1.14,1.14,0,0,0,1-.31,8.41,8.41,0,0,0,1-1,13.27,13.27,0,0,0,.94-1.19l.6-.93a103.79,103.79,0,0,0,6.66-11Q190,45.13,193.25,39c.55-1.1,1.14-2.24,1.76-3.42s1.31-2.34,2.05-3.52a10.68,10.68,0,0,1,.84-1.19q.47-.55.93-.36c.5.28.59.71.28,1.3s-.56,1-.74,1.29Q196,37.47,194,41.92c-1.37,3-2.83,5.9-4.38,8.79q-1.31,2.38-2.56,4.82t-2.65,4.81Q183,62.72,181.51,65a10.47,10.47,0,0,1-3.82,3.52,5,5,0,0,1-2,0,6.23,6.23,0,0,1-3.21-3.88,31.23,31.23,0,0,1-1.26-5.85,49.47,49.47,0,0,1-.46-6.88c0-2.39.06-4.71.18-7q.47-6.93,1.26-13.4t1.91-12.37q-4.29.21-8.71.72t-9,.73c-.37,0-.79,0-1.26,0s-.73-.23-.79-.78.25-.83.75-.83a7.16,7.16,0,0,0,1.3-.1c2.92-.21,5.9-.48,8.94-.83s6.06-.58,9-.72q.56-2.18,1.26-5.13a43,43,0,0,1,1.63-5.43A8.23,8.23,0,0,1,178,5.12c.35-.65.76-1,1.26-1a.94.94,0,0,1,.89.41,1.76,1.76,0,0,1,.18,1,9.05,9.05,0,0,1-.18,1.19c-.1.41-.17.79-.24,1.14q-.46,2.27-.93,4.71T178.06,17.08Z"/><path class="cls-2" d="M199.86,46a1.71,1.71,0,0,0,.79-.77c.22-.38.42-.74.61-1.09.68-1,1.35-2,2-3.1s1.32-2.14,2-3.11c.43-.76.87-1.48,1.31-2.17a19.88,19.88,0,0,1,1.39-2,14.63,14.63,0,0,0,1.59-1.86,2.34,2.34,0,0,1,2.23-.93,2.26,2.26,0,0,1,1.63.88,6.29,6.29,0,0,1,1,1.86,16.25,16.25,0,0,1,.61,2.43c.15.9.29,1.73.41,2.49s.28,1.43.47,2.22.4,1.57.65,2.33.53,1.4.84,2.12a2,2,0,0,0,1.3,1.29,1.73,1.73,0,0,0,1.36-.15,8.41,8.41,0,0,0,1.35-.88,10,10,0,0,0,1.21-1.14l.83-.93a19,19,0,0,0,1.87-2.17q.84-1.14,1.86-2.28,1.31-1.76,2.66-3.47T232.46,32a7.62,7.62,0,0,0,.75-1.34,1.08,1.08,0,0,1,1.21-.73,1.3,1.3,0,0,1,.32,1.61,9.13,9.13,0,0,1-.79,1.39c-.31.49-.62,1-.93,1.4s-.59.85-.84,1.19q-2,2.59-4.1,5.59a41.26,41.26,0,0,1-4.56,5.38,20.8,20.8,0,0,1-2.66,2.12,3.53,3.53,0,0,1-3.58.06,6.9,6.9,0,0,1-2.19-2.85,21.24,21.24,0,0,1-1.26-3.88c-.31-1.38-.6-2.8-.88-4.25a16.31,16.31,0,0,0-1.26-3.93A5.47,5.47,0,0,0,210,35.4l-1.44,2.17c-.5.76-1,1.5-1.35,2.23s-.82,1.46-1.26,2.22q-1.31,2.28-2.51,4.55A9.47,9.47,0,0,1,200,50.2a2.34,2.34,0,0,1-1.72-.21,4,4,0,0,1-1.16-1,14.72,14.72,0,0,1-.75-4.35,49.26,49.26,0,0,1,.09-5.13c.13-1.75.32-3.48.56-5.17s.5-3.26.75-4.71c.06-.48.12-1,.19-1.6a10.55,10.55,0,0,1,.32-1.71,6.37,6.37,0,0,1,.56-1.4,1.27,1.27,0,0,1,.89-.67.92.92,0,0,1,.83.15,3.09,3.09,0,0,1,.47.57,6.2,6.2,0,0,1,.09,2.85,12.43,12.43,0,0,0-.18,3.05c-.31,2.35-.58,4.76-.8,7.25S199.86,43.19,199.86,46Z"/><path class="cls-2" d="M247.83,27.22a14.73,14.73,0,0,0-4.33,5q-1.63,3-3.49,6l-1.5,3.31a33.45,33.45,0,0,0-1.3,3.42,19.11,19.11,0,0,0-1.4,3.36,3.52,3.52,0,0,1-2.23,2.43h-.84a2.23,2.23,0,0,1-.79-.56,5,5,0,0,1-.61-.88A38.41,38.41,0,0,1,231.2,45c0-1.51.1-3.05.19-4.6s.25-3.07.46-4.56.46-2.84.7-4.09a17.47,17.47,0,0,1,.56-2.27,1.86,1.86,0,0,1,1.49-1.35,1.18,1.18,0,0,1,1.07.93,6,6,0,0,1,.19,1.92,21,21,0,0,1-.23,2.27,12.49,12.49,0,0,0-.19,1.92c-.12,1.38-.23,2.62-.32,3.73s-.21,2.14-.33,3.1c1.05-1.93,2.33-4.1,3.82-6.52A65.06,65.06,0,0,1,243.17,29a25.28,25.28,0,0,1,1.63-2,6.79,6.79,0,0,1,1.91-1.5,2.45,2.45,0,0,1,1.73,0,1.54,1.54,0,0,1,1.07,1.14c.12.83-.07,1.28-.56,1.34A1,1,0,0,1,247.83,27.22Z"/><path class="cls-2" d="M252.77,35.91a22.17,22.17,0,0,0-1.22,3.78,19.59,19.59,0,0,0-.55,4.56,8.63,8.63,0,0,0,.83,3.88,3.26,3.26,0,0,0,3,1.76,8.43,8.43,0,0,0,4.61-1.14,44.33,44.33,0,0,0,3.77-2.38q1.86-1.45,3.49-2.85c1.09-.93,2.07-1.84,2.94-2.74a53.66,53.66,0,0,0,4.61-4.45q2.19-2.38,4.33-4.87a2.39,2.39,0,0,0,.6-.82,8.85,8.85,0,0,1,.7-1.14,4.88,4.88,0,0,1,.79-.88.67.67,0,0,1,.89-.05c.43.2.53.62.28,1.24a8,8,0,0,1-.65,1.34,3.79,3.79,0,0,1-.56,1.14q-.37.52-.75,1.14A72.71,72.71,0,0,1,275,39.12q-2.57,2.7-5.26,5.38a38.4,38.4,0,0,1-7.83,6.21,19.23,19.23,0,0,1-2.32,1.2,12.12,12.12,0,0,1-2.71.82,10.76,10.76,0,0,1-2.84.16,5.29,5.29,0,0,1-2.65-.93,4.84,4.84,0,0,1-1-1l-.88-1.19a10.55,10.55,0,0,1-1.17-4.4,22,22,0,0,1,.28-4.91,32.46,32.46,0,0,1,1.17-4.76,29.94,29.94,0,0,1,1.49-3.83A42.27,42.27,0,0,1,255,25.77a10.86,10.86,0,0,1,5.68-3.93,4.15,4.15,0,0,1,3.12.93,3.75,3.75,0,0,1,1,3.31,7.13,7.13,0,0,1-1.12,3.11,20,20,0,0,1-2,2.58A21.34,21.34,0,0,1,258,35,7,7,0,0,1,252.77,35.91Zm8.66-11.07a9.74,9.74,0,0,0-4.94,3.78,39.87,39.87,0,0,0-3.17,5.74,5.39,5.39,0,0,0,3.45-1,25.46,25.46,0,0,0,2.42-2.18c.69-.82,1.4-1.65,2.15-2.48a4.81,4.81,0,0,0,1-3.52A1,1,0,0,0,261.43,24.84Z"/><path class="cls-2" d="M293.57,0a1.28,1.28,0,0,1,.93,1,5.53,5.53,0,0,1,0,1.92,18.37,18.37,0,0,1-.42,2.22c-.18.77-.31,1.39-.37,1.87-.5,3-1,6.23-1.44,9.57s-.83,6.76-1.07,10.25-.36,7-.33,10.56a77.7,77.7,0,0,0,.79,10.5,23.43,23.43,0,0,0,.56,3,8.54,8.54,0,0,0,1.12,2.59,6.31,6.31,0,0,0,2.51-2.38c.62-1,1.28-2,2-3a78.46,78.46,0,0,0,4.24-8.28,88.76,88.76,0,0,1,4.14-8.28,12.77,12.77,0,0,0,.89-1.66,1.25,1.25,0,0,1,1.35-.83,1.37,1.37,0,0,1,.19,1.66c-.32.69-.6,1.24-.84,1.66-.69,1.65-1.43,3.33-2.24,5s-1.58,3.32-2.33,4.91q-1.58,3.31-3.12,6.68a26.55,26.55,0,0,1-3.68,6,10.8,10.8,0,0,0-1.39,1.14,2.5,2.5,0,0,1-1.77.62,2.74,2.74,0,0,1-1.77-.88A6.33,6.33,0,0,1,290.3,54a12.19,12.19,0,0,1-.74-2.28c-.19-.83-.34-1.62-.47-2.38a56.65,56.65,0,0,1-.74-6.88c-.13-2.45-.17-4.9-.14-7.35s.14-4.87.33-7.25.4-4.6.65-6.67c-.56,1.45-1.11,2.93-1.63,4.45s-1.07,3-1.63,4.55a3.81,3.81,0,0,1,.32.73c.1.27.2.58.33.93a15.79,15.79,0,0,1,.28,1.65,2.71,2.71,0,0,1-.19,1.45.84.84,0,0,1-1.07-.36,3.82,3.82,0,0,0-.79-1c-.87,2.48-1.72,5.09-2.56,7.81a55.77,55.77,0,0,1-2.94,7.61,20.35,20.35,0,0,1-1.3,2.28,2.4,2.4,0,0,1-2.14,1.13,1.34,1.34,0,0,1-.84-.41,7.79,7.79,0,0,0-.65-.62,8.77,8.77,0,0,1-.66-4.4,42.61,42.61,0,0,1,.66-5q.64-3.1,1.49-5.8a19.68,19.68,0,0,1,2.42-5.07,9.51,9.51,0,0,1,2.23-2.58,3.37,3.37,0,0,1,3.45-.42q2.14-5.38,4.1-11.95t3.72-12.89c.25-.76.47-1.46.66-2.12A1.54,1.54,0,0,1,293.57,0Zm-11,31.36A3.45,3.45,0,0,0,281,32.6a11.53,11.53,0,0,0-1.17,1.87,29.21,29.21,0,0,0-2.23,6.31,46.52,46.52,0,0,0-1.12,7.14,43.55,43.55,0,0,0,3.07-7q1.31-3.83,2.52-7.45c.12-.34.26-.69.42-1a1.8,1.8,0,0,0,.14-1Z"/><path class="cls-2" d="M100.76,153.24a5,5,0,0,1,1.94-1.37,6.28,6.28,0,0,1,2.28-.44,4.22,4.22,0,0,1,3.4,1.23,5.72,5.72,0,0,1,1.05,3.76v5.06c0,.34,0,.69,0,1.05s.07.69.12,1h-1.7a4.6,4.6,0,0,1-.11-.89c0-.33,0-.62,0-.87h0a4.53,4.53,0,0,1-1.4,1.49,3.75,3.75,0,0,1-2.1.58,5.1,5.1,0,0,1-1.53-.23,3.54,3.54,0,0,1-1.24-.67,3.15,3.15,0,0,1-.85-1.09,3.33,3.33,0,0,1-.32-1.52A3.48,3.48,0,0,1,101,158a4,4,0,0,1,1.69-1.23,7.65,7.65,0,0,1,2.17-.51c.78-.07,1.5-.1,2.15-.1h.68v-.35a2.54,2.54,0,0,0-.69-1.94,2.7,2.7,0,0,0-1.94-.66,4.69,4.69,0,0,0-1.69.32,3.94,3.94,0,0,0-1.46,1Zm5.13,4.61a5.86,5.86,0,0,0-2.7.53,1.84,1.84,0,0,0-1,1.74,1.81,1.81,0,0,0,.67,1.58,2.86,2.86,0,0,0,1.67.46,2.84,2.84,0,0,0,2.31-1.06,3.15,3.15,0,0,0,.59-1.12,5,5,0,0,0,.23-1.37v-.76Z"/><path class="cls-2" d="M112.67,154.53c0-.54,0-1,0-1.51s0-.9,0-1.29h1.68c0,.32,0,.64,0,1s0,.64,0,1h0a3.51,3.51,0,0,1,.51-.83,3.84,3.84,0,0,1,.78-.72,3.73,3.73,0,0,1,1-.5,3.78,3.78,0,0,1,1.23-.19l.36,0a1.61,1.61,0,0,1,.36.1l-.11,2a3,3,0,0,0-1-.15,2.57,2.57,0,0,0-2.37,1.18,6,6,0,0,0-.74,3.21v5.74h-1.77Z"/><path class="cls-2" d="M129.75,161.38a5.52,5.52,0,0,1-2.09,1.9,5.89,5.89,0,0,1-2.63.55,5,5,0,0,1-2.24-.5A4.87,4.87,0,0,1,121.1,162a5.8,5.8,0,0,1-1.07-2,7.71,7.71,0,0,1-.37-2.42,7.47,7.47,0,0,1,.4-2.51,6.07,6.07,0,0,1,1.14-2,5.14,5.14,0,0,1,1.72-1.27,5.25,5.25,0,0,1,2.18-.45,5.06,5.06,0,0,1,2,.41,4.5,4.5,0,0,1,1.6,1.21,5.7,5.7,0,0,1,1,1.94,8.76,8.76,0,0,1,.36,2.61v.63h-8.57a4.44,4.44,0,0,0,.33,1.45,4.09,4.09,0,0,0,.74,1.21,3.4,3.4,0,0,0,1.06.82,3,3,0,0,0,1.34.3,3.91,3.91,0,0,0,2-.45,4.51,4.51,0,0,0,1.43-1.34Zm-1.52-4.81a3.58,3.58,0,0,0-.89-2.42,3,3,0,0,0-2.31-.91,3.2,3.2,0,0,0-2.38.91,3.92,3.92,0,0,0-1.09,2.42Z"/><path class="cls-2" d="M139.18,154.53c0-.54,0-1,0-1.51s0-.9,0-1.29h1.68c0,.32,0,.64,0,1s0,.64,0,1h0a3.51,3.51,0,0,1,.51-.83,3.84,3.84,0,0,1,.78-.72,4,4,0,0,1,1-.5,3.78,3.78,0,0,1,1.23-.19,4.31,4.31,0,0,1,1.8.35,3.41,3.41,0,0,1,1.26,1,4.2,4.2,0,0,1,.74,1.53,7.49,7.49,0,0,1,.24,2v7.28h-1.77v-7.08a4.09,4.09,0,0,0-.59-2.34,2.09,2.09,0,0,0-1.84-.86,3.18,3.18,0,0,0-1.49.33,2.84,2.84,0,0,0-1,.93,4.35,4.35,0,0,0-.58,1.44,8,8,0,0,0-.2,1.84v5.74h-1.77Z"/><path class="cls-2" d="M151.18,157.63a7.16,7.16,0,0,1,.43-2.52,6.1,6.1,0,0,1,1.18-2,5.31,5.31,0,0,1,1.79-1.27,6,6,0,0,1,4.54,0,5.31,5.31,0,0,1,1.79,1.27,6.1,6.1,0,0,1,1.18,2,6.94,6.94,0,0,1,.43,2.52,7,7,0,0,1-.43,2.52,6.16,6.16,0,0,1-1.18,1.95,5.18,5.18,0,0,1-1.79,1.27,5.83,5.83,0,0,1-4.54,0,5.18,5.18,0,0,1-1.79-1.27,6.16,6.16,0,0,1-1.18-1.95A7.24,7.24,0,0,1,151.18,157.63Zm1.91,0a5.3,5.3,0,0,0,.26,1.72,4,4,0,0,0,.76,1.39,3.73,3.73,0,0,0,1.19.93,3.7,3.7,0,0,0,3.1,0,3.77,3.77,0,0,0,1.2-.93,4.35,4.35,0,0,0,.76-1.39,5.59,5.59,0,0,0,.26-1.72,5.65,5.65,0,0,0-.26-1.73,4.19,4.19,0,0,0-.76-1.38,3.66,3.66,0,0,0-1.2-.94,3.7,3.7,0,0,0-3.1,0,3.62,3.62,0,0,0-1.19.94,3.86,3.86,0,0,0-.76,1.38A5.36,5.36,0,0,0,153.09,157.63Z"/><path class="cls-2" d="M171.07,153.39h-3.13v5.9c0,.39,0,.74,0,1.07a2.47,2.47,0,0,0,.19.86,1.28,1.28,0,0,0,.47.58,1.66,1.66,0,0,0,.91.21,3.11,3.11,0,0,0,.79-.1,3.42,3.42,0,0,0,.77-.3l.07,1.79a3.86,3.86,0,0,1-1,.33,6.63,6.63,0,0,1-1.05.1,3.55,3.55,0,0,1-1.52-.28,2.25,2.25,0,0,1-.89-.78,3.18,3.18,0,0,1-.42-1.25,13.67,13.67,0,0,1-.1-1.65v-6.48h-2.31v-1.66h2.31v-3.35h1.77v3.35h3.13Z"/><path class="cls-2" d="M179.42,153.24a4.89,4.89,0,0,1,1.94-1.37,6.2,6.2,0,0,1,2.28-.44,4.24,4.24,0,0,1,3.4,1.23,5.78,5.78,0,0,1,1,3.76v5.06c0,.34,0,.69,0,1.05s.06.69.11,1h-1.7a4,4,0,0,1-.1-.89c0-.33,0-.62,0-.87h-.05a4.5,4.5,0,0,1-1.39,1.49,3.8,3.8,0,0,1-2.1.58,5,5,0,0,1-1.53-.23,3.5,3.5,0,0,1-1.25-.67,3.15,3.15,0,0,1-.85-1.09,3.47,3.47,0,0,1-.32-1.52,3.53,3.53,0,0,1,.68-2.29,4.13,4.13,0,0,1,1.69-1.23,7.64,7.64,0,0,1,2.18-.51c.78-.07,1.49-.1,2.14-.1h.68v-.35a2.54,2.54,0,0,0-.69-1.94,2.7,2.7,0,0,0-1.94-.66,4.73,4.73,0,0,0-1.69.32,3.94,3.94,0,0,0-1.46,1Zm5.12,4.61a5.86,5.86,0,0,0-2.7.53,1.84,1.84,0,0,0-1,1.74,1.78,1.78,0,0,0,.67,1.58,2.83,2.83,0,0,0,1.66.46,2.88,2.88,0,0,0,2.32-1.06,3.31,3.31,0,0,0,.58-1.12,4.68,4.68,0,0,0,.23-1.37v-.76Z"/><path class="cls-2" d="M191.48,144.47h1.77v19.05h-1.77Z"/><path class="cls-2" d="M197,144.47h1.77v19.05H197Z"/><path class="cls-2" d="M214.34,153.39h-3.13v5.9c0,.39,0,.74,0,1.07a2.27,2.27,0,0,0,.18.86,1.28,1.28,0,0,0,.47.58,1.68,1.68,0,0,0,.91.21,3.25,3.25,0,0,0,.8-.1,3.62,3.62,0,0,0,.77-.3l.06,1.79a3.74,3.74,0,0,1-1,.33,6.63,6.63,0,0,1-1,.1,3.59,3.59,0,0,1-1.52-.28,2.16,2.16,0,0,1-.88-.78,3,3,0,0,1-.42-1.25,11.89,11.89,0,0,1-.1-1.65v-6.48h-2.32v-1.66h2.32v-3.35h1.76v3.35h3.13Z"/><path class="cls-2" d="M216.52,144.47h1.77v8.9h.05a2.82,2.82,0,0,1,.49-.69,3.88,3.88,0,0,1,.76-.62,4.49,4.49,0,0,1,1-.46,4,4,0,0,1,1.16-.17,4.35,4.35,0,0,1,1.8.35,3.41,3.41,0,0,1,1.26,1,4.2,4.2,0,0,1,.74,1.53,7.5,7.5,0,0,1,.23,2v7.28H224v-7.08a4.09,4.09,0,0,0-.59-2.34,2.09,2.09,0,0,0-1.84-.86,3.15,3.15,0,0,0-1.49.33,2.84,2.84,0,0,0-1,.93,4.58,4.58,0,0,0-.59,1.44,8.06,8.06,0,0,0-.19,1.84v5.74h-1.77Z"/><path class="cls-2" d="M238.61,161.38a5.49,5.49,0,0,1-2.08,1.9,6,6,0,0,1-2.64.55,5,5,0,0,1-2.24-.5A4.87,4.87,0,0,1,230,162a6,6,0,0,1-1.07-2,7.71,7.71,0,0,1-.37-2.42,7.47,7.47,0,0,1,.41-2.51,6,6,0,0,1,1.13-2,5.08,5.08,0,0,1,1.73-1.27,5.2,5.2,0,0,1,2.17-.45,5.06,5.06,0,0,1,2,.41,4.41,4.41,0,0,1,1.6,1.21,5.53,5.53,0,0,1,1,1.94,8.44,8.44,0,0,1,.37,2.61v.63h-8.58a4.44,4.44,0,0,0,.33,1.45,4.31,4.31,0,0,0,.74,1.21,3.44,3.44,0,0,0,1.07.82,3,3,0,0,0,1.33.3,3.85,3.85,0,0,0,2-.45,4.51,4.51,0,0,0,1.43-1.34Zm-1.52-4.81a3.57,3.57,0,0,0-.88-2.42,3,3,0,0,0-2.32-.91,3.21,3.21,0,0,0-2.38.91,4,4,0,0,0-1.09,2.42Z"/><path class="cls-2" d="M248.27,160.42a4.53,4.53,0,0,0,1.15,1.16A2.68,2.68,0,0,0,251,162a3.34,3.34,0,0,0,.82-.1,2.37,2.37,0,0,0,.76-.33,1.83,1.83,0,0,0,.55-.56,1.63,1.63,0,0,0,.2-.82,1.41,1.41,0,0,0-.19-.78,1.69,1.69,0,0,0-.51-.52,2.72,2.72,0,0,0-.73-.34l-.84-.23c-.5-.11-1-.25-1.43-.4a4.56,4.56,0,0,1-1.19-.59,2.67,2.67,0,0,1-.81-1,3.07,3.07,0,0,1-.31-1.48,3.21,3.21,0,0,1,.34-1.52,3.28,3.28,0,0,1,.91-1.08,4.38,4.38,0,0,1,1.27-.66,4.72,4.72,0,0,1,1.45-.22,4.52,4.52,0,0,1,2.1.5,3.51,3.51,0,0,1,1.51,1.64l-1.48,1.08a2.84,2.84,0,0,0-.89-1,2.29,2.29,0,0,0-1.35-.39,3.14,3.14,0,0,0-.74.1,2.16,2.16,0,0,0-.67.31,1.59,1.59,0,0,0-.49.51,1.34,1.34,0,0,0-.19.72.94.94,0,0,0,.22.64,2,2,0,0,0,.58.47,5.08,5.08,0,0,0,.87.35,7.85,7.85,0,0,0,1,.25,10.82,10.82,0,0,1,1.33.39,3.74,3.74,0,0,1,1.12.65,2.82,2.82,0,0,1,.74,1,3.43,3.43,0,0,1,.28,1.48,3.64,3.64,0,0,1-.37,1.72,3.15,3.15,0,0,1-1,1.14,3.87,3.87,0,0,1-1.36.64,5.85,5.85,0,0,1-1.55.21,5.47,5.47,0,0,1-2.35-.47,4.42,4.42,0,0,1-1.78-1.73Z"/><path class="cls-2" d="M257.57,153.24a5,5,0,0,1,1.94-1.37,6.28,6.28,0,0,1,2.28-.44,4.22,4.22,0,0,1,3.4,1.23,5.72,5.72,0,0,1,1.05,3.76v5.06c0,.34,0,.69,0,1.05s.07.69.11,1h-1.7a4.65,4.65,0,0,1-.1-.89c0-.33,0-.62,0-.87h-.05a4.4,4.4,0,0,1-1.39,1.49,3.75,3.75,0,0,1-2.1.58,5.1,5.1,0,0,1-1.53-.23,3.58,3.58,0,0,1-1.25-.67,3.28,3.28,0,0,1-.85-1.09,4.07,4.07,0,0,1,.37-3.81,4,4,0,0,1,1.68-1.23,7.72,7.72,0,0,1,2.18-.51c.78-.07,1.5-.1,2.15-.1h.68v-.35a2.5,2.5,0,0,0-.7-1.94,2.68,2.68,0,0,0-1.94-.66,4.68,4.68,0,0,0-1.68.32,4,4,0,0,0-1.47,1Zm5.13,4.61a5.8,5.8,0,0,0-2.7.53,1.83,1.83,0,0,0-1,1.74,1.78,1.78,0,0,0,.67,1.58,2.86,2.86,0,0,0,1.67.46,2.84,2.84,0,0,0,2.31-1.06,3.32,3.32,0,0,0,.59-1.12,5,5,0,0,0,.23-1.37v-.76Z"/><path class="cls-2" d="M269.48,154.53c0-.54,0-1-.05-1.51s0-.9,0-1.29h1.68c0,.32,0,.64,0,1s0,.64,0,1h.05a3.51,3.51,0,0,1,.51-.83,3.84,3.84,0,0,1,.78-.72,3.73,3.73,0,0,1,1-.5,4.27,4.27,0,0,1,2.67,0,3.45,3.45,0,0,1,1,.58,2.54,2.54,0,0,1,.6.73c.14.26.26.49.35.69a5.56,5.56,0,0,1,1.36-1.65,3.23,3.23,0,0,1,2-.59,4.61,4.61,0,0,1,1.9.34,3,3,0,0,1,1.25,1,4,4,0,0,1,.68,1.56,9.32,9.32,0,0,1,.21,2.06v7.15h-1.77v-7.05a5.86,5.86,0,0,0-.12-1.19,2.92,2.92,0,0,0-.4-1,2.25,2.25,0,0,0-.8-.73,2.52,2.52,0,0,0-1.27-.28,2.4,2.4,0,0,0-1.06.25,2.73,2.73,0,0,0-.88.71,3.49,3.49,0,0,0-.59,1.1,4.51,4.51,0,0,0-.21,1.42v6.8h-1.77v-6.67a5.9,5.9,0,0,0-.48-2.79,1.68,1.68,0,0,0-1.56-.82,3.15,3.15,0,0,0-1.49.33,2.68,2.68,0,0,0-1,.93,4.58,4.58,0,0,0-.59,1.44,8.06,8.06,0,0,0-.19,1.84v5.74h-1.77Z"/><path class="cls-2" d="M298.28,161.38a5.49,5.49,0,0,1-2.08,1.9,6,6,0,0,1-2.63.55,5,5,0,0,1-2.25-.5,4.87,4.87,0,0,1-1.69-1.32,6,6,0,0,1-1.07-2,7.71,7.71,0,0,1-.37-2.42,7.47,7.47,0,0,1,.41-2.51,6,6,0,0,1,1.13-2,5.13,5.13,0,0,1,3.9-1.72,5.06,5.06,0,0,1,2,.41,4.41,4.41,0,0,1,1.6,1.21,5.71,5.71,0,0,1,1,1.94,8.76,8.76,0,0,1,.36,2.61v.63h-8.58a4.44,4.44,0,0,0,.33,1.45,4.31,4.31,0,0,0,.74,1.21,3.44,3.44,0,0,0,1.07.82,3,3,0,0,0,1.34.3,3.91,3.91,0,0,0,1.95-.45,4.59,4.59,0,0,0,1.42-1.34Zm-1.52-4.81a3.57,3.57,0,0,0-.88-2.42,3,3,0,0,0-2.31-.91,3.22,3.22,0,0,0-2.39.91,4,4,0,0,0-1.09,2.42Z"/><line class="cls-3" x1="94.99" y1="131.83" x2="308.83" y2="131.83"/></g></g></svg>