<svg xmlns="http://www.w3.org/2000/svg" viewBox="0 0 265.44 48.42"><defs><style>.cls-1{fill:#153a49;}</style></defs><g id="Layer_2" data-name="Layer 2"><g id="Layer_1-2" data-name="Layer 1"><path class="cls-1" d="M40.38,12.78v-.12Q39.9,10.8,39.3,8.79A13.71,13.71,0,0,0,37.53,5,9.81,9.81,0,0,0,34.35,2.1,11.92,11.92,0,0,0,29.1.66h-.54a5.32,5.32,0,0,0-3.69,1.47q-1.05,1.23-1.05,4.35V41.94a11.75,11.75,0,0,0,.27,2.73,3.81,3.81,0,0,0,.9,1.77,3.88,3.88,0,0,0,1.65,1,9.53,9.53,0,0,0,2.52.39H31v.42H10.14v-.42a23.94,23.94,0,0,0,3.45-.21,4.51,4.51,0,0,0,2.22-.87A3.68,3.68,0,0,0,17,44.94a10.49,10.49,0,0,0,.36-3.06V6.54a11.67,11.67,0,0,0-.27-2.76A3.8,3.8,0,0,0,16.17,2a3.65,3.65,0,0,0-1.65-1A12.66,12.66,0,0,0,12,.66h-.36A11.7,11.7,0,0,0,6.42,2.1,10.24,10.24,0,0,0,3.24,5a13.23,13.23,0,0,0-1.8,3.75q-.6,2-1,3.87v.12H0V.18H40.8v12.6Z"/><path class="cls-1" d="M49.23,47.73a4.71,4.71,0,0,0,2.25-.87,3.6,3.6,0,0,0,1.2-1.8A10.49,10.49,0,0,0,53,42V6.66q0-3.3-1.17-4.53T47.7.72H45.78V.36H66.66v.3h0V.72h-2.4a5.7,5.7,0,0,0-3.75,1.5q-1,1.2-1,4.38V42.06a11.67,11.67,0,0,0,.27,2.76,3.8,3.8,0,0,0,.9,1.74,3.87,3.87,0,0,0,1.68,1,9.92,9.92,0,0,0,2.55.39h1.86v.42H45.78v-.42A23.94,23.94,0,0,0,49.23,47.73Z"/><path class="cls-1" d="M113.4,47.7a5.12,5.12,0,0,0,2.22-.87,3.43,3.43,0,0,0,1.2-1.8,10.81,10.81,0,0,0,.36-3.09V10.5q0-2.88,0-4.95t0-2.73L98.82,38.1h-.48L80.88,5V40.5A6.23,6.23,0,0,0,82,44.4a8.09,8.09,0,0,0,2.64,2.25,9.75,9.75,0,0,0,3.12,1.05,17.78,17.78,0,0,0,2.49.24h1v.36H70.26v-.36h.9a18,18,0,0,0,2.55-.24,9.43,9.43,0,0,0,3.09-1.05,8.2,8.2,0,0,0,2.61-2.25,6.23,6.23,0,0,0,1.11-3.9V7.62q0-1.44-.06-2.7a5,5,0,0,0-.57-2.19,3.54,3.54,0,0,0-1.62-1.47A7.37,7.37,0,0,0,75.12.72H73.2V.3H85.74l16.2,30.9L118.08.3H130.8V.72h-2.4q-2.7,0-3.75,1.32t-1.05,4.5V42q0,3.36,1.32,4.65A5.64,5.64,0,0,0,129,47.94h1.86v.36H110v-.36A20.43,20.43,0,0,0,113.4,47.7Z"/><path class="cls-1" d="M138.21,47.73a4.71,4.71,0,0,0,2.25-.87,3.6,3.6,0,0,0,1.2-1.8A10.49,10.49,0,0,0,142,42V6.66q0-3.3-1.17-4.53T136.68.72h-1.92V.36h20.88v.3h0V.72h-2.4a5.7,5.7,0,0,0-3.75,1.5q-1.05,1.2-1.05,4.38V42.06a11.67,11.67,0,0,0,.27,2.76,3.8,3.8,0,0,0,.9,1.74,3.87,3.87,0,0,0,1.68,1,9.92,9.92,0,0,0,2.55.39h1.86v.42H134.76v-.42A23.94,23.94,0,0,0,138.21,47.73Z"/><path class="cls-1" d="M216.12.36V.78h-.9a16,16,0,0,0-2.55.27,11,11,0,0,0-3.09,1A7.54,7.54,0,0,0,207,4.26a6.13,6.13,0,0,0-1.11,3.84V48.36h-.48L170.1,4.2V40.56a6.23,6.23,0,0,0,1.11,3.9,7.54,7.54,0,0,0,2.61,2.19,11,11,0,0,0,3.09,1,16,16,0,0,0,2.55.27h.9v.42h-21v-.42h.9a16,16,0,0,0,2.55-.27,11,11,0,0,0,3.09-1,7.54,7.54,0,0,0,2.61-2.19,6.23,6.23,0,0,0,1.11-3.9V6.42q0-1.44-.06-2.49A3.49,3.49,0,0,0,169,2.16a2.77,2.77,0,0,0-1.59-1,11.91,11.91,0,0,0-3.21-.33h-1.86V.36H175.2l30.18,37.5V8.1a6.13,6.13,0,0,0-1.11-3.84,7.54,7.54,0,0,0-2.61-2.19,11,11,0,0,0-3.09-1A16,16,0,0,0,196,.78h-.9V.36h21Z"/><path class="cls-1" d="M220.56,24.24a26.88,26.88,0,0,1,1.68-9.42,25.7,25.7,0,0,1,4.56-7.68,20.63,20.63,0,0,1,6.72-5.22A18.5,18.5,0,0,1,241.68,0a16.16,16.16,0,0,1,5.88,1.14l.12.06.24.12q.42.18.81.39t.81.39a12.41,12.41,0,0,0,5,1.5,5,5,0,0,0,2.73-.6A3.05,3.05,0,0,0,258.6.9H259V18.36h-.36a27.59,27.59,0,0,0-2.28-7.92,19.71,19.71,0,0,0-3.9-5.58,16.11,16.11,0,0,0-5-3.3,14.55,14.55,0,0,0-4.8-1.14V.48a10.8,10.8,0,0,0-6.06,1.86,17.17,17.17,0,0,0-4.92,5.1,27.19,27.19,0,0,0-3.3,7.56,34.39,34.39,0,0,0-1.2,9.24,33.16,33.16,0,0,0,2,11.67,21.9,21.9,0,0,0,5.28,8.43,14.73,14.73,0,0,0,2.88,2.13,17.11,17.11,0,0,0,2.4,1.11,9.67,9.67,0,0,0,2.94.42,13.28,13.28,0,0,0,4.74-1,19.37,19.37,0,0,0,3.84-2.28l.72-.75a7.53,7.53,0,0,0,1-1.32,9.36,9.36,0,0,0,.84-2,8.56,8.56,0,0,0,.36-2.58V32.52a3.12,3.12,0,0,0-.63-2.07,3.71,3.71,0,0,0-1.68-1.11,8.85,8.85,0,0,0-2.49-.42q-1.44-.06-3.06-.06v-.48h19.2v.48q-1.38,0-2.31.06a4.46,4.46,0,0,0-1.53.33,1.68,1.68,0,0,0-.87.87,4,4,0,0,0-.27,1.62V45.06H260a3.52,3.52,0,0,0-2.73-1,12.16,12.16,0,0,0-3.42.75q-1.83.66-3.84,1.59a25.46,25.46,0,0,1-4,1.47,17.52,17.52,0,0,1-4.38.54,18.23,18.23,0,0,1-8.16-1.86,23.5,23.5,0,0,1-3.6-2.22,18.34,18.34,0,0,1-3.12-3,25.7,25.7,0,0,1-4.56-7.68A27.48,27.48,0,0,1,221,29.07,27,27,0,0,1,220.56,24.24Z"/></g></g></svg>