<svg xmlns="http://www.w3.org/2000/svg" viewBox="0 0 398.92 96.03"><defs><style>.cls-1{fill:#153a49;}.cls-2{fill:#ff8300;}</style></defs><g id="Layer_2" data-name="Layer 2"><g id="Layer_1-2" data-name="Layer 1"><path class="cls-1" d="M45.43,14.71v-.13c-.36-1.39-.77-2.85-1.22-4.35a15.25,15.25,0,0,0-2-4.22A11,11,0,0,0,38.64,2.7a13.35,13.35,0,0,0-5.9-1.62h-.61c-2,.18-3.36.73-4.15,1.65S26.8,5.29,26.8,7.63V47.52a13.38,13.38,0,0,0,.3,3.07,4.27,4.27,0,0,0,1,2A4.38,4.38,0,0,0,30,53.7a10.82,10.82,0,0,0,2.83.43h2.1v.48H11.41v-.48a26.68,26.68,0,0,0,3.88-.23,5.06,5.06,0,0,0,2.5-1,4.17,4.17,0,0,0,1.31-2,11.85,11.85,0,0,0,.41-3.45V7.69a12.72,12.72,0,0,0-.31-3.1,4.3,4.3,0,0,0-1-2,4.17,4.17,0,0,0-1.86-1.08,14.58,14.58,0,0,0-2.83-.47h-.41A13.21,13.21,0,0,0,7.22,2.7,11.38,11.38,0,0,0,3.65,6a14.55,14.55,0,0,0-2,4.22c-.45,1.5-.83,3-1.15,4.35v.13H0V.54H45.9V14.71Z"/><path class="cls-1" d="M123.86,1.15h-.34a11.72,11.72,0,0,0-1.85.23,9.54,9.54,0,0,0-2.74,1.05,10.53,10.53,0,0,0-2.86,2.4,11.23,11.23,0,0,0-2.2,4.35L100.51,54.61H100L86.67,9.72,73.57,54.61H73L59.53,9.11l-.27-.88a16,16,0,0,0-1.72-4.08,6.08,6.08,0,0,0-1.95-2,5.23,5.23,0,0,0-2.2-.71q-1.14-.11-2.43-.3h-.07V.67H73v.48h-.2c-1.17,0-2.27,0-3.31.1A4.6,4.6,0,0,0,67,2.06a3.21,3.21,0,0,0-1.15,2.29,11.41,11.41,0,0,0,.74,4.56l9.92,33.75L86.47,8.91a.71.71,0,0,1-.14-.37.67.67,0,0,0-.07-.31,16,16,0,0,0-1.72-4.08,6.08,6.08,0,0,0-2-2,5.31,5.31,0,0,0-2.23-.71q-1.19-.11-2.4-.3h-.07V.67H100v.48h-.2q-1.76,0-3.27.06a4.58,4.58,0,0,0-2.5.78,3.16,3.16,0,0,0-1.18,2.3,11.81,11.81,0,0,0,.74,4.62l9.92,33.75L113.8,7.56a4.14,4.14,0,0,0-.23-3.48,5.64,5.64,0,0,0-2.26-1.92,9.14,9.14,0,0,0-2.94-.84,20.3,20.3,0,0,0-2.19-.17h-.41V.67h18.09Z"/><path class="cls-1" d="M127.64,27.27a29,29,0,0,1,1.89-10.6A26,26,0,0,1,134.59,8,22.71,22.71,0,0,1,142,2.16,21,21,0,0,1,151.27,0h3.91a20.81,20.81,0,0,1,9.18,2.16A22.53,22.53,0,0,1,171.92,8a29.1,29.1,0,0,1,5.13,8.71,30.59,30.59,0,0,1,1.82,10.6,30.23,30.23,0,0,1-1.82,10.6,28.93,28.93,0,0,1-5.13,8.7,22.3,22.3,0,0,1-7.56,5.81,20.81,20.81,0,0,1-9.18,2.16h-3.91A21,21,0,0,1,142,52.38a22.48,22.48,0,0,1-7.43-5.81,25.85,25.85,0,0,1-5.06-8.7A29,29,0,0,1,127.64,27.27Zm7.36,0a41,41,0,0,0,1.25,10.33A28.38,28.38,0,0,0,140,46.24a16.22,16.22,0,0,0,1,1.55,14.43,14.43,0,0,0,1.18,1.35,17.47,17.47,0,0,0,4.08,3.14,34.18,34.18,0,0,0,3.21,1.52l1.28.27a7.21,7.21,0,0,0,1.42.13h2a6.31,6.31,0,0,0,1.35-.13l1.35-.27c.76-.32,1.81-.82,3.13-1.52a18.38,18.38,0,0,0,4.16-3.14c.36-.41.73-.85,1.11-1.35s.75-1,1.11-1.55a28.69,28.69,0,0,0,3.78-8.64,40.1,40.1,0,0,0,1.29-10.33,40.1,40.1,0,0,0-1.29-10.33,28.69,28.69,0,0,0-3.78-8.64c-.36-.54-.73-1.05-1.11-1.55s-.75-1-1.11-1.35a18.68,18.68,0,0,0-4.16-3.14c-1.32-.7-2.37-1.2-3.13-1.52L155.59.51A8,8,0,0,0,154.24.4h-2a11.35,11.35,0,0,0-2.7.34,34.18,34.18,0,0,0-3.21,1.52,17.75,17.75,0,0,0-4.08,3.14A14.43,14.43,0,0,0,141,6.75a16.22,16.22,0,0,0-1,1.55,28.38,28.38,0,0,0-3.74,8.64A41,41,0,0,0,135,27.27Z"/><path class="cls-1" d="M184.21,26.12h20.58v3.11H184.21Z"/><path class="cls-1" d="M211.47,37.6H212a16.94,16.94,0,0,0,.34,3.14,24.88,24.88,0,0,0,1,3.44,20.16,20.16,0,0,0,1.48,3.27,9.5,9.5,0,0,0,2,2.5,16.28,16.28,0,0,0,4.86,2.94A16.83,16.83,0,0,0,227.34,54h.6a18.43,18.43,0,0,0,5.74-1.15A10.92,10.92,0,0,0,238.27,49a10,10,0,0,0,1.79-5.36,10.43,10.43,0,0,0-1.59-5.74A13.42,13.42,0,0,0,232.94,33l-8.51-4.39a25.16,25.16,0,0,1-6.75-4.76,16.18,16.18,0,0,1-3.54-5.33,11.74,11.74,0,0,1-.78-5.44A12.69,12.69,0,0,1,215,8a14.75,14.75,0,0,1,3.62-4.18A18.31,18.31,0,0,1,223.76.94a12.35,12.35,0,0,1,2.7-.74,19.32,19.32,0,0,1,2.77-.2,16.25,16.25,0,0,1,6.07,1.15c.72.27,1.49.54,2.3.81a9.08,9.08,0,0,0,2.43.47A4.82,4.82,0,0,0,242.32,2,4.25,4.25,0,0,0,244.21.2h.47V14.85h-.54a11,11,0,0,0-.43-3,16.44,16.44,0,0,0-1.19-3,17.51,17.51,0,0,0-1.68-2.7A16.28,16.28,0,0,0,239,4.05a13.66,13.66,0,0,0-4.46-2.67,15.39,15.39,0,0,0-5.26-.91,16.71,16.71,0,0,0-2.33.17,13.53,13.53,0,0,0-2.26.51,9.66,9.66,0,0,0-4.83,3.24,6.9,6.9,0,0,0-1.42,5.13,12,12,0,0,0,3,6.17,29.93,29.93,0,0,0,8.43,6.52l7.77,4a19.86,19.86,0,0,1,5.87,4.62,14.35,14.35,0,0,1,3,5.57,12.15,12.15,0,0,1,.07,5.81,12.55,12.55,0,0,1-2.8,5.36,18.36,18.36,0,0,1-5.64,4.26,26.48,26.48,0,0,1-8.44,2.46h.14l-1,.1c-.29,0-.6,0-.91,0h-.68a15.61,15.61,0,0,1-5.87-1.14v0a5.34,5.34,0,0,1-.68-.27,12.41,12.41,0,0,0-4.45-1.05,5.6,5.6,0,0,0-2.6.54,2.84,2.84,0,0,0-1.25,1.22,9.48,9.48,0,0,0-.4.91v.06h-.48Z"/><path class="cls-1" d="M297.87,14.71v-.13c-.36-1.39-.76-2.85-1.21-4.35a15.54,15.54,0,0,0-2-4.22,11,11,0,0,0-3.58-3.31,13.43,13.43,0,0,0-5.91-1.62h-.6c-2,.18-3.37.73-4.16,1.65s-1.18,2.56-1.18,4.9V47.52a12.79,12.79,0,0,0,.31,3.07,4.27,4.27,0,0,0,1,2,4.32,4.32,0,0,0,1.86,1.12,10.75,10.75,0,0,0,2.83.43h2.09v.48H263.85v-.48a26.58,26.58,0,0,0,3.88-.23,5.06,5.06,0,0,0,2.5-1,4.12,4.12,0,0,0,1.32-2,11.9,11.9,0,0,0,.4-3.45V7.69a13.3,13.3,0,0,0-.3-3.1,4.3,4.3,0,0,0-1-2,4.28,4.28,0,0,0-1.86-1.08A14.71,14.71,0,0,0,266,1.08h-.41a13.13,13.13,0,0,0-5.87,1.62A11.42,11.42,0,0,0,256.09,6a14.53,14.53,0,0,0-2,4.22c-.45,1.5-.84,3-1.15,4.35v.13h-.47V.54h45.9V14.71Z"/><path class="cls-1" d="M338.91,53.59a15.86,15.86,0,0,0,3.95-1.75,14.94,14.94,0,0,0,3-2.46,20.86,20.86,0,0,0,2.22-2.87,23.31,23.31,0,0,0,3-7.83h.47l-2,16.06H305v-.47a26.52,26.52,0,0,0,3.88-.24,5.16,5.16,0,0,0,2.53-1,4,4,0,0,0,1.35-2,11.73,11.73,0,0,0,.41-3.44V8.64a2.85,2.85,0,0,0,0-.41,2.69,2.69,0,0,1,0-.4q0-3.7-1.32-5.1t-4.69-1.58H305V.74h42.79V14.92h-.47v-.07c-.36-1.49-.77-3-1.25-4.66a13.75,13.75,0,0,0-2.19-4.42,11.48,11.48,0,0,0-4-3.31A14.93,14.93,0,0,0,333,1.15H320.35V27.54H330a7.62,7.62,0,0,0,4.56-1.32,8.86,8.86,0,0,0,2.5-2.8,8.75,8.75,0,0,0,1-3,16,16,0,0,0,.21-1.89v-.2h.47V37.19h-.47V37a18.07,18.07,0,0,0-.21-2A8.65,8.65,0,0,0,337,32a8.38,8.38,0,0,0-2.6-2.8,8.1,8.1,0,0,0-4.75-1.22h-9.32v18.5a7.78,7.78,0,0,1,.07,1.21,13.28,13.28,0,0,0,.3,3.11,4.3,4.3,0,0,0,1,2,4.47,4.47,0,0,0,1.86,1.11,10.38,10.38,0,0,0,2.83.44h7.5A17.16,17.16,0,0,0,338.91,53.59Z"/><path class="cls-1" d="M355.92,54.74v-.47A26.42,26.42,0,0,0,359.8,54a5.16,5.16,0,0,0,2.53-1,3.93,3.93,0,0,0,1.35-2,11.4,11.4,0,0,0,.41-3.44V7.83q0-3.7-1.32-5.1c-.87-.92-2.44-1.45-4.69-1.58h-2.16V.74h25.65a27.5,27.5,0,0,1,7.83,1,15.54,15.54,0,0,1,5.4,2.91,11.28,11.28,0,0,1,3.07,4.22,13.69,13.69,0,0,1,1.05,5.43A12.11,12.11,0,0,1,394.8,24a14.41,14.41,0,0,1-5.4,2.9,24.92,24.92,0,0,1-7.83,1.08H371.31V47.65a12.7,12.7,0,0,0,.31,3.11,4.3,4.3,0,0,0,1,2,4.4,4.4,0,0,0,1.89,1.11,10.83,10.83,0,0,0,2.87.44h2.09l-.07.07v.4H355.92Zm15.39-27.2H381a9.77,9.77,0,0,0,5.74-1.69,11,11,0,0,0,1.52-1.38,9.23,9.23,0,0,0,1.38-2A14.17,14.17,0,0,0,391,18.8a19.75,19.75,0,0,0,.48-4.49c0-3.87-.84-7-2.5-9.32a9.23,9.23,0,0,0-8-3.84h-4.32a6.45,6.45,0,0,0-4.22,1.68c-.78.91-1.18,2.55-1.18,4.93V27.54Z"/><path class="cls-2" d="M51.73,58.54a12.3,12.3,0,0,0-3.84,4c-1,1.6-2,3.19-3.09,4.79-.45.88-.88,1.76-1.32,2.64a22.45,22.45,0,0,0-1.16,2.72,14.58,14.58,0,0,0-1.24,2.68,3,3,0,0,1-2,1.94h-.74a2.11,2.11,0,0,1-.7-.45,4,4,0,0,1-.54-.7A26.34,26.34,0,0,1,37,72.73c0-1.2.08-2.43.16-3.67s.22-2.44.42-3.63.4-2.27.62-3.26a11.33,11.33,0,0,1,.49-1.81A1.57,1.57,0,0,1,40,59.29,1,1,0,0,1,41,60a4.32,4.32,0,0,1,.16,1.53,13.34,13.34,0,0,1-.2,1.81,9.41,9.41,0,0,0-.17,1.53c-.11,1.1-.2,2.09-.29,3s-.17,1.7-.28,2.47q1.4-2.31,3.38-5.2a52.84,52.84,0,0,1,4-5.19A19.54,19.54,0,0,1,49,58.34a6,6,0,0,1,1.7-1.2,2.47,2.47,0,0,1,1.52,0,1.29,1.29,0,0,1,1,.91c.11.66-.06,1-.49,1.07A.89.89,0,0,1,51.73,58.54Z"/><path class="cls-2" d="M56.1,65.47a16.11,16.11,0,0,0-1.08,3,14,14,0,0,0-.49,3.63,6.25,6.25,0,0,0,.74,3.09,2.92,2.92,0,0,0,2.64,1.4A8.14,8.14,0,0,0,62,75.7c1.29-.66,2.4-1.29,3.34-1.89,1.1-.77,2.13-1.53,3.09-2.27s1.83-1.47,2.6-2.19a44.33,44.33,0,0,0,4.08-3.55Q77,63.91,79,61.93a2.19,2.19,0,0,0,.54-.66,7.59,7.59,0,0,1,.61-.91,3.9,3.9,0,0,1,.71-.7.63.63,0,0,1,.78,0c.38.16.47.49.25,1a6.34,6.34,0,0,1-.58,1.07,3,3,0,0,1-.5.91q-.33.4-.66.9A58.13,58.13,0,0,1,75.77,68q-2.26,2.14-4.66,4.29a33.2,33.2,0,0,1-6.93,5,17.41,17.41,0,0,1-2.06,1,12.26,12.26,0,0,1-2.39.66,10.61,10.61,0,0,1-2.52.12,5,5,0,0,1-2.35-.74,4,4,0,0,1-.87-.78c-.24-.3-.5-.62-.78-1a7.77,7.77,0,0,1-1-3.51,15.77,15.77,0,0,1,.25-3.92,23.22,23.22,0,0,1,1-3.79,23.64,23.64,0,0,1,1.32-3.05,34.07,34.07,0,0,1,3.3-4.87,9.64,9.64,0,0,1,5-3.14,4,4,0,0,1,2.76.75,2.82,2.82,0,0,1,.87,2.64,5.34,5.34,0,0,1-1,2.47A16.36,16.36,0,0,1,64,62.17a18.52,18.52,0,0,1-3.26,2.6A6.73,6.73,0,0,1,56.1,65.47Zm7.67-8.82a8.51,8.51,0,0,0-4.37,3,30.29,30.29,0,0,0-2.81,4.58,5.12,5.12,0,0,0,3-.83,22,22,0,0,0,2.15-1.73c.6-.66,1.24-1.32,1.9-2a3.54,3.54,0,0,0,.9-2.81A.89.89,0,0,0,63.77,56.65Z"/><path class="cls-2" d="M86.21,63.49a1.06,1.06,0,0,1-.95-.08,2.15,2.15,0,0,1-.62-.62,3.93,3.93,0,0,1-.41-.82,3.26,3.26,0,0,0-.41-.79A6.43,6.43,0,0,0,81,63.87a20.13,20.13,0,0,0-1.73,3.91,19.12,19.12,0,0,0-.58,2.27,17.3,17.3,0,0,0-.29,2.56A8.4,8.4,0,0,0,78.66,75a2.68,2.68,0,0,0,1.2,1.69,6.82,6.82,0,0,0,3.71-1.4,34.76,34.76,0,0,1,2.89-2.14q2.88-2.15,5.61-4.42t5.52-4.58c.44-.33.9-.68,1.36-1.07s1-.74,1.45-1.07a3,3,0,0,1,.7-.5L102,61a9.38,9.38,0,0,0,.86-.41.55.55,0,0,1,.79.24c.16.45.09.75-.21.91a3.37,3.37,0,0,0-.78.58c-.78.55-1.5,1.11-2.19,1.69l-2.1,1.77q-3.06,2.57-6.07,5.49a70,70,0,0,1-6.39,5.49,25,25,0,0,1-3.14,2,5.18,5.18,0,0,1-4,.29,4.23,4.23,0,0,1-2.1-2.35,10.88,10.88,0,0,1-.7-3.55,15.82,15.82,0,0,1,.33-4,20.9,20.9,0,0,1,1.07-3.67A15.44,15.44,0,0,1,81.84,59l.66-.29a2.86,2.86,0,0,1,.66-.21s.08,0,.08,0,0,0,.08,0h.74a3,3,0,0,1,.66.08,3.14,3.14,0,0,1,1.82,2.4,5.77,5.77,0,0,0,0,1.44A1.19,1.19,0,0,1,86.21,63.49Z"/><path class="cls-2" d="M108.07,58.71a6.41,6.41,0,0,1,4.41,1.73,8,8,0,0,1,2,4.21c1.76-.33,3.58-.7,5.48-1.11s3.76-.84,5.57-1.28a6.49,6.49,0,0,0,.83-.29,5.89,5.89,0,0,1,1-.33,2.93,2.93,0,0,1,1-.08.65.65,0,0,1,.57.37.51.51,0,0,1-.16.66A4.24,4.24,0,0,1,128,63a5.81,5.81,0,0,1-1.07.33,6.54,6.54,0,0,0-.82.21c-1.77.55-3.62,1-5.57,1.44l-5.82,1.2a17.21,17.21,0,0,1-.7,6,20.64,20.64,0,0,1-2.27,5.07,25.91,25.91,0,0,1-3.18,4,9.08,9.08,0,0,1-4.33,2.48H103a3.36,3.36,0,0,1-1.41-.62,12.28,12.28,0,0,1-1.07-1,7.29,7.29,0,0,1-1.28-3.59,21.34,21.34,0,0,1,0-4.37,41.08,41.08,0,0,1,.75-4.46c.33-1.45.63-2.76.9-3.92a3.28,3.28,0,0,1,0-3,6.52,6.52,0,0,1,1.61-2.14,13.66,13.66,0,0,0,.62-1.73,13.45,13.45,0,0,1,.7-1.9,5.85,5.85,0,0,1,1-1.57,2.1,2.1,0,0,1,1.61-.66,1.61,1.61,0,0,1,1.65,1.2A4.37,4.37,0,0,1,108.07,58.71Zm-4,8.58c-.28,1.6-.62,3.31-1,5.16a20.47,20.47,0,0,0-.45,5.65,7.71,7.71,0,0,0,.28,1.4,2,2,0,0,0,.79,1.07,6.29,6.29,0,0,0,3.79-2c.94-1,1.82-2.11,2.64-3.22a29.81,29.81,0,0,0,2-4,9.83,9.83,0,0,0,.66-4.82,39.54,39.54,0,0,1-4.2.62A36.91,36.91,0,0,1,104.11,67.29Zm3.63-6.85a2.56,2.56,0,0,0-.16,1,.55.55,0,0,1-.5.62,1.18,1.18,0,0,1-.37,0,2.21,2.21,0,0,1-.29-.13,1.51,1.51,0,0,1-.08-1.15,3.51,3.51,0,0,0-.62,1.07c-.14.39-.26.8-.37,1.24a9.54,9.54,0,0,0-.41,1.32q-.18.66-.33,1.32c1.53,0,3,0,4.29-.17s2.61-.27,3.87-.49a6.56,6.56,0,0,0-1.52-3.26A4.87,4.87,0,0,0,107.74,60.44Z"/><path class="cls-2" d="M128.45,73.39q1.65-3.14,3.3-6.39a30.68,30.68,0,0,1,3.87-5.9l.83-1a6.62,6.62,0,0,1,1.07-1,3.91,3.91,0,0,1,1.28-.58,2.61,2.61,0,0,1,1.53.17,3.75,3.75,0,0,1,1.81,2.56q.59,2,1,4c.11.6.24,1.23.37,1.89s.29,1.32.46,2a12.22,12.22,0,0,0,.66,1.86,1.74,1.74,0,0,0,1,1.11,1.33,1.33,0,0,0,1.23-.28,11.16,11.16,0,0,1,1-.71c.33-.27.64-.5.91-.7a5.72,5.72,0,0,0,.83-.7A34.24,34.24,0,0,0,153,66.22a41.25,41.25,0,0,1,3.47-3.55,12.7,12.7,0,0,1,1.44-1,2.16,2.16,0,0,1,1-.29c.3,0,.48.2.54.58s-.13.61-.54.82a4.42,4.42,0,0,0-1,.66,20.79,20.79,0,0,0-2.31,2.36c-.77.9-1.59,1.82-2.47,2.76-.44.44-.87.85-1.28,1.24s-.84.8-1.28,1.23c-.72.72-1.49,1.42-2.31,2.11a4.86,4.86,0,0,1-3.22,1l-.37-.17a1.33,1.33,0,0,0-.45-.08,5,5,0,0,1-2-2.56,25.55,25.55,0,0,1-1-3.5c-.27-1.24-.53-2.48-.78-3.71a11.57,11.57,0,0,0-1.2-3.35,5,5,0,0,0-2.14,1.86,27.75,27.75,0,0,1-1.65,2.35,38.12,38.12,0,0,0-2.81,5.12q-1.23,2.71-2.39,5.61a5.13,5.13,0,0,0-.58,1.28,13.18,13.18,0,0,1-.57,1.52,4.14,4.14,0,0,1-.87,1.28,1.52,1.52,0,0,1-1.44.37,1.36,1.36,0,0,1-1.12-.86,5.53,5.53,0,0,1-.45-1.82,20.22,20.22,0,0,1,0-2.23c0-.79.07-1.52.12-2.18.22-2.64.53-5.21.91-7.72a46,46,0,0,1,1.57-6.89q.33-.9.57-1.65a1.16,1.16,0,0,1,1.08-.82,1,1,0,0,1,1,.45,2.49,2.49,0,0,1,.25,1.28,10.22,10.22,0,0,1-.25,1.61,14.59,14.59,0,0,0-.29,1.44c-.39,2.1-.72,4.18-1,6.27S128.67,71.3,128.45,73.39Z"/><path class="cls-2" d="M162,61.18a6.88,6.88,0,0,0-2.47,2,8.21,8.21,0,0,0-1,1.32,2.7,2.7,0,0,0-.46,1.74,3,3,0,0,0,.91,1.61c.5.46.94.89,1.32,1.27s.87.87,1.28,1.28a13,13,0,0,1,1.11,1.28c1.38-1,2.68-2,3.92-3.09a37,37,0,0,1,4-3,29.81,29.81,0,0,1,3.1-2.07c1.12-.66,2.29-1.29,3.5-1.89l1.16-.58a1.14,1.14,0,0,1,1.24.08.87.87,0,0,1-.09.66.93.93,0,0,1-.49.37l-.66.25a1,1,0,0,0-.5.37,22.72,22.72,0,0,0-3.34,1.86c-1,.69-2.05,1.36-3.09,2q-4,3-7.67,6.19a26.24,26.24,0,0,1,2,3.87,12.24,12.24,0,0,1,.86,4.71,13.69,13.69,0,0,1-.82,5.28A15.23,15.23,0,0,1,163.34,91a18,18,0,0,1-3.54,3.13A7.75,7.75,0,0,1,155,95.5a5.64,5.64,0,0,1-1.9-.41,7.32,7.32,0,0,1-1.4-.82,8.56,8.56,0,0,1-1.32-1.9,6.22,6.22,0,0,1-.58-2.39,9.11,9.11,0,0,1,1.08-5.28,27.89,27.89,0,0,1,2.72-4.13A34.42,34.42,0,0,1,156.87,77c1.12-1.07,2.24-2.07,3.34-3a10.07,10.07,0,0,0-1.32-1.52c-.5-.47-1-1-1.49-1.45A14.44,14.44,0,0,1,156,69.43a6.26,6.26,0,0,1-.95-1.81,4.29,4.29,0,0,1,0-3.34,13.59,13.59,0,0,1,1.61-2.68A22.2,22.2,0,0,1,158.35,60a7.26,7.26,0,0,1,1.86-1.2,8.49,8.49,0,0,1,1.24-.25,2.31,2.31,0,0,1,1.23.17,1.65,1.65,0,0,0,.46.45,1.41,1.41,0,0,1,.45.62,2.66,2.66,0,0,1,0,1.57c-.14.61-.34.91-.62.91s-.6-.06-.66-.33A1.7,1.7,0,0,0,162,61.18ZM161,75.46c-.93.77-1.87,1.62-2.8,2.55a37.07,37.07,0,0,0-2.73,3.06c-.49.6-1,1.28-1.52,2a12.33,12.33,0,0,0-1.32,2.43,11.68,11.68,0,0,0-.75,2.77,6.86,6.86,0,0,0,.29,3,5.71,5.71,0,0,0,1.08,1.11,2.45,2.45,0,0,0,1.56.45,5.72,5.72,0,0,0,3.34-1.27,14.53,14.53,0,0,0,2.6-2.6,11.18,11.18,0,0,0,1.61-3.14,14.24,14.24,0,0,0,.74-3.67,11.36,11.36,0,0,0-.33-3.67,8.78,8.78,0,0,0-1.52-3.22.07.07,0,0,0-.08-.08C161,75.32,161,75.4,161,75.46ZM152.21,96s0,0,.16-.08C152.37,96,152.32,96,152.21,96Z"/><path class="cls-2" d="M183.23,50.46q7.1-.26,14.76-.74a109.56,109.56,0,0,1,15.27.08c.27,0,.57,0,.9,0a.72.72,0,0,1,.66.45c0,.45-.26.66-.61.66a4.49,4.49,0,0,1-1-.08A146.62,146.62,0,0,0,198,51q-7.59.45-14.93.86-1.16,6.77-2.1,13.78a100.94,100.94,0,0,0-.87,14.68c0,.72,0,1.52.08,2.4a18.21,18.21,0,0,0,.33,2.47c.11.61.29,1.35.54,2.23s.62,1.35,1.11,1.4a1.08,1.08,0,0,0,.87-.25,8.83,8.83,0,0,0,.91-.78,9.15,9.15,0,0,0,.82-1c.25-.33.43-.58.54-.74a81.3,81.3,0,0,0,5.9-8.79q2.59-4.49,5.48-9.36c.5-.88,1-1.79,1.57-2.72s1.16-1.87,1.82-2.81a8.12,8.12,0,0,1,.74-1,.72.72,0,0,1,.82-.29c.44.22.53.57.25,1s-.49.81-.66,1c-1.37,2.31-2.67,4.65-3.88,7s-2.5,4.7-3.87,7q-1.16,1.91-2.27,3.84t-2.35,3.83q-1.25,1.91-2.56,3.72a8.86,8.86,0,0,1-3.38,2.8,4.63,4.63,0,0,1-1.74,0,5.11,5.11,0,0,1-2.84-3.09,22.2,22.2,0,0,1-1.12-4.66,36.17,36.17,0,0,1-.41-5.49c0-1.9.06-3.75.17-5.57q.4-5.52,1.11-10.68t1.69-9.86q-3.8.16-7.71.58c-2.61.27-5.27.46-8,.57-.33,0-.71,0-1.12.05a.61.61,0,0,1-.7-.62.58.58,0,0,1,.66-.66,6.59,6.59,0,0,0,1.16-.09q3.87-.24,7.92-.66t8-.57c.33-1.16.7-2.52,1.11-4.09a33.27,33.27,0,0,1,1.45-4.33,6.33,6.33,0,0,1,.61-1.36,1.32,1.32,0,0,1,1.12-.78.85.85,0,0,1,.78.33,1.26,1.26,0,0,1,.17.78,7.07,7.07,0,0,1-.17,1c-.08.33-.15.63-.2.91-.28,1.21-.55,2.46-.83,3.75S183.5,49.36,183.23,50.46Z"/><path class="cls-2" d="M214.08,58.54a12.37,12.37,0,0,0-3.83,4c-1,1.6-2,3.19-3.1,4.79l-1.32,2.64a24.09,24.09,0,0,0-1.15,2.72,14,14,0,0,0-1.24,2.68,3,3,0,0,1-2,1.94h-.74a2.15,2.15,0,0,1-.71-.45,3.57,3.57,0,0,1-.53-.7,28.19,28.19,0,0,1-.13-3.39c0-1.2.09-2.43.17-3.67s.22-2.44.41-3.63.4-2.27.62-3.26a11.39,11.39,0,0,1,.5-1.81,1.56,1.56,0,0,1,1.32-1.07,1,1,0,0,1,.94.74,4.3,4.3,0,0,1,.17,1.53,15.26,15.26,0,0,1-.21,1.81,9.22,9.22,0,0,0-.16,1.53c-.11,1.1-.21,2.09-.29,3s-.18,1.7-.29,2.47c.94-1.54,2.06-3.27,3.38-5.2A51.4,51.4,0,0,1,210,60a19.54,19.54,0,0,1,1.44-1.61,6,6,0,0,1,1.69-1.2,2.5,2.5,0,0,1,1.53,0,1.29,1.29,0,0,1,.95.91c.11.66-.06,1-.5,1.07A.9.9,0,0,1,214.08,58.54Z"/><path class="cls-2" d="M219.28,73.48a1.53,1.53,0,0,0,.7-.62c.19-.3.37-.59.53-.87.61-.77,1.2-1.59,1.78-2.47s1.17-1.71,1.77-2.48c.39-.6.77-1.18,1.16-1.73a17,17,0,0,1,1.23-1.57,11.69,11.69,0,0,0,1.41-1.48,2.21,2.21,0,0,1,2-.75,2.08,2.08,0,0,1,1.44.71,4.78,4.78,0,0,1,.87,1.48,12.1,12.1,0,0,1,.53,1.94c.14.71.26,1.37.37,2s.25,1.14.42,1.77a18.27,18.27,0,0,0,.57,1.86c.22.55.47,1.11.75,1.69a1.71,1.71,0,0,0,2.35.91,7.56,7.56,0,0,0,1.19-.7,8.66,8.66,0,0,0,1.08-.91l.74-.74a16.86,16.86,0,0,0,1.65-1.74A24.4,24.4,0,0,1,243.45,68c.77-.94,1.55-1.86,2.35-2.76s1.58-1.86,2.35-2.85a6.25,6.25,0,0,0,.66-1.07,1,1,0,0,1,1.07-.58,1,1,0,0,1,.29,1.28,6.34,6.34,0,0,1-.7,1.11c-.27.39-.55.76-.82,1.12l-.75.94c-1.15,1.38-2.36,2.86-3.63,4.46a33.13,33.13,0,0,1-4,4.29,18.07,18.07,0,0,1-2.35,1.69,3.45,3.45,0,0,1-3.18,0,5.52,5.52,0,0,1-1.93-2.27,16,16,0,0,1-1.12-3.09c-.27-1.1-.53-2.23-.78-3.38a12,12,0,0,0-1.12-3.14,4.7,4.7,0,0,0-1.52,1.32L227,66.79c-.44.61-.84,1.2-1.2,1.78l-1.11,1.77c-.77,1.21-1.51,2.42-2.23,3.63a7.78,7.78,0,0,1-3,2.89,2.23,2.23,0,0,1-1.52-.17,3.26,3.26,0,0,1-1-.82,11.1,11.1,0,0,1-.66-3.47,35.11,35.11,0,0,1,.09-4.08c.11-1.4.27-2.78.49-4.12s.44-2.6.66-3.76c.06-.38.11-.81.17-1.28a7,7,0,0,1,.29-1.36,4.41,4.41,0,0,1,.49-1.11,1.13,1.13,0,0,1,.78-.54.93.93,0,0,1,.75.13,2,2,0,0,1,.41.45,4.45,4.45,0,0,1,.08,2.27,9,9,0,0,0-.16,2.43q-.42,2.81-.7,5.78A62.55,62.55,0,0,0,219.28,73.48Z"/><path class="cls-2" d="M255.66,63.49a1.06,1.06,0,0,1-.95-.08,2.15,2.15,0,0,1-.62-.62,3.93,3.93,0,0,1-.41-.82,3.26,3.26,0,0,0-.41-.79,6.43,6.43,0,0,0-2.81,2.69,20.13,20.13,0,0,0-1.73,3.91,19.12,19.12,0,0,0-.58,2.27,17.3,17.3,0,0,0-.29,2.56,8.77,8.77,0,0,0,.25,2.39,2.68,2.68,0,0,0,1.2,1.69,6.82,6.82,0,0,0,3.71-1.4,34.76,34.76,0,0,1,2.89-2.14q2.88-2.15,5.61-4.42T267,64.15c.44-.33.9-.68,1.37-1.07A16.78,16.78,0,0,1,269.85,62a3,3,0,0,1,.7-.5l.87-.49a9.38,9.38,0,0,0,.86-.41.55.55,0,0,1,.79.24c.16.45.09.75-.21.91a3.6,3.6,0,0,0-.78.58c-.77.55-1.5,1.11-2.19,1.69l-2.1,1.77q-3.06,2.57-6.07,5.49a70,70,0,0,1-6.39,5.49,25,25,0,0,1-3.14,2,5.18,5.18,0,0,1-4,.29,4.23,4.23,0,0,1-2.1-2.35,11.15,11.15,0,0,1-.7-3.55,15.82,15.82,0,0,1,.33-4,20.9,20.9,0,0,1,1.07-3.67A15.44,15.44,0,0,1,251.29,59l.66-.29a2.86,2.86,0,0,1,.66-.21s.08,0,.08,0,0,0,.08,0h.74a3,3,0,0,1,.66.08,3.14,3.14,0,0,1,1.82,2.4,5.77,5.77,0,0,0,0,1.44A1.19,1.19,0,0,1,255.66,63.49Z"/><path class="cls-2" d="M276.7,50.46q7.1-.26,14.76-.74a109.56,109.56,0,0,1,15.27.08c.27,0,.57,0,.9,0a.72.72,0,0,1,.66.45c-.05.45-.26.66-.61.66a4.49,4.49,0,0,1-.95-.08,146.62,146.62,0,0,0-15.27.13q-7.59.45-14.93.86-1.15,6.77-2.1,13.78a100.94,100.94,0,0,0-.87,14.68c0,.72,0,1.52.08,2.4a18.21,18.21,0,0,0,.33,2.47c.11.61.29,1.35.54,2.23s.62,1.35,1.11,1.4a1.08,1.08,0,0,0,.87-.25,8.83,8.83,0,0,0,.91-.78,8.09,8.09,0,0,0,.82-1c.25-.33.43-.58.54-.74a79.86,79.86,0,0,0,5.9-8.79q2.59-4.49,5.48-9.36c.5-.88,1-1.79,1.57-2.72s1.16-1.87,1.82-2.81a8.12,8.12,0,0,1,.74-1,.72.72,0,0,1,.82-.29c.44.22.53.57.25,1a10.75,10.75,0,0,1-.66,1c-1.37,2.31-2.67,4.65-3.88,7s-2.5,4.7-3.87,7q-1.15,1.91-2.27,3.84c-.74,1.29-1.53,2.57-2.35,3.83s-1.68,2.51-2.56,3.72a8.86,8.86,0,0,1-3.38,2.8,4.63,4.63,0,0,1-1.74,0,5.11,5.11,0,0,1-2.84-3.09,22.84,22.84,0,0,1-1.12-4.66,36.17,36.17,0,0,1-.41-5.49c0-1.9.06-3.75.17-5.57q.4-5.52,1.11-10.68t1.69-9.86q-3.8.16-7.71.58c-2.61.27-5.27.46-8,.57-.33,0-.7,0-1.12.05a.61.61,0,0,1-.7-.62.58.58,0,0,1,.66-.66,6.59,6.59,0,0,0,1.16-.09q3.87-.24,7.92-.66t8-.57c.33-1.16.7-2.52,1.11-4.09A34.85,34.85,0,0,1,276,42.29a6,6,0,0,1,.62-1.36,1.3,1.3,0,0,1,1.11-.78.84.84,0,0,1,.78.33,1.19,1.19,0,0,1,.17.78,5.78,5.78,0,0,1-.17,1c-.08.33-.15.63-.2.91-.28,1.21-.55,2.46-.83,3.75S277,49.36,276.7,50.46Z"/><path class="cls-2" d="M295.51,60.69a1.24,1.24,0,0,1,.28.91c0,.33,0,.69,0,1.07-.05.94-.07,2,0,3s0,2.18,0,3.22,0,2.06,0,3a3.57,3.57,0,0,1-.86,2.39h-.66a2.6,2.6,0,0,1-.62-1.27,11.68,11.68,0,0,1-.29-1.86c-.06-1.21-.07-2.48,0-3.8a34.86,34.86,0,0,1,.29-3.87c.05-.33.11-.72.16-1.16a4.49,4.49,0,0,1,.29-1.15,1.33,1.33,0,0,1,.58-.7A1,1,0,0,1,295.51,60.69Zm.41-16a1.86,1.86,0,0,1-.66,1.32.88.88,0,0,1-.95-.16,1.37,1.37,0,0,1-.33-.78,1,1,0,0,1,.25-.79,1,1,0,0,1,.95-.25C295.62,44.24,295.86,44.47,295.92,44.68Z"/><path class="cls-2" d="M308.38,58.71a6.45,6.45,0,0,1,4.41,1.73,8,8,0,0,1,2,4.21q2.64-.5,5.49-1.11c1.9-.42,3.75-.84,5.57-1.28a7,7,0,0,0,.82-.29,5.89,5.89,0,0,1,1-.33,3,3,0,0,1,.95-.08.65.65,0,0,1,.58.37.51.51,0,0,1-.17.66,4.13,4.13,0,0,1-.82.45,5.81,5.81,0,0,1-1.07.33,6.82,6.82,0,0,0-.83.21q-2.64.83-5.57,1.44L315,66.22a17.21,17.21,0,0,1-.71,6A20.62,20.62,0,0,1,312,77.27a26.53,26.53,0,0,1-3.18,4,9.13,9.13,0,0,1-4.33,2.48h-1.24a3.26,3.26,0,0,1-1.4-.62,11,11,0,0,1-1.07-1,7.2,7.2,0,0,1-1.28-3.59,20.65,20.65,0,0,1,0-4.37,38.77,38.77,0,0,1,.74-4.46c.33-1.45.63-2.76.91-3.92a3.22,3.22,0,0,1,0-3,6.26,6.26,0,0,1,1.61-2.14,13.73,13.73,0,0,0,.61-1.73,14.85,14.85,0,0,1,.71-1.9,5.62,5.62,0,0,1,1-1.57,2.1,2.1,0,0,1,1.61-.66,1.62,1.62,0,0,1,1.65,1.2A4.52,4.52,0,0,1,308.38,58.71Zm-4,8.58c-.28,1.6-.62,3.31-1,5.16a20.47,20.47,0,0,0-.45,5.65,7.72,7.72,0,0,0,.29,1.4,2,2,0,0,0,.78,1.07,6.32,6.32,0,0,0,3.8-2c.93-1,1.81-2.11,2.64-3.22a32.4,32.4,0,0,0,2-4,10.06,10.06,0,0,0,.66-4.82,39.36,39.36,0,0,1-4.21.62A36.75,36.75,0,0,1,304.42,67.29Zm3.63-6.85a2.55,2.55,0,0,0-.17,1,.55.55,0,0,1-.49.62,1.25,1.25,0,0,1-.38,0l-.28-.13a1.45,1.45,0,0,1-.09-1.15,3.73,3.73,0,0,0-.62,1.07c-.13.39-.26.8-.37,1.24a13.35,13.35,0,0,0-.41,1.32l-.33,1.32c1.54,0,3,0,4.29-.17s2.61-.27,3.88-.49a6.66,6.66,0,0,0-1.53-3.26A4.82,4.82,0,0,0,308.05,60.44Z"/><path class="cls-2" d="M328.75,73.39q1.65-3.14,3.3-6.39a30.72,30.72,0,0,1,3.88-5.9l.82-1a6.28,6.28,0,0,1,1.08-1,3.82,3.82,0,0,1,1.28-.58,2.58,2.58,0,0,1,1.52.17,3.76,3.76,0,0,1,1.82,2.56q.57,2,1,4c.11.6.23,1.23.37,1.89s.29,1.32.45,2a14.84,14.84,0,0,0,.66,1.86,1.79,1.79,0,0,0,1,1.11,1.36,1.36,0,0,0,1.24-.28,8.84,8.84,0,0,1,1-.71c.33-.27.63-.5.91-.7a5.66,5.66,0,0,0,.82-.7,34.36,34.36,0,0,0,3.47-3.46,41.1,41.1,0,0,1,3.46-3.55,13.59,13.59,0,0,1,1.45-1,2.1,2.1,0,0,1,1-.29c.3,0,.48.2.53.58s-.12.61-.53.82a4.18,4.18,0,0,0-.95.66A20.79,20.79,0,0,0,356,65.85c-.77.9-1.6,1.82-2.48,2.76-.44.44-.86.85-1.28,1.24s-.84.8-1.27,1.23c-.72.72-1.49,1.42-2.32,2.11a4.81,4.81,0,0,1-3.21,1l-.37-.17a1.34,1.34,0,0,0-.46-.08,5,5,0,0,1-2-2.56,25.55,25.55,0,0,1-1-3.5c-.28-1.24-.54-2.48-.78-3.71a11.57,11.57,0,0,0-1.2-3.35,4.89,4.89,0,0,0-2.14,1.86,27.75,27.75,0,0,1-1.65,2.35A38.12,38.12,0,0,0,333,70.18c-.83,1.81-1.62,3.68-2.39,5.61a5.13,5.13,0,0,0-.58,1.28,13.23,13.23,0,0,1-.58,1.52,4.3,4.3,0,0,1-.86,1.28,1.54,1.54,0,0,1-1.45.37,1.36,1.36,0,0,1-1.11-.86,5.07,5.07,0,0,1-.45-1.82,20.1,20.1,0,0,1-.05-2.23c0-.79.07-1.52.13-2.18q.33-4,.91-7.72a46,46,0,0,1,1.56-6.89c.22-.6.41-1.15.58-1.65a1.14,1.14,0,0,1,1.07-.82,1,1,0,0,1,1,.45A2.3,2.3,0,0,1,331,57.8a9.18,9.18,0,0,1-.25,1.61c-.13.58-.23,1.06-.28,1.44-.39,2.1-.72,4.18-1,6.27S329,71.3,328.75,73.39Z"/></g></g></svg>