<svg xmlns="http://www.w3.org/2000/svg" viewBox="0 0 641.07 175.44"><defs><style>.cls-1{fill:#53575a;}.cls-2{fill:#ff8300;}</style></defs><g id="Layer_2" data-name="Layer 2"><g id="Layer_1-2" data-name="Layer 1"><path class="cls-1" d="M429.68,97.91a1.36,1.36,0,0,0-1.25.33,1.31,1.31,0,0,0-.32,1,1.71,1.71,0,0,0,.43,1,1.17,1.17,0,0,0,1.25.22,2.48,2.48,0,0,0,.87-1.74c-.07-.29-.4-.58-1-.87"/><path class="cls-2" d="M102,107.86q1.88-1.87,3.66-3.7t3.41-3.54a49,49,0,0,0,7.56-10.56,47,47,0,0,0,4.11-10.61,35.85,35.85,0,0,0,1.09-9.79,25.27,25.27,0,0,0-1.5-8.13A13.67,13.67,0,0,0,116.65,56a7.85,7.85,0,0,0-5.32-2c-.49,0-1,0-1.5.08l-1.51.17a8.52,8.52,0,0,0-5.24,2.88,11.73,11.73,0,0,0-2.23,4.72,19.08,19.08,0,0,0-.45,5.08c.08,1.68.09,3,0,3.9a4,4,0,0,1-4,3.73,3.46,3.46,0,0,1-2.6-1.09,3.39,3.39,0,0,1-1-2.64v-.49a17.54,17.54,0,0,1,5.61-11.79,18.41,18.41,0,0,1,5.89-3.73,18.7,18.7,0,0,1,7-1.3,16.91,16.91,0,0,1,12.43,5,16.43,16.43,0,0,1,4.88,12.36,26.91,26.91,0,0,1-.65,4.18,20.83,20.83,0,0,1-1.54,4.27,28.84,28.84,0,0,1-2.24,4.23c-.89,1.4-1.94,2.9-3.13,4.47a99.56,99.56,0,0,1-8.21,9.5q-4.78,5-10.56,10.73a41,41,0,0,1-3.09,3.09h25.84a6.84,6.84,0,0,0,2.2-.28,5.07,5.07,0,0,0,1.3-.65,2.06,2.06,0,0,0,.65-.74l.24-.52v-.09h.65L128.56,119H91l5.61-5.73Q99.38,110.46,102,107.86Z"/><path class="cls-2" d="M179.51,100.13a31.78,31.78,0,0,1-2,5.57,28.93,28.93,0,0,1-2.84,4.76,23,23,0,0,1-7.4,6.74,18.55,18.55,0,0,1-18,0,22.38,22.38,0,0,1-7.39-6.7,28.29,28.29,0,0,1-2.85-4.76,33.53,33.53,0,0,1-2-5.48,39.62,39.62,0,0,1-1.42-6.5,51.76,51.76,0,0,1-.45-6.91,52.69,52.69,0,0,1,.65-8.5,46.86,46.86,0,0,1,1.87-7.51c.11-.38.23-.75.36-1.1s.29-.69.45-1a21.57,21.57,0,0,1,1.55-3.12c.59-1,1.21-2,1.87-2.89a25.06,25.06,0,0,1,3.45-3.7,19.39,19.39,0,0,1,3.94-2.64,18.23,18.23,0,0,1,9-2.27,18.81,18.81,0,0,1,9,2.27,22.85,22.85,0,0,1,7.4,6.5,28.1,28.1,0,0,1,2.84,4.8,33.14,33.14,0,0,1,2,5.61,38.19,38.19,0,0,1,1.43,6.46,55.62,55.62,0,0,1,.44,7.11,52.27,52.27,0,0,1-.44,6.86A38.13,38.13,0,0,1,179.51,100.13Zm-11.37,10a47.79,47.79,0,0,0,3-10.4,70,70,0,0,0,1.1-12.84,75.55,75.55,0,0,0-1.06-13.21,42.26,42.26,0,0,0-3.08-10.36,18.38,18.38,0,0,0-4.51-6.3,8.32,8.32,0,0,0-5.41-2.15A7.8,7.8,0,0,0,152.86,57a16.33,16.33,0,0,0-4.55,6.18,41.69,41.69,0,0,0-3.09,10.36,76.55,76.55,0,0,0-1.06,13.37q0,3.49.29,6.82a50.56,50.56,0,0,0,.93,6.34,39.52,39.52,0,0,0,2.93,10.16,18.84,18.84,0,0,0,4.51,6.54,7.64,7.64,0,0,0,10.81,0A18.8,18.8,0,0,0,168.14,110.13Z"/><path class="cls-2" d="M188,84.61h24.78v3.74H188Z"/><path class="cls-2" d="M255.66,91.2v19.18q0,4.45,1.63,6.17c1.08,1.14,3,1.71,5.77,1.71h2.52v.65H237.21v-.65a31.49,31.49,0,0,0,4.64-.29,6.66,6.66,0,0,0,3-1.13,4.71,4.71,0,0,0,1.63-2.44,14.51,14.51,0,0,0,.49-4.11V91.2L240.1,78.56,235.43,70q-1.87-3.41-2.89-5.28c-.68-1.24-1.18-2.18-1.5-2.8l-.61-1.18a1.83,1.83,0,0,0-.2-.33,9.92,9.92,0,0,0-2.85-3.25A13,13,0,0,0,224,55.35a16.57,16.57,0,0,0-3.09-.73c-.92-.1-1.57-.16-1.95-.16V54H244.2v.49h-1.38c-.59.06-1.27.15-2,.29a5,5,0,0,0-1.95.73,2.6,2.6,0,0,0-1.1,1.46,3.33,3.33,0,0,0,.61,2.48l17,31.21,12.51-22.84a32.25,32.25,0,0,0,2.48-5.61,10.45,10.45,0,0,0,.57-3.74,3.91,3.91,0,0,0-.77-2.23,4,4,0,0,0-1.5-1.14,6,6,0,0,0-1.71-.45c-.57,0-1-.08-1.34-.08V54h21.78v.57H287a16.84,16.84,0,0,0-2.92.45,19.76,19.76,0,0,0-4.8,1.83,27.71,27.71,0,0,0-5.6,4,24.85,24.85,0,0,0-5.29,7Z"/><path class="cls-2" d="M333.44,117.69a19.68,19.68,0,0,0,4.75-2.11,18,18,0,0,0,3.62-3,24.29,24.29,0,0,0,2.68-3.45,28.12,28.12,0,0,0,3.66-9.43h.57l-2.36,19.34H292.64v-.57a32.39,32.39,0,0,0,4.67-.28,6.33,6.33,0,0,0,3.05-1.18A4.92,4.92,0,0,0,302,114.6a14.4,14.4,0,0,0,.48-4.14V63.56a2.59,2.59,0,0,0,0-.48,4.22,4.22,0,0,1,0-.49q0-4.47-1.58-6.14c-1.06-1.11-2.94-1.74-5.65-1.91h-2.6v-.49h51.52V71.12h-.56V71q-.66-2.69-1.51-5.61a16.67,16.67,0,0,0-2.64-5.32,13.71,13.71,0,0,0-4.88-4,17.77,17.77,0,0,0-8.12-1.59H311.09V86.32h11.62a9.23,9.23,0,0,0,5.49-1.59,10.76,10.76,0,0,0,4.26-6.94,21.56,21.56,0,0,0,.25-2.28v-.24h.57V97.94h-.57V97.7c0-.38-.09-1.17-.25-2.36a10.55,10.55,0,0,0-1.3-3.7A10.16,10.16,0,0,0,328,88.27a9.76,9.76,0,0,0-5.73-1.46H311.09v22.26a9.41,9.41,0,0,1,.08,1.47,15.54,15.54,0,0,0,.37,3.74A4.78,4.78,0,0,0,315,118a12.65,12.65,0,0,0,3.41.53h9A20.83,20.83,0,0,0,333.44,117.69Z"/><path class="cls-2" d="M354,118.34l1.42-.16a10,10,0,0,0,3.17-1.1,16.32,16.32,0,0,0,3.86-2.89,16,16,0,0,0,3.5-5.6L387.81,54h.65l21.78,54.45a35.24,35.24,0,0,0,2.68,5.49,10.82,10.82,0,0,0,2.44,2.84,5.39,5.39,0,0,0,2.48,1.14l2.88.45v.57H394.06v-.57c2-.11,3.62-.23,5-.37a5.62,5.62,0,0,0,3.13-1.09,3.26,3.26,0,0,0,.9-2.89,22.22,22.22,0,0,0-1.63-5.73l-6-15.11H372.77l-6.17,15.36a7.81,7.81,0,0,0-.7,4.1,5.43,5.43,0,0,0,1.26,2.76,6.74,6.74,0,0,0,2.4,1.71,15.53,15.53,0,0,0,5.08,1.22l1.06,0v.57H354Zm30.15-53.48L373,92.58H395.2Z"/><path class="cls-2" d="M424.38,119.07v-.57h.08a32.39,32.39,0,0,0,4.67-.28,6.05,6.05,0,0,0,3-1.18,5,5,0,0,0,1.58-2.44,14,14,0,0,0,.49-4.14V62.59q0-4.47-1.58-6.14c-1.06-1.11-2.94-1.74-5.65-1.91h-2.6v-.49h31a33.54,33.54,0,0,1,9.43,1.22,21,21,0,0,1,6.5,3.5,13.7,13.7,0,0,1,3.7,5.08,16.58,16.58,0,0,1,1.26,6.54q0,7.32-5,11.62a19.62,19.62,0,0,1-6.5,3.5,17.1,17.1,0,0,1-3.78.89c-1.33.16-2.72.3-4.18.41a12.4,12.4,0,0,1,3.61,1.7A18.55,18.55,0,0,1,464.77,93l15.28,21.21a8.17,8.17,0,0,0,2.72,2.4,16.63,16.63,0,0,0,3.09,1.3,12.18,12.18,0,0,0,2.64.53l1.38.08H490v.57H473.71L453.88,91.6A19.3,19.3,0,0,0,451.64,89a8.86,8.86,0,0,0-1.95-1.42,6.34,6.34,0,0,0-1.82-.65,10.33,10.33,0,0,0-1.87-.16h-3v23.73a16.14,16.14,0,0,0,.36,3.74,5.26,5.26,0,0,0,1.22,2.35,5.17,5.17,0,0,0,2.24,1.34,12.65,12.65,0,0,0,3.41.53h2.52v.57H424.38ZM443,86.32h11.7a11.71,11.71,0,0,0,6.83-2,13.59,13.59,0,0,0,1.83-1.67,13.87,13.87,0,0,0,1.74-2.4,19.2,19.2,0,0,0,1.55-4.43,24.05,24.05,0,0,0,.57-5.4q0-7-3-11.22a11,11,0,0,0-9.51-4.63h-5.28a11.14,11.14,0,0,0-3,.65,5.23,5.23,0,0,0-2,1.38,5.45,5.45,0,0,0-1.1,2.36,17.32,17.32,0,0,0-.32,3.58V86.32Z"/><path class="cls-1" d="M4.06,48.25A1.91,1.91,0,0,0,5,47.44l.71-1.14c.79-1,1.57-2.1,2.33-3.26s1.54-2.25,2.34-3.26c.51-.8,1-1.56,1.52-2.29a23.41,23.41,0,0,1,1.63-2.06,15.76,15.76,0,0,0,1.85-2,2.91,2.91,0,0,1,2.61-1,2.75,2.75,0,0,1,1.9.93A6.43,6.43,0,0,1,21,35.37a16.28,16.28,0,0,1,.71,2.56c.18.94.34,1.81.49,2.61s.32,1.5.54,2.33.47,1.65.76,2.45.61,1.46,1,2.22A2.21,2.21,0,0,0,26,48.9a2.12,2.12,0,0,0,1.57-.16,9.69,9.69,0,0,0,1.58-.92,10.15,10.15,0,0,0,1.41-1.2l1-1a21.23,21.23,0,0,0,2.18-2.28A31.28,31.28,0,0,1,35.9,41q1.51-1.84,3.1-3.64c1-1.2,2.08-2.45,3.09-3.75A7.89,7.89,0,0,0,43,32.17a1.29,1.29,0,0,1,1.41-.76,1.27,1.27,0,0,1,.39,1.68,9.5,9.5,0,0,1-.93,1.47q-.54.77-1.08,1.47l-1,1.25C40.25,39.09,38.65,41,37,43.14a43.64,43.64,0,0,1-5.33,5.65A24.3,24.3,0,0,1,28.56,51a4.54,4.54,0,0,1-4.18.06,7.32,7.32,0,0,1-2.55-3A20.57,20.57,0,0,1,20.36,44c-.37-1.45-.71-2.93-1-4.45a16.13,16.13,0,0,0-1.47-4.13,6,6,0,0,0-2,1.74c-.55.72-1.11,1.48-1.69,2.28s-1.1,1.57-1.57,2.34-1,1.54-1.47,2.33c-1,1.6-2,3.19-2.93,4.78a10.4,10.4,0,0,1-3.92,3.81,3.08,3.08,0,0,1-2-.22A4.41,4.41,0,0,1,.91,51.4,14,14,0,0,1,0,46.84a44.32,44.32,0,0,1,.1-5.38Q.37,38.69.8,36t.87-5c.07-.5.14-1.07.21-1.68a10.65,10.65,0,0,1,.38-1.8,5.83,5.83,0,0,1,.66-1.46,1.45,1.45,0,0,1,1-.71,1.21,1.21,0,0,1,1,.16,3.06,3.06,0,0,1,.54.6,5.9,5.9,0,0,1,.11,3,11.82,11.82,0,0,0-.22,3.2c-.36,2.47-.67,5-.92,7.61S4.06,45.35,4.06,48.25Z"/><path class="cls-1" d="M43.94,48.14q2.18-4.12,4.35-8.42A40.44,40.44,0,0,1,53.39,32c.29-.36.66-.8,1.09-1.3a8.63,8.63,0,0,1,1.41-1.31,4.88,4.88,0,0,1,1.69-.76,3.35,3.35,0,0,1,2,.22A5,5,0,0,1,62,32.17q.77,2.61,1.3,5.21c.15.8.31,1.63.49,2.5s.38,1.74.6,2.61a18.5,18.5,0,0,0,.87,2.45,2.31,2.31,0,0,0,1.3,1.46A1.79,1.79,0,0,0,68.17,46a16,16,0,0,1,1.31-.92c.43-.36.83-.67,1.19-.92a7.6,7.6,0,0,0,1.09-.93,45.76,45.76,0,0,0,4.57-4.56A53.91,53.91,0,0,1,80.89,34a17.88,17.88,0,0,1,1.9-1.25,2.74,2.74,0,0,1,1.31-.39c.39,0,.63.26.7.77s-.16.79-.7,1.08a5,5,0,0,0-1.25.87,27.24,27.24,0,0,0-3,3.1c-1,1.19-2.1,2.41-3.26,3.64-.58.58-1.14,1.12-1.68,1.63s-1.11,1.05-1.69,1.63c-.94.94-2,1.87-3,2.77a6.39,6.39,0,0,1-4.24,1.36c-.14-.07-.31-.15-.49-.22a1.63,1.63,0,0,0-.59-.11,6.63,6.63,0,0,1-2.67-3.36,36.17,36.17,0,0,1-1.36-4.62c-.36-1.63-.7-3.26-1-4.89a15.17,15.17,0,0,0-1.57-4.41,6.5,6.5,0,0,0-2.83,2.45,36.21,36.21,0,0,1-2.17,3.1,50,50,0,0,0-3.7,6.73c-1.08,2.4-2.14,4.86-3.15,7.39A6.87,6.87,0,0,0,45.57,53a19.35,19.35,0,0,1-.76,2,5.54,5.54,0,0,1-1.14,1.68,2,2,0,0,1-1.9.49A1.79,1.79,0,0,1,40.3,56a6.66,6.66,0,0,1-.6-2.39,25.42,25.42,0,0,1-.05-2.93c0-1.05.09-2,.16-2.88q.44-5.22,1.2-10.16a60.18,60.18,0,0,1,2.06-9.08c.29-.79.54-1.52.76-2.17a1.53,1.53,0,0,1,1.41-1.09,1.23,1.23,0,0,1,1.36.6,3.11,3.11,0,0,1,.33,1.68,12.48,12.48,0,0,1-.33,2.12c-.18.76-.31,1.4-.38,1.9q-.77,4.14-1.3,8.26T43.94,48.14Z"/><path class="cls-1" d="M100.89,48.69a7.56,7.56,0,0,0,1.79-2.07c.47-.79,1-1.59,1.47-2.39s1-1.59,1.46-2.39.93-1.59,1.36-2.39,1-1.38,1.52-2.17,1.05-1.6,1.63-2.4c.36-.5.73-1,1.09-1.57a6.54,6.54,0,0,1,1.25-1.41,3.25,3.25,0,0,1,1.57-.76,3.51,3.51,0,0,1,2,.27,4.71,4.71,0,0,1,1.25,2.66,28,28,0,0,1,.33,3.53c0,1.23.09,2.47.16,3.7a8.11,8.11,0,0,0,.76,3.15,6.32,6.32,0,0,0,2.23-1.9l1.79-2.45c.58-.87,1.14-1.75,1.69-2.66a18.12,18.12,0,0,0,1.35-2.77,7.16,7.16,0,0,0,.93-1.9c.25-.77.85-1.07,1.79-.93a1.84,1.84,0,0,1-.11,2,4.82,4.82,0,0,0-.76,2c-.36.65-.69,1.29-1,1.9s-.58,1.25-.87,1.91a20.91,20.91,0,0,0-2.17,3.26,11.22,11.22,0,0,1-2.5,3.15,4,4,0,0,1-1.36.87,3.66,3.66,0,0,1-2,.11,3.94,3.94,0,0,1-2-2,11,11,0,0,1-.81-3.16,30.49,30.49,0,0,1-.22-3.8,20.13,20.13,0,0,0-.33-3.75,2,2,0,0,0-.92.82,13.79,13.79,0,0,1-.82,1.14c-.79,1.08-1.57,2.24-2.33,3.48s-1.47,2.46-2.12,3.69a33,33,0,0,0-2.88,4.84,9,9,0,0,1-3.75,4,4.26,4.26,0,0,0-.76.06,2.51,2.51,0,0,1-.87-.06,6.89,6.89,0,0,1-1.09-.54,9.64,9.64,0,0,1-1.46-4.95c-.11-2-.17-4-.17-6.14s0-4.2-.11-6.3-.18-4.09-.32-6a62.17,62.17,0,0,0-4,9.35q-1.74,5.11-3.37,10.65-1.09,3.91-2,8c-.62,2.76-1.29,5.58-2,8.48-.15.65-.29,1.3-.44,2a8.1,8.1,0,0,1-.6,1.8,3.87,3.87,0,0,1-1,1.36,3.11,3.11,0,0,1-1.74.65,2.21,2.21,0,0,1-1.95-1.58,16.85,16.85,0,0,1-.65-2.88,52,52,0,0,1,0-9.51q.44-5.06,1-9.61c.37-3.05.8-6.11,1.31-9.19s1.08-6,1.74-8.85c.21-.87.45-1.78.7-2.72a2.12,2.12,0,0,1,1.9-1.63,1.59,1.59,0,0,1,1.25.22,2,2,0,0,1,.6.87,5.24,5.24,0,0,1-.11,2.39A5.52,5.52,0,0,0,87,30.54a7.74,7.74,0,0,0,.44,1.84,2.89,2.89,0,0,1,.11,1.74.75.75,0,0,1-.71.44,1.09,1.09,0,0,1-.81-.33q-.87,5.55-1.63,11T83.28,56.73q1.84-6.3,3.91-13.15t4.57-13l.87-2.12A13.3,13.3,0,0,1,94,25.86,6.47,6.47,0,0,1,95.83,24a2.23,2.23,0,0,1,2.34,0,2.9,2.9,0,0,1,1.47,1.74,13.25,13.25,0,0,1,.7,2.93,25.1,25.1,0,0,1,.22,3.42c0,1.2,0,2.27.11,3.21a56.71,56.71,0,0,1,0,6.9A30.89,30.89,0,0,0,100.89,48.69Z"/><path class="cls-1" d="M140.33,29.89q-2.06,2.71-4,5.86c-1.3,2.11-2.61,4.13-3.91,6.09-.94,1.38-1.92,2.86-2.93,4.46A22.56,22.56,0,0,1,126,50.53a7.62,7.62,0,0,1-1.52,1.36,2.37,2.37,0,0,1-2.07.27,3,3,0,0,1-1.52-2.39,33.77,33.77,0,0,1,2-9.45,43.56,43.56,0,0,1,3.86-8c.5-.8,1.07-1.6,1.68-2.39a6,6,0,0,1,2-1.74,3.1,3.1,0,0,1,3.64.16c1,.83,1.43,2.16,1.15,4a6.17,6.17,0,0,0,1.25-1.74c.47-.87,1-1.76,1.52-2.66a17.78,17.78,0,0,1,1.74-2.45,3.07,3.07,0,0,1,1.9-1.2,2.49,2.49,0,0,1,.76.11l.65.22a5.06,5.06,0,0,1,1.09,2.06q-.22,6.52-.87,12.34t-1,12.33v2c0,.8,0,1.59-.11,2.39a10.89,10.89,0,0,1-.38,2.12c-.18.62-.49.92-.92.92a1.21,1.21,0,0,1-1.14-.7,5.32,5.32,0,0,1-.55-1.74,13.48,13.48,0,0,1-.16-2.12,11.43,11.43,0,0,0-.11-1.74,60.54,60.54,0,0,1,.22-11.52Q139.79,35.22,140.33,29.89Zm-7.82.21a.1.1,0,0,0-.11-.11,3.32,3.32,0,0,0-.6.28,2.74,2.74,0,0,1-.6.27,22.56,22.56,0,0,0-2.71,3.86,46.15,46.15,0,0,0-2.18,4.4q-.87,2.28-1.68,4.83a23.85,23.85,0,0,0-1,5.49,38,38,0,0,0,5.49-7q2.44-4,4.94-7.77a4.41,4.41,0,0,1-.54-2.34A1.86,1.86,0,0,0,132.51,30.1Z"/><path class="cls-1" d="M160.22,17.93q9.34-.33,19.45-1a145.07,145.07,0,0,1,20.11.11c.36,0,.76,0,1.19.06a.92.92,0,0,1,.87.59q-.1.87-.81.87a5.87,5.87,0,0,1-1.25-.11,198.22,198.22,0,0,0-20.11.17q-10,.6-19.67,1.14-1.51,8.91-2.77,18.15a134.28,134.28,0,0,0-1.14,19.34c0,.94,0,2,.11,3.15a22.76,22.76,0,0,0,.43,3.26c.15.8.38,1.78.71,2.94s.82,1.77,1.47,1.84a1.41,1.41,0,0,0,1.14-.32,10.06,10.06,0,0,0,1.19-1,12.66,12.66,0,0,0,1.09-1.25c.33-.44.56-.76.71-1a106.92,106.92,0,0,0,7.77-11.58q3.42-5.91,7.22-12.33c.66-1.16,1.34-2.35,2.07-3.59s1.52-2.46,2.39-3.69a9.61,9.61,0,0,1,1-1.25,1,1,0,0,1,1.09-.38c.57.29.68.74.32,1.36a15.54,15.54,0,0,1-.87,1.36Q181.2,39.34,178.8,44t-5.1,9.24c-1,1.67-2,3.35-3,5s-2,3.39-3.1,5.06-2.21,3.29-3.37,4.89a11.68,11.68,0,0,1-4.45,3.69,5.88,5.88,0,0,1-2.29,0,6.75,6.75,0,0,1-3.75-4.07,30.44,30.44,0,0,1-1.46-6.14,47.09,47.09,0,0,1-.55-7.23c0-2.5.08-4.94.22-7.33q.54-7.29,1.47-14.08t2.23-13c-3.34.15-6.72.4-10.16.77s-6.94.61-10.49.76c-.44,0-.93,0-1.47.05s-.85-.23-.92-.81a.77.77,0,0,1,.87-.87,9.66,9.66,0,0,0,1.52-.11q5.1-.33,10.43-.87c3.55-.36,7.06-.62,10.54-.76.44-1.52.93-3.32,1.47-5.38a43.91,43.91,0,0,1,1.9-5.71,8.65,8.65,0,0,1,.82-1.79,1.69,1.69,0,0,1,1.46-1,1.14,1.14,0,0,1,1,.43,1.61,1.61,0,0,1,.21,1,8.37,8.37,0,0,1-.21,1.25c-.11.44-.2.84-.28,1.2q-.54,2.38-1.08,4.94C160.94,14.91,160.58,16.48,160.22,17.93Z"/><path class="cls-1" d="M192.82,35.1a1.43,1.43,0,0,1-1.25-.11,3,3,0,0,1-.81-.81,5.3,5.3,0,0,1-.55-1.09,3.71,3.71,0,0,0-.54-1A8.4,8.4,0,0,0,186,35.59a25.91,25.91,0,0,0-2.29,5.16,26.44,26.44,0,0,0-.76,3,22.88,22.88,0,0,0-.38,3.37,11.46,11.46,0,0,0,.33,3.15,3.61,3.61,0,0,0,1.57,2.23,9,9,0,0,0,4.89-1.85c1.24-1,2.5-2,3.81-2.82,2.53-1.89,5-3.82,7.39-5.82s4.82-4,7.28-6c.58-.43,1.18-.9,1.79-1.41a22.74,22.74,0,0,1,1.9-1.41,4.14,4.14,0,0,1,.93-.66c.4-.21.78-.43,1.14-.65a9.61,9.61,0,0,0,1.14-.54.71.71,0,0,1,1,.32c.22.59.13,1-.27,1.2a4.51,4.51,0,0,0-1,.76c-1,.73-2,1.47-2.88,2.23l-2.77,2.33q-4,3.38-8,7.23a91.07,91.07,0,0,1-8.42,7.23,32.26,32.26,0,0,1-4.13,2.66,6.85,6.85,0,0,1-5.33.38,5.57,5.57,0,0,1-2.77-3.1,14.69,14.69,0,0,1-.92-4.67,21.62,21.62,0,0,1,.43-5.21,28.82,28.82,0,0,1,1.42-4.84,20.46,20.46,0,0,1,6-8.59c.36-.14.65-.27.87-.38a3.45,3.45,0,0,1,.87-.27c.07,0,.11,0,.11,0s0-.06.11-.06h1a3.7,3.7,0,0,1,.87.11,4.13,4.13,0,0,1,2.39,3.15,7.54,7.54,0,0,0,0,1.9A1.57,1.57,0,0,1,192.82,35.1Z"/><path class="cls-1" d="M216.19,53.79q2-6,4.07-11.62A99.6,99.6,0,0,1,225.1,31.3a28,28,0,0,0,2-3.37,3.85,3.85,0,0,1,2.83-2.28,2.31,2.31,0,0,1,2.45.7,6.76,6.76,0,0,1,1.19,2.72,19.27,19.27,0,0,1,.44,3.59c0,1.26.09,2.37.16,3.31q.1,3.15.32,6.36A9.18,9.18,0,0,0,236,47.27a10.69,10.69,0,0,0,3.91-3.69A45.19,45.19,0,0,1,243,39.12c.8-1,1.59-2.08,2.39-3.2s1.63-2.19,2.5-3.21L249,31.9a.89.89,0,0,1,1.3.16,1,1,0,0,1-.27,1.36,2.36,2.36,0,0,0-.92,1,6.55,6.55,0,0,0-.93,1.14,11.7,11.7,0,0,1-.81,1.14q-1.86,2.4-3.64,5.22a54,54,0,0,1-3.86,5.32,18.83,18.83,0,0,1-1.85,1.8,3.15,3.15,0,0,1-2.61.7,2.75,2.75,0,0,1-1.3-.65,4.22,4.22,0,0,1-1-1.09,10.44,10.44,0,0,1-1.3-4.07c-.22-1.63-.37-3.35-.44-5.16s-.14-3.61-.22-5.38a17.87,17.87,0,0,0-.76-4.73,11.42,11.42,0,0,0-2.77,3.69c-.69,1.45-1.36,3-2,4.57q-2.38,5.76-4.29,11.9t-3.53,12.88c-.22.8-.47,1.61-.76,2.44a3,3,0,0,1-1.63,1.8,2.25,2.25,0,0,1-1.36-.17,8.65,8.65,0,0,1-.93-.59,7.82,7.82,0,0,1-.87-3.86c0-1.56,0-3-.1-4.4a104.63,104.63,0,0,1,.32-12.56q.56-6.47,1.42-13a103.14,103.14,0,0,1,2.33-11.58q1.47-5.59,3.1-11.14c.14-.5.31-1.1.49-1.79s.4-1.37.65-2.06a6.47,6.47,0,0,1,.92-1.74,2,2,0,0,1,1.31-.82,1.33,1.33,0,0,1,1.19.33,3.57,3.57,0,0,1,.66.87,2.43,2.43,0,0,1-.06,1.79,17.39,17.39,0,0,0-.6,2,24.37,24.37,0,0,0-.81,2.72,13,13,0,0,0-.27,2.82.68.68,0,0,1-.38.44.63.63,0,0,0-.38.43,145.31,145.31,0,0,0-4.13,18.75A158.1,158.1,0,0,0,216.19,53.79Z"/><path class="cls-1" d="M248.25,37.71a21.68,21.68,0,0,0-1.42,4,18.69,18.69,0,0,0-.65,4.78,8.15,8.15,0,0,0,1,4.07,3.85,3.85,0,0,0,3.48,1.85A10.78,10.78,0,0,0,256,51.19c1.7-.87,3.16-1.71,4.4-2.5,1.44-1,2.8-2,4.07-3s2.41-1.94,3.42-2.88a58.36,58.36,0,0,0,5.38-4.68c1.71-1.66,3.39-3.36,5.06-5.1a2.69,2.69,0,0,0,.7-.87,11,11,0,0,1,.82-1.2,5.71,5.71,0,0,1,.92-.92.87.87,0,0,1,1-.06c.5.22.61.66.32,1.31a7.64,7.64,0,0,1-.76,1.41,4,4,0,0,1-.65,1.2c-.29.36-.58.76-.87,1.19a78.81,78.81,0,0,1-5.71,6c-2,1.88-4,3.77-6.14,5.65a44.62,44.62,0,0,1-9.13,6.52,23.09,23.09,0,0,1-2.71,1.25,15.65,15.65,0,0,1-3.15.87,14.15,14.15,0,0,1-3.32.16,6.54,6.54,0,0,1-3.1-1,5.07,5.07,0,0,1-1.14-1c-.32-.4-.67-.81-1-1.25a10.34,10.34,0,0,1-1.36-4.62,20.49,20.49,0,0,1,.33-5.16,31.17,31.17,0,0,1,1.36-5,32,32,0,0,1,1.74-4,45.27,45.27,0,0,1,4.34-6.41,12.77,12.77,0,0,1,6.63-4.13,5.27,5.27,0,0,1,3.64,1,3.7,3.7,0,0,1,1.14,3.48,7.06,7.06,0,0,1-1.3,3.26,22.31,22.31,0,0,1-2.28,2.71,24.75,24.75,0,0,1-4.29,3.43A9,9,0,0,1,248.25,37.71Zm10.1-11.63a11.31,11.31,0,0,0-5.76,4,39.46,39.46,0,0,0-3.69,6,6.76,6.76,0,0,0,4-1.09,29.2,29.2,0,0,0,2.82-2.28c.8-.87,1.63-1.74,2.5-2.61a4.68,4.68,0,0,0,1.2-3.69A1.19,1.19,0,0,0,258.35,26.08Z"/><path class="cls-1" d="M295.84,0a1.42,1.42,0,0,1,1.09,1.09,5.32,5.32,0,0,1,.05,2,18.57,18.57,0,0,1-.48,2.33,16,16,0,0,0-.44,2q-.87,4.79-1.68,10.05T293.13,28.2q-.44,5.49-.38,11.09a73.5,73.5,0,0,0,.92,11,21.71,21.71,0,0,0,.65,3.15,8.32,8.32,0,0,0,1.31,2.71,7.05,7.05,0,0,0,2.93-2.49c.72-1.09,1.48-2.14,2.28-3.16a79.16,79.16,0,0,0,5-8.69,89.56,89.56,0,0,1,4.83-8.69,14,14,0,0,0,1-1.74,1.45,1.45,0,0,1,1.57-.87,1.3,1.3,0,0,1,.22,1.74,19.43,19.43,0,0,1-1,1.74q-1.2,2.59-2.61,5.27c-.94,1.77-1.85,3.49-2.71,5.16-1.24,2.32-2.45,4.65-3.65,7a27.44,27.44,0,0,1-4.29,6.25,13.9,13.9,0,0,0-1.63,1.19,3,3,0,0,1-2.06.65,3.39,3.39,0,0,1-2.07-.92,6.63,6.63,0,0,1-1.41-1.9,12,12,0,0,1-.87-2.39c-.22-.87-.4-1.7-.54-2.5a52.61,52.61,0,0,1-.87-7.23c-.15-2.57-.2-5.14-.17-7.71s.17-5.11.38-7.61.48-4.84.77-7c-.66,1.52-1.29,3.08-1.91,4.67s-1.25,3.19-1.9,4.78a3.85,3.85,0,0,1,.38.76l.38,1a13.32,13.32,0,0,1,.33,1.74,2.6,2.6,0,0,1-.22,1.52,1,1,0,0,1-1.25-.38,4.12,4.12,0,0,0-.92-1c-1,2.61-2,5.34-3,8.2a55.33,55.33,0,0,1-3.42,8,20.4,20.4,0,0,1-1.53,2.39,2.88,2.88,0,0,1-2.5,1.2,1.69,1.69,0,0,1-1-.44,8.79,8.79,0,0,0-.76-.65,8.24,8.24,0,0,1-.76-4.62,37.33,37.33,0,0,1,.76-5.27A59.55,59.55,0,0,1,275.19,38,20.12,20.12,0,0,1,278,32.71,10.31,10.31,0,0,1,280.63,30a4.28,4.28,0,0,1,4-.43q2.5-5.65,4.78-12.55t4.35-13.53c.29-.8.54-1.54.76-2.23A1.71,1.71,0,0,1,295.84,0ZM283,32.93a4,4,0,0,0-1.79,1.3,12.17,12.17,0,0,0-1.36,2,28.46,28.46,0,0,0-2.61,6.63,43.27,43.27,0,0,0-1.3,7.5,44,44,0,0,0,3.58-7.39c1-2.68,2-5.29,2.94-7.83A10.3,10.3,0,0,1,283,34a1.76,1.76,0,0,0,.16-1.09Z"/><path class="cls-1" d="M600.53,116.6c.36-1.71.73-3.35,1.09-4.95.07-.36.16-.76.27-1.19a8.91,8.91,0,0,0,.22-1.25,1.69,1.69,0,0,0-.22-1,1.12,1.12,0,0,0-1-.43,1.72,1.72,0,0,0-1.47,1,8.05,8.05,0,0,0-.81,1.79,43.89,43.89,0,0,0-1.91,5.71c-.54,2.06-1,3.86-1.46,5.38-3.48.14-7,.4-10.54.76s-7,.65-10.44.87a9.57,9.57,0,0,1-1.52.11.77.77,0,0,0-.87.87.79.79,0,0,0,.93.81c.54,0,1,0,1.46,0q5.32-.22,10.49-.76c3.44-.36,6.83-.62,10.16-.76q-1.3,6.19-2.23,13t-1.46,14.08q-.23,3.58-.22,7.33a47.11,47.11,0,0,0,.54,7.23,29.78,29.78,0,0,0,1.47,6.14,6.72,6.72,0,0,0,3.75,4.07,5.83,5.83,0,0,0,2.28,0,11.71,11.71,0,0,0,4.46-3.69c1.15-1.6,2.28-3.22,3.36-4.89s2.12-3.35,3.1-5.05,2-3.39,3-5.06q2.72-4.56,5.11-9.24t5.11-9.23c.21-.29.5-.74.87-1.36s.25-1.07-.33-1.36a1,1,0,0,0-1.09.38,11.44,11.44,0,0,0-1,1.25q-1.29,1.84-2.39,3.7c-.72,1.23-1.41,2.42-2.06,3.58q-3.81,6.42-7.23,12.34a105.37,105.37,0,0,1-7.77,11.57c-.14.22-.38.54-.7,1a12.66,12.66,0,0,1-1.09,1.25,10,10,0,0,1-1.2,1,1.46,1.46,0,0,1-1.14.33c-.65-.08-1.14-.69-1.46-1.85s-.57-2.14-.71-2.93a23.06,23.06,0,0,1-.44-3.27c-.07-1.15-.1-2.2-.1-3.15a131.55,131.55,0,0,1,1.14-19.34q1.24-9.24,2.77-18.15,9.67-.54,19.67-1.14a195.14,195.14,0,0,1,20.1-.16,6.66,6.66,0,0,0,1.25.1c.47,0,.74-.28.82-.86a.94.94,0,0,0-.87-.6q-.66-.06-1.2-.06a144.92,144.92,0,0,0-20.1-.11q-10.11.66-19.45,1c.36-1.45.72-3,1.08-4.72"/><path class="cls-1" d="M555.43,143.28q.54-4.14,1.31-8.26c.07-.51.2-1.15.38-1.91a11.52,11.52,0,0,0,.32-2.11,3.13,3.13,0,0,0-.32-1.69,1.25,1.25,0,0,0-1.36-.6,1.52,1.52,0,0,0-1.41,1.09c-.22.65-.48,1.38-.76,2.17a61.39,61.39,0,0,0-2.07,9.08c-.51,3.3-.9,6.68-1.19,10.16-.08.87-.13,1.83-.17,2.88a27.76,27.76,0,0,0,.06,2.93,6.82,6.82,0,0,0,.59,2.39,1.81,1.81,0,0,0,1.47,1.14,2,2,0,0,0,1.9-.48,5.59,5.59,0,0,0,1.14-1.69,17.32,17.32,0,0,0,.76-2,6.61,6.61,0,0,1,.77-1.68q1.51-3.81,3.15-7.39a50.07,50.07,0,0,1,3.69-6.74,36.35,36.35,0,0,0,2.18-3.1,6.44,6.44,0,0,1,2.82-2.44,15.3,15.3,0,0,1,1.58,4.4c.32,1.63.67,3.26,1,4.89a33.2,33.2,0,0,0,1.36,4.62,6.68,6.68,0,0,0,2.66,3.37,1.64,1.64,0,0,1,.6.1l.49.22a6.39,6.39,0,0,0,4.24-1.36c1.08-.9,2.1-1.83,3-2.77.58-.58,1.14-1.12,1.68-1.63s1.11-1.05,1.69-1.63c1.16-1.23,2.24-2.44,3.26-3.64a28,28,0,0,1,3-3.1,5.39,5.39,0,0,1,1.25-.87c.54-.28.78-.65.71-1.08s-.31-.76-.71-.76a2.69,2.69,0,0,0-1.3.38,16.86,16.86,0,0,0-1.91,1.25,57,57,0,0,0-4.56,4.67,45.64,45.64,0,0,1-4.56,4.56,8.86,8.86,0,0,1-1.09.93c-.36.25-.76.56-1.2.92a14.25,14.25,0,0,0-1.3.93,1.85,1.85,0,0,1-1.63.38,2.34,2.34,0,0,1-1.3-1.47,16,16,0,0,1-.87-2.45c-.22-.87-.42-1.74-.6-2.6s-.35-1.71-.49-2.5q-.54-2.61-1.31-5.22a4.93,4.93,0,0,0-2.39-3.37,3.34,3.34,0,0,0-2-.22,4.92,4.92,0,0,0-1.68.76A7.89,7.89,0,0,0,565,134c-.44.51-.8.94-1.09,1.3a40,40,0,0,0-5.11,7.77q-2.17,4.3-4.35,8.42.43-4.12,1-8.25"/><path class="cls-1" d="M556.41,133.39a.84.84,0,0,0-1,.05,5,5,0,0,0-.92.92,9.72,9.72,0,0,0-.82,1.2,2.7,2.7,0,0,1-.71.87c-1.66,1.74-3.35,3.44-5,5.11a59.8,59.8,0,0,1-5.38,4.67q-1.51,1.41-3.42,2.88c-1.27,1-2.63,2-4.08,3a49.65,49.65,0,0,1-4.4,2.5,10.63,10.63,0,0,1-5.38,1.19,3.83,3.83,0,0,1-3.47-1.84,8.11,8.11,0,0,1-1-4.08,18.26,18.26,0,0,1,.65-4.78,21,21,0,0,1,1.41-4,8.89,8.89,0,0,0,6.14-.92,24,24,0,0,0,4.29-3.43,21.49,21.49,0,0,0,2.29-2.71,7.17,7.17,0,0,0,1.3-3.26,3.73,3.73,0,0,0-1.14-3.48,5.29,5.29,0,0,0-3.64-1,12.75,12.75,0,0,0-6.63,4.13,46.79,46.79,0,0,0-4.35,6.41,33.59,33.59,0,0,0-1.74,4,32.23,32.23,0,0,0-1.35,5,20.54,20.54,0,0,0-.33,5.17,10.34,10.34,0,0,0,1.36,4.61c.36.44.7.86,1,1.25a5.37,5.37,0,0,0,1.14,1,6.57,6.57,0,0,0,3.1,1,14,14,0,0,0,3.31-.16,15.57,15.57,0,0,0,3.16-.87,23.87,23.87,0,0,0,2.71-1.25,44.51,44.51,0,0,0,9.13-6.52q3.15-2.82,6.14-5.65a80.92,80.92,0,0,0,5.71-6,14.67,14.67,0,0,1,.87-1.19,4.1,4.1,0,0,0,.65-1.2,7.64,7.64,0,0,0,.76-1.41C557,134,556.92,133.6,556.41,133.39Zm-29.23.05a11.22,11.22,0,0,1,5.76-4,1.19,1.19,0,0,1,1.09.33,4.67,4.67,0,0,1-1.2,3.69c-.87.87-1.7,1.74-2.5,2.61a28.17,28.17,0,0,1-2.83,2.28,6.72,6.72,0,0,1-4,1.09A40.32,40.32,0,0,1,527.18,133.44Z"/><path class="cls-1" d="M495.77,145.61a52.94,52.94,0,0,0,0-6.9c-.07-.94-.11-2-.11-3.2a26.89,26.89,0,0,0-.21-3.43,13.52,13.52,0,0,0-.71-2.93,2.86,2.86,0,0,0-1.47-1.74,2.21,2.21,0,0,0-2.33,0,6.26,6.26,0,0,0-1.85,1.85,13.26,13.26,0,0,0-1.36,2.55c-.36.91-.65,1.61-.87,2.12q-2.5,6.19-4.56,13t-3.92,13.15q.33-6.09,1.09-11.52t1.63-11a1.11,1.11,0,0,0,.82.33.72.72,0,0,0,.7-.43,2.81,2.81,0,0,0-.11-1.74,7.93,7.93,0,0,1-.43-1.85,5.23,5.23,0,0,1,.11-2.39,5.37,5.37,0,0,0,.11-2.39,2.33,2.33,0,0,0-.6-.87,1.6,1.6,0,0,0-1.25-.22,2.1,2.1,0,0,0-1.9,1.63c-.26.94-.49,1.85-.71,2.72-.65,2.82-1.23,5.78-1.74,8.85s-.94,6.14-1.3,9.19-.69,6.25-1,9.62a51.93,51.93,0,0,0,0,9.5,17.85,17.85,0,0,0,.65,2.88,2.21,2.21,0,0,0,2,1.58,3.17,3.17,0,0,0,1.74-.65,4,4,0,0,0,1-1.36,9.17,9.17,0,0,0,.6-1.79c.14-.66.29-1.31.43-2,.73-2.9,1.4-5.72,2-8.48s1.29-5.43,2-8q1.63-5.53,3.37-10.65a61.6,61.6,0,0,1,4-9.34q.23,2.82.33,6t.11,6.31c0,2.1.05,4.14.16,6.14a9.71,9.71,0,0,0,1.47,4.94,6.8,6.8,0,0,0,1.08.54,2.3,2.3,0,0,0,.87.06,4.26,4.26,0,0,1,.76-.06,9,9,0,0,0,3.75-4,35.5,35.5,0,0,1,2.88-4.84c.66-1.23,1.36-2.46,2.12-3.69s1.54-2.39,2.34-3.48a11.7,11.7,0,0,0,.81-1.14,2.06,2.06,0,0,1,.93-.82,20.16,20.16,0,0,1,.32,3.75,32.84,32.84,0,0,0,.22,3.81,11.34,11.34,0,0,0,.82,3.15,3.9,3.9,0,0,0,2,2,3.67,3.67,0,0,0,2-.11,4.18,4.18,0,0,0,1.36-.87,11.4,11.4,0,0,0,2.5-3.15,20.23,20.23,0,0,1,2.17-3.26c.29-.65.58-1.29.87-1.9s.61-1.25,1-1.91a4.68,4.68,0,0,1,.76-2,1.86,1.86,0,0,0,.11-2,1.43,1.43,0,0,0-1.8.93,7.15,7.15,0,0,1-.92,1.9,17.74,17.74,0,0,1-1.36,2.77c-.54.91-1.1,1.79-1.68,2.66s-1.18,1.62-1.8,2.45a6.29,6.29,0,0,1-2.22,1.9,8.11,8.11,0,0,1-.77-3.15c-.07-1.23-.12-2.46-.16-3.7a28.23,28.23,0,0,0-.32-3.53,4.77,4.77,0,0,0-1.25-2.66,3.52,3.52,0,0,0-2-.27,3.37,3.37,0,0,0-1.58.76,7.09,7.09,0,0,0-1.25,1.41c-.36.54-.72,1.07-1.08,1.58-.58.79-1.13,1.59-1.63,2.39s-1,1.52-1.52,2.17-.89,1.6-1.36,2.39-1,1.6-1.47,2.39-1,1.6-1.47,2.39a7.56,7.56,0,0,1-1.79,2.07,32.3,32.3,0,0,1-.22-6.47"/><path class="cls-1" d="M455.45,116.6c.37-1.71.73-3.35,1.09-4.95.07-.36.16-.76.27-1.19a8.91,8.91,0,0,0,.22-1.25,1.62,1.62,0,0,0-.22-1,1.11,1.11,0,0,0-1-.43,1.72,1.72,0,0,0-1.47,1,8.05,8.05,0,0,0-.81,1.79,42.45,42.45,0,0,0-1.9,5.71c-.55,2.06-1,3.86-1.47,5.38-3.48.14-7,.4-10.54.76s-7,.65-10.43.87a9.79,9.79,0,0,1-1.53.11.77.77,0,0,0-.87.87q.12.87.93.81c.54,0,1,0,1.47,0q5.32-.22,10.48-.76c3.44-.36,6.83-.62,10.16-.76q-1.31,6.19-2.22,13t-1.47,14.08q-.23,3.58-.22,7.33a47.11,47.11,0,0,0,.54,7.23,30.44,30.44,0,0,0,1.47,6.14,6.72,6.72,0,0,0,3.75,4.07,5.83,5.83,0,0,0,2.28,0,11.71,11.71,0,0,0,4.46-3.69c1.16-1.6,2.28-3.22,3.37-4.89s2.12-3.35,3.1-5.05,2-3.39,3-5.06q2.71-4.56,5.11-9.24t5.11-9.23a14.13,14.13,0,0,0,.87-1.36c.36-.62.25-1.07-.33-1.36a.94.94,0,0,0-1.08.38,10.34,10.34,0,0,0-1,1.25q-1.31,1.84-2.39,3.7c-.73,1.23-1.42,2.42-2.07,3.58q-3.79,6.42-7.22,12.34a108.29,108.29,0,0,1-7.77,11.57c-.15.22-.39.54-.71,1a12.66,12.66,0,0,1-1.09,1.25,10.77,10.77,0,0,1-1.19,1,1.46,1.46,0,0,1-1.14.33c-.66-.08-1.15-.69-1.47-1.85s-.56-2.14-.71-2.93a21.73,21.73,0,0,1-.43-3.27c-.08-1.15-.11-2.2-.11-3.15a134.36,134.36,0,0,1,1.14-19.34q1.25-9.24,2.77-18.15,9.68-.54,19.67-1.14a195.36,195.36,0,0,1,20.11-.16,6.59,6.59,0,0,0,1.25.1c.47,0,.74-.28.81-.86a.93.93,0,0,0-.87-.6c-.43,0-.83-.06-1.19-.06a145.07,145.07,0,0,0-20.11-.11q-10.11.66-19.45,1c.36-1.45.72-3,1.08-4.72"/><path class="cls-1" d="M437.25,134.64a1.78,1.78,0,0,0-.76.92,5.73,5.73,0,0,0-.38,1.52c-.07.58-.14,1.09-.22,1.52a50.12,50.12,0,0,0-.38,5.11c0,1.74,0,3.41.06,5a16.19,16.19,0,0,0,.38,2.44,3.51,3.51,0,0,0,.81,1.69h.87a4.66,4.66,0,0,0,1.14-3.15q.06-2,.06-4c0-1.38,0-2.79-.06-4.24s0-2.79.06-4c0-.51,0-1,.05-1.42a1.61,1.61,0,0,0-.38-1.19,1.26,1.26,0,0,0-1.25-.16"/><path class="cls-1" d="M411,145.61a56.71,56.71,0,0,0,0-6.9c-.07-.94-.11-2-.11-3.2a25.14,25.14,0,0,0-.22-3.43,13.53,13.53,0,0,0-.7-2.93,2.9,2.9,0,0,0-1.47-1.74,2.23,2.23,0,0,0-2.34,0,6.38,6.38,0,0,0-1.85,1.85,13.22,13.22,0,0,0-1.35,2.55l-.87,2.12q-2.5,6.19-4.57,13t-3.91,13.15q.33-6.09,1.09-11.52t1.63-11a1.09,1.09,0,0,0,.81.33.74.74,0,0,0,.71-.43,2.89,2.89,0,0,0-.11-1.74,7.45,7.45,0,0,1-.43-1.85,5.37,5.37,0,0,1,.1-2.39,5.23,5.23,0,0,0,.11-2.39,2.12,2.12,0,0,0-.6-.87,1.58,1.58,0,0,0-1.24-.22,2.13,2.13,0,0,0-1.91,1.63c-.25.94-.49,1.85-.7,2.72-.66,2.82-1.23,5.78-1.74,8.85s-.94,6.14-1.31,9.19-.68,6.25-1,9.62a51.93,51.93,0,0,0,0,9.5,16.85,16.85,0,0,0,.65,2.88,2.21,2.21,0,0,0,2,1.58,3.11,3.11,0,0,0,1.74-.65,4,4,0,0,0,1-1.36,8.54,8.54,0,0,0,.59-1.79c.15-.66.29-1.31.44-2,.72-2.9,1.39-5.72,2-8.48s1.28-5.43,2-8q1.63-5.53,3.37-10.65a61.6,61.6,0,0,1,4-9.34q.21,2.82.32,6c.08,2.11.11,4.21.11,6.31s.06,4.14.17,6.14a9.61,9.61,0,0,0,1.46,4.94,7.34,7.34,0,0,0,1.09.54,2.29,2.29,0,0,0,.87.06,4.26,4.26,0,0,1,.76-.06,9,9,0,0,0,3.75-4,33.57,33.57,0,0,1,2.88-4.84c.65-1.23,1.36-2.46,2.12-3.69s1.54-2.39,2.34-3.48a13.7,13.7,0,0,0,.81-1.14,2,2,0,0,1,.92-.82,20.13,20.13,0,0,1,.33,3.75,30.77,30.77,0,0,0,.22,3.81,11,11,0,0,0,.81,3.15,3.94,3.94,0,0,0,2,2,3.66,3.66,0,0,0,2-.11,4,4,0,0,0,1.36-.87,11.22,11.22,0,0,0,2.5-3.15,20.91,20.91,0,0,1,2.17-3.26c.29-.65.58-1.29.87-1.9s.62-1.25,1-1.91a4.82,4.82,0,0,1,.76-2,1.84,1.84,0,0,0,.11-2,1.42,1.42,0,0,0-1.79.93,7.16,7.16,0,0,1-.93,1.9,17.68,17.68,0,0,1-1.35,2.77c-.55.91-1.11,1.79-1.69,2.66l-1.79,2.45a6.32,6.32,0,0,1-2.23,1.9,8.11,8.11,0,0,1-.76-3.15c-.07-1.23-.13-2.46-.16-3.7a28.2,28.2,0,0,0-.33-3.53,4.71,4.71,0,0,0-1.25-2.66,3.49,3.49,0,0,0-1.95-.27,3.33,3.33,0,0,0-1.58.76,6.79,6.79,0,0,0-1.25,1.41c-.36.54-.73,1.07-1.09,1.58-.58.79-1.12,1.59-1.63,2.39a24.82,24.82,0,0,1-1.52,2.17c-.43.8-.89,1.6-1.36,2.39s-1,1.6-1.46,2.39-1,1.6-1.47,2.39a7.56,7.56,0,0,1-1.79,2.07,31.58,31.58,0,0,1-.22-6.47"/><path class="cls-1" d="M366.89,145.61a56.71,56.71,0,0,0,0-6.9c-.08-.94-.11-2-.11-3.2a25.14,25.14,0,0,0-.22-3.43,13,13,0,0,0-.71-2.93,2.85,2.85,0,0,0-1.46-1.74,2.23,2.23,0,0,0-2.34,0,6.38,6.38,0,0,0-1.85,1.85,13.22,13.22,0,0,0-1.35,2.55l-.87,2.12q-2.5,6.19-4.57,13t-3.91,13.15q.33-6.09,1.09-11.52t1.63-11a1.09,1.09,0,0,0,.81.33.74.74,0,0,0,.71-.43,2.89,2.89,0,0,0-.11-1.74,7.94,7.94,0,0,1-.44-1.85,5.52,5.52,0,0,1,.11-2.39,5.23,5.23,0,0,0,.11-2.39,2.12,2.12,0,0,0-.6-.87,1.59,1.59,0,0,0-1.25-.22,2.12,2.12,0,0,0-1.9,1.63c-.25.94-.49,1.85-.7,2.72-.66,2.82-1.24,5.78-1.74,8.85s-.94,6.14-1.31,9.19-.68,6.25-1,9.62a53.77,53.77,0,0,0,0,9.5,17.85,17.85,0,0,0,.66,2.88,2.21,2.21,0,0,0,2,1.58,3.11,3.11,0,0,0,1.74-.65,3.87,3.87,0,0,0,1-1.36,8,8,0,0,0,.6-1.79c.15-.66.29-1.31.44-2,.72-2.9,1.39-5.72,2-8.48s1.28-5.43,2-8q1.62-5.53,3.37-10.65a60.61,60.61,0,0,1,4-9.34q.21,2.82.32,6t.11,6.31c0,2.1.06,4.14.17,6.14a9.61,9.61,0,0,0,1.46,4.94,6.89,6.89,0,0,0,1.09.54,2.29,2.29,0,0,0,.87.06,4.26,4.26,0,0,1,.76-.06,9.08,9.08,0,0,0,3.75-4,33.57,33.57,0,0,1,2.88-4.84c.65-1.23,1.36-2.46,2.12-3.69s1.54-2.39,2.33-3.48a13.79,13.79,0,0,0,.82-1.14,2,2,0,0,1,.92-.82,20.13,20.13,0,0,1,.33,3.75,30.77,30.77,0,0,0,.22,3.81,11,11,0,0,0,.81,3.15,3.94,3.94,0,0,0,2,2,3.66,3.66,0,0,0,2-.11,4,4,0,0,0,1.36-.87,11.22,11.22,0,0,0,2.5-3.15,20.91,20.91,0,0,1,2.17-3.26c.29-.65.58-1.29.87-1.9s.62-1.25,1-1.91a4.82,4.82,0,0,1,.76-2,1.84,1.84,0,0,0,.11-2,1.42,1.42,0,0,0-1.79.93,7.16,7.16,0,0,1-.93,1.9,17.68,17.68,0,0,1-1.35,2.77c-.55.91-1.11,1.79-1.69,2.66l-1.79,2.45a6.32,6.32,0,0,1-2.23,1.9,8.11,8.11,0,0,1-.76-3.15c-.07-1.23-.13-2.46-.16-3.7a28.2,28.2,0,0,0-.33-3.53,4.71,4.71,0,0,0-1.25-2.66,3.51,3.51,0,0,0-2-.27,3.34,3.34,0,0,0-1.57.76,6.79,6.79,0,0,0-1.25,1.41c-.36.54-.73,1.07-1.09,1.58-.58.79-1.12,1.59-1.63,2.39s-1,1.52-1.52,2.17-.89,1.6-1.36,2.39-1,1.6-1.47,2.39-1,1.6-1.46,2.39a7.43,7.43,0,0,1-1.8,2.07,31.59,31.59,0,0,1-.21-6.47"/><path class="cls-1" d="M350.7,136.43a.9.9,0,0,0-.76-.49,3.74,3.74,0,0,0-1.25.11,8.3,8.3,0,0,0-1.36.43,8.05,8.05,0,0,1-1.09.38q-3.58.87-7.34,1.69T331.68,140a10.56,10.56,0,0,0-2.66-5.55,8.54,8.54,0,0,0-5.82-2.28,5.89,5.89,0,0,0,0-3.53,2.13,2.13,0,0,0-2.17-1.58,2.77,2.77,0,0,0-2.12.87,7.58,7.58,0,0,0-1.36,2.07,18.1,18.1,0,0,0-.92,2.5,19,19,0,0,1-.82,2.28,8.61,8.61,0,0,0-2.12,2.82,4.28,4.28,0,0,0,.06,3.92c-.37,1.52-.76,3.24-1.2,5.16a54,54,0,0,0-1,5.87,28.51,28.51,0,0,0-.05,5.76,9.48,9.48,0,0,0,1.68,4.72,14.25,14.25,0,0,0,1.42,1.25,4.31,4.31,0,0,0,1.84.82h1.63a12,12,0,0,0,5.71-3.26,33.57,33.57,0,0,0,4.18-5.22,27.41,27.41,0,0,0,3-6.68,22.9,22.9,0,0,0,.93-7.88c2.53-.51,5.08-1,7.66-1.58s5-1.17,7.33-1.9c.22-.07.58-.16,1.09-.27a8,8,0,0,0,1.41-.43,4.8,4.8,0,0,0,1.09-.6A.68.68,0,0,0,350.7,136.43Zm-31.63,3.15a16.64,16.64,0,0,1,.55-1.74,16.55,16.55,0,0,1,.48-1.63,4.68,4.68,0,0,1,.82-1.41,1.94,1.94,0,0,0,.11,1.52,2.24,2.24,0,0,0,.38.16,1.5,1.5,0,0,0,.49.06.73.73,0,0,0,.65-.82,3.28,3.28,0,0,1,.22-1.25,6.4,6.4,0,0,1,4.62,1.69,8.76,8.76,0,0,1,2,4.29c-1.67.29-3.37.51-5.11.65s-3.63.22-5.65.22C318.78,140.74,318.93,140.16,319.07,139.58Zm9.46,9.29a42.41,42.41,0,0,1-2.61,5.27c-1.09,1.45-2.25,2.87-3.48,4.24a8.35,8.35,0,0,1-5,2.61,2.64,2.64,0,0,1-1-1.41,9.78,9.78,0,0,1-.38-1.85,26.49,26.49,0,0,1,.6-7.45c.54-2.42,1-4.69,1.35-6.79a44.23,44.23,0,0,0,5.87-.16,47.67,47.67,0,0,0,5.55-.82A13.33,13.33,0,0,1,328.53,148.87Z"/><path class="cls-1" d="M294.84,137a7.62,7.62,0,0,1,0-1.91,4.13,4.13,0,0,0-2.39-3.15,3.7,3.7,0,0,0-.87-.11h-1c-.07,0-.11,0-.11.06s0,.05-.11.05a4.53,4.53,0,0,0-.87.27c-.21.11-.51.24-.87.39a20.36,20.36,0,0,0-6,8.58,28.82,28.82,0,0,0-1.42,4.84,21.62,21.62,0,0,0-.43,5.21,14.75,14.75,0,0,0,.92,4.68,5.59,5.59,0,0,0,2.77,3.09,6.8,6.8,0,0,0,5.33-.38A32.26,32.26,0,0,0,294,156a88.11,88.11,0,0,0,8.42-7.23q4-3.85,8-7.22l2.77-2.34c.9-.76,1.86-1.5,2.88-2.23a4.51,4.51,0,0,1,1-.76c.4-.22.49-.61.27-1.19s-.63-.55-1-.33a9.61,9.61,0,0,1-1.14.54q-.54.33-1.14.66a3.84,3.84,0,0,0-.93.65,22.74,22.74,0,0,0-1.9,1.41c-.61.51-1.21,1-1.79,1.41q-3.69,3-7.28,6t-7.39,5.82a46.65,46.65,0,0,0-3.8,2.82,9.06,9.06,0,0,1-4.9,1.85,3.59,3.59,0,0,1-1.57-2.23,11.37,11.37,0,0,1-.33-3.15,22.88,22.88,0,0,1,.38-3.37,26.44,26.44,0,0,1,.76-3,25.91,25.91,0,0,1,2.29-5.16,8.46,8.46,0,0,1,3.69-3.53,3.86,3.86,0,0,1,.54,1,5.3,5.3,0,0,0,.55,1.09,2.84,2.84,0,0,0,.81.81,1.43,1.43,0,0,0,1.25.11,1.55,1.55,0,0,0,.44-1.46"/></g></g></svg>