<svg xmlns="http://www.w3.org/2000/svg" xmlns:xlink="http://www.w3.org/1999/xlink" viewBox="0 0 186.75 187.2"><defs><style>.cls-1{fill:none;}.cls-2{clip-path:url(#clip-path);}.cls-3{fill:url(#linear-gradient);}.cls-4{clip-path:url(#clip-path-2);}.cls-5{fill:url(#linear-gradient-2);}.cls-6{clip-path:url(#clip-path-3);}.cls-7{fill:#ff8300;}.cls-8{fill:#53575a;}</style><clipPath id="clip-path" transform="translate(1.06 2.04)"><path class="cls-1" d="M35.19,20.92A94.48,94.48,0,0,0,6.27,128.27a95.2,95.2,0,0,0,24,35.48l1.92-2.07a91.61,91.61,0,0,1,72-158.32C126.4,5.75,148,17.15,163.48,34.65l2.12-1.88a99,99,0,0,0-27-21.49,91.76,91.76,0,0,0-34-10.73A95.91,95.91,0,0,0,94.26,0,93.71,93.71,0,0,0,35.19,20.92"/></clipPath><linearGradient id="linear-gradient" x1="-592.48" y1="1048.77" x2="-591.48" y2="1048.77" gradientTransform="matrix(165.6, 0, 0, -165.6, 98115.03, 173757.58)" gradientUnits="userSpaceOnUse"><stop offset="0" stop-color="#a3a3a2"/><stop offset="0.08" stop-color="#eaeae9"/><stop offset="0.15" stop-color="#f3f3f3"/><stop offset="0.16" stop-color="#eeeeed"/><stop offset="0.18" stop-color="#cecccb"/><stop offset="0.21" stop-color="#b8b4b3"/><stop offset="0.23" stop-color="#aaa5a4"/><stop offset="0.25" stop-color="#a5a09f"/><stop offset="0.27" stop-color="#b1aead"/><stop offset="0.31" stop-color="#c3c2c2"/><stop offset="0.34" stop-color="#cacaca"/><stop offset="0.36" stop-color="#c3c3c4"/><stop offset="0.48" stop-color="#abacad"/><stop offset="0.55" stop-color="#a2a3a4"/><stop offset="0.6" stop-color="#a2a3a4"/><stop offset="0.78" stop-color="#c8c6c6"/><stop offset="0.88" stop-color="#eae9e9"/><stop offset="0.9" stop-color="#f3f3f3"/><stop offset="0.92" stop-color="#eee"/><stop offset="0.94" stop-color="#e1e1e1"/><stop offset="0.96" stop-color="#cacaca"/><stop offset="0.98" stop-color="#abaaab"/><stop offset="1" stop-color="#868485"/></linearGradient><clipPath id="clip-path-2" transform="translate(1.06 2.04)"><path class="cls-1" d="M28.65,87.36a65.48,65.48,0,0,0,4,30.74,66.73,66.73,0,0,0,16.79,24.84l1.92-2.07A63.34,63.34,0,0,1,101.21,31.46a64.79,64.79,0,0,1,41,21.36L144.36,51a67.61,67.61,0,0,0-42.85-22.3A66.06,66.06,0,0,0,28.65,87.36"/></clipPath><linearGradient id="linear-gradient-2" x1="-592.48" y1="1048.76" x2="-591.48" y2="1048.76" gradientTransform="matrix(116.1, 0, 0, -116.1, 68815.13, 121846.89)" xlink:href="#linear-gradient"/><clipPath id="clip-path-3" transform="translate(1.06 2.04)"><path class="cls-1" d="M62.76,0A97.53,97.53,0,0,0,0,63.31v58.55a97.59,97.59,0,0,0,62.76,63.31h60.17a97.59,97.59,0,0,0,62.76-63.31V63.31A97.55,97.55,0,0,0,122.93,0Z"/></clipPath></defs><g id="Layer_2" data-name="Layer 2"><g id="Layer_1-2" data-name="Layer 1"><g class="cls-2"><rect class="cls-3" width="166.66" height="165.79"/></g><g class="cls-4"><rect class="cls-5" x="28.58" y="29.76" width="116.84" height="115.22"/></g><g class="cls-6"><path class="cls-7" d="M155.84,39a4.07,4.07,0,1,1-4.07-4.07A4.07,4.07,0,0,1,155.84,39" transform="translate(1.06 2.04)"/><path class="cls-7" d="M41.41,151.46a4.07,4.07,0,1,1-4.07-4.08,4.07,4.07,0,0,1,4.07,4.08" transform="translate(1.06 2.04)"/><path class="cls-7" d="M33.92,139.92a3,3,0,0,0,.23-1.66,3.89,3.89,0,0,0-.58-1.53,3.44,3.44,0,0,0-.63-.7,3,3,0,0,0-.84-.49,2.47,2.47,0,0,0-.94-.15,1.88,1.88,0,0,0-.95.33,1.46,1.46,0,0,0-.72,1.07,4,4,0,0,0,.1,1.4c.11.51.25,1.05.43,1.63a7,7,0,0,1,.28,1.73,4,4,0,0,1-.36,1.71,3.83,3.83,0,0,1-1.47,1.56,3.63,3.63,0,0,1-1.2.47,3.43,3.43,0,0,1-1.46,0,4.28,4.28,0,0,1-1.55-.68,5.3,5.3,0,0,1-1.46-1.54,7.24,7.24,0,0,1-.9-1.94A3.64,3.64,0,0,1,22,139l1.95.5a2.47,2.47,0,0,0-.19,1.28,3,3,0,0,0,.52,1.38,3.36,3.36,0,0,0,.86.95,2.22,2.22,0,0,0,.87.39,1.7,1.7,0,0,0,.81,0,2.07,2.07,0,0,0,.62-.26,1.67,1.67,0,0,0,.83-1.14,3.87,3.87,0,0,0-.05-1.43,14.94,14.94,0,0,0-.45-1.63,6.78,6.78,0,0,1-.34-1.68,3.69,3.69,0,0,1,.25-1.64A3.3,3.3,0,0,1,29,134.2a4,4,0,0,1,3.32-.53,4.37,4.37,0,0,1,1.5.8A5.68,5.68,0,0,1,35,135.84a6.67,6.67,0,0,1,1,2.31,4,4,0,0,1-.17,2.32Z" transform="translate(1.06 2.04)"/><rect class="cls-7" x="17.6" y="130.61" width="13.5" height="1.83" transform="translate(-55.34 26.93) rotate(-26.65)"/><polygon class="cls-7" points="16.64 130.8 13.72 122.59 15.33 122.01 17.64 128.5 21.43 127.15 19.28 121.11 20.9 120.54 23.05 126.57 27.13 125.12 24.7 118.31 26.32 117.73 29.36 126.27 16.64 130.8"/><polygon class="cls-7" points="12.24 117.26 11.87 114.88 21.69 105.82 21.69 105.78 10.72 107.5 10.44 105.69 23.78 103.6 24.14 105.9 14.33 115.04 14.34 115.08 25.3 113.36 25.59 115.17 12.24 117.26"/><polygon class="cls-7" points="12.02 96.89 11.89 101.23 10.17 101.18 10.5 90.66 12.21 90.71 12.08 95.06 23.86 95.42 23.8 97.25 12.02 96.89"/><path class="cls-7" d="M9.93,84.43l.86-4.67a5.7,5.7,0,0,1,.73-2,3.84,3.84,0,0,1,1.13-1.14A3,3,0,0,1,14,76.14a4.42,4.42,0,0,1,1.32,0,3.44,3.44,0,0,1,1.19.45,3.61,3.61,0,0,1,.95.84A3.88,3.88,0,0,1,18,78.66a3.44,3.44,0,0,1,.15,1.44L25,77.44l-.42,2.25L18.06,82l-.37,2,5.85,1.08-.33,1.8Zm6.18-.72.44-2.37a7.48,7.48,0,0,0,.11-1,3.06,3.06,0,0,0-.14-1,1.73,1.73,0,0,0-.53-.76,2.12,2.12,0,0,0-1.05-.45,2.29,2.29,0,0,0-1.15,0,1.72,1.72,0,0,0-.76.53,2.86,2.86,0,0,0-.48.86,7.11,7.11,0,0,0-.28,1l-.43,2.36Z" transform="translate(1.06 2.04)"/><path class="cls-7" d="M14.41,66.65,15,65.1l14.67-.69-.75,2-3.6.1-2.25,6L25.72,75,25,77Zm9.17-.07-6.69.19v0l4.91,4.57Z" transform="translate(1.06 2.04)"/><path class="cls-8" d="M22.51,50l2.3-3.28A8.6,8.6,0,0,1,26,45.37a4.47,4.47,0,0,1,1.37-.89,3.19,3.19,0,0,1,1.54-.2,3.52,3.52,0,0,1,1.66.7,3.48,3.48,0,0,1,1.26,1.39,3.26,3.26,0,0,1,.32,1.54,4.47,4.47,0,0,1-.34,1.52,7.07,7.07,0,0,1-.72,1.31L29.52,53l5,3.48-.92,1.32Zm5.79,2.11,1.56-2.22A3.24,3.24,0,0,0,30.53,48,2.26,2.26,0,0,0,27.77,46a3.25,3.25,0,0,0-1.57,1.29l-1.55,2.21Z" transform="translate(1.06 2.04)"/><polygon class="cls-8" points="31.71 41.26 32.82 40.09 41.54 48.35 45.79 43.87 46.87 44.89 41.52 50.54 31.71 41.26"/><path class="cls-8" d="M42.52,28.14l1.2-.92,12.76,7.24L55,35.6l-3.11-1.81-5.36,4.1.91,3.49L46,42.48Zm1.83,1.19,0,0,1.8,7L50.5,33Z" transform="translate(1.06 2.04)"/><polygon class="cls-8" points="60.01 21.6 56.11 23.77 61.93 34.28 60.53 35.05 54.71 24.54 50.8 26.7 50.08 25.4 59.29 20.3 60.01 21.6"/><rect class="cls-8" x="64.3" y="16.03" width="1.6" height="13.5" transform="translate(-2.71 28.48) rotate(-22.34)"/><polygon class="cls-8" points="69.49 16.19 71.45 15.7 81.79 24.64 81.83 24.63 79.07 13.76 80.62 13.37 83.94 26.45 81.98 26.95 71.64 18.01 71.61 18.02 74.37 28.89 72.82 29.28 69.49 16.19"/><path class="cls-8" d="M96.07,18.29a7.69,7.69,0,0,1-.17,2.11,4.91,4.91,0,0,1-.78,1.79,4.25,4.25,0,0,1-1.51,1.29,6.48,6.48,0,0,1-4.72.25,4.28,4.28,0,0,1-1.64-1.12,4.69,4.69,0,0,1-1-1.69,7.75,7.75,0,0,1-.39-2.08l-.45-8.34,1.6-.09.43,8.12a7.46,7.46,0,0,0,.26,1.57,4.05,4.05,0,0,0,.64,1.32,2.88,2.88,0,0,0,1.12.88,4.08,4.08,0,0,0,3.35-.18,3,3,0,0,0,1-1,4,4,0,0,0,.5-1.38,7.57,7.57,0,0,0,.08-1.59L94,10l1.6-.09Z" transform="translate(1.06 2.04)"/><polygon class="cls-8" points="102.78 12.1 105.13 12.47 108.02 23.63 108.06 23.64 114.25 13.89 116.55 14.25 114.46 27.59 112.88 27.35 114.63 16.15 114.59 16.15 108.06 26.59 107.09 26.44 104.06 14.5 104.02 14.49 102.27 25.69 100.69 25.44 102.78 12.1"/><path class="cls-8" d="M116.94,23.59l6.55-2.6a9.66,9.66,0,0,0,1-.5,1.55,1.55,0,0,0,.75-.86,1.29,1.29,0,0,0-.09-1.18,1.8,1.8,0,0,0-1-.77,1.56,1.56,0,0,0-1.34,0,2,2,0,0,0-.9,1l-2.61-1.19a4.58,4.58,0,0,1,1-1.55,3.8,3.8,0,0,1,1.4-.86,4.08,4.08,0,0,1,1.65-.21,6,6,0,0,1,1.81.39,5.51,5.51,0,0,1,1.53.84,3.82,3.82,0,0,1,1,1.2,3.58,3.58,0,0,1,.43,1.51,4.46,4.46,0,0,1-.3,1.77,5,5,0,0,1-.53,1.06,4.22,4.22,0,0,1-.68.76A4,4,0,0,1,126,23a9.39,9.39,0,0,1-.9.42L120,25.26l5.62,2.07-.87,2.37-8.84-3.27Z" transform="translate(1.06 2.04)"/><path class="cls-8" d="M129.65,24.53a13.22,13.22,0,0,1,1.39-2,7.33,7.33,0,0,1,1.78-1.58,4.69,4.69,0,0,1,2.15-.68,4.47,4.47,0,0,1,2.47.66,4.41,4.41,0,0,1,1.85,1.77,4.66,4.66,0,0,1,.53,2.19,7.34,7.34,0,0,1-.42,2.35,14.57,14.57,0,0,1-1,2.23,14,14,0,0,1-1.39,2,7.13,7.13,0,0,1-1.78,1.58,4.69,4.69,0,0,1-2.15.68,4.31,4.31,0,0,1-2.47-.66,4.41,4.41,0,0,1-1.85-1.77,4.66,4.66,0,0,1-.53-2.19,7,7,0,0,1,.42-2.34,14.26,14.26,0,0,1,1-2.24m2.49,1.4c-.17.31-.37.69-.58,1.14a6,6,0,0,0-.48,1.37,3,3,0,0,0,0,1.33,1.5,1.5,0,0,0,.82,1,1.52,1.52,0,0,0,1.28.17,2.86,2.86,0,0,0,1.13-.69,6,6,0,0,0,.93-1.12c.27-.42.49-.78.67-1.09s.37-.69.58-1.14a5.88,5.88,0,0,0,.48-1.37,3.14,3.14,0,0,0,0-1.33,1.56,1.56,0,0,0-.82-1,1.59,1.59,0,0,0-1.29-.18,3,3,0,0,0-1.12.7,6.67,6.67,0,0,0-.93,1.12c-.27.42-.49.78-.67,1.09" transform="translate(1.06 2.04)"/><path class="cls-8" d="M142.68,25.41l-.79-.56.3-.42,2.07,1.49-.3.41-.79-.56L141.6,28l-.5-.36Zm2.08.87.75.54-.74,2.5,0,0,2.14-1.5.76.54L145.81,31l-.49-.35,1.56-2.18h0l-2.32,1.63-.4-.29.8-2.72h0l-1.56,2.18-.5-.36Z" transform="translate(1.06 2.04)"/><path class="cls-7" d="M153,95.13A56.62,56.62,0,1,1,96.37,38.51,56.63,56.63,0,0,1,153,95.13" transform="translate(1.06 2.04)"/><polygon class="cls-8" points="176.19 53.34 177.97 58.73 164.76 67.09 164.78 67.16 180.74 67.08 182.27 71.68 169.03 81.24 169.05 81.31 185.09 80.18 186.75 85.19 162.11 86.07 160.65 81.67 174.55 71.56 174.53 71.5 157.35 71.7 155.94 67.45 176.19 53.34"/><path class="cls-8" d="M184.83,99.91l-.32,4.3-24.37,8.49.44-5.87,5.15-1.65.69-9.17-4.85-2.34.44-5.74Zm-7,1.49L170.7,98l-.44,5.76Z" transform="translate(1.06 2.04)"/><path class="cls-8" d="M181.14,122.45l-3.58,8.43a16.09,16.09,0,0,1-1.66,3,8,8,0,0,1-2.19,2.16,5.78,5.78,0,0,1-2.79.92,7.44,7.44,0,0,1-3.46-.69,7,7,0,0,1-3.42-2.86,5.9,5.9,0,0,1-.55-4.38l-11.55,1.63,2.44-5.75,10.64-.86,1-2.37L157.32,118l2-4.8Zm-11,1-1.2,2.83c-.19.43-.37.89-.54,1.39a4.7,4.7,0,0,0-.28,1.42,2.48,2.48,0,0,0,.31,1.28,2.42,2.42,0,0,0,1.22,1,2.54,2.54,0,0,0,1.47.23,2.41,2.41,0,0,0,1.12-.55,4,4,0,0,0,.86-1.05,9.15,9.15,0,0,0,.66-1.28l1.33-3.14Z" transform="translate(1.06 2.04)"/><path class="cls-8" d="M169.1,146.76l-5.93,7a15.87,15.87,0,0,1-2.49,2.38,8.23,8.23,0,0,1-2.74,1.41,5.81,5.81,0,0,1-2.93,0,7.42,7.42,0,0,1-3.1-1.69,7,7,0,0,1-2.4-3.76,5.83,5.83,0,0,1,.78-4.34l-11.51-1.9,4.05-4.76,10.41,2.37,1.67-2-7.2-6.14,3.38-4Zm-10.83-2.38-2,2.34c-.3.36-.61.74-.92,1.16a4.34,4.34,0,0,0-.69,1.28,2.44,2.44,0,0,0-.09,1.31,2.38,2.38,0,0,0,.87,1.3,2.32,2.32,0,0,0,2.57.47,4.31,4.31,0,0,0,1.14-.75,10.75,10.75,0,0,0,1-1l2.21-2.59Z" transform="translate(1.06 2.04)"/><path class="cls-8" d="M143.48,170.73,139.79,173l-21-15,5-3,4.33,3.25,7.88-4.74-.89-5.31,4.93-3Zm-5.26-4.87-1.33-7.78-4.95,3Z" transform="translate(1.06 2.04)"/><polygon class="cls-8" points="123.38 183.3 116.4 184.53 103.63 170.09 103.56 170.1 106.42 186.29 101.29 187.2 97.17 163.9 103.89 162.71 116.99 177.5 117.06 177.49 114.12 160.9 119.26 160 123.38 183.3"/><polygon class="cls-8" points="86.72 181.45 93.39 182.45 92.71 187.01 74.2 184.24 74.88 179.68 81.56 180.68 84.38 161.83 89.53 162.6 86.72 181.45"/><polygon class="cls-8" points="67.15 167.08 69.47 183.14 63.59 180.4 62.79 170.25 54.23 176.03 48.63 173.42 62.42 164.88 66.69 155.73 71.41 157.93 67.15 167.08"/></g></g></g></svg>