<svg xmlns="http://www.w3.org/2000/svg" viewBox="0 0 362.25 124.64"><defs><style>.cls-1{fill:#53575a;}.cls-2{fill:#ff8300;}</style></defs><g id="Layer_2" data-name="Layer 2"><g id="Layer_1-2" data-name="Layer 1"><path class="cls-1" d="M92.91,117a22.42,22.42,0,0,1-7.74,5.65,25,25,0,0,1-9.94,2H47.34v-.46a25.65,25.65,0,0,0,3.71-.22,5,5,0,0,0,2.4-.95,3.82,3.82,0,0,0,1.3-2,11.29,11.29,0,0,0,.39-3.31V79.46q0-3.57-1.3-4.9T49.29,73h-2v-.39h28a24,24,0,0,1,9.94,2,22.91,22.91,0,0,1,7.74,5.59,24.88,24.88,0,0,1,5,8.32A29.33,29.33,0,0,1,99.6,98.64a29,29,0,0,1-1.72,10A24.84,24.84,0,0,1,92.91,117Zm-11.51,5.2a18,18,0,0,0,3.09-2.34,19.54,19.54,0,0,0,2.7-3.12A28.34,28.34,0,0,0,91,108.52a34.69,34.69,0,0,0,1.37-9.88,35.39,35.39,0,0,0-1.37-10,27.39,27.39,0,0,0-3.83-8.19,19.54,19.54,0,0,0-2.7-3.12A18,18,0,0,0,81.4,75a15.12,15.12,0,0,0-7-2H67.23a8.74,8.74,0,0,0-2.4.52,4.08,4.08,0,0,0-1.59,1.1,4.15,4.15,0,0,0-.88,1.89,13.61,13.61,0,0,0-.26,2.86v37.24a5.55,5.55,0,0,0,0,.56,5.93,5.93,0,0,1,0,.61,12.3,12.3,0,0,0,.3,3,4.31,4.31,0,0,0,.94,1.89,3.94,3.94,0,0,0,1.75,1.07,10.41,10.41,0,0,0,2.8.42h5.91A15.38,15.38,0,0,0,81.4,122.17Z"/><path class="cls-1" d="M136.78,123.53a15.43,15.43,0,0,0,3.81-1.69,14.07,14.07,0,0,0,2.89-2.37,19.34,19.34,0,0,0,2.14-2.76,22.1,22.1,0,0,0,2.93-7.54H149l-1.88,15.47h-43v-.46a26.29,26.29,0,0,0,3.74-.22,5.07,5.07,0,0,0,2.44-.95,3.82,3.82,0,0,0,1.3-2,11.29,11.29,0,0,0,.39-3.31V80.24a2.56,2.56,0,0,0,0-.39,1.72,1.72,0,0,1,0-.39q0-3.57-1.26-4.9c-.85-.89-2.35-1.4-4.52-1.53h-2.08v-.39H145.3V86.29h-.46v-.07c-.34-1.43-.74-2.92-1.2-4.48a13.27,13.27,0,0,0-2.11-4.26,10.91,10.91,0,0,0-3.9-3.18,14.21,14.21,0,0,0-6.5-1.27H118.91V98.44h9.29a7.41,7.41,0,0,0,4.39-1.26A8.53,8.53,0,0,0,136,91.62a16.71,16.71,0,0,0,.2-1.82v-.2h.45v18.14h-.45v-.2a18.35,18.35,0,0,0-.2-1.88,8.42,8.42,0,0,0-1-3,8.06,8.06,0,0,0-2.5-2.7,7.82,7.82,0,0,0-4.58-1.17h-9v17.81a7.62,7.62,0,0,1,.06,1.17,12.3,12.3,0,0,0,.3,3,4.14,4.14,0,0,0,1,1.89,4.2,4.2,0,0,0,1.79,1.07,10.18,10.18,0,0,0,2.73.42H132A16.32,16.32,0,0,0,136.78,123.53Z"/><path class="cls-1" d="M197.36,86.09V86c-.34-1.34-.73-2.74-1.17-4.19a14.94,14.94,0,0,0-1.91-4.06,10.73,10.73,0,0,0-3.45-3.19A13.09,13.09,0,0,0,185.14,73h-.58a5.8,5.8,0,0,0-4,1.6q-1.14,1.34-1.14,4.71v38.41a12.44,12.44,0,0,0,.3,3,4.16,4.16,0,0,0,1,1.92,4.2,4.2,0,0,0,1.79,1.07,10.11,10.11,0,0,0,2.73.42h2v.46H164.6v-.46a26.29,26.29,0,0,0,3.74-.22,4.87,4.87,0,0,0,2.41-1,4,4,0,0,0,1.26-1.95,11.29,11.29,0,0,0,.39-3.31V79.33a12.42,12.42,0,0,0-.29-3,4.11,4.11,0,0,0-1-1.88,4,4,0,0,0-1.79-1,13.77,13.77,0,0,0-2.73-.46h-.39a12.87,12.87,0,0,0-5.66,1.56,11.12,11.12,0,0,0-3.44,3.19,14.21,14.21,0,0,0-1.95,4.06c-.43,1.45-.8,2.85-1.11,4.19v.13h-.45V72.44h44.2V86.09Z"/><path class="cls-1" d="M195,124.05l1.14-.13a7.65,7.65,0,0,0,2.54-.87,13.48,13.48,0,0,0,3.08-2.31,12.58,12.58,0,0,0,2.8-4.49l17.48-43.68h.52L240,116.12a28.55,28.55,0,0,0,2.15,4.39,8.86,8.86,0,0,0,1.95,2.28,4.42,4.42,0,0,0,2,.91l2.31.35v.46H227.07v-.46c1.56-.08,2.89-.18,4-.29a4.51,4.51,0,0,0,2.5-.88,2.55,2.55,0,0,0,.71-2.3A17.72,17.72,0,0,0,233,116l-4.81-12.09H210l-4.94,12.29a6.15,6.15,0,0,0-.55,3.28,4.3,4.3,0,0,0,1,2.21,5.35,5.35,0,0,0,1.92,1.37,12.27,12.27,0,0,0,2.21.71,11.46,11.46,0,0,0,1.85.26l.85,0v.46H195Zm24.12-42.77-8.91,22.17H228Z"/><path class="cls-1" d="M256.16,124a5,5,0,0,0,2.43-.95,3.82,3.82,0,0,0,1.3-2,11.29,11.29,0,0,0,.39-3.31V79.46q0-3.57-1.26-4.9T254.5,73h-2.08v-.39H275V73h0V73h-2.6a6.19,6.19,0,0,0-4.06,1.62c-.76.87-1.14,2.45-1.14,4.75v38.41a12.89,12.89,0,0,0,.29,3,3.83,3.83,0,0,0,2.8,3,10.42,10.42,0,0,0,2.76.42h2v.46H252.42v-.46A26.39,26.39,0,0,0,256.16,124Z"/><path class="cls-1" d="M321.38,124.64H279.46v-.46a25.59,25.59,0,0,0,3.7-.22,5,5,0,0,0,2.41-.95,3.88,3.88,0,0,0,1.3-2,11.29,11.29,0,0,0,.39-3.31V79.46c0-2.38-.44-4-1.3-4.9s-2.39-1.4-4.55-1.53h-2v-.39H302V73h0V73h-2.66a8.74,8.74,0,0,0-2.41.52,4.08,4.08,0,0,0-1.59,1.1,4.26,4.26,0,0,0-.88,1.89,13.61,13.61,0,0,0-.26,2.86v38.41a12.89,12.89,0,0,0,.29,3,3.85,3.85,0,0,0,2.77,3,10.26,10.26,0,0,0,2.79.42h6.5a16.32,16.32,0,0,0,4.81-.65,15.19,15.19,0,0,0,3.8-1.69,14.14,14.14,0,0,0,2.9-2.37,20.09,20.09,0,0,0,2.14-2.76,23.25,23.25,0,0,0,3-7.54h.46l-1.89,15.47Z"/><path class="cls-1" d="M328.21,108.13h.52a15.46,15.46,0,0,0,.32,3,24.12,24.12,0,0,0,.91,3.32,20.38,20.38,0,0,0,1.43,3.15,8.93,8.93,0,0,0,1.89,2.4,15.3,15.3,0,0,0,4.68,2.83,16.08,16.08,0,0,0,5.52,1.07h.59a17.65,17.65,0,0,0,5.52-1.1,10.53,10.53,0,0,0,4.42-3.71,9.64,9.64,0,0,0,1.72-5.16,10.08,10.08,0,0,0-1.52-5.53,13,13,0,0,0-5.33-4.71l-8.19-4.23a23.78,23.78,0,0,1-6.5-4.58,15.59,15.59,0,0,1-3.42-5.13,11.28,11.28,0,0,1-.74-5.24,12.07,12.07,0,0,1,1.56-4.87,14.08,14.08,0,0,1,3.47-4,17.93,17.93,0,0,1,5-2.8,11.84,11.84,0,0,1,2.6-.71,17.81,17.81,0,0,1,2.66-.2A15.68,15.68,0,0,1,351.15,73c.69.26,1.43.52,2.21.78a8.8,8.8,0,0,0,2.34.45,4.6,4.6,0,0,0,2.21-.39,4.09,4.09,0,0,0,1.82-1.75h.46v14.1h-.52a10.24,10.24,0,0,0-.43-2.86,16.18,16.18,0,0,0-1.13-2.89,17.55,17.55,0,0,0-1.63-2.6,15.64,15.64,0,0,0-1.82-2.05,13.06,13.06,0,0,0-4.29-2.56,14.53,14.53,0,0,0-5.07-.88,15.54,15.54,0,0,0-2.24.16,13.59,13.59,0,0,0-2.18.49,9.38,9.38,0,0,0-4.65,3.12,6.66,6.66,0,0,0-1.36,4.94,11.52,11.52,0,0,0,2.89,6,29,29,0,0,0,8.13,6.27l7.47,3.83A19,19,0,0,1,359,101.6a13.69,13.69,0,0,1,2.86,5.36,11.62,11.62,0,0,1,.06,5.59,12,12,0,0,1-2.7,5.17,17.6,17.6,0,0,1-5.42,4.09,25.44,25.44,0,0,1-8.13,2.37h.13c-.34,0-.66.08-.94.1s-.57,0-.88,0h-.65a14.84,14.84,0,0,1-5.65-1.1v0a4.85,4.85,0,0,1-.65-.26,12.05,12.05,0,0,0-4.29-1,5.53,5.53,0,0,0-2.51.52,2.82,2.82,0,0,0-1.2,1.17c-.22.46-.34.75-.39.88v.06h-.45Z"/><path class="cls-2" d="M143.83,41.58a3,3,0,0,1-.36,1.84c-.3.54-.59,1.08-.87,1.63s-.4,1.1-.61,1.68-.44,1.17-.71,1.79q-1.34,3.57-2.7,7.75c-.92,2.79-1.89,5.47-2.91,8.06-.34.81-.73,1.73-1.17,2.75a2.47,2.47,0,0,1-2.2,1.63,3.19,3.19,0,0,1-1.78-1.17,7.16,7.16,0,0,1-1.07-2,12.78,12.78,0,0,1-.62-2.4c-.13-.85-.3-1.68-.5-2.5q-.53-2.55-1-5.1a12.61,12.61,0,0,0-1.59-4.38A4.79,4.79,0,0,0,124,52.85c-.44.71-.87,1.45-1.28,2.19A59.26,59.26,0,0,0,119.4,62,51.43,51.43,0,0,1,116,68.92a2.46,2.46,0,0,1-2.55,1.22A3.15,3.15,0,0,1,111,68.51a12.51,12.51,0,0,1-1.32-5.15,47,47,0,0,1,0-6.28c.14-2.1.36-4.11.66-6a23,23,0,0,1,1.28-4.9,2.69,2.69,0,0,0,.81-.71,1.13,1.13,0,0,1,1.13-.31,2.18,2.18,0,0,1,1.88,2.19,11.1,11.1,0,0,1,0,1.89c-.07.68-.14,1.36-.2,2q-.51,3.16-.82,6.63a43.54,43.54,0,0,0-.1,6.63A57.05,57.05,0,0,0,117.72,58a42.85,42.85,0,0,1,3.87-6.88,12.57,12.57,0,0,1,1.18-1.43,5,5,0,0,1,1.48-1.12,3.12,3.12,0,0,1,1.68-.36,3.26,3.26,0,0,1,1.78.76,10,10,0,0,1,1.89,3.42,31.54,31.54,0,0,1,1.07,4.18c.27,1.47.53,3,.77,4.49a28.66,28.66,0,0,0,1,4.23,40.94,40.94,0,0,0,2.66-5.81c.74-2,1.51-4.11,2.29-6.22s1.58-4.17,2.4-6.17a37.92,37.92,0,0,1,2.85-5.66.63.63,0,0,1,.72-.16A.88.88,0,0,1,143.83,41.58Z"/><path class="cls-2" d="M160.05,45.86c-1.3,1.7-2.55,3.54-3.78,5.51s-2.45,3.88-3.67,5.71c-.88,1.3-1.8,2.69-2.75,4.19a20.85,20.85,0,0,1-3.27,4,7,7,0,0,1-1.43,1.28,2.2,2.2,0,0,1-1.93.25,2.74,2.74,0,0,1-1.43-2.24,31.15,31.15,0,0,1,1.89-8.87,40.47,40.47,0,0,1,3.62-7.55c.47-.75,1-1.5,1.58-2.25a5.57,5.57,0,0,1,1.88-1.63,2.92,2.92,0,0,1,3.42.15c1,.79,1.34,2,1.07,3.73a5.77,5.77,0,0,0,1.18-1.63c.44-.82.91-1.65,1.42-2.5a17.1,17.1,0,0,1,1.64-2.3,2.82,2.82,0,0,1,1.78-1.12,2.17,2.17,0,0,1,.71.1l.62.21a4.79,4.79,0,0,1,1,1.93q-.21,6.12-.82,11.58T161.88,66v1.83c0,.75,0,1.5-.1,2.25a10.59,10.59,0,0,1-.36,2c-.17.57-.46.86-.86.86a1.14,1.14,0,0,1-1.07-.66A5,5,0,0,1,159,70.6a11.88,11.88,0,0,1-.16-2,10.15,10.15,0,0,0-.1-1.63,58.06,58.06,0,0,1,.2-10.81C159.33,52.63,159.71,49.2,160.05,45.86Zm-7.35.21c0-.07,0-.1-.1-.1a2.58,2.58,0,0,0-.56.25,3.2,3.2,0,0,1-.56.26,21.31,21.31,0,0,0-2.55,3.62,40.62,40.62,0,0,0-2,4.13c-.55,1.43-1.07,2.94-1.58,4.54a22.4,22.4,0,0,0-1,5.15,36.32,36.32,0,0,0,5.15-6.58q2.3-3.72,4.64-7.29a4.14,4.14,0,0,1-.51-2.2A1.73,1.73,0,0,0,152.7,46.07Z"/><path class="cls-2" d="M189,44.64a15.09,15.09,0,0,0-4.74,4.9q-1.78,3-3.82,5.91l-1.64,3.27a28.42,28.42,0,0,0-1.42,3.36,16.49,16.49,0,0,0-1.53,3.32,3.66,3.66,0,0,1-2.45,2.39h-.92a2.46,2.46,0,0,1-.87-.56,4.63,4.63,0,0,1-.66-.86,33.09,33.09,0,0,1-.15-4.19c0-1.49.1-3,.2-4.54s.27-3,.51-4.48.5-2.81.77-4a13.43,13.43,0,0,1,.61-2.25,1.94,1.94,0,0,1,1.63-1.32,1.26,1.26,0,0,1,1.17.92,5.5,5.5,0,0,1,.21,1.88,18.5,18.5,0,0,1-.26,2.25,12.17,12.17,0,0,0-.2,1.88c-.14,1.36-.26,2.59-.36,3.68s-.22,2.1-.36,3.06c1.16-1.91,2.55-4,4.19-6.43a64.3,64.3,0,0,1,5-6.43,25.31,25.31,0,0,1,1.79-2,7.1,7.1,0,0,1,2.09-1.47,2.91,2.91,0,0,1,1.89,0A1.57,1.57,0,0,1,190.85,44c.14.81-.07,1.26-.61,1.32A1.14,1.14,0,0,1,189,44.64Z"/><path class="cls-2" d="M209.72,44.64a15.09,15.09,0,0,0-4.74,4.9q-1.78,3-3.83,5.91l-1.63,3.27a28.48,28.48,0,0,0-1.43,3.36,17.66,17.66,0,0,0-1.53,3.32,3.64,3.64,0,0,1-2.45,2.39h-.92a2.51,2.51,0,0,1-.86-.56,4.24,4.24,0,0,1-.66-.86,33,33,0,0,1-.16-4.19c0-1.49.1-3,.21-4.54s.27-3,.51-4.48.49-2.81.76-4a14.46,14.46,0,0,1,.61-2.25,2,2,0,0,1,1.63-1.32,1.26,1.26,0,0,1,1.18.92,5.28,5.28,0,0,1,.2,1.88,18.42,18.42,0,0,1-.25,2.25,11.22,11.22,0,0,0-.21,1.88c-.13,1.36-.25,2.59-.35,3.68s-.23,2.1-.36,3.06c1.15-1.91,2.55-4,4.18-6.43a64.34,64.34,0,0,1,5-6.43,25.15,25.15,0,0,1,1.78-2,7.28,7.28,0,0,1,2.1-1.47,2.88,2.88,0,0,1,1.88,0A1.57,1.57,0,0,1,211.56,44c.13.81-.07,1.26-.62,1.32A1.12,1.12,0,0,1,209.72,44.64Z"/><path class="cls-2" d="M227,45.86c-1.3,1.7-2.55,3.54-3.78,5.51s-2.45,3.88-3.67,5.71c-.88,1.3-1.8,2.69-2.75,4.19a20.85,20.85,0,0,1-3.27,4,7,7,0,0,1-1.43,1.28,2.2,2.2,0,0,1-1.93.25,2.74,2.74,0,0,1-1.43-2.24,31.48,31.48,0,0,1,1.88-8.87,41.11,41.11,0,0,1,3.63-7.55c.47-.75,1-1.5,1.58-2.25a5.57,5.57,0,0,1,1.88-1.63,2.92,2.92,0,0,1,3.42.15c1,.79,1.34,2,1.07,3.73a5.59,5.59,0,0,0,1.17-1.63c.45-.82.92-1.65,1.43-2.5a17.1,17.1,0,0,1,1.64-2.3,2.82,2.82,0,0,1,1.78-1.12,2.17,2.17,0,0,1,.71.1l.62.21a4.79,4.79,0,0,1,1,1.93q-.21,6.12-.82,11.58T228.79,66v1.83c0,.75,0,1.5-.1,2.25a10.59,10.59,0,0,1-.36,2c-.17.57-.46.86-.86.86a1.14,1.14,0,0,1-1.07-.66,5,5,0,0,1-.51-1.63,11.88,11.88,0,0,1-.16-2,10.15,10.15,0,0,0-.1-1.63,58.06,58.06,0,0,1,.2-10.81C226.24,52.63,226.62,49.2,227,45.86Zm-7.35.21c0-.07,0-.1-.1-.1a2.58,2.58,0,0,0-.56.25,3.2,3.2,0,0,1-.56.26,21.31,21.31,0,0,0-2.55,3.62,40.62,40.62,0,0,0-2,4.13c-.55,1.43-1.07,2.94-1.58,4.54a22.4,22.4,0,0,0-1,5.15,36.32,36.32,0,0,0,5.15-6.58q2.29-3.72,4.64-7.29a4.14,4.14,0,0,1-.51-2.2A1.73,1.73,0,0,0,219.61,46.07Z"/><path class="cls-2" d="M240.83,63q2-3.87,4.08-7.91a38.12,38.12,0,0,1,4.79-7.29c.27-.34.61-.75,1-1.22a7.3,7.3,0,0,1,1.33-1.23,4.44,4.44,0,0,1,1.58-.71,3.1,3.1,0,0,1,1.89.2A4.67,4.67,0,0,1,257.76,48q.71,2.45,1.22,4.89c.14.75.29,1.53.46,2.35s.36,1.63.56,2.45a18.12,18.12,0,0,0,.82,2.29A2.22,2.22,0,0,0,262,61.37a1.72,1.72,0,0,0,1.53-.36,15,15,0,0,1,1.23-.87c.41-.34.78-.62,1.12-.86a7.88,7.88,0,0,0,1-.87,43.22,43.22,0,0,0,4.28-4.28,51.92,51.92,0,0,1,4.29-4.39,18.4,18.4,0,0,1,1.78-1.17,2.59,2.59,0,0,1,1.23-.36c.37,0,.59.24.66.71s-.15.75-.66,1a5.56,5.56,0,0,0-1.18.82,25.49,25.49,0,0,0-2.85,2.91q-1.42,1.68-3.06,3.41c-.55.55-1.07,1.06-1.58,1.53s-1,1-1.58,1.53c-.89.89-1.84,1.76-2.86,2.6a6,6,0,0,1-4,1.28,4,4,0,0,0-.46-.2,1.43,1.43,0,0,0-.56-.11,6.22,6.22,0,0,1-2.5-3.16,32.2,32.2,0,0,1-1.27-4.33c-.34-1.53-.66-3.06-1-4.59a14.24,14.24,0,0,0-1.48-4.13,6,6,0,0,0-2.65,2.29,30.62,30.62,0,0,1-2,2.91A47.33,47.33,0,0,0,246,59q-1.53,3.38-3,6.94a6.15,6.15,0,0,0-.71,1.58,17.93,17.93,0,0,1-.72,1.89A5.31,5.31,0,0,1,240.57,71a1.9,1.9,0,0,1-1.78.46,1.71,1.71,0,0,1-1.38-1.08,6.3,6.3,0,0,1-.56-2.24,24.63,24.63,0,0,1,0-2.75c0-1,.09-1.89.15-2.71.27-3.26.65-6.44,1.12-9.53A58.21,58.21,0,0,1,240,44.64q.41-1.12.72-2a1.42,1.42,0,0,1,1.32-1,1.17,1.17,0,0,1,1.28.56,3,3,0,0,1,.3,1.58,10.93,10.93,0,0,1-.3,2c-.17.71-.29,1.31-.36,1.79-.48,2.58-.88,5.16-1.22,7.75S241.1,60.42,240.83,63Z"/><path class="cls-2" d="M283.05,34.64q8.77-.3,18.26-.91a133.47,133.47,0,0,1,18.87.1c.34,0,.72,0,1.12.05a.88.88,0,0,1,.82.56c-.07.54-.32.82-.76.82a5.85,5.85,0,0,1-1.18-.11,182.6,182.6,0,0,0-18.87.16q-9.37.55-18.46,1.07-1.43,8.35-2.6,17a125.34,125.34,0,0,0-1.07,18.16c0,.88,0,1.87.1,3a20.56,20.56,0,0,0,.41,3.06c.13.74.36,1.66.66,2.75s.77,1.66,1.38,1.73a1.34,1.34,0,0,0,1.07-.3,10.76,10.76,0,0,0,1.12-1,12.2,12.2,0,0,0,1-1.17c.31-.41.53-.72.66-.92a99.27,99.27,0,0,0,7.3-10.87q3.21-5.55,6.78-11.57c.61-1.09,1.26-2.21,1.94-3.37s1.43-2.31,2.24-3.47a10.05,10.05,0,0,1,.92-1.17.91.91,0,0,1,1-.36c.54.28.65.7.31,1.28a14.66,14.66,0,0,1-.82,1.27q-2.55,4.29-4.79,8.67t-4.8,8.67q-1.43,2.35-2.8,4.75C292,74.13,291,75.72,290,77.28s-2.07,3.09-3.16,4.59a11,11,0,0,1-4.18,3.47,6,6,0,0,1-2.15,0A6.31,6.31,0,0,1,277,81.51a27.56,27.56,0,0,1-1.38-5.76A44,44,0,0,1,275.1,69c0-2.35.07-4.64.2-6.89q.51-6.82,1.38-13.21t2.09-12.19q-4.69.21-9.54.72t-9.84.71c-.41,0-.87,0-1.38,0s-.79-.22-.86-.76a.72.72,0,0,1,.81-.82,8.58,8.58,0,0,0,1.43-.1c3.2-.2,6.46-.48,9.79-.82s6.63-.57,9.9-.71q.6-2.14,1.37-5.05a40.88,40.88,0,0,1,1.79-5.35,7.62,7.62,0,0,1,.76-1.69,1.64,1.64,0,0,1,1.38-1,1.06,1.06,0,0,1,1,.41,1.49,1.49,0,0,1,.2,1,7.17,7.17,0,0,1-.2,1.17c-.1.41-.19.79-.26,1.13-.34,1.49-.68,3-1,4.64S283.39,33.28,283.05,34.64Z"/><path class="cls-2" d="M324.67,68.71q3.87-4.18,7.6-8.82t7.5-9.23l2.44-3.06a4.53,4.53,0,0,0,1.28-1.53,1.42,1.42,0,0,1,1.89-.61.85.85,0,0,1-.11,1.17,3,3,0,0,0-.71.87q-5,6.72-10.15,13.1T323.85,73.4q-1.62,9.5-3.72,18.62a66.93,66.93,0,0,1-6,16.47c-.88,1.56-1.82,3.08-2.8,4.54a12.18,12.18,0,0,1-3.83,3.62,13.09,13.09,0,0,1-1.68.51,4.75,4.75,0,0,1-2,0,5.06,5.06,0,0,1-3-3.11,12.45,12.45,0,0,1-.61-4.84,26.61,26.61,0,0,1,.87-5.36,39,39,0,0,1,1.53-4.74,51,51,0,0,1,2.45-5.2c.88-1.64,1.7-3.13,2.44-4.49a97.44,97.44,0,0,1,6.07-8.67q3.22-4.08,6.58-8,1.43-7.55,2.76-15.09t2.14-15.61a2.23,2.23,0,0,0-1,1,11.57,11.57,0,0,1-1,1.38A38.27,38.27,0,0,0,319.93,49q-1.49,2.44-3,4.84t-3.21,4.64a25.51,25.51,0,0,1-3.83,4.08,2.3,2.3,0,0,0-.82.31,2.18,2.18,0,0,1-.81.3h-1.12a3.67,3.67,0,0,1-2.45-1.78A9.88,9.88,0,0,1,303.4,58a17.78,17.78,0,0,1-.2-4.23,22.15,22.15,0,0,1,.66-4.18,5.88,5.88,0,0,1,.77-1.94,1.55,1.55,0,0,1,1.58-.82,1,1,0,0,1,1,.72,5,5,0,0,1,.25,1.68,14.75,14.75,0,0,1-.15,2,13.72,13.72,0,0,0-.15,1.89c0,1.22,0,2.44.05,3.67a6.4,6.4,0,0,0,.76,3.06,13.59,13.59,0,0,0,4.95-4.44q1.89-2.8,4-5.46a32,32,0,0,1,1.94-2.7,31.92,31.92,0,0,0,1.93-2.7,10.06,10.06,0,0,0,2-2.71,4.39,4.39,0,0,1,2.45-2.19c.61-.2,1.12.07,1.53.82a5.4,5.4,0,0,1,.56,3.31c-.1,1.47-.18,2.77-.25,3.93q-.51,5.31-1.12,11T324.67,68.71ZM308.45,94a54.12,54.12,0,0,0-3.06,6.63,29.61,29.61,0,0,0-1.83,8,18.16,18.16,0,0,0,0,2.76,2.8,2.8,0,0,0,1.32,2.24,7.53,7.53,0,0,0,3.27-2.8,42,42,0,0,0,2.24-3.93,67.86,67.86,0,0,0,5.1-13.62q1.93-7.39,3.57-14.84c0-.07,0-.1-.1-.1q-2.76,3.57-5.46,7.45A82.54,82.54,0,0,0,308.45,94Z"/><path class="cls-2" d="M1.64,16a4.46,4.46,0,0,0,1.75,1.75,5.19,5.19,0,0,0,2.46.57A5,5,0,0,0,7.46,18a4.27,4.27,0,0,0,1.31-.73,3.38,3.38,0,0,0,.89-1.13,3.31,3.31,0,0,0,.32-1.5,2.83,2.83,0,0,0-.4-1.58,3.23,3.23,0,0,0-1.08-1A7.87,7.87,0,0,0,7,11.38l-1.74-.57c-.6-.19-1.18-.41-1.74-.65A5.65,5.65,0,0,1,2,9.21,4.13,4.13,0,0,1,.9,7.74,5.23,5.23,0,0,1,.49,5.56,4.6,4.6,0,0,1,1,3.39,4.67,4.67,0,0,1,2.27,1.8a6,6,0,0,1,1.89-1A7.54,7.54,0,0,1,6.4.51a7.15,7.15,0,0,1,2.79.54,5.24,5.24,0,0,1,2.22,1.78L9.93,3.89A4.34,4.34,0,0,0,8.41,2.53a4.45,4.45,0,0,0-2.07-.46,5.85,5.85,0,0,0-1.58.22,4.12,4.12,0,0,0-1.31.65A3.14,3.14,0,0,0,2.55,4a3.27,3.27,0,0,0-.34,1.54,3,3,0,0,0,.7,2.12A5,5,0,0,0,4.67,8.85,19.85,19.85,0,0,0,7,9.6a11.46,11.46,0,0,1,2.28.87A5,5,0,0,1,11,12a4.52,4.52,0,0,1,.7,2.69,5,5,0,0,1-.47,2.21A4.73,4.73,0,0,1,10,18.52a5.6,5.6,0,0,1-1.83,1A7.12,7.12,0,0,1,6,19.86a8.55,8.55,0,0,1-3.35-.64A6.11,6.11,0,0,1,0,17.08Z"/><path class="cls-2" d="M14.85,1h1.71V19.39H14.85Z"/><path class="cls-2" d="M20.85,1H32.11V2.54H22.57V9.09h8.94v1.56H22.57v7.18h10v1.56H20.85Z"/><path class="cls-2" d="M35.52,1h2.21L48.93,17.1h0V1H50.7V19.39H48.49L37.28,3.27h-.05V19.39H35.52Z"/><path class="cls-2" d="M59.07,2.54H52.78V1h14.3V2.54H60.79V19.39H59.07Z"/><path class="cls-2" d="M69.16,1H74l1,0a10.07,10.07,0,0,1,1.36.15,9,9,0,0,1,1.48.42,4.28,4.28,0,0,1,1.35.83,4.43,4.43,0,0,1,1,1.38,4.74,4.74,0,0,1,.39,2A4.55,4.55,0,0,1,80.09,8,4.14,4.14,0,0,1,79,9.39a4.93,4.93,0,0,1-1.52.8,10.51,10.51,0,0,1-1.59.36l5.36,8.84h-2l-5.18-8.74H70.88v8.74H69.16Zm1.72,8.11h3.64a6.08,6.08,0,0,0,2.19-.33A3.75,3.75,0,0,0,78,7.92a2.6,2.6,0,0,0,.63-1.06,3.81,3.81,0,0,0,.17-1,3.81,3.81,0,0,0-.17-1A2.63,2.63,0,0,0,78,3.71a3.61,3.61,0,0,0-1.32-.83,5.85,5.85,0,0,0-2.19-.34H70.88Z"/><path class="cls-2" d="M89.46,1h1.77L99,19.39H97.06l-2-4.89H85.3l-2.08,4.89H81.43Zm.81,1.87L86,12.94h8.45Z"/><path class="cls-1" d="M106.68,1H112a10.47,10.47,0,0,1,2,.22,6,6,0,0,1,1.92.77,4.26,4.26,0,0,1,1.43,1.49,4.68,4.68,0,0,1,.56,2.38A4.65,4.65,0,0,1,117.45,8a4.19,4.19,0,0,1-1.22,1.5,5.23,5.23,0,0,1-1.77.87,7.54,7.54,0,0,1-2.09.28h-4v8.74h-1.71Zm1.71,8.11h3.9a5.71,5.71,0,0,0,1.43-.17A3.62,3.62,0,0,0,115,8.38a2.84,2.84,0,0,0,.88-1,3.16,3.16,0,0,0,.34-1.54,2.92,2.92,0,0,0-.35-1.5,3.12,3.12,0,0,0-.91-1,3.85,3.85,0,0,0-1.28-.59,6.14,6.14,0,0,0-1.46-.18h-3.8Z"/><path class="cls-1" d="M120.85,1h1.71V17.83h8.58v1.56H120.85Z"/><path class="cls-1" d="M138.73,1h1.77l7.75,18.41h-1.92l-2-4.89h-9.75l-2.08,4.89H130.7Zm.81,1.87-4.29,10.09h8.45Z"/><path class="cls-1" d="M152.44,2.54h-6.3V1h14.3V2.54h-6.29V19.39h-1.71Z"/><path class="cls-1" d="M162.52,1h1.72V19.39h-1.72Z"/><path class="cls-1" d="M168.53,1h2.21L182,17.1H182V1h1.71V19.39H181.5L170.3,3.27h-.05V19.39h-1.72Z"/><path class="cls-1" d="M201.08,12.34a11.45,11.45,0,0,1-.34,2.84,6.36,6.36,0,0,1-1.13,2.39,5.64,5.64,0,0,1-2.08,1.66,8.24,8.24,0,0,1-6.32,0,5.72,5.72,0,0,1-2.08-1.66A6.68,6.68,0,0,1,188,15.18a11.94,11.94,0,0,1-.33-2.84V1h1.71V11.9a13.36,13.36,0,0,0,.18,2.11,6.5,6.5,0,0,0,.72,2.08,4.31,4.31,0,0,0,1.51,1.58,5.62,5.62,0,0,0,5.17,0,4.39,4.39,0,0,0,1.51-1.58,6.49,6.49,0,0,0,.71-2.08,12.33,12.33,0,0,0,.19-2.11V1h1.71Z"/><path class="cls-1" d="M204.85,1h2.58l6.7,15.45L220.84,1h2.45V19.39h-1.72V3.17h0l-7,16.22h-.76L206.62,3.17h-.05V19.39h-1.72Z"/><path class="cls-1" d="M226.22,16.09l7.15-6.92.65-.66a6,6,0,0,0,.61-.74,4.17,4.17,0,0,0,.46-.82,2.33,2.33,0,0,0,.18-.9,2.18,2.18,0,0,0-.22-1,2.44,2.44,0,0,0-.58-.76,3.07,3.07,0,0,0-.85-.48,3.13,3.13,0,0,0-1-.17,2.76,2.76,0,0,0-1.92.68,2.87,2.87,0,0,0-.91,1.82l-3.28-.26a6,6,0,0,1,.61-2.25A5,5,0,0,1,228.41,2a5.41,5.41,0,0,1,1.87-1,7.46,7.46,0,0,1,2.31-.34,8.25,8.25,0,0,1,2.33.32,5.64,5.64,0,0,1,1.89,1,4.46,4.46,0,0,1,1.27,1.62,5.4,5.4,0,0,1,.47,2.32,5.51,5.51,0,0,1-.8,3,11.23,11.23,0,0,1-2,2.4L230,16.58h8.53v2.81H226.22Z"/><path class="cls-1" d="M240.37,10.19a16.86,16.86,0,0,1,.35-3.74,10.22,10.22,0,0,1,.92-2.6,6.22,6.22,0,0,1,1.29-1.69,5.87,5.87,0,0,1,1.45-1,6.08,6.08,0,0,1,1.43-.43A8.17,8.17,0,0,1,247,.67a8.07,8.07,0,0,1,1.21.1,5.94,5.94,0,0,1,1.43.43,5.74,5.74,0,0,1,1.46,1,6.43,6.43,0,0,1,1.29,1.69,10.61,10.61,0,0,1,.92,2.6,17.48,17.48,0,0,1,.35,3.74,17.38,17.38,0,0,1-.35,3.73,10.61,10.61,0,0,1-.92,2.6,6.43,6.43,0,0,1-1.29,1.69,5.74,5.74,0,0,1-1.46,1,5.52,5.52,0,0,1-1.43.43,8.07,8.07,0,0,1-1.21.1,8.17,8.17,0,0,1-1.21-.1,5.64,5.64,0,0,1-1.43-.43,5.87,5.87,0,0,1-1.45-1,6.22,6.22,0,0,1-1.29-1.69,10.22,10.22,0,0,1-.92-2.6A16.76,16.76,0,0,1,240.37,10.19Zm3.12,0c0,.57,0,1.23.11,2a8.86,8.86,0,0,0,.49,2.15A4.5,4.5,0,0,0,245.15,16a2.86,2.86,0,0,0,3.75,0A4.63,4.63,0,0,0,250,14.32a9.35,9.35,0,0,0,.48-2.15,18.94,18.94,0,0,0,.12-2,19,19,0,0,0-.12-2A9.35,9.35,0,0,0,250,6.05a4.59,4.59,0,0,0-1.06-1.71,2.83,2.83,0,0,0-3.75,0,4.46,4.46,0,0,0-1.06,1.71,8.86,8.86,0,0,0-.49,2.15C243.53,9,243.49,9.61,243.49,10.19Z"/><path class="cls-1" d="M257.2.73h-2V0H260V.73h-2V6.25h-.82Zm4-.73h1.3l2,5,2-5h1.26V6.25h-.82V.77h0l-2.15,5.48h-.49L262,.77h0V6.25h-.82Z"/></g></g></svg>