<svg xmlns="http://www.w3.org/2000/svg" viewBox="0 0 482.11 133.12"><defs><style>.cls-1{fill:#ff8300;}.cls-2{fill:#53575a;}</style></defs><g id="Layer_2" data-name="Layer 2"><g id="Layer_1-2" data-name="Layer 1"><path class="cls-1" d="M0,111.27H.69a20.61,20.61,0,0,0,.43,4,30.79,30.79,0,0,0,1.2,4.39,27.11,27.11,0,0,0,1.89,4.17A12,12,0,0,0,6.71,127a20.37,20.37,0,0,0,6.19,3.74,21.17,21.17,0,0,0,7.31,1.42H21a23.52,23.52,0,0,0,7.31-1.46,14,14,0,0,0,5.85-4.9A12.88,12.88,0,0,0,36.42,119a13.36,13.36,0,0,0-2-7.31,17,17,0,0,0-7-6.23L16.51,99.84a31.86,31.86,0,0,1-8.6-6.07A20.45,20.45,0,0,1,3.4,87a15,15,0,0,1-1-6.92,16,16,0,0,1,2.06-6.45,18.9,18.9,0,0,1,4.6-5.34,23.46,23.46,0,0,1,6.58-3.69,15.24,15.24,0,0,1,3.44-.95,24,24,0,0,1,3.53-.26,21,21,0,0,1,7.74,1.46c.91.35,1.89.69,2.92,1a12.14,12.14,0,0,0,3.1.6A6.3,6.3,0,0,0,39.3,66a5.43,5.43,0,0,0,2.41-2.32h.6V82.29h-.69a13.64,13.64,0,0,0-.56-3.78,20.57,20.57,0,0,0-1.5-3.83,23.46,23.46,0,0,0-2.15-3.44A21.27,21.27,0,0,0,35,68.53a17.19,17.19,0,0,0-5.67-3.39A19.33,19.33,0,0,0,22.62,64a21.43,21.43,0,0,0-3,.22,18.86,18.86,0,0,0-2.88.64A12.36,12.36,0,0,0,10.62,69,8.85,8.85,0,0,0,8.81,75.5c.26,2.46,1.54,5.09,3.83,7.87s5.88,5.54,10.75,8.3l9.89,5.07a24.94,24.94,0,0,1,7.48,5.89,18,18,0,0,1,3.79,7.1,15.27,15.27,0,0,1,.08,7.39A15.79,15.79,0,0,1,41.06,124a23.3,23.3,0,0,1-7.18,5.42,33.79,33.79,0,0,1-10.75,3.14h.18c-.46,0-.88.1-1.25.12s-.76.05-1.16.05H20a19.81,19.81,0,0,1-7.48-1.46v0a5.82,5.82,0,0,1-.86-.35A15.93,15.93,0,0,0,6,129.55a7.23,7.23,0,0,0-3.31.69,3.56,3.56,0,0,0-1.59,1.55c-.29.6-.46,1-.52,1.16V133H0Z"/><path class="cls-1" d="M56.54,132.22A6.89,6.89,0,0,0,59.77,131a5.2,5.2,0,0,0,1.72-2.58A15.21,15.21,0,0,0,62,124V73.35c0-3.15-.55-5.32-1.67-6.49s-3.11-1.85-6-2H51.6v-.51H81.53v.43h0v.08H78.09c-2.58.29-4.38,1-5.38,2.15s-1.5,3.24-1.5,6.28v50.83a17.17,17.17,0,0,0,.38,3.95,5.46,5.46,0,0,0,1.29,2.5A5.68,5.68,0,0,0,75.29,132a14.53,14.53,0,0,0,3.66.56h2.66v.6h-30v-.6A34.27,34.27,0,0,0,56.54,132.22Z"/><path class="cls-1" d="M130.89,131.66a20.88,20.88,0,0,0,5-2.24,18.84,18.84,0,0,0,3.83-3.14,25.85,25.85,0,0,0,2.84-3.65,29.69,29.69,0,0,0,3.87-10h.6l-2.5,20.47H87.72v-.6a34.27,34.27,0,0,0,4.94-.3A6.89,6.89,0,0,0,95.89,131a5.2,5.2,0,0,0,1.72-2.58,15.21,15.21,0,0,0,.51-4.39V74.38a3.12,3.12,0,0,0,0-.52,2.92,2.92,0,0,1,0-.51c0-3.15-.56-5.32-1.68-6.49s-3.11-1.85-6-2H87.63v-.51h54.53V82.38h-.61v-.09q-.69-2.83-1.59-5.93a17.61,17.61,0,0,0-2.79-5.64A14.62,14.62,0,0,0,132,66.51a18.88,18.88,0,0,0-8.6-1.68H107.24V98.46h12.3a9.84,9.84,0,0,0,5.8-1.68,11.06,11.06,0,0,0,3.18-3.57,11.19,11.19,0,0,0,1.34-3.78,22.06,22.06,0,0,0,.26-2.41v-.26h.6v24h-.6v-.26a24.42,24.42,0,0,0-.26-2.49,11.2,11.2,0,0,0-1.38-3.92,10.91,10.91,0,0,0-3.31-3.57A10.37,10.37,0,0,0,119.11,99H107.24v23.56a8.85,8.85,0,0,1,.09,1.55,17.17,17.17,0,0,0,.38,3.95,5.46,5.46,0,0,0,1.29,2.5,5.59,5.59,0,0,0,2.37,1.42,14,14,0,0,0,3.61.56h9.55A22,22,0,0,0,130.89,131.66Z"/><path class="cls-1" d="M233,64.32v.6h-1.29a22.61,22.61,0,0,0-3.65.39,15.68,15.68,0,0,0-4.43,1.46,10.74,10.74,0,0,0-3.74,3.14,8.71,8.71,0,0,0-1.59,5.5v57.71h-.69L167,69.82v52.12a9,9,0,0,0,1.59,5.59,10.94,10.94,0,0,0,3.74,3.14,16,16,0,0,0,4.43,1.46,22.83,22.83,0,0,0,3.66.39h1.29v.6h-30.1v-.6h1.29a22.83,22.83,0,0,0,3.65-.39,16,16,0,0,0,4.43-1.46,10.94,10.94,0,0,0,3.74-3.14,9,9,0,0,0,1.59-5.59V73c0-1.37,0-2.56-.08-3.57a5,5,0,0,0-.78-2.53,4,4,0,0,0-2.28-1.51,17.29,17.29,0,0,0-4.6-.47h-2.66v-.6h18.4l43.26,53.75V75.41a8.77,8.77,0,0,0-1.59-5.5,10.92,10.92,0,0,0-3.74-3.14,15.89,15.89,0,0,0-4.43-1.46,22.83,22.83,0,0,0-3.66-.39h-1.29v-.6H233Z"/><path class="cls-1" d="M293.26,82.12V82q-.69-2.67-1.55-5.55A19.45,19.45,0,0,0,289.17,71a14.07,14.07,0,0,0-4.56-4.22,17.18,17.18,0,0,0-7.52-2.06h-.78q-3.78.34-5.28,2.11t-1.51,6.23v50.83a16.73,16.73,0,0,0,.39,3.91,5.51,5.51,0,0,0,1.29,2.54,5.62,5.62,0,0,0,2.36,1.42,13.65,13.65,0,0,0,3.61.55h2.67V133H249.91v-.61a34.52,34.52,0,0,0,5-.3A6.46,6.46,0,0,0,258,130.8a5.35,5.35,0,0,0,1.68-2.58,15.21,15.21,0,0,0,.51-4.39V73.18a17.21,17.21,0,0,0-.38-4,5.47,5.47,0,0,0-1.29-2.49,5.36,5.36,0,0,0-2.37-1.38,17.56,17.56,0,0,0-3.61-.6h-.52a16.87,16.87,0,0,0-7.48,2.06A14.71,14.71,0,0,0,240,71a19.28,19.28,0,0,0-2.58,5.37Q236.59,79.28,236,82v.17h-.6V64.06h58.48V82.12Z"/><path class="cls-1" d="M295.32,133.12v-.6h.09a34.46,34.46,0,0,0,4.94-.3,6.52,6.52,0,0,0,3.18-1.25,5.21,5.21,0,0,0,1.68-2.58,15.16,15.16,0,0,0,.52-4.39V73.35c0-3.15-.56-5.32-1.68-6.49s-3.11-1.85-6-2h-2.75v-.51h32.77a35.34,35.34,0,0,1,10,1.29,21.92,21.92,0,0,1,6.88,3.7,14.44,14.44,0,0,1,3.91,5.37,17.5,17.5,0,0,1,1.34,6.92q0,7.74-5.25,12.3a20.67,20.67,0,0,1-6.88,3.7,18.4,18.4,0,0,1-4,1c-1.4.17-2.88.31-4.43.43a12.86,12.86,0,0,1,3.83,1.8,19.59,19.59,0,0,1,4.6,4.73L354.23,128a8.56,8.56,0,0,0,2.88,2.53,16.62,16.62,0,0,0,3.27,1.38,13.2,13.2,0,0,0,2.79.56c.81.06,1.29.09,1.47.09h.08v.6h-17.2l-21-29.07a19.75,19.75,0,0,0-2.37-2.71,9.44,9.44,0,0,0-2.06-1.5,6.57,6.57,0,0,0-1.94-.69,10.54,10.54,0,0,0-2-.17H315v25.11a16.57,16.57,0,0,0,.39,3.95,5.46,5.46,0,0,0,1.29,2.5,5.59,5.59,0,0,0,2.37,1.42,13.9,13.9,0,0,0,3.61.56h2.66v.6h-30ZM315,98.46H327.4a12.36,12.36,0,0,0,7.22-2.15,13.85,13.85,0,0,0,1.94-1.76A15.13,15.13,0,0,0,338.41,92,21.33,21.33,0,0,0,340,87.32a25.55,25.55,0,0,0,.6-5.72q0-7.39-3.18-11.86a11.66,11.66,0,0,0-10.06-4.91h-5.59a11.76,11.76,0,0,0-3.18.69A5.39,5.39,0,0,0,316.52,67a5.64,5.64,0,0,0-1.16,2.5,17.62,17.62,0,0,0-.35,3.78v25.2Z"/><path class="cls-1" d="M368.68,132.34c.05,0,.56-.05,1.5-.17a10.26,10.26,0,0,0,3.36-1.16,17.82,17.82,0,0,0,4.08-3,16.82,16.82,0,0,0,3.7-5.94l23.13-57.79h.69l23.05,57.62a37.55,37.55,0,0,0,2.84,5.81,11.81,11.81,0,0,0,2.58,3,5.78,5.78,0,0,0,2.62,1.2l3,.47V133h-28.2v-.61c2.06-.11,3.82-.24,5.28-.38a6,6,0,0,0,3.32-1.16,3.41,3.41,0,0,0,.94-3.06,23.6,23.6,0,0,0-1.72-6.06l-6.36-16h-24L382,121.94a8.15,8.15,0,0,0-.73,4.34,5.68,5.68,0,0,0,1.33,2.92,7,7,0,0,0,2.54,1.81,15.49,15.49,0,0,0,2.92,1,15.29,15.29,0,0,0,2.45.34l1.12,0V133h-23Zm31.9-56.58L388.8,105.08h23.48Z"/><path class="cls-1" d="M477,67.59a14,14,0,0,1,5.16,11.35A15.34,15.34,0,0,1,481,84.79a24.54,24.54,0,0,1-2.88,5.2,37.14,37.14,0,0,1-3.91,4.6c-1.43,1.43-2.87,2.84-4.3,4.21q-1.72,1.64-3.31,3.19a37.78,37.78,0,0,0-2.8,3c-1.72,2.29-2.61,4.33-2.66,6.1.05,0,.08,0,.08.09h-.6a4.36,4.36,0,0,1,.09-1,3.11,3.11,0,0,0,.08-.65V109a18.63,18.63,0,0,1,2.88-6.71c1.47-2.17,3-4.42,4.52-6.75a57.05,57.05,0,0,0,4.17-7.39,19.82,19.82,0,0,0,1.85-8.56,28.44,28.44,0,0,0-.73-6.84,15.24,15.24,0,0,0-2-4.73,8.55,8.55,0,0,0-3-2.79,9.32,9.32,0,0,0-3.7-1.12h-.68a18.73,18.73,0,0,0-3.7.34,9,9,0,0,0-5.33,2.93A12.21,12.21,0,0,0,452.74,72a18,18,0,0,0-.56,5c.06,1.64.06,2.91,0,3.83a3.23,3.23,0,0,1-1.12,2.49,3.77,3.77,0,0,1-2.66,1,3.43,3.43,0,0,1-2.58-1.08,3.24,3.24,0,0,1-.95-2.54,15.56,15.56,0,0,1,1.64-6.62,19,19,0,0,1,4.3-5.59A19.22,19.22,0,0,1,457,64.75a20,20,0,0,1,7.18-1.29,24,24,0,0,1,7.13,1A22.3,22.3,0,0,1,477,67.59Zm-15.82,53.92a5.37,5.37,0,0,1,3.95,1.63,5.75,5.75,0,0,1,0,8,5.3,5.3,0,0,1-3.95,1.68H461a5.69,5.69,0,0,1-4-9.72,5.53,5.53,0,0,1,4-1.63Z"/><path class="cls-2" d="M110.59,24.4a3.43,3.43,0,0,1-.41,2.07c-.34.62-.67,1.23-1,1.84s-.46,1.25-.69,1.9-.5,1.32-.81,2c-1,2.69-2,5.6-3,8.74s-2.12,6.17-3.27,9.09c-.39.92-.83,2-1.33,3.1A2.75,2.75,0,0,1,97.59,55a3.68,3.68,0,0,1-2-1.32,8.44,8.44,0,0,1-1.21-2.24,14.34,14.34,0,0,1-.69-2.71c-.15-.95-.34-1.89-.57-2.81-.39-1.92-.75-3.84-1.1-5.75a14.21,14.21,0,0,0-1.78-4.95,5.4,5.4,0,0,0-2,1.9c-.5.8-1,1.63-1.44,2.47A67.2,67.2,0,0,0,83,47.4a56.24,56.24,0,0,1-3.85,7.82,2.76,2.76,0,0,1-2.87,1.38,3.49,3.49,0,0,1-2.76-1.84A13.87,13.87,0,0,1,72.06,49a55.59,55.59,0,0,1,0-7.07c.16-2.37.4-4.64.75-6.78a25.34,25.34,0,0,1,1.44-5.52,3.17,3.17,0,0,0,.92-.81,1.28,1.28,0,0,1,1.26-.34,2.64,2.64,0,0,1,1.55.86,2.7,2.7,0,0,1,.58,1.61A13,13,0,0,1,78.5,33c-.08.76-.15,1.53-.23,2.3-.38,2.37-.69,4.87-.92,7.47a48.3,48.3,0,0,0-.11,7.48,64.21,64.21,0,0,0,3.91-7.42,47.72,47.72,0,0,1,4.37-7.76,14.58,14.58,0,0,1,1.32-1.61,5.78,5.78,0,0,1,1.67-1.27,3.71,3.71,0,0,1,1.89-.4,3.75,3.75,0,0,1,2,.86,11.43,11.43,0,0,1,2.12,3.86,35.25,35.25,0,0,1,1.21,4.71c.31,1.65.59,3.33.86,5.06a32.21,32.21,0,0,0,1.1,4.77,47,47,0,0,0,3-6.55q1.26-3.45,2.58-7c.88-2.37,1.79-4.69,2.71-6.95a42.91,42.91,0,0,1,3.22-6.39A.7.7,0,0,1,110,24,1.06,1.06,0,0,1,110.59,24.4Z"/><path class="cls-2" d="M116.57,54.53c1.38-4.21,2.81-8.32,4.31-12.3A101.89,101.89,0,0,1,126,30.73a29.71,29.71,0,0,0,2.07-3.57,4.06,4.06,0,0,1,3-2.41,2.43,2.43,0,0,1,2.58.74,7.09,7.09,0,0,1,1.27,2.88,19.75,19.75,0,0,1,.46,3.79c0,1.35.09,2.52.17,3.51.08,2.23.19,4.47.35,6.73a9.67,9.67,0,0,0,1.61,5.23,11.29,11.29,0,0,0,4.14-3.91A45.84,45.84,0,0,1,145,39c.84-1.08,1.69-2.21,2.53-3.39s1.73-2.32,2.65-3.4l1.15-.86a1,1,0,0,1,1.38.17,1,1,0,0,1-.29,1.44,2.52,2.52,0,0,0-1,1.09,7.76,7.76,0,0,0-1,1.21,14.71,14.71,0,0,1-.86,1.21C148.27,38.16,147,40,145.72,42a57.45,57.45,0,0,1-4.08,5.63,17.91,17.91,0,0,1-2,1.9,3.36,3.36,0,0,1-2.76.75,3,3,0,0,1-1.38-.69,4.83,4.83,0,0,1-1-1.15,11.22,11.22,0,0,1-1.38-4.32c-.23-1.72-.39-3.54-.46-5.46s-.16-3.81-.23-5.69a19.29,19.29,0,0,0-.81-5,11.79,11.79,0,0,0-2.93,3.91q-1.09,2.29-2.13,4.83Q124,42.8,122,49.3t-3.74,13.63c-.23.84-.5,1.7-.8,2.58a3.13,3.13,0,0,1-1.73,1.9,2.37,2.37,0,0,1-1.44-.17,8.07,8.07,0,0,1-1-.63,8.12,8.12,0,0,1-.92-4.09c0-1.64,0-3.2-.12-4.65a110.67,110.67,0,0,1,.35-13.29q.57-6.84,1.49-13.74a111.82,111.82,0,0,1,2.47-12.24q1.56-5.93,3.28-11.79c.15-.54.33-1.17.52-1.9s.42-1.46.69-2.19a6.72,6.72,0,0,1,1-1.83A2.09,2.09,0,0,1,123.47,0a1.42,1.42,0,0,1,1.26.35,3.3,3.3,0,0,1,.69.92,2.49,2.49,0,0,1-.06,1.89,15.87,15.87,0,0,0-.63,2.13,25.8,25.8,0,0,0-.86,2.88,13.7,13.7,0,0,0-.29,3,.72.72,0,0,1-.4.46.67.67,0,0,0-.4.46,154.23,154.23,0,0,0-4.37,19.83A167.55,167.55,0,0,0,116.57,54.53Z"/><path class="cls-2" d="M171.65,55q4.36-4.71,8.57-10t8.45-10.4l2.76-3.45a5.31,5.31,0,0,0,1.44-1.73,1.62,1.62,0,0,1,2.12-.69,1,1,0,0,1-.11,1.33,3.52,3.52,0,0,0-.81,1q-5.62,7.59-11.44,14.78t-11.9,14.43q-1.84,10.69-4.2,21a75.61,75.61,0,0,1-6.73,18.57c-1,1.77-2.05,3.47-3.16,5.12a13.69,13.69,0,0,1-4.31,4.08,17.39,17.39,0,0,1-1.9.58,4.61,4.61,0,0,1-5.63-3.51,13.82,13.82,0,0,1-.69-5.46,30.5,30.5,0,0,1,1-6,48.35,48.35,0,0,1,1.73-5.35,57.64,57.64,0,0,1,2.76-5.86q1.49-2.76,2.76-5.06a108.21,108.21,0,0,1,6.84-9.78q3.63-4.59,7.42-9,1.6-8.51,3.1-17T172.11,25A2.36,2.36,0,0,0,171,26.07a12.52,12.52,0,0,1-1.1,1.55,46.36,46.36,0,0,0-3.62,5.18q-1.67,2.76-3.39,5.46c-1.15,1.8-2.36,3.55-3.62,5.23a28.94,28.94,0,0,1-4.32,4.6,2.53,2.53,0,0,0-.92.35,2.46,2.46,0,0,1-.92.34h-1.26a4.14,4.14,0,0,1-2.76-2,11.1,11.1,0,0,1-1.44-3.91,19.62,19.62,0,0,1-.23-4.77,26,26,0,0,1,.75-4.72,6.66,6.66,0,0,1,.86-2.18,1.75,1.75,0,0,1,1.78-.92,1.1,1.1,0,0,1,1.1.8,5.72,5.72,0,0,1,.28,1.9,15.59,15.59,0,0,1-.17,2.3,16,16,0,0,0-.17,2.13q0,2.07.06,4.14a7,7,0,0,0,.86,3.45,15.32,15.32,0,0,0,5.58-5c1.41-2.1,2.93-4.15,4.54-6.15a36.8,36.8,0,0,1,2.18-3,36.41,36.41,0,0,0,2.19-3.05,11.76,11.76,0,0,0,2.3-3,4.92,4.92,0,0,1,2.76-2.47c.69-.23,1.26.07,1.72.92a6.19,6.19,0,0,1,.64,3.73c-.12,1.65-.22,3.13-.29,4.43q-.58,6-1.27,12.36T171.65,55ZM153.36,83.51A64.76,64.76,0,0,0,149.91,91a33.61,33.61,0,0,0-2.07,9,22.9,22.9,0,0,0,0,3.1,3.18,3.18,0,0,0,1.5,2.53,8.42,8.42,0,0,0,3.68-3.16A45.75,45.75,0,0,0,155.55,98a77.09,77.09,0,0,0,5.75-15.35q2.17-8.34,4-16.73c0-.08,0-.12-.11-.12-2.07,2.69-4.12,5.48-6.15,8.4A92.73,92.73,0,0,0,153.36,83.51Z"/><path class="cls-2" d="M226.39,34.75a1.53,1.53,0,0,1-1.33-.11,3.1,3.1,0,0,1-.86-.87,4.94,4.94,0,0,1-.57-1.15,4.49,4.49,0,0,0-.58-1.09,9,9,0,0,0-3.91,3.74,28.06,28.06,0,0,0-2.41,5.46,24.93,24.93,0,0,0-.81,3.16,22.82,22.82,0,0,0-.4,3.57,11.92,11.92,0,0,0,.34,3.33,3.81,3.81,0,0,0,1.67,2.36,9.6,9.6,0,0,0,5.18-1.95,47.54,47.54,0,0,1,4-3q4-3,7.82-6.15t7.71-6.39c.61-.46,1.24-1,1.89-1.49s1.33-1,2-1.5a4.14,4.14,0,0,1,1-.69c.41-.23.82-.46,1.2-.69a10.77,10.77,0,0,0,1.21-.57.75.75,0,0,1,1.09.34c.23.62.13,1-.29,1.27a5,5,0,0,0-1.09.8c-1.07.77-2.09,1.55-3.05,2.36L243.29,38q-4.26,3.57-8.45,7.65a96,96,0,0,1-8.91,7.65,35.34,35.34,0,0,1-4.37,2.81,7.21,7.21,0,0,1-5.64.41A5.88,5.88,0,0,1,213,53.21a15.5,15.5,0,0,1-1-5,23.23,23.23,0,0,1,.46-5.52,29.89,29.89,0,0,1,1.5-5.11,21.58,21.58,0,0,1,6.32-9.09c.38-.15.69-.29.92-.4a3.7,3.7,0,0,1,.92-.29q.12,0,.12-.06s0-.05.11-.05h1a4.2,4.2,0,0,1,.92.11,4.37,4.37,0,0,1,2.53,3.34,8.43,8.43,0,0,0,0,2A1.65,1.65,0,0,1,226.39,34.75Z"/><path class="cls-2" d="M251.11,54.53c1.38-4.21,2.82-8.32,4.31-12.3a103.71,103.71,0,0,1,5.12-11.5,29.71,29.71,0,0,0,2.07-3.57,4.08,4.08,0,0,1,3-2.41,2.45,2.45,0,0,1,2.59.74,7.09,7.09,0,0,1,1.26,2.88,19.75,19.75,0,0,1,.46,3.79q.06,2,.18,3.51c.07,2.23.19,4.47.34,6.73A9.67,9.67,0,0,0,272,47.63a11.29,11.29,0,0,0,4.14-3.91A47.55,47.55,0,0,1,279.52,39c.84-1.08,1.68-2.21,2.53-3.39s1.72-2.32,2.64-3.4l1.15-.86a1,1,0,0,1,1.38.17,1,1,0,0,1-.29,1.44,2.56,2.56,0,0,0-1,1.09,7.22,7.22,0,0,0-1,1.21c-.27.42-.56.82-.86,1.21-1.31,1.68-2.59,3.52-3.86,5.52a54.33,54.33,0,0,1-4.08,5.63,18.69,18.69,0,0,1-1.95,1.9,3.36,3.36,0,0,1-2.76.75,3,3,0,0,1-1.38-.69,4.89,4.89,0,0,1-1-1.15,11.22,11.22,0,0,1-1.38-4.32c-.23-1.72-.38-3.54-.46-5.46s-.15-3.81-.23-5.69a19.31,19.31,0,0,0-.8-5,11.82,11.82,0,0,0-2.94,3.91q-1.08,2.29-2.12,4.83-2.53,6.09-4.55,12.59t-3.73,13.63q-.34,1.26-.81,2.58a3.12,3.12,0,0,1-1.72,1.9,2.35,2.35,0,0,1-1.44-.17,8.19,8.19,0,0,1-1-.63,8.22,8.22,0,0,1-.92-4.09c0-1.64,0-3.2-.11-4.65a110.62,110.62,0,0,1,.34-13.29c.39-4.56.88-9.14,1.5-13.74a109.51,109.51,0,0,1,2.47-12.24q1.54-5.93,3.28-11.79c.15-.54.32-1.17.51-1.9s.42-1.46.69-2.19a7,7,0,0,1,1-1.83A2.09,2.09,0,0,1,258,0a1.43,1.43,0,0,1,1.27.35,3.75,3.75,0,0,1,.69.92,2.49,2.49,0,0,1-.06,1.89,15.87,15.87,0,0,0-.63,2.13,24.06,24.06,0,0,0-.87,2.88,13.75,13.75,0,0,0-.28,3,.73.73,0,0,1-.41.46.69.69,0,0,0-.4.46A154.23,154.23,0,0,0,253,31.93,169.2,169.2,0,0,0,251.11,54.53Z"/><path class="cls-2" d="M291.82,28.08A9,9,0,0,1,298,30.5a11.07,11.07,0,0,1,2.82,5.86c2.45-.46,5-1,7.65-1.55s5.23-1.17,7.76-1.78a7.84,7.84,0,0,0,1.15-.41,9.67,9.67,0,0,1,1.44-.46,4.19,4.19,0,0,1,1.32-.11,1,1,0,0,1,.81.52.72.72,0,0,1-.23.92,5.35,5.35,0,0,1-1.15.63,9.09,9.09,0,0,1-1.5.46,9.67,9.67,0,0,0-1.15.29c-2.45.76-5,1.44-7.76,2S303.7,38,301,38.55a24.07,24.07,0,0,1-1,8.34A29.11,29.11,0,0,1,296.88,54a36.33,36.33,0,0,1-4.43,5.52,12.83,12.83,0,0,1-6,3.45h-1.73a4.52,4.52,0,0,1-1.95-.87,16.07,16.07,0,0,1-1.5-1.32,10.1,10.1,0,0,1-1.78-5,29.71,29.71,0,0,1,.06-6.1,55.84,55.84,0,0,1,1-6.21q.69-3,1.27-5.46a4.52,4.52,0,0,1-.06-4.14,9,9,0,0,1,2.24-3,18.94,18.94,0,0,0,.86-2.41,20.9,20.9,0,0,1,1-2.65,7.8,7.8,0,0,1,1.44-2.18,2.9,2.9,0,0,1,2.24-.92,2.24,2.24,0,0,1,2.3,1.67A6.23,6.23,0,0,1,291.82,28.08ZM286.3,40c-.38,2.23-.86,4.62-1.44,7.19a28.78,28.78,0,0,0-.63,7.88,10.68,10.68,0,0,0,.4,2,2.84,2.84,0,0,0,1.1,1.5A9,9,0,0,0,291,55.8c1.3-1.46,2.53-2.95,3.68-4.49a45.32,45.32,0,0,0,2.76-5.58,13.93,13.93,0,0,0,.92-6.72,53,53,0,0,1-5.87.86A47.71,47.71,0,0,1,286.3,40Zm5.06-9.54a3.58,3.58,0,0,0-.23,1.32.76.76,0,0,1-.69.86,1.72,1.72,0,0,1-.52-.06,2.06,2.06,0,0,1-.4-.17,2.06,2.06,0,0,1-.11-1.61,4.74,4.74,0,0,0-.87,1.5,17.56,17.56,0,0,0-.51,1.72,16.94,16.94,0,0,0-.58,1.84c-.15.62-.31,1.23-.46,1.84,2.15,0,4.14-.07,6-.23s3.64-.38,5.41-.69a9.25,9.25,0,0,0-2.13-4.54A6.72,6.72,0,0,0,291.36,30.5Z"/><path class="cls-2" d="M326.78,28.08a9,9,0,0,1,6.15,2.42,11.07,11.07,0,0,1,2.82,5.86c2.45-.46,5-1,7.65-1.55s5.23-1.17,7.76-1.78a8.27,8.27,0,0,0,1.15-.41,9.67,9.67,0,0,1,1.44-.46,4.15,4.15,0,0,1,1.32-.11.93.93,0,0,1,.8.52.7.7,0,0,1-.23.92,5.12,5.12,0,0,1-1.15.63,9.27,9.27,0,0,1-1.49.46,9.67,9.67,0,0,0-1.15.29c-2.46.76-5,1.44-7.76,2S338.66,38,336,38.55a24.07,24.07,0,0,1-1,8.34A29.11,29.11,0,0,1,331.84,54a37,37,0,0,1-4.43,5.52,12.81,12.81,0,0,1-6,3.45h-1.72a4.57,4.57,0,0,1-2-.87,17.31,17.31,0,0,1-1.49-1.32,10,10,0,0,1-1.78-5,29.69,29.69,0,0,1,.05-6.1,55.86,55.86,0,0,1,1-6.21q.69-3,1.26-5.46a4.52,4.52,0,0,1,0-4.14,9,9,0,0,1,2.24-3,20.62,20.62,0,0,0,.86-2.41,19.47,19.47,0,0,1,1-2.65,7.8,7.8,0,0,1,1.44-2.18,2.9,2.9,0,0,1,2.24-.92,2.24,2.24,0,0,1,2.3,1.67A6.23,6.23,0,0,1,326.78,28.08Zm-5.52,12c-.39,2.23-.86,4.62-1.44,7.19a28.78,28.78,0,0,0-.63,7.88,9.91,9.91,0,0,0,.4,2,2.87,2.87,0,0,0,1.09,1.5A8.9,8.9,0,0,0,326,55.8c1.31-1.46,2.53-2.95,3.68-4.49a42.65,42.65,0,0,0,2.76-5.58,13.81,13.81,0,0,0,.92-6.72,52.83,52.83,0,0,1-5.86.86A47.71,47.71,0,0,1,321.26,40Zm5.06-9.54a3.38,3.38,0,0,0-.23,1.32.76.76,0,0,1-.69.86,1.72,1.72,0,0,1-.52-.06,2.06,2.06,0,0,1-.4-.17,2.1,2.1,0,0,1-.12-1.61,4.91,4.91,0,0,0-.86,1.5c-.19.53-.36,1.11-.52,1.72a16.85,16.85,0,0,0-.57,1.84c-.16.62-.31,1.23-.46,1.84,2.14,0,4.14-.07,6-.23s3.64-.38,5.4-.69a9.16,9.16,0,0,0-2.12-4.54A6.72,6.72,0,0,0,326.32,30.5Z"/><path class="cls-2" d="M359.78,31.53a9.48,9.48,0,0,0-3.45,2.76,11.81,11.81,0,0,0-1.44,1.84,3.75,3.75,0,0,0-.63,2.42,4,4,0,0,0,1.27,2.24c.69.65,1.3,1.25,1.84,1.78l1.78,1.78a17.11,17.11,0,0,1,1.55,1.79q2.88-2.07,5.46-4.31a51.48,51.48,0,0,1,5.58-4.2,41.38,41.38,0,0,1,4.31-2.88q2.35-1.38,4.89-2.64l1.61-.81a1.58,1.58,0,0,1,1.73.12,1.24,1.24,0,0,1-.12.92,1.31,1.31,0,0,1-.69.51l-.92.35a1.33,1.33,0,0,0-.69.52,31,31,0,0,0-4.66,2.59c-1.42.95-2.85,1.89-4.31,2.81q-5.52,4.14-10.69,8.63a35.79,35.79,0,0,1,2.81,5.4,16.72,16.72,0,0,1,1.21,6.56,19.07,19.07,0,0,1-1.15,7.36,21,21,0,0,1-3.45,6,25.51,25.51,0,0,1-4.94,4.37,10.82,10.82,0,0,1-6.67,2,8,8,0,0,1-2.65-.57,10.09,10.09,0,0,1-1.95-1.15A11.82,11.82,0,0,1,343.57,75a8.58,8.58,0,0,1-.81-3.33,12.62,12.62,0,0,1,1.5-7.36,38.72,38.72,0,0,1,3.79-5.75,48,48,0,0,1,4.54-5c1.57-1.5,3.13-2.9,4.66-4.2a13.79,13.79,0,0,0-1.84-2.13q-1-1-2.07-2a20.7,20.7,0,0,1-1.9-2.19,9,9,0,0,1-1.32-2.53,5.93,5.93,0,0,1,.06-4.65,18.52,18.52,0,0,1,2.24-3.74,31.5,31.5,0,0,1,2.24-2.24,10.12,10.12,0,0,1,2.59-1.67,11,11,0,0,1,1.73-.35,3.33,3.33,0,0,1,1.72.23,2.35,2.35,0,0,0,.63.63,2,2,0,0,1,.64.87,3.79,3.79,0,0,1,0,2.18c-.19.85-.48,1.27-.86,1.27-.54.07-.84-.08-.92-.46A2.57,2.57,0,0,0,359.78,31.53Zm-1.49,19.9A52.73,52.73,0,0,0,354.38,55a51.07,51.07,0,0,0-3.8,4.26c-.69.84-1.4,1.78-2.13,2.81a17.6,17.6,0,0,0-1.84,3.4,16.56,16.56,0,0,0-1,3.85,9.44,9.44,0,0,0,.4,4.2,8.21,8.21,0,0,0,1.5,1.55,3.43,3.43,0,0,0,2.18.63,8,8,0,0,0,4.66-1.78,20.32,20.32,0,0,0,3.62-3.62,15.63,15.63,0,0,0,2.24-4.37,20,20,0,0,0,1-5.12,16.7,16.7,0,0,0-.46-5.12,12.07,12.07,0,0,0-2.13-4.48c0-.08,0-.12-.11-.12C358.36,51.24,358.29,51.35,358.29,51.43ZM346.1,80.06c0,.08.07,0,.23-.11C346.33,80,346.25,80.06,346.1,80.06Z"/><path class="cls-2" d="M383.7,37.51a22.45,22.45,0,0,0-1.49,4.2,19.55,19.55,0,0,0-.69,5.06,8.62,8.62,0,0,0,1,4.31,4.08,4.08,0,0,0,3.68,2,11.43,11.43,0,0,0,5.69-1.27,52.39,52.39,0,0,0,4.66-2.64c1.53-1.08,3-2.13,4.31-3.17s2.55-2.05,3.63-3a63.63,63.63,0,0,0,5.69-5q2.7-2.64,5.35-5.4a2.91,2.91,0,0,0,.74-.92,10.9,10.9,0,0,1,.87-1.27,5.56,5.56,0,0,1,1-1,.9.9,0,0,1,1.1-.06c.53.23.65.69.34,1.38a8.15,8.15,0,0,1-.8,1.49,4.48,4.48,0,0,1-.69,1.27,14.68,14.68,0,0,0-.92,1.26,86.19,86.19,0,0,1-6,6.33q-3.17,3-6.5,6A47,47,0,0,1,395,54a25.09,25.09,0,0,1-2.87,1.32,16.69,16.69,0,0,1-3.34.92,15.21,15.21,0,0,1-3.51.17,6.92,6.92,0,0,1-3.27-1,5.29,5.29,0,0,1-1.21-1.1l-1.09-1.32A10.82,10.82,0,0,1,378.24,48a22,22,0,0,1,.34-5.47A34.57,34.57,0,0,1,380,37.28,35.31,35.31,0,0,1,381.86,33a47.24,47.24,0,0,1,4.6-6.79,13.53,13.53,0,0,1,7-4.37,5.56,5.56,0,0,1,3.85,1,3.94,3.94,0,0,1,1.21,3.68A7.67,7.67,0,0,1,397.16,30a23.3,23.3,0,0,1-2.42,2.87,26,26,0,0,1-4.54,3.63A9.47,9.47,0,0,1,383.7,37.51Zm10.7-12.3a11.9,11.9,0,0,0-6.1,4.2,41.81,41.81,0,0,0-3.91,6.38,7.25,7.25,0,0,0,4.26-1.15,31.53,31.53,0,0,0,3-2.42q1.26-1.38,2.64-2.76a5,5,0,0,0,1.27-3.91A1.25,1.25,0,0,0,394.4,25.21Z"/></g></g></svg>