<svg xmlns="http://www.w3.org/2000/svg" xmlns:xlink="http://www.w3.org/1999/xlink" viewBox="0 0 495 109.73"><defs><style>.cls-1,.cls-5{fill:none;}.cls-2{clip-path:url(#clip-path);}.cls-3{fill:#ff8300;}.cls-4{fill:#53575a;}.cls-5{stroke:#ff8300;}</style><clipPath id="clip-path" transform="translate(0 0.02)"><rect class="cls-1" width="495" height="109.71"/></clipPath></defs><g id="Layer_2" data-name="Layer 2"><g id="Layer_1-2" data-name="Layer 1"><g class="cls-2"><path class="cls-3" d="M87.11,74.17q3-4.36,6.15-8.39c.08,0,.12,0,.12.11q-1.84,8.4-4,16.74A76.11,76.11,0,0,1,83.6,98a44.87,44.87,0,0,1-2.53,4.43,8.37,8.37,0,0,1-3.68,3.16A3.16,3.16,0,0,1,75.9,103a20.17,20.17,0,0,1,0-3.11A32.86,32.86,0,0,1,78,91a60.7,60.7,0,0,1,3.45-7.47,92.83,92.83,0,0,1,5.69-9.32M101.2,43.64q.69-6.37,1.26-12.36c.08-1.3.17-2.78.29-4.43a6.31,6.31,0,0,0-.63-3.74c-.46-.84-1-1.15-1.73-.92a4.94,4.94,0,0,0-2.76,2.48,11.33,11.33,0,0,1-2.3,3,37,37,0,0,1-2.18,3.05A36.41,36.41,0,0,0,91,33.81q-2.42,3-4.54,6.15a15.2,15.2,0,0,1-5.58,5A7.26,7.26,0,0,1,80,41.51c0-1.37-.06-2.76-.06-4.14a15.9,15.9,0,0,1,.17-2.12,15.65,15.65,0,0,0,.18-2.3,5.71,5.71,0,0,0-.29-1.9,1.08,1.08,0,0,0-1.09-.8,1.76,1.76,0,0,0-1.79.91,7,7,0,0,0-.86,2.19,26.06,26.06,0,0,0-.75,4.71,20.21,20.21,0,0,0,.23,4.78,11.1,11.1,0,0,0,1.44,3.91,4.14,4.14,0,0,0,2.76,2h1.27a2.53,2.53,0,0,0,.92-.35,2.65,2.65,0,0,1,.92-.34,28.88,28.88,0,0,0,4.31-4.6q1.89-2.53,3.62-5.23c1.15-1.8,2.28-3.63,3.39-5.46A45.52,45.52,0,0,1,98,27.6a13.63,13.63,0,0,0,1.09-1.55,2.49,2.49,0,0,1,1.09-1.1q-.91,9.09-2.41,17.6t-3.11,17q-3.8,4.36-7.42,9a110.09,110.09,0,0,0-6.84,9.77l-2.76,5.06a62.48,62.48,0,0,0-2.76,5.87,45.81,45.81,0,0,0-1.72,5.35,29.83,29.83,0,0,0-1,6,13.85,13.85,0,0,0,.69,5.47,5.68,5.68,0,0,0,3.39,3.5,5.26,5.26,0,0,0,2.24,0,14.43,14.43,0,0,0,1.9-.57,13.58,13.58,0,0,0,4.31-4.08c1.12-1.65,2.17-3.36,3.17-5.12a76,76,0,0,0,6.72-18.57q2.37-10.29,4.2-21,6.1-7.24,11.9-14.43t11.45-14.78a3.48,3.48,0,0,1,.8-1,1,1,0,0,0,.12-1.32,1.61,1.61,0,0,0-2.13.69,4.94,4.94,0,0,1-1.44,1.72l-2.76,3.45q-4.25,5.18-8.45,10.41T99.7,55q.81-4.95,1.5-11.33M46.46,31.91a154.39,154.39,0,0,1,4.37-19.84.69.69,0,0,1,.4-.46.65.65,0,0,0,.4-.46,13.77,13.77,0,0,1,.29-3,25.7,25.7,0,0,1,.86-2.87,17.58,17.58,0,0,1,.64-2.13,2.56,2.56,0,0,0,0-1.9,3.62,3.62,0,0,0-.69-.92A1.4,1.4,0,0,0,51.52,0a2.08,2.08,0,0,0-1.38.86,6.79,6.79,0,0,0-1,1.84q-.4,1.09-.69,2.19c-.19.73-.36,1.36-.52,1.89q-1.73,5.86-3.27,11.79A112,112,0,0,0,42.2,30.82q-.91,6.9-1.49,13.74a112.61,112.61,0,0,0-.35,13.28c.08,1.46.12,3,.12,4.66a8.16,8.16,0,0,0,.92,4.08,8.26,8.26,0,0,0,1,.64,2.33,2.33,0,0,0,1.43.17,3.13,3.13,0,0,0,1.73-1.9c.3-.88.57-1.74.8-2.59q1.72-7.12,3.74-13.62t4.54-12.6q1-2.52,2.13-4.82a12.08,12.08,0,0,1,2.93-3.92,19.45,19.45,0,0,1,.81,5c.07,1.88.15,3.77.23,5.69s.23,3.74.46,5.46a11.17,11.17,0,0,0,1.38,4.31,4.47,4.47,0,0,0,1,1.15,2.81,2.81,0,0,0,1.38.69,3.31,3.31,0,0,0,2.76-.74,18.88,18.88,0,0,0,2-1.9A54.88,54.88,0,0,0,73.77,42q1.91-3,3.85-5.52a13.12,13.12,0,0,0,.87-1.2,6.78,6.78,0,0,1,1-1.21,2.59,2.59,0,0,1,1-1.09,1,1,0,0,0,.29-1.44,1,1,0,0,0-1.38-.17l-1.15.86q-1.38,1.61-2.65,3.39C74.71,36.78,73.87,37.91,73,39a48.76,48.76,0,0,0-3.33,4.72,11.38,11.38,0,0,1-4.14,3.91,9.7,9.7,0,0,1-1.61-5.23c-.16-2.26-.27-4.51-.35-6.73-.07-1-.13-2.17-.17-3.51A19.75,19.75,0,0,0,63,28.35a7.22,7.22,0,0,0-1.26-2.88,2.45,2.45,0,0,0-2.59-.75,4.07,4.07,0,0,0-3,2.42,28.76,28.76,0,0,1-2.07,3.56,105.39,105.39,0,0,0-5.12,11.5q-2.24,6-4.31,12.31a167.41,167.41,0,0,1,1.84-22.6M38.06,24a.69.69,0,0,0-.8.17A42.8,42.8,0,0,0,34,30.53q-1.38,3.39-2.7,7c-.89,2.38-1.75,4.71-2.59,7a47.1,47.1,0,0,1-3,6.56,31.57,31.57,0,0,1-1.09-4.77c-.27-1.73-.56-3.41-.87-5.06a35.79,35.79,0,0,0-1.2-4.72,11.4,11.4,0,0,0-2.13-3.85,3.43,3.43,0,0,0-3.91-.46,5.93,5.93,0,0,0-1.67,1.26,16.71,16.71,0,0,0-1.32,1.61A47.83,47.83,0,0,0,9.2,42.84a64,64,0,0,1-3.91,7.41,48.19,48.19,0,0,1,.11-7.47q.34-3.91.92-7.48c.08-.76.16-1.53.23-2.3a12.83,12.83,0,0,0,.06-2.12A2.76,2.76,0,0,0,6,29.27a2.77,2.77,0,0,0-1.56-.87,1.28,1.28,0,0,0-1.26.35,3.15,3.15,0,0,1-.92.8A26.87,26.87,0,0,0,.86,35.07Q.35,38.3.11,41.86a55.59,55.59,0,0,0,0,7.07,14,14,0,0,0,1.5,5.81,3.51,3.51,0,0,0,2.76,1.84A2.79,2.79,0,0,0,7.24,55.2a57.42,57.42,0,0,0,3.86-7.82,66.4,66.4,0,0,1,3.73-7.82c.46-.84.94-1.67,1.44-2.47a5.32,5.32,0,0,1,2-1.9,14.22,14.22,0,0,1,1.79,5q.51,2.86,1.09,5.75c.23.91.42,1.85.57,2.81a15.68,15.68,0,0,0,.69,2.7,8.35,8.35,0,0,0,1.21,2.25,3.68,3.68,0,0,0,2,1.32,2.78,2.78,0,0,0,2.48-1.84L29.44,50q1.72-4.38,3.28-9.09c1-3.14,2.05-6.06,3-8.74q.47-1,.81-2c.23-.65.46-1.29.69-1.9s.63-1.23,1-1.84a3.5,3.5,0,0,0,.4-2.07,1,1,0,0,0-.58-.4" transform="translate(0 0.02)"/><path class="cls-4" d="M472.47,69.33h-9.55a13.65,13.65,0,0,1-3.61-.55A5.62,5.62,0,0,1,457,67.36a5.51,5.51,0,0,1-1.29-2.5,16.57,16.57,0,0,1-.39-4,8.85,8.85,0,0,0-.09-1.55V35.79h11.87a10.42,10.42,0,0,1,6.07,1.55,10.92,10.92,0,0,1,3.31,3.57,11.33,11.33,0,0,1,1.37,3.91,24.79,24.79,0,0,1,.26,2.5v.26h.6v-24h-.6v.26a22.31,22.31,0,0,1-.26,2.41,11.36,11.36,0,0,1-4.51,7.35,9.87,9.87,0,0,1-5.81,1.68h-12.3V1.65h16.17A18.85,18.85,0,0,1,480,3.33a14.62,14.62,0,0,1,5.16,4.21,17.63,17.63,0,0,1,2.8,5.64q.9,3.09,1.59,5.93v.09h.6V1.14H435.58v.51h2.75c2.86.17,4.86.85,6,2S446,7,446,10.17a2.94,2.94,0,0,0,0,.51,4.55,4.55,0,0,1,0,.52V60.82a14.82,14.82,0,0,1-.52,4.39,5.14,5.14,0,0,1-1.72,2.58A6.74,6.74,0,0,1,440.61,69a33.12,33.12,0,0,1-4.95.3v.61h56.85L495,49.47h-.6a29.55,29.55,0,0,1-3.87,10,24.68,24.68,0,0,1-2.84,3.66,18.78,18.78,0,0,1-3.82,3.14,20.56,20.56,0,0,1-5,2.23,21.65,21.65,0,0,1-6.36.86m-88.32.52h.6v-.09c.06-.17.23-.55.52-1.16a3.54,3.54,0,0,1,1.59-1.54,7.23,7.23,0,0,1,3.31-.69,15.72,15.72,0,0,1,5.68,1.33,5,5,0,0,0,.86.34v0a19.63,19.63,0,0,0,7.48,1.47h.86c.4,0,.79,0,1.16-.05s.79-.07,1.25-.13h-.18A33.53,33.53,0,0,0,418,66.2a23.3,23.3,0,0,0,7.18-5.42,15.79,15.79,0,0,0,3.57-6.84,15.32,15.32,0,0,0-.08-7.4,18,18,0,0,0-3.79-7.09,24.94,24.94,0,0,0-7.48-5.89l-9.89-5.08q-7.31-4.12-10.75-8.29c-2.29-2.78-3.57-5.41-3.83-7.87a8.85,8.85,0,0,1,1.81-6.54,12.36,12.36,0,0,1,6.15-4.13A18.86,18.86,0,0,1,403.8,1a21.43,21.43,0,0,1,3-.22A19.56,19.56,0,0,1,413.48,2a17.39,17.39,0,0,1,5.67,3.4,21.27,21.27,0,0,1,2.41,2.71,23.46,23.46,0,0,1,2.15,3.44,20.57,20.57,0,0,1,1.5,3.83,13.64,13.64,0,0,1,.56,3.78h.69V.45h-.6a5.43,5.43,0,0,1-2.41,2.32,6.43,6.43,0,0,1-2.92.52,11.75,11.75,0,0,1-3.1-.61c-1-.34-2-.68-2.92-1A21,21,0,0,0,406.77.19a24,24,0,0,0-3.53.26,15.74,15.74,0,0,0-3.44.94,23.49,23.49,0,0,0-6.58,3.7,19,19,0,0,0-4.6,5.33,16.07,16.07,0,0,0-2.06,6.45,15,15,0,0,0,1,6.93,20.45,20.45,0,0,0,4.51,6.79,31.63,31.63,0,0,0,8.6,6.06l10.84,5.59a17,17,0,0,1,7.05,6.24,13.34,13.34,0,0,1,2,7.31,12.88,12.88,0,0,1-2.28,6.84,14,14,0,0,1-5.85,4.9A23.52,23.52,0,0,1,405.13,69h-.77a21.4,21.4,0,0,1-7.31-1.42,20.57,20.57,0,0,1-6.19-3.74,12,12,0,0,1-2.5-3.18,27.11,27.11,0,0,1-1.89-4.17,31.16,31.16,0,0,1-1.2-4.39,20.61,20.61,0,0,1-.43-4h-.69ZM323.56,21.78a35.86,35.86,0,0,1,4.78-11,17.55,17.55,0,0,1,1.33-2,19.88,19.88,0,0,1,1.5-1.72,22.1,22.1,0,0,1,5.21-4,41.52,41.52,0,0,1,4.08-1.93A14,14,0,0,1,343.9.71h2.58a10,10,0,0,1,1.72.13c.52.08,1.09.18,1.72.3,1,.4,2.31,1,4,1.93a23.43,23.43,0,0,1,5.29,4c.46.52.93,1.09,1.42,1.72s1,1.29,1.42,2a36.89,36.89,0,0,1,4.81,11,51.27,51.27,0,0,1,1.64,13.15,51.35,51.35,0,0,1-1.64,13.16,36.89,36.89,0,0,1-4.81,11c-.46.69-.93,1.35-1.42,2s-1,1.2-1.42,1.72a23.43,23.43,0,0,1-5.29,4c-1.69.89-3,1.53-4,1.93-.63.12-1.2.23-1.72.35a8.22,8.22,0,0,1-1.72.17H343.9a9.48,9.48,0,0,1-1.8-.17l-1.64-.35a41.52,41.52,0,0,1-4.08-1.93,22.1,22.1,0,0,1-5.21-4,19.88,19.88,0,0,1-1.5-1.72,17.55,17.55,0,0,1-1.33-2,35.86,35.86,0,0,1-4.78-11A52.73,52.73,0,0,1,322,34.93a52.65,52.65,0,0,1,1.59-13.15M315,48.44a33.12,33.12,0,0,0,6.45,11.09,28.72,28.72,0,0,0,9.46,7.4,26.74,26.74,0,0,0,11.78,2.75h5a26.55,26.55,0,0,0,11.69-2.75,28.55,28.55,0,0,0,9.63-7.4,36.9,36.9,0,0,0,6.54-11.09,38.62,38.62,0,0,0,2.32-13.51,39.09,39.09,0,0,0-2.32-13.5A36.9,36.9,0,0,0,369,10.34a28.55,28.55,0,0,0-9.63-7.4A26.55,26.55,0,0,0,347.69.19h-5a26.74,26.74,0,0,0-11.78,2.75,28.72,28.72,0,0,0-9.46,7.4A33,33,0,0,0,315,21.43a36.85,36.85,0,0,0-2.41,13.5A36.87,36.87,0,0,0,315,48.44M253.39,21.78a36.08,36.08,0,0,1,4.77-11,19,19,0,0,1,1.33-2A18.37,18.37,0,0,1,261,7.07a22.07,22.07,0,0,1,5.2-4,41.5,41.5,0,0,1,4.09-1.93,13.92,13.92,0,0,1,3.44-.43h2.58A10.11,10.11,0,0,1,278,.84c.51.08,1.09.18,1.72.3,1,.4,2.3,1,4,1.93a23.66,23.66,0,0,1,5.29,4c.45.52.93,1.09,1.41,1.72s1,1.29,1.42,2a36.91,36.91,0,0,1,4.82,11,51.28,51.28,0,0,1,1.63,13.15,51.35,51.35,0,0,1-1.63,13.16,36.91,36.91,0,0,1-4.82,11c-.46.69-.93,1.35-1.42,2s-1,1.2-1.41,1.72a23.66,23.66,0,0,1-5.29,4c-1.7.89-3,1.53-4,1.93-.63.12-1.21.23-1.72.35a8.29,8.29,0,0,1-1.72.17h-2.58a9.59,9.59,0,0,1-1.81-.17c-.57-.12-1.12-.23-1.63-.35a41.5,41.5,0,0,1-4.09-1.93,22.07,22.07,0,0,1-5.2-4,18.37,18.37,0,0,1-1.51-1.72,19,19,0,0,1-1.33-2,36.08,36.08,0,0,1-4.77-11,52.73,52.73,0,0,1-1.59-13.16,52.65,52.65,0,0,1,1.59-13.15m-8.56,26.66a33.12,33.12,0,0,0,6.45,11.09,28.83,28.83,0,0,0,9.46,7.4,26.74,26.74,0,0,0,11.78,2.75h5a26.63,26.63,0,0,0,11.7-2.75,28.55,28.55,0,0,0,9.63-7.4,37.11,37.11,0,0,0,6.54-11.09,38.85,38.85,0,0,0,2.32-13.51,39.32,39.32,0,0,0-2.32-13.5,37.11,37.11,0,0,0-6.54-11.09,28.55,28.55,0,0,0-9.63-7.4A26.63,26.63,0,0,0,277.51.19h-5a26.74,26.74,0,0,0-11.78,2.75,28.83,28.83,0,0,0-9.46,7.4,33,33,0,0,0-6.45,11.09,37.06,37.06,0,0,0-2.41,13.5,37.08,37.08,0,0,0,2.41,13.51M207.94,1.57h2.75q4.31.25,6,2c1.12,1.17,1.67,3.34,1.67,6.49v25H183.6V10a17.68,17.68,0,0,1,.34-3.78,5.65,5.65,0,0,1,1.16-2.49,5.49,5.49,0,0,1,2.11-1.47,11.41,11.41,0,0,1,3.18-.68h3.53V1.48H194l-.09-.09V1h-30v.61h2.75a18.37,18.37,0,0,1,3.65.6,5,5,0,0,1,2.41,1.42A5.78,5.78,0,0,1,174,6.12a16.72,16.72,0,0,1,.39,4V60.73a14.82,14.82,0,0,1-.52,4.39,5.14,5.14,0,0,1-1.72,2.58A6.74,6.74,0,0,1,168.94,69a34.52,34.52,0,0,1-4.95.3v.6h30v-.6h-2.67a14.23,14.23,0,0,1-3.66-.56,5.49,5.49,0,0,1-2.4-1.42A5.37,5.37,0,0,1,184,64.73a17.14,17.14,0,0,1-.39-4v-25h34.74v25a15.21,15.21,0,0,1-.51,4.39,5.2,5.2,0,0,1-1.72,2.58A6.78,6.78,0,0,1,212.88,69a34.27,34.27,0,0,1-4.94.3v.6h30v-.6h-2.66a14.09,14.09,0,0,1-3.66-.56,5.52,5.52,0,0,1-2.41-1.42,5.46,5.46,0,0,1-1.29-2.54,17.77,17.77,0,0,1-.38-4V10c0-3,.5-5.13,1.5-6.27s2.8-1.87,5.38-2.15h3.44V1.48H238l-.08-.09V1H207.94ZM102.85,35.45a38.61,38.61,0,0,0,2.4,13.5,35.15,35.15,0,0,0,6.54,11,30,30,0,0,0,9.55,7.4,26,26,0,0,0,11.78,2.75,20.79,20.79,0,0,0,8.34-1.64,24.2,24.2,0,0,0,7.4-4.81,28.39,28.39,0,0,0,5.59-8.17A39.58,39.58,0,0,0,157.8,44l-.6-.08q-.52,3.18-1.29,6a31.51,31.51,0,0,1-2,5.33,36.8,36.8,0,0,1-2.45,4.34,18.54,18.54,0,0,1-3,3.57A21.22,21.22,0,0,1,141.29,68a19.93,19.93,0,0,1-3.4,1,34.23,34.23,0,0,1-3.48.52,19.11,19.11,0,0,1-2.11-.13,9.18,9.18,0,0,1-2-.48,23.5,23.5,0,0,1-3.44-1.59,22.81,22.81,0,0,1-4.21-3,33.22,33.22,0,0,1-7.53-12.13,46.51,46.51,0,0,1-2.88-16.68A48.88,48.88,0,0,1,114,22.16a40,40,0,0,1,4.78-10.88,24.56,24.56,0,0,1,7-7.31,15.39,15.39,0,0,1,8.6-2.66,22.3,22.3,0,0,1,6.88,1.55,22.06,22.06,0,0,1,7.22,4.81,27.71,27.71,0,0,1,3.06,3.66,30.8,30.8,0,0,1,2.53,4.34A40.26,40.26,0,0,1,156,21a41.87,41.87,0,0,1,1.24,6h.61V2h-.61a4.36,4.36,0,0,1-2,3,7.07,7.07,0,0,1-3.87.86c-1.72,0-4.08-.72-7.06-2.15-.4-.23-.78-.43-1.16-.61l-1.16-.51L142,2.51a.48.48,0,0,1-.35-.17h-.08A21.44,21.44,0,0,0,133.12.71a25.86,25.86,0,0,0-11.78,2.75,25.48,25.48,0,0,0-5.12,3.18,36.6,36.6,0,0,0-4.43,4.21,35.26,35.26,0,0,0-6.54,11,38.61,38.61,0,0,0-2.4,13.5h.34v.09Z" transform="translate(0 0.02)"/></g><line class="cls-5" x1="123.73" y1="90.73" x2="387.73" y2="90.73"/></g></g></svg>