<svg xmlns="http://www.w3.org/2000/svg" viewBox="0 0 607.2 151.8"><defs><style>.cls-1{fill:#ff8300;}.cls-2{fill:#53575a;}</style></defs><g id="Layer_2" data-name="Layer 2"><g id="Layer_1-2" data-name="Layer 1"><path class="cls-1" d="M275,106H190.72V105a51.25,51.25,0,0,0,7.44-.46,10.2,10.2,0,0,0,4.84-1.9,7.75,7.75,0,0,0,2.61-3.92,22.88,22.88,0,0,0,.78-6.66V15.15q0-7.17-2.61-9.86t-9.14-3.07h-4V1.44h45.46v.65h0v.13h-5.36a17.33,17.33,0,0,0-4.83,1,8.07,8.07,0,0,0-3.2,2.22,8.51,8.51,0,0,0-1.77,3.79,27.43,27.43,0,0,0-.52,5.74V92.23a25.51,25.51,0,0,0,.59,6,8.29,8.29,0,0,0,2,3.79,8.42,8.42,0,0,0,3.59,2.16,21.28,21.28,0,0,0,5.62.85h13.06a33.31,33.31,0,0,0,9.67-1.31,31.08,31.08,0,0,0,7.64-3.4,28.26,28.26,0,0,0,5.82-4.77A38.75,38.75,0,0,0,272.63,90a46.71,46.71,0,0,0,6-15.15h.91L275.76,106Z"/><path class="cls-1" d="M286.61,52.78a56.09,56.09,0,0,1,3.66-20.51,50.26,50.26,0,0,1,9.79-16.85A43.74,43.74,0,0,1,314.43,4.18,40.54,40.54,0,0,1,332.33,0h7.58a40.28,40.28,0,0,1,17.77,4.18,43.36,43.36,0,0,1,14.63,11.24,56.36,56.36,0,0,1,9.93,16.85,59.37,59.37,0,0,1,3.52,20.51,58.72,58.72,0,0,1-3.52,20.51,56.36,56.36,0,0,1-9.93,16.85,43.48,43.48,0,0,1-14.63,11.24,40.28,40.28,0,0,1-17.77,4.18h-7.58a40.54,40.54,0,0,1-17.9-4.18,43.74,43.74,0,0,1-14.37-11.24,50.26,50.26,0,0,1-9.79-16.85A56.09,56.09,0,0,1,286.61,52.78Zm14.24,0a80.16,80.16,0,0,0,2.41,20,54.88,54.88,0,0,0,7.25,16.72,27.69,27.69,0,0,0,2,3,27,27,0,0,0,2.29,2.62,33.2,33.2,0,0,0,7.9,6.07,64.2,64.2,0,0,0,6.21,2.94c.78.18,1.61.35,2.48.52a13.47,13.47,0,0,0,2.74.27h3.92a11.63,11.63,0,0,0,2.61-.27c.79-.17,1.66-.34,2.62-.52q2.22-.91,6.07-2.94a35.79,35.79,0,0,0,8-6.07c.69-.79,1.41-1.66,2.15-2.62s1.46-2,2.16-3A56,56,0,0,0,369,72.77a77.87,77.87,0,0,0,2.48-20,77.81,77.81,0,0,0-2.48-20,56,56,0,0,0-7.31-16.72c-.7-1.05-1.42-2.05-2.16-3s-1.46-1.83-2.15-2.61a35.79,35.79,0,0,0-8-6.07q-3.86-2-6.07-2.94c-1-.18-1.83-.33-2.62-.46a15.92,15.92,0,0,0-2.61-.2h-3.92a21.22,21.22,0,0,0-5.22.66,64.2,64.2,0,0,0-6.21,2.94,33.2,33.2,0,0,0-7.9,6.07,26.86,26.86,0,0,0-2.29,2.61,27.82,27.82,0,0,0-2,3,54.88,54.88,0,0,0-7.25,16.72A80.1,80.1,0,0,0,300.85,52.78Z"/><path class="cls-1" d="M441.16,88.31,469.24,18a13.13,13.13,0,0,0,1.18-6.6,8.31,8.31,0,0,0-2-4.44,10.55,10.55,0,0,0-3.92-2.74A24.65,24.65,0,0,0,460,2.81a21.79,21.79,0,0,0-3.72-.52l-1.7-.07V1.31h34.88v.91l-2.22.26a16.12,16.12,0,0,0-5,1.77A26.67,26.67,0,0,0,476,8.88a25.44,25.44,0,0,0-5.62,9l-35.27,87.79h-1l-35-87.4a56.94,56.94,0,0,0-4.31-8.95,18.36,18.36,0,0,0-3.86-4.57,8.52,8.52,0,0,0-4-1.83l-4.57-.72V1.31h42.85v.91c-3.14.18-5.84.37-8.1.59a8.51,8.51,0,0,0-5,1.83q-1.63,1.5-1.44,4.7a32,32,0,0,0,2.55,9.08Z"/><path class="cls-1" d="M562.52,103.73a31.08,31.08,0,0,0,7.64-3.4A28.53,28.53,0,0,0,576,95.56,38.75,38.75,0,0,0,580.29,90a45,45,0,0,0,5.88-15.15h.91L583.29,106H496.94V105a52.79,52.79,0,0,0,7.51-.46,10.27,10.27,0,0,0,4.9-1.9A7.75,7.75,0,0,0,512,98.76a22.5,22.5,0,0,0,.79-6.66V16.72a5.14,5.14,0,0,0-.07-.78,5.16,5.16,0,0,1-.06-.79q0-7.17-2.55-9.86T501,2.22h-4.18V1.44h82.83V28.87h-.92v-.13c-.7-2.87-1.5-5.88-2.42-9a26.69,26.69,0,0,0-4.24-8.56,22.24,22.24,0,0,0-7.84-6.4q-5-2.55-13.06-2.55H526.59V53.3h18.69q5.61-.12,8.81-2.55a16.94,16.94,0,0,0,4.84-5.42,17.12,17.12,0,0,0,2-5.75,33.52,33.52,0,0,0,.4-3.65v-.4h.91V72h-.91v-.39a37.27,37.27,0,0,0-.4-3.79,17.17,17.17,0,0,0-2.09-5.94,16.29,16.29,0,0,0-5-5.42q-3.33-2.36-9.21-2.36h-18v35.8a13.47,13.47,0,0,1,.14,2.35,25.58,25.58,0,0,0,.58,6,8.29,8.29,0,0,0,2,3.79,8.45,8.45,0,0,0,3.6,2.16,20.75,20.75,0,0,0,5.48.85h14.5A33.31,33.31,0,0,0,562.52,103.73Z"/><path class="cls-2" d="M287.15,94.78q8.61-.3,17.9-.9a131.25,131.25,0,0,1,18.5.09c.34,0,.7,0,1.1.06a.84.84,0,0,1,.8.55c-.06.53-.31.8-.75.8a6.57,6.57,0,0,1-1.15-.1,181.09,181.09,0,0,0-18.5.14q-9.19.56-18.1,1-1.4,8.2-2.55,16.7a124.91,124.91,0,0,0-1,17.8c0,.87,0,1.84.1,2.91a21.11,21.11,0,0,0,.4,3c.14.73.35,1.63.65,2.7s.75,1.63,1.35,1.7a1.34,1.34,0,0,0,1-.31A8.46,8.46,0,0,0,288,140a10.69,10.69,0,0,0,1-1.15c.3-.41.52-.71.65-.91a96.55,96.55,0,0,0,7.15-10.64q3.15-5.46,6.65-11.36c.6-1.06,1.24-2.16,1.9-3.3s1.4-2.26,2.2-3.39a10.93,10.93,0,0,1,.9-1.16c.34-.36.67-.48,1-.34.54.26.64.68.3,1.25s-.6,1-.8,1.25q-2.49,4.2-4.7,8.5t-4.7,8.5q-1.4,2.29-2.75,4.64T294,136.58q-1.5,2.29-3.1,4.5a10.68,10.68,0,0,1-4.1,3.39,5.3,5.3,0,0,1-2.1,0,6.22,6.22,0,0,1-3.45-3.75,27.68,27.68,0,0,1-1.35-5.64,43.65,43.65,0,0,1-.5-6.66c0-2.3.07-4.54.2-6.75q.51-6.69,1.35-13T283,96.78q-4.59.19-9.35.69t-9.65.7c-.4,0-.85,0-1.35,0s-.78-.21-.85-.75a.71.71,0,0,1,.8-.8,9.49,9.49,0,0,0,1.4-.09q4.71-.3,9.6-.8t9.7-.7c.4-1.41.85-3,1.35-5a40.7,40.7,0,0,1,1.75-5.24,8.41,8.41,0,0,1,.75-1.66,1.58,1.58,0,0,1,1.35-.94,1,1,0,0,1,.95.39,1.44,1.44,0,0,1,.2,1,7.24,7.24,0,0,1-.2,1.16c-.1.39-.18.76-.25,1.1-.33,1.46-.66,3-1,4.54S287.49,93.44,287.15,94.78Z"/><path class="cls-2" d="M310.45,127.78q1.8-5.5,3.75-10.7a89.26,89.26,0,0,1,4.45-10,26,26,0,0,0,1.8-3.11,3.56,3.56,0,0,1,2.6-2.09,2.08,2.08,0,0,1,2.25.65,6.08,6.08,0,0,1,1.1,2.5,17.13,17.13,0,0,1,.4,3.3c0,1.16.08,2.18.15,3q.1,2.9.3,5.84a8.47,8.47,0,0,0,1.4,4.56,9.9,9.9,0,0,0,3.6-3.4,40.17,40.17,0,0,1,2.9-4.1c.73-.94,1.47-1.92,2.2-3s1.5-2,2.3-3l1-.76a.84.84,0,0,1,1.2.16.88.88,0,0,1-.25,1.25,2.23,2.23,0,0,0-.85.94,6.37,6.37,0,0,0-.85,1.06,12.57,12.57,0,0,1-.75,1q-1.69,2.19-3.35,4.8a49,49,0,0,1-3.55,4.9,15.84,15.84,0,0,1-1.7,1.64,2.91,2.91,0,0,1-2.4.66,2.54,2.54,0,0,1-1.2-.61,3.89,3.89,0,0,1-.9-1,9.75,9.75,0,0,1-1.2-3.75c-.2-1.5-.33-3.08-.4-4.75s-.13-3.31-.2-4.94a16.93,16.93,0,0,0-.7-4.36,10.32,10.32,0,0,0-2.55,3.41q-.94,2-1.85,4.2-2.2,5.3-3.95,10.94T312,135.08c-.2.73-.43,1.48-.7,2.25a2.73,2.73,0,0,1-1.5,1.64,2.09,2.09,0,0,1-1.25-.14c-.3-.17-.58-.36-.85-.55a7.16,7.16,0,0,1-.8-3.56c0-1.43,0-2.78-.1-4.05a98.15,98.15,0,0,1,.3-11.55q.51-5.94,1.3-12a96.28,96.28,0,0,1,2.15-10.64q1.35-5.16,2.85-10.25c.13-.47.28-1,.45-1.66s.37-1.26.6-1.9a6.18,6.18,0,0,1,.85-1.6,1.78,1.78,0,0,1,1.2-.74,1.23,1.23,0,0,1,1.1.29,3.15,3.15,0,0,1,.6.8,2.2,2.2,0,0,1,0,1.65,15.22,15.22,0,0,0-.55,1.85,24.34,24.34,0,0,0-.75,2.5,11.79,11.79,0,0,0-.25,2.61.58.58,0,0,1-.35.39.61.61,0,0,0-.35.41,133.81,133.81,0,0,0-3.8,17.24A147.19,147.19,0,0,0,310.45,127.78Z"/><path class="cls-2" d="M340,113a19.58,19.58,0,0,0-1.3,3.65,17.07,17.07,0,0,0-.6,4.41,7.54,7.54,0,0,0,.9,3.75,3.54,3.54,0,0,0,3.2,1.69,10,10,0,0,0,5-1.09,46,46,0,0,0,4-2.3q2-1.41,3.75-2.75c1.17-.91,2.22-1.79,3.15-2.66a55.93,55.93,0,0,0,4.95-4.29c1.57-1.54,3.12-3.1,4.65-4.71a2.32,2.32,0,0,0,.65-.79,7.57,7.57,0,0,1,.75-1.1,5.33,5.33,0,0,1,.85-.86.77.77,0,0,1,1,0c.47.2.57.59.3,1.2a7.88,7.88,0,0,1-.7,1.3,3.33,3.33,0,0,1-.6,1.09c-.27.34-.53.7-.8,1.11q-2.51,2.9-5.25,5.5c-1.83,1.73-3.72,3.46-5.65,5.2a41.61,41.61,0,0,1-8.4,6,22.79,22.79,0,0,1-2.5,1.14,13.69,13.69,0,0,1-2.9.8,13.49,13.49,0,0,1-3.05.16,6.1,6.1,0,0,1-2.85-.91,4.71,4.71,0,0,1-1.05-.94l-.95-1.15a9.66,9.66,0,0,1-1.25-4.26,19,19,0,0,1,.3-4.74,29.33,29.33,0,0,1,1.25-4.6,28.88,28.88,0,0,1,1.6-3.7,41.06,41.06,0,0,1,4-5.91,11.75,11.75,0,0,1,6.1-3.79,4.79,4.79,0,0,1,3.35.9,3.42,3.42,0,0,1,1.05,3.19,6.39,6.39,0,0,1-1.2,3,19.65,19.65,0,0,1-2.1,2.5,22.58,22.58,0,0,1-3.95,3.15A8.14,8.14,0,0,1,340,113Zm9.3-10.69a10.34,10.34,0,0,0-5.3,3.64,36.56,36.56,0,0,0-3.4,5.55,6.21,6.21,0,0,0,3.7-1,27.29,27.29,0,0,0,2.6-2.09c.73-.8,1.5-1.6,2.3-2.41a4.28,4.28,0,0,0,1.1-3.39A1.07,1.07,0,0,0,349.25,102.28Z"/><path class="cls-2" d="M369.25,107.17a1.59,1.59,0,0,1,.35,1.11c0,.39-.05.83-.05,1.3-.07,1.13-.09,2.36-.05,3.7s.05,2.63.05,3.89,0,2.5-.05,3.71a4.41,4.41,0,0,1-1.05,2.9h-.8a3.34,3.34,0,0,1-.75-1.56,14.74,14.74,0,0,1-.35-2.25c-.07-1.46-.08-3-.05-4.59a42.77,42.77,0,0,1,.35-4.71c.07-.39.13-.86.2-1.39a5.31,5.31,0,0,1,.35-1.4,1.6,1.6,0,0,1,.7-.85A1.16,1.16,0,0,1,369.25,107.17Zm.5-19.39a2.31,2.31,0,0,1-.8,1.6,1.08,1.08,0,0,1-1.15-.21,1.6,1.6,0,0,1-.4-1,1.22,1.22,0,0,1,.3-.94,1.24,1.24,0,0,1,1.15-.31Q369.65,87.38,369.75,87.78Z"/><path class="cls-2" d="M394,104.58a14.6,14.6,0,0,0-4.65,4.8q-1.76,2.9-3.75,5.79c-.54,1.07-1.07,2.14-1.6,3.21a27.31,27.31,0,0,0-1.4,3.29,17.22,17.22,0,0,0-1.5,3.25,3.61,3.61,0,0,1-2.4,2.36h-.9a2.52,2.52,0,0,1-.85-.56,4.44,4.44,0,0,1-.65-.84,33.62,33.62,0,0,1-.15-4.1c0-1.47.1-3,.2-4.45s.27-3,.5-4.41.48-2.75.75-4a12.75,12.75,0,0,1,.6-2.19,1.92,1.92,0,0,1,1.6-1.31,1.25,1.25,0,0,1,1.15.91,5.56,5.56,0,0,1,.2,1.84,19.78,19.78,0,0,1-.25,2.2,10.74,10.74,0,0,0-.2,1.86c-.14,1.33-.25,2.53-.35,3.6s-.22,2.06-.35,3q1.69-2.8,4.1-6.3a60.68,60.68,0,0,1,4.9-6.3,21.09,21.09,0,0,1,1.75-2,6.69,6.69,0,0,1,2.05-1.45,2.79,2.79,0,0,1,1.85,0,1.55,1.55,0,0,1,1.15,1.09c.13.81-.07,1.24-.6,1.31A1.11,1.11,0,0,1,394,104.58Z"/><path class="cls-2" d="M436.15,104.58a14.6,14.6,0,0,0-4.65,4.8q-1.75,2.9-3.75,5.79c-.54,1.07-1.07,2.14-1.6,3.21a27.31,27.31,0,0,0-1.4,3.29,17.22,17.22,0,0,0-1.5,3.25,3.61,3.61,0,0,1-2.4,2.36H420a2.42,2.42,0,0,1-.85-.56,4.06,4.06,0,0,1-.65-.84,30,30,0,0,1-.15-4.1c0-1.47.1-3,.2-4.45s.26-3,.5-4.41.48-2.75.75-4a12.75,12.75,0,0,1,.6-2.19,1.92,1.92,0,0,1,1.6-1.31,1.25,1.25,0,0,1,1.15.91,5.56,5.56,0,0,1,.2,1.84,19.78,19.78,0,0,1-.25,2.2,10.74,10.74,0,0,0-.2,1.86c-.14,1.33-.25,2.53-.35,3.6s-.22,2.06-.35,3q1.69-2.8,4.1-6.3a60.68,60.68,0,0,1,4.9-6.3,21.09,21.09,0,0,1,1.75-2,6.69,6.69,0,0,1,2.05-1.45,2.79,2.79,0,0,1,1.85,0A1.55,1.55,0,0,1,438,104c.13.81-.07,1.24-.6,1.31A1.11,1.11,0,0,1,436.15,104.58Z"/><path class="cls-2" d="M441.45,113a19.58,19.58,0,0,0-1.3,3.65,17.07,17.07,0,0,0-.6,4.41,7.54,7.54,0,0,0,.9,3.75,3.53,3.53,0,0,0,3.2,1.69,10,10,0,0,0,5-1.09q2.34-1.2,4-2.3,2-1.41,3.75-2.75c1.16-.91,2.21-1.79,3.15-2.66a55.93,55.93,0,0,0,4.95-4.29c1.56-1.54,3.11-3.1,4.65-4.71a2.44,2.44,0,0,0,.65-.79,7.57,7.57,0,0,1,.75-1.1,5,5,0,0,1,.85-.86.77.77,0,0,1,1,0c.46.2.56.59.3,1.2a7.88,7.88,0,0,1-.7,1.3,3.74,3.74,0,0,1-.6,1.09,12.72,12.72,0,0,0-.8,1.11q-2.51,2.9-5.25,5.5t-5.65,5.2a42.18,42.18,0,0,1-8.4,6,23.69,23.69,0,0,1-2.5,1.14,13.85,13.85,0,0,1-2.9.8,13.49,13.49,0,0,1-3.05.16,6,6,0,0,1-2.85-.91,4.71,4.71,0,0,1-1.05-.94l-.95-1.15a9.53,9.53,0,0,1-1.25-4.26,19,19,0,0,1,.3-4.74,28.28,28.28,0,0,1,1.25-4.6,27.54,27.54,0,0,1,1.6-3.7,41.06,41.06,0,0,1,4-5.91,11.71,11.71,0,0,1,6.1-3.79,4.8,4.8,0,0,1,3.35.9,3.42,3.42,0,0,1,1.05,3.19,6.61,6.61,0,0,1-1.2,3,19.65,19.65,0,0,1-2.1,2.5,22.58,22.58,0,0,1-3.95,3.15A8.15,8.15,0,0,1,441.45,113Zm9.3-10.69a10.29,10.29,0,0,0-5.3,3.64,36.56,36.56,0,0,0-3.4,5.55,6.23,6.23,0,0,0,3.7-1,27.29,27.29,0,0,0,2.6-2.09c.73-.8,1.5-1.6,2.3-2.41a4.31,4.31,0,0,0,1.1-3.39A1.07,1.07,0,0,0,450.75,102.28Z"/><path class="cls-2" d="M474.54,107.78a8.27,8.27,0,0,0-3,2.39,10.78,10.78,0,0,0-1.25,1.61,3.27,3.27,0,0,0-.55,2.1,3.57,3.57,0,0,0,1.1,2c.6.56,1.14,1.08,1.6,1.55l1.55,1.54a14.82,14.82,0,0,1,1.35,1.55q2.51-1.78,4.75-3.75a44.78,44.78,0,0,1,4.85-3.64,37.57,37.57,0,0,1,3.75-2.5q2.06-1.2,4.25-2.3l1.4-.7a1.36,1.36,0,0,1,1.5.09,1,1,0,0,1-.1.8,1.12,1.12,0,0,1-.6.45c-.26.11-.53.2-.8.3a1.33,1.33,0,0,0-.6.45,29,29,0,0,0-4.05,2.25q-1.85,1.26-3.75,2.46-4.8,3.6-9.3,7.5a30.27,30.27,0,0,1,2.45,4.7,14.56,14.56,0,0,1,1.05,5.7,16.32,16.32,0,0,1-1,6.39,18.17,18.17,0,0,1-3,5.21,21.91,21.91,0,0,1-4.3,3.79,9.39,9.39,0,0,1-5.8,1.71,7.21,7.21,0,0,1-2.3-.5,9.13,9.13,0,0,1-1.7-1,10.6,10.6,0,0,1-1.6-2.3,7.5,7.5,0,0,1-.7-2.91,11,11,0,0,1,1.3-6.39,33.86,33.86,0,0,1,3.3-5,42,42,0,0,1,4-4.36q2.06-2,4-3.64a11.74,11.74,0,0,0-1.6-1.86c-.6-.56-1.2-1.14-1.8-1.75a17.31,17.31,0,0,1-1.65-1.89,7.83,7.83,0,0,1-1.15-2.2,5.2,5.2,0,0,1,.05-4,16.17,16.17,0,0,1,1.95-3.25,25.58,25.58,0,0,1,1.95-2,9.16,9.16,0,0,1,2.25-1.45,8.66,8.66,0,0,1,1.5-.3,2.79,2.79,0,0,1,1.5.2,2.6,2.6,0,0,0,.55.55,1.51,1.51,0,0,1,.55.75,3.23,3.23,0,0,1,.05,1.89q-.24,1.11-.75,1.11c-.46.06-.73-.07-.8-.41A2.06,2.06,0,0,0,474.54,107.78Zm-1.3,17.3q-1.69,1.4-3.4,3.09a46.25,46.25,0,0,0-3.3,3.71c-.6.73-1.21,1.54-1.85,2.45a14.89,14.89,0,0,0-1.6,2.95,14.45,14.45,0,0,0-.9,3.34,8.32,8.32,0,0,0,.35,3.66,7.22,7.22,0,0,0,1.3,1.34,3,3,0,0,0,1.9.55,6.87,6.87,0,0,0,4.05-1.55,16.77,16.77,0,0,0,3.15-3.15,13.46,13.46,0,0,0,1.95-3.8,17.25,17.25,0,0,0,.9-4.45,14.13,14.13,0,0,0-.4-4.44,10.35,10.35,0,0,0-1.85-3.9c0-.07,0-.1-.1-.1S473.24,125,473.24,125.08ZM462.64,150c0,.07.07,0,.2-.09C462.84,149.94,462.78,150,462.64,150Z"/><path class="cls-2" d="M496.34,122.67a1.74,1.74,0,0,0,.85-.75c.24-.36.45-.71.65-1,.74-.94,1.45-1.94,2.15-3s1.42-2.07,2.15-3c.47-.74.94-1.44,1.4-2.1a20.22,20.22,0,0,1,1.5-1.9,15.35,15.35,0,0,0,1.7-1.8,2.69,2.69,0,0,1,2.4-.91,2.52,2.52,0,0,1,1.75.86,5.58,5.58,0,0,1,1.05,1.8,13.22,13.22,0,0,1,.65,2.34c.17.87.32,1.67.45,2.41s.3,1.38.5,2.14.44,1.52.7,2.25.57,1.36.9,2.06a2.11,2.11,0,0,0,1.4,1.25,2,2,0,0,0,1.45-.16,8.8,8.8,0,0,0,1.45-.84,9.89,9.89,0,0,0,1.3-1.11l.9-.89a18.84,18.84,0,0,0,2-2.11c.6-.73,1.27-1.46,2-2.2q1.41-1.69,2.85-3.35t2.85-3.45a6.72,6.72,0,0,0,.8-1.29,1.2,1.2,0,0,1,1.3-.71,1.16,1.16,0,0,1,.35,1.55,8.82,8.82,0,0,1-.85,1.36c-.33.46-.66.91-1,1.34s-.63.82-.9,1.16c-1.4,1.66-2.86,3.46-4.4,5.39a39.28,39.28,0,0,1-4.9,5.2,21.16,21.16,0,0,1-2.85,2,4.16,4.16,0,0,1-3.85.06,6.88,6.88,0,0,1-2.35-2.75,20.32,20.32,0,0,1-1.35-3.75c-.33-1.34-.65-2.7-.95-4.11a14.65,14.65,0,0,0-1.35-3.79,5.78,5.78,0,0,0-1.85,1.59c-.5.67-1,1.37-1.55,2.11s-1,1.45-1.45,2.14-.88,1.42-1.35,2.16q-1.39,2.19-2.7,4.4a9.53,9.53,0,0,1-3.6,3.5,2.86,2.86,0,0,1-1.85-.2,4.44,4.44,0,0,1-1.25-1,13.41,13.41,0,0,1-.8-4.2,43.67,43.67,0,0,1,.1-5c.14-1.7.34-3.36.6-5s.54-3.14.8-4.54c.07-.47.14-1,.2-1.55a10.2,10.2,0,0,1,.35-1.66,5.78,5.78,0,0,1,.6-1.34,1.38,1.38,0,0,1,.95-.66,1.1,1.1,0,0,1,.9.16,2.17,2.17,0,0,1,.5.55,5.38,5.38,0,0,1,.1,2.74,11.27,11.27,0,0,0-.2,3q-.5,3.39-.85,7C496.46,117.47,496.34,120,496.34,122.67Z"/><path class="cls-2" d="M536.74,67.17l.1-.09a1.62,1.62,0,0,1,1.8,1.3,10.64,10.64,0,0,1,.3,2.4,42.9,42.9,0,0,1-.35,8.14q-.54,4-1,7.75-.5,5.2-1,10.55c-.33,3.57-.63,7.16-.9,10.75q-.6,9.51-1.3,19a181.87,181.87,0,0,0-.3,20,13.1,13.1,0,0,0,.1,1.4,11.85,11.85,0,0,1,.1,1.55,4,4,0,0,1-.2,1.34.78.78,0,0,1-.8.61,1.42,1.42,0,0,1-1.75-1.2,17.24,17.24,0,0,1-.45-2.61c-.13-1.06-.21-2.09-.25-3.09s-.08-1.91-.15-2.71q.1-3,0-5.95t0-5.64q.1-14.51,1.2-27.55t2.8-26.15l.6-5.1a18.16,18.16,0,0,0,.25-2.45,3.43,3.43,0,0,1,.85-2.16Z"/><path class="cls-2" d="M550.24,94.78q8.61-.3,17.9-.9a131.25,131.25,0,0,1,18.5.09c.34,0,.7,0,1.1.06a.84.84,0,0,1,.8.55c-.06.53-.31.8-.75.8a6.57,6.57,0,0,1-1.15-.1,181.11,181.11,0,0,0-18.5.14q-9.2.56-18.1,1-1.39,8.2-2.55,16.7a124.91,124.91,0,0,0-1,17.8c0,.87,0,1.84.1,2.91a21.11,21.11,0,0,0,.4,3c.14.73.35,1.63.65,2.7s.75,1.63,1.35,1.7a1.34,1.34,0,0,0,1-.31,8.46,8.46,0,0,0,1.1-.94,10.69,10.69,0,0,0,1-1.15c.3-.41.52-.71.65-.91a96.55,96.55,0,0,0,7.15-10.64q3.15-5.46,6.65-11.36c.6-1.06,1.24-2.16,1.9-3.3s1.4-2.26,2.2-3.39a10.93,10.93,0,0,1,.9-1.16c.34-.36.67-.48,1-.34.54.26.64.68.3,1.25s-.6,1-.8,1.25q-2.49,4.2-4.7,8.5t-4.7,8.5q-1.39,2.29-2.75,4.64T557,136.58q-1.5,2.29-3.1,4.5a10.68,10.68,0,0,1-4.1,3.39,5.3,5.3,0,0,1-2.1,0,6.22,6.22,0,0,1-3.45-3.75,27.68,27.68,0,0,1-1.35-5.64,43.65,43.65,0,0,1-.5-6.66c0-2.3.07-4.54.2-6.75q.51-6.69,1.35-13t2-11.94q-4.59.19-9.35.69t-9.65.7c-.4,0-.85,0-1.35,0s-.78-.21-.85-.75a.71.71,0,0,1,.8-.8,9.49,9.49,0,0,0,1.4-.09q4.71-.3,9.6-.8t9.7-.7c.4-1.41.85-3,1.35-5a40.7,40.7,0,0,1,1.75-5.24,8.41,8.41,0,0,1,.75-1.66,1.58,1.58,0,0,1,1.35-.94,1,1,0,0,1,1,.39,1.44,1.44,0,0,1,.2,1,7.24,7.24,0,0,1-.2,1.16c-.1.39-.18.76-.25,1.1-.33,1.46-.66,3-1,4.54S550.58,93.44,550.24,94.78Z"/><path class="cls-2" d="M576.84,107.78a8.27,8.27,0,0,0-3,2.39,10.78,10.78,0,0,0-1.25,1.61,3.27,3.27,0,0,0-.55,2.1,3.57,3.57,0,0,0,1.1,2c.6.56,1.14,1.08,1.6,1.55l1.55,1.54a14.82,14.82,0,0,1,1.35,1.55q2.5-1.78,4.75-3.75a44.78,44.78,0,0,1,4.85-3.64,37.57,37.57,0,0,1,3.75-2.5q2.06-1.2,4.25-2.3l1.4-.7a1.36,1.36,0,0,1,1.5.09,1,1,0,0,1-.1.8,1.12,1.12,0,0,1-.6.45c-.26.11-.53.2-.8.3a1.33,1.33,0,0,0-.6.45,29,29,0,0,0-4,2.25q-1.85,1.26-3.75,2.46-4.8,3.6-9.3,7.5a30.27,30.27,0,0,1,2.45,4.7,14.56,14.56,0,0,1,1.05,5.7,16.32,16.32,0,0,1-1,6.39,18.17,18.17,0,0,1-3,5.21,21.91,21.91,0,0,1-4.3,3.79,9.39,9.39,0,0,1-5.8,1.71,7.21,7.21,0,0,1-2.3-.5,9.13,9.13,0,0,1-1.7-1,10.6,10.6,0,0,1-1.6-2.3,7.5,7.5,0,0,1-.7-2.91,11,11,0,0,1,1.3-6.39,33.86,33.86,0,0,1,3.3-5,42,42,0,0,1,4-4.36q2.05-2,4-3.64a11.74,11.74,0,0,0-1.6-1.86c-.6-.56-1.2-1.14-1.8-1.75a17.31,17.31,0,0,1-1.65-1.89,7.83,7.83,0,0,1-1.15-2.2,5.2,5.2,0,0,1,0-4,16.17,16.17,0,0,1,2-3.25,25.58,25.58,0,0,1,1.95-2,9.16,9.16,0,0,1,2.25-1.45,8.66,8.66,0,0,1,1.5-.3,2.79,2.79,0,0,1,1.5.2,2.6,2.6,0,0,0,.55.55,1.51,1.51,0,0,1,.55.75,3.23,3.23,0,0,1,0,1.89q-.24,1.11-.75,1.11c-.46.06-.73-.07-.8-.41A2.06,2.06,0,0,0,576.84,107.78Zm-1.3,17.3q-1.69,1.4-3.4,3.09a46.25,46.25,0,0,0-3.3,3.71c-.6.73-1.21,1.54-1.85,2.45a14.89,14.89,0,0,0-1.6,2.95,14.45,14.45,0,0,0-.9,3.34,8.32,8.32,0,0,0,.35,3.66,7.22,7.22,0,0,0,1.3,1.34,3,3,0,0,0,1.9.55,6.87,6.87,0,0,0,4.05-1.55,16.77,16.77,0,0,0,3.15-3.15,13.46,13.46,0,0,0,2-3.8,17.25,17.25,0,0,0,.9-4.45,14.13,14.13,0,0,0-.4-4.44,10.35,10.35,0,0,0-1.85-3.9c0-.07,0-.1-.1-.1S575.54,125,575.54,125.08ZM564.94,150c0,.07.07,0,.2-.09C565.14,149.94,565.08,150,564.94,150Z"/><path class="cls-2" d="M604.54,124.28a1.19,1.19,0,0,1,1.2.19,1.69,1.69,0,0,1,.5.91,2.18,2.18,0,0,1-.55,1.74,2.86,2.86,0,0,1-1.45,1,1.77,1.77,0,0,1-1.5-.3,2.23,2.23,0,0,1-.7-1.9,2,2,0,0,0,.4-.71,7.19,7.19,0,0,1,1-.5Zm1.3-52.81a.32.32,0,0,1,.2-.09c.74-.07,1.12.2,1.15.79a5.33,5.33,0,0,1-.15,1.71q-.3,7.19-.25,14.59t-.25,14.81c-.06.73-.11,1.5-.15,2.3a15.42,15.42,0,0,1-.25,2.3,15.3,15.3,0,0,0-.25,2.15,1.33,1.33,0,0,1-1.25,1.35,1.27,1.27,0,0,1-1.3-1.26c-.06-.76-.13-1.48-.2-2.15a61.7,61.7,0,0,1-.2-7c.07-2.5.14-4.84.2-7,.14-3.14.3-6.24.5-9.3s.47-6,.8-8.7c.14-.87.24-1.71.3-2.5a2.77,2.77,0,0,1,.9-1.91Z"/><path class="cls-2" d="M59.58,21.39A5.26,5.26,0,0,1,59,24.58c-.53,1-1,1.9-1.51,2.84s-.71,1.92-1.06,2.93-.77,2-1.24,3.1q-2.31,6.21-4.7,13.48t-5.05,14q-.9,2.13-2,4.78a4.25,4.25,0,0,1-3.82,2.84,5.6,5.6,0,0,1-3.1-2,12.58,12.58,0,0,1-1.86-3.46,22,22,0,0,1-1.07-4.16c-.23-1.48-.53-2.93-.88-4.35-.6-2.95-1.15-5.91-1.69-8.86a22.14,22.14,0,0,0-2.74-7.63A8.19,8.19,0,0,0,25.09,41q-1.15,1.86-2.22,3.81a103.31,103.31,0,0,0-5.76,12.06,87.72,87.72,0,0,1-5.94,12.06A4.28,4.28,0,0,1,6.74,71a5.44,5.44,0,0,1-4.26-2.83,21.35,21.35,0,0,1-2.3-9,82.6,82.6,0,0,1,0-10.9C.41,44.68.8,41.2,1.33,37.88a40.15,40.15,0,0,1,2.22-8.51A4.77,4.77,0,0,0,5,28.13a2,2,0,0,1,2-.53,4.14,4.14,0,0,1,2.39,1.33,4.22,4.22,0,0,1,.89,2.48,23.1,23.1,0,0,1-.09,3.28l-.36,3.55c-.59,3.66-1.06,7.51-1.42,11.52a75.9,75.9,0,0,0-.17,11.53,96.82,96.82,0,0,0,6-11.44,74.08,74.08,0,0,1,6.73-12,25.91,25.91,0,0,1,2-2.48,9.16,9.16,0,0,1,2.57-1.95,5.73,5.73,0,0,1,2.93-.62,5.64,5.64,0,0,1,3.1,1.33,17.53,17.53,0,0,1,3.28,5.94,55.6,55.6,0,0,1,1.87,7.27c.47,2.55.91,5.14,1.33,7.8a49.24,49.24,0,0,0,1.68,7.36,71.43,71.43,0,0,0,4.61-10.11q2-5.31,4-10.81t4.17-10.73a66.6,66.6,0,0,1,5-9.84,1.09,1.09,0,0,1,1.25-.27A1.59,1.59,0,0,1,59.58,21.39Z"/><path class="cls-2" d="M77.67,27.07c4.14.23,7.3,1.48,9.49,3.72a17.19,17.19,0,0,1,4.34,9q5.67-1.06,11.79-2.39t12-2.75a11.65,11.65,0,0,0,1.78-.62,14.61,14.61,0,0,1,2.21-.71,6.56,6.56,0,0,1,2-.18,1.46,1.46,0,0,1,1.24.8,1.09,1.09,0,0,1-.35,1.42,8.58,8.58,0,0,1-1.77,1,13.88,13.88,0,0,1-2.31.71,15.86,15.86,0,0,0-1.77.44q-5.68,1.77-12,3.1T91.86,43.2a37.31,37.31,0,0,1-1.51,12.86A45,45,0,0,1,85.47,67a55.62,55.62,0,0,1-6.83,8.51,19.6,19.6,0,0,1-9.31,5.32H66.67a7.08,7.08,0,0,1-3-1.33,25.47,25.47,0,0,1-2.31-2,15.51,15.51,0,0,1-2.74-7.72,45.47,45.47,0,0,1,.08-9.39,86.22,86.22,0,0,1,1.6-9.58q1.07-4.69,2-8.42a7,7,0,0,1-.09-6.39,14,14,0,0,1,3.46-4.61,30.83,30.83,0,0,0,1.33-3.72,28.74,28.74,0,0,1,1.51-4.08,12.54,12.54,0,0,1,2.21-3.37,4.55,4.55,0,0,1,3.46-1.42,3.46,3.46,0,0,1,3.55,2.57A9.6,9.6,0,0,1,77.67,27.07ZM69.16,45.51c-.6,3.43-1.33,7.12-2.22,11.08a43.62,43.62,0,0,0-1,12.15,15,15,0,0,0,.62,3,4.32,4.32,0,0,0,1.68,2.31,13.65,13.65,0,0,0,8.16-4.26q3-3.36,5.67-6.91a68.21,68.21,0,0,0,4.26-8.6,21.52,21.52,0,0,0,1.42-10.38,77.7,77.7,0,0,1-9,1.33A72.85,72.85,0,0,1,69.16,45.51ZM77,30.79a5.38,5.38,0,0,0-.36,2,1.18,1.18,0,0,1-1.06,1.33,2.7,2.7,0,0,1-.8-.09c-.17-.06-.38-.15-.62-.26A3.26,3.26,0,0,1,74,31.32a7.49,7.49,0,0,0-1.34,2.31c-.29.83-.56,1.71-.79,2.66a26.33,26.33,0,0,0-.89,2.83c-.24,1-.47,1.9-.71,2.84,3.31,0,6.38-.11,9.22-.35s5.62-.59,8.34-1.07a14.21,14.21,0,0,0-3.28-7Q82.1,31,77,30.79Z"/><path class="cls-2" d="M149.31,59.52a12.4,12.4,0,0,0,2.92-3.37q1.16-1.95,2.4-3.9t2.39-3.9q1.15-2,2.22-3.9,1.23-1.61,2.48-3.55c.83-1.3,1.71-2.6,2.66-3.9.59-.83,1.18-1.69,1.77-2.57a10.83,10.83,0,0,1,2-2.31,5.55,5.55,0,0,1,2.57-1.24,5.77,5.77,0,0,1,3.2.44,7.78,7.78,0,0,1,2,4.35,45.45,45.45,0,0,1,.53,5.76c.06,2,.14,4,.26,6A13.35,13.35,0,0,0,178,52.6a10.16,10.16,0,0,0,3.64-3.1l2.93-4c.94-1.42,1.86-2.87,2.74-4.35a28.22,28.22,0,0,0,2.22-4.52,11.78,11.78,0,0,0,1.51-3.1c.41-1.24,1.39-1.74,2.92-1.51a3,3,0,0,1-.17,3.28,7.71,7.71,0,0,0-1.24,3.28c-.6,1.07-1.13,2.1-1.6,3.11s-.95,2-1.42,3.1A35.24,35.24,0,0,0,186,50.12a18.25,18.25,0,0,1-4.07,5.14,6.37,6.37,0,0,1-2.22,1.42,5.86,5.86,0,0,1-3.28.18,6.33,6.33,0,0,1-3.28-3.28,18,18,0,0,1-1.33-5.15,50.72,50.72,0,0,1-.36-6.2,32.75,32.75,0,0,0-.53-6.12,3.28,3.28,0,0,0-1.51,1.33,19,19,0,0,1-1.33,1.86Q166.15,42,164.29,45t-3.46,6a54.7,54.7,0,0,0-4.69,7.89A14.77,14.77,0,0,1,150,65.37a7.41,7.41,0,0,0-1.24.09,4.05,4.05,0,0,1-1.42-.09,11.83,11.83,0,0,1-1.78-.89,15.92,15.92,0,0,1-2.39-8.06q-.27-4.87-.27-10t-.17-10.29q-.18-5.14-.54-9.75a100.23,100.23,0,0,0-6.56,15.25Q132.82,50,130.16,59q-1.78,6.38-3.28,13.12t-3.29,13.83c-.23,1.06-.47,2.13-.7,3.19a14.6,14.6,0,0,1-1,2.93,6.52,6.52,0,0,1-1.68,2.21,5.09,5.09,0,0,1-2.84,1.07,3.6,3.6,0,0,1-3.19-2.57,29.6,29.6,0,0,1-1.07-4.7,85.51,85.51,0,0,1,0-15.52q.72-8.25,1.6-15.69t2.13-15q1.23-7.53,2.83-14.45c.36-1.42.74-2.89,1.16-4.43a3.43,3.43,0,0,1,3.1-2.66,2.64,2.64,0,0,1,2,.35,3.59,3.59,0,0,1,1,1.42,8.73,8.73,0,0,1-.17,3.9,8.59,8.59,0,0,0-.18,3.9,12.33,12.33,0,0,0,.71,3,4.77,4.77,0,0,1,.18,2.84,1.2,1.2,0,0,1-1.16.7,1.79,1.79,0,0,1-1.33-.53q-1.41,9-2.66,17.91t-1.77,18.8q3-10.27,6.38-21.46t7.45-21.28c.36-.82.83-2,1.42-3.45a21.36,21.36,0,0,1,2.22-4.17,10.42,10.42,0,0,1,3-3,3.66,3.66,0,0,1,3.81,0,4.69,4.69,0,0,1,2.4,2.84,22.27,22.27,0,0,1,1.15,4.79,41.58,41.58,0,0,1,.36,5.59c0,2,.05,3.69.17,5.23A88.1,88.1,0,0,1,149,49,51.34,51.34,0,0,0,149.31,59.52Z"/><path class="cls-2" d="M193.11,41.61a34.5,34.5,0,0,0-2.31,6.47,30.16,30.16,0,0,0-1.06,7.8,13.36,13.36,0,0,0,1.59,6.65q1.6,2.84,5.68,3a17.51,17.51,0,0,0,8.78-1.95c2.77-1.42,5.17-2.78,7.18-4.08,2.36-1.66,4.58-3.28,6.65-4.88s3.93-3.16,5.58-4.7A96.24,96.24,0,0,0,234,42.32q4.17-4.08,8.25-8.34a4.41,4.41,0,0,0,1.15-1.42,16.66,16.66,0,0,1,1.33-2,8.91,8.91,0,0,1,1.51-1.5A1.35,1.35,0,0,1,247.9,29c.83.35,1,1.06.53,2.13a12.13,12.13,0,0,1-1.24,2.3,6.38,6.38,0,0,1-1.06,1.95c-.48.59-.95,1.24-1.42,2a134.42,134.42,0,0,1-9.31,9.76q-4.87,4.61-10,9.22A73.2,73.2,0,0,1,210.49,67a39.66,39.66,0,0,1-4.44,2,24.46,24.46,0,0,1-5.14,1.42,23.23,23.23,0,0,1-5.41.27,10.77,10.77,0,0,1-5.05-1.6,8.56,8.56,0,0,1-1.87-1.68l-1.68-2a17,17,0,0,1-2.22-7.54,33.83,33.83,0,0,1,.54-8.42,52,52,0,0,1,2.21-8.16,51.39,51.39,0,0,1,2.84-6.56,74,74,0,0,1,7.09-10.46,20.78,20.78,0,0,1,10.82-6.74,8.61,8.61,0,0,1,5.94,1.6q2.22,1.77,1.86,5.67a11.56,11.56,0,0,1-2.13,5.32,34.53,34.53,0,0,1-3.72,4.43,40.05,40.05,0,0,1-7,5.59Q199.31,42.5,193.11,41.61Zm16.49-19a18.4,18.4,0,0,0-9.4,6.48,64.33,64.33,0,0,0-6,9.84,11,11,0,0,0,6.56-1.78,48,48,0,0,0,4.61-3.72q1.95-2.13,4.08-4.26a7.59,7.59,0,0,0,2-6A1.92,1.92,0,0,0,209.6,22.63Z"/><path class="cls-2" d="M244.71,58.63q3.54-6.74,7.09-13.74a64.68,64.68,0,0,1,8.34-12.68q.71-.88,1.77-2.13a13.91,13.91,0,0,1,2.3-2.13A7.87,7.87,0,0,1,267,26.71a5.47,5.47,0,0,1,3.28.36q2.67,1.24,3.9,5.49t2.13,8.52c.24,1.3.5,2.66.8,4.07s.62,2.84,1,4.26a29,29,0,0,0,1.41,4c.59,1.36,1.3,2.16,2.13,2.39a3,3,0,0,0,2.66-.62,22.64,22.64,0,0,1,2.13-1.5c.71-.59,1.36-1.1,1.95-1.51a13.18,13.18,0,0,0,1.77-1.51,72.76,72.76,0,0,0,7.45-7.45A90.19,90.19,0,0,1,305,35.58a29.69,29.69,0,0,1,3.1-2,4.6,4.6,0,0,1,2.13-.62c.65,0,1,.41,1.15,1.24s-.26,1.3-1.15,1.77a8.83,8.83,0,0,0-2,1.42,44.26,44.26,0,0,0-5,5.06q-2.49,2.93-5.32,5.94c-1,.94-1.87,1.83-2.75,2.66s-1.81,1.71-2.75,2.66c-1.54,1.53-3.19,3-5,4.52a10.42,10.42,0,0,1-6.91,2.21l-.8-.35a2.59,2.59,0,0,0-1-.18,10.91,10.91,0,0,1-4.34-5.49,55.75,55.75,0,0,1-2.22-7.54q-.88-4-1.68-8a24.65,24.65,0,0,0-2.57-7.18,10.51,10.51,0,0,0-4.61,4,57.08,57.08,0,0,1-3.55,5,80.61,80.61,0,0,0-6,11q-2.66,5.85-5.14,12.05a10.56,10.56,0,0,0-1.24,2.75,32.13,32.13,0,0,1-1.24,3.28,9.1,9.1,0,0,1-1.87,2.75,3.28,3.28,0,0,1-3.1.8,3,3,0,0,1-2.39-1.86,11,11,0,0,1-1-3.9,43.87,43.87,0,0,1-.09-4.79c.06-1.71.15-3.28.27-4.7q.71-8.52,1.95-16.58a99.81,99.81,0,0,1,3.37-14.81c.47-1.3.89-2.48,1.24-3.54a2.48,2.48,0,0,1,2.31-1.78,2,2,0,0,1,2.21,1,5.13,5.13,0,0,1,.53,2.75,19.35,19.35,0,0,1-.53,3.45c-.29,1.25-.5,2.28-.62,3.11q-1.25,6.74-2.13,13.47T244.71,58.63Z"/></g></g></svg>